<svg width="113" height="30" viewBox="0 0 113 30" fill="none" xmlns="http://www.w3.org/2000/svg">
<g clip-path="url(#clip0_2040_51043)">
<path d="M24.9336 23.1667V6.92649H32.0881C35.0727 6.92649 36.8723 8.39689 36.8723 10.789C36.8723 12.3692 35.9726 13.686 34.568 14.2785C36.6529 14.9369 37.7721 16.3634 37.7721 18.3825C37.7721 21.1696 35.8189 23.1667 32.3295 23.1667H24.9336ZM31.6491 9.64782H28.2475V13.2251H31.6491C33.0318 13.2251 33.6243 12.413 33.6243 11.4255C33.6243 10.4379 33.0318 9.64782 31.6491 9.64782ZM31.9784 15.7927H28.2475V20.4234H31.9784C33.7121 20.4234 34.4583 19.4358 34.4583 18.0971C34.4583 16.8023 33.7121 15.7927 31.9784 15.7927ZM38.8626 23.1667V6.92649H42.2642V23.1667H38.8626ZM54.3422 23.1228C53.7935 23.2544 53.2888 23.3203 52.8718 23.3203C51.5111 23.3203 50.6992 22.6839 50.3699 21.806C49.6677 22.8595 48.4826 23.3862 47.1219 23.3862C44.9493 23.3862 43.391 22.0474 43.391 19.8309C43.391 17.4607 45.0589 16.4073 47.8022 16.0342C49.4921 15.7927 50.1066 15.4197 50.1066 14.6735C50.1066 13.9712 49.5579 13.5104 48.5484 13.5104C47.4511 13.5104 46.5732 14.1249 46.4635 15.3319L43.6324 14.6296C44.2908 12.6325 45.9588 11.2718 48.724 11.2718C51.3795 11.2718 53.3107 12.5228 53.3107 15.0027V20.204C53.3107 20.7526 53.64 20.9062 54.3422 20.7745V23.1228ZM50.1505 19.2602V17.1315C49.7116 17.4826 49.119 17.6802 48.4606 17.8118C47.2755 18.0752 46.6391 18.4702 46.6391 19.5895C46.6391 20.599 47.2317 21.2135 48.2192 21.2135C49.2946 21.2135 50.1505 20.5551 50.1505 19.2602ZM55.1525 23.1667V11.4913H58.5542V13.247C59.1906 12.1497 60.3318 11.2718 61.89 11.2718C63.7115 11.2718 65.1819 12.413 65.1819 14.7613V23.1667H61.8022V15.705C61.8022 14.4979 61.2755 13.9493 60.3318 13.9493C59.2345 13.9493 58.5542 14.7832 58.5542 15.9683V23.1667H55.1525ZM73.6789 23.1667V21.5207C73.1302 22.5961 72.0329 23.3862 70.6503 23.3862C68.0387 23.3862 66.3488 21.0379 66.3488 17.329C66.3488 13.6421 68.0387 11.2718 70.6503 11.2718C72.0329 11.2718 73.1302 12.0839 73.6789 13.1592V6.92649H77.0586V23.1667H73.6789ZM73.7667 17.0437C73.7667 14.9369 73.1083 13.664 71.8354 13.664C70.4309 13.664 69.7944 15.1344 69.7944 17.329C69.7944 19.5236 70.4309 20.994 71.8354 20.994C73.1083 20.994 73.7667 19.7431 73.7667 17.6363V17.0437ZM88.0089 11.5571C88.0089 14.3663 85.8363 16.4073 83.1588 16.4073C80.4813 16.4073 78.3086 14.3663 78.3086 11.5571C78.3086 8.74803 80.4813 6.70703 83.1588 6.70703C85.8363 6.70703 88.0089 8.74803 88.0089 11.5571ZM86.9993 11.5571C86.9993 9.31863 85.3534 7.60683 83.1588 7.60683C80.9642 7.60683 79.3182 9.31863 79.3182 11.5571C79.3182 13.7956 80.9642 15.5075 83.1588 15.5075C85.3534 15.5075 86.9993 13.7956 86.9993 11.5571ZM82.3688 11.8863V14.0809H81.1617V8.96749H83.6197C84.717 8.96749 85.3754 9.56004 85.3754 10.4159C85.3754 11.0524 84.9803 11.6669 84.1683 11.8424L85.5948 14.0809H84.2561L82.8735 11.8863H82.3688ZM83.4002 9.82339H82.3688V11.0524H83.4002C83.883 11.0524 84.1025 10.7671 84.1025 10.4379C84.1025 10.0867 83.883 9.82339 83.4002 9.82339Z" fill="#1E1E1C"/>
</g>
<defs>
<clipPath id="clip0_2040_51043">
<rect width="63.3115" height="17.7" fill="white" transform="translate(24.8477 6.14844)"/>
</clipPath>
</defs>
</svg>
