<svg xmlns="http://www.w3.org/2000/svg" width="1200" height="1200" xmlns:v="https://vecta.io/nano"><path d="M149.125-.257l4.804-.011 13.157-.001 14.332-.012 25.104-.011 37.333-.016 70.562-.026 54.498-.011 15.69-.005 3.94-.001 109.718-.019h4.178 18.863 8.411 4.21l133.081-.041 33.525-.021 2.085-.001 63.665-.022h2.02l45.881-.002h15.699 3.904l62.16-.03 62.494-.006 37.106-.016 24.816.005 14.119-.007C1071.522-.63 1104.923 4.287 1136 26l2.965 2.063c32.404 23.712 53.422 58.331 60.07 97.815 1.076 7.103 1.25 14.044 1.233 21.218l.014 4.12.01 11.209.02 12.134.023 23.733.011 19.315.025 54.883v2.983 2.987l.047 47.87.041 49.272.026 27.614.009 23.522.011 11.972c.146 35.487-5.827 67.697-26.504 97.291l-2.062 2.965c-23.713 32.405-58.351 53.448-97.846 60.07-6.934 1.051-13.698 1.249-20.7 1.23l-3.961.013-10.77.009c-3.887 0-7.774.011-11.661.02l-20.18.028-29.245.046-47.548.086-2.97.004L907 600.5l-22.984.032-2.859.004-47.35.088-29.136.042-20.002.032-11.503.013c-49.243-.027-91.477 8.565-128.365 43.457-31.25 31.599-43.996 71.78-43.932 115.554l-.006 3.961-.005 8.527-.01 13.883-.016 20.162-.041 31.929-.019 10.953-.005 2.764-.049 31.091-.004 2.868-.04 45.959-.068 47.32-.025 29.111-.031 19.986-.008 11.492c.095 35.121-6.11 67.03-26.541 96.272l-2.062 2.965c-23.712 32.404-58.331 53.422-97.815 60.07-7.103 1.076-14.044 1.25-21.218 1.233l-4.12.014-11.209.01c-4.045 0-8.089.011-12.134.02l-23.733.023-19.315.011-54.883.025h-2.983-2.987c-15.957-.001-31.913.018-47.87.047l-49.272.041c-9.205-.001-18.409.005-27.614.026l-23.522.009a1988.18 1988.18 0 0 0-11.972.011c-35.487.146-67.697-5.827-97.291-26.504l-2.965-2.062c-32.404-23.712-53.306-58.246-60.071-97.688-1.18-7.796-1.245-15.513-1.222-23.374l-.011-4.804-.001-13.157-.012-14.332-.011-25.104-.016-37.333-.026-70.562-.011-54.498-.005-15.69-.001-3.94-.019-109.718v-4.178-18.863-8.411-4.21l-.041-133.081-.021-33.525-.001-2.085-.022-63.665v-2.02l-.002-45.881v-15.699-3.904l-.03-62.16-.006-62.494-.016-37.106.005-24.816-.007-14.119C-.63 128.478 4.287 95.077 26 64l2.063-2.965C51.775 28.631 86.309 7.729 125.751.965c7.796-1.18 15.513-1.245 23.374-1.222z" fill="#5065d2"/><path d="M791.834 708.866l3.558-.014 3.896.001 4.149-.011 11.4-.016 12.297-.022 29.703-.039 14-.015 46.563-.039 12.081-.006 3.033-.001 48.592-.066 49.929-.054 28.016-.036 23.871-.02 12.164-.017c31.262-.142 31.262-.142 43.916 4.49l3.341 1.208c12.901 4.9 23.004 12.151 32.659 21.792l2.473 2.438c16.106 16.797 23.024 39.032 22.915 61.925l.016 4.17.003 11.334.018 12.272.013 23.995.003 19.518.002 2.814.005 5.66-.003 52.996.027 48.394.027 49.791.016 27.914-.002 23.763.005 12.104c.132 37.225.132 37.225-8.267 53.789l-1.035 2.117c-3.103 6.159-6.864 11.659-11.215 17.008l-1.449 1.906c-13.211 16.656-35.02 26.753-55.551 30.094-4.794.381-9.555.411-14.363.388l-4.17.016-11.334.003c-4.091-.005-8.182.008-12.272.018l-23.995.013c-6.506-.004-13.012-.003-19.518.003l-2.814.002-5.66.005c-17.665.014-35.33.008-52.996-.003-16.131-.01-32.263.003-48.394.027l-49.791.027c-9.305-.003-18.609-.001-27.914.016-7.921.015-15.842.015-23.763-.002-4.035-.008-8.069-.011-12.104.005-37.2.132-37.2.132-53.726-8.205l-2.12-1.04c-22.335-11.335-38.056-31.063-46.187-54.5-4.005-14.399-3.445-29.131-3.388-43.947l-.01-12.247.009-23.924.01-27.908.033-49.815.021-48.255.001-52.656.005-5.621.002-2.793-.001-19.42.021-23.682.007-12.066.018-11.071-.012-5.845c.179-25.123 10.518-46.123 27.531-64.085 14.343-14.045 35.411-24.536 55.709-24.572z" fill="#5066d3"/><path d="M834.904 788.739l3.335-.012 11.068-.002 7.934-.015 19.319-.012 15.709-.004 2.26-.002 4.545-.004 42.615-.003 38.952-.025 40.023-.024 22.459-.015 19.125-.001 9.749-.005 10.59.01 3.083-.022c9.934.075 18.82 2.065 26.142 9.15 7.341 7.815 8.636 15.096 8.575 25.505l.016 3.378v11.174l.021 8.024.013 19.514.003 15.867.002 2.284.005 4.594-.003 43.052.027 39.35.027 40.444.016 22.69-.002 19.317.005 9.847-.016 10.695.029 3.114c-.081 7.996-1.892 15.234-6.78 21.711-6.181 6.041-13.185 9.956-21.937 10.063-8.331-.151-16.044-2.414-22.102-8.395-8.727-10.101-8.546-20.858-8.392-33.426l-.003-5.828.075-15.723.048-16.468.128-31.14.13-35.471L1062 889h-2l-.771 1.755c-1.363 2.49-2.881 4.15-4.885 6.159l-2.318 2.337-2.558 2.548-2.708 2.722-7.459 7.469-8.039 8.059-15.762 15.785-12.819 12.83-36.351 36.376-1.981 1.98-1.983 1.983-31.777 31.824-32.636 32.677-18.319 18.346-15.608 15.617-7.957 7.967-8.648 8.638-2.51 2.542c-4.901 4.843-9.685 8.419-15.91 11.385l-2.703 1.289c-7.035 2.177-14.725 1.407-21.207-1.98-8.113-5.08-13.01-11.135-16.09-20.309-1.429-8.794.373-15.842 5.449-23.061 4.503-5.852 9.424-11.095 14.655-16.298l2.711-2.721 7.398-7.396 7.998-8.006 15.642-15.644 12.708-12.705 1.829-1.83 3.678-3.68 34.451-34.439 29.574-29.576 34.353-34.362 3.66-3.658 1.819-1.818 12.704-12.71 15.465-15.458 7.893-7.893 8.543-8.531 2.538-2.552 2.3-2.284 1.993-1.992C1018 849 1018 849 1020 849v-2l-3.033.011-73.114.196-35.358.095-30.823.075-16.316.047-15.37.03-5.628.024c-11.714.091-22.708.054-31.752-8.539-6.146-7.417-8.574-15.017-8.129-24.598 1.594-10.168 7.599-16.321 15.582-22.227 6.102-3.499 12.016-3.399 18.846-3.374z" fill="#fdfefe"/></svg>