<svg width="113" height="30" viewBox="0 0 113 30" fill="none" xmlns="http://www.w3.org/2000/svg">
<g clip-path="url(#clip0_2040_51065)">
<path d="M18.4559 15.2791C20.1553 15.2791 21.533 13.9014 21.533 12.202C21.533 10.5026 20.1553 9.125 18.4559 9.125C16.7565 9.125 15.3789 10.5026 15.3789 12.202C15.3789 13.9014 16.7565 15.2791 18.4559 15.2791Z" fill="#1E1E1C"/>
<path d="M12.862 8.00519C13.7889 8.00519 14.5404 7.25376 14.5404 6.32682C14.5404 5.39987 13.7889 4.64844 12.862 4.64844C11.935 4.64844 11.1836 5.39987 11.1836 6.32682C11.1836 7.25376 11.935 8.00519 12.862 8.00519Z" fill="#1E1E1C"/>
<path d="M18.4549 7.44878C19.0728 7.44878 19.5738 6.94782 19.5738 6.32986C19.5738 5.71189 19.0728 5.21094 18.4549 5.21094C17.8369 5.21094 17.3359 5.71189 17.3359 6.32986C17.3359 6.94782 17.8369 7.44878 18.4549 7.44878Z" fill="#1E1E1C"/>
<path d="M6.98611 13.3199C7.60407 13.3199 8.10503 12.8189 8.10503 12.201C8.10503 11.583 7.60407 11.082 6.98611 11.082C6.36814 11.082 5.86719 11.583 5.86719 12.201C5.86719 12.8189 6.36814 13.3199 6.98611 13.3199Z" fill="#1E1E1C"/>
<path d="M12.8611 24.7886C13.4791 24.7886 13.98 24.2877 13.98 23.6697C13.98 23.0517 13.4791 22.5508 12.8611 22.5508C12.2431 22.5508 11.7422 23.0517 11.7422 23.6697C11.7422 24.2877 12.2431 24.7886 12.8611 24.7886Z" fill="#1E1E1C"/>
<path d="M24.3299 18.9175C24.9478 18.9175 25.4488 18.4166 25.4488 17.7986C25.4488 17.1806 24.9478 16.6797 24.3299 16.6797C23.7119 16.6797 23.2109 17.1806 23.2109 17.7986C23.2109 18.4166 23.7119 18.9175 24.3299 18.9175Z" fill="#1E1E1C"/>
<path d="M6.98763 7.16666C7.4511 7.16666 7.82682 6.79094 7.82682 6.32747C7.82682 5.864 7.4511 5.48828 6.98763 5.48828C6.52416 5.48828 6.14844 5.864 6.14844 6.32747C6.14844 6.79094 6.52416 7.16666 6.98763 7.16666Z" fill="#1E1E1C"/>
<path d="M6.98763 24.5104C7.4511 24.5104 7.82682 24.1347 7.82682 23.6712C7.82682 23.2077 7.4511 22.832 6.98763 22.832C6.52416 22.832 6.14844 23.2077 6.14844 23.6712C6.14844 24.1347 6.52416 24.5104 6.98763 24.5104Z" fill="#1E1E1C"/>
<path d="M24.3314 24.5104C24.7948 24.5104 25.1706 24.1347 25.1706 23.6712C25.1706 23.2077 24.7948 22.832 24.3314 22.832C23.8679 22.832 23.4922 23.2077 23.4922 23.6712C23.4922 24.1347 23.8679 24.5104 24.3314 24.5104Z" fill="#1E1E1C"/>
<path d="M24.3314 7.16666C24.7948 7.16666 25.1706 6.79094 25.1706 6.32747C25.1706 5.864 24.7948 5.48828 24.3314 5.48828C23.8679 5.48828 23.4922 5.864 23.4922 6.32747C23.4922 6.79094 23.8679 7.16666 24.3314 7.16666Z" fill="#1E1E1C"/>
<path d="M18.4557 25.3489C19.3827 25.3489 20.1341 24.5975 20.1341 23.6706C20.1341 22.7436 19.3827 21.9922 18.4557 21.9922C17.5288 21.9922 16.7773 22.7436 16.7773 23.6706C16.7773 24.5975 17.5288 25.3489 18.4557 25.3489Z" fill="#1E1E1C"/>
<path d="M24.3307 13.8802C25.2577 13.8802 26.0091 13.1288 26.0091 12.2018C26.0091 11.2749 25.2577 10.5234 24.3307 10.5234C23.4038 10.5234 22.6523 11.2749 22.6523 12.2018C22.6523 13.1288 23.4038 13.8802 24.3307 13.8802Z" fill="#1E1E1C"/>
<path d="M6.98697 19.4739C7.91391 19.4739 8.66535 18.7225 8.66535 17.7956C8.66535 16.8686 7.91391 16.1172 6.98697 16.1172C6.06003 16.1172 5.30859 16.8686 5.30859 17.7956C5.30859 18.7225 6.06003 19.4739 6.98697 19.4739Z" fill="#1E1E1C"/>
<path d="M18.4559 20.8728C20.1553 20.8728 21.533 19.4952 21.533 17.7958C21.533 16.0964 20.1553 14.7188 18.4559 14.7188C16.7565 14.7188 15.3789 16.0964 15.3789 17.7958C15.3789 19.4952 16.7565 20.8728 18.4559 20.8728Z" fill="#1E1E1C"/>
<path d="M12.8622 15.2791C14.5616 15.2791 15.9392 13.9014 15.9392 12.202C15.9392 10.5026 14.5616 9.125 12.8622 9.125C11.1628 9.125 9.78516 10.5026 9.78516 12.202C9.78516 13.9014 11.1628 15.2791 12.8622 15.2791Z" fill="#1E1E1C"/>
<path d="M12.8622 20.8728C14.5616 20.8728 15.9392 19.4952 15.9392 17.7958C15.9392 16.0964 14.5616 14.7188 12.8622 14.7188C11.1628 14.7188 9.78516 16.0964 9.78516 17.7958C9.78516 19.4952 11.1628 20.8728 12.8622 20.8728Z" fill="#1E1E1C"/>
<path d="M107.469 21.7133H104.453V8.51562H107.469V21.7133Z" fill="#1E1E1C"/>
<path d="M93.0666 21.7133H89.9141L94.3198 8.51562H98.1185L102.524 21.7133H99.2934L98.4906 19.0111H93.8694L93.0666 21.7133ZM96.18 10.7087C96.1017 11.2831 95.573 13.2412 94.5939 16.583H97.7661C96.8916 13.5937 96.3629 11.6356 96.18 10.7087Z" fill="#1E1E1C"/>
<path d="M83.2885 21.7149H80.4297V7.87109H83.2885V21.7149Z" fill="#1E1E1C"/>
<path d="M77.8784 21.7149H75.0195V7.87109H77.8784V21.7149Z" fill="#1E1E1C"/>
<path d="M68.6877 13.861C68.2309 13.861 67.8262 14.0307 67.4737 14.3701C67.1213 14.6964 66.8863 15.186 66.7688 15.8387H70.2151V15.6037C70.1239 14.4419 69.6148 13.861 68.6877 13.861ZM72.2711 21.1452C71.5925 21.589 70.4959 21.8109 68.9815 21.8109C67.4673 21.8109 66.2533 21.341 65.3394 20.4011C64.4386 19.4481 63.9883 18.208 63.9883 16.6807C63.9883 15.1403 64.4258 13.9263 65.3002 13.0386C66.1881 12.1379 67.2846 11.6875 68.5898 11.6875C69.9085 11.6875 70.9527 12.0791 71.7228 12.8624C72.4932 13.6325 72.8781 14.7878 72.8781 16.3282C72.8781 16.6284 72.8261 17.1441 72.7214 17.8751H66.8863C67.0821 18.4234 67.4217 18.8476 67.9045 19.1479C68.3876 19.4481 68.9686 19.5983 69.6472 19.5983C70.6526 19.5983 71.527 19.3176 72.2711 18.7563V21.1452Z" fill="#1E1E1C"/>
<path d="M60.7623 21.8127C58.504 21.8127 57.3747 20.6836 57.3747 18.4252V13.8824H55.9453V11.7872H57.3747V9.4375H60.2336V11.7872H62.5441V13.8824H60.2336V18.4448C60.2336 18.7973 60.3315 19.0648 60.5273 19.2476C60.7362 19.4304 61.0495 19.5218 61.4672 19.5218C61.898 19.5218 62.3159 19.3912 62.7204 19.1301V21.4994C62.2376 21.7083 61.5847 21.8127 60.7623 21.8127Z" fill="#1E1E1C"/>
<path d="M50.6955 13.861C50.2388 13.861 49.834 14.0307 49.4815 14.3701C49.1291 14.6964 48.8941 15.186 48.7766 15.8387H52.2229V15.6037C52.1317 14.4419 51.6226 13.861 50.6955 13.861ZM54.2789 21.1452C53.6003 21.589 52.5037 21.8109 50.9893 21.8109C49.4751 21.8109 48.2611 21.341 47.3472 20.4011C46.4465 19.4481 45.9961 18.208 45.9961 16.6807C45.9961 15.1403 46.4336 13.9263 47.308 13.0386C48.1959 12.1379 49.2924 11.6875 50.5976 11.6875C51.9163 11.6875 52.9605 12.0791 53.7306 12.8624C54.501 13.6325 54.8859 14.7878 54.8859 16.3282C54.8859 16.6284 54.8339 17.1441 54.7293 17.8751H48.8941C49.0899 18.4234 49.4295 18.8476 49.9123 19.1479C50.3954 19.4481 50.9764 19.5983 51.655 19.5983C52.6604 19.5983 53.5348 19.3176 54.2789 18.7563V21.1452Z" fill="#1E1E1C"/>
<path d="M37.5702 21.7133H34.5547V8.51562H39.1171C40.5921 8.51562 41.7734 8.90725 42.6613 9.69049C43.562 10.4737 44.0123 11.4919 44.0123 12.7451C44.0123 14.6249 43.2095 15.9238 41.6039 16.6418L44.9522 21.7133H41.3493L38.4905 17.1313H37.5702V21.7133ZM39.0583 10.9633H37.5702V14.6837H38.9996C40.3048 14.6837 40.9577 14.044 40.9577 12.7647C40.9577 12.2034 40.7879 11.7661 40.4486 11.4528C40.109 11.1265 39.6458 10.9633 39.0583 10.9633Z" fill="#1E1E1C"/>
</g>
<defs>
<clipPath id="clip0_2040_51065">
<rect width="102.381" height="20.7" fill="white" transform="translate(5.30859 4.64844)"/>
</clipPath>
</defs>
</svg>
