<svg width="113" height="30" viewBox="0 0 113 30" fill="none" xmlns="http://www.w3.org/2000/svg">
<g clip-path="url(#clip0_2040_51062)">
<path fill-rule="evenodd" clip-rule="evenodd" d="M26.8608 6.48544C28.5254 5.67754 30.5297 6.372 31.3376 8.03657L33.6814 12.8656L36.0631 8.02125C36.8794 6.36081 38.8873 5.67656 40.5478 6.49293C42.2081 7.30929 42.8925 9.31714 42.0761 10.9776L36.6685 21.9763C36.1036 23.1252 34.9336 23.8516 33.6534 23.8484C32.3733 23.8451 31.2069 23.1127 30.648 21.9611L25.3097 10.9623C24.5018 9.29769 25.1962 7.29335 26.8608 6.48544ZM50.8069 6.14921C52.0871 6.15247 53.2534 6.88492 53.8124 8.03657L59.1507 19.0354C59.6546 20.0737 59.5887 21.2982 58.9761 22.2763C58.3636 23.2544 57.2908 23.8484 56.1367 23.8484H45.3907C44.2337 23.8484 43.1584 23.2513 42.5468 22.269C41.9352 21.2868 41.8737 20.0584 42.3843 19.0201L47.7919 8.02125C48.3567 6.87246 49.5268 6.14595 50.8069 6.14921ZM63.0268 9.49941C63.0268 7.64914 64.5267 6.1492 66.3769 6.1492H71.1179C71.2109 6.1492 71.3038 6.15308 71.3967 6.16082L72.7291 6.27207C73.1293 6.30549 73.8376 6.40104 74.5828 6.79498C78.4632 8.84644 78.4632 14.4508 74.5828 16.5022C73.8376 16.8962 73.1293 16.9917 72.7291 17.0251L71.3967 17.1364C71.3038 17.1441 71.2109 17.148 71.1179 17.148H69.7272V20.4983C69.7272 22.3485 68.2272 23.8484 66.3769 23.8484C64.5267 23.8484 63.0268 22.3485 63.0268 20.4983V9.49941ZM84.0763 6.1492C85.9265 6.1492 87.4264 7.64914 87.4264 9.49941V20.4983C87.4264 22.3485 85.9265 23.8484 84.0763 23.8484C82.226 23.8484 80.726 22.3485 80.726 20.4983V9.49941C80.726 7.64914 82.226 6.1492 84.0763 6.1492ZM50.7712 17.148H50.7867L50.7789 17.1321L50.7712 17.148Z" fill="#1E1E1C"/>
</g>
<defs>
<clipPath id="clip0_2040_51062">
<rect width="63.0562" height="17.7" fill="white" transform="translate(24.9727 6.14844)"/>
</clipPath>
</defs>
</svg>
