<svg width="14" height="9" viewBox="0 0 14 9" fill="none" xmlns="http://www.w3.org/2000/svg">
<path d="M0.5 3.09961H3.87986C4.8851 3.09961 5.7 3.91451 5.7 4.91974C5.7 6.42759 4.47765 7.64995 2.9698 7.64995H2.5C1.39543 7.64995 0.5 6.75451 0.5 5.64994V3.09961Z" stroke="#FF8D28" stroke-linecap="round" stroke-linejoin="round"/>
<path d="M8.3 4.91974C8.3 3.91451 9.1149 3.09961 10.1201 3.09961H13.5V5.64995C13.5 6.75452 12.6046 7.64995 11.5 7.64995H11.0302C9.52235 7.64995 8.3 6.42759 8.3 4.91974Z" stroke="#FF8D28" stroke-linecap="round" stroke-linejoin="round"/>
<path d="M0.5 3.10019L1.8 0.5H3.1M13.5 3.10019L12.2 0.5H10.9" stroke="#FF8D28" stroke-linecap="round" stroke-linejoin="round"/>
<path d="M5.69531 3.75H8.29531" stroke="#FF8D28" stroke-linecap="round" stroke-linejoin="round"/>
</svg>
