<svg width="96" height="113" viewBox="0 0 96 113" fill="none" xmlns="http://www.w3.org/2000/svg">
<path d="M3.25 17.7504C4.39226 14.0052 6.89459 11.9741 10.25 9.75C10.25 28.75 18.75 40.25 25.25 41.2504L13.25 47.2504L3.25 17.7504Z" fill="#C2C3F8"/>
<path d="M40.75 9.24979C41.8923 5.50464 41.3946 6.47408 44.75 4.25C42.75 37.25 59.75 37.75 67.25 37.25C68.1436 42.38 67.1773 45.104 63.75 49.75C56.1045 42.2657 51.7435 41.3882 38.25 39.25L40.75 9.24979Z" fill="#C2C3F8"/>
<path d="M27.25 48.2573C38.75 47.2601 48.75 58.2519 58.75 58.2621C56.75 91.2621 96.25 60.75 90.25 46.75C91.1436 51.88 95.75 95.25 72.75 104.75C57.25 121.25 1.75 109.75 1.75 70.7532C5.80041 57.4502 11.25 50.75 27.25 48.2573Z" fill="#C2C3F8"/>
<path d="M51.3826 96.6984C48.8587 79.351 42.9457 70.8872 26.8826 59.1984C48.7601 85.1984 79.3826 46.6984 49.3826 41.1984C20.8826 35.9744 3.3826 52.1975 1.3826 71.1984C-0.43256 88.6976 16.4297 112.698 49.3826 111.198C76.9297 109.945 87.0731 96.7487 93.3826 71.1984C94.6175 66.1976 93.417 59.307 92.4297 51.6975C91.4297 38.1979 74.4297 36.7 70.4297 41.1984C64.9297 46.7 62.0854 52.4501 60.9297 60.1975C55.7828 94.7 89.5832 80.2525 93.5832 60.75M67.6747 44.25L66.9297 15.7C65.9297 -2.30564 39.7693 -3.30469 39.9297 11.7C40.0523 23.1691 39.8458 30.9372 37.75 39.75L26.8826 11.7C22.9297 2.19531 -1.07031 8.19531 3.42969 21.2L12.75 48.75" stroke="black" stroke-width="2.5" stroke-linecap="round" stroke-linejoin="round"/>
</svg>
