<svg width="24" height="24" viewBox="0 0 24 24" fill="none" xmlns="http://www.w3.org/2000/svg">
<path d="M16 18.9282C14.7838 19.6303 13.4043 20 12 20C10.5957 20 9.21615 19.6303 8 18.9282C6.78385 18.2261 5.77394 17.2162 5.0718 16C4.36965 14.7838 4 13.4043 4 12C4 10.5957 4.36965 9.21615 5.0718 8C5.77394 6.78385 6.78385 5.77394 8 5.0718C9.21615 4.36965 10.5957 4 12 4C13.4043 4 14.7838 4.36965 16 5.0718" stroke="#33363F" stroke-width="2"/>
<path d="M22 12L22.7809 11.3753L23.2806 12L22.7809 12.6247L22 12ZM13 13C12.4477 13 12 12.5523 12 12C12 11.4477 12.4477 11 13 11V12V13ZM18 7L18.7809 6.3753L22.7809 11.3753L22 12L21.2191 12.6247L17.2191 7.6247L18 7ZM22 12L22.7809 12.6247L18.7809 17.6247L18 17L17.2191 16.3753L21.2191 11.3753L22 12ZM22 12V13H13V12V11H22V12Z" fill="#33363F"/>
</svg>
