<svg width="24" height="24" viewBox="0 0 24 24" fill="none" xmlns="http://www.w3.org/2000/svg">
<path d="M17.9463 3.71484C18.4628 3.62296 19.1588 3.59214 19.7217 4.06641L19.832 4.16797L19.9336 4.27832C20.4082 4.84114 20.377 5.53709 20.2852 6.05371C20.1858 6.61188 19.9478 7.31686 19.6826 8.1123L17.5195 14.6025C17.2509 15.4084 17.0371 16.0502 16.8506 16.5283C16.6773 16.9725 16.4715 17.4328 16.1621 17.7549C14.9816 18.9833 13.0164 18.9833 11.8359 17.7549C11.5267 17.4329 11.3207 16.9723 11.1475 16.5283C10.961 16.0502 10.7471 15.4082 10.4785 14.6025C10.3584 14.2421 10.3313 14.17 10.3018 14.1143C10.2079 13.9372 10.0628 13.792 9.88574 13.6982C9.83002 13.6688 9.75719 13.6414 9.39746 13.5215C8.59174 13.2529 7.94971 13.039 7.47168 12.8525C7.02769 12.6793 6.56704 12.4734 6.24512 12.1641C5.01711 10.9836 5.01688 9.01824 6.24512 7.83789C6.5671 7.52853 7.02762 7.32268 7.47168 7.14941C7.94976 6.96289 8.59164 6.74907 9.39746 6.48047L15.8877 4.31738C16.683 4.05227 17.3881 3.81421 17.9463 3.71484ZM18.2969 5.68457C17.918 5.75203 17.3804 5.92822 16.5205 6.21484L10.0293 8.37793C9.20214 8.65365 8.61807 8.84889 8.19824 9.0127C7.99082 9.09364 7.84561 9.1589 7.74512 9.21191C7.67344 9.24977 7.64033 9.27321 7.63086 9.28027C7.22169 9.67362 7.22192 10.3282 7.63086 10.7217C7.64031 10.7287 7.67363 10.7523 7.74512 10.79C7.84558 10.843 7.99094 10.9084 8.19824 10.9893C8.61804 11.153 9.20224 11.3483 10.0293 11.624C10.326 11.7229 10.5845 11.8051 10.8203 11.9297C11.3526 12.2112 11.7887 12.6474 12.0703 13.1797C12.195 13.4156 12.2771 13.674 12.376 13.9707C12.6517 14.7977 12.847 15.3819 13.0107 15.8018C13.0916 16.009 13.157 16.1544 13.21 16.2549C13.2473 16.3256 13.2709 16.3591 13.2783 16.3691C13.6718 16.7785 14.3262 16.7785 14.7197 16.3691C14.7268 16.3597 14.7502 16.3267 14.7881 16.2549C14.8411 16.1543 14.9063 16.0093 14.9873 15.8018C15.1511 15.3819 15.3463 14.7979 15.6221 13.9707L17.7852 7.47949C18.0718 6.61943 18.248 6.082 18.3154 5.70312C18.3167 5.69597 18.3162 5.68844 18.3174 5.68164C18.3109 5.68272 18.3037 5.68336 18.2969 5.68457Z" fill="#33363F"/>
</svg>
