<svg width="24" height="24" viewBox="0 0 24 24" fill="none" xmlns="http://www.w3.org/2000/svg">
<path d="M16.7488 18.8665H8.18017C7.3981 18.8657 6.64831 18.5546 6.09531 18.0016C5.5423 17.4486 5.23125 16.6988 5.23041 15.9168V7.34814C5.23125 6.56607 5.5423 5.81628 6.09531 5.26328C6.64831 4.71027 7.3981 4.39922 8.18017 4.39838H16.7488C17.5309 4.39922 18.2807 4.71027 18.8337 5.26328C19.3867 5.81628 19.6977 6.56607 19.6986 7.34814V15.9168C19.6977 16.6988 19.3867 17.4486 18.8337 18.0016C18.2807 18.5546 17.5309 18.8657 16.7488 18.8665ZM8.18017 5.67838C7.73748 5.67888 7.31306 5.85497 7.00003 6.168C6.687 6.48103 6.51092 6.90544 6.51041 7.34814V15.9168C6.51092 16.3595 6.687 16.7839 7.00003 17.0969C7.31306 17.4099 7.73748 17.586 8.18017 17.5865H16.7488C17.1915 17.586 17.6159 17.4099 17.9289 17.0969C18.242 16.7839 18.4181 16.3595 18.4186 15.9168V7.34814C18.4181 6.90544 18.242 6.48103 17.9289 6.168C17.6159 5.85497 17.1915 5.67888 16.7488 5.67838H8.18017Z" fill="#202020"/>
<path d="M9.42146 13.5661C9.28908 13.5661 9.15995 13.5251 9.05185 13.4487C8.94376 13.3722 8.86202 13.2642 8.8179 13.1394C8.77378 13.0145 8.76945 12.8791 8.80551 12.7517C8.84156 12.6244 8.91623 12.5113 9.01922 12.4281L11.3155 10.5757C11.4428 10.473 11.6045 10.423 11.7675 10.4357C11.9304 10.4485 12.0824 10.5232 12.192 10.6445L13.4461 12.0297L15.0861 10.592C15.2138 10.4801 15.3808 10.4236 15.5502 10.4348C15.7196 10.446 15.8776 10.5241 15.9895 10.6518C16.1013 10.7796 16.1579 10.9465 16.1466 11.1159C16.1354 11.2853 16.0573 11.4433 15.9296 11.5552L13.8157 13.408C13.6894 13.5186 13.5247 13.5751 13.3571 13.5654C13.1895 13.5557 13.0324 13.4806 12.9197 13.3561L11.648 11.9517L9.82402 13.4237C9.71009 13.5158 9.56799 13.5661 9.42146 13.5661Z" fill="#202020"/>
</svg>
