<svg width="24" height="24" viewBox="0 0 24 24" fill="none" xmlns="http://www.w3.org/2000/svg">
<path d="M12 16.5197C11.8302 16.5197 11.6675 16.4523 11.5474 16.3323C11.4274 16.2122 11.36 16.0494 11.36 15.8797V8.12035C11.36 7.95061 11.4274 7.78782 11.5474 7.6678C11.6675 7.54778 11.8302 7.48035 12 7.48035C12.1697 7.48035 12.3325 7.54778 12.4525 7.6678C12.5726 7.78782 12.64 7.95061 12.64 8.12035V15.8797C12.64 16.0494 12.5726 16.2122 12.4525 16.3323C12.3325 16.4523 12.1697 16.5197 12 16.5197Z" fill="#202020"/>
<path d="M15.8797 12.64H8.12035C7.95061 12.64 7.78782 12.5726 7.6678 12.4525C7.54778 12.3325 7.48035 12.1697 7.48035 12C7.48035 11.8302 7.54778 11.6675 7.6678 11.5474C7.78782 11.4274 7.95061 11.36 8.12035 11.36H15.8797C16.0494 11.36 16.2122 11.4274 16.3323 11.5474C16.4523 11.6675 16.5197 11.8302 16.5197 12C16.5197 12.1697 16.4523 12.3325 16.3323 12.4525C16.2122 12.5726 16.0494 12.64 15.8797 12.64Z" fill="#202020"/>
</svg>
