<svg width="24" height="24" viewBox="0 0 24 24" fill="none" xmlns="http://www.w3.org/2000/svg">
<path d="M12 16.5197C11.8302 16.5197 11.6675 16.4522 11.5474 16.3322C11.4274 16.2122 11.36 16.0494 11.36 15.8797V8.12032C11.36 7.95058 11.4274 7.78779 11.5474 7.66777C11.6675 7.54774 11.8302 7.48032 12 7.48032C12.1697 7.48032 12.3325 7.54774 12.4525 7.66777C12.5726 7.78779 12.64 7.95058 12.64 8.12032V15.8797C12.64 16.0494 12.5726 16.2122 12.4525 16.3322C12.3325 16.4522 12.1697 16.5197 12 16.5197Z" fill="#202020"/>
<path d="M15.8797 12.64H8.12032C7.95058 12.64 7.78779 12.5726 7.66777 12.4525C7.54774 12.3325 7.48032 12.1697 7.48032 12C7.48032 11.8302 7.54774 11.6675 7.66777 11.5474C7.78779 11.4274 7.95058 11.36 8.12032 11.36H15.8797C16.0494 11.36 16.2122 11.4274 16.3322 11.5474C16.4522 11.6675 16.5197 11.8302 16.5197 12C16.5197 12.1697 16.4522 12.3325 16.3322 12.4525C16.2122 12.5726 16.0494 12.64 15.8797 12.64Z" fill="#202020"/>
</svg>
