<svg width="24" height="24" viewBox="0 0 24 24" fill="none" xmlns="http://www.w3.org/2000/svg">
<path d="M12 20.6807C9.99178 20.6806 8.04571 19.9842 6.49337 18.7101C4.94103 17.4361 3.87848 15.6632 3.48675 13.6935C3.09503 11.7239 3.39836 9.67934 4.34507 7.90827C5.29179 6.1372 6.82331 4.74917 8.67868 3.98069C10.534 3.21222 12.5985 3.11083 14.5202 3.69382C16.442 4.27681 18.1021 5.50809 19.2178 7.17788C20.3335 8.84767 20.8357 10.8526 20.6389 12.8512C20.442 14.8498 19.5583 16.7182 18.1382 18.1383C17.334 18.9468 16.3774 19.5878 15.3237 20.0242C14.2701 20.4606 13.1404 20.6837 12 20.6807ZM12 4.59937C7.91936 4.59937 4.59936 7.91937 4.59936 12C4.59936 16.0806 7.91936 19.4007 12 19.4007C16.0806 19.4007 19.4006 16.0806 19.4006 12C19.4006 7.91937 16.0806 4.59937 12 4.59937Z" fill="#202020"/>
<path d="M12 16.5197C11.8303 16.5197 11.6675 16.4522 11.5475 16.3322C11.4274 16.2122 11.36 16.0494 11.36 15.8797V8.12032C11.36 7.95058 11.4274 7.78779 11.5475 7.66777C11.6675 7.54774 11.8303 7.48032 12 7.48032C12.1697 7.48032 12.3325 7.54774 12.4525 7.66777C12.5726 7.78779 12.64 7.95058 12.64 8.12032V15.8797C12.64 16.0494 12.5726 16.2122 12.4525 16.3322C12.3325 16.4522 12.1697 16.5197 12 16.5197Z" fill="#202020"/>
<path d="M15.8797 12.64H8.12032C7.95058 12.64 7.78779 12.5726 7.66777 12.4525C7.54775 12.3325 7.48032 12.1697 7.48032 12C7.48032 11.8302 7.54775 11.6675 7.66777 11.5474C7.78779 11.4274 7.95058 11.36 8.12032 11.36H15.8797C16.0494 11.36 16.2122 11.4274 16.3322 11.5474C16.4523 11.6675 16.5197 11.8302 16.5197 12C16.5197 12.1697 16.4523 12.3325 16.3322 12.4525C16.2122 12.5726 16.0494 12.64 15.8797 12.64Z" fill="#202020"/>
</svg>
