<svg width="24" height="24" viewBox="0 0 24 24" fill="none" xmlns="http://www.w3.org/2000/svg">
<path d="M17.25 16.5H15.75C15.5511 16.5 15.3603 16.579 15.2197 16.7197C15.079 16.8603 15 17.0511 15 17.25C15 17.4489 15.079 17.6397 15.2197 17.7803C15.3603 17.921 15.5511 18 15.75 18H17.25C17.4489 18 17.6397 17.921 17.7803 17.7803C17.921 17.6397 18 17.4489 18 17.25C18 17.0511 17.921 16.8603 17.7803 16.7197C17.6397 16.579 17.4489 16.5 17.25 16.5Z" fill="#202020"/>
<path d="M18 2.25C16.9373 2.25108 15.9094 2.62818 15.0981 3.31454C14.2868 4.00089 13.7446 4.9522 13.5675 6H6.75C5.75544 6 4.80161 6.39509 4.09835 7.09835C3.39509 7.80161 3 8.75544 3 9.75V17.25C3 18.2446 3.39509 19.1984 4.09835 19.9016C4.80161 20.6049 5.75544 21 6.75 21H17.25C18.2446 21 19.1984 20.6049 19.9016 19.9016C20.6049 19.1984 21 18.2446 21 17.25V10.095C21.6759 9.48673 22.1517 8.68794 22.3647 7.80389C22.5777 6.91984 22.5178 5.99202 22.193 5.14266C21.8682 4.29331 21.2937 3.56229 20.5452 3.04591C19.7967 2.52954 18.9093 2.25205 18 2.25ZM6.2025 7.575C6.26406 7.54184 6.32958 7.51664 6.3975 7.5C6.51472 7.48856 6.63278 7.48856 6.75 7.5H13.5675C13.6803 8.16476 13.9411 8.79566 14.3306 9.34608C14.72 9.89651 15.2282 10.3524 15.8175 10.68L12.6525 13.2675C12.4692 13.4167 12.2401 13.4982 12.0037 13.4982C11.7674 13.4982 11.5383 13.4167 11.355 13.2675L5.145 8.1825C5.43261 7.88363 5.79943 7.6729 6.2025 7.575ZM19.5 17.25C19.5 17.8467 19.2629 18.419 18.841 18.841C18.419 19.2629 17.8467 19.5 17.25 19.5H6.75C6.15326 19.5 5.58097 19.2629 5.15901 18.841C4.73705 18.419 4.5 17.8467 4.5 17.25V9.75C4.49626 9.70007 4.49626 9.64993 4.5 9.6L10.3875 14.4225C10.8414 14.7968 11.4117 15.001 12 15C12.5837 15.0007 13.1492 14.7963 13.5975 14.4225L17.5125 11.25C17.6748 11.2614 17.8377 11.2614 18 11.25C18.5115 11.2514 19.0193 11.1625 19.5 10.9875V17.25ZM20.64 8.175C20.3789 8.67123 19.984 9.08435 19.5 9.3675C19.0421 9.62403 18.5249 9.75592 18 9.75C17.6973 9.75097 17.3963 9.70544 17.1075 9.615C16.6202 9.46265 16.1798 9.18843 15.8281 8.81832C15.4763 8.44821 15.2249 7.99445 15.0975 7.5C14.9675 7.00846 14.9675 6.49154 15.0975 6C15.2027 5.58795 15.3944 5.20298 15.6597 4.87063C15.925 4.53827 16.258 4.26612 16.6365 4.07223C17.015 3.87834 17.4304 3.76714 17.8551 3.746C18.2799 3.72487 18.7042 3.79428 19.1001 3.94963C19.496 4.10498 19.8543 4.34273 20.1513 4.6471C20.4484 4.95147 20.6773 5.31551 20.8229 5.71508C20.9685 6.11464 21.0275 6.5406 20.996 6.9647C20.9644 7.3888 20.8431 7.80136 20.64 8.175Z" fill="#202020"/>
<path d="M19.2525 6H18.75V5.4975C18.75 5.29859 18.671 5.10782 18.5303 4.96717C18.3897 4.82652 18.1989 4.7475 18 4.7475C17.8011 4.7475 17.6103 4.82652 17.4697 4.96717C17.329 5.10782 17.25 5.29859 17.25 5.4975V6H16.7475C16.5486 6 16.3578 6.07902 16.2172 6.21967C16.0765 6.36032 15.9975 6.55109 15.9975 6.75C15.9975 6.94891 16.0765 7.13968 16.2172 7.28033C16.3578 7.42098 16.5486 7.5 16.7475 7.5H17.25V8.0025C17.25 8.20141 17.329 8.39218 17.4697 8.53283C17.6103 8.67348 17.8011 8.7525 18 8.7525C18.067 8.76397 18.1355 8.76397 18.2025 8.7525C18.3002 8.72427 18.3911 8.67647 18.4698 8.61201C18.5484 8.54754 18.6131 8.46776 18.66 8.3775C18.7064 8.29441 18.7346 8.20235 18.7425 8.1075C18.7462 8.08263 18.7462 8.05736 18.7425 8.0325V7.5H19.245C19.3786 7.49902 19.5096 7.46236 19.6243 7.39379C19.739 7.32522 19.8334 7.22724 19.8975 7.11C19.9662 7.0025 20.0026 6.87757 20.0025 6.75C20.0025 6.55109 19.9235 6.36032 19.7828 6.21967C19.6422 6.07902 19.4514 6 19.2525 6Z" fill="#202020"/>
</svg>
