<svg width="24" height="24" viewBox="0 0 24 24" fill="none" xmlns="http://www.w3.org/2000/svg">
<g clip-path="url(#clip0_3_237)">
<path d="M6.75 6C7.16423 6 7.5 5.66423 7.5 5.25C7.5 4.83578 7.16423 4.5 6.75 4.5H6V3.75C6 3.33579 5.66423 3 5.25 3C4.83578 3 4.5 3.33579 4.5 3.75V4.5H3.75C3.33579 4.5 3 4.83578 3 5.25C3 5.66423 3.33579 6 3.75 6H4.5V6.75C4.5 7.16423 4.83578 7.5 5.25 7.5C5.66423 7.5 6 7.16423 6 6.75V6H6.75Z" fill="#202020"/>
<path fill-rule="evenodd" clip-rule="evenodd" d="M5.25 0.75C2.76472 0.75 0.75 2.76472 0.75 5.25C0.75 7.73527 2.76472 9.75 5.25 9.75C7.73527 9.75 9.75 7.73527 9.75 5.25C9.75 2.76472 7.73527 0.75 5.25 0.75ZM2.25 5.25C2.25 3.59314 3.59314 2.25 5.25 2.25C6.90686 2.25 8.25 3.59314 8.25 5.25C8.25 6.90686 6.90686 8.25 5.25 8.25C3.59314 8.25 2.25 6.90686 2.25 5.25Z" fill="#202020"/>
<path fill-rule="evenodd" clip-rule="evenodd" d="M15.8007 5.625C13.4654 5.625 11.2634 6.71276 9.84431 8.5674L8.0448 10.9192L4.48391 11.9933C2.26702 12.6619 0.75 14.7041 0.75 17.0196V17.625C0.75 19.2819 2.09314 20.625 3.75 20.625H7.67167C8.14954 22.1464 9.5709 23.25 11.25 23.25C12.9291 23.25 14.3505 22.1464 14.8283 20.625H22.5C22.9142 20.625 23.25 20.2892 23.25 19.875C23.25 19.4608 22.9142 19.125 22.5 19.125H14.9815C14.7933 17.23 13.1945 15.75 11.25 15.75C9.30551 15.75 7.70666 17.23 7.51853 19.125H3.75C2.92157 19.125 2.25 18.4534 2.25 17.625V17.0196C2.25 15.3656 3.33358 13.907 4.91708 13.4293L8.70983 12.2853C8.86057 12.2399 8.99321 12.1481 9.08887 12.0231L11.0356 9.47891C12.1708 7.99522 13.9325 7.125 15.8007 7.125H22.5C22.9142 7.125 23.25 6.78922 23.25 6.375C23.25 5.96078 22.9142 5.625 22.5 5.625H15.8007ZM11.25 17.25C10.0074 17.25 9 18.2574 9 19.5C9 20.7426 10.0074 21.75 11.25 21.75C12.4926 21.75 13.5 20.7426 13.5 19.5C13.5 18.2574 12.4926 17.25 11.25 17.25Z" fill="#202020"/>
</g>
<defs>
<clipPath id="clip0_3_237">
<rect width="24" height="24" fill="white"/>
</clipPath>
</defs>
</svg>
