<svg width="24" height="24" viewBox="0 0 24 24" fill="none" xmlns="http://www.w3.org/2000/svg">
<path d="M9.15403 18.7584C8.62505 18.7578 8.11791 18.5474 7.74386 18.1734C7.36982 17.7993 7.15942 17.2922 7.15883 16.7632V10.0358H6.42539C5.54717 10.0272 4.70785 9.67233 4.08988 9.04827C3.47191 8.42421 3.12524 7.58146 3.12524 6.7032C3.12524 5.82494 3.47191 4.98219 4.08988 4.35813C4.70785 3.73407 5.54717 3.37917 6.42539 3.37056H8.59595C9.27289 3.37132 9.92188 3.64057 10.4005 4.11924C10.8792 4.59791 11.1485 5.2469 11.1492 5.92384V16.7632C11.1486 17.2922 10.9382 17.7993 10.5642 18.1734C10.1901 18.5474 9.68301 18.7578 9.15403 18.7584ZM6.42539 4.65056C5.88543 4.6573 5.36988 4.87653 4.99043 5.26074C4.61099 5.64495 4.39822 6.1632 4.39822 6.7032C4.39822 7.2432 4.61099 7.76145 4.99043 8.14566C5.36988 8.52987 5.88543 8.7491 6.42539 8.75584H7.79883C7.96857 8.75584 8.13135 8.82327 8.25138 8.94329C8.3714 9.06332 8.43883 9.2261 8.43883 9.39584V16.7632C8.43883 16.8571 8.45733 16.9501 8.49327 17.0369C8.52921 17.1237 8.58189 17.2025 8.6483 17.2689C8.71472 17.3353 8.79356 17.388 8.88033 17.424C8.9671 17.4599 9.06011 17.4784 9.15403 17.4784C9.24795 17.4784 9.34095 17.4599 9.42772 17.424C9.51449 17.388 9.59334 17.3353 9.65975 17.2689C9.72616 17.2025 9.77884 17.1237 9.81479 17.0369C9.85073 16.9501 9.86923 16.8571 9.86923 16.7632V5.92384C9.8688 5.58627 9.73452 5.26266 9.49583 5.02396C9.25713 4.78527 8.93351 4.65098 8.59595 4.65056H6.42539Z" fill="#202020"/>
<path d="M5.97637 7.9952C5.8182 7.99534 5.66561 7.93672 5.54821 7.83072C5.23974 7.55106 5.05106 7.16316 5.02149 6.74784C4.97701 6.04096 5.41189 5.58784 5.54629 5.46592C5.67227 5.35416 5.83722 5.29656 6.00539 5.3056C6.17356 5.31465 6.33138 5.38962 6.44464 5.51425C6.55791 5.63888 6.61748 5.80313 6.61045 5.9714C6.60342 6.13966 6.53035 6.29837 6.40709 6.41312C6.40133 6.41856 6.28997 6.5248 6.29893 6.66912C6.30702 6.75044 6.34471 6.82594 6.40485 6.88128C6.50102 6.96791 6.56866 7.08166 6.59885 7.20753C6.62904 7.33339 6.62036 7.46545 6.57394 7.58628C6.52753 7.70711 6.44558 7.81103 6.33889 7.88432C6.2322 7.95761 6.1058 7.99683 5.97637 7.9968V7.9952ZM9.15397 20.6294C8.98423 20.6294 8.82144 20.562 8.70142 20.442C8.5814 20.322 8.51397 20.1592 8.51397 19.9894V18.1184C8.51397 17.9487 8.5814 17.7859 8.70142 17.6658C8.82144 17.5458 8.98423 17.4784 9.15397 17.4784C9.32371 17.4784 9.48649 17.5458 9.60652 17.6658C9.72654 17.7859 9.79397 17.9487 9.79397 18.1184V19.9894C9.79397 20.1592 9.72654 20.322 9.60652 20.442C9.48649 20.562 9.32371 20.6294 9.15397 20.6294ZM14.8461 18.7584C14.3172 18.7578 13.81 18.5474 13.436 18.1734C13.0619 17.7993 12.8515 17.2922 12.8509 16.7632V5.92384C12.8517 5.2469 13.1209 4.59791 13.5996 4.11924C14.0783 3.64057 14.7273 3.37132 15.4042 3.37056H17.5748C18.453 3.37917 19.2923 3.73407 19.9103 4.35813C20.5282 4.98218 20.8749 5.82494 20.8749 6.7032C20.8749 7.58146 20.5282 8.42421 19.9103 9.04827C19.2923 9.67233 18.453 10.0272 17.5748 10.0358H16.8413V16.7632C16.8407 17.2922 16.6303 17.7993 16.2563 18.1734C15.8822 18.5474 15.3751 18.7578 14.8461 18.7584ZM15.4042 4.65056C15.0666 4.65098 14.743 4.78527 14.5043 5.02396C14.2656 5.26266 14.1314 5.58627 14.1309 5.92384V16.7632C14.1309 16.9529 14.2063 17.1348 14.3404 17.2689C14.4745 17.403 14.6564 17.4784 14.8461 17.4784C15.0358 17.4784 15.2177 17.403 15.3519 17.2689C15.486 17.1348 15.5613 16.9529 15.5613 16.7632V9.39584C15.5613 9.2261 15.6288 9.06331 15.7488 8.94329C15.8688 8.82327 16.0316 8.75584 16.2013 8.75584H17.5748C18.1147 8.7491 18.6303 8.52987 19.0097 8.14566C19.3892 7.76145 19.6019 7.2432 19.6019 6.7032C19.6019 6.1632 19.3892 5.64495 19.0097 5.26074C18.6303 4.87653 18.1147 4.6573 17.5748 4.65056H15.4042Z" fill="#202020"/>
<path d="M18.0237 7.9952C17.8943 7.99515 17.768 7.95591 17.6614 7.88263C17.5548 7.80936 17.4729 7.7055 17.4265 7.58474C17.3801 7.46398 17.3713 7.332 17.4015 7.20619C17.4316 7.08038 17.4991 6.96665 17.5952 6.88C17.6553 6.82466 17.693 6.74916 17.7011 6.66784C17.7101 6.52448 17.5977 6.41792 17.5929 6.41184C17.4697 6.29709 17.3966 6.13838 17.3896 5.97012C17.3825 5.80185 17.4421 5.6376 17.5554 5.51297C17.6686 5.38834 17.8265 5.31337 17.9946 5.30432C18.1628 5.29528 18.3278 5.35288 18.4537 5.46464C18.5881 5.58656 19.023 6.04064 18.9785 6.74656C18.949 7.16188 18.7603 7.54978 18.4518 7.82944C18.3346 7.9359 18.182 7.99498 18.0237 7.9952ZM14.8461 20.6294C14.6763 20.6294 14.5135 20.562 14.3935 20.442C14.2735 20.322 14.2061 20.1592 14.2061 19.9894V18.1184C14.2061 17.9487 14.2735 17.7859 14.3935 17.6659C14.5135 17.5458 14.6763 17.4784 14.8461 17.4784C15.0158 17.4784 15.1786 17.5458 15.2986 17.6659C15.4186 17.7859 15.4861 17.9487 15.4861 18.1184V19.9894C15.4861 20.1592 15.4186 20.322 15.2986 20.442C15.1786 20.562 15.0158 20.6294 14.8461 20.6294Z" fill="#202020"/>
</svg>
