<svg width="24" height="24" viewBox="0 0 24 24" fill="none" xmlns="http://www.w3.org/2000/svg">
<path d="M4.18468 18.3607C4.01494 18.3607 3.85215 18.2933 3.73213 18.1732C3.61211 18.0532 3.54468 17.8904 3.54468 17.7207C3.54468 17.5509 3.61211 17.3882 3.73213 17.2681C3.85215 17.1481 4.01494 17.0807 4.18468 17.0807H19.8157C19.9855 17.0807 20.1482 17.1481 20.2683 17.2681C20.3883 17.3882 20.4557 17.5509 20.4557 17.7207C20.4557 17.8904 20.3883 18.0532 20.2683 18.1732C20.1482 18.2933 19.9855 18.3607 19.8157 18.3607H4.18468Z" fill="#202020"/>
<path d="M13.3033 18.3603C13.1336 18.3603 12.9708 18.2929 12.8508 18.1729C12.7308 18.0529 12.6633 17.8901 12.6633 17.7203V7.35235C12.6639 6.89794 12.8446 6.4623 13.1659 6.14098C13.4872 5.81967 13.9229 5.63894 14.3773 5.63843H17.016C17.4705 5.63894 17.9062 5.81971 18.2276 6.14108C18.5489 6.46245 18.7297 6.89818 18.7302 7.35267V17.6547C18.7302 17.8245 18.6628 17.9873 18.5428 18.1073C18.4228 18.2273 18.26 18.2947 18.0902 18.2947C17.9205 18.2947 17.7577 18.2273 17.6377 18.1073C17.5177 17.9873 17.4502 17.8245 17.4502 17.6547V7.35363C17.4501 7.23851 17.4043 7.12816 17.3229 7.04676C17.2415 6.96536 17.1311 6.91956 17.016 6.91939H14.3773C14.2622 6.91947 14.1519 6.96522 14.0705 7.04657C13.9892 7.12793 13.9434 7.23825 13.9433 7.35331V17.7213C13.9431 17.8909 13.8756 18.0534 13.7556 18.1732C13.6356 18.2931 13.4729 18.3603 13.3033 18.3603ZM6.21471 18.3607C6.04497 18.3607 5.88218 18.2932 5.76216 18.1732C5.64214 18.0532 5.57471 17.8904 5.57471 17.7207V9.79555C5.57547 9.31203 5.76788 8.84853 6.10979 8.50663C6.45169 8.16473 6.91519 7.97231 7.39871 7.97155H9.81631C10.2998 7.97231 10.7633 8.16473 11.1052 8.50663C11.4471 8.84853 11.6395 9.31203 11.6403 9.79555V17.7203C11.6403 17.8901 11.5729 18.0529 11.4529 18.1729C11.3328 18.2929 11.17 18.3603 11.0003 18.3603C10.8306 18.3603 10.6678 18.2929 10.5478 18.1729C10.4277 18.0529 10.3603 17.8901 10.3603 17.7203V9.79555C10.3603 9.65127 10.303 9.5129 10.201 9.41088C10.099 9.30886 9.96059 9.25155 9.81631 9.25155H7.39935C7.25507 9.25155 7.1167 9.30886 7.01468 9.41088C6.91266 9.5129 6.85535 9.65127 6.85535 9.79555V17.7207C6.85535 17.8048 6.83877 17.888 6.80657 17.9657C6.77437 18.0434 6.72717 18.114 6.66767 18.1734C6.60817 18.2329 6.53754 18.28 6.45982 18.3121C6.3821 18.3443 6.29881 18.3608 6.21471 18.3607Z" fill="#202020"/>
</svg>
