<svg width="24" height="24" viewBox="0 0 24 24" fill="none" xmlns="http://www.w3.org/2000/svg">
<path d="M9.85591 20.4557H7.21719C6.76286 20.4549 6.32738 20.274 6.00622 19.9527C5.68505 19.6313 5.50441 19.1958 5.50391 18.7414V5.25855C5.50441 4.80406 5.68518 4.36833 6.00656 4.04696C6.32793 3.72559 6.76366 3.54482 7.21815 3.54431H9.85591C10.3104 3.54482 10.7461 3.72559 11.0675 4.04696C11.3889 4.36833 11.5696 4.80406 11.5701 5.25855V18.7414C11.5696 19.1959 11.3889 19.6316 11.0675 19.953C10.7461 20.2744 10.3104 20.4552 9.85591 20.4557ZM7.21719 4.82431C7.10224 4.82473 6.99213 4.87065 6.91094 4.95202C6.82975 5.03339 6.78407 5.1436 6.78391 5.25855V18.7414C6.78408 18.8565 6.82988 18.9669 6.91128 19.0483C6.99268 19.1297 7.10303 19.1755 7.21815 19.1757H9.85591C9.97102 19.1755 10.0814 19.1297 10.1628 19.0483C10.2442 18.9669 10.29 18.8565 10.2901 18.7414V5.25855C10.29 5.14344 10.2442 5.03308 10.1628 4.95168C10.0814 4.87029 9.97102 4.82448 9.85591 4.82431H7.21719ZM16.8335 18.1242H14.4162C13.9327 18.1234 13.4692 17.931 13.1273 17.5891C12.7854 17.2472 12.593 16.7837 12.5922 16.3002V7.70047C12.593 7.21695 12.7854 6.75345 13.1273 6.41155C13.4692 6.06965 13.9327 5.87723 14.4162 5.87647H16.8335C17.317 5.87723 17.7805 6.06965 18.1224 6.41155C18.4643 6.75345 18.6567 7.21695 18.6575 7.70047V16.2995C18.6569 16.7831 18.4646 17.2468 18.1227 17.5888C17.7807 17.9309 17.3171 18.1234 16.8335 18.1242ZM14.4162 7.15583C14.2719 7.15583 14.1336 7.21315 14.0316 7.31517C13.9295 7.41718 13.8722 7.55555 13.8722 7.69983V16.2995C13.8722 16.4438 13.9295 16.5822 14.0316 16.6842C14.1336 16.7862 14.2719 16.8435 14.4162 16.8435H16.8335C16.9778 16.8435 17.1162 16.7862 17.2182 16.6842C17.3202 16.5822 17.3775 16.4438 17.3775 16.2995V7.70047C17.3775 7.55619 17.3202 7.41782 17.2182 7.31581C17.1162 7.21379 16.9778 7.15647 16.8335 7.15647L14.4162 7.15583Z" fill="#202020"/>
<path d="M6.14387 12.64H4.18419C4.01445 12.64 3.85166 12.5726 3.73164 12.4525C3.61162 12.3325 3.54419 12.1697 3.54419 12C3.54419 11.8302 3.61162 11.6675 3.73164 11.5474C3.85166 11.4274 4.01445 11.36 4.18419 11.36H6.14387C6.31361 11.36 6.47639 11.4274 6.59642 11.5474C6.71644 11.6675 6.78387 11.8302 6.78387 12C6.78387 12.1697 6.71644 12.3325 6.59642 12.4525C6.47639 12.5726 6.31361 12.64 6.14387 12.64ZM13.0287 12.64H10.9298C10.76 12.64 10.5973 12.5726 10.4772 12.4525C10.3572 12.3325 10.2898 12.1697 10.2898 12C10.2898 11.8302 10.3572 11.6675 10.4772 11.5474C10.5973 11.4274 10.76 11.36 10.9298 11.36H13.0287C13.1984 11.36 13.3612 11.4274 13.4812 11.5474C13.6012 11.6675 13.6687 11.8302 13.6687 12C13.6687 12.1697 13.6012 12.3325 13.4812 12.4525C13.3612 12.5726 13.1984 12.64 13.0287 12.64ZM19.8155 12.64H18.0181C17.8484 12.64 17.6856 12.5726 17.5656 12.4525C17.4455 12.3325 17.3781 12.1697 17.3781 12C17.3781 11.8302 17.4455 11.6675 17.5656 11.5474C17.6856 11.4274 17.8484 11.36 18.0181 11.36H19.8155C19.9853 11.36 20.1481 11.4274 20.2681 11.5474C20.3881 11.6675 20.4555 11.8302 20.4555 12C20.4555 12.1697 20.3881 12.3325 20.2681 12.4525C20.1481 12.5726 19.9853 12.64 19.8155 12.64Z" fill="#202020"/>
</svg>
