<svg width="24" height="24" viewBox="0 0 24 24" fill="none" xmlns="http://www.w3.org/2000/svg">
<path d="M17.7203 20.4557C17.5506 20.4557 17.3878 20.3882 17.2678 20.2682C17.1478 20.1482 17.0803 19.9854 17.0803 19.8157V4.18431C17.0803 4.01457 17.1478 3.85179 17.2678 3.73176C17.3878 3.61174 17.5506 3.54431 17.7203 3.54431C17.8901 3.54431 18.0528 3.61174 18.1729 3.73176C18.2929 3.85179 18.3603 4.01457 18.3603 4.18431V19.8157C18.3603 19.9854 18.2929 20.1482 18.1729 20.2682C18.0528 20.3882 17.8901 20.4557 17.7203 20.4557Z" fill="#202020"/>
<path d="M17.6547 18.7302H7.35357C6.89911 18.7297 6.46341 18.549 6.14209 18.2276C5.82077 17.9062 5.64007 17.4705 5.63965 17.016V14.3773C5.64016 13.9229 5.82089 13.4872 6.14221 13.1659C6.46352 12.8446 6.89916 12.6639 7.35357 12.6634H17.7216C17.8913 12.6634 18.0541 12.7308 18.1741 12.8508C18.2941 12.9708 18.3616 13.1336 18.3616 13.3034C18.3616 13.4731 18.2941 13.6359 18.1741 13.7559C18.0541 13.8759 17.8913 13.9434 17.7216 13.9434H7.35357C7.23851 13.9434 7.12819 13.9892 7.04683 14.0705C6.96548 14.1519 6.91973 14.2622 6.91965 14.3773V17.016C6.91973 17.1311 6.96547 17.2414 7.04681 17.3229C7.12816 17.4043 7.23848 17.4501 7.35357 17.4502H17.6547C17.8244 17.4502 17.9872 17.5177 18.1072 17.6377C18.2273 17.7577 18.2947 17.9205 18.2947 18.0902C18.2947 18.26 18.2273 18.4228 18.1072 18.5428C17.9872 18.6628 17.8244 18.7302 17.6547 18.7302ZM17.7203 11.6416H9.79549C9.31197 11.6408 8.84847 11.4484 8.50657 11.1065C8.16467 10.7646 7.97225 10.3011 7.97149 9.8176V7.39968C7.97225 6.91616 8.16467 6.45266 8.50657 6.11076C8.84847 5.76886 9.31197 5.57645 9.79549 5.57568H17.7203C17.89 5.57568 18.0528 5.64311 18.1728 5.76314C18.2929 5.88316 18.3603 6.04595 18.3603 6.21568C18.3603 6.38542 18.2929 6.54821 18.1728 6.66823C18.0528 6.78826 17.89 6.85568 17.7203 6.85568H9.79549C9.65121 6.85568 9.51284 6.913 9.41082 7.01502C9.3088 7.11704 9.25149 7.25541 9.25149 7.39968V9.81696C9.25149 9.96124 9.3088 10.0996 9.41082 10.2016C9.51284 10.3036 9.65121 10.361 9.79549 10.361H17.7203C17.89 10.361 18.0528 10.4284 18.1728 10.5484C18.2929 10.6684 18.3603 10.8312 18.3603 11.001C18.3603 11.1707 18.2929 11.3335 18.1728 11.4535C18.0528 11.5735 17.89 11.641 17.7203 11.641V11.6416Z" fill="#202020"/>
</svg>
