<svg width="24" height="24" viewBox="0 0 24 24" fill="none" xmlns="http://www.w3.org/2000/svg">
<path d="M21.9 5.3C21.7 3.6 20.4 2.2 18.7 2C17.5 1.9 16.4 1.9 15.2 2C7 3 1.2 10.4 2.2 18.6C2.4 20.3 3.7 21.7 5.4 21.9C5.9 22 6.5 22 7.1 22C11 22 14.8 20.4 17.6 17.6C20.9 14.4 22.4 9.9 21.9 5.3ZM16.9 3C17.5 3 18 3 18.6 3.1C19.1 3.2 19.5 3.3 19.8 3.6C19.8 3.6 19.7 3.6 19.7 3.7L17 6.3L14 3.3C14.9 3.1 15.9 3 16.9 3ZM12.9 3.6L16.3 7L13.4 9.9L12 8.4C11.8 8.2 11.5 8.2 11.3 8.4C11.1 8.6 11.1 8.9 11.3 9.1L12.7 10.5L10.5 12.7L9.1 11.3C8.9 11.1 8.6 11.1 8.4 11.3C8.2 11.5 8.2 11.8 8.4 12L9.8 13.4L7 16.3L3.6 12.9C4.9 8.4 8.4 4.9 12.9 3.6ZM3.6 19.8C3.4 19.4 3.2 19 3.1 18.6C3 18 3 17.5 3 16.9C3 15.9 3.1 14.9 3.3 14L6.3 17L3.6 19.8C3.6 19.7 3.6 19.7 3.6 19.8ZM5.5 20.9C5 20.8 4.6 20.7 4.3 20.4C4.3 20.4 4.4 20.4 4.4 20.3L7 17.7L10 20.7C8.5 21 7 21.1 5.5 20.9ZM16.9 16.9C15.3 18.6 13.3 19.7 11.1 20.4L7.7 17L10.6 14.1L12 15.5C12.1 15.6 12.2 15.6 12.4 15.6C12.5 15.6 12.7 15.5 12.8 15.5C13 15.3 13 15 12.8 14.8L11.4 13.4L13.6 11.2L15 12.6C15.1 12.7 15.2 12.7 15.4 12.7C15.5 12.7 15.7 12.6 15.8 12.6C16 12.4 16 12.1 15.8 11.9L14.4 10.5L17 7.7L20.4 11.1C19.7 13.3 18.6 15.3 16.9 16.9ZM20.7 10L17.7 7L20.4 4.3C20.4 4.3 20.4 4.2 20.5 4.2C20.7 4.6 20.9 5 21 5.4C21.1 7 21 8.5 20.7 10Z" fill="#202020"/>
</svg>
