<svg width="24" height="24" viewBox="0 0 24 24" fill="none" xmlns="http://www.w3.org/2000/svg">
<path d="M19.3821 11.7161H6.20384C5.53238 11.7154 4.88861 11.4485 4.41374 10.9738C3.93886 10.4991 3.67165 9.8554 3.67072 9.18395V6.63035C3.67114 5.95853 3.93812 5.31434 4.41304 4.83918C4.88796 4.36401 5.53202 4.09671 6.20384 4.09595H19.3821C20.0536 4.09671 20.6974 4.36379 21.1723 4.83861C21.6472 5.31343 21.9143 5.95721 21.9152 6.62875V9.18395C21.9143 9.8554 21.6471 10.4991 21.1722 10.9738C20.6973 11.4485 20.0535 11.7154 19.3821 11.7161ZM6.20384 5.37595C5.87165 5.37629 5.55316 5.50838 5.31823 5.74324C5.08331 5.9781 4.95114 6.29656 4.95072 6.62875V9.18395C4.95114 9.51614 5.08331 9.83459 5.31823 10.0695C5.55316 10.3043 5.87165 10.4364 6.20384 10.4367H19.3821C19.7143 10.4364 20.0328 10.3043 20.2677 10.0695C20.5026 9.83459 20.6348 9.51614 20.6352 9.18395V6.63035C20.6352 6.29788 20.5032 5.97901 20.2682 5.7438C20.0333 5.5086 19.7145 5.37629 19.3821 5.37595H6.20384Z" fill="#202020"/>
<path d="M16.9546 20.8138H8.60257C7.87667 20.813 7.18071 20.5243 6.66741 20.011C6.15412 19.4977 5.86542 18.8017 5.86465 18.0758V11.0762C5.86465 10.9064 5.93208 10.7436 6.05211 10.6236C6.17213 10.5036 6.33492 10.4362 6.50465 10.4362H19.0525C19.2222 10.4362 19.385 10.5036 19.505 10.6236C19.6251 10.7436 19.6925 10.9064 19.6925 11.0762V18.0758C19.6917 18.8017 19.403 19.4977 18.8897 20.011C18.3764 20.5243 17.6805 20.813 16.9546 20.8138ZM7.14337 11.7162V18.0758C7.1438 18.4624 7.29754 18.833 7.57086 19.1063C7.84418 19.3796 8.21476 19.5333 8.60129 19.5338H16.9533C17.3398 19.5333 17.7104 19.3796 17.9837 19.1063C18.2571 18.833 18.4108 18.4624 18.4112 18.0758V11.7162H7.14337Z" fill="#202020"/>
<path d="M14.5043 14.0282H11.3197C11.1499 14.0282 10.9872 13.9607 10.8671 13.8407C10.7471 13.7207 10.6797 13.5579 10.6797 13.3882C10.6797 13.2184 10.7471 13.0556 10.8671 12.9356C10.9872 12.8156 11.1499 12.7482 11.3197 12.7482H14.5043C14.6741 12.7482 14.8369 12.8156 14.9569 12.9356C15.0769 13.0556 15.1443 13.2184 15.1443 13.3882C15.1443 13.5579 15.0769 13.7207 14.9569 13.8407C14.8369 13.9607 14.6741 14.0282 14.5043 14.0282Z" fill="#202020"/>
</svg>
