<svg width="24" height="24" viewBox="0 0 24 24" fill="none" xmlns="http://www.w3.org/2000/svg">
<path d="M7.20002 19.8832C6.79437 19.8827 6.40547 19.7213 6.11866 19.4345C5.83184 19.1476 5.67053 18.7587 5.6701 18.353V6.87365C5.67095 6.14259 5.96174 5.44172 6.47868 4.92478C6.99561 4.40784 7.69649 4.11706 8.42754 4.11621H15.6445C16.3756 4.11706 17.0764 4.40784 17.5934 4.92478C18.1103 5.44172 18.4011 6.14259 18.4019 6.87365V18.353C18.4019 18.6334 18.3247 18.9083 18.1789 19.1478C18.0331 19.3872 17.8243 19.582 17.5753 19.7108C17.3263 19.8397 17.0467 19.8975 16.767 19.8782C16.4873 19.8588 16.2183 19.7629 15.9895 19.601L12.1815 16.9072C12.1394 16.8774 12.0891 16.8614 12.0375 16.8614C11.9859 16.8614 11.9356 16.8774 11.8935 16.9072L8.08194 19.6016C7.8242 19.7845 7.51606 19.8829 7.20002 19.8832ZM12.0359 15.5841C12.3521 15.5838 12.6606 15.6817 12.9187 15.8644L16.7283 18.5581C16.7657 18.5845 16.8096 18.6001 16.8552 18.6033C16.9008 18.6064 16.9464 18.597 16.987 18.576C17.0276 18.555 17.0617 18.5232 17.0855 18.4842C17.1093 18.4452 17.1219 18.4003 17.1219 18.3546V6.87365C17.1215 6.48194 16.9657 6.10639 16.6887 5.82941C16.4118 5.55243 16.0362 5.39663 15.6445 5.39621H8.42722C8.03551 5.39663 7.65997 5.55243 7.38298 5.82941C7.106 6.10639 6.95021 6.48194 6.94978 6.87365V18.353C6.94978 18.3987 6.96234 18.4436 6.9861 18.4826C7.00986 18.5217 7.0439 18.5534 7.0845 18.5744C7.12509 18.5954 7.17069 18.6049 7.21629 18.6017C7.26189 18.5986 7.30575 18.5829 7.34306 18.5565L11.1511 15.8628C11.41 15.6804 11.7192 15.583 12.0359 15.5841Z" fill="#202020"/>
<path d="M11.872 12.64C11.7118 12.6403 11.5575 12.5802 11.4397 12.4717L9.59998 10.7869C9.48046 10.671 9.41084 10.513 9.40592 10.3465C9.40099 10.1801 9.46115 10.0182 9.5736 9.89541C9.68606 9.77259 9.84196 9.69843 10.0082 9.68869C10.1745 9.67895 10.3379 9.73439 10.464 9.84325L11.8749 11.136L15.1878 8.15493C15.2502 8.09828 15.3232 8.05451 15.4025 8.02613C15.4819 7.99776 15.5661 7.98534 15.6503 7.98958C15.7344 7.99383 15.8169 8.01465 15.893 8.05087C15.9691 8.08708 16.0373 8.13797 16.0937 8.20061C16.1501 8.26325 16.1935 8.3364 16.2216 8.41588C16.2496 8.49536 16.2617 8.57959 16.2571 8.66374C16.2525 8.74789 16.2313 8.83031 16.1947 8.90625C16.1582 8.9822 16.107 9.05018 16.0441 9.10629L12.3001 12.4765C12.1825 12.582 12.03 12.6403 11.872 12.64Z" fill="#202020"/>
</svg>
