<svg width="24" height="24" viewBox="0 0 24 24" fill="none" xmlns="http://www.w3.org/2000/svg">
<path d="M17.8412 19.936H7.48083C6.75042 19.935 6.0502 19.6444 5.53375 19.1279C5.01731 18.6114 4.7268 17.9112 4.72595 17.1808V6.8198C4.72663 6.08928 5.01706 5.38886 5.53353 4.87222C6.04999 4.35557 6.75031 4.0649 7.48083 4.06396H17.8412C18.5716 4.06481 19.2719 4.35536 19.7884 4.87188C20.305 5.3884 20.5955 6.0887 20.5964 6.81916V17.1801C20.5957 17.9107 20.3052 18.6112 19.7887 19.1278C19.2721 19.6445 18.5717 19.9351 17.8412 19.936ZM7.48083 5.34396C7.08977 5.34447 6.71488 5.50007 6.43838 5.77662C6.16189 6.05317 6.00638 6.4281 6.00595 6.81916V17.1801C6.00621 17.5713 6.16165 17.9464 6.43816 18.2231C6.71467 18.4998 7.08966 18.6555 7.48083 18.656H17.8412C18.2323 18.6555 18.6072 18.5 18.8838 18.2234C19.1604 17.9469 19.3159 17.5719 19.3164 17.1808V6.8198C19.3159 6.42869 19.1604 6.05371 18.8838 5.77715C18.6072 5.50059 18.2323 5.34503 17.8412 5.3446L7.48083 5.34396Z" fill="#202020"/>
<path d="M12.6613 12.0959H12.6453C12.4953 12.0922 12.3513 12.0359 12.2386 11.9368C12.1259 11.8377 12.0516 11.7022 12.0286 11.5538C11.7496 9.7484 9.4552 9.2764 9.43216 9.27192C9.34969 9.2557 9.27122 9.22339 9.20124 9.17685C9.13125 9.1303 9.07112 9.07042 9.02428 9.00064C8.97743 8.93085 8.94479 8.85253 8.92822 8.77013C8.91164 8.68773 8.91146 8.60287 8.92768 8.5204C8.9439 8.43793 8.97621 8.35946 9.02275 8.28948C9.0693 8.21949 9.12918 8.15936 9.19896 8.11251C9.26875 8.06567 9.34707 8.03303 9.42947 8.01645C9.51187 7.99988 9.59673 7.9997 9.6792 8.01592C10.2461 8.14433 10.7909 8.35601 11.2958 8.64408C11.8782 8.9772 12.3435 9.38712 12.6824 9.86008C13.3448 8.86392 14.3224 8.22584 15.5093 8.01464C15.5925 7.99885 15.678 7.99973 15.7608 8.01722C15.8437 8.03471 15.9222 8.06847 15.9919 8.11654C16.0616 8.1646 16.1211 8.22602 16.1669 8.29724C16.2127 8.36845 16.2439 8.44805 16.2587 8.53141C16.2735 8.61477 16.2717 8.70025 16.2532 8.78289C16.2348 8.86552 16.2001 8.94368 16.1512 9.01282C16.1024 9.08196 16.0402 9.14072 15.9685 9.18569C15.8968 9.23066 15.8168 9.26095 15.7333 9.2748C13.7109 9.6348 13.2926 11.566 13.2885 11.5855C13.2586 11.7298 13.18 11.8593 13.0657 11.9523C12.9514 12.0453 12.8086 12.096 12.6613 12.0959Z" fill="#202020"/>
<path d="M15.3868 10.784C15.2767 10.784 15.1686 10.7556 15.0727 10.7016C14.9768 10.6475 14.8965 10.5697 14.8395 10.4756C14.7825 10.3814 14.7508 10.2742 14.7473 10.1642C14.7438 10.0543 14.7688 9.94524 14.8197 9.84771L15.3896 8.75619L14.1957 8.23971C14.0399 8.17228 13.9173 8.04573 13.8549 7.8879C13.7924 7.73007 13.7952 7.55389 13.8626 7.39811C13.93 7.24234 14.0566 7.11972 14.2144 7.05725C14.3722 6.99478 14.5484 6.99756 14.7042 7.06499L16.5282 7.85507C16.6089 7.89 16.6816 7.94119 16.7417 8.00546C16.8017 8.06972 16.8479 8.14568 16.8773 8.22859C16.9067 8.31149 16.9187 8.39957 16.9125 8.48732C16.9064 8.57507 16.8822 8.66061 16.8415 8.73859L15.9528 10.4404C15.8988 10.5438 15.8175 10.6305 15.7177 10.6911C15.6179 10.7517 15.5035 10.7838 15.3868 10.784ZM9.6722 10.784C9.5552 10.7841 9.44042 10.7521 9.34033 10.6915C9.24025 10.6309 9.15868 10.5441 9.10451 10.4404L8.21587 8.73859C8.17516 8.66063 8.15096 8.57511 8.14477 8.48738C8.13859 8.39964 8.15055 8.31157 8.17992 8.22867C8.20928 8.14576 8.25542 8.0698 8.31546 8.00552C8.37549 7.94124 8.44813 7.89003 8.52883 7.85507L10.3544 7.06499C10.4316 7.03161 10.5145 7.01374 10.5986 7.01241C10.6826 7.01108 10.7661 7.02632 10.8442 7.05725C10.9224 7.08818 10.9937 7.13421 11.054 7.19269C11.1144 7.25118 11.1626 7.32098 11.196 7.39811C11.2294 7.47525 11.2473 7.5582 11.2486 7.64224C11.2499 7.72628 11.2347 7.80975 11.2038 7.8879C11.1728 7.96605 11.1268 8.03735 11.0683 8.09771C11.0098 8.15807 10.94 8.20633 10.8629 8.23971L9.669 8.75523L10.2399 9.84675C10.2911 9.94436 10.3162 10.0535 10.3128 10.1637C10.3094 10.2739 10.2776 10.3813 10.2205 10.4756C10.1634 10.5699 10.0829 10.6478 9.98688 10.7018C9.89081 10.7559 9.78242 10.7842 9.6722 10.784ZM12.661 17.1229C12.4913 17.1229 12.3285 17.0555 12.2084 16.9355C12.0884 16.8154 12.021 16.6527 12.021 16.4829V11.456C12.021 11.2863 12.0884 11.1235 12.2084 11.0035C12.3285 10.8835 12.4913 10.816 12.661 10.816C12.8307 10.816 12.9935 10.8835 13.1135 11.0035C13.2336 11.1235 13.301 11.2863 13.301 11.456V16.4829C13.301 16.6527 13.2336 16.8154 13.1135 16.9355C12.9935 17.0555 12.8307 17.1229 12.661 17.1229Z" fill="#202020"/>
</svg>
