<svg width="24" height="24" viewBox="0 0 24 24" fill="none" xmlns="http://www.w3.org/2000/svg">
<path d="M11.3948 17.1555C10.9454 17.1555 10.5062 17.0223 10.1325 16.7726C9.75892 16.523 9.46771 16.1681 9.29575 15.753C9.12379 15.3378 9.07879 14.881 9.16646 14.4403C9.25413 13.9995 9.47051 13.5947 9.78826 13.277C10.106 12.9592 10.5108 12.7428 10.9516 12.6552C11.3923 12.5675 11.8491 12.6125 12.2643 12.7845C12.6794 12.9564 13.0343 13.2476 13.2839 13.6213C13.5336 13.9949 13.6668 14.4342 13.6668 14.8835C13.6664 15.486 13.4269 16.0636 13.0009 16.4896C12.5749 16.9156 11.9972 17.1551 11.3948 17.1555ZM11.3948 13.8934C11.1986 13.8934 11.0068 13.9516 10.8437 14.0606C10.6805 14.1696 10.5534 14.3245 10.4783 14.5058C10.4032 14.6871 10.3836 14.8865 10.4219 15.079C10.4601 15.2714 10.5546 15.4481 10.6934 15.5869C10.8321 15.7256 11.0088 15.8201 11.2013 15.8584C11.3937 15.8966 11.5932 15.877 11.7744 15.8019C11.9557 15.7268 12.1106 15.5997 12.2196 15.4366C12.3286 15.2734 12.3868 15.0816 12.3868 14.8854C12.3868 14.6223 12.2823 14.37 12.0963 14.184C11.9102 13.9979 11.6579 13.8934 11.3948 13.8934Z" fill="#202020"/>
<path d="M13.026 15.4685C12.8562 15.4685 12.6935 15.401 12.5734 15.281C12.4534 15.161 12.386 14.9982 12.386 14.8285V7.99295C12.386 7.81647 12.431 7.64291 12.5167 7.48864C12.6024 7.33438 12.726 7.20449 12.8759 7.11125C13.0257 7.018 13.1968 6.96446 13.3731 6.95569C13.5493 6.94692 13.7249 6.9832 13.8833 7.06111L16.7559 8.47455C16.9307 8.55971 17.0779 8.6925 17.1805 8.85764C17.2832 9.02278 17.3371 9.21355 17.3361 9.40799V10.336C17.3361 10.5112 17.2918 10.6835 17.2073 10.837C17.1228 10.9904 17.0009 11.12 16.8529 11.2137C16.7049 11.3074 16.5356 11.3621 16.3608 11.3728C16.1859 11.3835 16.0112 11.3498 15.8529 11.2749L13.666 10.2393V14.8285C13.666 14.9982 13.5986 15.161 13.4785 15.281C13.3585 15.401 13.1957 15.4685 13.026 15.4685ZM13.666 8.82143L16.0561 9.95199V9.55679L13.666 8.38079V8.82143Z" fill="#202020"/>
<path d="M17.9738 20.4557H7.90984C7.00202 20.4548 6.13166 20.0937 5.48974 19.4518C4.84781 18.8099 4.48677 17.9395 4.48584 17.0317V6.96801C4.48677 6.06019 4.84781 5.18982 5.48974 4.5479C6.13166 3.90598 7.00202 3.54494 7.90984 3.54401H17.9738C18.8816 3.54502 19.7519 3.90609 20.3939 4.548C21.0358 5.1899 21.3968 6.06022 21.3978 6.96801V17.032C21.3967 17.9397 21.0356 18.81 20.3937 19.4518C19.7518 20.0936 18.8816 20.4547 17.9738 20.4557ZM7.90984 4.82433C7.34137 4.82483 6.79633 5.05088 6.39436 5.45285C5.9924 5.85482 5.76635 6.39986 5.76584 6.96833V17.0323C5.76635 17.6008 5.9924 18.1458 6.39436 18.5478C6.79633 18.9498 7.34137 19.1758 7.90984 19.1763H17.9738C18.5423 19.1758 19.0873 18.9498 19.4893 18.5478C19.8913 18.1458 20.1173 17.6008 20.1178 17.0323V6.96801C20.1173 6.39954 19.8913 5.8545 19.4893 5.45253C19.0873 5.05056 18.5423 4.82451 17.9738 4.82401L7.90984 4.82433Z" fill="#202020"/>
</svg>
