<svg width="24" height="24" viewBox="0 0 24 24" fill="none" xmlns="http://www.w3.org/2000/svg">
<path d="M12 20.8549C11.6874 20.8553 11.3803 20.7733 11.1094 20.6172L6.22944 17.8012C5.95864 17.6442 5.73383 17.4188 5.57754 17.1476C5.42124 16.8764 5.33894 16.5689 5.33888 16.2559V10.6239C5.33939 10.3113 5.4219 10.0043 5.57818 9.73363C5.73445 9.46292 5.95901 9.23795 6.22944 9.08118L11.1094 6.26518C11.3804 6.10935 11.6875 6.02734 12 6.02734C12.3126 6.02734 12.6196 6.10935 12.8906 6.26518L17.7706 9.08118C18.041 9.23795 18.2656 9.46292 18.4218 9.73363C18.5781 10.0043 18.6606 10.3113 18.6611 10.6239V16.2559C18.6606 16.5685 18.5781 16.8755 18.4218 17.1462C18.2656 17.4169 18.041 17.6419 17.7706 17.7986L12.8906 20.6146C12.62 20.7716 12.3128 20.8545 12 20.8549ZM12 7.30422C11.9121 7.30417 11.8257 7.32723 11.7494 7.3711L6.86944 10.1871C6.79296 10.2314 6.72952 10.2952 6.68553 10.3719C6.64154 10.4486 6.61855 10.5355 6.61888 10.6239V16.2559C6.619 16.3439 6.6422 16.4303 6.68617 16.5065C6.73014 16.5827 6.79333 16.646 6.86944 16.6901L11.7494 19.5061C11.8257 19.55 11.9121 19.5731 12 19.5731C12.0879 19.5731 12.1743 19.55 12.2506 19.5061L17.1306 16.6901C17.2067 16.646 17.2699 16.5827 17.3138 16.5065C17.3578 16.4303 17.381 16.3439 17.3811 16.2559V10.6239C17.381 10.5359 17.3578 10.4495 17.3138 10.3733C17.2699 10.2971 17.2067 10.2338 17.1306 10.1897L12.2506 7.37366C12.1746 7.3289 12.0882 7.30495 12 7.30422Z" fill="#202020"/>
<path d="M15.2854 8.94237C15.1157 8.94237 14.9529 8.87494 14.8329 8.75491C14.7129 8.63489 14.6454 8.4721 14.6454 8.30237V4.65117C14.6454 4.4984 14.5847 4.35189 14.4767 4.24387C14.3687 4.13585 14.2222 4.07517 14.0694 4.07517H9.9312C9.77843 4.07517 9.63192 4.13585 9.5239 4.24387C9.41588 4.35189 9.3552 4.4984 9.3552 4.65117V8.30237C9.3552 8.4721 9.28777 8.63489 9.16774 8.75491C9.04772 8.87494 8.88493 8.94237 8.7152 8.94237C8.54546 8.94237 8.38267 8.87494 8.26265 8.75491C8.14262 8.63489 8.0752 8.4721 8.0752 8.30237V4.65117C8.07604 4.15918 8.27185 3.68759 8.61974 3.33971C8.96762 2.99183 9.43921 2.79601 9.9312 2.79517H14.0688C14.5608 2.79601 15.0324 2.99183 15.3803 3.33971C15.7281 3.68759 15.9239 4.15918 15.9248 4.65117V8.30237C15.9248 8.47199 15.8575 8.63468 15.7376 8.75469C15.6177 8.87469 15.4551 8.9422 15.2854 8.94237ZM13.4154 16.295C13.2273 16.2949 13.0441 16.2352 12.8922 16.1244L12 15.4761L11.1078 16.1244C10.9557 16.235 10.7725 16.2945 10.5845 16.2945C10.3965 16.2945 10.2133 16.235 10.0612 16.1244C9.90905 16.0139 9.79585 15.858 9.73778 15.6792C9.67971 15.5004 9.67976 15.3077 9.73791 15.1289L10.08 14.08L9.18783 13.432C9.03588 13.3214 8.92282 13.1655 8.86483 12.9867C8.80685 12.8079 8.80691 12.6154 8.86501 12.4367C8.92311 12.2579 9.03627 12.1021 9.1883 11.9916C9.34032 11.8811 9.52341 11.8215 9.71136 11.8214H10.8138L11.1546 10.7728C11.2126 10.5939 11.3258 10.4381 11.4779 10.3275C11.63 10.217 11.8132 10.1575 12.0013 10.1575C12.1893 10.1575 12.3725 10.217 12.5246 10.3275C12.6767 10.4381 12.7899 10.5939 12.848 10.7728L13.1888 11.8214H14.2912C14.4791 11.8215 14.6622 11.8811 14.8143 11.9916C14.9663 12.1021 15.0794 12.2579 15.1375 12.4367C15.1956 12.6154 15.1957 12.8079 15.1377 12.9867C15.0797 13.1655 14.9667 13.3214 14.8147 13.432L13.92 14.08L14.2608 15.1289C14.3041 15.2626 14.3151 15.4045 14.2931 15.5433C14.2711 15.682 14.2166 15.8136 14.134 15.9272C14.0515 16.0409 13.9432 16.1334 13.8181 16.1973C13.693 16.2611 13.5545 16.2945 13.4141 16.2947L13.4154 16.295ZM12 14.1036C12.188 14.1038 12.3712 14.1635 12.5232 14.2742L12.6739 14.3836L12.6163 14.2067C12.5579 14.0279 12.5578 13.8352 12.6159 13.6564C12.674 13.4775 12.7875 13.3217 12.9398 13.2115L13.0902 13.1017H12.9043C12.7162 13.1021 12.5329 13.0428 12.3807 12.9323C12.2285 12.8217 12.1154 12.6657 12.0576 12.4867L12 12.3097L11.9424 12.4867C11.8846 12.6657 11.7715 12.8217 11.6193 12.9323C11.4671 13.0428 11.2838 13.1021 11.0957 13.1017H10.9098L11.0602 13.2115C11.2128 13.3218 11.3264 13.4778 11.3845 13.6569C11.4427 13.8361 11.4424 14.029 11.3837 14.208L11.3261 14.3849L11.4768 14.2755C11.6286 14.1643 11.8118 14.1041 12 14.1036Z" fill="#202020"/>
</svg>
