<svg width="24" height="24" viewBox="0 0 24 24" fill="none" xmlns="http://www.w3.org/2000/svg">
<path d="M12.7083 18.128C12.345 18.128 11.9895 18.0233 11.6843 17.8263L5.3857 13.76C5.10837 13.5811 4.88276 13.3327 4.73137 13.0395C4.57998 12.7462 4.5081 12.4184 4.52289 12.0887C4.53769 11.759 4.63864 11.439 4.81569 11.1605C4.99274 10.882 5.2397 10.6548 5.53194 10.5015L11.8305 7.19681C12.1183 7.04562 12.4402 6.9713 12.7652 6.98104C13.0901 6.99079 13.407 7.08427 13.6853 7.25244C13.9635 7.42061 14.1935 7.65776 14.3532 7.94094C14.5129 8.22412 14.5967 8.54373 14.5966 8.86881V16.2394C14.5966 16.7401 14.3977 17.2203 14.0436 17.5744C13.6895 17.9285 13.2093 18.1274 12.7086 18.1274L12.7083 18.128ZM12.7063 8.25857C12.6082 8.25911 12.5118 8.28372 12.4254 8.33025L6.12683 11.6359C6.03261 11.6852 5.95299 11.7584 5.89592 11.8482C5.83885 11.938 5.80633 12.0411 5.8016 12.1474C5.79687 12.2536 5.8201 12.3593 5.86897 12.4538C5.91784 12.5482 5.99064 12.6282 6.0801 12.6858L12.3787 16.7498C12.4706 16.8092 12.5768 16.8428 12.6862 16.8469C12.7956 16.8509 12.9041 16.8254 13.0002 16.773C13.0962 16.7205 13.1764 16.6431 13.2321 16.5489C13.2879 16.4547 13.3172 16.3472 13.3169 16.2378V8.86881C13.3179 8.764 13.2914 8.66075 13.24 8.56939C13.1886 8.47803 13.1142 8.40175 13.0241 8.34817C12.9281 8.29042 12.8184 8.25948 12.7063 8.25857Z" fill="#202020"/>
<path d="M18.2801 18.128C17.9168 18.128 17.5613 18.0232 17.2561 17.8262L14.1492 15.8208C14.0066 15.7288 13.9063 15.5838 13.8706 15.4179C13.8348 15.252 13.8664 15.0786 13.9585 14.936C14.0505 14.7934 14.1954 14.6932 14.3614 14.6574C14.5273 14.6216 14.7006 14.6532 14.8433 14.7453L17.9521 16.7507C18.044 16.8101 18.1502 16.8436 18.2595 16.8476C18.3689 16.8516 18.4773 16.8261 18.5733 16.7737C18.6693 16.7213 18.7494 16.6439 18.8052 16.5497C18.8609 16.4556 18.8902 16.3481 18.89 16.2387V8.8688C18.89 8.76408 18.8631 8.66113 18.8117 8.5699C18.7602 8.47868 18.6861 8.40228 18.5965 8.34811C18.5069 8.29393 18.4048 8.26382 18.3002 8.26069C18.1955 8.25756 18.0918 8.28152 17.9991 8.33024L14.8093 10.0032C14.7347 10.0446 14.6526 10.0708 14.5678 10.08C14.483 10.0892 14.3971 10.0814 14.3154 10.057C14.2336 10.0326 14.1575 9.99204 14.0917 9.9378C14.0258 9.88355 13.9714 9.81668 13.9318 9.74111C13.8921 9.66555 13.868 9.58282 13.8608 9.49779C13.8536 9.41276 13.8635 9.32715 13.8898 9.24599C13.9162 9.16483 13.9585 9.08977 14.0143 9.02521C14.0701 8.96065 14.1383 8.90791 14.2148 8.87008L17.4026 7.1968C17.6904 7.04568 18.0123 6.97142 18.3372 6.9812C18.6621 6.99099 18.979 7.08448 19.2571 7.25264C19.5353 7.4208 19.7653 7.65793 19.925 7.94106C20.0846 8.2242 20.1685 8.54375 20.1684 8.8688V16.2394C20.1684 16.7401 19.9695 17.2203 19.6154 17.5744C19.2613 17.9284 18.7811 18.1274 18.2804 18.1274L18.2801 18.128Z" fill="#202020"/>
</svg>
