<svg width="24" height="24" viewBox="0 0 24 24" fill="none" xmlns="http://www.w3.org/2000/svg">
<path d="M12.4997 20.313C12.004 20.3128 11.5093 20.267 11.022 20.1763C9.70061 19.9309 8.46225 19.3569 7.42098 18.5072C6.37971 17.6575 5.56901 16.5594 5.06356 15.3141C4.55812 14.0688 4.37418 12.7163 4.5287 11.3812C4.68321 10.0462 5.17121 8.77148 5.94774 7.67455C5.99642 7.60597 6.05814 7.54765 6.12936 7.50292C6.20058 7.45819 6.27992 7.42792 6.36284 7.41385C6.44576 7.39978 6.53063 7.40218 6.61263 7.42091C6.69462 7.43965 6.77212 7.47435 6.8407 7.52303C6.90928 7.57171 6.9676 7.63343 7.01233 7.70465C7.05706 7.77587 7.08733 7.85521 7.1014 7.93813C7.11547 8.02105 7.11307 8.10593 7.09433 8.18792C7.0756 8.26991 7.0409 8.34741 6.99222 8.41599C5.36982 10.7062 5.34838 13.8 6.93814 16.1145C9.03862 19.1718 13.2345 19.9504 16.2917 17.8499C19.349 15.7494 20.1279 11.552 18.0271 8.49503C16.4373 6.18047 13.5417 5.09087 10.8217 5.78335C10.6849 5.81849 10.5404 5.80744 10.4106 5.75191C10.2808 5.69639 10.173 5.5995 10.104 5.47634C10.035 5.35319 10.0087 5.21066 10.0291 5.07097C10.0495 4.93128 10.1155 4.80226 10.2169 4.70399L12.5849 2.39103C12.6447 2.33109 12.7159 2.28364 12.7943 2.25142C12.8726 2.2192 12.9566 2.20286 13.0413 2.20335C13.126 2.20384 13.2098 2.22114 13.2878 2.25425C13.3658 2.28737 13.4364 2.33564 13.4956 2.39626C13.5548 2.45689 13.6013 2.52866 13.6326 2.60741C13.6638 2.68617 13.6791 2.77034 13.6775 2.85505C13.676 2.93976 13.6576 3.02331 13.6235 3.10087C13.5895 3.17843 13.5403 3.24845 13.4789 3.30687L12.4684 4.29343H12.4799C14.5954 4.30407 16.6209 5.15129 18.1139 6.65011C19.607 8.14893 20.4464 10.1776 20.4489 12.2932C20.4514 14.4087 19.6167 16.4394 18.1272 17.9417C16.6377 19.444 14.6143 20.296 12.4988 20.3117L12.4997 20.313Z" fill="#202020"/>
<path d="M10.4194 8.86401V15.8218H9.15544V10.4736H9.09784C9.02979 10.5803 8.87117 10.693 8.622 10.8118C8.37283 10.9307 8.05229 10.9901 7.6604 10.9901V9.97089C7.88116 9.97456 8.10015 9.93092 8.30264 9.84289C8.47857 9.76545 8.64069 9.65985 8.78264 9.53025C8.90203 9.42258 9.00546 9.29845 9.08984 9.16161C9.16259 9.03936 9.20227 8.93974 9.20888 8.86273L10.4194 8.86401ZM14.7615 15.9542C13.9233 15.9542 13.267 15.6383 12.7926 15.0064C12.3181 14.3745 12.0809 13.4892 12.0809 12.3504C12.0832 11.2133 12.3216 10.3323 12.7961 9.70721C13.2705 9.08214 13.9257 8.76907 14.7615 8.76801C15.5974 8.76801 16.2531 9.08118 16.7289 9.70752C17.2046 10.3339 17.4425 11.2144 17.4425 12.3491C17.4425 13.4909 17.2058 14.3777 16.7324 15.0096C16.259 15.6415 15.6021 15.9564 14.7615 15.9542ZM14.7615 14.8909C15.1963 14.8909 15.5401 14.6763 15.7929 14.247C16.0457 13.8178 16.172 13.1852 16.1718 12.3491C16.1694 11.5203 16.0419 10.891 15.7894 10.4611C15.5368 10.0313 15.1942 9.81686 14.7615 9.81793C14.331 9.81793 13.9897 10.0325 13.7375 10.4618C13.4854 10.891 13.358 11.5203 13.3554 12.3498C13.3529 13.1856 13.4785 13.8182 13.7324 14.2477C13.9863 14.6771 14.3293 14.8915 14.7615 14.8909Z" fill="#202020"/>
</svg>
