<svg width="24" height="24" viewBox="0 0 24 24" fill="none" xmlns="http://www.w3.org/2000/svg">
<path d="M14.1921 20.313C13.6965 20.3128 13.2019 20.267 12.7146 20.1763C11.3932 19.9309 10.1549 19.3569 9.11354 18.5073C8.07223 17.6576 7.26149 16.5595 6.75601 15.3142C6.25053 14.0689 6.06657 12.7164 6.22106 11.3813C6.37556 10.0462 6.86355 8.7715 7.64008 7.67455C7.7384 7.53604 7.88772 7.44227 8.05518 7.41385C8.22264 7.38544 8.39454 7.42471 8.53304 7.52303C8.67155 7.62135 8.76533 7.77067 8.79374 7.93813C8.82216 8.10559 8.78288 8.27748 8.68456 8.41599C7.06248 10.7046 7.04008 13.7984 8.6308 16.1129C10.731 19.1702 14.9268 19.9488 17.9841 17.8483C21.0414 15.7478 21.8199 11.552 19.7194 8.49503C18.1297 6.18047 15.234 5.09087 12.514 5.78335C12.3773 5.81849 12.2328 5.80744 12.103 5.75191C11.9732 5.69639 11.8654 5.5995 11.7964 5.47634C11.7273 5.35319 11.701 5.21066 11.7214 5.07097C11.7418 4.93128 11.8078 4.80226 11.9092 4.70399L14.2772 2.39103C14.3371 2.33109 14.4083 2.28364 14.4866 2.25142C14.565 2.2192 14.6489 2.20286 14.7337 2.20335C14.8184 2.20384 14.9022 2.22114 14.9802 2.25425C15.0581 2.28737 15.1288 2.33564 15.1879 2.39626C15.2471 2.45689 15.2937 2.52866 15.3249 2.60741C15.3561 2.68617 15.3714 2.77034 15.3699 2.85505C15.3683 2.93976 15.35 3.02331 15.3159 3.10087C15.2818 3.17843 15.2326 3.24845 15.1713 3.30687L14.1604 4.29343C15.1076 4.29318 16.0474 4.46033 16.9364 4.78719C18.6999 5.43568 20.1792 6.68355 21.1156 8.31251C22.0521 9.94147 22.386 11.8478 22.0589 13.6981C21.7319 15.5483 20.7647 17.2247 19.3266 18.4339C17.8885 19.6432 16.071 20.3083 14.1921 20.313Z" fill="#202020"/>
<path d="M11.9273 8.86401V15.8218H10.6633V10.4736H10.6053C10.5375 10.5803 10.379 10.693 10.1298 10.8119C9.88064 10.9307 9.56011 10.9901 9.16821 10.9901V9.97089C9.38897 9.97454 9.60796 9.93089 9.81045 9.84289C9.98639 9.76548 10.1485 9.65988 10.2905 9.53025C10.4099 9.42258 10.5135 9.29845 10.598 9.16161C10.6707 9.03937 10.7104 8.93975 10.717 8.86273L11.9273 8.86401ZM16.1164 15.9168C15.6633 15.9168 15.2579 15.8315 14.9004 15.6608C14.5597 15.5043 14.2658 15.2616 14.0476 14.9568C13.8363 14.6559 13.7203 14.2985 13.7145 13.9309H14.9375C14.946 14.0669 14.9834 14.1996 15.0473 14.32C15.1111 14.4404 15.1999 14.5458 15.3077 14.6291C15.5319 14.8092 15.8015 14.8992 16.1164 14.8992C16.488 14.8992 16.7943 14.7746 17.0354 14.5255C17.2765 14.2763 17.3961 13.9569 17.3941 13.5674C17.3963 13.1731 17.2739 12.8492 17.0271 12.5955C16.7803 12.3419 16.4654 12.2139 16.0825 12.2115C15.8719 12.2096 15.663 12.2489 15.4674 12.3271C15.2855 12.3931 15.1213 12.5 14.9874 12.6397L13.8492 12.4528L14.2137 8.86401H18.2501V9.91713H15.2569L15.0565 11.7623H15.0972C15.2252 11.608 15.4075 11.4811 15.6441 11.3815C15.8896 11.2799 16.1531 11.2291 16.4188 11.232C16.8401 11.232 17.2161 11.3311 17.5468 11.5293C17.8763 11.7263 18.1464 12.0086 18.3285 12.3466C18.5186 12.693 18.6137 13.0894 18.6137 13.5357C18.6137 13.9954 18.5078 14.4048 18.2962 14.7639C18.0862 15.1214 17.7817 15.4141 17.4162 15.6099C17.0412 15.8147 16.6079 15.917 16.1164 15.9168Z" fill="#202020"/>
</svg>
