<svg width="24" height="24" viewBox="0 0 24 24" fill="none" xmlns="http://www.w3.org/2000/svg">
<path d="M17.0317 4.21887H6.96801C5.43062 4.21887 4.18433 5.46517 4.18433 7.00255V17.0662C4.18433 18.6036 5.43062 19.8499 6.96801 19.8499H17.0317C18.5691 19.8499 19.8154 18.6036 19.8154 17.0662V7.00255C19.8154 5.46517 18.5691 4.21887 17.0317 4.21887Z" stroke="#202020" stroke-width="1.30573" stroke-linecap="round" stroke-linejoin="round"/>
<path d="M9.89339 8.31714L8.07739 10.1331L9.85883 11.9146" stroke="#202020" stroke-width="1.30573" stroke-linecap="round" stroke-linejoin="round"/>
<path d="M8.55469 10.1559H13.1246C13.8666 10.156 14.5782 10.4508 15.1028 10.9754C15.6275 11.5001 15.9223 12.2117 15.9224 12.9536C15.9224 13.6957 15.6276 14.4073 15.1029 14.9321C14.5783 15.4568 13.8666 15.7516 13.1246 15.7517H10.4433" stroke="#202020" stroke-width="1.30573" stroke-linecap="round" stroke-linejoin="round"/>
</svg>
