<svg width="24" height="24" viewBox="0 0 24 24" fill="none" xmlns="http://www.w3.org/2000/svg">
<path d="M15.2023 18.8313H8.79785C8.35305 18.8313 7.925 18.6617 7.6009 18.357C7.27681 18.0524 7.08106 17.6356 7.05353 17.1917L6.65961 10.8189C6.6448 10.5807 6.67892 10.342 6.75989 10.1175C6.84085 9.89302 6.96693 9.6875 7.13036 9.5136C7.29379 9.33971 7.49111 9.20113 7.71014 9.10641C7.92918 9.01169 8.16529 8.96284 8.40393 8.96286H15.5963C15.8349 8.96284 16.071 9.01169 16.29 9.10641C16.5091 9.20113 16.7064 9.33971 16.8698 9.5136C17.0333 9.6875 17.1593 9.89302 17.2403 10.1175C17.3213 10.342 17.3554 10.5807 17.3406 10.8189L16.9467 17.1917C16.9191 17.6356 16.7234 18.0524 16.3993 18.357C16.0752 18.6617 15.6471 18.8313 15.2023 18.8313Z" stroke="#202020" stroke-width="1.28069" stroke-linecap="round" stroke-linejoin="round"/>
<path d="M9.45893 8.96352V7.41248C9.45893 6.17312 10.5725 5.16864 11.9466 5.16864H12.3473C13.721 5.16864 14.8349 6.17312 14.8349 7.41248V8.96352" stroke="#202020" stroke-width="1.28069" stroke-linecap="round" stroke-linejoin="round"/>
<path d="M12 16.5571C13.469 16.5571 14.6599 15.3663 14.6599 13.8973C14.6599 12.4283 13.469 11.2374 12 11.2374C10.5311 11.2374 9.34021 12.4283 9.34021 13.8973C9.34021 15.3663 10.5311 16.5571 12 16.5571Z" stroke="#202020" stroke-width="1.28069" stroke-linecap="round" stroke-linejoin="round"/>
<path d="M12.9616 13.1923L11.7532 14.2998L11.2214 13.792" stroke="#202020" stroke-width="1.28069" stroke-linecap="round" stroke-linejoin="round"/>
</svg>
