<svg width="24" height="24" viewBox="0 0 24 24" fill="none" xmlns="http://www.w3.org/2000/svg">
<path d="M15.2023 18.8314H8.7978C8.353 18.8314 7.92494 18.6617 7.60085 18.3571C7.27675 18.0524 7.081 17.6357 7.05348 17.1917L6.65956 10.8189C6.64475 10.5807 6.67887 10.3421 6.75983 10.1176C6.8408 9.89308 6.96688 9.68756 7.13031 9.51366C7.29374 9.33977 7.49105 9.20119 7.71009 9.10647C7.92913 9.01175 8.16524 8.9629 8.40388 8.96292H15.5962C15.8348 8.9629 16.071 9.01175 16.29 9.10647C16.509 9.20119 16.7063 9.33977 16.8698 9.51366C17.0332 9.68756 17.1593 9.89308 17.2402 10.1176C17.3212 10.3421 17.3553 10.5807 17.3405 10.8189L16.9466 17.1917C16.9191 17.6357 16.7233 18.0524 16.3992 18.3571C16.0751 18.6617 15.6471 18.8314 15.2023 18.8314Z" stroke="#202020" stroke-width="1.28069" stroke-linecap="round" stroke-linejoin="round"/>
<path d="M9.45892 8.96355V7.41251C9.45892 6.17315 10.5725 5.16867 11.9466 5.16867H12.3472C13.721 5.16867 14.8349 6.17315 14.8349 7.41251V8.96355" stroke="#202020" stroke-width="1.28069" stroke-linecap="round" stroke-linejoin="round"/>
<path d="M9.2359 11.5322H10.2867" stroke="#202020" stroke-width="1.28069" stroke-linecap="round" stroke-linejoin="round"/>
<path d="M13.7843 11.5322H14.8354" stroke="#202020" stroke-width="1.28069" stroke-linecap="round" stroke-linejoin="round"/>
</svg>
