<svg width="24" height="24" viewBox="0 0 24 24" fill="none" xmlns="http://www.w3.org/2000/svg">
<path d="M15.2023 18.8313H8.7978C8.353 18.8313 7.92494 18.6616 7.60085 18.357C7.27675 18.0523 7.081 17.6356 7.05348 17.1916L6.65956 10.8188C6.64475 10.5807 6.67887 10.342 6.75983 10.1175C6.8408 9.89299 6.96688 9.68747 7.13031 9.51357C7.29374 9.33968 7.49105 9.2011 7.71009 9.10638C7.92913 9.01166 8.16524 8.96281 8.40388 8.96283H15.5962C15.8348 8.96281 16.071 9.01166 16.29 9.10638C16.509 9.2011 16.7063 9.33968 16.8698 9.51357C17.0332 9.68747 17.1593 9.89299 17.2402 10.1175C17.3212 10.342 17.3553 10.5807 17.3405 10.8188L16.9466 17.1916C16.9191 17.6356 16.7233 18.0523 16.3992 18.357C16.0751 18.6616 15.6471 18.8313 15.2023 18.8313Z" stroke="#202020" stroke-width="1.28069" stroke-linecap="round" stroke-linejoin="round"/>
<path d="M9.45889 8.96346V7.41242C9.45889 6.17306 10.5725 5.16858 11.9466 5.16858H12.3472C13.721 5.16858 14.8349 6.17306 14.8349 7.41242V8.96346" stroke="#202020" stroke-width="1.28069" stroke-linecap="round" stroke-linejoin="round"/>
<path d="M12 16.5571C13.469 16.5571 14.6598 15.3662 14.6598 13.8972C14.6598 12.4282 13.469 11.2374 12 11.2374C10.531 11.2374 9.34016 12.4282 9.34016 13.8972C9.34016 15.3662 10.531 16.5571 12 16.5571Z" stroke="#202020" stroke-width="1.28069" stroke-linecap="round" stroke-linejoin="round"/>
<path d="M12.0004 13.1021V13.8977L11.3741 14.2774" stroke="#202020" stroke-width="1.28069" stroke-linecap="round" stroke-linejoin="round"/>
</svg>
