<svg width="24" height="24" viewBox="0 0 24 24" fill="none" xmlns="http://www.w3.org/2000/svg">
<path d="M17.3094 9.25089L16.4889 19.2C16.4646 19.4948 16.3302 19.7697 16.1126 19.9701C15.895 20.1704 15.61 20.2816 15.3142 20.2816H8.72857C8.43281 20.2816 8.14788 20.1703 7.93033 19.97C7.71277 19.7696 7.57851 19.4948 7.55417 19.2L6.73689 9.29345" stroke="#202020" stroke-width="1.28069" stroke-linecap="round" stroke-linejoin="round"/>
<path d="M17.4999 6.43552H6.50023C5.86895 6.43552 5.35719 6.94727 5.35719 7.57856C5.35719 8.20984 5.86895 8.7216 6.50023 8.7216H17.4999C18.1312 8.7216 18.643 8.20984 18.643 7.57856C18.643 6.94727 18.1312 6.43552 17.4999 6.43552Z" stroke="#202020" stroke-width="1.28069" stroke-linecap="round" stroke-linejoin="round"/>
<path d="M8.07462 6.43552L10.0465 3.71808" stroke="#202020" stroke-width="1.28069" stroke-linecap="round" stroke-linejoin="round"/>
<path d="M15.8465 6.43552L13.8749 3.71808" stroke="#202020" stroke-width="1.28069" stroke-linecap="round" stroke-linejoin="round"/>
<path d="M9.22054 14.1149L10.962 16.1741L14.9601 12.8528" stroke="#202020" stroke-width="1.28069" stroke-linecap="round" stroke-linejoin="round"/>
</svg>
