<svg width="24" height="24" viewBox="0 0 24 24" fill="none" xmlns="http://www.w3.org/2000/svg">
<path d="M17.305 9.30625L16.489 19.2C16.4647 19.4948 16.3304 19.7697 16.1128 19.9701C15.8951 20.1704 15.6101 20.2816 15.3143 20.2816H8.72871C8.43295 20.2816 8.14801 20.1703 7.93046 19.97C7.71291 19.7696 7.57864 19.4948 7.55431 19.2L6.72455 9.14209" stroke="#202020" stroke-width="1.28069" stroke-linecap="round" stroke-linejoin="round"/>
<path d="M17.4999 6.43552H6.50022C5.86893 6.43552 5.35718 6.94727 5.35718 7.57856C5.35718 8.20984 5.86893 8.7216 6.50022 8.7216H17.4999C18.1312 8.7216 18.6429 8.20984 18.6429 7.57856C18.6429 6.94727 18.1312 6.43552 17.4999 6.43552Z" stroke="#202020" stroke-width="1.28069" stroke-linecap="round" stroke-linejoin="round"/>
<path d="M10.0463 12.2371L10.4345 15.7744" stroke="#202020" stroke-width="1.28069" stroke-linecap="round" stroke-linejoin="round"/>
<path d="M14.0688 12.2371L13.6807 15.7744" stroke="#202020" stroke-width="1.28069" stroke-linecap="round" stroke-linejoin="round"/>
<path d="M8.07458 6.43552L10.0464 3.71808" stroke="#202020" stroke-width="1.28069" stroke-linecap="round" stroke-linejoin="round"/>
<path d="M15.8465 6.43552L13.8749 3.71808" stroke="#202020" stroke-width="1.28069" stroke-linecap="round" stroke-linejoin="round"/>
</svg>
