<svg width="24" height="24" viewBox="0 0 24 24" fill="none" xmlns="http://www.w3.org/2000/svg">
<path d="M12.0274 1.99999C6.51203 1.99243 2.03486 6.45739 2.02735 11.9727C2.01978 17.488 6.48469 21.9651 12 21.9727C17.5165 21.9702 21.99 17.5028 22 11.9863C22 6.47637 17.5373 2.0075 12.0274 1.99999ZM19.7203 7.39373C20.2427 8.26702 20.6259 9.23199 20.8281 10.2645C18.2636 9.12255 15.3319 9.10436 12.739 10.2335C11.6657 9.60797 10.7465 8.78149 10.0283 7.80279C12.9094 5.82842 16.6688 5.64825 19.7203 7.39373ZM12 2.99999C14.5098 3.00091 16.7775 4.03112 18.4099 5.68884C15.4327 4.66339 12.1144 5.11975 9.48243 6.95751C8.92451 5.98431 8.55012 4.90649 8.38844 3.76702C9.49397 3.27862 10.7139 3.00195 12 2.99999ZM5.13252 6.21252C5.78755 5.43267 6.57508 4.77099 7.45698 4.25036C7.98689 7.23767 9.84638 9.82299 12.5319 11.267C12.4763 12.7114 12.0776 14.0812 11.4023 15.2951C7.67341 14.107 5.11274 10.6442 5.11134 6.70019C5.11134 6.53503 5.12232 6.37371 5.13252 6.21252ZM3.02735 12C3.02491 10.413 3.43763 8.92382 4.1576 7.62872C4.52058 11.5373 7.14289 14.8873 10.8672 16.1732C9.87159 17.5633 8.47383 18.6575 6.81465 19.3069C4.52931 17.6808 3.03193 15.0185 3.02735 12ZM12.0367 20.9722C12.0335 20.9722 12.0305 20.9727 12.0274 20.9727C10.5241 20.975 9.1092 20.6033 7.86305 19.9526C11.2869 18.3115 13.5259 14.8536 13.5557 10.9961C13.5557 10.9921 13.5535 10.9881 13.5535 10.9841C14.466 10.6385 15.4152 10.4457 16.372 10.406C16.6375 11.2598 16.7797 12.1475 16.7774 13.043C16.788 16.3647 14.957 19.4078 12.0367 20.9722ZM14.2401 20.6833C16.4604 18.8072 17.7866 16.0253 17.7774 13.043C17.7799 12.1564 17.658 11.2758 17.4233 10.4233C18.6504 10.5156 19.8576 10.8567 20.9719 11.4476C20.9829 11.6268 20.9996 11.8044 21 11.9863C21 16.1788 18.1245 19.6913 14.2401 20.6833Z" fill="#202020"/>
</svg>
