<svg width="24" height="24" viewBox="0 0 24 24" fill="none" xmlns="http://www.w3.org/2000/svg">
<path d="M12 2C6.47717 2 2 6.47717 2 12C2 17.5228 6.47717 22 12 22C17.5202 21.9937 21.9937 17.5202 22 12C22 6.47717 17.5228 2 12 2ZM21 12C21 14.0878 20.2825 16.0044 19.0895 17.5313C18.2247 16.9985 17.4968 16.2706 16.9642 15.4056C15.0844 12.3519 16.0348 8.35315 19.0862 6.47095C20.2793 7.99731 20.9976 9.9129 21 12ZM4.91064 6.46844C5.77527 7.0011 6.50275 7.7287 7.03522 8.59332C8.9165 11.6483 7.96515 15.6498 4.91064 17.5316C3.71753 16.0046 3 14.088 3 12C3 9.91205 3.71753 7.99536 4.91064 6.46844ZM12 21C9.47424 21 7.19489 19.9564 5.56036 18.2807C6.62866 17.5902 7.5188 16.6534 8.12 15.5245C9.96594 12.0582 8.81177 7.79932 5.57068 5.70795C7.20447 4.0387 9.47974 3 12 3C14.5242 3.00287 16.802 4.04675 18.4361 5.72156C17.3693 6.41193 16.4805 7.34778 15.88 8.47546C14.0341 11.9418 15.1882 16.2007 18.4293 18.2921C16.7955 19.9613 14.5203 21 12 21Z" fill="#202020"/>
</svg>
