<svg width="24" height="24" viewBox="0 0 24 24" fill="none" xmlns="http://www.w3.org/2000/svg">
<path d="M16.0405 9.11902H6.68881C5.62224 9.11902 4.75761 9.98365 4.75761 11.0502V15.9296C4.75761 16.9962 5.62224 17.8608 6.68881 17.8608H16.0405C17.1071 17.8608 17.9717 16.9962 17.9717 15.9296V11.0502C17.9717 9.98365 17.1071 9.11902 16.0405 9.11902Z" stroke="#202020" stroke-width="1.28069" stroke-linecap="round" stroke-linejoin="round"/>
<path d="M6.70969 11.4569V15.4211" stroke="#202020" stroke-width="1.28069" stroke-linecap="round" stroke-linejoin="round"/>
<path d="M8.6127 13.9059V15.4219" stroke="#202020" stroke-width="1.28069" stroke-linecap="round" stroke-linejoin="round"/>
<path d="M8.6127 11.4569V12.4984" stroke="#202020" stroke-width="1.28069" stroke-linecap="round" stroke-linejoin="round"/>
<path d="M10.4809 15.1324V15.4212" stroke="#202020" stroke-width="1.28069" stroke-linecap="round" stroke-linejoin="round"/>
<path d="M10.4809 11.4569V13.6924" stroke="#202020" stroke-width="1.28069" stroke-linecap="round" stroke-linejoin="round"/>
<path d="M12.3838 13.5689V15.4211" stroke="#202020" stroke-width="1.28069" stroke-linecap="round" stroke-linejoin="round"/>
<path d="M12.3838 11.4569V12.143" stroke="#202020" stroke-width="1.28069" stroke-linecap="round" stroke-linejoin="round"/>
<path d="M14.1657 11.4569V15.4211" stroke="#202020" stroke-width="1.28069" stroke-linecap="round" stroke-linejoin="round"/>
<path d="M16.0687 14.6525V15.4215" stroke="#202020" stroke-width="1.28069" stroke-linecap="round" stroke-linejoin="round"/>
<path d="M16.0687 11.4889V13.2454" stroke="#202020" stroke-width="1.28069" stroke-linecap="round" stroke-linejoin="round"/>
</svg>
