<svg width="24" height="24" viewBox="0 0 24 24" fill="none" xmlns="http://www.w3.org/2000/svg">
<path d="M11.8261 17.5674C11.7 17.3213 11.3984 17.2241 11.1524 17.3502C10.9077 17.4756 10.81 17.7749 10.9335 18.0205C11.0702 18.2881 11.1962 18.5615 11.3114 18.8379C11.3892 19.0243 11.5714 19.1456 11.7733 19.1455C11.8393 19.1453 11.9046 19.1324 11.9657 19.1074C12.2204 19.0007 12.3409 18.7082 12.2352 18.4531C12.1102 18.1533 11.9726 17.8584 11.8261 17.5674ZM10.8026 15.8994C10.6112 15.6377 10.4094 15.3821 10.1972 15.1328C10.0181 14.9225 9.70241 14.8971 9.49208 15.0762C9.28175 15.2552 9.25636 15.5709 9.43544 15.7812C9.63173 16.0107 9.81795 16.2468 9.99403 16.4893C10.1579 16.7118 10.4711 16.7594 10.6937 16.5955C10.9149 16.4327 10.9635 16.122 10.8026 15.8994ZM6.38344 12.1195C6.09145 11.9701 5.79482 11.8327 5.49501 11.708C5.23988 11.6023 4.9474 11.7234 4.84169 11.9785C4.73598 12.2336 4.85707 12.5261 5.1122 12.6318C5.38661 12.7461 5.6584 12.8721 5.92763 13.0098C6.17348 13.1356 6.47481 13.0384 6.60066 12.7925C6.72652 12.5467 6.62929 12.2454 6.38344 12.1195ZM8.2206 13.2725L8.04482 13.1426C7.82167 12.9798 7.50887 13.0287 7.34609 13.2518C7.1833 13.475 7.23219 13.7878 7.45534 13.9506C7.4565 13.9514 7.45772 13.9523 7.45888 13.9531L7.61806 14.0703C7.80653 14.2129 7.98818 14.3603 8.16396 14.5107C8.37373 14.6904 8.68941 14.6658 8.86903 14.456C9.0486 14.2463 9.02413 13.9306 8.81435 13.751C8.62288 13.5869 8.42568 13.4277 8.2206 13.2725ZM13.0623 5.85546C12.9256 5.58691 12.8 5.31445 12.6854 5.03808C12.5797 4.78295 12.2872 4.66186 12.0321 4.76757C11.777 4.87328 11.6558 5.16576 11.7616 5.42089C11.8856 5.7207 12.0233 6.01659 12.1717 6.30859C12.2968 6.5545 12.5977 6.65246 12.8436 6.52734C13.0896 6.40222 13.1875 6.10137 13.0623 5.85546ZM19.0712 4.9287C15.1658 1.02667 8.83663 1.02929 4.93459 4.93469C1.03249 8.84002 1.03517 15.1692 4.94057 19.0713C8.84358 22.971 15.1682 22.971 19.0712 19.0713C22.9696 15.1631 22.9696 8.83691 19.0712 4.9287ZM18.3642 18.3643C16.6891 20.0408 14.4187 20.9863 12.0488 20.9943L12.9559 20.8212C12.9227 20.6503 12.885 20.4798 12.8427 20.3095C12.7749 20.0419 12.5029 19.8798 12.2352 19.9476C11.9696 20.0149 11.8076 20.2834 11.872 20.5497C11.909 20.6976 11.9409 20.8463 11.9696 20.9951C7.00856 20.9853 2.99483 16.9557 3.00459 11.9947V11.9888C3.13454 12.0151 3.26448 12.0426 3.39443 12.0742C3.43245 12.0835 3.47145 12.0881 3.51064 12.0878C3.78676 12.0879 4.0107 11.8641 4.0107 11.5879C4.01076 11.3565 3.85194 11.1553 3.62685 11.1015C3.45595 11.0605 3.287 11.0243 3.11513 10.9911C3.09871 10.9908 3.08223 10.9914 3.06587 10.993C3.52644 6.7973 6.85256 3.49188 11.051 3.05737C11.0828 3.22375 11.1189 3.39019 11.1581 3.55566C11.2108 3.78167 11.4124 3.94152 11.6444 3.9414C11.6829 3.94164 11.7213 3.93707 11.7587 3.92773C12.0271 3.86504 12.1937 3.59661 12.1311 3.32824C12.1309 3.32787 12.1309 3.32751 12.1308 3.32714C12.106 3.22082 12.0846 3.11382 12.0626 3.00689C16.9686 3.03094 20.9458 6.99102 20.9909 11.8969C20.8635 11.8705 20.7359 11.8436 20.6093 11.8125C20.3407 11.7478 20.0705 11.9131 20.0058 12.1816C19.9411 12.4502 20.1063 12.7205 20.3749 12.7851C20.5438 12.8252 20.7138 12.8633 20.8837 12.8965C20.9052 12.9003 20.927 12.9025 20.9489 12.903C20.7457 14.9678 19.8322 16.8981 18.3642 18.3643ZM18.8925 11.251C18.6161 11.1357 18.3439 11.0098 18.0761 10.873C17.8306 10.7463 17.529 10.8426 17.4023 11.088C17.2756 11.3334 17.3718 11.6351 17.6173 11.7618C17.6185 11.7624 17.6197 11.7631 17.621 11.7637C17.912 11.9121 18.2082 12.0492 18.5097 12.1748C18.5704 12.1998 18.6354 12.2128 18.7011 12.2129C18.9772 12.2129 19.2011 11.9891 19.2011 11.7129C19.2011 11.5107 19.0793 11.3284 18.8925 11.251ZM14.1288 7.55566L14.0058 7.39068C13.8436 7.16711 13.5309 7.11742 13.3073 7.27966C13.0844 7.44146 13.0343 7.75305 13.1953 7.97662L13.3339 8.16216C13.4853 8.36236 13.6419 8.55731 13.8037 8.74712C13.9832 8.95696 14.2989 8.98144 14.5087 8.80181C14.7185 8.62225 14.743 8.30657 14.5634 8.09673C14.4149 7.92284 14.2704 7.74316 14.1288 7.55566ZM16.5429 9.92968C16.3007 9.7539 16.065 9.56768 15.8358 9.37109C15.6261 9.19146 15.3104 9.216 15.1308 9.42577C14.9511 9.63555 14.9757 9.95123 15.1854 10.1309C15.4345 10.3447 15.6913 10.5469 15.953 10.7383C16.1756 10.9022 16.4888 10.8546 16.6527 10.6321C16.8166 10.4095 16.7691 10.0962 16.5465 9.93237C16.5453 9.93145 16.5441 9.9306 16.5429 9.92968Z" fill="#202020"/>
</svg>
