<svg width="24" height="24" viewBox="0 0 24 24" fill="none" xmlns="http://www.w3.org/2000/svg">
<path d="M14.5 7C14.7761 7 15 6.77612 15 6.5C15 6.22388 14.7761 6 14.5 6H9.5C9.22388 6 9 6.22388 9 6.5C9 6.77612 9.22388 7 9.5 7H14.5ZM18.5 10H5.5C5.22388 10 5 10.2239 5 10.5C5 10.7761 5.22388 11 5.5 11H8V21.5005C8.00018 21.7766 8.224 22.0002 8.5 22C8.77594 21.9998 9.00018 21.776 9 21.5V19.5H11.5V21.0005C11.5002 21.2766 11.724 21.5002 12 21.5C12.2759 21.4998 12.5002 21.276 12.5 21V19.5H15V21.5005C15.0002 21.7766 15.224 22.0002 15.5 22C15.7759 21.9998 16.0002 21.776 16 21.5V11H18.5C18.7761 11 19 10.7761 19 10.5C19 10.2239 18.7761 10 18.5 10ZM11.5 18.5H9V15.5H11.5V18.5ZM11.5 14.5H9V11H11.5V14.5ZM15 18.5H12.5V15.5H15V18.5ZM15 14.5H12.5V11H15V14.5ZM20.5 2H3.5C2.11981 2.00128 1.00128 3.11981 1 4.5V13.5C1.00128 14.8802 2.11981 15.9987 3.5 16H4.5C4.77612 16 5 15.7761 5 15.5C5 15.2239 4.77612 15 4.5 15H3.5C2.67194 14.9991 2.00092 14.3281 2 13.5V4.5C2.00092 3.67194 2.67194 3.00092 3.5 3H20.5C21.3281 3.00092 21.9991 3.67194 22 4.5V13.5C21.9991 14.3281 21.3281 14.9991 20.5 15H19.5C19.2239 15 19 15.2239 19 15.5C19 15.7761 19.2239 16 19.5 16H20.5C21.8802 15.9987 22.9987 14.8802 23 13.5V4.5C22.9987 3.11981 21.8802 2.00128 20.5 2Z" fill="#202020"/>
</svg>
