<svg width="24" height="24" viewBox="0 0 24 24" fill="none" xmlns="http://www.w3.org/2000/svg">
<path d="M4.42337 10.8957C4.32827 10.8958 4.23433 10.8747 4.14839 10.834C4.06246 10.7932 3.98668 10.7339 3.92658 10.6601C3.86648 10.5864 3.82356 10.5003 3.80095 10.4079C3.77833 10.3155 3.77659 10.2192 3.79585 10.1261C4.11437 8.57924 4.85756 7.15171 5.94206 6.00363C7.02655 4.85554 8.40947 4.03231 9.93569 3.62626C10.0998 3.5826 10.2746 3.60592 10.4215 3.69111C10.5685 3.7763 10.6755 3.91637 10.7192 4.0805C10.7629 4.24464 10.7396 4.4194 10.6544 4.56634C10.5692 4.71328 10.4291 4.82036 10.265 4.86402C7.60513 5.57218 5.60673 7.68802 5.04897 10.3856C5.01913 10.5296 4.94065 10.6588 4.82673 10.7517C4.7128 10.8446 4.57037 10.8955 4.42337 10.8957ZM14.144 20.0733C13.9894 20.0723 13.8404 20.0154 13.7245 19.913C13.6086 19.8106 13.5337 19.6698 13.5136 19.5165C13.4935 19.3632 13.5296 19.2078 13.6152 19.079C13.7008 18.9503 13.8301 18.8568 13.9792 18.816C15.1351 18.5098 16.1966 17.9207 17.0681 17.1019C17.9395 16.2831 18.5936 15.2603 18.9712 14.1258C19.0251 13.9648 19.1408 13.8319 19.2928 13.7562C19.4447 13.6805 19.6205 13.6683 19.7815 13.7223C19.9424 13.7762 20.0753 13.8919 20.151 14.0438C20.2267 14.1958 20.2389 14.3715 20.185 14.5325C19.7401 15.8677 18.9701 17.0713 17.9442 18.0348C16.9184 18.9983 15.6689 19.6915 14.3085 20.0519C14.2548 20.0661 14.1995 20.0733 14.144 20.0733Z" fill="#202020"/>
<path d="M9.91104 6.40002C9.80297 6.39982 9.69671 6.37225 9.60217 6.31989C9.50763 6.26753 9.42788 6.19208 9.37038 6.10058C9.31287 6.00908 9.27947 5.9045 9.27329 5.79661C9.26711 5.68871 9.28836 5.58101 9.33504 5.48354L9.86048 4.38402L8.64704 3.81026C8.49451 3.73714 8.37712 3.60661 8.32055 3.44719C8.26397 3.28778 8.27281 3.11245 8.34512 2.95954C8.41744 2.80662 8.54735 2.68855 8.70646 2.63113C8.86558 2.57372 9.04095 2.58163 9.19424 2.65314L10.9891 3.50178C11.0654 3.53782 11.1337 3.58856 11.1903 3.6511C11.2468 3.71363 11.2905 3.78673 11.3187 3.86618C11.3469 3.94563 11.3591 4.02988 11.3547 4.11408C11.3503 4.19828 11.3292 4.28077 11.2928 4.35682L10.4886 6.03618C10.4365 6.14515 10.3546 6.23715 10.2524 6.30154C10.1502 6.36592 10.0318 6.40006 9.91104 6.40002ZM14.5773 21.408C14.4668 21.408 14.3583 21.3792 14.2624 21.3245L12.5344 20.3459C12.461 20.3044 12.3966 20.2487 12.3448 20.1822C12.293 20.1156 12.2549 20.0395 12.2326 19.9582C12.2104 19.8768 12.2044 19.7919 12.215 19.7083C12.2257 19.6246 12.2528 19.5439 12.2947 19.4707L13.2208 17.856C13.307 17.7125 13.4461 17.6085 13.6081 17.5663C13.7701 17.5241 13.9422 17.5471 14.0875 17.6304C14.2328 17.7136 14.3397 17.8504 14.3852 18.0115C14.4308 18.1727 14.4114 18.3452 14.3312 18.4922L13.7254 19.5482L14.8934 20.2099C15.0171 20.2793 15.1142 20.3878 15.1695 20.5184C15.2248 20.649 15.2352 20.7942 15.199 20.9313C15.1628 21.0684 15.0821 21.1896 14.9696 21.2759C14.8571 21.3622 14.7191 21.4087 14.5773 21.408ZM14.7917 14.5575C14.5394 14.5577 14.2876 14.5372 14.0387 14.496C13.9545 14.4838 13.8735 14.4548 13.8006 14.4109C13.7276 14.367 13.6642 14.3089 13.614 14.2401C13.5638 14.1714 13.5278 14.0933 13.5081 14.0105C13.4885 13.9276 13.4855 13.8417 13.4995 13.7577C13.5135 13.6737 13.544 13.5933 13.5895 13.5213C13.6349 13.4493 13.6942 13.3871 13.764 13.3383C13.8337 13.2895 13.9125 13.2551 13.9958 13.2371C14.079 13.2191 14.165 13.2179 14.2486 13.2336C14.4285 13.2633 14.6104 13.2781 14.7926 13.2781C15.6626 13.2781 16.4968 12.9325 17.112 12.3174C17.7271 11.7023 18.0726 10.868 18.0726 9.9981C18.0726 9.12819 17.7271 8.29391 17.112 7.67879C16.4968 7.06367 15.6626 6.7181 14.7926 6.7181C13.1514 6.7181 11.7526 7.94274 11.5405 9.5661C11.5322 9.65157 11.5069 9.73452 11.4659 9.80999C11.425 9.88547 11.3693 9.95193 11.3021 10.0054C11.2349 10.0589 11.1576 10.0983 11.0749 10.1213C10.9922 10.1443 10.9057 10.1505 10.8205 10.1393C10.7354 10.1282 10.6533 10.1001 10.5793 10.0566C10.5052 10.0131 10.4407 9.95512 10.3895 9.88617C10.3383 9.81721 10.3016 9.73866 10.2814 9.6552C10.2612 9.57173 10.258 9.48506 10.272 9.40034C10.5677 7.14114 12.512 5.43746 14.7933 5.43746C17.3075 5.43746 19.3533 7.4829 19.3533 9.99746C19.3533 12.512 17.3059 14.5575 14.7917 14.5575Z" fill="#202020"/>
<path d="M10.0531 17.9635C7.53886 17.9635 5.4931 15.9181 5.4931 13.4035C5.4931 10.8889 7.53886 8.84351 10.0531 8.84351C12.5673 8.84351 14.6134 10.8889 14.6134 13.4035C14.6134 15.9181 12.5677 17.9635 10.0531 17.9635ZM10.0531 10.1235C9.40439 10.1236 8.77027 10.316 8.23092 10.6764C7.69157 11.0369 7.27121 11.5492 7.02301 12.1485C6.7748 12.7479 6.70989 13.4074 6.83649 14.0436C6.96308 14.6798 7.2755 15.2642 7.73423 15.7229C8.19295 16.1816 8.7774 16.494 9.41364 16.6205C10.0499 16.747 10.7094 16.6821 11.3087 16.4338C11.908 16.1855 12.4203 15.7651 12.7807 15.2257C13.1411 14.6864 13.3334 14.0522 13.3334 13.4035C13.3325 12.5338 12.9866 11.7 12.3716 11.0851C11.7566 10.4702 10.9228 10.1244 10.0531 10.1235Z" fill="#202020"/>
<path d="M10.6448 14.0266H9.09374C8.924 14.0266 8.76121 13.9591 8.64119 13.8391C8.52116 13.7191 8.45374 13.5563 8.45374 13.3866V11.951C8.45374 11.7813 8.52116 11.6185 8.64119 11.4985C8.76121 11.3785 8.924 11.311 9.09374 11.311H10.6448C11.0049 11.311 11.3502 11.4541 11.6049 11.7087C11.8595 11.9633 12.0025 12.3087 12.0025 12.6688C12.0025 13.0289 11.8595 13.3742 11.6049 13.6289C11.3502 13.8835 11.0049 14.0266 10.6448 14.0266ZM9.73374 12.7466H10.6448C10.6654 12.7466 10.6852 12.7384 10.6998 12.7238C10.7143 12.7092 10.7225 12.6894 10.7225 12.6688C10.7225 12.6482 10.7143 12.6284 10.6998 12.6138C10.6852 12.5992 10.6654 12.591 10.6448 12.591H9.73374V12.7466Z" fill="#202020"/>
<path d="M10.6448 15.4617H9.09374C8.924 15.4617 8.76121 15.3943 8.64119 15.2743C8.52116 15.1543 8.45374 14.9915 8.45374 14.8217V13.3865C8.45374 13.2168 8.52116 13.054 8.64119 12.934C8.76121 12.814 8.924 12.7465 9.09374 12.7465H10.6448C10.8248 12.7438 11.0036 12.7768 11.1707 12.8438C11.3379 12.9108 11.49 13.0104 11.6183 13.1367C11.7466 13.2631 11.8485 13.4137 11.918 13.5797C11.9876 13.7458 12.0234 13.9241 12.0234 14.1041C12.0234 14.2842 11.9876 14.4625 11.918 14.6285C11.8485 14.7946 11.7466 14.9452 11.6183 15.0716C11.49 15.1979 11.3379 15.2975 11.1707 15.3644C11.0036 15.4314 10.8248 15.4645 10.6448 15.4617ZM9.73374 14.1817H10.6448C10.6554 14.1824 10.666 14.1809 10.676 14.1773C10.686 14.1737 10.6952 14.1681 10.703 14.1609C10.7107 14.1536 10.7169 14.1448 10.7211 14.135C10.7253 14.1253 10.7275 14.1148 10.7275 14.1041C10.7275 14.0935 10.7253 14.083 10.7211 14.0732C10.7169 14.0635 10.7107 14.0547 10.703 14.0474C10.6952 14.0401 10.686 14.0345 10.676 14.031C10.666 14.0274 10.6554 14.0259 10.6448 14.0265H9.73374V14.1817ZM10.0185 12.591C9.93449 12.591 9.85127 12.5745 9.77362 12.5423C9.69597 12.5101 9.62542 12.463 9.56599 12.4036C9.50656 12.3441 9.45942 12.2736 9.42725 12.1959C9.39509 12.1183 9.37854 12.0351 9.37854 11.951V11.1424C9.37854 10.9726 9.44596 10.8099 9.56599 10.6898C9.68601 10.5698 9.8488 10.5024 10.0185 10.5024C10.1883 10.5024 10.3511 10.5698 10.4711 10.6898C10.5911 10.8099 10.6585 10.9726 10.6585 11.1424V11.951C10.6585 12.0351 10.642 12.1183 10.6098 12.1959C10.5777 12.2736 10.5305 12.3441 10.4711 12.4036C10.4117 12.463 10.3411 12.5101 10.2635 12.5423C10.1858 12.5745 10.1026 12.591 10.0185 12.591Z" fill="#202020"/>
<path d="M10.0185 16.3046C9.8488 16.3046 9.68602 16.2372 9.56599 16.1172C9.44597 15.9972 9.37854 15.8344 9.37854 15.6646V14.856C9.37854 14.6863 9.44597 14.5235 9.56599 14.4035C9.68602 14.2834 9.8488 14.216 10.0185 14.216C10.1883 14.216 10.3511 14.2834 10.4711 14.4035C10.5911 14.5235 10.6585 14.6863 10.6585 14.856V15.6646C10.6585 15.8344 10.5911 15.9972 10.4711 16.1172C10.3511 16.2372 10.1883 16.3046 10.0185 16.3046Z" fill="#202020"/>
</svg>
