<svg width="24" height="24" viewBox="0 0 24 24" fill="none" xmlns="http://www.w3.org/2000/svg">
<path d="M17.25 16.5H15.75C15.5511 16.5 15.3603 16.579 15.2197 16.7197C15.079 16.8603 15 17.0511 15 17.25C15 17.4489 15.079 17.6397 15.2197 17.7803C15.3603 17.921 15.5511 18 15.75 18H17.25C17.4489 18 17.6397 17.921 17.7803 17.7803C17.921 17.6397 18 17.4489 18 17.25C18 17.0511 17.921 16.8603 17.7803 16.7197C17.6397 16.579 17.4489 16.5 17.25 16.5Z" fill="#202020"/>
<path d="M18 2.25C16.9373 2.25108 15.9094 2.62818 15.0981 3.31454C14.2868 4.00089 13.7446 4.9522 13.5675 6H6.75C5.75544 6 4.80161 6.39509 4.09835 7.09835C3.39509 7.80161 3 8.75544 3 9.75V17.25C3 18.2446 3.39509 19.1984 4.09835 19.9016C4.80161 20.6049 5.75544 21 6.75 21H17.25C18.2446 21 19.1984 20.6049 19.9016 19.9016C20.6049 19.1984 21 18.2446 21 17.25V10.095C21.6759 9.48673 22.1517 8.68794 22.3647 7.80389C22.5777 6.91984 22.5178 5.99202 22.193 5.14266C21.8682 4.29331 21.2937 3.56229 20.5452 3.04591C19.7967 2.52954 18.9093 2.25205 18 2.25ZM18 3.75C18.5276 3.75321 19.045 3.8955 19.5 4.1625L15.4125 8.25C15.2721 8.0164 15.166 7.76381 15.0975 7.5C14.9675 7.00846 14.9675 6.49154 15.0975 6C15.2637 5.3564 15.6389 4.78622 16.1642 4.37898C16.6896 3.97173 17.3353 3.7505 18 3.75ZM6.2025 7.575C6.26406 7.54184 6.32958 7.51664 6.3975 7.5C6.51472 7.48856 6.63278 7.48856 6.75 7.5H13.5675C13.6803 8.16476 13.9411 8.79566 14.3306 9.34608C14.72 9.89651 15.2282 10.3524 15.8175 10.68L12.6525 13.2675C12.4692 13.4167 12.2401 13.4982 12.0037 13.4982C11.7674 13.4982 11.5383 13.4167 11.355 13.2675L5.145 8.1825C5.43261 7.88363 5.79943 7.6729 6.2025 7.575ZM19.5 17.25C19.5 17.8467 19.2629 18.419 18.841 18.841C18.419 19.2629 17.8467 19.5 17.25 19.5H6.75C6.15326 19.5 5.58097 19.2629 5.15901 18.841C4.73705 18.419 4.5 17.8467 4.5 17.25V9.75C4.49626 9.70007 4.49626 9.64993 4.5 9.6L10.3875 14.4225C10.8414 14.7968 11.4117 15.001 12 15C12.5837 15.0007 13.1492 14.7963 13.5975 14.4225L17.5125 11.25C17.6748 11.2614 17.8377 11.2614 18 11.25C18.5115 11.2514 19.0193 11.1625 19.5 10.9875V17.25ZM20.64 8.175C20.3789 8.67123 19.984 9.08435 19.5 9.3675C19.0421 9.62403 18.5249 9.75592 18 9.75C17.6973 9.75097 17.3963 9.70544 17.1075 9.615C16.8827 9.54697 16.6682 9.44857 16.47 9.3225L20.58 5.25C20.8442 5.69547 20.9886 6.20176 20.9992 6.7196C21.0097 7.23743 20.8859 7.74917 20.64 8.205V8.175Z" fill="#202020"/>
</svg>
