<svg width="24" height="24" viewBox="0 0 24 24" fill="none" xmlns="http://www.w3.org/2000/svg">
<path d="M12 20.4217C11.8567 20.4217 11.7175 20.3736 11.6048 20.2851C9.4686 18.6059 6.86491 17.6294 4.15137 17.4896C3.98723 17.4813 3.83255 17.4103 3.71937 17.2912C3.60618 17.172 3.54316 17.0139 3.54337 16.8496V4.48475C3.54336 4.40022 3.56011 4.31652 3.59263 4.2385C3.62515 4.16047 3.67281 4.08966 3.73285 4.03016C3.79289 3.97065 3.86412 3.92363 3.94244 3.89181C4.02075 3.85998 4.1046 3.84399 4.18913 3.84475C7.1871 3.86987 10.0862 4.92003 12.4048 6.82075C12.4783 6.88077 12.5375 6.95638 12.5782 7.04211C12.6189 7.12784 12.64 7.22154 12.64 7.31643V19.7817C12.64 19.9515 12.5726 20.1142 12.4526 20.2343C12.3325 20.3543 12.1697 20.4217 12 20.4217ZM4.82433 16.256C7.15559 16.4747 9.39863 17.2573 11.36 18.5363V7.62427C9.47989 6.16057 7.2023 5.29745 4.82433 5.14747V16.256Z" fill="#202020"/>
<path d="M12 20.4216C11.8303 20.4216 11.6675 20.3542 11.5475 20.2342C11.4274 20.1142 11.36 19.9514 11.36 19.7816V7.31636C11.36 7.21527 11.384 7.11562 11.4299 7.02556C11.4759 6.93551 11.5425 6.85763 11.6243 6.79828C14.009 5.06827 16.8328 4.04508 19.7722 3.84596C19.8598 3.83999 19.9477 3.85212 20.0305 3.8816C20.1132 3.91108 20.189 3.95727 20.2531 4.01731C20.3172 4.07734 20.3683 4.14993 20.4032 4.23056C20.438 4.31119 20.4559 4.39813 20.4557 4.48596V16.8504C20.4557 17.0183 20.3898 17.1795 20.2721 17.2992C20.1544 17.4189 19.9944 17.4876 19.8266 17.4904C17.1084 17.5349 14.4892 18.5173 12.4122 20.2712C12.2968 20.3684 12.1508 20.4216 12 20.4216ZM12.64 7.64788V18.4917C14.5766 17.1668 16.8341 16.3878 19.1757 16.2364V5.1858C16.828 5.45748 14.5834 6.30307 12.64 7.64788ZM8.304 9.3938C8.23413 9.39379 8.16473 9.38233 8.09856 9.35988L5.99808 8.64852C5.8373 8.59408 5.70472 8.47799 5.62953 8.32581C5.55434 8.17362 5.54268 7.99779 5.59712 7.837C5.65157 7.67622 5.76765 7.54365 5.91984 7.46845C6.07203 7.39326 6.24786 7.3816 6.40864 7.43604L8.50944 8.14772C8.65307 8.19644 8.77472 8.29459 8.85272 8.42466C8.93072 8.55473 8.96 8.70827 8.93533 8.85791C8.91066 9.00756 8.83364 9.14358 8.71802 9.24173C8.60239 9.33987 8.45567 9.39377 8.304 9.3938ZM8.304 11.4722C8.23413 11.4722 8.16473 11.4607 8.09856 11.4383L5.99808 10.7266C5.91847 10.6996 5.84495 10.6573 5.78171 10.6019C5.71847 10.5465 5.66676 10.4792 5.62953 10.4039C5.5923 10.3285 5.57027 10.2466 5.56471 10.1627C5.55915 10.0788 5.57016 9.9947 5.59712 9.91508C5.62408 9.83547 5.66645 9.76195 5.72183 9.69871C5.7772 9.63548 5.84448 9.58376 5.91984 9.54653C6.07203 9.47134 6.24786 9.45968 6.40864 9.51412L8.50944 10.2258C8.6533 10.2744 8.77522 10.3725 8.85341 10.5026C8.9316 10.6328 8.96097 10.7865 8.93628 10.9363C8.91159 11.0861 8.83444 11.2223 8.71861 11.3204C8.60279 11.4186 8.45583 11.4724 8.304 11.4722Z" fill="#202020"/>
</svg>
