<svg width="24" height="24" viewBox="0 0 24 24" fill="none" xmlns="http://www.w3.org/2000/svg">
<path d="M12.2182 19.752C12.1006 19.7519 11.9852 19.7195 11.8848 19.6582C9.82695 18.4011 7.51 17.6287 5.10945 17.3996C4.73913 17.3659 4.39491 17.1946 4.14464 16.9196C3.89437 16.6445 3.75623 16.2857 3.75745 15.9139V5.82844C3.75761 5.62442 3.79956 5.4226 3.88071 5.23542C3.96187 5.04824 4.0805 4.87967 4.22931 4.7401C4.37811 4.60053 4.55393 4.49292 4.74592 4.42391C4.93791 4.35489 5.142 4.32594 5.34561 4.33884C6.54798 4.41399 7.7392 4.61466 8.89985 4.93756C10.0495 5.25758 11.1613 5.7009 12.2157 6.2598C13.2659 5.6925 14.3715 5.23443 15.5152 4.89276C16.5137 4.59447 17.5359 4.38228 18.5706 4.25852C18.7802 4.23328 18.9927 4.25276 19.1942 4.31567C19.3957 4.37858 19.5816 4.4835 19.7396 4.6235C19.8976 4.7635 20.0241 4.93541 20.1108 5.12788C20.1975 5.32035 20.2424 5.52902 20.2426 5.74012V15.9862C20.2426 16.3354 20.1201 16.6736 19.8964 16.9418C19.6728 17.21 19.3621 17.3913 19.0186 17.454C16.7513 17.8691 14.5584 18.6193 12.512 19.68C12.4212 19.7271 12.3205 19.7518 12.2182 19.752ZM5.25089 5.61596C5.19638 5.61588 5.14392 5.63673 5.10433 5.6742C5.08315 5.69391 5.06628 5.71779 5.05477 5.74433C5.04326 5.77087 5.03736 5.79951 5.03745 5.82844V15.9139C5.03737 15.9667 5.057 16.0177 5.09251 16.0568C5.12802 16.0959 5.17685 16.1204 5.22945 16.1254C7.70252 16.361 10.0949 17.1308 12.2413 18.3817C14.3091 17.348 16.5127 16.6117 18.7866 16.1948C18.8355 16.1861 18.8798 16.1604 18.9118 16.1222C18.9437 16.0841 18.9612 16.0359 18.9613 15.9862V5.74012C18.9614 5.71019 18.9551 5.6806 18.9428 5.65332C18.9305 5.62605 18.9124 5.60174 18.8899 5.58204C18.8673 5.56171 18.8405 5.54651 18.8115 5.53745C18.7824 5.5284 18.7518 5.5257 18.7216 5.52956C17.7597 5.64434 16.8094 5.84154 15.8813 6.119C14.7152 6.46706 13.5922 6.94595 12.5338 7.54652C12.4379 7.60115 12.3295 7.63006 12.2192 7.63046C12.1088 7.63085 12.0003 7.6027 11.904 7.54876C10.8464 6.95754 9.72197 6.49485 8.55457 6.17052C7.48 5.87169 6.37717 5.68594 5.26401 5.61628L5.25089 5.61596Z" fill="#202020"/>
<path d="M12.2183 19.752C12.0485 19.752 11.8857 19.6845 11.7657 19.5645C11.6457 19.4445 11.5783 19.2817 11.5783 19.112V6.99037C11.5783 6.82064 11.6457 6.65785 11.7657 6.53783C11.8857 6.4178 12.0485 6.35037 12.2183 6.35037C12.388 6.35037 12.5508 6.4178 12.6708 6.53783C12.7908 6.65785 12.8583 6.82064 12.8583 6.99037V19.112C12.8583 19.2817 12.7908 19.4445 12.6708 19.5645C12.5508 19.6845 12.388 19.752 12.2183 19.752ZM14.9168 8.75421C14.7471 8.75421 14.5843 8.68679 14.4643 8.56676C14.3442 8.44674 14.2768 8.28395 14.2768 8.11421V5.75997C14.2768 5.59024 14.3442 5.42745 14.4643 5.30743C14.5843 5.1874 14.7471 5.11997 14.9168 5.11997C15.0865 5.11997 15.2493 5.1874 15.3694 5.30743C15.4894 5.42745 15.5568 5.59024 15.5568 5.75997V7.28957L16.5677 7.03037V5.12669C16.5677 4.95696 16.6351 4.79417 16.7551 4.67415C16.8752 4.55412 17.038 4.48669 17.2077 4.48669C17.3774 4.48669 17.5402 4.55412 17.6602 4.67415C17.7803 4.79417 17.8477 4.95696 17.8477 5.12669V7.52669C17.8477 7.66861 17.8006 7.80651 17.7137 7.91871C17.6268 8.03091 17.5051 8.11106 17.3677 8.14653L15.0771 8.73373C15.0248 8.74731 14.9709 8.75419 14.9168 8.75421Z" fill="#202020"/>
</svg>
