<svg width="24" height="24" viewBox="0 0 24 24" fill="none" xmlns="http://www.w3.org/2000/svg">
<path d="M15.8819 20.4556H8.11809C7.28068 20.4544 6.47795 20.1211 5.88594 19.5288C5.29392 18.9366 4.96094 18.1337 4.96001 17.2963V6.70428C4.96094 5.86671 5.29405 5.0637 5.88628 4.47142C6.4785 3.87914 7.28147 3.54594 8.11905 3.54492H15.8819C16.7192 3.54619 17.5219 3.87941 18.1138 4.47153C18.7058 5.06365 19.0389 5.86635 19.04 6.70364V17.2956C19.0392 18.1332 18.7063 18.9362 18.1143 19.5286C17.5223 20.121 16.7194 20.4544 15.8819 20.4556ZM8.11809 4.82428C7.62003 4.82513 7.14263 5.02345 6.79057 5.37575C6.43851 5.72805 6.24051 6.20558 6.24001 6.70364V17.2956C6.24051 17.7939 6.43864 18.2715 6.79091 18.6239C7.14318 18.9762 7.62082 19.1744 8.11905 19.175H15.8819C16.3799 19.1742 16.8572 18.9759 17.2092 18.6238C17.5613 18.2716 17.7593 17.7942 17.76 17.2963V6.70428C17.7595 6.20606 17.5614 5.72838 17.2091 5.37605C16.8568 5.02372 16.3792 4.82551 15.881 4.82492L8.11809 4.82428Z" fill="#202020"/>
<path d="M5.6 16.6788C5.4883 16.6787 5.37857 16.6493 5.28173 16.5937C5.18488 16.538 5.10428 16.458 5.04795 16.3615C4.99162 16.2651 4.96151 16.1556 4.96062 16.0439C4.95973 15.9322 4.98809 15.8222 5.04288 15.7249C5.40096 15.0884 6.09664 14.6231 7.0544 14.3809C7.46857 14.2757 7.89291 14.2156 8.32 14.2017H18.4C18.5697 14.2017 18.7325 14.2691 18.8525 14.3891C18.9726 14.5091 19.04 14.6719 19.04 14.8417C19.04 15.0114 18.9726 15.1742 18.8525 15.2942C18.7325 15.4142 18.5697 15.4817 18.4 15.4817H8.3312C7.88832 15.489 6.544 15.6644 6.1552 16.3527C6.09972 16.4513 6.01912 16.5334 5.92159 16.5906C5.82407 16.6479 5.7131 16.6783 5.6 16.6788ZM14.7869 8.6279H8.32672C8.15698 8.6279 7.99419 8.56047 7.87417 8.44045C7.75415 8.32043 7.68672 8.15764 7.68672 7.9879C7.68672 7.81816 7.75415 7.65538 7.87417 7.53535C7.99419 7.41533 8.15698 7.3479 8.32672 7.3479H14.7869C14.9566 7.3479 15.1194 7.41533 15.2394 7.53535C15.3595 7.65538 15.4269 7.81816 15.4269 7.9879C15.4269 8.15764 15.3595 8.32043 15.2394 8.44045C15.1194 8.56047 14.9566 8.6279 14.7869 8.6279ZM12.9197 11.8183H8.32672C8.15698 11.8183 7.99419 11.7509 7.87417 11.6308C7.75415 11.5108 7.68672 11.348 7.68672 11.1783C7.68672 11.0086 7.75415 10.8458 7.87417 10.7258C7.99419 10.6057 8.15698 10.5383 8.32672 10.5383H12.9197C13.0894 10.5383 13.2522 10.6057 13.3722 10.7258C13.4923 10.8458 13.5597 11.0086 13.5597 11.1783C13.5597 11.348 13.4923 11.5108 13.3722 11.6308C13.2522 11.7509 13.0894 11.8183 12.9197 11.8183Z" fill="#202020"/>
</svg>
