<svg width="24" height="24" viewBox="0 0 24 24" fill="none" xmlns="http://www.w3.org/2000/svg">
<path d="M8 7.44043C7.17157 7.44043 6.5 8.112 6.5 8.94043C6.5 9.76886 7.17157 10.4404 8 10.4404C8.82843 10.4404 9.5 9.76886 9.5 8.94043C9.49908 8.11237 8.82806 7.44135 8 7.44043ZM8 9.44043C7.72388 9.44043 7.5 9.21655 7.5 8.94043C7.5 8.66431 7.72388 8.44043 8 8.44043C8.27612 8.44043 8.5 8.66431 8.5 8.94043C8.49945 9.21637 8.27594 9.43988 8 9.44043ZM12 2C6.47717 2 2 6.47717 2 12C2 17.5228 6.47717 22 12 22C17.5228 22 22 17.5228 22 12C21.9935 6.47986 17.5201 2.00647 12 2ZM12 21C7.02942 21 3 16.9706 3 12C3 7.02942 7.02942 3 12 3C16.9706 3 21 7.02942 21 12C20.9946 16.9683 16.9683 20.9946 12 21ZM11 9.44043C10.1716 9.44043 9.5 10.112 9.5 10.9404C9.5 11.7689 10.1716 12.4404 11 12.4404C11.8284 12.4404 12.5 11.7689 12.5 10.9404C12.4991 10.1124 11.8281 9.44135 11 9.44043ZM11 11.4404C10.7239 11.4404 10.5 11.2166 10.5 10.9404C10.5 10.6643 10.7239 10.4404 11 10.4404C11.2761 10.4404 11.5 10.6643 11.5 10.9404C11.4995 11.2164 11.2759 11.4399 11 11.4404ZM11 5.44043C10.1716 5.44043 9.5 6.112 9.5 6.94043C9.5 7.76886 10.1716 8.44043 11 8.44043C11.8284 8.44043 12.5 7.76886 12.5 6.94043C12.4991 6.11237 11.8281 5.44135 11 5.44043ZM11 7.44043C10.7239 7.44043 10.5 7.21655 10.5 6.94043C10.5 6.66431 10.7239 6.44043 11 6.44043C11.2761 6.44043 11.5 6.66431 11.5 6.94043C11.4995 7.21637 11.2759 7.43988 11 7.44043Z" fill="#202020"/>
</svg>
