<svg width="24" height="24" viewBox="0 0 24 24" fill="none" xmlns="http://www.w3.org/2000/svg">
<path d="M11.8298 20.96C11.4316 20.9604 11.0404 20.856 10.6954 20.6573L4.89824 17.312C4.55384 17.1125 4.26785 16.826 4.06884 16.4813C3.86983 16.1365 3.76477 15.7456 3.76416 15.3476V8.65317C3.76466 8.25501 3.86967 7.86396 4.06868 7.51911C4.2677 7.17426 4.55375 6.88769 4.89824 6.68805L10.6954 3.34085C11.0404 3.1424 11.4315 3.03796 11.8296 3.03796C12.2277 3.03796 12.6188 3.1424 12.9638 3.34085L18.761 6.68805C19.1054 6.88762 19.3914 7.17407 19.5905 7.5188C19.7896 7.86353 19.8947 8.25445 19.8954 8.65253V13.4772C19.8954 13.6469 19.8279 13.8097 19.7079 13.9297C19.5879 14.0497 19.4251 14.1172 19.2554 14.1172C19.0856 14.1172 18.9228 14.0497 18.8028 13.9297C18.6828 13.8097 18.6154 13.6469 18.6154 13.4772V8.65317C18.615 8.47972 18.5691 8.3094 18.4824 8.1592C18.3956 8.009 18.271 7.88417 18.121 7.79717L12.3238 4.44997C12.1735 4.36355 12.003 4.31808 11.8296 4.31808C11.6562 4.31808 11.4857 4.36355 11.3354 4.44997L5.53824 7.79717C5.38825 7.88421 5.2637 8.00906 5.177 8.15925C5.09031 8.30945 5.04451 8.47975 5.04416 8.65317V15.3469C5.04451 15.5203 5.09031 15.6906 5.177 15.8408C5.2637 15.991 5.38825 16.1159 5.53824 16.2029L11.3354 19.5501C11.4857 19.6365 11.6562 19.682 11.8296 19.682C12.003 19.682 12.1735 19.6365 12.3238 19.5501L16.3878 17.2039C16.4607 17.1612 16.5412 17.1333 16.6248 17.1219C16.7084 17.1105 16.7935 17.1157 16.8751 17.1373C16.9567 17.1588 17.0332 17.1963 17.1003 17.2476C17.1673 17.2989 17.2236 17.3629 17.2658 17.436C17.308 17.5091 17.3353 17.5898 17.3462 17.6735C17.3571 17.7572 17.3513 17.8422 17.3292 17.9237C17.307 18.0051 17.269 18.0814 17.2173 18.1481C17.1656 18.2148 17.1012 18.2707 17.0278 18.3124L12.9638 20.6586C12.6188 20.8568 12.2277 20.9608 11.8298 20.96Z" fill="#202020"/>
<path d="M11.8297 12.6401C11.7174 12.6402 11.607 12.6106 11.5097 12.5543L4.30238 8.3943C4.229 8.35258 4.16461 8.29676 4.11289 8.23006C4.06118 8.16335 4.02317 8.08708 4.00106 8.00562C3.97894 7.92417 3.97316 7.83914 3.98404 7.75544C3.99492 7.67174 4.02224 7.59102 4.06445 7.51793C4.10665 7.44483 4.16289 7.38081 4.22994 7.32954C4.29699 7.27827 4.37351 7.24077 4.45511 7.21919C4.53671 7.19762 4.62177 7.1924 4.7054 7.20384C4.78902 7.21527 4.86956 7.24313 4.94238 7.28582L11.8297 11.2612L18.7171 7.28454C18.7899 7.24185 18.8704 7.21399 18.9541 7.20256C19.0377 7.19112 19.1228 7.19634 19.2044 7.21791C19.286 7.23949 19.3625 7.27699 19.4295 7.32826C19.4966 7.37953 19.5528 7.44355 19.595 7.51665C19.6372 7.58974 19.6646 7.67046 19.6754 7.75416C19.6863 7.83786 19.6805 7.92289 19.6584 8.00434C19.6363 8.0858 19.5983 8.16207 19.5466 8.22878C19.4949 8.29548 19.4305 8.3513 19.3571 8.39302L12.1497 12.553C12.0526 12.6096 11.9422 12.6397 11.8297 12.6401Z" fill="#202020"/>
<path d="M11.8298 20.9622C11.66 20.9622 11.4972 20.8948 11.3772 20.7748C11.2572 20.6548 11.1898 20.492 11.1898 20.3222V12C11.1898 11.8302 11.2572 11.6675 11.3772 11.5474C11.4972 11.4274 11.66 11.36 11.8298 11.36C11.9995 11.36 12.1623 11.4274 12.2823 11.5474C12.4023 11.6675 12.4698 11.8302 12.4698 12V20.3222C12.4698 20.492 12.4023 20.6548 12.2823 20.7748C12.1623 20.8948 11.9995 20.9622 11.8298 20.9622ZM19.0371 19.4941C18.378 19.4941 17.7337 19.2986 17.1856 18.9325C16.6376 18.5663 16.2104 18.0459 15.9581 17.437C15.7058 16.8281 15.6398 16.158 15.7683 15.5115C15.8968 14.8651 16.214 14.2712 16.68 13.8051C17.146 13.3389 17.7397 13.0214 18.3861 12.8927C19.0326 12.7639 19.7026 12.8297 20.3116 13.0818C20.9207 13.3338 21.4413 13.7608 21.8076 14.3087C22.174 14.8566 22.3697 15.5009 22.3699 16.16C22.3692 17.0438 22.0179 17.8913 21.3931 18.5163C20.7683 19.1414 19.9209 19.493 19.0371 19.4941ZM19.0371 14.1085C18.6311 14.1085 18.2341 14.2289 17.8965 14.4545C17.5589 14.6801 17.2958 15.0008 17.1405 15.376C16.9851 15.7512 16.9445 16.164 17.0239 16.5622C17.1032 16.9605 17.2988 17.3262 17.586 17.6133C17.8732 17.9003 18.2391 18.0957 18.6374 18.1748C19.0357 18.2538 19.4485 18.213 19.8236 18.0574C20.1987 17.9019 20.5192 17.6386 20.7446 17.3008C20.97 16.9631 21.0902 16.566 21.0899 16.16C21.0891 15.6159 20.8725 15.0944 20.4877 14.7098C20.1028 14.3252 19.5812 14.109 19.0371 14.1085Z" fill="#202020"/>
<path d="M19.7731 17.5625C19.6891 17.5628 19.6059 17.5465 19.5283 17.5144C19.4506 17.4824 19.3801 17.4354 19.3207 17.376L17.7978 15.8534C17.6777 15.7333 17.6103 15.5705 17.6103 15.4007C17.6103 15.231 17.6777 15.0682 17.7978 14.9481C17.9178 14.8281 18.0806 14.7606 18.2504 14.7606C18.4202 14.7606 18.583 14.8281 18.7031 14.9481L20.2256 16.471C20.3151 16.5605 20.376 16.6745 20.4007 16.7986C20.4254 16.9228 20.4127 17.0514 20.3643 17.1684C20.3159 17.2853 20.2339 17.3852 20.1286 17.4556C20.0234 17.5259 19.8997 17.5634 19.7731 17.5635V17.5625Z" fill="#202020"/>
<path d="M18.2505 17.5625C18.1239 17.5625 18.0002 17.525 17.8949 17.4547C17.7896 17.3844 17.7076 17.2845 17.6591 17.1675C17.6107 17.0506 17.598 16.9219 17.6226 16.7978C17.6473 16.6736 17.7082 16.5595 17.7977 16.47L19.3206 14.9471C19.3801 14.8877 19.4506 14.8406 19.5283 14.8084C19.6059 14.7763 19.6892 14.7598 19.7732 14.7598C19.8573 14.7598 19.9405 14.7763 20.0181 14.8085C20.0958 14.8407 20.1663 14.8879 20.2257 14.9473C20.2852 15.0067 20.3323 15.0773 20.3644 15.155C20.3966 15.2326 20.4131 15.3158 20.4131 15.3999C20.4131 15.4839 20.3965 15.5672 20.3644 15.6448C20.3322 15.7225 20.285 15.793 20.2256 15.8524L18.703 17.3759C18.6436 17.4353 18.573 17.4823 18.4954 17.5143C18.4177 17.5463 18.3345 17.5627 18.2505 17.5625Z" fill="#202020"/>
</svg>
