<svg width="24" height="24" viewBox="0 0 24 24" fill="none" xmlns="http://www.w3.org/2000/svg">
<path d="M11.872 20.9601C11.4739 20.9605 11.0828 20.856 10.7379 20.6573L4.94078 17.3121C4.59649 17.1123 4.31066 16.8257 4.11187 16.4808C3.91307 16.136 3.80829 15.745 3.80798 15.3469V8.65317C3.80829 8.25513 3.91307 7.86414 4.11187 7.51928C4.31066 7.17443 4.59649 6.8878 4.94078 6.68805L10.7379 3.34085C11.0829 3.1424 11.474 3.03796 11.872 3.03796C12.27 3.03796 12.661 3.1424 13.0061 3.34085L18.8032 6.68805C19.1477 6.88755 19.4338 7.17399 19.6328 7.51873C19.8319 7.86348 19.937 8.25444 19.9376 8.65253V13.4772C19.9376 13.6469 19.8702 13.8097 19.7501 13.9297C19.6301 14.0497 19.4673 14.1172 19.2976 14.1172C19.1278 14.1172 18.9651 14.0497 18.845 13.9297C18.725 13.8097 18.6576 13.6469 18.6576 13.4772V8.65317C18.6572 8.47972 18.6114 8.3094 18.5246 8.1592C18.4378 8.00901 18.3132 7.88418 18.1632 7.79717L12.3661 4.44997C12.2157 4.36362 12.0454 4.31818 11.872 4.31818C11.6986 4.31818 11.5282 4.36362 11.3779 4.44997L5.58078 7.79717C5.43103 7.88438 5.30673 8.00929 5.22027 8.15948C5.13381 8.30966 5.0882 8.47988 5.08798 8.65317V15.3469C5.08836 15.5204 5.13422 15.6907 5.22097 15.8409C5.30772 15.9911 5.43233 16.1159 5.58238 16.2029L11.3795 19.5501C11.5298 19.6365 11.7002 19.6819 11.8736 19.6819C12.047 19.6819 12.2173 19.6365 12.3677 19.5501L16.4317 17.2039C16.5045 17.1612 16.585 17.1333 16.6686 17.1219C16.7523 17.1105 16.8373 17.1157 16.9189 17.1373C17.0005 17.1588 17.0771 17.1963 17.1441 17.2476C17.2111 17.2989 17.2674 17.3629 17.3096 17.436C17.3518 17.5091 17.3791 17.5898 17.39 17.6735C17.4009 17.7572 17.3951 17.8422 17.373 17.9237C17.3509 18.0052 17.3129 18.0814 17.2611 18.1481C17.2094 18.2148 17.145 18.2707 17.0717 18.3124L13.0077 20.6586C12.6622 20.8572 12.2705 20.9611 11.872 20.9601Z" fill="#202020"/>
<path d="M11.872 12.64C11.7597 12.64 11.6493 12.6104 11.552 12.5542L4.34465 8.3942C4.19885 8.30873 4.09278 8.16906 4.04958 8.00567C4.00638 7.84228 4.02957 7.66844 4.11407 7.52208C4.19857 7.37572 4.33754 7.26873 4.50064 7.22445C4.66374 7.18017 4.83773 7.20219 4.98465 7.28572L11.872 11.2611L18.7594 7.28444C18.9063 7.20091 19.0803 7.17888 19.2434 7.22317C19.4065 7.26745 19.5454 7.37444 19.6299 7.5208C19.7144 7.66716 19.7376 7.841 19.6944 8.00439C19.6512 8.16778 19.5452 8.30745 19.3994 8.39292L12.192 12.5542C12.0947 12.6104 11.9844 12.64 11.872 12.64Z" fill="#202020"/>
<path d="M11.872 20.9622C11.7023 20.9622 11.5395 20.8948 11.4194 20.7748C11.2994 20.6548 11.232 20.492 11.232 20.3222V12C11.232 11.8302 11.2994 11.6675 11.4194 11.5474C11.5395 11.4274 11.7023 11.36 11.872 11.36C12.0417 11.36 12.2045 11.4274 12.3245 11.5474C12.4446 11.6675 12.512 11.8302 12.512 12V20.3222C12.512 20.492 12.4446 20.6548 12.3245 20.7748C12.2045 20.8948 12.0417 20.9622 11.872 20.9622ZM19.0794 19.4941C18.4202 19.4941 17.7759 19.2986 17.2279 18.9325C16.6798 18.5663 16.2527 18.0459 16.0004 17.437C15.7481 16.8281 15.682 16.158 15.8105 15.5115C15.939 14.8651 16.2563 14.2712 16.7223 13.8051C17.1882 13.3389 17.782 13.0214 18.4284 12.8927C19.0748 12.7639 19.7449 12.8297 20.3539 13.0818C20.9629 13.3338 21.4835 13.7608 21.8499 14.3087C22.2162 14.8566 22.4119 15.5009 22.4122 16.16C22.4115 17.0438 22.0602 17.8913 21.4353 18.5163C20.8105 19.1414 19.9632 19.493 19.0794 19.4941ZM19.0794 14.1085C18.6733 14.1085 18.2764 14.2289 17.9387 14.4545C17.6011 14.6801 17.338 15.0008 17.1827 15.376C17.0274 15.7512 16.9868 16.164 17.0661 16.5622C17.1454 16.9605 17.341 17.3262 17.6283 17.6133C17.9155 17.9003 18.2814 18.0957 18.6797 18.1748C19.0779 18.2538 19.4907 18.213 19.8658 18.0574C20.2409 17.9019 20.5614 17.6386 20.7868 17.3008C21.0122 16.9631 21.1324 16.566 21.1322 16.16C21.1312 15.616 20.9146 15.0945 20.5298 14.7099C20.145 14.3253 19.6234 14.1091 19.0794 14.1085Z" fill="#202020"/>
<path d="M20.1309 16.8H17.9773C17.8075 16.8 17.6448 16.7326 17.5247 16.6126C17.4047 16.4925 17.3373 16.3298 17.3373 16.16C17.3373 15.9903 17.4047 15.8275 17.5247 15.7075C17.6448 15.5874 17.8075 15.52 17.9773 15.52H20.1309C20.3006 15.52 20.4634 15.5874 20.5834 15.7075C20.7035 15.8275 20.7709 15.9903 20.7709 16.16C20.7709 16.3298 20.7035 16.4925 20.5834 16.6126C20.4634 16.7326 20.3006 16.8 20.1309 16.8Z" fill="#202020"/>
<path d="M19.0541 17.8777C18.8843 17.8777 18.7215 17.8103 18.6015 17.6903C18.4815 17.5703 18.4141 17.4075 18.4141 17.2377V15.0845C18.4141 14.9147 18.4815 14.7519 18.6015 14.6319C18.7215 14.5119 18.8843 14.4445 19.0541 14.4445C19.2238 14.4445 19.3866 14.5119 19.5066 14.6319C19.6266 14.7519 19.6941 14.9147 19.6941 15.0845V17.2377C19.6941 17.4075 19.6266 17.5703 19.5066 17.6903C19.3866 17.8103 19.2238 17.8777 19.0541 17.8777Z" fill="#202020"/>
</svg>
