<svg width="24" height="24" viewBox="0 0 24 24" fill="none" xmlns="http://www.w3.org/2000/svg">
<g clip-path="url(#clip0_3_701)">
<path d="M12.1648 20.96C11.7666 20.9604 11.3754 20.856 11.0304 20.6573L5.23326 17.312C4.88886 17.1124 4.60287 16.826 4.40386 16.4812C4.20485 16.1365 4.09979 15.7456 4.09918 15.3475V8.65314C4.09968 8.25498 4.20469 7.86393 4.4037 7.51908C4.60272 7.17423 4.88877 6.88766 5.23326 6.68802L11.0304 3.34146C11.3755 3.14301 11.7666 3.03857 12.1646 3.03857C12.5627 3.03857 12.9538 3.14301 13.2989 3.34146L19.096 6.68802C19.4405 6.88751 19.7266 7.17395 19.9256 7.5187C20.1247 7.86344 20.2298 8.2544 20.2304 8.6525V13.4771C20.2304 13.6469 20.163 13.8097 20.0429 13.9297C19.9229 14.0497 19.7601 14.1171 19.5904 14.1171C19.4206 14.1171 19.2579 14.0497 19.1378 13.9297C19.0178 13.8097 18.9504 13.6469 18.9504 13.4771V8.65314C18.95 8.47969 18.9042 8.30937 18.8174 8.15917C18.7306 8.00897 18.606 7.88414 18.456 7.79714L12.6589 4.44994C12.5085 4.36352 12.3381 4.31805 12.1646 4.31805C11.9912 4.31805 11.8208 4.36352 11.6704 4.44994L5.87326 7.79714C5.72327 7.88418 5.59872 8.00903 5.51203 8.15922C5.42533 8.30942 5.37953 8.47972 5.37918 8.65314V15.3469C5.37953 15.5203 5.42533 15.6906 5.51203 15.8408C5.59872 15.991 5.72327 16.1159 5.87326 16.2029L11.6704 19.5501C11.8208 19.6365 11.9912 19.682 12.1646 19.682C12.3381 19.682 12.5085 19.6365 12.6589 19.5501L16.7229 17.2039C16.7957 17.1612 16.8762 17.1333 16.9598 17.1219C17.0435 17.1104 17.1285 17.1157 17.2101 17.1372C17.2917 17.1588 17.3682 17.1963 17.4353 17.2476C17.5023 17.2988 17.5586 17.3629 17.6008 17.436C17.643 17.5091 17.6703 17.5898 17.6812 17.6735C17.6921 17.7572 17.6863 17.8422 17.6642 17.9237C17.6421 18.0051 17.6041 18.0814 17.5523 18.1481C17.5006 18.2148 17.4362 18.2706 17.3629 18.3123L13.2989 20.6586C12.9538 20.8568 12.5627 20.9608 12.1648 20.96Z" fill="#202020"/>
<path d="M12.1648 12.6401C12.0524 12.6402 11.942 12.6106 11.8448 12.5543L4.63743 8.3943C4.49163 8.30883 4.38556 8.16916 4.34237 8.00577C4.29917 7.84238 4.32235 7.66853 4.40686 7.52217C4.49136 7.37581 4.63032 7.26882 4.79342 7.22454C4.95652 7.18026 5.13051 7.20229 5.27743 7.28582L12.1648 11.2612L19.0521 7.28454C19.125 7.24185 19.2055 7.21399 19.2891 7.20256C19.3728 7.19112 19.4578 7.19634 19.5394 7.21791C19.621 7.23949 19.6975 7.27699 19.7646 7.32826C19.8316 7.37953 19.8879 7.44355 19.9301 7.51665C19.9723 7.58974 19.9996 7.67046 20.0105 7.75416C20.0214 7.83786 20.0156 7.92289 19.9935 8.00434C19.9714 8.0858 19.9333 8.16207 19.8816 8.22878C19.8299 8.29548 19.7655 8.3513 19.6922 8.39302L12.4848 12.553C12.3876 12.6096 12.2773 12.6397 12.1648 12.6401Z" fill="#202020"/>
<path d="M12.1648 20.9622C11.995 20.9622 11.8323 20.8948 11.7122 20.7748C11.5922 20.6548 11.5248 20.492 11.5248 20.3222V12C11.5248 11.8302 11.5922 11.6675 11.7122 11.5474C11.8323 11.4274 11.995 11.36 12.1648 11.36C12.3345 11.36 12.4973 11.4274 12.6173 11.5474C12.7374 11.6675 12.8048 11.8302 12.8048 12V20.3222C12.8048 20.492 12.7374 20.6548 12.6173 20.7748C12.4973 20.8948 12.3345 20.9622 12.1648 20.9622ZM19.3721 19.4941C18.713 19.4941 18.0687 19.2986 17.5207 18.9325C16.9726 18.5663 16.5454 18.0459 16.2932 17.437C16.0409 16.8281 15.9748 16.158 16.1033 15.5115C16.2318 14.8651 16.5491 14.2712 17.015 13.8051C17.481 13.3389 18.0747 13.0214 18.7212 12.8927C19.3676 12.7639 20.0377 12.8297 20.6467 13.0818C21.2557 13.3338 21.7763 13.7608 22.1426 14.3087C22.509 14.8566 22.7047 15.5009 22.7049 16.16C22.7043 17.0438 22.353 17.8913 21.7281 18.5163C21.1033 19.1414 20.256 19.493 19.3721 19.4941ZM19.3721 14.1085C18.9661 14.1085 18.5691 14.2289 18.2315 14.4545C17.8939 14.6801 17.6308 15.0008 17.4755 15.376C17.3201 15.7512 17.2796 16.164 17.3589 16.5622C17.4382 16.9605 17.6338 17.3262 17.921 17.6133C18.2083 17.9003 18.5742 18.0957 18.9724 18.1748C19.3707 18.2538 19.7835 18.213 20.1586 18.0574C20.5337 17.9019 20.8542 17.6386 21.0796 17.3008C21.305 16.9631 21.4252 16.566 21.4249 16.16C21.4241 15.6159 21.2075 15.0944 20.8227 14.7098C20.4378 14.3252 19.9162 14.109 19.3721 14.1085Z" fill="#202020"/>
<path d="M23.481 20.2023C23.3296 20.2025 23.1831 20.1487 23.0678 20.0506L21.0518 18.3431C20.9877 18.2887 20.9349 18.2223 20.8965 18.1476C20.858 18.0728 20.8347 17.9913 20.8277 17.9075C20.8208 17.8237 20.8305 17.7394 20.8561 17.6594C20.8818 17.5793 20.9229 17.5051 20.9773 17.441C21.0316 17.3769 21.0981 17.3241 21.1728 17.2856C21.2475 17.2472 21.3291 17.2238 21.4129 17.2169C21.4966 17.21 21.581 17.2196 21.661 17.2453C21.741 17.2709 21.8152 17.3121 21.8794 17.3664L23.8954 19.074C23.9954 19.1587 24.067 19.2721 24.1005 19.3989C24.1339 19.5257 24.1277 19.6597 24.0825 19.7828C24.0373 19.9059 23.9554 20.0121 23.8479 20.0871C23.7404 20.1622 23.6124 20.2024 23.4813 20.2023H23.481Z" fill="#202020"/>
</g>
<defs>
<clipPath id="clip0_3_701">
<rect width="24" height="24" fill="white"/>
</clipPath>
</defs>
</svg>
