<svg width="24" height="24" viewBox="0 0 24 24" fill="none" xmlns="http://www.w3.org/2000/svg">
<path d="M12 20.9601C11.602 20.9605 11.2109 20.856 10.866 20.6573L5.06883 17.3121C4.72454 17.1123 4.43871 16.8257 4.23992 16.4808C4.04113 16.136 3.93634 15.745 3.93604 15.3469V8.65317C3.93634 8.25513 4.04113 7.86414 4.23992 7.51928C4.43871 7.17443 4.72454 6.8878 5.06883 6.68805L10.866 3.34085C11.211 3.1424 11.602 3.03796 12 3.03796C12.3981 3.03796 12.7891 3.1424 13.1341 3.34085L18.9312 6.68805C19.2757 6.88755 19.5618 7.17399 19.7609 7.51873C19.96 7.86348 20.0651 8.25444 20.0656 8.65253V15.3469C20.0652 15.7451 19.9601 16.1362 19.7611 16.4811C19.562 16.826 19.2758 17.1125 18.9312 17.3121L13.1341 20.6586C12.7891 20.8569 12.398 20.9608 12 20.9601ZM12 4.31685C11.8266 4.31664 11.6562 4.36211 11.506 4.44869L5.70883 7.79717C5.55908 7.88438 5.43479 8.00929 5.34832 8.15948C5.26186 8.30966 5.21625 8.47988 5.21604 8.65317V15.3469C5.21641 15.5204 5.26227 15.6907 5.34902 15.8409C5.43577 15.9911 5.56038 16.1159 5.71043 16.2029L11.5076 19.5501C11.6579 19.6365 11.8283 19.6819 12.0016 19.6819C12.175 19.6819 12.3454 19.6365 12.4957 19.5501L18.2912 16.2029C18.4413 16.1159 18.5659 15.9911 18.6527 15.8409C18.7394 15.6907 18.7853 15.5204 18.7856 15.3469V8.65317C18.7853 8.47972 18.7394 8.3094 18.6527 8.1592C18.5659 8.00901 18.4413 7.88418 18.2912 7.79717L12.4941 4.44997C12.3439 4.36339 12.1734 4.31792 12 4.31813V4.31685Z" fill="#202020"/>
<path d="M12.0001 12.64C11.8877 12.64 11.7773 12.6104 11.6801 12.5542L4.4727 8.3942C4.3269 8.30873 4.22083 8.16906 4.17763 8.00567C4.13444 7.84228 4.15762 7.66844 4.24212 7.52208C4.32663 7.37572 4.46559 7.26873 4.62869 7.22445C4.79179 7.18017 4.96578 7.20219 5.1127 7.28572L12.0001 11.2611L18.8874 7.28444C19.0343 7.20091 19.2083 7.17888 19.3714 7.22317C19.5345 7.26745 19.6735 7.37444 19.758 7.5208C19.8425 7.66716 19.8657 7.841 19.8225 8.00439C19.7793 8.16778 19.6732 8.30745 19.5274 8.39292L12.3201 12.5542C12.2228 12.6104 12.1124 12.64 12.0001 12.64Z" fill="#202020"/>
<path d="M12 20.9623C11.8303 20.9623 11.6675 20.8949 11.5475 20.7748C11.4274 20.6548 11.36 20.492 11.36 20.3223V12.0001C11.36 11.8303 11.4274 11.6675 11.5475 11.5475C11.6675 11.4275 11.8303 11.3601 12 11.3601C12.1698 11.3601 12.3325 11.4275 12.4526 11.5475C12.5726 11.6675 12.64 11.8303 12.64 12.0001V20.3223C12.64 20.492 12.5726 20.6548 12.4526 20.7748C12.3325 20.8949 12.1698 20.9623 12 20.9623ZM15.6608 13.7601C15.4911 13.7601 15.3283 13.6926 15.2083 13.5726C15.0882 13.4526 15.0208 13.2898 15.0208 13.1201V10.2612L8.02402 6.09286C7.87804 6.00599 7.77255 5.8647 7.73075 5.70006C7.68896 5.53541 7.71427 5.36091 7.80114 5.21494C7.888 5.06896 8.0293 4.96347 8.19394 4.92167C8.35858 4.87987 8.53308 4.90519 8.67906 4.99206L15.9885 9.34757C16.0837 9.40432 16.1625 9.48482 16.2173 9.58119C16.272 9.67756 16.3008 9.7865 16.3008 9.89734V13.1201C16.3008 13.2898 16.2334 13.4526 16.1134 13.5726C15.9933 13.6926 15.8306 13.7601 15.6608 13.7601Z" fill="#202020"/>
</svg>
