<svg width="24" height="24" viewBox="0 0 24 24" fill="none" xmlns="http://www.w3.org/2000/svg">
<path d="M15.5809 20.1997H8.41931C7.73782 20.1988 7.08448 19.9277 6.60259 19.4458C6.1207 18.9639 5.8496 18.3106 5.84875 17.6291C5.84875 17.6186 5.84875 17.608 5.84875 17.5971L6.07275 13.0473C6.10631 12.3535 6.40571 11.6992 6.90883 11.2202C7.41195 10.7412 8.08017 10.4743 8.77483 10.4749H15.2251C15.9197 10.4743 16.588 10.7412 17.0911 11.2202C17.5942 11.6992 17.8936 12.3535 17.9272 13.0473L18.1512 17.5971C18.1512 17.6078 18.1512 17.6184 18.1512 17.6291C18.1503 18.3105 17.8793 18.9638 17.3974 19.4457C16.9156 19.9276 16.2624 20.1987 15.5809 20.1997ZM7.12907 17.6432C7.1332 17.9828 7.27089 18.3072 7.51236 18.5461C7.75382 18.785 8.07964 18.9192 8.41931 18.9197H15.5809C15.9206 18.9192 16.2464 18.785 16.4879 18.5461C16.7293 18.3072 16.867 17.9828 16.8712 17.6432L16.6472 13.1104C16.6294 12.7448 16.4716 12.4002 16.2065 12.1478C15.9415 11.8955 15.5894 11.7549 15.2235 11.7552H8.77515C8.40914 11.7549 8.05706 11.8956 7.79198 12.148C7.5269 12.4003 7.36915 12.7451 7.35147 13.1107L7.12907 17.6432Z" fill="#202020"/>
<path d="M9.03844 20.1995C8.8687 20.1995 8.70591 20.1321 8.58589 20.0121C8.46587 19.8921 8.39844 19.7293 8.39844 19.5595V16.5362C8.39844 16.3664 8.46587 16.2036 8.58589 16.0836C8.70591 15.9636 8.8687 15.8962 9.03844 15.8962C9.20818 15.8962 9.37096 15.9636 9.49099 16.0836C9.61101 16.2036 9.67844 16.3664 9.67844 16.5362V19.5595C9.67844 19.7293 9.61101 19.8921 9.49099 20.0121C9.37096 20.1321 9.20818 20.1995 9.03844 20.1995ZM12.0474 20.1995C11.8777 20.1995 11.7149 20.1321 11.5948 20.0121C11.4748 19.8921 11.4074 19.7293 11.4074 19.5595V16.5362C11.4074 16.3664 11.4748 16.2036 11.5948 16.0836C11.7149 15.9636 11.8777 15.8962 12.0474 15.8962C12.2171 15.8962 12.3799 15.9636 12.4999 16.0836C12.62 16.2036 12.6874 16.3664 12.6874 16.5362V19.5595C12.6874 19.7293 12.62 19.8921 12.4999 20.0121C12.3799 20.1321 12.2171 20.1995 12.0474 20.1995ZM15.1204 20.1995C14.9506 20.1995 14.7878 20.1321 14.6678 20.0121C14.5478 19.8921 14.4804 19.7293 14.4804 19.5595V16.5362C14.4804 16.3664 14.5478 16.2036 14.6678 16.0836C14.7878 15.9636 14.9506 15.8962 15.1204 15.8962C15.2901 15.8962 15.4529 15.9636 15.5729 16.0836C15.6929 16.2036 15.7604 16.3664 15.7604 16.5362V19.5595C15.7604 19.7293 15.6929 19.8921 15.5729 20.0121C15.4529 20.1321 15.2901 20.1995 15.1204 20.1995ZM14.2592 11.755C14.0895 11.755 13.9267 11.6876 13.8067 11.5676C13.6867 11.4476 13.6192 11.2848 13.6192 11.115V9.04465H10.3815V11.115C10.3815 11.2848 10.314 11.4476 10.194 11.5676C10.074 11.6876 9.91122 11.755 9.74148 11.755C9.57174 11.755 9.40895 11.6876 9.28893 11.5676C9.16891 11.4476 9.10148 11.2848 9.10148 11.115V8.90289C9.10182 8.601 9.22193 8.31159 9.43546 8.09818C9.64899 7.88477 9.93847 7.76482 10.2404 7.76465H13.7604C14.0622 7.7649 14.3516 7.8849 14.565 8.09829C14.7785 8.31169 14.8986 8.60106 14.8989 8.90289V11.115C14.8989 11.2847 14.8315 11.4475 14.7116 11.5675C14.5916 11.6875 14.4289 11.755 14.2592 11.755Z" fill="#202020"/>
<path d="M12.7574 9.04461H11.065C10.8952 9.04461 10.7324 8.97718 10.6124 8.85716C10.4924 8.73713 10.425 8.57435 10.425 8.40461V5.28653C10.4221 5.08952 10.4584 4.8939 10.5318 4.71105C10.6052 4.52819 10.7142 4.36176 10.8525 4.22142C10.9908 4.08107 11.1556 3.96963 11.3374 3.89356C11.5191 3.81749 11.7142 3.77832 11.9112 3.77832C12.1082 3.77832 12.3033 3.81749 12.4851 3.89356C12.6668 3.96963 12.8316 4.08107 12.9699 4.22142C13.1082 4.36176 13.2172 4.52819 13.2906 4.71105C13.364 4.8939 13.4003 5.08952 13.3974 5.28653V8.40461C13.3974 8.57435 13.33 8.73713 13.21 8.85716C13.09 8.97718 12.9272 9.04461 12.7574 9.04461ZM11.705 7.76461H12.1174V5.28653C12.1185 5.25876 12.114 5.23106 12.1041 5.20508C12.0943 5.17911 12.0793 5.15539 12.06 5.13536C12.0407 5.11533 12.0176 5.09939 11.9921 5.0885C11.9665 5.07762 11.939 5.072 11.9112 5.072C11.8834 5.072 11.8559 5.07762 11.8303 5.0885C11.8048 5.09939 11.7817 5.11533 11.7624 5.13536C11.7432 5.15539 11.7281 5.17911 11.7183 5.20508C11.7084 5.23106 11.7039 5.25876 11.705 5.28653V7.76461Z" fill="#202020"/>
</svg>
