<svg width="24" height="24" viewBox="0 0 24 24" fill="none" xmlns="http://www.w3.org/2000/svg">
<path d="M15.5808 20.1997H8.41919C7.7377 20.1988 7.08436 19.9277 6.60247 19.4458C6.12058 18.9639 5.84948 18.3106 5.84863 17.6291C5.84863 17.6186 5.84863 17.608 5.84863 17.5971L6.07263 13.0473C6.10619 12.3535 6.40558 11.6992 6.90871 11.2202C7.41183 10.7412 8.08005 10.4743 8.77471 10.4749H15.225C15.9196 10.4743 16.5878 10.7412 17.091 11.2202C17.5941 11.6992 17.8935 12.3535 17.927 13.0473L18.151 17.5971C18.151 17.6078 18.151 17.6184 18.151 17.6291C18.1502 18.3105 17.8791 18.9638 17.3973 19.4457C16.9155 19.9276 16.2622 20.1987 15.5808 20.1997ZM7.12895 17.6432C7.13307 17.9828 7.27077 18.3072 7.51223 18.5461C7.7537 18.785 8.07952 18.9192 8.41919 18.9197H15.5808C15.9205 18.9192 16.2463 18.785 16.4878 18.5461C16.7292 18.3072 16.8669 17.9828 16.871 17.6432L16.647 13.1104C16.6293 12.7448 16.4715 12.4002 16.2064 12.1478C15.9413 11.8955 15.5893 11.7549 15.2234 11.7552H8.77503C8.40901 11.7549 8.05694 11.8956 7.79186 12.148C7.52678 12.4003 7.36903 12.7451 7.35135 13.1107L7.12895 17.6432Z" fill="#202020"/>
<path d="M9.03819 20.1998C8.86845 20.1998 8.70567 20.1323 8.58564 20.0123C8.46562 19.8923 8.39819 19.7295 8.39819 19.5598V16.5364C8.39819 16.3667 8.46562 16.2039 8.58564 16.0839C8.70567 15.9638 8.86845 15.8964 9.03819 15.8964C9.20793 15.8964 9.37072 15.9638 9.49074 16.0839C9.61076 16.2039 9.67819 16.3667 9.67819 16.5364V19.5598C9.67819 19.7295 9.61076 19.8923 9.49074 20.0123C9.37072 20.1323 9.20793 20.1998 9.03819 20.1998ZM12.0472 20.1998C11.8774 20.1998 11.7146 20.1323 11.5946 20.0123C11.4746 19.8923 11.4072 19.7295 11.4072 19.5598V16.5364C11.4072 16.3667 11.4746 16.2039 11.5946 16.0839C11.7146 15.9638 11.8774 15.8964 12.0472 15.8964C12.2169 15.8964 12.3797 15.9638 12.4997 16.0839C12.6197 16.2039 12.6872 16.3667 12.6872 16.5364V19.5598C12.6872 19.7295 12.6197 19.8923 12.4997 20.0123C12.3797 20.1323 12.2169 20.1998 12.0472 20.1998ZM15.1201 20.1998C14.9504 20.1998 14.7876 20.1323 14.6676 20.0123C14.5475 19.8923 14.4801 19.7295 14.4801 19.5598V16.5364C14.4801 16.3667 14.5475 16.2039 14.6676 16.0839C14.7876 15.9638 14.9504 15.8964 15.1201 15.8964C15.2899 15.8964 15.4526 15.9638 15.5727 16.0839C15.6927 16.2039 15.7601 16.3667 15.7601 16.5364V19.5598C15.7601 19.7295 15.6927 19.8923 15.5727 20.0123C15.4526 20.1323 15.2899 20.1998 15.1201 20.1998ZM14.259 11.7553C14.0893 11.7553 13.9265 11.6879 13.8064 11.5678C13.6864 11.4478 13.619 11.285 13.619 11.1153V9.04489H10.3812V11.1153C10.3812 11.285 10.3138 11.4478 10.1938 11.5678C10.0738 11.6879 9.91097 11.7553 9.74123 11.7553C9.57149 11.7553 9.40871 11.6879 9.28868 11.5678C9.16866 11.4478 9.10123 11.285 9.10123 11.1153V8.90313C9.10157 8.60125 9.22169 8.31183 9.43522 8.09842C9.64874 7.88502 9.93823 7.76506 10.2401 7.76489H13.7601C14.0619 7.76515 14.3513 7.88514 14.5648 8.09854C14.7783 8.31193 14.8983 8.6013 14.8987 8.90313V11.1153C14.8987 11.285 14.8313 11.4477 14.7113 11.5677C14.5914 11.6877 14.4287 11.7552 14.259 11.7553Z" fill="#202020"/>
<path d="M12.7577 9.04485H11.0652C10.8955 9.04485 10.7327 8.97742 10.6127 8.8574C10.4926 8.73738 10.4252 8.57459 10.4252 8.40485V5.28677C10.4223 5.08976 10.4586 4.89414 10.532 4.71129C10.6054 4.52844 10.7144 4.362 10.8527 4.22166C10.991 4.08132 11.1558 3.96987 11.3376 3.89381C11.5194 3.81774 11.7144 3.77856 11.9114 3.77856C12.1085 3.77856 12.3035 3.81774 12.4853 3.89381C12.6671 3.96987 12.8319 4.08132 12.9702 4.22166C13.1085 4.362 13.2175 4.52844 13.2909 4.71129C13.3643 4.89414 13.4006 5.08976 13.3977 5.28677V8.40485C13.3977 8.57459 13.3303 8.73738 13.2102 8.8574C13.0902 8.97742 12.9274 9.04485 12.7577 9.04485ZM11.7052 7.76485H12.1177V5.28677C12.1188 5.25901 12.1143 5.2313 12.1044 5.20533C12.0945 5.17935 12.0795 5.15564 12.0602 5.1356C12.041 5.11557 12.0179 5.09963 11.9923 5.08875C11.9667 5.07786 11.9392 5.07225 11.9114 5.07225C11.8837 5.07225 11.8562 5.07786 11.8306 5.08875C11.805 5.09963 11.7819 5.11557 11.7627 5.1356C11.7434 5.15564 11.7284 5.17935 11.7185 5.20533C11.7086 5.2313 11.7041 5.25901 11.7052 5.28677V7.76485Z" fill="#202020"/>
</svg>
