<svg width="24" height="24" viewBox="0 0 24 24" fill="none" xmlns="http://www.w3.org/2000/svg">
<path d="M17.9063 20.4352H6.00776C5.48726 20.4346 4.98826 20.2276 4.62022 19.8595C4.25218 19.4915 4.04515 18.9925 4.04456 18.472V11.631C4.04515 11.1106 4.25218 10.6116 4.62022 10.2435C4.98826 9.87547 5.48726 9.66844 6.00776 9.66785H17.9063C18.4268 9.66844 18.9258 9.87547 19.2939 10.2435C19.6619 10.6116 19.8689 11.1106 19.8695 11.631V18.472C19.8689 18.9925 19.6619 19.4915 19.2939 19.8595C18.9258 20.2276 18.4268 20.4346 17.9063 20.4352ZM6.00776 10.9478C5.82664 10.9481 5.65301 11.0202 5.52494 11.1482C5.39687 11.2763 5.32481 11.4499 5.32456 11.631V18.472C5.32481 18.6531 5.39687 18.8268 5.52494 18.9548C5.65301 19.0829 5.82664 19.155 6.00776 19.1552H17.9063C18.0874 19.155 18.2611 19.0829 18.3891 18.9548C18.5172 18.8268 18.5893 18.6531 18.5895 18.472V11.631C18.5893 11.4499 18.5172 11.2763 18.3891 11.1482C18.2611 11.0202 18.0874 10.9481 17.9063 10.9478H6.00776Z" fill="#202020"/>
<path d="M17.2426 10.9479H6.67137C6.50163 10.9479 6.33885 10.8805 6.21882 10.7604C6.0988 10.6404 6.03137 10.4776 6.03137 10.3079V7.90788C6.03137 7.63473 6.08517 7.36426 6.1897 7.1119C6.29423 6.85954 6.44744 6.63025 6.64059 6.4371C7.03067 6.04702 7.55972 5.82788 8.11137 5.82788H15.8039C16.077 5.82788 16.3475 5.88168 16.5998 5.98621C16.8522 6.09074 17.0815 6.24395 17.2746 6.4371C17.4678 6.63025 17.621 6.85954 17.7255 7.1119C17.8301 7.36426 17.8839 7.63473 17.8839 7.90788V10.3079C17.8839 10.392 17.8673 10.4754 17.835 10.5531C17.8028 10.6308 17.7555 10.7014 17.6959 10.7609C17.6364 10.8203 17.5657 10.8674 17.4879 10.8995C17.4101 10.9316 17.3267 10.948 17.2426 10.9479ZM7.31137 9.66788H16.6026V7.90788C16.6026 7.69571 16.5183 7.49222 16.3683 7.3422C16.2182 7.19217 16.0147 7.10788 15.8026 7.10788H8.11009C7.89792 7.10788 7.69444 7.19217 7.54441 7.3422C7.39438 7.49222 7.31009 7.69571 7.31009 7.90788L7.31137 9.66788Z" fill="#202020"/>
<path d="M11.9572 7.10785C11.7874 7.10785 11.6246 7.04042 11.5046 6.9204C11.3846 6.80037 11.3172 6.63759 11.3172 6.46785V3.96129C11.3172 3.79155 11.3846 3.62876 11.5046 3.50874C11.6246 3.38872 11.7874 3.32129 11.9572 3.32129C12.1269 3.32129 12.2897 3.38872 12.4097 3.50874C12.5297 3.62876 12.5972 3.79155 12.5972 3.96129V6.46785C12.5972 6.63759 12.5297 6.80037 12.4097 6.9204C12.2897 7.04042 12.1269 7.10785 11.9572 7.10785ZM8.89605 7.10785C8.72631 7.10785 8.56352 7.04042 8.4435 6.9204C8.32347 6.80037 8.25605 6.63759 8.25605 6.46785V4.38401C8.25605 4.21427 8.32347 4.05148 8.4435 3.93146C8.56352 3.81144 8.72631 3.74401 8.89605 3.74401C9.06578 3.74401 9.22857 3.81144 9.3486 3.93146C9.46862 4.05148 9.53605 4.21427 9.53605 4.38401V6.46881C9.53579 6.63838 9.46825 6.80092 9.34826 6.92074C9.22826 7.04055 9.06562 7.10785 8.89605 7.10785ZM15.0176 7.10785C14.8479 7.10785 14.6851 7.04042 14.5651 6.9204C14.4451 6.80037 14.3776 6.63759 14.3776 6.46785V4.38401C14.3776 4.21427 14.4451 4.05148 14.5651 3.93146C14.6851 3.81144 14.8479 3.74401 15.0176 3.74401C15.1874 3.74401 15.3502 3.81144 15.4702 3.93146C15.5902 4.05148 15.6576 4.21427 15.6576 4.38401V6.46881C15.6574 6.63838 15.5899 6.80092 15.4699 6.92074C15.3499 7.04055 15.1872 7.10785 15.0176 7.10785ZM17.7748 15.216C17.0932 15.216 16.7453 14.7568 16.5373 14.4826C16.4784 14.4045 16.3796 14.2742 16.3399 14.2586C16.3334 14.2573 16.3267 14.2568 16.32 14.257C16.3135 14.2567 16.3069 14.2572 16.3005 14.2586C16.2608 14.2752 16.162 14.4054 16.1031 14.4826C15.8954 14.7568 15.5476 15.216 14.8656 15.216C14.1837 15.216 13.8362 14.7568 13.6285 14.4826C13.5693 14.4045 13.4708 14.2742 13.4308 14.2586C13.4243 14.2573 13.4178 14.2567 13.4112 14.257C13.4047 14.2567 13.3981 14.2572 13.3917 14.2586C13.352 14.2752 13.2532 14.4054 13.1943 14.4826C12.9863 14.7568 12.6384 15.216 11.9568 15.216C11.2752 15.216 10.9274 14.7568 10.72 14.4826C10.6612 14.4045 10.5623 14.2742 10.5226 14.2586C10.5162 14.2573 10.5096 14.2567 10.5031 14.257C10.4964 14.2568 10.4898 14.2573 10.4832 14.2586C10.4439 14.2752 10.345 14.4054 10.2861 14.4826C10.0781 14.7568 9.73029 15.216 9.04869 15.216C8.36709 15.216 8.01893 14.7568 7.81125 14.4826C7.75237 14.4045 7.65349 14.2742 7.61381 14.2586C7.60738 14.2573 7.60083 14.2568 7.59429 14.257C7.58763 14.2567 7.58097 14.2573 7.57445 14.2586C7.53477 14.2752 7.43621 14.4054 7.37701 14.4826C7.16933 14.7568 6.82149 15.216 6.13989 15.216C5.45829 15.216 5.11013 14.7568 4.90245 14.4826C4.84325 14.4045 4.74469 14.2742 4.70469 14.2586C4.69827 14.2572 4.69171 14.2567 4.68517 14.257C4.51543 14.257 4.35264 14.1895 4.23262 14.0695C4.11259 13.9495 4.04517 13.7867 4.04517 13.617C4.04517 13.4472 4.11259 13.2844 4.23262 13.1644C4.35264 13.0444 4.51543 12.977 4.68517 12.977C5.36709 12.977 5.71493 13.4362 5.92261 13.7104C5.98181 13.7885 6.08037 13.9187 6.12037 13.9344C6.13329 13.9365 6.14648 13.9365 6.15941 13.9344C6.19909 13.9178 6.29797 13.7875 6.35685 13.7104C6.56453 13.4362 6.91237 12.977 7.59429 12.977C8.27621 12.977 8.62373 13.4362 8.83141 13.7104C8.89061 13.7885 8.98917 13.9187 9.02917 13.9344C9.04209 13.9365 9.05528 13.9365 9.06821 13.9344C9.10789 13.9178 9.20677 13.7875 9.26565 13.7104C9.47365 13.4362 9.82149 12.977 10.5031 12.977C11.1847 12.977 11.5325 13.4362 11.7405 13.7104C11.7994 13.7885 11.8983 13.9187 11.938 13.9344C11.9444 13.9357 11.9509 13.9362 11.9575 13.936C11.9641 13.9362 11.9708 13.9357 11.9773 13.9344C12.0167 13.9178 12.1156 13.7875 12.1744 13.7104C12.3824 13.4362 12.7303 12.977 13.4119 12.977C14.0935 12.977 14.4413 13.4362 14.6493 13.7104C14.7082 13.7885 14.8071 13.9187 14.8468 13.9344C14.8532 13.9357 14.8597 13.9362 14.8663 13.936C14.8729 13.9363 14.8796 13.9357 14.8861 13.9344C14.9258 13.9178 15.0244 13.7875 15.0836 13.7104C15.2912 13.4362 15.6391 12.977 16.3207 12.977C17.0023 12.977 17.3504 13.4362 17.5581 13.7104C17.6173 13.7885 17.7162 13.9187 17.7559 13.9344C17.7623 13.9357 17.7689 13.9362 17.7754 13.936C17.7821 13.9363 17.7887 13.9357 17.7952 13.9344C17.8349 13.9178 17.9338 13.7875 17.9927 13.7104C18.2004 13.4362 18.5485 12.977 19.2301 12.977C19.3999 12.977 19.5627 13.0444 19.6827 13.1644C19.8027 13.2844 19.8701 13.4472 19.8701 13.617C19.8701 13.7867 19.8027 13.9495 19.6827 14.0695C19.5627 14.1895 19.3999 14.257 19.2301 14.257C19.2235 14.2567 19.2168 14.2573 19.2103 14.2586C19.1706 14.2752 19.072 14.4054 19.0128 14.4826C18.8045 14.7568 18.4567 15.216 17.7748 15.216Z" fill="#202020"/>
</svg>
