<svg width="24" height="24" viewBox="0 0 24 24" fill="none" xmlns="http://www.w3.org/2000/svg">
<path d="M15.8819 20.4556H8.11809C7.28068 20.4544 6.47795 20.1211 5.88594 19.5288C5.29392 18.9366 4.96094 18.1337 4.96001 17.2963V6.70428C4.96094 5.86671 5.29405 5.0637 5.88628 4.47142C6.4785 3.87914 7.28147 3.54594 8.11905 3.54492H15.8819C16.7192 3.54619 17.5219 3.87941 18.1138 4.47153C18.7058 5.06365 19.0389 5.86635 19.04 6.70364V17.2956C19.0392 18.1332 18.7063 18.9362 18.1143 19.5286C17.5223 20.121 16.7194 20.4544 15.8819 20.4556ZM8.11809 4.82428C7.62003 4.82513 7.14263 5.02345 6.79057 5.37575C6.43851 5.72805 6.24051 6.20558 6.24001 6.70364V17.2956C6.24051 17.7939 6.43864 18.2715 6.79091 18.6239C7.14318 18.9762 7.62082 19.1744 8.11905 19.175H15.8819C16.3799 19.1742 16.8572 18.9759 17.2092 18.6238C17.5613 18.2716 17.7593 17.7942 17.76 17.2963V6.70428C17.7595 6.20606 17.5614 5.72838 17.2091 5.37605C16.8568 5.02372 16.3792 4.82551 15.881 4.82492L8.11809 4.82428Z" fill="#202020"/>
<path d="M14.9152 10.6401H8.94368C8.51457 10.6396 8.10317 10.4689 7.79975 10.1655C7.49632 9.86206 7.32563 9.45067 7.32512 9.02156V8.29068C7.32563 7.86157 7.49632 7.45017 7.79975 7.14675C8.10317 6.84332 8.51457 6.67263 8.94368 6.67212H14.9152C15.3443 6.67263 15.7557 6.84332 16.0591 7.14675C16.3626 7.45017 16.5332 7.86157 16.5338 8.29068V9.02156C16.5332 9.45067 16.3626 9.86206 16.0591 10.1655C15.7557 10.4689 15.3443 10.6396 14.9152 10.6401ZM8.94368 7.95212C8.85394 7.95229 8.76792 7.98801 8.70447 8.05147C8.64101 8.11492 8.60529 8.20094 8.60512 8.29068V9.02156C8.60529 9.1113 8.64101 9.19731 8.70447 9.26077C8.76792 9.32423 8.85394 9.35995 8.94368 9.36012H14.9152C15.0049 9.35995 15.091 9.32423 15.1544 9.26077C15.2179 9.19731 15.2536 9.1113 15.2538 9.02156V8.29068C15.2536 8.20094 15.2179 8.11492 15.1544 8.05147C15.091 7.98801 15.0049 7.95229 14.9152 7.95212H8.94368ZM15.4051 13.7233H14.065C13.8952 13.7233 13.7324 13.6559 13.6124 13.5359C13.4924 13.4158 13.425 13.2531 13.425 13.0833C13.425 12.9136 13.4924 12.7508 13.6124 12.6308C13.7324 12.5107 13.8952 12.4433 14.065 12.4433H15.4051C15.5749 12.4433 15.7376 12.5107 15.8577 12.6308C15.9777 12.7508 16.0451 12.9136 16.0451 13.0833C16.0451 13.2531 15.9777 13.4158 15.8577 13.5359C15.7376 13.6559 15.5749 13.7233 15.4051 13.7233ZM12.5197 13.7233H11.3581C11.1883 13.7233 11.0256 13.6559 10.9055 13.5359C10.7855 13.4158 10.7181 13.2531 10.7181 13.0833C10.7181 12.9136 10.7855 12.7508 10.9055 12.6308C11.0256 12.5107 11.1883 12.4433 11.3581 12.4433H12.5197C12.6894 12.4433 12.8522 12.5107 12.9722 12.6308C13.0923 12.7508 13.1597 12.9136 13.1597 13.0833C13.1597 13.2531 13.0923 13.4158 12.9722 13.5359C12.8522 13.6559 12.6894 13.7233 12.5197 13.7233ZM9.82592 13.7233H8.59488C8.42514 13.7233 8.26235 13.6559 8.14233 13.5359C8.02231 13.4158 7.95488 13.2531 7.95488 13.0833C7.95488 12.9136 8.02231 12.7508 8.14233 12.6308C8.26235 12.5107 8.42514 12.4433 8.59488 12.4433H9.82592C9.99566 12.4433 10.1584 12.5107 10.2785 12.6308C10.3985 12.7508 10.4659 12.9136 10.4659 13.0833C10.4659 13.2531 10.3985 13.4158 10.2785 13.5359C10.1584 13.6559 9.99566 13.7233 9.82592 13.7233ZM15.4051 15.6321H14.065C13.8952 15.6321 13.7324 15.5647 13.6124 15.4447C13.4924 15.3246 13.425 15.1619 13.425 14.9921C13.425 14.8224 13.4924 14.6596 13.6124 14.5396C13.7324 14.4195 13.8952 14.3521 14.065 14.3521H15.4051C15.5749 14.3521 15.7376 14.4195 15.8577 14.5396C15.9777 14.6596 16.0451 14.8224 16.0451 14.9921C16.0451 15.1619 15.9777 15.3246 15.8577 15.4447C15.7376 15.5647 15.5749 15.6321 15.4051 15.6321ZM12.5197 15.6321H11.3581C11.1883 15.6321 11.0256 15.5647 10.9055 15.4447C10.7855 15.3246 10.7181 15.1619 10.7181 14.9921C10.7181 14.8224 10.7855 14.6596 10.9055 14.5396C11.0256 14.4195 11.1883 14.3521 11.3581 14.3521H12.5197C12.6894 14.3521 12.8522 14.4195 12.9722 14.5396C13.0923 14.6596 13.1597 14.8224 13.1597 14.9921C13.1597 15.1619 13.0923 15.3246 12.9722 15.4447C12.8522 15.5647 12.6894 15.6321 12.5197 15.6321ZM9.82592 15.6321H8.59488C8.42514 15.6321 8.26235 15.5647 8.14233 15.4447C8.02231 15.3246 7.95488 15.1619 7.95488 14.9921C7.95488 14.8224 8.02231 14.6596 8.14233 14.5396C8.26235 14.4195 8.42514 14.3521 8.59488 14.3521H9.82592C9.99566 14.3521 10.1584 14.4195 10.2785 14.5396C10.3985 14.6596 10.4659 14.8224 10.4659 14.9921C10.4659 15.1619 10.3985 15.3246 10.2785 15.4447C10.1584 15.5647 9.99566 15.6321 9.82592 15.6321ZM15.4051 17.5409H14.065C13.8952 17.5409 13.7324 17.4735 13.6124 17.3535C13.4924 17.2334 13.425 17.0707 13.425 16.9009C13.425 16.7312 13.4924 16.5684 13.6124 16.4484C13.7324 16.3283 13.8952 16.2609 14.065 16.2609H15.4051C15.5749 16.2609 15.7376 16.3283 15.8577 16.4484C15.9777 16.5684 16.0451 16.7312 16.0451 16.9009C16.0451 17.0707 15.9777 17.2334 15.8577 17.3535C15.7376 17.4735 15.5749 17.5409 15.4051 17.5409ZM12.5197 17.5409H11.3581C11.1883 17.5409 11.0256 17.4735 10.9055 17.3535C10.7855 17.2334 10.7181 17.0707 10.7181 16.9009C10.7181 16.7312 10.7855 16.5684 10.9055 16.4484C11.0256 16.3283 11.1883 16.2609 11.3581 16.2609H12.5197C12.6894 16.2609 12.8522 16.3283 12.9722 16.4484C13.0923 16.5684 13.1597 16.7312 13.1597 16.9009C13.1597 17.0707 13.0923 17.2334 12.9722 17.3535C12.8522 17.4735 12.6894 17.5409 12.5197 17.5409ZM9.82592 17.5409H8.59488C8.42514 17.5409 8.26235 17.4735 8.14233 17.3535C8.02231 17.2334 7.95488 17.0707 7.95488 16.9009C7.95488 16.7312 8.02231 16.5684 8.14233 16.4484C8.26235 16.3283 8.42514 16.2609 8.59488 16.2609H9.82592C9.99566 16.2609 10.1584 16.3283 10.2785 16.4484C10.3985 16.5684 10.4659 16.7312 10.4659 16.9009C10.4659 17.0707 10.3985 17.2334 10.2785 17.3535C10.1584 17.4735 9.99566 17.5409 9.82592 17.5409Z" fill="#202020"/>
</svg>
