<svg width="24" height="24" viewBox="0 0 24 24" fill="none" xmlns="http://www.w3.org/2000/svg">
<path d="M7.31223 22.112C7.19457 22.1119 7.07922 22.0793 6.97886 22.0179C6.8785 21.9565 6.797 21.8687 6.74333 21.764C6.68965 21.6593 6.66588 21.5418 6.67462 21.4245C6.68336 21.3071 6.72428 21.1945 6.79287 21.0989L18.4482 4.84672C18.549 4.71363 18.6977 4.62516 18.8627 4.60017C19.0277 4.57518 19.196 4.61565 19.3316 4.71295C19.4672 4.81025 19.5595 4.95667 19.5887 5.12101C19.6179 5.28534 19.5817 5.45458 19.4879 5.59264L7.83287 21.8458C7.77348 21.9283 7.69528 21.9955 7.60474 22.0418C7.51419 22.0881 7.41392 22.1122 7.31223 22.112Z" fill="#202020"/>
<path d="M18.2653 20.6598H7.51325C6.76229 20.6598 6.04135 20.3649 5.5056 19.8387C4.96985 19.3125 4.66212 18.5969 4.64861 17.8461L4.48253 9.89824V9.89632C4.47065 9.1397 4.75792 8.40898 5.28188 7.86303C5.80585 7.31707 6.52415 7.00002 7.28061 6.9808L8.06941 6.96224C8.20434 6.95966 8.33293 6.90449 8.42779 6.8085C8.52265 6.71251 8.57628 6.58327 8.57725 6.44832L8.58013 6.20736C8.58872 5.46049 8.89146 4.74714 9.42265 4.22205C9.95385 3.69697 10.6707 3.40251 11.4176 3.40256H14.5216C15.2741 3.40307 15.9957 3.70212 16.5279 4.23409C17.0602 4.76606 17.3597 5.48747 17.3606 6.24V6.512C17.3608 6.64986 17.4156 6.78202 17.5131 6.87951C17.6106 6.97699 17.7428 7.03183 17.8806 7.032H18.432C18.8125 7.03202 19.1893 7.10786 19.5402 7.25508C19.8912 7.4023 20.2093 7.61796 20.4759 7.88947C20.7426 8.16097 20.9525 8.48288 21.0934 8.8364C21.2343 9.18992 21.3034 9.56797 21.2966 9.94848L21.1315 17.848C21.1175 18.5985 20.8095 19.3135 20.2738 19.8394C19.7381 20.3652 19.0175 20.6598 18.2669 20.6598H18.2653ZM5.76285 9.87328L5.92861 17.8214C5.9377 18.2365 6.10842 18.6316 6.40445 18.9227C6.70048 19.2137 7.09842 19.3778 7.51357 19.3798H18.2656C18.6802 19.3778 19.0777 19.2141 19.3736 18.9235C19.6694 18.633 19.8403 18.2385 19.8499 17.824L20.015 9.92416C20.0186 9.7139 19.9804 9.50503 19.9024 9.30971C19.8245 9.11439 19.7085 8.93652 19.5612 8.78648C19.4139 8.63644 19.2381 8.51721 19.0443 8.43575C18.8504 8.35429 18.6423 8.31222 18.432 8.312H17.8806C17.4034 8.3114 16.9459 8.12157 16.6085 7.78413C16.271 7.4467 16.0812 6.9892 16.0806 6.512V6.24C16.08 5.82706 15.9157 5.43122 15.6237 5.13926C15.3317 4.8473 14.9358 4.68307 14.5229 4.68256H11.4189C11.0093 4.68394 10.6167 4.84602 10.3254 5.13393C10.0341 5.42184 9.86753 5.81258 9.86141 6.22208L9.85853 6.46304C9.85519 6.93021 9.66954 7.37761 9.34114 7.7099C9.01274 8.04219 8.56755 8.23309 8.10045 8.24192L7.31165 8.26016C6.89317 8.2709 6.49584 8.44636 6.20601 8.74842C5.91618 9.05047 5.75727 9.45471 5.76381 9.87328H5.76285Z" fill="#202020"/>
<path d="M12.8893 17.0304C12.2272 17.0304 11.5799 16.8341 11.0294 16.4662C10.4788 16.0983 10.0497 15.5755 9.79634 14.9637C9.54295 14.352 9.47666 13.6788 9.60583 13.0294C9.73501 12.38 10.0539 11.7835 10.5221 11.3153C10.9903 10.8471 11.5868 10.5282 12.2362 10.399C12.8856 10.2699 13.5588 10.3362 14.1705 10.5896C14.7822 10.8429 15.3051 11.272 15.673 11.8226C16.0408 12.3731 16.2372 13.0204 16.2372 13.6826C16.2363 14.5702 15.8832 15.4212 15.2556 16.0488C14.628 16.6765 13.777 17.0295 12.8893 17.0304ZM12.8893 11.615C12.4804 11.615 12.0805 11.7363 11.7405 11.9636C11.4004 12.1908 11.1354 12.5138 10.9789 12.8916C10.8224 13.2695 10.7814 13.6853 10.8613 14.0864C10.9411 14.4875 11.1381 14.856 11.4273 15.1452C11.7165 15.4344 12.085 15.6313 12.4861 15.711C12.8873 15.7908 13.3031 15.7498 13.6809 15.5932C14.0587 15.4367 14.3817 15.1716 14.6088 14.8315C14.836 14.4914 14.9572 14.0916 14.9572 13.6826C14.9563 13.1345 14.7381 12.6092 14.3504 12.2219C13.9628 11.8345 13.4374 11.6166 12.8893 11.616V11.615ZM14.5889 6.98688H11.3053C11.1356 6.98688 10.9728 6.91945 10.8528 6.79943C10.7328 6.6794 10.6653 6.51662 10.6653 6.34688C10.6653 6.17714 10.7328 6.01435 10.8528 5.89433C10.9728 5.77431 11.1356 5.70688 11.3053 5.70688H14.5889C14.7586 5.70688 14.9214 5.77431 15.0414 5.89433C15.1614 6.01435 15.2289 6.17714 15.2289 6.34688C15.2289 6.51662 15.1614 6.6794 15.0414 6.79943C14.9214 6.91945 14.7586 6.98688 14.5889 6.98688Z" fill="#202020"/>
</svg>
