<svg width="24" height="24" viewBox="0 0 24 24" fill="none" xmlns="http://www.w3.org/2000/svg">
<path d="M18.9385 16.7639H13.9987C13.8289 16.7639 13.6661 16.6965 13.5461 16.5764C13.4261 16.4564 13.3587 16.2936 13.3587 16.1239C13.3587 15.9542 13.4261 15.7914 13.5461 15.6713C13.6661 15.5513 13.8289 15.4839 13.9987 15.4839H18.9385C19.1082 15.4839 19.271 15.5513 19.3911 15.6713C19.5111 15.7914 19.5785 15.9542 19.5785 16.1239C19.5785 16.2936 19.5111 16.4564 19.3911 16.5764C19.271 16.6965 19.1082 16.7639 18.9385 16.7639ZM7.87995 16.7639H5.06139C4.89165 16.7639 4.72886 16.6965 4.60884 16.5764C4.48882 16.4564 4.42139 16.2936 4.42139 16.1239C4.42139 15.9542 4.48882 15.7914 4.60884 15.6713C4.72886 15.5513 4.89165 15.4839 5.06139 15.4839H7.87995C8.04969 15.4839 8.21247 15.5513 8.3325 15.6713C8.45252 15.7914 8.51995 15.9542 8.51995 16.1239C8.51995 16.2936 8.45252 16.4564 8.3325 16.5764C8.21247 16.6965 8.04969 16.7639 7.87995 16.7639ZM18.9385 8.46726H17.2799C17.1102 8.46726 16.9474 8.39983 16.8274 8.2798C16.7074 8.15978 16.6399 7.99699 16.6399 7.82726C16.6399 7.65752 16.7074 7.49473 16.8274 7.37471C16.9474 7.25468 17.1102 7.18726 17.2799 7.18726H18.9401C19.1098 7.18726 19.2726 7.25468 19.3927 7.37471C19.5127 7.49473 19.5801 7.65752 19.5801 7.82726C19.5801 7.99699 19.5127 8.15978 19.3927 8.2798C19.2726 8.39983 19.1098 8.46726 18.9401 8.46726H18.9385ZM11.1596 8.46726H5.06139C4.89165 8.46726 4.72886 8.39983 4.60884 8.2798C4.48882 8.15978 4.42139 7.99699 4.42139 7.82726C4.42139 7.65752 4.48882 7.49473 4.60884 7.37471C4.72886 7.25468 4.89165 7.18726 5.06139 7.18726H11.1596C11.3294 7.18726 11.4922 7.25468 11.6122 7.37471C11.7322 7.49473 11.7996 7.65752 11.7996 7.82726C11.7996 7.99699 11.7322 8.15978 11.6122 8.2798C11.4922 8.39983 11.3294 8.46726 11.1596 8.46726Z" fill="#202020"/>
<path d="M13.0749 18.5018H8.80415C8.38947 18.5013 7.99191 18.3363 7.69868 18.0431C7.40546 17.7499 7.2405 17.3523 7.23999 16.9376V15.4081C7.2405 14.9934 7.40547 14.5959 7.6987 14.3027C7.99194 14.0095 8.38949 13.8446 8.80415 13.8442H13.0749C13.4895 13.8446 13.887 14.0095 14.1802 14.3027C14.4734 14.5959 14.6383 14.9934 14.6387 15.4081V16.9376C14.6383 17.3523 14.4734 17.7499 14.1802 18.0431C13.887 18.3363 13.4895 18.5013 13.0749 18.5018ZM8.80415 15.1242C8.72884 15.1242 8.65661 15.1541 8.60333 15.2073C8.55005 15.2605 8.52007 15.3327 8.51999 15.4081V16.9376C8.52007 17.013 8.55004 17.0852 8.60331 17.1385C8.65658 17.1918 8.72881 17.2217 8.80415 17.2218H13.0749C13.1502 17.2217 13.2224 17.1917 13.2756 17.1385C13.3288 17.0852 13.3587 17.013 13.3587 16.9376V15.4081C13.3586 15.3328 13.3287 15.2607 13.2755 15.2074C13.2223 15.1542 13.1501 15.1243 13.0749 15.1242H8.80415ZM16.3545 10.1559H12.0835C11.6689 10.1554 11.2714 9.99046 10.9783 9.69729C10.6851 9.40412 10.5202 9.00665 10.5197 8.59205V7.06245C10.5202 6.64782 10.6851 6.25031 10.9782 5.9571C11.2714 5.66388 11.6689 5.49888 12.0835 5.49829H16.3545C16.7695 5.49846 17.1673 5.66327 17.4608 5.95653C17.7543 6.2498 17.9195 6.64754 17.92 7.06245V8.59205C17.9195 9.00693 17.7543 9.40464 17.4608 9.69786C17.1673 9.99107 16.7694 10.1558 16.3545 10.1559ZM12.0835 6.77829C12.0082 6.77838 11.936 6.80835 11.8828 6.86163C11.8296 6.91491 11.7997 6.98714 11.7997 7.06245V8.59205C11.7998 8.6673 11.8297 8.73945 11.8829 8.79266C11.9361 8.84587 12.0083 8.87581 12.0835 8.87589H16.3545C16.3919 8.87606 16.429 8.86884 16.4636 8.85466C16.4982 8.84047 16.5297 8.8196 16.5562 8.79323C16.5827 8.76686 16.6038 8.73551 16.6181 8.70099C16.6325 8.66647 16.6399 8.62945 16.64 8.59205V7.06245C16.64 6.98714 16.6101 6.91491 16.5569 6.86163C16.5037 6.80835 16.4315 6.77838 16.3561 6.77829H12.0835Z" fill="#202020"/>
</svg>
