<svg width="24" height="24" viewBox="0 0 24 24" fill="none" xmlns="http://www.w3.org/2000/svg">
<path d="M7.87621 19.5785C7.70647 19.5785 7.54368 19.5111 7.42366 19.3911C7.30363 19.271 7.23621 19.1082 7.23621 18.9385V13.9987C7.23621 13.8289 7.30363 13.6661 7.42366 13.5461C7.54368 13.4261 7.70647 13.3587 7.87621 13.3587C8.04594 13.3587 8.20873 13.4261 8.32875 13.5461C8.44878 13.6661 8.51621 13.8289 8.51621 13.9987V18.9385C8.51621 19.1082 8.44878 19.271 8.32875 19.3911C8.20873 19.5111 8.04594 19.5785 7.87621 19.5785ZM7.87621 8.51995C7.70647 8.51995 7.54368 8.45252 7.42366 8.3325C7.30363 8.21247 7.23621 8.04969 7.23621 7.87995V5.06139C7.23621 4.89165 7.30363 4.72886 7.42366 4.60884C7.54368 4.48882 7.70647 4.42139 7.87621 4.42139C8.04594 4.42139 8.20873 4.48882 8.32875 4.60884C8.44878 4.72886 8.51621 4.89165 8.51621 5.06139V7.87995C8.51621 8.04969 8.44878 8.21247 8.32875 8.3325C8.20873 8.45252 8.04594 8.51995 7.87621 8.51995ZM16.1728 19.5785C16.0031 19.5785 15.8403 19.5111 15.7203 19.3911C15.6003 19.271 15.5328 19.1082 15.5328 18.9385V17.2799C15.5328 17.1102 15.6003 16.9474 15.7203 16.8274C15.8403 16.7074 16.0031 16.6399 16.1728 16.6399C16.3426 16.6399 16.5054 16.7074 16.6254 16.8274C16.7454 16.9474 16.8128 17.1102 16.8128 17.2799V18.9401C16.8124 19.1096 16.7448 19.2719 16.6248 19.3916C16.5049 19.5113 16.3423 19.5785 16.1728 19.5785ZM16.1728 11.7996C16.0031 11.7996 15.8403 11.7322 15.7203 11.6122C15.6003 11.4922 15.5328 11.3294 15.5328 11.1596V5.06139C15.5328 4.89165 15.6003 4.72886 15.7203 4.60884C15.8403 4.48882 16.0031 4.42139 16.1728 4.42139C16.3426 4.42139 16.5054 4.48882 16.6254 4.60884C16.7454 4.72886 16.8128 4.89165 16.8128 5.06139V11.1596C16.8128 11.3294 16.7454 11.4922 16.6254 11.6122C16.5054 11.7322 16.3426 11.7996 16.1728 11.7996Z" fill="#202020"/>
<path d="M8.59205 14.6387H7.06245C6.64779 14.6383 6.25024 14.4734 5.957 14.1802C5.66377 13.887 5.4988 13.4895 5.49829 13.0749V8.80415C5.4988 8.38947 5.66376 7.99191 5.95698 7.69868C6.25021 7.40546 6.64777 7.2405 7.06245 7.23999H8.59205C9.00671 7.2405 9.40423 7.40547 9.6974 7.6987C9.99058 7.99194 10.1555 8.38949 10.1559 8.80415V13.0749C10.1555 13.4895 9.99057 13.887 9.69738 14.1802C9.4042 14.4734 9.00668 14.6383 8.59205 14.6387ZM7.06245 8.51999C6.98711 8.52007 6.91488 8.55004 6.86161 8.60331C6.80834 8.65658 6.77838 8.72881 6.77829 8.80415V13.0749C6.77838 13.1502 6.80835 13.2224 6.86163 13.2756C6.91491 13.3288 6.98714 13.3587 7.06245 13.3587H8.59205C8.6673 13.3586 8.73945 13.3287 8.79266 13.2755C8.84587 13.2223 8.87581 13.1501 8.87589 13.0749V8.80415C8.87589 8.72884 8.846 8.65661 8.79278 8.60333C8.73955 8.55005 8.66736 8.52007 8.59205 8.51999H7.06245ZM16.9376 17.92H15.4081C14.9935 17.9195 14.596 17.7546 14.3028 17.4614C14.0096 17.1682 13.8447 16.7708 13.8442 16.3561V12.0835C13.8447 11.6689 14.0096 11.2714 14.3028 10.9783C14.596 10.6851 14.9935 10.5202 15.4081 10.5197H16.9376C17.3523 10.5202 17.7498 10.6851 18.043 10.9782C18.3362 11.2714 18.5012 11.6689 18.5018 12.0835V16.3545C18.5016 16.7695 18.3368 17.1673 18.0436 17.4608C17.7503 17.7543 17.3526 17.9195 16.9376 17.92ZM15.4081 11.7997C15.3328 11.7998 15.2607 11.8297 15.2074 11.8829C15.1542 11.9361 15.1243 12.0083 15.1242 12.0835V16.3545C15.124 16.3919 15.1313 16.429 15.1454 16.4636C15.1596 16.4982 15.1805 16.5297 15.2069 16.5562C15.2332 16.5827 15.2646 16.6038 15.2991 16.6181C15.3336 16.6325 15.3707 16.6399 15.4081 16.64H16.9376C17.013 16.64 17.0852 16.6101 17.1385 16.5569C17.1917 16.5037 17.2217 16.4315 17.2218 16.3561V12.0835C17.2217 12.0082 17.1917 11.936 17.1385 11.8828C17.0852 11.8296 17.013 11.7997 16.9376 11.7997H15.4081Z" fill="#202020"/>
</svg>
