<svg width="24" height="24" viewBox="0 0 24 24" fill="none" xmlns="http://www.w3.org/2000/svg">
<g clip-path="url(#clip0_3_238)">
<path d="M12 2.25C6.61522 2.25 2.25 6.61522 2.25 12C2.25 17.3848 6.61522 21.75 12 21.75C12.9693 21.75 13.9042 21.6088 14.7861 21.3463C15.1831 21.2282 15.6007 21.4542 15.7188 21.8512C15.837 22.2483 15.6109 22.6659 15.2139 22.784C14.1947 23.0874 13.1157 23.25 12 23.25C5.78681 23.25 0.75 18.2132 0.75 12C0.75 5.78681 5.78681 0.75 12 0.75C18.2132 0.75 23.25 5.78681 23.25 12C23.25 13.4142 22.9887 14.7691 22.5111 16.0179C22.3631 16.4048 21.9295 16.5985 21.5426 16.4505C21.1557 16.3025 20.9621 15.8689 21.1101 15.4821C21.5233 14.4017 21.75 13.2282 21.75 12C21.75 6.61522 17.3848 2.25 12 2.25Z" fill="#202020"/>
<path d="M7.83484 13.3636C7.83484 12.9494 8.17061 12.6136 8.58484 12.6136H9.38839C9.80261 12.6136 10.1384 12.9494 10.1384 13.3636C10.1384 13.7778 9.80261 14.1136 9.38839 14.1136H8.58484C8.17061 14.1136 7.83484 13.7778 7.83484 13.3636ZM13.6607 13.3636C13.6607 12.9494 13.9965 12.6136 14.4107 12.6136H15.2143C15.6285 12.6136 15.9643 12.9494 15.9643 13.3636C15.9643 13.7778 15.6285 14.1136 15.2143 14.1136H14.4107C13.9965 14.1136 13.6607 13.7778 13.6607 13.3636Z" fill="#202020"/>
<path fill-rule="evenodd" clip-rule="evenodd" d="M7.60035 8.43675C7.87125 7.64381 8.62373 7.125 9.4536 7.125H14.5464C15.3763 7.125 16.1287 7.64381 16.3996 8.43675L16.8579 9.77827C17.2031 9.63626 17.608 9.77066 17.7959 10.1042C17.9992 10.465 17.8715 10.9224 17.5106 11.1258L17.4721 11.1474C18.0192 11.5689 18.375 12.2244 18.375 12.9716V15.3239C18.375 16.4049 17.4821 17.25 16.4196 17.25C15.5472 17.25 14.7891 16.6802 14.5458 15.8778H9.45416C9.21086 16.6802 8.45276 17.25 7.58036 17.25C6.51791 17.25 5.625 16.4049 5.625 15.3239V12.9716C5.625 12.2321 5.97345 11.5826 6.51094 11.1606L6.44906 11.1258C6.08816 10.9224 5.9604 10.465 6.16372 10.1042C6.35801 9.7593 6.78439 9.62734 7.13678 9.79376L7.60035 8.43675ZM8.42824 10.6534L9.01984 8.92166C9.07706 8.75407 9.24581 8.625 9.4536 8.625H14.5464C14.7542 8.625 14.9229 8.75407 14.9802 8.92166L15.5718 10.6534H8.42824ZM7.98214 12.1534C7.4913 12.1534 7.125 12.537 7.125 12.9716V15.3239C7.125 15.542 7.31141 15.75 7.58036 15.75C7.84931 15.75 8.03573 15.542 8.03573 15.3239V15.1278C8.03573 14.7136 8.3715 14.3778 8.78573 14.3778H15.2143C15.6285 14.3778 15.9643 14.7136 15.9643 15.1278V15.3239C15.9643 15.542 16.1507 15.75 16.4196 15.75C16.6886 15.75 16.875 15.542 16.875 15.3239V12.9716C16.875 12.537 16.5087 12.1534 16.0179 12.1534H7.98214Z" fill="#202020"/>
<path d="M15.6024 20.2522C15.3053 19.9636 15.2984 19.4888 15.587 19.1917C15.8757 18.8946 16.3505 18.8877 16.6476 19.1763L17.4225 19.929L19.7018 17.4881C19.9845 17.1854 20.4591 17.1691 20.7619 17.4518C21.0646 17.7345 21.0809 18.2091 20.7982 18.5119L17.9967 21.5119C17.8592 21.6591 17.6682 21.7449 17.4668 21.7498C17.2654 21.7547 17.0705 21.6783 16.9259 21.538L15.6024 20.2522Z" fill="#202020"/>
</g>
<defs>
<clipPath id="clip0_3_238">
<rect width="24" height="24" fill="white"/>
</clipPath>
</defs>
</svg>
