<svg width="24" height="24" viewBox="0 0 24 24" fill="none" xmlns="http://www.w3.org/2000/svg">
<path fill-rule="evenodd" clip-rule="evenodd" d="M6.29198 7.86431C7.2744 6.46088 8.87981 5.625 10.593 5.625H13.875C15.011 5.625 16.1163 5.99344 17.025 6.675L20.125 9H20.25C21.9069 9 23.25 10.3431 23.25 12V13.875C23.25 15.4905 21.9731 16.8077 20.3736 16.8725C19.9528 17.7607 19.0481 18.375 18 18.375C16.9529 18.375 16.0489 17.7618 15.6276 16.875H10.2474C9.82609 17.7618 8.92215 18.375 7.875 18.375C6.82785 18.375 5.92391 17.7618 5.5026 16.875H3.75C2.09314 16.875 0.75 15.5319 0.75 13.875V12.375C0.75 10.7181 2.09314 9.375 3.75 9.375H5.23451L6.29198 7.86431ZM15.4016 15.375C15.5835 14.1029 16.6776 13.125 18 13.125C19.3088 13.125 20.3939 14.0828 20.5925 15.3357C21.2559 15.1808 21.75 14.5856 21.75 13.875V12C21.75 11.1716 21.0784 10.5 20.25 10.5H19.875C19.7127 10.5 19.5548 10.4474 19.425 10.35L16.125 7.875C15.4759 7.38818 14.6864 7.125 13.875 7.125H10.593C9.36926 7.125 8.22255 7.72204 7.52081 8.72452L6.23944 10.5551C6.09908 10.7556 5.86973 10.875 5.625 10.875H3.75C2.92157 10.875 2.25 11.5466 2.25 12.375V13.875C2.25 14.7034 2.92157 15.375 3.75 15.375H5.27659C5.45854 14.1029 6.55256 13.125 7.875 13.125C9.19744 13.125 10.2915 14.1029 10.4734 15.375H15.4016ZM7.875 14.625C7.25366 14.625 6.75 15.1287 6.75 15.75C6.75 16.3713 7.25366 16.875 7.875 16.875C8.49634 16.875 9 16.3713 9 15.75C9 15.1287 8.49634 14.625 7.875 14.625ZM16.875 15.75C16.875 15.1287 17.3787 14.625 18 14.625C18.6213 14.625 19.125 15.1287 19.125 15.75C19.125 16.3713 18.6213 16.875 18 16.875C17.3787 16.875 16.875 16.3713 16.875 15.75Z" fill="#202020"/>
</svg>
