<svg width="24" height="24" viewBox="0 0 24 24" fill="none" xmlns="http://www.w3.org/2000/svg">
<path fill-rule="evenodd" clip-rule="evenodd" d="M6.29198 3.73932C7.2744 2.33586 8.87981 1.5 10.593 1.5H13.875C15.011 1.5 16.1163 1.86843 17.025 2.55L20.125 4.875H20.25C21.9069 4.875 23.25 6.21814 23.25 7.875V9.75C23.25 11.3655 21.9731 12.6827 20.3736 12.7475C19.9528 13.6357 19.0481 14.25 18 14.25C16.9529 14.25 16.0489 13.6368 15.6276 12.75H10.2474C9.82609 13.6368 8.92215 14.25 7.875 14.25C6.82785 14.25 5.92391 13.6368 5.5026 12.75H3.75C2.09314 12.75 0.75 11.4069 0.75 9.75V8.84355C0.75 7.4907 1.65546 6.30521 2.96065 5.94926L5.16608 5.34776L6.29198 3.73932ZM15.4016 11.25C15.5835 9.97789 16.6776 9 18 9C19.3088 9 20.3939 9.95782 20.5925 11.2107C21.2559 11.0558 21.75 10.4606 21.75 9.75V7.875C21.75 7.04659 21.0784 6.375 20.25 6.375H19.875C19.7127 6.375 19.5548 6.32235 19.425 6.225L16.125 3.75C15.4759 3.26317 14.6864 3 13.875 3H10.593C9.36926 3 8.22255 3.59704 7.52081 4.59952L6.23944 6.43009C6.13894 6.57364 5.99137 6.67748 5.82233 6.72356L3.35532 7.39639C2.70273 7.57436 2.25 8.16712 2.25 8.84355V9.75C2.25 10.5784 2.92157 11.25 3.75 11.25H5.27659C5.45854 9.97789 6.55256 9 7.875 9C9.19744 9 10.2915 9.97789 10.4734 11.25H15.4016ZM7.875 10.5C7.25366 10.5 6.75 11.0037 6.75 11.625C6.75 12.2463 7.25366 12.75 7.875 12.75C8.49634 12.75 9 12.2463 9 11.625C9 11.0037 8.49634 10.5 7.875 10.5ZM16.875 11.625C16.875 11.0037 17.3787 10.5 18 10.5C18.6213 10.5 19.125 11.0037 19.125 11.625C19.125 12.2463 18.6213 12.75 18 12.75C17.3787 12.75 16.875 12.2463 16.875 11.625ZM4.125 16.5C4.125 16.0858 4.46077 15.75 4.875 15.75H19.125C19.5392 15.75 19.875 16.0858 19.875 16.5C19.875 16.9142 19.5392 17.25 19.125 17.25H15.375V21H22.5C22.9142 21 23.25 21.3358 23.25 21.75C23.25 22.1642 22.9142 22.5 22.5 22.5H1.5C1.08579 22.5 0.75 22.1642 0.75 21.75C0.75 21.3358 1.08579 21 1.5 21H8.625V17.25H4.875C4.46077 17.25 4.125 16.9142 4.125 16.5ZM10.125 17.25V21H13.875V17.25H10.125Z" fill="#202020"/>
</svg>
