<svg width="24" height="24" viewBox="0 0 24 24" fill="none" xmlns="http://www.w3.org/2000/svg">
<path fill-rule="evenodd" clip-rule="evenodd" d="M9.08651 5.79814C10.492 3.80828 12.7764 2.625 15.2125 2.625H22.5C22.9142 2.625 23.25 2.96079 23.25 3.375C23.25 3.78922 22.9142 4.125 22.5 4.125H15.2125C13.2636 4.125 11.4361 5.07161 10.3117 6.66352L8.35586 9.43267C8.26793 9.55717 8.14414 9.6519 8.00104 9.70429L4.71105 10.9085C3.23294 11.4495 2.25 12.856 2.25 14.43V15.75C2.25 16.5784 2.92157 17.25 3.75 17.25H7.51853C7.70666 15.355 9.30551 13.875 11.25 13.875C13.1945 13.875 14.7933 15.355 14.9815 17.25H22.5C22.9142 17.25 23.25 17.5858 23.25 18C23.25 18.4142 22.9142 18.75 22.5 18.75H14.8283C14.3505 20.2714 12.9291 21.375 11.25 21.375C9.5709 21.375 8.14954 20.2714 7.67167 18.75H3.75C2.09314 18.75 0.75 17.4069 0.75 15.75V14.43C0.75 12.2264 2.12612 10.2573 4.19546 9.49991L7.26566 8.37615L9.08651 5.79814ZM9 17.625C9 16.3824 10.0074 15.375 11.25 15.375C12.4926 15.375 13.5 16.3824 13.5 17.625C13.5 18.8676 12.4926 19.875 11.25 19.875C10.0074 19.875 9 18.8676 9 17.625Z" fill="#202020"/>
</svg>
