<svg width="24" height="24" viewBox="0 0 24 24" fill="none" xmlns="http://www.w3.org/2000/svg">
<path d="M19.4434 16.3437C20.4763 15.3026 21.0571 13.8962 21.0596 12.4297C21.0655 10.9622 20.4839 9.55341 19.4444 8.51758L13.7032 2.73633C12.7475 1.8313 11.251 1.83173 10.2959 2.7373L4.55668 8.5166C3.51665 9.55255 2.93461 10.9617 2.94047 12.4297C2.94291 13.8953 3.52287 15.301 4.55473 16.3418C5.58745 17.3762 6.98857 17.9583 8.45024 17.96C8.62016 17.96 8.7852 17.9531 8.94633 17.9385C8.6414 19.1213 8.0966 20.2289 7.34575 21.1924C7.27763 21.28 7.24064 21.3878 7.24046 21.4987C7.2401 21.7752 7.46385 21.9996 7.74028 22H16.2598C16.3708 21.9998 16.4786 21.9628 16.5662 21.8947C16.7845 21.7251 16.824 21.4106 16.6543 21.1923C15.8997 20.2289 15.3533 19.1192 15.0498 17.9335C16.6795 18.0956 18.2948 17.5111 19.4434 16.3437ZM15.2969 21H8.70219C9.3925 19.9033 9.86162 18.6821 10.0831 17.4053C10.1115 17.2372 10.0527 17.0662 9.92686 16.9512C9.80107 16.8357 9.6248 16.7929 9.46007 16.8379C9.13017 16.9224 8.79075 16.9634 8.45024 16.96C7.25456 16.959 6.10832 16.483 5.26372 15.6367C4.41777 14.7834 3.9423 13.6312 3.94047 12.4297C3.93541 11.2266 4.41228 10.0717 5.26469 9.22266L11.004 3.44336C11.5631 2.91675 12.4355 2.91632 12.9952 3.44238L18.7364 9.22363C19.5883 10.0725 20.0648 11.2271 20.0597 12.4297C20.0578 13.6317 19.582 14.7844 18.7354 15.6377C17.6407 16.7493 16.0422 17.2037 14.5264 16.834C14.4619 16.8187 14.395 16.8163 14.3296 16.8271C14.0568 16.8721 13.8721 17.1296 13.917 17.4023C14.1329 18.6815 14.6021 19.9046 15.2969 21Z" fill="#202020"/>
</svg>
