<svg width="24" height="24" viewBox="0 0 24 24" fill="none" xmlns="http://www.w3.org/2000/svg">
<path d="M18.56 18.0519H8.97027C8.80053 18.0519 8.63774 17.9844 8.51772 17.8644C8.39769 17.7444 8.33027 17.5816 8.33027 17.4119C8.33027 17.2421 8.39769 17.0793 8.51772 16.9593C8.63774 16.8393 8.80053 16.7719 8.97027 16.7719H18.56C18.8496 16.7715 19.1273 16.6564 19.3323 16.4518C19.5372 16.2471 19.6527 15.9696 19.6535 15.68V9.92545H5.74883C5.57909 9.92545 5.4163 9.85803 5.29628 9.738C5.17625 9.61798 5.10883 9.45519 5.10883 9.28545V8.14785C5.1095 7.51859 5.35978 6.91529 5.80474 6.47033C6.2497 6.02537 6.853 5.77509 7.48227 5.77441H18.56C19.1893 5.77509 19.7926 6.02537 20.2376 6.47033C20.6825 6.91529 20.9328 7.51859 20.9335 8.14785V9.27105C20.9335 9.27585 20.9335 9.28065 20.9335 9.28545C20.9335 9.29025 20.9335 9.29505 20.9335 9.29953V15.68C20.9323 16.309 20.6818 16.9118 20.2369 17.3564C19.792 17.801 19.189 18.0511 18.56 18.0519ZM6.38883 8.64545H19.6535V8.14785C19.6531 7.85796 19.5378 7.58004 19.3328 7.37505C19.1278 7.17006 18.8499 7.05475 18.56 7.05441H7.48227C7.19235 7.05467 6.91437 7.16995 6.70937 7.37496C6.50436 7.57996 6.38908 7.85793 6.38883 8.14785V8.64545Z" fill="#202020"/>
<path d="M18.3661 12.1363H16.9658C16.796 12.1363 16.6333 12.0689 16.5132 11.9489C16.3932 11.8289 16.3258 11.6661 16.3258 11.4963C16.3258 11.3266 16.3932 11.1638 16.5132 11.0438C16.6333 10.9238 16.796 10.8563 16.9658 10.8563H18.3661C18.5358 10.8563 18.6986 10.9238 18.8186 11.0438C18.9387 11.1638 19.0061 11.3266 19.0061 11.4963C19.0061 11.6661 18.9387 11.8289 18.8186 11.9489C18.6986 12.0689 18.5358 12.1363 18.3661 12.1363ZM14.4218 12.1363H13.0211C12.8514 12.1363 12.6886 12.0689 12.5686 11.9489C12.4486 11.8289 12.3811 11.6661 12.3811 11.4963C12.3811 11.3266 12.4486 11.1638 12.5686 11.0438C12.6886 10.9238 12.8514 10.8563 13.0211 10.8563H14.4218C14.5915 10.8563 14.7543 10.9238 14.8743 11.0438C14.9943 11.1638 15.0618 11.3266 15.0618 11.4963C15.0618 11.6661 14.9943 11.8289 14.8743 11.9489C14.7543 12.0689 14.5915 12.1363 14.4218 12.1363ZM5.74882 13.44C5.57908 13.44 5.41629 13.3726 5.29627 13.2526C5.17625 13.1325 5.10882 12.9697 5.10882 12.8V9.28545C5.10882 9.11571 5.17625 8.95292 5.29627 8.8329C5.41629 8.71287 5.57908 8.64545 5.74882 8.64545C5.91856 8.64545 6.08134 8.71287 6.20137 8.8329C6.32139 8.95292 6.38882 9.11571 6.38882 9.28545V12.8C6.38882 12.8841 6.37226 12.9673 6.3401 13.0449C6.30794 13.1226 6.26079 13.1931 6.20137 13.2526C6.14194 13.312 6.07138 13.3591 5.99373 13.3913C5.91609 13.4235 5.83286 13.44 5.74882 13.44ZM7.65762 17.0035C7.57351 17.0037 7.4902 16.9872 7.4125 16.955C7.33479 16.9228 7.26421 16.8756 7.20482 16.816L5.28898 14.9002C5.16893 14.7802 5.10147 14.6174 5.10144 14.4476C5.10143 14.3636 5.11797 14.2804 5.15012 14.2027C5.18227 14.1251 5.2294 14.0545 5.28882 13.995C5.34824 13.9356 5.41878 13.8884 5.49643 13.8563C5.57407 13.8241 5.6573 13.8075 5.74134 13.8075C5.91109 13.8075 6.07389 13.8749 6.19394 13.9949L8.1101 15.911C8.19958 16.0006 8.26051 16.1146 8.28519 16.2387C8.30987 16.3628 8.2972 16.4915 8.24877 16.6084C8.20034 16.7254 8.11833 16.8253 8.01311 16.8956C7.90789 16.9659 7.78418 17.0035 7.65762 17.0035Z" fill="#202020"/>
<path d="M5.72257 17.024C5.59601 17.024 5.47229 16.9864 5.36707 16.9161C5.26185 16.8458 5.17984 16.7458 5.13141 16.6289C5.08298 16.512 5.07031 16.3833 5.09499 16.2592C5.11968 16.135 5.18061 16.021 5.27009 15.9315L7.17121 14.0288C7.23063 13.9693 7.30117 13.9222 7.37882 13.89C7.45646 13.8578 7.53969 13.8413 7.62373 13.8412C7.70778 13.8412 7.79101 13.8578 7.86867 13.8899C7.94632 13.9221 8.01688 13.9692 8.07633 14.0286C8.13577 14.088 8.18292 14.1586 8.2151 14.2362C8.24728 14.3139 8.26385 14.3971 8.26386 14.4812C8.26388 14.5652 8.24734 14.6484 8.21519 14.7261C8.18304 14.8037 8.13591 14.8743 8.07649 14.9337L6.17601 16.8349C6.11671 16.8948 6.0461 16.9424 5.96826 16.9749C5.89042 17.0074 5.80691 17.0241 5.72257 17.024Z" fill="#202020"/>
</svg>
