<svg width="24" height="24" viewBox="0 0 24 24" fill="none" xmlns="http://www.w3.org/2000/svg">
<path d="M19.9601 10.6025L13.9365 2.84277C13.9114 2.81701 13.8857 2.79175 13.8596 2.76703C12.7829 1.74829 11.0842 1.79535 10.0654 2.87207L4.01367 10.5615C3.4668 11.4143 3.4668 12.5076 4.01367 13.3603C4.02161 13.3733 4.0304 13.3857 4.04004 13.3975L10.0635 21.1572C10.5593 21.6935 11.2561 21.9988 11.9864 22C12.7296 21.9966 13.437 21.68 13.9347 21.1279L19.9865 13.4385C20.5427 12.5721 20.5323 11.4584 19.9601 10.6025ZM19.1729 12.8594L13.1739 20.4795C12.5267 21.1182 11.4908 21.1324 10.8262 20.5117L4.84479 12.8037C4.5296 12.2959 4.52283 11.655 4.82721 11.1406L10.8262 3.52051C11.4734 2.88183 12.5093 2.86761 13.1739 3.48828L19.1446 11.1787C19.47 11.6888 19.481 12.3386 19.1729 12.8594Z" fill="#202020"/>
</svg>
