<svg width="24" height="24" viewBox="0 0 24 24" fill="none" xmlns="http://www.w3.org/2000/svg">
<path d="M4.66814 12.5824C4.4984 12.5824 4.33561 12.515 4.21559 12.3949C4.09557 12.2749 4.02814 12.1121 4.02814 11.9424C4.02822 9.75424 4.8975 7.65572 6.44476 6.10846C7.99203 4.5612 10.0905 3.69192 12.2787 3.69183C12.4484 3.69183 12.6112 3.75926 12.7312 3.87929C12.8513 3.99931 12.9187 4.16209 12.9187 4.33183C12.9187 4.50157 12.8513 4.66436 12.7312 4.78438C12.6112 4.9044 12.4484 4.97183 12.2787 4.97183C8.43518 4.97183 5.30814 8.09887 5.30814 11.9424C5.30814 12.1121 5.24071 12.2749 5.12069 12.3949C5.00066 12.515 4.83788 12.5824 4.66814 12.5824ZM12.2787 20.192C12.109 20.192 11.9462 20.1246 11.8261 20.0045C11.7061 19.8845 11.6387 19.7217 11.6387 19.552C11.6387 19.3823 11.7061 19.2195 11.8261 19.0994C11.9462 18.9794 12.109 18.912 12.2787 18.912C16.1219 18.912 19.2489 15.785 19.2489 11.9418C19.2489 11.772 19.3164 11.6092 19.4364 11.4892C19.5564 11.3692 19.7192 11.3018 19.8889 11.3018C20.0587 11.3018 20.2215 11.3692 20.3415 11.4892C20.4615 11.6092 20.5289 11.772 20.5289 11.9418C20.5288 14.1298 19.6595 16.2282 18.1123 17.7754C16.5651 19.3226 14.4667 20.1918 12.2787 20.192Z" fill="#202020"/>
<path d="M11.7238 6.34336C11.6015 6.34337 11.4817 6.30831 11.3787 6.24233C11.2756 6.17636 11.1937 6.08223 11.1425 5.97111C11.0913 5.85999 11.0731 5.73652 11.0899 5.61534C11.1067 5.49415 11.1579 5.38033 11.2374 5.28736L11.9907 4.40512L11.0134 3.57888C10.888 3.46807 10.811 3.31253 10.7988 3.1456C10.7867 2.97867 10.8405 2.81363 10.9486 2.68586C11.0567 2.55808 11.2105 2.47774 11.3772 2.46205C11.5438 2.44636 11.7099 2.49657 11.84 2.60192L13.3082 3.8432C13.3725 3.89763 13.4255 3.96424 13.4641 4.03921C13.5027 4.11418 13.5261 4.19603 13.5329 4.28006C13.5397 4.3641 13.5299 4.44865 13.504 4.52887C13.478 4.60909 13.4365 4.6834 13.3818 4.74752L12.2109 6.11872C12.1508 6.18917 12.0761 6.24574 11.992 6.28452C11.9079 6.3233 11.8164 6.34338 11.7238 6.34336ZM12.352 21.5494C12.1844 21.5497 12.0235 21.4839 11.904 21.3664L10.5312 20.0202C10.471 19.9611 10.4231 19.8908 10.3901 19.8132C10.3572 19.7356 10.34 19.6523 10.3393 19.568C10.3387 19.4837 10.3547 19.4001 10.3865 19.322C10.4183 19.2439 10.4652 19.1729 10.5245 19.113L11.7933 17.833C11.9132 17.7154 12.0745 17.6496 12.2425 17.6499C12.4104 17.6502 12.5715 17.7165 12.691 17.8345C12.8105 17.9525 12.8789 18.1127 12.8813 18.2807C12.8837 18.4486 12.82 18.6108 12.704 18.7322L11.8877 19.5565L12.8013 20.4525C12.892 20.5415 12.9542 20.6555 12.9799 20.78C13.0057 20.9044 12.9937 21.0337 12.9457 21.1514C12.8976 21.2691 12.8156 21.3698 12.7101 21.4407C12.6046 21.5116 12.4804 21.5494 12.3533 21.5494H12.352ZM8.06688 19.7229H4.3792C3.96254 19.7225 3.56306 19.5568 3.26843 19.2621C2.97381 18.9675 2.8081 18.568 2.80768 18.1514V14.464C2.8081 14.0473 2.9738 13.6478 3.26841 13.3531C3.56303 13.0584 3.96251 12.8927 4.3792 12.8922H8.06688C8.4836 12.8927 8.88311 13.0584 9.17778 13.3531C9.47244 13.6478 9.63821 14.0473 9.63872 14.464V18.1514C9.63821 18.5681 9.47243 18.9675 9.17776 19.2621C8.88308 19.5568 8.48357 19.7225 8.06688 19.7229ZM4.3792 14.1718C4.30188 14.172 4.22778 14.2028 4.17314 14.2575C4.11849 14.3122 4.08776 14.3864 4.08768 14.4637V18.1514C4.08776 18.2286 4.1185 18.3027 4.17316 18.3574C4.22781 18.4121 4.30191 18.4428 4.3792 18.4429H8.06688C8.1442 18.4428 8.21833 18.4121 8.27304 18.3574C8.32774 18.3028 8.35855 18.2287 8.35872 18.1514V14.464C8.35863 14.3866 8.32786 14.3124 8.27315 14.2577C8.21843 14.203 8.14425 14.1722 8.06688 14.1722L4.3792 14.1718Z" fill="#202020"/>
<path d="M8.99872 16.0409H3.44768C3.27794 16.0409 3.11515 15.9735 2.99513 15.8535C2.87511 15.7335 2.80768 15.5707 2.80768 15.4009C2.80768 15.2312 2.87511 15.0684 2.99513 14.9484C3.11515 14.8284 3.27794 14.7609 3.44768 14.7609H8.99872C9.16846 14.7609 9.33124 14.8284 9.45127 14.9484C9.57129 15.0684 9.63872 15.2312 9.63872 15.4009C9.63872 15.5707 9.57129 15.7335 9.45127 15.8535C9.33124 15.9735 9.16846 16.0409 8.99872 16.0409ZM17.616 10.7254C16.9086 10.7255 16.2171 10.5158 15.6288 10.1228C15.0406 9.72984 14.5821 9.17127 14.3114 8.51773C14.0406 7.86419 13.9698 7.14503 14.1077 6.45121C14.2457 5.75739 14.5863 5.12007 15.0865 4.61983C15.5867 4.1196 16.224 3.77892 16.9178 3.64089C17.6116 3.50286 18.3308 3.57367 18.9843 3.84437C19.6379 4.11507 20.1965 4.57349 20.5895 5.16168C20.9825 5.74986 21.1923 6.44138 21.1923 7.14878C21.1913 8.097 20.8142 9.00609 20.1437 9.67662C19.4733 10.3471 18.5642 10.7243 17.616 10.7254ZM17.616 4.85247C17.1617 4.8524 16.7177 4.98705 16.3399 5.23939C15.9622 5.49172 15.6678 5.8504 15.4939 6.27007C15.3201 6.68974 15.2745 7.15154 15.3632 7.59708C15.4518 8.04261 15.6705 8.45186 15.9917 8.77307C16.3129 9.09429 16.7222 9.31303 17.1677 9.40163C17.6132 9.49024 18.075 9.44473 18.4947 9.27086C18.9144 9.09699 19.2731 8.80258 19.5254 8.42485C19.7777 8.04712 19.9124 7.60304 19.9123 7.14878C19.9116 6.53997 19.6695 5.95629 19.239 5.52579C18.8085 5.09529 18.2248 4.85314 17.616 4.85247Z" fill="#202020"/>
</svg>
