<svg width="24" height="24" viewBox="0 0 24 24" fill="none" xmlns="http://www.w3.org/2000/svg">
<path d="M20.2245 4.95411C17.9913 2.70954 14.4053 2.56604 11.9999 4.625C9.59467 2.56604 6.00879 2.70954 3.77576 4.95411C1.41199 7.33411 1.41199 11.1757 3.77576 13.5557L10.3339 20.1357C10.7738 20.5809 11.374 20.8307 11.9999 20.8291C12.6257 20.8306 13.2259 20.5808 13.6659 20.1357L20.2245 13.5557C22.5878 11.1755 22.5878 7.33429 20.2245 4.95411ZM19.5156 12.8506L12.957 19.4307C12.4221 19.9443 11.5772 19.9443 11.0424 19.4307L4.48383 12.8506C2.50824 10.8605 2.50824 7.6493 4.48383 5.65918C5.43036 4.70404 6.72015 4.16797 8.06482 4.1709C9.40955 4.16797 10.6994 4.70404 11.6459 5.65918C11.8439 5.84864 12.1559 5.84864 12.3539 5.65918C12.3597 5.65345 12.3654 5.64771 12.3712 5.64197C14.3488 3.67383 17.5474 3.68158 19.5156 5.65918C21.4911 7.6493 21.4911 10.8605 19.5156 12.8506Z" fill="#202020"/>
</svg>
