<svg width="24" height="24" viewBox="0 0 24 24" fill="none" xmlns="http://www.w3.org/2000/svg">
<path d="M7.34783 18.959C6.67993 18.959 6.02703 18.761 5.47171 18.3899C4.91639 18.0188 4.48359 17.4913 4.22807 16.8742C3.97255 16.2571 3.90577 15.5781 4.03619 14.9231C4.16661 14.268 4.48836 13.6663 4.96075 13.1942C5.43315 12.722 6.03495 12.4005 6.69006 12.2704C7.34517 12.1403 8.02415 12.2074 8.64113 12.4632C9.2581 12.7191 9.78535 13.1521 10.1562 13.7076C10.527 14.2631 10.7248 14.9161 10.7245 15.584C10.7231 16.479 10.3669 17.3369 9.73388 17.9696C9.10089 18.6023 8.24281 18.9581 7.34783 18.959ZM7.34783 13.487C6.93317 13.487 6.52782 13.61 6.18303 13.8404C5.83825 14.0707 5.56952 14.3982 5.41082 14.7812C5.25212 15.1643 5.21058 15.5859 5.29146 15.9926C5.37233 16.3993 5.57198 16.7729 5.86517 17.0661C6.15836 17.3593 6.53191 17.559 6.9386 17.64C7.34529 17.7209 7.76684 17.6794 8.14996 17.5208C8.53308 17.3622 8.86055 17.0935 9.09097 16.7487C9.32139 16.404 9.44441 15.9987 9.44447 15.584C9.44422 15.0279 9.22329 14.4946 8.8302 14.1012C8.4371 13.7078 7.90396 13.4864 7.34783 13.4858V13.487Z" fill="#202020"/>
<path d="M7.96257 16.8499C7.87798 16.85 7.79421 16.8333 7.71615 16.8007C7.63809 16.7681 7.56728 16.7203 7.50785 16.6602L6.27777 15.4176C6.15835 15.297 6.09176 15.1338 6.09263 14.9641C6.0935 14.7943 6.16176 14.6319 6.28241 14.5125C6.40305 14.3931 6.56618 14.3265 6.73593 14.3273C6.90567 14.3282 7.06811 14.3965 7.18753 14.5171L8.41761 15.7597C8.50647 15.8495 8.56678 15.9635 8.59094 16.0875C8.61511 16.2115 8.60204 16.3399 8.55338 16.4564C8.50473 16.573 8.42266 16.6726 8.31753 16.7426C8.21239 16.8126 8.08889 16.85 7.96257 16.8499Z" fill="#202020"/>
<path d="M6.72639 16.8249C6.59956 16.8249 6.4756 16.7872 6.37023 16.7166C6.26487 16.646 6.18287 16.5457 6.13462 16.4284C6.08638 16.3111 6.07408 16.1821 6.09928 16.0578C6.12447 15.9335 6.18604 15.8195 6.27615 15.7302L7.51999 14.5001C7.64063 14.3807 7.80377 14.3141 7.97351 14.315C8.14326 14.3159 8.3057 14.3841 8.42511 14.5048C8.54452 14.6254 8.61112 14.7886 8.61025 14.9583C8.60938 15.1281 8.54111 15.2905 8.42047 15.4099L7.17663 16.64C7.05677 16.7585 6.89497 16.825 6.72639 16.8249Z" fill="#202020"/>
<path d="M18.8912 18.5555H11.2077C11.0379 18.5555 10.8752 18.4881 10.7551 18.3681C10.6351 18.248 10.5677 18.0853 10.5677 17.9155C10.5677 17.7458 10.6351 17.583 10.7551 17.463C10.8752 17.3429 11.0379 17.2755 11.2077 17.2755H18.8912C19.1259 17.275 19.3508 17.1815 19.5166 17.0155C19.6825 16.8494 19.7757 16.6244 19.776 16.3898V10.4291H5.87199C5.70226 10.4291 5.53947 10.3617 5.41945 10.2417C5.29942 10.1216 5.23199 9.95886 5.23199 9.78912V8.44512C5.23267 7.87093 5.46107 7.32045 5.86708 6.91444C6.27309 6.50843 6.82357 6.28004 7.39775 6.27936H18.8912C19.465 6.2802 20.0151 6.50851 20.4209 6.91423C20.8267 7.31996 21.0551 7.87001 21.056 8.44384V9.77504C21.056 9.77952 21.056 9.78432 21.056 9.78912C21.056 9.79392 21.056 9.79872 21.056 9.80352V16.3898C21.0554 16.9638 20.8272 17.5142 20.4213 17.9202C20.0155 18.3262 19.4652 18.5547 18.8912 18.5555ZM6.51199 9.14912H19.776V8.44512C19.7757 8.21033 19.6824 7.98523 19.5164 7.81918C19.3504 7.65314 19.1253 7.5597 18.8906 7.55936H7.39775C7.16291 7.55961 6.93777 7.65301 6.77171 7.81907C6.60565 7.98513 6.51225 8.21028 6.51199 8.44512V9.14912Z" fill="#202020"/>
<path d="M18.4893 14.4198H17.088C16.9183 14.4198 16.7555 14.3524 16.6354 14.2324C16.5154 14.1124 16.448 13.9496 16.448 13.7798C16.448 13.6101 16.5154 13.4473 16.6354 13.3273C16.7555 13.2073 16.9183 13.1398 17.088 13.1398H18.4883C18.6581 13.1398 18.8208 13.2073 18.9409 13.3273C19.0609 13.4473 19.1283 13.6101 19.1283 13.7798C19.1283 13.9496 19.0609 14.1124 18.9409 14.2324C18.8208 14.3524 18.6581 14.4198 18.4883 14.4198H18.4893ZM5.87199 12.192C5.70226 12.192 5.53947 12.1246 5.41945 12.0045C5.29942 11.8845 5.23199 11.7217 5.23199 11.552V9.78911C5.23199 9.61937 5.29942 9.45658 5.41945 9.33656C5.53947 9.21654 5.70226 9.14911 5.87199 9.14911C6.04173 9.14911 6.20452 9.21654 6.32454 9.33656C6.44457 9.45658 6.51199 9.61937 6.51199 9.78911V11.552C6.51199 11.7217 6.44457 11.8845 6.32454 12.0045C6.20452 12.1246 6.04173 12.192 5.87199 12.192Z" fill="#202020"/>
</svg>
