<svg width="24" height="24" viewBox="0 0 24 24" fill="none" xmlns="http://www.w3.org/2000/svg">
<path d="M16.8282 18.0519H7.23841C7.06867 18.0519 6.90588 17.9844 6.78586 17.8644C6.66584 17.7444 6.59841 17.5816 6.59841 17.4119C6.59841 17.2421 6.66584 17.0793 6.78586 16.9593C6.90588 16.8393 7.06867 16.7719 7.23841 16.7719H16.8282C17.1178 16.7715 17.3955 16.6564 17.6004 16.4518C17.8053 16.2471 17.9208 15.9696 17.9216 15.68V9.92545H4.01665C3.84691 9.92545 3.68412 9.85803 3.5641 9.738C3.44408 9.61798 3.37665 9.45519 3.37665 9.28545V8.14785C3.37733 7.51859 3.6276 6.91529 4.07256 6.47033C4.51752 6.02537 5.12082 5.77509 5.75009 5.77441H16.8282C17.4574 5.77518 18.0607 6.02548 18.5056 6.47042C18.9505 6.91536 19.2008 7.51861 19.2016 8.14785V15.68C19.2004 16.309 18.9499 16.9118 18.505 17.3564C18.0601 17.801 17.4571 18.0511 16.8282 18.0519ZM4.65665 8.64545H17.9216V8.14785C17.9213 7.85796 17.806 7.58004 17.601 7.37505C17.396 7.17006 17.1181 7.05475 16.8282 7.05441H5.75009C5.46019 7.05475 5.18227 7.17006 4.97728 7.37505C4.7723 7.58004 4.65699 7.85796 4.65665 8.14785V8.64545Z" fill="#202020"/>
<path d="M16.6342 12.1363H15.2336C15.0639 12.1363 14.9011 12.0689 14.7811 11.9489C14.661 11.8289 14.5936 11.6661 14.5936 11.4963C14.5936 11.3266 14.661 11.1638 14.7811 11.0438C14.9011 10.9238 15.0639 10.8563 15.2336 10.8563H16.6342C16.804 10.8563 16.9668 10.9238 17.0868 11.0438C17.2068 11.1638 17.2742 11.3266 17.2742 11.4963C17.2742 11.6661 17.2068 11.8289 17.0868 11.9489C16.9668 12.0689 16.804 12.1363 16.6342 12.1363ZM12.6896 12.1363H11.2893C11.1195 12.1363 10.9568 12.0689 10.8367 11.9489C10.7167 11.8289 10.6493 11.6661 10.6493 11.4963C10.6493 11.3266 10.7167 11.1638 10.8367 11.0438C10.9568 10.9238 11.1195 10.8563 11.2893 10.8563H12.6896C12.8593 10.8563 13.0221 10.9238 13.1422 11.0438C13.2622 11.1638 13.3296 11.3266 13.3296 11.4963C13.3296 11.6661 13.2622 11.8289 13.1422 11.9489C13.0221 12.0689 12.8593 12.1363 12.6896 12.1363ZM4.01665 12.64C3.84691 12.64 3.68412 12.5726 3.5641 12.4526C3.44408 12.3325 3.37665 12.1697 3.37665 12V9.28545C3.37665 9.11571 3.44408 8.95292 3.5641 8.8329C3.68412 8.71287 3.84691 8.64545 4.01665 8.64545C4.18639 8.64545 4.34917 8.71287 4.4692 8.8329C4.58922 8.95292 4.65665 9.11571 4.65665 9.28545V12C4.65665 12.1697 4.58922 12.3325 4.4692 12.4526C4.34917 12.5726 4.18639 12.64 4.01665 12.64ZM4.16833 17.8851C3.99859 17.8851 3.8358 17.8177 3.71578 17.6977C3.59576 17.5777 3.52833 17.4149 3.52833 17.2451V13.856C3.52833 13.6863 3.59576 13.5235 3.71578 13.4035C3.8358 13.2834 3.99859 13.216 4.16833 13.216C4.33807 13.216 4.50085 13.2834 4.62088 13.4035C4.7409 13.5235 4.80833 13.6863 4.80833 13.856V17.2451C4.80833 17.4149 4.7409 17.5777 4.62088 17.6977C4.50085 17.8177 4.33807 17.8851 4.16833 17.8851Z" fill="#202020"/>
<path d="M5.40797 16.0461C5.30696 16.0462 5.20736 16.0224 5.11732 15.9766C5.02727 15.9308 4.94934 15.8644 4.88989 15.7827L4.19197 14.8227L3.36317 15.7907C3.2511 15.9134 3.0957 15.9877 2.92985 15.9978C2.76399 16.008 2.60068 15.9533 2.47446 15.8452C2.34823 15.7371 2.26898 15.5842 2.25347 15.4188C2.23796 15.2533 2.2874 15.0883 2.39133 14.9587L3.74653 13.376C3.80942 13.3027 3.88808 13.2445 3.97663 13.2059C4.06517 13.1674 4.1613 13.1493 4.25782 13.1532C4.35433 13.157 4.44872 13.1826 4.53391 13.2282C4.6191 13.2737 4.69289 13.3379 4.74973 13.416L5.92445 15.0291C5.99399 15.1245 6.03578 15.2373 6.04521 15.3549C6.05463 15.4726 6.03133 15.5906 5.97788 15.6959C5.92442 15.8011 5.8429 15.8895 5.74232 15.9513C5.64174 16.0131 5.52602 16.0459 5.40797 16.0461Z" fill="#202020"/>
</svg>
