<svg width="24" height="24" viewBox="0 0 24 24" fill="none" xmlns="http://www.w3.org/2000/svg">
<path d="M18.1088 18.0519H8.51905C8.34931 18.0519 8.18652 17.9844 8.0665 17.8644C7.94648 17.7444 7.87905 17.5816 7.87905 17.4119C7.87905 17.2421 7.94648 17.0793 8.0665 16.9593C8.18652 16.8393 8.34931 16.7719 8.51905 16.7719H18.1088C18.3984 16.7715 18.676 16.6564 18.8809 16.4518C19.0858 16.2471 19.2013 15.9696 19.2019 15.68V9.92545H5.29729C5.12755 9.92545 4.96476 9.85803 4.84474 9.738C4.72472 9.61798 4.65729 9.45519 4.65729 9.28545V8.14785C4.65797 7.51859 4.90824 6.91529 5.3532 6.47033C5.79816 6.02537 6.40146 5.77509 7.03073 5.77441H18.1088C18.738 5.77518 19.3412 6.02549 19.7861 6.47044C20.231 6.91539 20.4812 7.51864 20.4819 8.14785V9.27105C20.4819 9.27585 20.4819 9.28065 20.4819 9.28545C20.4819 9.29025 20.4819 9.29505 20.4819 9.29953V15.68C20.4807 16.3089 20.2303 16.9117 19.7855 17.3563C19.3406 17.8009 18.7377 18.051 18.1088 18.0519ZM5.93729 8.64545H19.2019V8.14785C19.2017 7.85799 19.0864 7.58006 18.8815 7.37507C18.6766 7.17007 18.3987 7.05475 18.1088 7.05441H7.03073C6.74083 7.05475 6.46291 7.17006 6.25792 7.37505C6.05294 7.58004 5.93763 7.85796 5.93729 8.14785V8.64545Z" fill="#202020"/>
<path d="M17.9146 12.1363H16.5142C16.3445 12.1363 16.1817 12.0689 16.0617 11.9489C15.9417 11.8289 15.8742 11.6661 15.8742 11.4963C15.8742 11.3266 15.9417 11.1638 16.0617 11.0438C16.1817 10.9238 16.3445 10.8563 16.5142 10.8563H17.9146C18.0843 10.8563 18.2471 10.9238 18.3671 11.0438C18.4871 11.1638 18.5546 11.3266 18.5546 11.4963C18.5546 11.6661 18.4871 11.8289 18.3671 11.9489C18.2471 12.0689 18.0843 12.1363 17.9146 12.1363ZM13.9702 12.1363H12.5696C12.3999 12.1363 12.2371 12.0689 12.1171 11.9489C11.997 11.8289 11.9296 11.6661 11.9296 11.4963C11.9296 11.3266 11.997 11.1638 12.1171 11.0438C12.2371 10.9238 12.3999 10.8563 12.5696 10.8563H13.9702C14.14 10.8563 14.3028 10.9238 14.4228 11.0438C14.5428 11.1638 14.6102 11.3266 14.6102 11.4963C14.6102 11.6661 14.5428 11.8289 14.4228 11.9489C14.3028 12.0689 14.14 12.1363 13.9702 12.1363ZM5.29729 12.64C5.12755 12.64 4.96476 12.5726 4.84474 12.4526C4.72472 12.3325 4.65729 12.1697 4.65729 12V9.28545C4.65729 9.11571 4.72472 8.95292 4.84474 8.8329C4.96476 8.71287 5.12755 8.64545 5.29729 8.64545C5.46703 8.64545 5.62981 8.71287 5.74984 8.8329C5.86986 8.95292 5.93729 9.11571 5.93729 9.28545V12C5.93729 12.1697 5.86986 12.3325 5.74984 12.4526C5.62981 12.5726 5.46703 12.64 5.29729 12.64ZM5.43425 17.8214C5.26703 17.8215 5.10643 17.7561 4.98683 17.6392C4.86722 17.5224 4.79809 17.3633 4.79425 17.1962L4.71681 13.8086C4.71489 13.7246 4.72955 13.641 4.75994 13.5627C4.79033 13.4843 4.83585 13.4127 4.89392 13.3519C4.95198 13.2912 5.02144 13.2424 5.09834 13.2085C5.17524 13.1746 5.25806 13.1562 5.34209 13.1542H5.35713C5.52435 13.1542 5.68494 13.2196 5.80455 13.3365C5.92416 13.4533 5.99328 13.6124 5.99713 13.7795L6.07489 17.167C6.07875 17.3367 6.01509 17.5009 5.89789 17.6236C5.7807 17.7464 5.61957 17.8175 5.44993 17.8214H5.43425Z" fill="#202020"/>
<path d="M5.37217 17.888H5.36129C5.26469 17.8861 5.16978 17.8624 5.08365 17.8186C4.99753 17.7748 4.92244 17.7121 4.86401 17.6352L3.65281 16.0496C3.60179 15.9828 3.56443 15.9066 3.54286 15.8254C3.52129 15.7441 3.51593 15.6594 3.52709 15.5761C3.53825 15.4928 3.5657 15.4125 3.60789 15.3399C3.65008 15.2672 3.70617 15.2035 3.77297 15.1525C3.83976 15.1015 3.91595 15.0641 3.99719 15.0425C4.07842 15.021 4.16311 15.0156 4.24641 15.0267C4.32972 15.0379 4.41001 15.0654 4.48271 15.1076C4.5554 15.1497 4.61907 15.2058 4.67009 15.2726L5.38977 16.215L6.19585 15.2297C6.24907 15.1646 6.3146 15.1106 6.3887 15.0708C6.46279 15.031 6.54401 15.0062 6.6277 14.9977C6.71139 14.9893 6.79592 14.9974 6.87647 15.0217C6.95701 15.0459 7.03199 15.0858 7.09713 15.139C7.16226 15.1923 7.21628 15.2578 7.25609 15.3319C7.2959 15.406 7.32072 15.4872 7.32915 15.5709C7.33757 15.6546 7.32943 15.7391 7.30519 15.8196C7.28094 15.9002 7.24107 15.9752 7.18785 16.0403L5.86913 17.6521C5.80904 17.7259 5.73325 17.7854 5.64728 17.8262C5.56131 17.867 5.46733 17.8881 5.37217 17.888Z" fill="#202020"/>
</svg>
