<svg width="24" height="24" viewBox="0 0 24 24" fill="none" xmlns="http://www.w3.org/2000/svg">
<path d="M9.19172 11.4256H5.51812C4.9798 11.4246 4.46383 11.2102 4.0833 10.8295C3.70277 10.4487 3.48871 9.93261 3.48804 9.39429V5.97765C3.48871 5.43911 3.70295 4.92282 4.08376 4.54201C4.46456 4.1612 4.98085 3.94697 5.5194 3.94629H9.193C9.73154 3.94697 10.2478 4.1612 10.6286 4.54201C11.0094 4.92282 11.2237 5.43911 11.2244 5.97765V9.39429C11.2237 9.93305 11.0093 10.4495 10.6282 10.8304C10.2471 11.2112 9.73048 11.4253 9.19172 11.4256ZM5.51812 5.22629C5.31912 5.2268 5.12843 5.30616 4.98784 5.447C4.84725 5.58783 4.76821 5.77865 4.76804 5.97765V9.39429C4.76821 9.59351 4.84742 9.78452 4.98829 9.92539C5.12916 10.0663 5.32018 10.1455 5.5194 10.1456H9.193C9.39219 10.1454 9.58316 10.0662 9.72401 9.9253C9.86486 9.78445 9.9441 9.59348 9.94436 9.39429V5.97765C9.9441 5.77845 9.86486 5.58749 9.72401 5.44664C9.58316 5.30579 9.39219 5.22654 9.193 5.22629H5.51812ZM9.19172 20.049H5.51812C4.9798 20.048 4.46383 19.8336 4.0833 19.4528C3.70277 19.0721 3.48871 18.556 3.48804 18.0176V14.601C3.48871 14.0625 3.70295 13.5462 4.08376 13.1654C4.46456 12.7846 4.98085 12.5703 5.5194 12.5696H9.193C9.73154 12.5703 10.2478 12.7846 10.6286 13.1654C11.0094 13.5462 11.2237 14.0625 11.2244 14.601V18.0176C11.2237 18.5564 11.0093 19.0729 10.6282 19.4537C10.2471 19.8346 9.73048 20.0487 9.19172 20.049ZM5.51812 13.8496C5.31914 13.8502 5.12851 13.9296 4.98793 14.0704C4.84736 14.2113 4.76829 14.402 4.76804 14.601V18.0176C4.76821 18.2169 4.84742 18.4079 4.98829 18.5488C5.12916 18.6896 5.32018 18.7688 5.5194 18.769H9.193C9.39219 18.7688 9.58316 18.6895 9.72401 18.5487C9.86486 18.4078 9.9441 18.2168 9.94436 18.0176V14.601C9.94402 14.4018 9.86475 14.2109 9.72391 14.0701C9.58308 13.9293 9.39217 13.85 9.193 13.8496H5.51812ZM18.13 11.4256H14.4564C13.9178 11.425 13.4015 11.2107 13.0207 10.8299C12.6399 10.4491 12.4257 9.93283 12.425 9.39429V5.97765C12.4257 5.43911 12.6399 4.92282 13.0207 4.54201C13.4015 4.1612 13.9178 3.94697 14.4564 3.94629H18.13C18.6683 3.9473 19.1842 4.16169 19.5648 4.54246C19.9453 4.92323 20.1594 5.43933 20.16 5.97765V9.39429C20.1594 9.93261 19.9453 10.4487 19.5648 10.8295C19.1842 11.2102 18.6683 11.4246 18.13 11.4256ZM14.4564 5.22629C14.2572 5.22654 14.0662 5.30579 13.9253 5.44664C13.7845 5.58749 13.7053 5.77845 13.705 5.97765V9.39429C13.7053 9.59348 13.7845 9.78445 13.9253 9.9253C14.0662 10.0662 14.2572 10.1454 14.4564 10.1456H18.13C18.329 10.1451 18.5196 10.0658 18.6602 9.92494C18.8008 9.78411 18.8799 9.59329 18.88 9.39429V5.97765C18.8799 5.77843 18.8007 5.58742 18.6598 5.44654C18.5189 5.30567 18.3279 5.22646 18.1287 5.22629H14.4564ZM18.13 20.049H14.4564C13.9178 20.0483 13.4015 19.8341 13.0207 19.4533C12.6399 19.0725 12.4257 18.5562 12.425 18.0176V14.601C12.4257 14.0625 12.6399 13.5462 13.0207 13.1654C13.4015 12.7846 13.9178 12.5703 14.4564 12.5696H18.13C18.6683 12.5707 19.1842 12.785 19.5648 13.1658C19.9453 13.5466 20.1594 14.0627 20.16 14.601V18.0176C20.1594 18.556 19.9453 19.0721 19.5648 19.4528C19.1842 19.8336 18.6683 20.048 18.13 20.049ZM14.4564 13.8496C14.2572 13.85 14.0663 13.9293 13.9254 14.0701C13.7846 14.2109 13.7053 14.4018 13.705 14.601V18.0176C13.7053 18.2168 13.7845 18.4078 13.9253 18.5487C14.0662 18.6895 14.2572 18.7688 14.4564 18.769H18.13C18.329 18.7685 18.5196 18.6891 18.6602 18.5483C18.8008 18.4075 18.8799 18.2166 18.88 18.0176V14.601C18.8798 14.4018 18.8005 14.2108 18.6597 14.07C18.5188 13.9291 18.3279 13.8499 18.1287 13.8496H14.4564Z" fill="#202020"/>
</svg>
