<svg width="24" height="24" viewBox="0 0 24 24" fill="none" xmlns="http://www.w3.org/2000/svg">
<path d="M7.7648 17.5408H7.1568C6.74048 17.5404 6.34133 17.3748 6.04694 17.0804C5.75256 16.786 5.58698 16.3869 5.58656 15.9706V11.3562C5.58707 10.9399 5.75268 10.5408 6.04705 10.2465C6.34143 9.95219 6.74053 9.78666 7.1568 9.78624H7.7648C8.18107 9.78666 8.58017 9.95219 8.87455 10.2465C9.16892 10.5408 9.33453 10.9399 9.33504 11.3562V15.9706C9.33462 16.3869 9.16904 16.786 8.87466 17.0804C8.58027 17.3748 8.18112 17.5404 7.7648 17.5408ZM7.1568 11.0662C7.07988 11.0662 7.0061 11.0968 6.95168 11.1511C6.89726 11.2055 6.86665 11.2792 6.86656 11.3562V15.9706C6.86665 16.0475 6.89725 16.1213 6.95166 16.1757C7.00608 16.2301 7.07985 16.2607 7.1568 16.2608H7.7648C7.84175 16.2607 7.91553 16.2301 7.96994 16.1757C8.02435 16.1213 8.05496 16.0475 8.05504 15.9706V11.3562C8.05496 11.2792 8.02434 11.2055 7.96992 11.1511C7.9155 11.0968 7.84172 11.0662 7.7648 11.0662H7.1568ZM12.2221 17.5408H11.616C11.1997 17.5403 10.8007 17.3747 10.5063 17.0803C10.212 16.7859 10.0465 16.3868 10.0461 15.9706V9.00512C10.0465 8.58885 10.212 8.18975 10.5063 7.89537C10.8007 7.601 11.1997 7.43539 11.616 7.43488H12.224C12.6399 7.43589 13.0385 7.60173 13.3324 7.89605C13.6263 8.19037 13.7916 8.58918 13.792 9.00512V15.9706C13.7916 16.3868 13.626 16.7859 13.3317 17.0803C13.0374 17.3747 12.6383 17.5403 12.2221 17.5408ZM11.616 8.71488C11.5391 8.71496 11.4653 8.74558 11.411 8.8C11.3566 8.85442 11.3261 8.9282 11.3261 9.00512V15.9706C11.3261 16.0475 11.3566 16.1213 11.411 16.1757C11.4653 16.2301 11.5391 16.2607 11.616 16.2608H12.224C12.3009 16.2606 12.3746 16.23 12.4289 16.1756C12.4833 16.1212 12.5138 16.0475 12.5139 15.9706V9.00512C12.5138 8.92822 12.4833 8.8545 12.4289 8.80009C12.3746 8.74569 12.3009 8.71505 12.224 8.71488H11.616ZM16.6534 17.5408H16.0454C15.6292 17.5403 15.2301 17.3747 14.9358 17.0803C14.6415 16.7859 14.4759 16.3868 14.4755 15.9706V6.10848C14.4759 5.69221 14.6415 5.29311 14.9358 4.99873C15.2301 4.70436 15.6292 4.53875 16.0454 4.53824H16.6534C17.0697 4.53875 17.4688 4.70436 17.7631 4.99873C18.0574 5.29311 18.2229 5.69221 18.2234 6.10848V15.9706C18.2229 16.3868 18.0574 16.7859 17.7631 17.0803C17.4688 17.3747 17.0697 17.5403 16.6534 17.5408ZM16.0454 5.81824C15.9685 5.81832 15.8948 5.84894 15.8404 5.90336C15.7861 5.95778 15.7555 6.03156 15.7555 6.10848V15.9706C15.7555 16.0475 15.7861 16.1213 15.8404 16.1757C15.8948 16.2301 15.9685 16.2607 16.0454 16.2608H16.6534C16.7303 16.2606 16.804 16.23 16.8584 16.1756C16.9127 16.1212 16.9433 16.0475 16.9434 15.9706V6.10848C16.9433 6.03158 16.9127 5.95786 16.8584 5.90345C16.804 5.84905 16.7303 5.81841 16.6534 5.81824H16.0454ZM18.944 19.4618H5.056C4.88626 19.4618 4.72348 19.3943 4.60345 19.2743C4.48343 19.1543 4.416 18.9915 4.416 18.8218C4.416 18.652 4.48343 18.4892 4.60345 18.3692C4.72348 18.2492 4.88626 18.1818 5.056 18.1818H18.944C19.1137 18.1818 19.2765 18.2492 19.3966 18.3692C19.5166 18.4892 19.584 18.652 19.584 18.8218C19.584 18.9915 19.5166 19.1543 19.3966 19.2743C19.2765 19.3943 19.1137 19.4618 18.944 19.4618Z" fill="#202020"/>
</svg>
