<svg width="24" height="24" viewBox="0 0 24 24" fill="none" xmlns="http://www.w3.org/2000/svg">
<path d="M11.728 20.2502C10.2147 20.2501 8.73066 19.8339 7.43809 19.047C6.14551 18.2601 5.09424 17.1329 4.39926 15.7886C3.70429 14.4444 3.39238 12.9349 3.49765 11.4253C3.60293 9.91576 4.12134 8.46419 4.99617 7.22944C5.04403 7.15902 5.10546 7.09886 5.17686 7.05248C5.24827 7.0061 5.32821 6.97443 5.412 6.95933C5.4958 6.94424 5.58177 6.94601 5.66487 6.96456C5.74797 6.9831 5.82653 7.01804 5.89596 7.06732C5.96539 7.11661 6.02428 7.17926 6.0692 7.25159C6.11411 7.32393 6.14414 7.4045 6.15753 7.48858C6.17091 7.57267 6.16738 7.65858 6.14715 7.74129C6.12691 7.82399 6.09038 7.90183 6.03969 7.97024C5.20258 9.14693 4.75436 10.5559 4.75777 12C4.75777 15.8435 7.88449 18.9702 11.728 18.9702C15.5715 18.9702 18.6982 15.8435 18.6982 12C18.6982 8.15648 15.5715 5.02976 11.728 5.02976C11.5583 5.02976 11.3955 4.96233 11.2755 4.8423C11.1554 4.72228 11.088 4.55949 11.088 4.38976C11.088 4.22002 11.1554 4.05723 11.2755 3.93721C11.3955 3.81718 11.5583 3.74976 11.728 3.74976C13.9161 3.74976 16.0146 4.61897 17.5618 6.16619C19.109 7.71341 19.9782 9.8119 19.9782 12C19.9782 14.1881 19.109 16.2866 17.5618 17.8338C16.0146 19.381 13.9161 20.2502 11.728 20.2502Z" fill="#202020"/>
<path d="M11.728 17.6455C8.61501 17.6455 6.08253 15.113 6.08253 12.0001C6.07999 10.8303 6.44329 9.68906 7.12157 8.73605C7.21985 8.59763 7.36909 8.50392 7.53646 8.47554C7.70384 8.44715 7.87563 8.48642 8.01405 8.58469C8.15247 8.68297 8.24619 8.83221 8.27457 8.99959C8.30296 9.16696 8.26369 9.33875 8.16541 9.47717C7.64117 10.2138 7.36044 11.0959 7.36253 12.0001C7.36253 14.4071 9.32093 16.3655 11.728 16.3655C14.135 16.3655 16.0934 14.4071 16.0934 12.0001C16.0934 9.59301 14.1353 7.63461 11.728 7.63461C11.5582 7.63461 11.3954 7.56719 11.2754 7.44716C11.1554 7.32714 11.088 7.16435 11.088 6.99461C11.088 6.82488 11.1554 6.66209 11.2754 6.54207C11.3954 6.42204 11.5582 6.35461 11.728 6.35461C14.8409 6.35461 17.3734 8.88709 17.3734 12.0001C17.3734 15.113 14.8409 17.6455 11.728 17.6455Z" fill="#202020"/>
<path d="M11.728 15.2876C11.5583 15.2876 11.3955 15.2202 11.2755 15.1002C11.1554 14.9802 11.088 14.8174 11.088 14.6476C11.088 14.4779 11.1554 14.3151 11.2755 14.1951C11.3955 14.0751 11.5583 14.0076 11.728 14.0076C12.2605 14.0076 12.7711 13.7961 13.1477 13.4196C13.5242 13.0431 13.7357 12.5324 13.7357 12C13.7357 11.4675 13.5242 10.9568 13.1477 10.5803C12.7711 10.2038 12.2605 9.99228 11.728 9.99228C11.5583 9.99228 11.3955 9.92485 11.2755 9.80483C11.1554 9.6848 11.088 9.52202 11.088 9.35228C11.088 9.18254 11.1554 9.01975 11.2755 8.89973C11.3955 8.77971 11.5583 8.71228 11.728 8.71228C12.6 8.71228 13.4362 9.05866 14.0528 9.67522C14.6693 10.2918 15.0157 11.128 15.0157 12C15.0157 12.8719 14.6693 13.7081 14.0528 14.3247C13.4362 14.9413 12.6 15.2876 11.728 15.2876Z" fill="#202020"/>
</svg>
