<svg width="24" height="24" viewBox="0 0 24 24" fill="none" xmlns="http://www.w3.org/2000/svg">
<path d="M11.7281 20.2502C10.2149 20.2501 8.73079 19.8339 7.43821 19.047C6.14564 18.2601 5.09436 17.1329 4.39939 15.7886C3.70441 14.4444 3.3925 12.9349 3.49778 11.4253C3.60305 9.91576 4.12146 8.46419 4.99629 7.22944C5.04415 7.15902 5.10558 7.09886 5.17699 7.05248C5.24839 7.0061 5.32833 6.97443 5.41213 6.95933C5.49592 6.94424 5.58189 6.94601 5.66499 6.96456C5.74809 6.9831 5.82665 7.01804 5.89608 7.06732C5.96551 7.11661 6.02441 7.17926 6.06932 7.25159C6.11423 7.32393 6.14426 7.4045 6.15765 7.48858C6.17103 7.57267 6.1675 7.65858 6.14727 7.74129C6.12704 7.82399 6.0905 7.90183 6.03981 7.97024C5.20271 9.14693 4.75449 10.5559 4.75789 12C4.75789 15.8435 7.88461 18.9702 11.7281 18.9702C15.5716 18.9702 18.6984 15.8435 18.6984 12C18.6984 8.15648 15.5716 5.02976 11.7281 5.02976C11.5584 5.02976 11.3956 4.96233 11.2756 4.8423C11.1556 4.72228 11.0881 4.55949 11.0881 4.38976C11.0881 4.22002 11.1556 4.05723 11.2756 3.93721C11.3956 3.81718 11.5584 3.74976 11.7281 3.74976C13.9162 3.74976 16.0147 4.61897 17.5619 6.16619C19.1091 7.71341 19.9784 9.8119 19.9784 12C19.9784 14.1881 19.1091 16.2866 17.5619 17.8338C16.0147 19.381 13.9162 20.2502 11.7281 20.2502Z" fill="#202020"/>
<path d="M11.728 17.6455C8.61501 17.6455 6.08253 15.113 6.08253 12.0001C6.07999 10.8303 6.44329 9.68906 7.12157 8.73605C7.21985 8.59763 7.36909 8.50392 7.53646 8.47554C7.70384 8.44715 7.87563 8.48642 8.01405 8.58469C8.15247 8.68297 8.24619 8.83221 8.27457 8.99959C8.30296 9.16696 8.26369 9.33875 8.16541 9.47717C7.64117 10.2138 7.36044 11.0959 7.36253 12.0001C7.36253 14.4071 9.32093 16.3655 11.728 16.3655C14.135 16.3655 16.0934 14.4071 16.0934 12.0001C16.0934 9.59301 14.1353 7.63461 11.728 7.63461C11.5582 7.63461 11.3954 7.56719 11.2754 7.44716C11.1554 7.32714 11.088 7.16435 11.088 6.99461C11.088 6.82488 11.1554 6.66209 11.2754 6.54207C11.3954 6.42204 11.5582 6.35461 11.728 6.35461C14.8409 6.35461 17.3734 8.88709 17.3734 12.0001C17.3734 15.113 14.8409 17.6455 11.728 17.6455Z" fill="#202020"/>
<path d="M11.7281 15.2878C11.5584 15.2878 11.3956 15.2203 11.2756 15.1003C11.1556 14.9803 11.0881 14.8175 11.0881 14.6478C11.0881 14.478 11.1556 14.3152 11.2756 14.1952C11.3956 14.0752 11.5584 14.0078 11.7281 14.0078C12.2606 14.0078 12.7713 13.7962 13.1478 13.4197C13.5243 13.0432 13.7358 12.5326 13.7358 12.0001C13.7358 11.4676 13.5243 10.957 13.1478 10.5804C12.7713 10.2039 12.2606 9.9924 11.7281 9.9924C11.5584 9.9924 11.3956 9.92497 11.2756 9.80495C11.1556 9.68493 11.0881 9.52214 11.0881 9.3524C11.0881 9.18266 11.1556 9.01988 11.2756 8.89985C11.3956 8.77983 11.5584 8.7124 11.7281 8.7124C12.6001 8.7124 13.4363 9.05878 14.0529 9.67534C14.6694 10.2919 15.0158 11.1281 15.0158 12.0001C15.0158 12.872 14.6694 13.7083 14.0529 14.3248C13.4363 14.9414 12.6001 15.2878 11.7281 15.2878Z" fill="#202020"/>
</svg>
