<svg width="24" height="24" viewBox="0 0 24 24" fill="none" xmlns="http://www.w3.org/2000/svg">
<path d="M15.9792 19.456H7.41088C6.62873 19.4551 5.87886 19.1441 5.32579 18.591C4.77273 18.0379 4.46165 17.2881 4.4608 16.5059V7.936C4.46173 7.1539 4.77285 6.40411 5.32591 5.85112C5.87896 5.29812 6.62879 4.98708 7.41088 4.98624H14.0538C14.2235 4.98624 14.3863 5.05366 14.5063 5.17369C14.6263 5.29371 14.6938 5.4565 14.6938 5.62624C14.6938 5.79598 14.6263 5.95876 14.5063 6.07878C14.3863 6.19881 14.2235 6.26624 14.0538 6.26624H7.41088C6.96813 6.26666 6.54364 6.44271 6.23054 6.75575C5.91744 7.06879 5.74131 7.49325 5.7408 7.936V16.5043C5.74088 16.9474 5.91682 17.3723 6.22995 17.6857C6.54309 17.9992 6.96783 18.1755 7.41088 18.176H15.9792C16.422 18.1755 16.8465 17.9994 17.1596 17.6863C17.4727 17.3732 17.6488 16.9487 17.6493 16.5059V9.01792C17.6493 8.84818 17.7167 8.68539 17.8367 8.56537C17.9568 8.44535 18.1195 8.37792 18.2893 8.37792C18.459 8.37792 18.6218 8.44535 18.7418 8.56537C18.8619 8.68539 18.9293 8.84818 18.9293 9.01792V16.5059C18.9284 17.2881 18.6173 18.0379 18.0643 18.591C17.5112 19.1441 16.7613 19.4551 15.9792 19.456Z" fill="#202020"/>
<path d="M8.49729 14.5107C8.32755 14.5107 8.16476 14.4433 8.04474 14.3233C7.92471 14.2032 7.85728 14.0405 7.85728 13.8707V9.92928C7.85728 9.75954 7.92471 9.59675 8.04474 9.47673C8.16476 9.35671 8.32755 9.28928 8.49729 9.28928C8.66702 9.28928 8.82981 9.35671 8.94983 9.47673C9.06986 9.59675 9.13729 9.75954 9.13729 9.92928V13.8707C9.13729 14.0405 9.06986 14.2032 8.94983 14.3233C8.82981 14.4433 8.66702 14.5107 8.49729 14.5107ZM11.695 14.5107C11.5253 14.5107 11.3625 14.4433 11.2425 14.3233C11.1225 14.2032 11.055 14.0405 11.055 13.8707V9.92928C11.055 9.75954 11.1225 9.59675 11.2425 9.47673C11.3625 9.35671 11.5253 9.28928 11.695 9.28928C11.8648 9.28928 12.0276 9.35671 12.1476 9.47673C12.2676 9.59675 12.335 9.75954 12.335 9.92928V13.8707C12.335 14.0405 12.2676 14.2032 12.1476 14.3233C12.0276 14.4433 11.8648 14.5107 11.695 14.5107ZM14.8928 14.5107C14.7231 14.5107 14.5603 14.4433 14.4403 14.3233C14.3202 14.2032 14.2528 14.0405 14.2528 13.8707V9.92928C14.2528 9.75954 14.3202 9.59675 14.4403 9.47673C14.5603 9.35671 14.7231 9.28928 14.8928 9.28928C15.0625 9.28928 15.2253 9.35671 15.3454 9.47673C15.4654 9.59675 15.5328 9.75954 15.5328 9.92928V13.8707C15.5328 14.0405 15.4654 14.2032 15.3454 14.3233C15.2253 14.4433 15.0625 14.5107 14.8928 14.5107ZM17.6669 7.27424C17.5015 7.27455 17.3424 7.21052 17.2234 7.09568L15.4614 5.4016C15.3973 5.34426 15.3454 5.27458 15.3088 5.19673C15.2722 5.11887 15.2517 5.03444 15.2485 4.94847C15.2452 4.86251 15.2594 4.77677 15.29 4.69639C15.3207 4.61602 15.3672 4.54265 15.4269 4.48066C15.4866 4.41868 15.5581 4.36937 15.6372 4.33566C15.7164 4.30195 15.8015 4.28455 15.8876 4.28449C15.9736 4.28442 16.0587 4.3017 16.1379 4.3353C16.2171 4.36889 16.2887 4.4181 16.3485 4.48L18.112 6.17312C18.2039 6.2616 18.2673 6.37555 18.294 6.50032C18.3207 6.62509 18.3095 6.755 18.2618 6.87336C18.2142 6.99171 18.1322 7.09312 18.0265 7.16455C17.9208 7.23598 17.7961 7.27418 17.6685 7.27424H17.6669Z" fill="#202020"/>
<path d="M15.904 7.27425C15.7764 7.27419 15.6517 7.236 15.546 7.16456C15.4403 7.09313 15.3583 6.99173 15.3106 6.87337C15.263 6.75501 15.2518 6.62511 15.2785 6.50033C15.3052 6.37556 15.3686 6.26162 15.4605 6.17313L17.2234 4.48001C17.3456 4.36217 17.5096 4.29771 17.6793 4.3008C17.8491 4.30389 18.0106 4.37428 18.1285 4.49649C18.2463 4.6187 18.3108 4.78272 18.3077 4.95247C18.3046 5.12221 18.2342 5.28377 18.112 5.40161L16.3501 7.09569C16.2304 7.21109 16.0703 7.27516 15.904 7.27425Z" fill="#202020"/>
</svg>
