<svg width="24" height="24" viewBox="0 0 24 24" fill="none" xmlns="http://www.w3.org/2000/svg">
<path d="M16.2842 19.2342H7.71584C6.93371 19.2333 6.18389 18.9222 5.63085 18.3691C5.0778 17.8161 4.76669 17.0663 4.76576 16.2841V7.71583C4.76669 6.9337 5.0778 6.18388 5.63085 5.63083C6.18389 5.07779 6.93371 4.76668 7.71584 4.76575H16.2842C17.0663 4.76668 17.8161 5.07779 18.3692 5.63083C18.9222 6.18388 19.2333 6.9337 19.2342 7.71583V16.2841C19.2333 17.0663 18.9222 17.8161 18.3692 18.3691C17.8161 18.9222 17.0663 19.2333 16.2842 19.2342ZM7.71584 6.04575C7.27306 6.04626 6.84857 6.22237 6.53548 6.53546C6.22238 6.84855 6.04627 7.27305 6.04576 7.71583V16.2841C6.04627 16.7269 6.22238 17.1514 6.53548 17.4645C6.84857 17.7776 7.27306 17.9537 7.71584 17.9542H16.2842C16.7269 17.9537 17.1514 17.7776 17.4645 17.4645C17.7776 17.1514 17.9537 16.7269 17.9542 16.2841V7.71583C17.9537 7.27305 17.7776 6.84855 17.4645 6.53546C17.1514 6.22237 16.7269 6.04626 16.2842 6.04575H7.71584Z" fill="#202020"/>
<path d="M14.8547 17.1568H14.5683C14.0713 17.1561 13.5949 16.9584 13.2434 16.6069C12.892 16.2554 12.6944 15.7789 12.6938 15.2819V9.34882C12.6943 8.85178 12.8919 8.37524 13.2433 8.02375C13.5948 7.67226 14.0713 7.47453 14.5683 7.47394H14.8547C15.3518 7.47453 15.8283 7.67226 16.1797 8.02375C16.5311 8.37524 16.7288 8.85178 16.7293 9.34882V15.2819C16.7287 15.7789 16.531 16.2554 16.1796 16.6069C15.8282 16.9584 15.3517 17.1561 14.8547 17.1568ZM14.5683 8.75394C14.4107 8.75419 14.2595 8.81696 14.1481 8.92847C14.0366 9.03999 13.9739 9.19115 13.9738 9.34882V15.2819C13.9739 15.4396 14.0366 15.5908 14.1481 15.7023C14.2595 15.8138 14.4107 15.8766 14.5683 15.8768H14.8547C15.0124 15.8766 15.1636 15.8139 15.2751 15.7024C15.3865 15.5908 15.4492 15.4396 15.4493 15.2819V9.34882C15.4492 9.19113 15.3865 9.03992 15.2751 8.92838C15.1636 8.81685 15.0124 8.75411 14.8547 8.75394H14.5683ZM9.56512 17.1568H9.28C8.78293 17.1562 8.3064 16.9585 7.95492 16.607C7.60344 16.2555 7.40571 15.779 7.40512 15.2819V13.5501C7.40571 13.053 7.60344 12.5765 7.95492 12.225C8.3064 11.8735 8.78293 11.6758 9.28 11.6752H9.56608C10.0631 11.6758 10.5397 11.8735 10.8912 12.225C11.2426 12.5765 11.4404 13.053 11.441 13.5501V15.2819C11.4404 15.7792 11.2425 16.2559 10.8908 16.6074C10.5391 16.9589 10.0624 17.1565 9.56512 17.1568ZM9.28 12.9552C9.12228 12.9554 8.97107 13.0181 8.85954 13.1296C8.74802 13.2412 8.68529 13.3924 8.68512 13.5501V15.2819C8.68529 15.4397 8.74802 15.5909 8.85954 15.7024C8.97107 15.8139 9.12228 15.8766 9.28 15.8768H9.56608C9.7238 15.8766 9.87501 15.8139 9.98654 15.7024C10.0981 15.5909 10.1608 15.4397 10.161 15.2819V13.5501C10.1608 13.3924 10.0981 13.2412 9.98654 13.1296C9.87501 13.0181 9.7238 12.9554 9.56608 12.9552H9.28Z" fill="#202020"/>
</svg>
