<svg width="24" height="24" viewBox="0 0 24 24" fill="none" xmlns="http://www.w3.org/2000/svg">
<path d="M18.75 9H18V6.75C18 6.25754 17.903 5.76991 17.7145 5.31494C17.5261 4.85997 17.2499 4.44657 16.9017 4.09835C16.5534 3.75013 16.14 3.47391 15.6851 3.28545C15.2301 3.097 14.7425 3 14.25 3H3.75C3.15326 3 2.58097 3.23705 2.15901 3.65901C1.73705 4.08097 1.5 4.65326 1.5 5.25V9.75C1.5 10.7446 1.89509 11.6984 2.59835 12.4017C3.30161 13.1049 4.25544 13.5 5.25 13.5H6V17.25C6 18.2446 6.39509 19.1984 7.09835 19.9016C7.80161 20.6049 8.75544 21 9.75 21H20.25C20.8467 21 21.419 20.7629 21.841 20.341C22.2629 19.919 22.5 19.3467 22.5 18.75V12.75C22.5 11.7554 22.1049 10.8016 21.4016 10.0983C20.6984 9.39509 19.7446 9 18.75 9ZM3 9.75V5.25C3 5.05109 3.07902 4.86032 3.21967 4.71967C3.36032 4.57902 3.55109 4.5 3.75 4.5H14.25C14.8467 4.5 15.419 4.73705 15.841 5.15901C16.2629 5.58097 16.5 6.15326 16.5 6.75V9H9.75C8.88551 8.99982 8.04751 9.29834 7.37782 9.84502C6.70814 10.3917 6.2479 11.153 6.075 12H5.25C4.65326 12 4.08097 11.7629 3.65901 11.341C3.23705 10.919 3 10.3467 3 9.75ZM21 18.75C21 18.9489 20.921 19.1397 20.7803 19.2803C20.6397 19.421 20.4489 19.5 20.25 19.5H9.75C9.15326 19.5 8.58097 19.2629 8.15901 18.841C7.73705 18.419 7.5 17.8467 7.5 17.25V12.75C7.49837 12.4938 7.54414 12.2395 7.635 12C7.78973 11.5623 8.07605 11.1832 8.4547 10.9147C8.83335 10.6462 9.28579 10.5013 9.75 10.5H18.75C19.3467 10.5 19.919 10.7371 20.341 11.159C20.7629 11.581 21 12.1533 21 12.75V18.75Z" fill="#202020"/>
<path d="M12.75 6.75C12.75 6.55109 12.671 6.36032 12.5303 6.21967C12.3897 6.07902 12.1989 6 12 6H5.25C5.05109 6 4.86032 6.07902 4.71967 6.21967C4.57902 6.36032 4.5 6.55109 4.5 6.75C4.5 6.94891 4.57902 7.13968 4.71967 7.28033C4.86032 7.42098 5.05109 7.5 5.25 7.5H12C12.1989 7.5 12.3897 7.42098 12.5303 7.28033C12.671 7.13968 12.75 6.94891 12.75 6.75ZM18.75 15.75H12C11.8011 15.75 11.6103 15.829 11.4697 15.9697C11.329 16.1103 11.25 16.3011 11.25 16.5C11.25 16.6989 11.329 16.8897 11.4697 17.0303C11.6103 17.171 11.8011 17.25 12 17.25H18.75C18.9489 17.25 19.1397 17.171 19.2803 17.0303C19.421 16.8897 19.5 16.6989 19.5 16.5C19.5 16.3011 19.421 16.1103 19.2803 15.9697C19.1397 15.829 18.9489 15.75 18.75 15.75ZM18.75 12.75H9.75C9.55109 12.75 9.36032 12.829 9.21967 12.9697C9.07902 13.1103 9 13.3011 9 13.5C9 13.6989 9.07902 13.8897 9.21967 14.0303C9.36032 14.171 9.55109 14.25 9.75 14.25H18.75C18.9489 14.25 19.1397 14.171 19.2803 14.0303C19.421 13.8897 19.5 13.6989 19.5 13.5C19.5 13.3011 19.421 13.1103 19.2803 12.9697C19.1397 12.829 18.9489 12.75 18.75 12.75Z" fill="#202020"/>
</svg>
