<svg width="24" height="24" viewBox="0 0 24 24" fill="none" xmlns="http://www.w3.org/2000/svg">
<path d="M17.032 21.0397H6.96801C6.06022 21.0387 5.1899 20.6776 4.548 20.0357C3.90609 19.3938 3.54502 18.5235 3.54401 17.6157V7.55205C3.54401 6.64395 3.90475 5.77304 4.54687 5.13092C5.189 4.48879 6.0599 4.12805 6.96801 4.12805H8.02913C8.19886 4.12805 8.36165 4.19548 8.48167 4.3155C8.6017 4.43553 8.66913 4.59831 8.66913 4.76805C8.66913 4.93779 8.6017 5.10058 8.48167 5.2206C8.36165 5.34062 8.19886 5.40805 8.02913 5.40805H6.96801C6.39938 5.40805 5.85405 5.63394 5.45197 6.03601C5.04989 6.43809 4.82401 6.98343 4.82401 7.55205V17.6161C4.82451 18.1845 5.05056 18.7296 5.45253 19.1315C5.8545 19.5335 6.39954 19.7595 6.96801 19.7601H17.032C17.6005 19.7595 18.1455 19.5335 18.5475 19.1315C18.9494 18.7296 19.1755 18.1845 19.176 17.6161V7.55205C19.1755 6.98358 18.9494 6.43854 18.5475 6.03658C18.1455 5.63461 17.6005 5.40856 17.032 5.40805H16.0179C15.8482 5.40805 15.6854 5.34062 15.5654 5.2206C15.4454 5.10058 15.3779 4.93779 15.3779 4.76805C15.3779 4.59831 15.4454 4.43553 15.5654 4.3155C15.6854 4.19548 15.8482 4.12805 16.0179 4.12805H17.032C17.9398 4.12907 18.8101 4.49014 19.452 5.13204C20.0939 5.77394 20.455 6.64426 20.456 7.55205V17.6161C20.4549 18.5238 20.0938 19.394 19.4519 20.0359C18.81 20.6777 17.9397 21.0387 17.032 21.0397Z" fill="#202020"/>
<path d="M15.3879 6.79298H8.61219C8.31211 6.79264 8.02442 6.67329 7.81223 6.4611C7.60004 6.24891 7.48069 5.96122 7.48035 5.66114V4.09314C7.48069 3.79307 7.60004 3.50537 7.81223 3.29319C8.02442 3.081 8.31211 2.96164 8.61219 2.9613H15.3879C15.6879 2.96164 15.9756 3.081 16.1878 3.29319C16.4 3.50537 16.5194 3.79307 16.5197 4.09314V5.66114C16.5194 5.96122 16.4 6.24891 16.1878 6.4611C15.9756 6.67329 15.6879 6.79264 15.3879 6.79298ZM8.76035 5.51298H15.2397V4.24034H8.76035V5.51298ZM13.737 14.961C13.6529 14.9611 13.5697 14.9447 13.492 14.9125C13.4143 14.8803 13.3438 14.833 13.2845 14.7735L9.81059 11.2995C9.69401 11.1788 9.6295 11.0172 9.63096 10.8494C9.63241 10.6816 9.69972 10.521 9.81838 10.4024C9.93704 10.2837 10.0976 10.2164 10.2654 10.215C10.4332 10.2135 10.5948 10.278 10.7155 10.3946L14.1895 13.8685C14.2789 13.958 14.3399 14.072 14.3646 14.1962C14.3892 14.3203 14.3766 14.449 14.3281 14.5659C14.2797 14.6828 14.1977 14.7828 14.0925 14.8531C13.9873 14.9234 13.8635 14.961 13.737 14.961Z" fill="#202020"/>
<path d="M10.263 14.9609C10.1365 14.9609 10.0128 14.9233 9.90754 14.853C9.80232 14.7827 9.72031 14.6827 9.67188 14.5658C9.62345 14.4489 9.61078 14.3202 9.63546 14.1961C9.66014 14.0719 9.72107 13.9579 9.81055 13.8684L13.2845 10.3945C13.4052 10.2779 13.5668 10.2134 13.7347 10.2149C13.9025 10.2163 14.063 10.2836 14.1816 10.4023C14.3003 10.521 14.3676 10.6815 14.3691 10.8493C14.3705 11.0171 14.306 11.1788 14.1894 11.2995L10.7155 14.7734C10.6562 14.833 10.5857 14.8802 10.508 14.9124C10.4304 14.9446 10.3471 14.9611 10.263 14.9609Z" fill="#202020"/>
</svg>
