<svg width="24" height="24" viewBox="0 0 24 24" fill="none" xmlns="http://www.w3.org/2000/svg">
<path d="M14.272 17.458H6.60065C5.86851 17.4571 5.16663 17.1658 4.64893 16.6481C4.13123 16.1304 3.83998 15.4285 3.83905 14.6964V7.026C3.8399 6.29384 4.13112 5.59191 4.64884 5.07419C5.16656 4.55648 5.86849 4.26525 6.60065 4.2644H14.272C15.0042 4.26517 15.7062 4.55637 16.2239 5.0741C16.7416 5.59184 17.0328 6.29382 17.0336 7.026V14.6964C17.0328 15.4286 16.7415 16.1305 16.2238 16.6482C15.7061 17.1659 15.0042 17.4572 14.272 17.458ZM6.60161 5.5444C6.2088 5.54483 5.83219 5.70106 5.55443 5.97882C5.27667 6.25659 5.12043 6.63319 5.12001 7.026V14.6964C5.12043 15.0892 5.27667 15.4658 5.55443 15.7436C5.83219 16.0213 6.2088 16.1776 6.60161 16.178H14.272C14.6648 16.1776 15.0414 16.0213 15.3192 15.7436C15.597 15.4658 15.7532 15.0892 15.7536 14.6964V7.026C15.7532 6.63319 15.597 6.25659 15.3192 5.97882C15.0414 5.70106 14.6648 5.54483 14.272 5.5444H6.60161Z" fill="#202020"/>
<path d="M15.424 19.7364C15.1791 19.7363 14.9352 19.705 14.6982 19.6433L6.21569 17.4477C6.13273 17.4282 6.0545 17.3924 5.98559 17.3422C5.91669 17.2921 5.85849 17.2287 5.81441 17.1557C5.77034 17.0828 5.74127 17.0018 5.72892 16.9175C5.71657 16.8331 5.72119 16.7472 5.7425 16.6647C5.76381 16.5822 5.80139 16.5048 5.85302 16.437C5.90466 16.3692 5.96931 16.3124 6.04319 16.2699C6.11708 16.2274 6.1987 16.2001 6.28327 16.1896C6.36784 16.1791 6.45366 16.1856 6.53569 16.2087L15.0186 18.4042C15.2216 18.4568 15.433 18.4688 15.6406 18.4396C15.8483 18.4105 16.0482 18.3407 16.2289 18.2343C16.4096 18.1279 16.5675 17.9869 16.6937 17.8195C16.82 17.652 16.912 17.4613 16.9645 17.2583L18.8288 10.0561C18.8813 9.85305 18.8934 9.64168 18.8642 9.43401C18.8351 9.22635 18.7653 9.02647 18.6589 8.84577C18.5525 8.66507 18.4115 8.5071 18.244 8.38089C18.0766 8.25467 17.8859 8.16267 17.6829 8.11014L17.6771 8.10854L16.2266 7.71846C16.1454 7.69665 16.0693 7.65907 16.0027 7.60786C15.936 7.55665 15.8801 7.49281 15.8382 7.42C15.7962 7.34718 15.769 7.26681 15.7581 7.18347C15.7471 7.10014 15.7528 7.01547 15.7746 6.9343C15.7964 6.85314 15.834 6.77706 15.8852 6.71042C15.9364 6.64377 16.0002 6.58787 16.073 6.5459C16.1459 6.50393 16.2262 6.47671 16.3096 6.4658C16.3929 6.45488 16.4776 6.46049 16.5587 6.4823L18.007 6.87174C18.7451 7.06345 19.3768 7.54036 19.7634 8.19766C20.1499 8.85495 20.2597 9.63884 20.0685 10.377L18.2042 17.5793C18.0444 18.1955 17.6849 18.7415 17.1818 19.1318C16.6788 19.5221 16.0607 19.7347 15.424 19.7364ZM7.52865 9.40358C7.20549 9.40358 6.88959 9.30776 6.62089 9.12822C6.35219 8.94868 6.14277 8.6935 6.0191 8.39494C5.89543 8.09638 5.86308 7.76785 5.92612 7.4509C5.98917 7.13395 6.14478 6.84281 6.37329 6.61431C6.6018 6.3858 6.89294 6.23018 7.20989 6.16714C7.52683 6.10409 7.85536 6.13645 8.15392 6.26012C8.45248 6.38379 8.70766 6.59321 8.8872 6.86191C9.06674 7.1306 9.16257 7.4465 9.16257 7.76966C9.16206 8.20285 8.98975 8.61815 8.68344 8.92446C8.37713 9.23077 7.96183 9.40307 7.52865 9.40358ZM7.52865 7.41574C7.45865 7.41574 7.39022 7.4365 7.33202 7.47539C7.27382 7.51428 7.22846 7.56955 7.20167 7.63422C7.17488 7.69889 7.16787 7.77006 7.18153 7.83871C7.19518 7.90736 7.22889 7.97043 7.27839 8.01992C7.32788 8.06942 7.39095 8.10313 7.4596 8.11678C7.52825 8.13044 7.59942 8.12343 7.66409 8.09664C7.72876 8.06986 7.78403 8.02449 7.82292 7.96629C7.86181 7.90809 7.88257 7.83966 7.88257 7.76966C7.88248 7.67582 7.84517 7.58585 7.77881 7.5195C7.71246 7.45314 7.62249 7.41583 7.52865 7.41574Z" fill="#202020"/>
</svg>
