<svg width="24" height="24" viewBox="0 0 24 24" fill="none" xmlns="http://www.w3.org/2000/svg">
<path d="M17.2992 20.704C17.2151 20.7042 17.1319 20.6878 17.0542 20.6559C16.9764 20.6239 16.9058 20.5769 16.8462 20.5176C16.7866 20.4584 16.7393 20.3879 16.7069 20.3104C16.6746 20.2328 16.6578 20.1496 16.6576 20.0656C16.6574 19.9815 16.6737 19.8982 16.7057 19.8205C16.7377 19.7428 16.7846 19.6721 16.8439 19.6125C16.9032 19.553 16.9736 19.5056 17.0512 19.4733C17.1288 19.4409 17.2119 19.4242 17.296 19.424L18.969 19.4156L18.9917 17.6476C18.9927 17.5636 19.0104 17.4806 19.0435 17.4033C19.0767 17.3261 19.1247 17.2562 19.1849 17.1975C19.2451 17.1388 19.3162 17.0926 19.3943 17.0614C19.4724 17.0302 19.5558 17.0147 19.6398 17.0158C19.7239 17.0169 19.8069 17.0345 19.8841 17.0676C19.9614 17.1008 20.0313 17.1488 20.09 17.209C20.1487 17.2692 20.1949 17.3404 20.2261 17.4184C20.2573 17.4965 20.2727 17.5799 20.2717 17.664L20.2397 20.0608C20.2375 20.2285 20.1695 20.3887 20.0504 20.5068C19.9313 20.625 19.7706 20.6916 19.6029 20.6924L17.3024 20.704H17.2992Z" fill="#202020"/>
<path d="M19.601 20.5949C19.5147 20.595 19.4292 20.5776 19.3498 20.5438C19.2704 20.5099 19.1987 20.4604 19.1389 20.3981L15.4432 16.5472C15.3257 16.4248 15.2616 16.2606 15.2651 16.0909C15.2685 15.9212 15.3393 15.7598 15.4618 15.6423C15.5842 15.5247 15.7484 15.4607 15.9181 15.4641C16.0878 15.4676 16.2492 15.5384 16.3667 15.6609L20.064 19.5117C20.1509 19.6022 20.2092 19.7163 20.2318 19.8396C20.2544 19.963 20.2403 20.0904 20.1911 20.2058C20.1419 20.3212 20.0599 20.4196 19.9553 20.4888C19.8507 20.558 19.728 20.5949 19.6026 20.5949H19.601ZM15.8797 21.0397H6.96801C6.06022 21.0387 5.1899 20.6776 4.548 20.0357C3.90609 19.3938 3.54502 18.5235 3.54401 17.6157V7.55205C3.54401 6.64395 3.90475 5.77304 4.54687 5.13092C5.189 4.48879 6.0599 4.12805 6.96801 4.12805H8.02913C8.19886 4.12805 8.36165 4.19548 8.48167 4.3155C8.6017 4.43553 8.66913 4.59831 8.66913 4.76805C8.66913 4.93779 8.6017 5.10058 8.48167 5.2206C8.36165 5.34062 8.19886 5.40805 8.02913 5.40805H6.96801C6.39938 5.40805 5.85405 5.63394 5.45197 6.03601C5.04989 6.43809 4.82401 6.98343 4.82401 7.55205V17.6161C4.82451 18.1845 5.05056 18.7296 5.45253 19.1315C5.8545 19.5335 6.39954 19.7595 6.96801 19.7601H15.8797C16.0494 19.7601 16.2122 19.8275 16.3322 19.9475C16.4523 20.0675 16.5197 20.2303 16.5197 20.4001C16.5197 20.5698 16.4523 20.7326 16.3322 20.8526C16.2122 20.9726 16.0494 21.0401 15.8797 21.0401V21.0397ZM19.8157 16.8743C19.6459 16.8743 19.4832 16.8069 19.3631 16.6868C19.2431 16.5668 19.1757 16.404 19.1757 16.2343V7.55205C19.1752 6.98358 18.9491 6.43854 18.5472 6.03658C18.1452 5.63461 17.6002 5.40856 17.0317 5.40805H16.0179C15.8482 5.40805 15.6854 5.34062 15.5654 5.2206C15.4454 5.10058 15.3779 4.93779 15.3779 4.76805C15.3779 4.59831 15.4454 4.43553 15.5654 4.3155C15.6854 4.19548 15.8482 4.12805 16.0179 4.12805H17.032C17.9398 4.12907 18.8101 4.49014 19.452 5.13204C20.0939 5.77394 20.455 6.64426 20.456 7.55205V16.2343C20.456 16.3184 20.4394 16.4016 20.4073 16.4793C20.3751 16.557 20.3279 16.6275 20.2684 16.687C20.209 16.7464 20.1384 16.7935 20.0607 16.8257C19.983 16.8578 19.8998 16.8743 19.8157 16.8743Z" fill="#202020"/>
<path d="M15.3879 6.79298H8.61219C8.31211 6.79264 8.02442 6.67329 7.81223 6.4611C7.60004 6.24891 7.48069 5.96122 7.48035 5.66114V4.09314C7.48069 3.79307 7.60004 3.50537 7.81223 3.29319C8.02442 3.081 8.31211 2.96164 8.61219 2.9613H15.3879C15.6879 2.96164 15.9756 3.081 16.1878 3.29319C16.4 3.50537 16.5194 3.79307 16.5197 4.09314V5.66114C16.5194 5.96122 16.4 6.24891 16.1878 6.4611C15.9756 6.67329 15.6879 6.79264 15.3879 6.79298ZM8.76035 5.51298H15.2397V4.24034H8.76035V5.51298Z" fill="#202020"/>
</svg>
