<svg width="24" height="24" viewBox="0 0 24 24" fill="none" xmlns="http://www.w3.org/2000/svg">
<path d="M17.0319 20.4557H6.96795C6.06016 20.4547 5.18984 20.0936 4.54793 19.4517C3.90603 18.8098 3.54496 17.9395 3.54395 17.0317V6.96801C3.54496 6.06022 3.90603 5.1899 4.54793 4.548C5.18984 3.90609 6.06016 3.54502 6.96795 3.54401H17.0319C17.9397 3.54502 18.8101 3.90609 19.452 4.548C20.0939 5.1899 20.4549 6.06022 20.4559 6.96801V17.032C20.4559 17.9401 20.0952 18.811 19.4531 19.4531C18.811 20.0953 17.94 20.456 17.0319 20.456V20.4557ZM6.96795 4.82433C6.39948 4.82483 5.85444 5.05088 5.45247 5.45285C5.0505 5.85482 4.82445 6.39986 4.82395 6.96833V17.0323C4.82445 17.6008 5.0505 18.1458 5.45247 18.5478C5.85444 18.9498 6.39948 19.1758 6.96795 19.1763H17.0319C17.3135 19.1763 17.5923 19.1209 17.8524 19.0131C18.1125 18.9054 18.3489 18.7475 18.548 18.5484C18.7471 18.3493 18.905 18.1129 19.0127 17.8528C19.1205 17.5927 19.1759 17.3139 19.1759 17.0323V6.96801C19.1754 6.39954 18.9494 5.8545 18.5474 5.45253C18.1455 5.05056 17.6004 4.82451 17.0319 4.82401L6.96795 4.82433Z" fill="#202020"/>
<path d="M9.25664 15.3834C9.13001 15.3834 9.00622 15.3459 8.90093 15.2756C8.79564 15.2052 8.71358 15.1052 8.66514 14.9882C8.6167 14.8712 8.60405 14.7425 8.6288 14.6183C8.65354 14.4941 8.71457 14.3801 8.80416 14.2906L14.2906 8.80419C14.35 8.74475 14.4206 8.6976 14.4982 8.66543C14.5759 8.63326 14.6591 8.6167 14.7432 8.6167C14.8273 8.6167 14.9105 8.63326 14.9882 8.66543C15.0658 8.6976 15.1364 8.74475 15.1958 8.80419C15.2553 8.86363 15.3024 8.9342 15.3346 9.01186C15.3668 9.08953 15.3833 9.17277 15.3833 9.25683C15.3833 9.34089 15.3668 9.42413 15.3346 9.5018C15.3024 9.57946 15.2553 9.65003 15.1958 9.70947L9.70944 15.1959C9.64999 15.2553 9.57939 15.3025 9.5017 15.3347C9.42401 15.3669 9.34073 15.3834 9.25664 15.3834Z" fill="#202020"/>
<path d="M14.7434 15.3834C14.6593 15.3834 14.576 15.3669 14.4983 15.3347C14.4206 15.3025 14.35 15.2553 14.2906 15.1959L8.80419 9.70947C8.74475 9.65003 8.6976 9.57946 8.66543 9.5018C8.63326 9.42413 8.6167 9.34089 8.6167 9.25683C8.6167 9.17277 8.63326 9.08953 8.66543 9.01186C8.6976 8.9342 8.74475 8.86363 8.80419 8.80419C8.86363 8.74475 8.9342 8.6976 9.01186 8.66543C9.08953 8.63326 9.17277 8.6167 9.25683 8.6167C9.34089 8.6167 9.42413 8.63326 9.5018 8.66543C9.57946 8.6976 9.65003 8.74475 9.70947 8.80419L15.1959 14.2906C15.2855 14.3801 15.3465 14.4941 15.3712 14.6183C15.396 14.7425 15.3833 14.8712 15.3349 14.9882C15.2864 15.1052 15.2044 15.2052 15.0991 15.2756C14.9938 15.3459 14.87 15.3834 14.7434 15.3834Z" fill="#202020"/>
</svg>
