<svg width="24" height="24" viewBox="0 0 24 24" fill="none" xmlns="http://www.w3.org/2000/svg">
<path d="M12 20.6807C9.99178 20.6806 8.04571 19.9842 6.49338 18.7101C4.94104 17.4361 3.87849 15.6632 3.48676 13.6935C3.09503 11.7239 3.39837 9.67934 4.34508 7.90827C5.2918 6.1372 6.82331 4.74917 8.67869 3.98069C10.5341 3.21222 12.5985 3.11083 14.5202 3.69382C16.442 4.27681 18.1021 5.50809 19.2178 7.17788C20.3335 8.84767 20.8357 10.8526 20.6389 12.8512C20.442 14.8498 19.5583 16.7182 18.1382 18.1383C17.334 18.9468 16.3774 19.5878 15.3238 20.0242C14.2701 20.4606 13.1404 20.6837 12 20.6807ZM12 4.59937C7.91937 4.59937 4.59937 7.91937 4.59937 12C4.59937 16.0806 7.91937 19.4007 12 19.4007C16.0806 19.4007 19.4006 16.0806 19.4006 12C19.4006 7.91937 16.0806 4.59937 12 4.59937Z" fill="#202020"/>
<path d="M9.25664 15.3834C9.13001 15.3834 9.00622 15.3459 8.90093 15.2755C8.79564 15.2052 8.71358 15.1052 8.66514 14.9882C8.6167 14.8712 8.60405 14.7425 8.6288 14.6183C8.65354 14.4941 8.71457 14.38 8.80416 14.2906L14.2906 8.80416C14.35 8.74472 14.4206 8.69757 14.4982 8.6654C14.5759 8.63323 14.6591 8.61667 14.7432 8.61667C14.8273 8.61667 14.9105 8.63323 14.9882 8.6654C15.0658 8.69757 15.1364 8.74472 15.1958 8.80416C15.2553 8.8636 15.3024 8.93417 15.3346 9.01183C15.3668 9.0895 15.3833 9.17274 15.3833 9.2568C15.3833 9.34086 15.3668 9.4241 15.3346 9.50177C15.3024 9.57943 15.2553 9.65 15.1958 9.70944L9.70944 15.1958C9.64999 15.2553 9.57939 15.3025 9.5017 15.3347C9.42401 15.3668 9.34073 15.3834 9.25664 15.3834Z" fill="#202020"/>
<path d="M14.7434 15.3834C14.6593 15.3834 14.576 15.3668 14.4983 15.3347C14.4206 15.3025 14.35 15.2553 14.2906 15.1958L8.80416 9.70944C8.74472 9.65 8.69757 9.57943 8.6654 9.50177C8.63323 9.4241 8.61667 9.34086 8.61667 9.2568C8.61667 9.17274 8.63323 9.0895 8.6654 9.01183C8.69757 8.93417 8.74472 8.8636 8.80416 8.80416C8.8636 8.74472 8.93417 8.69757 9.01183 8.6654C9.0895 8.63323 9.17274 8.61667 9.2568 8.61667C9.34086 8.61667 9.4241 8.63323 9.50177 8.6654C9.57943 8.69757 9.65 8.74472 9.70944 8.80416L15.1958 14.2906C15.2854 14.38 15.3465 14.4941 15.3712 14.6183C15.3959 14.7425 15.3833 14.8712 15.3349 14.9882C15.2864 15.1052 15.2044 15.2052 15.0991 15.2755C14.9938 15.3459 14.87 15.3834 14.7434 15.3834Z" fill="#202020"/>
</svg>
