<svg width="24" height="24" viewBox="0 0 24 24" fill="none" xmlns="http://www.w3.org/2000/svg">
<path d="M17.032 20.4556H6.96801C6.06022 20.4546 5.1899 20.0935 4.548 19.4516C3.90609 18.8097 3.54502 17.9394 3.54401 17.0316V6.96795C3.54502 6.06016 3.90609 5.18984 4.548 4.54793C5.1899 3.90603 6.06022 3.54496 6.96801 3.54395H17.032C17.9398 3.54496 18.8101 3.90603 19.452 4.54793C20.0939 5.18984 20.455 6.06016 20.456 6.96795V17.0319C20.4549 17.9397 20.0938 18.8099 19.4519 19.4518C18.81 20.0936 17.9397 20.4546 17.032 20.4556ZM6.96801 4.82427C6.39954 4.82477 5.8545 5.05082 5.45253 5.45279C5.05056 5.85476 4.82451 6.3998 4.82401 6.96827V17.0323C4.82451 17.6007 5.05056 18.1458 5.45253 18.5477C5.8545 18.9497 6.39954 19.1758 6.96801 19.1763H17.032C17.6005 19.1758 18.1455 18.9497 18.5475 18.5477C18.9494 18.1458 19.1755 17.6007 19.176 17.0323V6.96795C19.1755 6.39948 18.9494 5.85444 18.5475 5.45247C18.1455 5.0505 17.6005 4.82445 17.032 4.82395L6.96801 4.82427Z" fill="#202020"/>
<path d="M19.8157 7.60813H4.18431C4.01457 7.60813 3.85179 7.5407 3.73176 7.42067C3.61174 7.30065 3.54431 7.13786 3.54431 6.96813C3.54431 6.79839 3.61174 6.6356 3.73176 6.51558C3.85179 6.39555 4.01457 6.32813 4.18431 6.32812H19.8157C19.9854 6.32813 20.1482 6.39555 20.2682 6.51558C20.3882 6.6356 20.4557 6.79839 20.4557 6.96813C20.4557 7.13786 20.3882 7.30065 20.2682 7.42067C20.1482 7.5407 19.9854 7.60813 19.8157 7.60813ZM9.15615 16.4062C8.98981 16.4065 8.82996 16.3417 8.71071 16.2257L7.40095 14.9569C7.34038 14.898 7.29206 14.8277 7.2588 14.75C7.22554 14.6724 7.20798 14.5889 7.20715 14.5044C7.20631 14.4199 7.22222 14.3361 7.25395 14.2578C7.28567 14.1795 7.33259 14.1082 7.39199 14.0481L8.77887 12.644C8.83757 12.5826 8.90789 12.5335 8.98574 12.4996C9.0636 12.4657 9.14743 12.4476 9.23234 12.4464C9.31726 12.4452 9.40156 12.4609 9.48035 12.4926C9.55913 12.5243 9.63082 12.5714 9.69123 12.631C9.75164 12.6907 9.79956 12.7618 9.83221 12.8402C9.86486 12.9186 9.88159 13.0027 9.8814 13.0877C9.88122 13.1726 9.86414 13.2566 9.83115 13.3349C9.79817 13.4131 9.74994 13.4841 9.68927 13.5435L8.75679 14.4878L9.59999 15.3064C9.69157 15.395 9.7546 15.509 9.78099 15.6337C9.80738 15.7584 9.79593 15.8881 9.74811 16.0063C9.70029 16.1245 9.61828 16.2256 9.51259 16.2969C9.4069 16.3681 9.28234 16.4062 9.15487 16.4062H9.15615ZM14.8438 16.4062C14.7165 16.4059 14.5921 16.3677 14.4866 16.2964C14.3811 16.225 14.2993 16.1238 14.2516 16.0057C14.204 15.8876 14.1926 15.758 14.2191 15.6334C14.2455 15.5088 14.3085 15.3949 14.4 15.3064L15.2454 14.4872L14.313 13.5428C14.2523 13.4834 14.2041 13.4125 14.1711 13.3343C14.1381 13.256 14.121 13.172 14.1208 13.087C14.1206 13.0021 14.1374 12.918 14.17 12.8396C14.2027 12.7612 14.2506 12.6901 14.311 12.6304C14.3714 12.5707 14.4431 12.5236 14.5219 12.4919C14.6007 12.4602 14.685 12.4445 14.7699 12.4457C14.8548 12.4469 14.9386 12.465 15.0165 12.4989C15.0943 12.5329 15.1647 12.5819 15.2234 12.6433L16.608 14.0481C16.6674 14.1083 16.7144 14.1796 16.7461 14.258C16.7778 14.3364 16.7936 14.4203 16.7927 14.5049C16.7918 14.5895 16.7741 14.673 16.7407 14.7507C16.7073 14.8284 16.6588 14.8987 16.5981 14.9576L15.2883 16.2264C15.1692 16.3419 15.0098 16.4064 14.8438 16.4062Z" fill="#202020"/>
</svg>
