<svg width="24" height="24" viewBox="0 0 24 24" fill="none" xmlns="http://www.w3.org/2000/svg">
<path d="M17.0319 20.4557H6.96795C6.06016 20.4547 5.18984 20.0936 4.54793 19.4517C3.90603 18.8098 3.54496 17.9395 3.54395 17.0317V6.96801C3.54496 6.06022 3.90603 5.1899 4.54793 4.548C5.18984 3.90609 6.06016 3.54502 6.96795 3.54401H17.0319C17.9397 3.54502 18.8101 3.90609 19.452 4.548C20.0939 5.1899 20.4549 6.06022 20.4559 6.96801V17.032C20.4548 17.9397 20.0937 18.81 19.4518 19.4518C18.8099 20.0936 17.9397 20.4547 17.0319 20.4557ZM6.96795 4.82433C6.39948 4.82483 5.85444 5.05088 5.45247 5.45285C5.0505 5.85482 4.82445 6.39986 4.82395 6.96833V17.0323C4.82445 17.6008 5.0505 18.1458 5.45247 18.5478C5.85444 18.9498 6.39948 19.1758 6.96795 19.1763H17.0319C17.6004 19.1758 18.1455 18.9498 18.5474 18.5478C18.9494 18.1458 19.1754 17.6008 19.1759 17.0323V6.96801C19.1754 6.39954 18.9494 5.8545 18.5474 5.45253C18.1455 5.05056 17.6004 4.82451 17.0319 4.82401L6.96795 4.82433Z" fill="#202020"/>
<path d="M19.8157 7.608H4.18431C4.01457 7.608 3.85179 7.54057 3.73176 7.42055C3.61174 7.30053 3.54431 7.13774 3.54431 6.968C3.54431 6.79826 3.61174 6.63548 3.73176 6.51545C3.85179 6.39543 4.01457 6.328 4.18431 6.328H19.8157C19.9854 6.328 20.1482 6.39543 20.2682 6.51545C20.3882 6.63548 20.4557 6.79826 20.4557 6.968C20.4557 7.13774 20.3882 7.30053 20.2682 7.42055C20.1482 7.54057 19.9854 7.608 19.8157 7.608ZM9.15615 16.4061C8.98981 16.4063 8.82996 16.3416 8.71071 16.2256L7.40095 14.9568C7.34038 14.8979 7.29206 14.8276 7.2588 14.7499C7.22554 14.6722 7.20798 14.5888 7.20715 14.5043C7.20632 14.4198 7.22222 14.336 7.25395 14.2577C7.28567 14.1793 7.33259 14.1081 7.39199 14.048L8.77887 12.6438C8.83757 12.5825 8.90789 12.5334 8.98574 12.4995C9.0636 12.4655 9.14743 12.4474 9.23234 12.4462C9.31726 12.445 9.40156 12.4608 9.48035 12.4925C9.55913 12.5242 9.63082 12.5712 9.69123 12.6309C9.75164 12.6906 9.79956 12.7617 9.83221 12.8401C9.86487 12.9185 9.88159 13.0026 9.88141 13.0876C9.88122 13.1725 9.86414 13.2565 9.83116 13.3348C9.79817 13.413 9.74994 13.4839 9.68927 13.5434L8.75679 14.4877L9.59999 15.3062C9.69158 15.3949 9.7546 15.5089 9.78099 15.6336C9.80738 15.7583 9.79593 15.888 9.74811 16.0062C9.70029 16.1243 9.61828 16.2255 9.51259 16.2968C9.4069 16.368 9.28234 16.4061 9.15487 16.4061H9.15615ZM14.8438 16.4061C14.7165 16.4058 14.5921 16.3676 14.4866 16.2962C14.3811 16.2249 14.2993 16.1237 14.2516 16.0056C14.204 15.8875 14.1926 15.7579 14.2191 15.6333C14.2455 15.5087 14.3085 15.3948 14.4 15.3062L15.2454 14.487L14.313 13.5427C14.2523 13.4833 14.2041 13.4124 14.1711 13.3341C14.1381 13.2559 14.121 13.1718 14.1208 13.0869C14.1206 13.002 14.1374 12.9179 14.17 12.8395C14.2027 12.7611 14.2506 12.69 14.311 12.6303C14.3714 12.5706 14.4431 12.5235 14.5219 12.4918C14.6007 12.4601 14.685 12.4444 14.7699 12.4456C14.8548 12.4468 14.9386 12.4649 15.0165 12.4988C15.0943 12.5327 15.1647 12.5818 15.2234 12.6432L16.608 14.048C16.6674 14.1082 16.7144 14.1795 16.7461 14.2579C16.7778 14.3363 16.7936 14.4202 16.7927 14.5048C16.7918 14.5894 16.7741 14.6729 16.7407 14.7506C16.7073 14.8283 16.6588 14.8986 16.5981 14.9574L15.2883 16.2262C15.1692 16.3418 15.0098 16.4063 14.8438 16.4061Z" fill="#202020"/>
</svg>
