<svg width="24" height="24" viewBox="0 0 24 24" fill="none" xmlns="http://www.w3.org/2000/svg">
<path d="M12.0001 20.6806C9.99185 20.6805 8.04577 19.9841 6.49344 18.7101C4.9411 17.436 3.87855 15.6631 3.48682 13.6935C3.09509 11.7239 3.39843 9.67931 4.34514 7.90824C5.29186 6.13717 6.82337 4.74914 8.67875 3.98066C10.5341 3.21219 12.5986 3.1108 14.5203 3.69379C16.442 4.27677 18.1022 5.50806 19.2179 7.17785C20.3336 8.84764 20.8358 10.8526 20.6389 12.8512C20.4421 14.8497 19.5583 16.7182 18.1383 18.1382C17.3341 18.9468 16.3774 19.5878 15.3238 20.0242C14.2702 20.4606 13.1405 20.6837 12.0001 20.6806ZM12.0001 4.59934C7.91943 4.59934 4.59943 7.91934 4.59943 12C4.59943 16.0806 7.91943 19.4006 12.0001 19.4006C16.0807 19.4006 19.4007 16.0806 19.4007 12C19.4007 7.91934 16.0807 4.59934 12.0001 4.59934Z" fill="#202020"/>
<path d="M9.15627 13.9766C8.98998 13.9766 8.83022 13.9119 8.71083 13.7961L7.40107 12.5273C7.34033 12.4685 7.29186 12.3982 7.25846 12.3205C7.22506 12.2428 7.20738 12.1593 7.20646 12.0747C7.20554 11.9901 7.22138 11.9062 7.25308 11.8278C7.28479 11.7494 7.33171 11.6781 7.39115 11.6179L8.77803 10.2137C8.83672 10.1524 8.90705 10.1033 8.9849 10.0694C9.06276 10.0354 9.14658 10.0173 9.2315 10.0161C9.31641 10.0149 9.40072 10.0307 9.4795 10.0624C9.55829 10.0941 9.62997 10.1411 9.69038 10.2008C9.75079 10.2605 9.79872 10.3316 9.83137 10.41C9.86402 10.4884 9.88074 10.5725 9.88056 10.6575C9.88038 10.7424 9.8633 10.8264 9.83031 10.9047C9.79733 10.9829 9.74909 11.0538 9.68843 11.1133L8.75595 12.0576L9.60011 12.8768C9.69169 12.9654 9.75472 13.0794 9.78111 13.2041C9.8075 13.3288 9.79605 13.4586 9.74823 13.5767C9.70041 13.6949 9.6184 13.7961 9.51271 13.8673C9.40701 13.9386 9.28245 13.9766 9.15499 13.9766H9.15627ZM14.8439 13.9766C14.7166 13.9764 14.5922 13.9381 14.4867 13.8668C14.3812 13.7954 14.2994 13.6942 14.2517 13.5761C14.2041 13.458 14.1927 13.3284 14.2192 13.2038C14.2456 13.0792 14.3086 12.9654 14.4001 12.8768L15.2456 12.0576L14.3131 11.1133C14.2524 11.0538 14.2042 10.9829 14.1712 10.9047C14.1382 10.8264 14.1211 10.7424 14.1209 10.6575C14.1208 10.5725 14.1375 10.4884 14.1701 10.41C14.2028 10.3316 14.2507 10.2605 14.3111 10.2008C14.3715 10.1411 14.4432 10.0941 14.522 10.0624C14.6008 10.0307 14.6851 10.0149 14.77 10.0161C14.8549 10.0173 14.9387 10.0354 15.0166 10.0694C15.0945 10.1033 15.1648 10.1524 15.2235 10.2137L16.6081 11.6179C16.6675 11.6781 16.7145 11.7494 16.7462 11.8278C16.7779 11.9062 16.7937 11.9901 16.7928 12.0747C16.7919 12.1593 16.7742 12.2428 16.7408 12.3205C16.7074 12.3982 16.6589 12.4685 16.5982 12.5273L15.2884 13.7961C15.1693 13.9117 15.0099 13.9764 14.8439 13.9766ZM11.0209 14.7478C10.9144 14.7478 10.8096 14.7212 10.716 14.6704C10.6224 14.6197 10.5429 14.5464 10.4848 14.4571C10.4267 14.3679 10.3917 14.2656 10.3832 14.1594C10.3746 14.0533 10.3926 13.9467 10.4356 13.8493L12.3806 9.44734C12.4133 9.36866 12.4614 9.29731 12.5221 9.23747C12.5828 9.17763 12.6548 9.13052 12.7339 9.09888C12.8131 9.06725 12.8977 9.05174 12.9829 9.05326C13.0681 9.05478 13.1522 9.07331 13.2301 9.10774C13.3081 9.14218 13.3784 9.19184 13.4369 9.2538C13.4954 9.31577 13.5409 9.38879 13.5708 9.46859C13.6007 9.54839 13.6144 9.63336 13.611 9.71851C13.6076 9.80366 13.5873 9.88728 13.5511 9.96446L11.6065 14.368C11.5561 14.4812 11.474 14.5773 11.37 14.6448C11.2661 14.7122 11.1448 14.748 11.0209 14.7478Z" fill="#202020"/>
</svg>
