<svg width="24" height="24" viewBox="0 0 24 24" fill="none" xmlns="http://www.w3.org/2000/svg">
<path d="M16.0133 20.3779H7.44495C6.66286 20.3771 5.91303 20.0661 5.35998 19.5131C4.80692 18.9601 4.4958 18.2103 4.49487 17.4282V8.85955C4.4958 8.07746 4.80692 7.32767 5.35998 6.77467C5.91303 6.22168 6.66286 5.91064 7.44495 5.90979H16.0133C16.7954 5.91064 17.5452 6.22168 18.0982 6.77467C18.6513 7.32767 18.9624 8.07746 18.9634 8.85955V17.4282C18.9624 18.2103 18.6513 18.9601 18.0982 19.5131C17.5452 20.0661 16.7954 20.3771 16.0133 20.3779ZM7.44495 7.18979C7.00221 7.19021 6.57771 7.36626 6.26461 7.6793C5.95151 7.99234 5.77538 8.4168 5.77487 8.85955V17.4282C5.77538 17.8709 5.95151 18.2954 6.26461 18.6084C6.57771 18.9215 7.00221 19.0975 7.44495 19.0979H16.0133C16.456 19.0975 16.8805 18.9215 17.1936 18.6084C17.5067 18.2954 17.6828 17.8709 17.6834 17.4282V8.85955C17.6828 8.4168 17.5067 7.99234 17.1936 7.6793C16.8805 7.36626 16.456 7.19021 16.0133 7.18979H7.44495Z" fill="#202020"/>
<path d="M19.4761 16.0154H18.3241C18.1543 16.0154 17.9916 15.9479 17.8715 15.8279C17.7515 15.7079 17.6841 15.5451 17.6841 15.3754C17.6841 15.2056 17.7515 15.0428 17.8715 14.9228C17.9916 14.8028 18.1543 14.7354 18.3241 14.7354H19.4761C19.7455 14.7351 20.0037 14.628 20.1942 14.4375C20.3847 14.247 20.4918 13.9888 20.4921 13.7194V11.6557C20.4918 11.3863 20.3847 11.128 20.1942 10.9374C20.0038 10.7469 19.7455 10.6397 19.4761 10.6394H18.3241C18.1543 10.6394 17.9916 10.5719 17.8715 10.4519C17.7515 10.3319 17.6841 10.1691 17.6841 9.99938C17.6841 9.82964 17.7515 9.66685 17.8715 9.54683C17.9916 9.4268 18.1543 9.35938 18.3241 9.35938H19.4761C20.0848 9.36014 20.6684 9.60232 21.0989 10.0328C21.5293 10.4633 21.7714 11.0469 21.7721 11.6557V13.7194C21.7713 14.3281 21.5292 14.9116 21.0988 15.3421C20.6683 15.7725 20.0848 16.0146 19.4761 16.0154Z" fill="#202020"/>
<path d="M18.3234 10.0071H5.13487C4.96513 10.0071 4.80235 9.93971 4.68232 9.81968C4.5623 9.69966 4.49487 9.53687 4.49487 9.36714C4.49487 9.1974 4.5623 9.03461 4.68232 8.91459C4.80235 8.79456 4.96513 8.72714 5.13487 8.72714H18.3234C18.4931 8.72714 18.6559 8.79456 18.7759 8.91459C18.8959 9.03461 18.9634 9.1974 18.9634 9.36714C18.9634 9.53687 18.8959 9.69966 18.7759 9.81968C18.6559 9.93971 18.4931 10.0071 18.3234 10.0071ZM8.30223 5.43466C8.13249 5.43466 7.96971 5.36723 7.84968 5.24721C7.72966 5.12718 7.66223 4.9644 7.66223 4.79466V3.84618C7.66223 3.67644 7.72966 3.51365 7.84968 3.39363C7.96971 3.27361 8.13249 3.20618 8.30223 3.20618C8.47197 3.20618 8.63476 3.27361 8.75478 3.39363C8.8748 3.51365 8.94223 3.67644 8.94223 3.84618V4.79466C8.94223 4.8787 8.92568 4.96193 8.89352 5.03957C8.86135 5.11722 8.81421 5.18778 8.75478 5.24721C8.69535 5.30663 8.6248 5.35378 8.54715 5.38594C8.4695 5.4181 8.38628 5.43466 8.30223 5.43466ZM11.7291 5.43466C11.5594 5.43466 11.3966 5.36723 11.2766 5.24721C11.1565 5.12718 11.0891 4.9644 11.0891 4.79466V3.84618C11.0891 3.67644 11.1565 3.51365 11.2766 3.39363C11.3966 3.27361 11.5594 3.20618 11.7291 3.20618C11.8989 3.20618 12.0616 3.27361 12.1817 3.39363C12.3017 3.51365 12.3691 3.67644 12.3691 3.84618V4.79466C12.3691 4.8787 12.3526 4.96193 12.3204 5.03957C12.2882 5.11722 12.2411 5.18778 12.1817 5.24721C12.1222 5.30663 12.0517 5.35378 11.974 5.38594C11.8964 5.4181 11.8132 5.43466 11.7291 5.43466ZM15.156 5.43466C14.9863 5.43466 14.8235 5.36723 14.7034 5.24721C14.5834 5.12718 14.516 4.9644 14.516 4.79466V3.84618C14.516 3.67644 14.5834 3.51365 14.7034 3.39363C14.8235 3.27361 14.9863 3.20618 15.156 3.20618C15.3257 3.20618 15.4885 3.27361 15.6085 3.39363C15.7286 3.51365 15.796 3.67644 15.796 3.84618V4.79466C15.796 4.8787 15.7794 4.96193 15.7473 5.03957C15.7151 5.11722 15.668 5.18778 15.6085 5.24721C15.5491 5.30663 15.4786 5.35378 15.4009 5.38594C15.3233 5.4181 15.24 5.43466 15.156 5.43466Z" fill="#202020"/>
</svg>
