<svg width="24" height="24" viewBox="0 0 24 24" fill="none" xmlns="http://www.w3.org/2000/svg">
<path d="M16.0135 20.3778H7.4452C6.6631 20.377 5.91328 20.0659 5.36022 19.5129C4.80717 18.96 4.49605 18.2102 4.49512 17.4281V8.85943C4.49605 8.07733 4.80717 7.32754 5.36022 6.77455C5.91328 6.22155 6.6631 5.91051 7.4452 5.90967H16.0135C16.7956 5.91051 17.5454 6.22155 18.0985 6.77455C18.6515 7.32754 18.9627 8.07733 18.9636 8.85943V17.4281C18.9627 18.2102 18.6515 18.96 18.0985 19.5129C17.5454 20.0659 16.7956 20.377 16.0135 20.3778ZM7.4452 7.18967C7.00245 7.19009 6.57795 7.36614 6.26485 7.67918C5.95175 7.99222 5.77563 8.41668 5.77512 8.85943V17.4281C5.77563 17.8708 5.95175 18.2953 6.26485 18.6083C6.57795 18.9214 7.00245 19.0974 7.4452 19.0978H16.0135C16.4563 19.0974 16.8808 18.9214 17.1939 18.6083C17.507 18.2953 17.6831 17.8708 17.6836 17.4281V8.85943C17.6831 8.41668 17.507 7.99222 17.1939 7.67918C16.8808 7.36614 16.4563 7.19009 16.0135 7.18967H7.4452Z" fill="#202020"/>
<path d="M19.4766 16.0154H18.3246C18.1548 16.0154 17.992 15.9479 17.872 15.8279C17.752 15.7079 17.6846 15.5451 17.6846 15.3754C17.6846 15.2056 17.752 15.0428 17.872 14.9228C17.992 14.8028 18.1548 14.7354 18.3246 14.7354H19.4766C19.746 14.7351 20.0042 14.628 20.1947 14.4375C20.3852 14.247 20.4923 13.9888 20.4926 13.7194V11.6557C20.4923 11.3863 20.3852 11.128 20.1947 10.9374C20.0043 10.7469 19.746 10.6397 19.4766 10.6394H18.3246C18.1548 10.6394 17.992 10.5719 17.872 10.4519C17.752 10.3319 17.6846 10.1691 17.6846 9.99938C17.6846 9.82964 17.752 9.66685 17.872 9.54683C17.992 9.4268 18.1548 9.35938 18.3246 9.35938H19.4766C20.0853 9.36014 20.6689 9.60232 21.0994 10.0328C21.5298 10.4633 21.7719 11.0469 21.7726 11.6557V13.7194C21.7718 14.3281 21.5297 14.9116 21.0992 15.3421C20.6688 15.7725 20.0853 16.0146 19.4766 16.0154Z" fill="#202020"/>
<path d="M18.3236 10.007H5.13512C4.96538 10.007 4.80259 9.93959 4.68257 9.81956C4.56255 9.69954 4.49512 9.53675 4.49512 9.36701C4.49512 9.19728 4.56255 9.03449 4.68257 8.91447C4.80259 8.79444 4.96538 8.72701 5.13512 8.72701H18.3236C18.4933 8.72701 18.6561 8.79444 18.7761 8.91447C18.8962 9.03449 18.9636 9.19728 18.9636 9.36701C18.9636 9.53675 18.8962 9.69954 18.7761 9.81956C18.6561 9.93959 18.4933 10.007 18.3236 10.007ZM8.30248 5.43453C8.13274 5.43453 7.96995 5.36711 7.84993 5.24708C7.72991 5.12706 7.66248 4.96427 7.66248 4.79453V3.84605C7.66248 3.67632 7.72991 3.51353 7.84993 3.39351C7.96995 3.27348 8.13274 3.20605 8.30248 3.20605C8.47222 3.20605 8.635 3.27348 8.75502 3.39351C8.87505 3.51353 8.94248 3.67632 8.94248 3.84605V4.79453C8.94248 4.87858 8.92592 4.9618 8.89376 5.03945C8.8616 5.1171 8.81445 5.18765 8.75502 5.24708C8.6956 5.30651 8.62504 5.35365 8.54739 5.38582C8.46975 5.41798 8.38652 5.43453 8.30248 5.43453ZM11.7294 5.43453C11.5596 5.43453 11.3968 5.36711 11.2768 5.24708C11.1568 5.12706 11.0894 4.96427 11.0894 4.79453V3.84605C11.0894 3.67632 11.1568 3.51353 11.2768 3.39351C11.3968 3.27348 11.5596 3.20605 11.7294 3.20605C11.8991 3.20605 12.0619 3.27348 12.1819 3.39351C12.3019 3.51353 12.3694 3.67632 12.3694 3.84605V4.79453C12.3694 4.87858 12.3528 4.9618 12.3206 5.03945C12.2885 5.1171 12.2413 5.18765 12.1819 5.24708C12.1225 5.30651 12.0519 5.35365 11.9743 5.38582C11.8966 5.41798 11.8134 5.43453 11.7294 5.43453ZM15.1562 5.43453C14.9865 5.43453 14.8237 5.36711 14.7037 5.24708C14.5837 5.12706 14.5162 4.96427 14.5162 4.79453V3.84605C14.5162 3.67632 14.5837 3.51353 14.7037 3.39351C14.8237 3.27348 14.9865 3.20605 15.1562 3.20605C15.326 3.20605 15.4888 3.27348 15.6088 3.39351C15.7288 3.51353 15.7962 3.67632 15.7962 3.84605V4.79453C15.7962 4.87858 15.7797 4.9618 15.7475 5.03945C15.7154 5.1171 15.6682 5.18765 15.6088 5.24708C15.5494 5.30651 15.4788 5.35365 15.4012 5.38582C15.3235 5.41798 15.2403 5.43453 15.1562 5.43453Z" fill="#202020"/>
</svg>
