<svg width="24" height="24" viewBox="0 0 24 24" fill="none" xmlns="http://www.w3.org/2000/svg">
<path d="M12 11.8009C10.6365 11.8009 9.34592 11.4489 8.36576 10.8131C7.30048 10.1206 6.7136 9.1715 6.7136 8.1411C6.7136 7.1107 7.30048 6.16126 8.36576 5.46878C9.34592 4.83198 10.6365 4.47998 12 4.47998C13.3635 4.47998 14.6541 4.83198 15.6342 5.46782C16.6995 6.1603 17.2864 7.10942 17.2864 8.14014C17.2864 9.17086 16.6995 10.1197 15.6342 10.8121C14.6541 11.4502 13.3635 11.8009 12 11.8009ZM12 5.75998C9.82848 5.75998 7.9936 6.8499 7.9936 8.14014C7.9936 9.43038 9.82848 10.52 12 10.52C14.1715 10.52 16.0064 9.43006 16.0064 8.14014C16.0064 6.85022 14.1715 5.75998 12 5.75998Z" fill="#202020"/>
<path d="M12 14.2912C10.6365 14.2912 9.34592 13.9392 8.36576 13.3034C7.30048 12.6109 6.7136 11.6618 6.7136 10.631C6.71436 10.2614 6.79127 9.89579 6.93952 9.55713C7.00695 9.40135 7.1335 9.27874 7.29133 9.21627C7.36948 9.18533 7.45296 9.1701 7.53699 9.17143C7.62103 9.17275 7.70399 9.19062 7.78112 9.22401C7.85825 9.2574 7.92805 9.30565 7.98654 9.36601C8.04503 9.42638 8.09105 9.49767 8.12198 9.57582C8.15291 9.65397 8.16815 9.73744 8.16682 9.82148C8.1655 9.90552 8.14763 9.98847 8.11424 10.0656C8.0356 10.2438 7.99453 10.4363 7.9936 10.631C7.9936 11.9213 9.82848 13.0112 12 13.0112C14.1715 13.0112 16.0064 11.9213 16.0064 10.631C16.0045 10.3977 15.9463 10.1683 15.8368 9.96225C15.7947 9.8873 15.7682 9.80464 15.7588 9.71921C15.7494 9.63378 15.7572 9.54732 15.7819 9.465C15.8067 9.38268 15.8477 9.30619 15.9026 9.24007C15.9575 9.17396 16.0252 9.11959 16.1016 9.0802C16.178 9.04081 16.2616 9.01721 16.3473 9.01081C16.433 9.00441 16.5191 9.01534 16.6005 9.04295C16.6819 9.07055 16.7569 9.11427 16.821 9.1715C16.8851 9.22872 16.9371 9.29827 16.9738 9.37601C17.1778 9.76354 17.2851 10.1947 17.2864 10.6326C17.2864 11.6634 16.6995 12.6125 15.6342 13.305C14.6541 13.9405 13.3635 14.2912 12 14.2912Z" fill="#202020"/>
<path d="M12 16.8151C10.6365 16.8151 9.34592 16.4631 8.36576 15.8272C7.30048 15.136 6.7136 14.1859 6.7136 13.1552C6.71433 12.7854 6.79123 12.4198 6.93952 12.081C7.00699 11.9252 7.13358 11.8026 7.29144 11.7402C7.4493 11.6777 7.6255 11.6806 7.78128 11.748C7.93706 11.8155 8.05965 11.9421 8.12209 12.1C8.18454 12.2578 8.18171 12.434 8.11424 12.5898C8.03557 12.768 7.9945 12.9605 7.9936 13.1552C7.9936 14.4451 9.82848 15.5351 12 15.5351C14.1715 15.5351 16.0064 14.4451 16.0064 13.1552C16.0045 12.9219 15.9463 12.6925 15.8368 12.4864C15.7588 12.3357 15.7439 12.1601 15.7954 11.9983C15.8468 11.8366 15.9604 11.7019 16.1112 11.6239C16.262 11.5459 16.4375 11.531 16.5993 11.5824C16.7611 11.6339 16.8958 11.7475 16.9738 11.8983C17.1778 12.2859 17.2851 12.7172 17.2864 13.1552C17.2864 14.1859 16.6995 15.1347 15.6342 15.8272C14.6541 16.4643 13.3635 16.8151 12 16.8151Z" fill="#202020"/>
<path d="M12 19.52C10.6365 19.52 9.34592 19.168 8.36576 18.5322C7.30048 17.8397 6.7136 16.8906 6.7136 15.8598C6.7141 15.4895 6.79101 15.1233 6.93952 14.784C6.97291 14.7069 7.02116 14.6371 7.08152 14.5786C7.14189 14.5201 7.21318 14.4741 7.29133 14.4431C7.36948 14.4122 7.45296 14.397 7.53699 14.3983C7.62103 14.3996 7.70399 14.4175 7.78112 14.4509C7.85825 14.4843 7.92805 14.5325 7.98654 14.5929C8.04503 14.6533 8.09105 14.7245 8.12198 14.8027C8.15291 14.8808 8.16815 14.9643 8.16682 15.0484C8.1655 15.1324 8.14763 15.2154 8.11424 15.2925C8.0356 15.4707 7.99453 15.6632 7.9936 15.8579C7.9936 17.1491 9.82848 18.24 12 18.24C14.1715 18.24 16.0064 17.1501 16.0064 15.8598C16.0045 15.6265 15.9463 15.3971 15.8368 15.191C15.7972 15.1163 15.7728 15.0345 15.765 14.9502C15.7573 14.866 15.7663 14.7811 15.7915 14.7003C15.8168 14.6196 15.8578 14.5447 15.9122 14.4799C15.9666 14.4151 16.0332 14.3617 16.1084 14.3229C16.1835 14.284 16.2656 14.2605 16.3499 14.2536C16.4342 14.2466 16.5191 14.2565 16.5995 14.2825C16.68 14.3086 16.7545 14.3504 16.8188 14.4054C16.883 14.4605 16.9357 14.5277 16.9738 14.6032C17.1778 14.9907 17.2851 15.4219 17.2864 15.8598C17.2864 16.8906 16.6995 17.8397 15.6342 18.5322C14.6541 19.168 13.3635 19.52 12 19.52Z" fill="#202020"/>
</svg>
