<svg width="24" height="24" viewBox="0 0 24 24" fill="none" xmlns="http://www.w3.org/2000/svg">
<path d="M17.984 20.4558H16.4528C15.7976 20.455 15.1694 20.1943 14.7062 19.731C14.243 19.2676 13.9826 18.6393 13.9821 17.9841V14.802H9.92383V17.9841C9.92307 18.6392 9.66252 19.2671 9.19933 19.7303C8.73615 20.1935 8.10815 20.4541 7.45311 20.4548H6.01599C5.36078 20.4543 4.73254 20.1939 4.26915 19.7307C3.80576 19.2675 3.54507 18.6393 3.54431 17.9841V15.9924C3.54507 15.3373 3.80577 14.7091 4.26917 14.246C4.73257 13.7828 5.36081 13.5225 6.01599 13.522H8.64479V10.4443H6.01599C5.36098 10.4436 4.73298 10.1831 4.26979 9.71998C3.8066 9.25685 3.54603 8.62889 3.54527 7.97387V6.01611C3.54578 5.36091 3.80622 4.73266 4.26943 4.26927C4.73264 3.80588 5.36078 3.5452 6.01599 3.54443H7.45407C8.10911 3.54545 8.73701 3.80625 9.20001 4.26961C9.66302 4.73298 9.92332 5.36107 9.92383 6.01611V9.16523H13.9821V6.01611C13.9828 5.36107 14.2434 4.73308 14.7066 4.26989C15.1698 3.80671 15.7978 3.54616 16.4528 3.54539H17.984C18.6392 3.5459 19.2674 3.80634 19.7308 4.26955C20.1942 4.73277 20.4549 5.36091 20.4557 6.01611V7.97483C20.4547 8.62985 20.1938 9.25771 19.7305 9.72066C19.2671 10.1836 18.639 10.4439 17.984 10.4443H15.2621V13.522H17.984C18.639 13.5227 19.267 13.7832 19.7302 14.2463C20.1934 14.7095 20.454 15.3374 20.4547 15.9924V17.9841C20.4542 18.6393 20.1938 19.2676 19.7306 19.731C19.2673 20.1943 18.6392 20.455 17.984 20.4558ZM15.2621 14.802V17.9841C15.2625 18.2998 15.3881 18.6024 15.6113 18.8256C15.8345 19.0488 16.1371 19.1744 16.4528 19.1748H17.984C18.2998 19.1747 18.6027 19.0492 18.8261 18.826C19.0495 18.6027 19.1752 18.2999 19.1757 17.9841V15.9924C19.1752 15.6766 19.0495 15.3739 18.8261 15.1507C18.6027 14.9275 18.2998 14.8021 17.984 14.802H15.2621ZM6.01407 14.802C5.69843 14.8024 5.39581 14.9279 5.17259 15.151C4.94937 15.3742 4.82377 15.6768 4.82335 15.9924V17.9841C4.82352 18.3003 4.94926 18.6034 5.17291 18.8269C5.39657 19.0504 5.69982 19.1759 6.01599 19.1758H7.45407C7.76974 19.1751 8.07226 19.0493 8.29529 18.8259C8.51832 18.6025 8.64366 18.2998 8.64383 17.9841V14.802H6.01407ZM9.92287 13.522H13.9821V10.4443H9.92383L9.92287 13.522ZM15.2621 9.16427H17.984C18.2996 9.16394 18.6023 9.03842 18.8255 8.81526C19.0487 8.5921 19.1743 8.28951 19.1747 7.97387V6.01611C19.1745 5.70028 19.0491 5.39741 18.8258 5.17399C18.6026 4.95058 18.2998 4.82486 17.984 4.82443H16.4528C16.137 4.82486 15.8342 4.95058 15.611 5.17399C15.3877 5.39741 15.2622 5.70028 15.2621 6.01611V9.16427ZM6.01599 4.82443C5.69999 4.8246 5.39698 4.95021 5.17353 5.17366C4.95009 5.3971 4.82448 5.70011 4.82431 6.01611V7.97483C4.82499 8.29047 4.95083 8.59296 5.17423 8.81594C5.39763 9.03892 5.70035 9.16419 6.01599 9.16427H8.64479V6.01611C8.64437 5.70044 8.51878 5.39783 8.29557 5.17462C8.07236 4.9514 7.76974 4.82582 7.45407 4.82539L6.01599 4.82443Z" fill="#202020"/>
</svg>
