<svg width="24" height="24" viewBox="0 0 24 24" fill="none" xmlns="http://www.w3.org/2000/svg">
<path d="M17.032 20.4556H6.96801C6.06022 20.4546 5.1899 20.0935 4.548 19.4516C3.90609 18.8097 3.54502 17.9394 3.54401 17.0316V6.96795C3.54502 6.06016 3.90609 5.18984 4.548 4.54793C5.1899 3.90603 6.06022 3.54496 6.96801 3.54395H17.032C17.9398 3.54496 18.8101 3.90603 19.452 4.54793C20.0939 5.18984 20.455 6.06016 20.456 6.96795V17.0319C20.456 17.94 20.0953 18.811 19.4531 19.4531C18.811 20.0952 17.9401 20.4559 17.032 20.4559V20.4556ZM6.96801 4.82427C6.39954 4.82477 5.8545 5.05082 5.45253 5.45279C5.05056 5.85476 4.82451 6.3998 4.82401 6.96827V17.0323C4.82451 17.6007 5.05056 18.1458 5.45253 18.5477C5.8545 18.9497 6.39954 19.1758 6.96801 19.1763H17.032C17.3136 19.1763 17.5924 19.1208 17.8525 19.0131C18.1126 18.9053 18.349 18.7474 18.548 18.5483C18.7471 18.3492 18.9051 18.1129 19.0128 17.8527C19.1206 17.5926 19.176 17.3138 19.176 17.0323V6.96795C19.1755 6.39948 18.9494 5.85444 18.5475 5.45247C18.1455 5.0505 17.6005 4.82445 17.032 4.82395L6.96801 4.82427Z" fill="#202020"/>
<path d="M15.6374 17.39H14.7062C14.2416 17.3895 13.7961 17.2047 13.4675 16.8761C13.1389 16.5476 12.9541 16.1021 12.9536 15.6374V13.9539H10.9891V15.6374C10.9886 16.1021 10.8038 16.5476 10.4752 16.8761C10.1467 17.2047 9.70116 17.3895 9.23649 17.39H8.36256C7.89789 17.3895 7.4524 17.2047 7.12382 16.8761C6.79525 16.5476 6.61043 16.1021 6.60992 15.6374V14.4265C6.61043 13.9618 6.79525 13.5163 7.12382 13.1878C7.4524 12.8592 7.89789 12.6744 8.36256 12.6739H9.70912V11.3055H8.36256C7.89789 11.305 7.4524 11.1202 7.12382 10.7916C6.79525 10.4631 6.61043 10.0176 6.60992 9.5529V8.3625C6.61043 7.89783 6.79525 7.45233 7.12382 7.12376C7.4524 6.79519 7.89789 6.61037 8.36256 6.60986H9.23649C9.70116 6.61037 10.1467 6.79519 10.4752 7.12376C10.8038 7.45233 10.9886 7.89783 10.9891 8.3625V10.0265H12.9536V8.3625C12.9541 7.89783 13.1389 7.45233 13.4675 7.12376C13.7961 6.79519 14.2416 6.61037 14.7062 6.60986H15.6374C16.1021 6.61037 16.5476 6.79519 16.8762 7.12376C17.2048 7.45233 17.3896 7.89783 17.3901 8.3625V9.5529C17.3896 10.0176 17.2048 10.4631 16.8762 10.7916C16.5476 11.1202 16.1021 11.305 15.6374 11.3055H14.2336V12.6739H15.6374C16.1021 12.6744 16.5476 12.8592 16.8762 13.1878C17.2048 13.5163 17.3896 13.9618 17.3901 14.4265V15.6374C17.3896 16.1021 17.2048 16.5476 16.8762 16.8761C16.5476 17.2047 16.1021 17.3895 15.6374 17.39ZM14.2336 13.9539V15.6374C14.2338 15.7627 14.2836 15.8828 14.3722 15.9714C14.4608 16.06 14.5809 16.1099 14.7062 16.11H15.6374C15.7628 16.1099 15.8829 16.0601 15.9716 15.9715C16.0602 15.8829 16.11 15.7627 16.1101 15.6374V14.4265C16.1099 14.3012 16.0601 14.1811 15.9715 14.0925C15.8829 14.0039 15.7627 13.954 15.6374 13.9539H14.2336ZM8.36256 13.9539C8.23726 13.954 8.11715 14.0039 8.02854 14.0925C7.93994 14.1811 7.89009 14.3012 7.88992 14.4265V15.6374C7.89001 15.7627 7.93983 15.8829 8.02845 15.9715C8.11707 16.0601 8.23724 16.1099 8.36256 16.11H9.23649C9.36181 16.1099 9.48198 16.0601 9.5706 15.9715C9.65922 15.8829 9.70904 15.7627 9.70912 15.6374V13.9539H8.36256ZM10.9891 12.6739H12.9536V11.3055H10.9891V12.6739ZM14.2336 10.0255H15.6374C15.7627 10.0254 15.8829 9.97552 15.9715 9.88692C16.0601 9.79832 16.1099 9.6782 16.1101 9.5529V8.3625C16.11 8.23718 16.0602 8.11701 15.9716 8.02839C15.8829 7.93977 15.7628 7.88995 15.6374 7.88986H14.7062C14.5809 7.89003 14.4608 7.93988 14.3722 8.02848C14.2836 8.11708 14.2338 8.2372 14.2336 8.3625V10.0255ZM8.36256 7.88986C8.23724 7.88995 8.11707 7.93977 8.02845 8.02839C7.93983 8.11701 7.89001 8.23718 7.88992 8.3625V9.5529C7.89009 9.6782 7.93994 9.79832 8.02854 9.88692C8.11715 9.97552 8.23726 10.0254 8.36256 10.0255H9.70912V8.36154C9.70904 8.23622 9.65922 8.11605 9.5706 8.02743C9.48198 7.93881 9.36181 7.88899 9.23649 7.8889L8.36256 7.88986Z" fill="#202020"/>
</svg>
