<svg width="24" height="24" viewBox="0 0 24 24" fill="none" xmlns="http://www.w3.org/2000/svg">
<path d="M17.032 20.4556H6.96801C6.06022 20.4546 5.18991 20.0935 4.548 19.4516C3.9061 18.8097 3.54503 17.9394 3.54401 17.0316V6.96795C3.54503 6.06016 3.9061 5.18984 4.548 4.54793C5.18991 3.90603 6.06022 3.54496 6.96801 3.54395H17.032C17.9398 3.54496 18.8101 3.90603 19.452 4.54793C20.0939 5.18984 20.455 6.06016 20.456 6.96795V17.0319C20.4549 17.9397 20.0938 18.8099 19.4519 19.4517C18.81 20.0936 17.9397 20.4546 17.032 20.4556ZM6.96801 4.82427C6.39955 4.82477 5.85451 5.05082 5.45254 5.45279C5.05057 5.85476 4.82452 6.3998 4.82401 6.96826V17.0323C4.82452 17.6007 5.05057 18.1458 5.45254 18.5477C5.85451 18.9497 6.39955 19.1758 6.96801 19.1763H17.032C17.6005 19.1758 18.1455 18.9497 18.5475 18.5477C18.9495 18.1458 19.1755 17.6007 19.176 17.0323V6.96795C19.1755 6.39948 18.9495 5.85444 18.5475 5.45247C18.1455 5.0505 17.6005 4.82445 17.032 4.82395L6.96801 4.82427Z" fill="#202020"/>
<path d="M4.94881 19.5879C4.82203 19.5879 4.6981 19.5503 4.59273 19.4798C4.48736 19.4093 4.4053 19.3091 4.35696 19.1919C4.30863 19.0746 4.29619 18.9457 4.32123 18.8214C4.34627 18.6972 4.40766 18.5831 4.49761 18.4938L18.5456 4.54177C18.666 4.42215 18.8291 4.35527 18.9988 4.35584C19.1685 4.35641 19.3311 4.42439 19.4507 4.54481C19.5704 4.66524 19.6372 4.82826 19.6367 4.998C19.6361 5.16775 19.5681 5.33031 19.4477 5.44993L5.39969 19.4019C5.27983 19.521 5.11775 19.5878 4.94881 19.5879ZM10.4029 8.40385H7.55681C7.38707 8.40385 7.22429 8.33643 7.10426 8.2164C6.98424 8.09638 6.91681 7.93359 6.91681 7.76385C6.91681 7.59412 6.98424 7.43133 7.10426 7.31131C7.22429 7.19128 7.38707 7.12385 7.55681 7.12385H10.4029C10.5726 7.12385 10.7354 7.19128 10.8554 7.31131C10.9755 7.43133 11.0429 7.59412 11.0429 7.76385C11.0429 7.93359 10.9755 8.09638 10.8554 8.2164C10.7354 8.33643 10.5726 8.40385 10.4029 8.40385ZM16.5357 16.4679H13.6893C13.5196 16.4679 13.3568 16.4004 13.2367 16.2804C13.1167 16.1604 13.0493 15.9976 13.0493 15.8279C13.0493 15.6581 13.1167 15.4953 13.2367 15.3753C13.3568 15.2553 13.5196 15.1879 13.6893 15.1879H16.5357C16.7054 15.1879 16.8682 15.2553 16.9882 15.3753C17.1083 15.4953 17.1757 15.6581 17.1757 15.8279C17.1757 15.9976 17.1083 16.1604 16.9882 16.2804C16.8682 16.4004 16.7054 16.4679 16.5357 16.4679Z" fill="#202020"/>
<path d="M15.1123 17.8909C14.9426 17.8909 14.7798 17.8234 14.6598 17.7034C14.5398 17.5834 14.4723 17.4206 14.4723 17.2509V14.4048C14.4723 14.235 14.5398 14.0722 14.6598 13.9522C14.7798 13.8322 14.9426 13.7648 15.1123 13.7648C15.2821 13.7648 15.4449 13.8322 15.5649 13.9522C15.6849 14.0722 15.7523 14.235 15.7523 14.4048V17.2509C15.7523 17.3349 15.7358 17.4181 15.7036 17.4958C15.6714 17.5734 15.6243 17.644 15.5649 17.7034C15.5054 17.7628 15.4349 17.81 15.3572 17.8421C15.2796 17.8743 15.1964 17.8909 15.1123 17.8909Z" fill="#202020"/>
</svg>
