<svg width="24" height="24" viewBox="0 0 24 24" fill="none" xmlns="http://www.w3.org/2000/svg">
<path d="M12 4.5C10.4236 4.49496 8.86184 4.80334 7.40563 5.40719C5.94942 6.01105 4.62777 6.89835 3.5175 8.0175C3.37781 8.15802 3.29941 8.34811 3.29941 8.54625C3.29941 8.74439 3.37781 8.93448 3.5175 9.075C3.65802 9.21469 3.84811 9.29309 4.04625 9.29309C4.24439 9.29309 4.43448 9.21469 4.575 9.075C5.55003 8.09987 6.70759 7.32635 7.98158 6.79861C9.25557 6.27087 10.621 5.99924 12 5.99924C13.379 5.99924 14.7444 6.27087 16.0184 6.79861C17.2924 7.32635 18.45 8.09987 19.425 9.075C19.5685 9.19787 19.753 9.26207 19.9418 9.25478C20.1306 9.24749 20.3096 9.16924 20.4432 9.03567C20.5767 8.9021 20.655 8.72305 20.6623 8.53429C20.6696 8.34553 20.6054 8.16098 20.4825 8.0175C19.3722 6.89835 18.0506 6.01105 16.5944 5.40719C15.1382 4.80334 13.5764 4.49496 12 4.5Z" fill="#202020"/>
<path d="M5.6325 10.1325C5.49127 10.2737 5.41193 10.4653 5.41193 10.665C5.41193 10.8647 5.49127 11.0563 5.6325 11.1975C5.77372 11.3387 5.96527 11.4181 6.165 11.4181C6.36472 11.4181 6.55627 11.3387 6.6975 11.1975C8.10395 9.79147 10.0113 9.0016 12 9.0016C13.9887 9.0016 15.896 9.79147 17.3025 11.1975C17.3726 11.267 17.4557 11.322 17.5471 11.3593C17.6384 11.3967 17.7363 11.4156 17.835 11.415C17.9337 11.4156 18.0315 11.3967 18.1229 11.3593C18.2143 11.322 18.2974 11.267 18.3675 11.1975C18.4378 11.1278 18.4936 11.0448 18.5317 10.9534C18.5697 10.862 18.5893 10.764 18.5893 10.665C18.5893 10.566 18.5697 10.468 18.5317 10.3766C18.4936 10.2852 18.4378 10.2022 18.3675 10.1325C17.5316 9.29571 16.539 8.63188 15.4465 8.17896C14.3539 7.72604 13.1827 7.49292 12 7.49292C10.8173 7.49292 9.64611 7.72604 8.55353 8.17896C7.46095 8.63188 6.46835 9.29571 5.6325 10.1325Z" fill="#202020"/>
<path d="M7.75501 12.255C7.68508 12.3249 7.62961 12.408 7.59176 12.4993C7.55392 12.5907 7.53444 12.6886 7.53444 12.7875C7.53444 12.8864 7.55392 12.9843 7.59176 13.0757C7.62961 13.1671 7.68508 13.2501 7.75501 13.32C7.89624 13.4612 8.08778 13.5406 8.28751 13.5406C8.3864 13.5406 8.48433 13.5211 8.57569 13.4832C8.66706 13.4454 8.75008 13.3899 8.82001 13.32C9.66376 12.4773 10.8075 12.004 12 12.004C13.1925 12.004 14.3363 12.4773 15.18 13.32C15.2497 13.3903 15.3327 13.4461 15.4241 13.4842C15.5155 13.5222 15.6135 13.5419 15.7125 13.5419C15.8115 13.5419 15.9095 13.5222 16.0009 13.4842C16.0923 13.4461 16.1753 13.3903 16.245 13.32C16.3153 13.2503 16.3711 13.1673 16.4092 13.0759C16.4473 12.9845 16.4669 12.8865 16.4669 12.7875C16.4669 12.6885 16.4473 12.5905 16.4092 12.4991C16.3711 12.4077 16.3153 12.3247 16.245 12.255C15.6878 11.6971 15.026 11.2546 14.2977 10.9526C13.5693 10.6507 12.7885 10.4953 12 10.4953C11.2115 10.4953 10.4308 10.6507 9.70237 10.9526C8.97398 11.2546 8.31225 11.6971 7.75501 12.255Z" fill="#202020"/>
<path d="M9.8775 14.3775C9.45828 14.7972 9.17289 15.3317 9.0574 15.9136C8.94192 16.4954 9.00152 17.0985 9.22868 17.6465C9.45584 18.1944 9.84036 18.6628 10.3336 18.9923C10.8269 19.3218 11.4068 19.4976 12 19.4976C12.5932 19.4976 13.1731 19.3218 13.6664 18.9923C14.1596 18.6628 14.5442 18.1944 14.7713 17.6465C14.9985 17.0985 15.0581 16.4954 14.9426 15.9136C14.8271 15.3317 14.5417 14.7972 14.1225 14.3775C13.5505 13.8319 12.7905 13.5275 12 13.5275C11.2095 13.5275 10.4495 13.8319 9.8775 14.3775ZM13.0575 17.5575C12.7765 17.8369 12.3963 17.9937 12 17.9937C11.6037 17.9937 11.2235 17.8369 10.9425 17.5575C10.7318 17.3481 10.5881 17.0808 10.5295 16.7896C10.4709 16.4984 10.5001 16.1963 10.6133 15.9217C10.7266 15.6471 10.9189 15.4123 11.1657 15.2471C11.4126 15.0819 11.7029 14.9937 12 14.9937C12.2971 14.9937 12.5874 15.0819 12.8343 15.2471C13.0812 15.4123 13.2734 15.6471 13.3867 15.9217C13.4999 16.1963 13.5291 16.4984 13.4705 16.7896C13.4119 17.0808 13.2682 17.3481 13.0575 17.5575Z" fill="#202020"/>
</svg>
