<svg width="24" height="24" viewBox="0 0 24 24" fill="none" xmlns="http://www.w3.org/2000/svg">
<path d="M18 1.5H6C5.00544 1.5 4.05161 1.89509 3.34835 2.59835C2.64509 3.30161 2.25 4.25544 2.25 5.25V18.75C2.25 19.7446 2.64509 20.6984 3.34835 21.4016C4.05161 22.1049 5.00544 22.5 6 22.5H18C18.9946 22.5 19.9484 22.1049 20.6516 21.4016C21.3549 20.6984 21.75 19.7446 21.75 18.75V5.25C21.75 4.25544 21.3549 3.30161 20.6516 2.59835C19.9484 1.89509 18.9946 1.5 18 1.5ZM3.75 18.75V5.25C3.7513 4.78579 3.89616 4.33335 4.1647 3.9547C4.43325 3.57605 4.81234 3.28973 5.25 3.135V20.865C4.81234 20.7103 4.43325 20.4239 4.1647 20.0453C3.89616 19.6666 3.7513 19.2142 3.75 18.75ZM20.25 18.75C20.25 19.3467 20.0129 19.919 19.591 20.341C19.169 20.7629 18.5967 21 18 21H6.75V3H18C18.5967 3 19.169 3.23705 19.591 3.65901C20.0129 4.08097 20.25 4.65326 20.25 5.25V18.75Z" fill="#202020"/>
<path d="M13.5 12C14.3613 12 15.1873 11.6579 15.7963 11.0488C16.4054 10.4398 16.7475 9.61379 16.7475 8.7525V7.7475C16.7475 7.32103 16.6635 6.89874 16.5003 6.50474C16.3371 6.11073 16.0979 5.75273 15.7963 5.45117C15.4948 5.14961 15.1368 4.9104 14.7428 4.7472C14.3488 4.584 13.9265 4.5 13.5 4.5C13.0735 4.5 12.6512 4.584 12.2572 4.7472C11.8632 4.9104 11.5052 5.14961 11.2037 5.45117C10.9021 5.75273 10.6629 6.11073 10.4997 6.50474C10.3365 6.89874 10.2525 7.32103 10.2525 7.7475V8.7525C10.2525 9.61379 10.5946 10.4398 11.2037 11.0488C11.8127 11.6579 12.6387 12 13.5 12ZM11.7525 7.7475C11.7525 7.28403 11.9366 6.83955 12.2643 6.51183C12.5921 6.18411 13.0365 6 13.5 6C13.9635 6 14.4079 6.18411 14.7357 6.51183C15.0634 6.83955 15.2475 7.28403 15.2475 7.7475V8.7525C15.2475 9.21597 15.0634 9.66045 14.7357 9.98817C14.4079 10.3159 13.9635 10.5 13.5 10.5C13.0365 10.5 12.5921 10.3159 12.2643 9.98817C11.9366 9.66045 11.7525 9.21597 11.7525 8.7525V7.7475ZM16.095 13.5H10.905C10.2187 13.4995 9.5588 13.7647 9.0638 14.2401C8.5688 14.7156 8.27714 15.3642 8.25 16.05V18.75C8.25 18.9489 8.32902 19.1397 8.46967 19.2803C8.61032 19.421 8.80109 19.5 9 19.5C9.19891 19.5 9.38968 19.421 9.53033 19.2803C9.67098 19.1397 9.75 18.9489 9.75 18.75V16.05C9.76375 15.8162 9.85312 15.5932 10.0046 15.4147C10.1561 15.2361 10.3616 15.1116 10.59 15.06L11.9475 17.505C12.1078 17.7738 12.3351 17.9964 12.6073 18.151C12.8794 18.3056 13.187 18.3869 13.5 18.3869C13.813 18.3869 14.1206 18.3056 14.3927 18.151C14.6649 17.9964 14.8922 17.7738 15.0525 17.505L16.41 15.06C16.6384 15.1116 16.8439 15.2361 16.9954 15.4147C17.1469 15.5932 17.2362 15.8162 17.25 16.05V18.75C17.25 18.9489 17.329 19.1397 17.4697 19.2803C17.6103 19.421 17.8011 19.5 18 19.5C18.1989 19.5 18.3897 19.421 18.5303 19.2803C18.671 19.1397 18.75 18.9489 18.75 18.75V16.05C18.7229 15.3642 18.4312 14.7156 17.9362 14.2401C17.4412 13.7647 16.7813 13.4995 16.095 13.5ZM13.26 16.77L12.2775 15H14.7225L13.74 16.7775C13.7131 16.8162 13.6772 16.8478 13.6354 16.8696C13.5936 16.8914 13.5471 16.9028 13.5 16.9028C13.4529 16.9028 13.4064 16.8914 13.3646 16.8696C13.3228 16.8478 13.2869 16.8162 13.26 16.7775V16.77Z" fill="#202020"/>
</svg>
