<svg width="24" height="24" viewBox="0 0 24 24" fill="none" xmlns="http://www.w3.org/2000/svg">
<path d="M9.28685 13.53H5.62317C5.18483 13.5296 4.76457 13.3553 4.45459 13.0453C4.14461 12.7354 3.97023 12.3152 3.96973 11.8769V8.21318C3.97032 7.77487 4.14472 7.35469 4.45468 7.04479C4.76464 6.73489 5.18486 6.56057 5.62317 6.56006H9.28685C9.72518 6.56057 10.1454 6.73494 10.4553 7.04492C10.7652 7.3549 10.9395 7.77516 10.94 8.2135V11.8769C10.9395 12.3152 10.7652 12.7354 10.4553 13.0453C10.1454 13.3553 9.72515 13.5296 9.28685 13.53ZM5.62317 7.84006C5.52415 7.84014 5.42921 7.87951 5.3592 7.94953C5.28918 8.01955 5.24981 8.11448 5.24973 8.2135V11.8769C5.24981 11.9758 5.28919 12.0707 5.35922 12.1407C5.42924 12.2107 5.52418 12.25 5.62317 12.25H9.28685C9.38578 12.2499 9.48063 12.2106 9.55059 12.1406C9.62054 12.0706 9.65988 11.9758 9.65997 11.8769V8.21318C9.65988 8.11425 9.62054 8.01939 9.55059 7.94944C9.48063 7.87948 9.38578 7.84014 9.28685 7.84006H5.62317ZM19.1518 18.3303C18.2275 18.3303 17.341 17.9631 16.6875 17.3095C16.0339 16.6559 15.6667 15.7695 15.6667 14.8452C15.6667 13.9209 16.0339 13.0344 16.6875 12.3808C17.341 11.7272 18.2275 11.3601 19.1518 11.3601C20.0761 11.3601 20.9626 11.7272 21.6162 12.3808C22.2697 13.0344 22.6369 13.9209 22.6369 14.8452C22.6369 15.7695 22.2697 16.6559 21.6162 17.3095C20.9626 17.9631 20.0761 18.3303 19.1518 18.3303ZM19.1518 12.6401C18.7157 12.6401 18.2893 12.7694 17.9267 13.0117C17.5641 13.254 17.2814 13.5984 17.1145 14.0013C16.9476 14.4042 16.904 14.8476 16.9891 15.2754C17.0741 15.7031 17.2842 16.096 17.5926 16.4044C17.9009 16.7128 18.2939 16.9228 18.7216 17.0079C19.1494 17.093 19.5927 17.0493 19.9957 16.8824C20.3986 16.7155 20.743 16.4329 20.9853 16.0703C21.2276 15.7076 21.3569 15.2813 21.3569 14.8452C21.3562 14.2606 21.1236 13.7001 20.7102 13.2868C20.2968 12.8734 19.7364 12.6408 19.1518 12.6401ZM20.7262 9.25158C20.6785 9.25158 20.6309 9.24621 20.5844 9.23558L18.5044 8.76454C18.4207 8.7478 18.3411 8.71446 18.2705 8.66649C18.1998 8.61853 18.1394 8.5569 18.0929 8.48524C18.0465 8.41358 18.0148 8.33334 17.9998 8.24926C17.9848 8.16517 17.9868 8.07893 18.0057 7.99563C18.0245 7.91232 18.0599 7.83363 18.1096 7.7642C18.1594 7.69477 18.2225 7.636 18.2953 7.59135C18.3681 7.5467 18.4492 7.51708 18.5336 7.50423C18.618 7.49138 18.7042 7.49557 18.787 7.51654L20.867 7.98758C21.0206 8.02222 21.1561 8.11228 21.2474 8.24054C21.3388 8.36879 21.3797 8.52623 21.3623 8.68273C21.3448 8.83924 21.2703 8.98383 21.153 9.08883C21.0356 9.19384 20.8837 9.2519 20.7262 9.2519V9.25158ZM8.40013 16.3933C8.37403 16.3933 8.34795 16.3917 8.32205 16.3885L6.17357 16.1281C6.00506 16.1076 5.85159 16.021 5.74693 15.8873C5.64227 15.7537 5.59499 15.5839 5.61549 15.4154C5.63598 15.2469 5.72258 15.0934 5.85622 14.9888C5.98987 14.8841 6.15962 14.8368 6.32813 14.8573L8.47661 15.1191C8.63819 15.139 8.78612 15.2197 8.89028 15.3449C8.99443 15.47 9.04699 15.6301 9.03724 15.7926C9.02749 15.9551 8.95618 16.1078 8.83781 16.2196C8.71945 16.3314 8.56293 16.3939 8.40013 16.3943V16.3933Z" fill="#202020"/>
<path d="M20.6809 9.2035C20.5615 9.20359 20.4445 9.17028 20.343 9.10734C20.2416 9.0444 20.1598 8.95434 20.1068 8.84734C19.2743 7.16585 17.8301 5.86648 16.0704 5.21557C14.3106 4.56466 12.3685 4.61152 10.6422 5.34654C10.486 5.41299 10.3098 5.41467 10.1523 5.35121C9.99489 5.28775 9.8691 5.16434 9.80265 5.00814C9.7362 4.85194 9.73452 4.67573 9.79798 4.51829C9.86144 4.36085 9.98485 4.23507 10.1411 4.16862C12.1681 3.30567 14.4485 3.25075 16.5147 4.01513C18.581 4.7795 20.2766 6.30526 21.254 8.27966C21.3023 8.3772 21.3249 8.48543 21.3197 8.59413C21.3145 8.70283 21.2816 8.80841 21.2242 8.90089C21.1669 8.99336 21.0869 9.06968 20.9918 9.12263C20.8967 9.17558 20.7897 9.20341 20.6809 9.2035ZM13.5212 20.7379C11.8979 20.737 10.3076 20.2786 8.93292 19.4151C7.55822 18.5517 6.45474 17.3183 5.74905 15.8563C5.68279 15.7046 5.6779 15.5331 5.73541 15.3779C5.79291 15.2226 5.90833 15.0957 6.05744 15.0237C6.20654 14.9518 6.37772 14.9404 6.53503 14.992C6.69234 15.0436 6.82353 15.1542 6.90105 15.3005C7.69354 16.9435 9.06883 18.2331 10.7594 18.9183C12.45 19.6036 14.3351 19.6356 16.0479 19.008C16.2073 18.9496 16.3834 18.9569 16.5374 19.0283C16.6913 19.0997 16.8107 19.2294 16.8691 19.3888C16.9274 19.5482 16.9201 19.7242 16.8487 19.8782C16.7773 20.0322 16.6476 20.1515 16.4883 20.2099C15.5379 20.5588 14.5336 20.7375 13.5212 20.7379Z" fill="#202020"/>
</svg>
