<svg width="24" height="24" viewBox="0 0 24 24" fill="none" xmlns="http://www.w3.org/2000/svg">
<path d="M7.67332 13.53H4.00964C3.57131 13.5296 3.15104 13.3553 2.84106 13.0453C2.53108 12.7354 2.35671 12.3152 2.3562 11.8769V8.21318C2.35679 7.77487 2.5312 7.35469 2.84116 7.04479C3.15112 6.73489 3.57133 6.56057 4.00964 6.56006H7.67332C8.11168 6.56057 8.53195 6.73493 8.84192 7.0449C9.15189 7.35487 9.32625 7.77514 9.32676 8.2135V11.8769C9.32625 12.3152 9.15188 12.7354 8.8419 13.0453C8.53192 13.3553 8.11166 13.5296 7.67332 13.53ZM4.00964 7.84006C3.91062 7.84014 3.81569 7.87951 3.74567 7.94953C3.67566 8.01955 3.63629 8.11448 3.6362 8.2135V11.8769C3.63637 11.9758 3.67578 12.0707 3.74579 12.1406C3.81579 12.2106 3.91068 12.2499 4.00964 12.25H7.67332C7.77228 12.2499 7.86717 12.2106 7.93718 12.1406C8.00718 12.0707 8.04659 11.9758 8.04676 11.8769V8.21318C8.04659 8.11422 8.00718 8.01936 7.93718 7.94942C7.86717 7.87947 7.77228 7.84014 7.67332 7.84006H4.00964ZM15.7066 18.3303C15.2683 18.3299 14.848 18.1556 14.538 17.8457C14.228 17.5357 14.0537 17.1155 14.0532 16.6772V13.0135C14.0531 12.7964 14.0959 12.5813 14.1789 12.3807C14.262 12.1801 14.3838 11.9978 14.5373 11.8442C14.6909 11.6907 14.8732 11.5689 15.0738 11.4858C15.2744 11.4028 15.4895 11.36 15.7066 11.3601H19.3703C19.8087 11.3604 20.2291 11.5347 20.5392 11.8447C20.8492 12.1547 21.0236 12.5751 21.024 13.0135V16.6772C21.0235 17.1155 20.8492 17.5357 20.5392 17.8457C20.2292 18.1556 19.8089 18.3299 19.3706 18.3303H15.7066ZM19.3703 12.6401H15.7066C15.6076 12.6401 15.5126 12.6795 15.4426 12.7495C15.3726 12.8195 15.3332 12.9145 15.3332 13.0135V16.6772C15.3333 16.7761 15.3727 16.871 15.4427 16.9409C15.5128 17.0109 15.6076 17.0502 15.7066 17.0503H19.3703C19.4693 17.0503 19.5643 17.011 19.6343 16.9411C19.7044 16.8711 19.7439 16.7762 19.744 16.6772V13.0135C19.744 12.9644 19.7344 12.9158 19.7156 12.8705C19.6968 12.8252 19.6693 12.784 19.6346 12.7493C19.5998 12.7146 19.5586 12.6871 19.5133 12.6684C19.4679 12.6496 19.4193 12.64 19.3703 12.6401ZM19.113 9.25158C19.0652 9.2516 19.0175 9.24623 18.9709 9.23558L16.8909 8.76454C16.8073 8.74761 16.728 8.71415 16.6575 8.66611C16.587 8.61807 16.5268 8.55643 16.4805 8.48481C16.4342 8.4132 16.4027 8.33304 16.3878 8.24906C16.3729 8.16508 16.3749 8.07897 16.3938 7.99579C16.4126 7.91261 16.4479 7.83404 16.4976 7.76469C16.5472 7.69534 16.6102 7.63662 16.6829 7.59197C16.7556 7.54732 16.8364 7.51765 16.9207 7.50469C17.005 7.49174 17.0911 7.49577 17.1738 7.51654L19.2538 7.98758C19.4074 8.02222 19.5428 8.11225 19.6342 8.24047C19.7256 8.36869 19.7665 8.52609 19.7491 8.68257C19.7317 8.83906 19.6572 8.98364 19.5399 9.08867C19.4227 9.19371 19.2708 9.25182 19.1133 9.2519L19.113 9.25158ZM6.7866 16.3933C6.7605 16.3933 6.73443 16.3917 6.70852 16.3885L4.56004 16.1281C4.39153 16.1076 4.23807 16.021 4.13341 15.8873C4.02875 15.7537 3.98147 15.5839 4.00196 15.4154C4.02246 15.2469 4.10905 15.0934 4.2427 14.9888C4.37634 14.8841 4.54609 14.8368 4.7146 14.8573L6.8634 15.1191C7.02501 15.139 7.17296 15.2198 7.27712 15.3449C7.38128 15.4701 7.43381 15.6302 7.42402 15.7928C7.41423 15.9553 7.34286 16.108 7.22443 16.2198C7.106 16.3315 6.94943 16.3939 6.7866 16.3943V16.3933Z" fill="#202020"/>
<path d="M19.0676 9.20355C18.9482 9.20363 18.8312 9.17033 18.7297 9.10739C18.6283 9.04445 18.5465 8.95439 18.4935 8.84739C17.6611 7.16587 16.2171 5.86645 14.4573 5.21553C12.6976 4.56461 10.7555 4.6115 9.02921 5.34659C8.95187 5.37951 8.8688 5.39688 8.78474 5.3977C8.70068 5.39852 8.61729 5.38278 8.53932 5.35137C8.46135 5.31996 8.39033 5.2735 8.33031 5.21465C8.27029 5.15579 8.22246 5.08569 8.18953 5.00835C8.1566 4.931 8.13924 4.84793 8.13842 4.76388C8.13759 4.67982 8.15334 4.59643 8.18475 4.51846C8.21616 4.44048 8.26261 4.36946 8.32147 4.30945C8.38033 4.24943 8.45043 4.20159 8.52777 4.16867C10.5549 3.30578 12.8353 3.2509 14.9015 4.01526C16.9678 4.77962 18.6635 6.30534 19.6411 8.27971C19.6893 8.37727 19.7119 8.48553 19.7067 8.59426C19.7015 8.70299 19.6686 8.80859 19.6112 8.90107C19.5538 8.99355 19.4737 9.06987 19.3786 9.1228C19.2835 9.17572 19.1765 9.20352 19.0676 9.20355ZM11.9079 20.7379C10.2846 20.7371 8.69433 20.2786 7.31963 19.4152C5.94494 18.5517 4.84146 17.3183 4.13577 15.8563C4.06951 15.7046 4.06462 15.5331 4.12212 15.3779C4.17963 15.2227 4.29505 15.0957 4.44416 15.0238C4.59326 14.9518 4.76444 14.9405 4.92175 14.9921C5.07905 15.0437 5.21025 15.1542 5.28777 15.3005C6.08026 16.9436 7.45555 18.2331 9.14615 18.9184C10.8368 19.6037 12.7218 19.6356 14.4346 19.008C14.594 18.9496 14.7701 18.9569 14.9241 19.0283C15.0781 19.0996 15.1975 19.2293 15.2559 19.3887C15.3144 19.5481 15.3071 19.7241 15.2357 19.8781C15.1643 20.0322 15.0347 20.1515 14.8753 20.2099C13.9249 20.5589 12.9204 20.7376 11.9079 20.7379Z" fill="#202020"/>
</svg>
