<svg width="24" height="24" viewBox="0 0 24 24" fill="none" xmlns="http://www.w3.org/2000/svg">
<path d="M16.256 19.2503H7.744C6.95013 19.2495 6.18903 18.9337 5.62768 18.3724C5.06634 17.811 4.7506 17.0499 4.74976 16.2561V7.74406C4.7506 6.9502 5.06634 6.18909 5.62768 5.62775C6.18903 5.0664 6.95013 4.75066 7.744 4.74982H16.256C17.0499 4.75066 17.811 5.0664 18.3723 5.62775C18.9337 6.18909 19.2494 6.9502 19.2502 7.74406V16.2561C19.2494 17.0499 18.9337 17.811 18.3723 18.3724C17.811 18.9337 17.0499 19.2495 16.256 19.2503ZM7.744 6.02982C7.28951 6.03033 6.85378 6.2111 6.53241 6.53247C6.21103 6.85384 6.03026 7.28957 6.02976 7.74406V16.2561C6.03026 16.7105 6.21103 17.1463 6.53241 17.4676C6.85378 17.789 7.28951 17.9698 7.744 17.9703H16.256C16.7105 17.9698 17.1462 17.789 17.4676 17.4676C17.789 17.1463 17.9697 16.7105 17.9702 16.2561V7.74406C17.9697 7.28957 17.789 6.85384 17.4676 6.53247C17.1462 6.2111 16.7105 6.03033 16.256 6.02982H7.744Z" fill="#202020"/>
<path d="M14.8535 17.0721H9.1466C8.55841 17.0714 7.9945 16.8374 7.57859 16.4215C7.16268 16.0056 6.92872 15.4417 6.92804 14.8535V9.14663C6.92872 8.55844 7.16268 7.99453 7.57859 7.57862C7.9945 7.16271 8.55841 6.92875 9.1466 6.92807H14.8535C15.4417 6.92875 16.0056 7.16271 16.4215 7.57862C16.8374 7.99453 17.0714 8.55844 17.072 9.14663V14.8535C17.0714 15.4417 16.8374 16.0056 16.4215 16.4215C16.0056 16.8374 15.4417 17.0714 14.8535 17.0721ZM9.1466 8.20807C8.89778 8.20841 8.65925 8.3074 8.48331 8.48334C8.30737 8.65928 8.20838 8.89781 8.20804 9.14663V14.8535C8.20838 15.1023 8.30737 15.3409 8.48331 15.5168C8.65925 15.6927 8.89778 15.7917 9.1466 15.7921H14.8535C15.1023 15.7917 15.3408 15.6927 15.5168 15.5168C15.6927 15.3409 15.7917 15.1023 15.792 14.8535V9.14663C15.7917 8.89781 15.6927 8.65928 15.5168 8.48334C15.3408 8.3074 15.1023 8.20841 14.8535 8.20807H9.1466ZM8.88484 6.02983C8.7151 6.02983 8.55232 5.9624 8.43229 5.84238C8.31227 5.72236 8.24484 5.55957 8.24484 5.38983V3.23207C8.24484 3.06233 8.31227 2.89955 8.43229 2.77952C8.55232 2.6595 8.7151 2.59207 8.88484 2.59207C9.05458 2.59207 9.21737 2.6595 9.33739 2.77952C9.45741 2.89955 9.52484 3.06233 9.52484 3.23207V5.39079C9.52459 5.56036 9.45705 5.7229 9.33705 5.84272C9.21705 5.96254 9.05441 6.02983 8.88484 6.02983ZM12 6.02983C11.8303 6.02983 11.6675 5.9624 11.5475 5.84238C11.4275 5.72236 11.36 5.55957 11.36 5.38983V3.23207C11.36 3.06233 11.4275 2.89955 11.5475 2.77952C11.6675 2.6595 11.8303 2.59207 12 2.59207C12.1698 2.59207 12.3326 2.6595 12.4526 2.77952C12.5726 2.89955 12.64 3.06233 12.64 3.23207V5.39079C12.6398 5.56036 12.5722 5.7229 12.4523 5.84272C12.3323 5.96254 12.1696 6.02983 12 6.02983ZM15.1152 6.02983C14.9455 6.02983 14.7827 5.9624 14.6627 5.84238C14.5427 5.72236 14.4752 5.55957 14.4752 5.38983V3.23207C14.4752 3.06233 14.5427 2.89955 14.6627 2.77952C14.7827 2.6595 14.9455 2.59207 15.1152 2.59207C15.285 2.59207 15.4478 2.6595 15.5678 2.77952C15.6878 2.89955 15.7552 3.06233 15.7552 3.23207V5.39079C15.755 5.56036 15.6874 5.7229 15.5675 5.84272C15.4475 5.96254 15.2848 6.02983 15.1152 6.02983ZM8.88484 21.4081C8.7151 21.4081 8.55232 21.3406 8.43229 21.2206C8.31227 21.1006 8.24484 20.9378 8.24484 20.7681V18.6103C8.24484 18.4406 8.31227 18.2778 8.43229 18.1578C8.55232 18.0377 8.7151 17.9703 8.88484 17.9703C9.05458 17.9703 9.21737 18.0377 9.33739 18.1578C9.45741 18.2778 9.52484 18.4406 9.52484 18.6103V20.7681C9.52484 20.9378 9.45741 21.1006 9.33739 21.2206C9.21737 21.3406 9.05458 21.4081 8.88484 21.4081ZM12 21.4081C11.8303 21.4081 11.6675 21.3406 11.5475 21.2206C11.4275 21.1006 11.36 20.9378 11.36 20.7681V18.6103C11.36 18.4406 11.4275 18.2778 11.5475 18.1578C11.6675 18.0377 11.8303 17.9703 12 17.9703C12.1698 17.9703 12.3326 18.0377 12.4526 18.1578C12.5726 18.2778 12.64 18.4406 12.64 18.6103V20.7681C12.64 20.9378 12.5726 21.1006 12.4526 21.2206C12.3326 21.3406 12.1698 21.4081 12 21.4081ZM15.1152 21.4081C14.9455 21.4081 14.7827 21.3406 14.6627 21.2206C14.5427 21.1006 14.4752 20.9378 14.4752 20.7681V18.6103C14.4752 18.4406 14.5427 18.2778 14.6627 18.1578C14.7827 18.0377 14.9455 17.9703 15.1152 17.9703C15.285 17.9703 15.4478 18.0377 15.5678 18.1578C15.6878 18.2778 15.7552 18.4406 15.7552 18.6103V20.7681C15.7552 20.9378 15.6878 21.1006 15.5678 21.2206C15.4478 21.3406 15.285 21.4081 15.1152 21.4081ZM20.768 9.52487H18.6103C18.4405 9.52487 18.2778 9.45744 18.1577 9.33742C18.0377 9.2174 17.9703 9.05461 17.9703 8.88487C17.9703 8.71513 18.0377 8.55235 18.1577 8.43232C18.2778 8.3123 18.4405 8.24487 18.6103 8.24487H20.768C20.9378 8.24487 21.1006 8.3123 21.2206 8.43232C21.3406 8.55235 21.408 8.71513 21.408 8.88487C21.408 9.05461 21.3406 9.2174 21.2206 9.33742C21.1006 9.45744 20.9378 9.52487 20.768 9.52487ZM20.768 12.6401H18.6103C18.4405 12.6401 18.2778 12.5726 18.1577 12.4526C18.0377 12.3326 17.9703 12.1698 17.9703 12.0001C17.9703 11.8303 18.0377 11.6675 18.1577 11.5475C18.2778 11.4275 18.4405 11.3601 18.6103 11.3601H20.768C20.9378 11.3601 21.1006 11.4275 21.2206 11.5475C21.3406 11.6675 21.408 11.8303 21.408 12.0001C21.408 12.1698 21.3406 12.3326 21.2206 12.4526C21.1006 12.5726 20.9378 12.6401 20.768 12.6401ZM20.768 15.7553H18.6103C18.4405 15.7553 18.2778 15.6878 18.1577 15.5678C18.0377 15.4478 17.9703 15.285 17.9703 15.1153C17.9703 14.9455 18.0377 14.7827 18.1577 14.6627C18.2778 14.5427 18.4405 14.4753 18.6103 14.4753H20.768C20.9378 14.4753 21.1006 14.5427 21.2206 14.6627C21.3406 14.7827 21.408 14.9455 21.408 15.1153C21.408 15.285 21.3406 15.4478 21.2206 15.5678C21.1006 15.6878 20.9378 15.7553 20.768 15.7553ZM5.3898 9.52487H3.23204C3.0623 9.52487 2.89952 9.45744 2.77949 9.33742C2.65947 9.2174 2.59204 9.05461 2.59204 8.88487C2.59204 8.71513 2.65947 8.55235 2.77949 8.43232C2.89952 8.3123 3.0623 8.24487 3.23204 8.24487H5.39076C5.5605 8.24487 5.72329 8.3123 5.84331 8.43232C5.96333 8.55235 6.03076 8.71513 6.03076 8.88487C6.03076 9.05461 5.96333 9.2174 5.84331 9.33742C5.72329 9.45744 5.5605 9.52487 5.39076 9.52487H5.3898ZM5.3898 12.6401H3.23204C3.0623 12.6401 2.89952 12.5726 2.77949 12.4526C2.65947 12.3326 2.59204 12.1698 2.59204 12.0001C2.59204 11.8303 2.65947 11.6675 2.77949 11.5475C2.89952 11.4275 3.0623 11.3601 3.23204 11.3601H5.39076C5.5605 11.3601 5.72329 11.4275 5.84331 11.5475C5.96333 11.6675 6.03076 11.8303 6.03076 12.0001C6.03076 12.1698 5.96333 12.3326 5.84331 12.4526C5.72329 12.5726 5.5605 12.6401 5.39076 12.6401H5.3898ZM5.3898 15.7553H3.23204C3.0623 15.7553 2.89952 15.6878 2.77949 15.5678C2.65947 15.4478 2.59204 15.285 2.59204 15.1153C2.59204 14.9455 2.65947 14.7827 2.77949 14.6627C2.89952 14.5427 3.0623 14.4753 3.23204 14.4753H5.39076C5.5605 14.4753 5.72329 14.5427 5.84331 14.6627C5.96333 14.7827 6.03076 14.9455 6.03076 15.1153C6.03076 15.285 5.96333 15.4478 5.84331 15.5678C5.72329 15.6878 5.5605 15.7553 5.39076 15.7553H5.3898Z" fill="#202020"/>
</svg>
