<svg width="24" height="24" viewBox="0 0 24 24" fill="none" xmlns="http://www.w3.org/2000/svg">
<path d="M9.58976 14.7062C9.16159 14.7064 8.73948 14.605 8.35814 14.4103C7.97679 14.2156 7.64709 13.9332 7.39613 13.5863C7.14518 13.2393 6.98013 12.8378 6.91455 12.4147C6.84898 11.9916 6.88475 11.5589 7.01892 11.1523C7.1531 10.7457 7.38185 10.3768 7.68637 10.0758C7.9909 9.77479 8.3625 9.55036 8.77064 9.42094C9.17879 9.29152 9.61182 9.2608 10.0341 9.33131C10.4565 9.40182 10.856 9.57154 11.2 9.82653C11.3346 9.92835 11.4235 10.0792 11.4474 10.2463C11.4713 10.4133 11.4283 10.5831 11.3276 10.7185C11.227 10.854 11.0769 10.9442 10.9101 10.9696C10.7433 10.995 10.5732 10.9535 10.4368 10.854C10.2183 10.6922 9.95812 10.5961 9.68686 10.5773C9.4156 10.5584 9.1446 10.6175 8.90581 10.7475C8.66702 10.8776 8.4704 11.0732 8.33913 11.3113C8.20786 11.5495 8.14741 11.8202 8.16492 12.0915C8.18242 12.3629 8.27715 12.6236 8.43792 12.8428C8.5987 13.0621 8.81883 13.2309 9.07235 13.3292C9.32587 13.4275 9.60221 13.4513 9.8688 13.3977C10.1354 13.3441 10.3811 13.2155 10.577 13.0268C10.6993 12.9092 10.8635 12.8449 11.0332 12.8483C11.2029 12.8516 11.3644 12.9222 11.4821 13.0446C11.5998 13.167 11.664 13.3311 11.6607 13.5008C11.6573 13.6706 11.5867 13.8321 11.4643 13.9497C10.9612 14.4354 10.289 14.7066 9.58976 14.7062ZM15.0502 14.7062C14.9401 14.7062 14.83 14.6994 14.7206 14.686C14.3093 14.6361 13.915 14.4924 13.568 14.2659C13.221 14.0395 12.9307 13.7363 12.7193 13.38C12.508 13.0236 12.3814 12.6234 12.3491 12.2103C12.3169 11.7972 12.38 11.3823 12.5335 10.9974C12.687 10.6125 12.9268 10.2681 13.2345 9.99056C13.5422 9.71304 13.9095 9.50989 14.308 9.39676C14.7066 9.28363 15.1259 9.26355 15.5335 9.33806C15.9411 9.41257 16.3261 9.57969 16.6589 9.82653C16.7935 9.92835 16.8824 10.0792 16.9063 10.2463C16.9302 10.4133 16.8871 10.5831 16.7865 10.7185C16.6859 10.854 16.5358 10.9442 16.369 10.9696C16.2022 10.995 16.032 10.9535 15.8957 10.854C15.6772 10.6922 15.417 10.5961 15.1457 10.5773C14.8745 10.5584 14.6035 10.6175 14.3647 10.7475C14.1259 10.8776 13.9293 11.0732 13.798 11.3113C13.6667 11.5495 13.6063 11.8202 13.6238 12.0915C13.6413 12.3629 13.736 12.6236 13.8968 12.8428C14.0576 13.0621 14.2777 13.2309 14.5312 13.3292C14.7847 13.4275 15.0611 13.4513 15.3277 13.3977C15.5943 13.3441 15.84 13.2155 16.0358 13.0268C16.1582 12.9092 16.3223 12.8449 16.4921 12.8483C16.6618 12.8516 16.8233 12.9222 16.941 13.0446C17.0586 13.167 17.1229 13.3311 17.1195 13.5008C17.1162 13.6706 17.0456 13.8321 16.9232 13.9497C16.4205 14.435 15.749 14.7062 15.0502 14.7062Z" fill="#202020"/>
<path d="M12 20.6806C9.99178 20.6805 8.04571 19.9841 6.49338 18.7101C4.94104 17.436 3.87849 15.6631 3.48676 13.6935C3.09503 11.7238 3.39837 9.67928 4.34508 7.90821C5.2918 6.13713 6.82331 4.74911 8.67869 3.98063C10.5341 3.21216 12.5985 3.11077 14.5202 3.69376C16.442 4.27674 18.1021 5.50803 19.2178 7.17782C20.3335 8.84761 20.8357 10.8526 20.6389 12.8511C20.442 14.8497 19.5583 16.7182 18.1382 18.1382C17.334 18.9467 16.3774 19.5877 15.3238 20.0242C14.2701 20.4606 13.1404 20.6837 12 20.6806ZM12 4.59931C7.91937 4.59931 4.59937 7.91931 4.59937 11.9999C4.59937 16.0806 7.91937 19.4006 12 19.4006C16.0806 19.4006 19.4006 16.0806 19.4006 11.9999C19.4006 7.91931 16.0806 4.59931 12 4.59931Z" fill="#202020"/>
</svg>
