<svg width="24" height="24" viewBox="0 0 24 24" fill="none" xmlns="http://www.w3.org/2000/svg">
<path d="M16.6671 18.1542H7.33273C7.19149 18.1543 7.0542 18.1076 6.94226 18.0215C6.83031 17.9353 6.75001 17.8146 6.71385 17.6781L3.56569 5.77247C3.52833 5.63113 3.54048 5.48127 3.60012 5.3478C3.65976 5.21433 3.7633 5.1053 3.89351 5.03885C4.02372 4.97239 4.17276 4.95252 4.31584 4.98254C4.45891 5.01255 4.5874 5.09065 4.67993 5.20383L8.84313 10.2944L11.4374 5.32191C11.492 5.21738 11.5744 5.12997 11.6755 5.06932C11.7766 5.00867 11.8925 4.97713 12.0104 4.97819C12.1283 4.97925 12.2437 5.01286 12.3437 5.07532C12.4437 5.13778 12.5245 5.22666 12.5772 5.33215L15.1468 10.4781L19.3135 5.21183C19.4049 5.09692 19.533 5.01692 19.6764 4.98524C19.8197 4.95357 19.9696 4.97215 20.1009 5.03787C20.2322 5.10359 20.3369 5.21245 20.3975 5.3462C20.458 5.47995 20.4708 5.63045 20.4335 5.77247L17.286 17.6781C17.2498 17.8146 17.1695 17.9353 17.0576 18.0215C16.9457 18.1076 16.8084 18.1543 16.6671 18.1542ZM7.82553 16.8742H16.1746L18.4114 8.41599L15.526 12.064C15.4592 12.1485 15.3721 12.2147 15.2728 12.2566C15.1735 12.2984 15.0653 12.3146 14.9581 12.3035C14.851 12.2924 14.7484 12.2544 14.6598 12.1931C14.5712 12.1317 14.4995 12.049 14.4514 11.9526L11.9922 7.02783L9.52825 11.7485C9.47929 11.8423 9.40782 11.9226 9.32022 11.9821C9.23263 12.0415 9.13165 12.0783 9.02634 12.0892C8.92103 12.1 8.81467 12.0846 8.71679 12.0442C8.61892 12.0038 8.53258 11.9398 8.46553 11.8579L5.55673 8.30111L7.82553 16.8742ZM18.4828 20.1872H5.51705C5.34731 20.1872 5.18452 20.1198 5.0645 19.9997C4.94448 19.8797 4.87705 19.7169 4.87705 19.5472C4.87705 19.3774 4.94448 19.2147 5.0645 19.0946C5.18452 18.9746 5.34731 18.9072 5.51705 18.9072H18.4828C18.6525 18.9072 18.8153 18.9746 18.9354 19.0946C19.0554 19.2147 19.1228 19.3774 19.1228 19.5472C19.1228 19.7169 19.0554 19.8797 18.9354 19.9997C18.8153 20.1198 18.6525 20.1872 18.4828 20.1872Z" fill="#202020"/>
<path d="M14.4988 15.2067H9.50108C9.33135 15.2067 9.16856 15.1393 9.04854 15.0193C8.92851 14.8993 8.86108 14.7365 8.86108 14.5667C8.86108 14.397 8.92851 14.2342 9.04854 14.1142C9.16856 13.9942 9.33135 13.9267 9.50108 13.9267H14.4988C14.6686 13.9267 14.8314 13.9942 14.9514 14.1142C15.0714 14.2342 15.1388 14.397 15.1388 14.5667C15.1388 14.7365 15.0714 14.8993 14.9514 15.0193C14.8314 15.1393 14.6686 15.2067 14.4988 15.2067Z" fill="#202020"/>
</svg>
