<svg width="24" height="24" viewBox="0 0 24 24" fill="none" xmlns="http://www.w3.org/2000/svg">
<path d="M21.5 4H18V2.5C18 2.49982 18 2.50024 18 2.5C17.9998 2.22406 17.776 1.99982 17.5 2H6.5C6.49982 2 6.50024 2 6.5 2C6.22406 2.00018 5.99982 2.224 6 2.5V4H2.5C2.49982 4 2.50024 4 2.5 4C2.22406 4.00018 1.99982 4.224 2 4.5V7.5C2.00269 9.98413 4.01587 11.9973 6.5 12H7.5C7.51215 12 7.52228 11.994 7.53418 11.9931C8.52832 13.1039 9.92609 13.8425 11.5 13.9742V17H10.5C9.11981 17.0013 8.00128 18.1198 8 19.5V21.5C8 21.4998 8 21.5002 8 21.5C8.00018 21.776 8.224 22.0002 8.5 22H15.5C15.4998 22 15.5002 22 15.5 22C15.7759 21.9998 16.0002 21.776 16 21.5V19.5C15.9987 18.1198 14.8802 17.0013 13.5 17H12.5V13.9742C14.0739 13.8425 15.4717 13.1039 16.4658 11.9931C16.4777 11.994 16.4879 12 16.5 12H17.5C19.9841 11.9973 21.9973 9.98413 22 7.5V4.5C22 4.49982 22 4.50024 22 4.5C21.9998 4.22406 21.776 3.99982 21.5 4ZM6.5 11C4.56799 10.9977 3.00232 9.43201 3 7.5V5H6V8C6.00116 9.0943 6.29968 10.1168 6.81207 11H6.5ZM13.5 18C14.3281 18.0009 14.9991 18.6719 15 19.5V21H9V19.5C9.00092 18.6719 9.67194 18.0009 10.5 18H12C11.9998 18 12.0002 18 12 18H13.5ZM17 8C17 10.7614 14.7614 13 12 13C9.23859 13 7 10.7614 7 8V3H17V8ZM21 7.5C20.9977 9.43201 19.432 10.9977 17.5 11H17.1879C17.7003 10.1168 17.9988 9.0943 18 8V5H21V7.5Z" fill="#202020"/>
</svg>
