<svg width="24" height="24" viewBox="0 0 24 24" fill="none" xmlns="http://www.w3.org/2000/svg">
<path d="M12 16.409C11.7582 16.4089 11.5207 16.3451 11.3114 16.224L8.68547 14.7082C8.47637 14.5868 8.30274 14.4128 8.1819 14.2034C8.06107 13.994 7.99725 13.7566 7.99683 13.5149V10.4842C7.99725 10.2424 8.06107 10.005 8.1819 9.79561C8.30274 9.58623 8.47637 9.41219 8.68547 9.29087L11.3114 7.77599C11.5208 7.65578 11.758 7.59253 11.9994 7.59253C12.2408 7.59253 12.478 7.65578 12.6874 7.77599L15.3133 9.29183C15.5224 9.41315 15.696 9.58719 15.8169 9.79657C15.9377 10.006 16.0015 10.2434 16.0019 10.4851V13.5168C16.0015 13.7585 15.9377 13.9959 15.8169 14.2053C15.696 14.4147 15.5224 14.5887 15.3133 14.7101L12.6887 16.224C12.4794 16.3451 12.2418 16.4089 12 16.409ZM12 8.87071C11.983 8.87058 11.9662 8.875 11.9514 8.88351L9.32547 10.4C9.31056 10.4084 9.29818 10.4207 9.28963 10.4356C9.28107 10.4505 9.27665 10.4673 9.27683 10.4845V13.5162C9.27665 13.5333 9.28107 13.5502 9.28963 13.565C9.29818 13.5799 9.31056 13.5922 9.32547 13.6006L11.9514 15.1168C11.966 15.1251 11.9826 15.1294 11.9994 15.1294C12.0162 15.1294 12.0327 15.1251 12.0474 15.1168L14.6746 13.6C14.6895 13.5915 14.7019 13.5792 14.7104 13.5644C14.719 13.5495 14.7234 13.5327 14.7232 13.5155V10.4842C14.7234 10.467 14.719 10.4501 14.7104 10.4353C14.7019 10.4204 14.6895 10.4081 14.6746 10.3997L12.0487 8.88351C12.0339 8.875 12.0171 8.87058 12 8.87071Z" fill="#202020"/>
<path d="M12.0001 12.64C11.8877 12.64 11.7773 12.6104 11.6801 12.5542L8.41606 10.6694C8.27026 10.5839 8.16419 10.4443 8.12099 10.2809C8.0778 10.1175 8.10098 9.94365 8.18548 9.79729C8.26998 9.65093 8.40895 9.54393 8.57205 9.49965C8.73515 9.45537 8.90914 9.4774 9.05606 9.56093L12.0001 11.2611L14.9441 9.56093C15.091 9.4774 15.265 9.45537 15.4281 9.49965C15.5912 9.54393 15.7301 9.65093 15.8146 9.79729C15.8991 9.94365 15.9223 10.1175 15.8791 10.2809C15.8359 10.4443 15.7299 10.5839 15.5841 10.6694L12.3201 12.5542C12.2228 12.6104 12.1124 12.64 12.0001 12.64Z" fill="#202020"/>
<path d="M12 16.4095C11.8302 16.4095 11.6674 16.3421 11.5474 16.2221C11.4274 16.1021 11.36 15.9393 11.36 15.7695V11.9999C11.36 11.8302 11.4274 11.6674 11.5474 11.5474C11.6674 11.4274 11.8302 11.3599 12 11.3599C12.1697 11.3599 12.3325 11.4274 12.4525 11.5474C12.5725 11.6674 12.64 11.8302 12.64 11.9999V15.7695C12.64 15.9393 12.5725 16.1021 12.4525 16.2221C12.3325 16.3421 12.1697 16.4095 12 16.4095ZM15.1763 7.0905C15.0155 7.09047 14.8606 7.02991 14.7424 6.92087C14.6243 6.81183 14.5515 6.6623 14.5385 6.50203C14.5256 6.34176 14.5734 6.18248 14.6726 6.05589C14.7717 5.9293 14.9149 5.84466 15.0736 5.81882L16.5472 5.57722L16.2988 4.06394C16.2853 3.98099 16.2881 3.89617 16.3073 3.81433C16.3265 3.73249 16.3616 3.65523 16.4107 3.58696C16.5097 3.44908 16.6595 3.3562 16.827 3.32874C16.9945 3.30129 17.1661 3.34151 17.304 3.44056C17.4419 3.53961 17.5348 3.68937 17.5622 3.8569L17.9142 6.00314C17.9279 6.08617 17.9251 6.17108 17.906 6.25303C17.8869 6.33498 17.8518 6.41235 17.8027 6.48071C17.7536 6.54908 17.6915 6.60709 17.62 6.65143C17.5485 6.69578 17.4689 6.72558 17.3859 6.73914L15.2809 7.0841C15.2463 7.08907 15.2113 7.09121 15.1763 7.0905ZM6.31613 20.4275C6.16626 20.4273 6.0212 20.3746 5.90623 20.2784C5.79127 20.1823 5.71368 20.0489 5.68701 19.9014L5.30045 17.7599C5.27033 17.593 5.30775 17.4209 5.40448 17.2815C5.50121 17.1421 5.64933 17.0468 5.81629 17.0166L7.91549 16.6399C8.0819 16.6112 8.25294 16.6493 8.39133 16.7461C8.52972 16.8429 8.62425 16.9905 8.65431 17.1567C8.68437 17.3228 8.64753 17.4942 8.55182 17.6333C8.4561 17.7724 8.30927 17.8681 8.14333 17.8995L6.67389 18.1651L6.94685 19.6751C6.96354 19.7674 6.95975 19.8622 6.93575 19.9529C6.91174 20.0435 6.86811 20.1278 6.80794 20.1997C6.74777 20.2716 6.67253 20.3295 6.58755 20.3691C6.50256 20.4087 6.4099 20.4292 6.31613 20.4291V20.4275Z" fill="#202020"/>
<path d="M4.22619 10.53C4.16767 10.5298 4.10944 10.5217 4.05307 10.506C3.88966 10.4601 3.75116 10.3512 3.66805 10.2032C3.58493 10.0552 3.56401 9.88027 3.60987 9.71685C4.118 7.92594 5.18793 6.3456 6.66203 5.20869C8.25318 3.98699 10.2202 3.35776 12.225 3.42918C14.2298 3.5006 16.1471 4.26821 17.6473 5.60005C17.7742 5.71276 17.8512 5.87127 17.8612 6.04071C17.8713 6.21015 17.8136 6.37665 17.7009 6.50357C17.5882 6.63049 17.4297 6.70744 17.2603 6.7175C17.0908 6.72755 16.9243 6.66988 16.7974 6.55717C15.4532 5.36242 13.7171 4.70296 11.9187 4.70405C8.63739 4.70405 5.72795 6.90725 4.84219 10.0625C4.80456 10.1969 4.724 10.3154 4.61279 10.3998C4.50157 10.4842 4.36581 10.5299 4.22619 10.53ZM11.9187 20.6807C9.77604 20.6827 7.70966 19.8856 6.12347 18.4452C6.06121 18.3887 6.01069 18.3205 5.97479 18.2445C5.93888 18.1685 5.9183 18.0862 5.91421 18.0022C5.91013 17.9182 5.92262 17.8343 5.95097 17.7552C5.97933 17.676 6.02299 17.6033 6.07947 17.541C6.13595 17.4788 6.20414 17.4282 6.28014 17.3923C6.35615 17.3564 6.43848 17.3358 6.52244 17.3318C6.6064 17.3277 6.69034 17.3402 6.76947 17.3685C6.8486 17.3969 6.92137 17.4405 6.98363 17.497C7.92284 18.3482 9.06618 18.942 10.3026 19.2207C11.5391 19.4995 12.8266 19.4538 14.0402 19.0881C15.2538 18.7224 16.3522 18.049 17.2287 17.1334C18.1052 16.2178 18.73 15.0911 19.0425 13.8628C19.0858 13.7001 19.1914 13.5611 19.3365 13.4758C19.4816 13.3904 19.6544 13.3657 19.8176 13.4069C19.9808 13.4481 20.1212 13.5519 20.2084 13.6959C20.2956 13.8398 20.3226 14.0123 20.2835 14.1761C19.812 16.0365 18.7332 17.6864 17.218 18.8644C15.7029 20.0424 13.8379 20.6812 11.9187 20.6794V20.6807Z" fill="#202020"/>
</svg>
