<svg width="24" height="24" viewBox="0 0 24 24" fill="none" xmlns="http://www.w3.org/2000/svg">
<path d="M18.6704 19.8282H5.3296C5.01918 19.8281 4.71423 19.7464 4.44541 19.5911C4.17659 19.4359 3.95336 19.2126 3.79815 18.9438C3.64295 18.675 3.56123 18.37 3.56122 18.0596C3.56121 17.7492 3.6429 17.4442 3.79808 17.1754L10.4682 5.62335C10.6234 5.35442 10.8466 5.13108 11.1155 4.9758C11.3844 4.82052 11.6895 4.73877 12 4.73877C12.3105 4.73877 12.6156 4.82052 12.8844 4.9758C13.1533 5.13108 13.3766 5.35442 13.5318 5.62335L20.2019 17.1754C20.3571 17.4442 20.4388 17.7492 20.4388 18.0596C20.4388 18.37 20.357 18.675 20.2018 18.9438C20.0466 19.2126 19.8234 19.4359 19.5546 19.5911C19.2858 19.7464 18.9808 19.8281 18.6704 19.8282ZM11.5766 6.26207L4.90656 17.8141C4.86372 17.8883 4.84117 17.9726 4.84119 18.0583C4.8412 18.1441 4.86377 18.2283 4.90664 18.3025C4.94951 18.3768 5.01116 18.4385 5.0854 18.4813C5.15964 18.5242 5.24386 18.5468 5.3296 18.5469H18.6704C18.7561 18.5468 18.8404 18.5242 18.9146 18.4813C18.9888 18.4385 19.0505 18.3768 19.0934 18.3025C19.1362 18.2283 19.1588 18.1441 19.1588 18.0583C19.1588 17.9726 19.1363 17.8883 19.0934 17.8141L12.4234 6.26207C12.3804 6.18779 12.3187 6.1261 12.2444 6.08322C12.1701 6.04033 12.0858 6.01775 12 6.01775C11.9142 6.01775 11.8299 6.04033 11.7556 6.08322C11.6813 6.1261 11.6196 6.18779 11.5766 6.26207Z" fill="#202020"/>
<path d="M12 14.4423C11.8302 14.4423 11.6675 14.3748 11.5474 14.2548C11.4274 14.1348 11.36 13.972 11.36 13.8023V8.12035C11.36 7.95061 11.4274 7.78782 11.5474 7.6678C11.6675 7.54778 11.8302 7.48035 12 7.48035C12.1697 7.48035 12.3325 7.54778 12.4525 7.6678C12.5726 7.78782 12.64 7.95061 12.64 8.12035V13.8023C12.64 13.972 12.5726 14.1348 12.4525 14.2548C12.3325 14.3748 12.1697 14.4423 12 14.4423ZM12 17.2208C11.8302 17.2208 11.6675 17.1534 11.5474 17.0334C11.4274 16.9134 11.36 16.7506 11.36 16.5808V15.5981C11.36 15.4284 11.4274 15.2656 11.5474 15.1456C11.6675 15.0255 11.8302 14.9581 12 14.9581C12.1697 14.9581 12.3325 15.0255 12.4525 15.1456C12.5726 15.2656 12.64 15.4284 12.64 15.5981V16.5808C12.64 16.7506 12.5726 16.9134 12.4525 17.0334C12.3325 17.1534 12.1697 17.2208 12 17.2208Z" fill="#202020"/>
</svg>
