<svg width="24" height="24" viewBox="0 0 24 24" fill="none" xmlns="http://www.w3.org/2000/svg">
<path d="M8.6112 8.85573H4.86016C4.43315 8.8553 4.02374 8.68548 3.72179 8.38354C3.41985 8.08159 3.25003 7.67218 3.2496 7.24517V6.33029C3.25003 5.90327 3.41985 5.49386 3.72179 5.19192C4.02374 4.88997 4.43315 4.72015 4.86016 4.71973H8.6112C9.03819 4.72023 9.44755 4.89008 9.74948 5.19201C10.0514 5.49394 10.2213 5.9033 10.2218 6.33029V7.24517C10.2213 7.67216 10.0514 8.08151 9.74948 8.38344C9.44755 8.68537 9.03819 8.85522 8.6112 8.85573ZM4.86016 5.99973C4.77252 5.99981 4.68849 6.03467 4.62652 6.09664C4.56454 6.15861 4.52969 6.24264 4.5296 6.33029V7.24517C4.52969 7.33281 4.56454 7.41684 4.62652 7.47881C4.68849 7.54079 4.77252 7.57564 4.86016 7.57573H8.6112C8.69885 7.57564 8.78288 7.54079 8.84485 7.47881C8.90682 7.41684 8.94168 7.33281 8.94176 7.24517V6.33029C8.94159 6.24267 8.90671 6.15869 8.84476 6.09673C8.7828 6.03478 8.69882 5.9999 8.6112 5.99973H4.86016ZM19.3078 8.60805H16.2058C15.8233 8.60762 15.4566 8.4555 15.1862 8.18506C14.9157 7.91462 14.7636 7.54795 14.7632 7.16549V6.40965C14.7636 6.02716 14.9157 5.66045 15.1862 5.38996C15.4566 5.11947 15.8233 4.96727 16.2058 4.96677H19.3078C19.6903 4.96727 20.057 5.11947 20.3274 5.38996C20.5979 5.66045 20.75 6.02716 20.7504 6.40965V7.16613C20.7498 7.54848 20.5976 7.91499 20.3272 8.18529C20.0568 8.45559 19.6902 8.60762 19.3078 8.60805ZM16.2058 6.24613C16.1626 6.24621 16.1213 6.26341 16.0908 6.29395C16.0603 6.32448 16.0432 6.36586 16.0432 6.40901V7.16549C16.0433 7.20857 16.0604 7.24987 16.0909 7.28034C16.1214 7.31081 16.1627 7.32796 16.2058 7.32805H19.3078C19.3509 7.32796 19.3922 7.31081 19.4227 7.28034C19.4532 7.24987 19.4703 7.20857 19.4704 7.16549V6.40965C19.4704 6.3665 19.4533 6.32512 19.4228 6.29459C19.3923 6.26405 19.351 6.24685 19.3078 6.24677L16.2058 6.24613Z" fill="#202020"/>
<path d="M15.4032 7.42795H9.58176C9.41202 7.42795 9.24923 7.36052 9.12921 7.2405C9.00919 7.12047 8.94176 6.95769 8.94176 6.78795C8.94176 6.61821 9.00919 6.45542 9.12921 6.3354C9.24923 6.21538 9.41202 6.14795 9.58176 6.14795H15.4032C15.5729 6.14795 15.7357 6.21538 15.8557 6.3354C15.9758 6.45542 16.0432 6.61821 16.0432 6.78795C16.0432 6.95769 15.9758 7.12047 15.8557 7.2405C15.7357 7.36052 15.5729 7.42795 15.4032 7.42795ZM19.3078 13.9444H16.2058C15.8233 13.944 15.4566 13.7919 15.1862 13.5214C14.9157 13.251 14.7636 12.8843 14.7632 12.5019V11.7441C14.7643 11.3621 14.9167 10.9961 15.1871 10.7262C15.4575 10.4563 15.8237 10.3045 16.2058 10.3041H19.3078C19.6899 10.3045 20.0561 10.4563 20.3265 10.7262C20.5969 10.9961 20.7493 11.3621 20.7504 11.7441V12.5006C20.7503 12.8833 20.5983 13.2503 20.3279 13.521C20.0574 13.7917 19.6905 13.944 19.3078 13.9444ZM16.2058 11.5841C16.1627 11.5842 16.1214 11.6013 16.0909 11.6318C16.0604 11.6623 16.0433 11.7036 16.0432 11.7467V12.5031C16.0433 12.5462 16.0604 12.5875 16.0909 12.618C16.1214 12.6485 16.1627 12.6656 16.2058 12.6657H19.3078C19.3509 12.6656 19.3922 12.6485 19.4227 12.618C19.4532 12.5875 19.4703 12.5462 19.4704 12.5031V11.7441C19.4703 11.701 19.4532 11.6597 19.4227 11.6293C19.3922 11.5988 19.3509 11.5816 19.3078 11.5816L16.2058 11.5841Z" fill="#202020"/>
<path d="M15.4032 12.7636H12.4054C12.2357 12.7636 12.0729 12.6962 11.9529 12.5762C11.8329 12.4562 11.7654 12.2934 11.7654 12.1236C11.7654 11.9539 11.8329 11.7911 11.9529 11.6711C12.0729 11.5511 12.2357 11.4836 12.4054 11.4836H15.4032C15.5729 11.4836 15.7357 11.5511 15.8557 11.6711C15.9758 11.7911 16.0432 11.9539 16.0432 12.1236C16.0432 12.2934 15.9758 12.4562 15.8557 12.5762C15.7357 12.6962 15.5729 12.7636 15.4032 12.7636ZM19.3078 19.2804H16.2058C15.8233 19.2799 15.4566 19.1277 15.1862 18.8573C14.9157 18.5868 14.7636 18.2201 14.7632 17.8376V17.0811C14.7636 16.6986 14.9157 16.3319 15.1862 16.0615C15.4566 15.7911 15.8233 15.6389 16.2058 15.6385H19.3078C19.6903 15.6389 20.057 15.7911 20.3274 16.0615C20.5979 16.3319 20.75 16.6986 20.7504 17.0811V17.8376C20.75 18.2201 20.5979 18.5868 20.3274 18.8573C20.057 19.1277 19.6903 19.2799 19.3078 19.2804ZM16.2058 16.9185C16.1627 16.9186 16.1214 16.9358 16.0909 16.9662C16.0604 16.9967 16.0433 17.038 16.0432 17.0811V17.8376C16.0432 17.8807 16.0603 17.9221 16.0908 17.9526C16.1213 17.9832 16.1626 18.0004 16.2058 18.0004H19.3078C19.351 18.0004 19.3923 17.9832 19.4228 17.9526C19.4533 17.9221 19.4704 17.8807 19.4704 17.8376V17.0811C19.4703 17.038 19.4532 16.9967 19.4227 16.9662C19.3922 16.9358 19.3509 16.9186 19.3078 16.9185H16.2058Z" fill="#202020"/>
<path d="M15.4032 18.0993H13.9043C13.7346 18.0993 13.5718 18.0319 13.4518 17.9119C13.3318 17.7919 13.2643 17.6291 13.2643 17.4593C13.2643 17.2896 13.3318 17.1268 13.4518 17.0068C13.5718 16.8868 13.7346 16.8193 13.9043 16.8193H15.4032C15.5729 16.8193 15.7357 16.8868 15.8558 17.0068C15.9758 17.1268 16.0432 17.2896 16.0432 17.4593C16.0432 17.6291 15.9758 17.7919 15.8558 17.9119C15.7357 18.0319 15.5729 18.0993 15.4032 18.0993Z" fill="#202020"/>
</svg>
