<svg width="24" height="24" viewBox="0 0 24 24" fill="none" xmlns="http://www.w3.org/2000/svg">
<path d="M8.61111 8.85567H4.86007C4.43305 8.85524 4.02365 8.68542 3.7217 8.38348C3.41975 8.08153 3.24994 7.67212 3.24951 7.24511V6.33023C3.24994 5.90321 3.41975 5.4938 3.7217 5.19186C4.02365 4.88991 4.43305 4.72009 4.86007 4.71967H8.61111C9.0381 4.72017 9.44746 4.89002 9.74939 5.19195C10.0513 5.49388 10.2212 5.90323 10.2217 6.33023V7.24511C10.2212 7.6721 10.0513 8.08145 9.74939 8.38338C9.44746 8.68531 9.0381 8.85516 8.61111 8.85567ZM4.86007 5.99967C4.77243 5.99975 4.6884 6.0346 4.62642 6.09658C4.56445 6.15855 4.5296 6.24258 4.52951 6.33023V7.24511C4.5296 7.33275 4.56445 7.41678 4.62642 7.47875C4.6884 7.54073 4.77243 7.57558 4.86007 7.57567H8.61111C8.69876 7.57558 8.78279 7.54073 8.84476 7.47875C8.90673 7.41678 8.94159 7.33275 8.94167 7.24511V6.33023C8.9415 6.24261 8.90662 6.15863 8.84467 6.09667C8.78271 6.03472 8.69873 5.99983 8.61111 5.99967H4.86007ZM19.3078 8.60799H16.2057C15.8232 8.60756 15.4565 8.45544 15.1861 8.185C14.9157 7.91456 14.7635 7.54789 14.7631 7.16543V6.40959C14.7635 6.0271 14.9156 5.66039 15.1861 5.3899C15.4565 5.1194 15.8232 4.96721 16.2057 4.96671H19.3078C19.6902 4.96721 20.0569 5.1194 20.3274 5.3899C20.5978 5.66039 20.7499 6.0271 20.7503 6.40959V7.16607C20.7497 7.54842 20.5975 7.91493 20.3271 8.18523C20.0567 8.45553 19.6901 8.60756 19.3078 8.60799ZM16.2057 6.24607C16.1625 6.24615 16.1212 6.26335 16.0907 6.29388C16.0602 6.32442 16.0431 6.3658 16.0431 6.40895V7.16543C16.0432 7.20851 16.0604 7.24981 16.0908 7.28028C16.1213 7.31075 16.1626 7.3279 16.2057 7.32799H19.3078C19.3508 7.3279 19.3921 7.31075 19.4226 7.28028C19.4531 7.24981 19.4702 7.20851 19.4703 7.16543V6.40959C19.4703 6.36644 19.4532 6.32506 19.4227 6.29453C19.3922 6.26399 19.3509 6.24679 19.3078 6.24671L16.2057 6.24607Z" fill="#202020"/>
<path d="M15.4031 7.42783H9.58165C9.41191 7.42783 9.24913 7.3604 9.1291 7.24038C9.00908 7.12035 8.94165 6.95757 8.94165 6.78783C8.94165 6.61809 9.00908 6.4553 9.1291 6.33528C9.24913 6.21526 9.41191 6.14783 9.58165 6.14783H15.4031C15.5728 6.14783 15.7356 6.21526 15.8556 6.33528C15.9757 6.4553 16.0431 6.61809 16.0431 6.78783C16.0431 6.95757 15.9757 7.12035 15.8556 7.24038C15.7356 7.3604 15.5728 7.42783 15.4031 7.42783ZM19.3077 13.9443H16.2057C15.8232 13.9439 15.4565 13.7918 15.1861 13.5213C14.9156 13.2509 14.7635 12.8842 14.7631 12.5017V11.744C14.7642 11.362 14.9166 10.996 15.187 10.7261C15.4573 10.4562 15.8236 10.3044 16.2057 10.304H19.3077C19.6897 10.3044 20.056 10.4562 20.3264 10.7261C20.5968 10.996 20.7492 11.362 20.7503 11.744V12.5005C20.7502 12.8832 20.5982 13.2502 20.3278 13.5209C20.0573 13.7916 19.6904 13.9439 19.3077 13.9443ZM16.2057 11.584C16.1626 11.5841 16.1213 11.6012 16.0908 11.6317C16.0603 11.6622 16.0432 11.7035 16.0431 11.7465V12.503C16.0432 12.5461 16.0603 12.5874 16.0908 12.6179C16.1213 12.6483 16.1626 12.6655 16.2057 12.6656H19.3077C19.3508 12.6655 19.3921 12.6483 19.4226 12.6179C19.4531 12.5874 19.4702 12.5461 19.4703 12.503V11.744C19.4702 11.7009 19.4531 11.6596 19.4226 11.6291C19.3921 11.5987 19.3508 11.5815 19.3077 11.5814L16.2057 11.584Z" fill="#202020"/>
<path d="M15.4031 12.7635H12.4054C12.2356 12.7635 12.0729 12.6961 11.9528 12.5761C11.8328 12.456 11.7654 12.2933 11.7654 12.1235C11.7654 11.9538 11.8328 11.791 11.9528 11.671C12.0729 11.5509 12.2356 11.4835 12.4054 11.4835H15.4031C15.5729 11.4835 15.7357 11.5509 15.8557 11.671C15.9757 11.791 16.0431 11.9538 16.0431 12.1235C16.0431 12.2933 15.9757 12.456 15.8557 12.5761C15.7357 12.6961 15.5729 12.7635 15.4031 12.7635ZM19.3078 19.2803H16.2057C15.8232 19.2798 15.4565 19.1276 15.1861 18.8571C14.9157 18.5866 14.7636 18.2199 14.7631 17.8374V17.081C14.7636 16.6985 14.9157 16.3318 15.1861 16.0614C15.4566 15.7909 15.8232 15.6388 16.2057 15.6384H19.3078C19.6902 15.6388 20.0569 15.7909 20.3274 16.0614C20.5978 16.3318 20.7499 16.6985 20.7503 17.081V17.8374C20.7499 18.2199 20.5978 18.5866 20.3274 18.8571C20.0569 19.1276 19.6903 19.2798 19.3078 19.2803ZM16.2057 16.9184C16.1626 16.9185 16.1213 16.9356 16.0908 16.9661C16.0604 16.9966 16.0432 17.0379 16.0431 17.081V17.8374C16.0431 17.8806 16.0603 17.922 16.0907 17.9525C16.1212 17.983 16.1626 18.0002 16.2057 18.0003H19.3078C19.3509 18.0002 19.3923 17.983 19.4227 17.9525C19.4532 17.922 19.4703 17.8806 19.4703 17.8374V17.081C19.4703 17.0379 19.4531 16.9966 19.4226 16.9661C19.3922 16.9356 19.3509 16.9185 19.3078 16.9184H16.2057Z" fill="#202020"/>
<path d="M15.403 18.0992H13.9042C13.7344 18.0992 13.5716 18.0318 13.4516 17.9118C13.3316 17.7917 13.2642 17.629 13.2642 17.4592C13.2642 17.2895 13.3316 17.1267 13.4516 17.0067C13.5716 16.8866 13.7344 16.8192 13.9042 16.8192H15.403C15.5728 16.8192 15.7356 16.8866 15.8556 17.0067C15.9756 17.1267 16.043 17.2895 16.043 17.4592C16.043 17.629 15.9756 17.7917 15.8556 17.9118C15.7356 18.0318 15.5728 18.0992 15.403 18.0992Z" fill="#202020"/>
</svg>
