<svg width="24" height="24" viewBox="0 0 24 24" fill="none" xmlns="http://www.w3.org/2000/svg">
<path d="M15.13 17.472H4.70603C4.01042 17.471 3.34358 17.1942 2.85171 16.7023C2.35983 16.2105 2.08305 15.5436 2.08203 14.848V6.48032C2.08305 5.78471 2.35983 5.11787 2.85171 4.626C3.34358 4.13412 4.01042 3.85734 4.70603 3.85632H16.0091C16.6901 3.85709 17.343 4.12794 17.8246 4.60948C18.3062 5.09102 18.5772 5.74392 18.578 6.42496V11.305C18.578 11.4747 18.5106 11.6375 18.3906 11.7575C18.2706 11.8775 18.1078 11.945 17.938 11.945C17.7683 11.945 17.6055 11.8775 17.4855 11.7575C17.3655 11.6375 17.298 11.4747 17.298 11.305V6.424C17.2976 6.08231 17.1617 5.75474 16.92 5.51315C16.6784 5.27157 16.3508 5.1357 16.0091 5.13536H4.70603C4.34976 5.13596 4.00825 5.27775 3.75633 5.52967C3.50441 5.78159 3.36262 6.12309 3.36203 6.47936V14.8461C3.36262 15.2024 3.50441 15.5439 3.75633 15.7958C4.00825 16.0477 4.34976 16.1895 4.70603 16.1901H15.13C15.2998 16.1901 15.4626 16.2575 15.5826 16.3775C15.7026 16.4976 15.77 16.6603 15.77 16.8301C15.77 16.9998 15.7026 17.1626 15.5826 17.2826C15.4626 17.4027 15.2998 17.4701 15.13 17.4701V17.472Z" fill="#202020"/>
<path d="M15.0241 14.592H2.72008C2.55034 14.592 2.38755 14.5246 2.26753 14.4045C2.14751 14.2845 2.08008 14.1217 2.08008 13.952C2.08008 13.7823 2.14751 13.6195 2.26753 13.4994C2.38755 13.3794 2.55034 13.312 2.72008 13.312H15.0241C15.1938 13.312 15.3566 13.3794 15.4766 13.4994C15.5967 13.6195 15.6641 13.7823 15.6641 13.952C15.6641 14.1217 15.5967 14.2845 15.4766 14.4045C15.3566 14.5246 15.1938 14.592 15.0241 14.592ZM10.3294 21.4886C10.1596 21.4886 9.99683 21.4212 9.87681 21.3012C9.75679 21.1812 9.68936 21.0184 9.68936 20.8486V16.9446C9.68936 16.7749 9.75679 16.6121 9.87681 16.4921C9.99683 16.3721 10.1596 16.3046 10.3294 16.3046C10.4991 16.3046 10.6619 16.3721 10.7819 16.4921C10.9019 16.6121 10.9694 16.7749 10.9694 16.9446V20.8486C10.9694 21.0184 10.9019 21.1812 10.7819 21.3012C10.6619 21.4212 10.4991 21.4886 10.3294 21.4886ZM20.553 21.4154H17.801C17.337 21.4148 16.8922 21.2303 16.5641 20.9022C16.236 20.5741 16.0515 20.1293 16.051 19.6653V14.0723C16.0515 13.6084 16.236 13.1635 16.5641 12.8355C16.8922 12.5075 17.3371 12.323 17.801 12.3226H20.553C21.0172 12.3227 21.4623 12.5071 21.7906 12.8352C22.1189 13.1632 22.3036 13.6082 22.3041 14.0723V19.6653C22.3036 20.1294 22.1189 20.5744 21.7906 20.9025C21.4623 21.2307 21.0172 21.4151 20.553 21.4154ZM17.801 13.6026C17.6764 13.6026 17.557 13.6522 17.4688 13.7402C17.3807 13.8283 17.3311 13.9477 17.331 14.0723V19.6653C17.3311 19.7899 17.3807 19.9094 17.4688 19.9975C17.5569 20.0856 17.6764 20.1352 17.801 20.1354H20.553C20.6778 20.1354 20.7975 20.086 20.8859 19.9978C20.9742 19.9097 21.0239 19.7901 21.0241 19.6653V14.0723C21.0239 13.9477 20.9743 13.8283 20.8862 13.7402C20.7981 13.6522 20.6786 13.6026 20.554 13.6026H17.801Z" fill="#202020"/>
<path d="M13.3833 21.4886H7.26646C7.09673 21.4886 6.93394 21.4212 6.81392 21.3012C6.69389 21.1812 6.62646 21.0184 6.62646 20.8486C6.62646 20.6789 6.69389 20.5161 6.81392 20.3961C6.93394 20.2761 7.09673 20.2086 7.26646 20.2086H13.3833C13.553 20.2086 13.7158 20.2761 13.8358 20.3961C13.9558 20.5161 14.0233 20.6789 14.0233 20.8486C14.0233 21.0184 13.9558 21.1812 13.8358 21.3012C13.7158 21.4212 13.553 21.4886 13.3833 21.4886Z" fill="#202020"/>
</svg>
