<svg width="24" height="24" viewBox="0 0 24 24" fill="none" xmlns="http://www.w3.org/2000/svg">
<path d="M12.0001 19.4592C11.5327 19.4591 11.0773 19.3107 10.6996 19.0352L5.18411 15.0279C4.80562 14.7537 4.5239 14.3665 4.3795 13.9219C4.23511 13.4774 4.23549 12.9986 4.38059 12.5543L6.48747 6.07076C6.63128 5.62603 6.91251 5.23841 7.29067 4.96371C7.66882 4.68901 8.12439 4.54139 8.59179 4.54212H15.4078C15.8752 4.54141 16.3308 4.68907 16.709 4.96384C17.0872 5.2386 17.3684 5.62629 17.5121 6.07108L19.6184 12.5549C19.7637 12.9991 19.7643 13.478 19.6201 13.9225C19.476 14.3671 19.1944 14.7544 18.8161 15.0288L13.3003 19.0356C12.9226 19.3108 12.4674 19.4591 12.0001 19.4592ZM8.59179 5.82212C8.39482 5.82174 8.20281 5.88391 8.04345 5.99968C7.88409 6.11545 7.7656 6.27883 7.70507 6.46628L5.59787 12.9498C5.53663 13.1371 5.53644 13.3389 5.59735 13.5263C5.65826 13.7137 5.77711 13.8769 5.93675 13.9924L11.4516 18C11.6108 18.1161 11.8028 18.1786 11.9998 18.1786C12.1968 18.1786 12.3887 18.1161 12.548 18L18.0635 13.993C18.2231 13.8775 18.342 13.7143 18.4029 13.527C18.4638 13.3396 18.4636 13.1377 18.4024 12.9504L16.2961 6.46692C16.2353 6.27969 16.1167 6.11657 15.9573 6.00105C15.7979 5.88553 15.6059 5.82355 15.4091 5.82404L8.59179 5.82212Z" fill="#202020"/>
<path d="M17.422 8.5018H6.57848C6.40874 8.5018 6.24595 8.43437 6.12593 8.31435C6.0059 8.19433 5.93848 8.03154 5.93848 7.8618C5.93848 7.69206 6.0059 7.52928 6.12593 7.40925C6.24595 7.28923 6.40874 7.2218 6.57848 7.2218H17.422C17.5917 7.2218 17.7545 7.28923 17.8745 7.40925C17.9946 7.52928 18.062 7.69206 18.062 7.8618C18.062 8.03154 17.9946 8.19433 17.8745 8.31435C17.7545 8.43437 17.5917 8.5018 17.422 8.5018Z" fill="#202020"/>
</svg>
