<svg width="24" height="24" viewBox="0 0 24 24" fill="none" xmlns="http://www.w3.org/2000/svg">
<path d="M12 19.4592C11.5325 19.4591 11.0772 19.3107 10.6995 19.0352L5.18399 15.0279C4.8055 14.7537 4.52377 14.3665 4.37938 13.9219C4.23498 13.4774 4.23537 12.9986 4.38047 12.5543L6.48735 6.07076C6.63116 5.62603 6.91239 5.23841 7.29054 4.96371C7.6687 4.68901 8.12427 4.54139 8.59167 4.54212H15.4077C15.8751 4.54141 16.3307 4.68907 16.7089 4.96384C17.087 5.2386 17.3682 5.62629 17.512 6.07108L19.6182 12.5549C19.7635 12.9991 19.7642 13.478 19.62 13.9225C19.4758 14.3671 19.1943 14.7544 18.816 15.0288L13.3002 19.0356C12.9225 19.3108 12.4673 19.4591 12 19.4592ZM8.59167 5.82212C8.3947 5.82174 8.20269 5.88391 8.04333 5.99968C7.88397 6.11545 7.76548 6.27883 7.70495 6.46628L5.59775 12.9498C5.53651 13.1371 5.53632 13.3389 5.59723 13.5263C5.65814 13.7137 5.77698 13.8769 5.93663 13.9924L11.4515 18C11.6107 18.1161 11.8027 18.1786 11.9997 18.1786C12.1967 18.1786 12.3886 18.1161 12.5478 18L18.0633 13.993C18.223 13.8775 18.3418 13.7143 18.4028 13.527C18.4637 13.3396 18.4635 13.1377 18.4022 12.9504L16.296 6.46692C16.2352 6.27969 16.1165 6.11657 15.9571 6.00105C15.7977 5.88553 15.6058 5.82355 15.409 5.82404L8.59167 5.82212Z" fill="#202020"/>
<path d="M17.422 8.5018H6.57848C6.40874 8.5018 6.24595 8.43437 6.12593 8.31435C6.0059 8.19433 5.93848 8.03154 5.93848 7.8618C5.93848 7.69206 6.0059 7.52928 6.12593 7.40925C6.24595 7.28923 6.40874 7.2218 6.57848 7.2218H17.422C17.5917 7.2218 17.7545 7.28923 17.8745 7.40925C17.9946 7.52928 18.062 7.69206 18.062 7.8618C18.062 8.03154 17.9946 8.19433 17.8745 8.31435C17.7545 8.43437 17.5917 8.5018 17.422 8.5018Z" fill="#202020"/>
</svg>
