<svg width="24" height="24" viewBox="0 0 24 24" fill="none" xmlns="http://www.w3.org/2000/svg">
<path d="M17.4608 20.2783C17.092 20.2771 16.7298 20.1805 16.4093 19.998L5.49728 13.854C5.16835 13.6688 4.8946 13.3994 4.7041 13.0734C4.5136 12.7475 4.41321 12.3768 4.41321 11.9993C4.41321 11.6218 4.5136 11.2511 4.7041 10.9251C4.8946 10.5992 5.16835 10.3298 5.49728 10.1446L16.4093 4.00057C16.7985 3.78146 17.2469 3.69038 17.6908 3.74023C18.1347 3.79008 18.5517 3.97833 18.8826 4.27832C19.2136 4.57832 19.4418 4.97484 19.5349 5.41173C19.628 5.84862 19.5812 6.30372 19.4013 6.71257L17.2253 11.6569C17.1779 11.7646 17.1535 11.881 17.1535 11.9987C17.1535 12.1163 17.1779 12.2327 17.2253 12.3404L19.4013 17.2847C19.5427 17.6086 19.6015 17.9624 19.5726 18.3146C19.5438 18.6667 19.428 19.0063 19.2357 19.3027C19.0435 19.5992 18.7807 19.8434 18.471 20.0134C18.1612 20.1835 17.8141 20.274 17.4608 20.2771V20.2783ZM6.12448 12.7391L17.0365 18.8831C17.4294 19.1046 17.8045 18.9711 18.0224 18.7727C18.2403 18.5743 18.4109 18.215 18.2291 17.8022L16.0531 12.8582C15.9344 12.5878 15.8731 12.2958 15.8731 12.0006C15.8731 11.7053 15.9344 11.4133 16.0531 11.143L18.2291 6.19897C18.4109 5.78617 18.2416 5.42713 18.0224 5.22841C17.8032 5.02969 17.4294 4.89657 17.0365 5.11801L6.12448 11.262C5.99337 11.3358 5.88425 11.4432 5.80832 11.5731C5.73239 11.703 5.69237 11.8507 5.69237 12.0012C5.69237 12.1517 5.73239 12.2994 5.80832 12.4293C5.88425 12.5592 5.99337 12.6666 6.12448 12.7404V12.7391Z" fill="#202020"/>
</svg>
