<svg width="24" height="24" viewBox="0 0 24 24" fill="none" xmlns="http://www.w3.org/2000/svg">
<path d="M12.0001 19.5875C11.6218 19.5904 11.2498 19.4912 10.9232 19.3004C10.5965 19.1096 10.3274 18.8343 10.1441 18.5034L4.00008 7.59138C3.78097 7.20212 3.68989 6.75378 3.73974 6.30988C3.78959 5.86597 3.97784 5.449 4.27784 5.11804C4.57783 4.78707 4.97436 4.55888 5.41124 4.46579C5.84813 4.37271 6.30323 4.41944 6.71208 4.59938L11.6564 6.77538C11.7641 6.82271 11.8805 6.84715 11.9982 6.84715C12.1158 6.84715 12.2322 6.82271 12.3399 6.77538L17.2842 4.59938C17.6931 4.41944 18.1482 4.37271 18.5851 4.46579C19.022 4.55888 19.4185 4.78707 19.7185 5.11804C20.0185 5.449 20.2067 5.86597 20.2566 6.30988C20.3064 6.75378 20.2154 7.20212 19.9962 7.59138L13.8522 18.5034L13.2945 18.1895L13.8561 18.5034C13.6728 18.8343 13.4036 19.1096 13.077 19.3004C12.7504 19.4912 12.3783 19.5904 12.0001 19.5875ZM5.8484 5.69346C5.73097 5.6951 5.61517 5.72116 5.50835 5.76996C5.40153 5.81877 5.30603 5.88927 5.22792 5.97698C5.02952 6.19586 4.89608 6.56994 5.11752 6.9629L11.2615 17.8749C11.3353 18.006 11.4427 18.1151 11.5726 18.1911C11.7025 18.267 11.8503 18.307 12.0007 18.307C12.1512 18.307 12.2989 18.267 12.4288 18.1911C12.5587 18.1151 12.6661 18.006 12.7399 17.8749L18.8839 6.9629C19.1054 6.56994 18.9719 6.1949 18.7735 5.97698C18.5751 5.75906 18.2158 5.5885 17.803 5.77026L12.859 7.94626C12.5886 8.06496 12.2966 8.12625 12.0014 8.12625C11.7061 8.12625 11.4141 8.06496 11.1438 7.94626L6.19976 5.77026C6.0893 5.72037 5.96961 5.6942 5.8484 5.69346Z" fill="#202020"/>
</svg>
