<svg width="24" height="24" viewBox="0 0 24 24" fill="none" xmlns="http://www.w3.org/2000/svg">
<path d="M12 20.3277C10.0734 20.3279 8.20635 19.6601 6.71694 18.4381C5.22753 17.2161 4.20792 15.5154 3.83184 13.6259C3.45576 11.7364 3.74649 9.77489 4.65447 8.07569C5.56246 6.3765 7.03154 5.0447 8.81138 4.30722C10.5912 3.56975 12.5717 3.47223 14.4154 4.03127C16.2591 4.59032 17.8519 5.77135 18.9224 7.37312C19.993 8.9749 20.475 10.8983 20.2864 12.8156C20.0977 14.733 19.2501 16.5256 17.888 17.888C17.1166 18.6637 16.199 19.2788 15.1883 19.6975C14.1777 20.1163 13.094 20.3305 12 20.3277ZM12 4.95234C8.11391 4.95234 4.95231 8.11394 4.95231 12C4.95231 15.8861 8.11391 19.0477 12 19.0477C15.8861 19.0477 19.0477 15.8861 19.0477 12C19.0477 8.11394 15.8861 4.95234 12 4.95234Z" fill="#202020"/>
<path d="M10.5892 14.976C9.91527 14.976 9.36806 14.7405 9.01958 14.2915C8.5879 13.7354 8.54887 12.9654 8.90951 12.1232C9.21671 11.407 9.79399 10.6954 10.5357 10.1194C11.2775 9.54335 12.1101 9.15935 12.8804 9.04031C13.7853 8.89919 14.5217 9.12799 14.9537 9.68415C15.3857 10.2403 15.4241 11.008 15.0637 11.8509C14.7565 12.5674 14.1789 13.279 13.4372 13.855C12.6954 14.431 11.8631 14.815 11.0929 14.9341C10.9263 14.961 10.7579 14.975 10.5892 14.976ZM13.3802 10.28C13.2787 10.2806 13.1774 10.2889 13.0772 10.305C12.5258 10.391 11.8858 10.6918 11.3207 11.1302C10.7559 11.569 10.306 12.1146 10.0861 12.6275C9.92167 13.0115 9.90119 13.3395 10.0308 13.5066C10.1249 13.6275 10.3252 13.6966 10.5965 13.6966C11.1085 13.6966 11.8721 13.4512 12.6522 12.8451C13.2161 12.4054 13.6673 11.8595 13.8881 11.3469C14.0522 10.9629 14.073 10.6349 13.9434 10.4678C13.8468 10.3446 13.6452 10.2787 13.3802 10.2787V10.28Z" fill="#202020"/>
</svg>
