<svg width="24" height="24" viewBox="0 0 24 24" fill="none" xmlns="http://www.w3.org/2000/svg">
<path d="M17.8749 19.552H9.30624C8.52417 19.5511 7.77438 19.2401 7.22138 18.6871C6.66838 18.1341 6.35733 17.3843 6.35648 16.6022V8.03199C6.35724 7.24987 6.66825 6.5 7.22127 5.94692C7.77428 5.39385 8.52412 5.08276 9.30624 5.08191H17.8749C18.657 5.08276 19.4068 5.39385 19.9599 5.94692C20.5129 6.5 20.8239 7.24987 20.8246 8.03199V16.601C20.8241 17.3832 20.5132 18.1334 19.9602 18.6866C19.4072 19.2399 18.6572 19.5511 17.8749 19.552ZM9.30624 6.36255C8.8636 6.36306 8.43924 6.5391 8.12622 6.85206C7.81319 7.16502 7.63707 7.58935 7.63648 8.03199V16.601C7.63665 17.0439 7.81258 17.4686 8.12565 17.7819C8.43872 18.0952 8.86333 18.2715 9.30624 18.272H17.8749C18.3176 18.2715 18.742 18.0954 19.055 17.7824C19.368 17.4693 19.5441 17.0449 19.5446 16.6022V8.03199C19.5442 7.58924 19.3682 7.16474 19.0551 6.85165C18.7421 6.53855 18.3176 6.36242 17.8749 6.36191L9.30624 6.36255Z" fill="#202020"/>
<path d="M16.4534 11.8483H10.7274C10.5576 11.8483 10.3948 11.7809 10.2748 11.6608C10.1548 11.5408 10.0874 11.378 10.0874 11.2083C10.0874 11.0386 10.1548 10.8758 10.2748 10.7557C10.3948 10.6357 10.5576 10.5683 10.7274 10.5683H16.4534C16.6232 10.5683 16.786 10.6357 16.906 10.7557C17.026 10.8758 17.0934 11.0386 17.0934 11.2083C17.0934 11.378 17.026 11.5408 16.906 11.6608C16.786 11.7809 16.6232 11.8483 16.4534 11.8483ZM16.4534 14.7622H10.7274C10.5576 14.7622 10.3948 14.6948 10.2748 14.5748C10.1548 14.4547 10.0874 14.292 10.0874 14.1222C10.0874 13.9525 10.1548 13.7897 10.2748 13.6697C10.3948 13.5496 10.5576 13.4822 10.7274 13.4822H16.4534C16.6232 13.4822 16.786 13.5496 16.906 13.6697C17.026 13.7897 17.0934 13.9525 17.0934 14.1222C17.0934 14.292 17.026 14.4547 16.906 14.5748C16.786 14.6948 16.6232 14.7622 16.4534 14.7622Z" fill="#202020"/>
</svg>
