<svg width="24" height="24" viewBox="0 0 24 24" fill="none" xmlns="http://www.w3.org/2000/svg">
<path d="M17.032 20.4556H6.96801C6.06022 20.4546 5.1899 20.0935 4.548 19.4516C3.90609 18.8097 3.54502 17.9394 3.54401 17.0316V6.96795C3.54502 6.06016 3.90609 5.18984 4.548 4.54793C5.1899 3.90603 6.06022 3.54496 6.96801 3.54395H17.032C17.9398 3.54496 18.8101 3.90603 19.452 4.54793C20.0939 5.18984 20.455 6.06016 20.456 6.96795V17.0319C20.456 17.94 20.0953 18.811 19.4531 19.4531C18.811 20.0952 17.9401 20.4559 17.032 20.4559V20.4556ZM6.96801 4.82427C6.39954 4.82477 5.8545 5.05082 5.45253 5.45279C5.05056 5.85476 4.82451 6.3998 4.82401 6.96827V17.0323C4.82451 17.6007 5.05056 18.1458 5.45253 18.5477C5.8545 18.9497 6.39954 19.1758 6.96801 19.1763H17.032C17.3136 19.1763 17.5924 19.1208 17.8525 19.0131C18.1126 18.9053 18.349 18.7474 18.548 18.5483C18.7471 18.3492 18.9051 18.1129 19.0128 17.8527C19.1206 17.5926 19.176 17.3138 19.176 17.0323V6.96795C19.1755 6.39948 18.9494 5.85444 18.5475 5.45247C18.1455 5.0505 17.6005 4.82445 17.032 4.82395L6.96801 4.82427Z" fill="#202020"/>
<path d="M16.544 9.84994C16.2674 9.85003 15.9934 9.79562 15.7378 9.68983C15.4822 9.58404 15.25 9.42893 15.0543 9.23338C14.8587 9.03782 14.7035 8.80564 14.5976 8.55009C14.4917 8.29455 14.4371 8.02064 14.4371 7.74402V5.65538C14.4371 5.48564 14.5045 5.32286 14.6246 5.20283C14.7446 5.08281 14.9074 5.01538 15.0771 5.01538C15.2468 5.01538 15.4096 5.08281 15.5297 5.20283C15.6497 5.32286 15.7171 5.48564 15.7171 5.65538V7.74402C15.7171 7.85319 15.7388 7.96127 15.7808 8.06202C15.8229 8.16277 15.8845 8.25419 15.962 8.33101C16.0396 8.40783 16.1316 8.46853 16.2327 8.50959C16.3339 8.55066 16.4422 8.57128 16.5513 8.57026L18.3686 8.55266H18.375C18.5448 8.55185 18.7079 8.61851 18.8285 8.73796C18.9491 8.85742 19.0173 9.01988 19.0181 9.18962C19.0189 9.35936 18.9522 9.52247 18.8328 9.64306C18.7133 9.76365 18.5508 9.83185 18.3811 9.83266L16.5638 9.85058L16.544 9.84994ZM9.15615 17.712C8.98981 17.7123 8.82995 17.6475 8.71071 17.5315L7.40095 16.2627C7.34021 16.2039 7.29174 16.1336 7.25834 16.0559C7.22493 15.9782 7.20726 15.8947 7.20634 15.8101C7.20541 15.7255 7.22126 15.6416 7.25296 15.5632C7.28466 15.4848 7.33159 15.4135 7.39103 15.3533L8.77791 13.9491C8.83621 13.8863 8.90654 13.8358 8.98473 13.8007C9.06291 13.7655 9.14736 13.7464 9.23307 13.7446C9.31877 13.7427 9.40397 13.758 9.48363 13.7897C9.56328 13.8214 9.63576 13.8688 9.69676 13.929C9.75776 13.9892 9.80604 14.0611 9.83873 14.1403C9.87142 14.2196 9.88786 14.3046 9.88707 14.3903C9.88628 14.476 9.86828 14.5607 9.83414 14.6393C9.8 14.718 9.7504 14.7889 9.68831 14.848L8.75583 15.7923L9.59999 16.6122C9.69157 16.7008 9.75459 16.8148 9.78098 16.9395C9.80737 17.0642 9.79592 17.194 9.74811 17.3121C9.70029 17.4303 9.61828 17.5315 9.51258 17.6027C9.40689 17.674 9.28233 17.712 9.15487 17.712H9.15615ZM14.8438 17.712C14.7165 17.7118 14.5921 17.6735 14.4866 17.6022C14.3811 17.5308 14.2993 17.4296 14.2516 17.3115C14.204 17.1934 14.1926 17.0638 14.2191 16.9392C14.2455 16.8146 14.3085 16.7008 14.4 16.6122L15.2454 15.793L14.3117 14.848C14.251 14.7886 14.2028 14.7177 14.1698 14.6394C14.1368 14.5612 14.1197 14.4771 14.1195 14.3922C14.1194 14.3073 14.1361 14.2232 14.1687 14.1448C14.2014 14.0664 14.2493 13.9953 14.3097 13.9356C14.3701 13.8759 14.4418 13.8288 14.5206 13.7971C14.5994 13.7654 14.6837 13.7497 14.7686 13.7509C14.8535 13.7521 14.9373 13.7702 15.0152 13.8041C15.093 13.838 15.1634 13.8871 15.2221 13.9485L16.608 15.3533C16.6674 15.4135 16.7143 15.4848 16.746 15.5632C16.7778 15.6416 16.7936 15.7255 16.7927 15.8101C16.7918 15.8947 16.7741 15.9782 16.7407 16.0559C16.7073 16.1336 16.6588 16.2039 16.5981 16.2627L15.2883 17.5315C15.1693 17.6472 15.0098 17.712 14.8438 17.712Z" fill="#202020"/>
</svg>
