<svg width="24" height="24" viewBox="0 0 24 24" fill="none" xmlns="http://www.w3.org/2000/svg">
<path d="M17.032 20.4556H6.96801C6.06022 20.4546 5.1899 20.0935 4.548 19.4516C3.90609 18.8097 3.54502 17.9394 3.54401 17.0316V6.96795C3.54502 6.06016 3.90609 5.18984 4.548 4.54793C5.1899 3.90603 6.06022 3.54496 6.96801 3.54395H13.944C14.1063 3.54393 14.2626 3.60558 14.3811 3.71643L20.2525 9.2009C20.3166 9.26079 20.3678 9.33323 20.4027 9.41371C20.4377 9.49419 20.4557 9.581 20.4557 9.66874V17.0319C20.4557 17.94 20.0949 18.811 19.4528 19.4531C18.8107 20.0952 17.9398 20.4559 17.0317 20.4559L17.032 20.4556ZM6.96801 4.82427C6.39954 4.82477 5.8545 5.05082 5.45253 5.45279C5.05056 5.85476 4.82451 6.3998 4.82401 6.96826V17.0323C4.82451 17.6007 5.05056 18.1458 5.45253 18.5477C5.8545 18.9497 6.39954 19.1758 6.96801 19.1763H17.032C17.3136 19.1763 17.5924 19.1208 17.8525 19.0131C18.1126 18.9053 18.349 18.7474 18.548 18.5483C18.7471 18.3492 18.9051 18.1129 19.0128 17.8527C19.1205 17.5926 19.176 17.3138 19.176 17.0323V9.9465L13.6922 4.82427H6.96801Z" fill="#202020"/>
<path d="M19.8157 10.2637H15.5821C14.9782 10.2631 14.3992 10.0229 13.9722 9.59585C13.5452 9.16883 13.305 8.58987 13.3043 7.98597V4.18437C13.3043 4.05983 13.3406 3.93798 13.4088 3.83376C13.477 3.72955 13.5741 3.64749 13.6882 3.59766C13.8024 3.54782 13.9286 3.53237 14.0514 3.55321C14.1742 3.57404 14.2882 3.63024 14.3795 3.71493L20.2506 9.15493C20.345 9.24235 20.411 9.35622 20.4397 9.48168C20.4685 9.60714 20.4588 9.73836 20.4118 9.8582C20.3648 9.97804 20.2828 10.0809 20.1765 10.1535C20.0701 10.226 19.9444 10.2647 19.8157 10.2647V10.2637ZM14.5843 5.64997V7.98597C14.5847 8.25049 14.6899 8.50408 14.8769 8.69112C15.064 8.87817 15.3176 8.9834 15.5821 8.98373H18.183L14.5843 5.64997ZM9.82401 16.7729C9.70031 16.7729 9.57925 16.7371 9.47548 16.6698C9.37171 16.6024 9.28968 16.5065 9.2393 16.3935C9.18892 16.2805 9.17237 16.1554 9.19163 16.0332C9.21089 15.911 9.26515 15.797 9.34785 15.705L10.4845 14.4391L9.29121 13.2311C9.23214 13.1713 9.18543 13.1004 9.15375 13.0226C9.12207 12.9447 9.10603 12.8614 9.10655 12.7774C9.10707 12.6933 9.12414 12.6102 9.15678 12.5328C9.18943 12.4553 9.23701 12.385 9.2968 12.326C9.3566 12.2669 9.42745 12.2202 9.5053 12.1885C9.58315 12.1568 9.66648 12.1408 9.75052 12.1413C9.83457 12.1418 9.9177 12.1589 9.99515 12.1916C10.0726 12.2242 10.1429 12.2718 10.2019 12.3316L11.8186 13.9687C11.9332 14.0847 11.9992 14.2401 12.0031 14.4031C12.007 14.5661 11.9486 14.7244 11.8397 14.8458L10.3005 16.5604C10.2404 16.6273 10.167 16.6808 10.0849 16.7174C10.0028 16.754 9.91389 16.7729 9.82401 16.7729Z" fill="#202020"/>
<path d="M11.3622 15.0582H6.5072C6.33746 15.0582 6.17468 14.9908 6.05465 14.8707C5.93463 14.7507 5.8672 14.5879 5.8672 14.4182C5.8672 14.2485 5.93463 14.0857 6.05465 13.9656C6.17468 13.8456 6.33746 13.7782 6.5072 13.7782H11.3622C11.532 13.7782 11.6948 13.8456 11.8148 13.9656C11.9348 14.0857 12.0022 14.2485 12.0022 14.4182C12.0022 14.5879 11.9348 14.7507 11.8148 14.8707C11.6948 14.9908 11.532 15.0582 11.3622 15.0582Z" fill="#202020"/>
</svg>
