<svg width="24" height="24" viewBox="0 0 24 24" fill="none" xmlns="http://www.w3.org/2000/svg">
<path d="M17.032 20.4556H10.1562C9.98643 20.4556 9.82364 20.3882 9.70362 20.2682C9.58359 20.1482 9.51617 19.9854 9.51617 19.8156C9.51617 19.6459 9.58359 19.4831 9.70362 19.3631C9.82364 19.2431 9.98643 19.1756 10.1562 19.1756H17.032C17.6005 19.1751 18.1455 18.9491 18.5475 18.5471C18.9494 18.1451 19.1755 17.6001 19.176 17.0316V6.96795C19.1755 6.39948 18.9494 5.85444 18.5475 5.45247C18.1455 5.0505 17.6005 4.82445 17.032 4.82395H6.96801C6.39954 4.82445 5.8545 5.0505 5.45253 5.45247C5.05056 5.85444 4.82451 6.39948 4.82401 6.96795V15.534C4.82401 15.7038 4.75658 15.8666 4.63655 15.9866C4.51653 16.1066 4.35374 16.174 4.18401 16.174C4.01427 16.174 3.85148 16.1066 3.73146 15.9866C3.61143 15.8666 3.54401 15.7038 3.54401 15.534V6.96795C3.54502 6.06016 3.90609 5.18984 4.548 4.54793C5.1899 3.90603 6.06022 3.54496 6.96801 3.54395H17.032C17.9398 3.54496 18.8101 3.90603 19.452 4.54793C20.0939 5.18984 20.455 6.06016 20.456 6.96795V17.0319C20.4549 17.9397 20.0938 18.8099 19.4519 19.4518C18.81 20.0936 17.9397 20.4546 17.032 20.4556Z" fill="#202020"/>
<path d="M16.3888 9.85122C15.8711 9.85122 15.3746 9.64557 15.0085 9.27949C14.6425 8.91342 14.4368 8.41692 14.4368 7.89922V5.65538C14.4368 5.48564 14.5042 5.32286 14.6243 5.20283C14.7443 5.08281 14.9071 5.01538 15.0768 5.01538C15.2465 5.01538 15.4093 5.08281 15.5294 5.20283C15.6494 5.32286 15.7168 5.48564 15.7168 5.65538V7.8989C15.7168 7.98772 15.7344 8.07565 15.7686 8.15763C15.8028 8.2396 15.8529 8.31398 15.916 8.37647C15.9791 8.43896 16.054 8.48832 16.1363 8.52169C16.2186 8.55506 16.3067 8.57179 16.3955 8.5709L18.3683 8.55202C18.4524 8.5512 18.5358 8.56694 18.6137 8.59835C18.6917 8.62976 18.7627 8.67621 18.8227 8.73506C18.8827 8.79391 18.9305 8.864 18.9635 8.94134C18.9964 9.01867 19.0137 9.10174 19.0146 9.18578C19.0154 9.26983 18.9996 9.35321 18.9682 9.43117C18.9368 9.50914 18.8904 9.58015 18.8315 9.64016C18.7727 9.70017 18.7026 9.748 18.6252 9.78092C18.5479 9.81384 18.4649 9.8312 18.3808 9.83202L16.408 9.85122H16.3888ZM3.92257 20.512C3.75632 20.5121 3.59657 20.4475 3.47713 20.3319L2.16737 19.0627C2.10663 19.0039 2.05816 18.9336 2.02475 18.8559C1.99135 18.7782 1.97368 18.6947 1.97276 18.6101C1.97183 18.5255 1.98768 18.4416 2.01938 18.3632C2.05108 18.2848 2.09801 18.2135 2.15745 18.1533L3.54433 16.7491C3.66429 16.6316 3.82563 16.566 3.99356 16.5663C4.16149 16.5667 4.32255 16.633 4.44201 16.7511C4.56147 16.8691 4.62975 17.0293 4.63213 17.1973C4.63451 17.3652 4.57079 17.5273 4.45473 17.6487L3.52225 18.592L4.36769 19.4115C4.45949 19.5002 4.52272 19.6142 4.54924 19.739C4.57575 19.8638 4.56436 19.9937 4.51652 20.112C4.46867 20.2303 4.38656 20.3316 4.28072 20.4029C4.17489 20.4741 4.05016 20.5122 3.92257 20.512ZM7.17825 20.512C7.05085 20.512 6.92637 20.4739 6.82075 20.4026C6.71513 20.3314 6.63317 20.2303 6.58536 20.1122C6.53756 19.9941 6.52608 19.8644 6.5524 19.7398C6.57873 19.6151 6.64165 19.5012 6.73313 19.4125L7.57857 18.592L6.64609 17.6477C6.58542 17.5883 6.53719 17.5174 6.5042 17.4391C6.47122 17.3609 6.45413 17.2768 6.45395 17.1919C6.45377 17.107 6.47049 17.0229 6.50314 16.9445C6.53579 16.8661 6.58372 16.7949 6.64413 16.7353C6.70454 16.6756 6.77623 16.6285 6.85501 16.5968C6.93379 16.5651 7.0181 16.5494 7.10302 16.5506C7.18793 16.5518 7.27176 16.5699 7.34961 16.6038C7.42747 16.6377 7.49779 16.6868 7.55649 16.7482L8.94337 18.1523C9.0028 18.2125 9.04973 18.2838 9.08143 18.3623C9.11313 18.4407 9.12898 18.5246 9.12806 18.6091C9.12713 18.6937 9.10946 18.7772 9.07606 18.8549C9.04265 18.9326 8.99418 19.0029 8.93345 19.0618L7.62369 20.3309C7.50439 20.4469 7.34462 20.5118 7.17825 20.512Z" fill="#202020"/>
</svg>
