<svg width="24" height="24" viewBox="0 0 24 24" fill="none" xmlns="http://www.w3.org/2000/svg">
<path d="M17.0319 20.4557H6.96795C6.06016 20.4547 5.18984 20.0937 4.54793 19.4518C3.90603 18.8099 3.54496 17.9395 3.54395 17.0317V6.96807C3.54496 6.06028 3.90603 5.18996 4.54793 4.54806C5.18984 3.90615 6.06016 3.54508 6.96795 3.54407H17.0319C17.9397 3.54508 18.8101 3.90615 19.452 4.54806C20.0939 5.18996 20.4549 6.06028 20.4559 6.96807V17.0321C20.4559 17.9402 20.0952 18.8111 19.4531 19.4532C18.811 20.0953 17.94 20.4561 17.0319 20.4561V20.4557ZM6.96795 4.82439C6.39948 4.8249 5.85444 5.05094 5.45247 5.45291C5.0505 5.85488 4.82445 6.39992 4.82395 6.96839V17.0324C4.82445 17.6009 5.0505 18.1459 5.45247 18.5479C5.85444 18.9498 6.39948 19.1759 6.96795 19.1764H17.0319C17.3135 19.1764 17.5923 19.1209 17.8524 19.0132C18.1125 18.9054 18.3489 18.7475 18.548 18.5484C18.7471 18.3493 18.905 18.113 19.0127 17.8529C19.1205 17.5927 19.1759 17.3139 19.1759 17.0324V6.96807C19.1754 6.3996 18.9494 5.85456 18.5474 5.45259C18.1455 5.05062 17.6004 4.82458 17.0319 4.82407L6.96795 4.82439Z" fill="#202020"/>
<path d="M16.5442 9.84994C16.2676 9.85003 15.9937 9.79562 15.7381 9.68983C15.4825 9.58404 15.2502 9.42893 15.0546 9.23338C14.8589 9.03782 14.7037 8.80564 14.5978 8.55009C14.4919 8.29455 14.4374 8.02064 14.4374 7.74402V5.65538C14.4374 5.48564 14.5048 5.32286 14.6248 5.20283C14.7448 5.08281 14.9076 5.01538 15.0774 5.01538C15.2471 5.01538 15.4099 5.08281 15.5299 5.20283C15.6499 5.32286 15.7174 5.48564 15.7174 5.65538V7.74402C15.7174 7.85319 15.7391 7.96127 15.7811 8.06202C15.8231 8.16277 15.8847 8.25419 15.9623 8.33101C16.0398 8.40783 16.1318 8.46853 16.233 8.50959C16.3341 8.55066 16.4424 8.57128 16.5516 8.57026L18.3689 8.55266H18.3753C18.545 8.55185 18.7081 8.61851 18.8287 8.73796C18.9493 8.85742 19.0175 9.01988 19.0183 9.18962C19.0191 9.35936 18.9525 9.52247 18.833 9.64306C18.7136 9.76365 18.5511 9.83185 18.3814 9.83266L16.5641 9.85058L16.5442 9.84994ZM9.15639 17.712C8.99005 17.7123 8.8302 17.6475 8.71095 17.5315L7.40119 16.2627C7.34045 16.2039 7.29198 16.1336 7.25858 16.0559C7.22518 15.9782 7.2075 15.8947 7.20658 15.8101C7.20566 15.7255 7.22151 15.6416 7.25321 15.5632C7.28491 15.4848 7.33183 15.4135 7.39127 15.3533L8.77815 13.9491C8.83645 13.8863 8.90678 13.8358 8.98497 13.8007C9.06316 13.7655 9.14761 13.7464 9.23331 13.7446C9.31901 13.7427 9.40422 13.758 9.48387 13.7897C9.56352 13.8214 9.636 13.8688 9.697 13.929C9.758 13.9892 9.80628 14.0611 9.83897 14.1403C9.87166 14.2196 9.88811 14.3046 9.88732 14.3903C9.88653 14.476 9.86853 14.5607 9.83438 14.6393C9.80024 14.718 9.75065 14.7889 9.68855 14.848L8.75607 15.7923L9.60023 16.6122C9.69181 16.7008 9.75484 16.8148 9.78123 16.9395C9.80762 17.0642 9.79617 17.194 9.74835 17.3121C9.70053 17.4303 9.61852 17.5315 9.51283 17.6027C9.40714 17.674 9.28258 17.712 9.15511 17.712H9.15639ZM14.8441 17.712C14.7167 17.7118 14.5923 17.6735 14.4868 17.6022C14.3813 17.5308 14.2995 17.4296 14.2519 17.3115C14.2042 17.1934 14.1929 17.0638 14.2193 16.9392C14.2457 16.8146 14.3087 16.7008 14.4002 16.6122L15.2457 15.793L14.3119 14.848C14.2512 14.7886 14.203 14.7177 14.17 14.6394C14.137 14.5612 14.12 14.4771 14.1198 14.3922C14.1196 14.3073 14.1363 14.2232 14.169 14.1448C14.2016 14.0664 14.2495 13.9953 14.31 13.9356C14.3704 13.8759 14.4421 13.8288 14.5208 13.7971C14.5996 13.7654 14.6839 13.7497 14.7688 13.7509C14.8538 13.7521 14.9376 13.7702 15.0154 13.8041C15.0933 13.838 15.1636 13.8871 15.2223 13.9485L16.6082 15.3533C16.6677 15.4135 16.7146 15.4848 16.7463 15.5632C16.778 15.6416 16.7938 15.7255 16.7929 15.8101C16.792 15.8947 16.7743 15.9782 16.7409 16.0559C16.7075 16.1336 16.659 16.2039 16.5983 16.2627L15.2886 17.5315C15.1695 17.6472 15.0101 17.712 14.8441 17.712Z" fill="#202020"/>
</svg>
