<svg width="24" height="24" viewBox="0 0 24 24" fill="none" xmlns="http://www.w3.org/2000/svg">
<path d="M17.032 20.4556H6.968C6.06021 20.4546 5.18989 20.0935 4.54799 19.4516C3.90608 18.8097 3.54502 17.9394 3.544 17.0316V6.96795C3.54502 6.06016 3.90608 5.18984 4.54799 4.54793C5.18989 3.90603 6.06021 3.54496 6.968 3.54395H13.944C14.1063 3.54393 14.2626 3.60558 14.3811 3.71643L20.2525 9.2009C20.3166 9.26079 20.3677 9.33323 20.4027 9.41371C20.4377 9.49419 20.4557 9.581 20.4557 9.66874V17.0319C20.4557 17.94 20.0949 18.811 19.4528 19.4531C18.8107 20.0952 17.9398 20.4559 17.0317 20.4559L17.032 20.4556ZM6.968 4.82427C6.39953 4.82477 5.85449 5.05082 5.45252 5.45279C5.05056 5.85476 4.82451 6.3998 4.824 6.96826V17.0323C4.82451 17.6007 5.05056 18.1458 5.45252 18.5477C5.85449 18.9497 6.39953 19.1758 6.968 19.1763H17.032C17.3136 19.1763 17.5923 19.1208 17.8525 19.0131C18.1126 18.9053 18.3489 18.7474 18.548 18.5483C18.7471 18.3492 18.905 18.1129 19.0128 17.8527C19.1205 17.5926 19.176 17.3138 19.176 17.0323V9.9465L13.6922 4.82427H6.968Z" fill="#202020"/>
<path d="M19.8157 10.2637H15.5821C14.9782 10.2631 14.3992 10.0229 13.9722 9.59585C13.5452 9.16883 13.305 8.58987 13.3043 7.98597V4.18437C13.3043 4.05983 13.3406 3.93798 13.4088 3.83376C13.477 3.72955 13.5741 3.64749 13.6882 3.59766C13.8024 3.54782 13.9286 3.53237 14.0514 3.55321C14.1742 3.57404 14.2882 3.63024 14.3795 3.71493L20.2506 9.15493C20.345 9.24235 20.411 9.35622 20.4397 9.48168C20.4685 9.60714 20.4588 9.73836 20.4118 9.8582C20.3648 9.97804 20.2828 10.0809 20.1765 10.1535C20.0701 10.226 19.9444 10.2647 19.8157 10.2647V10.2637ZM14.5843 5.64997V7.98597C14.5847 8.25049 14.6899 8.50408 14.8769 8.69112C15.064 8.87817 15.3176 8.9834 15.5821 8.98373H18.183L14.5843 5.64997ZM9.64832 17.6503C9.47891 17.6503 9.31643 17.5831 9.19648 17.4634L7.3888 15.6602C7.07387 15.3461 6.88734 14.9259 6.86567 14.4817C6.84399 14.0374 6.98872 13.601 7.27159 13.2578C7.55445 12.9145 7.95513 12.689 8.39534 12.6254C8.83555 12.5618 9.28368 12.6646 9.65216 12.9137C9.99498 12.6977 10.4009 12.6044 10.8037 12.6491C11.2064 12.6938 11.582 12.8738 11.8691 13.1597C12.2042 13.4949 12.3927 13.9492 12.3932 14.4231C12.3938 14.8971 12.2063 15.3518 11.872 15.6877L10.1014 17.4625C9.98158 17.5825 9.81894 17.6501 9.64928 17.6503H9.64832ZM8.65088 13.8881C8.55053 13.8881 8.45245 13.9179 8.36905 13.9737C8.28564 14.0295 8.22066 14.1088 8.18232 14.2015C8.14399 14.2942 8.13402 14.3963 8.15369 14.4947C8.17335 14.5931 8.22177 14.6834 8.2928 14.7543L9.64736 16.1057L10.9661 14.7841C11.061 14.6889 11.1143 14.5599 11.1143 14.4255C11.1143 14.2911 11.061 14.1621 10.9661 14.0669C10.8709 13.9718 10.7419 13.9184 10.6074 13.9184C10.4728 13.9184 10.3438 13.9718 10.2486 14.0669L10.0982 14.2177C10.0388 14.2771 9.96825 14.3243 9.89058 14.3565C9.81291 14.3886 9.72967 14.4052 9.6456 14.4052C9.56153 14.4052 9.47829 14.3886 9.40063 14.3565C9.32296 14.3243 9.2524 14.2771 9.19296 14.2177L9.00992 14.0349C8.96277 13.9879 8.90675 13.9507 8.84512 13.9255C8.78349 13.9003 8.71747 13.8876 8.65088 13.8881Z" fill="#202020"/>
</svg>
