<svg width="24" height="24" viewBox="0 0 24 24" fill="none" xmlns="http://www.w3.org/2000/svg">
<path d="M17.032 20.4556H6.96801C6.06022 20.4546 5.1899 20.0935 4.548 19.4516C3.90609 18.8097 3.54502 17.9394 3.54401 17.0316V6.96795C3.54502 6.06016 3.90609 5.18984 4.548 4.54793C5.1899 3.90603 6.06022 3.54496 6.96801 3.54395H13.944C14.1063 3.54393 14.2626 3.60558 14.3811 3.71643L20.2525 9.2009C20.3166 9.26079 20.3678 9.33323 20.4027 9.41371C20.4377 9.49419 20.4557 9.581 20.4557 9.66874V17.0319C20.4557 17.94 20.0949 18.811 19.4528 19.4531C18.8107 20.0952 17.9398 20.4559 17.0317 20.4559L17.032 20.4556ZM6.96801 4.82427C6.39954 4.82477 5.8545 5.05082 5.45253 5.45279C5.05056 5.85476 4.82451 6.3998 4.82401 6.96826V17.0323C4.82451 17.6007 5.05056 18.1458 5.45253 18.5477C5.8545 18.9497 6.39954 19.1758 6.96801 19.1763H17.032C17.3136 19.1763 17.5924 19.1208 17.8525 19.0131C18.1126 18.9053 18.349 18.7474 18.548 18.5483C18.7471 18.3492 18.9051 18.1129 19.0128 17.8527C19.1205 17.5926 19.176 17.3138 19.176 17.0323V9.9465L13.6922 4.82427H6.96801Z" fill="#202020"/>
<path d="M19.8157 10.2637H15.5821C14.9782 10.2631 14.3992 10.0229 13.9722 9.59584C13.5452 9.16883 13.305 8.58987 13.3043 7.98597V4.18437C13.3043 4.05983 13.3406 3.93798 13.4088 3.83376C13.477 3.72955 13.5741 3.64749 13.6882 3.59766C13.8024 3.54782 13.9286 3.53237 14.0514 3.55321C14.1742 3.57404 14.2882 3.63024 14.3795 3.71493L20.2506 9.15493C20.345 9.24235 20.411 9.35622 20.4397 9.48168C20.4685 9.60714 20.4588 9.73836 20.4118 9.8582C20.3648 9.97804 20.2828 10.0809 20.1765 10.1535C20.0701 10.226 19.9444 10.2647 19.8157 10.2647V10.2637ZM14.5843 5.64997V7.98597C14.5847 8.25049 14.6899 8.50408 14.8769 8.69112C15.064 8.87817 15.3176 8.98339 15.5821 8.98373H18.183L14.5843 5.64997ZM6.472 13.4993C6.34509 13.4992 6.22106 13.4615 6.11566 13.3908C6.01025 13.3201 5.92825 13.2197 5.88006 13.1023C5.83187 12.9849 5.81967 12.8558 5.84502 12.7314C5.87036 12.6071 5.93211 12.4931 6.0224 12.4039L7.6592 10.7869C7.77526 10.6723 7.93071 10.6063 8.0938 10.6024C8.25688 10.5986 8.41529 10.6571 8.53664 10.7661L10.2509 12.3053C10.3134 12.3615 10.3643 12.4294 10.4006 12.5052C10.4369 12.581 10.4579 12.6632 10.4625 12.7471C10.467 12.8311 10.455 12.9151 10.427 12.9943C10.3991 13.0736 10.3558 13.1466 10.2997 13.2092C10.2435 13.2717 10.1756 13.3226 10.0998 13.3589C10.024 13.3952 9.9418 13.4162 9.85787 13.4208C9.77394 13.4253 9.68994 13.4133 9.61067 13.3853C9.53139 13.3574 9.4584 13.3141 9.39584 13.258L8.12992 12.1213L6.92192 13.3146C6.80209 13.433 6.64043 13.4993 6.472 13.4993Z" fill="#202020"/>
<path d="M8.10912 16.7377C7.93938 16.7377 7.77659 16.6702 7.65657 16.5502C7.53654 16.4302 7.46912 16.2674 7.46912 16.0977V11.2423C7.46912 11.0726 7.53654 10.9098 7.65657 10.7897C7.77659 10.6697 7.93938 10.6023 8.10912 10.6023C8.27885 10.6023 8.44164 10.6697 8.56166 10.7897C8.68169 10.9098 8.74912 11.0726 8.74912 11.2423V16.0977C8.74912 16.2674 8.68169 16.4302 8.56166 16.5502C8.44164 16.6702 8.27885 16.7377 8.10912 16.7377Z" fill="#202020"/>
</svg>
