<svg width="24" height="24" viewBox="0 0 24 24" fill="none" xmlns="http://www.w3.org/2000/svg">
<path d="M12.4643 19.1965C10.768 19.1966 9.12403 18.6086 7.81265 17.5325C6.50127 16.4564 5.60357 14.9589 5.27253 13.2952C4.94149 11.6315 5.19757 9.90439 5.99716 8.40829C6.79674 6.9122 8.09035 5.73963 9.65756 5.0904C11.2248 4.44117 12.9686 4.35545 14.5919 4.84783C16.2153 5.34021 17.6176 6.38023 18.5601 7.79069C19.5026 9.20115 19.9268 10.8948 19.7606 12.583C19.5943 14.2711 18.8478 15.8495 17.6483 17.049C16.9692 17.732 16.1613 18.2734 15.2715 18.6421C14.3816 19.0107 13.4275 19.1991 12.4643 19.1965ZM12.4643 5.81345C9.12768 5.81345 6.4128 8.52801 6.4128 11.865C6.4128 15.2019 9.12768 17.9165 12.4643 17.9165C15.801 17.9165 18.5162 15.2016 18.5162 11.865C18.5162 8.52833 15.8013 5.81345 12.4643 5.81345Z" fill="#202020"/>
<path d="M12.4381 15.0102C12.015 15.0102 11.5469 14.935 11.047 14.7834C10.9666 14.7589 10.8918 14.7189 10.8268 14.6656C10.7618 14.6122 10.708 14.5466 10.6684 14.4725C10.6288 14.3984 10.6042 14.3171 10.596 14.2335C10.5877 14.1498 10.5961 14.0654 10.6205 13.985C10.6449 13.9045 10.6849 13.8297 10.7382 13.7647C10.7916 13.6998 10.8572 13.6459 10.9313 13.6063C11.0811 13.5263 11.2564 13.5091 11.4189 13.5584C12.337 13.8371 12.9133 13.7354 13.1469 13.5472C13.2045 13.5005 13.3798 13.3587 13.3405 12.8787C13.3315 12.7734 13.3101 12.7312 13.1914 12.6701C13.0042 12.5741 12.6938 12.5181 12.3933 12.464C11.9699 12.3875 11.5318 12.3088 11.1578 12.0925C10.6362 11.7907 10.3747 11.296 10.4 10.6602C10.425 10.0579 10.6637 9.55999 11.0899 9.22015C11.968 8.52127 13.3219 8.74783 13.472 8.77599C13.6389 8.80676 13.7868 8.90258 13.8831 9.04238C13.9794 9.18217 14.0162 9.3545 13.9854 9.52143C13.9547 9.68837 13.8589 9.83625 13.7191 9.93254C13.5793 10.0288 13.4069 10.0656 13.24 10.0349C13.0019 9.99231 12.2435 9.93567 11.8861 10.2227C11.8032 10.2893 11.6912 10.4125 11.6787 10.7133C11.6694 10.9392 11.6656 11.0333 12.6182 11.2042C13.0112 11.2749 13.4182 11.3482 13.7747 11.5315C14.4109 11.8586 14.5824 12.3875 14.6141 12.7734C14.6928 13.7286 14.296 14.263 13.9491 14.543C13.5658 14.8534 13.0486 15.0102 12.4381 15.0102Z" fill="#202020"/>
<path d="M12.512 16.5222C12.3423 16.5222 12.1795 16.4548 12.0595 16.3348C11.9394 16.2148 11.872 16.052 11.872 15.8822V7.98784C11.872 7.8181 11.9394 7.65531 12.0595 7.53529C12.1795 7.41527 12.3423 7.34784 12.512 7.34784C12.6817 7.34784 12.8445 7.41527 12.9646 7.53529C13.0846 7.65531 13.152 7.8181 13.152 7.98784V15.8822C13.152 16.052 13.0846 16.2148 12.9646 16.3348C12.8445 16.4548 12.6817 16.5222 12.512 16.5222Z" fill="#202020"/>
</svg>
