<svg width="24" height="24" viewBox="0 0 24 24" fill="none" xmlns="http://www.w3.org/2000/svg">
<path d="M17.8749 19.2342H9.30624C8.52414 19.2333 7.77435 18.9222 7.22136 18.3691C6.66836 17.8161 6.35732 17.0662 6.35648 16.2841V7.71583C6.35732 6.93373 6.66836 6.18391 7.22136 5.63085C7.77435 5.0778 8.52414 4.76668 9.30624 4.76575H17.8749C18.657 4.76668 19.4068 5.0778 19.9598 5.63085C20.5128 6.18391 20.8238 6.93373 20.8246 7.71583V16.2841C20.8238 17.0662 20.5128 17.8161 19.9598 18.3691C19.4068 18.9222 18.657 19.2333 17.8749 19.2342ZM9.30624 6.04575C8.86349 6.04626 8.43903 6.22238 8.12599 6.53548C7.81295 6.84858 7.6369 7.27308 7.63648 7.71583V16.2841C7.6369 16.7269 7.81295 17.1514 8.12599 17.4645C8.43903 17.7776 8.86349 17.9537 9.30624 17.9542H17.8749C18.3176 17.9537 18.7421 17.7776 19.0551 17.4645C19.3682 17.1514 19.5442 16.7269 19.5446 16.2841V7.71583C19.5442 7.27308 19.3682 6.84858 19.0551 6.53548C18.7421 6.22238 18.3176 6.04626 17.8749 6.04575H9.30624Z" fill="#202020"/>
<path d="M13.5162 15.0102C13.0931 15.0102 12.625 14.935 12.1254 14.7834C12.045 14.759 11.9702 14.719 11.9052 14.6656C11.8402 14.6123 11.7864 14.5467 11.7468 14.4726C11.7071 14.3985 11.6825 14.3173 11.6743 14.2336C11.666 14.15 11.6743 14.0655 11.6987 13.9851C11.7231 13.9047 11.7631 13.8298 11.8164 13.7649C11.8698 13.6999 11.9353 13.6461 12.0095 13.6064C12.0836 13.5668 12.1648 13.5422 12.2484 13.5339C12.3321 13.5257 12.4165 13.534 12.497 13.5584C13.415 13.8371 13.9914 13.7354 14.225 13.5472C14.2826 13.5005 14.4582 13.3587 14.4186 12.8787C14.4099 12.7734 14.3882 12.7312 14.2694 12.6701C14.0822 12.5741 13.7718 12.5181 13.4717 12.464C13.048 12.3875 12.6099 12.3088 12.2362 12.0925C11.7149 11.7907 11.4534 11.2954 11.48 10.6602C11.505 10.0579 11.7437 9.55999 12.1699 9.22015C13.0474 8.52127 14.4006 8.74783 14.552 8.77599C14.7189 8.80676 14.8668 8.90258 14.9631 9.04238C15.0594 9.18217 15.0962 9.3545 15.0654 9.52143C15.0347 9.68837 14.9389 9.83625 14.7991 9.93254C14.6593 10.0288 14.4869 10.0656 14.32 10.0349C14.0822 9.99231 13.3235 9.93567 12.9661 10.2227C12.8832 10.2893 12.7715 10.4125 12.759 10.7133C12.7494 10.9392 12.7456 11.0333 13.6986 11.2042C14.0912 11.2749 14.4986 11.3482 14.8547 11.5315C15.4909 11.8586 15.6624 12.3875 15.6941 12.7734C15.7731 13.7286 15.376 14.263 15.0291 14.543C14.6438 14.8534 14.1267 15.0102 13.5162 15.0102Z" fill="#202020"/>
<path d="M13.5904 16.5222C13.4207 16.5222 13.2579 16.4548 13.1378 16.3348C13.0178 16.2148 12.9504 16.052 12.9504 15.8822V7.98784C12.9504 7.8181 13.0178 7.65531 13.1378 7.53529C13.2579 7.41527 13.4207 7.34784 13.5904 7.34784C13.7601 7.34784 13.9229 7.41527 14.0429 7.53529C14.163 7.65531 14.2304 7.8181 14.2304 7.98784V15.8822C14.2304 16.052 14.163 16.2148 14.0429 16.3348C13.9229 16.4548 13.7601 16.5222 13.5904 16.5222Z" fill="#202020"/>
</svg>
