<svg width="24" height="24" viewBox="0 0 24 24" fill="none" xmlns="http://www.w3.org/2000/svg">
<path d="M11.9999 20.6806C9.99172 20.6806 8.04565 19.9842 6.49332 18.7101C4.94098 17.4361 3.87843 15.6632 3.4867 13.6935C3.09497 11.7239 3.39831 9.67933 4.34502 7.90826C5.29173 6.13719 6.82325 4.74916 8.67862 3.98069C10.534 3.21221 12.5984 3.11083 14.5202 3.69381C16.4419 4.2768 18.1021 5.50808 19.2178 7.17787C20.3334 8.84766 20.8356 10.8526 20.6388 12.8512C20.4419 14.8497 19.5582 16.7182 18.1382 18.1382C17.3339 18.9468 16.3773 19.5878 15.3237 20.0242C14.2701 20.4606 13.1404 20.6837 11.9999 20.6806ZM11.9999 4.59936C7.91931 4.59936 4.59931 7.91936 4.59931 12C4.59931 16.0806 7.91931 19.4006 11.9999 19.4006C16.0806 19.4006 19.4006 16.0806 19.4006 12C19.4006 7.91936 16.0806 4.59936 11.9999 4.59936Z" fill="#202020"/>
<path d="M15.202 20.0176C15.0341 20.0176 14.8729 19.9517 14.7532 19.834C14.6335 19.7163 14.5648 19.5563 14.562 19.3885C14.5206 16.7963 13.99 14.2353 12.9981 11.84C11.947 9.29064 10.394 6.97868 8.4314 5.0416C8.31072 4.92223 8.24239 4.75981 8.24146 4.59007C8.241 4.50602 8.2571 4.4227 8.28884 4.34488C8.32058 4.26705 8.36734 4.19624 8.42644 4.13648C8.48555 4.07672 8.55584 4.02919 8.63332 3.9966C8.71079 3.96401 8.79393 3.947 8.87797 3.94654C9.04772 3.94561 9.21088 4.01215 9.33156 4.13152C11.4155 6.18828 13.0647 8.64299 14.1812 11.3498C15.2347 13.8936 15.7982 16.6137 15.842 19.3667C15.8449 19.5364 15.7803 19.7003 15.6623 19.8224C15.5444 19.9444 15.3829 20.0147 15.2132 20.0176H15.202Z" fill="#202020"/>
<path d="M4.05476 12.7222C3.88502 12.7265 3.72055 12.6631 3.59753 12.5461C3.4745 12.4291 3.403 12.268 3.39876 12.0982C3.39452 11.9285 3.45788 11.764 3.5749 11.641C3.69192 11.518 3.85302 11.4465 4.02276 11.4422C6.36573 11.3208 8.67081 10.8005 10.8388 9.90368C13.1373 8.95394 15.245 7.59606 17.0599 5.89568C17.1213 5.83827 17.1934 5.79353 17.2721 5.76399C17.3508 5.73445 17.4345 5.7207 17.5185 5.72352C17.6025 5.72634 17.6851 5.74568 17.7617 5.78044C17.8382 5.81519 17.9071 5.86468 17.9645 5.92608C18.0219 5.98747 18.0667 6.05957 18.0962 6.13826C18.1257 6.21695 18.1395 6.30069 18.1367 6.38469C18.1339 6.4687 18.1145 6.55132 18.0798 6.62785C18.045 6.70438 17.9955 6.77331 17.9341 6.83072C16.006 8.63646 13.7671 10.0784 11.3255 11.0867C9.02379 12.0389 6.57651 12.5913 4.089 12.7203L4.05476 12.7222ZM6.47332 18.1315C6.34435 18.1316 6.21836 18.0927 6.11188 18.0199C6.00539 17.9472 5.92337 17.844 5.87656 17.7238C5.82976 17.6036 5.82035 17.4721 5.84958 17.3465C5.87881 17.2209 5.94531 17.107 6.04036 17.0198C9.85003 13.5212 14.7737 11.4819 19.9415 11.2621C20.1112 11.2548 20.2769 11.3152 20.4021 11.4301C20.5273 11.5449 20.6017 11.7048 20.609 11.8746C20.6163 12.0443 20.5559 12.21 20.441 12.3352C20.3261 12.4604 20.1663 12.5348 19.9965 12.5421C15.1302 12.7487 10.4936 14.6689 6.90596 17.9632C6.78789 18.0715 6.63352 18.1315 6.47332 18.1315Z" fill="#202020"/>
</svg>
