<svg width="24" height="24" viewBox="0 0 24 24" fill="none" xmlns="http://www.w3.org/2000/svg">
<path d="M18.6957 11.7162H6.49342C5.83841 11.7155 5.21042 11.455 4.74722 10.9919C4.28403 10.5287 4.02347 9.90078 4.02271 9.24577V6.56737C4.02321 5.91219 4.28366 5.28398 4.74688 4.82064C5.21011 4.3573 5.83825 4.09669 6.49342 4.09601H18.6957C19.3506 4.09677 19.9785 4.35729 20.4417 4.82041C20.9048 5.28354 21.1653 5.91145 21.1661 6.56641V9.24481C21.1656 9.89993 20.9051 10.5281 20.442 10.9914C19.9788 11.4548 19.3508 11.7154 18.6957 11.7162ZM6.49342 5.37601C6.17779 5.37635 5.87517 5.50186 5.65195 5.72502C5.42873 5.94818 5.30313 6.25077 5.30271 6.56641V9.24481C5.30313 9.56045 5.42873 9.86303 5.65195 10.0862C5.87517 10.3094 6.17779 10.4349 6.49342 10.4352H18.6957C19.0113 10.4349 19.3139 10.3093 19.537 10.0862C19.7602 9.863 19.8857 9.56042 19.8861 9.24481V6.56641C19.8857 6.2508 19.7602 5.94821 19.537 5.72504C19.3139 5.50187 19.0113 5.37635 18.6957 5.37601H6.49342ZM18.6957 20.2928H6.49342C5.83838 20.292 5.21039 20.0315 4.7472 19.5683C4.28402 19.1051 4.02347 18.4771 4.02271 17.8221V15.144C4.02313 14.4887 4.28353 13.8604 4.74675 13.397C5.20997 12.9335 5.83816 12.6728 6.49342 12.672H18.6957C19.3507 12.6728 19.9786 12.9333 20.4418 13.3965C20.9049 13.8597 21.1654 14.4877 21.1661 15.1427V17.8208C21.1657 18.476 20.9054 19.1044 20.4422 19.5678C19.9791 20.0313 19.3509 20.292 18.6957 20.2928ZM6.49342 13.952C6.17773 13.9523 5.87506 14.0779 5.65183 14.3011C5.4286 14.5244 5.30304 14.827 5.30271 15.1427V17.8208C5.30304 18.1365 5.4286 18.4392 5.65183 18.6624C5.87506 18.8856 6.17773 19.0112 6.49342 19.0115H18.6957C19.0113 19.0111 19.3139 18.8855 19.537 18.6623C19.7602 18.4391 19.8857 18.1364 19.8861 17.8208V15.144C19.8861 14.8281 19.7607 14.5252 19.5375 14.3017C19.3143 14.0782 19.0115 13.9524 18.6957 13.952H6.49342Z" fill="#202020"/>
<path d="M18.258 8.41121H11.961C11.7913 8.41121 11.6285 8.34378 11.5084 8.22376C11.3884 8.10374 11.321 7.94095 11.321 7.77121C11.321 7.60148 11.3884 7.43869 11.5084 7.31867C11.6285 7.19864 11.7913 7.13121 11.961 7.13121H18.258C18.4277 7.13121 18.5905 7.19864 18.7105 7.31867C18.8305 7.43869 18.898 7.60148 18.898 7.77121C18.898 7.94095 18.8305 8.10374 18.7105 8.22376C18.5905 8.34378 18.4277 8.41121 18.258 8.41121ZM18.258 17.1229H11.961C11.7913 17.1229 11.6285 17.0555 11.5084 16.9354C11.3884 16.8154 11.321 16.6526 11.321 16.4829C11.321 16.3132 11.3884 16.1504 11.5084 16.0303C11.6285 15.9103 11.7913 15.8429 11.961 15.8429H18.258C18.4277 15.8429 18.5905 15.9103 18.7105 16.0303C18.8305 16.1504 18.898 16.3132 18.898 16.4829C18.898 16.6526 18.8305 16.8154 18.7105 16.9354C18.5905 17.0555 18.4277 17.1229 18.258 17.1229ZM6.8922 9.30913C6.72246 9.30913 6.55967 9.2417 6.43965 9.12168C6.31963 9.00166 6.2522 8.83887 6.2522 8.66913V7.14433C6.2522 6.97459 6.31963 6.81181 6.43965 6.69179C6.55967 6.57176 6.72246 6.50433 6.8922 6.50433C7.06194 6.50433 7.22472 6.57176 7.34475 6.69179C7.46477 6.81181 7.5322 6.97459 7.5322 7.14433V8.66913C7.5322 8.75318 7.51564 8.8364 7.48348 8.91405C7.45132 8.9917 7.40418 9.06225 7.34475 9.12168C7.28532 9.18111 7.21476 9.22825 7.13711 9.26042C7.05947 9.29258 6.97624 9.30913 6.8922 9.30913ZM6.8922 17.8855C6.72246 17.8855 6.55967 17.818 6.43965 17.698C6.31963 17.578 6.2522 17.4152 6.2522 17.2455V15.7207C6.2522 15.5509 6.31963 15.3881 6.43965 15.2681C6.55967 15.1481 6.72246 15.0807 6.8922 15.0807C7.06194 15.0807 7.22472 15.1481 7.34475 15.2681C7.46477 15.3881 7.5322 15.5509 7.5322 15.7207V17.2455C7.5322 17.4152 7.46477 17.578 7.34475 17.698C7.22472 17.818 7.06194 17.8855 6.8922 17.8855ZM9.16228 9.30913C8.99254 9.30913 8.82975 9.2417 8.70973 9.12168C8.5897 9.00166 8.52228 8.83887 8.52228 8.66913V7.14433C8.52228 6.97459 8.5897 6.81181 8.70973 6.69179C8.82975 6.57176 8.99254 6.50433 9.16228 6.50433C9.33202 6.50433 9.4948 6.57176 9.61483 6.69179C9.73485 6.81181 9.80228 6.97459 9.80228 7.14433V8.66913C9.80228 8.75318 9.78572 8.8364 9.75356 8.91405C9.7214 8.9917 9.67425 9.06225 9.61483 9.12168C9.5554 9.18111 9.48484 9.22825 9.40719 9.26042C9.32955 9.29258 9.24632 9.30913 9.16228 9.30913ZM9.16228 17.8855C8.99254 17.8855 8.82975 17.818 8.70973 17.698C8.5897 17.578 8.52228 17.4152 8.52228 17.2455V15.7207C8.52228 15.5509 8.5897 15.3881 8.70973 15.2681C8.82975 15.1481 8.99254 15.0807 9.16228 15.0807C9.33202 15.0807 9.4948 15.1481 9.61483 15.2681C9.73485 15.3881 9.80228 15.5509 9.80228 15.7207V17.2455C9.80228 17.4152 9.73485 17.578 9.61483 17.698C9.4948 17.818 9.33202 17.8855 9.16228 17.8855Z" fill="#202020"/>
</svg>
