<svg width="24" height="24" viewBox="0 0 24 24" fill="none" xmlns="http://www.w3.org/2000/svg">
<path d="M17.984 8.73122H11.688C11.5183 8.73122 11.3555 8.66379 11.2355 8.54377C11.1155 8.42375 11.048 8.26096 11.048 8.09122C11.048 7.92148 11.1155 7.7587 11.2355 7.63867C11.3555 7.51865 11.5183 7.45122 11.688 7.45122H17.984C18.1538 7.45122 18.3166 7.51865 18.4366 7.63867C18.5566 7.7587 18.624 7.92148 18.624 8.09122C18.624 8.26096 18.5566 8.42375 18.4366 8.54377C18.3166 8.66379 18.1538 8.73122 17.984 8.73122ZM6.61925 9.62914C6.44951 9.62914 6.28672 9.56171 6.1667 9.44169C6.04668 9.32167 5.97925 9.15888 5.97925 8.98914V7.46434C5.97925 7.2946 6.04668 7.13182 6.1667 7.01179C6.28672 6.89177 6.44951 6.82434 6.61925 6.82434C6.78899 6.82434 6.95177 6.89177 7.0718 7.01179C7.19182 7.13182 7.25925 7.2946 7.25925 7.46434V8.98914C7.25925 9.07319 7.24269 9.15641 7.21053 9.23406C7.17837 9.31171 7.13123 9.38226 7.0718 9.44169C7.01237 9.50112 6.94181 9.54826 6.86416 9.58042C6.78652 9.61259 6.70329 9.62914 6.61925 9.62914ZM6.61925 17.5655C6.44951 17.5655 6.28672 17.498 6.1667 17.378C6.04668 17.258 5.97925 17.0952 5.97925 16.9255V15.4007C5.97925 15.2309 6.04668 15.0681 6.1667 14.9481C6.28672 14.8281 6.44951 14.7607 6.61925 14.7607C6.78899 14.7607 6.95177 14.8281 7.0718 14.9481C7.19182 15.0681 7.25925 15.2309 7.25925 15.4007V16.9255C7.25925 17.0952 7.19182 17.258 7.0718 17.378C6.95177 17.498 6.78899 17.5655 6.61925 17.5655ZM8.88933 9.62914C8.71959 9.62914 8.5568 9.56171 8.43678 9.44169C8.31676 9.32167 8.24933 9.15888 8.24933 8.98914V7.46434C8.24933 7.2946 8.31676 7.13182 8.43678 7.01179C8.5568 6.89177 8.71959 6.82434 8.88933 6.82434C9.05907 6.82434 9.22185 6.89177 9.34188 7.01179C9.4619 7.13182 9.52933 7.2946 9.52933 7.46434V8.98914C9.52933 9.07319 9.51277 9.15641 9.48061 9.23406C9.44845 9.31171 9.40131 9.38226 9.34188 9.44169C9.28245 9.50112 9.21189 9.54826 9.13424 9.58042C9.0566 9.61259 8.97337 9.62914 8.88933 9.62914ZM8.88933 17.5655C8.71959 17.5655 8.5568 17.498 8.43678 17.378C8.31676 17.258 8.24933 17.0952 8.24933 16.9255V15.4007C8.24933 15.2309 8.31676 15.0681 8.43678 14.9481C8.5568 14.8281 8.71959 14.7607 8.88933 14.7607C9.05907 14.7607 9.22185 14.8281 9.34188 14.9481C9.4619 15.0681 9.52933 15.2309 9.52933 15.4007V16.9255C9.52933 17.0952 9.4619 17.258 9.34188 17.378C9.22185 17.498 9.05907 17.5655 8.88933 17.5655Z" fill="#202020"/>
<path d="M13.2623 20.4557H6.96795C6.06016 20.4547 5.18984 20.0936 4.54793 19.4517C3.90603 18.8098 3.54496 17.9395 3.54395 17.0317V6.96801C3.54496 6.06022 3.90603 5.1899 4.54793 4.548C5.18984 3.90609 6.06016 3.54502 6.96795 3.54401H17.0319C17.9397 3.54502 18.8101 3.90609 19.452 4.548C20.0939 5.1899 20.4549 6.06022 20.4559 6.96801V12C20.4559 12.1697 20.3885 12.3325 20.2685 12.4526C20.1485 12.5726 19.9857 12.64 19.8159 12.64C19.6462 12.64 19.4834 12.5726 19.3634 12.4526C19.2434 12.3325 19.1759 12.1697 19.1759 12V6.96801C19.1754 6.39954 18.9494 5.8545 18.5474 5.45253C18.1455 5.05056 17.6004 4.82451 17.0319 4.82401H6.96795C6.39948 4.82451 5.85444 5.05056 5.45247 5.45253C5.0505 5.8545 4.82445 6.39954 4.82395 6.96801V17.032C4.82445 17.6005 5.0505 18.1455 5.45247 18.5475C5.85444 18.9494 6.39948 19.1755 6.96795 19.176H13.2623C13.4321 19.176 13.5949 19.2434 13.7149 19.3635C13.8349 19.4835 13.9023 19.6463 13.9023 19.816C13.9023 19.9857 13.8349 20.1485 13.7149 20.2686C13.5949 20.3886 13.4321 20.456 13.2623 20.456V20.4557Z" fill="#202020"/>
<path d="M19.8155 12.64H4.18419C4.01445 12.64 3.85166 12.5726 3.73164 12.4525C3.61162 12.3325 3.54419 12.1697 3.54419 12C3.54419 11.8302 3.61162 11.6675 3.73164 11.5474C3.85166 11.4274 4.01445 11.36 4.18419 11.36H19.8155C19.9853 11.36 20.1481 11.4274 20.2681 11.5474C20.3881 11.6675 20.4555 11.8302 20.4555 12C20.4555 12.1697 20.3881 12.3325 20.2681 12.4525C20.1481 12.5726 19.9853 12.64 19.8155 12.64ZM19.9781 17.5654C19.8084 17.5654 19.6456 17.498 19.5256 17.378C19.4055 17.2579 19.3381 17.0952 19.3381 16.9254C19.3373 16.2796 19.0805 15.6605 18.6238 15.2039C18.1672 14.7472 17.5481 14.4903 16.9023 14.4896C16.7325 14.4896 16.5697 14.4222 16.4497 14.3021C16.3297 14.1821 16.2623 14.0193 16.2623 13.8496C16.2623 13.6798 16.3297 13.5171 16.4497 13.397C16.5697 13.277 16.7325 13.2096 16.9023 13.2096C17.8874 13.2107 18.8319 13.6025 19.5285 14.2991C20.2252 14.9958 20.617 15.9403 20.6181 16.9254C20.6181 17.0952 20.5507 17.2579 20.4307 17.378C20.3106 17.498 20.1478 17.5654 19.9781 17.5654ZM16.9023 20.64C15.8901 20.64 14.8978 20.192 14.1803 19.4096C13.8129 19.0116 13.5332 18.5407 13.3594 18.0277C13.1856 17.5146 13.1215 16.9708 13.1714 16.4313C13.1863 16.2622 13.2678 16.106 13.398 15.997C13.5281 15.888 13.6962 15.8351 13.8653 15.8501C14.0344 15.865 14.1907 15.9465 14.2997 16.0766C14.4087 16.2068 14.4615 16.3749 14.4466 16.544C14.4128 16.9066 14.4556 17.2723 14.5722 17.6173C14.6889 17.9623 14.8768 18.2789 15.1237 18.5465C15.5992 19.0653 16.2475 19.3625 16.9023 19.3625C17.072 19.3625 17.2348 19.43 17.3548 19.55C17.4748 19.67 17.5423 19.8328 17.5423 20.0025C17.5423 20.1723 17.4748 20.3351 17.3548 20.4551C17.2348 20.5751 17.072 20.6425 16.9023 20.6425V20.64Z" fill="#202020"/>
<path d="M19.9783 17.8144C19.8258 17.8145 19.6782 17.7601 19.5623 17.6611L19.008 17.1881C18.8789 17.0778 18.799 16.9207 18.7857 16.7514C18.7724 16.5821 18.827 16.4145 18.9373 16.2854C19.0476 16.1563 19.2047 16.0764 19.374 16.0631C19.5433 16.0498 19.7109 16.1044 19.84 16.2147L19.904 16.27L19.9907 16.168C20.1014 16.0422 20.257 15.9649 20.4241 15.9526C20.5912 15.9402 20.7564 15.9939 20.8843 16.1021C21.0123 16.2103 21.0927 16.3643 21.1083 16.5311C21.124 16.6979 21.0736 16.8641 20.968 16.9942L20.4663 17.5878C20.4118 17.6521 20.3451 17.7049 20.2702 17.7434C20.1952 17.7818 20.1134 17.8051 20.0295 17.8118C20.0126 17.8135 19.9955 17.8144 19.9783 17.8144ZM13.2781 17.5952C13.1521 17.5952 13.0288 17.5579 12.9239 17.4882C12.8189 17.4184 12.7369 17.3192 12.6881 17.203C12.6393 17.0868 12.6259 16.9588 12.6496 16.835C12.6732 16.7112 12.7329 16.5972 12.8211 16.5072L13.3651 15.9523C13.4242 15.8921 13.4945 15.8443 13.572 15.8114C13.6496 15.7785 13.7329 15.7612 13.8172 15.7606C13.9014 15.76 13.985 15.776 14.063 15.8077C14.1411 15.8395 14.2121 15.8863 14.272 15.9456L14.7898 16.4576C14.9104 16.577 14.9787 16.7394 14.9795 16.9092C14.9804 17.0789 14.9138 17.242 14.7944 17.3627C14.675 17.4833 14.5126 17.5516 14.3428 17.5525C14.1731 17.5533 14.0099 17.4867 13.8893 17.3673L13.8282 17.3069L13.7344 17.4029C13.675 17.4637 13.604 17.5121 13.5257 17.5451C13.4473 17.5781 13.3631 17.5952 13.2781 17.5952Z" fill="#202020"/>
</svg>
