<svg width="24" height="24" viewBox="0 0 24 24" fill="none" xmlns="http://www.w3.org/2000/svg">
<path d="M5.9475 20.25C6.09464 20.2645 6.24286 20.2645 6.39 20.25L9.0375 19.7175C9.47318 19.6327 9.87311 19.4183 10.185 19.1025L19.185 10.1025C19.8662 9.42063 20.2588 8.50263 20.2811 7.53903C20.3034 6.57543 19.9539 5.64022 19.305 4.9275C18.9731 4.56577 18.5714 4.27497 18.1242 4.0726C17.6769 3.87024 17.1933 3.7605 16.7025 3.75C16.1626 3.73948 15.6261 3.83763 15.1249 4.03862C14.6237 4.23962 14.168 4.53935 13.785 4.92L4.8825 13.785C4.5689 14.0985 4.35494 14.4978 4.2675 14.9325L3.75 17.5875C3.68963 17.9111 3.70103 18.2441 3.78337 18.5628C3.86571 18.8816 4.017 19.1784 4.22656 19.4323C4.43612 19.6862 4.69885 19.891 4.9962 20.0323C5.29355 20.1736 5.61829 20.2479 5.9475 20.25ZM5.1975 17.85L5.73 15.195C5.75572 15.0494 5.82656 14.9156 5.9325 14.8125L14.8425 5.9475C15.0725 5.71266 15.3465 5.52552 15.649 5.39682C15.9514 5.26812 16.2763 5.20038 16.605 5.1975H16.665C16.9571 5.20073 17.2455 5.2636 17.5125 5.38225C17.7794 5.5009 18.0193 5.67283 18.2175 5.8875C18.5908 6.29823 18.7992 6.83246 18.8025 7.3875C18.8052 7.68666 18.7482 7.98336 18.6349 8.26023C18.5216 8.53711 18.3542 8.7886 18.1425 9L9.1425 18C9.03767 18.1036 8.90463 18.1741 8.76 18.2025L6.09 18.75C5.96889 18.7732 5.84394 18.7661 5.7262 18.7295C5.60847 18.6929 5.50158 18.6278 5.415 18.54C5.33742 18.4508 5.28203 18.3445 5.25336 18.2298C5.22468 18.1151 5.22353 17.9952 5.25 17.88L5.1975 17.85Z" fill="#202020"/>
</svg>
