<svg width="24" height="24" viewBox="0 0 24 24" fill="none" xmlns="http://www.w3.org/2000/svg">
<path d="M18.6559 13.7648H14.478C13.9744 13.7642 13.4916 13.5639 13.1356 13.2078C12.7795 12.8517 12.5793 12.3689 12.5788 11.8653V5.44388C12.5793 4.94033 12.7795 4.45756 13.1356 4.1015C13.4916 3.74544 13.9744 3.54519 14.478 3.54468H18.6559C19.1594 3.54519 19.6422 3.74544 19.9983 4.1015C20.3543 4.45756 20.5546 4.94033 20.5551 5.44388V11.8653C20.5546 12.3689 20.3543 12.8517 19.9983 13.2078C19.6422 13.5639 19.1595 13.7642 18.6559 13.7648ZM14.478 4.82468C14.3138 4.82485 14.1564 4.89014 14.0403 5.00622C13.9242 5.12231 13.8589 5.27971 13.8588 5.44388V11.8653C13.8588 12.0295 13.9241 12.187 14.0402 12.3032C14.1563 12.4193 14.3137 12.4847 14.478 12.4848H18.6559C18.8201 12.4847 18.9775 12.4193 19.0936 12.3032C19.2097 12.187 19.275 12.0295 19.2751 11.8653V5.44388C19.2749 5.27971 19.2096 5.12231 19.0935 5.00622C18.9774 4.89014 18.82 4.82485 18.6559 4.82468H14.478ZM18.9285 20.4557H14.2044C13.7684 20.4552 13.3504 20.2818 13.0421 19.9735C12.7338 19.6652 12.5604 19.2472 12.5599 18.8112V16.3447C12.5603 15.9087 12.7337 15.4906 13.042 15.1823C13.3503 14.874 13.7683 14.7006 14.2044 14.7002H18.9285C19.3645 14.7006 19.7826 14.874 20.0909 15.1823C20.3992 15.4906 20.5726 15.9087 20.573 16.3447V18.8112C20.5725 19.2472 20.3991 19.6652 20.0908 19.9735C19.7825 20.2818 19.3645 20.4552 18.9285 20.4557ZM14.2044 15.9802C14.1077 15.9803 14.0151 16.0187 13.9467 16.087C13.8784 16.1554 13.84 16.248 13.8399 16.3447V18.8112C13.84 18.9079 13.8784 19.0005 13.9467 19.0689C14.0151 19.1372 14.1077 19.1756 14.2044 19.1757H18.9285C19.0252 19.1756 19.1178 19.1372 19.1862 19.0689C19.2545 19.0005 19.2929 18.9079 19.293 18.8112V16.3447C19.2929 16.248 19.2545 16.1554 19.1862 16.087C19.1178 16.0187 19.0252 15.9803 18.9285 15.9802H14.2044ZM9.5218 20.4557H5.34388C4.84031 20.4551 4.35753 20.2548 4.00148 19.8987C3.64543 19.5426 3.44519 19.0598 3.44468 18.5562V12.1348C3.44519 11.6312 3.64543 11.1484 4.00148 10.7923C4.35753 10.4362 4.84031 10.2358 5.34388 10.2352H9.5218C10.0254 10.2358 10.5081 10.4362 10.8642 10.7923C11.2202 11.1484 11.4205 11.6312 11.421 12.1348V18.5562C11.4205 19.0598 11.2202 19.5426 10.8642 19.8987C10.5081 20.2548 10.0254 20.4551 9.5218 20.4557ZM5.34388 11.5152C5.17968 11.5155 5.02228 11.5809 4.90621 11.697C4.79013 11.8131 4.72485 11.9706 4.72468 12.1348V18.5562C4.72485 18.7204 4.79013 18.8778 4.90621 18.994C5.02228 19.1101 5.17968 19.1755 5.34388 19.1757H9.5218C9.686 19.1755 9.84339 19.1101 9.95947 18.994C10.0755 18.8778 10.1408 18.7204 10.141 18.5562V12.1348C10.1408 11.9706 10.0755 11.8131 9.95947 11.697C9.84339 11.5809 9.686 11.5155 9.5218 11.5152H5.34388ZM9.7954 9.29988H5.07124C4.63522 9.29945 4.21719 9.12606 3.90888 8.81775C3.60057 8.50945 3.42718 8.09141 3.42676 7.6554V5.18884C3.42727 4.75288 3.6007 4.33493 3.909 4.02669C4.21729 3.71845 4.63528 3.5451 5.07124 3.54468H9.7954C10.2314 3.5451 10.6493 3.71845 10.9576 4.02669C11.2659 4.33493 11.4394 4.75288 11.4399 5.18884V7.6554C11.4395 8.09141 11.2661 8.50945 10.9578 8.81775C10.6494 9.12606 10.2314 9.29945 9.7954 9.29988ZM5.07124 4.82468C4.97463 4.82468 4.88197 4.86303 4.81362 4.93132C4.74528 4.9996 4.70684 5.09223 4.70676 5.18884V7.6554C4.70684 7.75204 4.74527 7.8447 4.81361 7.91303C4.88194 7.98137 4.9746 8.01979 5.07124 8.01988H9.7954C9.89204 8.01979 9.9847 7.98137 10.053 7.91303C10.1214 7.8447 10.1598 7.75204 10.1599 7.6554V5.18884C10.1598 5.09223 10.1214 4.9996 10.053 4.93132C9.98467 4.86303 9.89201 4.82468 9.7954 4.82468H5.07124Z" fill="#202020"/>
</svg>
