<svg width="24" height="24" viewBox="0 0 24 24" fill="none" xmlns="http://www.w3.org/2000/svg">
<path d="M18.7259 11.52H14.2101C13.7514 11.5195 13.3117 11.3371 12.9874 11.0128C12.6631 10.6885 12.4807 10.2488 12.4802 9.7901V5.27426C12.4811 4.81592 12.6637 4.37665 12.988 4.05273C13.3123 3.72882 13.7517 3.54669 14.2101 3.54626H18.7259C19.1845 3.54669 19.6242 3.72904 19.9486 4.0533C20.2729 4.37756 20.4553 4.81725 20.4558 5.27586V9.7901C20.4553 10.2488 20.2729 10.6885 19.9486 11.0128C19.6243 11.3371 19.1846 11.5195 18.7259 11.52ZM14.2101 4.82466C14.0911 4.82475 13.977 4.87191 13.8927 4.95586C13.8084 5.0398 13.7607 5.1537 13.7602 5.27266V9.7901C13.7603 9.90938 13.8078 10.0237 13.8921 10.1081C13.9765 10.1924 14.0908 10.2399 14.2101 10.24H18.7259C18.8452 10.2399 18.9595 10.1924 19.0439 10.1081C19.1282 10.0237 19.1757 9.90938 19.1758 9.7901V5.27426C19.1752 5.1553 19.1276 5.0414 19.0433 4.95746C18.959 4.87351 18.8449 4.82635 18.7259 4.82626L14.2101 4.82466ZM9.59279 11.52H5.07663C4.61832 11.519 4.17909 11.3364 3.8552 11.0121C3.5313 10.6878 3.34914 10.2484 3.34863 9.7901V5.27426C3.34956 4.81626 3.53192 4.37727 3.85578 4.05341C4.17964 3.72955 4.61862 3.54719 5.07663 3.54626H9.59279C10.0514 3.54677 10.491 3.72916 10.8152 4.05341C11.1395 4.37767 11.3219 4.8173 11.3224 5.27586V9.7901C11.3219 10.2487 11.1395 10.6884 10.8153 11.0127C10.491 11.337 10.0514 11.5194 9.59279 11.52ZM5.07663 4.82466C4.95797 4.82517 4.84431 4.87253 4.76041 4.95644C4.6765 5.04035 4.62914 5.154 4.62863 5.27266V9.7901C4.62872 9.90907 4.67588 10.0232 4.75982 10.1075C4.84377 10.1918 4.95767 10.2394 5.07663 10.24H9.59279C9.71204 10.2399 9.82634 10.1924 9.91063 10.108C9.99492 10.0237 10.0423 9.90935 10.0424 9.7901V5.27426C10.0419 5.15533 9.9943 5.04143 9.91005 4.95748C9.8258 4.87352 9.71173 4.82635 9.59279 4.82626L5.07663 4.82466ZM9.59279 20.4557H5.07663C4.61832 20.4547 4.17909 20.272 3.8552 19.9478C3.5313 19.6235 3.34914 19.1841 3.34863 18.7258V14.2099C3.34914 13.7516 3.5313 13.3122 3.8552 12.9879C4.17909 12.6637 4.61832 12.481 5.07663 12.48H9.59279C10.0514 12.4806 10.491 12.6631 10.8153 12.9874C11.1395 13.3117 11.3219 13.7514 11.3224 14.2099V18.7258C11.3219 19.1844 11.1395 19.624 10.8153 19.9483C10.491 20.2727 10.0514 20.4551 9.59279 20.4557ZM5.07663 13.76C4.95767 13.7606 4.84377 13.8083 4.75982 13.8926C4.67588 13.9769 4.62872 14.091 4.62863 14.2099V18.7258C4.62872 18.8448 4.67588 18.9589 4.75982 19.0432C4.84377 19.1275 4.95767 19.1751 5.07663 19.1757H9.59279C9.71204 19.1755 9.82634 19.1281 9.91063 19.0437C9.99492 18.9594 10.0423 18.845 10.0424 18.7258V14.2099C10.0423 14.0907 9.99492 13.9764 9.91063 13.892C9.82634 13.8077 9.71204 13.7602 9.59279 13.76H5.07663ZM18.4002 17.1079H14.6382C14.4685 17.1079 14.3057 17.0404 14.1857 16.9204C14.0657 16.8004 13.9982 16.6376 13.9982 16.4679C13.9982 16.2981 14.0657 16.1353 14.1857 16.0153C14.3057 15.8953 14.4685 15.8279 14.6382 15.8279H18.4002C18.5699 15.8279 18.7327 15.8953 18.8527 16.0153C18.9727 16.1353 19.0402 16.2981 19.0402 16.4679C19.0402 16.6376 18.9727 16.8004 18.8527 16.9204C18.7327 17.0404 18.5699 17.1079 18.4002 17.1079Z" fill="#202020"/>
<path d="M16.5187 18.9881C16.3489 18.9881 16.1861 18.9207 16.0661 18.8007C15.9461 18.6806 15.8787 18.5178 15.8787 18.3481V14.5871C15.8787 14.4174 15.9461 14.2546 16.0661 14.1346C16.1861 14.0146 16.3489 13.9471 16.5187 13.9471C16.6884 13.9471 16.8512 14.0146 16.9712 14.1346C17.0912 14.2546 17.1587 14.4174 17.1587 14.5871V18.3481C17.1587 18.5178 17.0912 18.6806 16.9712 18.8007C16.8512 18.9207 16.6884 18.9881 16.5187 18.9881Z" fill="#202020"/>
</svg>
