<svg width="24" height="24" viewBox="0 0 24 24" fill="none" xmlns="http://www.w3.org/2000/svg">
<path d="M8.97121 10.0557H8.93697C7.88097 10.0419 7.20897 9.39584 7.02881 9.19808C6.97208 9.13603 6.92812 9.06342 6.89945 8.98439C6.87079 8.90535 6.85797 8.82145 6.86172 8.73746C6.86548 8.65347 6.88575 8.57104 6.92136 8.49489C6.95698 8.41873 7.00724 8.35033 7.06929 8.2936C7.13134 8.23687 7.20395 8.19291 7.28298 8.16425C7.36202 8.13558 7.44592 8.12276 7.52991 8.12652C7.6139 8.13028 7.69633 8.15054 7.77248 8.18615C7.84864 8.22177 7.91704 8.27203 7.97377 8.33408C8.04001 8.4064 8.39809 8.768 8.95361 8.77504C9.52961 8.78272 9.89953 8.40896 9.96833 8.33376C10.0251 8.27173 10.0935 8.22149 10.1696 8.1859C10.2458 8.1503 10.3282 8.13005 10.4121 8.12631C10.4961 8.12257 10.58 8.1354 10.659 8.16407C10.738 8.19275 10.8106 8.23671 10.8726 8.29344C10.9347 8.35017 10.9849 8.41856 11.0205 8.49471C11.0561 8.57086 11.0764 8.65328 11.0801 8.73725C11.0838 8.82122 11.071 8.90511 11.0423 8.98413C11.0137 9.06314 10.9697 9.13573 10.913 9.19776C10.728 9.40032 10.0448 10.0557 8.97121 10.0557ZM15.0294 10.1264C13.881 10.1264 13.1888 9.32896 13.0579 9.16352C13.0048 9.09775 12.9652 9.02209 12.9414 8.94093C12.9177 8.85976 12.9102 8.77469 12.9196 8.69064C12.9289 8.60658 12.9548 8.52521 12.9957 8.45122C13.0367 8.37723 13.0919 8.31209 13.1582 8.25957C13.2245 8.20705 13.3005 8.16819 13.3819 8.14523C13.4633 8.12227 13.5484 8.11567 13.6324 8.12581C13.7164 8.13595 13.7975 8.16264 13.8711 8.20432C13.9447 8.246 14.0093 8.30185 14.0611 8.36864C14.0774 8.38944 14.4726 8.87872 15.0966 8.8448C15.6192 8.816 15.9376 8.44416 15.9962 8.36992C16.1019 8.23884 16.2551 8.15474 16.4225 8.13586C16.5899 8.11698 16.7579 8.16485 16.8903 8.26908C17.0226 8.3733 17.1085 8.52549 17.1293 8.69263C17.1502 8.85977 17.1043 9.02839 17.0016 9.16192C16.8355 9.37312 16.2118 10.0656 15.1667 10.1219C15.1203 10.1254 15.0746 10.1264 15.0294 10.1264ZM12 17.1674H11.9843C11.0412 17.1593 10.137 16.7902 9.45755 16.136C8.77814 15.4817 8.37519 14.5921 8.33153 13.6499C8.32777 13.5636 8.34154 13.4773 8.37202 13.3964C8.40249 13.3156 8.44904 13.2417 8.50885 13.1793C8.56865 13.1169 8.64049 13.0672 8.72001 13.0333C8.79953 12.9994 8.88509 12.982 8.97153 12.9821H15.0291C15.1156 12.982 15.2011 12.9994 15.2807 13.0333C15.3602 13.0672 15.432 13.1169 15.4918 13.1793C15.5516 13.2417 15.5982 13.3156 15.6286 13.3964C15.6591 13.4773 15.6729 13.5636 15.6691 13.6499C15.6252 14.5948 15.2199 15.4868 14.537 16.1414C13.8542 16.796 12.9459 17.1633 12 17.1674ZM9.73857 14.2621C10.0653 15.1978 10.9645 15.8829 11.9898 15.8874H12C13.032 15.8874 13.9354 15.2029 14.2621 14.2621H9.73857Z" fill="#202020"/>
<path d="M17.0319 20.4557H6.96795C6.06016 20.4547 5.18984 20.0936 4.54793 19.4517C3.90603 18.8098 3.54496 17.9395 3.54395 17.0317V6.968C3.54496 6.06021 3.90603 5.18989 4.54793 4.54799C5.18984 3.90608 6.06016 3.54502 6.96795 3.544H17.0319C17.9397 3.54502 18.8101 3.90608 19.452 4.54799C20.0939 5.18989 20.4549 6.06021 20.4559 6.968V17.032C20.4548 17.9397 20.0937 18.81 19.4518 19.4518C18.8099 20.0936 17.9397 20.4547 17.0319 20.4557ZM6.96795 4.82432C6.39948 4.82483 5.85444 5.05088 5.45247 5.45284C5.0505 5.85481 4.82445 6.39985 4.82395 6.96832V17.0323C4.82445 17.6008 5.0505 18.1458 5.45247 18.5478C5.85444 18.9498 6.39948 19.1758 6.96795 19.1763H17.0319C17.6004 19.1758 18.1455 18.9498 18.5474 18.5478C18.9494 18.1458 19.1754 17.6008 19.1759 17.0323V6.968C19.1754 6.39953 18.9494 5.85449 18.5474 5.45252C18.1455 5.05056 17.6004 4.82451 17.0319 4.824L6.96795 4.82432Z" fill="#202020"/>
</svg>
