<svg width="24" height="24" viewBox="0 0 24 24" fill="none" xmlns="http://www.w3.org/2000/svg">
<path d="M6.0048 19.4979H2.9328C2.76306 19.4979 2.60028 19.4305 2.48025 19.3105C2.36023 19.1905 2.2928 19.0277 2.2928 18.8579V17.1939C2.2928 17.0242 2.36023 16.8614 2.48025 16.7414C2.60028 16.6214 2.76306 16.5539 2.9328 16.5539C3.10254 16.5539 3.26533 16.6214 3.38535 16.7414C3.50537 16.8614 3.5728 17.0242 3.5728 17.1939V18.2179H6.0048C6.17454 18.2179 6.33733 18.2854 6.45735 18.4054C6.57737 18.5254 6.6448 18.6882 6.6448 18.8579C6.6448 19.0277 6.57737 19.1905 6.45735 19.3105C6.33733 19.4305 6.17454 19.4979 6.0048 19.4979ZM7.84512 17.9229C7.67538 17.9229 7.5126 17.8555 7.39257 17.7355C7.27255 17.6154 7.20512 17.4526 7.20512 17.2829V15.8039H3.87008C3.70034 15.8039 3.53756 15.7364 3.41753 15.6164C3.29751 15.4964 3.23008 15.3336 3.23008 15.1639C3.23008 14.9941 3.29751 14.8313 3.41753 14.7113C3.53756 14.5913 3.70034 14.5239 3.87008 14.5239H7.84512C8.01486 14.5239 8.17765 14.5913 8.29767 14.7113C8.41769 14.8313 8.48512 14.9941 8.48512 15.1639V17.2829C8.48512 17.4526 8.41769 17.6154 8.29767 17.7355C8.17765 17.8555 8.01486 17.9229 7.84512 17.9229Z" fill="#202020"/>
<path d="M4.09408 16.8854C3.92739 16.8856 3.76727 16.8204 3.648 16.704L2.53952 15.6304C2.42349 15.518 2.35425 15.3659 2.34571 15.2046C2.33716 15.0432 2.38993 14.8847 2.49344 14.7606L3.46656 13.5939C3.51918 13.5257 3.58503 13.4688 3.66016 13.4266C3.73529 13.3845 3.81817 13.3579 3.90382 13.3485C3.98946 13.3392 4.07612 13.3472 4.15858 13.3721C4.24105 13.3971 4.31764 13.4384 4.38375 13.4937C4.44986 13.5489 4.50414 13.6169 4.54332 13.6937C4.58251 13.7704 4.6058 13.8542 4.6118 13.9402C4.6178 14.0261 4.60638 14.1124 4.57824 14.1938C4.55009 14.2753 4.5058 14.3502 4.448 14.4141L3.85536 15.1245L4.53824 15.7859C4.62973 15.8746 4.69266 15.9886 4.71898 16.1133C4.74529 16.2379 4.73379 16.3676 4.68595 16.4857C4.6381 16.6038 4.55609 16.705 4.45042 16.7762C4.34475 16.8474 4.22023 16.8854 4.0928 16.8854H4.09408ZM6.00384 20.6185C5.8822 20.6185 5.7631 20.5838 5.66048 20.5185C5.55786 20.4531 5.47599 20.3599 5.42444 20.2498C5.37289 20.1396 5.35381 20.017 5.36943 19.8964C5.38506 19.7757 5.43473 19.662 5.51264 19.5686L6.10528 18.8582L5.42272 18.1968C5.36167 18.1385 5.31277 18.0687 5.27882 17.9914C5.24487 17.9141 5.22655 17.8308 5.22491 17.7464C5.22327 17.662 5.23835 17.5781 5.26927 17.4996C5.3002 17.421 5.34636 17.3493 5.4051 17.2887C5.46384 17.2281 5.53399 17.1796 5.61152 17.1462C5.68905 17.1128 5.77243 17.0951 5.85684 17.094C5.94126 17.093 6.02505 17.1087 6.10338 17.1401C6.18172 17.1716 6.25306 17.2183 6.31328 17.2774L7.424 18.3523C7.54003 18.4647 7.60927 18.6168 7.61782 18.7781C7.62636 18.9395 7.57359 19.098 7.47008 19.2221L6.496 20.3885C6.43598 20.4607 6.36074 20.5188 6.27566 20.5586C6.19058 20.5983 6.09776 20.6188 6.00384 20.6185ZM17.167 18.368H10.2973C10.1275 18.368 9.96476 18.3006 9.84473 18.1805C9.72471 18.0605 9.65728 17.8977 9.65728 17.728C9.65728 17.5582 9.72471 17.3955 9.84473 17.2754C9.96476 17.1554 10.1275 17.088 10.2973 17.088H17.167C18.016 17.088 18.6323 16.4448 18.6323 15.5584V15.1424C18.6323 14.9726 18.6998 14.8099 18.8198 14.6898C18.9398 14.5698 19.1026 14.5024 19.2723 14.5024C19.4421 14.5024 19.6048 14.5698 19.7249 14.6898C19.8449 14.8099 19.9123 14.9726 19.9123 15.1424V15.5584C19.9123 17.1593 18.7322 18.368 17.167 18.368ZM4.72768 13.0419C4.55794 13.0419 4.39516 12.9745 4.27513 12.8545C4.15511 12.7344 4.08768 12.5716 4.08768 12.4019V8.8355C4.08853 8.10764 4.37802 7.40983 4.89267 6.89512C5.40732 6.38041 6.1051 6.09084 6.83296 6.0899H17.167C17.8949 6.09084 18.5927 6.38041 19.1073 6.89512C19.622 7.40983 19.9115 8.10764 19.9123 8.8355V9.8947C19.9123 10.0644 19.8449 10.2272 19.7249 10.3473C19.6048 10.4673 19.4421 10.5347 19.2723 10.5347C19.1026 10.5347 18.9398 10.4673 18.8198 10.3473C18.6998 10.2272 18.6323 10.0644 18.6323 9.8947V8.8355C18.6319 8.44699 18.4774 8.0745 18.2027 7.79975C17.928 7.525 17.5556 7.37041 17.167 7.3699H6.83296C6.44445 7.37041 6.07199 7.525 5.7973 7.79975C5.52261 8.0745 5.3681 8.44699 5.36768 8.8355V12.4019C5.36768 12.5716 5.30025 12.7344 5.18023 12.8545C5.06021 12.9745 4.89742 13.0419 4.72768 13.0419Z" fill="#202020"/>
<path d="M19.7258 14.3747H17.657C17.2706 14.3743 16.9002 14.2206 16.627 13.9474C16.3538 13.6742 16.2001 13.3038 16.1997 12.9174V12.1494C16.2001 11.7631 16.3538 11.3926 16.627 11.1194C16.9002 10.8462 17.2706 10.6926 17.657 10.6921H19.7258C20.1121 10.6923 20.4825 10.8457 20.7559 11.1186C21.0293 11.3916 21.1832 11.7618 21.184 12.1481V12.9161C21.1839 13.3029 21.0303 13.6738 20.7568 13.9473C20.4834 14.2208 20.1125 14.3745 19.7258 14.3747ZM17.657 11.9709C17.61 11.971 17.5649 11.9897 17.5317 12.0229C17.4985 12.0561 17.4798 12.1012 17.4797 12.1481V12.9161C17.4798 12.9631 17.4985 13.0082 17.5317 13.0414C17.5649 13.0746 17.61 13.0933 17.657 13.0934H19.7258C19.7728 13.0933 19.8178 13.0746 19.851 13.0414C19.8843 13.0082 19.903 12.9631 19.903 12.9161V12.1481C19.903 12.1011 19.8844 12.056 19.8511 12.0228C19.8179 11.9895 19.7728 11.9709 19.7258 11.9709H17.657ZM6.74368 7.37023C6.59243 7.37046 6.44597 7.31712 6.3303 7.21966C6.21463 7.12219 6.13722 6.98691 6.11179 6.83781C6.08637 6.68871 6.11457 6.53541 6.19141 6.40513C6.26824 6.27484 6.38874 6.17597 6.53152 6.12607L13.2659 3.75807C13.5307 3.66505 13.814 3.63686 14.0919 3.67584C14.3699 3.71481 14.6345 3.81984 14.8635 3.9821C15.0925 4.14437 15.2793 4.35915 15.4082 4.60846C15.5371 4.85777 15.6044 5.13435 15.6045 5.41503V6.72863C15.6045 6.89836 15.5371 7.06115 15.417 7.18117C15.297 7.3012 15.1342 7.36863 14.9645 7.36863C14.7947 7.36863 14.632 7.3012 14.5119 7.18117C14.3919 7.06115 14.3245 6.89836 14.3245 6.72863V5.41631C14.3242 5.34031 14.3058 5.26548 14.2707 5.19805C14.2357 5.13063 14.185 5.07257 14.1229 5.02873C14.0608 4.98488 13.9892 4.95652 13.9139 4.94601C13.8386 4.9355 13.762 4.94314 13.6902 4.96831L6.95584 7.33631C6.88754 7.35949 6.81581 7.37096 6.74368 7.37023ZM16.6986 9.63199H13.7846C13.6149 9.63199 13.4521 9.56456 13.3321 9.44453C13.2121 9.32451 13.1446 9.16172 13.1446 8.99199C13.1446 8.82225 13.2121 8.65946 13.3321 8.53944C13.4521 8.41941 13.6149 8.35199 13.7846 8.35199H16.6986C16.8683 8.35199 17.0311 8.41941 17.1511 8.53944C17.2711 8.65946 17.3386 8.82225 17.3386 8.99199C17.3386 9.16172 17.2711 9.32451 17.1511 9.44453C17.0311 9.56456 16.8683 9.63199 16.6986 9.63199Z" fill="#202020"/>
</svg>
