<svg width="24" height="24" viewBox="0 0 24 24" fill="none" xmlns="http://www.w3.org/2000/svg">
<path d="M6.48384 21.0957C5.81593 21.0957 5.163 20.8977 4.60762 20.5267C4.05224 20.1557 3.61935 19.6283 3.36371 19.0112C3.10807 18.3942 3.04115 17.7152 3.17141 17.0601C3.30167 16.405 3.62327 15.8032 4.09554 15.3309C4.5678 14.8586 5.16952 14.537 5.82459 14.4066C6.47967 14.2763 7.15868 14.3432 7.77575 14.5988C8.39283 14.8543 8.92026 15.2872 9.29134 15.8425C9.66242 16.3979 9.86048 17.0508 9.86048 17.7187C9.85955 18.614 9.50351 19.4723 8.87048 20.1054C8.23745 20.7385 7.37913 21.0946 6.48384 21.0957ZM6.48384 15.6237C6.06907 15.6236 5.6636 15.7465 5.31871 15.9769C4.97382 16.2073 4.705 16.5348 4.54624 16.918C4.38749 17.3012 4.34594 17.7228 4.42684 18.1296C4.50774 18.5364 4.70746 18.9101 5.00075 19.2034C5.29403 19.4967 5.6677 19.6964 6.0745 19.7773C6.4813 19.8582 6.90296 19.8166 7.28614 19.6579C7.66932 19.4991 7.99682 19.2303 8.22721 18.8854C8.45761 18.5405 8.58054 18.1351 8.58048 17.7203C8.58023 17.1642 8.3593 16.6309 7.96621 16.2375C7.57311 15.8441 7.03997 15.6227 6.48384 15.6221V15.6237Z" fill="#202020"/>
<path d="M6.47488 19.2374H6.47136C6.38731 19.2369 6.30418 19.2199 6.22671 19.1874C6.14924 19.1548 6.07894 19.1072 6.01984 19.0475C5.96074 18.9877 5.91398 18.9169 5.88225 18.8391C5.85051 18.7613 5.83442 18.6779 5.83488 18.5939L5.84384 16.8457C5.84469 16.676 5.91293 16.5135 6.03355 16.3941C6.15418 16.2747 6.3173 16.2081 6.48704 16.2089C6.65678 16.2098 6.81923 16.278 6.93865 16.3986C7.05807 16.5193 7.12469 16.6824 7.12384 16.8521L7.11488 18.6006C7.11403 18.7698 7.04623 18.9318 6.9263 19.0511C6.80637 19.1704 6.64406 19.2374 6.47488 19.2374Z" fill="#202020"/>
<path d="M7.36672 18.3545H7.36352L5.61504 18.3456C5.4453 18.3452 5.28268 18.2773 5.16296 18.157C5.04324 18.0367 4.97622 17.8737 4.97664 17.704C4.97707 17.5342 5.0449 17.3716 5.16522 17.2519C5.28555 17.1322 5.4485 17.0652 5.61824 17.0656H5.62176L7.36992 17.0745C7.45397 17.0748 7.53715 17.0915 7.61472 17.1239C7.69228 17.1562 7.76272 17.2036 7.822 17.2631C7.88128 17.3227 7.92825 17.3934 7.96022 17.4711C7.99218 17.5488 8.00853 17.6321 8.00832 17.7161C8.00811 17.8002 7.99135 17.8834 7.95899 17.9609C7.92663 18.0385 7.87932 18.1089 7.81974 18.1682C7.76016 18.2275 7.68949 18.2745 7.61176 18.3064C7.53403 18.3384 7.45077 18.3548 7.36672 18.3545ZM17.167 18.368H11.1293C10.9595 18.368 10.7968 18.3006 10.6767 18.1805C10.5567 18.0605 10.4893 17.8977 10.4893 17.728C10.4893 17.5582 10.5567 17.3955 10.6767 17.2754C10.7968 17.1554 10.9595 17.088 11.1293 17.088H17.167C18.016 17.088 18.6323 16.4448 18.6323 15.5584V15.1424C18.6323 14.9726 18.6997 14.8099 18.8198 14.6898C18.9398 14.5698 19.1026 14.5024 19.2723 14.5024C19.4421 14.5024 19.6048 14.5698 19.7249 14.6898C19.8449 14.8099 19.9123 14.9726 19.9123 15.1424V15.5584C19.9123 17.1593 18.7322 18.368 17.167 18.368ZM4.72768 13.9379C4.55794 13.9379 4.39516 13.8705 4.27513 13.7505C4.15511 13.6304 4.08768 13.4676 4.08768 13.2979V8.8355C4.08853 8.10764 4.37802 7.40983 4.89267 6.89512C5.40732 6.38041 6.1051 6.09084 6.83296 6.0899H17.167C17.8949 6.09084 18.5927 6.38041 19.1073 6.89512C19.622 7.40983 19.9115 8.10764 19.9123 8.8355V9.8947C19.9123 10.0644 19.8449 10.2272 19.7249 10.3473C19.6048 10.4673 19.4421 10.5347 19.2723 10.5347C19.1026 10.5347 18.9398 10.4673 18.8198 10.3473C18.6997 10.2272 18.6323 10.0644 18.6323 9.8947V8.8355C18.6319 8.44699 18.4774 8.0745 18.2027 7.79975C17.928 7.525 17.5556 7.37041 17.167 7.3699H6.83296C6.44444 7.37041 6.07199 7.525 5.7973 7.79975C5.52261 8.0745 5.3681 8.44699 5.36768 8.8355V13.2979C5.36768 13.4676 5.30025 13.6304 5.18023 13.7505C5.06021 13.8705 4.89742 13.9379 4.72768 13.9379Z" fill="#202020"/>
<path d="M19.7258 14.3747H17.657C17.2706 14.3743 16.9002 14.2206 16.6271 13.9474C16.3539 13.6742 16.2003 13.3038 16.2 12.9174V12.1494C16.2003 11.7631 16.3539 11.3927 16.6271 11.1195C16.9002 10.8463 17.2706 10.6926 17.657 10.6921H19.7258C20.1121 10.6923 20.4825 10.8457 20.7559 11.1186C21.0293 11.3916 21.1832 11.7618 21.184 12.1481V12.9161C21.1839 13.3029 21.0303 13.6738 20.7568 13.9473C20.4834 14.2208 20.1125 14.3745 19.7258 14.3747ZM17.657 11.9709C17.61 11.971 17.565 11.9897 17.5318 12.0229C17.4986 12.0561 17.48 12.1012 17.48 12.1481V12.9161C17.48 12.9631 17.4986 13.0082 17.5318 13.0414C17.565 13.0746 17.61 13.0933 17.657 13.0934H19.7258C19.7727 13.0933 19.8178 13.0746 19.851 13.0414C19.8842 13.0082 19.903 12.9631 19.903 12.9161V12.1481C19.903 12.1011 19.8844 12.056 19.8511 12.0228C19.8179 11.9895 19.7728 11.9709 19.7258 11.9709H17.657ZM6.74368 7.37023C6.59242 7.37046 6.44597 7.31712 6.3303 7.21966C6.21463 7.12219 6.13721 6.98691 6.11179 6.83781C6.08636 6.68871 6.11457 6.53541 6.1914 6.40513C6.26824 6.27484 6.38873 6.17597 6.53152 6.12607L13.2659 3.75807C13.5307 3.66505 13.814 3.63686 14.0919 3.67584C14.3699 3.71481 14.6345 3.81984 14.8635 3.9821C15.0925 4.14437 15.2793 4.35915 15.4082 4.60846C15.5371 4.85777 15.6044 5.13435 15.6045 5.41503V6.72863C15.6045 6.89836 15.537 7.06115 15.417 7.18117C15.297 7.3012 15.1342 7.36863 14.9645 7.36863C14.7947 7.36863 14.632 7.3012 14.5119 7.18117C14.3919 7.06115 14.3245 6.89836 14.3245 6.72863V5.41631C14.3242 5.34031 14.3058 5.26548 14.2707 5.19805C14.2357 5.13063 14.185 5.07257 14.1229 5.02873C14.0608 4.98488 13.9892 4.95652 13.9139 4.94601C13.8386 4.9355 13.7619 4.94314 13.6902 4.96831L6.95584 7.33631C6.88754 7.35949 6.8158 7.37096 6.74368 7.37023ZM16.6986 9.63199H13.7846C13.6149 9.63199 13.4521 9.56456 13.3321 9.44453C13.2121 9.32451 13.1446 9.16172 13.1446 8.99199C13.1446 8.82225 13.2121 8.65946 13.3321 8.53944C13.4521 8.41941 13.6149 8.35199 13.7846 8.35199H16.6986C16.8683 8.35199 17.0311 8.41941 17.1511 8.53944C17.2711 8.65946 17.3386 8.82225 17.3386 8.99199C17.3386 9.16172 17.2711 9.32451 17.1511 9.44453C17.0311 9.56456 16.8683 9.63199 16.6986 9.63199Z" fill="#202020"/>
</svg>
