<svg width="24" height="24" viewBox="0 0 24 24" fill="none" xmlns="http://www.w3.org/2000/svg">
<path d="M4.72768 21.0957C4.05977 21.0957 3.40684 20.8977 2.85146 20.5267C2.29608 20.1557 1.8632 19.6283 1.60755 19.0112C1.35191 18.3942 1.28499 17.7152 1.41525 17.0601C1.54552 16.405 1.86712 15.8032 2.33938 15.3309C2.81164 14.8586 3.41336 14.537 4.06843 14.4066C4.72351 14.2763 5.40252 14.3432 6.0196 14.5988C6.63667 14.8543 7.1641 15.2872 7.53518 15.8425C7.90626 16.3979 8.10432 17.0508 8.10432 17.7187C8.10339 18.614 7.74735 19.4723 7.11432 20.1054C6.48129 20.7385 5.62297 21.0946 4.72768 21.0957ZM4.72768 15.6237C4.31292 15.6236 3.90745 15.7465 3.56256 15.9769C3.21766 16.2073 2.94884 16.5348 2.79009 16.918C2.63133 17.3012 2.58978 17.7228 2.67068 18.1296C2.75158 18.5364 2.95131 18.9101 3.24459 19.2034C3.53787 19.4967 3.91155 19.6964 4.31835 19.7773C4.72515 19.8582 5.1468 19.8166 5.52998 19.6579C5.91317 19.4991 6.24066 19.2303 6.47106 18.8854C6.70145 18.5405 6.82439 18.1351 6.82432 17.7203C6.82407 17.1642 6.60315 16.6309 6.21005 16.2375C5.81695 15.8441 5.28382 15.6227 4.72768 15.6221V15.6237Z" fill="#202020"/>
<path d="M5.344 18.9863C5.25941 18.9864 5.17565 18.9696 5.09759 18.937C5.01952 18.9045 4.94872 18.8567 4.88928 18.7965L3.6576 17.5539C3.53819 17.4333 3.4716 17.2702 3.47247 17.1004C3.47334 16.9307 3.5416 16.7682 3.66224 16.6488C3.78288 16.5294 3.94602 16.4628 4.11576 16.4637C4.28551 16.4646 4.44795 16.5328 4.56736 16.6535L5.79744 17.896C5.88621 17.9857 5.94649 18.0996 5.97071 18.2235C5.99492 18.3473 5.98198 18.4755 5.93353 18.592C5.88507 18.7086 5.80325 18.8081 5.69836 18.8783C5.59347 18.9484 5.47019 18.986 5.344 18.9863Z" fill="#202020"/>
<path d="M4.10624 18.9613C3.97941 18.9612 3.85545 18.9235 3.75009 18.8529C3.64473 18.7823 3.56272 18.682 3.51448 18.5647C3.46623 18.4474 3.45393 18.3184 3.47913 18.1941C3.50433 18.0698 3.56589 17.9558 3.656 17.8665L4.89856 16.6365C4.9583 16.5773 5.0291 16.5306 5.10691 16.4988C5.18473 16.467 5.26804 16.4509 5.35208 16.4513C5.43613 16.4518 5.51927 16.4687 5.59676 16.5013C5.67424 16.5339 5.74456 16.5814 5.80368 16.6411C5.86281 16.7008 5.90959 16.7716 5.94136 16.8495C5.97312 16.9273 5.98925 17.0106 5.98882 17.0946C5.98839 17.1787 5.97141 17.2618 5.93885 17.3393C5.90628 17.4168 5.85878 17.4871 5.79904 17.5462L4.55648 18.7763C4.43662 18.8949 4.27483 18.9613 4.10624 18.9613ZM17.167 18.368H11.1293C10.9595 18.368 10.7968 18.3006 10.6767 18.1805C10.5567 18.0605 10.4893 17.8977 10.4893 17.728C10.4893 17.5582 10.5567 17.3955 10.6767 17.2754C10.7968 17.1554 10.9595 17.088 11.1293 17.088H17.167C18.016 17.088 18.6323 16.4448 18.6323 15.5584V15.1424C18.6323 14.9726 18.6998 14.8099 18.8198 14.6898C18.9398 14.5698 19.1026 14.5024 19.2723 14.5024C19.4421 14.5024 19.6049 14.5698 19.7249 14.6898C19.8449 14.8099 19.9123 14.9726 19.9123 15.1424V15.5584C19.9123 17.1593 18.7322 18.368 17.167 18.368ZM4.72768 13.9379C4.55795 13.9379 4.39516 13.8705 4.27514 13.7505C4.15511 13.6304 4.08768 13.4676 4.08768 13.2979V8.8355C4.08853 8.10764 4.37803 7.40983 4.89267 6.89512C5.40732 6.38041 6.1051 6.09084 6.83296 6.0899H17.167C17.8949 6.09084 18.5927 6.38041 19.1073 6.89512C19.622 7.40983 19.9115 8.10764 19.9123 8.8355V9.8947C19.9123 10.0644 19.8449 10.2272 19.7249 10.3473C19.6049 10.4673 19.4421 10.5347 19.2723 10.5347C19.1026 10.5347 18.9398 10.4673 18.8198 10.3473C18.6998 10.2272 18.6323 10.0644 18.6323 9.8947V8.8355C18.6319 8.44699 18.4774 8.0745 18.2027 7.79975C17.928 7.525 17.5556 7.37041 17.167 7.3699H6.83296C6.44445 7.37041 6.072 7.525 5.7973 7.79975C5.52261 8.0745 5.36811 8.44699 5.36768 8.8355V13.2979C5.36768 13.4676 5.30026 13.6304 5.18023 13.7505C5.06021 13.8705 4.89742 13.9379 4.72768 13.9379Z" fill="#202020"/>
<path d="M19.7258 14.3747H17.657C17.2706 14.3743 16.9002 14.2206 16.627 13.9474C16.3538 13.6742 16.2001 13.3038 16.1997 12.9174V12.1494C16.2001 11.7631 16.3538 11.3926 16.627 11.1194C16.9002 10.8462 17.2706 10.6926 17.657 10.6921H19.7258C20.1121 10.6923 20.4825 10.8457 20.7559 11.1186C21.0293 11.3916 21.1832 11.7618 21.184 12.1481V12.9161C21.1839 13.3029 21.0303 13.6738 20.7568 13.9473C20.4834 14.2208 20.1125 14.3745 19.7258 14.3747ZM17.657 11.9709C17.61 11.971 17.5649 11.9897 17.5317 12.0229C17.4985 12.0561 17.4798 12.1012 17.4797 12.1481V12.9161C17.4798 12.9631 17.4985 13.0082 17.5317 13.0414C17.5649 13.0746 17.61 13.0933 17.657 13.0934H19.7258C19.7727 13.0933 19.8178 13.0746 19.851 13.0414C19.8842 13.0082 19.9029 12.9631 19.903 12.9161V12.1481C19.903 12.1011 19.8844 12.056 19.8511 12.0228C19.8179 11.9895 19.7728 11.9709 19.7258 11.9709H17.657ZM6.74367 7.37023C6.59242 7.37046 6.44597 7.31712 6.3303 7.21966C6.21462 7.12219 6.13721 6.98691 6.11178 6.83781C6.08636 6.68871 6.11456 6.53541 6.1914 6.40513C6.26823 6.27484 6.38873 6.17597 6.53151 6.12607L13.2659 3.75807C13.5307 3.66505 13.814 3.63686 14.0919 3.67584C14.3699 3.71481 14.6345 3.81984 14.8635 3.9821C15.0925 4.14437 15.2793 4.35915 15.4082 4.60846C15.5371 4.85777 15.6044 5.13435 15.6045 5.41503V6.72863C15.6045 6.89836 15.537 7.06115 15.417 7.18117C15.297 7.3012 15.1342 7.36863 14.9645 7.36863C14.7947 7.36863 14.6319 7.3012 14.5119 7.18117C14.3919 7.06115 14.3245 6.89836 14.3245 6.72863V5.41631C14.3242 5.34031 14.3058 5.26548 14.2707 5.19805C14.2357 5.13063 14.185 5.07257 14.1229 5.02873C14.0608 4.98488 13.9892 4.95652 13.9139 4.94601C13.8386 4.9355 13.7619 4.94314 13.6902 4.96831L6.95583 7.33631C6.88753 7.35949 6.8158 7.37096 6.74367 7.37023ZM16.6986 9.63199H13.7846C13.6149 9.63199 13.4521 9.56456 13.3321 9.44453C13.2121 9.32451 13.1446 9.16172 13.1446 8.99199C13.1446 8.82225 13.2121 8.65946 13.3321 8.53944C13.4521 8.41941 13.6149 8.35199 13.7846 8.35199H16.6986C16.8683 8.35199 17.0311 8.41941 17.1511 8.53944C17.2711 8.65946 17.3386 8.82225 17.3386 8.99199C17.3386 9.16172 17.2711 9.32451 17.1511 9.44453C17.0311 9.56456 16.8683 9.63199 16.6986 9.63199Z" fill="#202020"/>
</svg>
