<svg width="24" height="24" viewBox="0 0 24 24" fill="none" xmlns="http://www.w3.org/2000/svg">
<path d="M15.8819 20.4557H8.11804C7.28063 20.4544 6.47791 20.1211 5.88589 19.5289C5.29388 18.9366 4.96089 18.1338 4.95996 17.2963V6.70434C4.96089 5.86677 5.29401 5.06376 5.88623 4.47148C6.47846 3.8792 7.28143 3.546 8.119 3.54498H15.8819C16.7192 3.54625 17.5218 3.87947 18.1138 4.47159C18.7058 5.06371 19.0389 5.86641 19.04 6.7037V17.2957C19.0392 18.1332 18.7063 18.9362 18.1143 19.5286C17.5222 20.121 16.7194 20.4544 15.8819 20.4557ZM8.11804 4.82434C7.61998 4.82519 7.14258 5.02351 6.79052 5.37581C6.43846 5.72811 6.24047 6.20564 6.23996 6.7037V17.2957C6.24047 17.7939 6.43859 18.2716 6.79086 18.6239C7.14313 18.9763 7.62077 19.1745 8.119 19.1751H15.8819C16.3798 19.1742 16.8571 18.976 17.2092 18.6238C17.5612 18.2717 17.7593 17.7943 17.76 17.2963V6.70434C17.7595 6.20612 17.5613 5.72844 17.2091 5.37611C16.8568 5.02378 16.3791 4.82558 15.8809 4.82498L8.11804 4.82434Z" fill="#202020"/>
<path d="M15.4051 16.9062H14.0649C13.8952 16.9062 13.7324 16.8388 13.6124 16.7188C13.4923 16.5988 13.4249 16.436 13.4249 16.2662C13.4249 16.0965 13.4923 15.9337 13.6124 15.8137C13.7324 15.6937 13.8952 15.6262 14.0649 15.6262H15.4051C15.5748 15.6262 15.7376 15.6937 15.8576 15.8137C15.9777 15.9337 16.0451 16.0965 16.0451 16.2662C16.0451 16.436 15.9777 16.5988 15.8576 16.7188C15.7376 16.8388 15.5748 16.9062 15.4051 16.9062ZM9.82588 16.9062H8.59484C8.4251 16.9062 8.26232 16.8388 8.14229 16.7188C8.02227 16.5988 7.95484 16.436 7.95484 16.2662C7.95484 16.0965 8.02227 15.9337 8.14229 15.8137C8.26232 15.6937 8.4251 15.6262 8.59484 15.6262H9.82588C9.99562 15.6262 10.1584 15.6937 10.2784 15.8137C10.3985 15.9337 10.4659 16.0965 10.4659 16.2662C10.4659 16.436 10.3985 16.5988 10.2784 16.7188C10.1584 16.8388 9.99562 16.9062 9.82588 16.9062ZM9.82588 7.41727H8.59484C8.4251 7.41727 8.26232 7.34984 8.14229 7.22982C8.02227 7.10979 7.95484 6.94701 7.95484 6.77727C7.95484 6.60753 8.02227 6.44474 8.14229 6.32472C8.26232 6.2047 8.4251 6.13727 8.59484 6.13727H9.82588C9.99562 6.13727 10.1584 6.2047 10.2784 6.32472C10.3985 6.44474 10.4659 6.60753 10.4659 6.77727C10.4659 6.94701 10.3985 7.10979 10.2784 7.22982C10.1584 7.34984 9.99562 7.41727 9.82588 7.41727ZM9.82588 9.20191H8.59484C8.4251 9.20191 8.26232 9.13448 8.14229 9.01446C8.02227 8.89443 7.95484 8.73165 7.95484 8.56191C7.95484 8.39217 8.02227 8.22938 8.14229 8.10936C8.26232 7.98934 8.4251 7.92191 8.59484 7.92191H9.82588C9.99562 7.92191 10.1584 7.98934 10.2784 8.10936C10.3985 8.22938 10.4659 8.39217 10.4659 8.56191C10.4659 8.73165 10.3985 8.89443 10.2784 9.01446C10.1584 9.13448 9.99562 9.20191 9.82588 9.20191ZM9.82588 10.9862H8.59484C8.4251 10.9862 8.26232 10.9188 8.14229 10.7988C8.02227 10.6788 7.95484 10.516 7.95484 10.3462C7.95484 10.1765 8.02227 10.0137 8.14229 9.89368C8.26232 9.77366 8.4251 9.70623 8.59484 9.70623H9.82588C9.99562 9.70623 10.1584 9.77366 10.2784 9.89368C10.3985 10.0137 10.4659 10.1765 10.4659 10.3462C10.4659 10.516 10.3985 10.6788 10.2784 10.7988C10.1584 10.9188 9.99562 10.9862 9.82588 10.9862ZM18.4 13.4259H5.59996C5.43022 13.4259 5.26744 13.3585 5.14741 13.2385C5.02739 13.1184 4.95996 12.9556 4.95996 12.7859C4.95996 12.6162 5.02739 12.4534 5.14741 12.3334C5.26744 12.2133 5.43022 12.1459 5.59996 12.1459H18.4C18.5697 12.1459 18.7325 12.2133 18.8525 12.3334C18.9725 12.4534 19.04 12.6162 19.04 12.7859C19.04 12.9556 18.9725 13.1184 18.8525 13.2385C18.7325 13.3585 18.5697 13.4259 18.4 13.4259Z" fill="#202020"/>
</svg>
