<svg width="24" height="24" viewBox="0 0 24 24" fill="none" xmlns="http://www.w3.org/2000/svg">
<path d="M18.5416 20.4557H5.45811C4.95069 20.4551 4.46422 20.2533 4.10542 19.8945C3.74662 19.5357 3.54478 19.0492 3.54419 18.5418V14.3562C3.54478 13.8488 3.74662 13.3623 4.10542 13.0035C4.46422 12.6447 4.95069 12.4429 5.45811 12.4423H18.5416C19.049 12.4429 19.5355 12.6447 19.8943 13.0035C20.2531 13.3623 20.455 13.8488 20.4555 14.3562V18.5418C20.455 19.0492 20.2531 19.5357 19.8943 19.8945C19.5355 20.2533 19.049 20.4551 18.5416 20.4557ZM5.45811 13.7223C5.29006 13.7225 5.12897 13.7894 5.01014 13.9082C4.89131 14.0271 4.82444 14.1882 4.82419 14.3562V18.5418C4.82444 18.7098 4.89131 18.8709 5.01014 18.9898C5.12897 19.1086 5.29006 19.1755 5.45811 19.1757H18.5416C18.7097 19.1755 18.8708 19.1086 18.9896 18.9898C19.1084 18.8709 19.1753 18.7098 19.1755 18.5418V14.3562C19.1753 14.1882 19.1084 14.0271 18.9896 13.9082C18.8708 13.7894 18.7097 13.7225 18.5416 13.7223H5.45811ZM11.8911 11.52H5.41779C4.92109 11.5195 4.44488 11.322 4.09363 10.9708C3.74238 10.6196 3.54478 10.1435 3.54419 9.64676V5.41796C3.54478 4.92126 3.74238 4.44508 4.09363 4.09389C4.44488 3.7427 4.92109 3.54519 5.41779 3.54468H11.8911C12.3878 3.54519 12.864 3.7427 13.2152 4.09389C13.5665 4.44508 13.7641 4.92126 13.7647 5.41796V9.64676C13.7641 10.1435 13.5665 10.6196 13.2152 10.9708C12.864 11.322 12.3878 11.5195 11.8911 11.52ZM5.41779 4.82468C5.26044 4.82476 5.10955 4.88729 4.99826 4.99852C4.88696 5.10975 4.82436 5.26061 4.82419 5.41796V9.64676C4.82444 9.80408 4.88707 9.95489 4.99835 10.0661C5.10963 10.1773 5.26046 10.2399 5.41779 10.24H11.8911C12.0484 10.2399 12.1992 10.1773 12.3105 10.0661C12.4218 9.95489 12.4844 9.80408 12.4847 9.64676V5.41796C12.4845 5.26061 12.4219 5.10975 12.3106 4.99852C12.1993 4.88729 12.0484 4.82476 11.8911 4.82468H5.41779Z" fill="#202020"/>
</svg>
