<svg width="24" height="24" viewBox="0 0 24 24" fill="none" xmlns="http://www.w3.org/2000/svg">
<path d="M11.7863 20.5488H11.5021C11.027 20.5481 10.5716 20.3591 10.2357 20.0232C9.89979 19.6873 9.71077 19.2319 9.7101 18.7568V15.5373C9.70974 15.237 9.64757 14.9399 9.52745 14.6646C9.40732 14.3894 9.23181 14.1418 9.01186 13.9373L5.98978 11.136C5.36475 10.5574 4.97528 9.7684 4.89602 8.92034L4.74786 7.34658C4.71435 6.99104 4.75546 6.63242 4.86856 6.29369C4.98165 5.95496 5.16424 5.64357 5.40462 5.37948C5.64501 5.11539 5.93789 4.90441 6.26453 4.76004C6.59116 4.61568 6.94434 4.54112 7.30146 4.54114H16.6973C17.0587 4.54115 17.416 4.61753 17.7458 4.76527C18.0756 4.913 18.3705 5.12877 18.6111 5.39841C18.8517 5.66806 19.0327 5.98551 19.142 6.32996C19.2514 6.6744 19.2868 7.03807 19.2458 7.39714L19.0349 9.24226C18.9554 9.94994 18.6584 10.6156 18.185 11.1475L16.6381 12.8909C16.1796 13.4075 15.8099 13.9965 15.544 14.6339C15.5127 14.7129 15.4659 14.7849 15.4064 14.8456C15.347 14.9064 15.276 14.9546 15.1977 14.9876C15.1194 15.0207 15.0353 15.0377 14.9503 15.0379C14.8653 15.038 14.7811 15.0213 14.7027 14.9885C14.6243 14.9558 14.5531 14.9078 14.4934 14.8473C14.4338 14.7868 14.3867 14.715 14.3551 14.6361C14.3235 14.5572 14.3079 14.4728 14.3092 14.3878C14.3106 14.3029 14.3288 14.219 14.3629 14.1411C14.6828 13.3732 15.1278 12.6636 15.68 12.0413L17.2269 10.2979C17.5253 9.96258 17.7124 9.54303 17.7626 9.09698L17.9735 7.25186C17.994 7.07198 17.9762 6.88979 17.9214 6.71724C17.8666 6.54469 17.776 6.38566 17.6554 6.25058C17.5349 6.1155 17.3872 6.00742 17.2219 5.93341C17.0567 5.8594 16.8777 5.82114 16.6967 5.82114H7.30274C7.12378 5.82106 6.94679 5.85837 6.78308 5.93066C6.61938 6.00294 6.47258 6.10863 6.35208 6.24093C6.23159 6.37324 6.14005 6.52925 6.08334 6.69898C6.02662 6.86871 6.00598 7.04841 6.02274 7.22658L6.17154 8.80002C6.22154 9.33408 6.46672 9.83095 6.86018 10.1955L9.88194 12.9984C10.2307 13.323 10.5091 13.7158 10.6996 14.1526C10.8901 14.5893 10.9888 15.0605 10.9895 15.537V18.7559C10.9895 18.8916 11.0434 19.0219 11.1394 19.1179C11.2354 19.2139 11.3657 19.2679 11.5015 19.2679H11.7856C12.3606 19.269 12.9142 19.0501 13.3328 18.656C13.3933 18.5948 13.4656 18.5464 13.5452 18.5138C13.6248 18.4812 13.7102 18.4649 13.7963 18.466C13.8824 18.4672 13.9673 18.4856 14.0461 18.5203C14.1248 18.5551 14.1958 18.6053 14.2547 18.6681C14.3136 18.7308 14.3592 18.8048 14.3888 18.8856C14.4184 18.9664 14.4315 19.0524 14.4271 19.1384C14.4228 19.2243 14.4011 19.3085 14.3635 19.3859C14.3258 19.4633 14.2729 19.5323 14.208 19.5888C13.553 20.2064 12.6865 20.5499 11.7863 20.5488Z" fill="#202020"/>
<path d="M16.049 20.8064C15.3304 20.8064 14.628 20.5934 14.0306 20.1942C13.4332 19.795 12.9675 19.2276 12.6926 18.5638C12.4176 17.8999 12.3456 17.1695 12.4858 16.4647C12.626 15.76 12.972 15.1127 13.4801 14.6046C13.9882 14.0965 14.6355 13.7505 15.3402 13.6103C16.0449 13.4702 16.7754 13.5421 17.4393 13.8171C18.1031 14.092 18.6705 14.5577 19.0697 15.1551C19.4689 15.7526 19.6819 16.455 19.6819 17.1735C19.6808 18.1367 19.2977 19.0601 18.6167 19.7412C17.9356 20.4222 17.0122 20.8053 16.049 20.8064ZM16.049 14.8205C15.5836 14.8205 15.1287 14.9585 14.7417 15.2171C14.3548 15.4756 14.0532 15.8431 13.8751 16.273C13.697 16.703 13.6504 17.1761 13.7412 17.6325C13.832 18.089 14.0561 18.5082 14.3852 18.8373C14.7143 19.1664 15.1335 19.3904 15.5899 19.4812C16.0464 19.572 16.5195 19.5254 16.9494 19.3473C17.3794 19.1693 17.7468 18.8677 18.0054 18.4807C18.2639 18.0938 18.4019 17.6389 18.4019 17.1735C18.4012 16.5497 18.153 15.9516 17.7119 15.5105C17.2708 15.0694 16.6728 14.8213 16.049 14.8205Z" fill="#202020"/>
<path d="M16.7021 18.4345C16.618 18.4347 16.5347 18.4182 16.457 18.386C16.3793 18.3538 16.3087 18.3066 16.2493 18.247L14.944 16.9414C14.824 16.8214 14.7565 16.6586 14.7565 16.4889C14.7564 16.3191 14.8238 16.1563 14.9438 16.0363C15.0639 15.9162 15.2266 15.8488 15.3964 15.8488C15.5661 15.8487 15.7289 15.9161 15.849 16.0361L17.1549 17.3421C17.2444 17.4316 17.3053 17.5456 17.33 17.6697C17.3547 17.7938 17.342 17.9225 17.2936 18.0394C17.2451 18.1564 17.1631 18.2563 17.0579 18.3266C16.9527 18.397 16.829 18.4345 16.7024 18.4345H16.7021Z" fill="#202020"/>
<path d="M15.3962 18.4345C15.2696 18.4344 15.146 18.3968 15.0408 18.3265C14.9356 18.2561 14.8537 18.1562 14.8053 18.0393C14.7569 17.9224 14.7442 17.7937 14.7689 17.6696C14.7936 17.5455 14.8545 17.4315 14.944 17.342L16.2496 16.0361C16.3697 15.9161 16.5325 15.8486 16.7022 15.8486C16.872 15.8486 17.0348 15.9161 17.1549 16.0361C17.2749 16.1562 17.3424 16.319 17.3424 16.4888C17.3424 16.6585 17.2749 16.8214 17.1549 16.9414L15.849 18.247C15.7896 18.3066 15.719 18.3539 15.6413 18.3861C15.5636 18.4183 15.4803 18.4347 15.3962 18.4345Z" fill="#202020"/>
</svg>
