<svg width="24" height="24" viewBox="0 0 24 24" fill="none" xmlns="http://www.w3.org/2000/svg">
<path d="M12.1015 20.5488H11.8173C11.3422 20.5481 10.8868 20.3591 10.5509 20.0232C10.215 19.6873 10.026 19.2319 10.0253 18.7568V15.5373C10.0249 15.2369 9.96277 14.9399 9.84265 14.6646C9.72252 14.3894 9.54702 14.1418 9.32706 13.9373L6.30402 11.136C5.67981 10.5576 5.29084 9.76924 5.21154 8.92192L5.06338 7.34816C5.02987 6.99263 5.07098 6.63401 5.18408 6.29528C5.29717 5.95654 5.47976 5.64516 5.72014 5.38107C5.96053 5.11698 6.25341 4.90599 6.58005 4.76163C6.90668 4.61727 7.25986 4.54271 7.61698 4.54272H17.0125C17.3739 4.54274 17.7312 4.61912 18.061 4.76685C18.3908 4.91459 18.6857 5.13035 18.9263 5.4C19.1669 5.66965 19.3479 5.9871 19.4572 6.33154C19.5666 6.67599 19.602 7.03966 19.561 7.39872L19.3501 9.24384C19.2706 9.95153 18.9736 10.6172 18.5002 11.1491L16.9533 12.8925C16.4948 13.409 16.1251 13.998 15.8592 14.6355C15.8275 14.714 15.7804 14.7853 15.7209 14.8455C15.6614 14.9056 15.5905 14.9534 15.5124 14.9859C15.4343 15.0185 15.3506 15.0353 15.2659 15.0353C15.1813 15.0353 15.0975 15.0185 15.0194 14.9859C14.9413 14.9533 14.8705 14.9055 14.811 14.8454C14.7515 14.7852 14.7045 14.7138 14.6728 14.6354C14.641 14.5569 14.6251 14.473 14.6261 14.3884C14.627 14.3037 14.6447 14.2201 14.6781 14.1424C14.9982 13.3745 15.4435 12.665 15.9959 12.0429L17.5427 10.2995C17.842 9.96394 18.0297 9.54376 18.08 9.09696L18.2909 7.25184C18.3114 7.07196 18.2937 6.88978 18.2389 6.71723C18.1841 6.54467 18.0934 6.38565 17.9729 6.25057C17.8523 6.11549 17.7046 6.00741 17.5394 5.9334C17.3741 5.85939 17.1951 5.82113 17.0141 5.82112H7.61794C7.43898 5.82105 7.26199 5.85835 7.09828 5.93064C6.93458 6.00293 6.78778 6.10861 6.66728 6.24092C6.54679 6.37322 6.45525 6.52924 6.39854 6.69897C6.34182 6.86869 6.32118 7.0484 6.33794 7.22656L6.48674 8.8C6.53674 9.33407 6.78193 9.83094 7.17538 10.1955L10.1971 12.9984C10.5459 13.323 10.8243 13.7158 11.0148 14.1525C11.2053 14.5893 11.304 15.0605 11.3047 15.537V18.7558C11.3047 18.8916 11.3586 19.0219 11.4546 19.1179C11.5506 19.2139 11.6809 19.2678 11.8167 19.2678H12.1008C12.6758 19.269 13.2294 19.0501 13.648 18.656C13.7089 18.5965 13.781 18.5497 13.8601 18.5183C13.9393 18.487 14.0239 18.4718 14.109 18.4736C14.1941 18.4753 14.278 18.4941 14.3558 18.5287C14.4336 18.5633 14.5037 18.6131 14.562 18.6751C14.6203 18.7371 14.6656 18.8102 14.6954 18.8899C14.7251 18.9697 14.7386 19.0546 14.7351 19.1397C14.7316 19.2247 14.7112 19.3082 14.675 19.3853C14.6389 19.4624 14.5877 19.5314 14.5245 19.5885C13.8692 20.2065 13.0022 20.5501 12.1015 20.5488Z" fill="#202020"/>
<path d="M16.3642 20.8064C15.6456 20.8064 14.9432 20.5934 14.3458 20.1942C13.7484 19.795 13.2827 19.2276 13.0077 18.5638C12.7328 17.8999 12.6608 17.1695 12.801 16.4647C12.9412 15.76 13.2872 15.1127 13.7953 14.6046C14.3034 14.0965 14.9507 13.7505 15.6554 13.6103C16.3601 13.4702 17.0906 13.5421 17.7544 13.8171C18.4183 14.092 18.9857 14.5577 19.3849 15.1551C19.7841 15.7526 19.9971 16.455 19.9971 17.1735C19.996 18.1367 19.6129 19.0601 18.9318 19.7412C18.2508 20.4222 17.3273 20.8053 16.3642 20.8064ZM16.3642 14.8205C15.8988 14.8205 15.4439 14.9585 15.0569 15.2171C14.67 15.4756 14.3684 15.8431 14.1903 16.273C14.0122 16.703 13.9656 17.1761 14.0564 17.6325C14.1472 18.089 14.3713 18.5082 14.7004 18.8373C15.0294 19.1664 15.4487 19.3904 15.9051 19.4812C16.3616 19.572 16.8347 19.5254 17.2646 19.3473C17.6946 19.1693 18.062 18.8677 18.3206 18.4807C18.5791 18.0938 18.7171 17.6389 18.7171 17.1735C18.7164 16.5497 18.4682 15.9516 18.0271 15.5105C17.586 15.0694 16.988 14.8213 16.3642 14.8205Z" fill="#202020"/>
<path d="M20.9485 20.9517C20.8129 20.9519 20.6809 20.9087 20.5715 20.8285L18.888 19.5981C18.8187 19.5491 18.7598 19.4868 18.7148 19.4148C18.6698 19.3428 18.6396 19.2626 18.6259 19.1788C18.6122 19.0951 18.6153 19.0094 18.635 18.9268C18.6547 18.8443 18.6907 18.7664 18.7408 18.6979C18.7909 18.6294 18.8541 18.5715 18.9268 18.5276C18.9995 18.4837 19.0802 18.4548 19.1641 18.4424C19.2481 18.43 19.3337 18.4345 19.416 18.4555C19.4982 18.4765 19.5755 18.5137 19.6432 18.5648L21.3267 19.7949C21.4358 19.8746 21.5169 19.9867 21.5583 20.1153C21.5998 20.2439 21.5995 20.3822 21.5575 20.5106C21.5156 20.639 21.434 20.7508 21.3246 20.8301C21.2152 20.9093 21.0836 20.9519 20.9485 20.9517Z" fill="#202020"/>
</svg>
