<svg width="24" height="24" viewBox="0 0 24 24" fill="none" xmlns="http://www.w3.org/2000/svg">
<path d="M12 10.72C11.8302 10.72 11.6674 10.6526 11.5474 10.5326C11.4274 10.4125 11.36 10.2498 11.36 10.08C11.36 9.91027 11.4274 9.74749 11.5474 9.62746C11.6674 9.50744 11.8302 9.44001 12 9.44001H19.7833C19.9531 9.44001 20.1159 9.50744 20.2359 9.62746C20.3559 9.74749 20.4233 9.91027 20.4233 10.08C20.4233 10.2498 20.3559 10.4125 20.2359 10.5326C20.1159 10.6526 19.9531 10.72 19.7833 10.72H12ZM12 6.88001C11.8302 6.88001 11.6674 6.81258 11.5474 6.69256C11.4274 6.57254 11.36 6.40975 11.36 6.24001C11.36 6.07027 11.4274 5.90749 11.5474 5.78746C11.6674 5.66744 11.8302 5.60001 12 5.60001H19.7833C19.9531 5.60001 20.1159 5.66744 20.2359 5.78746C20.3559 5.90749 20.4233 6.07027 20.4233 6.24001C20.4233 6.40975 20.3559 6.57254 20.2359 6.69256C20.1159 6.81258 19.9531 6.88001 19.7833 6.88001H12ZM4.21629 14.56C4.04656 14.56 3.88377 14.4926 3.76375 14.3726C3.64372 14.2525 3.57629 14.0898 3.57629 13.92C3.57629 13.7503 3.64372 13.5875 3.76375 13.4675C3.88377 13.3474 4.04656 13.28 4.21629 13.28H19.7837C19.9534 13.28 20.1162 13.3474 20.2362 13.4675C20.3562 13.5875 20.4237 13.7503 20.4237 13.92C20.4237 14.0898 20.3562 14.2525 20.2362 14.3726C20.1162 14.4926 19.9534 14.56 19.7837 14.56H4.21629ZM4.21629 18.4C4.04656 18.4 3.88377 18.3326 3.76375 18.2126C3.64372 18.0925 3.57629 17.9298 3.57629 17.76C3.57629 17.5903 3.64372 17.4275 3.76375 17.3075C3.88377 17.1874 4.04656 17.12 4.21629 17.12H19.7837C19.9534 17.12 20.1162 17.1874 20.2362 17.3075C20.3562 17.4275 20.4237 17.5903 20.4237 17.76C20.4237 17.9298 20.3562 18.0925 20.2362 18.2126C20.1162 18.3326 19.9534 18.4 19.7837 18.4H4.21629ZM5.31197 12.4403C4.87367 12.4398 4.45345 12.2655 4.14349 11.9556C3.83353 11.6457 3.65913 11.2255 3.65853 10.7872V7.12353C3.65904 6.68517 3.83341 6.26491 4.14338 5.95494C4.45335 5.64497 4.87361 5.4706 5.31197 5.47009H8.97437C9.41274 5.4706 9.833 5.64497 10.143 5.95494C10.4529 6.26491 10.6273 6.68517 10.6278 7.12353V10.7872C10.6277 11.2257 10.4535 11.6462 10.1434 11.9562C9.83335 12.2662 9.41284 12.4403 8.97437 12.4403H5.31197ZM8.97437 6.75009H5.31197C5.21298 6.75026 5.1181 6.78966 5.0481 6.85966C4.9781 6.92965 4.9387 7.02454 4.93853 7.12353V10.7872C4.9387 10.8862 4.97811 10.981 5.04812 11.051C5.11812 11.1209 5.21301 11.1602 5.31197 11.1603H8.97437C9.0234 11.1604 9.07195 11.1508 9.11726 11.132C9.16256 11.1133 9.20373 11.0858 9.23842 11.0512C9.2731 11.0165 9.30061 10.9754 9.31938 10.9301C9.33815 10.8848 9.34781 10.8362 9.34781 10.7872V7.12353C9.34773 7.02452 9.30836 6.92958 9.23834 6.85956C9.16833 6.78955 9.07339 6.75018 8.97437 6.75009Z" fill="#202020"/>
</svg>
