<svg width="24" height="24" viewBox="0 0 24 24" fill="none" xmlns="http://www.w3.org/2000/svg">
<path d="M6.00279 20.1619C5.83305 20.1619 5.67027 20.0945 5.55024 19.9745C5.43022 19.8544 5.36279 19.6917 5.36279 19.5219V4.47808C5.36279 4.30834 5.43022 4.14556 5.55024 4.02553C5.67027 3.90551 5.83305 3.83808 6.00279 3.83808C6.17253 3.83808 6.33532 3.90551 6.45534 4.02553C6.57536 4.14556 6.64279 4.30834 6.64279 4.47808V19.5219C6.64279 19.6917 6.57536 19.8544 6.45534 19.9745C6.33532 20.0945 6.17253 20.1619 6.00279 20.1619Z" fill="#202020"/>
<path d="M17.997 14.8422H6.00279C5.83305 14.8422 5.67027 14.7748 5.55024 14.6548C5.43022 14.5348 5.36279 14.372 5.36279 14.2022V6.37568C5.36279 6.20594 5.43022 6.04316 5.55024 5.92313C5.67027 5.80311 5.83305 5.73568 6.00279 5.73568H17.997C18.1113 5.73552 18.2235 5.76595 18.322 5.82381C18.4205 5.88167 18.5018 5.96485 18.5573 6.06471C18.6128 6.16457 18.6406 6.27747 18.6377 6.39169C18.6349 6.50591 18.6015 6.61728 18.541 6.71424L16.3116 10.289L18.5401 13.8637C18.6005 13.9606 18.6339 14.072 18.6368 14.1862C18.6396 14.3004 18.6118 14.4133 18.5563 14.5132C18.5008 14.6131 18.4196 14.6962 18.3211 14.7541C18.2225 14.812 18.1103 14.8424 17.9961 14.8422H17.997ZM6.64279 13.5622H16.8441L15.0143 10.6275C14.951 10.5259 14.9174 10.4087 14.9174 10.289C14.9174 10.1693 14.951 10.052 15.0143 9.9504L16.8441 7.01568H6.64279V13.5622Z" fill="#202020"/>
</svg>
