<svg width="24" height="24" viewBox="0 0 24 24" fill="none" xmlns="http://www.w3.org/2000/svg">
<path d="M12 18.9873C11.8302 18.9873 11.6675 18.9199 11.5474 18.7998C11.4274 18.6798 11.36 18.517 11.36 18.3473V13.6564H6.98527C6.86893 13.6564 6.75481 13.6246 6.65516 13.5646C6.55552 13.5045 6.47412 13.4185 6.41973 13.3157C6.36533 13.2128 6.34 13.0971 6.34644 12.9809C6.35289 12.8648 6.39087 12.7526 6.45631 12.6564L11.471 5.29256C11.5475 5.18025 11.6577 5.09518 11.7857 5.04967C11.9137 5.00416 12.0529 5.00057 12.1831 5.03941C12.3133 5.07826 12.4277 5.15753 12.5099 5.26575C12.592 5.37397 12.6376 5.50552 12.64 5.64136L12.719 10.0724H17.0147C17.1303 10.0724 17.2437 10.1036 17.3429 10.1628C17.4421 10.222 17.5235 10.307 17.5783 10.4087C17.6331 10.5104 17.6594 10.6251 17.6543 10.7405C17.6492 10.856 17.613 10.9679 17.5494 11.0644L12.535 18.6986C12.4768 18.7873 12.3974 18.8602 12.304 18.9105C12.2106 18.9609 12.1061 18.9873 12 18.9873ZM8.19551 12.3764H12C12.1697 12.3764 12.3325 12.4438 12.4525 12.5639C12.5726 12.6839 12.64 12.8467 12.64 13.0164V16.2071L15.8285 11.3524H12.0902C11.9225 11.3524 11.7614 11.2866 11.6417 11.169C11.522 11.0515 11.4532 10.8917 11.4502 10.7239L11.3958 7.67688L8.19551 12.3764Z" fill="#202020"/>
<path d="M7.35101 20.1823C7.2372 20.1822 7.12548 20.1517 7.02739 20.0939C6.92929 20.0362 6.84836 19.9534 6.79293 19.854C6.7375 19.7546 6.70959 19.6422 6.71207 19.5284C6.71454 19.4146 6.74732 19.3035 6.80701 19.2066L16.103 4.12185C16.1921 3.97731 16.335 3.8741 16.5002 3.83491C16.6654 3.79573 16.8394 3.82377 16.984 3.91289C17.1285 4.002 17.2317 4.14488 17.2709 4.31009C17.3101 4.4753 17.282 4.64931 17.1929 4.79385L7.89693 19.8786C7.83946 19.9717 7.75911 20.0485 7.66354 20.1016C7.56797 20.1548 7.46037 20.1826 7.35101 20.1823Z" fill="#202020"/>
</svg>
