<svg width="24" height="24" viewBox="0 0 24 24" fill="none" xmlns="http://www.w3.org/2000/svg">
<path d="M12.0003 20.6807C9.99209 20.6806 8.04602 19.9842 6.49368 18.7102C4.94135 17.4361 3.87879 15.6632 3.48707 13.6936C3.09534 11.7239 3.39867 9.6794 4.34539 7.90833C5.2921 6.13726 6.82362 4.74923 8.67899 3.98075C10.5344 3.21228 12.5988 3.11089 14.5205 3.69388C16.4423 4.27687 18.1024 5.50815 19.2181 7.17794C20.3338 8.84773 20.836 10.8527 20.6392 12.8513C20.4423 14.8498 19.5586 16.7183 18.1386 18.1383C17.3343 18.9469 16.3777 19.5879 15.3241 20.0243C14.2704 20.4607 13.1407 20.6838 12.0003 20.6807ZM12.0003 4.59943C7.91967 4.59943 4.59967 7.91943 4.59967 12.0001C4.59967 16.0807 7.91967 19.4007 12.0003 19.4007C16.081 19.4007 19.401 16.0807 19.401 12.0001C19.401 7.91943 16.081 4.59943 12.0003 4.59943Z" fill="#202020"/>
<path d="M12.0004 17.3656C11.9383 17.3655 11.8766 17.3565 11.8171 17.3388C11.6851 17.2993 11.5694 17.2183 11.4871 17.1079C11.4049 16.9974 11.3604 16.8634 11.3604 16.7256V13.3976H8.26698C8.15059 13.3976 8.03641 13.3659 7.93672 13.3059C7.83702 13.2458 7.75559 13.1597 7.70118 13.0568C7.64678 12.9539 7.62146 12.8382 7.62795 12.7219C7.63444 12.6057 7.6725 12.4935 7.73802 12.3973L11.4715 6.91412C11.548 6.80175 11.6583 6.71665 11.7864 6.67117C11.9145 6.62568 12.0537 6.62217 12.184 6.66113C12.3142 6.7001 12.4286 6.77953 12.5107 6.8879C12.5928 6.99627 12.6382 7.12796 12.6404 7.26388L12.6964 10.3999H15.7339C15.8494 10.3998 15.9629 10.431 16.0622 10.4902C16.1614 10.5494 16.2428 10.6343 16.2977 10.7361C16.3526 10.8378 16.3788 10.9525 16.3738 11.0679C16.3687 11.1834 16.3325 11.2954 16.2689 11.3919L12.5355 17.077C12.4772 17.1657 12.3978 17.2385 12.3044 17.2889C12.211 17.3393 12.1065 17.3657 12.0004 17.3656ZM9.47722 12.1176H12.0004C12.1702 12.1176 12.3329 12.1851 12.453 12.3051C12.573 12.4251 12.6404 12.5879 12.6404 12.7576V14.5855L14.5479 11.6799H12.0676C11.8999 11.6799 11.7388 11.6141 11.6191 11.4965C11.4994 11.379 11.4306 11.2191 11.4276 11.0514L11.3956 9.29684L9.47722 12.1176Z" fill="#202020"/>
</svg>
