<svg width="24" height="24" viewBox="0 0 24 24" fill="none" xmlns="http://www.w3.org/2000/svg">
<path d="M19.0621 12.0406C18.8923 12.0406 18.7295 11.9732 18.6095 11.8532C18.4895 11.7332 18.4221 11.5704 18.4221 11.4006V9.95199C18.4214 9.63244 18.294 9.3262 18.068 9.10036C17.8419 8.87453 17.5355 8.74753 17.216 8.74719H12.8115C12.2873 8.74799 11.7764 8.58275 11.352 8.27519C10.9275 7.96763 10.6114 7.53354 10.4489 7.03519L10.1465 6.11199C10.0678 5.87023 9.91449 5.65964 9.70861 5.51045C9.50273 5.36125 9.25487 5.28113 9.00061 5.28159H6.74717C6.42746 5.28193 6.12093 5.40906 5.89483 5.6351C5.66873 5.86114 5.54152 6.16764 5.54109 6.48735V11.4006C5.54109 11.5704 5.47366 11.7332 5.35364 11.8532C5.23362 11.9732 5.07083 12.0406 4.90109 12.0406C4.73135 12.0406 4.56857 11.9732 4.44854 11.8532C4.32852 11.7332 4.26109 11.5704 4.26109 11.4006V6.48735C4.26186 5.82826 4.52404 5.1964 4.99011 4.73038C5.45618 4.26437 6.08809 4.00227 6.74717 4.00159H9.00061C9.52477 4.00079 10.0357 4.16603 10.4602 4.47359C10.8846 4.78115 11.2007 5.21524 11.3632 5.71359L11.6653 6.63647C11.7438 6.87853 11.8971 7.08945 12.103 7.23894C12.309 7.38843 12.557 7.46879 12.8115 7.46847H17.216C17.8747 7.46915 18.5062 7.73094 18.9722 8.19647C19.4383 8.662 19.7007 9.29329 19.7021 9.95199V11.3997C19.7022 11.4838 19.6857 11.5671 19.6536 11.6449C19.6215 11.7226 19.5744 11.7933 19.5149 11.8528C19.4555 11.9124 19.3849 11.9596 19.3072 11.9918C19.2295 12.024 19.1462 12.0406 19.0621 12.0406Z" fill="#202020"/>
<path d="M18.7555 20H5.34397C4.64573 20 4.05373 19.4797 3.93597 18.7626L2.96253 12.8227C2.92552 12.6041 2.93661 12.38 2.99503 12.1661C3.05344 11.9521 3.15778 11.7535 3.30077 11.584C3.43193 11.4279 3.59551 11.3022 3.78013 11.2157C3.96475 11.1291 4.166 11.0838 4.36989 11.0829H19.6301C19.8319 11.0839 20.0312 11.1284 20.2144 11.2133C20.3976 11.2982 20.5603 11.4216 20.6915 11.575C20.8342 11.7417 20.9394 11.9371 20.9998 12.1481C21.0602 12.359 21.0744 12.5805 21.0416 12.7974L20.167 18.7363C20.0592 19.4675 19.4656 20 18.7555 20ZM4.36989 12.3635C4.35159 12.3644 4.3337 12.3693 4.31753 12.3779C4.30137 12.3866 4.28733 12.3987 4.27645 12.4134C4.25406 12.4416 4.23793 12.4742 4.22916 12.5091C4.22038 12.5439 4.21916 12.5803 4.22557 12.6157L5.19805 18.5539C5.21341 18.6461 5.27677 18.7184 5.34269 18.7184H18.7555C18.823 18.7184 18.8867 18.6442 18.9005 18.5498L19.776 12.6115C19.7822 12.5765 19.7807 12.5406 19.7716 12.5062C19.7625 12.4719 19.7461 12.4399 19.7235 12.4125C19.7126 12.398 19.6987 12.3861 19.6827 12.3776C19.6667 12.3692 19.6491 12.3644 19.631 12.3635H4.36989Z" fill="#202020"/>
<path d="M14.048 15.9776H9.84605C9.67632 15.9776 9.51353 15.9102 9.39351 15.7902C9.27348 15.6702 9.20605 15.5074 9.20605 15.3376C9.20605 15.1679 9.27348 15.0051 9.39351 14.8851C9.51353 14.7651 9.67632 14.6976 9.84605 14.6976H14.048C14.2177 14.6976 14.3805 14.7651 14.5005 14.8851C14.6205 15.0051 14.688 15.1679 14.688 15.3376C14.688 15.5074 14.6205 15.6702 14.5005 15.7902C14.3805 15.9102 14.2177 15.9776 14.048 15.9776Z" fill="#202020"/>
</svg>
