<svg width="24" height="24" viewBox="0 0 24 24" fill="none" xmlns="http://www.w3.org/2000/svg">
<path d="M14.3331 13.6131H10.7642C10.5944 13.6131 10.4317 13.5457 10.3116 13.4257C10.1916 13.3057 10.1242 13.1429 10.1242 12.9731C10.1242 12.8034 10.1916 12.6406 10.3116 12.5206C10.4317 12.4006 10.5944 12.3331 10.7642 12.3331H14.3331C14.5029 12.3331 14.6657 12.4006 14.7857 12.5206C14.9057 12.6406 14.9731 12.8034 14.9731 12.9731C14.9731 13.1429 14.9057 13.3057 14.7857 13.4257C14.6657 13.5457 14.5029 13.6131 14.3331 13.6131Z" fill="#202020"/>
<path d="M18.1475 18.944H7.68C7.02092 18.9433 6.38905 18.6811 5.92304 18.215C5.45702 17.7489 5.19492 17.117 5.19424 16.458V7.54243C5.19484 6.88329 5.4569 6.25131 5.92292 5.78516C6.38895 5.31902 7.02086 5.0568 7.68 5.05603H9.93376C10.4579 5.05525 10.9688 5.2205 11.3932 5.52807C11.8175 5.83563 12.1336 6.26971 12.296 6.76803L12.5984 7.69091C12.6769 7.93292 12.8302 8.1438 13.036 8.29329C13.2419 8.44277 13.4899 8.52316 13.7443 8.52291H18.1475C18.8064 8.52367 19.4382 8.78572 19.9042 9.25159C20.3701 9.71746 20.6324 10.3491 20.6333 11.008V16.4576C20.6327 17.1168 20.3706 17.7488 19.9046 18.2149C19.4386 18.681 18.8067 18.9433 18.1475 18.944ZM7.68 6.33603C7.36029 6.33646 7.0538 6.46367 6.82776 6.68977C6.60172 6.91587 6.47458 7.2224 6.47424 7.54211V16.4576C6.4745 16.7774 6.60159 17.084 6.82764 17.3102C7.0537 17.5363 7.36024 17.6636 7.68 17.664H18.1475C18.4672 17.6636 18.7737 17.5364 18.9998 17.3103C19.2258 17.0842 19.3529 16.7777 19.3533 16.458V11.008C19.3529 10.6883 19.2258 10.3819 18.9997 10.1558C18.7737 9.92976 18.4672 9.80261 18.1475 9.80227H13.7427C13.2186 9.80305 12.7077 9.63781 12.2833 9.33024C11.8589 9.02267 11.5429 8.58859 11.3805 8.09027L11.0781 7.16803C10.9995 6.92603 10.8463 6.71514 10.6404 6.56566C10.4346 6.41617 10.1866 6.33578 9.93216 6.33603H7.68Z" fill="#202020"/>
</svg>
