<svg width="24" height="24" viewBox="0 0 24 24" fill="none" xmlns="http://www.w3.org/2000/svg">
<path d="M13.5917 13.6131H10.0227C9.85295 13.6131 9.69017 13.5457 9.57014 13.4257C9.45012 13.3057 9.38269 13.1429 9.38269 12.9731C9.38269 12.8034 9.45012 12.6406 9.57014 12.5206C9.69017 12.4006 9.85295 12.3331 10.0227 12.3331H13.5917C13.7614 12.3331 13.9242 12.4006 14.0442 12.5206C14.1642 12.6406 14.2317 12.8034 14.2317 12.9731C14.2317 13.1429 14.1642 13.3057 14.0442 13.4257C13.9242 13.5457 13.7614 13.6131 13.5917 13.6131Z" fill="#202020"/>
<path d="M11.808 15.3974C11.6383 15.3974 11.4755 15.33 11.3555 15.21C11.2355 15.0899 11.168 14.9272 11.168 14.7574V11.1885C11.168 11.0187 11.2355 10.8559 11.3555 10.7359C11.4755 10.6159 11.6383 10.5485 11.808 10.5485C11.9778 10.5485 12.1406 10.6159 12.2606 10.7359C12.3806 10.8559 12.448 11.0187 12.448 11.1885V14.7574C12.448 14.8415 12.4315 14.9247 12.3993 15.0023C12.3671 15.08 12.32 15.1505 12.2606 15.21C12.2011 15.2694 12.1306 15.3165 12.0529 15.3487C11.9753 15.3809 11.8921 15.3974 11.808 15.3974Z" fill="#202020"/>
<path d="M17.4057 18.944H6.93663C6.27754 18.9433 5.64567 18.6811 5.17966 18.215C4.71364 17.7489 4.45154 17.117 4.45087 16.458V7.54243C4.45146 6.88329 4.71352 6.25131 5.17954 5.78516C5.64557 5.31902 6.27749 5.05679 6.93663 5.05603H9.19039C9.71441 5.05551 10.2251 5.2209 10.6494 5.5285C11.0736 5.83611 11.3896 6.27013 11.552 6.76835L11.8541 7.69123C11.9326 7.93329 12.0859 8.14421 12.2918 8.2937C12.4978 8.44319 12.7458 8.52355 13.0003 8.52323H17.4057C18.0647 8.52391 18.6964 8.78588 19.1625 9.25168C19.6285 9.71749 19.8908 10.3491 19.8918 11.008V16.4576C19.8911 17.1168 19.629 17.7488 19.1629 18.2149C18.6969 18.6811 18.0649 18.9433 17.4057 18.944ZM6.93663 6.33603C6.61691 6.33645 6.31042 6.46367 6.08438 6.68977C5.85834 6.91587 5.73121 7.2224 5.73087 7.54211V16.4576C5.73112 16.7774 5.85822 17.084 6.08427 17.3102C6.31032 17.5363 6.61686 17.6636 6.93663 17.664H17.4057C17.7255 17.6636 18.032 17.5364 18.2581 17.3103C18.4842 17.0842 18.6114 16.7777 18.6118 16.458V11.008C18.6114 10.6883 18.4842 10.3818 18.2581 10.1558C18.032 9.92974 17.7255 9.80261 17.4057 9.80227H13.0013C12.4771 9.80312 11.9661 9.6379 11.5417 9.33033C11.1172 9.02276 10.8011 8.58864 10.6387 8.09027L10.336 7.16803C10.2575 6.92597 10.1043 6.71503 9.89843 6.56553C9.69253 6.41604 9.44452 6.33568 9.19007 6.33603H6.93663Z" fill="#202020"/>
</svg>
