<svg width="24" height="24" viewBox="0 0 24 24" fill="none" xmlns="http://www.w3.org/2000/svg">
<path d="M10.3741 14.8749C10.2474 14.8752 10.1235 14.8378 10.018 14.7676C9.91253 14.6974 9.83027 14.5975 9.78164 14.4805C9.73302 14.3635 9.72021 14.2347 9.74484 14.1105C9.76947 13.9862 9.83044 13.872 9.92001 13.7824L12.4439 11.2589C12.5646 11.1423 12.7262 11.0778 12.894 11.0792C13.0618 11.0807 13.2224 11.148 13.341 11.2667C13.4597 11.3853 13.527 11.5459 13.5284 11.7137C13.5299 11.8815 13.4654 12.0431 13.3488 12.1638L10.8266 14.688C10.7672 14.7474 10.6966 14.7945 10.619 14.8266C10.5413 14.8586 10.4581 14.875 10.3741 14.8749Z" fill="#202020"/>
<path d="M12.8976 14.8748C12.8136 14.8751 12.7304 14.8587 12.6527 14.8266C12.575 14.7945 12.5045 14.7474 12.4451 14.6879L9.92001 12.1638C9.80001 12.0437 9.73261 11.8809 9.73264 11.7112C9.73267 11.5414 9.80013 11.3787 9.92017 11.2587C10.0402 11.1387 10.203 11.0713 10.3728 11.0713C10.5425 11.0713 10.7053 11.1388 10.8253 11.2588L13.3488 13.7823C13.4383 13.8719 13.4992 13.9859 13.5239 14.11C13.5486 14.2341 13.5359 14.3628 13.4875 14.4797C13.4391 14.5967 13.357 14.6966 13.2518 14.7669C13.1466 14.8372 13.0229 14.8748 12.8963 14.8748H12.8976Z" fill="#202020"/>
<path d="M17.2346 18.944H6.76545C6.10636 18.9433 5.4745 18.6811 5.00848 18.215C4.54247 17.7489 4.28037 17.117 4.27969 16.458V7.54243C4.28028 6.88329 4.54234 6.25131 5.00837 5.78516C5.47439 5.31902 6.10631 5.0568 6.76545 5.05603H9.01921C9.54333 5.05525 10.0542 5.2205 10.4786 5.52807C10.903 5.83563 11.219 6.26971 11.3814 6.76803L11.6838 7.69091C11.7624 7.93292 11.9156 8.1438 12.1215 8.29329C12.3274 8.44277 12.5753 8.52316 12.8298 8.52291H17.2346C17.8935 8.52367 18.5252 8.78572 18.9912 9.25159C19.4572 9.71746 19.7194 10.3491 19.7203 11.008V16.4576C19.7197 17.1168 19.4577 17.7488 18.9917 18.2149C18.5256 18.681 17.8937 18.9433 17.2346 18.944ZM6.76545 6.33603C6.44574 6.33646 6.13924 6.46367 5.9132 6.68977C5.68716 6.91587 5.56003 7.2224 5.55969 7.54211V16.4576C5.55994 16.7774 5.68704 17.084 5.91309 17.3102C6.13914 17.5363 6.44568 17.6636 6.76545 17.664H17.2346C17.5543 17.6636 17.8608 17.5364 18.0868 17.3103C18.3129 17.0842 18.44 16.7777 18.4403 16.458V11.008C18.44 10.6883 18.3128 10.3819 18.0868 10.1558C17.8607 9.92976 17.5543 9.80261 17.2346 9.80227H12.8298C12.3057 9.80305 11.7948 9.63781 11.3704 9.33024C10.946 9.02267 10.6299 8.58859 10.4675 8.09027L10.1651 7.16803C10.0866 6.92603 9.93337 6.71514 9.72749 6.56566C9.5216 6.41617 9.27364 6.33578 9.01921 6.33603H6.76545Z" fill="#202020"/>
</svg>
