<svg width="24" height="24" viewBox="0 0 24 24" fill="none" xmlns="http://www.w3.org/2000/svg">
<path d="M16.0369 14.8131H7.96326C7.41621 14.8125 6.89173 14.5949 6.5049 14.2081C6.11807 13.8213 5.9005 13.2968 5.8999 12.7497V5.87454C5.9005 5.32745 6.11806 4.80294 6.50488 4.41606C6.8917 4.02918 7.41618 3.81153 7.96326 3.81085H9.70118C10.1363 3.81015 10.5604 3.94729 10.9127 4.20261C11.265 4.45792 11.5274 4.81828 11.6621 5.23197L11.8954 5.94366C11.9466 6.10076 12.0462 6.23762 12.18 6.33461C12.3138 6.43159 12.4748 6.48371 12.6401 6.48349H16.0369C16.5839 6.48409 17.1084 6.70167 17.4952 7.08849C17.882 7.47532 18.0996 7.9998 18.1002 8.54685V12.7497C18.0996 13.2968 17.882 13.8213 17.4952 14.2081C17.1084 14.5949 16.5839 14.8125 16.0369 14.8131ZM7.96326 5.09085C7.75553 5.09111 7.55637 5.17377 7.40951 5.32069C7.26265 5.46761 7.18007 5.6668 7.1799 5.87454V12.7497C7.18016 12.9574 7.26277 13.1565 7.40962 13.3034C7.55648 13.4502 7.75558 13.5328 7.96326 13.5331H16.0369C16.2445 13.5328 16.4436 13.4502 16.5905 13.3034C16.7374 13.1565 16.82 12.9574 16.8202 12.7497V8.54685C16.82 8.33917 16.7374 8.14007 16.5905 7.99322C16.4436 7.84636 16.2445 7.76375 16.0369 7.76349H12.6401C12.205 7.76415 11.7809 7.62699 11.4286 7.37168C11.0763 7.11637 10.8139 6.75604 10.6791 6.34237L10.4458 5.63197C10.3946 5.4749 10.295 5.33808 10.1612 5.24115C10.0274 5.14422 9.86639 5.09217 9.70118 5.09245L7.96326 5.09085ZM12.0001 20.1891C11.567 20.1892 11.1437 20.0608 10.7836 19.8203C10.4235 19.5797 10.1428 19.2378 9.97706 18.8377C9.81129 18.4377 9.76789 17.9974 9.85233 17.5727C9.93678 17.148 10.1453 16.7578 10.4515 16.4516C10.7576 16.1454 11.1478 15.9368 11.5725 15.8523C11.9972 15.7678 12.4374 15.8111 12.8375 15.9768C13.2376 16.1425 13.5796 16.4232 13.8202 16.7832C14.0608 17.1433 14.1892 17.5666 14.1892 17.9997C14.1886 18.5801 13.9578 19.1366 13.5474 19.5471C13.137 19.9575 12.5805 20.1884 12.0001 20.1891ZM12.0001 17.0905C11.8202 17.0905 11.6443 17.1438 11.4947 17.2437C11.3451 17.3436 11.2285 17.4856 11.1596 17.6518C11.0907 17.818 11.0727 18.0009 11.1078 18.1773C11.1428 18.3538 11.2295 18.5158 11.3567 18.643C11.4839 18.7703 11.646 18.8569 11.8224 18.892C11.9988 18.927 12.1817 18.909 12.3479 18.8401C12.5141 18.7713 12.6561 18.6546 12.756 18.505C12.856 18.3554 12.9092 18.1796 12.9092 17.9997C12.9089 17.7586 12.8131 17.5275 12.6426 17.3571C12.4722 17.1867 12.2411 17.0908 12.0001 17.0905Z" fill="#202020"/>
<path d="M10.4509 18.6397H6.5399C6.37016 18.6397 6.20738 18.5723 6.08735 18.4523C5.96733 18.3322 5.8999 18.1694 5.8999 17.9997C5.8999 17.83 5.96733 17.6672 6.08735 17.5472C6.20738 17.4271 6.37016 17.3597 6.5399 17.3597H10.4509C10.6207 17.3597 10.7835 17.4271 10.9035 17.5472C11.0235 17.6672 11.0909 17.83 11.0909 17.9997C11.0909 18.1694 11.0235 18.3322 10.9035 18.4523C10.7835 18.5723 10.6207 18.6397 10.4509 18.6397ZM17.4602 18.6397H13.5492C13.3794 18.6397 13.2167 18.5723 13.0966 18.4523C12.9766 18.3322 12.9092 18.1694 12.9092 17.9997C12.9092 17.83 12.9766 17.6672 13.0966 17.5472C13.2167 17.4271 13.3794 17.3597 13.5492 17.3597H17.4602C17.63 17.3597 17.7927 17.4271 17.9128 17.5472C18.0328 17.6672 18.1002 17.83 18.1002 17.9997C18.1002 18.1694 18.0328 18.3322 17.9128 18.4523C17.7927 18.5723 17.63 18.6397 17.4602 18.6397ZM12.0001 17.0906C11.8303 17.0906 11.6675 17.0232 11.5475 16.9031C11.4275 16.7831 11.3601 16.6203 11.3601 16.4506V14.1731C11.3601 14.0034 11.4275 13.8406 11.5475 13.7206C11.6675 13.6006 11.8303 13.5331 12.0001 13.5331C12.1698 13.5331 12.3326 13.6006 12.4526 13.7206C12.5726 13.8406 12.6401 14.0034 12.6401 14.1731V16.4506C12.6401 16.6203 12.5726 16.7831 12.4526 16.9031C12.3326 17.0232 12.1698 17.0906 12.0001 17.0906Z" fill="#202020"/>
</svg>
