<svg width="24" height="24" viewBox="0 0 24 24" fill="none" xmlns="http://www.w3.org/2000/svg">
<path d="M20.0664 6.10938C18.1846 3.5282 15.1823 2.00226 11.9879 2.0036C6.46942 2.00598 1.99768 6.48151 2 12C2 12.1904 2 12.3799 2.01172 12.5547C2.09216 14.1091 2.54462 15.6216 3.33106 16.9648C5.10278 20.0822 8.41431 22.0057 12 22C12.6303 22.0032 13.2594 21.9437 13.8779 21.8223C16.4381 21.3251 18.7046 19.8518 20.1982 17.7139C22.6491 14.2182 22.5961 9.54846 20.0664 6.10938ZM19.5978 7.24555C20.4011 8.52002 20.8544 9.93994 20.9542 11.3894L18.7695 9.79981L19.5978 7.24555ZM18.8746 6.23383L17.7719 9.63385L15.7831 10.5907L12.5 8.24329V5.75482L15.3676 3.67438C16.717 4.22296 17.921 5.09619 18.8746 6.23383ZM15.1406 11.3584L13.9453 15H10.0498L8.86231 11.3672L12.001 9.11524L15.1406 11.3584ZM12 3C12.7518 3.00183 13.4898 3.10242 14.2028 3.28418L12 4.88184L9.79901 3.28546C10.5174 3.10169 11.2552 2.9986 12 3ZM8.61328 3.66901C8.61585 3.66797 8.61859 3.66724 8.62116 3.6662L11.5 5.75482V8.24371L8.22376 10.5939L6.22815 9.63385L5.12488 6.23169C6.04858 5.13129 7.22516 4.23383 8.61328 3.66901ZM4.39612 7.2265L5.23047 9.80078L3.04688 11.3892C3.15186 9.88464 3.61926 8.46185 4.39612 7.2265ZM4.38306 16.756C4.32251 16.6586 4.25556 16.5673 4.19824 16.4668C3.51416 15.2996 3.1181 13.9891 3.02594 12.6407L5.87103 10.571L7.86298 11.5294L9.12604 15.3918L7.95044 16.7586L4.38306 16.756ZM5.10089 17.7567L7.81641 17.7588L8.65967 20.3493C7.30219 19.8058 6.07349 18.9287 5.10089 17.7567ZM14.1641 20.7293C12.7217 21.0881 11.2369 21.0765 9.83435 20.7274L8.74213 17.3716L9.92181 16H14.0782L15.2576 17.3712L14.1641 20.7293ZM16.4487 19.8218C16.0876 20.0276 15.7161 20.1955 15.341 20.3464L16.1836 17.7588L18.8982 17.7567C18.2107 18.5831 17.3863 19.2873 16.4487 19.8218ZM19.6053 16.756L16.0496 16.7586L14.8704 15.3876L16.1359 11.5299L18.129 10.571L20.9523 12.6244C20.852 14.067 20.4058 15.4831 19.6053 16.756Z" fill="#202020"/>
</svg>
