<svg width="24" height="24" viewBox="0 0 24 24" fill="none" xmlns="http://www.w3.org/2000/svg">
<path d="M4.46909 15.464C4.3387 15.464 4.21144 15.4241 4.10433 15.3498C3.99721 15.2754 3.91536 15.1702 3.86973 15.048C3.12932 13.0645 3.13614 10.8793 3.88893 8.9005C3.94953 8.74192 4.07064 8.61391 4.22562 8.54463C4.3806 8.47534 4.55675 8.47046 4.71533 8.53106C4.87391 8.59166 5.00192 8.71277 5.0712 8.86775C5.14049 9.02273 5.14537 9.19888 5.08477 9.35746C4.44318 11.0445 4.43738 12.9074 5.06845 14.5984C5.10462 14.6952 5.11681 14.7993 5.10398 14.9019C5.09115 15.0044 5.05369 15.1023 4.99479 15.1872C4.93589 15.2721 4.85731 15.3415 4.76576 15.3894C4.67421 15.4373 4.57242 15.4624 4.46909 15.4624V15.464ZM12 20.6807C10.4803 20.6811 8.98712 20.2827 7.66973 19.5251C7.5969 19.4831 7.53307 19.4272 7.48187 19.3605C7.43067 19.2938 7.3931 19.2176 7.37132 19.1364C7.34954 19.0552 7.34397 18.9705 7.35492 18.8872C7.36588 18.8038 7.39315 18.7234 7.43517 18.6506C7.47719 18.5778 7.53315 18.5139 7.59984 18.4627C7.66653 18.4115 7.74266 18.374 7.82387 18.3522C7.90508 18.3304 7.98979 18.3248 8.07315 18.3358C8.15651 18.3467 8.2369 18.374 8.30973 18.416C9.42876 19.0588 10.6962 19.3982 11.9867 19.4007C13.2772 19.4031 14.546 19.0686 15.6675 18.4301C15.8149 18.3459 15.9897 18.3236 16.1534 18.3683C16.3172 18.4129 16.4565 18.5208 16.5408 18.6682C16.625 18.8156 16.6472 18.9904 16.6026 19.1541C16.5579 19.3179 16.4501 19.4572 16.3027 19.5415C14.9918 20.2886 13.5088 20.6812 12 20.6807ZM19.488 15.577C19.3837 15.5769 19.2811 15.5515 19.189 15.5027C19.0968 15.454 19.018 15.3835 18.9593 15.2974C18.9006 15.2112 18.8638 15.1121 18.8522 15.0085C18.8405 14.9049 18.8544 14.8001 18.8924 14.7031C19.5522 13.0121 19.5705 11.1381 18.944 9.43458C18.9125 9.35522 18.8972 9.27037 18.8989 9.18501C18.9007 9.09965 18.9196 9.01551 18.9544 8.93754C18.9892 8.85958 19.0393 8.78937 19.1016 8.73104C19.164 8.67272 19.2373 8.62746 19.3175 8.59793C19.3976 8.5684 19.4828 8.5552 19.5681 8.5591C19.6534 8.563 19.737 8.58393 19.8141 8.62066C19.8912 8.65738 19.9601 8.70916 20.0169 8.77293C20.0736 8.83671 20.1171 8.9112 20.1446 8.99202C20.8799 10.9903 20.858 13.1886 20.0832 15.1719C20.036 15.2913 19.9541 15.3938 19.8479 15.4661C19.7418 15.5383 19.6164 15.5769 19.488 15.577Z" fill="#202020"/>
<path d="M19.5446 9.85281C19.4137 9.8529 19.286 9.81288 19.1786 9.73816C19.0712 9.66344 18.9893 9.55759 18.9439 9.43489C18.9276 9.39073 18.9119 9.34689 18.8937 9.30337C18.863 9.22511 18.8481 9.14157 18.8498 9.05754C18.8514 8.9735 18.8696 8.89062 18.9033 8.81361C18.937 8.73661 18.9855 8.66699 19.0461 8.60873C19.1067 8.55048 19.1781 8.50473 19.2564 8.47409C19.3347 8.44346 19.4182 8.42854 19.5022 8.43019C19.5863 8.43184 19.6692 8.45002 19.7462 8.4837C19.8232 8.51739 19.8928 8.5659 19.951 8.62649C20.0093 8.68708 20.055 8.75854 20.0857 8.83681C20.1058 8.88769 20.1254 8.93921 20.1442 8.99073C20.18 9.08748 20.1919 9.19144 20.1789 9.29377C20.1658 9.39609 20.1282 9.49375 20.0693 9.57841C20.0104 9.66308 19.9319 9.73225 19.8404 9.78003C19.749 9.8278 19.6474 9.85278 19.5442 9.85281H19.5446ZM16.0095 5.66945C15.8972 5.66945 15.7868 5.63987 15.6895 5.58369C15.6316 5.55009 15.5724 5.51713 15.5138 5.48545C15.4373 5.44699 15.3694 5.39356 15.3139 5.32834C15.2584 5.26312 15.2166 5.18743 15.1909 5.10576C15.1652 5.02409 15.1561 4.93809 15.1643 4.85285C15.1724 4.76762 15.1976 4.68489 15.2383 4.60955C15.2789 4.53422 15.3343 4.46781 15.4011 4.41427C15.468 4.36072 15.5448 4.32113 15.6272 4.29783C15.7096 4.27453 15.7958 4.268 15.8808 4.27863C15.9658 4.28926 16.0477 4.31682 16.1218 4.35969C16.1906 4.39681 16.2601 4.43553 16.3282 4.47457C16.4506 4.54488 16.5462 4.65363 16.6004 4.78392C16.6545 4.91421 16.664 5.05873 16.6275 5.19502C16.591 5.3313 16.5105 5.4517 16.3985 5.5375C16.2865 5.6233 16.1493 5.66969 16.0082 5.66945H16.0095Z" fill="#202020"/>
<path d="M7.99014 5.66942C7.84915 5.66953 7.71208 5.62309 7.6002 5.53731C7.48831 5.45153 7.40789 5.3312 7.37141 5.19502C7.33493 5.05884 7.34443 4.91443 7.39845 4.7842C7.45247 4.65398 7.54797 4.54523 7.67014 4.47486C8.95301 3.73775 10.4028 3.3403 11.8822 3.32014C13.3616 3.29998 14.8217 3.65778 16.1242 4.35966C16.2683 4.44303 16.3743 4.57928 16.4196 4.7395C16.4649 4.89971 16.446 5.07128 16.3669 5.21778C16.2878 5.36427 16.1547 5.47417 15.9958 5.52414C15.837 5.57411 15.665 5.56022 15.5162 5.48542C14.4059 4.88757 13.1615 4.58283 11.9006 4.60002C10.6397 4.61721 9.40403 4.95577 8.31046 5.58366C8.21315 5.64009 8.10262 5.66968 7.99014 5.66942Z" fill="#202020"/>
<path d="M5.81721 10.1207C5.15813 10.1203 4.51395 9.92451 3.96613 9.55807C3.41831 9.19162 2.99143 8.67098 2.73947 8.06196C2.48752 7.45293 2.42179 6.78288 2.5506 6.13651C2.67942 5.49013 2.99699 4.89646 3.46316 4.43056C3.92934 3.96465 4.52319 3.64742 5.16964 3.51898C5.81609 3.39054 6.4861 3.45665 7.09498 3.70896C7.70386 3.96127 8.22426 4.38844 8.59038 4.93647C8.95651 5.48451 9.15193 6.1288 9.15193 6.78788C9.15091 7.67181 8.79919 8.51922 8.17397 9.14408C7.54876 9.76894 6.70114 10.1202 5.81721 10.1207ZM5.81721 4.73508C5.41129 4.73546 5.01459 4.85618 4.67726 5.08197C4.33993 5.30777 4.07712 5.6285 3.92204 6.00364C3.76696 6.37877 3.72658 6.79146 3.80601 7.18954C3.88543 7.58761 4.08109 7.95321 4.36826 8.24011C4.65543 8.527 5.0212 8.72232 5.41935 8.80137C5.81751 8.88043 6.23016 8.83966 6.60514 8.68424C6.98013 8.52881 7.30062 8.26569 7.5261 7.92815C7.75158 7.59061 7.87193 7.1938 7.87193 6.78788C7.871 6.24349 7.65413 5.7217 7.26891 5.33702C6.8837 4.95235 6.3616 4.73621 5.81721 4.73604V4.73508ZM18.0601 10.1207C17.4009 10.1207 16.7566 9.92521 16.2085 9.559C15.6604 9.19279 15.2332 8.67228 14.981 8.06329C14.7287 7.4543 14.6627 6.78418 14.7913 6.13768C14.9199 5.49118 15.2373 4.89733 15.7034 4.43123C16.1695 3.96513 16.7634 3.64772 17.4099 3.51912C18.0564 3.39052 18.7265 3.45652 19.3355 3.70877C19.9445 3.96103 20.465 4.3882 20.8312 4.93628C21.1974 5.48435 21.3929 6.12871 21.3929 6.78788C21.3919 7.67148 21.0404 8.5186 20.4156 9.1434C19.7908 9.7682 18.9437 10.1197 18.0601 10.1207ZM18.0601 4.73508C17.6541 4.73508 17.2572 4.85547 16.9196 5.08104C16.582 5.3066 16.3189 5.62721 16.1635 6.00231C16.0082 6.37741 15.9675 6.79016 16.0467 7.18836C16.1259 7.58657 16.3215 7.95234 16.6085 8.23943C16.8956 8.52652 17.2614 8.72203 17.6596 8.80124C18.0578 8.88044 18.4706 8.83979 18.8457 8.68442C19.2208 8.52905 19.5414 8.26594 19.7669 7.92835C19.9925 7.59077 20.1129 7.19389 20.1129 6.78788C20.112 6.24382 19.8953 5.72232 19.5105 5.3377C19.1257 4.95308 18.6042 4.73672 18.0601 4.73604V4.73508ZM5.81721 20.5988C5.15813 20.5984 4.51395 20.4026 3.96613 20.0361C3.41831 19.6697 2.99143 19.1491 2.73947 18.54C2.48752 17.931 2.42179 17.261 2.5506 16.6146C2.67942 15.9682 2.99699 15.3745 3.46316 14.9086C3.92934 14.4427 4.52319 14.1255 5.16964 13.9971C5.81609 13.8686 6.4861 13.9347 7.09498 14.187C7.70386 14.4393 8.22426 14.8665 8.59038 15.4146C8.95651 15.9626 9.15193 16.6069 9.15193 17.266C9.15091 18.1499 8.79919 18.9973 8.17397 19.6222C7.54876 20.247 6.70114 20.5983 5.81721 20.5988ZM5.81721 15.2132C5.41129 15.2135 5.01459 15.3343 4.67726 15.5601C4.33993 15.7858 4.07712 16.1066 3.92204 16.4817C3.76696 16.8569 3.72658 17.2695 3.80601 17.6676C3.88543 18.0657 4.08109 18.4313 4.36826 18.7182C4.65543 19.0051 5.0212 19.2004 5.41935 19.2795C5.81751 19.3585 6.23016 19.3177 6.60514 19.1623C6.98013 19.0069 7.30062 18.7438 7.5261 18.4062C7.75158 18.0687 7.87193 17.6719 7.87193 17.266C7.87125 16.7214 7.65449 16.1994 7.26925 15.8145C6.88401 15.4296 6.36177 15.2133 5.81721 15.2132ZM18.0601 20.5988C17.4009 20.5988 16.7566 20.4033 16.2085 20.0371C15.6604 19.6709 15.2332 19.1504 14.981 18.5414C14.7287 17.9324 14.6627 17.2623 14.7913 16.6158C14.9199 15.9693 15.2373 15.3754 15.7034 14.9093C16.1695 14.4432 16.7634 14.1258 17.4099 13.9972C18.0564 13.8686 18.7265 13.9346 19.3355 14.1869C19.9445 14.4391 20.465 14.8663 20.8312 15.4144C21.1974 15.9624 21.3929 16.6068 21.3929 17.266C21.3919 18.1496 21.0404 18.9967 20.4156 19.6215C19.7908 20.2463 18.9437 20.5977 18.0601 20.5988ZM18.0601 15.2132C17.6541 15.2132 17.2572 15.3336 16.9196 15.5591C16.582 15.7847 16.3189 16.1053 16.1635 16.4804C16.0082 16.8555 15.9675 17.2682 16.0467 17.6664C16.1259 18.0646 16.3215 18.4304 16.6085 18.7175C16.8956 19.0046 17.2614 19.2001 17.6596 19.2793C18.0578 19.3585 18.4706 19.3179 18.8457 19.1625C19.2208 19.0071 19.5414 18.744 19.7669 18.4064C19.9925 18.0689 20.1129 17.672 20.1129 17.266C20.1122 16.7217 19.8957 16.2 19.5109 15.8152C19.1261 15.4303 18.6043 15.2138 18.0601 15.2132Z" fill="#202020"/>
</svg>
