<svg width="24" height="24" viewBox="0 0 24 24" fill="none" xmlns="http://www.w3.org/2000/svg">
<path d="M13.6809 20.313C11.5654 20.2974 9.54201 19.4454 8.05247 17.9431C6.56293 16.4408 5.72827 14.4102 5.73072 12.2946C5.73317 10.179 6.57254 8.15037 8.06555 6.65153C9.55857 5.15268 11.584 4.30541 13.6995 4.29472H13.7107L12.7001 3.30816C12.5812 3.18906 12.5139 3.02787 12.5129 2.85953C12.512 2.69118 12.5774 2.52924 12.695 2.40878C12.8126 2.28831 12.9729 2.21904 13.1412 2.21596C13.3095 2.21288 13.4723 2.27624 13.5942 2.39232L15.9638 4.704C16.065 4.80223 16.1309 4.93113 16.1513 5.07067C16.1717 5.21021 16.1454 5.35257 16.0765 5.47564C16.0077 5.59871 15.9001 5.6956 15.7705 5.75124C15.641 5.80689 15.4966 5.81818 15.36 5.78336C12.64 5.09088 9.74463 6.18048 8.15455 8.49504C7.16959 9.96586 6.80409 11.7656 7.1373 13.5042C7.47051 15.2427 8.47556 16.7798 9.93454 17.7822C11.3935 18.7846 13.1888 19.1715 14.9312 18.859C16.6735 18.5466 18.2225 17.5599 19.2422 16.113C20.832 13.7984 20.8102 10.705 19.1881 8.4144C19.09 8.27585 19.051 8.104 19.0796 7.93666C19.1082 7.76932 19.2021 7.62019 19.3406 7.52208C19.4792 7.42397 19.651 7.38492 19.8184 7.41351C19.9857 7.44211 20.1348 7.53601 20.2329 7.67456C21.0096 8.77149 21.4976 10.0462 21.6522 11.3813C21.8067 12.7164 21.6228 14.069 21.1173 15.3143C20.6118 16.5596 19.801 17.6577 18.7596 18.5074C17.7183 19.3571 16.4798 19.931 15.1584 20.1763C14.6711 20.267 14.1766 20.3128 13.6809 20.313Z" fill="#202020"/>
<path d="M10.702 8.86401V15.8218H9.43802V10.4736H9.38042C9.31237 10.5803 9.15375 10.693 8.90458 10.8118C8.65541 10.9307 8.33541 10.9901 7.94458 10.9901V9.97089C8.16535 9.97459 8.38434 9.93095 8.58682 9.84289C8.76279 9.76553 8.92493 9.65992 9.06682 9.53025C9.18621 9.42249 9.28974 9.29838 9.37434 9.16161C9.44666 9.03936 9.48623 8.93963 9.49306 8.86241L10.702 8.86401ZM15.0441 15.9542C14.2061 15.9542 13.5498 15.6383 13.0751 15.0064C12.6005 14.3745 12.3632 13.4892 12.3635 12.3504C12.3658 11.2133 12.6042 10.3323 13.0787 9.70721C13.5531 9.08214 14.2083 8.76907 15.0441 8.76801C15.8799 8.76801 16.5357 9.08118 17.0115 9.70752C17.4872 10.3339 17.7251 11.2144 17.7251 12.3491C17.7251 13.4909 17.4884 14.3777 17.015 15.0096C16.5416 15.6415 15.8846 15.9564 15.0441 15.9542ZM15.0441 14.8909C15.4793 14.8909 15.8231 14.6763 16.0755 14.247C16.3278 13.8178 16.4541 13.1852 16.4543 12.3491C16.452 11.5203 16.324 10.891 16.0703 10.4611C15.8167 10.0313 15.4741 9.81665 15.0425 9.81729C14.6122 9.81729 14.2709 10.0319 14.0185 10.4611C13.7661 10.8904 13.6388 11.5197 13.6364 12.3491C13.6339 13.185 13.7595 13.8176 14.0134 14.247C14.2672 14.6765 14.6108 14.8911 15.0441 14.8909Z" fill="#202020"/>
</svg>
