<svg width="24" height="24" viewBox="0 0 24 24" fill="none" xmlns="http://www.w3.org/2000/svg">
<path d="M13.213 20.313C11.0975 20.2973 9.07411 19.4453 7.5846 17.943C6.09508 16.4407 5.26045 14.41 5.26295 12.2945C5.26544 10.1789 6.10485 8.15022 7.5979 6.6514C9.09096 5.15259 11.1164 4.30536 13.2319 4.29472H13.2428L12.2322 3.30816C12.1133 3.18906 12.046 3.02787 12.045 2.85953C12.0441 2.69118 12.1095 2.52924 12.2271 2.40878C12.3447 2.28831 12.505 2.21904 12.6733 2.21596C12.8416 2.21288 13.0044 2.27624 13.1263 2.39232L15.4959 4.704C15.5967 4.80241 15.6622 4.93132 15.6822 5.07074C15.7023 5.21016 15.6758 5.35231 15.6069 5.47514C15.5379 5.59797 15.4304 5.69462 15.3009 5.75012C15.1715 5.80561 15.0273 5.81685 14.8908 5.78208C12.1708 5.0896 9.27544 6.1792 7.68536 8.49376C6.67499 9.96425 6.29016 11.7759 6.61551 13.5301C6.94086 15.2843 7.94975 16.8375 9.42024 17.8478C10.8907 18.8582 12.7024 19.243 14.4566 18.9177C16.2108 18.5923 17.764 17.5834 18.7743 16.113C20.3644 13.7984 20.3423 10.705 18.7206 8.4144C18.624 8.27584 18.5862 8.10473 18.6152 7.93837C18.6443 7.77201 18.7379 7.62388 18.8757 7.52627C19.0135 7.42865 19.1844 7.38946 19.3509 7.41724C19.5175 7.44502 19.6664 7.53751 19.765 7.67456C20.5417 8.77149 21.0297 10.0462 21.1843 11.3813C21.3388 12.7164 21.1549 14.069 20.6494 15.3143C20.1439 16.5596 19.3331 17.6577 18.2917 18.5074C17.2504 19.3571 16.0119 19.931 14.6905 20.1763C14.2032 20.267 13.7087 20.3128 13.213 20.313Z" fill="#202020"/>
<path d="M10.982 8.86401V15.8218H9.71805V10.4736H9.66045C9.59261 10.5803 9.434 10.693 9.18461 10.8119C8.93522 10.9307 8.61522 10.9901 8.22461 10.9901V9.97089C8.44527 9.97457 8.66416 9.93093 8.86653 9.84289C9.0425 9.76553 9.20464 9.65993 9.34653 9.53025C9.46592 9.4225 9.56945 9.29839 9.65405 9.16161C9.72637 9.03937 9.76594 8.93975 9.77277 8.86273L10.982 8.86401ZM15.1715 15.9168C14.7184 15.9168 14.313 15.8315 13.9555 15.6608C13.6148 15.5043 13.3207 15.2616 13.1024 14.9568C12.8902 14.6557 12.7737 14.2976 12.768 13.9293H13.991C13.9997 14.0653 14.0372 14.1979 14.1011 14.3183C14.165 14.4387 14.2538 14.5441 14.3616 14.6275C14.586 14.8076 14.8555 14.8976 15.1702 14.8976C15.5418 14.8976 15.8482 14.773 16.0893 14.5239C16.3303 14.2747 16.4499 13.9553 16.448 13.5658C16.4503 13.1715 16.328 12.8476 16.0809 12.5939C15.8339 12.3403 15.5191 12.2123 15.1366 12.2099C14.926 12.208 14.7171 12.2473 14.5216 12.3255C14.3397 12.3915 14.1755 12.4984 14.0416 12.6381L12.9033 12.4512L13.2688 8.86401H17.3052V9.91713H14.3116L14.112 11.7616H14.1526C14.2819 11.6074 14.4643 11.4804 14.6998 11.3808C14.9452 11.2796 15.2085 11.229 15.4739 11.232C15.895 11.232 16.271 11.3311 16.6019 11.5293C16.9312 11.7264 17.2012 12.0087 17.3833 12.3466C17.5736 12.693 17.6688 13.0894 17.6688 13.5357C17.6688 13.9954 17.5628 14.4048 17.351 14.7639C17.1411 15.1214 16.8366 15.4142 16.471 15.6099C16.096 15.8147 15.6628 15.917 15.1715 15.9168Z" fill="#202020"/>
</svg>
