<svg width="24" height="24" viewBox="0 0 24 24" fill="none" xmlns="http://www.w3.org/2000/svg">
<path d="M11.9959 15.9168C11.5428 15.9168 11.1375 15.8315 10.7799 15.6608C10.4392 15.5043 10.1453 15.2617 9.92711 14.9568C9.71589 14.6559 9.59984 14.2985 9.59399 13.9309H10.8161C10.8245 14.0669 10.8619 14.1996 10.9258 14.32C10.9896 14.4404 11.0784 14.5458 11.1863 14.6291C11.4105 14.8092 11.6801 14.8992 11.995 14.8992C12.3666 14.8992 12.6729 14.7746 12.914 14.5255C13.1551 14.2763 13.2746 13.9569 13.2727 13.5674C13.2748 13.1731 13.1525 12.8492 12.9057 12.5955C12.6588 12.3419 12.344 12.2139 11.961 12.2115C11.7505 12.2096 11.5415 12.2489 11.346 12.3271C11.1641 12.3931 10.9999 12.5 10.866 12.6397L9.72775 12.4528L10.0932 8.86401H14.1297V9.91713H11.1361L10.9354 11.7623H10.9761C11.1041 11.608 11.2864 11.4811 11.523 11.3815C11.7687 11.2798 12.0324 11.229 12.2983 11.232C12.7199 11.232 13.0959 11.3311 13.4263 11.5293C13.7557 11.7261 14.0258 12.0082 14.2081 12.3459C14.3982 12.6924 14.4932 13.0888 14.4932 13.5351C14.4932 13.9948 14.3874 14.4042 14.1758 14.7632C13.9657 15.1207 13.6612 15.4135 13.2958 15.6093C12.9207 15.8145 12.4874 15.917 11.9959 15.9168Z" fill="#202020"/>
<path d="M11.4445 20.313C9.32897 20.2973 7.30556 19.4453 5.81604 17.943C4.32652 16.4407 3.4919 14.41 3.49439 12.2944C3.49688 10.1789 4.3363 8.15021 5.82935 6.65139C7.3224 5.15258 9.34782 4.30536 11.4634 4.29471H11.4746L10.464 3.30815C10.4026 3.24973 10.3535 3.17971 10.3194 3.10215C10.2853 3.02459 10.267 2.94104 10.2654 2.85633C10.2639 2.77162 10.2791 2.68745 10.3104 2.60869C10.3416 2.52994 10.3882 2.45817 10.4473 2.39754C10.5065 2.33692 10.5772 2.28865 10.6551 2.25554C10.7331 2.22242 10.8169 2.20512 10.9016 2.20463C10.9863 2.20414 11.0703 2.22048 11.1487 2.2527C11.227 2.28492 11.2982 2.33237 11.3581 2.39231L13.728 4.70399C13.8287 4.80239 13.8942 4.93126 13.9142 5.07063C13.9343 5.21 13.9078 5.35209 13.8389 5.47489C13.77 5.59769 13.6626 5.69435 13.5332 5.74988C13.4038 5.80542 13.2597 5.81673 13.1232 5.78207C10.4032 5.08959 7.50753 6.17919 5.91777 8.49375C4.9074 9.96411 4.52251 11.7756 4.84777 13.5298C5.17304 15.2839 6.18181 16.837 7.65217 17.8474C9.12253 18.8577 10.934 19.2426 12.6882 18.9173C14.4423 18.5921 15.9954 17.5833 17.0058 16.113C18.5958 13.7984 18.5738 10.705 16.952 8.41439C16.8555 8.27583 16.8176 8.10472 16.8467 7.93836C16.8757 7.772 16.9694 7.62388 17.1072 7.52626C17.245 7.42864 17.4158 7.38946 17.5824 7.41723C17.749 7.44501 17.8978 7.5375 17.9965 7.67455C18.7731 8.77146 19.2612 10.0462 19.4157 11.3813C19.5703 12.7163 19.3864 14.0688 18.8809 15.3142C18.3755 16.5595 17.5647 17.6576 16.5234 18.5073C15.4821 19.357 14.2437 19.931 12.9222 20.1763C12.4349 20.267 11.9402 20.3128 11.4445 20.313Z" fill="#202020"/>
</svg>
