<svg width="24" height="24" viewBox="0 0 24 24" fill="none" xmlns="http://www.w3.org/2000/svg">
<path d="M17.8969 20.4557H7.83294C6.92515 20.4547 6.05483 20.0936 5.41292 19.4517C4.77102 18.8098 4.40995 17.9395 4.40894 17.0317V6.96801C4.40995 6.06022 4.77102 5.1899 5.41292 4.548C6.05483 3.90609 6.92515 3.54502 7.83294 3.54401H17.8969C18.8048 3.54494 19.6751 3.90598 20.317 4.5479C20.959 5.18982 21.32 6.06019 21.3209 6.96801V17.032C21.3199 17.9398 20.9588 18.8101 20.3169 19.4519C19.675 20.0938 18.8047 20.4548 17.8969 20.4557ZM7.83294 4.82433C7.26447 4.82483 6.71943 5.05088 6.31746 5.45285C5.91549 5.85482 5.68944 6.39986 5.68894 6.96833V17.0323C5.68944 17.6008 5.91549 18.1458 6.31746 18.5478C6.71943 18.9498 7.26447 19.1758 7.83294 19.1763H17.8969C18.4654 19.1758 19.0104 18.9498 19.4124 18.5478C19.8144 18.1458 20.0404 17.6008 20.0409 17.0323V6.96801C20.0404 6.39954 19.8144 5.8545 19.4124 5.45253C19.0104 5.05056 18.4654 4.82451 17.8969 4.82401L7.83294 4.82433Z" fill="#202020"/>
<path d="M5.04995 16.9872C4.91435 16.9872 4.78224 16.9442 4.67266 16.8644C4.56309 16.7845 4.48172 16.6719 4.44028 16.5428C4.39885 16.4136 4.39949 16.2747 4.44212 16.146C4.48475 16.0173 4.56716 15.9054 4.67747 15.8265L10.2624 11.8374C10.6808 11.5384 11.1925 11.3993 11.7047 11.4454C12.2169 11.4915 12.6955 11.7197 13.0538 12.0886L13.4743 12.5216C13.6279 12.6787 13.8351 12.7721 14.0546 12.7831C14.2741 12.7942 14.4897 12.722 14.6583 12.5811L20.2685 7.86143C20.3328 7.80732 20.4072 7.76642 20.4873 7.74104C20.5674 7.71567 20.6518 7.70633 20.7355 7.71355C20.8192 7.72077 20.9007 7.74441 20.9753 7.78313C21.0499 7.82184 21.1162 7.87487 21.1703 7.93919C21.2244 8.0035 21.2653 8.07785 21.2907 8.15797C21.316 8.2381 21.3254 8.32244 21.3181 8.40617C21.3109 8.48991 21.2873 8.5714 21.2486 8.646C21.2099 8.7206 21.1568 8.78684 21.0925 8.84095L15.4819 13.5606C15.0652 13.9088 14.5326 14.087 13.9903 14.0597C13.4479 14.0324 12.9358 13.8017 12.5562 13.4134L12.1357 12.9805C11.9914 12.8307 11.7979 12.7379 11.5908 12.7193C11.3836 12.7007 11.1767 12.7574 11.008 12.879L5.42147 16.8681C5.31303 16.9455 5.18316 16.9871 5.04995 16.9872Z" fill="#202020"/>
<path d="M14.1298 11.52C13.753 11.52 13.3847 11.4083 13.0715 11.199C12.7582 10.9896 12.514 10.6921 12.3699 10.344C12.2257 9.99595 12.188 9.61293 12.2615 9.2434C12.335 8.87388 12.5164 8.53445 12.7828 8.26803C13.0492 8.00162 13.3886 7.82019 13.7582 7.74669C14.1277 7.67318 14.5107 7.71091 14.8588 7.85509C15.2069 7.99927 15.5044 8.24344 15.7137 8.55671C15.923 8.86997 16.0348 9.23828 16.0348 9.61504C16.0342 10.1201 15.8333 10.6043 15.4762 10.9614C15.119 11.3185 14.6349 11.5194 14.1298 11.52ZM14.1298 8.99008C14.0062 8.99008 13.8854 9.02674 13.7826 9.09541C13.6798 9.16408 13.5997 9.26169 13.5524 9.37588C13.5051 9.49008 13.4927 9.61574 13.5169 9.73697C13.541 9.8582 13.6005 9.96955 13.6879 10.057C13.7753 10.1444 13.8867 10.2039 14.0079 10.228C14.1291 10.2521 14.2548 10.2397 14.369 10.1924C14.4832 10.1451 14.5808 10.065 14.6494 9.96225C14.7181 9.85948 14.7548 9.73865 14.7548 9.61504C14.7541 9.44968 14.688 9.29131 14.5709 9.17456C14.4538 9.05781 14.2952 8.99217 14.1298 8.992V8.99008Z" fill="#202020"/>
</svg>
