<svg width="24" height="24" viewBox="0 0 24 24" fill="none" xmlns="http://www.w3.org/2000/svg">
<path d="M17.7236 20.4557H7.6596C6.75178 20.4548 5.88141 20.0937 5.23949 19.4518C4.59757 18.8099 4.23653 17.9395 4.2356 17.0317V6.96801C4.23653 6.06019 4.59757 5.18982 5.23949 4.5479C5.88141 3.90598 6.75178 3.54494 7.6596 3.54401H17.1706C17.3404 3.54401 17.5032 3.61143 17.6232 3.73146C17.7432 3.85148 17.8106 4.01427 17.8106 4.18401C17.8106 4.35374 17.7432 4.51653 17.6232 4.63655C17.5032 4.75658 17.3404 4.82401 17.1706 4.82401H7.6596C7.09113 4.82451 6.54609 5.05056 6.14412 5.45253C5.74215 5.8545 5.5161 6.39954 5.5156 6.96801V17.032C5.5161 17.6005 5.74215 18.1455 6.14412 18.5475C6.54609 18.9494 7.09113 19.1755 7.6596 19.176H17.7236C18.2921 19.1755 18.8371 18.9494 19.2391 18.5475C19.641 18.1455 19.8671 17.6005 19.8676 17.032V8.35201C19.8676 8.18227 19.935 8.01948 20.055 7.89946C20.1751 7.77943 20.3379 7.71201 20.5076 7.71201C20.6773 7.71201 20.8401 7.77943 20.9601 7.89946C21.0802 8.01948 21.1476 8.18227 21.1476 8.35201V17.032C21.1466 17.9398 20.7855 18.8101 20.1436 19.4519C19.5017 20.0938 18.6314 20.4548 17.7236 20.4557Z" fill="#202020"/>
<path d="M4.87636 16.9872C4.74076 16.9872 4.60865 16.9442 4.49908 16.8644C4.3895 16.7845 4.30813 16.6719 4.2667 16.5428C4.22526 16.4136 4.2259 16.2747 4.26853 16.146C4.31116 16.0173 4.39357 15.9054 4.50388 15.8265L10.3544 11.648C10.6989 11.4019 11.1202 11.2874 11.5418 11.3254C11.9634 11.3634 12.3575 11.5513 12.6524 11.855L13.5484 12.776C13.635 12.8642 13.7517 12.9165 13.8752 12.9224C13.9987 12.9283 14.1199 12.8875 14.2146 12.808L20.0959 7.86143C20.2258 7.75216 20.3938 7.69897 20.5629 7.71355C20.732 7.72813 20.8884 7.8093 20.9976 7.93919C21.1069 8.06908 21.1601 8.23706 21.1455 8.40617C21.1309 8.57529 21.0498 8.73168 20.9199 8.84095L15.0373 13.7885C14.6943 14.0751 14.2558 14.2218 13.8094 14.1993C13.363 14.1768 12.9415 13.9868 12.629 13.6672L11.733 12.7462C11.6517 12.6617 11.5426 12.6093 11.4258 12.5988C11.309 12.5883 11.1923 12.6203 11.0972 12.689L5.24788 16.8681C5.13945 16.9455 5.00957 16.9871 4.87636 16.9872Z" fill="#202020"/>
<path d="M13.9565 11.52C13.5797 11.52 13.2114 11.4083 12.8981 11.1989C12.5849 10.9896 12.3407 10.6921 12.1965 10.344C12.0523 9.99594 12.0146 9.61291 12.0881 9.24339C12.1616 8.87386 12.3431 8.53443 12.6095 8.26802C12.8759 8.00161 13.2153 7.82017 13.5848 7.74667C13.9544 7.67317 14.3374 7.71089 14.6855 7.85507C15.0336 7.99926 15.3311 8.24342 15.5404 8.55669C15.7497 8.86996 15.8614 9.23826 15.8614 9.61503C15.8608 10.1201 15.66 10.6043 15.3028 10.9614C14.9457 11.3185 14.4615 11.5194 13.9565 11.52ZM13.9565 8.99007C13.8329 8.99007 13.712 9.02672 13.6093 9.09539C13.5065 9.16406 13.4264 9.26167 13.3791 9.37587C13.3318 9.49006 13.3194 9.61572 13.3435 9.73695C13.3676 9.85818 13.4272 9.96954 13.5146 10.0569C13.602 10.1443 13.7133 10.2039 13.8346 10.228C13.9558 10.2521 14.0814 10.2397 14.1956 10.1924C14.3098 10.1451 14.4074 10.065 14.4761 9.96224C14.5448 9.85946 14.5814 9.73863 14.5814 9.61503C14.5808 9.44966 14.5146 9.29129 14.3975 9.17454C14.2804 9.05779 14.1218 8.99216 13.9565 8.99199V8.99007ZM19.7363 7.21791C19.6494 7.21793 19.5635 7.20027 19.4836 7.16599C19.4038 7.13172 19.3318 7.08155 19.272 7.01855L17.984 5.66399C17.9261 5.60305 17.8808 5.53132 17.8506 5.45287C17.8205 5.37442 17.806 5.2908 17.8082 5.20678C17.8104 5.12276 17.829 5.03999 17.8632 4.96319C17.8973 4.8864 17.9463 4.81708 18.0072 4.75919C18.1303 4.64228 18.2947 4.57905 18.4644 4.5834C18.5484 4.58555 18.6312 4.60423 18.708 4.63838C18.7848 4.67252 18.8541 4.72145 18.912 4.78239L19.776 5.69023L21.9226 3.79551C21.9856 3.73989 22.059 3.69723 22.1385 3.66997C22.218 3.64271 22.3021 3.63138 22.386 3.63662C22.4699 3.64187 22.552 3.66359 22.6275 3.70054C22.703 3.73749 22.7705 3.78895 22.8261 3.85199C22.8817 3.91502 22.9244 3.98839 22.9516 4.06791C22.9789 4.14743 22.9902 4.23155 22.985 4.31545C22.9797 4.39935 22.958 4.48139 22.921 4.5569C22.8841 4.6324 22.8326 4.69989 22.7696 4.75551L20.1606 7.05951C20.0432 7.16226 19.8923 7.21859 19.7363 7.21791Z" fill="#202020"/>
</svg>
