<svg width="24" height="24" viewBox="0 0 24 24" fill="none" xmlns="http://www.w3.org/2000/svg">
<path d="M18.1924 20.4557H8.1281C7.22029 20.4548 6.34992 20.0937 5.708 19.4518C5.06607 18.8099 4.70503 17.9395 4.7041 17.0317V6.96801C4.70503 6.06019 5.06607 5.18982 5.708 4.5479C6.34992 3.90598 7.22029 3.54494 8.1281 3.54401H17.6398C17.8095 3.54401 17.9723 3.61143 18.0923 3.73146C18.2124 3.85148 18.2798 4.01427 18.2798 4.18401C18.2798 4.35374 18.2124 4.51653 18.0923 4.63655C17.9723 4.75658 17.8095 4.82401 17.6398 4.82401H8.1281C7.55963 4.82451 7.01459 5.05056 6.61263 5.45253C6.21066 5.8545 5.98461 6.39954 5.9841 6.96801V17.032C5.98461 17.6005 6.21066 18.1455 6.61263 18.5475C7.01459 18.9494 7.55963 19.1755 8.1281 19.176H18.1921C18.7606 19.1755 19.3056 18.9494 19.7076 18.5475C20.1095 18.1455 20.3356 17.6005 20.3361 17.032V8.35201C20.3361 8.18227 20.4035 8.01948 20.5236 7.89946C20.6436 7.77943 20.8064 7.71201 20.9761 7.71201C21.1458 7.71201 21.3086 7.77943 21.4286 7.89946C21.5487 8.01948 21.6161 8.18227 21.6161 8.35201V17.032C21.6151 17.9397 21.254 18.8099 20.6122 19.4518C19.9704 20.0936 19.1001 20.4547 18.1924 20.4557Z" fill="#202020"/>
<path d="M5.34568 16.9872C5.21005 16.9873 5.07789 16.9444 4.96827 16.8645C4.85864 16.7847 4.77722 16.6721 4.73574 16.5429C4.69426 16.4138 4.69488 16.2748 4.7375 16.1461C4.78012 16.0173 4.86255 15.9054 4.97288 15.8266L10.4746 11.8966C10.9162 11.5812 11.4563 11.4346 11.9968 11.4832C12.5373 11.5319 13.0424 11.7727 13.4206 12.1619L13.6926 12.4422C13.8672 12.6208 14.1027 12.727 14.3521 12.7395C14.6016 12.752 14.8466 12.67 15.0382 12.5098L20.5639 7.86144C20.6938 7.75213 20.8618 7.6989 21.0309 7.71345C21.2001 7.728 21.3565 7.80915 21.4658 7.93904C21.5751 8.06893 21.6284 8.23693 21.6138 8.40607C21.5993 8.57522 21.5181 8.73165 21.3882 8.84096L15.8622 13.4893C15.4224 13.8567 14.8603 14.0447 14.2879 14.016C13.7156 13.9872 13.1752 13.7437 12.7745 13.3341L12.5025 13.0538C12.3382 12.8832 12.118 12.7776 11.8821 12.7564C11.6463 12.7352 11.4107 12.7998 11.2186 12.9382L5.71688 16.8682C5.60861 16.9456 5.47881 16.9873 5.34568 16.9872Z" fill="#202020"/>
<path d="M14.9155 11.52C14.5387 11.52 14.1704 11.4083 13.8571 11.199C13.5439 10.9896 13.2997 10.6921 13.1555 10.344C13.0113 9.99596 12.9736 9.61293 13.0471 9.24341C13.1206 8.87388 13.302 8.53445 13.5684 8.26804C13.8349 8.00162 14.1743 7.82019 14.5438 7.74669C14.9133 7.67319 15.2964 7.71091 15.6445 7.85509C15.9925 7.99927 16.2901 8.24344 16.4994 8.55671C16.7087 8.86998 16.8204 9.23828 16.8204 9.61505C16.8198 10.1201 16.6189 10.6043 16.2618 10.9614C15.9047 11.3185 15.4205 11.5194 14.9155 11.52ZM14.9155 8.99009C14.7919 8.99009 14.671 9.02674 14.5682 9.09541C14.4655 9.16408 14.3854 9.26169 14.3381 9.37588C14.2908 9.49008 14.2784 9.61574 14.3025 9.73697C14.3266 9.8582 14.3861 9.96956 14.4735 10.057C14.5609 10.1444 14.6723 10.2039 14.7935 10.228C14.9148 10.2521 15.0404 10.2397 15.1546 10.1924C15.2688 10.1451 15.3664 10.065 15.4351 9.96226C15.5038 9.85948 15.5404 9.73865 15.5404 9.61505C15.5397 9.44968 15.4736 9.29131 15.3565 9.17456C15.2394 9.05781 15.0808 8.99217 14.9155 8.99201V8.99009ZM19.7871 6.12289C19.6606 6.12286 19.5369 6.08531 19.4316 6.01498C19.3264 5.94466 19.2444 5.84471 19.196 5.72778C19.1476 5.61086 19.1349 5.4822 19.1596 5.35807C19.1842 5.23394 19.2452 5.11991 19.3347 5.03041L20.4572 3.90785C20.572 3.79314 20.7261 3.72633 20.8883 3.72092C21.0505 3.71552 21.2086 3.77192 21.3308 3.87873L22.5196 4.91777C22.6457 5.02996 22.7224 5.18743 22.7329 5.35588C22.7435 5.52433 22.6871 5.69013 22.576 5.81719C22.4649 5.94424 22.3081 6.02227 22.1397 6.03427C21.9713 6.04628 21.8051 5.99129 21.6771 5.88129L20.9388 5.23617L20.2396 5.93537C20.1803 5.99494 20.1098 6.04218 20.0321 6.07437C19.9545 6.10655 19.8712 6.12304 19.7871 6.12289Z" fill="#202020"/>
<path d="M20.9098 7.37408C20.74 7.37408 20.5772 7.30665 20.4572 7.18663C20.3372 7.06661 20.2698 6.90382 20.2698 6.73408V4.36032C20.2698 4.19058 20.3372 4.0278 20.4572 3.90777C20.5772 3.78775 20.74 3.72032 20.9098 3.72032C21.0795 3.72032 21.2423 3.78775 21.3623 3.90777C21.4823 4.0278 21.5498 4.19058 21.5498 4.36032V6.73408C21.5498 6.90382 21.4823 7.06661 21.3623 7.18663C21.2423 7.30665 21.0795 7.37408 20.9098 7.37408Z" fill="#202020"/>
</svg>
