<svg width="24" height="24" viewBox="0 0 24 24" fill="none" xmlns="http://www.w3.org/2000/svg">
<path d="M17.4677 20.4557H7.40374C6.49595 20.4547 5.62563 20.0936 4.98373 19.4517C4.34182 18.8098 3.98075 17.9395 3.97974 17.0317V6.96801C3.98075 6.06022 4.34182 5.1899 4.98373 4.548C5.62563 3.90609 6.49595 3.54502 7.40374 3.54401H16.9148C17.0845 3.54401 17.2473 3.61143 17.3673 3.73146C17.4873 3.85148 17.5548 4.01427 17.5548 4.18401C17.5548 4.35374 17.4873 4.51653 17.3673 4.63655C17.2473 4.75658 17.0845 4.82401 16.9148 4.82401H7.40374C6.83527 4.82451 6.29023 5.05056 5.88826 5.45253C5.48629 5.8545 5.26024 6.39954 5.25974 6.96801V17.032C5.26024 17.6005 5.48629 18.1455 5.88826 18.5475C6.29023 18.9494 6.83527 19.1755 7.40374 19.176H17.4677C18.0362 19.1755 18.5812 18.9494 18.9832 18.5475C19.3852 18.1455 19.6112 17.6005 19.6117 17.032V8.35201C19.6117 8.18227 19.6792 8.01948 19.7992 7.89946C19.9192 7.77943 20.082 7.71201 20.2517 7.71201C20.4215 7.71201 20.5843 7.77943 20.7043 7.89946C20.8243 8.01948 20.8917 8.18227 20.8917 8.35201V17.032C20.8907 17.9398 20.5296 18.8101 19.8877 19.4519C19.2458 20.0938 18.3755 20.4548 17.4677 20.4557Z" fill="#202020"/>
<path d="M4.62075 16.9872C4.48515 16.9873 4.35304 16.9443 4.24346 16.8644C4.13389 16.7845 4.05252 16.6719 4.01108 16.5428C3.96965 16.4137 3.97029 16.2747 4.01292 16.146C4.05555 16.0173 4.13796 15.9054 4.24827 15.8266L10.0479 11.6829C10.4062 11.4271 10.8444 11.3081 11.2828 11.3476C11.7213 11.387 12.1311 11.5823 12.438 11.8979L13.2441 12.728C13.3431 12.8293 13.4766 12.8895 13.618 12.8966C13.7595 12.9038 13.8984 12.8573 14.007 12.7664L19.8399 7.86145C19.9698 7.75218 20.1378 7.69898 20.3069 7.71356C20.476 7.72815 20.6324 7.80931 20.7417 7.93921C20.851 8.0691 20.9042 8.23708 20.8896 8.40619C20.875 8.5753 20.7938 8.7317 20.6639 8.84097L14.8323 13.7459C14.4755 14.0441 14.0195 14.1967 13.5551 14.1734C13.0907 14.15 12.6523 13.9523 12.3273 13.6198L11.5199 12.7901C11.4269 12.6933 11.302 12.6334 11.1682 12.6213C11.0344 12.6093 10.9008 12.6459 10.7919 12.7245L4.99195 16.8682C4.8836 16.9455 4.75385 16.9871 4.62075 16.9872Z" fill="#202020"/>
<path d="M13.4323 11.52C13.0555 11.52 12.6872 11.4083 12.374 11.199C12.0607 10.9896 11.8165 10.6921 11.6724 10.344C11.5282 9.99595 11.4904 9.61293 11.5639 9.2434C11.6375 8.87388 11.8189 8.53445 12.0853 8.26803C12.3517 8.00162 12.6911 7.82019 13.0607 7.74668C13.4302 7.67318 13.8132 7.71091 14.1613 7.85509C14.5094 7.99927 14.8069 8.24343 15.0162 8.5567C15.2255 8.86997 15.3373 9.23828 15.3373 9.61504C15.3367 10.1201 15.1358 10.6043 14.7787 10.9614C14.4215 11.3185 13.9374 11.5194 13.4323 11.52ZM13.4323 8.99008C13.3087 8.99008 13.1879 9.02673 13.0851 9.09541C12.9823 9.16408 12.9022 9.26168 12.8549 9.37588C12.8076 9.49008 12.7952 9.61573 12.8194 9.73697C12.8435 9.8582 12.903 9.96955 12.9904 10.057C13.0778 10.1444 13.1892 10.2039 13.3104 10.228C13.4316 10.2521 13.5573 10.2397 13.6715 10.1924C13.7857 10.1451 13.8833 10.065 13.9519 9.96225C14.0206 9.85948 14.0573 9.73865 14.0573 9.61504C14.0566 9.44968 13.9905 9.29131 13.8734 9.17455C13.7562 9.0578 13.5977 8.99217 13.4323 8.992V8.99008ZM18.7251 7.872C18.7056 7.872 18.6861 7.872 18.6665 7.86944L17.4595 7.7584C17.3707 7.75024 17.2845 7.7236 17.2066 7.68019C17.1287 7.63678 17.0607 7.57756 17.007 7.50633C16.9533 7.4351 16.9151 7.35344 16.8948 7.26657C16.8746 7.17971 16.8727 7.08956 16.8893 7.00192L17.1264 5.74848C17.1558 5.59283 17.2419 5.45361 17.368 5.35776L19.864 3.46048C19.9314 3.40941 20.0082 3.37219 20.09 3.35097C20.1718 3.32975 20.2571 3.32495 20.3407 3.33685C20.4244 3.34875 20.505 3.37711 20.5776 3.4203C20.6503 3.46349 20.7137 3.52065 20.7641 3.58848L21.792 4.96416C21.8424 5.03176 21.8789 5.10865 21.8995 5.19042C21.9201 5.27219 21.9244 5.35722 21.912 5.44063C21.8996 5.52404 21.8709 5.60419 21.8275 5.67646C21.784 5.74873 21.7267 5.8117 21.6589 5.86176L19.104 7.74592C18.9944 7.82728 18.8616 7.87146 18.7251 7.872ZM18.2771 6.54816L18.5405 6.57248L20.3808 5.21472L20.1248 4.8704L18.3389 6.22784L18.2771 6.54816Z" fill="#202020"/>
</svg>
