<svg width="24" height="24" viewBox="0 0 24 24" fill="none" xmlns="http://www.w3.org/2000/svg">
<path d="M18.75 3H5.25C4.25544 3 3.30161 3.39509 2.59835 4.09835C1.89509 4.80161 1.5 5.75544 1.5 6.75V17.25C1.49889 18.2141 1.86918 19.1417 2.53397 19.84C3.19876 20.5383 4.10697 20.9537 5.07 21H18.75C19.7446 21 20.6984 20.6049 21.4017 19.9016C22.1049 19.1984 22.5 18.2446 22.5 17.25V6.75C22.5 5.75544 22.1049 4.80161 21.4017 4.09835C20.6984 3.39509 19.7446 3 18.75 3ZM3 17.25V6.75C3 6.15326 3.23706 5.58097 3.65901 5.15901C4.08097 4.73705 4.65327 4.5 5.25 4.5H18.75C19.3467 4.5 19.919 4.73705 20.341 5.15901C20.763 5.58097 21 6.15326 21 6.75V13.83L18.3 11.1225C17.9517 10.7733 17.5378 10.4962 17.0823 10.3072C16.6267 10.1181 16.1383 10.0208 15.645 10.0208C15.1517 10.0208 14.6633 10.1181 14.2078 10.3072C13.7522 10.4962 13.3383 10.7733 12.99 11.1225L4.695 19.425C4.21122 19.3019 3.78213 19.0213 3.47527 18.6276C3.16841 18.2338 3.00122 17.7492 3 17.25ZM21 17.25C21 17.8467 20.763 18.419 20.341 18.841C19.919 19.2629 19.3467 19.5 18.75 19.5H6.75L14.07 12.18C14.4919 11.7586 15.0638 11.522 15.66 11.522C16.2563 11.522 16.8281 11.7586 17.25 12.18L21 15.93V17.25Z" fill="#202020"/>
<path d="M6 9C6.82843 9 7.5 8.32843 7.5 7.5C7.5 6.67157 6.82843 6 6 6C5.17157 6 4.5 6.67157 4.5 7.5C4.5 8.32843 5.17157 9 6 9Z" fill="#202020"/>
</svg>
