<svg width="24" height="24" viewBox="0 0 24 24" fill="none" xmlns="http://www.w3.org/2000/svg">
<path d="M17.477 18.1562H6.52275C5.73305 18.1553 4.97593 17.8413 4.41753 17.2829C3.85912 16.7245 3.54504 15.9673 3.54419 15.1776V8.82243C3.54504 8.03273 3.85912 7.27561 4.41753 6.71721C4.97593 6.1588 5.73305 5.84472 6.52275 5.84387H17.477C18.2667 5.84472 19.0238 6.1588 19.5822 6.71721C20.1406 7.27561 20.4547 8.03273 20.4556 8.82243V15.1776C20.4547 15.9673 20.1406 16.7245 19.5822 17.2829C19.0238 17.8413 18.2667 18.1553 17.477 18.1562ZM6.52275 7.12387C6.07242 7.12438 5.64068 7.3035 5.32225 7.62193C5.00382 7.94036 4.8247 8.3721 4.82419 8.82243V15.1776C4.8247 15.628 5.00382 16.0597 5.32225 16.3781C5.64068 16.6966 6.07242 16.8757 6.52275 16.8762H17.477C17.9273 16.8757 18.3591 16.6966 18.6775 16.3781C18.9959 16.0597 19.175 15.628 19.1756 15.1776V8.82243C19.175 8.3721 18.9959 7.94036 18.6775 7.62193C18.3591 7.3035 17.9273 7.12438 17.477 7.12387H6.52275Z" fill="#202020"/>
<path d="M9.33812 13.5885C9.16844 13.5885 9.00569 13.5212 8.88564 13.4013L6.9698 11.4851C6.90867 11.4261 6.85992 11.3555 6.82637 11.2774C6.79283 11.1993 6.77518 11.1153 6.77444 11.0303C6.7737 10.9453 6.78989 10.8611 6.82207 10.7824C6.85425 10.7038 6.90177 10.6323 6.96187 10.5722C7.02196 10.5121 7.09341 10.4646 7.17207 10.4324C7.25072 10.4002 7.335 10.3841 7.41998 10.3848C7.50495 10.3855 7.58893 10.4032 7.66702 10.4367C7.7451 10.4703 7.81572 10.519 7.87476 10.5802L9.79188 12.496C9.88138 12.5855 9.94232 12.6996 9.96699 12.8237C9.99166 12.9479 9.97896 13.0766 9.93049 13.1935C9.88202 13.3105 9.79996 13.4104 9.69469 13.4807C9.58942 13.551 9.46567 13.5885 9.33908 13.5885H9.33812Z" fill="#202020"/>
<path d="M7.40354 13.6074C7.27698 13.6074 7.15326 13.5698 7.04804 13.4995C6.94282 13.4292 6.86081 13.3292 6.81238 13.2123C6.76395 13.0954 6.75128 12.9667 6.77596 12.8426C6.80065 12.7184 6.86158 12.6044 6.95106 12.5149L8.85218 10.6138C8.97235 10.4938 9.13528 10.4264 9.30511 10.4266C9.47494 10.4267 9.63777 10.4943 9.75778 10.6144C9.87778 10.7346 9.94513 10.8975 9.94501 11.0674C9.94489 11.2372 9.87731 11.4 9.75714 11.52L7.85602 13.4199C7.79671 13.4794 7.72619 13.5267 7.64853 13.5589C7.57086 13.5911 7.4876 13.6075 7.40354 13.6074ZM15.3616 14.0119C15.1919 14.0119 15.0291 13.9444 14.9091 13.8244C14.789 13.7044 14.7216 13.5416 14.7216 13.3719V13.0759C14.7216 12.9061 14.789 12.7433 14.9091 12.6233C15.0291 12.5033 15.1919 12.4359 15.3616 12.4359C15.5314 12.4359 15.6941 12.5033 15.8142 12.6233C15.9342 12.7433 16.0016 12.9061 16.0016 13.0759V13.3719C16.0016 13.5416 15.9342 13.7044 15.8142 13.8244C15.6941 13.9444 15.5314 14.0119 15.3616 14.0119ZM15.3616 11.5623C15.1919 11.5623 15.0291 11.4948 14.9091 11.3748C14.789 11.2548 14.7216 11.092 14.7216 10.9223V10.6621C14.7216 10.4924 14.789 10.3296 14.9091 10.2096C15.0291 10.0895 15.1919 10.0221 15.3616 10.0221C15.5314 10.0221 15.6941 10.0895 15.8142 10.2096C15.9342 10.3296 16.0016 10.4924 16.0016 10.6621V10.9223C16.0016 11.092 15.9342 11.2548 15.8142 11.3748C15.6941 11.4948 15.5314 11.5623 15.3616 11.5623ZM14.208 12.657H13.9792C13.8095 12.657 13.6467 12.5896 13.5267 12.4695C13.4066 12.3495 13.3392 12.1867 13.3392 12.017C13.3392 11.8473 13.4066 11.6845 13.5267 11.5644C13.6467 11.4444 13.8095 11.377 13.9792 11.377H14.208C14.3778 11.377 14.5405 11.4444 14.6606 11.5644C14.7806 11.6845 14.848 11.8473 14.848 12.017C14.848 12.1867 14.7806 12.3495 14.6606 12.4695C14.5405 12.5896 14.3778 12.657 14.208 12.657ZM16.6688 12.657H16.4282C16.2584 12.657 16.0957 12.5896 15.9756 12.4695C15.8556 12.3495 15.7882 12.1867 15.7882 12.017C15.7882 11.8473 15.8556 11.6845 15.9756 11.5644C16.0957 11.4444 16.2584 11.377 16.4282 11.377H16.6688C16.8386 11.377 17.0013 11.4444 17.1214 11.5644C17.2414 11.6845 17.3088 11.8473 17.3088 12.017C17.3088 12.1867 17.2414 12.3495 17.1214 12.4695C17.0013 12.5896 16.8386 12.657 16.6688 12.657ZM12.5664 6.78179L11.4336 6.18563L11.4307 6.19107C11.5007 6.04034 11.5398 5.87714 11.5456 5.71107C11.5498 5.44483 11.4333 5.25827 11.1687 5.10627C10.1328 4.51203 10.193 3.31427 10.3687 2.76355L11.5875 3.15395L11.5895 3.14851C11.5706 3.21251 11.4157 3.77283 11.8048 3.99619C12.497 4.39299 12.8583 5.03363 12.8227 5.79939C12.8045 6.14081 12.7174 6.475 12.5664 6.78179Z" fill="#202020"/>
</svg>
