<svg width="24" height="24" viewBox="0 0 24 24" fill="none" xmlns="http://www.w3.org/2000/svg">
<path d="M15.7897 20.4557H8.21022C7.37884 20.4546 6.58182 20.1238 5.99395 19.5359C5.40607 18.9481 5.07532 18.1511 5.07422 17.3197V6.68095C5.07532 5.84957 5.40607 5.05256 5.99395 4.46468C6.58182 3.87681 7.37884 3.54605 8.21022 3.54495H15.7897C16.6211 3.54605 17.4181 3.87681 18.006 4.46468C18.5939 5.05256 18.9246 5.84957 18.9257 6.68095V17.319C18.9248 18.1505 18.5941 18.9477 18.0062 19.5357C17.4183 20.1237 16.6212 20.4546 15.7897 20.4557ZM8.21022 4.82431C7.71819 4.82499 7.2465 5.02075 6.89858 5.36867C6.55066 5.71659 6.3549 6.18828 6.35422 6.68031V17.319C6.3549 17.8111 6.55066 18.2828 6.89858 18.6307C7.2465 18.9786 7.71819 19.1744 8.21022 19.175H15.7897C16.2818 19.1744 16.7535 18.9786 17.1014 18.6307C17.4493 18.2828 17.6451 17.8111 17.6457 17.319V6.68095C17.6451 6.18892 17.4493 5.71723 17.1014 5.36931C16.7535 5.02139 16.2818 4.82563 15.7897 4.82495L8.21022 4.82431Z" fill="#202020"/>
<path d="M15.1521 9.83423H8.92809C8.52336 9.8338 8.13533 9.67286 7.84911 9.38671C7.5629 9.10055 7.40188 8.71255 7.40137 8.30783V7.50591C7.40179 7.10113 7.56278 6.71304 7.849 6.42682C8.13522 6.1406 8.52331 5.97961 8.92809 5.97919H15.1521C15.5569 5.97961 15.945 6.1406 16.2312 6.42682C16.5174 6.71304 16.6784 7.10113 16.6788 7.50591V8.30783C16.6783 8.71255 16.5173 9.10055 16.2311 9.38671C15.9448 9.67286 15.5568 9.8338 15.1521 9.83423ZM8.92809 7.25919C8.86268 7.25927 8.79997 7.28529 8.75372 7.33154C8.70747 7.37779 8.68145 7.4405 8.68137 7.50591V8.30783C8.68145 8.37321 8.70748 8.43588 8.75374 8.48208C8.8 8.52828 8.86271 8.55423 8.92809 8.55423H15.1521C15.2175 8.55423 15.2802 8.52828 15.3264 8.48208C15.3727 8.43588 15.3987 8.37321 15.3988 8.30783V7.50591C15.3987 7.4405 15.3727 7.37779 15.3265 7.33154C15.2802 7.28529 15.2175 7.25927 15.1521 7.25919H8.92809ZM10.4321 16.5261C10.348 16.5262 10.2648 16.5097 10.1871 16.4776C10.1094 16.4454 10.0389 16.3981 9.97961 16.3385L7.89577 14.255C7.78075 14.1341 7.71752 13.973 7.71957 13.8061C7.72161 13.6392 7.78877 13.4797 7.90673 13.3617C8.02468 13.2436 8.1841 13.1762 8.35099 13.174C8.51787 13.1718 8.67903 13.2349 8.80009 13.3497L10.8836 15.4336C10.973 15.523 11.0339 15.637 11.0587 15.761C11.0834 15.8851 11.0708 16.0136 11.0225 16.1305C10.9742 16.2474 10.8923 16.3474 10.7872 16.4178C10.6821 16.4882 10.5586 16.5259 10.4321 16.5261Z" fill="#202020"/>
<path d="M8.34714 16.5261C8.22058 16.5261 8.09687 16.4885 7.99165 16.4182C7.88642 16.3479 7.80441 16.2479 7.75599 16.131C7.70756 16.0141 7.69488 15.8854 7.71957 15.7613C7.74425 15.6371 7.80518 15.5231 7.89466 15.4336L9.9785 13.3498C10.0379 13.2903 10.1085 13.2432 10.1862 13.2111C10.2638 13.1789 10.347 13.1624 10.4311 13.1624C10.5151 13.1624 10.5984 13.179 10.676 13.2111C10.7537 13.2433 10.8242 13.2905 10.8836 13.3499C10.943 13.4094 10.9902 13.4799 11.0223 13.5576C11.0545 13.6352 11.071 13.7185 11.071 13.8025C11.071 13.8866 11.0544 13.9698 11.0222 14.0474C10.9901 14.1251 10.9429 14.1956 10.8835 14.255L8.79994 16.3386C8.74055 16.3981 8.66997 16.4453 8.59226 16.4775C8.51455 16.5097 8.43125 16.5262 8.34714 16.5261ZM13.1558 16.5261C13.0293 16.5259 12.9056 16.4883 12.8005 16.4179C12.6954 16.3475 12.6135 16.2476 12.5651 16.1307C12.5168 16.0138 12.5042 15.8852 12.5289 15.7611C12.5536 15.637 12.6145 15.5231 12.7039 15.4336L12.9855 15.152C13.1062 15.0354 13.2679 14.9709 13.4357 14.9724C13.6035 14.9738 13.764 15.0411 13.8827 15.1598C14.0014 15.2785 14.0687 15.439 14.0701 15.6068C14.0716 15.7746 14.0071 15.9363 13.8905 16.057L13.6089 16.3386C13.5495 16.3982 13.4789 16.4455 13.4011 16.4776C13.3233 16.5098 13.2399 16.5263 13.1558 16.5261ZM15.5078 16.5261C15.3812 16.5261 15.2575 16.4885 15.1523 16.4182C15.0471 16.3479 14.9651 16.2479 14.9166 16.131C14.8682 16.0141 14.8555 15.8854 14.8802 15.7613C14.9049 15.6371 14.9658 15.5231 15.0553 15.4336L15.3369 15.152C15.4576 15.0354 15.6193 14.9709 15.7871 14.9724C15.9549 14.9738 16.1154 15.0411 16.2341 15.1598C16.3527 15.2785 16.42 15.439 16.4215 15.6068C16.4229 15.7746 16.3584 15.9363 16.2419 16.057L15.9603 16.3386C15.9009 16.3981 15.8304 16.4453 15.7527 16.4775C15.6751 16.5097 15.5918 16.5262 15.5078 16.5261ZM14.6575 14.7818C14.531 14.7817 14.4073 14.7442 14.302 14.6739C14.1968 14.6035 14.1148 14.5036 14.0664 14.3867C14.018 14.2697 14.0053 14.1411 14.03 14.0169C14.0546 13.8928 14.1156 13.7788 14.2051 13.6893L14.5446 13.3498C14.6646 13.2298 14.8274 13.1624 14.9972 13.1624C15.1669 13.1624 15.3297 13.2299 15.4497 13.3499C15.5697 13.47 15.6371 13.6328 15.6371 13.8025C15.637 13.9723 15.5696 14.135 15.4495 14.255L15.11 14.5946C15.0507 14.654 14.9801 14.7012 14.9025 14.7333C14.8248 14.7654 14.7416 14.7819 14.6575 14.7818Z" fill="#202020"/>
</svg>
