<svg width="24" height="24" viewBox="0 0 24 24" fill="none" xmlns="http://www.w3.org/2000/svg">
<path d="M15.7897 20.4557H8.21022C7.37884 20.4546 6.58182 20.1238 5.99395 19.536C5.40607 18.9481 5.07532 18.1511 5.07422 17.3197V6.68098C5.07532 5.8496 5.40607 5.05259 5.99395 4.46471C6.58182 3.87684 7.37884 3.54608 8.21022 3.54498H15.7897C16.6211 3.54608 17.4181 3.87684 18.006 4.46471C18.5939 5.05259 18.9246 5.8496 18.9257 6.68098V17.3191C18.9248 18.1506 18.5941 18.9477 18.0062 19.5357C17.4183 20.1238 16.6212 20.4546 15.7897 20.4557ZM8.21022 4.82434C7.71818 4.82502 7.2465 5.02078 6.89858 5.3687C6.55066 5.71662 6.3549 6.18831 6.35422 6.68034V17.3191C6.3549 17.8111 6.55066 18.2828 6.89858 18.6307C7.2465 18.9786 7.71818 19.1744 8.21022 19.1751H15.7897C16.2818 19.1744 16.7535 18.9786 17.1014 18.6307C17.4493 18.2828 17.6451 17.8111 17.6457 17.3191V6.68098C17.6451 6.18895 17.4493 5.71726 17.1014 5.36934C16.7535 5.02142 16.2818 4.82566 15.7897 4.82498L8.21022 4.82434Z" fill="#202020"/>
<path d="M15.152 9.83423H8.92803C8.5233 9.8338 8.13527 9.67286 7.84905 9.38671C7.56284 9.10055 7.40181 8.71255 7.40131 8.30783V7.50591C7.40173 7.10113 7.56272 6.71304 7.84894 6.42682C8.13516 6.1406 8.52324 5.97961 8.92803 5.97919H15.152C15.5568 5.97961 15.9449 6.1406 16.2311 6.42682C16.5173 6.71304 16.6783 7.10113 16.6787 7.50591V8.30783C16.6782 8.71255 16.5172 9.10055 16.231 9.38671C15.9448 9.67286 15.5568 9.8338 15.152 9.83423ZM8.92803 7.25919C8.86262 7.25927 8.79991 7.28529 8.75366 7.33154C8.70741 7.37779 8.68139 7.4405 8.68131 7.50591V8.30783C8.68139 8.37321 8.70742 8.43588 8.75368 8.48208C8.79994 8.52828 8.86265 8.55423 8.92803 8.55423H15.152C15.2174 8.55423 15.2801 8.52828 15.3264 8.48208C15.3726 8.43588 15.3987 8.37321 15.3987 8.30783V7.50591C15.3987 7.4405 15.3726 7.37779 15.3264 7.33154C15.2801 7.28529 15.2174 7.25927 15.152 7.25919H8.92803ZM10.432 16.5261C10.348 16.5262 10.2647 16.5097 10.187 16.4775C10.1094 16.4454 10.0389 16.3981 9.97955 16.3385L7.89571 14.255C7.78068 14.1341 7.71746 13.973 7.7195 13.8061C7.72155 13.6392 7.78871 13.4797 7.90667 13.3617C8.02462 13.2436 8.18404 13.1762 8.35092 13.174C8.51781 13.1718 8.67897 13.2349 8.80003 13.3497L10.8835 15.4336C10.973 15.523 11.0339 15.637 11.0586 15.761C11.0833 15.8851 11.0707 16.0136 11.0224 16.1305C10.9741 16.2474 10.8922 16.3474 10.7872 16.4178C10.6821 16.4882 10.5585 16.5258 10.432 16.5261Z" fill="#202020"/>
<path d="M8.3472 16.526C8.22064 16.526 8.09693 16.4885 7.99171 16.4181C7.88648 16.3478 7.80447 16.2479 7.75605 16.1309C7.70762 16.014 7.69494 15.8854 7.71963 15.7612C7.74431 15.6371 7.80524 15.5231 7.89472 15.4336L9.97856 13.3497C10.038 13.2903 10.1086 13.2432 10.1862 13.211C10.2639 13.1789 10.3471 13.1623 10.4312 13.1624C10.5152 13.1624 10.5984 13.1789 10.6761 13.2111C10.7537 13.2433 10.8243 13.2904 10.8837 13.3499C10.9431 13.4093 10.9902 13.4799 11.0224 13.5576C11.0545 13.6352 11.0711 13.7184 11.0711 13.8025C11.071 13.8865 11.0545 13.9698 11.0223 14.0474C10.9901 14.125 10.943 14.1956 10.8835 14.255L8.8 16.3385C8.74061 16.3981 8.67003 16.4453 8.59232 16.4775C8.51461 16.5097 8.43131 16.5262 8.3472 16.526ZM13.1558 16.526C13.0293 16.5259 12.9057 16.4883 12.8006 16.4179C12.6955 16.3475 12.6136 16.2476 12.5652 16.1307C12.5169 16.0138 12.5042 15.8851 12.5289 15.7611C12.5536 15.637 12.6146 15.523 12.704 15.4336L12.9856 15.152C13.1063 15.0354 13.268 14.9709 13.4358 14.9723C13.6036 14.9738 13.7641 15.0411 13.8828 15.1598C14.0014 15.2784 14.0687 15.4389 14.0702 15.6068C14.0716 15.7746 14.0071 15.9362 13.8906 16.0569L13.609 16.3385C13.5496 16.3982 13.4789 16.4454 13.4012 16.4776C13.3234 16.5098 13.24 16.5263 13.1558 16.526ZM15.5078 16.526C15.3813 16.526 15.2576 16.4885 15.1523 16.4181C15.0471 16.3478 14.9651 16.2479 14.9167 16.1309C14.8683 16.014 14.8556 15.8854 14.8803 15.7612C14.9049 15.6371 14.9659 15.5231 15.0554 15.4336L15.337 15.152C15.4577 15.0354 15.6193 14.9709 15.7871 14.9723C15.9549 14.9738 16.1155 15.0411 16.2341 15.1598C16.3528 15.2784 16.4201 15.4389 16.4216 15.6068C16.423 15.7746 16.3585 15.9362 16.2419 16.0569L15.9603 16.3385C15.901 16.3981 15.8305 16.4453 15.7528 16.4775C15.6752 16.5097 15.5919 16.5262 15.5078 16.526ZM14.6576 14.7817C14.531 14.7817 14.4073 14.7442 14.3021 14.6738C14.1969 14.6035 14.1149 14.5036 14.0664 14.3866C14.018 14.2697 14.0053 14.141 14.03 14.0169C14.0547 13.8928 14.1156 13.7788 14.2051 13.6893L14.5446 13.3497C14.6647 13.2297 14.8275 13.1623 14.9972 13.1624C15.167 13.1624 15.3298 13.2298 15.4498 13.3499C15.5698 13.4699 15.6372 13.6327 15.6371 13.8025C15.6371 13.9722 15.5696 14.135 15.4496 14.255L15.1101 14.5945C15.0507 14.654 14.9802 14.7012 14.9025 14.7333C14.8249 14.7654 14.7416 14.7819 14.6576 14.7817Z" fill="#202020"/>
</svg>
