<svg width="24" height="24" viewBox="0 0 24 24" fill="none" xmlns="http://www.w3.org/2000/svg">
<path d="M17.4771 18.1561H6.52287C5.73317 18.1553 4.97605 17.8412 4.41765 17.2828C3.85924 16.7244 3.54516 15.9673 3.54431 15.1776V8.82237C3.54516 8.03267 3.85924 7.27555 4.41765 6.71715C4.97605 6.15874 5.73317 5.84466 6.52287 5.84381H17.4771C18.2668 5.84466 19.0239 6.15874 19.5823 6.71715C20.1407 7.27555 20.4548 8.03267 20.4557 8.82237V15.1776C20.4548 15.9673 20.1407 16.7244 19.5823 17.2828C19.0239 17.8412 18.2668 18.1553 17.4771 18.1561ZM6.52287 7.12381C6.07254 7.12432 5.6408 7.30344 5.32237 7.62187C5.00394 7.9403 4.82482 8.37204 4.82431 8.82237V15.1776C4.82482 15.6279 5.00394 16.0596 5.32237 16.3781C5.6408 16.6965 6.07254 16.8756 6.52287 16.8761H17.4771C17.9274 16.8756 18.3592 16.6965 18.6776 16.3781C18.996 16.0596 19.1752 15.6279 19.1757 15.1776V8.82237C19.1752 8.37204 18.996 7.9403 18.6776 7.62187C18.3592 7.30344 17.9274 7.12432 17.4771 7.12381H6.52287Z" fill="#202020"/>
<path d="M9.33824 13.5885C9.16856 13.5885 9.00581 13.5212 8.88576 13.4013L6.96992 11.4851C6.90879 11.4261 6.86004 11.3555 6.8265 11.2774C6.79295 11.1993 6.7753 11.1153 6.77456 11.0303C6.77382 10.9453 6.79002 10.8611 6.8222 10.7824C6.85437 10.7038 6.9019 10.6323 6.96199 10.5722C7.02208 10.5121 7.09354 10.4646 7.17219 10.4324C7.25084 10.4002 7.33512 10.3841 7.4201 10.3848C7.50508 10.3855 7.58906 10.4032 7.66714 10.4367C7.74522 10.4703 7.81584 10.519 7.87488 10.5802L9.792 12.496C9.8815 12.5855 9.94244 12.6996 9.96711 12.8237C9.99178 12.9479 9.97908 13.0766 9.93061 13.1935C9.88214 13.3105 9.80009 13.4104 9.69481 13.4807C9.58954 13.551 9.46579 13.5885 9.3392 13.5885H9.33824Z" fill="#202020"/>
<path d="M7.40354 13.6074C7.27698 13.6074 7.15326 13.5698 7.04804 13.4995C6.94282 13.4292 6.86081 13.3292 6.81238 13.2123C6.76395 13.0954 6.75128 12.9667 6.77596 12.8426C6.80065 12.7184 6.86158 12.6044 6.95106 12.5149L8.85218 10.6138C8.97235 10.4938 9.13528 10.4264 9.30511 10.4266C9.47494 10.4267 9.63777 10.4943 9.75777 10.6144C9.87778 10.7346 9.94513 10.8975 9.94501 11.0674C9.94489 11.2372 9.87731 11.4 9.75714 11.52L7.85602 13.4199C7.79671 13.4794 7.72619 13.5267 7.64852 13.5589C7.57086 13.5911 7.4876 13.6075 7.40354 13.6074ZM15.3616 14.0119C15.1919 14.0119 15.0291 13.9444 14.9091 13.8244C14.789 13.7044 14.7216 13.5416 14.7216 13.3719V13.0759C14.7216 12.9061 14.789 12.7433 14.9091 12.6233C15.0291 12.5033 15.1919 12.4359 15.3616 12.4359C15.5314 12.4359 15.6941 12.5033 15.8142 12.6233C15.9342 12.7433 16.0016 12.9061 16.0016 13.0759V13.3719C16.0016 13.5416 15.9342 13.7044 15.8142 13.8244C15.6941 13.9444 15.5314 14.0119 15.3616 14.0119ZM15.3616 11.5623C15.1919 11.5623 15.0291 11.4948 14.9091 11.3748C14.789 11.2548 14.7216 11.092 14.7216 10.9223V10.6621C14.7216 10.4924 14.789 10.3296 14.9091 10.2096C15.0291 10.0895 15.1919 10.0221 15.3616 10.0221C15.5314 10.0221 15.6941 10.0895 15.8142 10.2096C15.9342 10.3296 16.0016 10.4924 16.0016 10.6621V10.9223C16.0016 11.092 15.9342 11.2548 15.8142 11.3748C15.6941 11.4948 15.5314 11.5623 15.3616 11.5623ZM14.208 12.657H13.9792C13.8095 12.657 13.6467 12.5896 13.5267 12.4695C13.4066 12.3495 13.3392 12.1867 13.3392 12.017C13.3392 11.8473 13.4066 11.6845 13.5267 11.5644C13.6467 11.4444 13.8095 11.377 13.9792 11.377H14.208C14.3778 11.377 14.5405 11.4444 14.6606 11.5644C14.7806 11.6845 14.848 11.8473 14.848 12.017C14.848 12.1867 14.7806 12.3495 14.6606 12.4695C14.5405 12.5896 14.3778 12.657 14.208 12.657ZM16.6688 12.657H16.4282C16.2584 12.657 16.0956 12.5896 15.9756 12.4695C15.8556 12.3495 15.7882 12.1867 15.7882 12.017C15.7882 11.8473 15.8556 11.6845 15.9756 11.5644C16.0956 11.4444 16.2584 11.377 16.4282 11.377H16.6688C16.8386 11.377 17.0013 11.4444 17.1214 11.5644C17.2414 11.6845 17.3088 11.8473 17.3088 12.017C17.3088 12.1867 17.2414 12.3495 17.1214 12.4695C17.0013 12.5896 16.8386 12.657 16.6688 12.657ZM12.5664 6.78179L11.4336 6.18563L11.4307 6.19107C11.5007 6.04034 11.5398 5.87714 11.5456 5.71107C11.5498 5.44483 11.4333 5.25827 11.1687 5.10627C10.1328 4.51203 10.193 3.31427 10.3687 2.76355L11.5875 3.15395L11.5895 3.14851C11.5706 3.21251 11.4157 3.77283 11.8048 3.99619C12.497 4.39299 12.8583 5.03363 12.8227 5.79939C12.8045 6.14081 12.7174 6.475 12.5664 6.78179Z" fill="#202020"/>
</svg>
