<svg width="24" height="24" viewBox="0 0 24 24" fill="none" xmlns="http://www.w3.org/2000/svg">
<path d="M17.032 20.4558H6.96801C6.08001 20.4558 5.24001 20.1748 4.60001 19.665C3.91905 19.121 3.54401 18.385 3.54401 17.5934V10.2654C3.54401 10.0956 3.61143 9.93283 3.73146 9.81281C3.85148 9.69279 4.01427 9.62536 4.18401 9.62536C4.35374 9.62536 4.51653 9.69279 4.63655 9.81281C4.75658 9.93283 4.82401 10.0956 4.82401 10.2654V17.5934C4.82401 17.9886 5.02817 18.3687 5.40001 18.6647C5.81281 18.994 6.36993 19.1767 6.96801 19.1767H17.032C17.631 19.1767 18.1882 18.995 18.6 18.6647C18.9706 18.3687 19.176 17.9886 19.176 17.5934V10.2484C19.176 10.0787 19.2434 9.91587 19.3635 9.79585C19.4835 9.67583 19.6463 9.6084 19.816 9.6084C19.9857 9.6084 20.1485 9.67583 20.2686 9.79585C20.3886 9.91587 20.456 10.0787 20.456 10.2484V17.5934C20.456 18.3857 20.081 19.1214 19.4 19.665C18.761 20.1748 17.92 20.4558 17.032 20.4558Z" fill="#202020"/>
<path d="M19.536 10.8883H4.34529C3.81194 10.8873 3.30073 10.675 2.9236 10.2978C2.54647 9.92071 2.33414 9.40949 2.33313 8.87615V7.46431C2.33414 6.93096 2.54647 6.41975 2.9236 6.04262C3.30073 5.66548 3.81194 5.45316 4.34529 5.45215H19.536C20.0694 5.45316 20.5806 5.66548 20.9577 6.04262C21.3348 6.41975 21.5472 6.93096 21.5482 7.46431V8.87615C21.5472 9.40949 21.3348 9.92071 20.9577 10.2978C20.5806 10.675 20.0694 10.8873 19.536 10.8883ZM4.34529 6.73215C4.15119 6.7324 3.96511 6.80962 3.82785 6.94687C3.6906 7.08413 3.61338 7.27021 3.61313 7.46431V8.87615C3.61338 9.07025 3.6906 9.25633 3.82785 9.39358C3.96511 9.53083 4.15119 9.60805 4.34529 9.60831H19.536C19.7301 9.60814 19.9163 9.53095 20.0535 9.39368C20.1908 9.25641 20.268 9.07028 20.2682 8.87615V7.46431C20.2679 7.27021 20.1907 7.08413 20.0534 6.94687C19.9162 6.80962 19.7301 6.7324 19.536 6.73215H4.34529Z" fill="#202020"/>
<path d="M13.3296 15.8635C13.1729 15.8638 13.0182 15.8279 12.8777 15.7585L12 15.3236L11.1222 15.7585C10.967 15.8349 10.7949 15.8708 10.622 15.8626C10.4491 15.8545 10.2812 15.8027 10.1337 15.7121C9.99435 15.6274 9.8791 15.5082 9.79902 15.3661C9.71894 15.224 9.67674 15.0637 9.67645 14.9006V10.2484C9.67645 10.0787 9.74388 9.91592 9.8639 9.79589C9.98393 9.67587 10.1467 9.60844 10.3165 9.60844H13.6835C13.8532 9.60844 14.016 9.67587 14.136 9.79589C14.2561 9.91592 14.3235 10.0787 14.3235 10.2484V14.9003C14.3233 15.0634 14.2811 15.2238 14.201 15.366C14.1209 15.5082 14.0056 15.6274 13.8662 15.7121C13.7049 15.8115 13.5191 15.8639 13.3296 15.8635ZM12 14.0305C12.1786 14.0304 12.3549 14.0713 12.5152 14.1502L13.0435 14.4123V10.8884H10.9565V14.4123L11.4848 14.1502C11.645 14.0713 11.8213 14.0304 12 14.0305ZM16.8877 6.73228H11.9408C11.7995 6.73227 11.6621 6.68549 11.5502 6.59923C11.4382 6.51297 11.358 6.39209 11.322 6.25543C11.2859 6.11878 11.2961 5.97405 11.351 5.84381C11.4059 5.71357 11.5023 5.60516 11.6253 5.53548L15.4281 3.3822C15.6422 3.26151 15.8841 3.19895 16.1298 3.20072C16.3755 3.20249 16.6165 3.26854 16.8288 3.3923C17.0411 3.51606 17.2173 3.69322 17.3399 3.90618C17.4625 4.11914 17.5272 4.36047 17.5277 4.6062V6.09228C17.5277 6.26202 17.4602 6.42481 17.3402 6.54483C17.2202 6.66485 17.0574 6.73228 16.8877 6.73228ZM14.3699 5.45228H16.2477V4.6062C16.2472 4.58421 16.2412 4.5627 16.23 4.54374C16.2189 4.52478 16.2031 4.50901 16.1841 4.49795C16.1651 4.48689 16.1435 4.48091 16.1215 4.48059C16.0996 4.48027 16.0779 4.48562 16.0585 4.49612L14.3699 5.45228Z" fill="#202020"/>
<path d="M11.9257 6.73226H6.97917C6.80943 6.73226 6.64665 6.66483 6.52662 6.54481C6.4066 6.42479 6.33917 6.262 6.33917 6.09226V4.60618C6.33916 4.36032 6.4036 4.11874 6.52607 3.90555C6.64854 3.69236 6.82476 3.515 7.03716 3.39115C7.24956 3.26731 7.49071 3.20131 7.73657 3.19974C7.98243 3.19816 8.22441 3.26107 8.43837 3.38218L12.2413 5.5361C12.3642 5.60578 12.4606 5.7142 12.5155 5.84443C12.5704 5.97467 12.5806 6.1194 12.5446 6.25606C12.5085 6.39271 12.4283 6.51359 12.3163 6.59985C12.2044 6.68611 12.0671 6.7329 11.9257 6.7329V6.73226ZM7.61917 5.45226H9.49661L7.80797 4.4961C7.78866 4.48567 7.767 4.48039 7.74506 4.48074C7.72311 4.4811 7.70163 4.4871 7.68267 4.49815C7.66372 4.5092 7.64792 4.52495 7.6368 4.54386C7.62568 4.56278 7.61961 4.58424 7.61917 4.60618V5.45226Z" fill="#202020"/>
</svg>
