<svg width="24" height="24" viewBox="0 0 24 24" fill="none" xmlns="http://www.w3.org/2000/svg">
<path d="M11.4895 20.1799C11.3549 20.1799 11.2236 20.1375 11.1145 20.0587C11.0053 19.9799 10.9238 19.8687 10.8815 19.7408C9.2182 14.7143 9.2182 9.28572 10.8815 4.25922C10.9348 4.09796 11.05 3.96449 11.2017 3.88815C11.3534 3.81182 11.5292 3.79888 11.6905 3.85218C11.8517 3.90547 11.9852 4.02065 12.0615 4.17235C12.1379 4.32406 12.1508 4.49988 12.0975 4.66114C10.5203 9.42661 10.5203 14.5734 12.0975 19.3389C12.1293 19.4351 12.1379 19.5375 12.1224 19.6376C12.1069 19.7377 12.0679 19.8327 12.0085 19.9148C11.9492 19.9969 11.8712 20.0638 11.7809 20.1098C11.6907 20.1559 11.5908 20.1799 11.4895 20.1799ZM14.3561 20.1799C14.2548 20.1799 14.1549 20.1559 14.0647 20.1098C13.9744 20.0638 13.8964 19.9969 13.8371 19.9148C13.7777 19.8327 13.7387 19.7377 13.7232 19.6376C13.7077 19.5375 13.7163 19.4351 13.7481 19.3389C14.5417 16.9421 14.941 14.4323 14.9305 11.9075C14.9212 9.4448 14.5222 6.99906 13.7481 4.66114C13.7217 4.58129 13.7113 4.49703 13.7175 4.41317C13.7236 4.3293 13.7463 4.24747 13.7841 4.17235C13.8219 4.09724 13.8741 4.0303 13.9377 3.97536C14.0014 3.92042 14.0753 3.87857 14.1551 3.85218C14.235 3.82578 14.3192 3.81538 14.4031 3.82155C14.487 3.82773 14.5688 3.85036 14.6439 3.88815C14.719 3.92595 14.786 3.97817 14.8409 4.04184C14.8958 4.10551 14.9377 4.17937 14.9641 4.25922C15.7809 6.72511 16.2021 9.30478 16.2121 11.9024C16.2233 14.5661 15.8018 17.2139 14.9641 19.7424C14.9215 19.87 14.8399 19.9808 14.7308 20.0594C14.6216 20.1379 14.4905 20.18 14.3561 20.1799Z" fill="#202020"/>
<path d="M13.0192 15.2883H12.921C10.3234 15.2783 7.7437 14.8571 5.27781 14.0403C5.19797 14.0139 5.1241 13.9721 5.06044 13.9171C4.99677 13.8622 4.94455 13.7952 4.90675 13.7201C4.86895 13.645 4.84632 13.5632 4.84015 13.4793C4.83397 13.3954 4.84438 13.3112 4.87077 13.2313C4.89716 13.1515 4.93902 13.0776 4.99396 13.014C5.04889 12.9503 5.11583 12.8981 5.19095 12.8603C5.34266 12.7839 5.51848 12.771 5.67973 12.8243C8.01809 13.599 10.4644 13.9985 12.9277 14.008H13.0209C15.5144 14.0082 17.9918 13.6084 20.3588 12.824C20.52 12.7706 20.6959 12.7835 20.8476 12.8598C20.9993 12.9362 21.1145 13.0696 21.1679 13.2309C21.2212 13.3921 21.2083 13.568 21.132 13.7197C21.0557 13.8714 20.9223 13.9866 20.761 14.04C18.2638 14.8673 15.65 15.2888 13.0192 15.2883ZM5.47877 11.207C5.32648 11.2073 5.17908 11.1532 5.06306 11.0546C4.94704 10.9559 4.87 10.8191 4.84579 10.6688C4.82158 10.5184 4.85178 10.3643 4.93096 10.2343C5.01015 10.1042 5.13313 10.0066 5.27781 9.95902C10.3044 8.29605 15.7329 8.29605 20.7594 9.95902C20.9207 10.0124 21.0541 10.1276 21.1304 10.2793C21.2067 10.4311 21.2196 10.6069 21.1663 10.7681C21.113 10.9294 20.9977 11.0629 20.846 11.1392C20.6943 11.2155 20.5184 11.2284 20.3572 11.175C15.5917 9.59825 10.4452 9.59825 5.67973 11.175C5.61489 11.1964 5.54704 11.2072 5.47877 11.207Z" fill="#202020"/>
<path d="M13.0187 20.5865C11.056 20.5865 9.15403 19.9059 7.63688 18.6607C6.11973 17.4156 5.08125 15.6829 4.69839 13.7579C4.31553 11.8329 4.61197 9.83473 5.5372 8.1038C6.46244 6.37288 7.95922 5.01631 9.77252 4.26524C11.5858 3.51417 13.6035 3.41507 15.4816 3.98482C17.3598 4.55458 18.9823 5.75794 20.0727 7.38986C21.1631 9.02178 21.654 10.9813 21.4616 12.9345C21.2692 14.8878 20.4055 16.7139 19.0177 18.1017C18.2317 18.892 17.2968 19.5185 16.2671 19.945C15.2374 20.3716 14.1333 20.5896 13.0187 20.5865ZM13.0187 4.89855C9.0462 4.89855 5.81452 8.13055 5.81452 12.1027C5.81452 16.0749 9.04652 19.3065 13.0187 19.3065C16.9908 19.3065 20.2238 16.0749 20.2238 12.1027C20.2238 8.13055 16.9918 4.89855 13.0187 4.89855Z" fill="#202020"/>
</svg>
