<svg width="24" height="24" viewBox="0 0 24 24" fill="none" xmlns="http://www.w3.org/2000/svg">
<path d="M20.955 11.0925C20.7778 9.35844 20.1009 7.71313 19.0065 6.35643C17.9121 4.99974 16.4473 3.99004 14.79 3.45C14.5725 3.3825 14.3475 3.3225 14.13 3.27L13.905 3.21C13.74 3.21 13.5675 3.15 13.395 3.1275L12.9975 3.0675H12.5925C12.45 3.0675 12.3075 3.0675 12.1575 3.0675H11.8575C11.7 3.0675 11.55 3.0675 11.3925 3.0675H11.04L10.5 3.135C10.3725 3.135 10.23 3.1725 10.1025 3.2025C9.97498 3.2325 9.85498 3.2625 9.73498 3.2925L9.22498 3.435L9.03748 3.5025C7.2607 4.12109 5.72245 5.28094 4.63896 6.81901C3.55547 8.35707 2.98123 10.196 2.99696 12.0773C3.01268 13.9587 3.61759 15.7877 4.72664 17.3075C5.83568 18.8272 7.39311 19.9612 9.17998 20.55C9.39748 20.6175 9.61498 20.6775 9.83998 20.73L10.065 20.79C10.23 20.8275 10.4025 20.85 10.575 20.8725L10.9725 20.9325H11.3775C11.52 20.9325 11.6625 20.9325 11.8125 20.9325H12.1125C12.27 20.9325 12.4275 20.9325 12.5775 20.9325H12.93L13.4325 20.85C13.5675 20.85 13.7025 20.8125 13.83 20.7825C13.9575 20.7525 14.0775 20.7225 14.205 20.6925L14.7075 20.55L14.9025 20.475C15.1216 20.4036 15.3368 20.321 15.5475 20.2275C17.295 19.4667 18.7559 18.1707 19.7197 16.5263C20.6834 14.8819 21.1002 12.974 20.91 11.0775L20.955 11.0925ZM19.35 13.5C19.35 13.5825 19.305 13.665 19.29 13.7475C19.275 13.83 19.215 14.0625 19.17 14.2125C19.125 14.3625 19.11 14.3625 19.0875 14.4375C19.065 14.5125 18.9825 14.745 18.9225 14.895L18.8025 15.1425C18.735 15.2775 18.6825 15.4125 18.6075 15.54C18.5325 15.6675 18.4875 15.7425 18.435 15.84L18.24 16.155C18.1725 16.26 18.0975 16.3575 18.0225 16.455L17.82 16.7325C17.7375 16.83 17.64 16.9275 17.55 17.025C17.46 17.1225 17.415 17.19 17.34 17.265L17.0325 17.55C16.9575 17.6175 16.8975 17.685 16.8225 17.745C16.7475 17.805 16.59 17.925 16.47 18.015L16.2525 18.18C16.142 18.2595 16.0268 18.3321 15.9075 18.3975C15.8329 18.4518 15.7552 18.5019 15.675 18.5475L15.3525 18.7125L15.2025 18.7875L15.0075 18.885L14.715 18.9975H14.655L14.3025 19.125L14.1075 19.1775C15.5133 17.3134 16.3448 15.0796 16.5 12.75H19.5C19.5 12.8175 19.5 12.885 19.5 12.96C19.5 13.035 19.3875 13.3125 19.35 13.5ZM8.35498 18.5475L8.03248 18.345C7.93498 18.285 7.83748 18.2325 7.74748 18.165C7.65748 18.0975 7.53748 18.0075 7.43248 17.925L7.17748 17.73L6.87748 17.4525C6.80998 17.385 6.72748 17.3175 6.65998 17.2425C6.59248 17.1675 6.46498 17.0325 6.36748 16.9275C6.26998 16.8225 6.23998 16.785 6.17998 16.7175C6.11998 16.65 5.99998 16.5 5.92498 16.365L5.75998 16.14C5.67748 16.02 5.60998 15.9 5.54248 15.78C5.47498 15.66 5.43748 15.615 5.39248 15.525C5.32001 15.3963 5.2549 15.2636 5.19748 15.1275C5.19748 15.045 5.11498 14.9625 5.07748 14.8725C5.03998 14.7825 4.97248 14.5875 4.91998 14.445L4.82998 14.1975C4.78498 14.0475 4.75498 13.8975 4.71748 13.7475C4.67998 13.5975 4.66498 13.575 4.64998 13.5C4.63498 13.425 4.58998 13.1475 4.56748 12.9675C4.56748 12.9 4.56748 12.8325 4.56748 12.7725H7.56748C7.71875 15.1073 8.54469 17.348 9.94498 19.2225L9.72748 19.155L9.54748 19.0875L9.36748 19.02L8.99998 18.87L8.69248 18.72L8.35498 18.5475ZM4.64998 10.5C4.64998 10.41 4.69498 10.32 4.71748 10.23C4.73998 10.14 4.78498 9.93 4.82998 9.7875L4.91998 9.54C4.97248 9.39 5.01748 9.2475 5.07748 9.105L5.19748 8.8575C5.2549 8.72141 5.32001 8.5887 5.39248 8.46C5.43553 8.38708 5.48312 8.31694 5.53498 8.25C5.60998 8.1225 5.67748 7.995 5.75998 7.875C5.84248 7.755 5.88748 7.7025 5.94748 7.62C6.00748 7.5375 6.09748 7.4025 6.17998 7.2975C6.26248 7.1925 6.32248 7.14 6.38998 7.065C6.45748 6.99 6.56248 6.8625 6.65998 6.765L6.92998 6.5175L7.17748 6.285C7.27498 6.2025 7.37998 6.1275 7.48498 6.0525C7.58998 5.9775 7.65748 5.91 7.74748 5.85L8.04748 5.655L8.33998 5.475L8.69248 5.25L8.84248 5.175L8.99998 5.1225C9.11248 5.07 9.22498 5.0325 9.34498 4.9875L9.74998 4.8525L9.95248 4.8C8.53454 6.66784 7.69495 8.91021 7.53748 11.25H4.53748C4.53748 11.175 4.53748 11.1 4.53748 11.025C4.53748 10.95 4.61248 10.68 4.64998 10.5ZM15.645 5.4525C15.8025 5.5425 15.945 5.64 16.095 5.7375L16.2525 5.835C16.395 5.9325 16.5375 6.045 16.68 6.1575L16.815 6.27C16.9575 6.3825 17.085 6.51 17.22 6.6375L17.34 6.75C17.475 6.8925 17.6025 7.035 17.7225 7.185L17.82 7.2825C17.9325 7.4325 18.045 7.5825 18.15 7.74L18.24 7.86C18.345 8.0175 18.4425 8.1825 18.5325 8.34L18.6075 8.475C18.6964 8.63551 18.7766 8.80075 18.8475 8.97L18.9225 9.12C18.99 9.285 19.0425 9.4575 19.1025 9.6225L19.17 9.8025C19.2225 9.9825 19.2675 10.17 19.3125 10.3575C19.3125 10.41 19.3125 10.4625 19.35 10.515C19.3875 10.71 19.4175 10.905 19.44 11.1075L19.5 11.25H16.5C16.3487 8.91515 15.5228 6.67445 14.1225 4.8L14.3325 4.86L14.5125 4.9275L14.805 5.04L15.0375 5.13L15.465 5.3475L15.645 5.4525ZM15 11.25H9.07498C9.24448 8.78133 10.2804 6.45184 12 4.6725C13.747 6.44077 14.8101 8.77151 15 11.25ZM9.07498 12.75H15C14.8101 15.2285 13.747 17.5592 12 19.3275C10.2667 17.5537 9.2172 15.2236 9.03748 12.75H9.07498Z" fill="#202020"/>
</svg>
