<svg width="24" height="24" viewBox="0 0 24 24" fill="none" xmlns="http://www.w3.org/2000/svg">
<path d="M12.64 20.3277C10.9415 20.3173 9.28741 19.7845 7.90212 18.8018C6.51682 17.8191 5.46743 16.4339 4.89637 14.8343C4.3253 13.2347 4.26022 11.4981 4.70995 9.86029C5.15968 8.22243 6.10244 6.7626 7.41029 5.67893C8.71814 4.59525 10.3277 3.9402 12.0206 3.80269C13.7135 3.66517 15.4078 4.05185 16.8734 4.91024C18.339 5.76862 19.505 7.05715 20.2132 8.60095C20.9213 10.1447 21.1374 11.869 20.832 13.5398C20.818 13.6227 20.7878 13.702 20.7431 13.7732C20.6984 13.8444 20.6402 13.9061 20.5717 13.9548C20.5032 14.0035 20.4258 14.0382 20.3438 14.057C20.2619 14.0757 20.1771 14.0782 20.0942 14.0642C20.0113 14.0501 19.9321 14.0199 19.8609 13.9753C19.7897 13.9306 19.728 13.8724 19.6793 13.8039C19.6306 13.7354 19.5959 13.6579 19.5771 13.576C19.5583 13.4941 19.5559 13.4093 19.5699 13.3264C19.6507 12.889 19.6898 12.4448 19.6867 12C19.6867 8.11392 16.5251 4.95232 12.639 4.95232C8.75294 4.95232 5.59134 8.11392 5.59134 12C5.59134 15.8861 8.75294 19.0477 12.64 19.0477C13.5973 19.0495 14.5449 18.8549 15.424 18.4758C15.5799 18.4087 15.7561 18.4063 15.9138 18.469C16.0715 18.5318 16.1978 18.6547 16.2649 18.8106C16.3321 18.9665 16.3345 19.1427 16.2717 19.3004C16.209 19.4581 16.0861 19.5844 15.9302 19.6515C14.8912 20.0995 13.7714 20.3297 12.64 20.3277Z" fill="#202020"/>
<path d="M11.1319 20.1799C10.9972 20.1799 10.866 20.1375 10.7568 20.0587C10.6477 19.9799 10.5661 19.8687 10.5239 19.7408C8.86054 14.7143 8.86054 9.28572 10.5239 4.25922C10.5502 4.17937 10.5921 4.10551 10.647 4.04184C10.702 3.97817 10.7689 3.92595 10.844 3.88815C10.9192 3.85036 11.001 3.82773 11.0848 3.82155C11.1687 3.81538 11.253 3.82578 11.3328 3.85218C11.4127 3.87857 11.4865 3.92042 11.5502 3.97536C11.6139 4.0303 11.6661 4.09724 11.7039 4.17235C11.7417 4.24747 11.7643 4.3293 11.7705 4.41317C11.7767 4.49703 11.7662 4.58129 11.7399 4.66114C10.1631 9.42668 10.1631 14.5733 11.7399 19.3389C11.7717 19.4351 11.7802 19.5375 11.7647 19.6376C11.7493 19.7377 11.7102 19.8327 11.6509 19.9148C11.5915 19.9969 11.5135 20.0638 11.4233 20.1098C11.333 20.1559 11.2332 20.1799 11.1319 20.1799ZM13.9984 20.1799C13.8971 20.1799 13.7972 20.1559 13.707 20.1098C13.6168 20.0638 13.5388 19.9969 13.4794 19.9148C13.42 19.8327 13.381 19.7377 13.3656 19.6376C13.3501 19.5375 13.3586 19.4351 13.3904 19.3389C14.1847 16.9422 14.5846 14.4324 14.5744 11.9075C14.5648 9.44471 14.1652 6.99894 13.3904 4.66114C13.3371 4.49988 13.3501 4.32406 13.4264 4.17235C13.5027 4.02065 13.6362 3.90547 13.7975 3.85218C13.9587 3.79888 14.1345 3.81182 14.2862 3.88815C14.4379 3.96449 14.5531 4.09796 14.6064 4.25922C15.4232 6.72511 15.8444 9.30478 15.8544 11.9024C15.8655 14.5661 15.444 17.2139 14.6064 19.7424C14.5639 19.87 14.4822 19.9808 14.3731 20.0594C14.264 20.1379 14.1329 20.18 13.9984 20.1799Z" fill="#202020"/>
<path d="M12.6619 15.2883H12.5637C9.96605 15.2784 7.38638 14.8571 4.92048 14.0403C4.84064 14.0139 4.76678 13.972 4.70312 13.9171C4.63946 13.8621 4.58725 13.7952 4.54947 13.72C4.47316 13.5683 4.46026 13.3925 4.5136 13.2312C4.54001 13.1514 4.58189 13.0775 4.63685 13.0139C4.69181 12.9502 4.75876 12.898 4.8339 12.8602C4.98563 12.7839 5.16147 12.771 5.32272 12.8243C7.66053 13.5985 10.1062 13.9975 12.5688 14.0067C15.0935 14.0179 17.6033 13.619 20.0002 12.8256C20.1614 12.7723 20.3372 12.7853 20.4889 12.8616C20.6407 12.9379 20.7558 13.0714 20.8091 13.2327C20.8624 13.3939 20.8495 13.5697 20.7731 13.7214C20.6968 13.8732 20.5633 13.9883 20.4021 14.0416C17.9053 14.8682 15.292 15.2892 12.6619 15.2883ZM20.2011 11.2071C20.1329 11.2072 20.065 11.1964 20.0002 11.1751C15.2347 9.59829 10.0882 9.59829 5.32272 11.1751C5.16147 11.2284 4.98563 11.2155 4.8339 11.1392C4.68216 11.0629 4.56694 10.9294 4.5136 10.7682C4.46026 10.6069 4.47316 10.4311 4.54947 10.2794C4.62577 10.1276 4.75923 10.0124 4.92048 9.95906C7.38638 9.14225 9.96605 8.72104 12.5637 8.71106H12.6619C15.2921 8.71063 17.9053 9.13198 20.4021 9.95906C20.5468 10.0066 20.6697 10.1042 20.7489 10.2343C20.8281 10.3644 20.8583 10.5184 20.8341 10.6688C20.8099 10.8192 20.7329 10.956 20.6168 11.0546C20.5008 11.1533 20.3534 11.2073 20.2011 11.2071ZM18.7387 19.409H17.2398C17.1338 19.4089 17.0293 19.3825 16.936 19.3321C16.8427 19.2816 16.7633 19.2088 16.7051 19.1201C16.6469 19.0314 16.6117 18.9296 16.6026 18.8239C16.5935 18.7182 16.6108 18.6119 16.653 18.5146L17.2091 17.232C17.2414 17.1576 17.2874 17.09 17.3448 17.0327L20.0373 14.3549C20.0979 14.2946 20.17 14.2471 20.2492 14.2152C20.3285 14.1832 20.4133 14.1675 20.4988 14.1688C20.5842 14.1702 20.6686 14.1887 20.7467 14.2232C20.8249 14.2577 20.8954 14.3075 20.9541 14.3696L22.027 15.5072C22.1413 15.6284 22.2039 15.7893 22.2014 15.9558C22.199 16.1223 22.1317 16.2813 22.0139 16.3991L19.1915 19.2218C19.132 19.2812 19.0614 19.3283 18.9837 19.3604C18.9061 19.3925 18.8228 19.409 18.7387 19.409ZM18.2152 18.129H18.4738L20.6696 15.9335L20.4738 15.7261L18.3362 17.8538L18.2152 18.129Z" fill="#202020"/>
</svg>
