<svg width="24" height="24" viewBox="0 0 24 24" fill="none" xmlns="http://www.w3.org/2000/svg">
<path d="M14 6.375C13.6548 6.375 13.375 6.65485 13.375 7C13.375 7.34515 13.6548 7.625 14 7.625C14.3452 7.625 14.625 7.34515 14.625 7C14.625 6.65485 14.3452 6.375 14 6.375ZM14 9.375C13.6548 9.375 13.375 9.65485 13.375 10C13.375 10.3452 13.6548 10.625 14 10.625C14.3452 10.625 14.625 10.3452 14.625 10C14.625 9.65485 14.3452 9.375 14 9.375ZM17 8.375C16.6548 8.375 16.375 8.65485 16.375 9C16.375 9.34515 16.6548 9.625 17 9.625C17.3452 9.625 17.625 9.34515 17.625 9C17.625 8.65485 17.3452 8.375 17 8.375ZM12 2C6.47717 2 2 6.47717 2 12C2 17.5228 6.47717 22 12 22C17.5201 21.9935 21.9935 17.5201 22 12C22 6.47717 17.5228 2 12 2ZM12 21C7.02942 21 3 16.9706 3 12C3 7.02942 7.02942 3 12 3C16.9683 3.00543 20.9946 7.03168 21 12C21 16.9706 16.9706 21 12 21Z" fill="#202020"/>
</svg>
