<svg width="24" height="24" viewBox="0 0 24 24" fill="none" xmlns="http://www.w3.org/2000/svg">
<path d="M12.32 20.6806C10.0178 20.6806 7.80984 19.7661 6.1819 18.1381C4.55397 16.5102 3.6394 14.3023 3.6394 12C3.6394 9.69775 4.55397 7.4898 6.1819 5.86186C7.80984 4.23393 10.0178 3.31936 12.32 3.31936C14.2131 3.31356 16.0552 3.93217 17.561 5.07936C18.0154 5.42449 18.435 5.81322 18.8138 6.24C18.8743 6.30821 18.9196 6.38858 18.9466 6.47571C18.9735 6.56284 18.9815 6.65472 18.9701 6.7452C18.9586 6.83568 18.928 6.92267 18.8801 7.00033C18.8323 7.078 18.7685 7.14455 18.6928 7.19552L15.9069 9.07392C15.7867 9.15478 15.6427 9.19248 15.4983 9.18085C15.3539 9.16923 15.2177 9.10897 15.112 9.00992C14.6247 8.55484 14.0334 8.22579 13.3898 8.05144C12.7462 7.87709 12.0697 7.8627 11.4192 8.00955C10.7688 8.1564 10.1641 8.46002 9.65783 8.89398C9.15154 9.32794 8.75901 9.87908 8.51442 10.4994C8.26982 11.1198 8.18057 11.7905 8.25444 12.4532C8.32831 13.1159 8.56306 13.7505 8.93825 14.3018C9.31344 14.853 9.81769 15.3042 10.4071 15.616C10.9965 15.9278 11.6532 16.0909 12.32 16.0909C13.6941 16.0909 14.944 15.4365 15.6685 14.3949H12.3012C12.1314 14.3949 11.9686 14.3275 11.8486 14.2074C11.7286 14.0874 11.6612 13.9246 11.6612 13.7549V10.5683C11.6612 10.3986 11.7286 10.2358 11.8486 10.1158C11.9686 9.99575 12.1314 9.92832 12.3012 9.92832H20.2327C20.3831 9.92799 20.5288 9.98063 20.6442 10.077C20.7597 10.1734 20.8375 10.3073 20.864 10.4554C20.9548 10.9652 21.0002 11.4821 20.9997 12C20.9998 14.3021 20.0854 16.51 18.4577 18.1379C16.8299 19.7658 14.6222 20.6805 12.32 20.6806ZM12.32 4.59936C8.23844 4.59936 4.91844 7.91936 4.91844 12C4.91844 16.0806 8.23844 19.4006 12.32 19.4006C16.4016 19.4006 19.7197 16.0806 19.7197 12C19.7197 11.7356 19.7057 11.4713 19.6778 11.2083H12.9412V13.1146H16.7124C16.815 13.1145 16.9162 13.1392 17.0074 13.1865C17.0985 13.2338 17.1769 13.3023 17.236 13.3863C17.2951 13.4702 17.3331 13.5672 17.3468 13.6689C17.3606 13.7707 17.3496 13.8742 17.3149 13.9709C16.5853 16.0045 14.5776 17.3709 12.32 17.3709C9.35844 17.3709 6.94916 14.9616 6.94916 12C6.94916 9.0384 9.35748 6.62912 12.32 6.62912C13.5046 6.62739 14.6562 7.01884 15.5943 7.74208L17.3418 6.56384C17.1645 6.4 16.9798 6.24523 16.7876 6.09952C15.504 5.12154 13.9337 4.59425 12.32 4.59936Z" fill="#202020"/>
</svg>
