<svg width="24" height="24" viewBox="0 0 24 24" fill="none" xmlns="http://www.w3.org/2000/svg">
<path d="M12.3521 19.0353C10.7243 19.0354 9.14692 18.4712 7.88859 17.4386C6.63027 16.4061 5.76888 14.9692 5.45121 13.3728C5.13355 11.7764 5.37925 10.1192 6.14646 8.68364C6.91367 7.24806 8.15491 6.12293 9.6587 5.49994C11.1625 4.87695 12.8358 4.79466 14.3934 5.26708C15.9511 5.7395 17.2967 6.73741 18.2011 8.09078C19.1055 9.44414 19.5126 11.0692 19.3531 12.6891C19.1936 14.309 18.4774 15.8235 17.3265 16.9745C16.6748 17.6299 15.8996 18.1495 15.0457 18.5032C14.1918 18.8569 13.2763 19.0378 12.3521 19.0353ZM12.3521 6.24488C9.17862 6.24488 6.59686 8.82664 6.59686 12.0001C6.59686 15.1735 9.17734 17.7553 12.3521 17.7553C15.5268 17.7553 18.1057 15.1735 18.1057 12.0001C18.1057 8.82664 15.5239 6.24488 12.3521 6.24488Z" fill="#202020"/>
<path d="M12.352 15.6695C11.6262 15.6698 10.9166 15.4549 10.313 15.0518C9.70931 14.6488 9.23874 14.0759 8.96076 13.4054C8.68279 12.7349 8.60989 11.9971 8.7513 11.2851C8.8927 10.5732 9.24205 9.91925 9.75517 9.40591C10.2683 8.89257 10.9221 8.54294 11.634 8.40122C12.3458 8.2595 13.0837 8.33208 13.7543 8.60976C14.4249 8.88745 14.9981 9.35777 15.4013 9.96124C15.8046 10.5647 16.0199 11.2742 16.0199 12C16.0188 12.9726 15.632 13.9051 14.9445 14.5929C14.2569 15.2808 13.3246 15.668 12.352 15.6695ZM12.352 9.61059C11.8794 9.61028 11.4172 9.75015 11.0241 10.0125C10.6309 10.2749 10.3244 10.6479 10.1433 11.0845C9.96223 11.5211 9.91468 12.0016 10.0067 12.4652C10.0987 12.9288 10.3262 13.3547 10.6603 13.6891C10.9944 14.0234 11.4201 14.2511 11.8837 14.3434C12.3472 14.4358 12.8277 14.3885 13.2645 14.2077C13.7012 14.0269 14.0744 13.7207 14.3371 13.3277C14.5997 12.9347 14.7399 12.4727 14.7399 12C14.7392 11.3668 14.4874 10.7597 14.0398 10.3118C13.5922 9.86384 12.9853 9.6117 12.352 9.61059ZM12.352 6.24483C12.1823 6.24483 12.0195 6.17741 11.8995 6.05738C11.7795 5.93736 11.712 5.77457 11.712 5.60483V3.62083C11.712 3.4511 11.7795 3.28831 11.8995 3.16829C12.0195 3.04826 12.1823 2.98083 12.352 2.98083C12.5218 2.98083 12.6845 3.04826 12.8046 3.16829C12.9246 3.28831 12.992 3.4511 12.992 3.62083V5.60483C12.992 5.77457 12.9246 5.93736 12.8046 6.05738C12.6845 6.17741 12.5218 6.24483 12.352 6.24483ZM12.352 21.018C12.1823 21.018 12.0195 20.9505 11.8995 20.8305C11.7795 20.7105 11.712 20.5477 11.712 20.378V18.394C11.712 18.2242 11.7795 18.0614 11.8995 17.9414C12.0195 17.8214 12.1823 17.754 12.352 17.754C12.5218 17.754 12.6845 17.8214 12.8046 17.9414C12.9246 18.0614 12.992 18.2242 12.992 18.394V20.378C12.992 20.5477 12.9246 20.7105 12.8046 20.8305C12.6845 20.9505 12.5218 21.018 12.352 21.018ZM20.7283 12.64H18.7443C18.5746 12.64 18.4118 12.5726 18.2918 12.4526C18.1718 12.3326 18.1043 12.1698 18.1043 12C18.1043 11.8303 18.1718 11.6675 18.2918 11.5475C18.4118 11.4275 18.5746 11.36 18.7443 11.36H20.7283C20.8981 11.36 21.0609 11.4275 21.1809 11.5475C21.3009 11.6675 21.3683 11.8303 21.3683 12C21.3683 12.1698 21.3009 12.3326 21.1809 12.4526C21.0609 12.5726 20.8981 12.64 20.7283 12.64ZM5.95554 12.64H3.97154C3.8018 12.64 3.63902 12.5726 3.51899 12.4526C3.39897 12.3326 3.33154 12.1698 3.33154 12C3.33154 11.8303 3.39897 11.6675 3.51899 11.5475C3.63902 11.4275 3.8018 11.36 3.97154 11.36H5.95554C6.12528 11.36 6.28807 11.4275 6.40809 11.5475C6.52811 11.6675 6.59554 11.8303 6.59554 12C6.59554 12.1698 6.52811 12.3326 6.40809 12.4526C6.28807 12.5726 6.12528 12.64 5.95554 12.64Z" fill="#202020"/>
</svg>
