<svg width="24" height="24" viewBox="0 0 24 24" fill="none" xmlns="http://www.w3.org/2000/svg">
<path d="M12 19.3971C8.41153 19.3971 5.49217 16.4778 5.49217 12.8893C5.48693 11.4253 5.98061 10.0032 6.89185 8.85729C7.7832 7.73169 9.02013 6.93061 10.4118 6.57761C10.5765 6.53628 10.7508 6.56205 10.8965 6.64925C11.0421 6.73644 11.1472 6.87793 11.1885 7.04257C11.2298 7.20722 11.2041 7.38154 11.1169 7.52719C11.0297 7.67284 10.8882 7.77788 10.7235 7.81921C9.59355 8.10212 8.5907 8.75494 7.87464 9.67372C7.15859 10.5925 6.7705 11.7244 6.77217 12.8893C6.77217 15.7719 9.11745 18.1171 12 18.1171C14.8826 18.1171 17.2278 15.7719 17.2278 12.8893C17.2304 12.0821 17.0441 11.2855 16.6838 10.5632C16.6082 10.4113 16.596 10.2355 16.6499 10.0745C16.7039 9.91356 16.8196 9.78063 16.9715 9.70497C17.1235 9.62931 17.2993 9.61712 17.4602 9.67107C17.6212 9.72502 17.7541 9.84069 17.8298 9.99265C18.2788 10.8921 18.5113 11.884 18.5085 12.8893C18.5078 16.4778 15.5885 19.3971 12 19.3971Z" fill="#202020"/>
<path d="M12 13.5293C11.8302 13.5293 11.6675 13.4618 11.5474 13.3418C11.4274 13.2218 11.36 13.059 11.36 12.8893V5.24287C11.36 5.07314 11.4274 4.91035 11.5474 4.79033C11.6675 4.6703 11.8302 4.60287 12 4.60287C13.1754 4.6033 14.3374 4.85359 15.4087 5.33714C16.4801 5.82069 17.4365 6.52647 18.2144 7.40767C18.2701 7.4707 18.3128 7.54407 18.3401 7.6236C18.3674 7.70313 18.3787 7.78726 18.3735 7.87119C18.3683 7.95511 18.3465 8.03718 18.3096 8.1127C18.2726 8.18823 18.2211 8.25573 18.1581 8.31135L12.4233 13.3693C12.3064 13.4724 12.1559 13.5293 12 13.5293ZM12.64 5.91327V11.4714L16.8089 7.79423C15.6687 6.71859 14.2009 6.05601 12.64 5.91231V5.91327Z" fill="#202020"/>
</svg>
