<svg width="24" height="24" viewBox="0 0 24 24" fill="none" xmlns="http://www.w3.org/2000/svg">
<path d="M6.96795 20.4557C6.05984 20.4557 5.18894 20.095 4.54681 19.4529C3.90469 18.8108 3.54395 17.9398 3.54395 17.0317V6.96807C3.54488 6.06025 3.90592 5.18989 4.54784 4.54796C5.18976 3.90604 6.06013 3.545 6.96795 3.54407H17.0319C17.94 3.54407 18.811 3.90481 19.4531 4.54693C20.0952 5.18906 20.4559 6.05997 20.4559 6.96807V17.0321C20.455 17.9399 20.094 18.8102 19.452 19.4522C18.8101 20.0941 17.9398 20.4551 17.0319 20.4561L6.96795 20.4557ZM17.0319 4.82439H6.96795C6.39948 4.8249 5.85444 5.05094 5.45247 5.45291C5.0505 5.85488 4.82445 6.39992 4.82395 6.96839V17.0324C4.82395 17.3139 4.8794 17.5927 4.98715 17.8529C5.09489 18.113 5.25282 18.3493 5.45191 18.5484C5.651 18.7475 5.88735 18.9054 6.14747 19.0132C6.40759 19.1209 6.68639 19.1764 6.96795 19.1764H17.0319C17.6004 19.1759 18.1455 18.9498 18.5474 18.5479C18.9494 18.1459 19.1754 17.6009 19.1759 17.0324V6.96807C19.1759 6.39944 18.9501 5.85411 18.548 5.45203C18.1459 5.04995 17.6006 4.82407 17.0319 4.82407V4.82439Z" fill="#202020"/>
<path d="M9.46495 20.4557C9.29521 20.4557 9.13243 20.3882 9.0124 20.2682C8.89238 20.1482 8.82495 19.9854 8.82495 19.8157V4.18431C8.82495 4.01457 8.89238 3.85179 9.0124 3.73176C9.13243 3.61174 9.29521 3.54431 9.46495 3.54431C9.63469 3.54431 9.79748 3.61174 9.9175 3.73176C10.0375 3.85179 10.105 4.01457 10.105 4.18431V19.8157C10.105 19.9854 10.0375 20.1482 9.9175 20.2682C9.79748 20.3882 9.63469 20.4557 9.46495 20.4557ZM14.7453 20.4557C14.5755 20.4557 14.4127 20.3882 14.2927 20.2682C14.1727 20.1482 14.1053 19.9854 14.1053 19.8157V4.18431C14.1053 4.01457 14.1727 3.85179 14.2927 3.73176C14.4127 3.61174 14.5755 3.54431 14.7453 3.54431C14.915 3.54431 15.0778 3.61174 15.1978 3.73176C15.3178 3.85179 15.3853 4.01457 15.3853 4.18431V19.8157C15.3853 19.9854 15.3178 20.1482 15.1978 20.2682C15.0778 20.3882 14.915 20.4557 14.7453 20.4557Z" fill="#202020"/>
<path d="M4.16148 9.99973C3.99175 9.99973 3.82896 9.9323 3.70894 9.81228C3.58891 9.69225 3.52148 9.52947 3.52148 9.35973C3.52148 9.18999 3.58891 9.0272 3.70894 8.90718C3.82896 8.78716 3.99175 8.71973 4.16148 8.71973H19.7925C19.9623 8.71973 20.125 8.78716 20.2451 8.90718C20.3651 9.0272 20.4325 9.18999 20.4325 9.35973C20.4325 9.52947 20.3651 9.69225 20.2451 9.81228C20.125 9.9323 19.9623 9.99973 19.7925 9.99973H4.16148ZM4.16148 15.2804C3.99175 15.2804 3.82896 15.2129 3.70894 15.0929C3.58891 14.9729 3.52148 14.8101 3.52148 14.6404C3.52148 14.4706 3.58891 14.3078 3.70894 14.1878C3.82896 14.0678 3.99175 14.0004 4.16148 14.0004H19.7925C19.9623 14.0004 20.125 14.0678 20.2451 14.1878C20.3651 14.3078 20.4325 14.4706 20.4325 14.6404C20.4325 14.8101 20.3651 14.9729 20.2451 15.0929C20.125 15.2129 19.9623 15.2804 19.7925 15.2804H4.16148Z" fill="#202020"/>
</svg>
