<svg width="24" height="24" viewBox="0 0 24 24" fill="none" xmlns="http://www.w3.org/2000/svg">
<path d="M6.96795 20.4556C6.05984 20.4556 5.18894 20.0949 4.54681 19.4528C3.90469 18.8106 3.54395 17.9397 3.54395 17.0316V6.96795C3.54395 6.05984 3.90469 5.18894 4.54681 4.54681C5.18894 3.90469 6.05984 3.54395 6.96795 3.54395H17.0319C17.94 3.54395 18.811 3.90469 19.4531 4.54681C20.0952 5.18894 20.4559 6.05984 20.4559 6.96795V17.0319C20.4559 17.94 20.0952 18.811 19.4531 19.4531C18.811 20.0952 17.94 20.4559 17.0319 20.4559L6.96795 20.4556ZM17.0319 4.82427H6.96795C6.39932 4.82427 5.85399 5.05015 5.45191 5.45223C5.04983 5.85431 4.82395 6.39964 4.82395 6.96826V17.0323C4.82395 17.3138 4.8794 17.5926 4.98715 17.8527C5.09489 18.1129 5.25282 18.3492 5.45191 18.5483C5.651 18.7474 5.88735 18.9053 6.14747 19.0131C6.40759 19.1208 6.68639 19.1763 6.96795 19.1763H17.0319C17.3135 19.1763 17.5923 19.1208 17.8524 19.0131C18.1125 18.9053 18.3489 18.7474 18.548 18.5483C18.7471 18.3492 18.905 18.1129 19.0127 17.8527C19.1205 17.5926 19.1759 17.3138 19.1759 17.0323V6.96795C19.1759 6.39932 18.9501 5.85399 18.548 5.45191C18.1459 5.04983 17.6006 4.82395 17.0319 4.82395V4.82427Z" fill="#202020"/>
<path d="M4.18419 12.64C4.01445 12.64 3.85166 12.5726 3.73164 12.4525C3.61162 12.3325 3.54419 12.1697 3.54419 12C3.54419 11.8302 3.61162 11.6675 3.73164 11.5474C3.85166 11.4274 4.01445 11.36 4.18419 11.36H19.8155C19.9853 11.36 20.1481 11.4274 20.2681 11.5474C20.3881 11.6675 20.4555 11.8302 20.4555 12C20.4555 12.1697 20.3881 12.3325 20.2681 12.4525C20.1481 12.5726 19.9853 12.64 19.8155 12.64H4.18419Z" fill="#202020"/>
<path d="M9.46495 20.4557C9.29521 20.4557 9.13243 20.3882 9.0124 20.2682C8.89238 20.1482 8.82495 19.9854 8.82495 19.8157V4.18431C8.82495 4.01457 8.89238 3.85179 9.0124 3.73176C9.13243 3.61174 9.29521 3.54431 9.46495 3.54431C9.63469 3.54431 9.79748 3.61174 9.9175 3.73176C10.0375 3.85179 10.105 4.01457 10.105 4.18431V19.8157C10.105 19.9854 10.0375 20.1482 9.9175 20.2682C9.79748 20.3882 9.63469 20.4557 9.46495 20.4557ZM14.7453 20.4557C14.5755 20.4557 14.4127 20.3882 14.2927 20.2682C14.1727 20.1482 14.1053 19.9854 14.1053 19.8157V4.18431C14.1053 4.01457 14.1727 3.85179 14.2927 3.73176C14.4127 3.61174 14.5755 3.54431 14.7453 3.54431C14.915 3.54431 15.0778 3.61174 15.1978 3.73176C15.3178 3.85179 15.3853 4.01457 15.3853 4.18431V19.8157C15.3853 19.9854 15.3178 20.1482 15.1978 20.2682C15.0778 20.3882 14.915 20.4557 14.7453 20.4557Z" fill="#202020"/>
</svg>
