<svg width="24" height="24" viewBox="0 0 24 24" fill="none" xmlns="http://www.w3.org/2000/svg">
<path d="M8.43157 20.4556C7.52375 20.4547 6.65339 20.0937 6.01146 19.4517C5.36954 18.8098 5.0085 17.9394 5.00757 17.0316V6.96795C5.00842 6.0601 5.36943 5.18969 6.01137 4.54775C6.65331 3.90581 7.52373 3.54479 8.43157 3.54395H18.4959C19.4037 3.54488 20.2741 3.90592 20.916 4.54784C21.5579 5.18976 21.919 6.06013 21.9199 6.96795V14.4819C21.9199 14.6516 21.8525 14.8144 21.7324 14.9344C21.6124 15.0544 21.4496 15.1219 21.2799 15.1219C21.1101 15.1219 20.9474 15.0544 20.8273 14.9344C20.7073 14.8144 20.6399 14.6516 20.6399 14.4819V6.96795C20.6394 6.39948 20.4133 5.85444 20.0114 5.45247C19.6094 5.0505 19.0644 4.82445 18.4959 4.82395H8.43125C7.86275 4.82437 7.31767 5.05039 6.91568 5.45238C6.51369 5.85436 6.28767 6.39945 6.28725 6.96795V17.0319C6.28776 17.6004 6.51381 18.1455 6.91577 18.5474C7.31774 18.9494 7.86278 19.1754 8.43125 19.1759H14.8706C15.0403 19.1759 15.2031 19.2434 15.3232 19.3634C15.4432 19.4834 15.5106 19.6462 15.5106 19.8159C15.5106 19.9857 15.4432 20.1485 15.3232 20.2685C15.2031 20.3885 15.0403 20.4559 14.8706 20.4559L8.43157 20.4556Z" fill="#202020"/>
<path d="M10.9286 20.4557C10.7588 20.4557 10.596 20.3882 10.476 20.2682C10.356 20.1482 10.2886 19.9854 10.2886 19.8157V4.18431C10.2886 4.01457 10.356 3.85179 10.476 3.73176C10.596 3.61174 10.7588 3.54431 10.9286 3.54431C11.0983 3.54431 11.2611 3.61174 11.3811 3.73176C11.5011 3.85179 11.5686 4.01457 11.5686 4.18431V19.8157C11.5686 19.9854 11.5011 20.1482 11.3811 20.2682C11.2611 20.3882 11.0983 20.4557 10.9286 20.4557ZM16.2089 15.2803C16.0392 15.2803 15.8764 15.2129 15.7563 15.0929C15.6363 14.9728 15.5689 14.81 15.5689 14.6403V4.18431C15.5689 4.01457 15.6363 3.85179 15.7563 3.73176C15.8764 3.61174 16.0392 3.54431 16.2089 3.54431C16.3786 3.54431 16.5414 3.61174 16.6614 3.73176C16.7815 3.85179 16.8489 4.01457 16.8489 4.18431V14.6403C16.8489 14.81 16.7815 14.9728 16.6614 15.0929C16.5414 15.2129 16.3786 15.2803 16.2089 15.2803Z" fill="#202020"/>
<path d="M5.68932 9.99973C5.51958 9.99973 5.35679 9.9323 5.23677 9.81228C5.11674 9.69225 5.04932 9.52947 5.04932 9.35973C5.04932 9.18999 5.11674 9.0272 5.23677 8.90718C5.35679 8.78716 5.51958 8.71973 5.68932 8.71973H21.2564C21.4261 8.71973 21.5889 8.78716 21.7089 8.90718C21.8289 9.0272 21.8964 9.18999 21.8964 9.35973C21.8964 9.52947 21.8289 9.69225 21.7089 9.81228C21.5889 9.9323 21.4261 9.99973 21.2564 9.99973H5.68932ZM5.68932 15.2804C5.51958 15.2804 5.35679 15.2129 5.23677 15.0929C5.11674 14.9729 5.04932 14.8101 5.04932 14.6404C5.04932 14.4706 5.11674 14.3078 5.23677 14.1878C5.35679 14.0678 5.51958 14.0004 5.68932 14.0004H16.2173C16.3871 14.0004 16.5498 14.0678 16.6699 14.1878C16.7899 14.3078 16.8573 14.4706 16.8573 14.6404C16.8573 14.8101 16.7899 14.9729 16.6699 15.0929C16.5498 15.2129 16.3871 15.2804 16.2173 15.2804H5.68932ZM17.6848 20.576C17.4197 20.5765 17.1638 20.4783 16.9671 20.3005L15.9549 19.3904C15.7428 19.1997 15.6152 18.9325 15.6001 18.6476C15.585 18.3628 15.6836 18.0836 15.8743 17.8714L18.4823 14.9706C18.6731 14.759 18.9399 14.6317 19.2244 14.6165C19.5088 14.6012 19.7878 14.6994 20 14.8893L21.0122 15.7994C21.2243 15.9902 21.3519 16.2574 21.367 16.5422C21.3822 16.8271 21.2835 17.1063 21.0928 17.3184L18.4848 20.2192C18.3906 20.3246 18.2765 20.4103 18.1489 20.4712C18.0213 20.5321 17.883 20.5671 17.7418 20.5741C17.7236 20.576 17.7044 20.576 17.6848 20.576ZM16.9626 18.5751L17.6708 19.2119L20.0068 16.6148L19.2989 15.9783L16.9626 18.5751Z" fill="#202020"/>
<path d="M19.3007 18.9955C19.1446 18.996 18.9937 18.939 18.8767 18.8355L17.2447 17.3911C17.1174 17.2786 17.04 17.1201 17.0295 16.9506C17.0191 16.781 17.0764 16.6142 17.1889 16.4869C17.3014 16.3596 17.4598 16.2822 17.6294 16.2717C17.799 16.2613 17.9657 16.3186 18.093 16.4311L19.725 17.8755C19.8226 17.9616 19.8916 18.0753 19.9229 18.2015C19.9542 18.3277 19.9463 18.4605 19.9003 18.5821C19.8542 18.7038 19.7722 18.8085 19.6652 18.8823C19.5581 18.9562 19.4311 18.9957 19.301 18.9955H19.3007Z" fill="#202020"/>
</svg>
