<svg width="24" height="24" viewBox="0 0 24 24" fill="none" xmlns="http://www.w3.org/2000/svg">
<path d="M6.96795 20.4556C6.06016 20.4546 5.18984 20.0935 4.54793 19.4516C3.90603 18.8097 3.54496 17.9394 3.54395 17.0316V6.96795C3.54395 6.05984 3.90469 5.18894 4.54681 4.54681C5.18894 3.90469 6.05984 3.54395 6.96795 3.54395H17.0319C17.9397 3.54496 18.8101 3.90603 19.452 4.54793C20.0939 5.18984 20.4549 6.06016 20.4559 6.96795V17.0319C20.4559 17.94 20.0952 18.811 19.4531 19.4531C18.811 20.0952 17.94 20.4559 17.0319 20.4559L6.96795 20.4556ZM17.0319 4.82427H6.96795C6.39932 4.82427 5.85399 5.05015 5.45191 5.45223C5.04983 5.85431 4.82395 6.39964 4.82395 6.96826V17.0323C4.82445 17.6007 5.0505 18.1458 5.45247 18.5477C5.85444 18.9497 6.39948 19.1758 6.96795 19.1763H17.0319C17.3135 19.1763 17.5923 19.1208 17.8524 19.0131C18.1125 18.9053 18.3489 18.7474 18.548 18.5483C18.7471 18.3492 18.905 18.1129 19.0127 17.8527C19.1205 17.5926 19.1759 17.3138 19.1759 17.0323V6.96795C19.1753 6.39956 18.9492 5.85465 18.5472 5.45277C18.1453 5.05089 17.6003 4.82486 17.0319 4.82427Z" fill="#202020"/>
<path d="M9.11339 20.4557C8.94365 20.4557 8.78086 20.3882 8.66084 20.2682C8.54082 20.1482 8.47339 19.9854 8.47339 19.8157V4.18431C8.47339 4.01457 8.54082 3.85179 8.66084 3.73176C8.78086 3.61174 8.94365 3.54431 9.11339 3.54431C9.28313 3.54431 9.44591 3.61174 9.56594 3.73176C9.68596 3.85179 9.75339 4.01457 9.75339 4.18431V19.8157C9.75339 19.9854 9.68596 20.1482 9.56594 20.2682C9.44591 20.3882 9.28313 20.4557 9.11339 20.4557Z" fill="#202020"/>
<path d="M19.8158 10.32H9.11339C8.94365 10.32 8.78086 10.2526 8.66084 10.1326C8.54082 10.0126 8.47339 9.84978 8.47339 9.68004C8.47339 9.5103 8.54082 9.34751 8.66084 9.22749C8.78086 9.10747 8.94365 9.04004 9.11339 9.04004H19.8158C19.9855 9.04004 20.1483 9.10747 20.2683 9.22749C20.3884 9.34751 20.4558 9.5103 20.4558 9.68004C20.4558 9.84978 20.3884 10.0126 20.2683 10.1326C20.1483 10.2526 19.9855 10.32 19.8158 10.32ZM19.8158 15.504H9.11339C8.94365 15.504 8.78086 15.4366 8.66084 15.3166C8.54082 15.1966 8.47339 15.0338 8.47339 14.864C8.47339 14.6943 8.54082 14.5315 8.66084 14.4115C8.78086 14.2915 8.94365 14.224 9.11339 14.224H19.8158C19.9855 14.224 20.1483 14.2915 20.2683 14.4115C20.3884 14.5315 20.4558 14.6943 20.4558 14.864C20.4558 15.0338 20.3884 15.1966 20.2683 15.3166C20.1483 15.4366 19.9855 15.504 19.8158 15.504Z" fill="#202020"/>
</svg>
