<svg width="24" height="24" viewBox="0 0 24 24" fill="none" xmlns="http://www.w3.org/2000/svg">
<path d="M8.06592 19.0231C7.9521 19.0229 7.84039 18.9924 7.74229 18.9347C7.64419 18.877 7.56326 18.7941 7.50783 18.6947C7.45241 18.5953 7.42449 18.4829 7.42697 18.3691C7.42945 18.2553 7.46222 18.1443 7.52192 18.0474L15.3888 5.28001C15.4329 5.20836 15.4907 5.14611 15.5589 5.0968C15.6271 5.04749 15.7043 5.01209 15.7862 4.99263C15.8681 4.97316 15.9529 4.97002 16.036 4.98336C16.1191 4.99671 16.1987 5.02629 16.2704 5.07041C16.342 5.11454 16.4043 5.17234 16.4536 5.24053C16.5029 5.30871 16.5383 5.38594 16.5578 5.4678C16.5772 5.54967 16.5804 5.63456 16.567 5.71764C16.5537 5.80072 16.5241 5.88036 16.48 5.95201L8.6112 18.72C8.55371 18.8128 8.47342 18.8894 8.37798 18.9425C8.28254 18.9955 8.17511 19.0233 8.06592 19.0231Z" fill="#202020"/>
<path d="M13.7488 19.9597H10.2512C9.76014 19.9611 9.27371 19.8651 8.82005 19.6771C8.36639 19.4892 7.95452 19.2132 7.6083 18.865L5.13502 16.3917C4.78681 16.0455 4.51076 15.6336 4.32284 15.1799C4.13493 14.7263 4.0389 14.2398 4.0403 13.7488V10.2512C4.0389 9.76017 4.13493 9.27374 4.32284 8.82008C4.51076 8.36642 4.78681 7.95455 5.13502 7.60833L7.6083 5.13505C7.95452 4.78684 8.36639 4.51079 8.82005 4.32287C9.27371 4.13496 9.76014 4.03893 10.2512 4.04033H13.7488C14.2398 4.03893 14.7262 4.13496 15.1799 4.32287C15.6336 4.51079 16.0454 4.78684 16.3917 5.13505L18.8649 7.60833C19.2131 7.95455 19.4892 8.36642 19.6771 8.82008C19.865 9.27374 19.9611 9.76017 19.9597 10.2512V13.7488C19.9611 14.2398 19.865 14.7263 19.6771 15.1799C19.4892 15.6336 19.2131 16.0455 18.8649 16.3917L16.3917 18.865C16.0454 19.2132 15.6336 19.4892 15.1799 19.6771C14.7262 19.8651 14.2398 19.9611 13.7488 19.9597ZM10.2512 5.32033C9.92832 5.31941 9.60849 5.38258 9.31021 5.50617C9.01195 5.62977 8.74117 5.81132 8.51358 6.04033L6.0403 8.51361C5.81129 8.7412 5.62974 9.01198 5.50614 9.31025C5.38255 9.60852 5.31938 9.92835 5.3203 10.2512V13.7488C5.31938 14.0717 5.38255 14.3915 5.50614 14.6898C5.62974 14.988 5.81129 15.2588 6.0403 15.4864L8.51358 17.9597C8.74117 18.1887 9.01195 18.3703 9.31021 18.4938C9.60849 18.6174 9.92832 18.6806 10.2512 18.6797H13.7488C14.0716 18.6806 14.3915 18.6174 14.6897 18.4938C14.988 18.3703 15.2588 18.1887 15.4864 17.9597L17.9597 15.488C18.1887 15.2604 18.3702 14.9896 18.4938 14.6914C18.6174 14.3931 18.6806 14.0733 18.6797 13.7504V10.2512C18.6806 9.92838 18.6174 9.60857 18.4939 9.31031C18.3704 9.01205 18.1889 8.74126 17.96 8.51361L15.488 6.04033C15.2604 5.81132 14.9896 5.62977 14.6913 5.50617C14.3931 5.38258 14.0732 5.31941 13.7504 5.32033H10.2512Z" fill="#202020"/>
</svg>
