<svg width="24" height="24" viewBox="0 0 24 24" fill="none" xmlns="http://www.w3.org/2000/svg">
<path d="M4.38976 12.64C4.22002 12.64 4.05723 12.5726 3.93721 12.4525C3.81718 12.3325 3.74976 12.1697 3.74976 12C3.74971 10.9165 3.96308 9.8437 4.37768 8.84272C4.79228 7.84173 5.39999 6.93222 6.1661 6.1661C6.93222 5.39999 7.84173 4.79228 8.84272 4.37768C9.8437 3.96308 10.9165 3.74971 12 3.74976C12.1697 3.74976 12.3325 3.81718 12.4525 3.93721C12.5726 4.05723 12.64 4.22002 12.64 4.38976C12.64 4.55949 12.5726 4.72228 12.4525 4.8423C12.3325 4.96233 12.1697 5.02976 12 5.02976C8.15648 5.02976 5.02976 8.15648 5.02976 12C5.02976 12.1697 4.96233 12.3325 4.8423 12.4525C4.72228 12.5726 4.55949 12.64 4.38976 12.64ZM12 20.2502C11.8303 20.2502 11.6675 20.1828 11.5474 20.0628C11.4274 19.9428 11.36 19.78 11.36 19.6102C11.36 19.4405 11.4274 19.2777 11.5474 19.1577C11.6675 19.0377 11.8303 18.9702 12 18.9702C15.8435 18.9702 18.9702 15.8435 18.9702 12C18.9702 11.8303 19.0377 11.6675 19.1577 11.5474C19.2777 11.4274 19.4405 11.36 19.6102 11.36C19.78 11.36 19.9428 11.4274 20.0628 11.5474C20.1828 11.6675 20.2502 11.8303 20.2502 12C20.2503 13.0834 20.0369 14.1563 19.6223 15.1573C19.2077 16.1583 18.6 17.0678 17.8339 17.8339C17.0678 18.6 16.1583 19.2077 15.1573 19.6223C14.1563 20.0369 13.0834 20.2503 12 20.2502Z" fill="#202020"/>
<path d="M11.4455 6.39998C11.3231 6.39999 11.2033 6.36493 11.1003 6.29895C10.9973 6.23298 10.9153 6.13885 10.8641 6.02773C10.8129 5.9166 10.7947 5.79314 10.8115 5.67196C10.8283 5.55077 10.8795 5.43695 10.9591 5.34398L11.712 4.46302L10.7347 3.63678C10.6051 3.52713 10.5244 3.37048 10.5103 3.20131C10.4962 3.03214 10.5499 2.86429 10.6595 2.7347C10.7692 2.6051 10.9258 2.52437 11.095 2.51027C11.2642 2.49617 11.432 2.54985 11.5616 2.6595L13.0298 3.9011C13.0941 3.95554 13.147 4.02215 13.1855 4.09711C13.224 4.17206 13.2474 4.25388 13.2542 4.33788C13.261 4.42187 13.2512 4.50638 13.2252 4.58656C13.1993 4.66674 13.1578 4.741 13.1031 4.8051L11.9325 6.17598C11.8723 6.24631 11.7976 6.30276 11.7136 6.34143C11.6295 6.3801 11.538 6.40008 11.4455 6.39998ZM12.0736 21.6073C11.906 21.6075 11.745 21.5416 11.6256 21.424L10.2528 20.0777C10.1926 20.0187 10.1447 19.9483 10.1118 19.8707C10.0789 19.7931 10.0617 19.7098 10.0611 19.6255C10.0605 19.5412 10.0766 19.4576 10.1084 19.3795C10.1402 19.3014 10.1871 19.2304 10.2464 19.1705L11.5149 17.8905C11.574 17.8308 11.6444 17.7833 11.7219 17.7508C11.7994 17.7183 11.8825 17.7013 11.9666 17.7009C12.0506 17.7005 12.1339 17.7167 12.2117 17.7485C12.2895 17.7803 12.3603 17.8271 12.42 17.8862C12.4797 17.9454 12.5272 18.0157 12.5597 18.0932C12.5923 18.1707 12.6092 18.2538 12.6096 18.3379C12.61 18.4219 12.5939 18.5052 12.5621 18.583C12.5303 18.6608 12.4835 18.7316 12.4243 18.7913L11.6083 19.616L12.5219 20.512C12.6127 20.601 12.6749 20.715 12.7006 20.8395C12.7263 20.9639 12.7144 21.0932 12.6663 21.2109C12.6183 21.3286 12.5363 21.4293 12.4308 21.5002C12.3253 21.5711 12.201 21.6089 12.0739 21.6089L12.0736 21.6073ZM7.78818 19.7808H4.10082C3.68376 19.7805 3.28386 19.6147 2.98896 19.3198C2.69406 19.0249 2.52827 18.625 2.52802 18.208V14.5213C2.52852 14.1046 2.6943 13.7051 2.98898 13.4105C3.28365 13.1159 3.68316 12.9502 4.09986 12.9497H7.78818C8.20487 12.9502 8.60438 13.1159 8.89905 13.4105C9.19373 13.7051 9.35951 14.1046 9.36002 14.5213V18.208C9.35976 18.6249 9.19411 19.0246 8.89941 19.3195C8.60472 19.6144 8.20506 19.7803 7.78818 19.7808ZM4.10082 14.2297C4.0235 14.2298 3.94936 14.2606 3.89466 14.3152C3.83996 14.3698 3.80914 14.4439 3.80898 14.5213V18.208C3.80906 18.2854 3.83983 18.3595 3.89455 18.4142C3.94926 18.469 4.02344 18.4997 4.10082 18.4998H7.78818C7.86555 18.4997 7.93973 18.469 7.99444 18.4142C8.04916 18.3595 8.07993 18.2854 8.08002 18.208V14.5213C8.07985 14.4439 8.04903 14.3698 7.99433 14.3152C7.93963 14.2606 7.8655 14.2298 7.78818 14.2297H4.10082Z" fill="#202020"/>
<path d="M8.72001 16.0989H3.16802C2.99828 16.0989 2.83549 16.0314 2.71547 15.9114C2.59544 15.7914 2.52802 15.6286 2.52802 15.4589C2.52802 15.2891 2.59544 15.1263 2.71547 15.0063C2.83549 14.8863 2.99828 14.8189 3.16802 14.8189H8.72001C8.88975 14.8189 9.05254 14.8863 9.17256 15.0063C9.29259 15.1263 9.36001 15.2891 9.36001 15.4589C9.36001 15.6286 9.29259 15.7914 9.17256 15.9114C9.05254 16.0314 8.88975 16.0989 8.72001 16.0989ZM19.04 10.6457H15.1443C14.7551 10.6452 14.3819 10.4903 14.1066 10.215C13.8314 9.93976 13.6766 9.56654 13.6762 9.17726V5.28286C13.6766 4.89361 13.8314 4.52042 14.1067 4.24518C14.3819 3.96994 14.7551 3.81512 15.1443 3.8147H19.04C19.4293 3.81512 19.8025 3.96994 20.0777 4.24518C20.3529 4.52042 20.5078 4.89361 20.5082 5.28286V9.17726C20.5078 9.56654 20.3529 9.93976 20.0777 10.215C19.8025 10.4903 19.4293 10.6452 19.04 10.6457ZM15.1443 5.0947C15.0944 5.0947 15.0466 5.11452 15.0113 5.14981C14.976 5.18509 14.9562 5.23295 14.9562 5.28286V9.17726C14.9562 9.22719 14.976 9.27508 15.0113 9.31042C15.0465 9.34576 15.0944 9.36565 15.1443 9.36574H19.04C19.0899 9.36565 19.1378 9.34576 19.1731 9.31042C19.2084 9.27508 19.2282 9.22719 19.2282 9.17726V5.28286C19.2282 5.23295 19.2083 5.18509 19.1731 5.14981C19.1378 5.11452 19.0899 5.0947 19.04 5.0947H15.1443Z" fill="#202020"/>
<path d="M19.8672 6.96384H14.3161C14.1464 6.96384 13.9836 6.89641 13.8636 6.77639C13.7436 6.65636 13.6761 6.49358 13.6761 6.32384C13.6761 6.1541 13.7436 5.99131 13.8636 5.87129C13.9836 5.75127 14.1464 5.68384 14.3161 5.68384H19.8672C20.0369 5.68384 20.1997 5.75127 20.3197 5.87129C20.4398 5.99131 20.5072 6.1541 20.5072 6.32384C20.5072 6.49358 20.4398 6.65636 20.3197 6.77639C20.1997 6.89641 20.0369 6.96384 19.8672 6.96384Z" fill="#202020"/>
</svg>
