<svg width="24" height="24" viewBox="0 0 24 24" fill="none" xmlns="http://www.w3.org/2000/svg">
<path d="M13.7488 19.9597H10.2512C9.76014 19.9611 9.27371 19.8651 8.82005 19.6771C8.36639 19.4892 7.95452 19.2132 7.6083 18.865L5.13502 16.3917C4.78681 16.0455 4.51076 15.6336 4.32284 15.1799C4.13493 14.7263 4.0389 14.2398 4.0403 13.7488V10.2512C4.0389 9.76017 4.13493 9.27374 4.32284 8.82008C4.51076 8.36642 4.78681 7.95455 5.13502 7.60833L7.6083 5.13505C7.95452 4.78684 8.36639 4.51079 8.82005 4.32287C9.27371 4.13496 9.76014 4.03893 10.2512 4.04033H13.7488C14.2398 4.03893 14.7262 4.13496 15.1799 4.32287C15.6336 4.51079 16.0454 4.78684 16.3917 5.13505L18.8649 7.60833C19.2131 7.95455 19.4892 8.36642 19.6771 8.82008C19.865 9.27374 19.9611 9.76017 19.9597 10.2512V13.7488C19.9611 14.2398 19.865 14.7263 19.6771 15.1799C19.4892 15.6336 19.2131 16.0455 18.8649 16.3917L16.3917 18.865C16.0454 19.2132 15.6336 19.4892 15.1799 19.6771C14.7262 19.8651 14.2398 19.9611 13.7488 19.9597ZM10.2512 5.32033C9.92832 5.31941 9.60849 5.38258 9.31021 5.50617C9.01195 5.62977 8.74117 5.81132 8.51358 6.04033L6.0403 8.51361C5.81129 8.7412 5.62974 9.01198 5.50614 9.31025C5.38255 9.60852 5.31938 9.92835 5.3203 10.2512V13.7488C5.31918 14.0719 5.38222 14.392 5.50576 14.6906C5.6293 14.9891 5.81088 15.2602 6.03998 15.488L8.51358 17.9613C8.74117 18.1903 9.01195 18.3719 9.31021 18.4954C9.60849 18.619 9.92832 18.6822 10.2512 18.6813H13.7488C14.0716 18.6822 14.3915 18.619 14.6897 18.4954C14.988 18.3719 15.2588 18.1903 15.4864 17.9613L17.9597 15.488C18.1887 15.2604 18.3702 14.9896 18.4938 14.6914C18.6174 14.3931 18.6806 14.0733 18.6797 13.7504V10.2512C18.6806 9.92838 18.6174 9.60857 18.4939 9.31031C18.3704 9.01205 18.1889 8.74126 17.96 8.51361L15.488 6.04033C15.2604 5.81132 14.9896 5.62977 14.6913 5.50617C14.3931 5.38258 14.0732 5.31941 13.7504 5.32033H10.2512Z" fill="#202020"/>
<path d="M9.25664 15.3834C9.13001 15.3834 9.00622 15.3459 8.90093 15.2755C8.79564 15.2052 8.71358 15.1052 8.66514 14.9882C8.6167 14.8712 8.60405 14.7425 8.6288 14.6183C8.65354 14.4941 8.71457 14.38 8.80416 14.2906L14.2906 8.80416C14.35 8.74472 14.4206 8.69757 14.4982 8.6654C14.5759 8.63323 14.6591 8.61667 14.7432 8.61667C14.8273 8.61667 14.9105 8.63323 14.9882 8.6654C15.0658 8.69757 15.1364 8.74472 15.1958 8.80416C15.2553 8.8636 15.3024 8.93417 15.3346 9.01183C15.3668 9.0895 15.3833 9.17274 15.3833 9.2568C15.3833 9.34086 15.3668 9.4241 15.3346 9.50177C15.3024 9.57943 15.2553 9.65 15.1958 9.70944L9.70944 15.1958C9.64999 15.2553 9.57939 15.3025 9.5017 15.3347C9.42401 15.3668 9.34073 15.3834 9.25664 15.3834Z" fill="#202020"/>
<path d="M14.7434 15.3834C14.6593 15.3834 14.576 15.3668 14.4983 15.3347C14.4206 15.3025 14.35 15.2553 14.2906 15.1958L8.80419 9.70944C8.74475 9.65 8.6976 9.57943 8.66543 9.50177C8.63326 9.4241 8.6167 9.34086 8.6167 9.2568C8.6167 9.17274 8.63326 9.0895 8.66543 9.01183C8.6976 8.93417 8.74475 8.8636 8.80419 8.80416C8.86363 8.74472 8.9342 8.69757 9.01186 8.6654C9.08953 8.63323 9.17277 8.61667 9.25683 8.61667C9.34089 8.61667 9.42413 8.63323 9.5018 8.6654C9.57946 8.69757 9.65003 8.74472 9.70947 8.80416L15.1959 14.2906C15.2855 14.38 15.3465 14.4941 15.3712 14.6183C15.396 14.7425 15.3833 14.8712 15.3349 14.9882C15.2864 15.1052 15.2044 15.2052 15.0991 15.2755C14.9938 15.3459 14.87 15.3834 14.7434 15.3834Z" fill="#202020"/>
</svg>
