<svg width="24" height="24" viewBox="0 0 24 24" fill="none" xmlns="http://www.w3.org/2000/svg">
<path d="M11.7281 20.2503C9.81943 20.2502 7.96986 19.5884 6.4945 18.3775C5.01914 17.1666 4.00929 15.4816 3.63699 13.6096C3.2647 11.7376 3.553 9.79446 4.45278 8.11121C5.35257 6.42796 6.80815 5.10876 8.57153 4.3784C10.3349 3.64804 12.297 3.55169 14.1234 4.10578C15.9499 4.65986 17.5277 5.8301 18.5881 7.4171C19.6484 9.0041 20.1257 10.9097 19.9386 12.8091C19.7515 14.7086 18.9116 16.4844 17.562 17.834C16.7976 18.6025 15.8884 19.2117 14.887 19.6265C13.8857 20.0412 12.812 20.2533 11.7281 20.2503ZM11.7281 5.02985C7.88456 5.02985 4.75784 8.15657 4.75784 12.0001C4.75784 15.8436 7.88456 18.9703 11.7281 18.9703C15.5716 18.9703 18.6983 15.8436 18.6983 12.0001C18.6983 8.15657 15.5716 5.02985 11.7281 5.02985Z" fill="#202020"/>
<path d="M11.728 17.178C10.5657 17.1821 9.43638 16.791 8.52549 16.0689C8.45808 16.0173 8.40159 15.9529 8.35931 15.8794C8.31702 15.8058 8.28979 15.7246 8.27919 15.6404C8.26858 15.5562 8.27483 15.4707 8.29755 15.389C8.32028 15.3073 8.35903 15.2308 8.41155 15.1642C8.46408 15.0976 8.52933 15.042 8.60351 15.0009C8.6777 14.9597 8.75933 14.9337 8.84366 14.9243C8.92799 14.915 9.01334 14.9225 9.09474 14.9464C9.17614 14.9703 9.25196 15.0102 9.31781 15.0637C9.99534 15.5966 10.8304 15.8899 11.6923 15.8978C12.5542 15.9057 13.3945 15.6277 14.0816 15.1073C14.1487 15.0565 14.2251 15.0194 14.3064 14.9981C14.3878 14.9768 14.4726 14.9717 14.5559 14.9832C14.6392 14.9947 14.7194 15.0224 14.792 15.0649C14.8646 15.1074 14.9281 15.1638 14.9789 15.2308C15.0297 15.2978 15.0668 15.3742 15.0881 15.4556C15.1094 15.5369 15.1145 15.6217 15.103 15.705C15.0915 15.7883 15.0638 15.8686 15.0213 15.9412C14.9788 16.0138 14.9224 16.0773 14.8554 16.1281C13.9569 16.8126 12.8576 17.1817 11.728 17.178Z" fill="#202020"/>
</svg>
