<svg width="24" height="24" viewBox="0 0 24 24" fill="none" xmlns="http://www.w3.org/2000/svg">
<path d="M11.7281 20.2502C9.81943 20.2501 7.96986 19.5882 6.4945 18.3774C5.01914 17.1665 4.00929 15.4815 3.63699 13.6095C3.2647 11.7375 3.553 9.79434 4.45278 8.11109C5.35257 6.42784 6.80815 5.10864 8.57153 4.37828C10.3349 3.64791 12.297 3.55157 14.1234 4.10565C15.9499 4.65974 17.5277 5.82998 18.5881 7.41698C19.6484 9.00398 20.1257 10.9095 19.9386 12.809C19.7515 14.7085 18.9116 16.4843 17.562 17.8339C16.7976 18.6023 15.8884 19.2116 14.887 19.6263C13.8857 20.0411 12.812 20.2531 11.7281 20.2502ZM11.7281 5.02973C7.88456 5.02973 4.75784 8.15645 4.75784 12C4.75784 15.8435 7.88456 18.9702 11.7281 18.9702C15.5716 18.9702 18.6983 15.8435 18.6983 12C18.6983 8.15645 15.5716 5.02973 11.7281 5.02973Z" fill="#202020"/>
<path d="M11.728 17.1779C10.5657 17.182 9.43638 16.7909 8.52549 16.0687C8.45808 16.0172 8.40159 15.9528 8.35931 15.8792C8.31702 15.8057 8.28979 15.7244 8.27919 15.6403C8.26858 15.5561 8.27483 15.4706 8.29755 15.3889C8.32028 15.3071 8.35903 15.2307 8.41155 15.1641C8.46408 15.0975 8.52933 15.0419 8.60351 15.0007C8.6777 14.9596 8.75933 14.9335 8.84366 14.9242C8.92799 14.9148 9.01334 14.9223 9.09474 14.9463C9.17614 14.9702 9.25196 15.0101 9.31781 15.0636C9.99534 15.5965 10.8304 15.8898 11.6923 15.8977C12.5542 15.9056 13.3945 15.6276 14.0816 15.1071C14.1487 15.0563 14.2251 15.0192 14.3064 14.9979C14.3878 14.9767 14.4726 14.9716 14.5559 14.9831C14.6392 14.9945 14.7194 15.0223 14.792 15.0648C14.8646 15.1073 14.9281 15.1636 14.9789 15.2307C15.0297 15.2977 15.0668 15.3741 15.0881 15.4554C15.1094 15.5368 15.1145 15.6216 15.103 15.7049C15.0915 15.7882 15.0638 15.8685 15.0213 15.941C14.9788 16.0136 14.9224 16.0771 14.8554 16.1279C13.9569 16.8125 12.8576 17.1816 11.728 17.1779Z" fill="#202020"/>
</svg>
