<svg width="24" height="24" viewBox="0 0 24 24" fill="none" xmlns="http://www.w3.org/2000/svg">
<path d="M9.01729 19.0256C8.99969 19.0256 8.98177 19.0256 8.96353 19.0234C8.79438 19.0093 8.63777 18.9286 8.52813 18.799C8.41849 18.6695 8.36481 18.5017 8.37889 18.3325L9.50977 4.76228C9.513 4.67583 9.53374 4.59094 9.57071 4.51273C9.60768 4.43451 9.66012 4.36461 9.72487 4.30724C9.78962 4.24986 9.86532 4.20621 9.94742 4.17892C10.0295 4.15163 10.1163 4.14127 10.2025 4.14845C10.2887 4.15564 10.3726 4.18023 10.449 4.22074C10.5254 4.26125 10.5929 4.31684 10.6472 4.38414C10.7016 4.45144 10.7417 4.52907 10.7652 4.61232C10.7887 4.69557 10.7951 4.78273 10.784 4.86852L9.65441 18.4388C9.64109 18.5986 9.56822 18.7477 9.45022 18.8564C9.33223 18.9651 9.17771 19.0255 9.01729 19.0256ZM14.5757 19.0256C14.5578 19.0256 14.5398 19.0256 14.5219 19.0234C14.3528 19.0093 14.1962 18.9286 14.0865 18.799C13.9769 18.6695 13.9232 18.5017 13.9373 18.3325L15.0682 4.76228C15.0743 4.67793 15.0972 4.59564 15.1354 4.52016C15.1736 4.44469 15.2263 4.37753 15.2906 4.32258C15.3549 4.26762 15.4295 4.22595 15.5099 4.19998C15.5904 4.17401 15.6753 4.16425 15.7596 4.17127C15.8439 4.17829 15.9259 4.20195 16.001 4.24088C16.0761 4.27981 16.1427 4.33324 16.1971 4.39807C16.2514 4.46291 16.2923 4.53787 16.3175 4.61862C16.3426 4.69937 16.3515 4.78431 16.3437 4.86852L15.2128 18.4388C15.1995 18.5986 15.1266 18.7477 15.0086 18.8564C14.8906 18.9651 14.7361 19.0255 14.5757 19.0256Z" fill="#202020"/>
<path d="M5.50817 9.50583C5.33843 9.50622 5.17549 9.43915 5.0552 9.3194C4.93491 9.19965 4.86711 9.03701 4.86673 8.86727C4.86635 8.69754 4.93341 8.5346 5.05316 8.4143C5.17292 8.29401 5.33555 8.22622 5.50529 8.22583L19.1223 8.15991H19.1258C19.2955 8.15953 19.4584 8.22659 19.5787 8.34635C19.699 8.4661 19.7668 8.62873 19.7672 8.79847C19.7676 8.96821 19.7005 9.13115 19.5808 9.25144C19.461 9.37174 19.2984 9.43953 19.1287 9.43991L5.51169 9.50743L5.50817 9.50583ZM5.59681 15.0425C5.51276 15.0427 5.4295 15.0263 5.35177 14.9944C5.27404 14.9624 5.20337 14.9154 5.14379 14.8562C5.08422 14.7969 5.0369 14.7264 5.00454 14.6489C4.97218 14.5713 4.95542 14.4881 4.95521 14.4041C4.955 14.32 4.97135 14.2368 5.00332 14.159C5.03528 14.0813 5.08225 14.0106 5.14153 13.9511C5.20081 13.8915 5.27125 13.8442 5.34882 13.8118C5.42638 13.7794 5.50957 13.7627 5.59361 13.7625L19.2109 13.6959H19.2141C19.3838 13.6955 19.5468 13.7625 19.6671 13.8822C19.7874 14.002 19.8553 14.1646 19.8557 14.3343C19.8561 14.5041 19.7891 14.667 19.6694 14.7873C19.5496 14.9077 19.387 14.9755 19.2173 14.9759L5.60001 15.0425H5.59681Z" fill="#202020"/>
</svg>
