<svg width="24" height="24" viewBox="0 0 24 24" fill="none" xmlns="http://www.w3.org/2000/svg">
<path d="M17.736 20.4556H6.96801C6.06022 20.4546 5.1899 20.0935 4.548 19.4516C3.90609 18.8097 3.54502 17.9394 3.54401 17.0316V6.96795C3.54502 6.06016 3.90609 5.18984 4.548 4.54793C5.1899 3.90603 6.06022 3.54496 6.96801 3.54395H17.032C17.9398 3.54496 18.8101 3.90603 19.452 4.54793C20.0939 5.18984 20.455 6.06016 20.456 6.96795V13.2959C20.456 13.4657 20.3886 13.6285 20.2686 13.7485C20.1485 13.8685 19.9857 13.9359 19.816 13.9359C19.6463 13.9359 19.4835 13.8685 19.3635 13.7485C19.2434 13.6285 19.176 13.4657 19.176 13.2959V6.96795C19.1755 6.39948 18.9494 5.85444 18.5475 5.45247C18.1455 5.0505 17.6005 4.82445 17.032 4.82395H6.96801C6.39954 4.82445 5.8545 5.0505 5.45253 5.45247C5.05056 5.85444 4.82451 6.39948 4.82401 6.96795V17.0319C4.82451 17.6004 5.05056 18.1455 5.45253 18.5474C5.8545 18.9494 6.39954 19.1754 6.96801 19.1759H17.736C17.9057 19.1759 18.0685 19.2434 18.1886 19.3634C18.3086 19.4834 18.376 19.6462 18.376 19.8159C18.376 19.9857 18.3086 20.1485 18.1886 20.2685C18.0685 20.3885 17.9057 20.4559 17.736 20.4559V20.4556Z" fill="#202020"/>
<path d="M10.44 15.8246C10.4221 15.8246 10.4042 15.8246 10.3859 15.8224C10.2168 15.8083 10.0602 15.7276 9.95052 15.598C9.84088 15.4684 9.7872 15.3006 9.80128 15.1315L10.3987 7.96347C10.4144 7.79557 10.4957 7.64063 10.625 7.53233C10.7542 7.42404 10.921 7.37114 11.0891 7.38514C11.2571 7.39914 11.4129 7.4789 11.5224 7.60709C11.632 7.73527 11.6866 7.90153 11.6742 8.06971L11.0768 15.2377C11.0635 15.3975 10.9907 15.5465 10.8727 15.6552C10.7548 15.7639 10.6004 15.8243 10.44 15.8246ZM13.376 15.8246C13.3581 15.8246 13.3402 15.8246 13.3222 15.8224C13.1531 15.8083 12.9965 15.7276 12.8868 15.598C12.7772 15.4684 12.7235 15.3006 12.7376 15.1315L13.3347 7.96347C13.3488 7.79429 13.4295 7.63763 13.5591 7.52796C13.6887 7.41828 13.8566 7.36459 14.0258 7.37867C14.1949 7.39276 14.3516 7.47348 14.4613 7.60308C14.571 7.73267 14.6246 7.90053 14.6106 8.06971L14.0131 15.2377C13.9998 15.3976 13.9269 15.5466 13.8089 15.6553C13.6909 15.764 13.5364 15.8244 13.376 15.8246Z" fill="#202020"/>
<path d="M8.58594 10.7957C8.50189 10.796 8.41863 10.7796 8.3409 10.7476C8.26317 10.7157 8.1925 10.6687 8.13292 10.6094C8.07334 10.5501 8.02602 10.4797 7.99367 10.4021C7.96131 10.3246 7.94455 10.2414 7.94434 10.1573C7.94413 10.0733 7.96047 9.99004 7.99244 9.91231C8.02441 9.83458 8.07138 9.76391 8.13066 9.70433C8.18994 9.64475 8.26037 9.59743 8.33794 9.56508C8.41551 9.53272 8.49869 9.51596 8.58274 9.51575L15.776 9.48023H15.7792C15.949 9.4798 16.1119 9.54682 16.2322 9.66655C16.3526 9.78627 16.4204 9.94889 16.4208 10.1186C16.4212 10.2884 16.3542 10.4513 16.2345 10.5716C16.1148 10.692 15.9522 10.7598 15.7824 10.7602L8.58914 10.7957H8.58594ZM8.63266 13.7205C8.46292 13.721 8.29996 13.6539 8.17964 13.5342C8.05932 13.4145 7.99148 13.2519 7.99106 13.0821C7.99063 12.9124 8.05766 12.7495 8.17738 12.6291C8.2971 12.5088 8.45972 12.441 8.62946 12.4405L15.8227 12.405H15.8259C15.9957 12.4046 16.1586 12.4716 16.279 12.5913C16.3993 12.7111 16.4671 12.8737 16.4675 13.0434C16.468 13.2132 16.4009 13.3761 16.2812 13.4964C16.1615 13.6168 15.9989 13.6846 15.8291 13.685L8.63586 13.7205H8.63266ZM18.7056 17.0437C18.5813 17.0432 18.4598 17.0064 18.356 16.9378C18.2523 16.8693 18.1707 16.7721 18.1213 16.6579C18.0719 16.5438 18.0569 16.4178 18.0779 16.2953C18.099 16.1727 18.1553 16.059 18.24 15.9679L19.3495 14.782C19.4081 14.7193 19.4788 14.6691 19.5572 14.6343C19.6356 14.5995 19.7203 14.5808 19.8061 14.5794H19.817C19.9867 14.5795 20.1495 14.6469 20.2695 14.7669L21.44 15.9385C21.5011 15.9975 21.5499 16.0681 21.5834 16.1462C21.617 16.2243 21.6346 16.3083 21.6354 16.3933C21.6361 16.4782 21.6199 16.5625 21.5877 16.6412C21.5556 16.7198 21.508 16.7913 21.448 16.8514C21.3879 16.9115 21.3164 16.959 21.2377 16.9912C21.1591 17.0233 21.0748 17.0395 20.9898 17.0388C20.9049 17.038 20.8209 17.0204 20.7428 16.9869C20.6647 16.9533 20.5941 16.9046 20.5351 16.8434L19.8311 16.1394L19.1735 16.8434C19.1134 16.9071 19.0409 16.9578 18.9604 16.9922C18.8799 17.0267 18.7932 17.0442 18.7056 17.0437Z" fill="#202020"/>
<path d="M19.8157 20.4556C19.646 20.4556 19.4832 20.3882 19.3631 20.2682C19.2431 20.1482 19.1757 19.9854 19.1757 19.8156V15.2179C19.1757 15.0481 19.2431 14.8854 19.3631 14.7653C19.4832 14.6453 19.646 14.5779 19.8157 14.5779C19.9854 14.5779 20.1482 14.6453 20.2682 14.7653C20.3883 14.8854 20.4557 15.0481 20.4557 15.2179V19.8156C20.4557 19.9854 20.3883 20.1482 20.2682 20.2682C20.1482 20.3882 19.9854 20.4556 19.8157 20.4556Z" fill="#202020"/>
</svg>
