<svg width="24" height="24" viewBox="0 0 24 24" fill="none" xmlns="http://www.w3.org/2000/svg">
<path d="M17.7359 20.4557H6.96795C6.06016 20.4547 5.18984 20.0936 4.54793 19.4517C3.90603 18.8098 3.54496 17.9395 3.54395 17.0317V6.96801C3.54496 6.06022 3.90603 5.1899 4.54793 4.548C5.18984 3.90609 6.06016 3.54502 6.96795 3.54401H17.0319C17.9397 3.54502 18.8101 3.90609 19.452 4.548C20.0939 5.1899 20.4549 6.06022 20.4559 6.96801V13.296C20.4559 13.4657 20.3885 13.6285 20.2685 13.7486C20.1485 13.8686 19.9857 13.936 19.8159 13.936C19.6462 13.936 19.4834 13.8686 19.3634 13.7486C19.2434 13.6285 19.1759 13.4657 19.1759 13.296V6.96801C19.1754 6.39954 18.9494 5.8545 18.5474 5.45253C18.1455 5.05056 17.6004 4.82451 17.0319 4.82401H6.96795C6.39948 4.82451 5.85444 5.05056 5.45247 5.45253C5.0505 5.8545 4.82445 6.39954 4.82395 6.96801V17.032C4.82445 17.6005 5.0505 18.1455 5.45247 18.5475C5.85444 18.9494 6.39948 19.1755 6.96795 19.176H17.7359C17.9057 19.176 18.0685 19.2434 18.1885 19.3635C18.3085 19.4835 18.3759 19.6463 18.3759 19.816C18.3759 19.9857 18.3085 20.1485 18.1885 20.2686C18.0685 20.3886 17.9057 20.456 17.7359 20.456V20.4557Z" fill="#202020"/>
<path d="M10.44 15.8246C10.4221 15.8246 10.4042 15.8246 10.3859 15.8224C10.2168 15.8083 10.0602 15.7276 9.95052 15.598C9.84088 15.4685 9.7872 15.3006 9.80128 15.1315L10.3987 7.9635C10.4144 7.7956 10.4957 7.64066 10.625 7.53236C10.7542 7.42407 10.921 7.37117 11.0891 7.38517C11.2571 7.39917 11.4129 7.47893 11.5224 7.60712C11.632 7.7353 11.6866 7.90156 11.6742 8.06974L11.0768 15.2377C11.0635 15.3976 10.9907 15.5466 10.8727 15.6552C10.7548 15.7639 10.6004 15.8244 10.44 15.8246ZM13.376 15.8246C13.3581 15.8246 13.3402 15.8246 13.3222 15.8224C13.1531 15.8083 12.9965 15.7276 12.8868 15.598C12.7772 15.4685 12.7235 15.3006 12.7376 15.1315L13.3347 7.9635C13.3488 7.79432 13.4295 7.63766 13.5591 7.52799C13.6887 7.41831 13.8566 7.36462 14.0258 7.3787C14.1949 7.39279 14.3516 7.47351 14.4613 7.60311C14.571 7.7327 14.6246 7.90056 14.6106 8.06974L14.0131 15.2377C13.9998 15.3976 13.9269 15.5467 13.8089 15.6554C13.6909 15.764 13.5364 15.8245 13.376 15.8246Z" fill="#202020"/>
<path d="M8.58594 10.7959C8.50189 10.7961 8.41863 10.7797 8.3409 10.7478C8.26317 10.7158 8.1925 10.6688 8.13292 10.6095C8.07334 10.5503 8.02602 10.4798 7.99367 10.4023C7.96131 10.3247 7.94455 10.2415 7.94434 10.1575C7.94413 10.0734 7.96047 9.99016 7.99244 9.91243C8.02441 9.8347 8.07138 9.76403 8.13066 9.70445C8.18994 9.64487 8.26037 9.59755 8.33794 9.5652C8.41551 9.53284 8.49869 9.51608 8.58274 9.51587L15.776 9.48035H15.7792C15.949 9.47992 16.1119 9.54695 16.2322 9.66667C16.3526 9.78639 16.4204 9.94901 16.4208 10.1187C16.4212 10.2885 16.3542 10.4514 16.2345 10.5718C16.1148 10.6921 15.9522 10.7599 15.7824 10.7603L8.58914 10.7959H8.58594ZM8.63266 13.7207C8.46292 13.7211 8.29996 13.6541 8.17964 13.5343C8.05932 13.4146 7.99148 13.252 7.99106 13.0823C7.99063 12.9125 8.05766 12.7496 8.17738 12.6293C8.2971 12.5089 8.45972 12.4411 8.62946 12.4407L15.8227 12.4051H15.8259C15.9957 12.4047 16.1586 12.4717 16.279 12.5915C16.3993 12.7112 16.4671 12.8738 16.4675 13.0435C16.468 13.2133 16.4009 13.3762 16.2812 13.4966C16.1615 13.6169 15.9989 13.6847 15.8291 13.6851L8.63586 13.7207H8.63266ZM18.7056 17.0439C18.5813 17.0433 18.4598 17.0065 18.356 16.938C18.2523 16.8694 18.1707 16.7722 18.1213 16.6581C18.0719 16.544 18.0569 16.4179 18.0779 16.2954C18.099 16.1728 18.1553 16.0591 18.24 15.968L19.3495 14.7821C19.4081 14.7195 19.4788 14.6692 19.5572 14.6344C19.6356 14.5996 19.7203 14.581 19.8061 14.5795H19.817C19.9867 14.5796 20.1495 14.647 20.2695 14.7671L21.44 15.9386C21.5011 15.9976 21.5499 16.0682 21.5834 16.1463C21.617 16.2244 21.6346 16.3084 21.6354 16.3934C21.6361 16.4784 21.6199 16.5626 21.5877 16.6413C21.5556 16.7199 21.508 16.7914 21.448 16.8515C21.3879 16.9116 21.3164 16.9591 21.2378 16.9913C21.1591 17.0235 21.0748 17.0396 20.9898 17.0389C20.9049 17.0382 20.8209 17.0205 20.7428 16.987C20.6647 16.9534 20.5941 16.9047 20.5351 16.8435L19.8311 16.1395L19.1735 16.8435C19.1134 16.9072 19.0409 16.9579 18.9604 16.9924C18.8799 17.0268 18.7932 17.0444 18.7056 17.0439Z" fill="#202020"/>
<path d="M19.8158 20.4557C19.646 20.4557 19.4833 20.3882 19.3632 20.2682C19.2432 20.1482 19.1758 19.9854 19.1758 19.8157V15.2179C19.1758 15.0482 19.2432 14.8854 19.3632 14.7654C19.4833 14.6453 19.646 14.5779 19.8158 14.5779C19.9855 14.5779 20.1483 14.6453 20.2683 14.7654C20.3884 14.8854 20.4558 15.0482 20.4558 15.2179V19.8157C20.4558 19.9854 20.3884 20.1482 20.2683 20.2682C20.1483 20.3882 19.9855 20.4557 19.8158 20.4557Z" fill="#202020"/>
</svg>
