<svg width="24" height="24" viewBox="0 0 24 24" fill="none" xmlns="http://www.w3.org/2000/svg">
<path d="M17.6603 19.4051C17.0941 19.4044 16.5514 19.1793 16.1511 18.7789C15.7508 18.3786 15.5256 17.8359 15.5249 17.2698V15.1773C15.5256 14.6112 15.7508 14.0684 16.1511 13.6681C16.5514 13.2678 17.0941 13.0426 17.6603 13.0419H18.1252V12C18.1252 8.62272 15.3774 5.87488 12.0001 5.87488C8.62281 5.87488 5.87497 8.62272 5.87497 12V12.9638L6.39593 12.9462C6.67928 12.9368 6.96165 12.9844 7.22623 13.0862C7.49081 13.1881 7.7322 13.3421 7.93605 13.5391C8.13989 13.7362 8.30203 13.9722 8.41281 14.2332C8.52359 14.4941 8.58075 14.7747 8.58089 15.0582V17.2896C8.58021 17.8502 8.3572 18.3876 7.96078 18.784C7.56436 19.1803 7.02691 19.4032 6.46633 19.4038C5.97017 19.4033 5.49448 19.206 5.14364 18.8552C4.7928 18.5043 4.59548 18.0286 4.59497 17.5325V12C4.59497 10.036 5.37515 8.15252 6.76388 6.76379C8.15261 5.37506 10.0361 4.59488 12.0001 4.59488C13.9641 4.59488 15.8476 5.37506 17.2363 6.76379C18.625 8.15252 19.4052 10.036 19.4052 12V17.6602C19.4047 18.1228 19.2207 18.5663 18.8936 18.8935C18.5664 19.2206 18.1229 19.4046 17.6603 19.4051ZM17.6603 14.3219C17.4335 14.3222 17.2161 14.4124 17.0557 14.5727C16.8953 14.7331 16.8051 14.9505 16.8049 15.1773V17.2698C16.8051 17.4965 16.8953 17.714 17.0557 17.8743C17.2161 18.0347 17.4335 18.1249 17.6603 18.1251C17.7835 18.1249 17.9017 18.0759 17.9888 17.9887C18.076 17.9016 18.125 17.7834 18.1252 17.6602V14.3219H17.6603ZM5.87497 14.2445V17.5338C5.87514 17.6905 5.9375 17.8409 6.04836 17.9517C6.15923 18.0626 6.30954 18.1249 6.46633 18.1251C6.68754 18.1249 6.89961 18.0369 7.05606 17.8805C7.21251 17.7241 7.30055 17.5121 7.30089 17.2909V15.0595C7.30087 14.9475 7.27829 14.8365 7.23448 14.7334C7.19067 14.6302 7.12654 14.537 7.04591 14.4592C6.96528 14.3813 6.8698 14.3205 6.76516 14.2804C6.66053 14.2403 6.54888 14.2216 6.43689 14.2256L5.87497 14.2445Z" fill="#202020"/>
</svg>
