<svg width="24" height="24" viewBox="0 0 24 24" fill="none" xmlns="http://www.w3.org/2000/svg">
<path d="M16.2841 19.2342H7.71583C6.9337 19.2333 6.18388 18.9222 5.63083 18.3691C5.07779 17.8161 4.76668 17.0663 4.76575 16.2841V7.71583C4.76668 6.9337 5.07779 6.18388 5.63083 5.63083C6.18388 5.07779 6.9337 4.76668 7.71583 4.76575H16.2841C17.0663 4.76668 17.8161 5.07779 18.3691 5.63083C18.9222 6.18388 19.2333 6.9337 19.2342 7.71583V16.2841C19.2333 17.0663 18.9222 17.8161 18.3691 18.3691C17.8161 18.9222 17.0663 19.2333 16.2841 19.2342ZM7.71583 6.04575C7.27305 6.04626 6.84855 6.22237 6.53546 6.53546C6.22237 6.84855 6.04626 7.27305 6.04575 7.71583V16.2841C6.04626 16.7269 6.22237 17.1514 6.53546 17.4645C6.84855 17.7776 7.27305 17.9537 7.71583 17.9542H16.2841C16.7269 17.9537 17.1514 17.7776 17.4645 17.4645C17.7776 17.1514 17.9537 16.7269 17.9542 16.2841V7.71583C17.9537 7.27305 17.7776 6.84855 17.4645 6.53546C17.1514 6.22237 16.7269 6.04626 16.2841 6.04575H7.71583Z" fill="#202020"/>
<path d="M9.87711 14.9891H9.86815C9.75795 14.9877 9.64997 14.958 9.55467 14.9026C9.45936 14.8473 9.37996 14.7683 9.32415 14.6733L8.28959 12.911H5.40575C5.23601 12.911 5.07322 12.8436 4.9532 12.7236C4.83318 12.6035 4.76575 12.4408 4.76575 12.271C4.76575 12.1013 4.83318 11.9385 4.9532 11.8185C5.07322 11.6984 5.23601 11.631 5.40575 11.631H8.65759C8.76912 11.6311 8.8787 11.6603 8.97547 11.7157C9.07224 11.7712 9.15283 11.851 9.20927 11.9472L9.89439 13.1142L12.271 9.31197C12.3315 9.21519 12.4168 9.13634 12.518 9.0836C12.6192 9.03086 12.7327 9.00614 12.8467 9.01202C12.9607 9.01789 13.071 9.05414 13.1663 9.11701C13.2615 9.17988 13.3382 9.26708 13.3885 9.36957L14.6131 11.8688H18.5942C18.764 11.8688 18.9268 11.9362 19.0468 12.0562C19.1668 12.1762 19.2342 12.339 19.2342 12.5088C19.2342 12.6785 19.1668 12.8413 19.0468 12.9613C18.9268 13.0813 18.764 13.1488 18.5942 13.1488H14.2141C14.0941 13.149 13.9765 13.1155 13.8747 13.0522C13.7728 12.9888 13.6908 12.8981 13.6381 12.7904L12.7446 10.9664L10.4198 14.688C10.3623 14.7801 10.2824 14.856 10.1874 14.9087C10.0925 14.9614 9.98568 14.9891 9.87711 14.9891Z" fill="#202020"/>
</svg>
