<svg width="24" height="24" viewBox="0 0 24 24" fill="none" xmlns="http://www.w3.org/2000/svg">
<path d="M12.0726 19.68C11.9031 19.68 11.7405 19.6126 11.6205 19.4928L5.54049 13.4288L4.85473 12.7443C2.92929 10.8243 2.92545 7.69344 4.84673 5.76832C5.30417 5.30959 5.84751 4.94549 6.44571 4.69681C7.04391 4.44814 7.68524 4.31976 8.33307 4.31902C8.9809 4.31828 9.62252 4.44518 10.2213 4.69248C10.8201 4.93979 11.3642 5.30264 11.8227 5.76032L12.0557 5.99232L12.1661 5.8816C13.0652 4.97421 14.2812 4.45094 15.5582 4.42191C16.8353 4.39287 18.0738 4.86034 19.0132 5.72593C19.9526 6.59152 20.5196 7.78775 20.5949 9.06291C20.6702 10.3381 20.2479 11.5927 19.417 12.5629C19.3068 12.6917 19.1499 12.7716 18.9809 12.7849C18.8118 12.7983 18.6444 12.744 18.5154 12.634C18.3863 12.524 18.3062 12.3672 18.2926 12.1982C18.279 12.0292 18.3331 11.8617 18.4429 11.7325C19.6701 10.2925 19.5808 8.11648 18.24 6.77952C17.9004 6.4407 17.4973 6.1721 17.0539 5.98905C16.6104 5.806 16.1352 5.71209 15.6555 5.71269C15.1757 5.71328 14.7008 5.80837 14.2578 5.99251C13.8148 6.17666 13.4124 6.44626 13.0736 6.78592L12.512 7.34976C12.4526 7.40931 12.3821 7.45658 12.3045 7.48886C12.2268 7.52115 12.1436 7.53782 12.0595 7.53792C11.89 7.53797 11.7274 7.47076 11.6074 7.35104L10.9216 6.66656C10.5819 6.32764 10.1788 6.05895 9.73526 5.87583C9.29173 5.69271 8.81647 5.59874 8.33662 5.59929C7.85677 5.59984 7.38173 5.6949 6.93862 5.87903C6.49551 6.06317 6.093 6.33278 5.75409 6.67248C5.06962 7.35852 4.68571 8.28837 4.68682 9.25746C4.68793 10.2266 5.07397 11.1555 5.76001 11.84L6.44577 12.5242L12.5258 18.5885C12.615 18.6781 12.6756 18.7921 12.7001 18.9161C12.7246 19.0401 12.7118 19.1686 12.6633 19.2854C12.6148 19.4021 12.5329 19.5019 12.4277 19.5722C12.3226 19.6424 12.1991 19.6799 12.0726 19.68Z" fill="#202020"/>
<path d="M15.9395 19.2998C15.2803 19.2998 14.6359 19.1043 14.0878 18.7381C13.5397 18.3718 13.1125 17.8513 12.8603 17.2422C12.6081 16.6332 12.5421 15.963 12.6708 15.3165C12.7995 14.67 13.117 14.0761 13.5832 13.61C14.0494 13.144 14.6433 12.8266 15.2899 12.6982C15.9364 12.5697 16.6066 12.6358 17.2156 12.8882C17.8245 13.1406 18.345 13.5679 18.7111 14.1161C19.0772 14.6643 19.2725 15.3088 19.2723 15.968C19.271 16.8514 18.9195 17.6983 18.2947 18.3229C17.6699 18.9475 16.8229 19.2988 15.9395 19.2998ZM15.9395 13.9142C15.5335 13.9142 15.1367 14.0346 14.7991 14.2601C14.4616 14.4856 14.1984 14.8062 14.043 15.1812C13.8876 15.5563 13.8469 15.969 13.9261 16.3672C14.0052 16.7653 14.2006 17.1311 14.4876 17.4182C14.7746 17.7054 15.1403 17.901 15.5384 17.9803C15.9366 18.0596 16.3493 18.0191 16.7244 17.8638C17.0995 17.7086 17.4202 17.4457 17.6459 17.1082C17.8715 16.7708 17.9921 16.374 17.9923 15.968C17.9919 15.4236 17.7755 14.9016 17.3906 14.5166C17.0058 14.1315 16.4839 13.9149 15.9395 13.9142Z" fill="#202020"/>
<path d="M16.6758 17.3683C16.5919 17.3683 16.5088 17.3518 16.4312 17.3196C16.3537 17.2874 16.2833 17.2402 16.224 17.1808L14.7014 15.6582C14.6419 15.5989 14.5947 15.5284 14.5624 15.4508C14.5302 15.3732 14.5135 15.29 14.5134 15.2059C14.5133 15.1219 14.5298 15.0386 14.5618 14.9609C14.5939 14.8832 14.641 14.8126 14.7003 14.7531C14.7597 14.6936 14.8302 14.6464 14.9078 14.6141C14.9854 14.5819 15.0686 14.5652 15.1527 14.5651C15.2367 14.565 15.3199 14.5815 15.3976 14.6135C15.4753 14.6456 15.5459 14.6926 15.6054 14.752L17.1283 16.2746C17.2178 16.3641 17.2787 16.4781 17.3034 16.6022C17.3281 16.7264 17.3154 16.855 17.267 16.9719C17.2186 17.0889 17.1366 17.1888 17.0313 17.2591C16.9261 17.3295 16.8024 17.367 16.6758 17.367V17.3683Z" fill="#202020"/>
<path d="M15.153 17.3683C15.0265 17.3683 14.9028 17.3307 14.7976 17.2604C14.6923 17.1901 14.6103 17.0902 14.5619 16.9732C14.5135 16.8563 14.5008 16.7276 14.5255 16.6035C14.5502 16.4794 14.6111 16.3653 14.7006 16.2758L16.2241 14.752C16.3441 14.632 16.5069 14.5645 16.6766 14.5645C16.8464 14.5644 17.0092 14.6318 17.1292 14.7518C17.2493 14.8718 17.3167 15.0346 17.3167 15.2044C17.3168 15.3741 17.2494 15.5369 17.1294 15.657L15.6055 17.1808C15.5462 17.2404 15.4757 17.2876 15.398 17.3198C15.3204 17.352 15.2371 17.3685 15.153 17.3683Z" fill="#202020"/>
</svg>
