<svg width="24" height="24" viewBox="0 0 24 24" fill="none" xmlns="http://www.w3.org/2000/svg">
<path d="M4.73116 20.2906C4.60601 20.2905 4.48361 20.2538 4.37911 20.1849C4.27462 20.1161 4.1926 20.0181 4.14323 19.9031C4.09385 19.7881 4.07927 19.6611 4.1013 19.5379C4.12333 19.4147 4.18099 19.3007 4.26716 19.2099L18.8048 3.90848C18.9217 3.78541 19.0827 3.71384 19.2524 3.70948C19.422 3.70513 19.5865 3.76837 19.7096 3.88528C19.8326 4.00218 19.9042 4.16319 19.9085 4.33287C19.9129 4.50255 19.8497 4.66701 19.7328 4.79008L5.19516 20.0915C5.13545 20.1545 5.06349 20.2047 4.9837 20.2389C4.90392 20.2732 4.81798 20.2907 4.73116 20.2906Z" fill="#202020"/>
<path d="M12.0726 19.68C11.9031 19.68 11.7405 19.6126 11.6205 19.4928L5.54049 13.4288L4.85473 12.7443C2.92929 10.8243 2.92545 7.69344 4.84673 5.76832C5.30417 5.30959 5.84751 4.94549 6.44571 4.69681C7.04391 4.44814 7.68524 4.31976 8.33307 4.31902C8.9809 4.31828 9.62252 4.44518 10.2213 4.69248C10.8201 4.93979 11.3642 5.30264 11.8227 5.76032L12.0557 5.99232L12.1661 5.8816C13.0901 4.95546 14.3441 4.43426 15.6523 4.43264C16.9605 4.43102 18.2158 4.94911 19.1421 5.87296C21.0675 7.79296 21.0714 10.9238 19.1501 12.849L18.5875 13.4128L12.5238 19.4928C12.4043 19.6122 12.2423 19.6795 12.0733 19.68H12.0726ZM8.33985 5.6C7.61691 5.60007 6.91024 5.81461 6.30929 6.21648C5.70835 6.61835 5.24013 7.18948 4.96392 7.85757C4.68771 8.52566 4.61591 9.26068 4.75763 9.96959C4.89934 10.6785 5.24818 11.3294 5.76001 11.84L6.44577 12.5242L12.0714 18.1363L17.6832 12.5098L18.2461 11.9459C18.5873 11.6068 18.8582 11.2037 19.0432 10.7596C19.2282 10.3155 19.3236 9.83929 19.3241 9.35823C19.3246 8.87717 19.23 8.40075 19.0458 7.95634C18.8617 7.51192 18.5916 7.10825 18.251 6.7685C17.9104 6.42875 17.5061 6.15961 17.0612 5.97653C16.6164 5.79345 16.1397 5.70004 15.6587 5.70166C15.1776 5.70328 14.7016 5.7999 14.258 5.98596C13.8144 6.17203 13.4119 6.44388 13.0736 6.78592L12.512 7.34976C12.4526 7.40931 12.3821 7.45658 12.3045 7.48886C12.2268 7.52115 12.1436 7.53782 12.0595 7.53792C11.89 7.53797 11.7274 7.47076 11.6074 7.35104L10.9216 6.66656C10.583 6.32709 10.1806 6.05806 9.73742 5.875C9.2943 5.69194 8.8193 5.59847 8.33985 5.6Z" fill="#202020"/>
</svg>
