<svg width="24" height="24" viewBox="0 0 24 24" fill="none" xmlns="http://www.w3.org/2000/svg">
<path d="M12.0726 19.68C11.9031 19.68 11.7405 19.6128 11.6205 19.4931L5.54049 13.4288L4.85473 12.7443C2.92929 10.8243 2.92545 7.69344 4.84673 5.76832C5.30417 5.30959 5.84751 4.94549 6.44571 4.69681C7.04391 4.44814 7.68524 4.31976 8.33307 4.31902C8.9809 4.31828 9.62252 4.44518 10.2213 4.69248C10.8201 4.93979 11.3642 5.30264 11.8227 5.76032L12.0557 5.99232L12.1661 5.8816C13.0652 4.97421 14.2812 4.45094 15.5582 4.42191C16.8353 4.39287 18.0738 4.86034 19.0132 5.72593C19.9526 6.59152 20.5196 7.78775 20.5949 9.06291C20.6702 10.3381 20.2479 11.5927 19.417 12.5629C19.3068 12.6917 19.1499 12.7716 18.9809 12.7849C18.8118 12.7983 18.6444 12.744 18.5154 12.634C18.3863 12.524 18.3062 12.3672 18.2926 12.1982C18.279 12.0292 18.3331 11.8617 18.4429 11.7325C19.6701 10.2925 19.5808 8.11648 18.24 6.77952C17.9004 6.4407 17.4973 6.1721 17.0539 5.98905C16.6104 5.806 16.1352 5.71209 15.6555 5.71269C15.1757 5.71328 14.7008 5.80837 14.2578 5.99251C13.8148 6.17666 13.4124 6.44626 13.0736 6.78592L12.512 7.34976C12.4526 7.40931 12.3821 7.45658 12.3045 7.48886C12.2268 7.52115 12.1436 7.53782 12.0595 7.53792C11.89 7.53797 11.7274 7.47076 11.6074 7.35104L10.9216 6.66656C10.5819 6.32764 10.1788 6.05895 9.73526 5.87583C9.29173 5.69271 8.81647 5.59874 8.33662 5.59929C7.85677 5.59984 7.38173 5.6949 6.93862 5.87903C6.49551 6.06317 6.093 6.33278 5.75409 6.67248C5.06962 7.35852 4.68571 8.28837 4.68682 9.25746C4.68793 10.2266 5.07397 11.1555 5.76001 11.84L6.44577 12.5242L12.5258 18.5885C12.615 18.6781 12.6756 18.7921 12.7001 18.9161C12.7246 19.0401 12.7118 19.1686 12.6633 19.2854C12.6148 19.4021 12.5329 19.5019 12.4277 19.5722C12.3226 19.6424 12.1991 19.6799 12.0726 19.68Z" fill="#202020"/>
<path d="M15.9395 19.2998C15.2803 19.2998 14.6359 19.1043 14.0878 18.7381C13.5397 18.3718 13.1125 17.8513 12.8603 17.2422C12.6081 16.6332 12.5421 15.963 12.6708 15.3165C12.7995 14.67 13.117 14.0761 13.5832 13.61C14.0494 13.144 14.6433 12.8266 15.2899 12.6982C15.9364 12.5697 16.6066 12.6358 17.2156 12.8882C17.8245 13.1406 18.345 13.5679 18.7111 14.1161C19.0772 14.6643 19.2725 15.3088 19.2723 15.968C19.271 16.8514 18.9195 17.6983 18.2947 18.3229C17.6699 18.9475 16.8229 19.2988 15.9395 19.2998ZM15.9395 13.9142C15.5335 13.9142 15.1367 14.0346 14.7991 14.2601C14.4616 14.4856 14.1984 14.8062 14.043 15.1812C13.8876 15.5563 13.8469 15.969 13.9261 16.3672C14.0052 16.7653 14.2006 17.1311 14.4876 17.4182C14.7746 17.7054 15.1403 17.901 15.5384 17.9803C15.9366 18.0596 16.3493 18.0191 16.7244 17.8638C17.0995 17.7086 17.4202 17.4457 17.6459 17.1082C17.8715 16.7708 17.9921 16.374 17.9923 15.968C17.9919 15.4236 17.7755 14.9016 17.3906 14.5166C17.0058 14.1315 16.4839 13.9149 15.9395 13.9142Z" fill="#202020"/>
<path d="M15.9143 17.6838C15.7446 17.6838 15.5818 17.6164 15.4617 17.4964C15.3417 17.3764 15.2743 17.2136 15.2743 17.0438V14.8902C15.2743 14.7205 15.3417 14.5577 15.4617 14.4377C15.5818 14.3177 15.7446 14.2502 15.9143 14.2502C16.084 14.2502 16.2468 14.3177 16.3668 14.4377C16.4869 14.5577 16.5543 14.7205 16.5543 14.8902V17.0438C16.5543 17.2136 16.4869 17.3764 16.3668 17.4964C16.2468 17.6164 16.084 17.6838 15.9143 17.6838Z" fill="#202020"/>
<path d="M16.992 16.608H14.8378C14.668 16.608 14.5052 16.5406 14.3852 16.4206C14.2652 16.3005 14.1978 16.1377 14.1978 15.968C14.1978 15.7983 14.2652 15.6355 14.3852 15.5155C14.5052 15.3954 14.668 15.328 14.8378 15.328H16.992C17.1617 15.328 17.3245 15.3954 17.4445 15.5155C17.5646 15.6355 17.632 15.7983 17.632 15.968C17.632 16.1377 17.5646 16.3005 17.4445 16.4206C17.3245 16.5406 17.1617 16.608 16.992 16.608Z" fill="#202020"/>
</svg>
