<svg width="24" height="24" viewBox="0 0 24 24" fill="none" xmlns="http://www.w3.org/2000/svg">
<path d="M12.0287 15.4458C11.8593 15.4457 11.6968 15.3785 11.5769 15.2589L8.88122 12.5709C8.45416 12.1449 8.20721 11.571 8.19147 10.968C8.17574 10.3649 8.39242 9.77896 8.79668 9.33124C9.20094 8.88353 9.76184 8.60836 10.3633 8.56267C10.9648 8.51697 11.5608 8.70425 12.0281 9.08576C12.4803 8.73934 13.0429 8.56887 13.6113 8.60601C14.1798 8.64314 14.7154 8.88537 15.1187 9.28768C15.5594 9.72835 15.8073 10.3259 15.8081 10.9491C15.8088 11.5724 15.5622 12.1705 15.1225 12.6122L12.4819 15.2576C12.3621 15.3778 12.1994 15.4455 12.0297 15.4458H12.0287ZM10.5414 9.83424C10.3295 9.83432 10.1224 9.89726 9.94629 10.0151C9.77018 10.1329 9.63297 10.3003 9.55202 10.4961C9.47108 10.6919 9.45002 10.9073 9.49153 11.1151C9.53305 11.3229 9.63525 11.5137 9.78522 11.6634L12.0278 13.9005L14.2166 11.7066C14.4168 11.5053 14.5291 11.2329 14.5287 10.949C14.5283 10.6652 14.4154 10.393 14.2147 10.1923C14.1152 10.093 13.997 10.0142 13.8671 9.96048C13.7371 9.90678 13.5978 9.87922 13.4572 9.87937C13.3166 9.87952 13.1774 9.90738 13.0475 9.96135C12.9177 10.0153 12.7997 10.0943 12.7004 10.1939L12.4764 10.4179C12.417 10.4774 12.3465 10.5246 12.2689 10.5568C12.1912 10.5891 12.108 10.6057 12.0239 10.6058C11.8544 10.6058 11.6918 10.5386 11.5718 10.4189L11.2985 10.1462C11.1992 10.0467 11.0812 9.96794 10.9512 9.91438C10.8212 9.86083 10.6819 9.83359 10.5414 9.83424Z" fill="#202020"/>
<path d="M11.9999 20.6806C9.99172 20.6806 8.04565 19.9842 6.49332 18.7101C4.94098 17.436 3.87843 15.6632 3.4867 13.6935C3.09497 11.7239 3.39831 9.67933 4.34502 7.90825C5.29173 6.13718 6.82325 4.74916 8.67862 3.98068C10.534 3.2122 12.5984 3.11082 14.5202 3.6938C16.4419 4.27679 18.1021 5.50807 19.2178 7.17786C20.3334 8.84765 20.8356 10.8526 20.6388 12.8512C20.4419 14.8497 19.5582 16.7182 18.1382 18.1382C17.3339 18.9468 16.3773 19.5878 15.3237 20.0242C14.2701 20.4606 13.1404 20.6837 11.9999 20.6806ZM11.9999 4.59935C7.91931 4.59935 4.59931 7.91935 4.59931 12C4.59931 16.0806 7.91931 19.4006 11.9999 19.4006C16.0806 19.4006 19.4006 16.0806 19.4006 12C19.4006 7.91935 16.0806 4.59935 11.9999 4.59935Z" fill="#202020"/>
</svg>
