<svg width="24" height="24" viewBox="0 0 24 24" fill="none" xmlns="http://www.w3.org/2000/svg">
<path d="M12.0726 19.68C11.9031 19.68 11.7405 19.6126 11.6205 19.4928L5.54049 13.4288L4.85473 12.7443C2.92929 10.8243 2.92545 7.69344 4.84673 5.76832C5.30417 5.30959 5.84751 4.94549 6.44571 4.69681C7.04391 4.44814 7.68524 4.31976 8.33307 4.31902C8.9809 4.31828 9.62252 4.44518 10.2213 4.69248C10.8201 4.93979 11.3642 5.30264 11.8227 5.76032L12.0557 5.99232L12.1661 5.8816C13.0652 4.97421 14.2812 4.45094 15.5582 4.42191C16.8353 4.39287 18.0738 4.86034 19.0132 5.72593C19.9526 6.59152 20.5196 7.78775 20.5949 9.06291C20.6702 10.3381 20.2479 11.5927 19.417 12.5629C19.3068 12.6917 19.1499 12.7716 18.9809 12.7849C18.8118 12.7983 18.6444 12.744 18.5154 12.634C18.3863 12.524 18.3062 12.3672 18.2926 12.1982C18.279 12.0292 18.3331 11.8617 18.4429 11.7325C19.6701 10.2925 19.5808 8.11648 18.24 6.77952C17.9004 6.4407 17.4973 6.1721 17.0539 5.98905C16.6104 5.806 16.1352 5.71209 15.6555 5.71269C15.1757 5.71328 14.7008 5.80837 14.2578 5.99251C13.8148 6.17666 13.4124 6.44626 13.0736 6.78592L12.512 7.34976C12.4526 7.40931 12.3821 7.45658 12.3045 7.48886C12.2268 7.52115 12.1436 7.53782 12.0595 7.53792C11.89 7.53797 11.7274 7.47076 11.6074 7.35104L10.9216 6.66656C10.5819 6.32764 10.1788 6.05895 9.73526 5.87583C9.29173 5.69271 8.81647 5.59874 8.33662 5.59929C7.85677 5.59984 7.38173 5.6949 6.93862 5.87903C6.49551 6.06317 6.093 6.33278 5.75409 6.67248C5.06962 7.35852 4.68571 8.28837 4.68682 9.25746C4.68793 10.2266 5.07397 11.1555 5.76001 11.84L6.44577 12.5242L12.5258 18.5885C12.615 18.6781 12.6756 18.7921 12.7001 18.9161C12.7246 19.0401 12.7118 19.1686 12.6633 19.2854C12.6148 19.4021 12.5329 19.5019 12.4277 19.5722C12.3226 19.6424 12.1991 19.6799 12.0726 19.68Z" fill="#202020"/>
<path d="M13.7921 18.7901C13.7059 18.7901 13.6206 18.7728 13.5413 18.7391C13.462 18.7054 13.3904 18.6561 13.3306 18.594C13.2708 18.5319 13.2242 18.4585 13.1935 18.3779C13.1629 18.2974 13.1488 18.2115 13.1521 18.1254L13.2161 16.4435C13.2218 16.2971 13.2776 16.157 13.3742 16.0467L15.843 13.2269C16.3447 12.6509 17.443 12.4691 18.1626 13.0925C18.8436 13.6822 18.9716 14.7885 18.4314 15.4115L18.4286 15.4144L15.9271 18.2669C15.8322 18.3752 15.7036 18.4484 15.562 18.4746L13.9066 18.7792C13.8689 18.7864 13.8305 18.79 13.7921 18.7901ZM14.4878 16.7194L14.4615 17.376L15.1118 17.2563L17.4618 14.5763C17.5102 14.4979 17.4986 14.2109 17.3252 14.0608C17.1546 13.913 16.8638 14.0045 16.8094 14.0669L16.8071 14.0694L14.4878 16.7194Z" fill="#202020"/>
</svg>
