<svg width="24" height="24" viewBox="0 0 24 24" fill="none" xmlns="http://www.w3.org/2000/svg">
<path d="M6.73313 9.68855C6.07397 9.68855 5.4296 9.49309 4.88153 9.12687C4.33345 8.76066 3.90628 8.24015 3.65403 7.63116C3.40177 7.02217 3.33577 6.35205 3.46437 5.70555C3.59297 5.05905 3.91039 4.46521 4.37649 3.99911C4.84259 3.533 5.43643 3.21559 6.08293 3.08699C6.72943 2.95839 7.39955 3.02439 8.00854 3.27665C8.61753 3.5289 9.13804 3.95607 9.50425 4.50415C9.87047 5.05222 10.0659 5.69658 10.0659 6.35575C10.0649 7.23935 9.71346 8.08647 9.08865 8.71127C8.46385 9.33608 7.61673 9.68753 6.73313 9.68855ZM6.73313 4.30295C6.32713 4.30295 5.93024 4.42335 5.59266 4.64891C5.25508 4.87447 4.99196 5.19508 4.83659 5.57018C4.68122 5.94528 4.64057 6.35803 4.71978 6.75623C4.79898 7.15444 4.99449 7.52021 5.28158 7.8073C5.56867 8.09439 5.93445 8.2899 6.33265 8.36911C6.73085 8.44832 7.1436 8.40766 7.5187 8.25229C7.8938 8.09692 8.21441 7.83381 8.43997 7.49623C8.66554 7.15864 8.78593 6.76176 8.78593 6.35575C8.78525 5.81152 8.56876 5.28978 8.18393 4.90495C7.7991 4.52012 7.27736 4.30363 6.73313 4.30295ZM6.73313 20.9769C6.07397 20.9769 5.4296 20.7814 4.88153 20.4152C4.33345 20.049 3.90628 19.5285 3.65403 18.9195C3.40177 18.3105 3.33577 17.6404 3.46437 16.9939C3.59297 16.3474 3.91039 15.7535 4.37649 15.2874C4.84259 14.8213 5.43643 14.5039 6.08293 14.3753C6.72943 14.2467 7.39955 14.3127 8.00854 14.565C8.61753 14.8172 9.13804 15.2444 9.50425 15.7925C9.87047 16.3405 10.0659 16.9849 10.0659 17.6441C10.0649 18.5277 9.71346 19.3748 9.08865 19.9996C8.46385 20.6244 7.61673 20.9759 6.73313 20.9769ZM6.73313 15.5913C6.32713 15.5913 5.93024 15.7117 5.59266 15.9372C5.25508 16.1628 4.99196 16.4834 4.83659 16.8585C4.68122 17.2336 4.64057 17.6463 4.71978 18.0446C4.79898 18.4428 4.99449 18.8085 5.28158 19.0956C5.56867 19.3827 5.93445 19.5782 6.33265 19.6574C6.73085 19.7366 7.1436 19.696 7.5187 19.5406C7.8938 19.3852 8.21441 19.1221 8.43997 18.7845C8.66554 18.447 8.78593 18.0501 8.78593 17.6441C8.78525 17.0998 8.56876 16.5781 8.18393 16.1933C7.7991 15.8084 7.27736 15.5919 6.73313 15.5913Z" fill="#202020"/>
<path d="M6.73314 15.5914C6.5634 15.5914 6.40061 15.524 6.28059 15.404C6.16057 15.2839 6.09314 15.1212 6.09314 14.9514V9.04869C6.09314 8.87895 6.16057 8.71617 6.28059 8.59614C6.40061 8.47612 6.5634 8.40869 6.73314 8.40869C6.90288 8.40869 7.06566 8.47612 7.18569 8.59614C7.30571 8.71617 7.37314 8.87895 7.37314 9.04869V14.9514C7.37314 15.1212 7.30571 15.2839 7.18569 15.404C7.06566 15.524 6.90288 15.5914 6.73314 15.5914ZM17.2669 20.977C16.6077 20.977 15.9634 20.7815 15.4153 20.4153C14.8672 20.0491 14.44 19.5286 14.1878 18.9196C13.9355 18.3106 13.8695 17.6405 13.9981 16.994C14.1267 16.3475 14.4442 15.7537 14.9103 15.2876C15.3764 14.8215 15.9702 14.504 16.6167 14.3755C17.2632 14.2469 17.9333 14.3129 18.5423 14.5651C19.1513 14.8174 19.6718 15.2445 20.038 15.7926C20.4042 16.3407 20.5997 16.985 20.5997 17.6442C20.5987 18.5278 20.2472 19.3749 19.6224 19.9997C18.9976 20.6245 18.1505 20.976 17.2669 20.977ZM17.2669 15.5914C16.8609 15.5914 16.464 15.7118 16.1264 15.9374C15.7888 16.1629 15.5257 16.4835 15.3704 16.8586C15.215 17.2337 15.1743 17.6465 15.2535 18.0447C15.3328 18.4429 15.5283 18.8087 15.8154 19.0958C16.1024 19.3829 16.4682 19.5784 16.8664 19.6576C17.2646 19.7368 17.6774 19.6961 18.0525 19.5408C18.4276 19.3854 18.7482 19.1223 18.9737 18.7847C19.1993 18.4471 19.3197 18.0502 19.3197 17.6442C19.319 17.1 19.1025 16.5782 18.7177 16.1934C18.3329 15.8086 17.8111 15.5921 17.2669 15.5914Z" fill="#202020"/>
<path d="M16.032 15.8906C15.9144 15.8907 15.7991 15.8583 15.6987 15.7971C15.5982 15.736 15.5166 15.6483 15.4627 15.5437L14.6061 13.8817C14.414 13.507 14.122 13.1928 13.7625 12.9737C13.4031 12.7546 12.99 12.6391 12.569 12.6401H10.4055C9.84953 12.6388 9.3015 12.5084 8.80459 12.2591C8.30769 12.0098 7.87549 11.6484 7.5421 11.2036L6.22018 9.43142C6.11868 9.29537 6.07538 9.12458 6.0998 8.9566C6.12423 8.78863 6.21438 8.63724 6.35042 8.53574C6.48647 8.43423 6.65726 8.39093 6.82524 8.41535C6.99321 8.43978 7.1446 8.52993 7.2461 8.66598L8.56802 10.4385C8.78205 10.7238 9.05942 10.9556 9.37827 11.1155C9.69712 11.2755 10.0488 11.3592 10.4055 11.3601H12.569C13.2251 11.3586 13.8689 11.5385 14.4292 11.8799C14.9895 12.2213 15.4445 12.711 15.744 13.2948L16.6013 14.9588C16.6513 15.0563 16.6754 15.1651 16.6713 15.2746C16.6672 15.3841 16.635 15.4907 16.5779 15.5843C16.5207 15.6778 16.4405 15.7551 16.345 15.8087C16.2494 15.8624 16.1416 15.8906 16.032 15.8906Z" fill="#202020"/>
</svg>
