<svg width="24" height="24" viewBox="0 0 24 24" fill="none" xmlns="http://www.w3.org/2000/svg">
<path d="M6.73319 20.9769C6.07403 20.9769 5.42966 20.7814 4.88159 20.4152C4.33351 20.049 3.90634 19.5285 3.65409 18.9195C3.40183 18.3105 3.33583 17.6404 3.46443 16.9939C3.59303 16.3474 3.91045 15.7536 4.37655 15.2875C4.84265 14.8214 5.4365 14.5039 6.08299 14.3753C6.72949 14.2467 7.39961 14.3127 8.0086 14.565C8.61759 14.8172 9.1381 15.2444 9.50431 15.7925C9.87053 16.3406 10.066 16.9849 10.066 17.6441C10.065 18.5277 9.71352 19.3748 9.08872 19.9996C8.46391 20.6244 7.61679 20.9759 6.73319 20.9769ZM6.73319 15.5913C6.32719 15.5913 5.9303 15.7117 5.59272 15.9373C5.25514 16.1628 4.99202 16.4834 4.83665 16.8585C4.68128 17.2336 4.64063 17.6464 4.71984 18.0446C4.79904 18.4428 4.99455 18.8086 5.28164 19.0957C5.56873 19.3827 5.93451 19.5782 6.33271 19.6575C6.73092 19.7367 7.14366 19.696 7.51876 19.5406C7.89387 19.3853 8.21447 19.1222 8.44003 18.7846C8.6656 18.447 8.78599 18.0501 8.78599 17.6441C8.78532 17.0999 8.56882 16.5781 8.18399 16.1933C7.79916 15.8085 7.27742 15.592 6.73319 15.5913ZM6.73319 9.68858C6.07403 9.68858 5.42966 9.49312 4.88159 9.1269C4.33351 8.76069 3.90634 8.24018 3.65409 7.63119C3.40183 7.0222 3.33583 6.35208 3.46443 5.70558C3.59303 5.05908 3.91045 4.46524 4.37655 3.99914C4.84265 3.53304 5.4365 3.21562 6.08299 3.08702C6.72949 2.95842 7.39961 3.02442 8.0086 3.27668C8.61759 3.52893 9.1381 3.9561 9.50431 4.50418C9.87053 5.05225 10.066 5.69662 10.066 6.35578C10.065 7.23938 9.71352 8.0865 9.08872 8.7113C8.46391 9.33611 7.61679 9.68756 6.73319 9.68858ZM6.73319 4.30298C6.32719 4.30298 5.9303 4.42338 5.59272 4.64894C5.25514 4.8745 4.99202 5.19511 4.83665 5.57021C4.68128 5.94531 4.64063 6.35806 4.71984 6.75626C4.79904 7.15447 4.99455 7.52024 5.28164 7.80733C5.56873 8.09442 5.93451 8.28993 6.33271 8.36914C6.73092 8.44835 7.14366 8.40769 7.51876 8.25232C7.89387 8.09695 8.21447 7.83384 8.44003 7.49626C8.6656 7.15867 8.78599 6.76179 8.78599 6.35578C8.78532 5.81155 8.56882 5.28981 8.18399 4.90498C7.79916 4.52015 7.27742 4.30366 6.73319 4.30298Z" fill="#202020"/>
<path d="M6.73302 15.5913C6.56328 15.5913 6.40049 15.5239 6.28047 15.4039C6.16045 15.2838 6.09302 15.121 6.09302 14.9513V9.04858C6.09302 8.87884 6.16045 8.71606 6.28047 8.59603C6.40049 8.47601 6.56328 8.40858 6.73302 8.40858C6.90276 8.40858 7.06554 8.47601 7.18557 8.59603C7.30559 8.71606 7.37302 8.87884 7.37302 9.04858V14.9513C7.37302 15.121 7.30559 15.2838 7.18557 15.4039C7.06554 15.5239 6.90276 15.5913 6.73302 15.5913ZM17.2668 9.68858C16.6076 9.68858 15.9632 9.49312 15.4152 9.1269C14.8671 8.76069 14.4399 8.24018 14.1877 7.63119C13.9354 7.0222 13.8694 6.35208 13.998 5.70558C14.1266 5.05908 14.444 4.46524 14.9101 3.99914C15.3762 3.53304 15.9701 3.21562 16.6166 3.08702C17.2631 2.95842 17.9332 3.02442 18.5422 3.27668C19.1512 3.52893 19.6717 3.9561 20.0379 4.50418C20.4041 5.05225 20.5996 5.69662 20.5996 6.35578C20.5986 7.23938 20.2471 8.0865 19.6223 8.71131C18.9975 9.33611 18.1504 9.68757 17.2668 9.68858ZM17.2668 4.30298C16.8608 4.30298 16.4639 4.42338 16.1263 4.64894C15.7887 4.87451 15.5256 5.19511 15.3702 5.57021C15.2149 5.94531 15.1742 6.35806 15.2534 6.75626C15.3326 7.15447 15.5281 7.52024 15.8152 7.80733C16.1023 8.09442 16.4681 8.28993 16.8663 8.36914C17.2645 8.44835 17.6773 8.40769 18.0524 8.25232C18.4275 8.09695 18.7481 7.83384 18.9736 7.49626C19.1992 7.15868 19.3196 6.76179 19.3196 6.35578C19.3189 5.81155 19.1024 5.28981 18.7176 4.90498C18.3327 4.52015 17.811 4.30366 17.2668 4.30298Z" fill="#202020"/>
<path d="M6.73277 15.5913C6.61392 15.5913 6.49741 15.5582 6.39631 15.4958C6.2952 15.4333 6.21349 15.3439 6.16034 15.2376C6.10719 15.1313 6.08469 15.0122 6.09536 14.8939C6.10603 14.7755 6.14946 14.6624 6.22077 14.5673L7.54269 12.7952C7.87615 12.3506 8.3083 11.9896 8.80508 11.7405C9.30186 11.4915 9.8497 11.3612 10.4054 11.36H12.5689C12.9899 11.3609 13.403 11.2454 13.7625 11.0263C14.122 10.8072 14.4139 10.493 14.6061 10.1184L15.4633 8.4563C15.5013 8.38062 15.5538 8.31321 15.618 8.25799C15.6822 8.20276 15.7567 8.16082 15.8372 8.13459C15.9177 8.10836 16.0026 8.09835 16.087 8.10516C16.1713 8.11197 16.2535 8.13545 16.3288 8.17425C16.404 8.21305 16.4708 8.26639 16.5253 8.33119C16.5798 8.39599 16.6209 8.47095 16.6462 8.55174C16.6715 8.63253 16.6806 8.71753 16.6728 8.80184C16.665 8.88614 16.6406 8.96806 16.6009 9.04286L15.7437 10.7069C15.444 11.2903 14.9889 11.7796 14.4287 12.1207C13.8684 12.4619 13.2248 12.6416 12.5689 12.64H10.4054C10.0487 12.6409 9.69707 12.7246 9.37822 12.8845C9.05936 13.0444 8.782 13.2762 8.56797 13.5616L7.24605 15.3341C7.18644 15.414 7.109 15.4788 7.01988 15.5235C6.93077 15.5682 6.83245 15.5914 6.73277 15.5913Z" fill="#202020"/>
</svg>
