<svg width="24" height="24" viewBox="0 0 24 24" fill="none" xmlns="http://www.w3.org/2000/svg">
<path d="M17.032 20.4556H6.96801C6.06022 20.4546 5.1899 20.0935 4.548 19.4516C3.90609 18.8097 3.54502 17.9394 3.54401 17.0316V6.96795C3.54502 6.06016 3.90609 5.18984 4.548 4.54793C5.1899 3.90603 6.06022 3.54496 6.96801 3.54395H17.032C17.9398 3.54496 18.8101 3.90603 19.452 4.54793C20.0939 5.18984 20.455 6.06016 20.456 6.96795V17.0319C20.456 17.94 20.0953 18.811 19.4531 19.4531C18.811 20.0952 17.9401 20.4559 17.032 20.4559V20.4556ZM6.96801 4.82427C6.39954 4.82477 5.8545 5.05082 5.45253 5.45279C5.05056 5.85476 4.82451 6.3998 4.82401 6.96827V17.0323C4.82451 17.6007 5.05056 18.1458 5.45253 18.5477C5.8545 18.9497 6.39954 19.1758 6.96801 19.1763H17.032C17.3136 19.1763 17.5924 19.1208 17.8525 19.0131C18.1126 18.9053 18.349 18.7474 18.548 18.5483C18.7471 18.3492 18.9051 18.1129 19.0128 17.8527C19.1206 17.5926 19.176 17.3138 19.176 17.0323V6.96795C19.1755 6.39948 18.9494 5.85444 18.5475 5.45247C18.1455 5.0505 17.6005 4.82445 17.032 4.82395L6.96801 4.82427Z" fill="#202020"/>
<path d="M8.99905 17.3901C8.56906 17.3901 8.14872 17.2626 7.79118 17.0238C7.43364 16.7849 7.15494 16.4454 6.99032 16.0482C6.82569 15.651 6.78254 15.2138 6.86631 14.7921C6.95008 14.3703 7.15701 13.9829 7.46095 13.6787C7.76488 13.3746 8.15218 13.1674 8.57386 13.0833C8.99555 12.9992 9.4327 13.042 9.83005 13.2064C10.2274 13.3707 10.5671 13.6491 10.8062 14.0065C11.0453 14.3639 11.1731 14.7841 11.1734 15.2141C11.1734 15.7909 10.9444 16.3442 10.5367 16.7522C10.1289 17.1602 9.57588 17.3897 8.99905 17.3901ZM8.99905 14.3216C8.82214 14.3216 8.6492 14.3741 8.50211 14.4724C8.35502 14.5707 8.24038 14.7104 8.1727 14.8738C8.10501 15.0373 8.08732 15.2171 8.12186 15.3906C8.15639 15.5641 8.24161 15.7235 8.36672 15.8486C8.49184 15.9736 8.65124 16.0588 8.82475 16.0933C8.99827 16.1277 9.17812 16.11 9.34154 16.0422C9.50497 15.9745 9.64463 15.8598 9.74287 15.7127C9.84111 15.5656 9.89351 15.3926 9.89345 15.2157C9.89294 14.9787 9.79854 14.7515 9.6309 14.5839C9.46327 14.4164 9.23607 14.322 8.99905 14.3216ZM8.99905 10.9584C8.56898 10.9584 8.14857 10.8309 7.79098 10.5919C7.4334 10.353 7.1547 10.0134 6.99013 9.61605C6.82557 9.21872 6.78253 8.7815 6.86645 8.3597C6.95038 7.9379 7.1575 7.55046 7.46163 7.24637C7.76575 6.94229 8.15323 6.73523 8.57504 6.65136C8.99685 6.5675 9.43406 6.6106 9.83138 6.77523C10.2287 6.93985 10.5683 7.2186 10.8072 7.57622C11.046 7.93384 11.1735 8.35427 11.1734 8.78434C11.1729 9.36084 10.9437 9.91358 10.536 10.3212C10.1283 10.7288 9.57555 10.958 8.99905 10.9584ZM8.99905 7.88994C8.82215 7.88994 8.64923 7.9424 8.50214 8.04067C8.35506 8.13895 8.24042 8.27864 8.17273 8.44207C8.10503 8.6055 8.08732 8.78533 8.12183 8.95883C8.15634 9.13233 8.24153 9.29169 8.36661 9.41678C8.49169 9.54186 8.65106 9.62704 8.82456 9.66155C8.99805 9.69607 9.17789 9.67835 9.34132 9.61066C9.50475 9.54296 9.64444 9.42833 9.74271 9.28124C9.84099 9.13416 9.89345 8.96124 9.89345 8.78434C9.89302 8.54726 9.79866 8.32001 9.63102 8.15237C9.46337 7.98473 9.23613 7.89036 8.99905 7.88994Z" fill="#202020"/>
<path d="M8.99904 14.3216C8.8293 14.3216 8.66651 14.2542 8.54649 14.1342C8.42647 14.0141 8.35904 13.8514 8.35904 13.6816V10.3184C8.35904 10.1487 8.42647 9.98589 8.54649 9.86587C8.66651 9.74585 8.8293 9.67842 8.99904 9.67842C9.16878 9.67842 9.33156 9.74585 9.45159 9.86587C9.57161 9.98589 9.63904 10.1487 9.63904 10.3184V13.6816C9.63904 13.8514 9.57161 14.0141 9.45159 14.1342C9.33156 14.2542 9.16878 14.3216 8.99904 14.3216ZM15.001 10.9584C14.5709 10.9585 14.1504 10.831 13.7928 10.5921C13.4352 10.3532 13.1564 10.0136 12.9918 9.61627C12.8272 9.21894 12.7841 8.78172 12.868 8.35989C12.9519 7.93807 13.159 7.5506 13.4631 7.24649C13.7672 6.94237 14.1547 6.73527 14.5765 6.65138C14.9983 6.5675 15.4356 6.61058 15.8329 6.7752C16.2302 6.93981 16.5698 7.21856 16.8087 7.57619C17.0476 7.93381 17.1751 8.35426 17.175 8.78434C17.1745 9.36079 16.9453 9.91348 16.5377 10.3211C16.1301 10.7287 15.5774 10.9579 15.001 10.9584ZM15.001 7.88994C14.8241 7.88988 14.6511 7.94228 14.504 8.04052C14.3568 8.13876 14.2422 8.27842 14.1744 8.44185C14.1067 8.60527 14.0889 8.78511 14.1234 8.95863C14.1579 9.13215 14.243 9.29155 14.3681 9.41666C14.4932 9.54178 14.6525 9.62699 14.826 9.66153C14.9995 9.69607 15.1794 9.67837 15.3428 9.61069C15.5063 9.543 15.646 9.42837 15.7443 9.28128C15.8426 9.13418 15.895 8.96125 15.895 8.78434C15.8946 8.54732 15.8003 8.32012 15.6327 8.15248C15.4652 7.98485 15.238 7.89045 15.001 7.88994Z" fill="#202020"/>
<path d="M8.9987 14.3215C8.87985 14.3215 8.76334 14.2884 8.66224 14.2259C8.56113 14.1634 8.47942 14.074 8.42627 13.9677C8.37312 13.8614 8.35062 13.7424 8.36129 13.624C8.37196 13.5056 8.41539 13.3926 8.4867 13.2975L9.23934 12.2879C9.45511 12.0003 9.73472 11.7668 10.0561 11.6058C10.3776 11.4447 10.732 11.3606 11.0915 11.3599H12.3241C12.5134 11.3604 12.6991 11.3085 12.8608 11.21C13.0224 11.1115 13.1536 10.9703 13.24 10.8018L13.728 9.8559C13.7659 9.78022 13.8185 9.71281 13.8827 9.65759C13.9468 9.60236 14.0213 9.56042 14.1018 9.53419C14.1823 9.50795 14.2672 9.49795 14.3516 9.50476C14.436 9.51157 14.5182 9.53505 14.5934 9.57385C14.6687 9.61265 14.7355 9.66599 14.79 9.73079C14.8445 9.79558 14.8855 9.87055 14.9109 9.95133C14.9362 10.0321 14.9452 10.1171 14.9374 10.2014C14.9297 10.2857 14.9052 10.3677 14.8656 10.4425L14.3769 11.3897C14.1832 11.7669 13.8889 12.0833 13.5267 12.304C13.1644 12.5246 12.7483 12.6408 12.3241 12.6399H11.0915C10.931 12.6404 10.7727 12.6783 10.6293 12.7505C10.4859 12.8227 10.3613 12.9272 10.2653 13.0559L9.51198 14.0658C9.45221 14.1454 9.37469 14.21 9.28558 14.2544C9.19648 14.2987 9.09825 14.3217 8.9987 14.3215Z" fill="#202020"/>
</svg>
