<svg width="24" height="24" viewBox="0 0 24 24" fill="none" xmlns="http://www.w3.org/2000/svg">
<path d="M17.032 20.4556H6.96801C6.06022 20.4546 5.1899 20.0935 4.548 19.4516C3.90609 18.8097 3.54502 17.9394 3.54401 17.0316V6.96795C3.54502 6.06016 3.90609 5.18984 4.548 4.54793C5.1899 3.90603 6.06022 3.54496 6.96801 3.54395H17.032C17.9398 3.54496 18.8101 3.90603 19.452 4.54793C20.0939 5.18984 20.455 6.06016 20.456 6.96795V17.0319C20.456 17.94 20.0953 18.811 19.4531 19.4531C18.811 20.0952 17.9401 20.4559 17.032 20.4559V20.4556ZM6.96801 4.82427C6.39954 4.82477 5.8545 5.05082 5.45253 5.45279C5.05056 5.85476 4.82451 6.3998 4.82401 6.96827V17.0323C4.82451 17.6007 5.05056 18.1458 5.45253 18.5477C5.8545 18.9497 6.39954 19.1758 6.96801 19.1763H17.032C17.3136 19.1763 17.5924 19.1208 17.8525 19.0131C18.1126 18.9053 18.349 18.7474 18.548 18.5483C18.7471 18.3492 18.9051 18.1129 19.0128 17.8527C19.1206 17.5926 19.176 17.3138 19.176 17.0323V6.96795C19.1755 6.39948 18.9494 5.85444 18.5475 5.45247C18.1455 5.0505 17.6005 4.82445 17.032 4.82395L6.96801 4.82427Z" fill="#202020"/>
<path d="M8.99905 10.9584C8.56898 10.9584 8.14857 10.8309 7.79098 10.5919C7.4334 10.353 7.1547 10.0134 6.99013 9.61605C6.82557 9.21872 6.78253 8.7815 6.86645 8.3597C6.95038 7.9379 7.1575 7.55046 7.46163 7.24637C7.76575 6.94229 8.15323 6.73523 8.57504 6.65136C8.99685 6.5675 9.43406 6.6106 9.83138 6.77523C10.2287 6.93985 10.5683 7.2186 10.8072 7.57622C11.046 7.93384 11.1735 8.35427 11.1734 8.78434C11.1729 9.36084 10.9437 9.91358 10.536 10.3212C10.1283 10.7288 9.57555 10.958 8.99905 10.9584ZM8.99905 7.88994C8.82215 7.88994 8.64923 7.9424 8.50214 8.04067C8.35506 8.13895 8.24042 8.27864 8.17273 8.44207C8.10503 8.6055 8.08732 8.78533 8.12183 8.95883C8.15634 9.13233 8.24153 9.29169 8.36661 9.41678C8.49169 9.54186 8.65106 9.62704 8.82456 9.66155C8.99805 9.69607 9.17789 9.67835 9.34132 9.61066C9.50475 9.54296 9.64444 9.42833 9.74271 9.28124C9.84099 9.13416 9.89345 8.96124 9.89345 8.78434C9.89302 8.54726 9.79866 8.32001 9.63102 8.15237C9.46337 7.98473 9.23613 7.89036 8.99905 7.88994ZM8.99905 17.3901C8.56906 17.3901 8.14872 17.2626 7.79118 17.0238C7.43364 16.7849 7.15494 16.4454 6.99032 16.0482C6.82569 15.651 6.78254 15.2138 6.86631 14.7921C6.95008 14.3703 7.15701 13.9829 7.46095 13.6787C7.76488 13.3746 8.15218 13.1674 8.57386 13.0833C8.99555 12.9992 9.4327 13.042 9.83005 13.2064C10.2274 13.3707 10.5671 13.6491 10.8062 14.0065C11.0453 14.3639 11.1731 14.7841 11.1734 15.2141C11.1734 15.7909 10.9444 16.3442 10.5367 16.7522C10.1289 17.1602 9.57588 17.3897 8.99905 17.3901ZM8.99905 14.3216C8.82214 14.3216 8.6492 14.3741 8.50211 14.4724C8.35502 14.5707 8.24038 14.7104 8.1727 14.8738C8.10501 15.0373 8.08732 15.2171 8.12186 15.3906C8.15639 15.5641 8.24161 15.7235 8.36672 15.8486C8.49184 15.9736 8.65124 16.0588 8.82475 16.0933C8.99827 16.1277 9.17812 16.11 9.34154 16.0422C9.50497 15.9745 9.64463 15.8598 9.74287 15.7127C9.84111 15.5656 9.89351 15.3926 9.89345 15.2157C9.89294 14.9787 9.79854 14.7515 9.6309 14.5839C9.46327 14.4164 9.23607 14.322 8.99905 14.3216Z" fill="#202020"/>
<path d="M8.99905 14.3217C8.82932 14.3217 8.66653 14.2542 8.54651 14.1342C8.42648 14.0142 8.35905 13.8514 8.35905 13.6817V10.3185C8.35905 10.1487 8.42648 9.98594 8.54651 9.86592C8.66653 9.74589 8.82932 9.67847 8.99905 9.67847C9.16879 9.67847 9.33158 9.74589 9.4516 9.86592C9.57163 9.98594 9.63905 10.1487 9.63905 10.3185V13.6817C9.63905 13.8514 9.57163 14.0142 9.4516 14.1342C9.33158 14.2542 9.16879 14.3217 8.99905 14.3217ZM15.001 17.3901C14.571 17.3902 14.1506 17.2628 13.793 17.024C13.4354 16.7851 13.1567 16.4457 12.992 16.0484C12.8273 15.6512 12.7841 15.2141 12.8679 14.7923C12.9516 14.3706 13.1585 13.9831 13.4624 13.6789C13.7664 13.3747 14.1537 13.1675 14.5754 13.0833C14.997 12.9992 15.4342 13.0421 15.8316 13.2064C16.2289 13.3707 16.5687 13.6491 16.8078 14.0065C17.0469 14.3639 17.1747 14.7841 17.1751 15.2141C17.1751 15.7909 16.9461 16.3441 16.5384 16.7521C16.1307 17.1602 15.5778 17.3896 15.001 17.3901ZM15.001 14.3217C14.8241 14.3216 14.6511 14.374 14.504 14.4723C14.3568 14.5705 14.2421 14.7102 14.1744 14.8736C14.1067 15.0371 14.0889 15.217 14.1234 15.3905C14.1579 15.564 14.2431 15.7234 14.3682 15.8485C14.4933 15.9736 14.6527 16.0588 14.8262 16.0933C14.9998 16.1278 15.1796 16.1101 15.3431 16.0423C15.5065 15.9746 15.6462 15.8599 15.7445 15.7128C15.8427 15.5656 15.8951 15.3927 15.8951 15.2157C15.8945 14.9788 15.8002 14.7517 15.6326 14.5841C15.4651 14.4165 15.2379 14.3222 15.001 14.3217Z" fill="#202020"/>
<path d="M15.001 14.3216C14.8312 14.3216 14.6685 14.2542 14.5484 14.1342C14.4284 14.0142 14.361 13.8514 14.361 13.6816V9.53603C14.3609 9.53122 14.3589 9.52663 14.3555 9.52323C14.3521 9.51982 14.3475 9.51788 14.3427 9.51779H12.9895C12.8197 9.51779 12.6569 9.45037 12.5369 9.33034C12.4169 9.21032 12.3495 9.04753 12.3495 8.87779C12.3495 8.70805 12.4169 8.54527 12.5369 8.42525C12.6569 8.30522 12.8197 8.23779 12.9895 8.23779H14.3427C14.6869 8.23822 15.0169 8.37513 15.2603 8.61851C15.5036 8.86188 15.6406 9.19185 15.641 9.53603V13.6816C15.641 13.8514 15.5735 14.0142 15.4535 14.1342C15.3335 14.2542 15.1707 14.3216 15.001 14.3216Z" fill="#202020"/>
<path d="M13.4742 10.3862C13.3901 10.3863 13.3068 10.3698 13.2291 10.3376C13.1514 10.3055 13.0808 10.2582 13.0214 10.1987L12.153 9.32987C12.0394 9.21637 11.9727 9.06436 11.966 8.90396C11.9593 8.74357 12.0131 8.58652 12.1168 8.46395L12.9661 7.46011C13.0204 7.39594 13.0869 7.34311 13.1617 7.30463C13.2365 7.26614 13.3181 7.24276 13.4019 7.23583C13.4857 7.22889 13.5701 7.23853 13.6501 7.26419C13.7302 7.28985 13.8045 7.33104 13.8686 7.38539C13.9328 7.43975 13.9857 7.50621 14.0241 7.58099C14.0626 7.65576 14.086 7.73739 14.0929 7.8212C14.0999 7.90501 14.0902 7.98936 14.0646 8.06945C14.0389 8.14954 13.9977 8.22378 13.9434 8.28795L13.4742 8.84219L13.9267 9.29467C14.0162 9.38418 14.0771 9.4982 14.1018 9.62233C14.1265 9.74646 14.1138 9.87512 14.0654 9.99205C14.017 10.109 13.935 10.2089 13.8297 10.2792C13.7245 10.3496 13.6008 10.3871 13.4742 10.3872V10.3862Z" fill="#202020"/>
</svg>
