<svg width="24" height="24" viewBox="0 0 24 24" fill="none" xmlns="http://www.w3.org/2000/svg">
<path d="M6.73313 20.9769C6.07397 20.9769 5.4296 20.7814 4.88153 20.4152C4.33345 20.049 3.90628 19.5285 3.65403 18.9195C3.40177 18.3105 3.33577 17.6404 3.46437 16.9939C3.59297 16.3474 3.91039 15.7535 4.37649 15.2874C4.84259 14.8213 5.43643 14.5039 6.08293 14.3753C6.72943 14.2467 7.39955 14.3127 8.00854 14.565C8.61753 14.8172 9.13804 15.2444 9.50425 15.7925C9.87047 16.3405 10.0659 16.9849 10.0659 17.6441C10.0649 18.5277 9.71346 19.3748 9.08865 19.9996C8.46385 20.6244 7.61673 20.9759 6.73313 20.9769ZM6.73313 15.5913C6.32713 15.5913 5.93024 15.7117 5.59266 15.9372C5.25508 16.1628 4.99196 16.4834 4.83659 16.8585C4.68122 17.2336 4.64057 17.6463 4.71978 18.0446C4.79898 18.4428 4.99449 18.8085 5.28158 19.0956C5.56867 19.3827 5.93445 19.5782 6.33265 19.6574C6.73085 19.7366 7.1436 19.696 7.5187 19.5406C7.8938 19.3852 8.21441 19.1221 8.43997 18.7845C8.66554 18.447 8.78593 18.0501 8.78593 17.6441C8.78525 17.0998 8.56876 16.5781 8.18393 16.1933C7.7991 15.8084 7.27736 15.5919 6.73313 15.5913ZM6.73313 9.68855C6.07397 9.68855 5.4296 9.49309 4.88153 9.12687C4.33345 8.76066 3.90628 8.24015 3.65403 7.63116C3.40177 7.02217 3.33577 6.35205 3.46437 5.70555C3.59297 5.05905 3.91039 4.46521 4.37649 3.99911C4.84259 3.533 5.43643 3.21559 6.08293 3.08699C6.72943 2.95839 7.39955 3.02439 8.00854 3.27665C8.61753 3.5289 9.13804 3.95607 9.50425 4.50415C9.87047 5.05222 10.0659 5.69658 10.0659 6.35575C10.0649 7.23935 9.71346 8.08647 9.08865 8.71127C8.46385 9.33608 7.61673 9.68753 6.73313 9.68855ZM6.73313 4.30295C6.32713 4.30295 5.93024 4.42335 5.59266 4.64891C5.25508 4.87447 4.99196 5.19508 4.83659 5.57018C4.68122 5.94528 4.64057 6.35803 4.71978 6.75623C4.79898 7.15444 4.99449 7.52021 5.28158 7.8073C5.56867 8.09439 5.93445 8.2899 6.33265 8.36911C6.73085 8.44832 7.1436 8.40766 7.5187 8.25229C7.8938 8.09692 8.21441 7.83381 8.43997 7.49623C8.66554 7.15864 8.78593 6.76176 8.78593 6.35575C8.78525 5.81152 8.56876 5.28978 8.18393 4.90495C7.7991 4.52012 7.27736 4.30363 6.73313 4.30295Z" fill="#202020"/>
<path d="M6.73314 15.5913C6.5634 15.5913 6.40061 15.5238 6.28059 15.4038C6.16057 15.2838 6.09314 15.121 6.09314 14.9513V9.04855C6.09314 8.87881 6.16057 8.71603 6.28059 8.596C6.40061 8.47598 6.5634 8.40855 6.73314 8.40855C6.90288 8.40855 7.06566 8.47598 7.18569 8.596C7.30571 8.71603 7.37314 8.87881 7.37314 9.04855V14.9513C7.37314 15.121 7.30571 15.2838 7.18569 15.4038C7.06566 15.5238 6.90288 15.5913 6.73314 15.5913ZM17.2669 9.68855C16.6077 9.68855 15.9634 9.49309 15.4153 9.12687C14.8672 8.76066 14.44 8.24015 14.1878 7.63116C13.9355 7.02217 13.8695 6.35205 13.9981 5.70555C14.1267 5.05905 14.4442 4.46521 14.9103 3.99911C15.3764 3.533 15.9702 3.21559 16.6167 3.08699C17.2632 2.95839 17.9333 3.02439 18.5423 3.27665C19.1513 3.5289 19.6718 3.95607 20.038 4.50415C20.4042 5.05222 20.5997 5.69658 20.5997 6.35575C20.5987 7.23935 20.2472 8.08647 19.6224 8.71127C18.9976 9.33608 18.1505 9.68753 17.2669 9.68855ZM17.2669 4.30295C16.8609 4.30295 16.464 4.42335 16.1264 4.64891C15.7888 4.87447 15.5257 5.19508 15.3704 5.57018C15.215 5.94528 15.1743 6.35803 15.2535 6.75623C15.3328 7.15444 15.5283 7.52021 15.8154 7.8073C16.1024 8.09439 16.4682 8.2899 16.8664 8.36911C17.2646 8.44832 17.6774 8.40766 18.0525 8.25229C18.4276 8.09692 18.7482 7.83381 18.9737 7.49623C19.1993 7.15864 19.3197 6.76176 19.3197 6.35575C19.319 5.81152 19.1025 5.28978 18.7177 4.90495C18.3329 4.52012 17.8111 4.30363 17.2669 4.30295Z" fill="#202020"/>
<path d="M6.73277 15.5913C6.61392 15.5913 6.49741 15.5582 6.39631 15.4957C6.2952 15.4332 6.21349 15.3438 6.16034 15.2375C6.10719 15.1312 6.08469 15.0122 6.09536 14.8938C6.10603 14.7754 6.14946 14.6624 6.22077 14.5673L7.54269 12.7951C7.87615 12.3506 8.3083 11.9895 8.80508 11.7405C9.30186 11.4914 9.8497 11.3612 10.4054 11.3599H12.5689C12.9899 11.3608 13.403 11.2454 13.7625 11.0263C14.122 10.8071 14.4139 10.4929 14.6061 10.1183L15.4633 8.45624C15.5013 8.38056 15.5538 8.31315 15.618 8.25793C15.6822 8.2027 15.7567 8.16076 15.8372 8.13453C15.9177 8.10829 16.0026 8.09829 16.087 8.1051C16.1713 8.11191 16.2535 8.13539 16.3288 8.17419C16.404 8.21299 16.4708 8.26633 16.5253 8.33113C16.5798 8.39592 16.6209 8.47089 16.6462 8.55168C16.6715 8.63246 16.6806 8.71747 16.6728 8.80178C16.665 8.88608 16.6406 8.968 16.6009 9.0428L15.7437 10.7068C15.444 11.2903 14.9889 11.7796 14.4287 12.1207C13.8684 12.4618 13.2248 12.6415 12.5689 12.6399H10.4054C10.0487 12.6408 9.69707 12.7245 9.37822 12.8844C9.05936 13.0444 8.782 13.2762 8.56797 13.5615L7.24605 15.334C7.18644 15.4139 7.109 15.4788 7.01988 15.5234C6.93077 15.5681 6.83245 15.5913 6.73277 15.5913Z" fill="#202020"/>
</svg>
