<svg width="24" height="24" viewBox="0 0 24 24" fill="none" xmlns="http://www.w3.org/2000/svg">
<path d="M17.25 3H6.75C5.75544 3 4.80161 3.39509 4.09835 4.09835C3.39509 4.80161 3 5.75544 3 6.75V17.25C3 18.2446 3.39509 19.1984 4.09835 19.9016C4.80161 20.6049 5.75544 21 6.75 21H17.25C18.2446 21 19.1984 20.6049 19.9016 19.9016C20.6049 19.1984 21 18.2446 21 17.25V6.75C21 5.75544 20.6049 4.80161 19.9016 4.09835C19.1984 3.39509 18.2446 3 17.25 3ZM19.5 17.25C19.5 17.8467 19.2629 18.419 18.841 18.841C18.419 19.2629 17.8467 19.5 17.25 19.5H6.75C6.15326 19.5 5.58097 19.2629 5.15901 18.841C4.73705 18.419 4.5 17.8467 4.5 17.25V6.75C4.5 6.15326 4.73705 5.58097 5.15901 5.15901C5.58097 4.73705 6.15326 4.5 6.75 4.5H17.25C17.8467 4.5 18.419 4.73705 18.841 5.15901C19.2629 5.58097 19.5 6.15326 19.5 6.75V17.25Z" fill="#202020"/>
<path d="M17.25 6H6.75C6.55109 6 6.36032 6.07902 6.21967 6.21967C6.07902 6.36032 6 6.55109 6 6.75V13.5C6 14.0967 6.23705 14.669 6.65901 15.091C7.08097 15.5129 7.65326 15.75 8.25 15.75H9.0975C9.2653 16.392 9.64121 16.9602 10.1664 17.3658C10.6916 17.7714 11.3364 17.9914 12 17.9914C12.6636 17.9914 13.3084 17.7714 13.8336 17.3658C14.3588 16.9602 14.7347 16.392 14.9025 15.75H15.75C16.3467 15.75 16.919 15.5129 17.341 15.091C17.7629 14.669 18 14.0967 18 13.5V6.75C18 6.55109 17.921 6.36032 17.7803 6.21967C17.6397 6.07902 17.4489 6 17.25 6ZM16.5 13.5C16.5 13.6989 16.421 13.8897 16.2803 14.0303C16.1397 14.171 15.9489 14.25 15.75 14.25H14.25C14.0511 14.25 13.8603 14.329 13.7197 14.4697C13.579 14.6103 13.5 14.8011 13.5 15C13.5 15.3978 13.342 15.7794 13.0607 16.0607C12.7794 16.342 12.3978 16.5 12 16.5C11.6022 16.5 11.2206 16.342 10.9393 16.0607C10.658 15.7794 10.5 15.3978 10.5 15C10.5 14.8011 10.421 14.6103 10.2803 14.4697C10.1397 14.329 9.94891 14.25 9.75 14.25H8.25C8.05109 14.25 7.86032 14.171 7.71967 14.0303C7.57902 13.8897 7.5 13.6989 7.5 13.5V7.5H16.5V13.5Z" fill="#202020"/>
</svg>
