<svg width="24" height="24" viewBox="0 0 24 24" fill="none" xmlns="http://www.w3.org/2000/svg">
<path d="M19.275 12.99L18.27 12.3825C17.8394 12.1233 17.3344 12.0156 16.8356 12.0768C16.3367 12.138 15.8727 12.3644 15.5175 12.72L14.985 13.26C14.8722 13.373 14.7262 13.447 14.5684 13.4713C14.4105 13.4956 14.2491 13.4688 14.1075 13.395C12.6334 12.5807 11.4193 11.3666 10.605 9.8925C10.5276 9.74925 10.4988 9.58468 10.5232 9.42367C10.5476 9.26265 10.6237 9.11394 10.74 9L11.28 8.4675C11.6356 8.11231 11.862 7.64829 11.9232 7.14943C11.9844 6.65056 11.8767 6.14558 11.6175 5.715L11.01 4.725C10.7191 4.23474 10.3203 3.81725 9.84392 3.50425C9.36749 3.19124 8.82597 2.99098 8.26053 2.91867C7.69509 2.84637 7.12061 2.90392 6.58075 3.08696C6.04089 3.27 5.54987 3.57371 5.145 3.975L4.875 4.275C3.73308 5.43767 3.04488 6.97056 2.93483 8.59649C2.82478 10.2224 3.30016 11.8341 4.275 13.14C6.14769 15.6352 8.36476 17.8523 10.86 19.725C12.1653 20.7013 13.7773 21.1776 15.4037 21.0675C17.03 20.9575 18.5631 20.2683 19.725 19.125L19.995 18.855C20.3963 18.4501 20.7 17.9591 20.883 17.4193C21.0661 16.8794 21.1236 16.3049 21.0513 15.7395C20.979 15.174 20.7788 14.6325 20.4658 14.1561C20.1528 13.6797 19.7353 13.2809 19.245 12.99H19.275ZM18.9375 17.79L18.6675 18.06C17.7621 18.9509 16.5673 19.4877 15.2999 19.573C14.0326 19.6583 12.7767 19.2865 11.76 18.525C9.37572 16.7408 7.25924 14.6243 5.475 12.24C4.71352 11.2233 4.3417 9.9674 4.42702 8.70005C4.51233 7.4327 5.04913 6.23793 5.94 5.3325L6.21 5.0625C6.63093 4.64501 7.19964 4.41052 7.7925 4.41C7.88485 4.40255 7.97765 4.40255 8.07 4.41C8.41495 4.44937 8.74611 4.56802 9.03756 4.75669C9.32902 4.94535 9.57286 5.1989 9.75 5.4975L10.35 6.5025C10.4358 6.64577 10.4713 6.81358 10.4509 6.97933C10.4306 7.14507 10.3554 7.29928 10.2375 7.4175L9.705 7.95C9.36009 8.29307 9.13566 8.73868 9.06534 9.22005C8.99503 9.70142 9.08263 10.1926 9.315 10.62C10.2596 12.3446 11.6779 13.7629 13.4025 14.7075C13.8299 14.9399 14.3211 15.0275 14.8024 14.9572C15.2838 14.8868 15.7294 14.6624 16.0725 14.3175L16.605 13.785C16.7232 13.6671 16.8774 13.5919 17.0432 13.5716C17.2089 13.5512 17.3767 13.5867 17.52 13.6725L18.525 14.2725C18.8178 14.4484 19.0668 14.6886 19.253 14.9749C19.4391 15.2613 19.5577 15.5863 19.5996 15.9253C19.6415 16.2642 19.6057 16.6083 19.4949 16.9314C19.3841 17.2545 19.2012 17.5481 18.96 17.79H18.9375Z" fill="#202020"/>
<path d="M14.325 4.425C14.1261 4.425 13.9353 4.50402 13.7947 4.64467C13.654 4.78532 13.575 4.97609 13.575 5.175V8.175C13.575 8.77174 13.8121 9.34403 14.234 9.76599C14.656 10.1879 15.2283 10.425 15.825 10.425H18.825C19.0239 10.425 19.2147 10.346 19.3553 10.2053C19.496 10.0647 19.575 9.87391 19.575 9.675C19.575 9.47609 19.496 9.28532 19.3553 9.14467C19.2147 9.00402 19.0239 8.925 18.825 8.925H16.1325L20.7825 4.2825C20.9237 4.14127 21.0031 3.94973 21.0031 3.75C21.0031 3.55028 20.9237 3.35873 20.7825 3.2175C20.6413 3.07627 20.4497 2.99693 20.25 2.99693C20.0503 2.99693 19.8587 3.07627 19.7175 3.2175L15.075 7.8675V5.175C15.075 4.97609 14.996 4.78532 14.8553 4.64467C14.7147 4.50402 14.5239 4.425 14.325 4.425Z" fill="#202020"/>
</svg>
