<svg width="24" height="24" viewBox="0 0 24 24" fill="none" xmlns="http://www.w3.org/2000/svg">
<path d="M12 20.7734C11.6772 20.7751 11.3626 20.6713 11.1041 20.478C10.8456 20.2846 10.6573 20.0122 10.5677 19.7021L10.1465 18.272C10.1367 18.2388 10.1189 18.2085 10.0948 18.1837C10.0707 18.159 10.0408 18.1404 10.0079 18.1297C9.97503 18.119 9.94001 18.1165 9.9059 18.1223C9.87179 18.1281 9.83961 18.1422 9.81214 18.1632L8.63166 19.072C8.37621 19.2687 8.06395 19.3775 7.74157 19.382C7.41918 19.3865 7.10399 19.2866 6.84313 19.0971C6.58226 18.9076 6.38974 18.6388 6.29435 18.3308C6.19895 18.0228 6.20581 17.6922 6.3139 17.3885L6.81342 15.9846C6.82511 15.952 6.82865 15.917 6.82374 15.8827C6.81883 15.8484 6.80561 15.8158 6.78524 15.7878C6.76486 15.7597 6.73795 15.7371 6.70683 15.7218C6.67572 15.7066 6.64134 15.6991 6.6067 15.7002L5.11742 15.744C4.79513 15.753 4.47859 15.6574 4.21515 15.4715C3.95171 15.2856 3.75551 15.0194 3.65589 14.7128C3.55627 14.4062 3.55858 14.0755 3.66248 13.7703C3.76638 13.4651 3.96628 13.2017 4.2323 13.0195L5.46142 12.1773C5.49006 12.1577 5.5135 12.1315 5.52969 12.1008C5.54589 12.0701 5.55435 12.036 5.55435 12.0013C5.55435 11.9666 5.54589 11.9324 5.52969 11.9018C5.5135 11.8711 5.49006 11.8448 5.46142 11.8253L4.2323 10.983C3.96628 10.8009 3.76638 10.5375 3.66248 10.2323C3.55858 9.92705 3.55627 9.59641 3.65589 9.28977C3.75551 8.98313 3.95171 8.71697 4.21515 8.53109C4.47859 8.34522 4.79513 8.24961 5.11742 8.25857L6.6067 8.29985C6.64134 8.30089 6.67572 8.29345 6.70683 8.27818C6.73795 8.26291 6.76486 8.24027 6.78524 8.21224C6.80561 8.1842 6.81883 8.15161 6.82374 8.1173C6.82865 8.08299 6.82511 8.048 6.81342 8.01537L6.3139 6.61153C6.20581 6.30777 6.19895 5.97718 6.29435 5.6692C6.38974 5.36122 6.58226 5.09239 6.84313 4.90291C7.10399 4.71343 7.41918 4.61347 7.74157 4.618C8.06395 4.62252 8.37621 4.73128 8.63166 4.92801L9.81214 5.83681C9.83961 5.85784 9.87179 5.87189 9.9059 5.87772C9.94001 5.88356 9.97503 5.88102 10.0079 5.87031C10.0408 5.8596 10.0707 5.84105 10.0948 5.81626C10.1189 5.79147 10.1367 5.76118 10.1465 5.72801L10.5677 4.29889C10.6587 3.9896 10.8475 3.7181 11.1056 3.52499C11.3638 3.33187 11.6776 3.22751 12 3.22751C12.3224 3.22751 12.6361 3.33187 12.8943 3.52499C13.1525 3.7181 13.3412 3.9896 13.4323 4.29889L13.8534 5.72801C13.8633 5.76118 13.881 5.79147 13.9052 5.81626C13.9293 5.84105 13.9591 5.8596 13.992 5.87031C14.0249 5.88102 14.0599 5.88356 14.0941 5.87772C14.1282 5.87189 14.1603 5.85784 14.1878 5.83681L15.3683 4.92801C15.6238 4.73121 15.9361 4.62241 16.2585 4.61788C16.581 4.61335 16.8962 4.71333 17.1571 4.90286C17.418 5.0924 17.6105 5.36131 17.7059 5.66936C17.8012 5.97742 17.7943 6.30807 17.6861 6.61185L17.1865 8.01537C17.1748 8.048 17.1713 8.08299 17.1762 8.1173C17.1811 8.15161 17.1943 8.1842 17.2147 8.21224C17.2351 8.24027 17.262 8.26291 17.2931 8.27818C17.3242 8.29345 17.3586 8.30089 17.3933 8.29985L18.8825 8.25857C19.2048 8.24961 19.5214 8.34522 19.7848 8.53109C20.0483 8.71697 20.2444 8.98313 20.3441 9.28977C20.4437 9.59641 20.4414 9.92705 20.3375 10.2323C20.2336 10.5375 20.0337 10.8009 19.7677 10.983L18.5385 11.8253C18.5099 11.8448 18.4865 11.8711 18.4703 11.9018C18.4541 11.9324 18.4456 11.9666 18.4456 12.0013C18.4456 12.036 18.4541 12.0701 18.4703 12.1008C18.4865 12.1315 18.5099 12.1577 18.5385 12.1773L19.7677 13.0195C20.0337 13.2017 20.2336 13.4651 20.3375 13.7703C20.4414 14.0755 20.4437 14.4062 20.3441 14.7128C20.2444 15.0194 20.0483 15.2856 19.7848 15.4715C19.5214 15.6574 19.2048 15.753 18.8825 15.744L17.3933 15.7027C17.3586 15.7017 17.3242 15.7091 17.2931 15.7244C17.262 15.7397 17.2351 15.7623 17.2147 15.7903C17.1943 15.8184 17.1811 15.851 17.1762 15.8853C17.1713 15.9196 17.1748 15.9546 17.1865 15.9872L17.6861 17.391C17.7932 17.6946 17.7994 18.0248 17.7036 18.3322C17.6079 18.6396 17.4153 18.9078 17.1547 19.0968C16.8941 19.2858 16.5793 19.3855 16.2574 19.3811C15.9355 19.3766 15.6236 19.2682 15.3683 19.072L14.1878 18.1632C14.1603 18.1422 14.1282 18.1281 14.0941 18.1223C14.0599 18.1165 14.0249 18.119 13.992 18.1297C13.9591 18.1404 13.9293 18.159 13.9052 18.1837C13.881 18.2085 13.8633 18.2388 13.8534 18.272L13.4323 19.7011C13.3428 20.0114 13.1546 20.284 12.896 20.4776C12.6375 20.6711 12.3229 20.775 12 20.7734ZM9.94206 16.84C10.2645 16.8399 10.5783 16.9442 10.8365 17.1374C11.0947 17.3305 11.2834 17.602 11.3744 17.9114L11.7955 19.3405C11.8085 19.3847 11.8354 19.4234 11.8723 19.451C11.9091 19.4786 11.9539 19.4935 12 19.4935C12.046 19.4935 12.0908 19.4786 12.1277 19.451C12.1645 19.4234 12.1915 19.3847 12.2045 19.3405L12.6256 17.9114C12.6941 17.6786 12.8183 17.466 12.9874 17.292C13.1566 17.1181 13.3656 16.988 13.5964 16.913C13.8272 16.838 14.0727 16.8204 14.3118 16.8617C14.551 16.903 14.7764 17.002 14.9686 17.1501L16.1491 18.0586C16.1856 18.0867 16.2301 18.1022 16.2762 18.1029C16.3222 18.1035 16.3672 18.0893 16.4045 18.0622C16.4417 18.0352 16.4692 17.9968 16.4828 17.9528C16.4964 17.9088 16.4954 17.8616 16.48 17.8182L15.9805 16.416C15.8991 16.1874 15.8746 15.9424 15.9093 15.7023C15.9439 15.4621 16.0365 15.234 16.1791 15.0377C16.3217 14.8414 16.51 14.6828 16.7277 14.5757C16.9454 14.4685 17.1859 14.416 17.4285 14.4227L18.9181 14.464C18.964 14.4653 19.0092 14.4516 19.0468 14.4251C19.0844 14.3986 19.1124 14.3606 19.1266 14.3169C19.1408 14.2731 19.1405 14.2259 19.1257 14.1824C19.1109 14.1388 19.0824 14.1012 19.0445 14.0752L17.815 13.233C17.6148 13.0958 17.4511 12.912 17.338 12.6973C17.2248 12.4826 17.1657 12.2436 17.1657 12.001C17.1657 11.7583 17.2248 11.5193 17.338 11.3046C17.4511 11.09 17.6148 10.9061 17.815 10.769L19.0445 9.92673C19.0833 9.90104 19.1127 9.86334 19.1281 9.81939C19.1435 9.77544 19.144 9.72765 19.1297 9.68334C19.1154 9.63903 19.0869 9.60064 19.0487 9.57403C19.0105 9.54742 18.9646 9.53407 18.9181 9.53601L17.4285 9.57729C17.1859 9.58401 16.9454 9.53151 16.7277 9.42436C16.51 9.3172 16.3217 9.1586 16.1791 8.96229C16.0365 8.76598 15.9439 8.53788 15.9093 8.29772C15.8746 8.05757 15.8991 7.81259 15.9805 7.58401L16.48 6.18177C16.4954 6.1384 16.4964 6.09119 16.4828 6.04722C16.4692 6.00324 16.4417 5.96485 16.4045 5.93779C16.3672 5.91074 16.3222 5.89647 16.2762 5.89713C16.2301 5.89779 16.1856 5.91334 16.1491 5.94145L14.9683 6.84993C14.7761 6.998 14.5507 7.09699 14.3116 7.13831C14.0725 7.17962 13.8269 7.16203 13.5962 7.08704C13.3654 7.01206 13.1564 6.88194 12.9873 6.70797C12.8182 6.534 12.694 6.32142 12.6256 6.08865L12.2045 4.65953C12.1915 4.61535 12.1645 4.57656 12.1277 4.54897C12.0908 4.52138 12.046 4.50647 12 4.50647C11.9539 4.50647 11.9091 4.52138 11.8723 4.54897C11.8354 4.57656 11.8085 4.61535 11.7955 4.65953L11.3744 6.08865C11.3059 6.32143 11.1817 6.53401 11.0125 6.70797C10.8434 6.88194 10.6343 7.01205 10.4036 7.08703C10.1728 7.16201 9.92722 7.1796 9.68811 7.13829C9.449 7.09698 9.22357 6.998 9.03134 6.84993L7.85086 5.94145C7.8144 5.91334 7.76981 5.89779 7.72378 5.89713C7.67775 5.89647 7.63274 5.91074 7.59549 5.93779C7.55824 5.96485 7.53075 6.00324 7.51714 6.04722C7.50353 6.09119 7.50452 6.1384 7.51998 6.18177L8.0195 7.58401C8.10087 7.81259 8.12531 8.05757 8.09069 8.29772C8.05608 8.53788 7.96347 8.76598 7.82086 8.96229C7.67826 9.1586 7.48996 9.3172 7.27226 9.42436C7.05457 9.53151 6.81404 9.58401 6.5715 9.57729L5.0819 9.53601C5.03591 9.53474 4.99075 9.54839 4.95316 9.57491C4.91557 9.60143 4.88758 9.63941 4.87335 9.68316C4.85913 9.7269 4.85944 9.77408 4.87425 9.81764C4.88906 9.86119 4.91756 9.89879 4.9555 9.92481L6.18494 10.767C6.38511 10.9042 6.54885 11.0881 6.66199 11.3027C6.77513 11.5174 6.83426 11.7564 6.83426 11.999C6.83426 12.2417 6.77513 12.4807 6.66199 12.6954C6.54885 12.91 6.38511 13.0939 6.18494 13.231L4.9555 14.0733C4.91665 14.099 4.88728 14.1367 4.87189 14.1806C4.85649 14.2246 4.85592 14.2724 4.87025 14.3167C4.88459 14.361 4.91304 14.3994 4.95126 14.426C4.98948 14.4526 5.03537 14.4659 5.0819 14.464L6.5715 14.4227C6.81404 14.416 7.05457 14.4685 7.27226 14.5757C7.48996 14.6828 7.67826 14.8414 7.82086 15.0377C7.96347 15.234 8.05608 15.4621 8.09069 15.7023C8.12531 15.9424 8.10087 16.1874 8.0195 16.416L7.51998 17.8182C7.50452 17.8616 7.50353 17.9088 7.51714 17.9528C7.53075 17.9968 7.55824 18.0352 7.59549 18.0622C7.63274 18.0893 7.67775 18.1035 7.72378 18.1029C7.76981 18.1022 7.8144 18.0867 7.85086 18.0586L9.03166 17.1501C9.29251 16.949 9.61266 16.8399 9.94206 16.84Z" fill="#202020"/>
<path d="M12 14.4422C11.8302 14.4422 11.6675 14.3748 11.5474 14.2548C11.4274 14.1348 11.36 13.972 11.36 13.8022V8.12032C11.36 7.95058 11.4274 7.78779 11.5474 7.66777C11.6675 7.54774 11.8302 7.48032 12 7.48032C12.1697 7.48032 12.3325 7.54774 12.4525 7.66777C12.5726 7.78779 12.64 7.95058 12.64 8.12032V13.8022C12.64 13.972 12.5726 14.1348 12.4525 14.2548C12.3325 14.3748 12.1697 14.4422 12 14.4422ZM12 17.2208C11.8302 17.2208 11.6675 17.1534 11.5474 17.0333C11.4274 16.9133 11.36 16.7505 11.36 16.5808V15.5981C11.36 15.4283 11.4274 15.2656 11.5474 15.1455C11.6675 15.0255 11.8302 14.9581 12 14.9581C12.1697 14.9581 12.3325 15.0255 12.4525 15.1455C12.5726 15.2656 12.64 15.4283 12.64 15.5981V16.5808C12.64 16.7505 12.5726 16.9133 12.4525 17.0333C12.3325 17.1534 12.1697 17.2208 12 17.2208Z" fill="#202020"/>
</svg>
