<svg width="24" height="24" viewBox="0 0 24 24" fill="none" xmlns="http://www.w3.org/2000/svg">
<path d="M11.9999 20.6807C9.99172 20.6806 8.04565 19.9842 6.49332 18.7101C4.94098 17.4361 3.87843 15.6632 3.4867 13.6935C3.09497 11.7239 3.39831 9.67934 4.34502 7.90827C5.29173 6.1372 6.82325 4.74917 8.67862 3.98069C10.534 3.21222 12.5984 3.11083 14.5202 3.69382C16.4419 4.27681 18.1021 5.50809 19.2178 7.17788C20.3334 8.84767 20.8357 10.8526 20.6388 12.8512C20.4419 14.8498 19.5582 16.7182 18.1382 18.1383C17.3339 18.9468 16.3773 19.5878 15.3237 20.0242C14.2701 20.4606 13.1404 20.6837 11.9999 20.6807ZM11.9999 4.59937C7.91931 4.59937 4.59931 7.91937 4.59931 12C4.59931 16.0806 7.91931 19.4007 11.9999 19.4007C16.0806 19.4007 19.4006 16.0806 19.4006 12C19.4006 7.91937 16.0806 4.59937 11.9999 4.59937Z" fill="#202020"/>
<path d="M12 14.4423C11.8302 14.4423 11.6675 14.3748 11.5474 14.2548C11.4274 14.1348 11.36 13.972 11.36 13.8023V8.12035C11.36 7.95061 11.4274 7.78782 11.5474 7.6678C11.6675 7.54778 11.8302 7.48035 12 7.48035C12.1697 7.48035 12.3325 7.54778 12.4525 7.6678C12.5726 7.78782 12.64 7.95061 12.64 8.12035V13.8023C12.64 13.972 12.5726 14.1348 12.4525 14.2548C12.3325 14.3748 12.1697 14.4423 12 14.4423ZM12 17.2208C11.8302 17.2208 11.6675 17.1534 11.5474 17.0334C11.4274 16.9134 11.36 16.7506 11.36 16.5808V15.5981C11.36 15.4284 11.4274 15.2656 11.5474 15.1456C11.6675 15.0255 11.8302 14.9581 12 14.9581C12.1697 14.9581 12.3325 15.0255 12.4525 15.1456C12.5726 15.2656 12.64 15.4284 12.64 15.5981V16.5808C12.64 16.7506 12.5726 16.9134 12.4525 17.0334C12.3325 17.1534 12.1697 17.2208 12 17.2208Z" fill="#202020"/>
</svg>
