<svg width="24" height="24" viewBox="0 0 24 24" fill="none" xmlns="http://www.w3.org/2000/svg">
<path d="M11.4692 17.8416C11.2439 17.8422 11.0208 17.7982 10.8126 17.712C10.6045 17.6258 10.4155 17.4992 10.2567 17.3395L6.10627 13.1888C5.947 13.0296 5.82066 12.8406 5.73445 12.6326C5.64825 12.4246 5.60388 12.2016 5.60388 11.9765C5.60388 11.7513 5.64825 11.5283 5.73445 11.3203C5.82066 11.1123 5.947 10.9233 6.10627 10.7642L12.0858 4.78432C12.4076 4.46326 12.8437 4.28296 13.2983 4.28296C13.7529 4.28296 14.1889 4.46326 14.5108 4.78432L18.6615 8.93504C18.9825 9.25683 19.1628 9.69281 19.1628 10.1474C19.1628 10.6019 18.9825 11.0379 18.6615 11.3597L12.6816 17.3395C12.5228 17.4992 12.3338 17.6258 12.1257 17.712C11.9176 17.7982 11.6944 17.8422 11.4692 17.8416ZM13.2983 5.56224C13.2412 5.56231 13.1846 5.57365 13.1319 5.59562C13.0792 5.61758 13.0313 5.64974 12.9911 5.69024L7.01123 11.6691C6.97086 11.7095 6.93883 11.7574 6.91697 11.8101C6.89512 11.8629 6.88387 11.9194 6.88387 11.9765C6.88387 12.0336 6.89512 12.0901 6.91697 12.1428C6.93883 12.1956 6.97086 12.2435 7.01123 12.2838L11.162 16.4346C11.2435 16.5159 11.3541 16.5617 11.4693 16.5617C11.5846 16.5617 11.6951 16.5159 11.7767 16.4346L17.7562 10.4547C17.8377 10.3732 17.8834 10.2626 17.8834 10.1474C17.8834 10.0321 17.8377 9.92154 17.7562 9.84L13.6058 5.68928C13.5242 5.60784 13.4136 5.56215 13.2983 5.56224Z" fill="#202020"/>
<path d="M13.5085 16.2474C13.4245 16.2475 13.3412 16.231 13.2636 16.1988C13.1859 16.1666 13.1154 16.1194 13.0561 16.0599L7.38567 10.3895C7.32625 10.3301 7.27912 10.2595 7.24697 10.1818C7.21482 10.1042 7.19828 10.0209 7.19829 9.9369C7.19831 9.85285 7.21488 9.76963 7.24705 9.69199C7.27923 9.61434 7.32639 9.54379 7.38583 9.48437C7.44527 9.42495 7.51583 9.37782 7.59349 9.34567C7.67114 9.31352 7.75437 9.29698 7.83842 9.297C7.92247 9.29701 8.00569 9.31358 8.08334 9.34576C8.16098 9.37794 8.23153 9.42509 8.29095 9.48453L13.9613 15.1549C14.0508 15.2445 14.1118 15.3585 14.1365 15.4827C14.1611 15.6068 14.1484 15.7355 14.1 15.8525C14.0515 15.9694 13.9694 16.0693 13.8642 16.1396C13.7589 16.2099 13.6351 16.2474 13.5085 16.2474ZM18.1997 17.7239C18.1157 17.724 18.0324 17.7075 17.9547 17.6752C17.8771 17.643 17.8066 17.5957 17.7473 17.5361L14.6634 14.4525C14.5434 14.3325 14.4759 14.1697 14.4759 14C14.4759 13.8303 14.5433 13.6675 14.6633 13.5474C14.7833 13.4274 14.9461 13.3599 15.1158 13.3599C15.2855 13.3598 15.4483 13.4272 15.5684 13.5473L18.6522 16.6311C18.7417 16.7206 18.8026 16.8346 18.8273 16.9588C18.852 17.0829 18.8393 17.2115 18.7909 17.3285C18.7425 17.4454 18.6605 17.5453 18.5552 17.6157C18.45 17.686 18.3263 17.7235 18.1997 17.7236V17.7239ZM11.4849 19.7178H5.47655C5.30681 19.7178 5.14402 19.6504 5.024 19.5304C4.90398 19.4103 4.83655 19.2476 4.83655 19.0778C4.83655 18.9081 4.90398 18.7453 5.024 18.6253C5.14402 18.5052 5.30681 18.4378 5.47655 18.4378H11.4849C11.6546 18.4378 11.8174 18.5052 11.9374 18.6253C12.0574 18.7453 12.1249 18.9081 12.1249 19.0778C12.1249 19.2476 12.0574 19.4103 11.9374 19.5304C11.8174 19.6504 11.6546 19.7178 11.4849 19.7178Z" fill="#202020"/>
</svg>
