<svg width="24" height="24" viewBox="0 0 24 24" fill="none" xmlns="http://www.w3.org/2000/svg">
<path d="M11.4693 17.8416C11.244 17.8422 11.0209 17.7982 10.8128 17.712C10.6046 17.6258 10.4157 17.4992 10.2568 17.3395L6.1064 13.1888C5.94712 13.0296 5.82078 12.8406 5.73458 12.6326C5.64837 12.4246 5.604 12.2016 5.604 11.9765C5.604 11.7513 5.64837 11.5283 5.73458 11.3203C5.82078 11.1123 5.94712 10.9233 6.1064 10.7642L12.0859 4.78432C12.4078 4.46326 12.8438 4.28296 13.2984 4.28296C13.753 4.28296 14.189 4.46326 14.5109 4.78432L18.6616 8.93504C18.9826 9.25683 19.1629 9.69281 19.1629 10.1474C19.1629 10.6019 18.9826 11.0379 18.6616 11.3597L12.6818 17.3395C12.5229 17.4992 12.3339 17.6258 12.1258 17.712C11.9177 17.7982 11.6945 17.8422 11.4693 17.8416ZM13.2984 5.56224C13.2413 5.56231 13.1848 5.57365 13.132 5.59562C13.0793 5.61758 13.0315 5.64974 12.9912 5.69024L7.01136 11.6691C6.97098 11.7095 6.93895 11.7574 6.9171 11.8101C6.89524 11.8629 6.884 11.9194 6.884 11.9765C6.884 12.0336 6.89524 12.0901 6.9171 12.1428C6.93895 12.1956 6.97098 12.2435 7.01136 12.2838L11.1621 16.4346C11.2437 16.5159 11.3542 16.5617 11.4694 16.5617C11.5847 16.5617 11.6952 16.5159 11.7768 16.4346L17.7563 10.4547C17.8378 10.3732 17.8835 10.2626 17.8835 10.1474C17.8835 10.0321 17.8378 9.92154 17.7563 9.84L13.6059 5.68928C13.5243 5.60784 13.4137 5.56215 13.2984 5.56224Z" fill="#202020"/>
<path d="M13.5087 16.2474C13.4246 16.2475 13.3414 16.231 13.2637 16.1988C13.1861 16.1666 13.1155 16.1194 13.0562 16.0599L7.38579 10.3895C7.32637 10.3301 7.27924 10.2595 7.24709 10.1818C7.21494 10.1042 7.1984 10.0209 7.19841 9.9369C7.19843 9.85285 7.215 9.76963 7.24718 9.69199C7.27935 9.61434 7.32651 9.54379 7.38595 9.48437C7.44539 9.42495 7.51595 9.37782 7.59361 9.34567C7.67127 9.31352 7.75449 9.29698 7.83854 9.297C7.92259 9.29701 8.00581 9.31358 8.08346 9.34576C8.1611 9.37794 8.23165 9.42509 8.29107 9.48453L13.9615 15.1549C14.051 15.2445 14.1119 15.3585 14.1366 15.4827C14.1613 15.6068 14.1486 15.7355 14.1001 15.8525C14.0516 15.9694 13.9696 16.0693 13.8643 16.1396C13.759 16.2099 13.6353 16.2475 13.5087 16.2474ZM18.1999 17.7239C18.1158 17.724 18.0325 17.7075 17.9548 17.6752C17.8772 17.643 17.8067 17.5957 17.7474 17.5361L14.6636 14.4525C14.5435 14.3325 14.476 14.1698 14.476 14C14.476 13.8303 14.5434 13.6675 14.6634 13.5474C14.7834 13.4274 14.9462 13.3599 15.1159 13.3599C15.2857 13.3598 15.4485 13.4272 15.5685 13.5473L18.6523 16.6311C18.7418 16.7206 18.8028 16.8346 18.8274 16.9588C18.8521 17.0829 18.8395 17.2115 18.791 17.3285C18.7426 17.4454 18.6606 17.5453 18.5554 17.6157C18.4501 17.686 18.3264 17.7235 18.1999 17.7236V17.7239ZM11.485 19.7178H5.47667C5.30693 19.7178 5.14414 19.6504 5.02412 19.5304C4.9041 19.4103 4.83667 19.2476 4.83667 19.0778C4.83667 18.9081 4.9041 18.7453 5.02412 18.6253C5.14414 18.5052 5.30693 18.4378 5.47667 18.4378H11.485C11.6547 18.4378 11.8175 18.5052 11.9375 18.6253C12.0576 18.7453 12.125 18.9081 12.125 19.0778C12.125 19.2476 12.0576 19.4103 11.9375 19.5304C11.8175 19.6504 11.6547 19.7178 11.485 19.7178Z" fill="#202020"/>
</svg>
