<svg width="24" height="24" viewBox="0 0 24 24" fill="none" xmlns="http://www.w3.org/2000/svg">
<path d="M9.64395 20.4557H5.45835C4.95093 20.4551 4.46446 20.2533 4.10566 19.8945C3.74686 19.5357 3.54503 19.0492 3.54443 18.5418V5.45828C3.54503 4.95089 3.74687 4.46445 4.10568 4.1057C4.46449 3.74695 4.95096 3.54519 5.45835 3.54468H9.64395C10.1513 3.54519 10.6378 3.74695 10.9966 4.1057C11.3554 4.46445 11.5573 4.95089 11.5579 5.45828V18.5418C11.5573 19.0492 11.3554 19.5357 10.9966 19.8945C10.6378 20.2533 10.1514 20.4551 9.64395 20.4557ZM5.45835 4.82468C5.29033 4.82485 5.12924 4.89165 5.0104 5.01042C4.89157 5.1292 4.82469 5.29026 4.82443 5.45828V18.5418C4.82469 18.7098 4.89156 18.8709 5.01038 18.9898C5.12921 19.1086 5.29031 19.1755 5.45835 19.1757H9.64395C9.812 19.1755 9.97309 19.1086 10.0919 18.9898C10.2107 18.8709 10.2776 18.7098 10.2779 18.5418V5.45828C10.2776 5.29026 10.2107 5.1292 10.0919 5.01042C9.97306 4.89165 9.81197 4.82485 9.64395 4.82468H5.45835ZM18.5563 13.7648H14.3793C13.8758 13.7642 13.393 13.5638 13.037 13.2077C12.681 12.8516 12.4807 12.3689 12.4801 11.8653V5.44388C12.4807 4.94036 12.681 4.45764 13.037 4.1016C13.3931 3.74555 13.8758 3.54527 14.3793 3.54468H18.5563C19.0598 3.54519 19.5427 3.74543 19.8988 4.10148C20.2549 4.45753 20.4552 4.94031 20.4558 5.44388V11.8653C20.4552 12.3689 20.2549 12.8517 19.8988 13.2078C19.5427 13.5639 19.0599 13.7642 18.5563 13.7648ZM14.3793 4.82468C14.2151 4.82485 14.0577 4.89014 13.9417 5.00622C13.8256 5.12231 13.7603 5.27971 13.7601 5.44388V11.8653C13.7602 12.0295 13.8255 12.187 13.9415 12.3032C14.0576 12.4193 14.2151 12.4847 14.3793 12.4848H18.5563C18.7205 12.4847 18.878 12.4193 18.9942 12.3032C19.1103 12.1871 19.1756 12.0296 19.1758 11.8653V5.44388C19.1755 5.27968 19.1102 5.12228 18.994 5.0062C18.8779 4.89013 18.7205 4.82485 18.5563 4.82468H14.3793Z" fill="#202020"/>
</svg>
