<svg width="24" height="24" viewBox="0 0 24 24" fill="none" xmlns="http://www.w3.org/2000/svg">
<path d="M16.4131 14.3958H7.5869C7.41716 14.3958 7.25437 14.3284 7.13435 14.2084C7.01433 14.0883 6.9469 13.9255 6.9469 13.7558C6.9469 13.5861 7.01433 13.4233 7.13435 13.3033C7.25437 13.1832 7.41716 13.1158 7.5869 13.1158H16.4131C16.5829 13.1158 16.7457 13.1832 16.8657 13.3033C16.9857 13.4233 17.0531 13.5861 17.0531 13.7558C17.0531 13.9255 16.9857 14.0883 16.8657 14.2084C16.7457 14.3284 16.5829 14.3958 16.4131 14.3958ZM16.4131 11.3011H13.6723C13.5026 11.3011 13.3398 11.2337 13.2198 11.1136C13.0998 10.9936 13.0323 10.8308 13.0323 10.6611C13.0323 10.4913 13.0998 10.3286 13.2198 10.2085C13.3398 10.0885 13.5026 10.0211 13.6723 10.0211H16.4131C16.5829 10.0211 16.7457 10.0885 16.8657 10.2085C16.9857 10.3286 17.0531 10.4913 17.0531 10.6611C17.0531 10.8308 16.9857 10.9936 16.8657 11.1136C16.7457 11.2337 16.5829 11.3011 16.4131 11.3011ZM11.4099 11.3011H10.6061C10.4364 11.3011 10.2736 11.2337 10.1536 11.1136C10.0335 10.9936 9.9661 10.8308 9.9661 10.6611C9.9661 10.4913 10.0335 10.3286 10.1536 10.2085C10.2736 10.0885 10.4364 10.0211 10.6061 10.0211H11.4099C11.5797 10.0211 11.7425 10.0885 11.8625 10.2085C11.9825 10.3286 12.0499 10.4913 12.0499 10.6611C12.0499 10.8308 11.9825 10.9936 11.8625 11.1136C11.7425 11.2337 11.5797 11.3011 11.4099 11.3011ZM8.4621 11.3011H7.5869C7.41716 11.3011 7.25437 11.2337 7.13435 11.1136C7.01433 10.9936 6.9469 10.8308 6.9469 10.6611C6.9469 10.4913 7.01433 10.3286 7.13435 10.2085C7.25437 10.0885 7.41716 10.0211 7.5869 10.0211H8.4621C8.63184 10.0211 8.79462 10.0885 8.91465 10.2085C9.03467 10.3286 9.1021 10.4913 9.1021 10.6611C9.1021 10.8308 9.03467 10.9936 8.91465 11.1136C8.79462 11.2337 8.63184 11.3011 8.4621 11.3011Z" fill="#202020"/>
<path d="M17.3191 18.9261H6.68104C5.84966 18.925 5.05265 18.5942 4.46477 18.0064C3.8769 17.4185 3.54614 16.6215 3.54504 15.7901V8.21025C3.54614 7.37887 3.8769 6.58185 4.46477 5.99398C5.05265 5.4061 5.84966 5.07535 6.68104 5.07425H17.3191C18.1505 5.07535 18.9475 5.4061 19.5354 5.99398C20.1233 6.58185 20.454 7.37887 20.4551 8.21025V15.7898C20.4541 16.6212 20.1234 17.4183 19.5355 18.0062C18.9476 18.5942 18.1506 18.925 17.3191 18.9261ZM6.68104 6.35393C6.18901 6.35461 5.71732 6.55037 5.3694 6.89829C5.02148 7.24621 4.82572 7.7179 4.82504 8.20993V15.7898C4.82572 16.2818 5.02148 16.7535 5.3694 17.1014C5.71732 17.4493 6.18901 17.6451 6.68104 17.6458H17.3191C17.8112 17.6451 18.2828 17.4493 18.6308 17.1014C18.9787 16.7535 19.1744 16.2818 19.1751 15.7898V8.21025C19.1744 7.71822 18.9787 7.24653 18.6308 6.89861C18.2828 6.55069 17.8112 6.35493 17.3191 6.35425L6.68104 6.35393Z" fill="#202020"/>
</svg>
