<svg width="24" height="24" viewBox="0 0 24 24" fill="none" xmlns="http://www.w3.org/2000/svg">
<path d="M16.4131 20.207H7.5869C7.41716 20.207 7.25437 20.1396 7.13435 20.0196C7.01433 19.8996 6.9469 19.7368 6.9469 19.567C6.9469 19.3973 7.01433 19.2345 7.13435 19.1145C7.25437 18.9945 7.41716 18.927 7.5869 18.927H16.4131C16.5829 18.927 16.7457 18.9945 16.8657 19.1145C16.9857 19.2345 17.0531 19.3973 17.0531 19.567C17.0531 19.7368 16.9857 19.8996 16.8657 20.0196C16.7457 20.1396 16.5829 20.207 16.4131 20.207ZM16.4131 13.3312H7.5869C7.41716 13.3312 7.25437 13.2638 7.13435 13.1437C7.01433 13.0237 6.9469 12.8609 6.9469 12.6912C6.9469 12.5214 7.01433 12.3587 7.13435 12.2386C7.25437 12.1186 7.41716 12.0512 7.5869 12.0512H16.4131C16.5829 12.0512 16.7457 12.1186 16.8657 12.2386C16.9857 12.3587 17.0531 12.5214 17.0531 12.6912C17.0531 12.8609 16.9857 13.0237 16.8657 13.1437C16.7457 13.2638 16.5829 13.3312 16.4131 13.3312ZM16.4131 10.2368H13.6723C13.5026 10.2368 13.3398 10.1694 13.2198 10.0493C13.0998 9.92931 13.0323 9.76653 13.0323 9.59679C13.0323 9.42705 13.0998 9.26426 13.2198 9.14424C13.3398 9.02422 13.5026 8.95679 13.6723 8.95679H16.4131C16.5829 8.95679 16.7457 9.02422 16.8657 9.14424C16.9857 9.26426 17.0531 9.42705 17.0531 9.59679C17.0531 9.76653 16.9857 9.92931 16.8657 10.0493C16.7457 10.1694 16.5829 10.2368 16.4131 10.2368ZM11.4099 10.2368H10.6061C10.4364 10.2368 10.2736 10.1694 10.1536 10.0493C10.0335 9.92931 9.9661 9.76653 9.9661 9.59679C9.9661 9.42705 10.0335 9.26426 10.1536 9.14424C10.2736 9.02422 10.4364 8.95679 10.6061 8.95679H11.4099C11.5797 8.95679 11.7425 9.02422 11.8625 9.14424C11.9825 9.26426 12.0499 9.42705 12.0499 9.59679C12.0499 9.76653 11.9825 9.92931 11.8625 10.0493C11.7425 10.1694 11.5797 10.2368 11.4099 10.2368ZM8.4621 10.2368H7.5869C7.41716 10.2368 7.25437 10.1694 7.13435 10.0493C7.01433 9.92931 6.9469 9.76653 6.9469 9.59679C6.9469 9.42705 7.01433 9.26426 7.13435 9.14424C7.25437 9.02422 7.41716 8.95679 7.5869 8.95679H8.4621C8.63184 8.95679 8.79462 9.02422 8.91465 9.14424C9.03467 9.26426 9.1021 9.42705 9.1021 9.59679C9.1021 9.76653 9.03467 9.92931 8.91465 10.0493C8.79462 10.1694 8.63184 10.2368 8.4621 10.2368Z" fill="#202020"/>
<path d="M17.319 17.8617H6.68092C5.84954 17.8606 5.05253 17.5299 4.46465 16.942C3.87678 16.3541 3.54602 15.5571 3.54492 14.7257V7.14589C3.54602 6.31451 3.87678 5.51749 4.46465 4.92962C5.05253 4.34174 5.84954 4.01099 6.68092 4.00989H17.319C18.1504 4.01099 18.9474 4.34174 19.5353 4.92962C20.1232 5.51749 20.4539 6.31451 20.455 7.14589V14.7254C20.454 15.5568 20.1233 16.3539 19.5354 16.9419C18.9475 17.5298 18.1504 17.8606 17.319 17.8617ZM6.68092 5.28925C6.18891 5.29001 5.71728 5.4858 5.36937 5.8337C5.02147 6.1816 4.82568 6.65324 4.82492 7.14525V14.7254C4.82568 15.2174 5.02147 15.6891 5.36937 16.037C5.71728 16.3849 6.18891 16.5806 6.68092 16.5814H17.319C17.811 16.5806 18.2827 16.3849 18.6306 16.037C18.9785 15.6891 19.1742 15.2174 19.175 14.7254V7.14589C19.1742 6.65388 18.9785 6.18224 18.6306 5.83434C18.2827 5.48644 17.811 5.29065 17.319 5.28989L6.68092 5.28925Z" fill="#202020"/>
</svg>
