<svg width="24" height="24" viewBox="0 0 24 24" fill="none" xmlns="http://www.w3.org/2000/svg">
<path d="M16.6371 13.9229H7.27682C6.98169 13.9243 6.69014 13.8583 6.4244 13.7299C6.15865 13.6015 5.92573 13.4142 5.74338 13.1821C5.23554 12.552 5.05666 11.6035 5.26338 10.6448L6.33602 5.71906C6.5789 4.59906 7.57154 3.75586 8.64482 3.75586H15.2704C16.3437 3.75586 17.3363 4.5997 17.5795 5.71906L18.6493 10.6448C18.8576 11.6048 18.6787 12.552 18.1693 13.1821C17.9871 13.414 17.7544 13.6012 17.4889 13.7296C17.2233 13.858 16.9321 13.9241 16.6371 13.9229ZM8.64354 5.03586C8.18242 5.03586 7.69794 5.47298 7.5853 5.99074L6.51554 10.9165C6.39074 11.4925 6.4765 12.0522 6.73954 12.3789C6.8829 12.5565 7.05954 12.6429 7.2765 12.6429H16.6371C16.8554 12.6429 17.0307 12.5565 17.1741 12.3789C17.4375 12.0522 17.5235 11.4919 17.3981 10.9165L16.3287 5.99074C16.2163 5.47298 15.7315 5.03586 15.2704 5.03586H8.64354Z" fill="#202020"/>
<path d="M11.9571 21.1171C11.7874 21.1171 11.6246 21.0497 11.5046 20.9297C11.3846 20.8096 11.3171 20.6469 11.3171 20.4771V13.2829C11.3171 13.1131 11.3846 12.9504 11.5046 12.8303C11.6246 12.7103 11.7874 12.6429 11.9571 12.6429C12.1269 12.6429 12.2897 12.7103 12.4097 12.8303C12.5297 12.9504 12.5971 13.1131 12.5971 13.2829V20.4771C12.5971 20.6469 12.5297 20.8096 12.4097 20.9297C12.2897 21.0497 12.1269 21.1171 11.9571 21.1171Z" fill="#202020"/>
<path d="M14.4192 21.1171H9.49504C9.3253 21.1171 9.16252 21.0497 9.04249 20.9296C8.92247 20.8096 8.85504 20.6468 8.85504 20.4771C8.85504 20.3074 8.92247 20.1446 9.04249 20.0246C9.16252 19.9045 9.3253 19.8371 9.49504 19.8371H14.4192C14.5889 19.8371 14.7517 19.9045 14.8717 20.0246C14.9918 20.1446 15.0592 20.3074 15.0592 20.4771C15.0592 20.6468 14.9918 20.8096 14.8717 20.9296C14.7517 21.0497 14.5889 21.1171 14.4192 21.1171Z" fill="#202020"/>
</svg>
