<svg width="24" height="24" viewBox="0 0 24 24" fill="none" xmlns="http://www.w3.org/2000/svg">
<path d="M14.5668 19.3987H9.43334C9.34897 19.3987 9.26544 19.3821 9.18754 19.3497C9.10964 19.3173 9.03891 19.2698 8.97943 19.2099C8.91995 19.1501 8.87289 19.0791 8.84095 19.001C8.80902 18.9229 8.79284 18.8393 8.79334 18.7549L8.8119 15.6067C7.86068 15.0504 7.07175 14.2546 6.52363 13.2986C5.97552 12.3426 5.68733 11.2598 5.68774 10.1578C5.68774 6.67714 8.51942 3.84546 12.0001 3.84546C15.4807 3.84546 18.3124 6.67714 18.3124 10.1578C18.3128 11.2598 18.0246 12.3426 17.4765 13.2986C16.9284 14.2546 16.1394 15.0504 15.1882 15.6067L15.2068 18.7549C15.2073 18.8393 15.1911 18.9229 15.1592 19.001C15.1272 19.0791 15.0802 19.1501 15.0207 19.2099C14.9612 19.2698 14.8905 19.3173 14.8126 19.3497C14.7347 19.3821 14.6512 19.3987 14.5668 19.3987ZM10.0772 18.1187H13.9229L13.906 15.232C13.9052 15.1127 13.9377 14.9956 13.9999 14.8938C14.0621 14.7921 14.1515 14.7097 14.258 14.656C15.0936 14.2391 15.7961 13.597 16.2863 12.8022C16.7764 12.0073 17.0348 11.0913 17.0321 10.1575C17.0321 7.38274 14.7748 5.12514 11.9997 5.12514C9.2247 5.12514 6.96774 7.38306 6.96774 10.1578C6.96512 11.0916 7.22345 12.0075 7.71361 12.8023C8.20376 13.5971 8.90625 14.2392 9.74182 14.656C9.84834 14.7097 9.93774 14.7921 9.99994 14.8938C10.0621 14.9956 10.0947 15.1127 10.0938 15.232L10.0772 18.1187ZM14.7665 21.2691H8.98566C8.81593 21.2691 8.65314 21.2017 8.53312 21.0817C8.41309 20.9617 8.34566 20.7989 8.34566 20.6291C8.34566 20.4594 8.41309 20.2966 8.53312 20.1766C8.65314 20.0566 8.81593 19.9891 8.98566 19.9891H14.7665C14.9362 19.9891 15.099 20.0566 15.219 20.1766C15.339 20.2966 15.4065 20.4594 15.4065 20.6291C15.4065 20.7989 15.339 20.9617 15.219 21.0817C15.099 21.2017 14.9362 21.2691 14.7665 21.2691Z" fill="#202020"/>
<path d="M11.8032 13.155C11.6974 13.1549 11.5934 13.1287 11.5003 13.0786C11.4072 13.0285 11.3279 12.9561 11.2697 12.8678C11.2114 12.7796 11.1758 12.6784 11.1662 12.5731C11.1567 12.4678 11.1733 12.3617 11.2147 12.2645L11.7392 11.0318H10.9001C10.7924 11.0319 10.6864 11.0047 10.5919 10.9529C10.4974 10.901 10.4176 10.8262 10.3597 10.7353C10.3019 10.6444 10.268 10.5403 10.2611 10.4328C10.2542 10.3252 10.2746 10.2177 10.3203 10.1201L11.4208 7.77101C11.4565 7.69491 11.5069 7.62658 11.569 7.56994C11.6311 7.5133 11.7038 7.46945 11.7828 7.44089C11.8619 7.41234 11.9458 7.39964 12.0298 7.40351C12.1138 7.40739 12.1962 7.42777 12.2723 7.46349C12.3484 7.49921 12.4167 7.54957 12.4734 7.61169C12.53 7.67382 12.5739 7.74649 12.6024 7.82556C12.631 7.90463 12.6437 7.98855 12.6398 8.07253C12.6359 8.15651 12.6155 8.23891 12.5798 8.31501L11.9078 9.75277H12.7078C12.8136 9.75279 12.9177 9.77901 13.0108 9.8291C13.104 9.87919 13.1832 9.95158 13.2416 10.0398C13.2999 10.128 13.3354 10.2293 13.3451 10.3346C13.3547 10.44 13.338 10.546 13.2966 10.6433L12.3933 12.7665C12.3439 12.8821 12.2616 12.9805 12.1567 13.0496C12.0517 13.1186 11.9288 13.1553 11.8032 13.155Z" fill="#202020"/>
</svg>
