<svg width="24" height="24" viewBox="0 0 24 24" fill="none" xmlns="http://www.w3.org/2000/svg">
<path d="M19.6102 18.1395H4.38976C4.22002 18.1395 4.05723 18.0721 3.93721 17.9521C3.81718 17.8321 3.74976 17.6693 3.74976 17.4995V14.1008C3.74976 11.9127 4.61897 9.81424 6.16619 8.26702C7.71341 6.7198 9.8119 5.85059 12 5.85059C14.1881 5.85059 16.2866 6.7198 17.8338 8.26702C19.381 9.81424 20.2502 11.9127 20.2502 14.1008V17.4995C20.2502 17.6693 20.1828 17.8321 20.0628 17.9521C19.9428 18.0721 19.78 18.1395 19.6102 18.1395ZM5.02976 16.8595H18.9702V14.1008C18.9702 10.2576 15.8435 7.13059 12 7.13059C8.15648 7.13059 5.02976 10.2576 5.02976 14.1008V16.8595Z" fill="#202020"/>
<path d="M11.728 20.4726C10.8886 20.4724 10.0701 20.2108 9.38614 19.7243C8.70216 19.2377 8.1866 18.5503 7.91104 17.7574C7.88098 17.6775 7.86724 17.5923 7.87062 17.5069C7.874 17.4215 7.89444 17.3377 7.93073 17.2604C7.96703 17.183 8.01844 17.1137 8.08193 17.0566C8.14543 16.9994 8.21973 16.9556 8.30045 16.9276C8.38117 16.8996 8.46667 16.888 8.55192 16.8936C8.63717 16.8992 8.72044 16.9218 8.79683 16.9601C8.87321 16.9983 8.94115 17.0515 8.99666 17.1165C9.05216 17.1814 9.0941 17.2568 9.12 17.3382C9.30807 17.8792 9.65976 18.3483 10.1263 18.6806C10.5929 19.0128 11.1512 19.1916 11.724 19.1924C12.2968 19.1931 12.8556 19.0157 13.323 18.6847C13.7904 18.3537 14.1433 17.8855 14.3328 17.3449C14.3605 17.2656 14.4036 17.1925 14.4596 17.1298C14.5156 17.0671 14.5834 17.0161 14.6591 16.9796C14.7348 16.9431 14.817 16.9219 14.9009 16.9171C14.9848 16.9124 15.0688 16.9242 15.1482 16.952C15.2275 16.9797 15.3006 17.0228 15.3633 17.0788C15.426 17.1348 15.477 17.2026 15.5135 17.2783C15.55 17.354 15.5712 17.4362 15.576 17.5201C15.5807 17.604 15.5689 17.688 15.5411 17.7673C15.264 18.5577 14.7483 19.2424 14.0652 19.727C13.3822 20.2116 12.5655 20.4721 11.728 20.4726ZM12 7.13054C11.8303 7.13054 11.6675 7.06312 11.5474 6.94309C11.4274 6.82307 11.36 6.66028 11.36 6.49054V4.16734C11.36 3.9976 11.4274 3.83482 11.5474 3.7148C11.6675 3.59477 11.8303 3.52734 12 3.52734C12.1697 3.52734 12.3325 3.59477 12.4525 3.7148C12.5726 3.83482 12.64 3.9976 12.64 4.16734V6.49054C12.64 6.66028 12.5726 6.82307 12.4525 6.94309C12.3325 7.06312 12.1697 7.13054 12 7.13054Z" fill="#202020"/>
</svg>
