<svg width="24" height="24" viewBox="0 0 24 24" fill="none" xmlns="http://www.w3.org/2000/svg">
<g clip-path="url(#clip0_3_236)">
<path d="M16.5 18.375C16.0858 18.375 15.75 18.7108 15.75 19.125C15.75 19.5392 16.0858 19.875 16.5 19.875H18C18.4142 19.875 18.75 19.5392 18.75 19.125C18.75 18.7108 18.4142 18.375 18 18.375H16.5ZM5.25 19.125C5.25 18.7108 5.58578 18.375 6 18.375H6.375C6.78922 18.375 7.125 18.7108 7.125 19.125C7.125 19.5392 6.78922 19.875 6.375 19.875H6C5.58578 19.875 5.25 19.5392 5.25 19.125ZM8.625 18.375C8.21077 18.375 7.875 18.7108 7.875 19.125C7.875 19.5392 8.21077 19.875 8.625 19.875H9C9.41423 19.875 9.75 19.5392 9.75 19.125C9.75 18.7108 9.41423 18.375 9 18.375H8.625ZM16.5 13.125C16.5 13.5392 16.1642 13.875 15.75 13.875C15.3358 13.875 15 13.5392 15 13.125V10.0588C15 8.81621 13.9926 7.80885 12.75 7.80885L11.069 7.80889V9.00007C11.069 9.2991 10.8913 9.56951 10.617 9.68835C10.3426 9.80715 10.0239 9.75161 9.8058 9.54705L7.73681 7.60586C7.59131 7.46933 7.50619 7.28044 7.50034 7.08098C7.49445 6.88155 7.56829 6.68797 7.70554 6.54311L9.77449 4.35919C9.98565 4.13629 10.3114 4.06462 10.5966 4.17829C10.8818 4.29195 11.069 4.56795 11.069 4.875V6.30889L12.75 6.30885C14.8211 6.30885 16.5 7.98776 16.5 10.0588V13.125Z" fill="#202020"/>
<path fill-rule="evenodd" clip-rule="evenodd" d="M6.75 23.25C3.43629 23.25 0.75 20.5637 0.75 17.25V6.75C0.75 3.43629 3.43629 0.75 6.75 0.75H17.25C20.5637 0.75 23.25 3.43629 23.25 6.75V17.25C23.25 20.5637 20.5637 23.25 17.25 23.25H6.75ZM2.25 17.25V16.875H21.75V17.25C21.75 19.7353 19.7353 21.75 17.25 21.75H6.75C4.26472 21.75 2.25 19.7353 2.25 17.25ZM2.25 15.375H21.75V6.75C21.75 4.26472 19.7353 2.25 17.25 2.25H6.75C4.26472 2.25 2.25 4.26472 2.25 6.75V15.375Z" fill="#202020"/>
</g>
<defs>
<clipPath id="clip0_3_236">
<rect width="24" height="24" fill="white"/>
</clipPath>
</defs>
</svg>
