<svg width="24" height="24" viewBox="0 0 24 24" fill="none" xmlns="http://www.w3.org/2000/svg">
<path d="M11.7276 20.2504C9.75287 20.2506 7.84352 19.5426 6.34627 18.255C4.84901 16.9675 3.86313 15.1857 3.56762 13.2331C3.55516 13.15 3.55919 13.0653 3.57949 12.9837C3.59979 12.9021 3.63595 12.8254 3.68592 12.7578C3.73588 12.6902 3.79867 12.6331 3.8707 12.5898C3.94272 12.5465 4.02258 12.5178 4.1057 12.5053C4.18882 12.4928 4.27358 12.4969 4.35514 12.5172C4.43671 12.5375 4.51347 12.5736 4.58106 12.6236C4.64864 12.6736 4.70573 12.7364 4.74905 12.8084C4.79237 12.8804 4.82108 12.9603 4.83354 13.0434C5.3401 16.4223 8.30362 18.9704 11.7263 18.9704C15.1561 18.9704 18.1203 16.4162 18.6236 13.0322C18.636 12.949 18.6645 12.8691 18.7078 12.797C18.751 12.7249 18.808 12.6621 18.8755 12.612C18.943 12.5619 19.0197 12.5257 19.1012 12.5052C19.1828 12.4848 19.2675 12.4806 19.3507 12.493C19.4338 12.5053 19.5137 12.5339 19.5858 12.5771C19.6579 12.6203 19.7208 12.6773 19.7708 12.7448C19.8209 12.8123 19.8572 12.8891 19.8776 12.9706C19.898 13.0521 19.9022 13.1369 19.8899 13.22C19.5973 15.175 18.6126 16.9599 17.1151 18.2502C15.6175 19.5404 13.7066 20.2502 11.7299 20.2504H11.7276ZM19.3039 11.9231C19.1446 11.9229 18.9911 11.8633 18.8734 11.7559C18.7557 11.6486 18.6823 11.5012 18.6675 11.3426C18.3311 7.74418 15.3475 5.02994 11.7276 5.02994C8.12666 5.02994 5.14458 7.72818 4.7913 11.3064C4.77182 11.473 4.68771 11.6253 4.55706 11.7306C4.42641 11.8358 4.25967 11.8855 4.09274 11.869C3.9258 11.8525 3.77201 11.7712 3.66446 11.6424C3.55691 11.5137 3.50421 11.3479 3.5177 11.1807C3.72171 9.14103 4.67764 7.25036 6.19929 5.87693C7.72094 4.5035 9.69935 3.74565 11.7492 3.751C13.799 3.75636 15.7734 4.52452 17.2878 5.90588C18.8023 7.28724 19.7483 9.18287 19.9417 11.2235C19.9575 11.3925 19.9055 11.5608 19.7971 11.6915C19.6888 11.8221 19.5331 11.9044 19.3641 11.9202C19.3439 11.9221 19.3238 11.9231 19.3039 11.9231Z" fill="#202020"/>
<path d="M11.7283 14.0299C11.3268 14.0299 10.9343 13.9108 10.6005 13.6878C10.2666 13.4647 10.0064 13.1476 9.85277 12.7767C9.69912 12.4057 9.65892 11.9976 9.73725 11.6038C9.81558 11.21 10.0089 10.8482 10.2928 10.5643C10.5768 10.2804 10.9385 10.0871 11.3323 10.0087C11.7261 9.9304 12.1343 9.97061 12.5052 10.1243C12.8761 10.2779 13.1932 10.5381 13.4163 10.872C13.6393 11.2058 13.7584 11.5983 13.7584 11.9998C13.7578 12.538 13.5437 13.054 13.1632 13.4346C12.7826 13.8152 12.2666 14.0293 11.7283 14.0299ZM11.7283 11.2497C11.58 11.2497 11.435 11.2937 11.3116 11.3761C11.1883 11.4586 11.0921 11.5757 11.0353 11.7128C10.9786 11.8498 10.9637 12.0006 10.9927 12.1461C11.0216 12.2916 11.093 12.4253 11.1979 12.5302C11.3028 12.6351 11.4365 12.7065 11.582 12.7355C11.7275 12.7644 11.8783 12.7496 12.0154 12.6928C12.1524 12.636 12.2696 12.5399 12.352 12.4165C12.4344 12.2932 12.4784 12.1482 12.4784 11.9998C12.4781 11.801 12.399 11.6103 12.2584 11.4697C12.1178 11.3291 11.9272 11.25 11.7283 11.2497Z" fill="#202020"/>
</svg>
