<svg width="24" height="24" viewBox="0 0 24 24" fill="none" xmlns="http://www.w3.org/2000/svg">
<path d="M11.7281 20.2503C9.75336 20.2505 7.84401 19.5425 6.34676 18.2549C4.8495 16.9673 3.86361 15.1855 3.56811 13.233C3.55565 13.1499 3.55968 13.0651 3.57998 12.9836C3.60028 12.902 3.63644 12.8252 3.68641 12.7577C3.73637 12.6901 3.79916 12.633 3.87119 12.5897C3.94321 12.5463 4.02306 12.5176 4.10619 12.5052C4.18931 12.4927 4.27407 12.4967 4.35563 12.517C4.43719 12.5373 4.51396 12.5735 4.58155 12.6235C4.64913 12.6734 4.70622 12.7362 4.74954 12.8083C4.79286 12.8803 4.82157 12.9601 4.83403 13.0433C5.34059 16.4221 8.30411 18.9703 11.7268 18.9703C15.1566 18.9703 18.1207 16.4161 18.6241 13.0321C18.6364 12.9489 18.665 12.869 18.7082 12.7969C18.7515 12.7248 18.8084 12.6619 18.876 12.6119C18.9435 12.5618 19.0202 12.5255 19.1017 12.5051C19.1832 12.4847 19.268 12.4805 19.3511 12.4929C19.4343 12.5052 19.5142 12.5338 19.5863 12.577C19.6584 12.6202 19.7213 12.6772 19.7713 12.7447C19.8214 12.8122 19.8577 12.8889 19.8781 12.9705C19.8985 13.052 19.9027 13.1368 19.8903 13.2199C19.5978 15.1748 18.6131 16.9598 17.1156 18.25C15.618 19.5403 13.7071 20.2501 11.7303 20.2503H11.7281ZM19.3044 11.9229C19.1451 11.9227 18.9916 11.8632 18.8739 11.7558C18.7562 11.6485 18.6828 11.5011 18.6679 11.3425C18.3316 7.74406 15.3479 5.02982 11.7281 5.02982C8.12715 5.02982 5.14507 7.72806 4.79179 11.3063C4.77231 11.4729 4.6882 11.6252 4.55755 11.7304C4.4269 11.8357 4.26016 11.8854 4.09322 11.8689C3.92629 11.8524 3.77249 11.771 3.66495 11.6423C3.5574 11.5136 3.5047 11.3477 3.51819 11.1805C3.7222 9.1409 4.67813 7.25024 6.19978 5.87681C7.72143 4.50338 9.69984 3.74553 11.7496 3.75088C13.7994 3.75623 15.7739 4.5244 17.2883 5.90576C18.8028 7.28711 19.7488 9.18274 19.9422 11.2234C19.9579 11.3924 19.9059 11.5607 19.7976 11.6913C19.6893 11.822 19.5336 11.9042 19.3646 11.9201C19.3444 11.922 19.3243 11.9229 19.3044 11.9229Z" fill="#202020"/>
<path d="M11.7281 14.0301C11.3266 14.0301 10.9341 13.9111 10.6002 13.688C10.2664 13.4649 10.0062 13.1479 9.85253 12.7769C9.69888 12.406 9.65868 11.9978 9.73701 11.604C9.81534 11.2102 10.0087 10.8485 10.2926 10.5646C10.5765 10.2807 10.9382 10.0873 11.332 10.009C11.7258 9.93065 12.134 9.97085 12.505 10.1245C12.8759 10.2782 13.193 10.5384 13.416 10.8722C13.6391 11.206 13.7582 11.5985 13.7582 12.0001C13.7576 12.5383 13.5435 13.0543 13.1629 13.4349C12.7823 13.8155 12.2663 14.0295 11.7281 14.0301ZM11.7281 11.25C11.5797 11.25 11.4347 11.294 11.3114 11.3764C11.188 11.4588 11.0919 11.5759 11.0351 11.713C10.9783 11.8501 10.9635 12.0009 10.9924 12.1464C11.0214 12.2919 11.0928 12.4255 11.1977 12.5304C11.3026 12.6353 11.4362 12.7068 11.5817 12.7357C11.7272 12.7647 11.8781 12.7498 12.0151 12.693C12.1522 12.6363 12.2693 12.5401 12.3517 12.4168C12.4342 12.2934 12.4782 12.1484 12.4782 12.0001C12.4779 11.8012 12.3988 11.6106 12.2582 11.4699C12.1176 11.3293 11.9269 11.2502 11.7281 11.25Z" fill="#202020"/>
</svg>
