<svg width="24" height="24" viewBox="0 0 24 24" fill="none" xmlns="http://www.w3.org/2000/svg">
<path d="M10.5951 14.8544H9.26967C8.91162 14.854 8.56835 14.7116 8.31514 14.4584C8.06193 14.2053 7.91945 13.862 7.91895 13.504V9.69952C7.91937 9.34142 8.06181 8.9981 8.31503 8.74489C8.56825 8.49167 8.91156 8.34922 9.26967 8.3488H10.5951C10.7648 8.3488 10.9276 8.41623 11.0477 8.53625C11.1677 8.65628 11.2351 8.81906 11.2351 8.9888V14.2144C11.2351 14.3841 11.1677 14.5469 11.0477 14.6669C10.9276 14.787 10.7648 14.8544 10.5951 14.8544ZM9.26967 9.6288C9.25093 9.62888 9.233 9.63636 9.21975 9.64961C9.20651 9.66285 9.19903 9.68079 9.19895 9.69952V13.504C9.19903 13.5227 9.20651 13.5407 9.21975 13.5539C9.233 13.5672 9.25093 13.5746 9.26967 13.5747H9.95511V9.6288H9.26967Z" fill="#202020"/>
<path d="M14.1029 14.8544H10.5951C10.4253 14.8544 10.2626 14.787 10.1425 14.6669C10.0225 14.5469 9.95508 14.3841 9.95508 14.2144V8.9888C9.95505 8.83039 10.0138 8.67761 10.1199 8.56L11.9759 6.50368C12.1586 6.29914 12.4141 6.17426 12.6877 6.15578C12.9613 6.1373 13.2313 6.22669 13.4399 6.4048C13.7165 6.6375 13.9228 6.94259 14.0359 7.28593C14.1489 7.62927 14.1641 7.99729 14.0799 8.3488H15.2223C15.4494 8.34885 15.674 8.39721 15.8811 8.49068C16.0881 8.58415 16.2729 8.72059 16.4232 8.89094C16.5735 9.0613 16.6858 9.26166 16.7527 9.47875C16.8197 9.69583 16.8397 9.92467 16.8114 10.1501L16.4847 12.7526C16.4111 13.3327 16.1287 13.866 15.6903 14.2529C15.2519 14.6397 14.6876 14.8536 14.1029 14.8544ZM11.2351 13.5744H14.1029C14.3759 13.574 14.6393 13.4742 14.844 13.2936C15.0487 13.113 15.1805 12.864 15.2149 12.5933L15.5413 9.99072C15.5473 9.94531 15.5435 9.89915 15.5301 9.85535C15.5168 9.81155 15.4941 9.77113 15.4638 9.73682C15.4335 9.70251 15.3961 9.67511 15.3543 9.65648C15.3125 9.63784 15.2671 9.6284 15.2213 9.6288H12.9919C12.8727 9.62877 12.7559 9.59546 12.6546 9.53263C12.5533 9.46979 12.4716 9.37993 12.4187 9.27315C12.3657 9.16638 12.3436 9.04694 12.3549 8.92829C12.3662 8.80964 12.4103 8.69649 12.4824 8.6016L12.7132 8.29792C12.7939 8.19204 12.8411 8.06444 12.8487 7.93152C12.8564 7.7986 12.8241 7.66643 12.756 7.552L11.2351 9.2352V13.5744Z" fill="#202020"/>
<path d="M11.8115 20.6822H11.7958C11.7095 20.68 11.6246 20.6604 11.5461 20.6247C11.4676 20.5889 11.3971 20.5376 11.3388 20.4739L9.08603 18.008H6.96795C5.07995 18.008 3.54395 16.6496 3.54395 14.9798V6.3456C3.54395 4.67616 5.07995 3.31776 6.96795 3.31776H17.0319C18.9199 3.31776 20.4559 4.67616 20.4559 6.3456V14.9798C20.4559 16.6496 18.9199 18.008 17.0319 18.008H14.7699L12.2623 20.4966C12.1424 20.6156 11.9804 20.6823 11.8115 20.6822ZM6.96795 4.59776C5.78587 4.59776 4.82395 5.38176 4.82395 6.3456V14.9798C4.82395 15.9437 5.78555 16.728 6.96795 16.728H9.36795C9.45682 16.728 9.54472 16.7466 9.62604 16.7824C9.70736 16.8183 9.78032 16.8707 9.84027 16.9363L11.8339 19.1181L14.055 16.9136C14.1749 16.7947 14.337 16.728 14.5059 16.728H17.0316C18.2137 16.728 19.1756 15.9437 19.1756 14.9798V6.3456C19.1756 5.38176 18.2156 4.59776 17.0316 4.59776H6.96795Z" fill="#202020"/>
</svg>
