<svg width="24" height="24" viewBox="0 0 24 24" fill="none" xmlns="http://www.w3.org/2000/svg">
<path d="M7.82589 19.904H6.50653C6.14919 19.9036 5.80661 19.7614 5.55393 19.5088C5.30125 19.2561 5.15911 18.9135 5.15869 18.5562V14.769C5.15911 14.4116 5.30125 14.069 5.55393 13.8164C5.80661 13.5637 6.14919 13.4215 6.50653 13.4211H7.82589C7.99563 13.4211 8.15842 13.4885 8.27844 13.6086C8.39846 13.7286 8.46589 13.8914 8.46589 14.0611V19.264C8.46589 19.4337 8.39846 19.5965 8.27844 19.7165C8.15842 19.8366 7.99563 19.904 7.82589 19.904ZM6.50653 14.7008C6.49762 14.7008 6.4888 14.7025 6.48057 14.706C6.47234 14.7094 6.46486 14.7144 6.45856 14.7207C6.45226 14.727 6.44726 14.7344 6.44386 14.7427C6.44045 14.7509 6.43869 14.7597 6.43869 14.7686V18.5565C6.43869 18.5745 6.44584 18.5917 6.45856 18.6044C6.47128 18.6172 6.48854 18.6243 6.50653 18.6243H7.18589V14.7011L6.50653 14.7008Z" fill="#202020"/>
<path d="M11.3192 19.904H7.82604C7.6563 19.904 7.49351 19.8366 7.37349 19.7165C7.25346 19.5965 7.18604 19.4337 7.18604 19.264V14.0611C7.1861 13.9027 7.24493 13.7499 7.35116 13.6323L9.20044 11.5843C9.38283 11.3809 9.63744 11.2568 9.91 11.2384C10.1826 11.22 10.4515 11.3088 10.6596 11.4858C10.9346 11.7177 11.1398 12.0215 11.2522 12.3632C11.3646 12.705 11.3798 13.0712 11.2961 13.4211H12.4331C12.6597 13.4211 12.8837 13.4693 13.0902 13.5625C13.2967 13.6557 13.4811 13.7918 13.631 13.9617C13.7809 14.1316 13.893 14.3315 13.9598 14.548C14.0266 14.7645 14.0465 14.9928 14.0184 15.2176L13.6929 17.8096C13.6194 18.3876 13.3379 18.919 12.901 19.3044C12.4641 19.6899 11.9018 19.903 11.3192 19.904ZM8.46604 18.624H11.3192C11.5902 18.6237 11.8519 18.5245 12.0552 18.3452C12.2585 18.1658 12.3894 17.9185 12.4235 17.6496L12.7489 15.0576C12.7545 15.0129 12.7505 14.9675 12.7372 14.9245C12.7239 14.8815 12.7016 14.8417 12.6718 14.808C12.642 14.7742 12.6054 14.7471 12.5643 14.7286C12.5233 14.7101 12.4788 14.7005 12.4337 14.7005H10.2136C10.0943 14.7005 9.97744 14.6672 9.87611 14.6043C9.77478 14.5415 9.69303 14.4516 9.64006 14.3448C9.5871 14.2379 9.56503 14.1184 9.57635 13.9997C9.58766 13.881 9.63192 13.7678 9.70412 13.673L9.93388 13.3709C10.0136 13.2662 10.0604 13.1401 10.0682 13.0088C10.076 12.8774 10.0445 12.7467 9.97772 12.6333L8.46604 14.3069V18.624ZM12.636 10.5789H11.3166C10.9593 10.5784 10.6167 10.4363 10.364 10.1836C10.1113 9.93095 9.96918 9.58837 9.96876 9.23103V5.44351C9.96918 5.0862 10.1113 4.74365 10.364 4.49103C10.6167 4.2384 10.9593 4.09633 11.3166 4.09599H12.636C12.8057 4.09599 12.9685 4.16342 13.0885 4.28344C13.2085 4.40347 13.276 4.56625 13.276 4.73599V9.93919C13.2759 10.1089 13.2084 10.2716 13.0884 10.3915C12.9684 10.5115 12.8056 10.5789 12.636 10.5789ZM11.3166 5.37599C11.2986 5.37599 11.2813 5.38314 11.2686 5.39586C11.2559 5.40859 11.2488 5.42584 11.2488 5.44383V9.23103C11.2488 9.24903 11.2559 9.26628 11.2686 9.279C11.2813 9.29173 11.2986 9.29887 11.3166 9.29887H11.996V5.37599H11.3166Z" fill="#202020"/>
<path d="M14.7904 12.7638C14.6432 12.7638 14.4977 12.7329 14.3633 12.6729C14.2289 12.613 14.1086 12.5255 14.0102 12.416L12.16 10.368C12.0538 10.2504 11.9949 10.0976 11.9949 9.93919V4.73599C11.9949 4.56625 12.0623 4.40347 12.1823 4.28344C12.3023 4.16342 12.4651 4.09599 12.6349 4.09599H16.128C16.7108 4.0968 17.2734 4.30996 17.7104 4.69557C18.1475 5.08119 18.429 5.61284 18.5024 6.19103L18.8275 8.78303C18.8557 9.00784 18.8357 9.23607 18.769 9.45257C18.7022 9.66908 18.5902 9.86891 18.4403 10.0388C18.2904 10.2087 18.1061 10.3448 17.8996 10.438C17.6931 10.5312 17.4691 10.5795 17.2426 10.5795H16.1066C16.19 10.9294 16.1746 11.2957 16.062 11.6374C15.9495 11.979 15.7442 12.2827 15.4691 12.5146C15.2796 12.6755 15.039 12.7639 14.7904 12.7638ZM13.2758 9.69183L14.7872 11.3654C14.8541 11.2521 14.8856 11.1214 14.8779 10.99C14.8701 10.8586 14.8234 10.7325 14.7437 10.6278L14.5139 10.3258C14.4417 10.2309 14.3975 10.1177 14.3861 9.99898C14.3748 9.88028 14.3969 9.76078 14.4499 9.65395C14.5028 9.54712 14.5846 9.45721 14.6859 9.39436C14.7872 9.33151 14.9041 9.29821 15.0234 9.29823H17.2435C17.2885 9.29822 17.3331 9.28863 17.3741 9.2701C17.4151 9.25156 17.4518 9.22451 17.4815 9.19073C17.5113 9.15696 17.5336 9.11723 17.5468 9.07419C17.5601 9.03116 17.564 8.98579 17.5584 8.94111L17.2333 6.34911C17.1988 6.08028 17.0676 5.8332 16.8642 5.6541C16.6607 5.47499 16.399 5.37613 16.128 5.37599H13.2758V9.69183Z" fill="#202020"/>
</svg>
