<svg width="24" height="24" viewBox="0 0 24 24" fill="none" xmlns="http://www.w3.org/2000/svg">
<path d="M15.9359 14.568C15.7792 14.568 15.628 14.5104 15.5109 14.4062C15.3938 14.3021 15.319 14.1586 15.3006 14.0029C15.2823 13.8473 15.3217 13.6903 15.4113 13.5618C15.501 13.4333 15.6347 13.3421 15.7871 13.3056C16.629 13.1032 17.3942 12.6615 17.9905 12.0337C18.5867 11.4058 18.9884 10.6188 19.1471 9.7677C19.5974 7.34082 17.9897 4.9997 15.5631 4.54946C14.4872 4.34814 13.3747 4.548 12.4361 5.11126C11.4974 5.67452 10.7977 6.56214 10.4691 7.60633C10.1405 8.65051 10.2059 9.7789 10.6528 10.7782C11.0997 11.7774 11.8973 12.5783 12.8947 13.0295C12.9723 13.0634 13.0424 13.1125 13.101 13.1738C13.1595 13.2351 13.2053 13.3074 13.2357 13.3865C13.266 13.4656 13.2804 13.55 13.2779 13.6347C13.2754 13.7194 13.2561 13.8028 13.2211 13.88C13.1861 13.9572 13.1361 14.0267 13.0741 14.0844C13.012 14.1421 12.9391 14.1869 12.8596 14.2163C12.7801 14.2456 12.6955 14.2588 12.6109 14.2552C12.5262 14.2516 12.4431 14.2312 12.3663 14.1952C11.2074 13.6664 10.2553 12.7699 9.65787 11.6448C9.15177 10.6883 8.92553 9.60857 9.00508 8.52937C9.08464 7.45018 9.46678 6.41526 10.1077 5.54333C10.7485 4.6714 11.6222 3.99778 12.6285 3.59972C13.6347 3.20166 14.7328 3.09529 15.7967 3.29282C18.9174 3.87202 20.9852 6.88226 20.4047 10.0032C20.2007 11.0976 19.6842 12.1095 18.9176 12.9166C18.151 13.7238 17.1671 14.2918 16.0847 14.552C16.0359 14.5632 15.986 14.5686 15.9359 14.568Z" fill="#202020"/>
<path d="M9.248 20.8058C7.87279 20.8041 6.54361 20.3101 5.50103 19.4133C4.45845 18.5165 3.77134 17.2761 3.56407 15.9166C3.35679 14.5571 3.64304 13.1683 4.37101 12.0016C5.09898 10.8349 6.22057 9.96728 7.5328 9.55585C7.69473 9.50492 7.87026 9.52041 8.02077 9.59891C8.17128 9.6774 8.28444 9.81248 8.33536 9.97441C8.38628 10.1363 8.37079 10.3119 8.2923 10.4624C8.2138 10.6129 8.07873 10.726 7.9168 10.777C6.95092 11.0804 6.11645 11.7023 5.54965 12.5411C4.98285 13.38 4.71721 14.3863 4.79611 15.3956C4.87502 16.4049 5.2938 17.3577 5.98408 18.0983C6.67435 18.8389 7.59534 19.3236 8.59663 19.4732C9.59791 19.6228 10.6203 19.4285 11.497 18.922C12.3736 18.4155 13.0526 17.6268 13.4231 16.6847C13.7936 15.7425 13.8337 14.7025 13.5369 13.7346C13.24 12.7667 12.6238 11.928 11.7888 11.3555C11.717 11.3092 11.6552 11.2489 11.6071 11.1782C11.5589 11.1076 11.5254 11.028 11.5086 10.9442C11.4917 10.8604 11.4918 10.7741 11.5088 10.6903C11.5258 10.6065 11.5595 10.527 11.6078 10.4565C11.656 10.3859 11.718 10.3257 11.7899 10.2795C11.8618 10.2333 11.9422 10.2019 12.0264 10.1873C12.1107 10.1727 12.197 10.1751 12.2803 10.1943C12.3635 10.2136 12.4421 10.2494 12.5114 10.2995C13.5599 11.0214 14.3411 12.0691 14.7338 13.28C15.1371 14.5149 15.1062 15.8507 14.6461 17.0656C13.7814 19.3766 11.5814 20.8054 9.248 20.8058Z" fill="#202020"/>
</svg>
