<svg width="24" height="24" viewBox="0 0 24 24" fill="none" xmlns="http://www.w3.org/2000/svg">
<path d="M12.0472 20.4601C11.7665 20.4615 11.4902 20.3903 11.245 20.2537C10.9998 20.117 10.794 19.9194 10.6475 19.68L6.45548 12.9024L6.44812 12.8902C5.34924 11.024 5.33868 8.75103 6.42028 6.81023C7.53324 4.81311 9.55052 3.59103 11.8161 3.54175C11.8648 3.54175 11.9137 3.54175 11.9624 3.54175H11.9726C12.0795 3.54175 12.1876 3.54399 12.2942 3.54879C14.547 3.65023 16.5374 4.89023 17.6184 6.86591C18.6475 8.74751 18.6337 10.9561 17.5812 12.7744L17.5764 12.7824L13.4609 19.6624C13.3166 19.9055 13.1116 20.1071 12.866 20.2473C12.6205 20.3875 12.3427 20.4616 12.06 20.4624L12.0472 20.4601ZM7.54732 12.2361L11.7358 19.008C11.7689 19.0615 11.8151 19.1057 11.8702 19.1361C11.9253 19.1666 11.9873 19.1823 12.0502 19.1819C12.1131 19.1814 12.1748 19.1648 12.2295 19.1335C12.2841 19.1023 12.3297 19.0575 12.362 19.0035L16.4753 12.128C17.2996 10.7008 17.3073 8.96351 16.4952 7.47903C16.0758 6.70584 15.4629 6.05484 14.7163 5.5898C13.9697 5.12477 13.1151 4.86165 12.2363 4.82623C12.1489 4.82239 12.06 4.82047 11.9723 4.82047H11.964C11.9236 4.82047 11.8836 4.82047 11.8436 4.82047C10.0372 4.85983 8.42764 5.83615 7.53804 7.43231C6.68108 8.97087 6.68492 10.7654 7.54732 12.2349V12.2361Z" fill="#202020"/>
<path d="M13.512 10.3495H10.1612C9.9915 10.3495 9.82871 10.282 9.70869 10.162C9.58867 10.042 9.52124 9.8792 9.52124 9.70946C9.52124 9.53972 9.58867 9.37693 9.70869 9.25691C9.82871 9.13689 9.9915 9.06946 10.1612 9.06946H13.512C13.6817 9.06946 13.8445 9.13689 13.9645 9.25691C14.0845 9.37693 14.152 9.53972 14.152 9.70946C14.152 9.8792 14.0845 10.042 13.9645 10.162C13.8445 10.282 13.6817 10.3495 13.512 10.3495Z" fill="#202020"/>
</svg>
