<svg width="24" height="24" viewBox="0 0 24 24" fill="none" xmlns="http://www.w3.org/2000/svg">
<path d="M12.3761 20.3277C12.0983 20.3288 11.8249 20.2583 11.5822 20.123C11.3396 19.9877 11.1359 19.7922 10.9908 19.5552L6.86952 12.8928C6.86728 12.8887 6.86472 12.8848 6.86248 12.881C5.77992 11.0426 5.76968 8.8042 6.83496 6.89284C7.93096 4.9258 9.9172 3.7226 12.147 3.67428C12.1946 3.67428 12.243 3.67428 12.291 3.67236H12.3009C12.4062 3.67236 12.5124 3.67492 12.6174 3.6794C14.8359 3.77924 16.7959 5.00036 17.8602 6.94596C18.8756 8.80004 18.8618 10.976 17.8241 12.7648L17.8193 12.7728L13.7748 19.5348C13.632 19.7755 13.4293 19.9751 13.1863 20.1141C12.9433 20.2531 12.6685 20.3267 12.3886 20.3277H12.3761ZM7.962 12.2256L12.0794 18.8816C12.111 18.9327 12.1551 18.9747 12.2077 19.0037C12.2602 19.0327 12.3193 19.0477 12.3793 19.0473C12.4392 19.0468 12.4981 19.0309 12.5502 19.0011C12.6022 18.9714 12.6458 18.9287 12.6766 18.8772L16.7198 12.12C17.5281 10.7204 17.5354 9.01604 16.739 7.56036C16.3276 6.80195 15.7263 6.16339 14.994 5.70723C14.2617 5.25106 13.4234 4.99293 12.5614 4.95812C12.4756 4.95428 12.3886 4.95236 12.3025 4.95236H12.2942C12.2548 4.95236 12.2154 4.95236 12.1764 4.95396C10.4042 4.99236 8.82536 5.95012 7.9524 7.51588C7.1124 9.02404 7.11592 10.784 7.962 12.2256Z" fill="#202020"/>
<path d="M12.1687 12.0352C11.9989 12.0352 11.8362 11.9678 11.7161 11.8477C11.5961 11.7277 11.5287 11.5649 11.5287 11.3952V8.10143C11.5287 7.93169 11.5961 7.7689 11.7161 7.64888C11.8362 7.52885 11.9989 7.46143 12.1687 7.46143C12.3384 7.46143 12.5012 7.52885 12.6212 7.64888C12.7413 7.7689 12.8087 7.93169 12.8087 8.10143V11.3952C12.8087 11.5649 12.7413 11.7277 12.6212 11.8477C12.5012 11.9678 12.3384 12.0352 12.1687 12.0352Z" fill="#202020"/>
<path d="M13.8157 10.3885H10.522C10.3522 10.3885 10.1894 10.3211 10.0694 10.2011C9.94939 10.081 9.88196 9.91826 9.88196 9.74852C9.88196 9.57878 9.94939 9.41599 10.0694 9.29597C10.1894 9.17595 10.3522 9.10852 10.522 9.10852H13.8157C13.9855 9.10852 14.1482 9.17595 14.2683 9.29597C14.3883 9.41599 14.4557 9.57878 14.4557 9.74852C14.4557 9.91826 14.3883 10.081 14.2683 10.2011C14.1482 10.3211 13.9855 10.3885 13.8157 10.3885Z" fill="#202020"/>
</svg>
