<svg width="24" height="24" viewBox="0 0 24 24" fill="none" xmlns="http://www.w3.org/2000/svg">
<path d="M12.0473 20.4601C11.7666 20.4615 11.4903 20.3903 11.2451 20.2537C10.9999 20.117 10.7941 19.9194 10.6476 19.68L6.4556 12.9024L6.44824 12.8902C5.34936 11.024 5.3388 8.75103 6.4204 6.81023C7.53336 4.81311 9.55064 3.59103 11.8162 3.54175C11.8649 3.54175 11.9138 3.54175 11.9625 3.54175H11.9727C12.0796 3.54175 12.1878 3.54399 12.2943 3.54879C14.5471 3.65023 16.5375 4.89023 17.6185 6.86591C18.6476 8.74751 18.6338 10.9561 17.5814 12.7744L17.5766 12.7824L13.461 19.6624C13.3167 19.9055 13.1117 20.1071 12.8662 20.2473C12.6206 20.3875 12.3429 20.4616 12.0601 20.4624L12.0473 20.4601ZM7.54744 12.2361L11.7359 19.008C11.769 19.0615 11.8153 19.1057 11.8703 19.1361C11.9254 19.1666 11.9874 19.1823 12.0503 19.1819C12.1132 19.1814 12.175 19.1648 12.2296 19.1335C12.2842 19.1023 12.3299 19.0575 12.3622 19.0035L16.4754 12.128C17.2998 10.7011 17.3074 8.96351 16.4953 7.47903C16.076 6.70584 15.463 6.05484 14.7164 5.5898C13.9698 5.12477 13.1153 4.86165 12.2364 4.82623C12.149 4.82239 12.0601 4.82047 11.9724 4.82047H11.9641C11.9238 4.82047 11.8838 4.82047 11.8438 4.82047C10.0374 4.85983 8.42776 5.83615 7.53816 7.43231C6.6812 8.97087 6.68504 10.7654 7.54744 12.2349V12.2361Z" fill="#202020"/>
<path d="M13.0211 11.5341C12.937 11.5342 12.8538 11.5178 12.7761 11.4856C12.6985 11.4534 12.6279 11.4061 12.5686 11.3466L10.2006 8.97857C10.1386 8.91983 10.089 8.84926 10.0547 8.77104C10.0203 8.69281 10.002 8.60851 10.0008 8.5231C9.99957 8.43768 10.0155 8.35289 10.0475 8.27371C10.0796 8.19453 10.1272 8.12257 10.1875 8.06207C10.2478 8.00157 10.3196 7.95376 10.3987 7.92145C10.4777 7.88914 10.5625 7.87299 10.6479 7.87394C10.7333 7.8749 10.8177 7.89294 10.896 7.92701C10.9743 7.96109 11.0451 8.01049 11.104 8.07233L13.472 10.4403C13.5615 10.5298 13.6224 10.6439 13.6471 10.768C13.6718 10.8921 13.6591 11.0208 13.6107 11.1377C13.5622 11.2546 13.4802 11.3546 13.375 11.4249C13.2698 11.4952 13.1461 11.5328 13.0195 11.5328L13.0211 11.5341Z" fill="#202020"/>
<path d="M10.6518 11.5341C10.5253 11.5341 10.4016 11.4965 10.2963 11.4262C10.1911 11.3559 10.1091 11.2559 10.0607 11.139C10.0122 11.0221 9.99957 10.8934 10.0243 10.7693C10.0489 10.6451 10.1099 10.5311 10.1993 10.4416L12.5673 8.07361C12.6268 8.01419 12.6974 7.96706 12.775 7.93491C12.8527 7.90276 12.9359 7.88622 13.0199 7.88623C13.104 7.88625 13.1872 7.90281 13.2649 7.93499C13.3425 7.96717 13.413 8.01433 13.4725 8.07377C13.5319 8.13321 13.579 8.20377 13.6112 8.28143C13.6433 8.35908 13.6599 8.44231 13.6598 8.52636C13.6598 8.61041 13.6433 8.69363 13.6111 8.77128C13.5789 8.84892 13.5317 8.91947 13.4723 8.97889L11.1043 11.3469C11.045 11.4064 10.9744 11.4536 10.8968 11.4857C10.8191 11.5178 10.7359 11.5343 10.6518 11.5341Z" fill="#202020"/>
</svg>
