<svg width="24" height="24" viewBox="0 0 24 24" fill="none" xmlns="http://www.w3.org/2000/svg">
<g clip-path="url(#clip0_3_224)">
<path fill-rule="evenodd" clip-rule="evenodd" d="M19.955 4.04505C15.5616 -0.34835 8.43844 -0.34835 4.04505 4.04505C-0.34835 8.43844 -0.34835 15.5616 4.04505 19.955C8.43844 24.3483 15.5616 24.3483 19.955 19.955C24.3483 15.5616 24.3483 8.43844 19.955 4.04505ZM5.1057 5.1057C8.91334 1.2981 15.0867 1.2981 18.8943 5.1057C22.7019 8.91334 22.7019 15.0867 18.8943 18.8943C16.0136 21.775 11.7788 22.4763 8.23886 20.9981L9.74224 19.4948C12.2569 20.1853 15.0638 19.5428 17.042 17.5645C19.3529 15.2536 19.8414 11.8126 18.5104 9.0252C18.4055 8.80545 18.2004 8.65035 17.9604 8.60917C17.7205 8.56796 17.4754 8.64585 17.3032 8.81801L13.3297 12.7916L11.2084 10.6702L15.1819 6.69671C15.3541 6.52451 15.432 6.27949 15.3908 6.03952C15.3496 5.79952 15.1945 5.59447 14.9748 5.48955C12.1874 4.1586 8.74631 4.64704 6.43545 6.95794C4.45714 8.93621 3.81469 11.743 4.50521 14.2577L3.00186 15.7611C1.52376 12.2211 2.22504 7.98637 5.1057 5.1057ZM3.72459 17.1597C4.10959 17.7759 4.56994 18.3585 5.1057 18.8943C5.64146 19.43 6.22402 19.8904 6.84026 20.2754L9.00105 18.1146C9.20385 17.9118 9.50452 17.8424 9.77565 17.9358C11.8793 18.6604 14.3035 18.1818 15.9814 16.5039C17.5522 14.933 18.0718 12.7078 17.5375 10.705L13.86 14.3826C13.5672 14.6754 13.0923 14.6754 12.7994 14.3826L9.6174 11.2006C9.32452 10.9077 9.32452 10.4328 9.6174 10.1399L13.2949 6.46241C11.2922 5.92819 9.06697 6.44771 7.4961 8.01859C5.81816 9.69649 5.33951 12.1207 6.06412 14.2243C6.15754 14.4955 6.08816 14.7961 5.88536 14.9989L3.72459 17.1597Z" fill="#202020"/>
</g>
<defs>
<clipPath id="clip0_3_224">
<rect width="24" height="24" fill="white"/>
</clipPath>
</defs>
</svg>
