<svg width="24" height="24" viewBox="0 0 24 24" fill="none" xmlns="http://www.w3.org/2000/svg">
<path d="M14.2741 19.5085C13.9135 19.509 13.5606 19.4046 13.2584 19.208L9.82414 16.9654C9.73481 16.9066 9.63071 16.8742 9.52379 16.8719C9.41687 16.8696 9.31146 16.8974 9.21966 16.9523L6.65294 18.4688C6.37159 18.6351 6.05125 18.724 5.72444 18.7265C5.39762 18.729 5.07596 18.645 4.79209 18.4831C4.50821 18.3211 4.27223 18.087 4.10808 17.8043C3.94393 17.5217 3.85745 17.2007 3.85742 16.8739V9.08799C3.85767 8.79355 3.92797 8.50339 4.06251 8.24149C4.19705 7.97958 4.39198 7.75344 4.63118 7.58175L8.46158 4.83775C8.77639 4.61185 9.15411 4.49036 9.54158 4.49036C9.92905 4.49036 10.3068 4.61185 10.6216 4.83775L13.7755 7.10399C13.866 7.16888 13.9735 7.206 14.0847 7.21083C14.196 7.21567 14.3063 7.18799 14.4021 7.13119L17.3461 5.38591C17.6274 5.21911 17.9478 5.12975 18.2749 5.12689C18.6019 5.12404 18.9239 5.20781 19.208 5.36967C19.4922 5.53154 19.7285 5.76575 19.8929 6.0485C20.0572 6.33125 20.1438 6.65246 20.1438 6.97951V16.2381C20.143 16.6212 20.0237 16.9947 19.8022 17.3073C19.5807 17.6199 19.2679 17.8562 18.9067 17.984L14.8878 19.4038C14.6906 19.4732 14.4831 19.5086 14.2741 19.5085ZM9.51054 15.5904C9.87025 15.5909 10.222 15.6963 10.5227 15.8938L13.9579 18.1363C14.0317 18.1842 14.1154 18.2145 14.2027 18.225C14.29 18.2355 14.3786 18.2258 14.4616 18.1968L18.4808 16.7782C18.5925 16.7387 18.6892 16.6655 18.7576 16.5688C18.826 16.4721 18.8628 16.3565 18.8629 16.2381V6.97983C18.8627 6.87888 18.8359 6.77976 18.7851 6.6925C18.7344 6.60525 18.6614 6.53296 18.5737 6.48297C18.486 6.43298 18.3866 6.40706 18.2857 6.40782C18.1847 6.40859 18.0858 6.43603 17.9989 6.48735L15.0549 8.23263C14.7451 8.41631 14.3885 8.50572 14.0287 8.48992C13.6688 8.47412 13.3214 8.3538 13.0289 8.14367L9.8747 5.87807C9.77736 5.80823 9.66058 5.77067 9.54078 5.77067C9.42098 5.77067 9.3042 5.80823 9.20686 5.87807L5.37614 8.62175C5.30216 8.6749 5.24192 8.74492 5.2004 8.826C5.15889 8.90709 5.1373 8.9969 5.13742 9.08799V16.8739C5.1375 16.9749 5.16428 17.0741 5.21503 17.1614C5.26578 17.2487 5.33872 17.321 5.42643 17.371C5.51415 17.421 5.61353 17.447 5.7145 17.4462C5.81548 17.4455 5.91446 17.418 6.00142 17.3667L8.56654 15.8502C8.8522 15.6805 9.17826 15.5907 9.51054 15.5904Z" fill="#202020"/>
<path d="M14.0463 19.3677C13.8765 19.3677 13.7137 19.3003 13.5937 19.1803C13.4737 19.0602 13.4063 18.8975 13.4063 18.7277V8.08676C13.4063 7.91702 13.4737 7.75424 13.5937 7.63421C13.7137 7.51419 13.8765 7.44676 14.0463 7.44676C14.216 7.44676 14.3788 7.51419 14.4988 7.63421C14.6188 7.75424 14.6863 7.91702 14.6863 8.08676V18.7277C14.6863 18.8975 14.6188 19.0602 14.4988 19.1803C14.3788 19.3003 14.216 19.3677 14.0463 19.3677ZM9.54161 16.6576C9.37187 16.6576 9.20909 16.5902 9.08906 16.4702C8.96904 16.3502 8.90161 16.1874 8.90161 16.0176V5.1306C8.90161 4.96086 8.96904 4.79808 9.08906 4.67805C9.20909 4.55803 9.37187 4.4906 9.54161 4.4906C9.71135 4.4906 9.87414 4.55803 9.99416 4.67805C10.1142 4.79808 10.1816 4.96086 10.1816 5.1306V16.0176C10.1816 16.1874 10.1142 16.3502 9.99416 16.4702C9.87414 16.5902 9.71135 16.6576 9.54161 16.6576Z" fill="#202020"/>
</svg>
