<svg width="24" height="24" viewBox="0 0 24 24" fill="none" xmlns="http://www.w3.org/2000/svg">
<path d="M9.37597 13.7757C9.19837 13.7764 9.02358 13.7313 8.86845 13.6448C8.71331 13.5583 8.58306 13.4334 8.49021 13.282L6.81597 10.5754L6.80861 10.5636C6.29981 9.69955 6.29405 8.64899 6.79293 7.75363C7.30493 6.83555 8.23293 6.27395 9.27517 6.24963H9.34141H9.34589C9.39421 6.24963 9.44189 6.24963 9.49149 6.25315C9.99629 6.27348 10.4871 6.42462 10.916 6.69175C11.3448 6.95889 11.6968 7.33285 11.9376 7.77699C12.4134 8.64739 12.4064 9.67011 11.9181 10.5136C11.9181 10.5162 11.9152 10.5188 11.9136 10.5213L10.272 13.2688C10.1807 13.4228 10.051 13.5504 9.89564 13.6392C9.74028 13.728 9.56454 13.7751 9.38557 13.7757H9.37597ZM7.90909 9.90851L9.37309 12.2765L10.8131 9.87011C11.0771 9.41123 11.0781 8.87331 10.8153 8.39299C10.6794 8.14246 10.4806 7.93153 10.2386 7.78086C9.99666 7.63019 9.71969 7.54494 9.43485 7.53347C9.40445 7.53347 9.37405 7.53123 9.34365 7.53123H9.30333C9.0174 7.53704 8.73809 7.61832 8.49369 7.76685C8.24929 7.91538 8.0485 8.12587 7.91165 8.37699C7.63741 8.86915 7.63645 9.44003 7.90909 9.90851Z" fill="#202020"/>
<path d="M17.1665 19.936H6.80623C6.07576 19.9351 5.37546 19.6446 4.85894 19.128C4.34242 18.6115 4.05187 17.9112 4.05103 17.1808V6.8198C4.0517 6.08923 4.34218 5.38876 4.85871 4.87211C5.37525 4.35545 6.07565 4.06481 6.80623 4.06396H17.1665C17.897 4.0649 18.5972 4.35549 19.1136 4.87199C19.6301 5.3885 19.9206 6.08876 19.9214 6.81916V17.1801C19.9207 17.9106 19.6303 18.6111 19.1138 19.1277C18.5974 19.6444 17.8971 19.935 17.1665 19.936ZM6.80623 5.34396C6.41511 5.34439 6.04013 5.49995 5.76357 5.77651C5.48701 6.05307 5.33145 6.42805 5.33103 6.81916V17.1801C5.33128 17.5714 5.48676 17.9465 5.76334 18.2232C6.03992 18.4999 6.415 18.6555 6.80623 18.656H17.1665C17.5576 18.6555 17.9325 18.4999 18.209 18.2233C18.4855 17.9468 18.641 17.5718 18.6414 17.1808V6.8198C18.6412 6.42863 18.4857 6.05354 18.2092 5.77685C17.9327 5.50016 17.5577 5.34447 17.1665 5.34396H6.80623Z" fill="#202020"/>
<path d="M6.8062 19.936C6.67957 19.936 6.55578 19.8985 6.45049 19.8281C6.3452 19.7578 6.26314 19.6578 6.2147 19.5408C6.16626 19.4238 6.15361 19.2951 6.17836 19.1709C6.2031 19.0467 6.26413 18.9326 6.35372 18.8432L18.8289 6.36796C18.9489 6.24791 19.1117 6.18045 19.2814 6.18042C19.4512 6.18039 19.614 6.24779 19.734 6.3678C19.8541 6.4878 19.9215 6.65058 19.9216 6.82032C19.9216 6.99007 19.8542 7.15287 19.7342 7.27292L7.25868 19.7478C7.19932 19.8073 7.1288 19.8546 7.05116 19.8869C6.97352 19.9192 6.89028 19.9359 6.8062 19.936Z" fill="#202020"/>
<path d="M18.6559 19.3222C18.4872 19.3219 18.3253 19.255 18.2057 19.136L12.5942 13.5907C12.5344 13.5316 12.4868 13.4613 12.4542 13.3839C12.4216 13.3064 12.4046 13.2233 12.4041 13.1392C12.4036 13.0552 12.4196 12.9719 12.4514 12.894C12.4831 12.8162 12.5298 12.7454 12.5889 12.6856C12.648 12.6258 12.7182 12.5783 12.7957 12.5456C12.8732 12.513 12.9563 12.496 13.0403 12.4955C13.1244 12.495 13.2077 12.5111 13.2856 12.5428C13.3634 12.5745 13.4342 12.6212 13.494 12.6803L19.1055 18.2269C19.1958 18.316 19.2576 18.4301 19.2829 18.5544C19.3083 18.6788 19.2961 18.8078 19.2479 18.9252C19.1997 19.0427 19.1177 19.1431 19.0123 19.2138C18.9069 19.2845 18.7828 19.3222 18.6559 19.3222Z" fill="#202020"/>
</svg>
