<svg width="24" height="24" viewBox="0 0 24 24" fill="none" xmlns="http://www.w3.org/2000/svg">
<path d="M4.15263 10.9939H4.14655C4.0625 10.9931 3.97944 10.9757 3.90209 10.9428C3.82475 10.9099 3.75464 10.8621 3.69578 10.8021C3.63691 10.7421 3.59044 10.6711 3.55901 10.5932C3.52759 10.5152 3.51183 10.4318 3.51263 10.3478L3.54463 6.96474C3.54658 6.0576 3.90807 5.18821 4.54988 4.54712C5.19169 3.90603 6.06148 3.54551 6.96863 3.54459H10.208C10.3777 3.54459 10.5405 3.61201 10.6605 3.73204C10.7806 3.85206 10.848 4.01485 10.848 4.18459C10.848 4.35432 10.7806 4.51711 10.6605 4.63713C10.5405 4.75716 10.3777 4.82459 10.208 4.82459H6.96799C6.39952 4.82509 5.85448 5.05114 5.45252 5.45311C5.05055 5.85508 4.8245 6.40012 4.82399 6.96859V6.97467L4.79199 10.3606C4.79022 10.529 4.7221 10.69 4.60241 10.8086C4.48271 10.9271 4.3211 10.9937 4.15263 10.9939ZM19.8153 10.9939C19.6467 10.9939 19.4848 10.9273 19.3649 10.8086C19.2451 10.6899 19.177 10.5286 19.1754 10.3599L19.1434 6.97403V6.96795C19.1434 6.39932 18.9175 5.85399 18.5154 5.45191C18.1133 5.04983 17.568 4.82395 16.9994 4.82395H13.76C13.5903 4.82395 13.4275 4.75652 13.3074 4.63649C13.1874 4.51647 13.12 4.35368 13.12 4.18395C13.12 4.01421 13.1874 3.85142 13.3074 3.7314C13.4275 3.61137 13.5903 3.54395 13.76 3.54395H17C17.9075 3.54394 18.7779 3.9042 19.4199 4.54557C20.0619 5.18693 20.4231 6.05693 20.424 6.96443L20.456 10.3471C20.4568 10.4312 20.441 10.5146 20.4096 10.5925C20.3782 10.6705 20.3317 10.7415 20.2728 10.8015C20.214 10.8615 20.1439 10.9093 20.0665 10.9422C19.9892 10.9751 19.9061 10.9924 19.8221 10.9932L19.8153 10.9939ZM10.208 20.4556H6.96799C6.06081 20.4546 5.19103 20.094 4.54922 19.4529C3.90742 18.8117 3.54594 17.9423 3.54399 17.0351L3.51199 13.6521C3.51038 13.4824 3.57626 13.3189 3.69514 13.1978C3.81403 13.0766 3.97617 13.0076 4.14591 13.006C4.31565 13.0044 4.47908 13.0703 4.60024 13.1892C4.7214 13.3081 4.79038 13.4702 4.79199 13.6399L4.82399 17.0259V17.0319C4.8245 17.6004 5.05055 18.1455 5.45252 18.5474C5.85448 18.9494 6.39952 19.1754 6.96799 19.1759H10.208C10.3777 19.1759 10.5405 19.2434 10.6605 19.3634C10.7806 19.4834 10.848 19.6462 10.848 19.8159C10.848 19.9857 10.7806 20.1485 10.6605 20.2685C10.5405 20.3885 10.3777 20.4559 10.208 20.4559V20.4556ZM13.76 20.4556C13.5903 20.4556 13.4275 20.3882 13.3074 20.2682C13.1874 20.1481 13.12 19.9854 13.12 19.8156C13.12 19.6459 13.1874 19.4831 13.3074 19.3631C13.4275 19.2431 13.5903 19.1756 13.76 19.1756H17C17.5686 19.1756 18.114 18.9497 18.516 18.5477C18.9181 18.1456 19.144 17.6002 19.144 17.0316V17.0255L19.176 13.6396C19.1776 13.4699 19.2466 13.3077 19.3677 13.1889C19.4277 13.13 19.4987 13.0835 19.5767 13.0521C19.6546 13.0207 19.738 13.0049 19.8221 13.0057C19.9061 13.0065 19.9892 13.0238 20.0665 13.0567C20.1439 13.0896 20.214 13.1375 20.2728 13.1975C20.3317 13.2574 20.3782 13.3285 20.4096 13.4064C20.441 13.4844 20.4568 13.5677 20.456 13.6518L20.424 17.0348C20.4231 17.9423 20.0619 18.8123 19.4199 19.4537C18.7779 20.095 17.9075 20.4553 17 20.4553L13.76 20.4556ZM7.21279 12.6399C7.04305 12.6399 6.88027 12.5725 6.76024 12.4525C6.64022 12.3325 6.57279 12.1697 6.57279 11.9999C6.57279 11.8302 6.64022 11.6674 6.76024 11.5474C6.88027 11.4274 7.04305 11.3599 7.21279 11.3599H16.7875C16.9572 11.3599 17.12 11.4274 17.2401 11.5474C17.3601 11.6674 17.4275 11.8302 17.4275 11.9999C17.4275 12.1697 17.3601 12.3325 17.2401 12.4525C17.12 12.5725 16.9572 12.6399 16.7875 12.6399H7.21279Z" fill="#202020"/>
<path d="M11.9999 17.4272C11.8301 17.4272 11.6673 17.3597 11.5473 17.2397C11.4273 17.1197 11.3599 16.9569 11.3599 16.7872V7.21275C11.3599 7.04302 11.4273 6.88023 11.5473 6.76021C11.6673 6.64018 11.8301 6.57275 11.9999 6.57275C12.1696 6.57275 12.3324 6.64018 12.4524 6.76021C12.5724 6.88023 12.6399 7.04302 12.6399 7.21275V16.7872C12.6399 16.9569 12.5724 17.1197 12.4524 17.2397C12.3324 17.3597 12.1696 17.4272 11.9999 17.4272Z" fill="#202020"/>
<path d="M13.4635 7.80795H10.5496C10.3799 7.80795 10.2171 7.74053 10.0971 7.6205C9.97706 7.50048 9.90963 7.33769 9.90963 7.16795C9.90963 6.99822 9.97706 6.83543 10.0971 6.71541C10.2171 6.59538 10.3799 6.52795 10.5496 6.52795H13.4635C13.6333 6.52795 13.7961 6.59538 13.9161 6.71541C14.0361 6.83543 14.1035 6.99822 14.1035 7.16795C14.1035 7.33769 14.0361 7.50048 13.9161 7.6205C13.7961 7.74053 13.6333 7.80795 13.4635 7.80795ZM13.4635 17.5628H10.5496C10.3799 17.5628 10.2171 17.4954 10.0971 17.3754C9.97706 17.2554 9.90963 17.0926 9.90963 16.9228C9.90963 16.7531 9.97706 16.5903 10.0971 16.4703C10.2171 16.3503 10.3799 16.2828 10.5496 16.2828H13.4635C13.6333 16.2828 13.7961 16.3503 13.9161 16.4703C14.0361 16.5903 14.1035 16.7531 14.1035 16.9228C14.1035 17.0926 14.0361 17.2554 13.9161 17.3754C13.7961 17.4954 13.6333 17.5628 13.4635 17.5628ZM16.9163 14.1097C16.7466 14.1097 16.5838 14.0423 16.4638 13.9223C16.3438 13.8022 16.2763 13.6395 16.2763 13.4697V10.5561C16.2763 10.3864 16.3438 10.2236 16.4638 10.1036C16.5838 9.98354 16.7466 9.91611 16.9163 9.91611C17.0861 9.91611 17.2489 9.98354 17.3689 10.1036C17.4889 10.2236 17.5563 10.3864 17.5563 10.5561V13.4697C17.5563 13.6395 17.4889 13.8022 17.3689 13.9223C17.2489 14.0423 17.0861 14.1097 16.9163 14.1097ZM7.16051 14.1097C6.99077 14.1097 6.82798 14.0423 6.70796 13.9223C6.58794 13.8022 6.52051 13.6395 6.52051 13.4697V10.5561C6.52051 10.3864 6.58794 10.2236 6.70796 10.1036C6.82798 9.98354 6.99077 9.91611 7.16051 9.91611C7.33025 9.91611 7.49303 9.98354 7.61306 10.1036C7.73308 10.2236 7.80051 10.3864 7.80051 10.5561V13.4697C7.80051 13.6395 7.73308 13.8022 7.61306 13.9223C7.49303 14.0423 7.33025 14.1097 7.16051 14.1097Z" fill="#202020"/>
</svg>
