<svg width="24" height="24" viewBox="0 0 24 24" fill="none" xmlns="http://www.w3.org/2000/svg">
<path d="M10.062 20.4556C9.89229 20.4556 9.7295 20.3882 9.60948 20.2682C9.48945 20.1481 9.42203 19.9854 9.42203 19.8156C9.42203 19.6459 9.48945 19.4831 9.60948 19.3631C9.7295 19.2431 9.89229 19.1756 10.062 19.1756H17.0319C17.6006 19.1756 18.1459 18.9497 18.548 18.5477C18.9501 18.1456 19.1759 17.6002 19.1759 17.0316V6.96795C19.1754 6.39948 18.9494 5.85444 18.5474 5.45247C18.1455 5.0505 17.6004 4.82445 17.0319 4.82395H6.96795C6.39932 4.82395 5.85399 5.04983 5.45191 5.45191C5.04983 5.85399 4.82395 6.39932 4.82395 6.96795V12.4527C4.82395 12.6225 4.75652 12.7853 4.63649 12.9053C4.51647 13.0253 4.35368 13.0927 4.18395 13.0927C4.01421 13.0927 3.85142 13.0253 3.7314 12.9053C3.61137 12.7853 3.54395 12.6225 3.54395 12.4527V6.96795C3.54395 6.05984 3.90469 5.18894 4.54681 4.54681C5.18894 3.90469 6.05984 3.54395 6.96795 3.54395H17.0319C17.9398 3.54488 18.8101 3.90592 19.452 4.54784C20.094 5.18976 20.455 6.06013 20.4559 6.96795V17.0319C20.4559 17.94 20.0952 18.811 19.4531 19.4531C18.811 20.0952 17.94 20.4559 17.0319 20.4559L10.062 20.4556Z" fill="#202020"/>
<path d="M3.63269 20.6803C3.19435 20.6799 2.77409 20.5056 2.46411 20.1957C2.15413 19.8858 1.97976 19.4655 1.97925 19.0272V15.3635C1.97925 14.925 2.15345 14.5044 2.46353 14.1944C2.77361 13.8843 3.19417 13.7101 3.63269 13.7101H7.29605C7.73441 13.7106 8.15468 13.8849 8.46465 14.1949C8.77462 14.5049 8.94898 14.9251 8.94949 15.3635V19.0272C8.9494 19.4657 8.77517 19.8861 8.46509 20.1961C8.15502 20.5062 7.73451 20.6803 7.29605 20.6803H3.63269ZM7.29605 14.9901H3.63269C3.53367 14.9902 3.43874 15.0295 3.36872 15.0995C3.2987 15.1696 3.25933 15.2645 3.25925 15.3635V19.0272C3.25942 19.1262 3.29883 19.221 3.36883 19.291C3.43884 19.3609 3.53373 19.4002 3.63269 19.4003H7.29605C7.34507 19.4004 7.39363 19.3907 7.43893 19.372C7.48424 19.3533 7.52541 19.3258 7.56009 19.2911C7.59477 19.2565 7.62228 19.2153 7.64106 19.1701C7.65983 19.1248 7.66949 19.0762 7.66949 19.0272V15.3635C7.6694 15.2645 7.63003 15.1696 7.56002 15.0995C7.49 15.0295 7.39506 14.9902 7.29605 14.9901ZM9.87045 13.7082C9.73884 13.7082 9.61043 13.6676 9.50269 13.5921C9.39496 13.5165 9.31315 13.4095 9.26841 13.2857C9.22367 13.162 9.21817 13.0274 9.25266 12.9004C9.28715 12.7734 9.35996 12.6601 9.46117 12.576L16.4183 6.79359C16.4829 6.73987 16.5575 6.6994 16.6378 6.67449C16.718 6.64959 16.8024 6.64074 16.8861 6.64845C16.9698 6.65616 17.0512 6.68028 17.1255 6.71943C17.1999 6.75858 17.2658 6.812 17.3196 6.87663C17.3733 6.94126 17.4138 7.01584 17.4387 7.09612C17.4636 7.17639 17.4724 7.26078 17.4647 7.34447C17.457 7.42816 17.4329 7.50952 17.3937 7.58389C17.3546 7.65826 17.3012 7.72419 17.2365 7.77791L10.2794 13.5603C10.1646 13.656 10.0199 13.7084 9.87045 13.7082Z" fill="#202020"/>
<path d="M17.4852 10.0678C17.3154 10.0678 17.1526 10.0004 17.0326 9.88034C16.9126 9.76032 16.8452 9.59753 16.8452 9.42779V7.08603H14.6183C14.4485 7.08603 14.2857 7.0186 14.1657 6.89858C14.0457 6.77856 13.9783 6.61577 13.9783 6.44603C13.9783 6.27629 14.0457 6.11351 14.1657 5.99348C14.2857 5.87346 14.4485 5.80603 14.6183 5.80603H17.4852C17.6549 5.80603 17.8177 5.87346 17.9377 5.99348C18.0577 6.11351 18.1252 6.27629 18.1252 6.44603V9.42779C18.1252 9.59753 18.0577 9.76032 17.9377 9.88034C17.8177 10.0004 17.6549 10.0678 17.4852 10.0678Z" fill="#202020"/>
</svg>
