<svg width="24" height="24" viewBox="0 0 24 24" fill="none" xmlns="http://www.w3.org/2000/svg">
<path d="M6.96795 20.4556C6.05984 20.4556 5.18894 20.0949 4.54681 19.4528C3.90469 18.8106 3.54395 17.9397 3.54395 17.0316V6.96795C3.54488 6.06013 3.90592 5.18976 4.54784 4.54784C5.18976 3.90592 6.06013 3.54488 6.96795 3.54395H17.0319C17.9397 3.54496 18.8101 3.90603 19.452 4.54793C20.0939 5.18984 20.4549 6.06016 20.4559 6.96795V17.0319C20.455 17.9398 20.094 18.8101 19.452 19.452C18.8101 20.094 17.9398 20.455 17.0319 20.4559L6.96795 20.4556ZM17.0319 4.82427H6.96795C6.39948 4.82477 5.85444 5.05082 5.45247 5.45279C5.0505 5.85476 4.82445 6.3998 4.82395 6.96826V17.0323C4.82395 17.3138 4.8794 17.5926 4.98715 17.8527C5.09489 18.1129 5.25282 18.3492 5.45191 18.5483C5.651 18.7474 5.88735 18.9053 6.14747 19.0131C6.40759 19.1208 6.68639 19.1763 6.96795 19.1763H17.0319C17.6004 19.1758 18.1455 18.9497 18.5474 18.5477C18.9494 18.1458 19.1754 17.6007 19.1759 17.0323V6.96795C19.1752 6.39958 18.949 5.85473 18.5471 5.45286C18.1452 5.051 17.6003 4.82494 17.0319 4.82427Z" fill="#202020"/>
<path d="M17.485 10.0678C17.3153 10.0678 17.1525 10.0004 17.0325 9.88034C16.9125 9.76032 16.845 9.59753 16.845 9.42779V7.08603H14.6182C14.4484 7.08603 14.2856 7.0186 14.1656 6.89858C14.0456 6.77856 13.9782 6.61577 13.9782 6.44603C13.9782 6.27629 14.0456 6.11351 14.1656 5.99348C14.2856 5.87346 14.4484 5.80603 14.6182 5.80603H17.485C17.6548 5.80603 17.8176 5.87346 17.9376 5.99348C18.0576 6.11351 18.125 6.27629 18.125 6.44603V9.42779C18.125 9.59753 18.0576 9.76032 17.9376 9.88034C17.8176 10.0004 17.6548 10.0678 17.485 10.0678ZM6.494 18.2249C6.32427 18.2249 6.16148 18.1575 6.04146 18.0375C5.92143 17.9174 5.854 17.7546 5.854 17.5849V14.718C5.854 14.5483 5.92143 14.3855 6.04146 14.2655C6.16148 14.1455 6.32427 14.078 6.494 14.078C6.66374 14.078 6.82653 14.1455 6.94655 14.2655C7.06658 14.3855 7.134 14.5483 7.134 14.718V16.9449H9.47576C9.6455 16.9449 9.80829 17.0123 9.92831 17.1324C10.0483 17.2524 10.1158 17.4152 10.1158 17.5849C10.1158 17.7546 10.0483 17.9174 9.92831 18.0375C9.80829 18.1575 9.6455 18.2249 9.47576 18.2249H6.494Z" fill="#202020"/>
<path d="M6.49402 18.2249C6.36813 18.2246 6.24514 18.1872 6.14042 18.1173C6.03571 18.0474 5.95394 17.9482 5.90534 17.832C5.85673 17.7159 5.84346 17.588 5.86717 17.4644C5.89089 17.3407 5.95054 17.2268 6.03866 17.1369L17.0297 5.99646C17.0887 5.93664 17.159 5.88904 17.2364 5.85636C17.3139 5.82369 17.397 5.80659 17.481 5.80604C17.5651 5.80549 17.6484 5.8215 17.7263 5.85316C17.8041 5.88482 17.875 5.9315 17.9348 5.99054C17.9946 6.04958 18.0422 6.11983 18.0749 6.19727C18.1076 6.27471 18.1247 6.35783 18.1252 6.44187C18.1258 6.52592 18.1098 6.60926 18.0781 6.68712C18.0465 6.76498 17.9998 6.83584 17.9407 6.89566L6.9497 18.0345C6.89015 18.0949 6.81919 18.1428 6.74097 18.1755C6.66274 18.2081 6.5788 18.225 6.49402 18.2249Z" fill="#202020"/>
</svg>
