<svg width="24" height="24" viewBox="0 0 24 24" fill="none" xmlns="http://www.w3.org/2000/svg">
<path d="M19.0333 9.33882C18.8635 9.33882 18.7007 9.27139 18.5807 9.15137C18.4607 9.03135 18.3933 8.86856 18.3933 8.69882V5.51706H15.36C15.1902 5.51706 15.0275 5.44963 14.9074 5.32961C14.7874 5.20959 14.72 5.0468 14.72 4.87706C14.72 4.70732 14.7874 4.54454 14.9074 4.42451C15.0275 4.30449 15.1902 4.23706 15.36 4.23706H19.0333C19.203 4.23706 19.3658 4.30449 19.4858 4.42451C19.6058 4.54454 19.6733 4.70732 19.6733 4.87706V8.69882C19.6733 8.86856 19.6058 9.03135 19.4858 9.15137C19.3658 9.27139 19.203 9.33882 19.0333 9.33882ZM4.94591 19.7939C4.77617 19.7939 4.61338 19.7264 4.49336 19.6064C4.37334 19.4864 4.30591 19.3236 4.30591 19.1539V15.4793C4.30591 15.3096 4.37334 15.1468 4.49336 15.0268C4.61338 14.9067 4.77617 14.8393 4.94591 14.8393C5.11565 14.8393 5.27843 14.9067 5.39846 15.0268C5.51848 15.1468 5.58591 15.3096 5.58591 15.4793V18.5139H8.76799C8.93773 18.5139 9.10051 18.5813 9.22054 18.7013C9.34056 18.8213 9.40799 18.9841 9.40799 19.1539C9.40799 19.3236 9.34056 19.4864 9.22054 19.6064C9.10051 19.7264 8.93773 19.7939 8.76799 19.7939H4.94591Z" fill="#202020"/>
<path d="M13.0938 11.5366C12.9678 11.5363 12.8448 11.4989 12.74 11.4291C12.6353 11.3592 12.5535 11.26 12.5048 11.1439C12.4562 11.0277 12.4429 10.8998 12.4666 10.7761C12.4903 10.6525 12.5499 10.5385 12.6381 10.4486L18.5779 4.4275C18.6362 4.36467 18.7066 4.3142 18.7848 4.27907C18.863 4.24395 18.9475 4.2249 19.0332 4.22305C19.1189 4.2212 19.2041 4.23658 19.2837 4.26829C19.3634 4.3 19.4358 4.34739 19.4968 4.40764C19.5578 4.46789 19.6061 4.53978 19.6387 4.61904C19.6714 4.6983 19.6878 4.78331 19.687 4.86903C19.6861 4.95476 19.6681 5.03944 19.6339 5.11806C19.5998 5.19668 19.5501 5.26763 19.488 5.3267L13.5494 11.3462C13.4899 11.4066 13.4189 11.4545 13.3407 11.4871C13.2625 11.5198 13.1785 11.5366 13.0938 11.5366ZM4.94593 19.7939C4.82004 19.7936 4.69704 19.7561 4.59233 19.6862C4.48762 19.6163 4.40584 19.5171 4.35724 19.401C4.30864 19.2849 4.29536 19.157 4.31908 19.0333C4.34279 18.9097 4.40244 18.7958 4.49057 18.7059L10.6406 12.4717C10.7598 12.3508 10.9222 12.2823 11.0919 12.2811C11.2617 12.2799 11.4249 12.3462 11.5458 12.4654C11.6666 12.5846 11.7352 12.7469 11.7363 12.9167C11.7375 13.0864 11.6712 13.2497 11.552 13.3705L5.40161 19.6035C5.34205 19.6638 5.2711 19.7117 5.19287 19.7444C5.11465 19.7771 5.03071 19.7939 4.94593 19.7939Z" fill="#202020"/>
</svg>
