<svg width="24" height="24" viewBox="0 0 24 24" fill="none" xmlns="http://www.w3.org/2000/svg">
<path d="M12.0001 16.6752C10.414 16.6751 8.87698 16.1251 7.65096 15.1189C6.42493 14.1126 5.58574 12.7124 5.27635 11.1568C4.96697 9.60118 5.20654 7.98641 5.95425 6.58763C6.70196 5.18884 7.91155 4.09259 9.37691 3.48565C10.8423 2.87871 12.4727 2.79863 13.9905 3.25907C15.5083 3.7195 16.8195 4.69196 17.7007 6.01075C18.5818 7.32954 18.9785 8.91306 18.823 10.4915C18.6675 12.07 17.9696 13.5457 16.8481 14.6672C16.2129 15.3058 15.4574 15.8122 14.6252 16.1568C13.793 16.5015 12.9008 16.6777 12.0001 16.6752ZM12.0001 4.2432C8.9255 4.2432 6.42406 6.74464 6.42406 9.8192C6.42406 12.8938 8.9255 15.3952 12.0001 15.3952C15.0746 15.3952 17.5761 12.8938 17.5761 9.8192C17.5761 6.74464 15.0746 4.2432 12.0001 4.2432Z" fill="#202020"/>
<path d="M13.7081 12.8256C13.6044 12.8256 13.5023 12.8004 13.4105 12.752L12 12.0106L10.5894 12.752C10.4838 12.8074 10.3647 12.8322 10.2457 12.8235C10.1267 12.8148 10.0125 12.773 9.916 12.7029C9.81949 12.6327 9.74451 12.537 9.69953 12.4265C9.65454 12.3159 9.64135 12.1951 9.66143 12.0775L9.93087 10.5069L8.78975 9.39457C8.70427 9.3112 8.64381 9.20557 8.61522 9.08964C8.58663 8.9737 8.59105 8.85208 8.62797 8.73852C8.66489 8.62497 8.73284 8.524 8.82415 8.44705C8.91545 8.37009 9.02646 8.32021 9.14463 8.30305L10.72 8.07361L11.424 6.64481C11.4769 6.5378 11.5586 6.44772 11.66 6.38473C11.7614 6.32174 11.8784 6.28836 11.9977 6.28836C12.1171 6.28836 12.2341 6.32174 12.3355 6.38473C12.4369 6.44772 12.5186 6.5378 12.5715 6.64481L13.2755 8.07361L14.8525 8.30305C14.9706 8.32021 15.0816 8.37009 15.173 8.44705C15.2643 8.524 15.3322 8.62497 15.3691 8.73852C15.406 8.85208 15.4105 8.9737 15.3819 9.08964C15.3533 9.20557 15.2928 9.3112 15.2073 9.39457L14.0662 10.5069L14.3357 12.0775C14.3514 12.1693 14.3469 12.2635 14.3225 12.3535C14.298 12.4435 14.2542 12.527 14.1941 12.5982C14.134 12.6695 14.059 12.7268 13.9745 12.766C13.89 12.8053 13.7978 12.8256 13.7046 12.8256H13.7081ZM12 10.6474C12.1038 10.6474 12.206 10.6726 12.2979 10.721L12.8582 11.0157L12.7513 10.3917C12.7336 10.2892 12.7411 10.184 12.7731 10.0851C12.8052 9.98618 12.8609 9.89657 12.9353 9.82401L13.3888 9.38209L12.7622 9.29121C12.6595 9.2763 12.562 9.23664 12.4781 9.17566C12.3941 9.11467 12.3262 9.03418 12.2803 8.94113L12 8.37409L11.7197 8.94209C11.6737 9.03514 11.6059 9.11563 11.5219 9.17662C11.438 9.2376 11.3404 9.27726 11.2377 9.29217L10.6112 9.38305L11.0646 9.82401C11.139 9.89647 11.1945 9.98592 11.2266 10.0847C11.2587 10.1834 11.2662 10.2884 11.2486 10.3907L11.1417 11.0147L11.7021 10.72C11.794 10.672 11.8963 10.6471 12 10.6474ZM17.5907 21.0775C17.4973 21.0775 17.405 21.057 17.3203 21.0175C17.2356 20.9781 17.1606 20.9205 17.1005 20.849L13.2096 16.2112C13.1005 16.0812 13.0475 15.9131 13.0623 15.744C13.0772 15.5749 13.1586 15.4186 13.2886 15.3095C13.4187 15.2004 13.5868 15.1474 13.7559 15.1622C13.925 15.177 14.0813 15.2584 14.1904 15.3885L17.3241 19.1242L17.7142 17.8535C17.7504 17.7353 17.8199 17.6301 17.9145 17.5506C18.0091 17.4711 18.1247 17.4207 18.2473 17.4055L19.5667 17.2426L16.6349 13.7482C16.5258 13.6181 16.4728 13.45 16.4876 13.2809C16.5025 13.1118 16.5838 12.9555 16.7139 12.8464C16.844 12.7373 17.012 12.6843 17.1812 12.6992C17.3503 12.714 17.5066 12.7954 17.6157 12.9255L21.304 17.3223C21.3778 17.4105 21.4265 17.5169 21.4449 17.6305C21.4633 17.744 21.4507 17.8604 21.4086 17.9674C21.3665 18.0744 21.2962 18.1681 21.2054 18.2386C21.1145 18.3091 21.0063 18.3538 20.8921 18.368L18.816 18.624L18.2022 20.624C18.162 20.7549 18.0809 20.8695 17.9708 20.9509C17.8607 21.0323 17.7273 21.0762 17.5904 21.0762L17.5907 21.0775ZM5.99839 21.0775C5.86145 21.0775 5.72812 21.0335 5.61799 20.9522C5.50786 20.8708 5.42674 20.7562 5.38655 20.6253L4.77311 18.624L2.69695 18.368C2.5827 18.3539 2.47437 18.3092 2.38339 18.2387C2.2924 18.1681 2.22213 18.0744 2.17996 17.9672C2.1378 17.8601 2.12532 17.7436 2.14382 17.63C2.16232 17.5164 2.21114 17.4098 2.28511 17.3216L6.13407 12.736C6.18776 12.6706 6.2539 12.6165 6.32864 12.5768C6.40339 12.5371 6.48526 12.5127 6.56953 12.5048C6.65379 12.497 6.73877 12.506 6.81955 12.5312C6.90033 12.5564 6.9753 12.5974 7.04013 12.6518C7.10496 12.7062 7.15836 12.7729 7.19723 12.8481C7.2361 12.9233 7.25968 13.0054 7.2666 13.0897C7.27352 13.1741 7.26365 13.259 7.23755 13.3395C7.21145 13.42 7.16964 13.4945 7.11455 13.5587L4.02239 17.2429L5.34175 17.4058C5.46437 17.421 5.57997 17.4714 5.67457 17.5509C5.76917 17.6304 5.83874 17.7356 5.87487 17.8538L6.26495 19.1245L9.48479 15.2864C9.53753 15.2182 9.60352 15.1613 9.67879 15.1193C9.75406 15.0772 9.83706 15.0507 9.9228 15.0415C10.0085 15.0323 10.0953 15.0406 10.1777 15.0657C10.2602 15.0909 10.3368 15.1324 10.4028 15.1879C10.4688 15.2434 10.523 15.3116 10.5619 15.3885C10.6009 15.4654 10.624 15.5494 10.6297 15.6355C10.6354 15.7215 10.6237 15.8078 10.5952 15.8892C10.5667 15.9706 10.5221 16.0454 10.464 16.1091L6.48863 20.849C6.42855 20.9205 6.35352 20.9781 6.26883 21.0175C6.18414 21.057 6.09183 21.0775 5.99839 21.0775Z" fill="#202020"/>
</svg>
