<svg width="24" height="24" viewBox="0 0 24 24" fill="none" xmlns="http://www.w3.org/2000/svg">
<path d="M12 15.456C8.61571 15.456 5.86243 12.704 5.86243 9.3184C5.86243 5.9328 8.61571 3.18176 12 3.18176C15.3843 3.18176 18.1376 5.93376 18.1376 9.31904C18.1376 12.7043 15.3843 15.456 12 15.456ZM12 4.46112C9.32163 4.46112 7.14243 6.64 7.14243 9.3184C7.14243 11.9968 9.32163 14.176 12 14.176C14.6784 14.176 16.8576 11.9971 16.8576 9.3184C16.8576 6.63968 14.6784 4.46176 12 4.46176V4.46112Z" fill="#202020"/>
<path d="M9.26012 20.8182C9.09038 20.8182 8.92759 20.7508 8.80757 20.6308C8.68755 20.5108 8.62012 20.348 8.62012 20.1782V14.1248C8.62012 13.9551 8.68755 13.7923 8.80757 13.6723C8.92759 13.5522 9.09038 13.4848 9.26012 13.4848C9.42986 13.4848 9.59264 13.5522 9.71267 13.6723C9.83269 13.7923 9.90012 13.9551 9.90012 14.1248V19.145L11.7148 18.2419C11.8034 18.1978 11.901 18.1749 12 18.1749C12.0989 18.1749 12.1965 18.1978 12.2851 18.2419L14.0998 19.145V14.441C14.0998 14.2712 14.1672 14.1084 14.2872 13.9884C14.4073 13.8684 14.5701 13.801 14.7398 13.801C14.9095 13.801 15.0723 13.8684 15.1923 13.9884C15.3124 14.1084 15.3798 14.2712 15.3798 14.441V20.1782C15.3798 20.2872 15.352 20.3944 15.299 20.4897C15.246 20.5849 15.1695 20.665 15.0768 20.7224C14.9842 20.7798 14.8784 20.8126 14.7695 20.8177C14.6606 20.8228 14.5523 20.7999 14.4547 20.7514L12 19.5299L9.54524 20.7514C9.45664 20.7954 9.35905 20.8183 9.26012 20.8182Z" fill="#202020"/>
</svg>
