<svg width="24" height="24" viewBox="0 0 24 24" fill="none" xmlns="http://www.w3.org/2000/svg">
<path d="M12.5584 14.2221H7.49855C7.32881 14.2221 7.16603 14.1547 7.046 14.0347C6.92598 13.9146 6.85855 13.7519 6.85855 13.5821C6.85855 13.4124 6.92598 13.2496 7.046 13.1296C7.16603 13.0095 7.32881 12.9421 7.49855 12.9421H12.5584C12.7281 12.9421 12.8909 13.0095 13.0109 13.1296C13.131 13.2496 13.1984 13.4124 13.1984 13.5821C13.1984 13.7519 13.131 13.9146 13.0109 14.0347C12.8909 14.1547 12.7281 14.2221 12.5584 14.2221ZM14.9222 11.058H8.14591C7.97617 11.058 7.81339 10.9905 7.69336 10.8705C7.57334 10.7505 7.50591 10.5877 7.50591 10.418C7.50591 10.2482 7.57334 10.0854 7.69336 9.96541C7.81339 9.84538 7.97617 9.77795 8.14591 9.77795H14.9222C15.092 9.77795 15.2548 9.84538 15.3748 9.96541C15.4948 10.0854 15.5622 10.2482 15.5622 10.418C15.5622 10.5877 15.4948 10.7505 15.3748 10.8705C15.2548 10.9905 15.092 11.058 14.9222 11.058Z" fill="#202020"/>
<path d="M16.7504 20.4557H12.2349C12.0651 20.4557 11.9024 20.3882 11.7823 20.2682C11.6623 20.1482 11.5949 19.9854 11.5949 19.8157C11.5949 19.6459 11.6623 19.4831 11.7823 19.3631C11.9024 19.2431 12.0651 19.1757 12.2349 19.1757H16.7504C17.8723 19.1757 18.785 18.3734 18.785 17.3875V6.61247C18.785 5.62655 17.8723 4.82431 16.7504 4.82431H14.5859C14.4162 4.82431 14.2534 4.75688 14.1334 4.63686C14.0133 4.51684 13.9459 4.35405 13.9459 4.18431C13.9459 4.01457 14.0133 3.85179 14.1334 3.73176C14.2534 3.61174 14.4162 3.54431 14.5859 3.54431H16.7504C18.5782 3.54431 20.065 4.92031 20.065 6.61247V17.3875C20.064 19.079 18.5782 20.4557 16.7504 20.4557Z" fill="#202020"/>
<path d="M13.088 20.4557H6.45919C5.68767 20.4557 5.00351 20.1441 4.53247 19.5786C4.02879 18.9741 3.83071 18.1332 3.98847 17.2717L5.96991 6.49605C6.11487 5.70789 6.53759 4.96933 7.15999 4.41605C7.79327 3.85317 8.56511 3.54309 9.33279 3.54309H15.9619C16.7331 3.54309 17.4176 3.85477 17.8883 4.42021C18.392 5.02469 18.5901 5.86565 18.4323 6.72709L16.4509 17.5041C16.3062 18.2922 15.8835 19.0308 15.2611 19.584C14.6275 20.1456 13.856 20.4557 13.088 20.4557ZM9.33279 4.82437C8.38207 4.82437 7.41855 5.69637 7.22879 6.72837L5.24799 17.5041C5.15871 17.9908 5.25631 18.4487 5.51615 18.7604C5.74271 19.0327 6.06879 19.1764 6.45919 19.1764H13.088C14.0387 19.1764 15.0019 18.3044 15.1917 17.2724L17.1728 6.49605C17.2624 6.00933 17.1648 5.55141 16.905 5.23973C16.6784 4.96741 16.352 4.82373 15.9619 4.82373L9.33279 4.82437Z" fill="#202020"/>
<path d="M9.52255 6.26756C9.42934 6.26732 9.33731 6.2468 9.25283 6.2074C9.16836 6.168 9.09348 6.11068 9.0334 6.03943C8.97331 5.96817 8.92947 5.88468 8.90491 5.79476C8.88036 5.70485 8.87567 5.61066 8.89119 5.51876L9.39775 2.57124C9.41109 2.4876 9.44089 2.40744 9.48542 2.33541C9.52996 2.26337 9.58836 2.20089 9.65722 2.15159C9.72609 2.10229 9.80405 2.06715 9.8866 2.0482C9.96914 2.02926 10.0546 2.02688 10.1381 2.04122C10.2216 2.05555 10.3014 2.08631 10.3729 2.13171C10.4444 2.17712 10.5061 2.23626 10.5546 2.30571C10.6031 2.37516 10.6373 2.45354 10.6552 2.53631C10.6732 2.61908 10.6745 2.70458 10.6592 2.78788L10.1526 5.73572C10.1271 5.88441 10.0499 6.01931 9.93465 6.11662C9.81937 6.21393 9.67341 6.26739 9.52255 6.26756ZM14.9232 6.26756C14.83 6.26737 14.7379 6.24688 14.6534 6.2075C14.5689 6.16813 14.4939 6.11081 14.4338 6.03955C14.3737 5.96828 14.3298 5.88478 14.3053 5.79484C14.2807 5.7049 14.276 5.61069 14.2915 5.51876L14.7984 2.57124C14.8117 2.4876 14.8415 2.40744 14.8861 2.33541C14.9306 2.26337 14.989 2.20089 15.0579 2.15159C15.1267 2.10229 15.2047 2.06715 15.2872 2.0482C15.3698 2.02926 15.4553 2.02688 15.5387 2.04122C15.6222 2.05555 15.702 2.08631 15.7735 2.13171C15.845 2.17712 15.9068 2.23626 15.9552 2.30571C16.0037 2.37516 16.0379 2.45354 16.0559 2.53631C16.0738 2.61908 16.0752 2.70458 16.0598 2.78788L15.552 5.73572C15.5265 5.88419 15.4495 6.01893 15.3345 6.11621C15.2195 6.21349 15.0738 6.26709 14.9232 6.26756Z" fill="#202020"/>
</svg>
