<svg width="24" height="24" viewBox="0 0 24 24" fill="none" xmlns="http://www.w3.org/2000/svg">
<path d="M16.8182 19.0135H16.8102C16.0937 19.0135 15.4065 18.7288 14.8998 18.2221C14.3931 17.7154 14.1085 17.0282 14.1085 16.3117C14.1085 15.5951 14.3931 14.9079 14.8998 14.4013C15.4065 13.8946 16.0937 13.6099 16.8102 13.6099H16.8182C17.5348 13.6099 18.222 13.8946 18.7287 14.4013C19.2354 14.9079 19.52 15.5951 19.52 16.3117C19.52 17.0282 19.2354 17.7154 18.7287 18.2221C18.222 18.7288 17.5348 19.0135 16.8182 19.0135ZM16.8102 14.8899C16.4332 14.8899 16.0715 15.0397 15.8049 15.3064C15.5383 15.573 15.3885 15.9346 15.3885 16.3117C15.3885 16.6888 15.5383 17.0504 15.8049 17.317C16.0715 17.5837 16.4332 17.7335 16.8102 17.7335H16.8182C17.1953 17.7335 17.5569 17.5837 17.8236 17.317C18.0902 17.0504 18.24 16.6888 18.24 16.3117C18.24 15.9346 18.0902 15.573 17.8236 15.3064C17.5569 15.0397 17.1953 14.8899 16.8182 14.8899H16.8102ZM16.8182 10.3901H16.8102C16.0937 10.3901 15.4065 10.1054 14.8998 9.59877C14.3931 9.09209 14.1085 8.40488 14.1085 7.68833C14.1085 6.97178 14.3931 6.28458 14.8998 5.7779C15.4065 5.27122 16.0937 4.98657 16.8102 4.98657H16.8182C17.5348 4.98657 18.222 5.27122 18.7287 5.7779C19.2354 6.28458 19.52 6.97178 19.52 7.68833C19.52 8.40488 19.2354 9.09209 18.7287 9.59877C18.222 10.1054 17.5348 10.3901 16.8182 10.3901ZM16.8102 6.26657C16.4332 6.26657 16.0715 6.41636 15.8049 6.683C15.5383 6.94963 15.3885 7.31126 15.3885 7.68833C15.3885 8.06541 15.5383 8.42704 15.8049 8.69367C16.0715 8.9603 16.4332 9.11009 16.8102 9.11009H16.8182C17.1953 9.11009 17.5569 8.9603 17.8236 8.69367C18.0902 8.42704 18.24 8.06541 18.24 7.68833C18.24 7.31126 18.0902 6.94963 17.8236 6.683C17.5569 6.41636 17.1953 6.26657 16.8182 6.26657H16.8102ZM8.74368 10.3901H8.736C8.01945 10.3901 7.33225 10.1054 6.82557 9.59877C6.31889 9.09209 6.03424 8.40488 6.03424 7.68833C6.03424 6.97178 6.31889 6.28458 6.82557 5.7779C7.33225 5.27122 8.01945 4.98657 8.736 4.98657H8.74368C9.46023 4.98657 10.1474 5.27122 10.6541 5.7779C11.1608 6.28458 11.4454 6.97178 11.4454 7.68833C11.4454 8.40488 11.1608 9.09209 10.6541 9.59877C10.1474 10.1054 9.46023 10.3901 8.74368 10.3901ZM8.736 6.26657C8.35893 6.26657 7.9973 6.41636 7.73066 6.683C7.46403 6.94963 7.31424 7.31126 7.31424 7.68833C7.31424 8.06541 7.46403 8.42704 7.73066 8.69367C7.9973 8.9603 8.35893 9.11009 8.736 9.11009H8.74368C9.12075 9.11009 9.48239 8.9603 9.74902 8.69367C10.0156 8.42704 10.1654 8.06541 10.1654 7.68833C10.1654 7.31126 10.0156 6.94963 9.74902 6.683C9.48239 6.41636 9.12075 6.26657 8.74368 6.26657H8.736ZM8.74368 19.0135H8.736C8.01945 19.0135 7.33225 18.7288 6.82557 18.2221C6.31889 17.7154 6.03424 17.0282 6.03424 16.3117C6.03424 15.5951 6.31889 14.9079 6.82557 14.4013C7.33225 13.8946 8.01945 13.6099 8.736 13.6099H8.74368C9.46023 13.6099 10.1474 13.8946 10.6541 14.4013C11.1608 14.9079 11.4454 15.5951 11.4454 16.3117C11.4454 17.0282 11.1608 17.7154 10.6541 18.2221C10.1474 18.7288 9.46023 19.0135 8.74368 19.0135ZM8.736 14.8899C8.35893 14.8899 7.9973 15.0397 7.73066 15.3064C7.46403 15.573 7.31424 15.9346 7.31424 16.3117C7.31424 16.6888 7.46403 17.0504 7.73066 17.317C7.9973 17.5837 8.35893 17.7335 8.736 17.7335H8.74368C9.12075 17.7335 9.48239 17.5837 9.74902 17.317C10.0156 17.0504 10.1654 16.6888 10.1654 16.3117C10.1654 15.9346 10.0156 15.573 9.74902 15.3064C9.48239 15.0397 9.12075 14.8899 8.74368 14.8899H8.736Z" fill="#202020"/>
</svg>
