<svg width="24" height="24" viewBox="0 0 24 24" fill="none" xmlns="http://www.w3.org/2000/svg">
<path d="M11.9859 20.9677H11.9708C11.8481 20.9648 11.7288 20.9267 11.6271 20.858C11.5255 20.7892 11.4457 20.6927 11.3974 20.5798L10.1859 17.7501H6.49595C4.86843 17.7501 3.54395 16.2733 3.54395 14.4582V8.88448C3.54395 7.06912 4.86843 5.59232 6.49595 5.59232H17.5039C19.1315 5.59232 20.4559 7.06912 20.4559 8.88448V14.4579C20.4559 16.273 19.1315 17.7498 17.5039 17.7498H13.9455L12.5619 20.608C12.5093 20.716 12.4274 20.8069 12.3255 20.8705C12.2236 20.9341 12.106 20.9678 11.9859 20.9677ZM6.49595 6.87232C5.57403 6.87232 4.82395 7.77504 4.82395 8.88448V14.4579C4.82395 15.5674 5.57403 16.4698 6.49595 16.4698H10.6079C10.7333 16.4697 10.8558 16.5065 10.9604 16.5755C11.0651 16.6445 11.1471 16.7427 11.1964 16.8579L12.0217 18.784L12.9683 16.832C13.0207 16.7238 13.1025 16.6326 13.2044 16.5687C13.3063 16.5049 13.424 16.471 13.5443 16.471H17.5039C18.4259 16.471 19.1759 15.5686 19.1759 14.4592V8.88448C19.1759 7.77504 18.4259 6.87232 17.5039 6.87232H6.49595Z" fill="#202020"/>
<path d="M9.15615 13.9766C8.98986 13.9766 8.8301 13.9119 8.71071 13.7961L7.40095 12.5273C7.34021 12.4685 7.29174 12.3982 7.25834 12.3205C7.22493 12.2428 7.20726 12.1592 7.20634 12.0747C7.20541 11.9901 7.22126 11.9062 7.25296 11.8278C7.28466 11.7494 7.33159 11.678 7.39103 11.6179L8.77791 10.2137C8.8366 10.1523 8.90693 10.1033 8.98478 10.0693C9.06263 10.0354 9.14646 10.0173 9.23138 10.0161C9.31629 10.0149 9.4006 10.0306 9.47938 10.0623C9.55817 10.094 9.62985 10.1411 9.69026 10.2008C9.75067 10.2605 9.7986 10.3316 9.83125 10.41C9.8639 10.4884 9.88062 10.5725 9.88044 10.6574C9.88026 10.7423 9.86318 10.8264 9.83019 10.9046C9.7972 10.9829 9.74897 11.0538 9.68831 11.1132L8.75583 12.0576L9.59999 12.8768C9.69157 12.9654 9.75459 13.0794 9.78098 13.2041C9.80737 13.3288 9.79592 13.4585 9.74811 13.5767C9.70029 13.6948 9.61828 13.796 9.51258 13.8673C9.40689 13.9385 9.28233 13.9766 9.15487 13.9766H9.15615ZM14.8438 13.9766C14.7165 13.9763 14.5921 13.9381 14.4866 13.8667C14.3811 13.7954 14.2993 13.6942 14.2516 13.5761C14.204 13.458 14.1926 13.3284 14.2191 13.2038C14.2455 13.0792 14.3085 12.9653 14.4 12.8768L15.2454 12.0576L14.3129 11.1132C14.2523 11.0538 14.2041 10.9829 14.1711 10.9046C14.1381 10.8264 14.121 10.7423 14.1208 10.6574C14.1206 10.5725 14.1374 10.4884 14.17 10.41C14.2027 10.3316 14.2506 10.2605 14.311 10.2008C14.3714 10.1411 14.4431 10.094 14.5219 10.0623C14.6007 10.0306 14.685 10.0149 14.7699 10.0161C14.8548 10.0173 14.9386 10.0354 15.0165 10.0693C15.0943 10.1033 15.1647 10.1523 15.2233 10.2137L16.608 11.6179C16.6674 11.678 16.7144 11.7494 16.7461 11.8278C16.7778 11.9062 16.7936 11.9901 16.7927 12.0747C16.7918 12.1592 16.7741 12.2428 16.7407 12.3205C16.7073 12.3982 16.6588 12.4685 16.5981 12.5273L15.2883 13.7961C15.1692 13.9116 15.0098 13.9763 14.8438 13.9766ZM11.0208 14.7478C10.9143 14.7478 10.8095 14.7212 10.7159 14.6704C10.6223 14.6196 10.5428 14.5463 10.4847 14.4571C10.4266 14.3679 10.3916 14.2655 10.383 14.1594C10.3745 14.0533 10.3925 13.9466 10.4355 13.8492L12.3805 9.44731C12.4132 9.36863 12.4613 9.29728 12.522 9.23744C12.5827 9.1776 12.6547 9.13049 12.7338 9.09885C12.8129 9.06722 12.8976 9.05171 12.9828 9.05323C13.068 9.05475 13.152 9.07328 13.23 9.10771C13.3079 9.14215 13.3782 9.19181 13.4367 9.25377C13.4952 9.31573 13.5408 9.38876 13.5707 9.46856C13.6006 9.54836 13.6142 9.63333 13.6109 9.71848C13.6075 9.80363 13.5872 9.88725 13.551 9.96443L11.6064 14.368C11.556 14.4812 11.4739 14.5773 11.3699 14.6447C11.266 14.7122 11.1447 14.748 11.0208 14.7478Z" fill="#202020"/>
</svg>
