<svg width="24" height="24" viewBox="0 0 24 24" fill="none" xmlns="http://www.w3.org/2000/svg">
<path d="M12.8639 12.384C12.7308 12.384 12.6011 12.3426 12.4927 12.2654C12.3843 12.1883 12.3026 12.0793 12.2591 11.9536L10.5212 6.94399C10.4936 6.86457 10.482 6.7805 10.487 6.69658C10.4919 6.61267 10.5134 6.53055 10.5501 6.45493C10.5868 6.3793 10.638 6.31164 10.7008 6.25582C10.7637 6.2 10.8369 6.15711 10.9164 6.12959L19.8124 3.04511C19.8918 3.01757 19.9758 3.00595 20.0598 3.01091C20.1437 3.01587 20.2258 3.03731 20.3014 3.07401C20.377 3.11071 20.4447 3.16195 20.5005 3.2248C20.5563 3.28765 20.5992 3.36088 20.6268 3.44031L22.3631 8.44799C22.3906 8.52741 22.4022 8.61148 22.3973 8.6954C22.3923 8.77931 22.3709 8.86143 22.3342 8.93706C22.2975 9.01268 22.2462 9.08034 22.1834 9.13616C22.1205 9.19198 22.0473 9.23488 21.9679 9.26239L13.0719 12.3469C13.0051 12.3708 12.9348 12.3833 12.8639 12.384ZM11.9404 7.13023L13.2572 10.929L20.9439 8.26399L19.6268 4.46527L11.9404 7.13023Z" fill="#202020"/>
<path d="M7.13601 13.2621C7.00289 13.2623 6.87304 13.2209 6.76452 13.1438C6.65601 13.0667 6.57423 12.9577 6.53057 12.832L5.47969 9.80064C5.42406 9.64028 5.43441 9.46439 5.50846 9.31166C5.58251 9.15893 5.71421 9.04187 5.87457 8.98624L11.2592 7.11936C11.4195 7.06383 11.5953 7.07423 11.748 7.14827C11.9006 7.22232 12.0176 7.35395 12.0733 7.51424L13.1245 10.5456C13.152 10.625 13.1636 10.7091 13.1587 10.793C13.1537 10.8769 13.1323 10.959 13.0956 11.0347C13.0589 11.1103 13.0076 11.1779 12.9448 11.2338C12.8819 11.2896 12.8087 11.3325 12.7293 11.36L7.34497 13.2266C7.27777 13.2499 7.20715 13.2619 7.13601 13.2621ZM6.89921 9.9856L7.53025 11.808L11.7053 10.3603L11.0736 8.53824L6.89921 9.9856Z" fill="#202020"/>
<path d="M3.01817 14.2464C2.88519 14.2463 2.75552 14.2049 2.64719 14.1277C2.53886 14.0506 2.45724 13.9416 2.41369 13.816L1.63673 11.576C1.60915 11.4965 1.59749 11.4124 1.60242 11.3285C1.60736 11.2445 1.62879 11.1624 1.66549 11.0867C1.70219 11.011 1.75345 10.9434 1.81632 10.8875C1.8792 10.8317 1.95246 10.7888 2.03193 10.7613L6.01177 9.38141C6.17209 9.32588 6.3479 9.33628 6.50056 9.41033C6.65321 9.48438 6.77022 9.61601 6.82585 9.77629L7.60281 12.0163C7.63055 12.0958 7.64232 12.18 7.63746 12.264C7.6326 12.3481 7.6112 12.4304 7.57448 12.5061C7.53777 12.5819 7.48647 12.6497 7.42351 12.7056C7.36056 12.7615 7.28719 12.8045 7.20761 12.832L3.22809 14.2112C3.16054 14.2344 3.08961 14.2463 3.01817 14.2464ZM3.05593 11.7609L3.41337 12.792L6.18361 11.832L5.82617 10.8009L3.05593 11.7609ZM9.05209 20.9894C8.95028 20.9892 8.84997 20.9648 8.7595 20.9181C8.66904 20.8713 8.59103 20.8037 8.53195 20.7208C8.47287 20.6378 8.43443 20.542 8.41982 20.4413C8.4052 20.3405 8.41484 20.2377 8.44793 20.1414L11.6051 10.9369C11.6479 10.8118 11.7285 10.7031 11.8358 10.6256C11.943 10.5482 12.0716 10.5059 12.2038 10.5045C12.3361 10.5031 12.4655 10.5428 12.5743 10.618C12.6831 10.6932 12.766 10.8003 12.8115 10.9245L16.1801 20.128C16.2384 20.2874 16.2311 20.4635 16.1596 20.6175C16.0881 20.7715 15.9584 20.8907 15.799 20.9491C15.6395 21.0074 15.4635 21.0001 15.3095 20.9286C15.1555 20.8571 15.0362 20.7274 14.9779 20.568L12.2291 13.0585L9.65721 20.5568C9.614 20.6829 9.53245 20.7925 9.42396 20.87C9.31547 20.9476 9.18546 20.9893 9.05209 20.9894Z" fill="#202020"/>
</svg>
