<svg width="24" height="24" viewBox="0 0 24 24" fill="none" xmlns="http://www.w3.org/2000/svg">
<path d="M14.9019 20.0592H8.29486C7.82105 20.0587 7.36679 19.8703 7.03181 19.5352C6.69684 19.2001 6.50855 18.7458 6.5083 18.272V10.422C6.50876 10.1809 6.55782 9.94226 6.65256 9.72047C6.74729 9.49868 6.88575 9.29825 7.05966 9.13117L9.28014 7.00572C9.39919 6.8918 9.5576 6.82819 9.72238 6.82812H13.428C13.5909 6.82813 13.7477 6.89027 13.8664 7.00188L16.1256 9.12637C16.3029 9.29368 16.4442 9.49538 16.5409 9.71914C16.6376 9.9429 16.6877 10.184 16.6881 10.4278V18.272C16.6879 18.7457 16.4996 19.2 16.1647 19.5351C15.8298 19.8702 15.3757 20.0587 14.9019 20.0592ZM9.9803 8.10813L7.94478 10.056C7.89541 10.1033 7.85611 10.1602 7.82922 10.2231C7.80234 10.286 7.78842 10.3536 7.7883 10.422V18.272C7.78847 18.4062 7.8419 18.5349 7.93687 18.6299C8.03185 18.7248 8.16059 18.7781 8.29486 18.7782H14.9019C15.0361 18.778 15.1648 18.7246 15.2597 18.6297C15.3546 18.5348 15.408 18.4062 15.4081 18.272V10.4278C15.4079 10.3587 15.3936 10.2903 15.3661 10.2269C15.3386 10.1634 15.2985 10.1063 15.2481 10.0588L13.1736 8.10684L9.9803 8.10813Z" fill="#202020"/>
<path d="M13.5643 8.1082H9.57582C9.12177 8.1082 8.68632 7.92783 8.36525 7.60677C8.04419 7.28571 7.86382 6.85025 7.86382 6.3962C7.86382 5.94215 8.04419 5.5067 8.36525 5.18564C8.68632 4.86457 9.12177 4.6842 9.57582 4.6842H13.5643C14.0184 4.6842 14.4538 4.86457 14.7749 5.18564C15.0959 5.5067 15.2763 5.94215 15.2763 6.3962C15.2763 6.85025 15.0959 7.28571 14.7749 7.60677C14.4538 7.92783 14.0184 8.1082 13.5643 8.1082ZM9.57582 5.9642C9.46125 5.9642 9.35137 6.00972 9.27035 6.09073C9.18933 6.17175 9.14382 6.28163 9.14382 6.3962C9.14382 6.51078 9.18933 6.62066 9.27035 6.70167C9.35137 6.78269 9.46125 6.8282 9.57582 6.8282H13.5643C13.6789 6.8282 13.7888 6.78269 13.8698 6.70167C13.9508 6.62066 13.9963 6.51078 13.9963 6.3962C13.9963 6.28163 13.9508 6.17175 13.8698 6.09073C13.7888 6.00972 13.6789 5.9642 13.5643 5.9642H9.57582ZM16.0481 15.9258H13.2177C12.7916 15.9244 12.3745 15.8031 12.014 15.576C11.6535 15.3488 11.3642 15.0248 11.179 14.641C11.0988 14.4746 10.9734 14.3341 10.8171 14.2355C10.6608 14.137 10.4799 14.0845 10.2952 14.0839H7.1483C6.97856 14.0839 6.81578 14.0165 6.69575 13.8964C6.57573 13.7764 6.5083 13.6136 6.5083 13.4439C6.5083 13.2741 6.57573 13.1114 6.69575 12.9913C6.81578 12.8713 6.97856 12.8039 7.1483 12.8039H10.2952C10.7212 12.8054 11.1383 12.9266 11.4987 13.1538C11.8592 13.381 12.1485 13.7049 12.3336 14.0887C12.4139 14.2551 12.5394 14.3956 12.6957 14.4941C12.8521 14.5926 13.033 14.6452 13.2177 14.6458H16.0481C16.2179 14.6458 16.3807 14.7132 16.5007 14.8333C16.6207 14.9533 16.6881 15.1161 16.6881 15.2858C16.6881 15.4555 16.6207 15.6183 16.5007 15.7384C16.3807 15.8584 16.2179 15.9258 16.0481 15.9258Z" fill="#202020"/>
</svg>
