<svg width="24" height="24" viewBox="0 0 24 24" fill="none" xmlns="http://www.w3.org/2000/svg">
<path d="M16.5325 20.7901C16.1717 20.7901 15.8191 20.6831 15.5191 20.4827C15.2192 20.2823 14.9854 19.9974 14.8473 19.6641C14.7093 19.3308 14.6732 18.9641 14.7435 18.6102C14.8139 18.2564 14.9876 17.9314 15.2427 17.6763C15.4978 17.4212 15.8228 17.2475 16.1767 17.1771C16.5305 17.1067 16.8972 17.1429 17.2305 17.2809C17.5638 17.419 17.8487 17.6528 18.0491 17.9527C18.2495 18.2527 18.3565 18.6053 18.3565 18.9661C18.3565 19.4498 18.1643 19.9138 17.8223 20.2558C17.4802 20.5979 17.0163 20.7901 16.5325 20.7901ZM16.5325 18.4246C16.4249 18.4246 16.3197 18.4565 16.2303 18.5163C16.1408 18.5761 16.0711 18.6611 16.0299 18.7605C15.9887 18.8599 15.978 18.9692 15.9989 19.0748C16.0199 19.1803 16.0718 19.2772 16.1478 19.3533C16.2239 19.4294 16.3208 19.4812 16.4264 19.5022C16.5319 19.5232 16.6413 19.5124 16.7407 19.4712C16.8401 19.4301 16.925 19.3603 16.9848 19.2709C17.0446 19.1814 17.0765 19.0762 17.0765 18.9686C17.0765 18.8244 17.0192 18.686 16.9172 18.584C16.8151 18.482 16.6768 18.4246 16.5325 18.4246Z" fill="#202020"/>
<path d="M17.715 19.5379C17.5452 19.5379 17.3824 19.4705 17.2624 19.3505C17.1424 19.2305 17.075 19.0677 17.075 18.8979V14.912C17.0766 14.4891 17.2306 14.0809 17.5086 13.7622C17.7866 13.4434 18.1701 13.2355 18.5889 13.1763L21.0209 12.8426C21.2685 12.809 21.5204 12.8288 21.7597 12.9007C21.9991 12.9725 22.2203 13.0947 22.4085 13.2591C22.5967 13.4234 22.7476 13.6261 22.851 13.8536C22.9544 14.0811 23.008 14.328 23.0081 14.5779V18.2579C23.0081 18.4277 22.9406 18.5905 22.8206 18.7105C22.7006 18.8305 22.5378 18.8979 22.3681 18.8979C22.1983 18.8979 22.0355 18.8305 21.9155 18.7105C21.7955 18.5905 21.7281 18.4277 21.7281 18.2579V14.5779C21.7278 14.5108 21.7132 14.4445 21.6853 14.3835C21.6574 14.3224 21.6168 14.2681 21.5661 14.224C21.5155 14.1799 21.4561 14.1471 21.3918 14.1278C21.3275 14.1085 21.2599 14.1031 21.1933 14.112L18.763 14.4458C18.6503 14.4615 18.5471 14.5173 18.4721 14.6029C18.3972 14.6885 18.3556 14.7982 18.355 14.912V18.8979C18.355 19.0677 18.2875 19.2305 18.1675 19.3505C18.0475 19.4705 17.8847 19.5379 17.715 19.5379Z" fill="#202020"/>
<path d="M21.187 20.1219C20.8262 20.1222 20.4734 20.0155 20.1732 19.8153C19.873 19.6151 19.639 19.3303 19.5007 18.997C19.3624 18.6638 19.326 18.297 19.3962 17.9431C19.4664 17.5891 19.64 17.264 19.8951 17.0087C20.1501 16.7535 20.4751 16.5796 20.829 16.5091C21.1828 16.4386 21.5496 16.4746 21.883 16.6126C22.2164 16.7506 22.5014 16.9844 22.7019 17.2844C22.9024 17.5844 23.0094 17.9371 23.0094 18.2979C23.0094 18.7814 22.8174 19.2451 22.4757 19.5871C22.134 19.9291 21.6705 20.1215 21.187 20.1219ZM21.187 17.7568C21.0793 17.7565 20.974 17.7881 20.8843 17.8477C20.7946 17.9073 20.7247 17.9921 20.6833 18.0915C20.6418 18.1909 20.6308 18.3003 20.6516 18.4059C20.6725 18.5116 20.7241 18.6087 20.8002 18.6849C20.8762 18.7611 20.9731 18.8131 21.0787 18.8342C21.1842 18.8553 21.2937 18.8447 21.3932 18.8035C21.4927 18.7624 21.5777 18.6927 21.6376 18.6032C21.6974 18.5137 21.7294 18.4085 21.7294 18.3008C21.7294 18.1568 21.6723 18.0187 21.5706 17.9167C21.4689 17.8147 21.331 17.7572 21.187 17.7568ZM13.3639 20.4557H7.67083C6.76301 20.4547 5.89264 20.0937 5.25072 19.4518C4.6088 18.8099 4.24776 17.9395 4.24683 17.0317V6.968C4.24776 6.06018 4.6088 5.18982 5.25072 4.54789C5.89264 3.90597 6.76301 3.54493 7.67083 3.544H17.7348C18.6426 3.54493 19.513 3.90597 20.1549 4.54789C20.7969 5.18982 21.1579 6.06018 21.1588 6.968V11.3421C21.1588 11.5118 21.0914 11.6746 20.9714 11.7946C20.8513 11.9146 20.6886 11.9821 20.5188 11.9821C20.3491 11.9821 20.1863 11.9146 20.0663 11.7946C19.9463 11.6746 19.8788 11.5118 19.8788 11.3421V6.968C19.8783 6.39953 19.6523 5.85449 19.2503 5.45252C18.8483 5.05056 18.3033 4.82451 17.7348 4.824H7.67083C7.10236 4.82451 6.55732 5.05056 6.15535 5.45252C5.75338 5.85449 5.52733 6.39953 5.52683 6.968V17.032C5.52733 17.6005 5.75338 18.1455 6.15535 18.5475C6.55732 18.9494 7.10236 19.1755 7.67083 19.176H13.3639C13.5337 19.176 13.6965 19.2434 13.8165 19.3634C13.9365 19.4835 14.0039 19.6463 14.0039 19.816C14.0039 19.9857 13.9365 20.1485 13.8165 20.2685C13.6965 20.3886 13.5337 20.456 13.3639 20.456V20.4557Z" fill="#202020"/>
</svg>
