<svg width="24" height="24" viewBox="0 0 24 24" fill="none" xmlns="http://www.w3.org/2000/svg">
<path d="M14.879 18.5533H9.7456C9.66123 18.5533 9.57769 18.5366 9.49979 18.5042C9.42189 18.4718 9.35117 18.4243 9.29169 18.3645C9.23221 18.3046 9.18515 18.2336 9.15321 18.1555C9.12127 18.0774 9.10509 17.9938 9.1056 17.9094L9.12416 14.7613C8.17294 14.2049 7.38401 13.4092 6.83589 12.4532C6.28777 11.4972 5.99958 10.4143 6 9.31232C6 5.83168 8.83168 3 12.3123 3C15.793 3 18.6246 5.83168 18.6246 9.31232C18.6251 10.4143 18.3369 11.4972 17.7887 12.4532C17.2406 13.4092 16.4517 14.2049 15.5005 14.7613L15.519 17.9094C15.5195 17.9938 15.5034 18.0774 15.4714 18.1555C15.4395 18.2336 15.3924 18.3046 15.333 18.3645C15.2735 18.4243 15.2027 18.4718 15.1248 18.5042C15.0469 18.5366 14.9634 18.5533 14.879 18.5533ZM10.3894 17.2733H14.2352L14.2182 14.3866C14.2174 14.2673 14.2499 14.1502 14.3121 14.0484C14.3743 13.9466 14.4637 13.8642 14.5702 13.8106C15.4059 13.3937 16.1084 12.7516 16.5985 11.9567C17.0887 11.1619 17.347 10.2458 17.3443 9.312C17.3443 6.53728 15.087 4.27968 12.312 4.27968C9.53696 4.27968 7.28 6.5376 7.28 9.31232C7.27737 10.2461 7.53571 11.1621 8.02586 11.9569C8.51602 12.7517 9.2185 13.3937 10.0541 13.8106C10.1606 13.8642 10.25 13.9466 10.3122 14.0484C10.3744 14.1502 10.4069 14.2673 10.4061 14.3866L10.3894 17.2733ZM15.0787 20.4237H9.29792C9.12818 20.4237 8.9654 20.3563 8.84537 20.2362C8.72535 20.1162 8.65792 19.9534 8.65792 19.7837C8.65792 19.6139 8.72535 19.4512 8.84537 19.3311C8.9654 19.2111 9.12818 19.1437 9.29792 19.1437H15.0787C15.2485 19.1437 15.4112 19.2111 15.5313 19.3311C15.6513 19.4512 15.7187 19.6139 15.7187 19.7837C15.7187 19.9534 15.6513 20.1162 15.5313 20.2362C15.4112 20.3563 15.2485 20.4237 15.0787 20.4237Z" fill="#202020"/>
<path d="M12.1155 12.3098C12.0098 12.3097 11.9058 12.2835 11.8127 12.2333C11.7196 12.1832 11.6403 12.1108 11.582 12.0226C11.5237 11.9344 11.4882 11.8331 11.4786 11.7278C11.469 11.6226 11.4857 11.5165 11.5271 11.4192L12.0515 10.1866H11.2125C11.1048 10.1867 10.9987 10.1595 10.9043 10.1077C10.8098 10.0558 10.7299 9.98098 10.6721 9.89006C10.6143 9.79914 10.5804 9.69508 10.5735 9.58755C10.5666 9.48002 10.5869 9.37248 10.6327 9.27491L11.7332 6.92579C11.7689 6.84969 11.8192 6.78137 11.8814 6.72473C11.9435 6.66809 12.0161 6.62424 12.0952 6.59568C12.1743 6.56712 12.2582 6.55442 12.3422 6.5583C12.4262 6.56218 12.5086 6.58256 12.5847 6.61827C12.6608 6.65399 12.7291 6.70435 12.7857 6.76648C12.8424 6.8286 12.8862 6.90127 12.9148 6.98035C12.9433 7.05942 12.956 7.14334 12.9522 7.22732C12.9483 7.3113 12.9279 7.39369 12.8922 7.46979L12.2202 8.90755H13.0202C13.1259 8.90757 13.2301 8.9338 13.3232 8.98389C13.4163 9.03398 13.4956 9.10637 13.5539 9.19459C13.6123 9.2828 13.6478 9.3841 13.6574 9.48942C13.667 9.59474 13.6504 9.7008 13.609 9.79812L12.7056 11.9213C12.6563 12.0368 12.574 12.1353 12.469 12.2044C12.3641 12.2734 12.2412 12.3101 12.1155 12.3098Z" fill="#202020"/>
</svg>
