<svg width="24" height="24" viewBox="0 0 24 24" fill="none" xmlns="http://www.w3.org/2000/svg">
<path d="M16.4003 20.0001H7.35682C6.52397 19.9992 5.72551 19.6679 5.13663 19.0789C4.54775 18.49 4.21655 17.6915 4.2157 16.8587V7.81673C4.21655 6.98389 4.54775 6.18539 5.13663 5.59645C5.72551 5.00751 6.52397 4.67622 7.35682 4.67529H14.3898C14.5595 4.67529 14.7223 4.74272 14.8423 4.86274C14.9623 4.98277 15.0298 5.14555 15.0298 5.31529C15.0298 5.48503 14.9623 5.64782 14.8423 5.76784C14.7223 5.88786 14.5595 5.95529 14.3898 5.95529H7.35682C6.86334 5.95589 6.39026 6.1522 6.04135 6.50117C5.69244 6.85014 5.49621 7.32326 5.4957 7.81673V16.8599C5.49654 17.3532 5.69293 17.826 6.0418 18.1747C6.39067 18.5234 6.86357 18.7195 7.35682 18.7201H16.4003C16.8938 18.7195 17.3669 18.5232 17.7158 18.1742C18.0647 17.8252 18.2609 17.3521 18.2615 16.8587V9.28009C18.2615 9.11035 18.3289 8.94757 18.4489 8.82754C18.5689 8.70752 18.7317 8.64009 18.9015 8.64009C19.0712 8.64009 19.234 8.70752 19.354 8.82754C19.474 8.94757 19.5415 9.11035 19.5415 9.28009V16.8599C19.5403 17.6926 19.2089 18.4907 18.6201 19.0794C18.0312 19.6681 17.233 19.9992 16.4003 20.0001Z" fill="#202020"/>
<path d="M17.548 8.47278C17.1055 8.47284 16.6729 8.34168 16.305 8.09589C15.937 7.85009 15.6503 7.50071 15.4809 7.09191C15.3115 6.68312 15.2672 6.23328 15.3535 5.79929C15.4398 5.36531 15.6529 4.96666 15.9658 4.65377C16.2787 4.34089 16.6773 4.12782 17.1113 4.04151C17.5453 3.9552 17.9951 3.99953 18.4039 4.16889C18.8127 4.33825 19.1621 4.62504 19.4079 4.99298C19.6537 5.36092 19.7848 5.79349 19.7848 6.23598C19.7839 6.82895 19.548 7.3974 19.1287 7.8167C18.7094 8.236 18.141 8.47193 17.548 8.47278ZM17.548 5.27886C17.3587 5.27879 17.1736 5.33487 17.0161 5.44C16.8587 5.54514 16.736 5.6946 16.6635 5.86948C16.591 6.04437 16.572 6.23682 16.6089 6.4225C16.6458 6.60819 16.7369 6.77876 16.8708 6.91265C17.0046 7.04654 17.1751 7.13773 17.3608 7.17468C17.5465 7.21164 17.7389 7.1927 17.9139 7.12027C18.0888 7.04784 18.2383 6.92516 18.3435 6.76776C18.4486 6.61035 18.5048 6.42529 18.5048 6.23598C18.5042 5.98249 18.4032 5.73956 18.2238 5.56041C18.0445 5.38126 17.8015 5.28047 17.548 5.28014V5.27886ZM9.14478 17.836C8.97537 17.8359 8.81288 17.7687 8.69294 17.6491L6.88526 15.8459C6.57008 15.5319 6.38333 15.1117 6.36153 14.6673C6.33972 14.223 6.48442 13.7865 6.76734 13.4432C7.05025 13.0998 7.45105 12.8744 7.89137 12.8109C8.33169 12.7473 8.77987 12.8503 9.1483 13.0997C9.4911 12.8834 9.89717 12.79 10.3 12.8347C10.7028 12.8794 11.0785 13.0596 11.3656 13.3457C11.7008 13.6808 11.8894 14.1352 11.8899 14.6091C11.8905 15.0831 11.7029 15.5379 11.3685 15.8737L9.5979 17.6481C9.47803 17.7682 9.3154 17.8358 9.14574 17.836H9.14478ZM8.14734 14.0734C8.04699 14.0735 7.94891 14.1032 7.8655 14.159C7.78209 14.2148 7.71711 14.2941 7.67878 14.3869C7.64044 14.4796 7.63048 14.5816 7.65014 14.68C7.66981 14.7784 7.71822 14.8688 7.78926 14.9397L9.14382 16.291L10.4625 14.9691C10.5575 14.8739 10.6109 14.745 10.6109 14.6105C10.6109 14.4761 10.5575 14.3471 10.4625 14.252C10.3674 14.1569 10.2385 14.1035 10.104 14.1035C9.9695 14.1035 9.84053 14.1569 9.74542 14.252L9.59502 14.4027C9.53565 14.4626 9.46502 14.5102 9.38721 14.5427C9.30939 14.5752 9.22591 14.592 9.14158 14.5921C8.97206 14.5922 8.80944 14.525 8.68942 14.4053L8.50606 14.2222C8.45908 14.1749 8.40318 14.1374 8.34161 14.1119C8.28003 14.0863 8.214 14.0733 8.14734 14.0734Z" fill="#202020"/>
</svg>
