<svg width="24" height="24" viewBox="0 0 24 24" fill="none" xmlns="http://www.w3.org/2000/svg">
<path d="M17.7746 8.47424C17.3321 8.4743 16.8995 8.34315 16.5316 8.09735C16.1636 7.85156 15.8768 7.50217 15.7075 7.09338C15.5381 6.68458 15.4938 6.23475 15.5801 5.80076C15.6664 5.36677 15.8795 4.96812 16.1923 4.65524C16.5052 4.34235 16.9039 4.12928 17.3379 4.04297C17.7719 3.95666 18.2217 4.00099 18.6305 4.17035C19.0393 4.33971 19.3887 4.6265 19.6345 4.99444C19.8803 5.36238 20.0114 5.79495 20.0114 6.23744C20.0105 6.83042 19.7746 7.39886 19.3553 7.81816C18.936 8.23746 18.3675 8.47339 17.7746 8.47424ZM17.7746 5.28032C17.5852 5.28026 17.4002 5.33634 17.2427 5.44147C17.0853 5.5466 16.9625 5.69606 16.8901 5.87095C16.8176 6.04583 16.7986 6.23829 16.8355 6.42397C16.8724 6.60965 16.9635 6.78023 17.0973 6.91411C17.2312 7.048 17.4017 7.13919 17.5874 7.17615C17.7731 7.2131 17.9655 7.19417 18.1404 7.12174C18.3153 7.0493 18.4648 6.92663 18.57 6.76922C18.6752 6.61182 18.7314 6.42675 18.7314 6.23744C18.7308 5.98395 18.6297 5.74103 18.4504 5.56188C18.2711 5.38272 18.028 5.28194 17.7746 5.2816V5.28032Z" fill="#202020"/>
<path d="M12.227 20.5739C11.0446 20.5729 9.87634 20.3172 8.80161 19.8243C7.72689 19.3315 6.77092 18.6129 5.99871 17.7175C5.22651 16.8222 4.65618 15.771 4.32653 14.6355C3.99687 13.5 3.91561 12.3069 4.08828 11.1372C4.26095 9.96753 4.68349 8.84875 5.32717 7.85696C5.97085 6.86516 6.82057 6.02363 7.81855 5.38957C8.81652 4.75552 9.93934 4.34383 11.1106 4.18249C12.2819 4.02115 13.4743 4.11395 14.6065 4.45459C14.769 4.50356 14.9054 4.61508 14.9857 4.76463C15.066 4.91418 15.0836 5.0895 15.0346 5.25203C14.9857 5.41455 14.8741 5.55097 14.7246 5.63126C14.575 5.71156 14.3997 5.72916 14.2372 5.68019C13.5851 5.4842 12.9078 5.3849 12.227 5.38547C8.3924 5.38547 5.27272 8.50515 5.27272 12.3397C5.27272 16.1743 8.3924 19.2939 12.227 19.2939C16.0615 19.2939 19.1812 16.1743 19.1812 12.3397C19.183 11.4224 19.0022 10.5138 18.6494 9.66707C18.6164 9.58938 18.5992 9.50595 18.5986 9.42158C18.598 9.3372 18.6141 9.25354 18.646 9.17541C18.6778 9.09728 18.7249 9.02623 18.7843 8.96634C18.8437 8.90644 18.9144 8.8589 18.9923 8.82643C19.0702 8.79397 19.1537 8.77722 19.2381 8.77716C19.3225 8.7771 19.406 8.79373 19.484 8.82609C19.5619 8.85845 19.6327 8.90589 19.6922 8.9657C19.7517 9.02551 19.7988 9.0965 19.8308 9.17459C20.3515 10.4261 20.5552 11.7867 20.4239 13.1358C20.2926 14.4849 19.8304 15.7807 19.0782 16.9083C18.3261 18.0359 17.3072 18.9605 16.1121 19.5999C14.9169 20.2393 13.5824 20.5739 12.227 20.5739Z" fill="#202020"/>
</svg>
