<svg width="24" height="24" viewBox="0 0 24 24" fill="none" xmlns="http://www.w3.org/2000/svg">
<path d="M14.6769 19.399H9.54345C9.45908 19.399 9.37554 19.3823 9.29764 19.3499C9.21974 19.3175 9.14902 19.27 9.08954 19.2102C9.03006 19.1503 8.983 19.0793 8.95106 19.0012C8.91913 18.9231 8.90295 18.8395 8.90345 18.7551L8.92233 15.607C7.97111 15.0506 7.18217 14.2548 6.63401 13.2988C6.08584 12.3429 5.79756 11.26 5.79785 10.158C5.79785 6.67738 8.62953 3.8457 12.1102 3.8457C15.5908 3.8457 18.4235 6.67738 18.4235 10.158C18.4237 11.26 18.1355 12.3429 17.5873 13.2988C17.0391 14.2548 16.2502 15.0506 15.299 15.607L15.3175 18.7551C15.318 18.8395 15.3019 18.9231 15.2699 19.0012C15.238 19.0793 15.1909 19.1503 15.1314 19.2102C15.072 19.27 15.0012 19.3175 14.9233 19.3499C14.8454 19.3823 14.7619 19.399 14.6775 19.399H14.6769ZM10.1873 18.119H14.0331L14.0161 15.2323C14.0153 15.113 14.0478 14.9959 14.11 14.8941C14.1722 14.7923 14.2616 14.7099 14.3681 14.6563C15.2039 14.2396 15.9067 13.5977 16.3971 12.8028C16.8875 12.008 17.146 11.092 17.1435 10.158C17.1435 7.3833 14.8859 5.1257 12.1108 5.1257C9.33577 5.1257 7.07785 7.3833 7.07785 10.158C7.07522 11.0919 7.33358 12.0078 7.8238 12.8026C8.31402 13.5975 9.01659 14.2395 9.85225 14.6563C9.95877 14.7099 10.0482 14.7923 10.1104 14.8941C10.1726 14.9959 10.2051 15.113 10.2043 15.2323L10.1873 18.119ZM14.8766 21.2694H9.09577C8.92603 21.2694 8.76325 21.202 8.64322 21.0819C8.5232 20.9619 8.45577 20.7991 8.45577 20.6294C8.45577 20.4596 8.5232 20.2969 8.64322 20.1768C8.76325 20.0568 8.92603 19.9894 9.09577 19.9894H14.8766C15.0463 19.9894 15.2091 20.0568 15.3291 20.1768C15.4491 20.2969 15.5166 20.4596 15.5166 20.6294C15.5166 20.7991 15.4491 20.9619 15.3291 21.0819C15.2091 21.202 15.0463 21.2694 14.8766 21.2694Z" fill="#202020"/>
<path d="M5.08202 21.3617C4.96199 21.3617 4.84441 21.3278 4.74269 21.2641C4.64096 21.2004 4.55921 21.1094 4.50675 21.0014C4.45429 20.8935 4.43324 20.773 4.44602 20.6536C4.45879 20.5343 4.50486 20.4209 4.57898 20.3265L18.0929 3.10124C18.198 2.96869 18.3513 2.88315 18.5193 2.86331C18.6873 2.84347 18.8563 2.89094 18.9894 2.99536C19.1225 3.09978 19.2088 3.25264 19.2296 3.42053C19.2503 3.58843 19.2037 3.75769 19.0999 3.89132L5.58602 21.1166C5.52611 21.193 5.4496 21.2548 5.36228 21.2973C5.27496 21.3397 5.17912 21.3618 5.08202 21.3617Z" fill="#202020"/>
</svg>
