<svg width="24" height="24" viewBox="0 0 24 24" fill="none" xmlns="http://www.w3.org/2000/svg">
<path d="M16.1846 20.0016H7.14112C6.30827 20.0006 5.50981 19.6693 4.92093 19.0804C4.33205 18.4915 4.00085 17.693 4 16.8601V7.8182C4.00085 6.98535 4.33205 6.18685 4.92093 5.59791C5.50981 5.00897 6.30827 4.67769 7.14112 4.67676H14.1741C14.3438 4.67676 14.5066 4.74419 14.6266 4.86421C14.7467 4.98423 14.8141 5.14702 14.8141 5.31676C14.8141 5.4865 14.7467 5.64928 14.6266 5.76931C14.5066 5.88933 14.3438 5.95676 14.1741 5.95676H7.14112C6.64765 5.95735 6.17456 6.15367 5.82565 6.50264C5.47674 6.8516 5.28051 7.32472 5.28 7.8182V16.8614C5.28085 17.3546 5.47723 17.8274 5.8261 18.1761C6.17497 18.5248 6.64787 18.721 7.14112 18.7216H16.1846C16.6781 18.721 17.1512 18.5246 17.5001 18.1757C17.849 17.8267 18.0453 17.3536 18.0458 16.8601V9.28156C18.0458 9.11182 18.1132 8.94903 18.2332 8.82901C18.3532 8.70899 18.516 8.64156 18.6858 8.64156C18.8555 8.64156 19.0183 8.70899 19.1383 8.82901C19.2583 8.94903 19.3258 9.11182 19.3258 9.28156V16.8614C19.3246 17.694 18.9932 18.4922 18.4044 19.0809C17.8155 19.6695 17.0173 20.0006 16.1846 20.0016Z" fill="#202020"/>
<path d="M17.3323 8.47424C16.8898 8.4743 16.4572 8.34315 16.0893 8.09735C15.7214 7.85156 15.4346 7.50217 15.2652 7.09338C15.0958 6.68458 15.0515 6.23475 15.1378 5.80076C15.2241 5.36677 15.4372 4.96812 15.7501 4.65524C16.063 4.34235 16.4616 4.12928 16.8956 4.04297C17.3296 3.95666 17.7794 4.00099 18.1882 4.17035C18.597 4.33971 18.9464 4.6265 19.1922 4.99444C19.438 5.36238 19.5692 5.79495 19.5691 6.23744C19.5682 6.83042 19.3323 7.39886 18.913 7.81816C18.4937 8.23746 17.9253 8.47339 17.3323 8.47424ZM17.3323 5.28032C17.143 5.28026 16.9579 5.33634 16.8005 5.44147C16.643 5.5466 16.5203 5.69606 16.4478 5.87095C16.3753 6.04583 16.3563 6.23829 16.3932 6.42397C16.4301 6.60965 16.5212 6.78023 16.6551 6.91411C16.7889 7.048 16.9595 7.13919 17.1451 7.17615C17.3308 7.2131 17.5233 7.19417 17.6982 7.12174C17.8731 7.0493 18.0226 6.92663 18.1278 6.76922C18.2329 6.61182 18.2891 6.42675 18.2891 6.23744C18.2885 5.98395 18.1875 5.74103 18.0081 5.56188C17.8288 5.38272 17.5858 5.28194 17.3323 5.2816V5.28032Z" fill="#202020"/>
</svg>
