<svg width="24" height="24" viewBox="0 0 24 24" fill="none" xmlns="http://www.w3.org/2000/svg">
<path d="M13.0579 20.4272H6.18206C5.27422 20.4264 4.4038 20.0653 3.76186 19.4234C3.11992 18.7815 2.7589 17.911 2.75806 17.0032V6.93984C2.75899 6.03202 3.12003 5.16166 3.76195 4.51973C4.40388 3.87781 5.27424 3.51677 6.18206 3.51584H16.2461C17.1538 3.51685 18.0242 3.87792 18.6661 4.51983C19.308 5.16173 19.669 6.03205 19.6701 6.93984V15.5059C19.6701 15.6757 19.6026 15.8384 19.4826 15.9585C19.3626 16.0785 19.1998 16.1459 19.0301 16.1459C18.8603 16.1459 18.6975 16.0785 18.5775 15.9585C18.4575 15.8384 18.3901 15.6757 18.3901 15.5059V6.93984C18.3896 6.37137 18.1635 5.82633 17.7615 5.42436C17.3596 5.0224 16.8145 4.79635 16.2461 4.79584H6.18206C5.61359 4.79635 5.06855 5.0224 4.66658 5.42436C4.26461 5.82633 4.03857 6.37137 4.03806 6.93984V17.0038C4.03848 17.5723 4.2645 18.1174 4.66649 18.5194C5.06847 18.9214 5.61356 19.1474 6.18206 19.1478H13.0579C13.2276 19.1478 13.3904 19.2153 13.5104 19.3353C13.6305 19.4553 13.6979 19.6181 13.6979 19.7878C13.6979 19.9576 13.6305 20.1204 13.5104 20.2404C13.3904 20.3604 13.2276 20.4278 13.0579 20.4278V20.4272ZM19.2915 20.4838C19.1642 20.4835 19.0398 20.4452 18.9344 20.3739C18.8289 20.3025 18.7472 20.2013 18.6996 20.0832C18.6519 19.9651 18.6406 19.8355 18.6671 19.711C18.6935 19.5864 18.7565 19.4726 18.848 19.384L19.6934 18.5648L18.7609 17.6205C18.6449 17.4991 18.5812 17.337 18.5835 17.1691C18.5859 17.0012 18.6542 16.8409 18.7737 16.7229C18.8931 16.6049 19.0542 16.5385 19.2221 16.5381C19.39 16.5378 19.5514 16.6034 19.6713 16.721L21.056 18.1251C21.1154 18.1853 21.1623 18.2566 21.194 18.335C21.2257 18.4134 21.2416 18.4973 21.2407 18.5819C21.2397 18.6665 21.2221 18.75 21.1887 18.8277C21.1553 18.9054 21.1068 18.9757 21.0461 19.0346L19.7363 20.3034C19.6172 20.4192 19.4576 20.4839 19.2915 20.4838Z" fill="#202020"/>
<path d="M16.0357 20.4838C15.8694 20.4841 15.7095 20.4193 15.5903 20.3034L14.2805 19.0346C14.2198 18.9757 14.1713 18.9054 14.1379 18.8277C14.1045 18.75 14.0868 18.6665 14.0859 18.5819C14.085 18.4973 14.1008 18.4134 14.1325 18.335C14.1642 18.2566 14.2112 18.1853 14.2706 18.1251L15.6575 16.721C15.7768 16.6002 15.9391 16.5318 16.1089 16.5307C16.2786 16.5297 16.4418 16.5961 16.5626 16.7154C16.6834 16.8346 16.7518 16.997 16.7529 17.1668C16.7539 17.3365 16.6875 17.4997 16.5682 17.6205L15.6354 18.5648L16.4799 19.384C16.5715 19.4727 16.6345 19.5867 16.6609 19.7114C16.6873 19.8362 16.6758 19.9659 16.6279 20.0841C16.5801 20.2023 16.498 20.3034 16.3923 20.3747C16.2865 20.4459 16.1619 20.4839 16.0344 20.4838H16.0357ZM13.4511 6.95808H9.1042C8.74352 6.95688 8.39414 6.83214 8.11425 6.60465C7.83436 6.37717 7.64085 6.06066 7.56596 5.70784L7.269 4.288C7.25039 4.20521 7.24843 4.11954 7.26324 4.03598C7.27804 3.95243 7.30932 3.87265 7.35525 3.80129C7.40117 3.72993 7.46083 3.66842 7.53075 3.62033C7.60067 3.57225 7.67946 3.53854 7.76252 3.52119C7.84559 3.50383 7.93128 3.50317 8.0146 3.51924C8.09793 3.53531 8.17722 3.56778 8.24788 3.61478C8.31853 3.66178 8.37914 3.72236 8.42616 3.793C8.47319 3.86364 8.5057 3.94292 8.5218 4.02624L8.81876 5.44704C8.83271 5.51249 8.86863 5.57119 8.92056 5.61339C8.97248 5.65559 9.03728 5.67876 9.1042 5.67904H13.4511C13.5159 5.67911 13.5789 5.65756 13.63 5.6178C13.6812 5.57804 13.7177 5.52234 13.7336 5.45952L14.1058 3.99904C14.1485 3.83538 14.2542 3.69527 14.3999 3.60932C14.5455 3.52337 14.7193 3.49857 14.8832 3.54035C15.0471 3.58213 15.1878 3.68708 15.2745 3.83227C15.3612 3.97746 15.387 4.15109 15.3461 4.3152L14.974 5.77568C14.8877 6.11401 14.6911 6.41393 14.4153 6.62806C14.1395 6.84219 13.8002 6.95832 13.4511 6.95808Z" fill="#202020"/>
</svg>
