<svg width="24" height="24" viewBox="0 0 24 24" fill="none" xmlns="http://www.w3.org/2000/svg">
<path d="M14.7536 21.1859H9.24801C8.48954 21.1851 7.76237 20.8834 7.22605 20.3471C6.68973 19.8108 6.38805 19.0836 6.38721 18.3251V7.136C6.38788 6.37745 6.6895 5.65015 7.22584 5.11374C7.76219 4.57734 8.48945 4.27564 9.24801 4.27488H14.7552C15.5135 4.27607 16.2403 4.57795 16.7763 5.11431C17.3123 5.65067 17.6137 6.37772 17.6144 7.136V18.3251C17.6136 19.0836 17.3119 19.8108 16.7756 20.3471C16.2392 20.8834 15.5121 21.1851 14.7536 21.1859ZM9.24801 5.55488C8.82855 5.55488 8.42625 5.72142 8.12953 6.0179C7.83281 6.31438 7.66595 6.71654 7.66561 7.136V18.3251C7.66603 18.7442 7.83271 19.1461 8.12908 19.4424C8.42545 19.7388 8.82728 19.9055 9.24641 19.9059H14.7536C15.1727 19.9055 15.5746 19.7388 15.8709 19.4424C16.1673 19.1461 16.334 18.7442 16.3344 18.3251V7.136C16.3339 6.71693 16.1672 6.31518 15.8708 6.01888C15.5745 5.72258 15.1727 5.55594 14.7536 5.55552L9.24801 5.55488Z" fill="#202020"/>
<path d="M12 19.4848C11.6562 19.4848 11.3201 19.3828 11.0342 19.1918C10.7484 19.0008 10.5256 18.7293 10.394 18.4117C10.2625 18.094 10.228 17.7445 10.2951 17.4073C10.3622 17.0701 10.5278 16.7604 10.771 16.5173C11.0141 16.2742 11.3238 16.1087 11.661 16.0417C11.9982 15.9746 12.3478 16.0091 12.6654 16.1407C12.983 16.2723 13.2544 16.4952 13.4454 16.7811C13.6364 17.067 13.7383 17.4031 13.7382 17.7469C13.7376 18.2077 13.5543 18.6494 13.2284 18.9752C12.9025 19.301 12.4608 19.4843 12 19.4848ZM12 17.2886C11.9093 17.2886 11.8207 17.3155 11.7454 17.3659C11.67 17.4162 11.6113 17.4878 11.5766 17.5715C11.5419 17.6552 11.5328 17.7474 11.5505 17.8363C11.5682 17.9252 11.6118 18.0068 11.6759 18.0709C11.74 18.135 11.8217 18.1786 11.9106 18.1963C11.9995 18.214 12.0916 18.2049 12.1753 18.1702C12.2591 18.1356 12.3306 18.0768 12.381 18.0015C12.4313 17.9261 12.4582 17.8375 12.4582 17.7469C12.458 17.6254 12.4097 17.5089 12.3238 17.423C12.2379 17.3371 12.1214 17.2888 12 17.2886ZM12.5491 7.7488H11.4508C11.2811 7.7488 11.1183 7.68137 10.9983 7.56134C10.8783 7.44132 10.8108 7.27853 10.8108 7.1088C10.8108 6.93906 10.8783 6.77627 10.9983 6.65625C11.1183 6.53622 11.2811 6.4688 11.4508 6.4688H12.5491C12.7188 6.4688 12.8816 6.53622 13.0016 6.65625C13.1217 6.77627 13.1891 6.93906 13.1891 7.1088C13.1891 7.27853 13.1217 7.44132 13.0016 7.56134C12.8816 7.68137 12.7188 7.7488 12.5491 7.7488Z" fill="#202020"/>
</svg>
