<svg width="24" height="24" viewBox="0 0 24 24" fill="none" xmlns="http://www.w3.org/2000/svg">
<path d="M16.6691 19.136H5.33504C4.73972 19.1353 4.16898 18.8985 3.74802 18.4776C3.32707 18.0566 3.09028 17.4859 3.0896 16.8906V9.10463C3.09028 8.50931 3.32707 7.93857 3.74802 7.51761C4.16898 7.09666 4.73972 6.85987 5.33504 6.85919H16.6691C17.2644 6.85987 17.8352 7.09666 18.2561 7.51761C18.6771 7.93857 18.9139 8.50931 18.9146 9.10463V16.8912C18.9137 17.4864 18.6768 18.057 18.2559 18.4778C17.835 18.8986 17.2643 19.1353 16.6691 19.136ZM5.33504 8.13919C5.07909 8.13953 4.83373 8.24135 4.65274 8.42234C4.47176 8.60332 4.36994 8.84868 4.3696 9.10463V16.8912C4.37011 17.147 4.47201 17.3922 4.65297 17.5731C4.83393 17.7539 5.0792 17.8557 5.33504 17.856H16.6691C16.9251 17.8557 17.1704 17.7538 17.3514 17.5728C17.5324 17.3919 17.6342 17.1465 17.6346 16.8906V9.10463C17.6343 8.84866 17.5325 8.60324 17.3515 8.42224C17.1705 8.24124 16.9251 8.13945 16.6691 8.13919H5.33504Z" fill="#202020"/>
<path d="M11.0022 15.3386C10.5004 15.3386 10.0098 15.1899 9.59243 14.9111C9.1751 14.6324 8.8498 14.2361 8.65766 13.7725C8.46552 13.3089 8.41516 12.7987 8.51296 12.3065C8.61076 11.8142 8.85232 11.362 9.2071 11.0071C9.56188 10.6521 10.014 10.4103 10.5061 10.3123C10.9983 10.2142 11.5085 10.2643 11.9723 10.4562C12.436 10.6481 12.8324 10.9732 13.1114 11.3904C13.3903 11.8076 13.5393 12.2981 13.5395 12.8C13.5391 13.4729 13.2717 14.1182 12.796 14.5941C12.3203 15.0701 11.6751 15.3378 11.0022 15.3386ZM11.0022 11.5437C10.7534 11.5436 10.5102 11.6174 10.3033 11.7556C10.0964 11.8938 9.93521 12.0902 9.84001 12.3201C9.74481 12.55 9.71994 12.8029 9.76853 13.0469C9.81712 13.2909 9.937 13.515 10.113 13.6909C10.289 13.8667 10.5132 13.9864 10.7572 14.0349C11.0013 14.0833 11.2542 14.0582 11.484 13.9628C11.7138 13.8675 11.9101 13.7061 12.0482 13.4991C12.1862 13.2921 12.2598 13.0488 12.2595 12.8C12.2588 12.4669 12.1261 12.1476 11.8905 11.9121C11.6548 11.6766 11.3354 11.5441 11.0022 11.5437ZM6.41951 15.488C6.24977 15.488 6.08699 15.4206 5.96696 15.3006C5.84694 15.1805 5.77951 15.0177 5.77951 14.848V10.8822C5.77951 10.7125 5.84694 10.5497 5.96696 10.4297C6.08699 10.3097 6.24977 10.2422 6.41951 10.2422C6.58925 10.2422 6.75204 10.3097 6.87206 10.4297C6.99208 10.5497 7.05951 10.7125 7.05951 10.8822V14.848C7.05951 15.0177 6.99208 15.1805 6.87206 15.3006C6.75204 15.4206 6.58925 15.488 6.41951 15.488ZM15.584 15.488C15.4143 15.488 15.2515 15.4206 15.1314 15.3006C15.0114 15.1805 14.944 15.0177 14.944 14.848V10.8822C14.944 10.7125 15.0114 10.5497 15.1314 10.4297C15.2515 10.3097 15.4143 10.2422 15.584 10.2422C15.7537 10.2422 15.9165 10.3097 16.0365 10.4297C16.1566 10.5497 16.224 10.7125 16.224 10.8822V14.848C16.224 15.0177 16.1566 15.1805 16.0365 15.3006C15.9165 15.4206 15.7537 15.488 15.584 15.488Z" fill="#202020"/>
<path d="M18.7328 17.1408H18.2746C18.1048 17.1408 17.942 17.0734 17.822 16.9534C17.702 16.8333 17.6346 16.6706 17.6346 16.5008C17.6346 16.3311 17.702 16.1683 17.822 16.0483C17.942 15.9282 18.1048 15.8608 18.2746 15.8608H18.7328C18.9705 15.8606 19.1984 15.7661 19.3667 15.5982C19.5349 15.4303 19.6297 15.2025 19.6304 14.9648V7.04001C19.6296 6.80234 19.5348 6.57464 19.3666 6.40672C19.1984 6.23881 18.9705 6.14435 18.7328 6.14401H7.26401C7.02614 6.14401 6.79797 6.23833 6.62953 6.40629C6.4611 6.57425 6.36613 6.80214 6.36545 7.04001V7.49825C6.36545 7.66799 6.29802 7.83078 6.178 7.9508C6.05797 8.07083 5.89519 8.13825 5.72545 8.13825C5.55571 8.13825 5.39292 8.07083 5.2729 7.9508C5.15288 7.83078 5.08545 7.66799 5.08545 7.49825V7.04001C5.08655 6.4628 5.31651 5.90958 5.72491 5.50166C6.1333 5.09375 6.68679 4.86444 7.26401 4.86401H18.7328C19.3099 4.86469 19.8631 5.09411 20.2713 5.502C20.6795 5.90989 20.9093 6.46296 20.9104 7.04001V14.9632C20.9097 15.5405 20.6801 16.094 20.2719 16.5023C19.8636 16.9105 19.3101 17.1401 18.7328 17.1408Z" fill="#202020"/>
</svg>
