<svg width="24" height="24" viewBox="0 0 24 24" fill="none" xmlns="http://www.w3.org/2000/svg">
<path d="M17.4682 18.336H6.45056C5.81329 18.3353 5.2023 18.0819 4.75165 17.6313C4.301 17.1807 4.04748 16.5698 4.04672 15.9325V8.46176C4.04748 7.82446 4.30099 7.21347 4.75163 6.76283C5.20228 6.31219 5.81326 6.05868 6.45056 6.05792H17.4682C18.1055 6.0586 18.7165 6.31208 19.1672 6.76274C19.6178 7.2134 19.8713 7.82443 19.872 8.46176V15.9318C19.8714 16.5692 19.618 17.1803 19.1673 17.6311C18.7166 18.0818 18.1055 18.3353 17.4682 18.336ZM6.45056 7.33792C6.15258 7.33818 5.86687 7.45666 5.65617 7.66737C5.44546 7.87807 5.32698 8.16378 5.32672 8.46176V15.9318C5.32689 16.2299 5.44534 16.5157 5.65606 16.7264C5.86677 16.9372 6.15252 17.0557 6.45056 17.056H17.4682C17.7662 17.0557 18.052 16.9372 18.2627 16.7264C18.4734 16.5157 18.5918 16.2299 18.592 15.9318V8.46176C18.5917 8.16383 18.4733 7.87818 18.2627 7.66748C18.052 7.45678 17.7664 7.33826 17.4685 7.33792H6.45056Z" fill="#202020"/>
<path d="M11.9594 14.5373C11.4575 14.5374 10.9669 14.3887 10.5495 14.11C10.1322 13.8313 9.80689 13.435 9.61476 12.9714C9.42262 12.5078 9.37228 11.9976 9.47011 11.5054C9.56794 11.0132 9.80954 10.561 10.1644 10.2061C10.5192 9.85119 10.9713 9.60948 11.4635 9.51152C11.9557 9.41357 12.4659 9.46378 12.9295 9.6558C13.3932 9.84782 13.7895 10.173 14.0683 10.5903C14.3472 11.0076 14.496 11.4981 14.496 12C14.4952 12.6726 14.2278 13.3174 13.7522 13.7931C13.2767 14.2687 12.6319 14.5364 11.9594 14.5373ZM11.9594 10.7427C11.7107 10.7426 11.4675 10.8162 11.2607 10.9543C11.0538 11.0924 10.8926 11.2887 10.7973 11.5184C10.7021 11.7481 10.6771 12.001 10.7255 12.2449C10.774 12.4888 10.8936 12.7129 11.0695 12.8888C11.2453 13.0647 11.4693 13.1845 11.7132 13.2331C11.9571 13.2816 12.2099 13.2568 12.4397 13.1616C12.6695 13.0665 12.8659 12.9053 13.0041 12.6986C13.1422 12.4918 13.216 12.2487 13.216 12C13.2156 11.6668 13.0831 11.3473 12.8475 11.1117C12.6119 10.876 12.2926 10.7433 11.9594 10.7427ZM7.37663 14.6851C7.20689 14.6851 7.04411 14.6177 6.92408 14.4977C6.80406 14.3776 6.73663 14.2149 6.73663 14.0451V10.08C6.73663 9.91026 6.80406 9.74748 6.92408 9.62745C7.04411 9.50743 7.20689 9.44 7.37663 9.44C7.54637 9.44 7.70916 9.50743 7.82918 9.62745C7.9492 9.74748 8.01663 9.91026 8.01663 10.08V14.0451C8.01663 14.2149 7.9492 14.3776 7.82918 14.4977C7.70916 14.6177 7.54637 14.6851 7.37663 14.6851ZM16.5418 14.6851C16.372 14.6851 16.2092 14.6177 16.0892 14.4977C15.9692 14.3776 15.9018 14.2149 15.9018 14.0451V10.08C15.9018 9.91026 15.9692 9.74748 16.0892 9.62745C16.2092 9.50743 16.372 9.44 16.5418 9.44C16.7115 9.44 16.8743 9.50743 16.9943 9.62745C17.1143 9.74748 17.1818 9.91026 17.1818 10.08V14.0451C17.1818 14.2149 17.1143 14.3776 16.9943 14.4977C16.8743 14.6177 16.7115 14.6851 16.5418 14.6851Z" fill="#202020"/>
</svg>
