<svg width="24" height="24" viewBox="0 0 24 24" fill="none" xmlns="http://www.w3.org/2000/svg">
<path d="M17.7248 18.1386H6.12735C5.56725 18.1376 5.0304 17.9145 4.6345 17.5183C4.2386 17.1221 4.01594 16.5851 4.01535 16.025V7.97505C4.01594 7.41495 4.2386 6.87793 4.6345 6.48173C5.0304 6.08553 5.56725 5.86247 6.12735 5.86145H17.7248C18.2854 5.8617 18.823 6.08442 19.2196 6.48069C19.6162 6.87697 19.8393 7.41442 19.84 7.97505V16.025C19.8393 16.5856 19.6162 17.1231 19.2196 17.5193C18.823 17.9156 18.2854 18.1383 17.7248 18.1386ZM6.12735 7.14145C5.90662 7.14213 5.69515 7.23022 5.53922 7.38645C5.38329 7.54268 5.2956 7.75432 5.29535 7.97505V16.025C5.2956 16.2457 5.38329 16.4573 5.53922 16.6136C5.69515 16.7698 5.90662 16.8579 6.12735 16.8586H17.7248C17.946 16.8587 18.1583 16.7709 18.3149 16.6146C18.4715 16.4583 18.5596 16.2462 18.56 16.025V7.97505C18.5597 7.75401 18.4717 7.54213 18.3153 7.38587C18.159 7.2296 17.9471 7.1417 17.7261 7.14145H6.12735Z" fill="#202020"/>
<path d="M11.9261 14.3408C11.4242 14.3408 10.9336 14.192 10.5163 13.9132C10.099 13.6343 9.77372 13.238 9.58165 12.7743C9.38959 12.3106 9.33934 11.8004 9.43725 11.3082C9.53516 10.8159 9.77685 10.3638 10.1317 10.0089C10.4866 9.65397 10.9388 9.41229 11.431 9.31437C11.9233 9.21646 12.4335 9.26671 12.8972 9.45878C13.3609 9.65084 13.7572 9.97609 14.036 10.3934C14.3149 10.8107 14.4637 11.3013 14.4637 11.8032C14.463 12.476 14.1954 13.1211 13.7197 13.5968C13.244 14.0726 12.5989 14.3401 11.9261 14.3408ZM11.9261 10.5459C11.6774 10.546 11.4342 10.6198 11.2275 10.7581C11.0207 10.8963 10.8595 11.0927 10.7644 11.3226C10.6693 11.5524 10.6445 11.8053 10.693 12.0492C10.7416 12.2931 10.8615 12.5172 11.0374 12.693C11.2133 12.8689 11.4374 12.9886 11.6814 13.037C11.9253 13.0855 12.1782 13.0605 12.408 12.9653C12.6377 12.87 12.8341 12.7088 12.9722 12.502C13.1104 12.2951 13.1841 12.0519 13.184 11.8032C13.1836 11.4698 13.0509 11.1501 12.8151 10.9144C12.5792 10.6787 12.2595 10.5462 11.9261 10.5459ZM6.63585 10.752C6.46611 10.752 6.30332 10.6846 6.1833 10.5646C6.06328 10.4445 5.99585 10.2818 5.99585 10.112V9.0909C5.99627 8.76004 6.12789 8.44285 6.36185 8.20889C6.5958 7.97494 6.91299 7.84332 7.24385 7.8429H8.29569C8.46543 7.8429 8.62822 7.91032 8.74824 8.03035C8.86826 8.15037 8.93569 8.31316 8.93569 8.4829C8.93569 8.65263 8.86826 8.81542 8.74824 8.93544C8.62822 9.05547 8.46543 9.1229 8.29569 9.1229H7.27585V10.112C7.27585 10.2818 7.20842 10.4445 7.0884 10.5646C6.96837 10.6846 6.80559 10.752 6.63585 10.752ZM16.7475 16.288H15.6957C15.526 16.288 15.3632 16.2206 15.2431 16.1006C15.1231 15.9805 15.0557 15.8178 15.0557 15.648C15.0557 15.4783 15.1231 15.3155 15.2431 15.1955C15.3632 15.0754 15.526 15.008 15.6957 15.008H16.7158V14.112C16.7158 13.9423 16.7833 13.7795 16.9033 13.6595C17.0233 13.5394 17.1861 13.472 17.3559 13.472C17.5256 13.472 17.6884 13.5394 17.8084 13.6595C17.9284 13.7795 17.9959 13.9423 17.9959 14.112V15.04C17.9954 15.3709 17.8638 15.6882 17.6297 15.9221C17.3957 16.1561 17.0784 16.2877 16.7475 16.288ZM8.29601 16.288H7.24417C6.91331 16.2876 6.59612 16.156 6.36217 15.922C6.12821 15.6881 5.99659 15.3709 5.99617 15.04V14.016C5.99617 13.8463 6.0636 13.6835 6.18362 13.5635C6.30364 13.4434 6.46643 13.376 6.63617 13.376C6.80591 13.376 6.9687 13.4434 7.08872 13.5635C7.20874 13.6835 7.27617 13.8463 7.27617 14.016V15.008H8.29633C8.46607 15.008 8.62885 15.0754 8.74888 15.1955C8.8689 15.3155 8.93633 15.4783 8.93633 15.648C8.93633 15.8178 8.8689 15.9805 8.74888 16.1006C8.62885 16.2206 8.46607 16.288 8.29633 16.288H8.29601ZM17.3559 10.6589C17.1861 10.6589 17.0233 10.5915 16.9033 10.4714C16.7833 10.3514 16.7158 10.1886 16.7158 10.0189V9.1229H15.6957C15.526 9.1229 15.3632 9.05547 15.2431 8.93544C15.1231 8.81542 15.0557 8.65263 15.0557 8.4829C15.0557 8.31316 15.1231 8.15037 15.2431 8.03035C15.3632 7.91032 15.526 7.8429 15.6957 7.8429H16.7475C17.0784 7.84332 17.3956 7.97494 17.6295 8.20889C17.8635 8.44285 17.9951 8.76004 17.9955 9.0909V10.0189C17.9955 10.1886 17.9281 10.3513 17.8082 10.4713C17.6882 10.5913 17.5255 10.6588 17.3559 10.6589Z" fill="#202020"/>
</svg>
