<svg width="24" height="24" viewBox="0 0 24 24" fill="none" xmlns="http://www.w3.org/2000/svg">
<path d="M17.8477 18.1386H6.15232C5.60492 18.138 5.08012 17.9203 4.69305 17.5332C4.30598 17.1461 4.08827 16.6213 4.08768 16.0739V7.92609C4.08827 7.3787 4.30598 6.85389 4.69305 6.46682C5.08012 6.07976 5.60492 5.86204 6.15232 5.86145H17.8477C18.3951 5.86204 18.9199 6.07976 19.3069 6.46682C19.694 6.85389 19.9117 7.3787 19.9123 7.92609V16.0739C19.9117 16.6213 19.694 17.1461 19.3069 17.5332C18.9199 17.9203 18.3951 18.138 17.8477 18.1386ZM6.15232 7.14145C5.9443 7.1417 5.74487 7.22445 5.59777 7.37155C5.45068 7.51864 5.36793 7.71807 5.36768 7.92609V16.0739C5.36793 16.282 5.45068 16.4814 5.59777 16.6285C5.74487 16.7756 5.9443 16.8583 6.15232 16.8586H17.8477C18.0557 16.8583 18.2551 16.7756 18.4022 16.6285C18.5493 16.4814 18.6321 16.282 18.6323 16.0739V7.92609C18.6321 7.71807 18.5493 7.51864 18.4022 7.37155C18.2551 7.22445 18.0557 7.1417 17.8477 7.14145H6.15232Z" fill="#202020"/>
<path d="M12 14.3408C11.4981 14.3409 11.0074 14.1921 10.5901 13.9133C10.1727 13.6345 9.84744 13.2382 9.65532 12.7745C9.46321 12.3109 9.41291 11.8006 9.51079 11.3084C9.60867 10.8161 9.85033 10.3639 10.2052 10.009C10.5601 9.65405 11.0122 9.41234 11.5045 9.3144C11.9967 9.21646 12.507 9.26669 12.9707 9.45875C13.4344 9.6508 13.8307 9.97605 14.1096 10.3934C14.3884 10.8107 14.5373 11.3013 14.5373 11.8032C14.5366 12.476 14.2691 13.121 13.7934 13.5967C13.3177 14.0724 12.6727 14.3401 12 14.3408ZM12 10.5459C11.7512 10.5459 11.508 10.6196 11.3012 10.7577C11.0943 10.8959 10.9331 11.0923 10.8379 11.3221C10.7426 11.5519 10.7177 11.8048 10.7662 12.0488C10.8147 12.2928 10.9345 12.5169 11.1104 12.6928C11.2863 12.8687 11.5104 12.9885 11.7544 13.037C11.9984 13.0855 12.2513 13.0606 12.4811 12.9653C12.7109 12.8701 12.9073 12.7089 13.0455 12.502C13.1836 12.2952 13.2573 12.052 13.2573 11.8032C13.2569 11.4699 13.1244 11.1503 12.8886 10.9146C12.6529 10.6788 12.3333 10.5463 12 10.5459ZM17.4352 9.1229H15.776C15.6063 9.1229 15.4435 9.05547 15.3234 8.93544C15.2034 8.81542 15.136 8.65263 15.136 8.4829C15.136 8.31316 15.2034 8.15037 15.3234 8.03035C15.4435 7.91032 15.6063 7.8429 15.776 7.8429H17.4362C17.6059 7.8429 17.7687 7.91032 17.8887 8.03035C18.0087 8.15037 18.0761 8.31316 18.0761 8.4829C18.0761 8.65263 18.0087 8.81542 17.8887 8.93544C17.7687 9.05547 17.6059 9.1229 17.4362 9.1229H17.4352ZM8.28127 16.288H6.62111C6.45137 16.288 6.28858 16.2206 6.16856 16.1006C6.04854 15.9805 5.98111 15.8178 5.98111 15.648C5.98111 15.4783 6.04854 15.3155 6.16856 15.1955C6.28858 15.0754 6.45137 15.008 6.62111 15.008H8.28127C8.45101 15.008 8.61379 15.0754 8.73382 15.1955C8.85384 15.3155 8.92127 15.4783 8.92127 15.648C8.92127 15.8178 8.85384 15.9805 8.73382 16.1006C8.61379 16.2206 8.45101 16.288 8.28127 16.288Z" fill="#202020"/>
</svg>
