<svg width="24" height="24" viewBox="0 0 24 24" fill="none" xmlns="http://www.w3.org/2000/svg">
<path d="M17.4205 18.1386H9.42592C9.25618 18.1386 9.09339 18.0711 8.97337 17.9511C8.85335 17.8311 8.78592 17.6683 8.78592 17.4986C8.78592 17.3288 8.85335 17.166 8.97337 17.046C9.09339 16.926 9.25618 16.8586 9.42592 16.8586H17.4205C17.7416 16.8582 18.0494 16.7306 18.2766 16.5037C18.5037 16.2768 18.6316 15.9691 18.6323 15.648V8.35201C18.632 8.03071 18.5042 7.72267 18.277 7.49548C18.0498 7.26829 17.7418 7.14051 17.4205 7.14017H6.57952C6.25822 7.14051 5.95018 7.26829 5.72299 7.49548C5.4958 7.72267 5.36802 8.03071 5.36768 8.35201V12.6803C5.36768 12.8501 5.30025 13.0129 5.18023 13.1329C5.0602 13.2529 4.89742 13.3203 4.72768 13.3203C4.55794 13.3203 4.39515 13.2529 4.27513 13.1329C4.15511 13.0129 4.08768 12.8501 4.08768 12.6803V8.35201C4.08878 7.69147 4.35166 7.0583 4.81873 6.59123C5.28581 6.12415 5.91898 5.86127 6.57952 5.86017H17.4205C18.081 5.86127 18.7142 6.12415 19.1813 6.59123C19.6483 7.0583 19.9112 7.69147 19.9123 8.35201V15.648C19.9109 16.3083 19.6478 16.9412 19.1808 17.408C18.7138 17.8748 18.0808 18.1375 17.4205 18.1386Z" fill="#202020"/>
<path d="M12 14.3408C11.4981 14.3408 11.0075 14.1921 10.5901 13.9133C10.1728 13.6345 9.84745 13.2382 9.65534 12.7745C9.46323 12.3108 9.41293 11.8006 9.5108 11.3083C9.60868 10.816 9.85034 10.3639 10.2052 10.0089C10.5601 9.65402 11.0122 9.4123 11.5045 9.31436C11.9968 9.21642 12.507 9.26666 12.9707 9.45871C13.4344 9.65077 13.8307 9.97602 14.1096 10.3933C14.3884 10.8106 14.5373 11.3013 14.5373 11.8032C14.5366 12.4759 14.2691 13.1209 13.7934 13.5967C13.3177 14.0724 12.6728 14.34 12 14.3408ZM12 10.5459C11.7512 10.5458 11.5081 10.6195 11.3012 10.7577C11.0943 10.8959 10.9331 11.0923 10.8379 11.3221C10.7427 11.5519 10.7177 11.8048 10.7662 12.0488C10.8147 12.2927 10.9345 12.5169 11.1104 12.6928C11.2863 12.8687 11.5104 12.9884 11.7544 13.037C11.9984 13.0855 12.2513 13.0605 12.4811 12.9653C12.7109 12.8701 12.9073 12.7088 13.0455 12.502C13.1836 12.2951 13.2573 12.0519 13.2573 11.8032C13.2569 11.4698 13.1244 11.1502 12.8887 10.9145C12.6529 10.6788 12.3334 10.5462 12 10.5459ZM16.5827 14.4886C16.413 14.4886 16.2502 14.4212 16.1302 14.3012C16.0102 14.1811 15.9427 14.0184 15.9427 13.8486V9.88414C15.9427 9.7144 16.0102 9.55162 16.1302 9.43159C16.2502 9.31157 16.413 9.24414 16.5827 9.24414C16.7525 9.24414 16.9152 9.31157 17.0353 9.43159C17.1553 9.55162 17.2227 9.7144 17.2227 9.88414V13.8486C17.2227 14.0184 17.1553 14.1811 17.0353 14.3012C16.9152 14.4212 16.7525 14.4886 16.5827 14.4886ZM5.19808 20.279C4.5303 20.2788 3.87759 20.0805 3.32247 19.7093C2.76736 19.3381 2.33476 18.8107 2.07939 18.1937C1.82402 17.5767 1.75733 16.8978 1.88776 16.2428C2.0182 15.5879 2.33989 14.9864 2.81217 14.5143C3.28445 14.0422 3.88612 13.7207 4.54109 13.5905C5.19605 13.4603 5.87492 13.5273 6.49184 13.7829C7.10877 14.0385 7.63605 14.4713 8.00703 15.0266C8.378 15.5818 8.576 16.2346 8.576 16.9024C8.57499 17.7978 8.21873 18.6563 7.58543 19.2894C6.95214 19.9224 6.09353 20.2783 5.19808 20.279ZM5.19808 14.807C4.78341 14.8073 4.37812 14.9305 4.03347 15.1611C3.68882 15.3917 3.42029 15.7193 3.26183 16.1025C3.10338 16.4857 3.06211 16.9073 3.14326 17.3139C3.22441 17.7206 3.42432 18.0941 3.71772 18.3871C4.01112 18.6802 4.38483 18.8796 4.79159 18.9603C5.19834 19.0409 5.61988 18.9991 6.0029 18.8402C6.38591 18.6813 6.7132 18.4124 6.94337 18.0674C7.17354 17.7225 7.29626 17.3171 7.296 16.9024C7.29541 16.3463 7.07415 15.8131 6.68081 15.42C6.28746 15.0269 5.75419 14.806 5.19808 14.8057V14.807Z" fill="#202020"/>
<path d="M4.87136 18.2265C4.70849 18.2266 4.5517 18.1646 4.43296 18.0531L3.808 17.4656C3.68431 17.3493 3.61187 17.1887 3.60661 17.019C3.60136 16.8493 3.66373 16.6845 3.78 16.5608C3.89628 16.4371 4.05692 16.3646 4.22661 16.3594C4.39629 16.3541 4.56111 16.4165 4.6848 16.5328L4.87488 16.7113L5.91584 15.7481C6.04152 15.6399 6.20432 15.5847 6.36992 15.5941C6.53551 15.6036 6.69098 15.6769 6.80355 15.7987C6.91611 15.9206 6.97699 16.0813 6.97335 16.2471C6.9697 16.413 6.90182 16.5709 6.784 16.6877L5.30464 18.0563C5.18683 18.1656 5.03208 18.2264 4.87136 18.2265Z" fill="#202020"/>
</svg>
