<svg width="24" height="24" viewBox="0 0 24 24" fill="none" xmlns="http://www.w3.org/2000/svg">
<path d="M17.408 18.3245H8.06848C7.89875 18.3245 7.73596 18.2571 7.61594 18.137C7.49591 18.017 7.42848 17.8542 7.42848 17.6845C7.42848 17.5147 7.49591 17.352 7.61594 17.2319C7.73596 17.1119 7.89875 17.0445 8.06848 17.0445H17.408C17.6516 17.0442 17.8851 16.9474 18.0574 16.7751C18.2296 16.6029 18.3265 16.3693 18.3267 16.1258V8.24608C18.3263 8.00261 18.2294 7.76925 18.0571 7.59715C17.8849 7.42505 17.6515 7.32826 17.408 7.328H5.97888C5.7353 7.32826 5.50177 7.42513 5.32953 7.59737C5.15729 7.76961 5.06042 8.00314 5.06016 8.24672V13.44C5.06016 13.6097 4.99274 13.7725 4.87271 13.8926C4.75269 14.0126 4.5899 14.08 4.42017 14.08C4.25043 14.08 4.08764 14.0126 3.96762 13.8926C3.84759 13.7725 3.78016 13.6097 3.78016 13.44V8.24608C3.78093 7.66324 4.01284 7.1045 4.42504 6.69242C4.83723 6.28035 5.39604 6.0486 5.97888 6.048H17.408C17.9909 6.04868 18.5498 6.28055 18.962 6.69274C19.3742 7.10494 19.606 7.6638 19.6067 8.24672V16.1258C19.606 16.7087 19.3742 17.2676 18.962 17.6797C18.5498 18.0919 17.9909 18.3238 17.408 18.3245ZM4.88384 19.2749H1.81184C1.64211 19.2749 1.47932 19.2075 1.3593 19.0874C1.23927 18.9674 1.17184 18.8046 1.17184 18.6349V16.9693C1.17184 16.7995 1.23927 16.6368 1.3593 16.5167C1.47932 16.3967 1.64211 16.3293 1.81184 16.3293C1.98158 16.3293 2.14437 16.3967 2.26439 16.5167C2.38442 16.6368 2.45184 16.7995 2.45184 16.9693V17.9949H4.88384C5.05358 17.9949 5.21637 18.0623 5.33639 18.1823C5.45642 18.3024 5.52384 18.4651 5.52384 18.6349C5.52384 18.8046 5.45642 18.9674 5.33639 19.0874C5.21637 19.2075 5.05358 19.2749 4.88384 19.2749Z" fill="#202020"/>
<path d="M6.72417 17.6995C6.55443 17.6995 6.39165 17.6321 6.27162 17.5121C6.1516 17.3921 6.08417 17.2293 6.08417 17.0595V15.5808H2.74913C2.57939 15.5808 2.41661 15.5134 2.29658 15.3934C2.17656 15.2733 2.10913 15.1106 2.10913 14.9408C2.10913 14.7711 2.17656 14.6083 2.29658 14.4883C2.41661 14.3682 2.57939 14.3008 2.74913 14.3008H6.72417C6.89391 14.3008 7.0567 14.3682 7.17672 14.4883C7.29674 14.6083 7.36417 14.7711 7.36417 14.9408V17.0595C7.36417 17.2293 7.29674 17.3921 7.17672 17.5121C7.0567 17.6321 6.89391 17.6995 6.72417 17.6995Z" fill="#202020"/>
<path d="M2.97312 16.6624C2.80687 16.6627 2.64711 16.5979 2.528 16.4819L1.41856 15.407C1.30262 15.2947 1.23344 15.1426 1.2249 14.9814C1.21635 14.8201 1.26907 14.6616 1.37248 14.5376L2.3456 13.3709C2.39861 13.3038 2.46451 13.2481 2.53942 13.2069C2.61432 13.1657 2.69672 13.14 2.78174 13.1312C2.86676 13.1224 2.95268 13.1307 3.03443 13.1556C3.11619 13.1806 3.19212 13.2216 3.25774 13.2764C3.32337 13.3312 3.37736 13.3985 3.41653 13.4745C3.45569 13.5505 3.47925 13.6335 3.4858 13.7187C3.49235 13.804 3.48176 13.8896 3.45466 13.9707C3.42755 14.0518 3.38449 14.1266 3.328 14.1907L2.736 14.9011L3.41856 15.5626C3.51016 15.6512 3.5732 15.7652 3.59958 15.89C3.62595 16.0147 3.61448 16.1445 3.56662 16.2627C3.51876 16.3808 3.4367 16.482 3.33096 16.5532C3.22522 16.6244 3.10061 16.6625 2.97312 16.6624ZM4.88288 20.3955C4.76124 20.3955 4.64214 20.3607 4.53952 20.2954C4.4369 20.2301 4.35503 20.1369 4.30348 20.0267C4.25193 19.9166 4.23285 19.794 4.24848 19.6733C4.2641 19.5527 4.31377 19.439 4.39168 19.3456L4.98432 18.6352L4.30176 17.9738C4.23726 17.9163 4.18505 17.8465 4.14827 17.7683C4.11149 17.6902 4.0909 17.6054 4.08775 17.5191C4.0846 17.4328 4.09894 17.3468 4.12993 17.2662C4.16091 17.1855 4.20788 17.112 4.26802 17.0501C4.32816 16.9881 4.40022 16.9389 4.47986 16.9055C4.55951 16.8721 4.64508 16.8552 4.73144 16.8558C4.8178 16.8563 4.90315 16.8743 4.98236 16.9088C5.06156 16.9432 5.13298 16.9933 5.19232 17.056L6.30176 18.1309C6.4177 18.2433 6.48688 18.3953 6.49543 18.5566C6.50397 18.7178 6.45126 18.8763 6.34784 19.0003L5.376 20.1654C5.31576 20.2377 5.24034 20.2957 5.15511 20.3355C5.06988 20.3753 4.97693 20.3958 4.88288 20.3955ZM16.5261 14.2221C16.3563 14.2221 16.1936 14.1547 16.0735 14.0346C15.9535 13.9146 15.8861 13.7518 15.8861 13.5821V9.968C15.8861 9.79826 15.9535 9.63548 16.0735 9.51545C16.1936 9.39543 16.3563 9.328 16.5261 9.328C16.6958 9.328 16.8586 9.39543 16.9786 9.51545C17.0987 9.63548 17.1661 9.79826 17.1661 9.968V13.5821C17.1661 13.7518 17.0987 13.9146 16.9786 14.0346C16.8586 14.1547 16.6958 14.2221 16.5261 14.2221ZM11.4662 14.2221C11.0268 14.2221 10.5971 14.0918 10.2317 13.8476C9.8663 13.6034 9.58149 13.2564 9.41331 12.8504C9.24512 12.4443 9.20112 11.9975 9.28686 11.5665C9.3726 11.1355 9.58423 10.7395 9.89499 10.4288C10.2058 10.118 10.6017 9.90636 11.0327 9.82062C11.4638 9.73488 11.9106 9.77888 12.3166 9.94707C12.7226 10.1153 13.0697 10.4001 13.3138 10.7655C13.558 11.1309 13.6883 11.5605 13.6883 12C13.6876 12.5891 13.4533 13.1539 13.0367 13.5705C12.6202 13.9871 12.0554 14.2214 11.4662 14.2221ZM11.4662 11.0579C11.2799 11.0579 11.0978 11.1132 10.9429 11.2167C10.7879 11.3202 10.6672 11.4673 10.5959 11.6395C10.5246 11.8116 10.5059 12.001 10.5423 12.1838C10.5786 12.3665 10.6683 12.5344 10.8001 12.6662C10.9318 12.7979 11.0997 12.8876 11.2825 12.924C11.4652 12.9603 11.6546 12.9417 11.8268 12.8704C11.9989 12.7991 12.146 12.6783 12.2496 12.5234C12.3531 12.3685 12.4083 12.1863 12.4083 12C12.408 11.7503 12.3086 11.5108 12.132 11.3342C11.9554 11.1576 11.716 11.0583 11.4662 11.0579Z" fill="#202020"/>
</svg>
