<svg width="24" height="24" viewBox="0 0 24 24" fill="none" xmlns="http://www.w3.org/2000/svg">
<path d="M17.4202 18.0698H7.20297C6.55522 18.069 5.93423 17.8113 5.4762 17.3533C5.01818 16.8953 4.76053 16.2743 4.75977 15.6266V8.02624C4.76053 7.3785 5.01818 6.7575 5.4762 6.29948C5.93423 5.84145 6.55522 5.5838 7.20297 5.58304H15.7412C15.9109 5.58304 16.0737 5.65047 16.1938 5.77049C16.3138 5.89051 16.3812 6.0533 16.3812 6.22304C16.3812 6.39278 16.3138 6.55556 16.1938 6.67559C16.0737 6.79561 15.9109 6.86304 15.7412 6.86304H7.20297C6.89457 6.86338 6.5989 6.98604 6.38083 7.20411C6.16276 7.42217 6.0401 7.71784 6.03977 8.02624V15.6266C6.0401 15.935 6.16276 16.2306 6.38083 16.4487C6.5989 16.6668 6.89457 16.7894 7.20297 16.7898H17.4202C17.7287 16.7894 18.0244 16.6668 18.2425 16.4487C18.4606 16.2307 18.5833 15.935 18.5838 15.6266V10.6211C18.5838 10.4514 18.6512 10.2886 18.7712 10.1686C18.8912 10.0485 19.054 9.98112 19.2238 9.98112C19.3935 9.98112 19.5563 10.0485 19.6763 10.1686C19.7963 10.2886 19.8638 10.4514 19.8638 10.6211V15.6266C19.863 16.2744 19.6053 16.8954 19.1472 17.3534C18.6891 17.8115 18.068 18.0691 17.4202 18.0698Z" fill="#202020"/>
<path d="M19.2238 15.456H5.39977C5.23003 15.456 5.06724 15.3886 4.94722 15.2685C4.82719 15.1485 4.75977 14.9857 4.75977 14.816C4.75977 14.6463 4.82719 14.4835 4.94722 14.3634C5.06724 14.2434 5.23003 14.176 5.39977 14.176H19.2238C19.3935 14.176 19.5563 14.2434 19.6763 14.3634C19.7963 14.4835 19.8638 14.6463 19.8638 14.816C19.8638 14.9857 19.7963 15.1485 19.6763 15.2685C19.5563 15.3886 19.3935 15.456 19.2238 15.456ZM12.3118 21.7197C12.142 21.7197 11.9792 21.6522 11.8592 21.5322C11.7392 21.4122 11.6718 21.2494 11.6718 21.0797V17.5331C11.6718 17.3634 11.7392 17.2006 11.8592 17.0806C11.9792 16.9605 12.142 16.8931 12.3118 16.8931C12.4815 16.8931 12.6443 16.9605 12.7643 17.0806C12.8843 17.2006 12.9518 17.3634 12.9518 17.5331V21.0797C12.9518 21.2494 12.8843 21.4122 12.7643 21.5322C12.6443 21.6522 12.4815 21.7197 12.3118 21.7197Z" fill="#202020"/>
<path d="M14.6269 21.7197H9.74791C9.57817 21.7197 9.41539 21.6523 9.29536 21.5322C9.17534 21.4122 9.10791 21.2494 9.10791 21.0797C9.10791 20.9099 9.17534 20.7472 9.29536 20.6271C9.41539 20.5071 9.57817 20.4397 9.74791 20.4397H14.6269C14.7967 20.4397 14.9595 20.5071 15.0795 20.6271C15.1995 20.7472 15.2669 20.9099 15.2669 21.0797C15.2669 21.2494 15.1995 21.4122 15.0795 21.5322C14.9595 21.6523 14.7967 21.7197 14.6269 21.7197ZM20.2337 9.70913H18.1988C17.7941 9.70887 17.4061 9.54807 17.1199 9.26202C16.8336 8.97597 16.6726 8.58803 16.6721 8.18337V7.05825C16.6726 6.65375 16.8335 6.26596 17.1195 5.97993C17.4055 5.69391 17.7933 5.53299 18.1978 5.53249H20.2337C20.6383 5.53282 21.0262 5.69366 21.3124 5.97971C21.5986 6.26575 21.7596 6.65363 21.7601 7.05825V8.18337C21.7596 8.58798 21.5986 8.97586 21.3124 9.26191C21.0262 9.54795 20.6383 9.70879 20.2337 9.70913ZM18.1988 6.81249C18.1336 6.81249 18.0711 6.83838 18.025 6.88447C17.9789 6.93056 17.953 6.99307 17.953 7.05825V8.18337C17.9531 8.24852 17.979 8.31098 18.0251 8.35705C18.0712 8.40312 18.1336 8.42904 18.1988 8.42913H20.2337C20.2988 8.42904 20.3613 8.40312 20.4074 8.35705C20.4534 8.31098 20.4793 8.24852 20.4794 8.18337V7.05825C20.4793 6.99309 20.4534 6.93063 20.4074 6.88456C20.3613 6.83849 20.2988 6.81257 20.2337 6.81249H18.1988Z" fill="#202020"/>
<path d="M22.2002 9.27137C22.0437 9.27134 21.8891 9.23762 21.7468 9.17249L20.8536 8.76577C20.742 8.71482 20.6473 8.63283 20.5809 8.52957C20.5145 8.4263 20.4792 8.30613 20.4792 8.18337V7.05825C20.4792 6.94037 20.5117 6.82478 20.5732 6.72421C20.6347 6.62365 20.7228 6.54202 20.8277 6.48833L21.7026 6.04033C21.869 5.95532 22.0545 5.91445 22.2413 5.92165C22.428 5.92884 22.6098 5.98384 22.7692 6.0814C22.9286 6.17896 23.0603 6.3158 23.1517 6.47882C23.2431 6.64185 23.2911 6.8256 23.2911 7.01249V8.17921C23.2909 8.46859 23.176 8.7461 22.9715 8.95084C22.767 9.15559 22.4896 9.27086 22.2002 9.27137ZM21.7599 7.77153L22.0117 7.88641V7.32097L21.7599 7.44897V7.77153Z" fill="#202020"/>
</svg>
