<svg width="24" height="24" viewBox="0 0 24 24" fill="none" xmlns="http://www.w3.org/2000/svg">
<path d="M9.40416 12.64H8.30016C8.13042 12.64 7.96763 12.5726 7.84761 12.4525C7.72758 12.3325 7.66016 12.1697 7.66016 12C7.66016 11.8302 7.72758 11.6675 7.84761 11.5474C7.96763 11.4274 8.13042 11.36 8.30016 11.36H9.40416C9.57389 11.36 9.73668 11.4274 9.8567 11.5474C9.97673 11.6675 10.0442 11.8302 10.0442 12C10.0442 12.1697 9.97673 12.3325 9.8567 12.4525C9.73668 12.5726 9.57389 12.64 9.40416 12.64ZM12.5606 12.64H11.424C11.2543 12.64 11.0915 12.5726 10.9714 12.4525C10.8514 12.3325 10.784 12.1697 10.784 12C10.784 11.8302 10.8514 11.6675 10.9714 11.5474C11.0915 11.4274 11.2543 11.36 11.424 11.36H12.5616C12.7313 11.36 12.8941 11.4274 13.0141 11.5474C13.1342 11.6675 13.2016 11.8302 13.2016 12C13.2016 12.1697 13.1342 12.3325 13.0141 12.4525C12.8941 12.5726 12.7313 12.64 12.5616 12.64H12.5606ZM15.6998 12.64H14.5091C14.3394 12.64 14.1766 12.5726 14.0566 12.4525C13.9365 12.3325 13.8691 12.1697 13.8691 12C13.8691 11.8302 13.9365 11.6675 14.0566 11.5474C14.1766 11.4274 14.3394 11.36 14.5091 11.36H15.6998C15.8696 11.36 16.0324 11.4274 16.1524 11.5474C16.2724 11.6675 16.3398 11.8302 16.3398 12C16.3398 12.1697 16.2724 12.3325 16.1524 12.4525C16.0324 12.5726 15.8696 12.64 15.6998 12.64Z" fill="#202020"/>
<path d="M11.9999 20.6807C9.99172 20.6806 8.04565 19.9842 6.49332 18.7101C4.94098 17.4361 3.87843 15.6632 3.4867 13.6935C3.09497 11.7239 3.39831 9.67934 4.34502 7.90827C5.29173 6.1372 6.82325 4.74917 8.67862 3.98069C10.534 3.21222 12.5984 3.11083 14.5202 3.69382C16.4419 4.27681 18.1021 5.50809 19.2178 7.17788C20.3334 8.84767 20.8357 10.8526 20.6388 12.8512C20.4419 14.8498 19.5582 16.7182 18.1382 18.1383C17.3339 18.9468 16.3773 19.5878 15.3237 20.0242C14.2701 20.4606 13.1404 20.6837 11.9999 20.6807ZM11.9999 4.59937C7.91931 4.59937 4.59931 7.91937 4.59931 12C4.59931 16.0806 7.91931 19.4007 11.9999 19.4007C16.0806 19.4007 19.4006 16.0806 19.4006 12C19.4006 7.91937 16.0806 4.59937 11.9999 4.59937Z" fill="#202020"/>
<path d="M11.9999 20.6807C9.99172 20.6806 8.04565 19.9842 6.49332 18.7101C4.94098 17.4361 3.87843 15.6632 3.4867 13.6935C3.09497 11.7239 3.39831 9.67934 4.34502 7.90827C5.29173 6.1372 6.82325 4.74917 8.67862 3.98069C10.534 3.21222 12.5984 3.11083 14.5202 3.69382C16.4419 4.27681 18.1021 5.50809 19.2178 7.17788C20.3334 8.84767 20.8357 10.8526 20.6388 12.8512C20.4419 14.8498 19.5582 16.7182 18.1382 18.1383C17.3339 18.9468 16.3773 19.5878 15.3237 20.0242C14.2701 20.4606 13.1404 20.6837 11.9999 20.6807ZM11.9999 4.59937C7.91931 4.59937 4.59931 7.91937 4.59931 12C4.59931 16.0806 7.91931 19.4007 11.9999 19.4007C16.0806 19.4007 19.4006 16.0806 19.4006 12C19.4006 7.91937 16.0806 4.59937 11.9999 4.59937Z" fill="#202020"/>
</svg>
