<svg width="24" height="24" viewBox="0 0 24 24" fill="none" xmlns="http://www.w3.org/2000/svg">
<path d="M5.35905 14.5238C4.85988 14.5238 4.37192 14.3757 3.95688 14.0984C3.54183 13.8211 3.21835 13.4269 3.02732 12.9657C2.8363 12.5046 2.78632 11.9971 2.8837 11.5075C2.98108 11.018 3.22146 10.5683 3.57442 10.2153C3.92739 9.86233 4.37709 9.62195 4.86667 9.52457C5.35625 9.42719 5.86371 9.47717 6.32488 9.66819C6.78605 9.85921 7.18022 10.1827 7.45754 10.5977C7.73487 11.0128 7.88289 11.5007 7.88289 11.9999C7.88179 12.6689 7.61553 13.3103 7.14246 13.7833C6.66938 14.2564 6.02807 14.5227 5.35905 14.5238ZM5.35905 10.7561C5.11304 10.7561 4.87255 10.829 4.66801 10.9657C4.46346 11.1024 4.30403 11.2966 4.20989 11.5239C4.11574 11.7512 4.09111 12.0013 4.13911 12.2426C4.1871 12.4839 4.30556 12.7055 4.47952 12.8794C4.65347 13.0534 4.8751 13.1719 5.11638 13.2199C5.35767 13.2678 5.60776 13.2432 5.83504 13.1491C6.06233 13.0549 6.25659 12.8955 6.39326 12.691C6.52994 12.4864 6.60289 12.2459 6.60289 11.9999C6.60246 11.6702 6.47128 11.354 6.23811 11.1209C6.00493 10.8877 5.6888 10.7565 5.35905 10.7561ZM12 14.5238C11.5008 14.5238 11.0129 14.3757 10.5978 14.0984C10.1828 13.8211 9.85931 13.4269 9.66828 12.9657C9.47726 12.5046 9.42728 11.9971 9.52466 11.5075C9.62204 11.018 9.86242 10.5683 10.2154 10.2153C10.5683 9.86233 11.0181 9.62195 11.5076 9.52457C11.9972 9.42719 12.5047 9.47717 12.9658 9.66819C13.427 9.85921 13.8212 10.1827 14.0985 10.5977C14.3758 11.0128 14.5238 11.5007 14.5238 11.9999C14.5227 12.6689 14.2565 13.3103 13.7834 13.7833C13.3103 14.2564 12.669 14.5227 12 14.5238ZM12 10.7561C11.754 10.7561 11.5135 10.829 11.309 10.9657C11.1044 11.1024 10.945 11.2966 10.8508 11.5239C10.7567 11.7512 10.7321 12.0013 10.7801 12.2426C10.8281 12.4839 10.9465 12.7055 11.1205 12.8794C11.2944 13.0534 11.5161 13.1719 11.7573 13.2199C11.9986 13.2678 12.2487 13.2432 12.476 13.1491C12.7033 13.0549 12.8975 12.8955 13.0342 12.691C13.1709 12.4864 13.2438 12.2459 13.2438 11.9999C13.2434 11.6702 13.1122 11.354 12.8791 11.1209C12.6459 10.8877 12.3298 10.7565 12 10.7561ZM18.641 14.5238C18.1418 14.5238 17.6538 14.3757 17.2388 14.0984C16.8238 13.8211 16.5003 13.4269 16.3092 12.9657C16.1182 12.5046 16.0682 11.9971 16.1656 11.5075C16.263 11.018 16.5034 10.5683 16.8563 10.2153C17.2093 9.86233 17.659 9.62195 18.1486 9.52457C18.6382 9.42719 19.1456 9.47717 19.6068 9.66819C20.068 9.85921 20.4621 10.1827 20.7395 10.5977C21.0168 11.0128 21.1648 11.5007 21.1648 11.9999C21.1637 12.6689 20.8974 13.3103 20.4244 13.7833C19.9513 14.2564 19.31 14.5227 18.641 14.5238ZM18.641 10.7561C18.395 10.7561 18.1545 10.829 17.9499 10.9657C17.7454 11.1024 17.5859 11.2966 17.4918 11.5239C17.3977 11.7512 17.373 12.0013 17.421 12.2426C17.469 12.4839 17.5875 12.7055 17.7614 12.8794C17.9354 13.0534 18.157 13.1719 18.3983 13.2199C18.6396 13.2678 18.8897 13.2432 19.117 13.1491C19.3442 13.0549 19.5385 12.8955 19.6752 12.691C19.8119 12.4864 19.8848 12.2459 19.8848 11.9999C19.8844 11.6702 19.7532 11.354 19.52 11.1209C19.2868 10.8877 18.9707 10.7565 18.641 10.7561Z" fill="#202020"/>
</svg>
