<svg width="24" height="24" viewBox="0 0 24 24" fill="none" xmlns="http://www.w3.org/2000/svg">
<path d="M12 20.2071C8.9117 20.2071 6.40002 17.6944 6.40002 14.6071V9.39394C6.40002 6.30562 8.91266 3.79395 12 3.79395C15.0874 3.79395 17.6 6.30659 17.6 9.39394V14.6061C17.6 17.696 15.0883 20.2071 12 20.2071ZM12 5.07299C9.6173 5.07299 7.68002 7.01123 7.68002 9.39298V14.6061C7.68002 16.9888 9.61826 18.9261 12 18.9261C14.3827 18.9261 16.32 16.9879 16.32 14.6061V9.39394C16.32 7.01123 14.3827 5.07299 12 5.07299Z" fill="#202020"/>
<path d="M12 8.14497C11.8302 8.14497 11.6675 8.07754 11.5474 7.95752C11.4274 7.83749 11.36 7.67471 11.36 7.50497V4.43297C11.36 4.26323 11.4274 4.10044 11.5474 3.98042C11.6675 3.8604 11.8302 3.79297 12 3.79297C12.1697 3.79297 12.3325 3.8604 12.4525 3.98042C12.5726 4.10044 12.64 4.26323 12.64 4.43297V7.50497C12.64 7.67471 12.5726 7.83749 12.4525 7.95752C12.3325 8.07754 12.1697 8.14497 12 8.14497Z" fill="#202020"/>
<path d="M11.9069 10.5242C11.5165 10.5242 11.1421 10.3691 10.8661 10.0931C10.59 9.817 10.4349 9.44259 10.4349 9.05219V8.33699C10.4349 7.94659 10.59 7.57218 10.8661 7.29613C11.1421 7.02008 11.5165 6.86499 11.9069 6.86499C12.2973 6.86499 12.6717 7.02008 12.9478 7.29613C13.2239 7.57218 13.3789 7.94659 13.3789 8.33699V9.05219C13.3785 9.44246 13.2233 9.81662 12.9473 10.0926C12.6714 10.3685 12.2972 10.5238 11.9069 10.5242ZM11.9069 8.14499C11.856 8.14499 11.8072 8.16522 11.7712 8.20123C11.7352 8.23723 11.7149 8.28607 11.7149 8.33699V9.05219C11.7149 9.10311 11.7352 9.15195 11.7712 9.18796C11.8072 9.22396 11.856 9.24419 11.9069 9.24419C11.9579 9.24419 12.0067 9.22396 12.0427 9.18796C12.0787 9.15195 12.0989 9.10311 12.0989 9.05219V8.33699C12.0989 8.28607 12.0787 8.23723 12.0427 8.20123C12.0067 8.16522 11.9579 8.14499 11.9069 8.14499Z" fill="#202020"/>
</svg>
