<svg width="24" height="24" viewBox="0 0 24 24" fill="none" xmlns="http://www.w3.org/2000/svg">
<path d="M12.0002 19.2343C10.5695 19.2343 9.17094 18.81 7.98137 18.0151C6.79181 17.2202 5.86467 16.0904 5.31719 14.7686C4.76971 13.4467 4.62649 11.9923 4.90562 10.5891C5.18475 9.18584 5.87371 7.89691 6.88537 6.88525C7.89703 5.87359 9.18596 5.18463 10.5892 4.9055C11.9924 4.62636 13.4469 4.76959 14.7687 5.31707C16.0905 5.86455 17.2203 6.79169 18.0152 7.98125C18.8101 9.17081 19.2344 10.5694 19.2344 12.0001C19.2344 12.1698 19.167 12.3326 19.047 12.4526C18.927 12.5727 18.7642 12.6401 18.5944 12.6401C18.4247 12.6401 18.2619 12.5727 18.1419 12.4526C18.0219 12.3326 17.9544 12.1698 17.9544 12.0001C17.9544 8.71688 15.2834 6.04584 12.0002 6.04584C8.717 6.04584 6.04596 8.71688 6.04596 12.0001C6.04596 15.2833 8.717 17.9543 12.0002 17.9543C12.1699 17.9543 12.3327 18.0218 12.4528 18.1418C12.5728 18.2618 12.6402 18.4246 12.6402 18.5943C12.6402 18.7641 12.5728 18.9268 12.4528 19.0469C12.3327 19.1669 12.1699 19.2343 12.0002 19.2343Z" fill="#202020"/>
<path d="M14.5902 20.163C14.4551 20.1628 14.3235 20.1198 14.2142 20.0403C14.105 19.9607 14.0238 19.8486 13.9822 19.7201L11.6683 12.5761C11.6328 12.4663 11.6276 12.349 11.6533 12.2366C11.679 12.1241 11.7346 12.0207 11.8142 11.9373C11.8939 11.8538 11.9946 11.7935 12.1057 11.7625C12.2168 11.7316 12.3343 11.7313 12.4455 11.7617L19.4215 13.6631C19.5519 13.6994 19.6674 13.7762 19.7514 13.8823C19.8354 13.9883 19.8836 14.1183 19.8892 14.2535C19.8947 14.3888 19.8572 14.5222 19.7821 14.6348C19.707 14.7474 19.5981 14.8332 19.4711 14.8801L16.0587 16.1249L15.2129 19.6714C15.1806 19.8072 15.1047 19.9287 14.9969 20.0174C14.8891 20.1061 14.7553 20.1571 14.6158 20.1626L14.5902 20.163ZM13.2503 13.3066L14.4961 17.1562L14.8929 15.4922C14.9175 15.3894 14.9673 15.2943 15.0376 15.2154C15.108 15.1365 15.1968 15.0763 15.2961 15.0401L17.1412 14.3681L13.2503 13.3066Z" fill="#202020"/>
</svg>
