<svg width="24" height="24" viewBox="0 0 24 24" fill="none" xmlns="http://www.w3.org/2000/svg">
<path d="M12 19.2342C10.5693 19.2341 9.17069 18.8098 7.98113 18.0149C6.79157 17.22 5.86443 16.0902 5.31695 14.7684C4.76947 13.4466 4.62624 11.9921 4.90537 10.5889C5.18451 9.18572 5.87346 7.89679 6.88513 6.88513C7.89679 5.87346 9.18572 5.18451 10.5889 4.90537C11.9921 4.62624 13.4466 4.76947 14.7684 5.31695C16.0902 5.86443 17.22 6.79157 18.0149 7.98113C18.8098 9.17069 19.2341 10.5693 19.2342 12C19.2342 12.1697 19.1668 12.3325 19.0468 12.4525C18.9267 12.5725 18.7639 12.64 18.5942 12.64C18.4245 12.64 18.2617 12.5725 18.1417 12.4525C18.0216 12.3325 17.9542 12.1697 17.9542 12C17.9542 8.71676 15.2832 6.04572 12 6.04572C8.71676 6.04572 6.04572 8.71676 6.04572 12C6.04572 15.2832 8.71676 17.9542 12 17.9542C12.1697 17.9542 12.3325 18.0216 12.4525 18.1417C12.5725 18.2617 12.64 18.4245 12.64 18.5942C12.64 18.7639 12.5725 18.9267 12.4525 19.0468C12.3325 19.1668 12.1697 19.2342 12 19.2342Z" fill="#202020"/>
<path d="M14.5901 20.1628C14.4549 20.1626 14.3233 20.1197 14.2141 20.0401C14.1049 19.9606 14.0237 19.8485 13.9821 19.7199L11.6681 12.5759C11.6326 12.4662 11.6275 12.3489 11.6532 12.2364C11.6789 12.124 11.7345 12.0206 11.8141 11.9371C11.8937 11.8537 11.9945 11.7933 12.1056 11.7624C12.2167 11.7315 12.3341 11.7312 12.4454 11.7615L19.4214 13.663C19.5518 13.6993 19.6673 13.776 19.7513 13.8821C19.8353 13.9882 19.8835 14.1182 19.889 14.2534C19.8945 14.3886 19.8571 14.5221 19.7819 14.6347C19.7068 14.7473 19.598 14.8331 19.471 14.8799L16.0585 16.1247L15.2128 19.6713C15.1804 19.8071 15.1046 19.9286 14.9968 20.0173C14.889 20.106 14.7551 20.157 14.6157 20.1625L14.5901 20.1628ZM13.2502 13.3065L14.496 17.1561L14.8928 15.4921C14.9174 15.3893 14.9671 15.2942 15.0375 15.2153C15.1078 15.1364 15.1967 15.0762 15.296 15.0399L17.1411 14.3679L13.2502 13.3065Z" fill="#202020"/>
</svg>
