<svg width="24" height="24" viewBox="0 0 24 24" fill="none" xmlns="http://www.w3.org/2000/svg">
<path d="M12.0001 19.2342H7.71595C6.93383 19.2333 6.184 18.9222 5.63096 18.3691C5.07791 17.8161 4.7668 17.0663 4.76587 16.2841V7.71583C4.7668 6.9337 5.07791 6.18388 5.63096 5.63083C6.184 5.07779 6.93383 4.76668 7.71595 4.76575H16.2843C17.0664 4.76668 17.8162 5.07779 18.3693 5.63083C18.9223 6.18388 19.2334 6.9337 19.2343 7.71583V12C19.2343 12.1697 19.1669 12.3325 19.0469 12.4525C18.9269 12.5726 18.7641 12.64 18.5943 12.64C18.4246 12.64 18.2618 12.5726 18.1418 12.4525C18.0218 12.3325 17.9543 12.1697 17.9543 12V7.71583C17.9538 7.27305 17.7777 6.84855 17.4646 6.53546C17.1515 6.22237 16.727 6.04626 16.2843 6.04575H7.71595C7.27317 6.04626 6.84868 6.22237 6.53559 6.53546C6.2225 6.84855 6.04638 7.27305 6.04587 7.71583V16.2841C6.04638 16.7269 6.2225 17.1514 6.53559 17.4645C6.84868 17.7776 7.27317 17.9537 7.71595 17.9542H12.0001C12.1698 17.9542 12.3326 18.0217 12.4527 18.1417C12.5727 18.2617 12.6401 18.4245 12.6401 18.5942C12.6401 18.764 12.5727 18.9268 12.4527 19.0468C12.3326 19.1668 12.1698 19.2342 12.0001 19.2342Z" fill="#202020"/>
<path d="M14.5902 20.163C14.4551 20.1628 14.3235 20.1198 14.2142 20.0403C14.105 19.9607 14.0238 19.8486 13.9822 19.7201L11.6683 12.5761C11.6328 12.4663 11.6276 12.349 11.6533 12.2366C11.679 12.1241 11.7346 12.0207 11.8142 11.9373C11.8939 11.8538 11.9946 11.7935 12.1057 11.7625C12.2168 11.7316 12.3343 11.7313 12.4455 11.7617L19.4215 13.6631C19.5519 13.6994 19.6674 13.7762 19.7514 13.8823C19.8354 13.9883 19.8836 14.1183 19.8892 14.2535C19.8947 14.3888 19.8572 14.5222 19.7821 14.6348C19.707 14.7474 19.5981 14.8332 19.4711 14.8801L16.0587 16.1249L15.2129 19.6714C15.1806 19.8072 15.1047 19.9287 14.9969 20.0174C14.8891 20.1061 14.7553 20.1571 14.6158 20.1626L14.5902 20.163ZM13.2503 13.3066L14.4961 17.1562L14.8929 15.4922C14.9175 15.3894 14.9673 15.2943 15.0376 15.2154C15.108 15.1365 15.1968 15.0763 15.2961 15.0401L17.1412 14.3681L13.2503 13.3066Z" fill="#202020"/>
</svg>
