<svg width="24" height="24" viewBox="0 0 24 24" fill="none" xmlns="http://www.w3.org/2000/svg">
<path d="M12 19.2342H7.71583C6.9337 19.2333 6.18388 18.9222 5.63083 18.3691C5.07779 17.8161 4.76668 17.0663 4.76575 16.2841V7.71583C4.76668 6.9337 5.07779 6.18388 5.63083 5.63083C6.18388 5.07779 6.9337 4.76668 7.71583 4.76575H16.2841C17.0663 4.76668 17.8161 5.07779 18.3691 5.63083C18.9222 6.18388 19.2333 6.9337 19.2342 7.71583V12C19.2342 12.1697 19.1668 12.3325 19.0468 12.4525C18.9268 12.5726 18.764 12.64 18.5942 12.64C18.4245 12.64 18.2617 12.5726 18.1417 12.4525C18.0217 12.3325 17.9542 12.1697 17.9542 12V7.71583C17.9537 7.27305 17.7776 6.84855 17.4645 6.53546C17.1514 6.22237 16.7269 6.04626 16.2841 6.04575H7.71583C7.27305 6.04626 6.84855 6.22237 6.53546 6.53546C6.22237 6.84855 6.04626 7.27305 6.04575 7.71583V16.2841C6.04626 16.7269 6.22237 17.1514 6.53546 17.4645C6.84855 17.7776 7.27305 17.9537 7.71583 17.9542H12C12.1697 17.9542 12.3325 18.0217 12.4525 18.1417C12.5726 18.2617 12.64 18.4245 12.64 18.5942C12.64 18.764 12.5726 18.9268 12.4525 19.0468C12.3325 19.1668 12.1697 19.2342 12 19.2342Z" fill="#202020"/>
<path d="M14.5897 20.1631C14.4546 20.1629 14.323 20.1199 14.2138 20.0404C14.1045 19.9608 14.0233 19.8487 13.9817 19.7202L11.6678 12.5762C11.6323 12.4664 11.6271 12.3491 11.6528 12.2367C11.6785 12.1242 11.7341 12.0208 11.8137 11.9374C11.8934 11.8539 11.9941 11.7936 12.1052 11.7627C12.2163 11.7318 12.3338 11.7315 12.4451 11.7618L19.421 13.6632C19.5514 13.6996 19.6669 13.7763 19.7509 13.8824C19.8349 13.9885 19.8832 14.1185 19.8887 14.2537C19.8942 14.3889 19.8567 14.5224 19.7816 14.6349C19.7065 14.7475 19.5976 14.8334 19.4706 14.8802L16.0582 16.125L15.2124 19.6716C15.1801 19.8073 15.1042 19.9288 14.9964 20.0175C14.8886 20.1062 14.7548 20.1572 14.6153 20.1628L14.5897 20.1631ZM13.2499 13.3068L14.4956 17.1564L14.8924 15.4924C14.917 15.3895 14.9668 15.2944 15.0371 15.2155C15.1075 15.1366 15.1963 15.0764 15.2956 15.0402L17.1407 14.3682L13.2499 13.3068Z" fill="#202020"/>
</svg>
