<svg width="24" height="24" viewBox="0 0 24 24" fill="none" xmlns="http://www.w3.org/2000/svg">
<path d="M17.0319 20.4557H6.96795C6.06016 20.4547 5.18984 20.0936 4.54793 19.4517C3.90603 18.8098 3.54496 17.9395 3.54395 17.0317V6.96801C3.54496 6.06022 3.90603 5.1899 4.54793 4.548C5.18984 3.90609 6.06016 3.54502 6.96795 3.54401H17.0319C17.9397 3.54502 18.8101 3.90609 19.452 4.548C20.0939 5.1899 20.4549 6.06022 20.4559 6.96801V17.032C20.4548 17.9397 20.0937 18.81 19.4518 19.4518C18.8099 20.0936 17.9397 20.4547 17.0319 20.4557ZM6.96795 4.82433C6.39948 4.82483 5.85444 5.05088 5.45247 5.45285C5.0505 5.85482 4.82445 6.39986 4.82395 6.96833V17.0323C4.82445 17.6008 5.0505 18.1458 5.45247 18.5478C5.85444 18.9498 6.39948 19.1758 6.96795 19.1763H17.0319C17.6004 19.1758 18.1455 18.9498 18.5474 18.5478C18.9494 18.1458 19.1754 17.6008 19.1759 17.0323V6.96801C19.1754 6.39954 18.9494 5.8545 18.5474 5.45253C18.1455 5.05056 17.6004 4.82451 17.0319 4.82401L6.96795 4.82433Z" fill="#202020"/>
<path d="M8.97963 16.5779C8.59764 16.5777 8.22428 16.4643 7.90677 16.2519C7.58925 16.0395 7.34183 15.7378 7.1958 15.3848C7.04976 15.0318 7.01166 14.6435 7.08633 14.2689C7.16099 13.8942 7.34506 13.5502 7.61525 13.2802C7.88545 13.0101 8.22965 12.8263 8.60432 12.7519C8.97899 12.6775 9.36732 12.7158 9.7202 12.8621C10.0731 13.0084 10.3747 13.256 10.5868 13.5736C10.799 13.8913 10.9122 14.2647 10.9121 14.6467C10.9116 15.159 10.7078 15.6501 10.3455 16.0122C9.98313 16.3743 9.49188 16.5777 8.97963 16.5779ZM8.97963 13.9952C8.85082 13.9954 8.72494 14.0338 8.61793 14.1055C8.51091 14.1772 8.42756 14.279 8.37839 14.3981C8.32923 14.5171 8.31646 14.6481 8.34171 14.7744C8.36696 14.9007 8.42908 15.0167 8.52024 15.1077C8.61139 15.1988 8.72748 15.2607 8.85384 15.2858C8.9802 15.3108 9.11115 15.2979 9.23014 15.2485C9.34913 15.1992 9.45083 15.1157 9.52238 15.0086C9.59393 14.9015 9.63211 14.7755 9.63211 14.6467C9.63194 14.4738 9.56311 14.308 9.44076 14.1859C9.31841 14.0637 9.15254 13.9951 8.97963 13.9952Z" fill="#202020"/>
<path d="M10.2721 15.2109C10.1023 15.2109 9.93955 15.1435 9.81953 15.0234C9.69951 14.9034 9.63208 14.7406 9.63208 14.5709V10.2189C9.63334 9.77139 9.79576 9.33933 10.0896 9.00182C10.3834 8.66432 10.789 8.44397 11.2321 8.38112L13.8881 8.01664C14.1504 7.9809 14.4173 8.00169 14.6709 8.07762C14.9246 8.15355 15.159 8.28285 15.3585 8.45685C15.558 8.63086 15.718 8.84553 15.8278 9.08647C15.9375 9.3274 15.9944 9.58902 15.9946 9.85376V13.873C15.9946 14.0427 15.9272 14.2055 15.8072 14.3255C15.6872 14.4455 15.5244 14.513 15.3546 14.513C15.1849 14.513 15.0221 14.4455 14.9021 14.3255C14.7821 14.2055 14.7146 14.0427 14.7146 13.873V9.85376C14.7144 9.77182 14.6966 9.69089 14.6626 9.61636C14.6285 9.54183 14.579 9.47542 14.5172 9.42157C14.4554 9.36772 14.3829 9.32766 14.3044 9.30408C14.226 9.28049 14.1434 9.27392 14.0622 9.2848L11.4084 9.64896C11.271 9.66815 11.1451 9.73631 11.0539 9.8409C10.9627 9.94549 10.9124 10.0795 10.9121 10.2182V14.5702C10.9122 14.6543 10.8957 14.7376 10.8635 14.8154C10.8314 14.8931 10.7843 14.9637 10.7249 15.0232C10.6654 15.0827 10.5948 15.1299 10.5171 15.1621C10.4395 15.1943 10.3562 15.2109 10.2721 15.2109Z" fill="#202020"/>
<path d="M14.0621 15.8486C13.6801 15.8486 13.3067 15.7354 12.989 15.5231C12.6714 15.3109 12.4238 15.0092 12.2776 14.6563C12.1315 14.3033 12.0932 13.915 12.1677 13.5403C12.2423 13.1656 12.4262 12.8215 12.6963 12.5513C12.9665 12.2812 13.3106 12.0972 13.6853 12.0227C14.06 11.9482 14.4484 11.9864 14.8013 12.1326C15.1542 12.2788 15.4559 12.5264 15.6681 12.844C15.8804 13.1617 15.9937 13.5351 15.9937 13.9171C15.9931 14.4292 15.7895 14.9202 15.4274 15.2823C15.0652 15.6445 14.5743 15.8481 14.0621 15.8486ZM14.0621 13.2659C13.9333 13.2659 13.8073 13.3041 13.7001 13.3757C13.593 13.4473 13.5095 13.5491 13.4602 13.6682C13.4109 13.7873 13.398 13.9183 13.4232 14.0447C13.4483 14.1711 13.5104 14.2871 13.6016 14.3782C13.6927 14.4693 13.8088 14.5314 13.9352 14.5565C14.0616 14.5816 14.1926 14.5686 14.3117 14.5193C14.4307 14.4699 14.5325 14.3864 14.604 14.2792C14.6756 14.172 14.7137 14.046 14.7137 13.9171C14.7135 13.7444 14.6448 13.5788 14.5226 13.4567C14.4005 13.3346 14.2348 13.266 14.0621 13.2659Z" fill="#202020"/>
</svg>
