<svg width="24" height="24" viewBox="0 0 24 24" fill="none" xmlns="http://www.w3.org/2000/svg">
<path d="M17.0319 20.4557H6.96795C6.06016 20.4547 5.18984 20.0936 4.54793 19.4517C3.90603 18.8098 3.54496 17.9395 3.54395 17.0317V6.96801C3.54496 6.06022 3.90603 5.1899 4.54793 4.548C5.18984 3.90609 6.06016 3.54502 6.96795 3.54401H17.0319C17.9397 3.54502 18.8101 3.90609 19.452 4.548C20.0939 5.1899 20.4549 6.06022 20.4559 6.96801V17.032C20.4548 17.9397 20.0937 18.81 19.4518 19.4518C18.8099 20.0936 17.9397 20.4547 17.0319 20.4557ZM6.96795 4.82433C6.39948 4.82483 5.85444 5.05088 5.45247 5.45285C5.0505 5.85482 4.82445 6.39986 4.82395 6.96833V17.0323C4.82445 17.6008 5.0505 18.1458 5.45247 18.5478C5.85444 18.9498 6.39948 19.1758 6.96795 19.1763H17.0319C17.6004 19.1758 18.1455 18.9498 18.5474 18.5478C18.9494 18.1458 19.1754 17.6008 19.1759 17.0323V6.96801C19.1754 6.39954 18.9494 5.8545 18.5474 5.45253C18.1455 5.05056 17.6004 4.82451 17.0319 4.82401L6.96795 4.82433Z" fill="#202020"/>
<path d="M10.2935 15.8678C9.93273 15.8678 9.58008 15.7609 9.28012 15.5604C8.98017 15.36 8.74638 15.0751 8.60833 14.7418C8.47027 14.4086 8.43415 14.0418 8.50453 13.688C8.57491 13.3342 8.74863 13.0092 9.00372 12.7541C9.25881 12.499 9.58382 12.3253 9.93764 12.2549C10.2915 12.1845 10.6582 12.2206 10.9915 12.3587C11.3248 12.4967 11.6097 12.7305 11.8101 13.0305C12.0105 13.3304 12.1175 13.6831 12.1175 14.0438C12.1175 14.5276 11.9253 14.9915 11.5832 15.3336C11.2412 15.6757 10.7772 15.8678 10.2935 15.8678ZM10.2935 13.5024C10.1859 13.5024 10.0807 13.5343 9.99125 13.5941C9.90179 13.6538 9.83207 13.7388 9.79089 13.8382C9.74972 13.9376 9.73895 14.047 9.75994 14.1525C9.78093 14.258 9.83274 14.355 9.90882 14.4311C9.9849 14.5071 10.0818 14.559 10.1874 14.5799C10.2929 14.6009 10.4023 14.5902 10.5017 14.549C10.6011 14.5078 10.686 14.4381 10.7458 14.3486C10.8056 14.2592 10.8375 14.154 10.8375 14.0464C10.8371 13.9024 10.7796 13.7644 10.6776 13.6628C10.5756 13.5611 10.4375 13.504 10.2935 13.504V13.5024Z" fill="#202020"/>
<path d="M11.4762 14.6157C11.3064 14.6157 11.1437 14.5482 11.0236 14.4282C10.9036 14.3082 10.8362 14.1454 10.8362 13.9757V9.98944C10.8379 9.56655 10.9918 9.1584 11.2697 8.83968C11.5476 8.52095 11.9311 8.31296 12.3498 8.25376L14.7802 7.92C15.0281 7.886 15.2803 7.90549 15.5201 7.97713C15.7598 8.04878 15.9814 8.17093 16.1699 8.33537C16.3585 8.49981 16.5097 8.70272 16.6133 8.93046C16.7169 9.1582 16.7705 9.40548 16.7706 9.65568V13.3357C16.7706 13.5054 16.7032 13.6682 16.5831 13.7882C16.4631 13.9082 16.3003 13.9757 16.1306 13.9757C15.9608 13.9757 15.7981 13.9082 15.678 13.7882C15.558 13.6682 15.4906 13.5054 15.4906 13.3357V9.65568C15.4906 9.58827 15.4761 9.52164 15.4482 9.46028C15.4203 9.39892 15.3795 9.34426 15.3287 9.29996C15.2779 9.25566 15.2182 9.22277 15.1536 9.20348C15.089 9.1842 15.021 9.17897 14.9543 9.18816L12.5239 9.5216C12.411 9.53759 12.3077 9.59367 12.2329 9.67958C12.158 9.76549 12.1166 9.87549 12.1162 9.98944V13.9757C12.1162 14.1454 12.0488 14.3082 11.9287 14.4282C11.8087 14.5482 11.6459 14.6157 11.4762 14.6157Z" fill="#202020"/>
<path d="M14.9477 15.2C14.587 15.2 14.2343 15.093 13.9344 14.8926C13.6344 14.6922 13.4006 14.4073 13.2626 14.074C13.1245 13.7407 13.0884 13.374 13.1588 13.0202C13.2291 12.6663 13.4029 12.3413 13.658 12.0862C13.913 11.8312 14.2381 11.6574 14.5919 11.5871C14.9457 11.5167 15.3124 11.5528 15.6457 11.6908C15.979 11.8289 16.2639 12.0627 16.4643 12.3626C16.6647 12.6626 16.7717 13.0153 16.7717 13.376C16.7717 13.8598 16.5795 14.3237 16.2375 14.6658C15.8954 15.0078 15.4315 15.2 14.9477 15.2ZM14.9477 12.8349C14.8401 12.8349 14.7348 12.8668 14.6453 12.9267C14.5558 12.9865 14.4861 13.0716 14.445 13.1711C14.4039 13.2706 14.3932 13.38 14.4143 13.4856C14.4354 13.5912 14.4874 13.6881 14.5636 13.7641C14.6399 13.8401 14.7369 13.8918 14.8426 13.9126C14.9482 13.9334 15.0576 13.9224 15.157 13.881C15.2564 13.8396 15.3412 13.7696 15.4008 13.68C15.4604 13.5903 15.492 13.4849 15.4917 13.3773C15.4914 13.2332 15.4339 13.0952 15.3319 12.9934C15.23 12.8917 15.0918 12.8346 14.9477 12.8346V12.8349ZM6.96788 20.4557C6.79814 20.4557 6.63536 20.3883 6.51533 20.2682C6.39531 20.1482 6.32788 19.9854 6.32788 19.8157V4.18433C6.32788 4.01459 6.39531 3.8518 6.51533 3.73178C6.63536 3.61176 6.79814 3.54433 6.96788 3.54433C7.13762 3.54433 7.30041 3.61176 7.42043 3.73178C7.54045 3.8518 7.60788 4.01459 7.60788 4.18433V19.8157C7.60788 19.9854 7.54045 20.1482 7.42043 20.2682C7.30041 20.3883 7.13762 20.4557 6.96788 20.4557Z" fill="#202020"/>
</svg>
