<svg width="24" height="24" viewBox="0 0 24 24" fill="none" xmlns="http://www.w3.org/2000/svg">
<path d="M5.63188 20.591C4.98985 20.5914 4.36215 20.4013 3.82817 20.0448C3.29419 19.6883 2.87792 19.1815 2.63202 18.5884C2.38612 17.9953 2.32163 17.3427 2.44672 16.7129C2.5718 16.0832 2.88084 15.5047 3.33473 15.0506C3.78863 14.5966 4.36699 14.2873 4.99667 14.162C5.62635 14.0366 6.27906 14.1009 6.87223 14.3465C7.46541 14.5922 7.9724 15.0083 8.32908 15.5421C8.68576 16.0759 8.87611 16.7036 8.87604 17.3456C8.87503 18.2058 8.53295 19.0305 7.92481 19.6389C7.31666 20.2473 6.49209 20.5897 5.63188 20.591ZM5.63188 15.3798C5.24308 15.3798 4.86299 15.495 4.53968 15.711C4.21637 15.9269 3.96436 16.2339 3.81553 16.5931C3.6667 16.9523 3.62772 17.3476 3.70354 17.7289C3.77935 18.1102 3.96654 18.4605 4.24145 18.7355C4.51635 19.0104 4.86662 19.1977 5.24794 19.2736C5.62927 19.3494 6.02454 19.3105 6.38375 19.1618C6.74297 19.013 7.05 18.761 7.26601 18.4378C7.48202 18.1145 7.59732 17.7344 7.59732 17.3456C7.59673 16.8245 7.38948 16.3249 7.02102 15.9564C6.65257 15.5879 6.153 15.3805 5.63188 15.3798Z" fill="#202020"/>
<path d="M8.23619 17.8323C8.06645 17.8323 7.90367 17.7649 7.78364 17.6449C7.66362 17.5248 7.59619 17.3621 7.59619 17.1923V8.4096C7.59621 7.66287 7.86661 6.9414 8.3574 6.37861C8.84819 5.81581 9.52616 5.44977 10.266 5.34816L15.6208 4.61216C16.058 4.55216 16.503 4.5865 16.9258 4.71286C17.3487 4.83922 17.7395 5.05467 18.0721 5.34473C18.4047 5.63478 18.6713 5.9927 18.854 6.39441C19.0367 6.79612 19.1312 7.2323 19.1312 7.6736V15.7843C19.1312 15.9541 19.0638 16.1168 18.9438 16.2369C18.8238 16.3569 18.661 16.4243 18.4912 16.4243C18.3215 16.4243 18.1587 16.3569 18.0387 16.2369C17.9187 16.1168 17.8512 15.9541 17.8512 15.7843V7.67456C17.8513 7.41604 17.7959 7.1605 17.6889 6.92516C17.5819 6.68982 17.4257 6.48012 17.2309 6.31019C17.0361 6.14025 16.8071 6.01402 16.5594 5.93998C16.3117 5.86594 16.051 5.84582 15.7949 5.88096L10.44 6.61696C10.0075 6.67787 9.61142 6.89251 9.32424 7.2216C9.03705 7.55068 8.878 7.97219 8.87619 8.40896V17.1923C8.87619 17.3621 8.80876 17.5248 8.68874 17.6449C8.56872 17.7649 8.40593 17.8323 8.23619 17.8323Z" fill="#202020"/>
<path d="M15.8857 19.119C15.2437 19.1191 14.6162 18.9288 14.0824 18.5722C13.5485 18.2155 13.1325 17.7086 12.8868 17.1155C12.6411 16.5224 12.5768 15.8698 12.702 15.2401C12.8272 14.6105 13.1364 14.0321 13.5903 13.5782C14.0443 13.1242 14.6226 12.8151 15.2523 12.6899C15.8819 12.5646 16.5346 12.6289 17.1277 12.8747C17.7208 13.1204 18.2277 13.5364 18.5843 14.0702C18.9409 14.604 19.1312 15.2316 19.1312 15.8736C19.1301 16.734 18.7879 17.5589 18.1795 18.1673C17.5711 18.7758 16.7462 19.118 15.8857 19.119ZM15.8857 13.9078C15.4969 13.9078 15.1168 14.023 14.7935 14.239C14.4702 14.4549 14.2182 14.7619 14.0694 15.1211C13.9205 15.4803 13.8816 15.8756 13.9574 16.2569C14.0332 16.6382 14.2204 16.9885 14.4953 17.2635C14.7702 17.5384 15.1205 17.7257 15.5018 17.8016C15.8831 17.8774 16.2784 17.8385 16.6376 17.6898C16.9968 17.541 17.3038 17.289 17.5199 16.9658C17.7359 16.6425 17.8512 16.2624 17.8512 15.8736C17.8506 15.3525 17.6433 14.8529 17.2749 14.4844C16.9064 14.1159 16.4068 13.9085 15.8857 13.9078ZM8.23549 9.66112C8.07303 9.66094 7.91672 9.59899 7.79826 9.48783C7.67979 9.37666 7.60803 9.22461 7.59753 9.06249C7.58703 8.90038 7.63857 8.74033 7.74171 8.61481C7.84484 8.4893 7.99185 8.4077 8.15293 8.38656L18.408 7.04C18.5763 7.01789 18.7464 7.06354 18.8811 7.16691C19.0157 7.27028 19.1038 7.4229 19.1259 7.5912C19.148 7.7595 19.1023 7.92968 18.999 8.06432C18.8956 8.19895 18.743 8.28701 18.5747 8.30912L8.31997 9.65568C8.29196 9.6594 8.26374 9.66121 8.23549 9.66112Z" fill="#202020"/>
</svg>
