<svg width="24" height="24" viewBox="0 0 24 24" fill="none" xmlns="http://www.w3.org/2000/svg">
<path d="M18.2175 4.71749L16.395 6.54749C16.157 5.46521 15.5281 4.50878 14.6287 3.86145C13.7293 3.21412 12.6227 2.92141 11.5208 3.0394C10.419 3.15739 9.39945 3.67778 8.6575 4.50087C7.91556 5.32396 7.5034 6.39186 7.49999 7.49999V12C7.49753 12.9334 7.78878 13.8438 8.33249 14.6025L7.26749 15.675C6.44527 14.6266 5.99892 13.3324 5.99999 12C5.99999 11.8011 5.92098 11.6103 5.78032 11.4697C5.63967 11.329 5.44891 11.25 5.24999 11.25C5.05108 11.25 4.86032 11.329 4.71966 11.4697C4.57901 11.6103 4.49999 11.8011 4.49999 12C4.50031 13.7307 5.09916 15.408 6.19499 16.7475L4.69499 18.2475C4.6247 18.3172 4.5689 18.4002 4.53082 18.4916C4.49275 18.583 4.47314 18.681 4.47314 18.78C4.47314 18.879 4.49275 18.977 4.53082 19.0684C4.5689 19.1598 4.6247 19.2428 4.69499 19.3125C4.76472 19.3828 4.84767 19.4386 4.93906 19.4767C5.03046 19.5147 5.12848 19.5343 5.22749 19.5343C5.3265 19.5343 5.42453 19.5147 5.51593 19.4767C5.60732 19.4386 5.69027 19.3828 5.75999 19.3125L16.26 8.81249L19.26 5.81249C19.3299 5.74256 19.3854 5.65955 19.4232 5.56818C19.4611 5.47681 19.4806 5.37889 19.4806 5.27999C19.4806 5.1811 19.4611 5.08317 19.4232 4.99181C19.3854 4.90044 19.3299 4.81742 19.26 4.74749C19.1901 4.67756 19.107 4.62209 19.0157 4.58425C18.9243 4.5464 18.8264 4.52692 18.7275 4.52692C18.6286 4.52692 18.5307 4.5464 18.4393 4.58425C18.3479 4.62209 18.2649 4.67756 18.195 4.74749L18.2175 4.71749ZM8.99999 12V7.49999C8.99999 6.70434 9.31606 5.94128 9.87867 5.37867C10.4413 4.81606 11.2043 4.49999 12 4.49999C12.7956 4.49999 13.5587 4.81606 14.1213 5.37867C14.6839 5.94128 15 6.70434 15 7.49999V7.94249L9.41999 13.5C9.15231 13.0449 9.00757 12.528 8.99999 12ZM12.12 15.75C12.1163 15.7774 12.1163 15.8051 12.12 15.8325V15.885L12.165 15.99C12.1914 16.0437 12.2241 16.0941 12.2625 16.14C12.265 16.1574 12.265 16.1751 12.2625 16.1925C12.3131 16.2415 12.3714 16.2821 12.435 16.3125H12.4875C12.5741 16.3443 12.6653 16.362 12.7575 16.365H12.93C13.7511 16.1743 14.5021 15.7568 15.0974 15.1601C15.6928 14.5634 16.1086 13.8115 16.2975 12.99C16.3013 12.9626 16.3013 12.9349 16.2975 12.9075C16.3012 12.8576 16.3012 12.8074 16.2975 12.7575C16.301 12.7126 16.301 12.6674 16.2975 12.6225C16.2844 12.5759 16.2668 12.5307 16.245 12.4875C16.2219 12.4423 16.1942 12.3996 16.1625 12.36C16.1501 12.3358 16.135 12.3132 16.1175 12.2925H16.0725C16.0336 12.2598 15.9907 12.2321 15.945 12.21C15.903 12.1838 15.8576 12.1636 15.81 12.15H15.7575H15.5175C15.4728 12.1428 15.4272 12.1428 15.3825 12.15L15.2475 12.2025C15.2047 12.2256 15.1644 12.2533 15.1275 12.285C15.1275 12.285 15.075 12.285 15.06 12.33L12.2475 15.135C12.2283 15.1614 12.2108 15.1889 12.195 15.2175L12.1275 15.3225C12.1011 15.3697 12.081 15.4201 12.0675 15.4725V15.5925C12.0775 15.6472 12.0952 15.7002 12.12 15.75Z" fill="#202020"/>
<path d="M18.75 11.25C18.5511 11.25 18.3603 11.329 18.2197 11.4697C18.079 11.6103 18 11.8011 18 12C18 13.5913 17.3679 15.1174 16.2426 16.2426C15.1174 17.3679 13.5913 18 12 18C11.4108 17.9984 10.8249 17.9125 10.26 17.745C10.164 17.7092 10.0618 17.6934 9.95948 17.6987C9.85719 17.7039 9.75705 17.73 9.66525 17.7755C9.57345 17.8209 9.49192 17.8846 9.4257 17.9628C9.35947 18.0409 9.30995 18.1318 9.28019 18.2298C9.25043 18.3278 9.24106 18.4308 9.25266 18.5326C9.26425 18.6344 9.29657 18.7327 9.34761 18.8215C9.39866 18.9103 9.46735 18.9877 9.54946 19.0489C9.63156 19.1101 9.72534 19.1539 9.82501 19.1775C10.2903 19.3128 10.7675 19.4032 11.25 19.4475V20.25C11.25 20.4489 11.329 20.6397 11.4697 20.7803C11.6103 20.921 11.8011 21 12 21C12.1989 21 12.3897 20.921 12.5303 20.7803C12.671 20.6397 12.75 20.4489 12.75 20.25V19.5C14.6064 19.3134 16.3267 18.4416 17.5748 17.0548C18.8229 15.668 19.5094 13.8658 19.5 12C19.5 11.8011 19.421 11.6103 19.2803 11.4697C19.1397 11.329 18.9489 11.25 18.75 11.25Z" fill="#202020"/>
</svg>
