<svg width="24" height="24" viewBox="0 0 24 24" fill="none" xmlns="http://www.w3.org/2000/svg">
<path d="M7.95125 19.3514C7.58042 19.3503 7.21582 19.2559 6.89109 19.0768C6.54022 18.8891 6.24739 18.609 6.04433 18.2667C5.84127 17.9245 5.73571 17.5333 5.73909 17.1354V7.85983C5.73916 7.4793 5.83742 7.10523 6.02438 6.7738C6.21134 6.44236 6.48067 6.16479 6.80632 5.96792C7.13197 5.77105 7.50291 5.66155 7.88326 5.65002C8.26362 5.63848 8.64051 5.7253 8.97749 5.90207L16.9039 10.0621C17.246 10.2416 17.5351 10.5077 17.7423 10.8338C17.9496 11.1599 18.0678 11.5346 18.0851 11.9206C18.1024 12.3066 18.0183 12.6904 17.8411 13.0337C17.6638 13.377 17.3998 13.668 17.0751 13.8774L9.14773 18.993C8.79191 19.2255 8.37633 19.35 7.95125 19.3514ZM7.94741 6.92607C7.77784 6.92685 7.61175 6.97435 7.46741 7.06335C7.32928 7.14497 7.21512 7.26159 7.13646 7.40143C7.0578 7.54128 7.01742 7.6994 7.01941 7.85983V17.1354C7.0194 17.3027 7.0645 17.4669 7.14995 17.6108C7.23541 17.7547 7.35807 17.8729 7.50502 17.9529C7.65198 18.0329 7.81779 18.0719 7.98501 18.0656C8.15223 18.0594 8.31468 18.0082 8.45525 17.9174L16.3797 12.8019C16.5164 12.7137 16.6276 12.5912 16.7022 12.4467C16.7768 12.3021 16.8123 12.1406 16.805 11.978C16.7977 11.8155 16.748 11.6578 16.6607 11.5205C16.5735 11.3832 16.4518 11.2711 16.3077 11.1955L8.38133 7.03551C8.24773 6.96432 8.0988 6.92675 7.94741 6.92607Z" fill="#202020"/>
<path d="M18.9181 20.0611C18.7483 20.0611 18.5856 19.9937 18.4655 19.8737C18.3455 19.7536 18.2781 19.5909 18.2781 19.4211V5.57472C18.2781 5.40498 18.3455 5.2422 18.4655 5.12217C18.5856 5.00215 18.7483 4.93472 18.9181 4.93472C19.0878 4.93472 19.2506 5.00215 19.3706 5.12217C19.4906 5.2422 19.5581 5.40498 19.5581 5.57472V19.4211C19.5581 19.5909 19.4906 19.7536 19.3706 19.8737C19.2506 19.9937 19.0878 20.0611 18.9181 20.0611Z" fill="#202020"/>
</svg>
