<svg width="24" height="24" viewBox="0 0 24 24" fill="none" xmlns="http://www.w3.org/2000/svg">
<g clip-path="url(#clip0_3_399)">
<path d="M19.3921 20.7949C19.0041 20.7949 18.6248 20.6799 18.3022 20.4644C17.9796 20.2489 17.7281 19.9426 17.5796 19.5842C17.4311 19.2257 17.3922 18.8313 17.4678 18.4508C17.5435 18.0702 17.7303 17.7207 18.0046 17.4463C18.2789 17.172 18.6284 16.9851 19.009 16.9094C19.3895 16.8337 19.7839 16.8725 20.1424 17.021C20.5008 17.1694 20.8072 17.4208 21.0228 17.7434C21.2383 18.066 21.3534 18.4453 21.3534 18.8333C21.3528 19.3533 21.146 19.8518 20.7783 20.2196C20.4106 20.5873 19.9121 20.7942 19.3921 20.7949ZM19.3921 18.152C19.2573 18.1519 19.1254 18.1919 19.0133 18.2667C18.9012 18.3416 18.8138 18.4481 18.7621 18.5726C18.7105 18.6972 18.697 18.8342 18.7233 18.9665C18.7495 19.0987 18.8145 19.2202 18.9098 19.3156C19.0052 19.4109 19.1266 19.4758 19.2589 19.5021C19.3911 19.5284 19.5282 19.5149 19.6528 19.4633C19.7773 19.4116 19.8838 19.3242 19.9586 19.2121C20.0335 19.0999 20.0734 18.9681 20.0734 18.8333C20.0731 18.6527 20.0013 18.4795 19.8736 18.3518C19.7458 18.2241 19.5727 18.1522 19.3921 18.152Z" fill="#202020"/>
<path d="M20.7128 19.4282C20.543 19.4282 20.3802 19.3607 20.2602 19.2407C20.1402 19.1207 20.0728 18.9579 20.0728 18.7882V13.2522C20.0727 13.0885 20.1144 12.9276 20.1939 12.7845C20.2733 12.6415 20.3879 12.521 20.5268 12.4346C20.6658 12.3481 20.8244 12.2985 20.9879 12.2903C21.1513 12.2822 21.3141 12.3159 21.4609 12.3882L23.7883 13.5334C23.9501 13.6123 24.0864 13.7352 24.1815 13.888C24.2766 14.0409 24.3266 14.2174 24.3259 14.3974V15.1491C24.3259 15.7434 24.0276 16.0208 23.85 16.1331C23.7164 16.2165 23.5637 16.2645 23.4064 16.2725C23.2491 16.2806 23.0923 16.2485 22.9508 16.1792L22.9451 16.1766L21.3528 15.4022V18.7882C21.3528 18.9579 21.2853 19.1207 21.1653 19.2407C21.0453 19.3607 20.8825 19.4282 20.7128 19.4282ZM21.3528 13.9773L23.0459 14.8006V14.592L21.3528 13.76V13.9773Z" fill="#202020"/>
<path d="M16.4433 20.4557H7.94793C7.04014 20.4547 6.16982 20.0936 5.52792 19.4517C4.88601 18.8098 4.52494 17.9395 4.52393 17.0317V6.96801C4.52494 6.06022 4.88601 5.1899 5.52792 4.548C6.16982 3.90609 7.04014 3.54502 7.94793 3.54401H18.0119C18.9197 3.54494 19.7901 3.90598 20.432 4.5479C21.074 5.18982 21.435 6.06019 21.4359 6.96801V11.3421C21.4359 11.5118 21.3685 11.6746 21.2485 11.7946C21.1285 11.9147 20.9657 11.9821 20.7959 11.9821C20.6262 11.9821 20.4634 11.9147 20.3434 11.7946C20.2234 11.6746 20.1559 11.5118 20.1559 11.3421V6.96801C20.1554 6.39954 19.9294 5.8545 19.5274 5.45253C19.1254 5.05056 18.5804 4.82451 18.0119 4.82401H7.94793C7.37946 4.82451 6.83442 5.05056 6.43245 5.45253C6.03048 5.8545 5.80443 6.39954 5.80393 6.96801V17.032C5.80443 17.6005 6.03048 18.1455 6.43245 18.5475C6.83442 18.9494 7.37946 19.1755 7.94793 19.176H16.4433C16.613 19.176 16.7758 19.2434 16.8958 19.3635C17.0159 19.4835 17.0833 19.6463 17.0833 19.816C17.0833 19.9857 17.0159 20.1485 16.8958 20.2686C16.7758 20.3886 16.613 20.456 16.4433 20.456V20.4557Z" fill="#202020"/>
</g>
<defs>
<clipPath id="clip0_3_399">
<rect width="24" height="24" fill="white"/>
</clipPath>
</defs>
</svg>
