<svg width="24" height="24" viewBox="0 0 24 24" fill="none" xmlns="http://www.w3.org/2000/svg">
<path d="M14.3763 20.4406C14.2066 20.4406 14.0438 20.3732 13.9238 20.2531C13.8038 20.1331 13.7363 19.9703 13.7363 19.8006V15.567C13.7366 15.2637 13.7976 14.9635 13.9157 14.6842C14.0338 14.4048 14.2066 14.1519 14.424 13.9404C14.6353 13.7349 14.8859 13.5741 15.1609 13.4677C15.4358 13.3614 15.7294 13.3117 16.024 13.3215H19.8157C19.9403 13.3216 20.0622 13.358 20.1664 13.4263C20.2706 13.4947 20.3526 13.592 20.4024 13.7062C20.4521 13.8205 20.4673 13.9468 20.4463 14.0697C20.4252 14.1925 20.3688 14.3065 20.2838 14.3977L14.8448 20.2367C14.7849 20.3011 14.7124 20.3524 14.6318 20.3874C14.5512 20.4225 14.4642 20.4406 14.3763 20.4406ZM15.9578 14.6003C15.717 14.5998 15.4856 14.6935 15.313 14.8614C15.2183 14.9528 15.1433 15.0625 15.0923 15.1838C15.0413 15.305 15.0155 15.4354 15.0163 15.567V18.1759L18.3443 14.6031H16.0141H15.9914L15.9578 14.6003Z" fill="#202020"/>
<path d="M14.3632 20.4556H6.48799C5.71359 20.4556 4.94911 20.0751 4.39103 19.4124C3.84511 18.7638 3.54431 17.9183 3.54431 17.0319V8.27194C3.54431 8.10221 3.61174 7.93942 3.73176 7.8194C3.85179 7.69937 4.01457 7.63195 4.18431 7.63195C4.35405 7.63195 4.51684 7.69937 4.63686 7.8194C4.75688 7.93942 4.82431 8.10221 4.82431 8.27194V17.0319C4.82431 17.6172 5.01823 18.1699 5.37023 18.5881C5.68479 18.9612 6.09215 19.1756 6.48799 19.1756H14.3632C14.5329 19.1756 14.6957 19.2431 14.8157 19.3631C14.9358 19.4831 15.0032 19.6459 15.0032 19.8156C15.0032 19.9854 14.9358 20.1481 14.8157 20.2682C14.6957 20.3882 14.5329 20.4556 14.3632 20.4556ZM19.8157 14.6003C19.6459 14.6003 19.4831 14.5328 19.3631 14.4128C19.2431 14.2928 19.1757 14.13 19.1757 13.9603V6.96795C19.1752 6.39948 18.9491 5.85444 18.5471 5.45247C18.1452 5.0505 17.6001 4.82445 17.0317 4.82395H8.33983C8.17009 4.82395 8.00731 4.75652 7.88728 4.63649C7.76726 4.51647 7.69983 4.35368 7.69983 4.18395C7.69983 4.01421 7.76726 3.85142 7.88728 3.7314C8.00731 3.61137 8.17009 3.54395 8.33983 3.54395H17.032C17.9398 3.54496 18.8101 3.90603 19.452 4.54793C20.0939 5.18984 20.455 6.06016 20.456 6.96795V13.9603C20.456 14.0443 20.4394 14.1276 20.4072 14.2053C20.3751 14.2829 20.3279 14.3535 20.2684 14.4129C20.209 14.4724 20.1384 14.5195 20.0607 14.5516C19.983 14.5838 19.8997 14.6003 19.8157 14.6003Z" fill="#202020"/>
<path d="M13.104 14.3312H7.04C6.87026 14.3312 6.70747 14.2638 6.58745 14.1438C6.46743 14.0238 6.4 13.861 6.4 13.6912C6.4 13.5215 6.46743 13.3587 6.58745 13.2387C6.70747 13.1187 6.87026 13.0512 7.04 13.0512H13.104C13.2737 13.0512 13.4365 13.1187 13.5565 13.2387C13.6766 13.3587 13.744 13.5215 13.744 13.6912C13.744 13.861 13.6766 14.0238 13.5565 14.1438C13.4365 14.2638 13.2737 14.3312 13.104 14.3312ZM11.2253 11.6884H7.04C6.87026 11.6884 6.70747 11.6209 6.58745 11.5009C6.46743 11.3809 6.4 11.2181 6.4 11.0484C6.4 10.8786 6.46743 10.7158 6.58745 10.5958C6.70747 10.4758 6.87026 10.4084 7.04 10.4084H11.2253C11.395 10.4084 11.5578 10.4758 11.6778 10.5958C11.7978 10.7158 11.8653 10.8786 11.8653 11.0484C11.8653 11.2181 11.7978 11.3809 11.6778 11.5009C11.5578 11.6209 11.395 11.6884 11.2253 11.6884ZM4.19936 7.2362C4.07286 7.23611 3.94923 7.19854 3.84408 7.12823C3.73893 7.05792 3.65697 6.95802 3.60855 6.84116C3.56013 6.7243 3.54743 6.59571 3.57205 6.47164C3.59667 6.34756 3.65751 6.23356 3.74688 6.14404L6.2224 3.6682C6.28184 3.60876 6.35241 3.56161 6.43007 3.52944C6.50774 3.49727 6.59098 3.48071 6.67504 3.48071C6.7591 3.48071 6.84234 3.49727 6.92001 3.52944C6.99767 3.56161 7.06824 3.60876 7.12768 3.6682C7.18712 3.72764 7.23427 3.79821 7.26644 3.87588C7.29861 3.95354 7.31517 4.03678 7.31517 4.12084C7.31517 4.20491 7.29861 4.28815 7.26644 4.36581C7.23427 4.44347 7.18712 4.51404 7.12768 4.57348L4.65184 7.049C4.5925 7.10852 4.52197 7.1557 4.44431 7.18783C4.36665 7.21996 4.2834 7.2364 4.19936 7.2362Z" fill="#202020"/>
<path d="M6.67489 7.23617C6.59084 7.23625 6.50759 7.21973 6.42994 7.18755C6.35229 7.15537 6.28177 7.10816 6.22241 7.04865L3.74689 4.57313C3.62685 4.45312 3.55939 4.29034 3.55936 4.1206C3.55933 3.95086 3.62673 3.78805 3.74673 3.66801C3.86674 3.54796 4.02952 3.4805 4.19926 3.48047C4.369 3.48044 4.53181 3.54784 4.65185 3.66785L7.12769 6.14401C7.21719 6.23353 7.27813 6.34758 7.3028 6.47174C7.32748 6.5959 7.31477 6.72459 7.26631 6.84153C7.21784 6.95847 7.13578 7.05841 7.03051 7.12872C6.92524 7.19902 6.80148 7.23652 6.67489 7.23649V7.23617Z" fill="#202020"/>
</svg>
