<svg width="24" height="24" viewBox="0 0 24 24" fill="none" xmlns="http://www.w3.org/2000/svg">
<path d="M17.032 20.4556H6.96801C6.06022 20.4546 5.1899 20.0935 4.548 19.4516C3.90609 18.8097 3.54502 17.9394 3.54401 17.0316V6.96795C3.54502 6.06016 3.90609 5.18984 4.548 4.54793C5.1899 3.90603 6.06022 3.54496 6.96801 3.54395H17.032C17.9398 3.54496 18.8101 3.90603 19.452 4.54793C20.0939 5.18984 20.455 6.06016 20.456 6.96795V17.0319C20.4549 17.9397 20.0938 18.8099 19.4519 19.4517C18.81 20.0936 17.9397 20.4546 17.032 20.4556ZM6.96801 4.82427C6.39954 4.82477 5.8545 5.05082 5.45253 5.45279C5.05056 5.85476 4.82451 6.3998 4.82401 6.96826V17.0323C4.82451 17.6007 5.05056 18.1458 5.45253 18.5477C5.8545 18.9497 6.39954 19.1758 6.96801 19.1763H17.032C17.6005 19.1758 18.1455 18.9497 18.5475 18.5477C18.9494 18.1458 19.1755 17.6007 19.176 17.0323V6.96795C19.1755 6.39948 18.9494 5.85444 18.5475 5.45247C18.1455 5.0505 17.6005 4.82445 17.032 4.82395L6.96801 4.82427Z" fill="#202020"/>
<path d="M8.42367 6.26907C8.25394 6.26907 8.09115 6.20164 7.97113 6.08162C7.8511 5.96159 7.78367 5.79881 7.78367 5.62907V2.95067C7.78367 2.78093 7.8511 2.61814 7.97113 2.49812C8.09115 2.3781 8.25394 2.31067 8.42367 2.31067C8.59341 2.31067 8.7562 2.3781 8.87622 2.49812C8.99625 2.61814 9.06367 2.78093 9.06367 2.95067V5.62907C9.06367 5.79881 8.99625 5.96159 8.87622 6.08162C8.7562 6.20164 8.59341 6.26907 8.42367 6.26907ZM15.5763 6.26907C15.4066 6.26907 15.2438 6.20164 15.1238 6.08162C15.0037 5.96159 14.9363 5.79881 14.9363 5.62907V2.95067C14.9363 2.78093 15.0037 2.61814 15.1238 2.49812C15.2438 2.3781 15.4066 2.31067 15.5763 2.31067C15.7461 2.31067 15.9088 2.3781 16.0289 2.49812C16.1489 2.61814 16.2163 2.78093 16.2163 2.95067V5.62907C16.2163 5.79881 16.1489 5.96159 16.0289 6.08162C15.9088 6.20164 15.7461 6.26907 15.5763 6.26907ZM13.104 14.3311H7.03999C6.87026 14.3311 6.70747 14.2637 6.58745 14.1437C6.46742 14.0237 6.39999 13.8609 6.39999 13.6911C6.39999 13.5214 6.46742 13.3586 6.58745 13.2386C6.70747 13.1186 6.87026 13.0511 7.03999 13.0511H13.104C13.2737 13.0511 13.4365 13.1186 13.5565 13.2386C13.6766 13.3586 13.744 13.5214 13.744 13.6911C13.744 13.8609 13.6766 14.0237 13.5565 14.1437C13.4365 14.2637 13.2737 14.3311 13.104 14.3311ZM11.2253 11.6883H7.03999C6.87026 11.6883 6.70747 11.6208 6.58745 11.5008C6.46742 11.3808 6.39999 11.218 6.39999 11.0483C6.39999 10.8785 6.46742 10.7157 6.58745 10.5957C6.70747 10.4757 6.87026 10.4083 7.03999 10.4083H11.2253C11.395 10.4083 11.5578 10.4757 11.6778 10.5957C11.7978 10.7157 11.8653 10.8785 11.8653 11.0483C11.8653 11.218 11.7978 11.3808 11.6778 11.5008C11.5578 11.6208 11.395 11.6883 11.2253 11.6883Z" fill="#202020"/>
</svg>
