<svg width="24" height="24" viewBox="0 0 24 24" fill="none" xmlns="http://www.w3.org/2000/svg">
<path d="M14.7373 18.5997C14.5004 18.5999 14.2646 18.5676 14.0365 18.5037L8.13728 16.8518C7.47713 16.6669 6.91747 16.2274 6.58141 15.6298C6.24535 15.0323 6.16041 14.3258 6.34528 13.6656L8.50752 5.93952C8.69317 5.27985 9.13286 4.72074 9.73017 4.3848C10.3275 4.04886 11.0336 3.96353 11.6938 4.14752L17.593 5.7984C18.2531 5.98345 18.8127 6.42308 19.1487 7.02064C19.4848 7.6182 19.5697 8.32476 19.385 8.98496L17.223 16.7098C17.0708 17.2524 16.7457 17.7305 16.2971 18.0716C15.8485 18.4126 15.3008 18.5981 14.7373 18.5997ZM10.9965 5.33088C10.7116 5.33119 10.4347 5.4245 10.2078 5.59663C9.98083 5.76875 9.8163 6.01028 9.7392 6.28448L7.57696 14.0106C7.4837 14.3439 7.52669 14.7007 7.69646 15.0024C7.86623 15.304 8.14888 15.5259 8.48224 15.6192L14.3814 17.2701C14.5465 17.3163 14.7191 17.3296 14.8893 17.3091C15.0594 17.2887 15.2239 17.2349 15.3734 17.1508C15.5228 17.0668 15.6541 16.9542 15.76 16.8193C15.8659 16.6845 15.9442 16.5302 15.9904 16.3651L18.1523 8.64C18.1987 8.47491 18.2121 8.3023 18.1918 8.13203C18.1714 7.96176 18.1177 7.79717 18.0337 7.64766C17.9497 7.49816 17.8371 7.36666 17.7023 7.26069C17.5675 7.15472 17.4131 7.07636 17.248 7.03008L11.3478 5.3792C11.2335 5.34721 11.1153 5.33095 10.9965 5.33088Z" fill="#202020"/>
<path d="M7.1568 20.0471C6.45923 20.046 5.78579 19.7916 5.26158 19.3314C4.73737 18.8712 4.39802 18.2363 4.30656 17.5447L3.33696 10.1687C3.23761 9.41329 3.44203 8.64927 3.90536 8.04437C4.36869 7.43946 5.05307 7.04307 5.80832 6.94219L8.42304 6.5505C8.50616 6.53807 8.59092 6.54212 8.67247 6.56244C8.75403 6.58276 8.83078 6.61894 8.89835 6.66892C8.96593 6.7189 9.02299 6.7817 9.06629 6.85373C9.10959 6.92577 9.13828 7.00562 9.15072 7.08875C9.16316 7.17187 9.1591 7.25662 9.13879 7.33818C9.11847 7.41973 9.08229 7.49649 9.03231 7.56406C8.98233 7.63163 8.91953 7.68869 8.84749 7.732C8.77546 7.7753 8.6956 7.80399 8.61248 7.81642L5.99264 8.20874L5.98112 8.21035C5.77306 8.23756 5.57241 8.30551 5.39063 8.41032C5.20885 8.51513 5.04952 8.65474 4.92172 8.82116C4.79393 8.98759 4.70019 9.17757 4.64587 9.38025C4.59155 9.58292 4.5777 9.79432 4.60512 10.0023L5.5744 17.3787C5.6255 17.7624 5.81401 18.1146 6.10499 18.37C6.39596 18.6254 6.76966 18.7666 7.1568 18.7675C7.22097 18.7674 7.28508 18.7636 7.3488 18.7559L14.8243 17.3195C14.9071 17.3029 14.9924 17.303 15.0751 17.3195C15.1579 17.3361 15.2366 17.3689 15.3067 17.416C15.3767 17.4631 15.4368 17.5236 15.4833 17.594C15.5299 17.6645 15.5621 17.7434 15.578 17.8263C15.594 17.9092 15.5933 17.9944 15.5762 18.0771C15.559 18.1598 15.5257 18.2382 15.4781 18.3079C15.4305 18.3777 15.3696 18.4373 15.2988 18.4834C15.2281 18.5294 15.1489 18.5611 15.0659 18.5764L7.57024 20.0164C7.55776 20.019 7.54528 20.0209 7.5328 20.0225C7.40814 20.0389 7.28254 20.0471 7.1568 20.0471Z" fill="#202020"/>
</svg>
