<svg width="24" height="24" viewBox="0 0 24 24" fill="none" xmlns="http://www.w3.org/2000/svg">
<path d="M15.9478 18.6035H8.05244C7.65993 18.6035 7.27332 18.508 6.92601 18.3251C6.57869 18.1422 6.28111 17.8776 6.05898 17.554C5.83684 17.2303 5.69683 16.8575 5.65104 16.4677C5.60524 16.0779 5.65504 15.6827 5.79612 15.3165C5.80156 15.3021 5.80764 15.2877 5.81436 15.2736L6.76284 13.2608C7.03103 12.6893 7.17052 12.0659 7.17148 11.4345V10.1027C7.17148 7.40831 9.36349 5.21631 12.0582 5.21631C14.7529 5.21631 16.9446 7.40831 16.9446 10.1027V11.5497C16.9438 12.142 17.0666 12.728 17.3052 13.2701L18.208 15.328C18.2137 15.3414 18.2195 15.3552 18.2243 15.3693C18.3548 15.7341 18.3956 16.125 18.3434 16.509C18.2912 16.893 18.1475 17.2588 17.9244 17.5756C17.7013 17.8924 17.4053 18.1509 17.0614 18.3294C16.7174 18.5079 16.3356 18.6012 15.9481 18.6013L15.9478 18.6035ZM6.98332 15.7958C6.92065 15.9677 6.90036 16.1522 6.92417 16.3337C6.94798 16.5151 7.0152 16.6881 7.12012 16.838C7.22504 16.988 7.36457 17.1104 7.52687 17.1949C7.68917 17.2794 7.86946 17.3235 8.05244 17.3235H15.9478C16.1287 17.3235 16.3069 17.2804 16.4678 17.1977C16.6287 17.1151 16.7676 16.9953 16.8729 16.8483C16.9783 16.7013 17.0471 16.5313 17.0736 16.3523C17.1002 16.1734 17.0837 15.9908 17.0256 15.8195L16.1328 13.783C15.8231 13.0789 15.6636 12.318 15.6646 11.5488V10.1027C15.6557 9.15207 15.2717 8.24342 14.5963 7.57436C13.921 6.90531 13.0087 6.52996 12.058 6.52996C11.1074 6.52996 10.1951 6.90531 9.51975 7.57436C8.84436 8.24342 8.46044 9.15207 8.45148 10.1027V11.4345C8.4503 12.2545 8.26907 13.0642 7.9206 13.8064L6.98332 15.7958Z" fill="#202020"/>
<path d="M12.9722 20.3424H11.0279C10.4025 20.3417 9.80289 20.0931 9.36055 19.651C8.9182 19.2089 8.66923 18.6094 8.66821 17.984C8.66821 17.8143 8.73564 17.6515 8.85566 17.5314C8.97569 17.4114 9.13847 17.344 9.30821 17.344C9.47795 17.344 9.64074 17.4114 9.76076 17.5314C9.88078 17.6515 9.94821 17.8143 9.94821 17.984C9.94855 18.2702 10.0624 18.5447 10.2648 18.7471C10.4672 18.9495 10.7416 19.0633 11.0279 19.0637H12.9722C13.2585 19.0633 13.5329 18.9495 13.7353 18.7471C13.9377 18.5447 14.0516 18.2702 14.0519 17.984C14.0519 17.8143 14.1193 17.6515 14.2393 17.5314C14.3594 17.4114 14.5222 17.344 14.6919 17.344C14.8616 17.344 15.0244 17.4114 15.1444 17.5314C15.2645 17.6515 15.3319 17.8143 15.3319 17.984C15.3309 18.6094 15.0819 19.2089 14.6396 19.651C14.1972 20.0931 13.5976 20.3417 12.9722 20.3424Z" fill="#202020"/>
</svg>
