<svg width="24" height="24" viewBox="0 0 24 24" fill="none" xmlns="http://www.w3.org/2000/svg">
<path d="M16.4003 20.0001H7.35682C6.52397 19.9992 5.72551 19.6679 5.13663 19.0789C4.54775 18.49 4.21655 17.6915 4.2157 16.8587V7.81673C4.21655 6.98389 4.54775 6.18539 5.13663 5.59645C5.72551 5.00751 6.52397 4.67622 7.35682 4.67529H14.3898C14.5595 4.67529 14.7223 4.74272 14.8423 4.86274C14.9624 4.98277 15.0298 5.14555 15.0298 5.31529C15.0298 5.48503 14.9624 5.64782 14.8423 5.76784C14.7223 5.88786 14.5595 5.95529 14.3898 5.95529H7.35682C6.86334 5.95589 6.39026 6.1522 6.04135 6.50117C5.69244 6.85014 5.49621 7.32326 5.4957 7.81673V16.8599C5.49655 17.3532 5.69293 17.826 6.0418 18.1747C6.39067 18.5234 6.86357 18.7195 7.35682 18.7201H16.4003C16.8938 18.7195 17.3669 18.5232 17.7158 18.1742C18.0647 17.8252 18.261 17.3521 18.2615 16.8587V9.28009C18.2615 9.11035 18.3289 8.94757 18.4489 8.82754C18.5689 8.70752 18.7317 8.64009 18.9015 8.64009C19.0712 8.64009 19.234 8.70752 19.354 8.82754C19.474 8.94757 19.5415 9.11035 19.5415 9.28009V16.8599C19.5403 17.6926 19.2089 18.4907 18.6201 19.0794C18.0312 19.6681 17.233 19.9992 16.4003 20.0001Z" fill="#202020"/>
<path d="M17.548 8.47278C17.1055 8.47284 16.6729 8.34168 16.305 8.09589C15.937 7.85009 15.6503 7.50071 15.4809 7.09191C15.3115 6.68312 15.2672 6.23328 15.3535 5.79929C15.4398 5.36531 15.6529 4.96666 15.9658 4.65377C16.2787 4.34089 16.6773 4.12782 17.1113 4.04151C17.5453 3.9552 17.9951 3.99953 18.4039 4.16889C18.8127 4.33825 19.1621 4.62504 19.4079 4.99298C19.6537 5.36092 19.7849 5.79349 19.7848 6.23598C19.7839 6.82895 19.548 7.3974 19.1287 7.8167C18.7094 8.236 18.141 8.47193 17.548 8.47278ZM17.548 5.27886C17.3587 5.27879 17.1736 5.33487 17.0162 5.44C16.8587 5.54514 16.736 5.6946 16.6635 5.86948C16.591 6.04437 16.572 6.23682 16.6089 6.4225C16.6458 6.60819 16.7369 6.77876 16.8708 6.91265C17.0046 7.04654 17.1752 7.13773 17.3608 7.17468C17.5465 7.21164 17.739 7.1927 17.9139 7.12027C18.0888 7.04784 18.2383 6.92516 18.3435 6.76776C18.4486 6.61035 18.5048 6.42529 18.5048 6.23598C18.5042 5.98249 18.4032 5.73956 18.2238 5.56041C18.0445 5.38126 17.8015 5.28047 17.548 5.28014V5.27886Z" fill="#202020"/>
</svg>
