<svg width="24" height="24" viewBox="0 0 24 24" fill="none" xmlns="http://www.w3.org/2000/svg">
<path fill-rule="evenodd" clip-rule="evenodd" d="M6.01627 2.28157C5.99857 1.44097 6.67519 0.75 7.51594 0.75H10.5C11.3284 0.75 12 1.42157 12 2.25V3H12.2991C13.4894 3 14.6443 3.40447 15.5745 4.14709L19.0254 6.90202C20.2733 7.89821 21 9.40819 21 11.0049V18C21 20.8995 18.6495 23.25 15.75 23.25H8.25C5.3505 23.25 3 20.8995 3 18V8.25C3 6.13935 4.24553 4.31962 6.04163 3.48567L6.01627 2.28157ZM7.53176 3H10.5V2.25H7.51594L7.53176 3ZM8.25 4.5C6.17895 4.5 4.5 6.17895 4.5 8.25V18C4.5 20.0711 6.17895 21.75 8.25 21.75H15.75C17.821 21.75 19.5 20.0711 19.5 18V11.0049C19.5 9.86441 18.9809 8.78584 18.0896 8.07428L14.6387 5.31934C13.9742 4.7889 13.1493 4.5 12.2991 4.5H8.25ZM11.0972 6.94751C11.7272 6.09847 12.9342 5.93794 13.7643 6.59276L16.9324 9.09214C17.7454 9.73354 17.8845 10.9125 17.2431 11.7255C16.6018 12.5385 15.4228 12.6776 14.6098 12.0363L11.4416 9.53689C10.6455 8.90887 10.493 7.76179 11.0972 6.94751ZM12.8352 7.77041C12.6692 7.63942 12.4278 7.67156 12.3018 7.84136C12.1809 8.00422 12.2115 8.23361 12.3706 8.35924L15.5388 10.8586C15.7014 10.9869 15.9372 10.9591 16.0655 10.7965C16.1938 10.6339 16.1659 10.3981 16.0033 10.2698L12.8352 7.77041Z" fill="#202020"/>
</svg>
