<svg width="24" height="24" viewBox="0 0 24 24" fill="none" xmlns="http://www.w3.org/2000/svg">
<g clip-path="url(#clip0_3_215)">
<path fill-rule="evenodd" clip-rule="evenodd" d="M6.375 3V3.04726C7.02195 3.21377 7.5 3.80107 7.5 4.5V6.75C7.5 7.57841 6.82841 8.25 6 8.25H2.25C1.42157 8.25 0.75 7.57841 0.75 6.75V4.5C0.75 3.80107 1.22804 3.21377 1.875 3.04726V3C1.875 1.75736 2.88236 0.75 4.125 0.75C5.36764 0.75 6.375 1.75736 6.375 3ZM4.125 2.25C4.53923 2.25 4.875 2.58579 4.875 3H3.375C3.375 2.58579 3.71079 2.25 4.125 2.25ZM2.25 4.5H6V6.75H2.25V4.5ZM15.2125 4.5C12.7764 4.5 10.492 5.68328 9.08651 7.67314L7.26566 10.2512L4.19546 11.3749C2.12612 12.1323 0.75 14.1014 0.75 16.305V17.625C0.75 19.2819 2.09314 20.625 3.75 20.625H7.67167C8.14954 22.1464 9.5709 23.25 11.25 23.25C12.9291 23.25 14.3505 22.1464 14.8283 20.625H22.5C22.9142 20.625 23.25 20.2892 23.25 19.875C23.25 19.4608 22.9142 19.125 22.5 19.125H14.9815C14.7933 17.23 13.1945 15.75 11.25 15.75C9.30551 15.75 7.70666 17.23 7.51853 19.125H3.75C2.92157 19.125 2.25 18.4534 2.25 17.625V16.305C2.25 14.731 3.23294 13.3245 4.71105 12.7835L8.00104 11.5793C8.14414 11.5269 8.26793 11.4322 8.35586 11.3077L10.3117 8.53852C11.4361 6.94661 13.2636 6 15.2125 6H22.5C22.9142 6 23.25 5.66423 23.25 5.25C23.25 4.83577 22.9142 4.5 22.5 4.5H15.2125ZM11.25 17.25C10.0074 17.25 9 18.2574 9 19.5C9 20.7426 10.0074 21.75 11.25 21.75C12.4926 21.75 13.5 20.7426 13.5 19.5C13.5 18.2574 12.4926 17.25 11.25 17.25Z" fill="#202020"/>
</g>
<defs>
<clipPath id="clip0_3_215">
<rect width="24" height="24" fill="white"/>
</clipPath>
</defs>
</svg>
