<svg width="24" height="24" viewBox="0 0 24 24" fill="none" xmlns="http://www.w3.org/2000/svg">
<path d="M12.0221 13.0378C11.4867 13.0378 10.9633 12.8791 10.5181 12.5817C10.0729 12.2843 9.72594 11.8616 9.52102 11.367C9.31609 10.8724 9.26244 10.3281 9.36685 9.80299C9.47126 9.27789 9.72904 8.79554 10.1076 8.41694C10.4861 8.03834 10.9685 7.78051 11.4936 7.67603C12.0186 7.57156 12.5629 7.62515 13.0576 7.83002C13.5522 8.03489 13.975 8.38183 14.2724 8.82698C14.5699 9.27213 14.7286 9.7955 14.7286 10.3309C14.7279 11.0485 14.4425 11.7365 13.9351 12.244C13.4277 12.7514 12.7397 13.0369 12.0221 13.0378ZM12.0221 8.904C11.7399 8.90394 11.4639 8.98757 11.2293 9.14432C10.9946 9.30107 10.8116 9.52389 10.7036 9.78461C10.5955 10.0453 10.5672 10.3322 10.6223 10.6091C10.6773 10.8859 10.8131 11.1401 11.0127 11.3397C11.2122 11.5393 11.4665 11.6752 11.7433 11.7303C12.0201 11.7854 12.307 11.7572 12.5677 11.6492C12.8285 11.5412 13.0513 11.3583 13.2081 11.1236C13.3649 10.889 13.4486 10.6131 13.4486 10.3309C13.4482 9.95263 13.2978 9.58999 13.0304 9.3225C12.7629 9.05501 12.4003 8.90451 12.0221 8.904ZM14.9888 18.304H9.16288C8.88118 18.3038 8.60417 18.2319 8.35785 18.0953C8.11154 17.9586 7.90399 17.7616 7.75472 17.5227C7.60544 17.2838 7.51933 17.0109 7.50447 16.7296C7.48961 16.4483 7.54648 16.1678 7.66976 15.9146C8.43584 14.3299 10.1658 13.3059 12.0758 13.3059C13.9859 13.3059 15.7155 14.3299 16.4819 15.9146C16.6051 16.1679 16.6619 16.4483 16.647 16.7296C16.6321 17.0108 16.546 17.2837 16.3967 17.5226C16.2475 17.7614 16.04 17.9584 15.7937 18.0951C15.5474 18.2318 15.2705 18.3037 14.9888 18.304ZM12.0768 14.5859C10.6541 14.5859 9.37696 15.3261 8.82304 16.4717C8.79391 16.5306 8.7804 16.5961 8.78382 16.6617C8.78724 16.7274 8.80746 16.7911 8.84256 16.8467C8.87625 16.9012 8.92338 16.9461 8.97941 16.9771C9.03544 17.0082 9.0985 17.0243 9.16256 17.024H14.9888C15.0529 17.0244 15.1159 17.0083 15.172 16.9772C15.228 16.9462 15.2751 16.9012 15.3088 16.8467C15.3441 16.7912 15.3644 16.7275 15.3678 16.6618C15.3712 16.5961 15.3576 16.5306 15.3283 16.4717C14.7757 15.328 13.4986 14.5866 12.0758 14.5866L12.0768 14.5859ZM17.969 11.1088C17.4336 11.1089 16.9102 10.9502 16.465 10.6527C16.0198 10.3553 15.6728 9.93258 15.4679 9.43795C15.2629 8.94332 15.2093 8.39903 15.3138 7.87391C15.4182 7.3488 15.676 6.86645 16.0546 6.48787C16.4332 6.10928 16.9155 5.85147 17.4406 5.74704C17.9657 5.6426 18.51 5.69623 19.0047 5.90115C19.4993 6.10607 19.922 6.45306 20.2195 6.89826C20.5169 7.34345 20.6756 7.86684 20.6755 8.40224C20.6747 9.1198 20.3892 9.80774 19.8818 10.3151C19.3745 10.8225 18.6865 11.108 17.969 11.1088ZM17.969 6.97536C17.6867 6.9753 17.4108 7.05893 17.1761 7.21568C16.9414 7.37243 16.7585 7.59525 16.6505 7.85597C16.5424 8.1167 16.5141 8.4036 16.5691 8.68041C16.6242 8.95722 16.76 9.2115 16.9596 9.41108C17.1591 9.61067 17.4134 9.7466 17.6901 9.80168C17.9669 9.85676 18.2539 9.82852 18.5146 9.72054C18.7754 9.61255 18.9982 9.42966 19.155 9.195C19.3118 8.96035 19.3955 8.68446 19.3955 8.40224C19.3949 8.0241 19.2444 7.66163 18.977 7.39428C18.7096 7.12692 18.3471 6.97651 17.969 6.976V6.97536Z" fill="#202020"/>
<path d="M20.9357 16.376H15.8301C15.6603 16.376 15.4976 16.3086 15.3775 16.1885C15.2575 16.0685 15.1901 15.9057 15.1901 15.736C15.1901 15.5663 15.2575 15.4035 15.3775 15.2835C15.4976 15.1634 15.6603 15.096 15.8301 15.096H20.9357C20.9997 15.0963 21.0628 15.0802 21.1188 15.0491C21.1749 15.0181 21.222 14.9732 21.2557 14.9187C21.2908 14.8631 21.3111 14.7995 21.3146 14.7338C21.3181 14.6681 21.3046 14.6027 21.2755 14.5437C20.7216 13.3981 19.4445 12.6579 18.0218 12.6579C16.599 12.6579 15.3219 13.3981 14.768 14.5437C14.6917 14.6924 14.5603 14.8053 14.4018 14.8584C14.2433 14.9115 14.0704 14.9004 13.9199 14.8277C13.7695 14.7549 13.6535 14.6262 13.5967 14.469C13.5399 14.3118 13.5468 14.1387 13.616 13.9866C14.3821 12.4019 16.112 11.3779 18.0221 11.3779C19.9322 11.3779 21.6621 12.4019 22.4282 13.9866C22.5509 14.2399 22.6073 14.5202 22.5922 14.8013C22.5771 15.0824 22.4909 15.3551 22.3418 15.5938C22.1926 15.8325 21.9853 16.0295 21.7393 16.1663C21.4932 16.3031 21.2165 16.3753 20.935 16.376H20.9357ZM5.92352 11.1088C5.38814 11.1088 4.86478 10.95 4.41962 10.6526C3.97447 10.3551 3.62753 9.93236 3.42266 9.43772C3.21779 8.94309 3.1642 8.39881 3.26868 7.87372C3.37315 7.34862 3.63098 6.8663 4.00958 6.48775C4.38818 6.1092 4.87053 5.85142 5.39563 5.74701C5.92073 5.6426 6.46501 5.69625 6.95962 5.90118C7.45423 6.10611 7.87697 6.4531 8.17436 6.89829C8.47176 7.34348 8.63046 7.86686 8.6304 8.40224C8.62955 9.11986 8.34408 9.80784 7.83662 10.3152C7.32915 10.8226 6.64114 11.108 5.92352 11.1088ZM5.92352 6.97536C5.64131 6.97536 5.36544 7.05904 5.13079 7.21583C4.89614 7.37262 4.71325 7.59547 4.60525 7.8562C4.49726 8.11692 4.469 8.40382 4.52406 8.68061C4.57911 8.9574 4.71501 9.21164 4.91456 9.4112C5.11412 9.61075 5.36836 9.74665 5.64515 9.8017C5.92194 9.85676 6.20884 9.8285 6.46956 9.7205C6.73029 9.61251 6.95314 9.42962 7.10993 9.19497C7.26671 8.96032 7.3504 8.68445 7.3504 8.40224C7.34981 8.02405 7.19927 7.66153 6.93178 7.39416C6.6643 7.1268 6.30171 6.97642 5.92352 6.976V6.97536ZM8.3872 16.376H3.06432C2.78282 16.3753 2.50612 16.3031 2.26009 16.1663C2.01407 16.0295 1.80677 15.8325 1.6576 15.5938C1.50842 15.3551 1.42225 15.0824 1.40714 14.8013C1.39203 14.5202 1.44848 14.2399 1.5712 13.9866C2.33728 12.4019 4.0672 11.3779 5.97728 11.3779C7.88736 11.3779 9.61728 12.4019 10.3834 13.9866C10.4223 14.0625 10.4457 14.1454 10.4521 14.2305C10.4585 14.3155 10.4479 14.4011 10.4208 14.482C10.3937 14.5629 10.3507 14.6375 10.2944 14.7016C10.238 14.7656 10.1694 14.8177 10.0926 14.8549C10.0158 14.892 9.93231 14.9134 9.84711 14.9179C9.7619 14.9223 9.67668 14.9096 9.59644 14.8806C9.5162 14.8516 9.44256 14.8069 9.37987 14.749C9.31717 14.6912 9.26668 14.6213 9.23136 14.5437C8.67744 13.3981 7.40032 12.6579 5.9776 12.6579C4.55488 12.6579 3.27776 13.3981 2.72384 14.5437C2.69476 14.6027 2.68131 14.6681 2.68478 14.7338C2.68826 14.7995 2.70854 14.8631 2.74368 14.9187C2.77738 14.9732 2.8245 15.0181 2.88053 15.0491C2.93656 15.0802 2.99963 15.0963 3.06368 15.096H8.3872C8.55694 15.096 8.71972 15.1634 8.83975 15.2835C8.95977 15.4035 9.0272 15.5663 9.0272 15.736C9.0272 15.9057 8.95977 16.0685 8.83975 16.1885C8.71972 16.3086 8.55694 16.376 8.3872 16.376Z" fill="#202020"/>
</svg>
