<svg width="24" height="24" viewBox="0 0 24 24" fill="none" xmlns="http://www.w3.org/2000/svg">
<path d="M17.3824 18.08H6.61761C5.96684 18.0792 5.34295 17.8203 4.88281 17.3602C4.42268 16.9 4.16389 16.276 4.16321 15.6253V8.3747C4.16389 7.72393 4.42268 7.10001 4.88281 6.63981C5.34295 6.17962 5.96684 5.92075 6.61761 5.91998H17.3824C18.0332 5.92075 18.6571 6.17962 19.1172 6.63981C19.5773 7.10001 19.8361 7.72393 19.8368 8.3747V15.6253C19.8361 16.276 19.5773 16.9 19.1172 17.3602C18.6571 17.8203 18.0332 18.0792 17.3824 18.08ZM6.61761 7.19998C6.30621 7.20041 6.0077 7.32432 5.78754 7.54454C5.56738 7.76476 5.44355 8.06331 5.44321 8.3747V15.6253C5.44355 15.9367 5.56738 16.2352 5.78754 16.4554C6.0077 16.6756 6.30621 16.7996 6.61761 16.8H17.3824C17.6938 16.7996 17.9923 16.6756 18.2125 16.4554C18.4326 16.2352 18.5565 15.9367 18.5568 15.6253V8.3747C18.5565 8.06331 18.4326 7.76476 18.2125 7.54454C17.9923 7.32432 17.6938 7.20041 17.3824 7.19998H6.61761Z" fill="#202020"/>
<path d="M8.54145 11.6656C8.19374 11.6656 7.85383 11.5625 7.56471 11.3693C7.2756 11.1761 7.05026 10.9015 6.9172 10.5803C6.78413 10.259 6.74932 9.90554 6.81715 9.56451C6.88499 9.22348 7.05243 8.91022 7.2983 8.66434C7.54417 8.41847 7.85743 8.25103 8.19847 8.1832C8.5395 8.11536 8.89299 8.15018 9.21424 8.28324C9.53549 8.41631 9.81006 8.64164 10.0032 8.93076C10.1964 9.21987 10.2995 9.55978 10.2995 9.90749C10.299 10.3736 10.1136 10.8205 9.78404 11.1501C9.45445 11.4797 9.00757 11.6651 8.54145 11.6656ZM8.54145 9.42942C8.4469 9.42942 8.35446 9.45745 8.27584 9.50999C8.19722 9.56252 8.13595 9.63718 8.09976 9.72454C8.06358 9.8119 8.05411 9.90803 8.07256 10.0008C8.091 10.0935 8.13654 10.1787 8.2034 10.2455C8.27026 10.3124 8.35544 10.3579 8.44818 10.3764C8.54092 10.3948 8.63705 10.3854 8.7244 10.3492C8.81176 10.313 8.88643 10.2517 8.93896 10.1731C8.99149 10.0945 9.01953 10.002 9.01953 9.90749C9.01902 9.78086 8.96849 9.65955 8.87895 9.57C8.7894 9.48045 8.66809 9.42992 8.54145 9.42942ZM6.45153 16C6.29141 15.9998 6.13715 15.9397 6.0192 15.8314C5.90125 15.7231 5.82818 15.5745 5.81441 15.415C5.80033 15.2515 5.70177 13.7894 6.59041 12.808C7.06273 12.2861 7.73473 12.0048 8.53313 11.9942C9.33153 11.9837 9.99201 12.2365 10.5015 12.7446C11.481 13.7222 11.4749 15.3001 11.4743 15.367C11.4724 15.5355 11.4042 15.6965 11.2843 15.815C11.1645 15.9335 11.0028 16 10.8342 16H10.8269C10.7428 15.9991 10.6598 15.9816 10.5825 15.9486C10.5052 15.9156 10.4352 15.8676 10.3764 15.8076C10.3176 15.7475 10.2712 15.6764 10.2399 15.5984C10.2086 15.5204 10.193 15.437 10.1939 15.3529C10.1939 15.0467 10.0893 14.1385 9.59329 13.6473C9.33409 13.3913 8.99297 13.2688 8.54945 13.2742C8.10593 13.2797 7.77345 13.408 7.53921 13.6659C7.09857 14.1526 7.06625 15.0336 7.09121 15.3037C7.10585 15.4728 7.05271 15.6407 6.94349 15.7707C6.83427 15.9006 6.67791 15.9818 6.50881 15.9965C6.48865 15.9981 6.46977 16 6.45153 16ZM16.7411 10.3094H12.2346C12.0648 10.3094 11.902 10.242 11.782 10.122C11.662 10.0019 11.5946 9.83915 11.5946 9.66942C11.5946 9.49968 11.662 9.33689 11.782 9.21687C11.902 9.09684 12.0648 9.02942 12.2346 9.02942H16.7411C16.9109 9.02942 17.0737 9.09684 17.1937 9.21687C17.3137 9.33689 17.3811 9.49968 17.3811 9.66942C17.3811 9.83915 17.3137 10.0019 17.1937 10.122C17.0737 10.242 16.9109 10.3094 16.7411 10.3094ZM16.7411 12.64H12.2346C12.0648 12.64 11.902 12.5725 11.782 12.4525C11.662 12.3325 11.5946 12.1697 11.5946 12C11.5946 11.8302 11.662 11.6674 11.782 11.5474C11.902 11.4274 12.0648 11.36 12.2346 11.36H16.7411C16.9109 11.36 17.0737 11.4274 17.1937 11.5474C17.3137 11.6674 17.3811 11.8302 17.3811 12C17.3811 12.1697 17.3137 12.3325 17.1937 12.4525C17.0737 12.5725 16.9109 12.64 16.7411 12.64ZM16.0032 14.8835H12.9725C12.8028 14.8835 12.64 14.8161 12.5199 14.696C12.3999 14.576 12.3325 14.4132 12.3325 14.2435C12.3325 14.0738 12.3999 13.911 12.5199 13.7909C12.64 13.6709 12.8028 13.6035 12.9725 13.6035H16.0032C16.1729 13.6035 16.3357 13.6709 16.4558 13.7909C16.5758 13.911 16.6432 14.0738 16.6432 14.2435C16.6432 14.4132 16.5758 14.576 16.4558 14.696C16.3357 14.8161 16.1729 14.8835 16.0032 14.8835Z" fill="#202020"/>
</svg>
