<svg width="24" height="24" viewBox="0 0 24 24" fill="none" xmlns="http://www.w3.org/2000/svg">
<path d="M6.61949 18.4C6.44975 18.4 6.28697 18.3325 6.16694 18.2125C6.04692 18.0925 5.97949 17.9297 5.97949 17.76C5.97949 17.5902 6.04692 17.4275 6.16694 17.3074C6.28697 17.1874 6.44975 17.12 6.61949 17.12H17.3808C17.5505 17.12 17.7133 17.1874 17.8333 17.3074C17.9533 17.4275 18.0208 17.5902 18.0208 17.76C18.0208 17.9297 17.9533 18.0925 17.8333 18.2125C17.7133 18.3325 17.5505 18.4 17.3808 18.4H6.61949ZM6.61949 6.87998C6.44975 6.87998 6.28697 6.81255 6.16694 6.69252C6.04692 6.5725 5.97949 6.40971 5.97949 6.23998C5.97949 6.07024 6.04692 5.90745 6.16694 5.78743C6.28697 5.6674 6.44975 5.59998 6.61949 5.59998H17.3808C17.5505 5.59998 17.7133 5.6674 17.8333 5.78743C17.9533 5.90745 18.0208 6.07024 18.0208 6.23998C18.0208 6.40971 17.9533 6.5725 17.8333 6.69252C17.7133 6.81255 17.5505 6.87998 17.3808 6.87998H6.61949ZM12 15.9277C11.8302 15.9277 11.6674 15.8602 11.5474 15.7402C11.4274 15.6202 11.36 15.4574 11.36 15.2877V8.7123C11.36 8.54256 11.4274 8.37977 11.5474 8.25975C11.6674 8.13972 11.8302 8.0723 12 8.0723C12.1697 8.0723 12.3325 8.13972 12.4525 8.25975C12.5725 8.37977 12.64 8.54256 12.64 8.7123V15.2877C12.64 15.4574 12.5725 15.6202 12.4525 15.7402C12.3325 15.8602 12.1697 15.9277 12 15.9277Z" fill="#202020"/>
<path d="M10.208 10.4518C10.0814 10.4518 9.95771 10.4143 9.85249 10.3439C9.74726 10.2736 9.66525 10.1737 9.61682 10.0567C9.5684 9.9398 9.55572 9.81114 9.58041 9.68701C9.60509 9.56288 9.66602 9.44885 9.7555 9.35935L11.6166 7.49791C11.6761 7.43845 11.7466 7.39129 11.8243 7.35911C11.9019 7.32693 11.9852 7.31036 12.0693 7.31036C12.1533 7.31036 12.2366 7.32693 12.3142 7.35911C12.3919 7.39129 12.4625 7.43845 12.5219 7.49791L14.368 9.34399C14.4846 9.46469 14.5491 9.62636 14.5476 9.79416C14.5462 9.96197 14.4788 10.1225 14.3602 10.2412C14.2415 10.3598 14.081 10.4271 13.9132 10.4286C13.7454 10.43 13.5837 10.3655 13.463 10.2489L12.0688 8.85503L10.6608 10.263C10.6015 10.3229 10.531 10.3704 10.4533 10.4028C10.3756 10.4352 10.2922 10.4519 10.208 10.4518ZM12.0557 16.7309C11.9716 16.7311 11.8883 16.7147 11.8106 16.6826C11.7329 16.6505 11.6623 16.6034 11.6029 16.544L9.75646 14.6976C9.697 14.6382 9.64982 14.5676 9.61762 14.49C9.58543 14.4123 9.56884 14.3291 9.56881 14.245C9.56878 14.161 9.58531 14.0777 9.61745 14C9.64959 13.9224 9.69672 13.8518 9.75614 13.7923C9.81556 13.7328 9.88611 13.6857 9.96376 13.6535C10.0414 13.6213 10.1246 13.6047 10.2087 13.6047C10.2928 13.6046 10.376 13.6212 10.4537 13.6533C10.5314 13.6854 10.602 13.7326 10.6614 13.792L12.0557 15.1862L13.4637 13.7782C13.522 13.7143 13.5926 13.6629 13.6713 13.6271C13.7501 13.5913 13.8353 13.5718 13.9217 13.5698C14.0082 13.5678 14.0942 13.5834 14.1745 13.6156C14.2548 13.6477 14.3277 13.6959 14.3889 13.757C14.45 13.8182 14.4982 13.8911 14.5304 13.9714C14.5626 14.0516 14.5782 14.1376 14.5762 14.2241C14.5743 14.3106 14.5548 14.3957 14.519 14.4745C14.4832 14.5532 14.4318 14.6239 14.368 14.6822L12.5081 16.544C12.4487 16.6034 12.3782 16.6505 12.3005 16.6825C12.2229 16.7146 12.1397 16.731 12.0557 16.7309Z" fill="#202020"/>
</svg>
