<svg width="24" height="24" viewBox="0 0 24 24" fill="none" xmlns="http://www.w3.org/2000/svg">
<path d="M20.5 17L18.9 15.4C18.5 15 18.4 14.4 18.5 13.9L19.1 12.1C19.6 10.5 19.2 8.69999 18 7.49999L15.6 4.99999C14.2 3.59999 12.3 2.79999 10.3 2.79999C9.00002 2.79999 7.70002 3.09999 6.60002 3.79999C3.10002 5.79999 1.80002 10.1 3.60002 13.6C2.90002 14.1 2.40002 15 2.40002 16C2.40002 17.7 3.70002 19 5.40002 19C6.20002 19 7.00002 18.7 7.50002 18.1C8.70002 19.3 10.5 19.7 12.1 19.2L13.9 18.6C14.4 18.4 15 18.6 15.4 19L17 20.6C17.5 21.1 18.1 21.3 18.8 21.3C19.5 21.3 20.1 21 20.6 20.6C21.5 19.5 21.5 18 20.5 17ZM5.30002 17.9C4.20002 17.9 3.30002 17 3.30002 15.9C3.30002 14.8 4.20002 13.9 5.30002 13.9C5.80002 13.9 6.30002 14.1 6.70002 14.5C7.10002 14.9 7.30002 15.4 7.30002 15.9C7.30002 17 6.40002 17.9 5.30002 17.9ZM8.20002 17.3L8.00002 17.2C8.20002 16.8 8.30002 16.4 8.30002 15.9C8.30002 14.2 7.00002 12.9 5.30002 12.9C5.00002 12.9 4.70002 13 4.40002 13C4.00002 12.1 3.70002 11.2 3.70002 10.2C3.70002 6.59999 6.60002 3.69999 10.2 3.69999C11.9 3.69999 13.6 4.39999 14.8 5.59999L17.3 8.09999C17.5 8.29999 17.7 8.59999 17.9 8.89999L8.90002 17.9C8.70002 17.8 8.40002 17.6 8.20002 17.3ZM19.8 19.8C19.2 20.4 18.3 20.4 17.7 19.8L16.1 18.2C15.4 17.5 14.4 17.3 13.5 17.6L11.7 18.2C11.1 18.4 10.5 18.4 9.90002 18.3L18.2 9.99999C18.3 10.6 18.3 11.2 18.1 11.8L17.5 13.6C17.2 14.5 17.4 15.5 18.1 16.2L19.7 17.8C20 18.1 20.1 18.5 20.1 18.9C20.2 19.1 20.1 19.5 19.8 19.8Z" fill="#202020"/>
</svg>
