<svg width="24" height="24" viewBox="0 0 24 24" fill="none" xmlns="http://www.w3.org/2000/svg">
<path d="M11.648 20.0067C9.9667 20.005 8.32872 19.4736 6.96663 18.488C5.60454 17.5025 4.58756 16.1129 4.06012 14.5165C3.53268 12.9201 3.52159 11.1981 4.02841 9.59507C4.53524 7.99203 5.53422 6.58941 6.8835 5.58638C8.23279 4.58335 9.86378 4.03091 11.5449 4.0075C13.226 3.9841 14.8717 4.49091 16.2484 5.45598C17.6251 6.42105 18.6627 7.79532 19.214 9.38363C19.7652 10.9719 19.8021 12.6936 19.3193 14.304C19.2961 14.3856 19.2569 14.4617 19.204 14.528C19.1511 14.5943 19.0856 14.6494 19.0112 14.6902C18.9368 14.7309 18.8551 14.7565 18.7707 14.7654C18.6864 14.7742 18.6011 14.7663 18.5199 14.7419C18.4386 14.7175 18.3631 14.6773 18.2975 14.6234C18.232 14.5696 18.1778 14.5033 18.1381 14.4283C18.0984 14.3534 18.074 14.2713 18.0664 14.1868C18.0587 14.1024 18.0679 14.0172 18.0934 13.9363C18.2812 13.3081 18.3762 12.6557 18.3756 12C18.3756 8.29088 15.358 5.27329 11.6489 5.27329C7.93979 5.27329 4.92219 8.29088 4.92219 12C4.92219 15.7091 7.93979 18.7267 11.648 18.7267C12.5568 18.7286 13.4565 18.5451 14.2921 18.1875C14.4475 18.1244 14.6214 18.1248 14.7765 18.1886C14.9316 18.2524 15.0555 18.3745 15.1215 18.5287C15.1874 18.6829 15.1902 18.8568 15.1293 19.0131C15.0683 19.1693 14.9484 19.2954 14.7955 19.3642C13.8009 19.7901 12.7299 20.0087 11.648 20.0067Z" fill="#202020"/>
<path d="M10.5733 15.2362C10.2294 15.2362 9.89946 15.0995 9.65624 14.8563C9.41301 14.6131 9.27637 14.2832 9.27637 13.9392V10.0608C9.27628 9.83755 9.33383 9.61805 9.44346 9.42357C9.55309 9.22908 9.71108 9.0662 9.90213 8.95069C10.0932 8.83518 10.3108 8.77095 10.534 8.76423C10.7571 8.75751 10.9782 8.80852 11.1759 8.91232L14.4904 10.6518C14.6912 10.7571 14.8608 10.9131 14.9825 11.1043C15.1041 11.2956 15.1735 11.5153 15.1838 11.7418C15.1941 11.9682 15.1448 12.1933 15.041 12.3948C14.9371 12.5962 14.7823 12.7669 14.5919 12.8899L11.2767 15.0288C11.0671 15.1642 10.8229 15.2362 10.5733 15.2362ZM10.5733 10.0429C10.5702 10.0432 10.5672 10.0443 10.5647 10.0461C10.5564 10.0512 10.5564 10.0538 10.5564 10.0608V13.9392C10.5559 13.942 10.5559 13.9448 10.5564 13.9475C10.5585 13.9503 10.5612 13.9526 10.5643 13.9543C10.5674 13.9559 10.5708 13.9569 10.5743 13.9571C10.5768 13.9562 10.5792 13.9549 10.5813 13.9533L13.8968 11.8144C13.9029 11.8102 13.9048 11.809 13.9045 11.7994C13.9042 11.7898 13.902 11.7885 13.8956 11.7853L10.581 10.0458C10.5787 10.0442 10.5761 10.0432 10.5733 10.0429ZM17.1762 20.0512C16.547 20.0512 15.9319 19.8646 15.4087 19.515C14.8855 19.1654 14.4777 18.6685 14.2369 18.0872C13.9961 17.5058 13.9331 16.8661 14.0559 16.249C14.1787 15.6318 14.4817 15.065 14.9267 14.62C15.3717 14.1751 15.9386 13.8721 16.5557 13.7494C17.1729 13.6267 17.8126 13.6897 18.3939 13.9306C18.9752 14.1714 19.4721 14.5793 19.8216 15.1025C20.1712 15.6257 20.3577 16.2408 20.3576 16.8701C20.3567 17.7135 20.0212 18.5222 19.4248 19.1186C18.8283 19.7149 18.0197 20.0504 17.1762 20.0512ZM17.1762 14.9686C16.8001 14.9686 16.4325 15.0802 16.1198 15.2891C15.8071 15.498 15.5634 15.795 15.4195 16.1424C15.2756 16.4899 15.2379 16.8722 15.3113 17.241C15.3847 17.6099 15.5658 17.9487 15.8317 18.2146C16.0976 18.4805 16.4364 18.6616 16.8053 18.735C17.1741 18.8084 17.5564 18.7707 17.9039 18.6268C18.2513 18.4829 18.5483 18.2392 18.7572 17.9265C18.9661 17.6138 19.0776 17.2462 19.0776 16.8701C19.0771 16.3659 18.8766 15.8826 18.5202 15.5261C18.1637 15.1696 17.6803 14.9692 17.1762 14.9686Z" fill="#202020"/>
<path d="M18.225 17.4992H16.192C16.0223 17.4992 15.8595 17.4318 15.7395 17.3118C15.6194 17.1917 15.552 17.0289 15.552 16.8592C15.552 16.6895 15.6194 16.5267 15.7395 16.4067C15.8595 16.2866 16.0223 16.2192 16.192 16.2192H18.225C18.3947 16.2192 18.5575 16.2866 18.6775 16.4067C18.7975 16.5267 18.865 16.6895 18.865 16.8592C18.865 17.0289 18.7975 17.1917 18.6775 17.3118C18.5575 17.4318 18.3947 17.4992 18.225 17.4992Z" fill="#202020"/>
<path d="M17.2084 18.5158C17.0386 18.5158 16.8758 18.4484 16.7558 18.3284C16.6358 18.2084 16.5684 18.0456 16.5684 17.8758V15.8429C16.5684 15.6731 16.6358 15.5104 16.7558 15.3903C16.8758 15.2703 17.0386 15.2029 17.2084 15.2029C17.3781 15.2029 17.5409 15.2703 17.6609 15.3903C17.7809 15.5104 17.8484 15.6731 17.8484 15.8429V17.8758C17.8484 18.0456 17.7809 18.2084 17.6609 18.3284C17.5409 18.4484 17.3781 18.5158 17.2084 18.5158Z" fill="#202020"/>
</svg>
