<svg width="24" height="24" viewBox="0 0 24 24" fill="none" xmlns="http://www.w3.org/2000/svg">
<path d="M11.9999 20.0067C10.1475 20.0067 8.3524 19.3644 6.92047 18.1893C5.48855 17.0141 4.50839 15.3788 4.14701 13.562C3.78564 11.7452 4.0654 9.85927 4.93864 8.2256C5.81187 6.59193 7.22454 5.31159 8.93595 4.60272C10.6474 3.89386 12.5516 3.80034 14.3243 4.33809C16.0969 4.87585 17.6282 6.01161 18.6573 7.55185C19.6864 9.09209 20.1497 10.9415 19.968 12.785C19.7864 14.6285 18.9712 16.352 17.6613 17.6618C16.9196 18.4075 16.0373 18.9988 15.0655 19.4013C14.0937 19.8038 13.0517 20.0096 11.9999 20.0067ZM11.9999 5.27329C8.29079 5.27329 5.27319 8.29089 5.27319 12C5.27319 15.7091 8.29079 18.7267 11.9999 18.7267C15.709 18.7267 18.7266 15.7091 18.7266 12C18.7266 8.29089 15.709 5.27329 11.9999 5.27329Z" fill="#202020"/>
<path d="M10.4377 15.9251C10.2495 15.9251 10.063 15.888 9.88906 15.816C9.71511 15.7439 9.55705 15.6383 9.42393 15.5051C9.2908 15.372 9.18521 15.2139 9.11318 15.0399C9.04116 14.8659 9.00411 14.6795 9.00415 14.4912V9.8048C9.00409 9.55801 9.06773 9.31538 9.18892 9.1004C9.31012 8.88542 9.48476 8.70537 9.69594 8.57767C9.90712 8.44997 10.1477 8.37894 10.3944 8.37148C10.641 8.36401 10.8855 8.42035 11.104 8.53504L15.1088 10.6371C15.3307 10.7535 15.5182 10.9261 15.6526 11.1375C15.787 11.349 15.8637 11.592 15.8749 11.8423C15.8862 12.0927 15.8316 12.3416 15.7166 12.5642C15.6017 12.7869 15.4304 12.9755 15.2198 13.1114L11.2154 15.696C10.9836 15.8456 10.7136 15.9251 10.4377 15.9251ZM10.4377 9.64992C10.4097 9.65027 10.3822 9.65835 10.3584 9.67328C10.3353 9.68642 10.3161 9.7056 10.3031 9.72876C10.29 9.75193 10.2835 9.77821 10.2842 9.8048V14.4912C10.2844 14.5187 10.2921 14.5456 10.3063 14.5692C10.3205 14.5928 10.3407 14.6121 10.3649 14.6252C10.3892 14.6382 10.4164 14.6446 10.4439 14.6435C10.4714 14.6425 10.4981 14.6341 10.5213 14.6192L14.5261 12.0346C14.5487 12.02 14.5671 11.9998 14.5794 11.9759C14.5918 11.9521 14.5976 11.9254 14.5964 11.8985C14.5952 11.8717 14.587 11.8456 14.5726 11.8229C14.5582 11.8002 14.538 11.7817 14.5142 11.7693L10.5094 9.66848C10.4874 9.65656 10.4628 9.65019 10.4377 9.64992Z" fill="#202020"/>
</svg>
