<svg width="24" height="24" viewBox="0 0 24 24" fill="none" xmlns="http://www.w3.org/2000/svg">
<path fill-rule="evenodd" clip-rule="evenodd" d="M5.13693 3.96967C5.42981 4.26255 5.42981 4.73745 5.13693 5.03032C1.28769 8.87959 1.28769 15.1204 5.13693 18.9697C5.42981 19.2625 5.42981 19.7374 5.13693 20.0303C4.84402 20.3232 4.36916 20.3232 4.07628 20.0303C-0.35876 15.5953 -0.358762 8.40469 4.07628 3.96967C4.36916 3.67678 4.84402 3.67678 5.13693 3.96967ZM19.0763 3.96967C19.3692 3.67678 19.844 3.67678 20.1369 3.96967C24.5719 8.40469 24.5719 15.5953 20.1369 20.0303C19.844 20.3232 19.3692 20.3232 19.0763 20.0303C18.7834 19.7374 18.7834 19.2625 19.0763 18.9697C22.9255 15.1204 22.9255 8.87959 19.0763 5.03032C18.7834 4.73745 18.7834 4.26255 19.0763 3.96967ZM4.15927 12C4.15927 7.61077 7.71742 4.05262 12.1066 4.05262C16.4958 4.05262 20.0539 7.61077 20.0539 12C20.0539 16.3891 16.4958 19.9473 12.1066 19.9473C7.71742 19.9473 4.15927 16.3891 4.15927 12ZM12.1066 5.55262C8.54583 5.55262 5.65927 8.43919 5.65927 12C5.65927 15.5607 8.54583 18.4473 12.1066 18.4473C15.6673 18.4473 18.5539 15.5607 18.5539 12C18.5539 8.43919 15.6673 5.55262 12.1066 5.55262ZM13.0918 7.50442C13.3922 7.60995 13.5932 7.89364 13.5932 8.21197V10.6673H14.7582C15.0473 10.6673 15.3106 10.8334 15.4351 11.0942C15.5596 11.3551 15.5231 11.6642 15.3414 11.889L11.8058 16.2598C11.606 16.5069 11.2721 16.6012 10.9725 16.4952C10.673 16.3892 10.4727 16.1059 10.4727 15.7881V13.1871H9.45495C9.1665 13.1871 8.90358 13.0217 8.77878 12.7617C8.65398 12.5016 8.68938 12.193 8.86983 11.9679L12.2581 7.74277C12.4572 7.49441 12.7915 7.39886 13.0918 7.50442ZM11.0178 11.6871H11.2227C11.6369 11.6871 11.9727 12.0229 11.9727 12.4371V13.6684L13.1869 12.1673H12.8432C12.429 12.1673 12.0932 11.8315 12.0932 11.4173V10.3461L11.0178 11.6871Z" fill="#202020"/>
</svg>
