<svg width="24" height="24" viewBox="0 0 24 24" fill="none" xmlns="http://www.w3.org/2000/svg">
<path d="M18.2328 19.3514C17.8077 19.35 17.3921 19.2255 17.0363 18.993L9.1102 13.8774C8.78548 13.6681 8.5213 13.3773 8.34399 13.034C8.16667 12.6907 8.08241 12.307 8.0996 11.921C8.11679 11.535 8.23483 11.1603 8.44196 10.8341C8.64909 10.5079 8.93807 10.2418 9.28012 10.0621L17.2065 5.90209C17.5435 5.72532 17.9204 5.6385 18.3007 5.65003C18.6811 5.66157 19.052 5.77107 19.3777 5.96793C19.7033 6.1648 19.9727 6.44238 20.1596 6.77381C20.3466 7.10525 20.4449 7.47932 20.4449 7.85985V17.1354C20.4483 17.5333 20.3427 17.9245 20.1397 18.2668C19.9366 18.609 19.6438 18.8891 19.2929 19.0768C18.9682 19.2559 18.6036 19.3503 18.2328 19.3514ZM18.2366 6.92609C18.0852 6.92677 17.9363 6.96433 17.8027 7.03553L9.87628 11.1955C9.73224 11.2711 9.61054 11.3832 9.52329 11.5205C9.43605 11.6578 9.3863 11.8155 9.37902 11.9781C9.37174 12.1406 9.40717 12.3021 9.48178 12.4467C9.55639 12.5913 9.66759 12.7137 9.80428 12.8019L17.7304 17.9174C17.8709 18.0082 18.0334 18.0594 18.2006 18.0657C18.3678 18.0719 18.5336 18.033 18.6806 17.9529C18.8275 17.8729 18.9502 17.7547 19.0357 17.6108C19.1211 17.467 19.1662 17.3027 19.1662 17.1354V7.85985C19.1682 7.69941 19.1278 7.54129 19.0492 7.40145C18.9705 7.26161 18.8563 7.14499 18.7182 7.06337C18.5734 6.97408 18.4067 6.92657 18.2366 6.92609Z" fill="#202020"/>
<path d="M7.26598 20.0611C7.09624 20.0611 6.93345 19.9937 6.81343 19.8737C6.6934 19.7536 6.62598 19.5909 6.62598 19.4211V5.57472C6.62598 5.40498 6.6934 5.2422 6.81343 5.12217C6.93345 5.00215 7.09624 4.93472 7.26598 4.93472C7.43572 4.93472 7.5985 5.00215 7.71852 5.12217C7.83855 5.2422 7.90598 5.40498 7.90598 5.57472V19.4211C7.90598 19.5909 7.83855 19.7536 7.71852 19.8737C7.5985 19.9937 7.43572 20.0611 7.26598 20.0611Z" fill="#202020"/>
</svg>
