<svg width="24" height="24" viewBox="0 0 24 24" fill="none" xmlns="http://www.w3.org/2000/svg">
<path d="M12.0198 11.6285C9.63295 11.6285 7.69087 9.68673 7.69087 7.29985C7.69087 4.91297 9.63199 2.97089 12.0198 2.97089C14.4077 2.97089 16.3485 4.91297 16.3485 7.29985C16.3485 9.68673 14.4067 11.6285 12.0198 11.6285ZM12.0198 4.25089C11.4168 4.25082 10.8273 4.42959 10.3258 4.76457C9.82439 5.09956 9.43355 5.57572 9.20273 6.13284C8.97191 6.68996 8.91149 7.30301 9.0291 7.89447C9.14671 8.48593 9.43707 9.02924 9.86346 9.45567C10.2899 9.88211 10.8331 10.1725 11.4246 10.2902C12.016 10.4079 12.6291 10.3475 13.1862 10.1167C13.7434 9.88599 14.2196 9.4952 14.5546 8.99379C14.8896 8.49239 15.0685 7.90289 15.0685 7.29985C15.0676 6.49153 14.7462 5.71655 14.1746 5.14495C13.6031 4.57336 12.8282 4.25182 12.0198 4.25089ZM15.2285 21.0291H7.11999C6.67349 21.0296 6.23447 20.9144 5.84569 20.6949C5.4569 20.4753 5.13161 20.1588 4.90148 19.7761C4.67136 19.3935 4.54424 18.9578 4.53251 18.5114C4.52078 18.0651 4.62484 17.6233 4.83455 17.2291C5.48831 16.009 6.50591 14.9786 7.77695 14.2493C9.07231 13.5062 10.5725 13.1133 12.1158 13.1133C13.6592 13.1133 15.1594 13.5062 16.4544 14.2493C17.7258 14.9786 18.743 16.0093 19.3968 17.2291C19.4731 17.3783 19.4878 17.5515 19.4377 17.7115C19.3877 17.8714 19.2769 18.0053 19.1292 18.0845C18.9815 18.1637 18.8086 18.1817 18.6478 18.1348C18.4869 18.0879 18.3508 17.9797 18.2688 17.8336C17.1488 15.744 14.7338 14.3933 12.1158 14.3933C9.49791 14.3933 7.08255 15.744 5.96287 17.8336C5.85633 18.0307 5.80322 18.2523 5.80883 18.4763C5.81445 18.7003 5.87859 18.9189 5.99487 19.1104C6.11023 19.306 6.27479 19.468 6.47217 19.5803C6.66956 19.6926 6.89291 19.7512 7.11999 19.7504H15.2285C15.3982 19.7504 15.561 19.8178 15.681 19.9379C15.801 20.0579 15.8685 20.2207 15.8685 20.3904C15.8685 20.5601 15.801 20.7229 15.681 20.843C15.561 20.963 15.3982 21.0304 15.2285 21.0304V21.0291Z" fill="#202020"/>
<path d="M16.7718 20.9994C16.6453 20.9992 16.5217 20.9616 16.4166 20.8912C16.3115 20.8208 16.2296 20.7209 16.1812 20.604C16.1329 20.4871 16.1202 20.3584 16.1449 20.2344C16.1696 20.1103 16.2306 19.9963 16.32 19.9069L17.8426 18.3843C17.9626 18.2643 18.1253 18.1968 18.2951 18.1968C18.4648 18.1967 18.6276 18.2641 18.7477 18.3842C18.8677 18.5042 18.9352 18.6669 18.9352 18.8367C18.9352 19.0064 18.8678 19.1692 18.7478 19.2893L17.225 20.8122C17.1655 20.8717 17.0949 20.9189 17.0171 20.951C16.9393 20.9832 16.856 20.9996 16.7718 20.9994Z" fill="#202020"/>
<path d="M18.2944 20.9994C18.1247 20.9994 17.962 20.9321 17.8419 20.8122L16.32 19.2893C16.2034 19.1686 16.1389 19.0069 16.1404 18.8391C16.1418 18.6713 16.2091 18.5108 16.3278 18.3921C16.4465 18.2735 16.607 18.2061 16.7748 18.2047C16.9426 18.2032 17.1043 18.2677 17.225 18.3843L18.7478 19.9069C18.8373 19.9964 18.8983 20.1105 18.923 20.2346C18.9476 20.3588 18.9349 20.4875 18.8865 20.6044C18.838 20.7213 18.7559 20.8213 18.6507 20.8916C18.5454 20.9619 18.4216 20.9994 18.295 20.9994H18.2944Z" fill="#202020"/>
</svg>
