<svg width="24" height="24" viewBox="0 0 24 24" fill="none" xmlns="http://www.w3.org/2000/svg">
<path d="M12 20.6806C9.99178 20.6806 8.04571 19.9842 6.49338 18.7101C4.94104 17.436 3.87849 15.6632 3.48676 13.6935C3.09503 11.7239 3.39837 9.67933 4.34508 7.90825C5.2918 6.13718 6.82331 4.74916 8.67869 3.98068C10.5341 3.2122 12.5985 3.11082 14.5202 3.6938C16.442 4.27679 18.1021 5.50807 19.2178 7.17786C20.3335 8.84765 20.8357 10.8526 20.6389 12.8512C20.442 14.8497 19.5583 16.7182 18.1382 18.1382C17.334 18.9468 16.3774 19.5878 15.3238 20.0242C14.2701 20.4606 13.1404 20.6837 12 20.6806ZM12 4.59935C7.91937 4.59935 4.59937 7.91935 4.59937 12C4.59937 16.0806 7.91937 19.4006 12 19.4006C16.0806 19.4006 19.4006 16.0806 19.4006 12C19.4006 7.91935 16.0806 4.59935 12 4.59935Z" fill="#202020"/>
<path d="M11.9395 13.1066C11.3541 13.1066 10.7819 12.933 10.2952 12.6078C9.80849 12.2825 9.42914 11.8203 9.20513 11.2795C8.98112 10.7387 8.9225 10.1436 9.0367 9.56947C9.1509 8.99535 9.43279 8.46799 9.8467 8.05407C10.2606 7.64015 10.788 7.35827 11.3621 7.24407C11.9362 7.12987 12.5313 7.18848 13.0721 7.41249C13.6129 7.6365 14.0752 8.01585 14.4004 8.50257C14.7256 8.98928 14.8992 9.56151 14.8992 10.1469C14.8983 10.9316 14.5863 11.6839 14.0314 12.2388C13.4765 12.7936 12.7242 13.1057 11.9395 13.1066ZM11.9395 8.46656C11.6073 8.46656 11.2826 8.56507 11.0063 8.74963C10.7301 8.9342 10.5148 9.19653 10.3877 9.50345C10.2606 9.81037 10.2273 10.1481 10.2921 10.4739C10.3569 10.7998 10.5169 11.099 10.7518 11.3339C10.9867 11.5689 11.286 11.7288 11.6118 11.7936C11.9377 11.8585 12.2754 11.8252 12.5823 11.6981C12.8892 11.5709 13.1516 11.3556 13.3361 11.0794C13.5207 10.8032 13.6192 10.4784 13.6192 10.1462C13.6186 9.701 13.4414 9.27418 13.1265 8.9594C12.8116 8.64463 12.3848 8.46762 11.9395 8.4672V8.46656ZM16.6787 19.0179C16.509 19.0179 16.3462 18.9505 16.2262 18.8305C16.1061 18.7104 16.0387 18.5477 16.0387 18.3779C16.0387 16.4298 14.2269 14.8451 12 14.8451C9.77311 14.8451 7.96127 16.4298 7.96127 18.3779C7.96127 18.5477 7.89385 18.7104 7.77382 18.8305C7.6538 18.9505 7.49101 19.0179 7.32127 19.0179C7.15154 19.0179 6.98875 18.9505 6.86873 18.8305C6.7487 18.7104 6.68127 18.5477 6.68127 18.3779C6.68127 17.0784 7.24383 15.8608 8.26559 14.9494C9.26655 14.0566 10.593 13.5651 12 13.5651C13.407 13.5651 14.7334 14.0566 15.7344 14.9494C16.7562 15.8608 17.3187 17.0784 17.3187 18.3779C17.3187 18.5477 17.2513 18.7104 17.1313 18.8305C17.0112 18.9505 16.8485 19.0179 16.6787 19.0179Z" fill="#202020"/>
</svg>
