<svg width="24" height="24" viewBox="0 0 24 24" fill="none" xmlns="http://www.w3.org/2000/svg">
<path d="M11.904 11.6285C9.51711 11.6285 7.57535 9.68673 7.57535 7.29985C7.57535 4.91297 9.51711 2.97089 11.904 2.97089C14.2909 2.97089 16.2326 4.91297 16.2326 7.29985C16.2326 9.68673 14.2909 11.6285 11.904 11.6285ZM11.904 4.25089C11.3009 4.25082 10.7114 4.42959 10.21 4.76457C9.70855 5.09956 9.31771 5.57572 9.08689 6.13284C8.85607 6.68996 8.79564 7.30301 8.91325 7.89447C9.03086 8.48593 9.32122 9.02924 9.74761 9.45567C10.174 9.88211 10.7173 10.1725 11.3087 10.2902C11.9002 10.4079 12.5132 10.3475 13.0704 10.1167C13.6275 9.88599 14.1037 9.4952 14.4388 8.99379C14.7738 8.49239 14.9526 7.90289 14.9526 7.29985C14.9518 6.49153 14.6303 5.71655 14.0588 5.14495C13.4872 4.57336 12.7123 4.25182 11.904 4.25089ZM16.9958 21.0291H7.00415C6.55764 21.0296 6.11862 20.9145 5.72984 20.6949C5.34106 20.4753 5.01577 20.1588 4.78564 19.7761C4.55551 19.3935 4.42839 18.9578 4.41666 18.5115C4.40493 18.0651 4.50899 17.6233 4.71871 17.2291C5.37247 16.009 6.39007 14.9786 7.66111 14.2493C8.95647 13.5062 10.4566 13.1133 12 13.1133C13.5433 13.1133 15.0435 13.5062 16.3389 14.2493C17.6099 14.9786 18.6275 16.0093 19.2813 17.2291C19.491 17.6233 19.595 18.0651 19.5833 18.5115C19.5716 18.9578 19.4445 19.3935 19.2143 19.7761C18.9842 20.1588 18.6589 20.4753 18.2701 20.6949C17.8814 20.9145 17.4423 21.0296 16.9958 21.0291ZM12 14.3933C9.38207 14.3933 6.96703 15.7437 5.84703 17.8336C5.74057 18.0307 5.68752 18.2523 5.69314 18.4763C5.69875 18.7002 5.76283 18.9188 5.87903 19.1104C5.99441 19.306 6.15897 19.468 6.35635 19.5802C6.55374 19.6925 6.77707 19.7512 7.00415 19.7504H16.9958C17.2229 19.7512 17.4462 19.6925 17.6436 19.5802C17.841 19.468 18.0056 19.306 18.1209 19.1104C18.2371 18.9188 18.3012 18.7002 18.3068 18.4763C18.3125 18.2523 18.2594 18.0307 18.1529 17.8336C17.0329 15.744 14.6179 14.3933 12 14.3933Z" fill="#202020"/>
<path d="M16.6909 11.7565C16.1586 11.7557 15.6321 11.6453 15.1444 11.432C14.6566 11.2188 14.2181 10.9074 13.856 10.5171C13.7974 10.4557 13.7516 10.3833 13.7213 10.304C13.691 10.2248 13.6767 10.1403 13.6793 10.0555C13.6819 9.97063 13.7014 9.88718 13.7366 9.80995C13.7718 9.73272 13.822 9.66326 13.8842 9.60561C13.9465 9.54796 14.0196 9.50327 14.0993 9.47415C14.1791 9.44502 14.2638 9.43204 14.3485 9.43595C14.4333 9.43986 14.5165 9.4606 14.5931 9.49695C14.6698 9.5333 14.7385 9.58453 14.7952 9.64768C15.0864 9.96279 15.4516 10.2004 15.8577 10.339C16.2637 10.4776 16.6979 10.5128 17.1211 10.4415C17.5442 10.3702 17.9429 10.1947 18.2811 9.93065C18.6193 9.66664 18.8865 9.32252 19.0584 8.92938C19.2302 8.53624 19.3015 8.10646 19.2656 7.67889C19.2298 7.25131 19.088 6.8394 18.853 6.48038C18.618 6.12136 18.2973 5.82654 17.9198 5.62254C17.5423 5.41855 17.12 5.31182 16.6909 5.312C16.2729 5.31056 15.861 5.41176 15.4912 5.60672C15.341 5.68569 15.1655 5.70173 15.0034 5.65132C14.8413 5.60091 14.7059 5.48818 14.6269 5.33792C14.5479 5.18766 14.5319 5.01218 14.5823 4.85009C14.6327 4.68799 14.7454 4.55257 14.8957 4.4736C15.4146 4.20125 15.9886 4.05052 16.5743 4.0328C17.16 4.01509 17.7421 4.13085 18.2765 4.37134C18.8108 4.61183 19.2835 4.97073 19.6586 5.42089C20.0338 5.87104 20.3016 6.40064 20.4419 6.9696C20.5821 7.53857 20.5911 8.13197 20.4681 8.70491C20.3451 9.27785 20.0933 9.81529 19.7319 10.2766C19.3705 10.7378 18.9089 11.1108 18.3821 11.3674C17.8552 11.6239 17.2769 11.7571 16.6909 11.7571V11.7565ZM21.1392 19.968H18.9485C18.7788 19.968 18.616 19.9006 18.4959 19.7805C18.3759 19.6605 18.3085 19.4977 18.3085 19.328C18.3085 19.1583 18.3759 18.9955 18.4959 18.8754C18.616 18.7554 18.7788 18.688 18.9485 18.688H21.1392C21.3235 18.6888 21.5048 18.6414 21.665 18.5505C21.8253 18.4595 21.959 18.3282 22.0528 18.1696C22.1485 18.0147 22.2012 17.8372 22.2058 17.6552C22.2104 17.4732 22.1665 17.2933 22.0787 17.1338C21.1146 15.3341 19.0323 14.1709 16.7747 14.1709C16.0142 14.1694 15.2592 14.3011 14.544 14.56C14.465 14.5887 14.3811 14.6015 14.2972 14.5978C14.2132 14.594 14.1308 14.5738 14.0547 14.5382C13.9785 14.5026 13.9101 14.4524 13.8534 14.3904C13.7967 14.3284 13.7527 14.2558 13.724 14.1768C13.6953 14.0978 13.6825 14.0139 13.6862 13.9299C13.69 13.846 13.7102 13.7636 13.7458 13.6874C13.7814 13.6113 13.8316 13.5429 13.8936 13.4862C13.9556 13.4294 14.0282 13.3855 14.1072 13.3568C14.9624 13.0474 15.8653 12.8903 16.7747 12.8925C18.1373 12.8925 19.4627 13.2394 20.6055 13.8957C21.7293 14.5405 22.6288 15.4518 23.2071 16.5309C23.3965 16.8875 23.4904 17.2871 23.4797 17.6908C23.4689 18.0945 23.3539 18.4885 23.1457 18.8345C22.9375 19.1806 22.6433 19.4668 22.2917 19.6655C21.9401 19.8641 21.543 19.9683 21.1392 19.968Z" fill="#202020"/>
</svg>
