<svg width="24" height="24" viewBox="0 0 24 24" fill="none" xmlns="http://www.w3.org/2000/svg">
<path d="M17.8814 20.4295C17.2223 20.4291 16.5782 20.2333 16.0303 19.8668C15.4825 19.5004 15.0556 18.9798 14.8037 18.3707C14.5517 17.7617 14.486 17.0917 14.6148 16.4453C14.7436 15.7989 15.0612 15.2052 15.5274 14.7393C15.9935 14.2734 16.5874 13.9562 17.2338 13.8278C17.8803 13.6993 18.5503 13.7654 19.1592 14.0177C19.7681 14.27 20.2885 14.6972 20.6546 15.2453C21.0207 15.7933 21.2161 16.4376 21.2161 17.0967C21.2151 17.9806 20.8634 18.828 20.2382 19.4529C19.613 20.0777 18.7654 20.4289 17.8814 20.4295ZM17.8814 15.0439C17.4755 15.0442 17.0788 15.165 16.7415 15.3907C16.4041 15.6165 16.1413 15.9373 15.9862 16.3124C15.8312 16.6875 15.7908 17.1002 15.8702 17.4983C15.9496 17.8964 16.1453 18.262 16.4325 18.5489C16.7196 18.8358 17.0854 19.0311 17.4836 19.1102C17.8817 19.1892 18.2944 19.1484 18.6694 18.993C19.0443 18.8376 19.3648 18.5745 19.5903 18.2369C19.8158 17.8994 19.9361 17.5026 19.9361 17.0967C19.9355 16.5521 19.7187 16.0301 19.3335 15.6452C18.9482 15.2603 18.426 15.044 17.8814 15.0439Z" fill="#202020"/>
<path d="M17.8814 15.0438C17.7117 15.0438 17.5489 14.9764 17.4289 14.8564C17.3089 14.7364 17.2414 14.5736 17.2414 14.4038V7.12767C17.2413 6.99103 17.187 6.86 17.0904 6.76335C16.9939 6.6667 16.8629 6.61232 16.7262 6.61215H14.3512C14.1814 6.61215 14.0187 6.54473 13.8986 6.4247C13.7786 6.30468 13.7112 6.14189 13.7112 5.97215C13.7112 5.80241 13.7786 5.63963 13.8986 5.5196C14.0187 5.39958 14.1814 5.33215 14.3512 5.33215H16.7262C17.2022 5.33266 17.6586 5.52201 17.9952 5.85863C18.3317 6.19525 18.521 6.65166 18.5214 7.12767V14.4038C18.5214 14.4879 18.5049 14.5711 18.4727 14.6488C18.4405 14.7264 18.3934 14.797 18.334 14.8564C18.2745 14.9158 18.204 14.963 18.1263 14.9951C18.0487 15.0273 17.9655 15.0438 17.8814 15.0438Z" fill="#202020"/>
<path d="M15.876 8.13695C15.7921 8.13703 15.7089 8.1205 15.6314 8.08831C15.5538 8.05613 15.4834 8.00893 15.4242 7.94943L13.8994 6.42495C13.7859 6.31146 13.7191 6.15944 13.7124 5.99905C13.7057 5.83865 13.7596 5.6816 13.8632 5.55903L15.3541 3.79711C15.4642 3.66919 15.6204 3.58994 15.7886 3.57662C15.9569 3.56329 16.1236 3.61696 16.2525 3.72596C16.3813 3.83495 16.4619 3.99044 16.4767 4.15857C16.4915 4.3267 16.4393 4.49387 16.3314 4.62367L15.221 5.93567L16.3292 7.04415C16.4186 7.13366 16.4796 7.24768 16.5042 7.37181C16.5289 7.49594 16.5163 7.62461 16.4678 7.74153C16.4194 7.85846 16.3374 7.95841 16.2322 8.02873C16.1269 8.09906 16.0032 8.13661 15.8767 8.13663L15.876 8.13695ZM6.35795 10.2682C5.69878 10.2682 5.05442 10.0727 4.50634 9.70648C3.95827 9.34026 3.53109 8.81975 3.27884 8.21076C3.02659 7.60177 2.96059 6.93166 3.08919 6.28516C3.21778 5.63866 3.5352 5.04481 4.0013 4.57871C4.4674 4.11261 5.06125 3.79519 5.70775 3.66659C6.35425 3.538 7.02437 3.604 7.63336 3.85625C8.24235 4.1085 8.76286 4.53567 9.12907 5.08375C9.49528 5.63183 9.69075 6.27619 9.69075 6.93535C9.68973 7.81896 9.33827 8.66608 8.71347 9.29088C8.08867 9.91568 7.24155 10.2671 6.35795 10.2682ZM6.35795 4.88255C5.95194 4.88255 5.55506 5.00295 5.21747 5.22851C4.87989 5.45408 4.61678 5.77468 4.46141 6.14978C4.30604 6.52488 4.26538 6.93763 4.34459 7.33584C4.4238 7.73404 4.61931 8.09981 4.9064 8.3869C5.19349 8.67399 5.55926 8.8695 5.95747 8.94871C6.35567 9.02792 6.76842 8.98727 7.14352 8.83189C7.51862 8.67652 7.83922 8.41341 8.06479 8.07583C8.29035 7.73825 8.41075 7.34136 8.41075 6.93535C8.41024 6.39107 8.1938 5.86923 7.80894 5.48437C7.42407 5.0995 6.90223 4.88306 6.35795 4.88255Z" fill="#202020"/>
<path d="M9.88801 18.6999H7.51297C7.03696 18.6994 6.58059 18.51 6.24402 18.1734C5.90746 17.8368 5.7182 17.3804 5.71777 16.9044V9.62819C5.71777 9.45845 5.7852 9.29566 5.90523 9.17564C6.02525 9.05562 6.18803 8.98819 6.35777 8.98819C6.52751 8.98819 6.6903 9.05562 6.81032 9.17564C6.93035 9.29566 6.99777 9.45845 6.99777 9.62819V16.9044C6.99786 17.041 7.05216 17.172 7.14875 17.2687C7.24534 17.3653 7.37633 17.4197 7.51297 17.4199H9.88801C10.0578 17.4199 10.2205 17.4873 10.3406 17.6073C10.4606 17.7273 10.528 17.8901 10.528 18.0599C10.528 18.2296 10.4606 18.3924 10.3406 18.5124C10.2205 18.6324 10.0578 18.6999 9.88801 18.6999Z" fill="#202020"/>
<path d="M8.42892 20.4298C8.30688 20.4297 8.1874 20.3948 8.08456 20.3291C7.98172 20.2634 7.89981 20.1696 7.84849 20.0589C7.79716 19.9482 7.77856 19.8251 7.79488 19.7042C7.8112 19.5832 7.86176 19.4695 7.9406 19.3763L9.05132 18.0643L7.94284 16.9558C7.82626 16.8351 7.76175 16.6735 7.76321 16.5057C7.76467 16.3378 7.83197 16.1773 7.95064 16.0587C8.0693 15.94 8.22982 15.8727 8.39762 15.8712C8.56543 15.8698 8.72709 15.9343 8.8478 16.0509L10.3726 17.5754C10.4861 17.6888 10.5529 17.8409 10.5596 18.0013C10.5663 18.1617 10.5124 18.3187 10.4088 18.4413L8.91788 20.2032C8.85775 20.2742 8.78286 20.3313 8.69841 20.3704C8.61396 20.4096 8.52199 20.4298 8.42892 20.4298Z" fill="#202020"/>
</svg>
