<svg width="24" height="24" viewBox="0 0 24 24" fill="none" xmlns="http://www.w3.org/2000/svg">
<path d="M17.8813 20.4295C17.2222 20.4291 16.578 20.2333 16.0302 19.8669C15.4824 19.5005 15.0555 18.9798 14.8036 18.3708C14.5516 17.7618 14.4859 17.0917 14.6147 16.4453C14.7435 15.799 15.0611 15.2053 15.5273 14.7394C15.9934 14.2735 16.5873 13.9563 17.2337 13.8278C17.8802 13.6994 18.5502 13.7655 19.1591 14.0178C19.7679 14.2701 20.2883 14.6973 20.6545 15.2453C21.0206 15.7933 21.216 16.4376 21.216 17.0967C21.215 17.9807 20.8633 18.8281 20.2381 19.4529C19.6128 20.0778 18.7652 20.429 17.8813 20.4295ZM17.8813 15.0439C17.4754 15.0443 17.0787 15.165 16.7413 15.3908C16.404 15.6166 16.1412 15.9373 15.9861 16.3125C15.831 16.6876 15.7907 17.1003 15.8701 17.4984C15.9495 17.8965 16.1452 18.262 16.4323 18.5489C16.7195 18.8358 17.0853 19.0312 17.4834 19.1102C17.8816 19.1893 18.2942 19.1485 18.6692 18.9931C19.0442 18.8376 19.3647 18.5745 19.5902 18.237C19.8157 17.8995 19.936 17.5026 19.936 17.0967C19.9353 16.5522 19.7186 16.0301 19.3333 15.6452C18.9481 15.2604 18.4259 15.0441 17.8813 15.0439Z" fill="#202020"/>
<path d="M17.8813 15.0437C17.7116 15.0437 17.5488 14.9763 17.4288 14.8563C17.3087 14.7362 17.2413 14.5735 17.2413 14.4037V7.12755C17.2412 6.99091 17.1869 6.85988 17.0903 6.76323C16.9937 6.66658 16.8627 6.6122 16.7261 6.61203H14.3511C14.1813 6.61203 14.0185 6.5446 13.8985 6.42458C13.7785 6.30456 13.7111 6.14177 13.7111 5.97203C13.7111 5.80229 13.7785 5.63951 13.8985 5.51948C14.0185 5.39946 14.1813 5.33203 14.3511 5.33203H16.7261C17.2021 5.33254 17.6585 5.52188 17.995 5.85851C18.3316 6.19513 18.5209 6.65154 18.5213 7.12755V14.4037C18.5213 14.4878 18.5047 14.571 18.4726 14.6486C18.4404 14.7263 18.3933 14.7968 18.3338 14.8563C18.2744 14.9157 18.2039 14.9628 18.1262 14.995C18.0486 15.0272 17.9653 15.0437 17.8813 15.0437Z" fill="#202020"/>
<path d="M15.8758 8.13704C15.7919 8.13712 15.7087 8.12059 15.6312 8.08841C15.5537 8.05622 15.4832 8.00902 15.424 7.94952L13.8992 6.42505C13.7857 6.31155 13.7189 6.15953 13.7122 5.99914C13.7056 5.83875 13.7594 5.68169 13.863 5.55913L15.3539 3.79721C15.464 3.66928 15.6202 3.59003 15.7885 3.57671C15.9567 3.56338 16.1234 3.61706 16.2523 3.72605C16.3812 3.83504 16.4618 3.99053 16.4765 4.15866C16.4913 4.3268 16.4391 4.49396 16.3312 4.62377L15.2208 5.93577L16.329 7.04425C16.4184 7.13375 16.4794 7.24778 16.5041 7.37191C16.5287 7.49603 16.5161 7.6247 16.4676 7.74162C16.4192 7.85855 16.3372 7.9585 16.232 8.02882C16.1268 8.09915 16.003 8.1367 15.8765 8.13673L15.8758 8.13704ZM6.35776 10.2682C5.6986 10.2682 5.05424 10.0728 4.50616 9.70657C3.95808 9.34035 3.53091 8.81984 3.27866 8.21085C3.02641 7.60186 2.96041 6.93175 3.089 6.28525C3.2176 5.63875 3.53502 5.0449 4.00112 4.5788C4.46722 4.1127 5.06107 3.79528 5.70757 3.66668C6.35407 3.53809 7.02418 3.60409 7.63317 3.85634C8.24216 4.10859 8.76267 4.53576 9.12889 5.08384C9.4951 5.63192 9.69056 6.27628 9.69056 6.93545C9.68955 7.81905 9.33809 8.66617 8.71329 9.29097C8.08849 9.91577 7.24137 10.2672 6.35776 10.2682ZM6.35776 4.88265C5.95176 4.88265 5.55487 5.00304 5.21729 5.2286C4.87971 5.45417 4.6166 5.77477 4.46123 6.14987C4.30585 6.52497 4.2652 6.93772 4.34441 7.33593C4.42362 7.73413 4.61913 8.09991 4.90622 8.38699C5.19331 8.67408 5.55908 8.86959 5.95728 8.9488C6.35549 9.02801 6.76824 8.98736 7.14334 8.83199C7.51844 8.67661 7.83904 8.4135 8.06461 8.07592C8.29017 7.73834 8.41056 7.34145 8.41056 6.93545C8.41006 6.39116 8.19362 5.86932 7.80875 5.48446C7.42389 5.09959 6.90205 4.88315 6.35776 4.88265Z" fill="#202020"/>
<path d="M9.88801 18.6997H7.51297C7.03696 18.6992 6.58059 18.5099 6.24402 18.1732C5.90746 17.8366 5.7182 17.3802 5.71777 16.9042V9.62804C5.71777 9.4583 5.7852 9.29551 5.90523 9.17549C6.02525 9.05546 6.18803 8.98804 6.35777 8.98804C6.52751 8.98804 6.6903 9.05546 6.81032 9.17549C6.93035 9.29551 6.99777 9.4583 6.99777 9.62804V16.9042C6.99786 17.0408 7.05216 17.1719 7.14875 17.2685C7.24534 17.3652 7.37633 17.4195 7.51297 17.4197H9.88801C10.0578 17.4197 10.2205 17.4871 10.3406 17.6072C10.4606 17.7272 10.528 17.89 10.528 18.0597C10.528 18.2295 10.4606 18.3922 10.3406 18.5123C10.2205 18.6323 10.0578 18.6997 9.88801 18.6997Z" fill="#202020"/>
<path d="M8.4288 20.4296C8.30676 20.4296 8.18728 20.3947 8.08444 20.329C7.9816 20.2632 7.89969 20.1695 7.84836 20.0588C7.79704 19.9481 7.77844 19.825 7.79476 19.704C7.81108 19.5831 7.86164 19.4693 7.94048 19.3762L9.0512 18.0642L7.94272 16.9557C7.82614 16.835 7.76163 16.6733 7.76309 16.5055C7.76454 16.3377 7.83185 16.1772 7.95051 16.0585C8.06917 15.9399 8.22969 15.8726 8.3975 15.8711C8.56531 15.8697 8.72697 15.9342 8.84768 16.0507L10.3725 17.5752C10.486 17.6887 10.5527 17.8407 10.5594 18.0011C10.5661 18.1615 10.5123 18.3186 10.4086 18.4411L8.91776 20.2031C8.85763 20.2741 8.78273 20.3312 8.69829 20.3703C8.61384 20.4095 8.52187 20.4297 8.4288 20.4296Z" fill="#202020"/>
</svg>
