<svg width="24" height="24" viewBox="0 0 24 24" fill="none" xmlns="http://www.w3.org/2000/svg">
<path d="M6.73319 9.68864C6.07403 9.68864 5.42966 9.49318 4.88159 9.12696C4.33351 8.76075 3.90634 8.24024 3.65409 7.63125C3.40183 7.02226 3.33583 6.35215 3.46443 5.70565C3.59303 5.05915 3.91045 4.4653 4.37655 3.9992C4.84265 3.5331 5.4365 3.21568 6.08299 3.08708C6.72949 2.95848 7.39961 3.02448 8.0086 3.27674C8.61759 3.52899 9.1381 3.95616 9.50431 4.50424C9.87053 5.05231 10.066 5.69668 10.066 6.35584C10.065 7.23944 9.71352 8.08656 9.08872 8.71137C8.46391 9.33617 7.61679 9.68763 6.73319 9.68864ZM6.73319 4.30304C6.32719 4.30304 5.9303 4.42344 5.59272 4.649C5.25514 4.87457 4.99202 5.19517 4.83665 5.57027C4.68128 5.94537 4.64063 6.35812 4.71984 6.75632C4.79904 7.15453 4.99455 7.5203 5.28164 7.80739C5.56873 8.09448 5.93451 8.28999 6.33271 8.3692C6.73092 8.44841 7.14366 8.40775 7.51876 8.25238C7.89387 8.09701 8.21447 7.8339 8.44003 7.49632C8.6656 7.15874 8.78599 6.76185 8.78599 6.35584C8.78532 5.81161 8.56882 5.28987 8.18399 4.90504C7.79916 4.52021 7.27742 4.30372 6.73319 4.30304ZM6.73319 20.977C6.07403 20.977 5.42966 20.7815 4.88159 20.4153C4.33351 20.0491 3.90634 19.5286 3.65409 18.9196C3.40183 18.3106 3.33583 17.6405 3.46443 16.994C3.59303 16.3475 3.91045 15.7536 4.37655 15.2875C4.84265 14.8214 5.4365 14.504 6.08299 14.3754C6.72949 14.2468 7.39961 14.3128 8.0086 14.5651C8.61759 14.8173 9.1381 15.2445 9.50431 15.7926C9.87053 16.3406 10.066 16.985 10.066 17.6442C10.065 18.5278 9.71352 19.3749 9.08872 19.9997C8.46391 20.6245 7.61679 20.9759 6.73319 20.977ZM6.73319 15.5914C6.32719 15.5914 5.9303 15.7118 5.59272 15.9373C5.25514 16.1629 4.99202 16.4835 4.83665 16.8586C4.68128 17.2337 4.64063 17.6464 4.71984 18.0446C4.79904 18.4428 4.99455 18.8086 5.28164 19.0957C5.56873 19.3828 5.93451 19.5783 6.33271 19.6575C6.73092 19.7367 7.14366 19.6961 7.51876 19.5407C7.89387 19.3853 8.21447 19.1222 8.44003 18.7846C8.6656 18.4471 8.78599 18.0502 8.78599 17.6442C8.78532 17.0999 8.56882 16.5782 8.18399 16.1934C7.79916 15.8085 7.27742 15.592 6.73319 15.5914Z" fill="#202020"/>
<path d="M6.73302 15.5914C6.56328 15.5914 6.40049 15.5239 6.28047 15.4039C6.16045 15.2839 6.09302 15.1211 6.09302 14.9514V9.04863C6.09302 8.87889 6.16045 8.71611 6.28047 8.59608C6.40049 8.47606 6.56328 8.40863 6.73302 8.40863C6.90276 8.40863 7.06554 8.47606 7.18557 8.59608C7.30559 8.71611 7.37302 8.87889 7.37302 9.04863V14.9514C7.37302 15.1211 7.30559 15.2839 7.18557 15.4039C7.06554 15.5239 6.90276 15.5914 6.73302 15.5914ZM17.2668 20.977C16.6076 20.977 15.9632 20.7815 15.4152 20.4153C14.8671 20.0491 14.4399 19.5285 14.1877 18.9196C13.9354 18.3106 13.8694 17.6405 13.998 16.994C14.1266 16.3475 14.444 15.7536 14.9101 15.2875C15.3762 14.8214 15.9701 14.504 16.6166 14.3754C17.2631 14.2468 17.9332 14.3128 18.5422 14.565C19.1512 14.8173 19.6717 15.2445 20.0379 15.7925C20.4041 16.3406 20.5996 16.985 20.5996 17.6442C20.5986 18.5278 20.2471 19.3749 19.6223 19.9997C18.9975 20.6245 18.1504 20.9759 17.2668 20.977ZM17.2668 15.5914C16.8608 15.5914 16.4639 15.7117 16.1263 15.9373C15.7887 16.1629 15.5256 16.4835 15.3702 16.8586C15.2149 17.2337 15.1742 17.6464 15.2534 18.0446C15.3326 18.4428 15.5281 18.8086 15.8152 19.0957C16.1023 19.3828 16.4681 19.5783 16.8663 19.6575C17.2645 19.7367 17.6773 19.6961 18.0524 19.5407C18.4275 19.3853 18.7481 19.1222 18.9736 18.7846C19.1992 18.447 19.3196 18.0502 19.3196 17.6442C19.3189 17.0999 19.1024 16.5782 18.7176 16.1934C18.3327 15.8085 17.811 15.592 17.2668 15.5914Z" fill="#202020"/>
<path d="M17.2668 15.5913C17.097 15.5913 16.9342 15.5239 16.8142 15.4039C16.6942 15.2838 16.6268 15.1211 16.6268 14.9513V7.67484C16.6266 7.53825 16.5722 7.40731 16.4757 7.31072C16.3791 7.21414 16.2481 7.15981 16.1116 7.15964H13.7362C13.5665 7.15964 13.4037 7.09221 13.2836 6.97219C13.1636 6.85216 13.0962 6.68938 13.0962 6.51964C13.0962 6.3499 13.1636 6.18711 13.2836 6.06709C13.4037 5.94707 13.5665 5.87964 13.7362 5.87964H16.1116C16.5875 5.88023 17.0438 6.06956 17.3803 6.4061C17.7168 6.74263 17.9062 7.1989 17.9068 7.67484V14.9513C17.9068 15.1211 17.8393 15.2838 17.7193 15.4039C17.5993 15.5239 17.4365 15.5913 17.2668 15.5913Z" fill="#202020"/>
<path d="M15.2611 8.68445C15.0913 8.68442 14.9286 8.61697 14.8086 8.49693L13.2838 6.97213C13.1703 6.8586 13.1036 6.70656 13.097 6.54616C13.0903 6.38577 13.1442 6.22874 13.2479 6.10621L14.7388 4.34429C14.7928 4.27904 14.8591 4.22514 14.9341 4.18571C15.009 4.14629 15.091 4.12212 15.1753 4.11461C15.2597 4.1071 15.3446 4.11641 15.4254 4.14198C15.5061 4.16755 15.5809 4.20888 15.6455 4.26358C15.7102 4.31828 15.7633 4.38526 15.8019 4.46064C15.8404 4.53601 15.8636 4.6183 15.8702 4.70271C15.8767 4.78713 15.8664 4.872 15.8399 4.95241C15.8134 5.03283 15.7712 5.10718 15.7158 5.17117L14.6054 6.48317L15.7135 7.59133C15.8031 7.68082 15.8642 7.79488 15.8889 7.91906C15.9136 8.04324 15.901 8.17198 15.8526 8.28897C15.8041 8.40597 15.7221 8.50596 15.6168 8.5763C15.5115 8.64664 15.3877 8.68417 15.2611 8.68413V8.68445Z" fill="#202020"/>
</svg>
