<svg width="24" height="24" viewBox="0 0 24 24" fill="none" xmlns="http://www.w3.org/2000/svg">
<path d="M17.0319 20.9347H6.96795C6.06016 20.9337 5.18984 20.5726 4.54793 19.9307C3.90603 19.2888 3.54496 18.4185 3.54395 17.5107V7.44701C3.54488 6.5392 3.90592 5.66883 4.54784 5.02691C5.18976 4.38498 6.06013 4.02394 6.96795 4.02301H17.0319C17.9398 4.02394 18.8101 4.38498 19.452 5.02691C20.094 5.66883 20.455 6.5392 20.4559 7.44701V17.511C20.4548 18.4187 20.0937 19.289 19.4518 19.9308C18.8099 20.5727 17.9397 20.9337 17.0319 20.9347ZM6.96795 5.30365C6.39948 5.30416 5.85444 5.53021 5.45247 5.93217C5.0505 6.33414 4.82445 6.87918 4.82395 7.44765V17.5117C4.82445 18.0801 5.0505 18.6252 5.45247 19.0271C5.85444 19.4291 6.39948 19.6551 6.96795 19.6557H17.0319C17.6004 19.6551 18.1455 19.4291 18.5474 19.0271C18.9494 18.6252 19.1754 18.0801 19.1759 17.5117V7.44701C19.1754 6.87854 18.9494 6.3335 18.5474 5.93153C18.1455 5.52957 17.6004 5.30352 17.0319 5.30301L6.96795 5.30365Z" fill="#202020"/>
<path d="M16.3146 13.3827H13.6506C13.2858 13.3821 12.9362 13.237 12.6782 12.979C12.4203 12.7211 12.2752 12.3715 12.2746 12.0067V9.34206C12.2752 8.97731 12.4203 8.62766 12.6782 8.36974C12.9362 8.11182 13.2858 7.96666 13.6506 7.96606H16.3146C16.6793 7.96666 17.029 8.11182 17.2869 8.36974C17.5448 8.62766 17.69 8.97731 17.6906 9.34206V12.0057C17.6902 12.3707 17.5452 12.7206 17.2872 12.9787C17.0293 13.2368 16.6795 13.3821 16.3146 13.3827ZM13.6506 9.2451C13.6251 9.2451 13.6007 9.25522 13.5827 9.27322C13.5647 9.29123 13.5546 9.31564 13.5546 9.3411V12.0048C13.5546 12.0302 13.5647 12.0547 13.5827 12.0727C13.6007 12.0907 13.6251 12.1008 13.6506 12.1008H16.3146C16.34 12.1008 16.3644 12.0907 16.3824 12.0727C16.4005 12.0547 16.4106 12.0302 16.4106 12.0048V9.34206C16.4106 9.3166 16.4005 9.29219 16.3824 9.27418C16.3644 9.25618 16.34 9.24606 16.3146 9.24606L13.6506 9.2451ZM10.3494 13.3827H7.68545C7.32069 13.3821 6.97105 13.237 6.71312 12.979C6.4552 12.7211 6.31004 12.3715 6.30945 12.0067V9.34206C6.31004 8.97731 6.4552 8.62766 6.71312 8.36974C6.97105 8.11182 7.32069 7.96666 7.68545 7.96606H10.3494C10.7142 7.96666 11.0639 8.11182 11.3218 8.36974C11.5797 8.62766 11.7249 8.97731 11.7254 9.34206V12.0057C11.7251 12.3707 11.5801 12.7206 11.3221 12.9787C11.0642 13.2368 10.7144 13.3821 10.3494 13.3827ZM7.68545 9.2451C7.65999 9.2451 7.63557 9.25522 7.61757 9.27322C7.59956 9.29123 7.58945 9.31564 7.58945 9.3411V12.0048C7.58945 12.0302 7.59956 12.0547 7.61757 12.0727C7.63557 12.0907 7.65999 12.1008 7.68545 12.1008H10.3494C10.3749 12.1008 10.3993 12.0907 10.4173 12.0727C10.4353 12.0547 10.4454 12.0302 10.4454 12.0048V9.34206C10.4454 9.3166 10.4353 9.29219 10.4173 9.27418C10.3993 9.25618 10.3749 9.24606 10.3494 9.24606L7.68545 9.2451Z" fill="#202020"/>
<path d="M15.8884 16.992C15.7699 16.9919 15.6538 16.9589 15.5529 16.8967C15.4521 16.8345 15.3705 16.7455 15.3172 16.6396C15.264 16.5337 15.2412 16.4152 15.2513 16.2971C15.2615 16.179 15.3043 16.0661 15.3748 15.9709L16.0859 15.0109C16.2965 14.7254 16.4105 14.3801 16.4113 14.0253V12.0058C16.4113 11.836 16.4787 11.6733 16.5988 11.5532C16.7188 11.4332 16.8816 11.3658 17.0513 11.3658C17.221 11.3658 17.3838 11.4332 17.5038 11.5532C17.6239 11.6733 17.6913 11.836 17.6913 12.0058V14.0263C17.6902 14.6552 17.4885 15.2675 17.1153 15.7738L16.4043 16.7338C16.3445 16.8142 16.2667 16.8795 16.1771 16.9243C16.0875 16.9692 15.9886 16.9924 15.8884 16.992ZM9.9233 16.992C9.80482 16.9921 9.68865 16.9593 9.58773 16.8972C9.4868 16.8351 9.40509 16.7463 9.35168 16.6405C9.29827 16.5348 9.27526 16.4163 9.28523 16.2982C9.29519 16.1802 9.33773 16.0672 9.4081 15.9719L10.1195 15.0119C10.3301 14.7264 10.4441 14.3811 10.4449 14.0263V12.0058C10.4449 11.836 10.5123 11.6733 10.6324 11.5532C10.7524 11.4332 10.9152 11.3658 11.0849 11.3658C11.2546 11.3658 11.4174 11.4332 11.5375 11.5532C11.6575 11.6733 11.7249 11.836 11.7249 12.0058V14.0263C11.7238 14.6552 11.5221 15.2675 11.1489 15.7738L10.4379 16.7338C10.3782 16.814 10.3006 16.8792 10.2113 16.924C10.1219 16.9689 10.0233 16.9922 9.9233 16.992Z" fill="#202020"/>
</svg>
