<svg width="24" height="24" viewBox="0 0 24 24" fill="none" xmlns="http://www.w3.org/2000/svg">
<path d="M17.0319 20.9347H6.96795C6.06016 20.9337 5.18984 20.5726 4.54793 19.9307C3.90603 19.2888 3.54496 18.4185 3.54395 17.5107V7.44701C3.54488 6.5392 3.90592 5.66883 4.54784 5.02691C5.18976 4.38498 6.06013 4.02394 6.96795 4.02301H17.0319C17.9398 4.02394 18.8101 4.38498 19.452 5.02691C20.094 5.66883 20.455 6.5392 20.4559 7.44701V17.511C20.4548 18.4187 20.0937 19.289 19.4518 19.9308C18.8099 20.5727 17.9397 20.9337 17.0319 20.9347ZM6.96795 5.30365C6.39948 5.30416 5.85444 5.53021 5.45247 5.93217C5.0505 6.33414 4.82445 6.87918 4.82395 7.44765V17.5117C4.82445 18.0801 5.0505 18.6252 5.45247 19.0271C5.85444 19.4291 6.39948 19.6551 6.96795 19.6557H17.0319C17.6004 19.6551 18.1455 19.4291 18.5474 19.0271C18.9494 18.6252 19.1754 18.0801 19.1759 17.5117V7.44701C19.1754 6.87854 18.9494 6.3335 18.5474 5.93153C18.1455 5.52957 17.6004 5.30352 17.0319 5.30301L6.96795 5.30365Z" fill="#202020"/>
<path d="M10.3494 16.992H7.68545C7.32069 16.9914 6.97105 16.8462 6.71312 16.5883C6.4552 16.3304 6.31004 15.9807 6.30945 15.616V12.9523C6.31004 12.5875 6.4552 12.2379 6.71312 11.98C6.97105 11.722 7.32069 11.5769 7.68545 11.5763H10.3494C10.7142 11.5769 11.0639 11.722 11.3218 11.98C11.5797 12.2379 11.7249 12.5875 11.7254 12.9523V15.616C11.7249 15.9807 11.5797 16.3304 11.3218 16.5883C11.0639 16.8462 10.7142 16.9914 10.3494 16.992ZM7.68545 12.8544C7.65999 12.8544 7.63557 12.8645 7.61757 12.8825C7.59956 12.9005 7.58945 12.9249 7.58945 12.9504V15.616C7.58945 15.6414 7.59956 15.6659 7.61757 15.6839C7.63557 15.7019 7.65999 15.712 7.68545 15.712H10.3494C10.3749 15.712 10.3993 15.7019 10.4173 15.6839C10.4353 15.6659 10.4454 15.6414 10.4454 15.616V12.9523C10.4454 12.9268 10.4353 12.9024 10.4173 12.8844C10.3993 12.8664 10.3749 12.8563 10.3494 12.8563L7.68545 12.8544ZM16.3146 16.992H13.6506C13.2858 16.9914 12.9362 16.8462 12.6782 16.5883C12.4203 16.3304 12.2752 15.9807 12.2746 15.616V12.9523C12.2752 12.5875 12.4203 12.2379 12.6782 11.98C12.9362 11.722 13.2858 11.5769 13.6506 11.5763H16.3146C16.6793 11.5769 17.029 11.722 17.2869 11.98C17.5448 12.2379 17.69 12.5875 17.6906 12.9523V15.616C17.69 15.9807 17.5448 16.3304 17.2869 16.5883C17.029 16.8462 16.6793 16.9914 16.3146 16.992ZM13.6506 12.8544C13.6251 12.8544 13.6007 12.8645 13.5827 12.8825C13.5647 12.9005 13.5546 12.9249 13.5546 12.9504V15.616C13.5546 15.6414 13.5647 15.6659 13.5827 15.6839C13.6007 15.7019 13.6251 15.712 13.6506 15.712H16.3146C16.34 15.712 16.3644 15.7019 16.3824 15.6839C16.4005 15.6659 16.4106 15.6414 16.4106 15.616V12.9523C16.4106 12.9268 16.4005 12.9024 16.3824 12.8844C16.3644 12.8664 16.34 12.8563 16.3146 12.8563L13.6506 12.8544Z" fill="#202020"/>
<path d="M6.94884 13.5923C6.7791 13.5923 6.61631 13.5249 6.49629 13.4049C6.37627 13.2848 6.30884 13.1221 6.30884 12.9523V10.9318C6.30994 10.3029 6.51173 9.69066 6.88484 9.18431L7.59588 8.22431C7.64562 8.15603 7.70838 8.09826 7.78056 8.05435C7.85273 8.01045 7.93288 7.98126 8.01639 7.96848C8.0999 7.95571 8.18511 7.95959 8.26712 7.97991C8.34912 8.00022 8.42628 8.03657 8.49417 8.08686C8.56205 8.13715 8.6193 8.20038 8.66263 8.27291C8.70595 8.34544 8.73449 8.42582 8.74659 8.50943C8.7587 8.59304 8.75413 8.67822 8.73315 8.76005C8.71217 8.84189 8.67519 8.91876 8.62436 8.98623L7.91332 9.94623C7.70267 10.2317 7.58866 10.577 7.58788 10.9318V12.9523C7.58788 13.1219 7.52058 13.2845 7.40077 13.4045C7.28095 13.5245 7.11841 13.5921 6.94884 13.5923ZM12.914 13.5923C12.7442 13.5923 12.5814 13.5249 12.4614 13.4049C12.3414 13.2848 12.274 13.1221 12.274 12.9523V10.9318C12.2751 10.3029 12.4768 9.69066 12.85 9.18431L13.5613 8.22431C13.6113 8.15664 13.6742 8.09947 13.7463 8.05609C13.8185 8.01271 13.8984 7.98396 13.9816 7.97148C14.0649 7.959 14.1497 7.96303 14.2314 7.98336C14.3131 8.00368 14.39 8.03988 14.4576 8.08991C14.5253 8.13994 14.5825 8.20281 14.6259 8.27493C14.6692 8.34705 14.698 8.42701 14.7105 8.51024C14.723 8.59347 14.7189 8.67834 14.6986 8.76001C14.6783 8.84169 14.6421 8.91855 14.592 8.98623L13.881 9.94623C13.6704 10.2317 13.5563 10.577 13.5556 10.9318V12.9523C13.5556 13.0365 13.539 13.1198 13.5067 13.1976C13.4744 13.2754 13.4271 13.346 13.3675 13.4054C13.3079 13.4649 13.2372 13.512 13.1594 13.5441C13.0815 13.5761 12.9981 13.5925 12.914 13.5923Z" fill="#202020"/>
</svg>
