<svg width="24" height="24" viewBox="0 0 24 24" fill="none" xmlns="http://www.w3.org/2000/svg">
<path d="M11.9999 20.9347C10.0435 20.9349 8.14754 20.2567 6.6351 19.0156C5.12267 17.7745 4.08735 16.0475 3.70556 14.1286C3.32377 12.2098 3.61913 10.218 4.5413 8.49249C5.46348 6.76702 6.95542 5.41469 8.76291 4.66592C10.5704 3.91715 12.5816 3.81828 14.4538 4.38615C16.326 4.95402 17.9434 6.1535 19.0304 7.7802C20.1174 9.4069 20.6067 11.3602 20.4149 13.3072C20.2232 15.2542 19.3622 17.0745 17.9788 18.4579C17.1955 19.2456 16.2638 19.8701 15.2375 20.2953C14.2112 20.7204 13.1108 20.9378 11.9999 20.9347ZM11.9999 5.3037C8.04346 5.3037 4.82426 8.52258 4.82426 12.4791C4.82426 16.4355 8.04346 19.6547 11.9999 19.6547C15.9564 19.6547 19.1756 16.4355 19.1756 12.4791C19.1756 8.52258 15.9564 5.3037 11.9999 5.3037Z" fill="#202020"/>
<path d="M16.3146 13.3827H13.6506C13.2858 13.3821 12.9362 13.237 12.6782 12.979C12.4203 12.7211 12.2752 12.3715 12.2746 12.0067V9.34206C12.2752 8.97731 12.4203 8.62766 12.6782 8.36974C12.9362 8.11182 13.2858 7.96666 13.6506 7.96606H16.3146C16.6793 7.96666 17.029 8.11182 17.2869 8.36974C17.5448 8.62766 17.69 8.97731 17.6906 9.34206V12.0057C17.6902 12.3707 17.5452 12.7206 17.2872 12.9787C17.0293 13.2368 16.6795 13.3821 16.3146 13.3827ZM13.6506 9.2451C13.6251 9.2451 13.6007 9.25522 13.5827 9.27322C13.5647 9.29123 13.5546 9.31564 13.5546 9.3411V12.0048C13.5546 12.0302 13.5647 12.0547 13.5827 12.0727C13.6007 12.0907 13.6251 12.1008 13.6506 12.1008H16.3146C16.34 12.1008 16.3644 12.0907 16.3824 12.0727C16.4005 12.0547 16.4106 12.0302 16.4106 12.0048V9.34206C16.4106 9.3166 16.4005 9.29219 16.3824 9.27418C16.3644 9.25618 16.34 9.24606 16.3146 9.24606L13.6506 9.2451ZM10.3494 13.3827H7.68545C7.32069 13.3821 6.97105 13.237 6.71312 12.979C6.4552 12.7211 6.31004 12.3715 6.30945 12.0067V9.34206C6.31004 8.97731 6.4552 8.62766 6.71312 8.36974C6.97105 8.11182 7.32069 7.96666 7.68545 7.96606H10.3494C10.7142 7.96666 11.0639 8.11182 11.3218 8.36974C11.5797 8.62766 11.7249 8.97731 11.7254 9.34206V12.0057C11.7251 12.3707 11.5801 12.7206 11.3221 12.9787C11.0642 13.2368 10.7144 13.3821 10.3494 13.3827ZM7.68545 9.2451C7.65999 9.2451 7.63557 9.25522 7.61757 9.27322C7.59956 9.29123 7.58945 9.31564 7.58945 9.3411V12.0048C7.58945 12.0302 7.59956 12.0547 7.61757 12.0727C7.63557 12.0907 7.65999 12.1008 7.68545 12.1008H10.3494C10.3749 12.1008 10.3993 12.0907 10.4173 12.0727C10.4353 12.0547 10.4454 12.0302 10.4454 12.0048V9.34206C10.4454 9.3166 10.4353 9.29219 10.4173 9.27418C10.3993 9.25618 10.3749 9.24606 10.3494 9.24606L7.68545 9.2451Z" fill="#202020"/>
<path d="M15.8883 16.992C15.7698 16.9919 15.6536 16.9589 15.5528 16.8967C15.4519 16.8345 15.3703 16.7455 15.3171 16.6396C15.2638 16.5337 15.241 16.4152 15.2512 16.2971C15.2613 16.179 15.3041 16.0661 15.3747 15.9709L16.0857 15.0109C16.2964 14.7254 16.4104 14.3801 16.4111 14.0253V12.0058C16.4111 11.836 16.4786 11.6733 16.5986 11.5532C16.7186 11.4332 16.8814 11.3658 17.0511 11.3658C17.2209 11.3658 17.3837 11.4332 17.5037 11.5532C17.6237 11.6733 17.6911 11.836 17.6911 12.0058V14.0263C17.6901 14.6552 17.4883 15.2675 17.1151 15.7738L16.4038 16.7338C16.3441 16.8142 16.2663 16.8794 16.1768 16.9242C16.0872 16.9691 15.9884 16.9923 15.8883 16.992ZM9.92314 16.992C9.80464 16.9919 9.68849 16.9589 9.58764 16.8967C9.48679 16.8345 9.40519 16.7455 9.35194 16.6396C9.29869 16.5337 9.27588 16.4152 9.28605 16.2971C9.29622 16.179 9.33898 16.0661 9.40954 15.9709L10.1206 15.0109C10.3312 14.7254 10.4452 14.3801 10.446 14.0253V12.0058C10.446 11.836 10.5135 11.6733 10.6335 11.5532C10.7535 11.4332 10.9163 11.3658 11.086 11.3658C11.2558 11.3658 11.4185 11.4332 11.5386 11.5532C11.6586 11.6733 11.726 11.836 11.726 12.0058V14.0263C11.725 14.6552 11.5232 15.2675 11.15 15.7738L10.4387 16.7338C10.3789 16.8142 10.3012 16.8794 10.2116 16.9242C10.1221 16.9691 10.0233 16.9923 9.92314 16.992Z" fill="#202020"/>
</svg>
