<svg width="24" height="24" viewBox="0 0 24 24" fill="none" xmlns="http://www.w3.org/2000/svg">
<path d="M10.9398 20.3277C9.57025 20.3279 8.22179 19.9902 7.0139 19.3447C5.80601 18.6992 4.77596 17.7657 4.01502 16.627C3.25408 15.4883 2.78572 14.1795 2.65145 12.8165C2.51718 11.4535 2.72113 10.0785 3.24524 8.81318C3.76934 7.54787 4.59743 6.43135 5.65614 5.56254C6.71484 4.69372 7.97149 4.09943 9.31475 3.8323C10.658 3.56518 12.0464 3.63347 13.357 4.03112C14.6675 4.42878 15.8598 5.14353 16.8281 6.11204C16.8876 6.17148 16.9348 6.24204 16.9669 6.31971C16.9991 6.39737 17.0157 6.48062 17.0157 6.56468C17.0157 6.64875 16.9991 6.732 16.9669 6.80966C16.9348 6.88733 16.8876 6.95789 16.8281 7.01732L11.392 12.4525C11.2713 12.5691 11.1096 12.6336 10.9418 12.6322C10.774 12.6307 10.6135 12.5634 10.4948 12.4447C10.3761 12.3261 10.3088 12.1655 10.3074 11.9977C10.3059 11.8299 10.3704 11.6683 10.487 11.5476L15.4502 6.58436C14.1857 5.52542 12.5876 4.94739 10.9382 4.95236C7.05213 4.95236 3.89053 8.11396 3.89053 12C3.89053 15.8861 7.05213 19.0477 10.9382 19.0477C14.8243 19.0477 17.9875 15.8861 17.9875 12C17.9895 10.6326 17.592 9.2944 16.8438 8.1498C16.7963 8.07948 16.7633 8.00041 16.7467 7.91721C16.7301 7.83401 16.7301 7.74833 16.7469 7.66516C16.7637 7.58199 16.7969 7.50298 16.8444 7.43274C16.892 7.3625 16.9531 7.30242 17.0242 7.256C17.0952 7.20958 17.1747 7.17775 17.2582 7.16236C17.3416 7.14697 17.4273 7.14832 17.5102 7.16634C17.5931 7.18436 17.6716 7.21869 17.7411 7.26732C17.8107 7.31596 17.8698 7.37793 17.9152 7.44964C18.7348 8.70631 19.1997 10.1611 19.2609 11.6601C19.322 13.1592 18.977 14.647 18.2624 15.9662C17.5478 17.2854 16.4901 18.3871 15.201 19.1548C13.912 19.9225 12.4395 20.3278 10.9392 20.3277H10.9398Z" fill="#202020"/>
</svg>
