<svg width="24" height="24" viewBox="0 0 24 24" fill="none" xmlns="http://www.w3.org/2000/svg">
<path d="M15.7897 20.4556H8.21022C7.37884 20.4545 6.58182 20.1238 5.99395 19.5359C5.40607 18.948 5.07532 18.151 5.07422 17.3196V6.68092C5.07532 5.84954 5.40607 5.05253 5.99395 4.46465C6.58182 3.87678 7.37884 3.54602 8.21022 3.54492H15.7897C16.6211 3.54602 17.4181 3.87678 18.006 4.46465C18.5939 5.05253 18.9246 5.84954 18.9257 6.68092V8.44092C18.9255 8.7184 18.8152 8.98444 18.619 9.18067C18.4228 9.37691 18.1568 9.4873 17.8793 9.48764H17.3897V12.1024C17.3895 12.4192 17.509 12.7244 17.7245 12.9568L18.7555 14.0713C18.8649 14.1896 18.9257 14.3448 18.9257 14.5059V17.3187C18.9249 18.1502 18.5943 18.9475 18.0063 19.5356C17.4184 20.1237 16.6213 20.4545 15.7897 20.4556ZM8.21022 4.82428C7.71819 4.82496 7.2465 5.02072 6.89858 5.36864C6.55066 5.71656 6.3549 6.18825 6.35422 6.68028V17.319C6.3549 17.811 6.55066 18.2827 6.89858 18.6306C7.2465 18.9786 7.71819 19.1743 8.21022 19.175H15.7897C16.2818 19.1743 16.7535 18.9786 17.1014 18.6306C17.4493 18.2827 17.6451 17.811 17.6457 17.319V14.7571L16.7849 13.8265C16.3502 13.3578 16.109 12.7419 16.1097 12.1027V9.25468C16.11 8.97715 16.2204 8.71106 16.4166 8.51482C16.6128 8.31858 16.8789 8.20822 17.1565 8.20796H17.6457V6.68092C17.6451 6.18889 17.4493 5.7172 17.1014 5.36928C16.7535 5.02136 16.2818 4.8256 15.7897 4.82492L8.21022 4.82428Z" fill="#202020"/>
<path d="M15.7678 20.4557C15.598 20.4557 15.4352 20.3882 15.3152 20.2682C15.1952 20.1482 15.1278 19.9854 15.1278 19.8157V18.08C15.1277 18.0026 15.0969 17.9284 15.0422 17.8737C14.9875 17.819 14.9133 17.7882 14.8359 17.7881H9.14215C9.06478 17.7882 8.9906 17.819 8.93588 17.8737C8.88117 17.9284 8.8504 18.0026 8.85031 18.08V19.8147C8.85031 19.9844 8.78288 20.1472 8.66286 20.2672C8.54284 20.3873 8.38005 20.4547 8.21031 20.4547C8.04057 20.4547 7.87779 20.3873 7.75776 20.2672C7.63774 20.1472 7.57031 19.9844 7.57031 19.8147V18.08C7.57082 17.6633 7.73659 17.2637 8.03125 16.9691C8.32592 16.6744 8.72543 16.5086 9.14215 16.5081H14.8359C15.2526 16.5086 15.6521 16.6744 15.9468 16.9691C16.2415 17.2637 16.4072 17.6633 16.4078 18.08V19.8147C16.4079 19.8988 16.3914 19.9821 16.3593 20.0599C16.3272 20.1377 16.2801 20.2083 16.2206 20.2679C16.1612 20.3274 16.0906 20.3746 16.0129 20.4068C15.9352 20.4391 15.8519 20.4557 15.7678 20.4557ZM14.3719 9.42014H9.62823C9.45849 9.42014 9.29571 9.35271 9.17568 9.23268C9.05566 9.11266 8.98823 8.94988 8.98823 8.78014C8.98823 8.6104 9.05566 8.44761 9.17568 8.32759C9.29571 8.20756 9.45849 8.14014 9.62823 8.14014H14.3719C14.5417 8.14014 14.7044 8.20756 14.8245 8.32759C14.9445 8.44761 15.0119 8.6104 15.0119 8.78014C15.0119 8.94988 14.9445 9.11266 14.8245 9.23268C14.7044 9.35271 14.5417 9.42014 14.3719 9.42014Z" fill="#202020"/>
</svg>
