<svg width="24" height="24" viewBox="0 0 24 24" fill="none" xmlns="http://www.w3.org/2000/svg">
<path d="M9.4377 20.264H4.45274C4.28301 20.264 4.12022 20.1966 4.0002 20.0766C3.88017 19.9565 3.81274 19.7938 3.81274 19.624V13.5395C3.81334 13.0541 4.00644 12.5887 4.3497 12.2454C4.69296 11.9022 5.15834 11.7091 5.64378 11.7085H9.4377C9.60744 11.7085 9.77023 11.7759 9.89025 11.8959C10.0103 12.016 10.0777 12.1788 10.0777 12.3485V19.624C10.0777 19.7938 10.0103 19.9565 9.89025 20.0766C9.77023 20.1966 9.60744 20.264 9.4377 20.264ZM5.09274 18.984H8.7977V12.9885H5.64378C5.49769 12.9887 5.35763 13.0468 5.25433 13.1501C5.15102 13.2534 5.09291 13.3934 5.09274 13.5395V18.984ZM19.5471 20.264H14.5622C14.3924 20.264 14.2297 20.1966 14.1096 20.0766C13.9896 19.9565 13.9222 19.7938 13.9222 19.624V14.944C13.9222 14.7743 13.9896 14.6115 14.1096 14.4915C14.2297 14.3714 14.3924 14.304 14.5622 14.304H18.3561C18.8415 14.3046 19.3069 14.4977 19.6502 14.841C19.9934 15.1842 20.1866 15.6496 20.1871 16.1351V19.624C20.1871 19.7938 20.1197 19.9565 19.9997 20.0766C19.8797 20.1966 19.7169 20.264 19.5471 20.264ZM15.2022 18.984H18.9071V16.1335C18.9066 15.9876 18.8483 15.848 18.745 15.745C18.6417 15.6421 18.5019 15.5842 18.3561 15.584H15.2022V18.984Z" fill="#202020"/>
<path d="M14.5623 20.264H9.43785C9.26811 20.264 9.10533 20.1966 8.9853 20.0765C8.86528 19.9565 8.79785 19.7937 8.79785 19.624V10.0845C8.79844 9.59902 8.99155 9.13363 9.33481 8.79037C9.67806 8.44712 10.1435 8.25401 10.6289 8.25342H13.3713C13.8567 8.25401 14.3221 8.44712 14.6654 8.79037C15.0086 9.13363 15.2017 9.59902 15.2023 10.0845V19.624C15.2023 19.7937 15.1349 19.9565 15.0149 20.0765C14.8949 20.1966 14.7321 20.264 14.5623 20.264ZM10.0779 18.984H13.9223V10.0845C13.9222 9.93834 13.8642 9.79823 13.7608 9.69491C13.6575 9.59159 13.5174 9.53351 13.3713 9.53342H10.6289C10.4828 9.53351 10.3427 9.59159 10.2393 9.69491C10.136 9.79823 10.0779 9.93834 10.0779 10.0845V18.984ZM13.0017 8.09918C12.898 8.09921 12.7958 8.07395 12.7041 8.02558L12.0001 7.65534L11.2961 8.02558C11.1904 8.08097 11.0714 8.10572 10.9524 8.09704C10.8334 8.08835 10.7192 8.04657 10.6227 7.97642C10.5261 7.90627 10.4512 7.81053 10.4062 7.70002C10.3612 7.58951 10.348 7.46863 10.3681 7.35102L10.5025 6.56702L9.93321 6.01182C9.84774 5.92847 9.78728 5.82287 9.75867 5.70696C9.73007 5.59104 9.73446 5.46944 9.77134 5.35589C9.80822 5.24234 9.87613 5.14138 9.9674 5.0644C10.0587 4.98743 10.1696 4.93751 10.2878 4.9203L11.075 4.80606L11.427 4.09278C11.4799 3.98577 11.5616 3.89569 11.663 3.8327C11.7644 3.76971 11.8814 3.73633 12.0007 3.73633C12.1201 3.73633 12.2371 3.76971 12.3385 3.8327C12.4399 3.89569 12.5216 3.98577 12.5745 4.09278L12.9265 4.80606L13.7137 4.9203C13.8318 4.93751 13.9428 4.98743 14.0341 5.0644C14.1253 5.14138 14.1932 5.24234 14.2301 5.35589C14.267 5.46944 14.2714 5.59104 14.2428 5.70696C14.2142 5.82287 14.1537 5.92847 14.0683 6.01182L13.499 6.56702L13.6334 7.35102C13.6491 7.44295 13.6446 7.53722 13.6201 7.62722C13.5956 7.71723 13.5518 7.80079 13.4916 7.87206C13.4314 7.94333 13.3564 8.00058 13.2718 8.03982C13.1871 8.07905 13.095 8.09931 13.0017 8.09918ZM12.0001 6.29246C12.0579 6.29239 12.1153 6.30025 12.171 6.31582C12.1761 6.19974 12.2127 6.08723 12.2769 5.99038C12.1681 5.94975 12.0724 5.88028 12.0001 5.78942C11.9278 5.88028 11.8321 5.94975 11.7233 5.99038C11.7875 6.08723 11.8241 6.19974 11.8292 6.31582C11.8848 6.30025 11.9423 6.29239 12.0001 6.29246Z" fill="#202020"/>
</svg>
