<svg width="24" height="24" viewBox="0 0 24 24" fill="none" xmlns="http://www.w3.org/2000/svg">
<path d="M15.3155 19.0371C15.179 19.037 15.0461 18.9932 14.9363 18.912L13.7232 18.0195L12.7891 18.7696C12.6784 18.8585 12.5412 18.908 12.3992 18.9104C12.2572 18.9128 12.1185 18.8678 12.0048 18.7827L11.0234 18.0467L10.136 18.7901C10.0197 18.8875 9.87266 18.9404 9.72098 18.9395C9.5693 18.9386 9.42289 18.8838 9.30784 18.7849L8.4192 18.0233L7.1456 18.9193C7.04976 18.9868 6.93724 19.0266 6.82032 19.0345C6.70339 19.0424 6.58654 19.018 6.48252 18.964C6.37849 18.91 6.29129 18.8285 6.23041 18.7284C6.16953 18.6283 6.13732 18.5133 6.13728 18.3961V7.59485C6.13813 6.77358 6.46476 5.98618 7.04548 5.40546C7.62621 4.82473 8.41361 4.4981 9.23488 4.49725H15.3149C15.4846 4.49725 15.6474 4.56468 15.7674 4.68471C15.8875 4.80473 15.9549 4.96751 15.9549 5.13725V18.3971C15.9549 18.5668 15.8875 18.7296 15.7674 18.8496C15.6474 18.9697 15.4846 19.0371 15.3149 19.0371H15.3155ZM8.45792 16.5731C8.61059 16.5733 8.75813 16.6282 8.87392 16.7277L9.72896 17.4637L10.5888 16.743C10.6994 16.6503 10.8382 16.5977 10.9825 16.5937C11.1268 16.5898 11.2682 16.6347 11.3837 16.7213L12.3734 17.4627L13.3043 16.7158C13.4143 16.6275 13.5504 16.578 13.6914 16.575C13.8324 16.572 13.9705 16.6156 14.0842 16.6992L14.6742 17.1334V5.77725H9.23424C8.75234 5.77776 8.29032 5.96942 7.94957 6.31018C7.60881 6.65093 7.41715 7.11295 7.41664 7.59485V17.1629L8.08864 16.6893C8.19679 16.6133 8.32579 16.5728 8.45792 16.5731Z" fill="#202020"/>
<path d="M17.7053 10.9862H15.3155C15.1458 10.9862 14.983 10.9188 14.863 10.7988C14.743 10.6787 14.6755 10.516 14.6755 10.3462C14.6755 10.1765 14.743 10.0137 14.863 9.89366C14.983 9.77364 15.1458 9.70621 15.3155 9.70621H17.7053C17.8193 9.70613 17.9286 9.66083 18.0092 9.58026C18.0898 9.4997 18.1352 9.39043 18.1354 9.27645V7.13245C18.1349 6.77282 17.9919 6.42804 17.7376 6.17374C17.4833 5.91945 17.1385 5.7764 16.7789 5.77597H15.3155C15.1458 5.77597 14.983 5.70854 14.863 5.58852C14.743 5.4685 14.6755 5.30571 14.6755 5.13597C14.6755 4.96623 14.743 4.80345 14.863 4.68342C14.983 4.5634 15.1458 4.49597 15.3155 4.49597H16.7789C17.4779 4.49673 18.148 4.77475 18.6423 5.26902C19.1366 5.76329 19.4146 6.43345 19.4154 7.13245V9.27645C19.4149 9.72981 19.2345 10.1644 18.9139 10.485C18.5933 10.8055 18.1586 10.9858 17.7053 10.9862ZM12.832 10.4441H9.5088C9.33907 10.4441 9.17628 10.3767 9.05626 10.2567C8.93623 10.1367 8.8688 9.97387 8.8688 9.80413C8.8688 9.63439 8.93623 9.47161 9.05626 9.35158C9.17628 9.23156 9.33907 9.16413 9.5088 9.16413H12.832C13.0017 9.16413 13.1645 9.23156 13.2846 9.35158C13.4046 9.47161 13.472 9.63439 13.472 9.80413C13.472 9.97387 13.4046 10.1367 13.2846 10.2567C13.1645 10.3767 13.0017 10.4441 12.832 10.4441Z" fill="#202020"/>
<path d="M11.1702 12.1059C11.0005 12.1059 10.8377 12.0385 10.7177 11.9185C10.5977 11.7985 10.5302 11.6357 10.5302 11.4659V8.14275C10.5302 7.97301 10.5977 7.81022 10.7177 7.6902C10.8377 7.57017 11.0005 7.50275 11.1702 7.50275C11.34 7.50275 11.5028 7.57017 11.6228 7.6902C11.7428 7.81022 11.8102 7.97301 11.8102 8.14275V11.4659C11.8102 11.6357 11.7428 11.7985 11.6228 11.9185C11.5028 12.0385 11.34 12.1059 11.1702 12.1059Z" fill="#202020"/>
</svg>
