<svg width="24" height="24" viewBox="0 0 24 24" fill="none" xmlns="http://www.w3.org/2000/svg">
<path d="M17.032 20.4556H6.96799C6.0602 20.4546 5.18988 20.0935 4.54798 19.4516C3.90608 18.8097 3.54501 17.9394 3.54399 17.0316V6.96795C3.54501 6.06016 3.90608 5.18984 4.54798 4.54793C5.18988 3.90603 6.0602 3.54496 6.96799 3.54395H17.032C17.9398 3.54496 18.8101 3.90603 19.452 4.54793C20.0939 5.18984 20.455 6.06016 20.456 6.96795V17.0319C20.4549 17.9397 20.0938 18.8099 19.4519 19.4517C18.81 20.0936 17.9397 20.4546 17.032 20.4556ZM6.96799 4.82427C6.39952 4.82477 5.85448 5.05082 5.45252 5.45279C5.05055 5.85476 4.8245 6.3998 4.82399 6.96826V17.0323C4.8245 17.6007 5.05055 18.1458 5.45252 18.5477C5.85448 18.9497 6.39952 19.1758 6.96799 19.1763H17.032C17.6005 19.1758 18.1455 18.9497 18.5475 18.5477C18.9494 18.1458 19.1755 17.6007 19.176 17.0323V6.96795C19.1755 6.39948 18.9494 5.85444 18.5475 5.45247C18.1455 5.0505 17.6005 4.82445 17.032 4.82395L6.96799 4.82427Z" fill="#202020"/>
<path d="M12 17.3731C11.8703 17.3731 11.7436 17.3338 11.6368 17.2602L9.88383 16.0522L7.59743 17.2682C7.49995 17.3202 7.39065 17.3461 7.28017 17.3434C7.16969 17.3407 7.06181 17.3094 6.96701 17.2526C6.87222 17.1958 6.79375 17.1154 6.73925 17.0193C6.68474 16.9231 6.65606 16.8145 6.65599 16.704V8.97185C6.65641 8.35778 6.90054 7.76898 7.33475 7.33477C7.76896 6.90056 8.35776 6.65643 8.97183 6.65601H15.0282C15.6422 6.65643 16.231 6.90056 16.6652 7.33477C17.0994 7.76898 17.3436 8.35778 17.344 8.97185V16.704C17.3437 16.8119 17.3161 16.9181 17.2638 17.0125C17.2115 17.1069 17.1362 17.1866 17.0448 17.2441C16.9534 17.3015 16.849 17.335 16.7413 17.3413C16.6335 17.3475 16.5259 17.3265 16.4285 17.28L13.9728 16.1152L12.3709 17.2547C12.2626 17.3319 12.1329 17.3733 12 17.3731ZM9.92639 14.6643C10.0562 14.6643 10.1829 14.7038 10.2896 14.7776L11.9942 15.952L13.536 14.8544C13.6288 14.7883 13.7376 14.7482 13.8512 14.7383C13.9647 14.7283 14.0788 14.7489 14.1817 14.7978L16.064 15.6909V8.97089C16.0637 8.69636 15.9544 8.43318 15.7602 8.23915C15.566 8.04512 15.3027 7.93609 15.0282 7.93601H8.97183C8.69713 7.93609 8.43371 8.04525 8.23947 8.23949C8.04524 8.43373 7.93608 8.69715 7.93599 8.97185V15.6378L9.62495 14.7395C9.71773 14.6901 9.82126 14.6643 9.92639 14.6643Z" fill="#202020"/>
</svg>
