<svg width="24" height="24" viewBox="0 0 24 24" fill="none" xmlns="http://www.w3.org/2000/svg">
<path d="M16.0067 19.936C15.8703 19.9361 15.7374 19.8925 15.6275 19.8115L14.4144 18.9184L13.4803 19.6681C13.3696 19.7571 13.2325 19.8067 13.0905 19.8091C12.9485 19.8115 12.8097 19.7667 12.696 19.6816L11.7146 18.9456L10.8272 19.6889C10.7109 19.7864 10.5639 19.8393 10.4122 19.8384C10.2605 19.8375 10.1141 19.7827 9.99904 19.6838L9.1104 18.9216L7.8368 19.8176C7.74106 19.885 7.62866 19.9249 7.51182 19.9329C7.39499 19.9409 7.2782 19.9167 7.17417 19.8629C7.07015 19.8091 6.98288 19.7278 6.92187 19.6278C6.86086 19.5279 6.82844 19.4131 6.82816 19.296V8.49311C6.82909 7.6718 7.15578 6.88441 7.73656 6.30369C8.31734 5.72297 9.10477 5.39635 9.92608 5.39551H16.0061C16.1758 5.39551 16.3386 5.46294 16.4586 5.58296C16.5786 5.70298 16.6461 5.86577 16.6461 6.03551V19.296C16.6461 19.4657 16.5786 19.6285 16.4586 19.7485C16.3386 19.8686 16.1758 19.936 16.0061 19.936H16.0067ZM9.14912 17.472C9.30181 17.472 9.44942 17.5269 9.56512 17.6265L10.4202 18.3606L11.2803 17.6403C11.3909 17.5476 11.5296 17.4951 11.6738 17.4911C11.818 17.4872 11.9594 17.5321 12.0749 17.6185L13.065 18.36L13.9955 17.6128C14.1056 17.5244 14.2417 17.4749 14.3828 17.472C14.5239 17.469 14.662 17.5128 14.7757 17.5965L15.3658 18.0307V6.67551H9.92576C9.44382 6.67602 8.98177 6.86767 8.64097 7.20841C8.30016 7.54916 8.10843 8.01118 8.10784 8.49311V18.0611L8.77984 17.5875C8.88801 17.5117 9.01703 17.4713 9.14912 17.472Z" fill="#202020"/>
<path d="M17.8029 11.8845H16.0067C15.837 11.8845 15.6742 11.817 15.5542 11.697C15.4342 11.577 15.3667 11.4142 15.3667 11.2445C15.3667 11.0747 15.4342 10.9119 15.5542 10.7919C15.6742 10.6719 15.837 10.6045 16.0067 10.6045H17.8029C18.0745 10.6045 18.3349 10.4966 18.527 10.3045C18.719 10.1125 18.8269 9.85205 18.8269 9.58047V8.03199C18.8265 7.6723 18.6834 7.32747 18.429 7.07317C18.1746 6.81886 17.8298 6.67585 17.4701 6.67551H16.0067C15.837 6.67551 15.6742 6.60808 15.5542 6.48806C15.4342 6.36803 15.3667 6.20525 15.3667 6.03551C15.3667 5.86577 15.4342 5.70298 15.5542 5.58296C15.6742 5.46294 15.837 5.39551 16.0067 5.39551H17.4698C18.1688 5.39627 18.839 5.67428 19.3333 6.16854C19.8276 6.6628 20.1057 7.33295 20.1066 8.03199V9.58111C20.1058 10.1918 19.8628 10.7773 19.431 11.2091C18.9991 11.6409 18.4136 11.8838 17.8029 11.8845Z" fill="#202020"/>
</svg>
