<svg width="24" height="24" viewBox="0 0 24 24" fill="none" xmlns="http://www.w3.org/2000/svg">
<g clip-path="url(#clip0_3_223)">
<path fill-rule="evenodd" clip-rule="evenodd" d="M6 10.875C6 12.1176 7.00736 13.125 8.25 13.125H13.125C14.0987 13.125 14.9279 12.5065 15.2412 11.641L15.5238 11.8832C16.4968 12.7172 18 12.0259 18 10.7443V7.25565C18 5.97413 16.4968 5.28277 15.5238 6.11677L15.2412 6.35899C14.9279 5.49345 14.0986 4.875 13.125 4.875H8.25C7.00736 4.875 6 5.88236 6 7.125V10.875ZM15.375 8.56489V9.43511C15.375 9.65404 15.4707 9.86205 15.6369 10.0045L16.5 10.7443V7.25565L15.6369 7.99545C15.4707 8.13795 15.375 8.34596 15.375 8.56489ZM13.875 7.125C13.875 6.71078 13.5392 6.375 13.125 6.375H8.25C7.83578 6.375 7.5 6.71078 7.5 7.125V10.875C7.5 11.2892 7.83578 11.625 8.25 11.625H13.125C13.5392 11.625 13.875 11.2892 13.875 10.875V7.125Z" fill="#202020"/>
<path d="M16.5 18.375C16.0858 18.375 15.75 18.7108 15.75 19.125C15.75 19.5392 16.0858 19.875 16.5 19.875H18C18.4142 19.875 18.75 19.5392 18.75 19.125C18.75 18.7108 18.4142 18.375 18 18.375H16.5ZM5.25 19.125C5.25 18.7108 5.58578 18.375 6 18.375H6.375C6.78922 18.375 7.125 18.7108 7.125 19.125C7.125 19.5392 6.78922 19.875 6.375 19.875H6C5.58578 19.875 5.25 19.5392 5.25 19.125ZM8.625 18.375C8.21077 18.375 7.875 18.7108 7.875 19.125C7.875 19.5392 8.21077 19.875 8.625 19.875H9C9.41423 19.875 9.75 19.5392 9.75 19.125C9.75 18.7108 9.41423 18.375 9 18.375H8.625Z" fill="#202020"/>
<path fill-rule="evenodd" clip-rule="evenodd" d="M0.75 17.25C0.75 20.5637 3.43629 23.25 6.75 23.25H17.25C20.5637 23.25 23.25 20.5637 23.25 17.25V6.75C23.25 3.43629 20.5637 0.75 17.25 0.75H6.75C3.43629 0.75 0.75 3.43629 0.75 6.75V17.25ZM21.75 6.75V15.375H2.25V6.75C2.25 4.26472 4.26472 2.25 6.75 2.25H17.25C19.7353 2.25 21.75 4.26472 21.75 6.75ZM21.75 16.875H2.25V17.25C2.25 19.7353 4.26472 21.75 6.75 21.75H17.25C19.7353 21.75 21.75 19.7353 21.75 17.25V16.875Z" fill="#202020"/>
</g>
<defs>
<clipPath id="clip0_3_223">
<rect width="24" height="24" fill="white"/>
</clipPath>
</defs>
</svg>
