<svg width="24" height="24" viewBox="0 0 24 24" fill="none" xmlns="http://www.w3.org/2000/svg">
<path d="M12.6505 20.0067C10.7983 20.0066 9.00344 19.3642 7.57173 18.1891C6.14001 17.014 5.16004 15.3788 4.79879 13.5621C4.43753 11.7455 4.71734 9.85979 5.59054 8.22631C6.46374 6.59283 7.87631 5.31265 9.58756 4.6039C11.2988 3.89514 13.2029 3.80165 14.9753 4.33936C16.7478 4.87708 18.279 6.01272 19.308 7.5528C20.337 9.09288 20.8002 10.9421 20.6186 12.7854C20.4371 14.6287 19.622 16.352 18.3123 17.6618C17.5705 18.4075 16.6881 18.9988 15.7163 19.4013C14.7444 19.8038 13.7024 20.0096 12.6505 20.0067ZM12.6505 5.27329C8.94142 5.27329 5.92382 8.29089 5.92382 12C5.92382 15.7091 8.94142 18.7267 12.6505 18.7267C16.3597 18.7267 19.3773 15.7091 19.3773 12C19.3773 8.29089 16.3597 5.27329 12.6505 5.27329Z" fill="#202020"/>
<path d="M12.6505 16.0749C11.8446 16.0748 11.0568 15.8358 10.3867 15.388C9.71663 14.9402 9.19439 14.3038 8.88602 13.5592C8.57765 12.8146 8.497 11.9953 8.65427 11.2048C8.81153 10.4144 9.19965 9.68835 9.76955 9.1185C10.3394 8.54865 11.0655 8.16059 11.856 8.00339C12.6464 7.84618 13.4657 7.9269 14.2103 8.23532C14.9548 8.54375 15.5912 9.06604 16.039 9.73614C16.4867 10.4062 16.7257 11.1941 16.7257 12C16.7245 13.0804 16.2948 14.1162 15.5308 14.8802C14.7668 15.6441 13.7309 16.0738 12.6505 16.0749ZM12.6505 9.20511C12.0977 9.20518 11.5574 9.36915 11.0978 9.67629C10.6383 9.98343 10.2801 10.42 10.0686 10.9307C9.8571 11.4414 9.80179 12.0033 9.90967 12.5454C10.0175 13.0876 10.2838 13.5855 10.6746 13.9764C11.0655 14.3672 11.5635 14.6334 12.1057 14.7412C12.6478 14.849 13.2098 14.7936 13.7204 14.5821C14.2311 14.3705 14.6676 14.0123 14.9747 13.5527C15.2818 13.0931 15.4457 12.5528 15.4457 12C15.4448 11.2589 15.1501 10.5485 14.626 10.0245C14.102 9.50057 13.3915 9.20587 12.6505 9.20511Z" fill="#202020"/>
</svg>
