<svg width="24" height="24" viewBox="0 0 24 24" fill="none" xmlns="http://www.w3.org/2000/svg">
<path d="M12.962 10.5302L11.7274 8.95607L13.2714 7.74487" stroke="#202020" stroke-width="1.30573" stroke-linecap="round" stroke-linejoin="round"/>
<path d="M12 9.00903C12.7727 9.00894 13.5213 9.2781 14.117 9.77023C14.7127 10.2624 15.1183 10.9467 15.264 11.7055C15.4097 12.4643 15.2865 13.2502 14.9154 13.928C14.5444 14.6058 13.9488 15.1331 13.231 15.4192C12.5132 15.7053 11.7182 15.7324 10.9826 15.4957C10.2471 15.2591 9.61698 14.7735 9.20072 14.1225C8.78445 13.4715 8.60804 12.6959 8.70182 11.9289C8.79561 11.1619 9.15373 10.4516 9.7146 9.92007" stroke="#202020" stroke-width="1.30573" stroke-linecap="round" stroke-linejoin="round"/>
<path d="M6.96832 19.7085H17.032C18.5694 19.7085 19.8157 18.4622 19.8157 16.9248V6.86114C19.8157 5.32375 18.5694 4.07745 17.032 4.07745L6.96832 4.07745C5.43093 4.07745 4.18464 5.32375 4.18464 6.86114L4.18464 16.9248C4.18464 18.4622 5.43093 19.7085 6.96832 19.7085Z" stroke="#202020" stroke-width="1.30573" stroke-linecap="round" stroke-linejoin="round"/>
</svg>
