<svg width="24" height="24" viewBox="0 0 24 24" fill="none" xmlns="http://www.w3.org/2000/svg">
<path d="M8.15527 15.8422V13.5574H10.3966" stroke="#202020" stroke-width="1.30573" stroke-linecap="round" stroke-linejoin="round"/>
<path d="M15.336 7.8125L15.2554 10.096L13.0154 10.0167" stroke="#202020" stroke-width="1.30573" stroke-linecap="round" stroke-linejoin="round"/>
<path d="M7.93604 11.8489C7.93646 11.0132 8.21266 10.201 8.72179 9.53821C9.23093 8.87545 9.94455 8.39924 10.7519 8.18343C11.5593 7.96763 12.4154 8.02429 13.1873 8.34464C13.9592 8.66498 14.6038 9.2311 15.0212 9.95518M15.5264 11.8489C15.5264 12.6987 15.2412 13.5239 14.7165 14.1924C14.1919 14.8609 13.4581 15.334 12.6326 15.536C11.8072 15.738 10.9379 15.6572 10.1638 15.3065C9.38973 14.9559 8.75571 14.3556 8.36324 13.6019" stroke="#202020" stroke-width="1.30573" stroke-linecap="round" stroke-linejoin="round"/>
<path d="M11.7699 20.2673C16.3357 20.2673 20.0371 16.566 20.0371 12.0001C20.0371 7.43426 16.3357 3.73291 11.7699 3.73291C7.20404 3.73291 3.50269 7.43426 3.50269 12.0001C3.50269 16.566 7.20404 20.2673 11.7699 20.2673Z" stroke="#202020" stroke-width="1.30573" stroke-linecap="round" stroke-linejoin="round"/>
</svg>
