<svg width="24" height="24" viewBox="0 0 24 24" fill="none" xmlns="http://www.w3.org/2000/svg">
<path d="M11.7223 10.5302L12.9568 8.95607L11.4128 7.74487" stroke="#202020" stroke-width="1.30573" stroke-linecap="round" stroke-linejoin="round"/>
<path d="M12.6843 9.00903C11.9114 9.00888 11.1626 9.27805 10.5668 9.77025C9.97091 10.2625 9.56519 10.9469 9.41941 11.7059C9.27363 12.4649 9.3969 13.251 9.76801 13.9289C10.1391 14.6068 10.7349 15.1343 11.4528 15.4204C12.1707 15.7066 12.9659 15.7337 13.7017 15.497C14.4374 15.2602 15.0676 14.7745 15.4839 14.1234C15.9003 13.4723 16.0767 12.6964 15.9828 11.9292C15.889 11.1621 15.5307 10.4516 14.9697 9.92007" stroke="#202020" stroke-width="1.30573" stroke-linecap="round" stroke-linejoin="round"/>
<path d="M17.7163 4.07764H7.65258C6.11519 4.07764 4.8689 5.32393 4.8689 6.86132V16.925C4.8689 18.4624 6.11519 19.7087 7.65258 19.7087H17.7163C19.2536 19.7087 20.4999 18.4624 20.4999 16.925V6.86132C20.4999 5.32393 19.2536 4.07764 17.7163 4.07764Z" stroke="#202020" stroke-width="1.30573" stroke-linecap="round" stroke-linejoin="round"/>
</svg>
