<svg width="24" height="24" viewBox="0 0 24 24" fill="none" xmlns="http://www.w3.org/2000/svg">
<path d="M9.08601 18.0387C5.75801 18.0387 3.04761 15.3296 3.04761 12C3.04761 8.6704 5.75641 5.96128 9.08601 5.96128H12.0073L11.4409 5.30176C11.3861 5.23799 11.3445 5.16406 11.3183 5.08419C11.2921 5.00432 11.2819 4.92007 11.2883 4.83626C11.2947 4.75245 11.3175 4.67072 11.3554 4.59573C11.3934 4.52074 11.4458 4.45396 11.5095 4.3992C11.5733 4.34444 11.6472 4.30279 11.7271 4.2766C11.807 4.25042 11.8912 4.24022 11.975 4.24659C12.0588 4.25297 12.1406 4.27579 12.2156 4.31375C12.2906 4.35171 12.3573 4.40407 12.4121 4.46784L13.886 6.18464C13.9655 6.27757 14.0167 6.39133 14.0335 6.51246C14.0504 6.63358 14.0322 6.757 13.9811 6.8681C13.93 6.9792 13.8481 7.07333 13.7452 7.13936C13.6422 7.20538 13.5225 7.24053 13.4002 7.24064H9.08601C6.46201 7.24064 4.32761 9.37536 4.32761 11.9994C4.32761 14.6234 6.46201 16.7581 9.08601 16.7581C9.25575 16.7581 9.41853 16.8255 9.53856 16.9455C9.65858 17.0656 9.72601 17.2283 9.72601 17.3981C9.72601 17.5678 9.65858 17.7306 9.53856 17.8506C9.41853 17.9707 9.25575 18.0381 9.08601 18.0381V18.0387Z" fill="#202020"/>
<path d="M12.2239 19.7552C12.1322 19.7554 12.0414 19.7358 11.9579 19.6977C11.8744 19.6596 11.8001 19.6039 11.7401 19.5344L10.2521 17.8179C10.1717 17.7252 10.1197 17.6113 10.1022 17.4899C10.0848 17.3685 10.1025 17.2446 10.1535 17.1329C10.2044 17.0213 10.2864 16.9267 10.3896 16.8604C10.4928 16.794 10.6129 16.7587 10.7356 16.7587H14.9139C17.5379 16.7587 19.6723 14.624 19.6723 12C19.6723 9.37599 17.5379 7.24127 14.9139 7.24127C14.7441 7.24127 14.5813 7.17384 14.4613 7.05382C14.3413 6.9338 14.2739 6.77101 14.2739 6.60127C14.2739 6.43153 14.3413 6.26875 14.4613 6.14872C14.5813 6.0287 14.7441 5.96127 14.9139 5.96127C18.2435 5.96127 20.9523 8.67039 20.9523 12C20.9523 15.3296 18.2435 18.0387 14.9139 18.0387H12.1366L12.7065 18.696C12.7868 18.7887 12.8389 18.9025 12.8564 19.0239C12.8739 19.1453 12.8561 19.2692 12.8052 19.3808C12.7543 19.4924 12.6723 19.587 12.5692 19.6534C12.466 19.7198 12.346 19.7551 12.2233 19.7552H12.2239Z" fill="#202020"/>
</svg>
