<svg width="24" height="24" viewBox="0 0 24 24" fill="none" xmlns="http://www.w3.org/2000/svg">
<path d="M12.0001 20.2672C16.566 20.2672 20.2673 16.5658 20.2673 12C20.2673 7.43414 16.566 3.73279 12.0001 3.73279C7.43426 3.73279 3.73291 7.43414 3.73291 12C3.73291 16.5658 7.43426 20.2672 12.0001 20.2672Z" stroke="#202020" stroke-width="1.30573" stroke-linecap="round" stroke-linejoin="round"/>
<path d="M16.4444 13.1199V10.9119C16.4444 10.1356 15.8565 9.50586 15.1324 9.50586H9.45782M7.59766 10.9119V13.1199C7.59766 13.8963 8.1855 14.5257 8.90966 14.5257H15.1305" stroke="#202020" stroke-width="1.30573" stroke-linecap="round" stroke-linejoin="round"/>
<path d="M10.2868 8.36218L9.02246 9.51386L10.2484 10.7398" stroke="#202020" stroke-width="1.30573" stroke-linecap="round" stroke-linejoin="round"/>
<path d="M13.9128 15.7155L15.1772 14.5642L13.9512 13.3383" stroke="#202020" stroke-width="1.30573" stroke-linecap="round" stroke-linejoin="round"/>
</svg>
