<svg width="24" height="24" viewBox="0 0 24 24" fill="none" xmlns="http://www.w3.org/2000/svg">
<path d="M19.275 12.99L18.27 12.3825C17.8394 12.1233 17.3344 12.0156 16.8356 12.0768C16.3367 12.138 15.8727 12.3644 15.5175 12.72L14.985 13.26C14.8722 13.373 14.7262 13.447 14.5684 13.4713C14.4106 13.4956 14.2491 13.4689 14.1075 13.395C12.6334 12.5807 11.4193 11.3666 10.605 9.89251C10.5276 9.74925 10.4989 9.58469 10.5232 9.42367C10.5476 9.26266 10.6237 9.11395 10.74 9.00001L11.28 8.46751C11.6356 8.11232 11.862 7.6483 11.9232 7.14943C11.9844 6.65057 11.8768 6.14559 11.6175 5.71501L11.01 4.72501C10.7192 4.23379 10.3187 3.81643 9.83995 3.50549C9.36119 3.19456 8.81705 2.99846 8.25001 2.93251C7.685 2.86392 7.11179 2.92485 6.57382 3.11067C6.03585 3.29649 5.54724 3.60233 5.14501 4.00501L4.87501 4.27501C3.73309 5.43767 3.04488 6.97056 2.93484 8.5965C2.82479 10.2224 3.30017 11.8341 4.27501 13.14C6.1457 15.637 8.36303 17.8543 10.86 19.725C12.1654 20.7013 13.7773 21.1776 15.4037 21.0676C17.03 20.9575 18.5631 20.2683 19.725 19.125L19.995 18.855C20.3963 18.4501 20.7 17.9591 20.883 17.4193C21.0661 16.8794 21.1236 16.3049 21.0513 15.7395C20.979 15.174 20.7788 14.6325 20.4658 14.1561C20.1528 13.6797 19.7353 13.2809 19.245 12.99H19.275ZM18.9375 17.79L18.6675 18.06C17.7621 18.9509 16.5673 19.4877 15.3 19.573C14.0326 19.6583 12.7767 19.2865 11.76 18.525C9.37573 16.7408 7.25925 14.6243 5.47501 12.24C4.71352 11.2234 4.34171 9.96741 4.42702 8.70006C4.51234 7.43271 5.04913 6.23793 5.94001 5.33251L6.20251 5.06251C6.62528 4.64318 7.19705 4.40854 7.79251 4.41001C7.88486 4.40256 7.97766 4.40256 8.07001 4.41001C8.41496 4.44937 8.74612 4.56803 9.03757 4.75669C9.32903 4.94536 9.57287 5.19891 9.75001 5.49751L10.35 6.50251C10.4358 6.64578 10.4713 6.81359 10.4509 6.97933C10.4306 7.14508 10.3554 7.29928 10.2375 7.41751L9.70501 7.95001C9.36009 8.29307 9.13566 8.73869 9.06535 9.22006C8.99504 9.70143 9.08263 10.1926 9.31501 10.62C10.2596 12.3446 11.6779 13.7629 13.4025 14.7075C13.8299 14.9399 14.3211 15.0275 14.8025 14.9572C15.2838 14.8869 15.7294 14.6624 16.0725 14.3175L16.605 13.785C16.7232 13.6671 16.8774 13.592 17.0432 13.5716C17.2089 13.5512 17.3767 13.5867 17.52 13.6725L18.525 14.2725C18.8178 14.4484 19.0668 14.6886 19.253 14.9749C19.4391 15.2613 19.5577 15.5863 19.5996 15.9253C19.6415 16.2642 19.6057 16.6083 19.4949 16.9314C19.3841 17.2545 19.2012 17.5481 18.96 17.79H18.9375Z" fill="#202020"/>
<path d="M18 1.5C17.11 1.5 16.24 1.76392 15.4999 2.25839C14.7599 2.75285 14.1831 3.45566 13.8425 4.27792C13.5019 5.10019 13.4128 6.00499 13.5865 6.87791C13.7601 7.75082 14.1887 8.55264 14.818 9.18198C15.4474 9.81132 16.2492 10.2399 17.1221 10.4135C17.995 10.5872 18.8998 10.4981 19.7221 10.1575C20.5443 9.81686 21.2471 9.24009 21.7416 8.50007C22.2361 7.76005 22.5 6.89002 22.5 6C22.5 4.80653 22.0259 3.66193 21.182 2.81802C20.3381 1.97411 19.1935 1.5 18 1.5ZM18 9C17.4067 9 16.8266 8.82405 16.3333 8.49441C15.8399 8.16476 15.4554 7.69623 15.2284 7.14805C15.0013 6.59987 14.9419 5.99667 15.0576 5.41473C15.1734 4.83279 15.4591 4.29824 15.8787 3.87868C16.2982 3.45912 16.8328 3.1734 17.4147 3.05764C17.9967 2.94189 18.5999 3.0013 19.1481 3.22836C19.6962 3.45542 20.1648 3.83994 20.4944 4.33329C20.8241 4.82664 21 5.40666 21 6C21 6.79565 20.6839 7.55871 20.1213 8.12132C19.5587 8.68393 18.7957 9 18 9Z" fill="#202020"/>
<path d="M18 6.5025C17.8011 6.5025 17.6103 6.58152 17.4697 6.72217C17.329 6.86282 17.25 7.05359 17.25 7.2525C17.25 7.45141 17.329 7.64218 17.4697 7.78283C17.6103 7.92348 17.8011 8.0025 18 8.0025C18.1989 8.0025 18.3897 7.92348 18.5303 7.78283C18.671 7.64218 18.75 7.45141 18.75 7.2525C18.75 7.05359 18.671 6.86282 18.5303 6.72217C18.3897 6.58152 18.1989 6.5025 18 6.5025ZM18 6C18.1989 6 18.3897 5.92098 18.5303 5.78033C18.671 5.63968 18.75 5.44891 18.75 5.25V4.5C18.75 4.30109 18.671 4.11032 18.5303 3.96967C18.3897 3.82902 18.1989 3.75 18 3.75C17.8011 3.75 17.6103 3.82902 17.4697 3.96967C17.329 4.11032 17.25 4.30109 17.25 4.5V5.25C17.25 5.44891 17.329 5.63968 17.4697 5.78033C17.6103 5.92098 17.8011 6 18 6Z" fill="#202020"/>
</svg>
