<svg width="24" height="24" viewBox="0 0 24 24" fill="none" xmlns="http://www.w3.org/2000/svg">
<path d="M18.4855 19.4029H5.51464C5.1996 19.4065 4.88697 19.3476 4.59486 19.2296C4.30274 19.1115 4.03695 18.9367 3.81289 18.7152C3.58882 18.4938 3.41093 18.23 3.28952 17.9393C3.16811 17.6486 3.10559 17.3366 3.10559 17.0216C3.10559 16.7065 3.16811 16.3946 3.28952 16.1039C3.41093 15.8131 3.58882 15.5494 3.81289 15.3279C4.03695 15.1064 4.30274 14.9316 4.59486 14.8136C4.88697 14.6955 5.1996 14.6366 5.51464 14.6403H18.4855C18.8006 14.6366 19.1132 14.6955 19.4053 14.8136C19.6974 14.9316 19.9632 15.1064 20.1873 15.3279C20.4113 15.5494 20.5892 15.8131 20.7106 16.1039C20.832 16.3946 20.8946 16.7065 20.8946 17.0216C20.8946 17.3366 20.832 17.6486 20.7106 17.9393C20.5892 18.23 20.4113 18.4938 20.1873 18.7152C19.9632 18.9367 19.6974 19.1115 19.4053 19.2296C19.1132 19.3476 18.8006 19.4065 18.4855 19.4029ZM5.51464 15.9203C5.36843 15.9178 5.2232 15.9444 5.0874 15.9987C4.95161 16.0529 4.82797 16.1336 4.72369 16.2361C4.61942 16.3386 4.5366 16.4609 4.48007 16.5957C4.42354 16.7306 4.39442 16.8754 4.39442 17.0216C4.39442 17.1678 4.42354 17.3126 4.48007 17.4474C4.5366 17.5823 4.61942 17.7045 4.72369 17.807C4.82797 17.9095 4.95161 17.9903 5.0874 18.0445C5.2232 18.0987 5.36843 18.1253 5.51464 18.1229H18.4855C18.6317 18.1253 18.777 18.0987 18.9128 18.0445C19.0485 17.9903 19.1722 17.9095 19.2765 17.807C19.3807 17.7045 19.4635 17.5823 19.5201 17.4474C19.5766 17.3126 19.6057 17.1678 19.6057 17.0216C19.6057 16.8754 19.5766 16.7306 19.5201 16.5957C19.4635 16.4609 19.3807 16.3386 19.2765 16.2361C19.1722 16.1336 19.0485 16.0529 18.9128 15.9987C18.777 15.9444 18.6317 15.9178 18.4855 15.9203H5.51464Z" fill="#202020"/>
<path d="M6.52517 15.8864C6.40134 15.8864 6.28016 15.8505 6.17633 15.7831C6.07251 15.7156 5.99048 15.6194 5.94021 15.5063C5.5638 14.6602 5.37025 13.7443 5.37221 12.8183C5.37221 9.16355 8.34533 6.19043 12 6.19043C15.6548 6.19043 18.6279 9.16355 18.6279 12.8183C18.6279 13.7418 18.4397 14.6909 18.098 15.4912C18.0488 15.6065 17.9668 15.7048 17.8623 15.7739C17.7577 15.843 17.6351 15.8799 17.5098 15.88L6.52549 15.8867L6.52517 15.8864ZM12 7.47011C9.05125 7.47011 6.65221 9.87011 6.65221 12.8179C6.65096 13.4271 6.75444 14.032 6.95813 14.6061L17.0663 14.6C17.2512 14.024 17.3462 13.4229 17.3479 12.8179C17.3479 9.86915 14.9488 7.47011 12 7.47011Z" fill="#202020"/>
<path d="M13.5485 7.56926C13.3787 7.56926 13.216 7.50183 13.0959 7.38181C12.9759 7.26178 12.9085 7.099 12.9085 6.92926V6.00318C12.9085 5.76223 12.8128 5.53116 12.6424 5.36079C12.472 5.19041 12.2409 5.0947 12 5.0947C11.7591 5.0947 11.528 5.19041 11.3576 5.36079C11.1872 5.53116 11.0915 5.76223 11.0915 6.00318V6.92926C11.0915 7.099 11.0241 7.26178 10.9041 7.38181C10.784 7.50183 10.6213 7.56926 10.4515 7.56926C10.2818 7.56926 10.119 7.50183 9.99898 7.38181C9.87895 7.26178 9.81152 7.099 9.81152 6.92926V6.00318C9.81152 5.71578 9.86813 5.4312 9.97811 5.16568C10.0881 4.90016 10.2493 4.65891 10.4525 4.45569C10.6557 4.25247 10.897 4.09127 11.1625 3.98129C11.428 3.8713 11.7126 3.8147 12 3.8147C12.2874 3.8147 12.572 3.8713 12.8375 3.98129C13.103 4.09127 13.3443 4.25247 13.5475 4.45569C13.7507 4.65891 13.9119 4.90016 14.0219 5.16568C14.1319 5.4312 14.1885 5.71578 14.1885 6.00318V6.92926C14.1885 7.099 14.1211 7.26178 14.001 7.38181C13.881 7.50183 13.7182 7.56926 13.5485 7.56926Z" fill="#202020"/>
</svg>
