<svg width="24" height="24" viewBox="0 0 24 24" fill="none" xmlns="http://www.w3.org/2000/svg">
<path d="M18.4854 19.4029H5.51451C5.19948 19.4065 4.88685 19.3476 4.59473 19.2296C4.30262 19.1115 4.03683 18.9367 3.81276 18.7152C3.5887 18.4938 3.41081 18.23 3.2894 17.9393C3.16798 17.6486 3.10547 17.3366 3.10547 17.0216C3.10547 16.7065 3.16798 16.3946 3.2894 16.1039C3.41081 15.8131 3.5887 15.5494 3.81276 15.3279C4.03683 15.1064 4.30262 14.9316 4.59473 14.8136C4.88685 14.6955 5.19948 14.6366 5.51451 14.6403H18.4854C18.8004 14.6366 19.1131 14.6955 19.4052 14.8136C19.6973 14.9316 19.9631 15.1064 20.1871 15.3279C20.4112 15.5494 20.5891 15.8131 20.7105 16.1039C20.8319 16.3946 20.8944 16.7065 20.8944 17.0216C20.8944 17.3366 20.8319 17.6486 20.7105 17.9393C20.5891 18.23 20.4112 18.4938 20.1871 18.7152C19.9631 18.9367 19.6973 19.1115 19.4052 19.2296C19.1131 19.3476 18.8004 19.4065 18.4854 19.4029ZM5.51451 15.9203C5.36831 15.9178 5.22308 15.9444 5.08728 15.9987C4.95148 16.0529 4.82784 16.1336 4.72357 16.2361C4.6193 16.3386 4.53648 16.4609 4.47995 16.5957C4.42342 16.7306 4.3943 16.8754 4.3943 17.0216C4.3943 17.1678 4.42342 17.3126 4.47995 17.4474C4.53648 17.5823 4.6193 17.7045 4.72357 17.807C4.82784 17.9095 4.95148 17.9903 5.08728 18.0445C5.22308 18.0987 5.36831 18.1253 5.51451 18.1229H18.4854C18.6316 18.1253 18.7768 18.0987 18.9126 18.0445C19.0484 17.9903 19.1721 17.9095 19.2763 17.807C19.3806 17.7045 19.4634 17.5823 19.52 17.4474C19.5765 17.3126 19.6056 17.1678 19.6056 17.0216C19.6056 16.8754 19.5765 16.7306 19.52 16.5957C19.4634 16.4609 19.3806 16.3386 19.2763 16.2361C19.1721 16.1336 19.0484 16.0529 18.9126 15.9987C18.7768 15.9444 18.6316 15.9178 18.4854 15.9203H5.51451Z" fill="#202020"/>
<path d="M6.52504 15.8864C6.40122 15.8864 6.28004 15.8505 6.17621 15.7831C6.07238 15.7156 5.99036 15.6194 5.94009 15.5063C5.56368 14.6602 5.37013 13.7443 5.37209 12.8183C5.37209 9.16355 8.34521 6.19043 11.9999 6.19043C15.6546 6.19043 18.6278 9.16355 18.6278 12.8183C18.6278 13.7418 18.4396 14.6909 18.0978 15.4912C18.0487 15.6065 17.9667 15.7048 17.8621 15.7739C17.7576 15.843 17.635 15.8799 17.5097 15.88L6.52536 15.8868L6.52504 15.8864ZM11.9999 7.47011C9.05113 7.47011 6.65209 9.87011 6.65209 12.818C6.65084 13.4271 6.75432 14.032 6.958 14.6061L17.0662 14.6C17.2511 14.024 17.3461 13.4229 17.3478 12.818C17.3478 9.86915 14.9487 7.47011 11.9999 7.47011Z" fill="#202020"/>
<path d="M13.5485 7.56926C13.3787 7.56926 13.216 7.50183 13.0959 7.38181C12.9759 7.26178 12.9085 7.099 12.9085 6.92926V6.00318C12.9085 5.76223 12.8128 5.53116 12.6424 5.36078C12.472 5.19041 12.2409 5.0947 12 5.0947C11.7591 5.0947 11.528 5.19041 11.3576 5.36078C11.1872 5.53116 11.0915 5.76223 11.0915 6.00318V6.92926C11.0915 7.099 11.0241 7.26178 10.9041 7.38181C10.784 7.50183 10.6213 7.56926 10.4515 7.56926C10.2818 7.56926 10.119 7.50183 9.99898 7.38181C9.87895 7.26178 9.81152 7.099 9.81152 6.92926V6.00318C9.81152 5.71578 9.86813 5.4312 9.97811 5.16568C10.0881 4.90016 10.2493 4.65891 10.4525 4.45569C10.6557 4.25247 10.897 4.09127 11.1625 3.98129C11.428 3.8713 11.7126 3.8147 12 3.8147C12.2874 3.8147 12.572 3.8713 12.8375 3.98129C13.103 4.09127 13.3443 4.25247 13.5475 4.45569C13.7507 4.65891 13.9119 4.90016 14.0219 5.16568C14.1319 5.4312 14.1885 5.71578 14.1885 6.00318V6.92926C14.1885 7.099 14.1211 7.26178 14.001 7.38181C13.881 7.50183 13.7182 7.56926 13.5485 7.56926Z" fill="#202020"/>
</svg>
