<svg width="24" height="24" viewBox="0 0 24 24" fill="none" xmlns="http://www.w3.org/2000/svg">
<path d="M14.7916 20.1555H8.11317C7.51615 20.1548 6.94378 19.9174 6.52162 19.4952C6.09947 19.0731 5.86201 18.5007 5.86133 17.9037V11.2256C5.86201 10.6286 6.09947 10.0562 6.52162 9.63405C6.94378 9.21189 7.51615 8.97443 8.11317 8.97375H14.7916C15.3886 8.97443 15.9609 9.21191 16.383 9.63407C16.8051 10.0562 17.0425 10.6286 17.0431 11.2256V17.9037C17.0425 18.5007 16.8051 19.073 16.383 19.4952C15.9609 19.9174 15.3886 20.1548 14.7916 20.1555ZM8.11317 10.2538C7.85552 10.2541 7.60853 10.3566 7.42635 10.5388C7.24417 10.721 7.14167 10.9679 7.14133 11.2256V17.9037C7.14167 18.1613 7.24417 18.4083 7.42635 18.5905C7.60853 18.7727 7.85552 18.8752 8.11317 18.8755H14.7916C15.0492 18.8752 15.2961 18.7727 15.4783 18.5905C15.6604 18.4083 15.7628 18.1613 15.7631 17.9037V11.2256C15.7628 10.968 15.6604 10.721 15.4783 10.5388C15.2961 10.3566 15.0492 10.2541 14.7916 10.2538H8.11317ZM20.5356 12.2922C20.3658 12.2922 20.203 12.2247 20.083 12.1047C19.963 11.9847 19.8956 11.8219 19.8956 11.6522C19.8956 9.42559 18.9432 7.62335 17.0648 6.29535C15.6335 5.28319 14.2034 4.94399 14.189 4.94079C14.0235 4.9026 13.88 4.80023 13.7899 4.6562C13.6999 4.51218 13.6708 4.33829 13.709 4.17279C13.7472 4.0073 13.8496 3.86375 13.9936 3.77374C14.1376 3.68372 14.3115 3.6546 14.477 3.69279C14.5455 3.70847 16.1688 4.09343 17.805 5.24927C20.0095 6.80991 21.1756 9.02399 21.1756 11.6522C21.1756 11.8219 21.1081 11.9847 20.9881 12.1047C20.8681 12.2247 20.7053 12.2922 20.5356 12.2922Z" fill="#202020"/>
<path d="M14.7334 7.83011C14.5791 7.82989 14.4301 7.77395 14.3138 7.67258C14.1975 7.57121 14.1218 7.43124 14.1005 7.27843L13.6995 4.40579C13.6879 4.32254 13.6928 4.23782 13.7139 4.15647C13.735 4.07511 13.772 3.99871 13.8226 3.93163C13.8733 3.86455 13.9366 3.8081 14.0091 3.76551C14.0816 3.72291 14.1617 3.69501 14.2449 3.68339C14.3282 3.67177 14.4129 3.67666 14.4943 3.69779C14.5756 3.71891 14.652 3.75585 14.7191 3.8065C14.7862 3.85715 14.8426 3.92051 14.8852 3.99298C14.9278 4.06544 14.9557 4.14558 14.9673 4.22883L15.3683 7.10147C15.3799 7.18472 15.375 7.26944 15.3539 7.35079C15.3327 7.43214 15.2958 7.50853 15.2451 7.5756C15.1944 7.64267 15.1311 7.6991 15.0586 7.74167C14.9861 7.78424 14.906 7.81212 14.8227 7.82371C14.7931 7.8279 14.7633 7.83004 14.7334 7.83011Z" fill="#202020"/>
</svg>
