<svg width="24" height="24" viewBox="0 0 24 24" fill="none" xmlns="http://www.w3.org/2000/svg">
<path d="M8.28786 11.5014C8.11035 11.5022 7.93564 11.4572 7.78059 11.3708C7.62554 11.2844 7.4954 11.1594 7.40274 11.008L5.73714 8.31487L5.72978 8.30303C5.2229 7.44223 5.21778 6.39551 5.7141 5.50335C6.22386 4.58879 7.14802 4.02943 8.18674 4.00671C8.20882 4.00671 8.2309 4.00671 8.25298 4.00671H8.25746C8.30546 4.00671 8.35346 4.00671 8.40242 4.00991C8.9053 4.03022 9.39427 4.1808 9.82144 4.44692C10.2486 4.71304 10.5993 5.08556 10.8392 5.52799C11.3135 6.39487 11.3061 7.41407 10.8197 8.25439L10.8152 8.26239L9.1797 10.9955C9.08865 11.1492 8.95924 11.2767 8.80414 11.3654C8.64904 11.4541 8.47357 11.5009 8.2949 11.5014H8.28786ZM6.82962 7.64799L8.28402 9.99903L9.7141 7.60895C9.97618 7.15327 9.97714 6.61695 9.71602 6.14175C9.58104 5.89283 9.38368 5.68325 9.1433 5.53358C8.90292 5.38391 8.62777 5.29928 8.34482 5.28799C8.31474 5.28639 8.2853 5.28607 8.25458 5.28607H8.21458C7.93057 5.29182 7.65312 5.37254 7.41035 5.52006C7.16759 5.66757 6.96813 5.87664 6.83218 6.12607C6.55986 6.61599 6.55986 7.18431 6.82962 7.64799ZM18.7583 20.4595C18.5811 20.4603 18.4067 20.4155 18.2519 20.3294C18.097 20.2434 17.9669 20.1189 17.8741 19.968L16.2082 17.2736L16.2011 17.2614C15.6939 16.4006 15.6891 15.3542 16.1855 14.4621C16.6949 13.5475 17.6194 12.9878 18.6581 12.9654C18.6802 12.9654 18.7032 12.9654 18.725 12.9654H18.7285C18.7768 12.9654 18.8245 12.9654 18.8735 12.9686C19.3765 12.9886 19.8658 13.139 20.2933 13.405C20.7207 13.671 21.0717 14.0436 21.3119 14.4861C21.7861 15.353 21.7791 16.3722 21.2927 17.2122L21.2879 17.2202L19.6523 19.9536C19.5612 20.1072 19.4319 20.2346 19.2768 20.3232C19.1218 20.4119 18.9465 20.4589 18.7679 20.4595H18.7583ZM17.3007 16.608L18.7551 18.9594L20.1855 16.569C20.4475 16.1133 20.4482 15.5789 20.1874 15.1021C20.0525 14.8528 19.8552 14.6429 19.6148 14.4929C19.3743 14.3429 19.099 14.2579 18.8159 14.2464C18.7867 14.2464 18.7573 14.2445 18.7282 14.2445H18.7253H18.6856C18.4016 14.2502 18.1241 14.3309 17.8813 14.4784C17.6386 14.6259 17.4391 14.835 17.3032 15.0845C17.0309 15.5741 17.0299 16.1424 17.3007 16.608Z" fill="#202020"/>
<path d="M15.2211 18.4144H14.3833C13.8419 18.4143 13.3104 18.2691 12.8443 17.9937C12.3781 17.7184 11.9943 17.3231 11.7328 16.849C11.4714 16.3749 11.3419 15.8394 11.3578 15.2982C11.3737 14.7571 11.5345 14.2301 11.8233 13.7722L13.7212 10.7622C13.888 10.4979 13.9807 10.1937 13.9899 9.88129C13.9991 9.5689 13.9243 9.25977 13.7733 8.98612C13.6223 8.71247 13.4008 8.48433 13.1316 8.32546C12.8625 8.16659 12.5557 8.08282 12.2431 8.08287C12.0734 8.08287 11.9106 8.01545 11.7906 7.89542C11.6706 7.7754 11.6031 7.61261 11.6031 7.44287C11.6031 7.27314 11.6706 7.11035 11.7906 6.99033C11.9106 6.8703 12.0734 6.80287 12.2431 6.80287C12.7845 6.80305 13.3159 6.94838 13.782 7.22372C14.2481 7.49906 14.6319 7.89435 14.8933 8.36841C15.1547 8.84247 15.2842 9.37795 15.2684 9.91907C15.2525 10.4602 15.0919 10.9872 14.8031 11.4451L12.9049 14.455C12.7383 14.7194 12.6456 15.0236 12.6365 15.3359C12.6274 15.6483 12.7022 15.9574 12.8531 16.231C13.004 16.5046 13.2256 16.7327 13.4947 16.8916C13.7637 17.0505 14.0705 17.1343 14.383 17.1344H15.2207C15.3905 17.1344 15.5533 17.2018 15.6733 17.3218C15.7933 17.4419 15.8607 17.6047 15.8607 17.7744C15.8607 17.9441 15.7933 18.1069 15.6733 18.2269C15.5533 18.347 15.3905 18.4144 15.2207 18.4144H15.2211ZM8.26842 7.61311C8.09868 7.61311 7.93589 7.54569 7.81587 7.42566C7.69585 7.30564 7.62842 7.14285 7.62842 6.97311V6.83775C7.62842 6.66802 7.69585 6.50523 7.81587 6.38521C7.93589 6.26518 8.09868 6.19775 8.26842 6.19775C8.43816 6.19775 8.60094 6.26518 8.72097 6.38521C8.84099 6.50523 8.90842 6.66802 8.90842 6.83775V6.97311C8.90842 7.14285 8.84099 7.30564 8.72097 7.42566C8.60094 7.54569 8.43816 7.61311 8.26842 7.61311ZM18.7395 16.4867C18.5697 16.4867 18.4069 16.4193 18.2869 16.2993C18.1669 16.1792 18.0995 16.0165 18.0995 15.8467V15.712C18.0995 15.5423 18.1669 15.3795 18.2869 15.2594C18.4069 15.1394 18.5697 15.072 18.7395 15.072C18.9092 15.072 19.072 15.1394 19.192 15.2594C19.312 15.3795 19.3795 15.5423 19.3795 15.712V15.8477C19.3792 16.0172 19.3117 16.1798 19.1917 16.2996C19.0717 16.4194 18.909 16.4867 18.7395 16.4867Z" fill="#202020"/>
</svg>
