<svg width="24" height="24" viewBox="0 0 24 24" fill="none" xmlns="http://www.w3.org/2000/svg">
<path d="M11.7491 17.6177C11.6506 17.6177 11.5525 17.607 11.4563 17.5857C11.1865 17.529 10.9418 17.3875 10.7582 17.1818C10.5745 16.9761 10.4615 16.7171 10.4355 16.4426L10.1814 14.0225C10.1811 14.0182 10.1798 14.0141 10.1777 14.0104C10.1756 14.0067 10.1727 14.0035 10.1693 14.001L8.21312 12.5537C7.99286 12.3896 7.82963 12.1606 7.74644 11.8988C7.66326 11.6371 7.66431 11.3558 7.74945 11.0947C7.83459 10.8336 7.99953 10.6058 8.22102 10.4434C8.4425 10.281 8.70937 10.1922 8.984 10.1895L14.624 10.1533C14.8564 10.1522 15.0849 10.2129 15.2862 10.3291C15.4875 10.4453 15.6543 10.6128 15.7696 10.8146C15.8848 11.0165 15.9444 11.2453 15.9422 11.4777C15.94 11.7101 15.8762 11.9377 15.7571 12.1373L12.864 16.9783C12.7503 17.173 12.5875 17.3346 12.3919 17.4468C12.1963 17.5589 11.9746 17.6179 11.7491 17.6177ZM14.6336 11.4333L8.992 11.4695C8.98595 11.4694 8.97991 11.4701 8.97408 11.4717C8.9691 11.4772 8.96535 11.4836 8.96308 11.4906C8.96082 11.4976 8.9601 11.5051 8.96096 11.5124C8.96463 11.5171 8.96906 11.5212 8.97408 11.5245L10.9302 12.9719C11.0765 13.0799 11.1987 13.2171 11.2892 13.3748C11.3797 13.5325 11.4365 13.7073 11.456 13.8881L11.7098 16.3082C11.71 16.3142 11.7113 16.32 11.7136 16.3255C11.7194 16.33 11.7262 16.3332 11.7334 16.3348C11.7406 16.3364 11.748 16.3364 11.7552 16.3348C11.7596 16.3308 11.7633 16.326 11.7661 16.3207L14.6611 11.4788C14.6634 11.4741 14.6646 11.4689 14.6644 11.4637C14.6643 11.4584 14.6628 11.4533 14.6602 11.4488C14.6577 11.4442 14.654 11.4404 14.6496 11.4376C14.6451 11.4348 14.6401 11.4331 14.6349 11.4327L14.6336 11.4333Z" fill="#202020"/>
<path d="M17.1801 21.1552H6.8198C6.08923 21.1545 5.38876 20.864 4.87211 20.3475C4.35545 19.831 4.06481 19.1306 4.06396 18.4V8.03999C4.06481 7.30953 4.35536 6.60922 4.87188 6.09271C5.3884 5.57619 6.0887 5.28564 6.81916 5.28479H17.1801C17.9106 5.28564 18.6109 5.57619 19.1274 6.09271C19.6439 6.60922 19.9345 7.30953 19.9353 8.03999V18.4C19.9345 19.1305 19.6439 19.8308 19.1274 20.3473C18.6109 20.8638 17.9106 21.1543 17.1801 21.1552ZM6.8198 6.56479C6.42869 6.56521 6.05371 6.72077 5.77715 6.99733C5.50059 7.2739 5.34503 7.64887 5.3446 8.03999V18.4C5.34503 18.7911 5.50059 19.1661 5.77715 19.4426C6.05371 19.7192 6.42869 19.8748 6.8198 19.8752H17.1801C17.5714 19.8749 17.9465 19.7195 18.2232 19.4429C18.4999 19.1663 18.6555 18.7912 18.656 18.4V8.03999C18.6555 7.64887 18.5 7.2739 18.2234 6.99733C17.9469 6.72077 17.5719 6.56521 17.1808 6.56479H6.8198Z" fill="#202020"/>
</svg>
