<svg width="24" height="24" viewBox="0 0 24 24" fill="none" xmlns="http://www.w3.org/2000/svg">
<path d="M18.5419 20.4557H14.3563C13.8489 20.4551 13.3624 20.2532 13.0036 19.8944C12.6448 19.5356 12.4429 19.0492 12.4424 18.5417V5.45823C12.4429 4.95084 12.6448 4.4644 13.0036 4.10565C13.3624 3.7469 13.8489 3.54514 14.3563 3.54463H18.5419C19.0493 3.54514 19.5357 3.7469 19.8945 4.10565C20.2534 4.4644 20.4552 4.95084 20.4558 5.45823V18.5417C20.4552 19.0492 20.2534 19.5356 19.8946 19.8944C19.5358 20.2532 19.0493 20.4551 18.5419 20.4557ZM14.3563 4.82463C14.1883 4.8248 14.0272 4.8916 13.9083 5.01038C13.7895 5.12915 13.7226 5.29021 13.7224 5.45823V18.5417C13.7226 18.7098 13.7895 18.8709 13.9083 18.9897C14.0271 19.1085 14.1882 19.1754 14.3563 19.1757H18.5419C18.7099 19.1754 18.871 19.1085 18.9898 18.9897C19.1087 18.8709 19.1755 18.7098 19.1758 18.5417V5.45823C19.1755 5.29021 19.1087 5.12915 18.9898 5.01038C18.871 4.8916 18.7099 4.8248 18.5419 4.82463H14.3563ZM9.44011 20.4557H5.62443C5.07299 20.455 4.54433 20.2356 4.1544 19.8457C3.76447 19.4558 3.54511 18.9271 3.54443 18.3757V5.62431C3.54511 5.07287 3.76447 4.54421 4.1544 4.15428C4.54433 3.76435 5.07299 3.54499 5.62443 3.54431H9.44011C9.99158 3.5449 10.5203 3.76424 10.9102 4.15418C11.3002 4.54413 11.5195 5.07284 11.5201 5.62431V18.3757C11.5201 18.9273 11.301 19.4564 10.9109 19.8465C10.5208 20.2365 9.99176 20.4557 9.44011 20.4557ZM5.62443 4.82431C5.41226 4.82431 5.20878 4.9086 5.05875 5.05863C4.90872 5.20866 4.82443 5.41214 4.82443 5.62431V18.3757C4.82443 18.5878 4.90872 18.7913 5.05875 18.9414C5.20878 19.0914 5.41226 19.1757 5.62443 19.1757H9.44011C9.65229 19.1757 9.85577 19.0914 10.0058 18.9414C10.1558 18.7913 10.2401 18.5878 10.2401 18.3757V5.62431C10.2401 5.41214 10.1558 5.20866 10.0058 5.05863C9.85577 4.9086 9.65229 4.82431 9.44011 4.82431H5.62443Z" fill="#202020"/>
</svg>
