<svg width="24" height="24" viewBox="0 0 24 24" fill="none" xmlns="http://www.w3.org/2000/svg">
<path d="M13.7843 12.64H10.2157C10.0459 12.64 9.88316 12.5726 9.76314 12.4525C9.64311 12.3325 9.57568 12.1697 9.57568 12C9.57568 11.8302 9.64311 11.6675 9.76314 11.5474C9.88316 11.4274 10.0459 11.36 10.2157 11.36H13.7843C13.9541 11.36 14.1168 11.4274 14.2369 11.5474C14.3569 11.6675 14.4243 11.8302 14.4243 12C14.4243 12.1697 14.3569 12.3325 14.2369 12.4525C14.1168 12.5726 13.9541 12.64 13.7843 12.64Z" fill="#202020"/>
<path d="M12 14.4243C11.8303 14.4243 11.6675 14.3569 11.5475 14.2369C11.4274 14.1168 11.36 13.9541 11.36 13.7843V10.2157C11.36 10.0459 11.4274 9.88316 11.5475 9.76314C11.6675 9.64311 11.8303 9.57568 12 9.57568C12.1698 9.57568 12.3325 9.64311 12.4526 9.76314C12.5726 9.88316 12.64 10.0459 12.64 10.2157V13.7843C12.64 13.9541 12.5726 14.1168 12.4526 14.2369C12.3325 14.3569 12.1698 14.4243 12 14.4243Z" fill="#202020"/>
<path d="M12 20.9347C9.93292 20.9348 7.92977 20.218 6.33187 18.9067C4.73397 17.5954 3.6402 15.7706 3.23691 13.7432C2.83362 11.7158 3.14577 9.61132 4.12018 7.7883C5.09459 5.96527 6.67096 4.53651 8.5807 3.74545C10.4904 2.95439 12.6154 2.84999 14.5935 3.45002C16.5716 4.05005 18.2804 5.31739 19.4288 7.03611C20.5773 8.75483 21.0942 10.8186 20.8916 12.8757C20.689 14.9329 19.7794 16.8561 18.3178 18.3178C17.49 19.15 16.5054 19.8098 15.421 20.259C14.3366 20.7082 13.1738 20.9379 12 20.9347ZM12 4.34531C7.77922 4.34531 4.3453 7.77923 4.3453 12C4.3453 16.2208 7.77922 19.6547 12 19.6547C16.2208 19.6547 19.6547 16.2208 19.6547 12C19.6547 7.77923 16.2208 4.34531 12 4.34531ZM21.5306 20.736C21.3133 20.7371 21.1001 20.6766 20.9157 20.5617C20.7313 20.4468 20.5831 20.282 20.4883 20.0864L19.6291 18.3328C19.5424 18.1558 19.5022 17.9597 19.5122 17.7628C19.5223 17.566 19.5824 17.3749 19.6867 17.2077C19.791 17.0405 19.9362 16.9026 20.1086 16.807C20.281 16.7114 20.4749 16.6614 20.672 16.6615H22.3904C22.5874 16.6615 22.7812 16.7117 22.9535 16.8074C23.1257 16.903 23.2708 17.0409 23.375 17.2081C23.4793 17.3753 23.5392 17.5663 23.5492 17.7631C23.5593 17.9598 23.519 18.1559 23.4323 18.3328L22.5731 20.0855C22.4785 20.2813 22.3303 20.4462 22.1458 20.5614C21.9614 20.6765 21.748 20.7371 21.5306 20.736ZM20.864 17.9415L21.5319 19.3034L22.1994 17.9415H20.864Z" fill="#202020"/>
</svg>
