<svg width="24" height="24" viewBox="0 0 24 24" fill="none" xmlns="http://www.w3.org/2000/svg">
<g clip-path="url(#clip0_3_839)">
<path d="M22.1085 20.7361C21.8913 20.737 21.6782 20.6766 21.4938 20.5616C21.3094 20.4467 21.1613 20.282 21.0666 20.0865L20.2074 18.3329C20.1207 18.1559 20.0805 17.9598 20.0905 17.763C20.1005 17.5662 20.1605 17.3752 20.2648 17.208C20.3691 17.0408 20.5142 16.9029 20.6865 16.8073C20.8588 16.7117 21.0526 16.6615 21.2496 16.6615H22.9677C23.1648 16.6615 23.3586 16.7117 23.5309 16.8073C23.7032 16.9029 23.8483 17.0408 23.9526 17.208C24.0568 17.3752 24.1168 17.5662 24.1269 17.763C24.1369 17.9598 24.0967 18.1559 24.01 18.3329L23.1508 20.0855C23.0561 20.2812 22.908 20.4462 22.7236 20.5613C22.5392 20.6764 22.3259 20.737 22.1085 20.7361ZM21.44 17.9415L22.1076 19.3034L22.7754 17.9415H21.44Z" fill="#202020"/>
<path d="M12.4336 20.9728C10.064 20.9728 7.7914 20.0315 6.11582 18.3559C4.44024 16.6803 3.4989 14.4077 3.4989 12.0381C3.4989 9.66848 4.44024 7.3959 6.11582 5.72031C7.7914 4.04473 10.064 3.10339 12.4336 3.10339C12.924 3.1034 13.4135 3.14343 13.8973 3.22307C13.9814 3.23539 14.0623 3.26434 14.1351 3.30824C14.2079 3.35214 14.2712 3.41011 14.3214 3.47877C14.3715 3.54742 14.4075 3.62538 14.4272 3.70809C14.4469 3.79081 14.4499 3.87661 14.4361 3.9605C14.4222 4.04439 14.3918 4.12469 14.3466 4.19669C14.3014 4.26869 14.2423 4.33097 14.1727 4.37987C14.1032 4.42877 14.0246 4.46333 13.9415 4.48151C13.8585 4.4997 13.7726 4.50116 13.689 4.48579C13.274 4.41764 12.8542 4.3834 12.4336 4.38339C8.21282 4.38339 4.7789 7.81731 4.7789 12.0381C4.7789 16.2589 8.21282 19.6928 12.4336 19.6928C16.6544 19.6928 20.0883 16.2589 20.0883 12.0381C20.0901 11.0502 19.8996 10.0713 19.5274 9.15619C19.473 9.00118 19.4803 8.8312 19.5478 8.68143C19.6153 8.53165 19.7377 8.41356 19.8899 8.3516C20.042 8.28963 20.2122 8.28854 20.3651 8.34854C20.518 8.40855 20.642 8.52506 20.7114 8.67395C21.2622 10.0306 21.4712 11.5017 21.3201 12.958C21.1691 14.4144 20.6625 15.8113 19.845 17.0259C19.0274 18.2406 17.924 19.2358 16.6317 19.924C15.3394 20.6122 13.8978 20.9724 12.4336 20.9728Z" fill="#202020"/>
<path d="M20.0055 5.64096H15.0359C14.8661 5.64096 14.7033 5.57353 14.5833 5.45351C14.4633 5.33349 14.3959 5.1707 14.3959 5.00096C14.3959 4.83122 14.4633 4.66844 14.5833 4.54841C14.7033 4.42839 14.8661 4.36096 15.0359 4.36096H20.0055C20.1752 4.36096 20.338 4.42839 20.458 4.54841C20.578 4.66844 20.6455 4.83122 20.6455 5.00096C20.6455 5.1707 20.578 5.33349 20.458 5.45351C20.338 5.57353 20.1752 5.64096 20.0055 5.64096ZM18.3959 7.62176H15.0359C14.8661 7.62176 14.7033 7.55433 14.5833 7.43431C14.4633 7.31429 14.3959 7.1515 14.3959 6.98176C14.3959 6.81202 14.4633 6.64924 14.5833 6.52921C14.7033 6.40919 14.8661 6.34176 15.0359 6.34176H18.3959C18.5656 6.34176 18.7284 6.40919 18.8484 6.52921C18.9684 6.64924 19.0359 6.81202 19.0359 6.98176C19.0359 7.1515 18.9684 7.31429 18.8484 7.43431C18.7284 7.55433 18.5656 7.62176 18.3959 7.62176Z" fill="#202020"/>
</g>
<defs>
<clipPath id="clip0_3_839">
<rect width="24" height="24" fill="white"/>
</clipPath>
</defs>
</svg>
