<svg width="24" height="24" viewBox="0 0 24 24" fill="none" xmlns="http://www.w3.org/2000/svg">
<g clip-path="url(#clip0_3_806)">
<path d="M13.5923 12.64H10.4077C10.2379 12.64 10.0751 12.5726 9.95511 12.4525C9.83508 12.3325 9.76765 12.1697 9.76765 12C9.76765 11.8302 9.83508 11.6675 9.95511 11.5474C10.0751 11.4274 10.2379 11.36 10.4077 11.36H13.5923C13.762 11.36 13.9248 11.4274 14.0448 11.5474C14.1649 11.6675 14.2323 11.8302 14.2323 12C14.2323 12.1697 14.1649 12.3325 14.0448 12.4525C13.9248 12.5726 13.762 12.64 13.5923 12.64Z" fill="#202020"/>
<path d="M12 20.9347C9.93288 20.9348 7.92972 20.218 6.33182 18.9067C4.73393 17.5954 3.64015 15.7706 3.23686 13.7432C2.83357 11.7158 3.14573 9.61132 4.12013 7.7883C5.09454 5.96527 6.67091 4.53651 8.58065 3.74545C10.4904 2.95439 12.6153 2.84999 14.5934 3.45002C16.5715 4.05005 18.2804 5.31739 19.4288 7.03611C20.5772 8.75483 21.0942 10.8186 20.8916 12.8757C20.689 14.9329 19.7794 16.8561 18.3177 18.3178C17.49 19.15 16.5054 19.8098 15.421 20.259C14.3365 20.7082 13.1738 20.9379 12 20.9347ZM12 4.34531C7.77917 4.34531 4.34525 7.77923 4.34525 12C4.34525 16.2208 7.77917 19.6547 12 19.6547C16.2208 19.6547 19.6547 16.2208 19.6547 12C19.6547 7.77923 16.2208 4.34531 12 4.34531ZM22.1318 19.7216C21.9145 19.7227 21.7013 19.6622 21.5169 19.5473C21.3325 19.4324 21.1843 19.2676 21.0896 19.072L20.2307 17.3194C20.144 17.1425 20.1038 16.9464 20.1138 16.7496C20.1238 16.5528 20.1838 16.3619 20.288 16.1947C20.3922 16.0275 20.5373 15.8896 20.7096 15.7939C20.8818 15.6983 21.0756 15.6481 21.2726 15.648H22.991C23.1879 15.6483 23.3815 15.6986 23.5536 15.7943C23.7257 15.89 23.8706 16.0279 23.9747 16.195C24.0788 16.3621 24.1387 16.553 24.1487 16.7496C24.1587 16.9463 24.1186 17.1422 24.032 17.3191L23.174 19.072C23.0793 19.2676 22.9311 19.4324 22.7467 19.5473C22.5623 19.6622 22.3491 19.7227 22.1318 19.7216ZM21.4643 16.928L22.1318 18.2899L22.7993 16.928H21.4643Z" fill="#202020"/>
</g>
<defs>
<clipPath id="clip0_3_806">
<rect width="24" height="24" fill="white"/>
</clipPath>
</defs>
</svg>
