<svg width="24" height="24" viewBox="0 0 24 24" fill="none" xmlns="http://www.w3.org/2000/svg">
<g clip-path="url(#clip0_3_841)">
<path d="M17.0579 8.75837C16.8884 8.75842 16.7258 8.6912 16.6058 8.57149L14.7981 6.76829C14.4832 6.4542 14.2966 6.03398 14.275 5.58972C14.2533 5.14546 14.398 4.70908 14.6809 4.36583C14.9637 4.02258 15.3644 3.79711 15.8046 3.73348C16.2448 3.66985 16.693 3.77262 17.0614 4.02173C17.4042 3.80548 17.8103 3.71206 18.2131 3.75677C18.616 3.80148 18.9917 3.98166 19.2787 4.26781C19.6139 4.6029 19.8024 5.05727 19.803 5.53121C19.8035 6.00515 19.616 6.45995 19.2816 6.79581L17.5107 8.57085C17.3909 8.69092 17.2282 8.75848 17.0586 8.75869L17.0579 8.75837ZM16.0605 4.99581C15.9601 4.99584 15.8621 5.02564 15.7787 5.08143C15.6952 5.13723 15.6303 5.21651 15.5919 5.30925C15.5536 5.40198 15.5436 5.50401 15.5633 5.60241C15.583 5.70081 15.6314 5.79117 15.7024 5.86205L17.056 7.21341L18.3747 5.89117C18.4696 5.79597 18.5229 5.66703 18.5229 5.53261C18.5229 5.39818 18.4696 5.26924 18.3747 5.17405C18.3276 5.12693 18.2717 5.08955 18.2102 5.06404C18.1486 5.03854 18.0826 5.02542 18.016 5.02542C17.9494 5.02542 17.8834 5.03854 17.8219 5.06404C17.7603 5.08955 17.7044 5.12693 17.6573 5.17405L17.5069 5.32477C17.3875 5.44499 17.2254 5.513 17.056 5.51389C16.8864 5.51385 16.7238 5.44652 16.6038 5.32669L16.4208 5.14397C16.3736 5.09657 16.3174 5.05905 16.2556 5.03361C16.1937 5.00817 16.1274 4.99532 16.0605 4.99581Z" fill="#202020"/>
<path d="M12.16 20.9347C9.79037 20.9347 7.51778 19.9934 5.8422 18.3178C4.16661 16.6422 3.22528 14.3697 3.22528 12C3.22528 9.63039 4.16661 7.35781 5.8422 5.68223C7.51778 4.00664 9.79037 3.06531 12.16 3.06531C12.6503 3.0653 13.1399 3.10533 13.6237 3.18499C13.7075 3.19763 13.7879 3.22678 13.8603 3.27076C13.9328 3.31473 13.9957 3.37265 14.0456 3.44115C14.0955 3.50965 14.1312 3.58737 14.1508 3.6698C14.1704 3.75223 14.1735 3.83774 14.1598 3.92135C14.146 4.00497 14.1159 4.08503 14.071 4.15689C14.0261 4.22875 13.9674 4.29098 13.8983 4.33998C13.8291 4.38897 13.751 4.42375 13.6683 4.4423C13.5856 4.46085 13.5001 4.46279 13.4166 4.44803C13.0017 4.37988 12.5818 4.34563 12.1613 4.34563C7.94048 4.34563 4.50688 7.77955 4.50688 12.0003C4.50688 16.2211 7.94048 19.6547 12.16 19.6547C16.3795 19.6547 19.816 16.2208 19.816 12C19.8178 11.0121 19.6272 10.0333 19.255 9.11811C19.2007 8.9631 19.208 8.79311 19.2754 8.64334C19.3429 8.49357 19.4654 8.37548 19.6175 8.31351C19.7697 8.25155 19.9398 8.25045 20.0927 8.31046C20.2457 8.37046 20.3696 8.48697 20.439 8.63587C20.9899 9.99257 21.1989 11.4638 21.0478 12.9203C20.8966 14.3767 20.3899 15.7737 19.5723 16.9884C18.7546 18.2031 17.651 19.1982 16.3585 19.8864C15.066 20.5745 13.6243 20.9345 12.16 20.9347Z" fill="#202020"/>
<path d="M22.2931 19.7215C22.0759 19.7225 21.8628 19.6621 21.6784 19.5471C21.494 19.4322 21.3459 19.2675 21.2512 19.0719L20.392 17.3193C20.3053 17.1424 20.2651 16.9463 20.2751 16.7495C20.2851 16.5528 20.3451 16.3618 20.4493 16.1946C20.5535 16.0274 20.6986 15.8895 20.8709 15.7938C21.0431 15.6982 21.2369 15.648 21.4339 15.6479H23.1523C23.3494 15.6479 23.5432 15.6981 23.7155 15.7937C23.8878 15.8893 24.0329 16.0272 24.1372 16.1945C24.2414 16.3617 24.3014 16.5527 24.3115 16.7495C24.3215 16.9462 24.2813 17.1424 24.1946 17.3193L23.3354 19.0719C23.2406 19.2675 23.0924 19.4323 22.908 19.5472C22.7236 19.6622 22.5104 19.7226 22.2931 19.7215ZM21.6256 16.9279L22.2931 18.2899L22.961 16.9279H21.6256Z" fill="#202020"/>
</g>
<defs>
<clipPath id="clip0_3_841">
<rect width="24" height="24" fill="white"/>
</clipPath>
</defs>
</svg>
