<svg width="24" height="24" viewBox="0 0 24 24" fill="none" xmlns="http://www.w3.org/2000/svg">
<g clip-path="url(#clip0_3_848)">
<path d="M11.8989 20.9347C9.83177 20.9348 7.82862 20.218 6.23072 18.9067C4.63282 17.5954 3.53905 15.7706 3.13576 13.7432C2.73247 11.7158 3.04462 9.61132 4.01903 7.7883C4.99344 5.96527 6.56981 4.53651 8.47955 3.74545C10.3893 2.95439 12.5142 2.84999 14.4923 3.45002C16.4704 4.05005 18.1793 5.31739 19.3277 7.03611C20.4761 8.75483 20.9931 10.8186 20.7905 12.8757C20.5879 14.9329 19.6783 16.8561 18.2166 18.3178C17.3889 19.1501 16.4043 19.8099 15.3199 20.2591C14.2354 20.7083 13.0727 20.938 11.8989 20.9347ZM11.8989 4.34531C7.67999 4.34531 4.24447 7.77923 4.24447 12C4.24447 16.2208 7.67999 19.6547 11.8989 19.6547C16.1177 19.6547 19.5536 16.2208 19.5536 12C19.5536 7.77923 16.1197 4.34531 11.8989 4.34531ZM22.0307 19.7216C21.8135 19.7226 21.6003 19.6621 21.416 19.5472C21.2316 19.4323 21.0835 19.2675 20.9888 19.072L20.1296 17.3194C20.0429 17.1424 20.0026 16.9463 20.0127 16.7495C20.0227 16.5527 20.0827 16.3617 20.187 16.1945C20.2912 16.0273 20.4364 15.8894 20.6087 15.7938C20.781 15.6982 20.9748 15.648 21.1718 15.648H22.8899C23.087 15.648 23.2808 15.6982 23.4531 15.7938C23.6254 15.8894 23.7705 16.0273 23.8748 16.1945C23.979 16.3617 24.039 16.5527 24.049 16.7495C24.0591 16.9463 24.0189 17.1424 23.9321 17.3194L23.072 19.072C22.9773 19.2674 22.8293 19.4321 22.6451 19.547C22.4608 19.662 22.2479 19.7225 22.0307 19.7216ZM21.3632 16.928L22.0307 18.2899L22.6985 16.928H21.3632Z" fill="#202020"/>
</g>
<defs>
<clipPath id="clip0_3_848">
<rect width="24" height="24" fill="white"/>
</clipPath>
</defs>
</svg>
