<svg width="24" height="24" viewBox="0 0 24 24" fill="none" xmlns="http://www.w3.org/2000/svg">
<path d="M21.9613 20.5139C21.7936 20.5136 21.6328 20.4475 21.5133 20.3299L19.4653 18.3107C19.4055 18.2517 19.3578 18.1814 19.3251 18.104C19.2924 18.0266 19.2753 17.9435 19.2747 17.8594C19.2742 17.7754 19.2901 17.692 19.3218 17.6142C19.3534 17.5363 19.4 17.4654 19.4591 17.4056C19.5783 17.2847 19.7406 17.2162 19.9103 17.215C19.9944 17.2144 20.0777 17.2304 20.1556 17.262C20.2335 17.2936 20.3044 17.3403 20.3642 17.3993L22.4122 19.4182C22.5025 19.5073 22.5643 19.6212 22.5898 19.7454C22.6152 19.8697 22.6032 19.9987 22.5552 20.1161C22.5072 20.2335 22.4254 20.334 22.3202 20.4048C22.2149 20.4756 22.091 20.5136 21.9642 20.5139H21.9613Z" fill="#202020"/>
<path d="M11.6189 20.9728C9.24923 20.9728 6.97665 20.0315 5.30106 18.3559C3.62548 16.6803 2.68414 14.4077 2.68414 12.0381C2.68414 9.66848 3.62548 7.3959 5.30106 5.72031C6.97665 4.04473 9.24923 3.10339 11.6189 3.10339C12.1092 3.1034 12.5987 3.14343 13.0825 3.22307C13.1667 3.23539 13.2475 3.26434 13.3203 3.30824C13.3931 3.35214 13.4565 3.41011 13.5066 3.47877C13.5568 3.54742 13.5928 3.62538 13.6125 3.70809C13.6321 3.79081 13.6352 3.87661 13.6213 3.9605C13.6075 4.04439 13.5771 4.12469 13.5318 4.19669C13.4866 4.26869 13.4275 4.33097 13.358 4.37987C13.2884 4.42877 13.2098 4.46333 13.1268 4.48151C13.0437 4.4997 12.9578 4.50116 12.8742 4.48579C12.4592 4.41764 12.0394 4.3834 11.6189 4.38339C7.39806 4.38339 3.96414 7.81731 3.96414 12.0381C3.96414 16.2589 7.39806 19.6928 11.6189 19.6928C15.8397 19.6928 19.2733 16.2589 19.2733 12.0381C19.2751 11.0502 19.0847 10.0714 18.7126 9.15619C18.6508 8.9994 18.6534 8.82457 18.7197 8.66966C18.7861 8.51474 18.9108 8.39224 19.0669 8.32874C19.223 8.26525 19.3979 8.26588 19.5535 8.33052C19.7092 8.39515 19.833 8.51856 19.8982 8.67395C20.4491 10.0307 20.6581 11.502 20.5069 12.9584C20.3558 14.4149 19.8491 15.8119 19.0314 17.0266C18.2136 18.2413 17.11 19.2364 15.8175 19.9246C14.525 20.6127 13.0831 20.9726 11.6189 20.9728Z" fill="#202020"/>
<path d="M19.1907 5.64096H14.2211C14.0514 5.64096 13.8886 5.57353 13.7686 5.45351C13.6485 5.33349 13.5811 5.1707 13.5811 5.00096C13.5811 4.83122 13.6485 4.66844 13.7686 4.54841C13.8886 4.42839 14.0514 4.36096 14.2211 4.36096H19.1907C19.3605 4.36096 19.5232 4.42839 19.6433 4.54841C19.7633 4.66844 19.8307 4.83122 19.8307 5.00096C19.8307 5.1707 19.7633 5.33349 19.6433 5.45351C19.5232 5.57353 19.3605 5.64096 19.1907 5.64096ZM17.5811 7.62176H14.2211C14.0514 7.62176 13.8886 7.55433 13.7686 7.43431C13.6485 7.31429 13.5811 7.1515 13.5811 6.98176C13.5811 6.81202 13.6485 6.64924 13.7686 6.52921C13.8886 6.40919 14.0514 6.34176 14.2211 6.34176H17.5811C17.7509 6.34176 17.9136 6.40919 18.0337 6.52921C18.1537 6.64924 18.2211 6.81202 18.2211 6.98176C18.2211 7.1515 18.1537 7.31429 18.0337 7.43431C17.9136 7.55433 17.7509 7.62176 17.5811 7.62176Z" fill="#202020"/>
</svg>
