<svg width="24" height="24" viewBox="0 0 24 24" fill="none" xmlns="http://www.w3.org/2000/svg">
<path d="M14.3107 12.6781H11.1257C10.956 12.6781 10.7932 12.6106 10.6732 12.4906C10.5532 12.3706 10.4857 12.2078 10.4857 12.0381C10.4857 11.8683 10.5532 11.7055 10.6732 11.5855C10.7932 11.4655 10.956 11.3981 11.1257 11.3981H14.3107C14.4804 11.3981 14.6432 11.4655 14.7633 11.5855C14.8833 11.7055 14.9507 11.8683 14.9507 12.0381C14.9507 12.2078 14.8833 12.3706 14.7633 12.4906C14.6432 12.6106 14.4804 12.6781 14.3107 12.6781Z" fill="#202020"/>
<path d="M12.7181 20.9728C10.651 20.9729 8.64782 20.2561 7.04992 18.9448C5.45202 17.6335 4.35824 15.8086 3.95496 13.7813C3.55167 11.7539 3.86382 9.64941 4.83823 7.82638C5.81264 6.00336 7.38901 4.5746 9.29875 3.78354C11.2085 2.99248 13.3334 2.88807 15.3115 3.4881C17.2896 4.08813 18.9985 5.35548 20.1469 7.0742C21.2953 8.79292 21.8123 10.8567 21.6097 12.9138C21.4071 14.971 20.4975 16.8942 19.0358 18.3559C18.2081 19.1881 17.2235 19.8479 16.139 20.2971C15.0546 20.7463 13.8919 20.976 12.7181 20.9728ZM12.7181 4.3834C8.49727 4.3834 5.06367 7.81732 5.06367 12.0381C5.06367 16.2589 8.49727 19.6928 12.7181 19.6928C16.9389 19.6928 20.3728 16.2589 20.3728 12.0381C20.3728 7.81732 16.9389 4.38404 12.7181 4.38404V4.3834ZM22.3376 20.9728C22.1728 20.973 22.0142 20.9094 21.8953 20.7952L19.8173 18.8074C19.7553 18.7496 19.7054 18.6801 19.6705 18.6029C19.6356 18.5256 19.6164 18.4423 19.6139 18.3576C19.6115 18.2728 19.626 18.1885 19.6564 18.1094C19.6868 18.0303 19.7327 17.9581 19.7912 17.8968C19.8498 17.8356 19.92 17.7866 19.9977 17.7527C20.0753 17.7188 20.1589 17.7007 20.2437 17.6994C20.3284 17.698 20.4126 17.7135 20.4912 17.745C20.5699 17.7765 20.6416 17.8232 20.7021 17.8826L22.7801 19.8701C22.8726 19.9584 22.9364 20.0724 22.9635 20.1974C22.9906 20.3224 22.9796 20.4526 22.932 20.5712C22.8843 20.6899 22.8023 20.7915 22.6963 20.8631C22.5904 20.9347 22.4654 20.9729 22.3376 20.9728Z" fill="#202020"/>
</svg>
