<svg width="24" height="24" viewBox="0 0 24 24" fill="none" xmlns="http://www.w3.org/2000/svg">
<path d="M12.48 20.9728C10.4129 20.9731 8.40962 20.2565 6.81157 18.9453C5.21352 17.6341 4.11956 15.8094 3.7161 13.782C3.31264 11.7546 3.62464 9.65004 4.59895 7.82691C5.57325 6.00379 7.14957 4.5749 9.05931 3.78372C10.969 2.99254 13.094 2.88803 15.0722 3.488C17.0503 4.08796 18.7593 5.35528 19.9078 7.074C21.0563 8.79272 21.5733 10.8565 21.3707 12.9137C21.1681 14.9709 20.2585 16.8942 18.7968 18.3559C17.9692 19.188 16.9848 19.8477 15.9005 20.2969C14.8162 20.7461 13.6537 20.9759 12.48 20.9728ZM12.48 4.38404C8.25923 4.38404 4.82531 7.81796 4.82531 12.0388C4.82531 16.2596 8.25827 19.6928 12.48 19.6928C16.7018 19.6928 20.1338 16.2589 20.1338 12.0381C20.1338 7.81732 16.6999 4.38404 12.48 4.38404ZM22.0986 20.9728C21.9338 20.973 21.7753 20.9094 21.6563 20.7952L19.5783 18.8074C19.5163 18.7496 19.4664 18.6801 19.4315 18.6029C19.3966 18.5256 19.3774 18.4423 19.3749 18.3576C19.3725 18.2728 19.387 18.1885 19.4174 18.1094C19.4478 18.0303 19.4937 17.9581 19.5522 17.8968C19.6108 17.8356 19.681 17.7866 19.7587 17.7527C19.8363 17.7188 19.9199 17.7007 20.0047 17.6994C20.0894 17.698 20.1736 17.7135 20.2523 17.745C20.3309 17.7765 20.4026 17.8232 20.4631 17.8826L22.5411 19.8701C22.6336 19.9584 22.6974 20.0724 22.7245 20.1974C22.7516 20.3224 22.7406 20.4526 22.693 20.5712C22.6453 20.6899 22.5633 20.7915 22.4573 20.8631C22.3514 20.9347 22.2264 20.9729 22.0986 20.9728Z" fill="#202020"/>
</svg>
