<svg width="24" height="24" viewBox="0 0 24 24" fill="none" xmlns="http://www.w3.org/2000/svg">
<path d="M8.51199 12.64H6.34239C6.17265 12.64 6.00987 12.5726 5.88984 12.4525C5.76982 12.3325 5.70239 12.1697 5.70239 12C5.70239 11.8302 5.76982 11.6675 5.88984 11.5474C6.00987 11.4274 6.17265 11.36 6.34239 11.36H8.51199C8.68173 11.36 8.84452 11.4274 8.96454 11.5474C9.08456 11.6675 9.15199 11.8302 9.15199 12C9.15199 12.1697 9.08456 12.3325 8.96454 12.4525C8.84452 12.5726 8.68173 12.64 8.51199 12.64ZM17.6592 12.64H12.1437C11.9739 12.64 11.8111 12.5726 11.6911 12.4525C11.5711 12.3325 11.5037 12.1697 11.5037 12C11.5037 11.8302 11.5711 11.6675 11.6911 11.5474C11.8111 11.4274 11.9739 11.36 12.1437 11.36H17.6592C17.8289 11.36 17.9917 11.4274 18.1117 11.5474C18.2318 11.6675 18.2992 11.8302 18.2992 12C18.2992 12.1697 18.2318 12.3325 18.1117 12.4525C17.9917 12.5726 17.8289 12.64 17.6592 12.64Z" fill="#202020"/>
<path d="M10.9971 14.4566H9.65691C9.18354 14.4556 8.72988 14.267 8.39531 13.9321C8.06074 13.5973 7.87254 13.1434 7.87195 12.6701V11.3299C7.87254 10.8563 8.06096 10.4022 8.39587 10.0673C8.73079 9.73234 9.18486 9.54393 9.65851 9.54333H10.9987C11.4723 9.54384 11.9265 9.73223 12.2614 10.0672C12.5963 10.4021 12.7847 10.8562 12.7852 11.3299V12.6701C12.7847 13.144 12.5961 13.5984 12.2608 13.9333C11.9255 14.2683 11.471 14.4565 10.9971 14.4566ZM9.65691 10.8233C9.52289 10.8239 9.39455 10.8775 9.29994 10.9725C9.20532 11.0674 9.15212 11.1959 9.15195 11.3299V12.6701C9.15212 12.8044 9.20554 12.9331 9.3005 13.0281C9.39546 13.123 9.52421 13.1764 9.65851 13.1766H10.9987C11.133 13.1764 11.2617 13.123 11.3567 13.0281C11.4516 12.9331 11.5051 12.8044 11.5052 12.6701V11.3299C11.5051 11.1956 11.4516 11.0669 11.3567 10.9719C11.2617 10.8769 11.133 10.8235 10.9987 10.8233H9.65691Z" fill="#202020"/>
</svg>
