<svg width="24" height="24" viewBox="0 0 24 24" fill="none" xmlns="http://www.w3.org/2000/svg">
<path d="M12.0476 20.1462C11.6169 20.1466 11.1935 20.0353 10.8185 19.8233L5.89979 17.0393C5.51904 16.823 5.20174 16.5106 4.97959 16.1332C4.75744 15.7559 4.63823 15.3268 4.63387 14.8889L4.58587 9.23678C4.58292 8.7989 4.69491 8.36791 4.91065 7.98686C5.12638 7.60581 5.43833 7.28803 5.81531 7.06526L10.686 4.19806C11.0638 3.97633 11.4932 3.85768 11.9312 3.85397C12.3692 3.85027 12.8006 3.96163 13.182 4.17694L18.1008 6.96094C18.4815 7.17723 18.7988 7.48968 19.021 7.86704C19.2431 8.2444 19.3623 8.67346 19.3667 9.11134L19.4147 14.7635C19.4176 15.2014 19.3056 15.6324 19.0899 16.0134C18.8742 16.3945 18.5622 16.7122 18.1852 16.935L13.3145 19.8022C12.9305 20.0279 12.4931 20.1466 12.0476 20.1462ZM11.9516 5.1331C11.7348 5.13291 11.5219 5.19081 11.335 5.30078L6.46395 8.16798C6.28035 8.27655 6.12844 8.43139 6.02339 8.61702C5.91833 8.80266 5.86379 9.0126 5.86523 9.2259L5.91323 14.8777C5.91537 15.091 5.97344 15.3 6.08165 15.4838C6.18986 15.6676 6.34442 15.8198 6.52987 15.9251L11.4483 18.7091C11.6341 18.814 11.8443 18.8682 12.0577 18.8663C12.2711 18.8645 12.4803 18.8066 12.6643 18.6985L17.536 15.832C17.7196 15.7234 17.8715 15.5686 17.9765 15.3829C18.0816 15.1973 18.1361 14.9874 18.1347 14.7741L18.0867 9.12222C18.0845 8.90894 18.0265 8.69997 17.9183 8.51617C17.81 8.33237 17.6555 8.1802 17.47 8.07486L12.5516 5.29086C12.3688 5.18738 12.1623 5.13303 11.9523 5.1331H11.9516Z" fill="#202020"/>
<path d="M11.9999 14.7577C11.4545 14.7577 10.9213 14.596 10.4678 14.2929C10.0143 13.9899 9.66084 13.5592 9.45211 13.0553C9.24338 12.5514 9.18877 11.9969 9.29518 11.4619C9.40159 10.927 9.66424 10.4356 10.0499 10.0499C10.4356 9.66424 10.927 9.40159 11.4619 9.29518C11.9969 9.18877 12.5514 9.24338 13.0553 9.45211C13.5592 9.66084 13.9899 10.0143 14.2929 10.4678C14.596 10.9213 14.7577 11.4545 14.7577 11.9999C14.7569 12.7311 14.466 13.432 13.949 13.949C13.432 14.466 12.7311 14.7569 11.9999 14.7577ZM11.9999 10.5222C11.7077 10.5222 11.422 10.6089 11.1789 10.7712C10.9359 10.9336 10.7465 11.1644 10.6347 11.4344C10.5228 11.7045 10.4936 12.0016 10.5506 12.2882C10.6076 12.5749 10.7483 12.8382 10.955 13.0449C11.1617 13.2516 11.425 13.3923 11.7117 13.4493C11.9983 13.5063 12.2954 13.4771 12.5655 13.3652C12.8355 13.2534 13.0663 13.064 13.2287 12.8209C13.391 12.5779 13.4777 12.2922 13.4777 11.9999C13.4772 11.6082 13.3213 11.2326 13.0443 10.9556C12.7673 10.6786 12.3917 10.5227 11.9999 10.5222Z" fill="#202020"/>
</svg>
