<svg width="24" height="24" viewBox="0 0 24 24" fill="none" xmlns="http://www.w3.org/2000/svg">
<path d="M10.6048 20.7818C10.5249 20.7818 10.4456 20.7668 10.3712 20.7376L7.25792 19.5174C7.09989 19.4555 6.97295 19.3333 6.90502 19.1777C6.83709 19.0222 6.83373 18.846 6.89568 18.688L7.74752 16.5149C7.71552 16.4829 7.68352 16.4538 7.65152 16.4224L5.51264 17.3568C5.43561 17.3905 5.35271 17.4086 5.26866 17.4103C5.18461 17.4119 5.10106 17.397 5.02279 17.3663C4.94451 17.3356 4.87305 17.2898 4.81248 17.2315C4.7519 17.1733 4.70341 17.1036 4.66976 17.0266L3.3312 13.9626C3.26329 13.807 3.25993 13.6309 3.32185 13.4729C3.38378 13.3149 3.50593 13.188 3.66144 13.12L5.80064 12.1856C5.79904 12.1411 5.7984 12.0966 5.79776 12.0522L3.62464 11.2C3.46706 11.1377 3.3406 11.0155 3.273 10.8601C3.20539 10.7048 3.20216 10.5289 3.264 10.3712L4.48416 7.25792C4.54613 7.10028 4.66806 6.97364 4.82323 6.90574C4.9784 6.83784 5.15416 6.83422 5.312 6.89568L7.48512 7.74752C7.51712 7.71552 7.54624 7.68352 7.5776 7.65152L6.6432 5.51264C6.60952 5.43561 6.59135 5.35271 6.58972 5.26866C6.58809 5.18461 6.60304 5.10106 6.63371 5.02279C6.66437 4.94451 6.71016 4.87305 6.76845 4.81248C6.82675 4.7519 6.8964 4.70341 6.97344 4.66976L10.0374 3.3312C10.193 3.26329 10.3691 3.25993 10.5271 3.32185C10.6851 3.38378 10.812 3.50593 10.88 3.66144L11.8144 5.80032C11.8589 5.80032 11.9034 5.7984 11.9478 5.79776L12.8 3.62464C12.8623 3.46706 12.9845 3.3406 13.1399 3.273C13.2952 3.20539 13.4711 3.20216 13.6288 3.264L16.7421 4.48416C16.8997 4.54613 17.0264 4.66806 17.0943 4.82323C17.1622 4.9784 17.1658 5.15416 17.1043 5.312L16.2525 7.48512C16.2845 7.51712 16.3165 7.54624 16.3485 7.5776L18.4874 6.6432C18.5644 6.60952 18.6473 6.59135 18.7313 6.58972C18.8154 6.58809 18.8989 6.60304 18.9772 6.63371C19.0555 6.66437 19.127 6.71016 19.1875 6.76845C19.2481 6.82675 19.2966 6.8964 19.3302 6.97344L20.6688 10.0374C20.7367 10.193 20.7401 10.3691 20.6781 10.5271C20.6162 10.6851 20.4941 10.812 20.3386 10.88L18.1994 11.8144C18.1994 11.8589 18.2016 11.9034 18.2022 11.9478L20.3754 12.8C20.5334 12.862 20.6603 12.9841 20.7283 13.1397C20.7962 13.2952 20.7996 13.4714 20.7376 13.6294L19.5174 16.7427C19.4554 16.9006 19.3331 17.0274 19.1776 17.0952C19.022 17.163 18.8459 17.1663 18.688 17.1043L16.5149 16.2525C16.4829 16.2845 16.4538 16.3165 16.4224 16.3485L17.3568 18.4874C17.3905 18.5644 17.4086 18.6473 17.4103 18.7313C17.4119 18.8154 17.397 18.8989 17.3663 18.9772C17.3356 19.0555 17.2898 19.127 17.2315 19.1875C17.1733 19.2481 17.1036 19.2966 17.0266 19.3302L13.9626 20.6688C13.807 20.7367 13.6309 20.7401 13.4729 20.6781C13.3149 20.6162 13.188 20.4941 13.12 20.3386L12.1856 18.1994C12.1411 18.1994 12.0966 18.2016 12.0522 18.2022L11.2 20.3754C11.153 20.4951 11.0711 20.598 10.9648 20.6705C10.8585 20.743 10.7328 20.7818 10.6042 20.7818H10.6048ZM8.32 18.56L10.2416 19.313L11.0237 17.3168C11.0734 17.1899 11.1622 17.0823 11.2773 17.0094C11.3924 16.9365 11.5278 16.9023 11.6637 16.9117C11.9498 16.9311 12.2371 16.9255 12.5222 16.8947C12.6577 16.8801 12.7943 16.909 12.9122 16.9774C13.0301 17.0458 13.1231 17.15 13.1776 17.2749L14.0362 19.2403L15.927 18.4141L15.0691 16.448C15.0146 16.3232 15.0014 16.1842 15.0313 16.0513C15.0612 15.9184 15.1328 15.7985 15.2355 15.7091C15.4518 15.5209 15.6512 15.314 15.8314 15.0909C15.9168 14.9849 16.0338 14.909 16.1653 14.874C16.2969 14.8391 16.4361 14.847 16.5629 14.8966L18.56 15.68L19.313 13.7584L17.3168 12.9763C17.1899 12.9266 17.0823 12.8378 17.0094 12.7227C16.9365 12.6076 16.9023 12.4722 16.9117 12.3363C16.9311 12.0502 16.9255 11.7629 16.8947 11.4778C16.8801 11.3423 16.909 11.2057 16.9774 11.0878C17.0458 10.9699 17.15 10.8769 17.2749 10.8224L19.2403 9.96384L18.4141 8.07296L16.448 8.93088C16.3232 8.98538 16.1842 8.99864 16.0513 8.96871C15.9184 8.93878 15.7985 8.86724 15.7091 8.76448C15.5209 8.54815 15.314 8.34877 15.0909 8.16864C14.9849 8.08321 14.909 7.96622 14.874 7.83467C14.8391 7.70312 14.847 7.56386 14.8966 7.43712L15.68 5.44L13.7584 4.68704L12.9763 6.6832C12.9266 6.81005 12.8378 6.91774 12.7227 6.9906C12.6076 7.06347 12.4722 7.0977 12.3363 7.08832C12.0502 7.06886 11.7629 7.07453 11.4778 7.10528C11.3423 7.11994 11.2057 7.09097 11.0878 7.02259C10.9699 6.95422 10.8769 6.85 10.8224 6.72512L9.96384 4.75968L8.07296 5.58592L8.93088 7.552C8.98538 7.67684 8.99864 7.81581 8.96871 7.9487C8.93878 8.08159 8.86724 8.20146 8.76448 8.29088C8.54823 8.4792 8.34886 8.68607 8.16864 8.90912C8.08321 9.01507 7.96622 9.09103 7.83467 9.12596C7.70312 9.16089 7.56386 9.15298 7.43712 9.10336L5.44 8.32L4.68704 10.2416L6.6832 11.0237C6.81005 11.0734 6.91774 11.1622 6.9906 11.2773C7.06347 11.3924 7.0977 11.5278 7.08832 11.6637C7.06886 11.9498 7.07453 12.2371 7.10528 12.5222C7.11994 12.6577 7.09097 12.7943 7.02259 12.9122C6.95422 13.0301 6.85 13.1231 6.72512 13.1776L4.75968 14.0362L5.58592 15.927L7.552 15.0691C7.67684 15.0146 7.81581 15.0014 7.9487 15.0313C8.08159 15.0612 8.20146 15.1328 8.29088 15.2355C8.47912 15.4518 8.686 15.6512 8.90912 15.8314C9.01507 15.9168 9.09103 16.0338 9.12596 16.1653C9.16089 16.2969 9.15298 16.4361 9.10336 16.5629L8.32 18.56Z" fill="#202020"/>
<path d="M12 14.5441C11.4968 14.5441 11.005 14.3949 10.5866 14.1153C10.1683 13.8358 9.84219 13.4385 9.64965 12.9736C9.4571 12.5087 9.40672 11.9972 9.50488 11.5037C9.60304 11.0103 9.84533 10.557 10.2011 10.2012C10.5569 9.84539 11.0102 9.6031 11.5037 9.50494C11.9972 9.40678 12.5087 9.45716 12.9735 9.64971C13.4384 9.84226 13.8357 10.1683 14.1153 10.5867C14.3948 11.005 14.544 11.4969 14.544 12.0001C14.5432 12.6745 14.275 13.3212 13.798 13.7981C13.3211 14.275 12.6745 14.5433 12 14.5441ZM12 10.7361C11.75 10.7361 11.5056 10.8102 11.2978 10.9491C11.0899 11.088 10.9279 11.2854 10.8322 11.5163C10.7365 11.7473 10.7115 12.0015 10.7603 12.2466C10.8091 12.4918 10.9294 12.7171 11.1062 12.8938C11.283 13.0706 11.5082 13.191 11.7534 13.2398C11.9986 13.2885 12.2527 13.2635 12.4837 13.1678C12.7147 13.0722 12.9121 12.9102 13.051 12.7023C13.1899 12.4944 13.264 12.2501 13.264 12.0001C13.2636 11.665 13.1303 11.3437 12.8933 11.1067C12.6564 10.8698 12.3351 10.7365 12 10.7361Z" fill="#202020"/>
</svg>
