<svg width="24" height="24" viewBox="0 0 24 24" fill="none" xmlns="http://www.w3.org/2000/svg">
<path d="M4.5882 15.2356C4.44391 15.2354 4.30392 15.1865 4.19094 15.0967C4.07796 15.007 3.99862 14.8817 3.9658 14.7412C3.82205 14.1239 3.74958 13.4921 3.7498 12.8583C3.7442 11.0586 4.33247 9.30731 5.4234 7.87592C6.48938 6.47523 7.97242 5.449 9.65892 4.94504C9.73952 4.92121 9.82402 4.91349 9.9076 4.92232C9.99119 4.93115 10.0722 4.95636 10.1461 4.99651C10.2199 5.03665 10.2851 5.09095 10.338 5.15629C10.3908 5.22164 10.4303 5.29676 10.4541 5.37736C10.4779 5.45796 10.4857 5.54246 10.4768 5.62605C10.468 5.70963 10.4428 5.79065 10.4026 5.86449C10.3625 5.93834 10.3082 6.00355 10.2429 6.0564C10.1775 6.10926 10.1024 6.14873 10.0218 6.17256C7.0826 7.04072 5.0298 9.79016 5.0298 12.8583C5.0296 13.3941 5.09079 13.9281 5.2122 14.45C5.23415 14.544 5.23457 14.6417 5.21343 14.7358C5.19229 14.83 5.15014 14.9181 5.09012 14.9937C5.03011 15.0692 4.95379 15.1302 4.86687 15.1721C4.77995 15.214 4.68469 15.2357 4.5882 15.2356ZM12 21.1086C10.9166 21.1115 9.84334 20.8997 8.8423 20.4853C7.84127 20.0708 6.93232 19.4621 6.16804 18.6942C6.10546 18.6355 6.05531 18.5649 6.02056 18.4865C5.98581 18.4081 5.96716 18.3235 5.96574 18.2378C5.96432 18.152 5.98014 18.0669 6.01228 17.9874C6.04441 17.9079 6.09219 17.8356 6.15279 17.7749C6.21338 17.7142 6.28556 17.6664 6.36502 17.6341C6.44448 17.6019 6.52962 17.5859 6.61536 17.5872C6.70111 17.5885 6.78572 17.6071 6.86417 17.6417C6.94262 17.6763 7.01331 17.7264 7.07204 17.7889C8.37941 19.0954 10.1522 19.8291 12.0004 19.8287C13.8487 19.8284 15.6212 19.094 16.928 17.787C17.0481 17.6669 17.2109 17.5995 17.3807 17.5995C17.5504 17.5995 17.7133 17.6669 17.8333 17.787C17.9534 17.907 18.0208 18.0698 18.0208 18.2396C18.0208 18.4094 17.9534 18.5722 17.8333 18.6922C17.069 19.4606 16.1599 20.0698 15.1587 20.4846C14.1574 20.8993 13.0838 21.1114 12 21.1086ZM19.3895 15.3281C19.2923 15.3281 19.1964 15.3061 19.1091 15.2636C19.0217 15.2211 18.9451 15.1593 18.8852 15.0828C18.8253 15.0063 18.7836 14.9172 18.7632 14.8222C18.7429 14.7272 18.7444 14.6288 18.7677 14.5345C18.9025 13.9861 18.9706 13.4234 18.9703 12.8586C18.9703 9.74184 16.8762 6.98056 13.8778 6.14408C13.7968 6.12149 13.7211 6.08318 13.655 6.03133C13.5888 5.97948 13.5335 5.91511 13.4923 5.84189C13.451 5.76868 13.4245 5.68805 13.4144 5.60461C13.4043 5.52117 13.4107 5.43656 13.4333 5.3556C13.4559 5.27464 13.4942 5.19892 13.5461 5.13277C13.5979 5.06662 13.6623 5.01133 13.7355 4.97006C13.8087 4.92878 13.8893 4.90234 13.9728 4.89222C14.0562 4.88211 14.1408 4.88853 14.2218 4.91112C15.9368 5.39508 17.4507 6.41781 18.5399 7.82824C19.6543 9.26775 20.2563 11.0381 20.2503 12.8586C20.2506 13.5267 20.1701 14.1923 20.0106 14.841C19.9764 14.98 19.8966 15.1034 19.7841 15.1917C19.6715 15.28 19.5325 15.328 19.3895 15.3281Z" fill="#202020"/>
<path d="M12.0001 7.96802C11.4982 7.96809 11.0076 7.81931 10.5902 7.54052C10.1729 7.26172 9.84759 6.86542 9.65548 6.40174C9.46337 5.93806 9.41307 5.42783 9.51094 4.93556C9.60882 4.44329 9.85048 3.9911 10.2054 3.63618C10.5602 3.28126 11.0124 3.03955 11.5046 2.94161C11.9969 2.84367 12.5071 2.8939 12.9708 3.08596C13.4346 3.27801 13.8309 3.60326 14.1097 4.02058C14.3886 4.43789 14.5374 4.92852 14.5374 5.43042C14.5367 6.10315 14.2691 6.7481 13.7934 7.22382C13.3178 7.69954 12.6729 7.96718 12.0001 7.96802ZM12.0001 4.17314C11.7514 4.17308 11.5082 4.24679 11.3013 4.38495C11.0945 4.52312 10.9332 4.71952 10.838 4.94933C10.7428 5.17914 10.7179 5.43203 10.7664 5.67601C10.8149 5.91999 10.9347 6.1441 11.1106 6.32C11.2865 6.4959 11.5106 6.61568 11.7546 6.66419C11.9985 6.71271 12.2514 6.68778 12.4812 6.59255C12.711 6.49733 12.9075 6.33609 13.0456 6.12923C13.1838 5.92237 13.2575 5.67918 13.2574 5.43042C13.2575 5.0968 13.1251 4.77679 12.8894 4.54073C12.6536 4.30467 12.3338 4.17188 12.0001 4.17154V4.17314ZM18.507 19.0304C18.0051 19.0305 17.5145 18.8817 17.0971 18.6029C16.6798 18.3241 16.3545 17.9278 16.1624 17.4641C15.9702 17.0005 15.9199 16.4902 16.0178 15.998C16.1157 15.5057 16.3574 15.0535 16.7122 14.6986C17.0671 14.3437 17.5193 14.1019 18.0115 14.004C18.5038 13.9061 19.014 13.9563 19.4777 14.1484C19.9414 14.3404 20.3378 14.6657 20.6166 15.083C20.8955 15.5003 21.0443 15.9909 21.0443 16.4928C21.0435 17.1655 20.7759 17.8104 20.3002 18.2861C19.8246 18.7618 19.1797 19.0295 18.507 19.0304ZM18.507 15.2355C18.2583 15.2355 18.0151 15.3092 17.8082 15.4474C17.6014 15.5855 17.4401 15.7819 17.3449 16.0117C17.2497 16.2415 17.2247 16.4944 17.2733 16.7384C17.3218 16.9824 17.4415 17.2065 17.6174 17.3824C17.7933 17.5583 18.0175 17.6781 18.2614 17.7266C18.5054 17.7751 18.7583 17.7502 18.9881 17.655C19.2179 17.5597 19.4143 17.3985 19.5525 17.1916C19.6907 16.9848 19.7644 16.7416 19.7643 16.4928C19.7639 16.1595 19.6313 15.84 19.3956 15.6043C19.1599 15.3686 18.8403 15.236 18.507 15.2355ZM5.41902 19.0304C4.91712 19.0305 4.42647 18.8817 4.00912 18.6029C3.59177 18.3241 3.26647 17.9278 3.07436 17.4641C2.88225 17.0005 2.83195 16.4902 2.92982 15.998C3.0277 15.5057 3.26936 15.0535 3.62424 14.6986C3.97911 14.3437 4.43127 14.1019 4.92353 14.004C5.41578 13.9061 5.92602 13.9563 6.38973 14.1484C6.85343 14.3404 7.24977 14.6657 7.52862 15.083C7.80747 15.5003 7.9563 15.9909 7.9563 16.4928C7.95554 17.1655 7.68799 17.8105 7.21233 18.2862C6.73667 18.7619 6.09175 19.0296 5.41902 19.0304ZM5.41902 15.2355C5.17027 15.2355 4.92708 15.3092 4.72022 15.4474C4.51336 15.5855 4.35212 15.7819 4.2569 16.0117C4.16167 16.2415 4.13674 16.4944 4.18525 16.7384C4.23377 16.9824 4.35355 17.2065 4.52945 17.3824C4.70535 17.5583 4.92946 17.6781 5.17344 17.7266C5.41742 17.7751 5.67031 17.7502 5.90012 17.655C6.12992 17.5597 6.32633 17.3985 6.46449 17.1916C6.60266 16.9848 6.67637 16.7416 6.6763 16.4928C6.67597 16.1595 6.54339 15.8399 6.30768 15.6042C6.07197 15.3685 5.75237 15.2359 5.41902 15.2355Z" fill="#202020"/>
</svg>
