<svg width="24" height="24" viewBox="0 0 24 24" fill="none" xmlns="http://www.w3.org/2000/svg">
<path d="M6.39008 14.1523V11.0432" stroke="#202020" stroke-width="1.28069" stroke-linecap="round" stroke-linejoin="round"/>
<path d="M16.4481 11.0432V16.1574C16.4481 16.6502 16.2524 17.1229 15.904 17.4714C15.5556 17.8199 15.083 18.0158 14.5902 18.016H9.02411M7.65547 6.09982C7.20795 6.0992 6.77375 6.252 6.42524 6.53273C6.07673 6.81346 5.83497 7.20516 5.74027 7.64255L5.41003 9.16607C5.37362 9.33188 5.37485 9.50375 5.41365 9.66902C5.45244 9.8343 5.5278 9.98877 5.63418 10.1211C5.74057 10.2534 5.87527 10.3601 6.02837 10.4335C6.18146 10.5068 6.34906 10.5449 6.51883 10.5449H8.93387L9.63979 6.10207L7.65547 6.09982ZM15.1976 6.09982C15.6491 6.0994 16.0869 6.25509 16.4368 6.54049C16.7867 6.8259 17.0272 7.22349 17.1175 7.6659L17.4264 9.17983C17.4605 9.34491 17.4574 9.51552 17.4173 9.67927C17.3773 9.84302 17.3013 9.9958 17.1949 10.1265C17.0884 10.2572 16.9542 10.3626 16.8019 10.435C16.6497 10.5074 16.4832 10.5449 16.3147 10.5449H13.8827L13.1924 6.10271L15.1976 6.09982Z" stroke="#202020" stroke-width="1.28069" stroke-linecap="round" stroke-linejoin="round"/>
<path d="M9.6237 6.10269L8.93378 10.5449C9.71724 10.8737 10.5584 11.043 11.408 11.043C12.2577 11.043 13.0988 10.8737 13.8823 10.5449C13.6514 9.06397 13.4215 7.58323 13.1923 6.10269H9.6237Z" stroke="#202020" stroke-width="1.28069" stroke-linecap="round" stroke-linejoin="round"/>
<path d="M5.99461 20.1561C7.50601 20.1561 8.73125 18.9309 8.73125 17.4195C8.73125 15.9081 7.50601 14.6828 5.99461 14.6828C4.4832 14.6828 3.25797 15.9081 3.25797 17.4195C3.25797 18.9309 4.4832 20.1561 5.99461 20.1561Z" stroke="#202020" stroke-width="1.28069" stroke-linecap="round" stroke-linejoin="round"/>
<path d="M5.9982 16.592V18.3411" stroke="#202020" stroke-width="1.28069" stroke-linecap="round" stroke-linejoin="round"/>
<path d="M5.13708 17.4528H6.88651" stroke="#202020" stroke-width="1.28069" stroke-linecap="round" stroke-linejoin="round"/>
</svg>
