<svg width="24" height="24" viewBox="0 0 24 24" fill="none" xmlns="http://www.w3.org/2000/svg">
<path d="M16.4395 11.0432V16.1575C16.4395 16.4016 16.3914 16.6433 16.298 16.8688C16.2046 17.0943 16.0676 17.2992 15.895 17.4718C15.7224 17.6444 15.5175 17.7813 15.2919 17.8746C15.0664 17.968 14.8247 18.0161 14.5806 18.016H8.23917C7.74625 18.016 7.27351 17.8202 6.92497 17.4717C6.57642 17.1231 6.38061 16.6504 6.38061 16.1575V11.0432M7.64589 6.09986C7.19837 6.09923 6.76417 6.25203 6.41565 6.53276C6.06714 6.81349 5.82539 7.20519 5.73069 7.64258L5.40045 9.1661C5.36403 9.33191 5.36527 9.50378 5.40406 9.66905C5.44286 9.83433 5.51822 9.9888 5.6246 10.1211C5.73099 10.2534 5.86569 10.3601 6.01878 10.4335C6.17188 10.5069 6.33948 10.545 6.50925 10.545H8.92429L9.63021 6.1021L7.64589 6.09986ZM15.188 6.09986C15.6395 6.09944 16.0773 6.25512 16.4272 6.54052C16.7771 6.82593 17.0176 7.22352 17.108 7.66594L17.4168 9.17986C17.4509 9.34494 17.4478 9.51555 17.4078 9.6793C17.3677 9.84305 17.2917 9.99583 17.1853 10.1265C17.0788 10.2573 16.9446 10.3626 16.7924 10.435C16.6401 10.5074 16.4737 10.5449 16.3051 10.545H13.8731L13.1841 6.10274L15.188 6.09986Z" stroke="#202020" stroke-width="1.28069" stroke-linecap="round" stroke-linejoin="round"/>
<path d="M10.2804 18.016V15.0333C10.2805 14.7907 10.3769 14.558 10.5485 14.3865C10.72 14.215 10.9527 14.1187 11.1953 14.1187H11.9181C12.1606 14.1189 12.393 14.2154 12.5643 14.3869C12.7357 14.5584 12.832 14.7908 12.8321 15.0333V18.016M9.61414 6.10269L8.92422 10.5449C9.70769 10.8737 10.5488 11.043 11.3985 11.043C12.2481 11.043 13.0892 10.8737 13.8727 10.5449C13.6427 9.06397 13.4132 7.58322 13.1841 6.10269H9.61414Z" stroke="#202020" stroke-width="1.28069" stroke-linecap="round" stroke-linejoin="round"/>
</svg>
