<svg width="24" height="24" viewBox="0 0 24 24" fill="none" xmlns="http://www.w3.org/2000/svg">
<path d="M7.43301 14.0733V11.1143" stroke="#202020" stroke-width="1.28069" stroke-linecap="round" stroke-linejoin="round"/>
<path d="M17.4919 11.0432V16.1575C17.4919 16.4016 17.4438 16.6433 17.3504 16.8688C17.257 17.0943 17.12 17.2992 16.9474 17.4718C16.7748 17.6444 16.5699 17.7813 16.3443 17.8747C16.1188 17.968 15.8771 18.0161 15.633 18.016H10.1072M8.69829 6.09988C8.25097 6.0996 7.81705 6.25254 7.46876 6.53323C7.12047 6.81392 6.87882 7.20544 6.78405 7.64261L6.45413 9.16613C6.41771 9.33194 6.41895 9.50381 6.45774 9.66908C6.49654 9.83436 6.5719 9.98883 6.67828 10.1211C6.78467 10.2534 6.91937 10.3602 7.07246 10.4335C7.22556 10.5069 7.39316 10.545 7.56293 10.545H9.97797L10.6839 6.10213L8.69829 6.09988ZM16.2404 6.09988C16.6919 6.09946 17.1297 6.25515 17.4796 6.54055C17.8295 6.82596 18.07 7.22355 18.1604 7.66597L18.4692 9.17988C18.5033 9.34497 18.5002 9.51558 18.4602 9.67933C18.4201 9.84308 18.3441 9.99586 18.2377 10.1266C18.1312 10.2573 17.997 10.3627 17.8448 10.435C17.6925 10.5074 17.5261 10.545 17.3575 10.545H14.9255L14.2349 6.10277L16.2404 6.09988Z" stroke="#202020" stroke-width="1.28069" stroke-linecap="round" stroke-linejoin="round"/>
<path d="M10.6667 6.10272L9.97675 10.545C10.7602 10.8737 11.6013 11.043 12.451 11.043C13.3006 11.043 14.1418 10.8737 14.9252 10.545L14.235 6.10272H10.6667Z" stroke="#202020" stroke-width="1.28069" stroke-linecap="round" stroke-linejoin="round"/>
<path d="M7.03715 20.1562C8.54855 20.1562 9.77379 18.9309 9.77379 17.4195C9.77379 15.9081 8.54855 14.6829 7.03715 14.6829C5.52574 14.6829 4.30051 15.9081 4.30051 17.4195C4.30051 18.9309 5.52574 20.1562 7.03715 20.1562Z" stroke="#202020" stroke-width="1.28069" stroke-linecap="round" stroke-linejoin="round"/>
<path d="M6.1799 17.4528H7.92933" stroke="#202020" stroke-width="1.28069" stroke-linecap="round" stroke-linejoin="round"/>
</svg>
