<svg width="24" height="24" viewBox="0 0 24 24" fill="none" xmlns="http://www.w3.org/2000/svg">
<path d="M6.96801 20.4556C6.06022 20.4546 5.1899 20.0935 4.548 19.4516C3.90609 18.8097 3.54502 17.9394 3.54401 17.0316V6.96795C3.54401 6.05984 3.90475 5.18894 4.54687 4.54681C5.189 3.90469 6.05991 3.54395 6.96801 3.54395H17.032C17.9398 3.54496 18.8101 3.90603 19.452 4.54793C20.0939 5.18984 20.455 6.06016 20.456 6.96795V17.0319C20.456 17.94 20.0953 18.811 19.4531 19.4531C18.811 20.0952 17.9401 20.4559 17.032 20.4559L6.96801 20.4556ZM17.032 4.82427H6.96801C6.39938 4.82427 5.85405 5.05015 5.45197 5.45223C5.04989 5.85431 4.82401 6.39964 4.82401 6.96827V17.0323C4.82451 17.6007 5.05056 18.1458 5.45253 18.5477C5.8545 18.9497 6.39954 19.1758 6.96801 19.1763H17.032C17.3136 19.1763 17.5924 19.1208 17.8525 19.0131C18.1126 18.9053 18.349 18.7474 18.548 18.5483C18.7471 18.3492 18.9051 18.1129 19.0128 17.8527C19.1206 17.5926 19.176 17.3138 19.176 17.0323V6.96795C19.1753 6.39956 18.9492 5.85465 18.5473 5.45277C18.1453 5.05089 17.6004 4.82486 17.032 4.82427Z" fill="#202020"/>
<path d="M11.9187 12.6399H11.9117C11.8271 12.639 11.7436 12.6213 11.666 12.5879C11.5883 12.5545 11.518 12.5061 11.4592 12.4454L9.93183 10.869C9.81512 10.7469 9.75147 10.5835 9.75475 10.4146C9.75802 10.2456 9.82797 10.0848 9.94933 9.96729C10.0707 9.84973 10.2336 9.78493 10.4026 9.78703C10.5715 9.78913 10.7328 9.85795 10.8512 9.97849L11.9286 11.0905L13.1587 9.87449C13.2801 9.75842 13.4422 9.69471 13.6101 9.69709C13.778 9.69946 13.9383 9.76774 14.0563 9.8872C14.1743 10.0067 14.2407 10.1677 14.241 10.3357C14.2414 10.5036 14.1757 10.6649 14.0582 10.7849L12.3683 12.454C12.2488 12.5727 12.0872 12.6396 11.9187 12.6399ZM4.18431 17.6719C4.01457 17.6719 3.85179 17.6045 3.73176 17.4845C3.61174 17.3645 3.54431 17.2017 3.54431 17.0319C3.54431 16.8622 3.61174 16.6994 3.73176 16.5794C3.85179 16.4594 4.01457 16.3919 4.18431 16.3919H19.8157C19.9854 16.3919 20.1482 16.4594 20.2682 16.5794C20.3882 16.6994 20.4557 16.8622 20.4557 17.0319C20.4557 17.2017 20.3882 17.3645 20.2682 17.4845C20.1482 17.6045 19.9854 17.6719 19.8157 17.6719H4.18431Z" fill="#202020"/>
</svg>
