<svg width="24" height="24" viewBox="0 0 24 24" fill="none" xmlns="http://www.w3.org/2000/svg">
<path d="M6.96807 20.4557C6.06028 20.4547 5.18996 20.0937 4.54806 19.4518C3.90615 18.8099 3.54508 17.9395 3.54407 17.0317V6.96807C3.54508 6.06028 3.90615 5.18996 4.54806 4.54806C5.18996 3.90615 6.06028 3.54508 6.96807 3.54407H17.0321C17.9399 3.54508 18.8102 3.90615 19.4521 4.54806C20.094 5.18996 20.4551 6.06028 20.4561 6.96807V17.0321C20.4551 17.9399 20.094 18.8102 19.4521 19.4521C18.8102 20.094 17.9399 20.4551 17.0321 20.4561L6.96807 20.4557ZM17.0321 4.82439H6.96807C6.3996 4.8249 5.85456 5.05094 5.45259 5.45291C5.05062 5.85488 4.82458 6.39992 4.82407 6.96839V17.0324C4.82458 17.6009 5.05062 18.1459 5.45259 18.5479C5.85456 18.9498 6.3996 19.1759 6.96807 19.1764H17.0321C17.6005 19.1759 18.1456 18.9498 18.5475 18.5479C18.9495 18.1459 19.1756 17.6009 19.1761 17.0324V6.96807C19.1755 6.39965 18.9494 5.8547 18.5474 5.4528C18.1455 5.0509 17.6005 4.8249 17.0321 4.82439Z" fill="#202020"/>
<path d="M10.4237 14.2483C10.2963 14.2483 10.1719 14.2102 10.0662 14.139C9.96061 14.0677 9.87865 13.9666 9.83084 13.8485C9.78304 13.7304 9.77156 13.6007 9.79789 13.4761C9.82421 13.3515 9.88714 13.2375 9.97861 13.1488L11.0906 12.0714L9.87461 10.8413C9.75854 10.7199 9.69483 10.5578 9.69721 10.3899C9.69959 10.222 9.76787 10.0617 9.88732 9.94371C10.0068 9.82568 10.1678 9.75933 10.3358 9.75897C10.5037 9.75861 10.665 9.82427 10.785 9.94178L12.4541 11.6317C12.5135 11.6919 12.5604 11.7632 12.5921 11.8416C12.6237 11.9199 12.6396 12.0038 12.6387 12.0883C12.6377 12.1729 12.6201 12.2564 12.5867 12.334C12.5533 12.4117 12.5049 12.482 12.4442 12.5408L10.8679 14.0679C10.749 14.1835 10.5896 14.2483 10.4237 14.2483ZM17.032 20.4557C16.8623 20.4557 16.6995 20.3883 16.5795 20.2683C16.4595 20.1482 16.392 19.9854 16.392 19.8157V4.18434C16.392 4.0146 16.4595 3.85182 16.5795 3.73179C16.6995 3.61177 16.8623 3.54434 17.032 3.54434C17.2018 3.54434 17.3646 3.61177 17.4846 3.73179C17.6046 3.85182 17.672 4.0146 17.672 4.18434V19.8157C17.672 19.9854 17.6046 20.1482 17.4846 20.2683C17.3646 20.3883 17.2018 20.4557 17.032 20.4557Z" fill="#202020"/>
</svg>
