<svg width="24" height="24" viewBox="0 0 24 24" fill="none" xmlns="http://www.w3.org/2000/svg">
<path d="M6.96801 20.4556C6.06022 20.4546 5.1899 20.0935 4.548 19.4516C3.90609 18.8097 3.54502 17.9394 3.54401 17.0316V6.96795C3.54502 6.06016 3.90609 5.18984 4.548 4.54793C5.1899 3.90603 6.06022 3.54496 6.96801 3.54395H17.032C17.9398 3.54496 18.8101 3.90603 19.452 4.54793C20.0939 5.18984 20.455 6.06016 20.456 6.96795V17.0319C20.455 17.9397 20.0939 18.8101 19.452 19.452C18.8101 20.0939 17.9398 20.4549 17.032 20.4559L6.96801 20.4556ZM17.032 4.82427H6.96801C6.39954 4.82477 5.8545 5.05082 5.45253 5.45279C5.05056 5.85476 4.82451 6.3998 4.82401 6.96827V17.0323C4.82451 17.6007 5.05056 18.1458 5.45253 18.5477C5.8545 18.9497 6.39954 19.1758 6.96801 19.1763H17.032C17.6005 19.1758 18.1455 18.9497 18.5475 18.5477C18.9494 18.1458 19.1755 17.6007 19.176 17.0323V6.96795C19.1754 6.39953 18.9493 5.85458 18.5474 5.45268C18.1454 5.05078 17.6004 4.82477 17.032 4.82427Z" fill="#202020"/>
<path d="M10.4237 14.2482C10.2963 14.2481 10.1718 14.21 10.0662 14.1388C9.96055 14.0676 9.87859 13.9664 9.83078 13.8483C9.78298 13.7303 9.7715 13.6006 9.79783 13.4759C9.82415 13.3513 9.88708 13.2373 9.97855 13.1487L11.0905 12.0712L9.87455 10.8411C9.75848 10.7198 9.69477 10.5577 9.69715 10.3897C9.69953 10.2218 9.76781 10.0616 9.88726 9.94355C10.0067 9.82552 10.1678 9.75917 10.3357 9.75881C10.5036 9.75845 10.665 9.82411 10.7849 9.94163L12.4541 11.6315C12.5135 11.6917 12.5603 11.763 12.592 11.8414C12.6237 11.9198 12.6395 12.0036 12.6386 12.0882C12.6377 12.1727 12.62 12.2562 12.5866 12.3339C12.5533 12.4115 12.5048 12.4818 12.4441 12.5407L10.8678 14.0677C10.7489 14.1834 10.5896 14.2481 10.4237 14.2482ZM17.032 20.4555C16.8622 20.4555 16.6995 20.3881 16.5794 20.2681C16.4594 20.1481 16.392 19.9853 16.392 19.8155V4.18419C16.392 4.01445 16.4594 3.85166 16.5794 3.73164C16.6995 3.61162 16.8622 3.54419 17.032 3.54419C17.2017 3.54419 17.3645 3.61162 17.4845 3.73164C17.6046 3.85166 17.672 4.01445 17.672 4.18419V19.8155C17.672 19.9853 17.6046 20.1481 17.4845 20.2681C17.3645 20.3881 17.2017 20.4555 17.032 20.4555Z" fill="#202020"/>
</svg>
