<svg width="24" height="24" viewBox="0 0 24 24" fill="none" xmlns="http://www.w3.org/2000/svg">
<path d="M17.032 20.4556H6.96801C6.06022 20.4546 5.1899 20.0935 4.548 19.4516C3.90609 18.8097 3.54502 17.9394 3.54401 17.0316V6.96795C3.54502 6.06016 3.90609 5.18984 4.548 4.54793C5.1899 3.90603 6.06022 3.54496 6.96801 3.54395H17.032C17.9398 3.54496 18.8101 3.90603 19.452 4.54793C20.0939 5.18984 20.455 6.06016 20.456 6.96795V17.0319C20.4549 17.9397 20.0938 18.8099 19.4519 19.4518C18.81 20.0936 17.9397 20.4546 17.032 20.4556ZM6.96801 4.82427C6.39954 4.82477 5.8545 5.05082 5.45253 5.45279C5.05056 5.85476 4.82451 6.3998 4.82401 6.96827V17.0323C4.82451 17.6007 5.05056 18.1458 5.45253 18.5477C5.8545 18.9497 6.39954 19.1758 6.96801 19.1763H17.032C17.6005 19.1758 18.1455 18.9497 18.5475 18.5477C18.9494 18.1458 19.1755 17.6007 19.176 17.0323V6.96795C19.1755 6.39948 18.9494 5.85444 18.5475 5.45247C18.1455 5.0505 17.6005 4.82445 17.032 4.82395L6.96801 4.82427Z" fill="#202020"/>
<path d="M13.5763 14.2482C13.41 14.2485 13.2501 14.1837 13.1309 14.0677L11.5546 12.5407C11.4939 12.4818 11.4454 12.4115 11.4121 12.3339C11.3787 12.2562 11.361 12.1727 11.3601 12.0882C11.3592 12.0036 11.375 11.9198 11.4067 11.8414C11.4384 11.763 11.4853 11.6917 11.5446 11.6315L13.2138 9.94163C13.3337 9.82411 13.4951 9.75845 13.663 9.75881C13.8309 9.75917 13.992 9.82552 14.1114 9.94355C14.2309 10.0616 14.2992 10.2218 14.3016 10.3897C14.3039 10.5577 14.2402 10.7198 14.1242 10.8411L12.9082 12.0712L14.0202 13.1487C14.1116 13.2373 14.1746 13.3513 14.2009 13.4759C14.2272 13.6006 14.2157 13.7303 14.1679 13.8483C14.1201 13.9664 14.0382 14.0676 13.9325 14.1388C13.8269 14.21 13.7024 14.2481 13.575 14.2482H13.5763ZM6.968 20.4555C6.79826 20.4555 6.63548 20.3881 6.51545 20.2681C6.39543 20.1481 6.328 19.9853 6.328 19.8155V4.18419C6.328 4.01445 6.39543 3.85166 6.51545 3.73164C6.63548 3.61162 6.79826 3.54419 6.968 3.54419C7.13774 3.54419 7.30053 3.61162 7.42055 3.73164C7.54057 3.85166 7.608 4.01445 7.608 4.18419V19.8155C7.608 19.9853 7.54057 20.1481 7.42055 20.2681C7.30053 20.3881 7.13774 20.4555 6.968 20.4555Z" fill="#202020"/>
</svg>
