<svg width="24" height="24" viewBox="0 0 24 24" fill="none" xmlns="http://www.w3.org/2000/svg">
<path d="M17.0321 20.4557H6.96807C6.06028 20.4547 5.18996 20.0937 4.54806 19.4518C3.90615 18.8099 3.54508 17.9395 3.54407 17.0317V6.96807C3.54508 6.06028 3.90615 5.18996 4.54806 4.54806C5.18996 3.90615 6.06028 3.54508 6.96807 3.54407H17.0321C17.9399 3.54508 18.8102 3.90615 19.4521 4.54806C20.094 5.18996 20.4551 6.06028 20.4561 6.96807V17.0321C20.455 17.9398 20.0939 18.81 19.452 19.4519C18.8101 20.0937 17.9398 20.4547 17.0321 20.4557ZM6.96807 4.82439C6.3996 4.8249 5.85456 5.05094 5.45259 5.45291C5.05062 5.85488 4.82458 6.39992 4.82407 6.96839V17.0324C4.82458 17.6009 5.05062 18.1459 5.45259 18.5479C5.85456 18.9498 6.3996 19.1759 6.96807 19.1764H17.0321C17.6005 19.1759 18.1456 18.9498 18.5475 18.5479C18.9495 18.1459 19.1756 17.6009 19.1761 17.0324V6.96807C19.1756 6.3996 18.9495 5.85456 18.5475 5.45259C18.1456 5.05062 17.6005 4.82458 17.0321 4.82407L6.96807 4.82439Z" fill="#202020"/>
<path d="M13.5763 14.2483C13.41 14.2486 13.2501 14.1838 13.1309 14.0679L11.5546 12.5408C11.4939 12.482 11.4454 12.4117 11.4121 12.334C11.3787 12.2564 11.361 12.1729 11.3601 12.0883C11.3592 12.0038 11.375 11.9199 11.4067 11.8416C11.4384 11.7632 11.4853 11.6919 11.5446 11.6317L13.2138 9.94178C13.3337 9.82427 13.4951 9.75861 13.663 9.75897C13.8309 9.75933 13.992 9.82568 14.1114 9.94371C14.2309 10.0617 14.2992 10.222 14.3016 10.3899C14.3039 10.5578 14.2402 10.7199 14.1242 10.8413L12.9082 12.0714L14.0202 13.1488C14.1116 13.2375 14.1746 13.3515 14.2009 13.4761C14.2272 13.6007 14.2157 13.7304 14.1679 13.8485C14.1201 13.9666 14.0382 14.0677 13.9325 14.139C13.8269 14.2102 13.7024 14.2483 13.575 14.2483H13.5763ZM6.968 20.4557C6.79826 20.4557 6.63548 20.3883 6.51545 20.2683C6.39543 20.1482 6.328 19.9854 6.328 19.8157V4.18434C6.328 4.0146 6.39543 3.85182 6.51545 3.73179C6.63548 3.61177 6.79826 3.54434 6.968 3.54434C7.13774 3.54434 7.30053 3.61177 7.42055 3.73179C7.54057 3.85182 7.608 4.0146 7.608 4.18434V19.8157C7.608 19.9854 7.54057 20.1482 7.42055 20.2683C7.30053 20.3883 7.13774 20.4557 6.968 20.4557Z" fill="#202020"/>
</svg>
