<svg width="24" height="24" viewBox="0 0 24 24" fill="none" xmlns="http://www.w3.org/2000/svg">
<path d="M15.9439 16.5373H15.1759C15.0062 16.5373 14.8434 16.4699 14.7234 16.3498C14.6033 16.2298 14.5359 16.067 14.5359 15.8973C14.5359 15.7276 14.6033 15.5648 14.7234 15.4447C14.8434 15.3247 15.0062 15.2573 15.1759 15.2573H15.9439C16.2286 15.257 16.5016 15.1439 16.7029 14.9426C16.9042 14.7413 17.0175 14.4684 17.0178 14.1837V8.10561L14.9036 5.80609H10.7404C10.4557 5.80643 10.1827 5.91968 9.98139 6.12101C9.78007 6.32234 9.66681 6.5953 9.66647 6.88001V7.88801C9.66647 8.05775 9.59905 8.22054 9.47902 8.34056C9.359 8.46058 9.19621 8.52801 9.02647 8.52801C8.85674 8.52801 8.69395 8.46058 8.57393 8.34056C8.4539 8.22054 8.38647 8.05775 8.38647 7.88801V6.88001C8.38715 6.25592 8.63537 5.65759 9.07667 5.21629C9.51797 4.77499 10.1163 4.52677 10.7404 4.52609H14.9276C15.0971 4.5263 15.2647 4.56157 15.4199 4.6297C15.5751 4.69782 15.7145 4.79732 15.8294 4.92193L17.9734 7.25505C18.1815 7.48097 18.2969 7.777 18.2966 8.08417V14.1837C18.2958 14.8075 18.0477 15.4056 17.6067 15.8468C17.1657 16.288 16.5677 16.5363 15.9439 16.5373Z" fill="#202020"/>
<path d="M13.2596 19.4739H8.05607C7.43198 19.4733 6.83364 19.225 6.39234 18.7837C5.95104 18.3424 5.70283 17.7441 5.70215 17.12V9.81634C5.70291 9.1923 5.95117 8.59405 6.39246 8.15282C6.83375 7.71159 7.43203 7.46342 8.05607 7.46274H12.2433C12.4127 7.46285 12.5803 7.49805 12.7354 7.56612C12.8905 7.6342 13.0299 7.73366 13.1447 7.85826L15.2903 10.1914C15.4983 10.4174 15.6137 10.7133 15.6135 11.0205V17.12C15.6128 17.7441 15.3646 18.3424 14.9233 18.7837C14.482 19.225 13.8837 19.4733 13.2596 19.4739ZM8.05607 8.74274C7.77138 8.74299 7.49842 8.85617 7.29709 9.05745C7.09575 9.25872 6.98249 9.53165 6.98215 9.81634V17.12C6.98249 17.4047 7.09574 17.6777 7.29707 17.879C7.49839 18.0803 7.77135 18.1936 8.05607 18.1939H13.2596C13.5443 18.1936 13.8173 18.0803 14.0186 17.879C14.2199 17.6777 14.3332 17.4047 14.3335 17.12V11.0419L12.2189 8.74274H8.05607Z" fill="#202020"/>
</svg>
