<svg width="24" height="24" viewBox="0 0 24 24" fill="none" xmlns="http://www.w3.org/2000/svg">
<path d="M15.944 16.5373H15.176C15.0063 16.5373 14.8435 16.4698 14.7235 16.3498C14.6035 16.2298 14.536 16.067 14.536 15.8973C14.536 15.7275 14.6035 15.5647 14.7235 15.4447C14.8435 15.3247 15.0063 15.2573 15.176 15.2573H15.944C16.2287 15.257 16.5017 15.1438 16.703 14.9425C16.9044 14.7413 17.0176 14.4683 17.018 14.1837V8.10558L14.9037 5.80606H10.7405C10.4558 5.8064 10.1828 5.91965 9.98152 6.12098C9.78019 6.32231 9.66694 6.59526 9.6666 6.87998V7.88798C9.6666 8.05772 9.59917 8.22051 9.47915 8.34053C9.35912 8.46055 9.19634 8.52798 9.0266 8.52798C8.85686 8.52798 8.69407 8.46055 8.57405 8.34053C8.45403 8.22051 8.3866 8.05772 8.3866 7.88798V6.87998C8.38727 6.25589 8.63549 5.65756 9.07679 5.21626C9.51809 4.77496 10.1164 4.52674 10.7405 4.52606H14.9277C15.0972 4.52627 15.2648 4.56154 15.42 4.62967C15.5752 4.69779 15.7146 4.79729 15.8295 4.9219L17.9735 7.25502C18.1816 7.48094 18.297 7.77697 18.2967 8.08414V14.1837C18.2959 14.8075 18.0478 15.4055 17.6068 15.8467C17.1658 16.2879 16.5679 16.5362 15.944 16.5373Z" fill="#202020"/>
<path d="M13.2595 19.4739H8.05595C7.43186 19.4732 6.83352 19.225 6.39222 18.7837C5.95092 18.3424 5.7027 17.7441 5.70203 17.12V9.81631C5.70279 9.19227 5.95105 8.59402 6.39233 8.15279C6.83362 7.71156 7.43191 7.46338 8.05595 7.46271H12.2431C12.4126 7.46282 12.5801 7.49802 12.7353 7.56609C12.8904 7.63417 13.0298 7.73363 13.1446 7.85823L15.2902 10.1913C15.4982 10.4173 15.6136 10.7133 15.6134 11.0205V17.12C15.6127 17.7441 15.3645 18.3424 14.9232 18.7837C14.4819 19.225 13.8836 19.4732 13.2595 19.4739ZM8.05595 8.74271C7.77126 8.74296 7.4983 8.85614 7.29696 9.05742C7.09563 9.25869 6.98237 9.53162 6.98203 9.81631V17.12C6.98237 17.4047 7.09562 17.6777 7.29694 17.879C7.49827 18.0803 7.77123 18.1936 8.05595 18.1939H13.2595C13.5442 18.1936 13.8171 18.0803 14.0185 17.879C14.2198 17.6777 14.333 17.4047 14.3334 17.12V11.0419L12.2188 8.74271H8.05595Z" fill="#202020"/>
</svg>
