<svg width="24" height="24" viewBox="0 0 24 24" fill="none" xmlns="http://www.w3.org/2000/svg">
<path d="M8.5 15C7.39545 15 6.5 15.8954 6.5 17C6.5 18.1046 7.39545 19 8.5 19C9.60406 18.9987 10.4987 18.1041 10.5 17C10.5 15.8954 9.60455 15 8.5 15ZM8.5 18C7.94769 18 7.5 17.5523 7.5 17C7.5 16.4477 7.94769 16 8.5 16C9.05206 16.0005 9.49945 16.4479 9.5 17C9.5 17.5523 9.05231 18 8.5 18ZM8.5 10C7.39545 10 6.5 10.8954 6.5 12C6.5 13.1046 7.39545 14 8.5 14C9.60406 13.9987 10.4987 13.1041 10.5 12C10.5 10.8954 9.60455 10 8.5 10ZM8.5 13C7.94769 13 7.5 12.5523 7.5 12C7.5 11.4477 7.94769 11 8.5 11C9.05206 11.0005 9.49945 11.4479 9.5 12C9.5 12.5523 9.05231 13 8.5 13ZM15.5 15C14.3954 15 13.5 15.8954 13.5 17C13.5 18.1046 14.3954 19 15.5 19C16.604 18.9986 17.4986 18.104 17.5 17C17.5 15.8954 16.6046 15 15.5 15ZM15.5 18C14.9477 18 14.5 17.5523 14.5 17C14.5 16.4477 14.9477 16 15.5 16C16.0521 16.0004 16.4996 16.4479 16.5 17C16.5 17.5523 16.0523 18 15.5 18ZM15.5 5C14.3954 5 13.5 5.89545 13.5 7C13.5 8.10455 14.3954 9 15.5 9C16.604 8.9986 17.4986 8.104 17.5 7C17.5 5.89545 16.6046 5 15.5 5ZM15.5 8C14.9477 8 14.5 7.55231 14.5 7C14.5 6.44769 14.9477 6 15.5 6C16.0521 6.00037 16.4996 6.44788 16.5 7C16.5 7.55231 16.0523 8 15.5 8ZM17 2H7C4.23993 2.00323 2.00323 4.23993 2 7V17C2.00323 19.7601 4.23993 21.9968 7 22H17C19.7601 21.9968 21.9968 19.7601 22 17V7C21.9968 4.23993 19.7601 2.00323 17 2ZM21 17C20.9978 19.2083 19.2083 20.9978 17 21H7C4.79181 20.9976 3.00238 19.2082 3 17V7C3.00238 4.79181 4.79181 3.00238 7 3H17C19.2083 3.0022 20.9978 4.79175 21 7V17ZM15.5 10C14.3954 10 13.5 10.8954 13.5 12C13.5 13.1046 14.3954 14 15.5 14C16.604 13.9986 17.4986 13.104 17.5 12C17.5 10.8954 16.6046 10 15.5 10ZM15.5 13C14.9477 13 14.5 12.5523 14.5 12C14.5 11.4477 14.9477 11 15.5 11C16.0521 11.0004 16.4996 11.4479 16.5 12C16.5 12.5523 16.0523 13 15.5 13ZM8.5 5C7.39545 5 6.5 5.89545 6.5 7C6.5 8.10455 7.39545 9 8.5 9C9.60406 8.99872 10.4987 8.10406 10.5 7C10.5 5.89545 9.60455 5 8.5 5ZM8.5 8C7.94769 8 7.5 7.55231 7.5 7C7.5 6.44769 7.94769 6 8.5 6C9.05206 6.00055 9.49945 6.44794 9.5 7C9.5 7.55231 9.05231 8 8.5 8Z" fill="#202020"/>
</svg>
