<svg width="24" height="24" viewBox="0 0 24 24" fill="none" xmlns="http://www.w3.org/2000/svg">
<path d="M15.9512 19.6836H7.90127C7.34114 19.6825 6.80429 19.4594 6.4084 19.0631C6.0125 18.6669 5.78986 18.1298 5.78927 17.5697V5.97223C5.79028 5.4124 6.01312 4.8758 6.40898 4.47994C6.80484 4.08408 7.34144 3.86124 7.90127 3.86023H15.9512C16.5116 3.86082 17.0489 4.08368 17.4452 4.47992C17.8415 4.87616 18.0644 5.41342 18.0651 5.97383V17.5697C18.0644 18.1301 17.8415 18.6674 17.4452 19.0637C17.0489 19.46 16.5116 19.6829 15.9512 19.6836ZM7.90127 5.13863C7.68082 5.1393 7.46959 5.22718 7.3137 5.38306C7.15782 5.53895 7.06994 5.75018 7.06927 5.97063V17.5697C7.06952 17.7904 7.1572 18.0021 7.31312 18.1584C7.46904 18.3147 7.68051 18.4028 7.90127 18.4036H15.9512C16.1723 18.4033 16.3842 18.3154 16.5406 18.1591C16.6969 18.0027 16.7849 17.7908 16.7851 17.5697V5.97223C16.7843 5.75147 16.6962 5.54 16.5399 5.38408C16.3836 5.22816 16.1719 5.14048 15.9512 5.14023L7.90127 5.13863ZM3.44591 18.4641C3.27617 18.4641 3.11338 18.3966 2.99336 18.2766C2.87334 18.1566 2.80591 17.9938 2.80591 17.8241V5.71751C2.80591 5.54777 2.87334 5.38498 2.99336 5.26496C3.11338 5.14494 3.27617 5.07751 3.44591 5.07751C3.61565 5.07751 3.77843 5.14494 3.89846 5.26496C4.01848 5.38498 4.08591 5.54777 4.08591 5.71751V17.8241C4.08591 17.9938 4.01848 18.1566 3.89846 18.2766C3.77843 18.3966 3.61565 18.4641 3.44591 18.4641ZM20.4161 18.4641C20.2464 18.4641 20.0836 18.3966 19.9636 18.2766C19.8436 18.1566 19.7761 17.9938 19.7761 17.8241V5.71751C19.7761 5.63346 19.7927 5.55024 19.8249 5.47259C19.857 5.39494 19.9042 5.32439 19.9636 5.26496C20.023 5.20553 20.0936 5.15839 20.1712 5.12623C20.2489 5.09406 20.3321 5.07751 20.4161 5.07751C20.5002 5.07751 20.5834 5.09406 20.6611 5.12623C20.7387 5.15839 20.8093 5.20553 20.8687 5.26496C20.9281 5.32439 20.9753 5.39494 21.0074 5.47259C21.0396 5.55024 21.0561 5.63346 21.0561 5.71751V17.8241C21.0561 17.9938 20.9887 18.1566 20.8687 18.2766C20.7487 18.3966 20.5859 18.4641 20.4161 18.4641Z" fill="#202020"/>
<path d="M17.425 15.728H6.4276C6.25786 15.728 6.09507 15.6606 5.97505 15.5405C5.85503 15.4205 5.7876 15.2577 5.7876 15.088C5.7876 14.9183 5.85503 14.7555 5.97505 14.6354C6.09507 14.5154 6.25786 14.448 6.4276 14.448H17.425C17.5948 14.448 17.7576 14.5154 17.8776 14.6354C17.9976 14.7555 18.065 14.9183 18.065 15.088C18.065 15.2577 17.9976 15.4205 17.8776 15.5405C17.7576 15.6606 17.5948 15.728 17.425 15.728Z" fill="#202020"/>
</svg>
