<svg width="24" height="24" viewBox="0 0 24 24" fill="none" xmlns="http://www.w3.org/2000/svg">
<path d="M15.951 19.6835H7.90108C7.34095 19.6824 6.80411 19.4592 6.40821 19.063C6.01232 18.6667 5.78968 18.1297 5.78908 17.5695V5.97211C5.7901 5.41228 6.01294 4.87568 6.4088 4.47982C6.80465 4.08396 7.34126 3.86112 7.90108 3.86011H15.951C16.5114 3.8607 17.0487 4.08356 17.445 4.4798C17.8413 4.87604 18.0642 5.4133 18.0649 5.97371V17.5695C18.0642 18.13 17.8413 18.6673 17.445 19.0636C17.0487 19.4599 16.5114 19.6828 15.951 19.6835ZM7.90108 5.13851C7.68063 5.13918 7.4694 5.22706 7.31352 5.38294C7.15763 5.53882 7.06976 5.75006 7.06909 5.97051V17.5695C7.06934 17.7903 7.15701 18.002 7.31293 18.1583C7.46886 18.3145 7.68033 18.4027 7.90108 18.4035H15.951C16.1721 18.4032 16.3841 18.3153 16.5404 18.1589C16.6967 18.0026 16.7847 17.7906 16.7849 17.5695V5.97211C16.7842 5.75135 16.696 5.53988 16.5397 5.38396C16.3834 5.22804 16.1718 5.14036 15.951 5.14011L7.90108 5.13851ZM3.44573 18.4639C3.27599 18.4639 3.1132 18.3965 2.99318 18.2765C2.87315 18.1565 2.80573 17.9937 2.80573 17.8239V5.71739C2.80573 5.54765 2.87315 5.38486 2.99318 5.26484C3.1132 5.14482 3.27599 5.07739 3.44573 5.07739C3.61546 5.07739 3.77825 5.14482 3.89827 5.26484C4.0183 5.38486 4.08573 5.54765 4.08573 5.71739V17.8239C4.08573 17.9937 4.0183 18.1565 3.89827 18.2765C3.77825 18.3965 3.61546 18.4639 3.44573 18.4639ZM20.416 18.4639C20.2462 18.4639 20.0834 18.3965 19.9634 18.2765C19.8434 18.1565 19.776 17.9937 19.776 17.8239V5.71739C19.776 5.63334 19.7925 5.55012 19.8247 5.47247C19.8568 5.39482 19.904 5.32427 19.9634 5.26484C20.0228 5.20541 20.0934 5.15827 20.171 5.1261C20.2487 5.09394 20.3319 5.07739 20.416 5.07739C20.5 5.07739 20.5832 5.09394 20.6609 5.1261C20.7385 5.15827 20.8091 5.20541 20.8685 5.26484C20.9279 5.32427 20.9751 5.39482 21.0072 5.47247C21.0394 5.55012 21.056 5.63334 21.056 5.71739V17.8239C21.056 17.9937 20.9885 18.1565 20.8685 18.2765C20.7485 18.3965 20.5857 18.4639 20.416 18.4639Z" fill="#202020"/>
<path d="M17.4246 15.7282H6.42711C6.25737 15.7282 6.09458 15.6608 5.97456 15.5408C5.85454 15.4208 5.78711 15.258 5.78711 15.0882C5.78711 14.9185 5.85454 14.7557 5.97456 14.6357C6.09458 14.5157 6.25737 14.4482 6.42711 14.4482H17.4246C17.5943 14.4482 17.7571 14.5157 17.8771 14.6357C17.9971 14.7557 18.0646 14.9185 18.0646 15.0882C18.0646 15.258 17.9971 15.4208 17.8771 15.5408C17.7571 15.6608 17.5943 15.7282 17.4246 15.7282Z" fill="#202020"/>
</svg>
