<svg width="24" height="24" viewBox="0 0 24 24" fill="none" xmlns="http://www.w3.org/2000/svg">
<path d="M14.6944 20.4236H8.82596C8.27065 20.4229 7.73827 20.202 7.34563 19.8093C6.95299 19.4166 6.73216 18.8842 6.73156 18.3289V5.60697C6.73156 5.0515 6.95222 4.51879 7.345 4.12601C7.73777 3.73323 8.27049 3.51257 8.82596 3.51257H14.6948C15.25 3.51325 15.7823 3.73413 16.175 4.12676C16.5676 4.51939 16.7885 5.05171 16.7892 5.60697V18.3292C16.7892 18.6043 16.735 18.8767 16.6297 19.1308C16.5244 19.3849 16.3701 19.6158 16.1756 19.8103C15.9811 20.0048 15.7502 20.159 15.496 20.2643C15.2419 20.3695 14.9695 20.4237 14.6944 20.4236ZM8.82596 4.79257C8.60997 4.79257 8.40282 4.87838 8.25009 5.03111C8.09736 5.18384 8.01156 5.39098 8.01156 5.60697V18.3289C8.01182 18.5448 8.09769 18.7519 8.25036 18.9046C8.40302 19.0573 8.61002 19.1433 8.82596 19.1436H14.6944C14.9104 19.1435 15.1176 19.0577 15.2703 18.905C15.4231 18.7523 15.509 18.5452 15.5092 18.3292V5.60697C15.5089 5.39106 15.423 5.18406 15.2703 5.03139C15.1177 4.87871 14.9107 4.79283 14.6948 4.79257H8.82596ZM19.0292 18.7068C18.8594 18.7068 18.6966 18.6394 18.5766 18.5194C18.4566 18.3993 18.3892 18.2366 18.3892 18.0668V5.86905C18.3892 5.69932 18.4566 5.53653 18.5766 5.41651C18.6966 5.29648 18.8594 5.22905 19.0292 5.22905C19.1989 5.22905 19.3617 5.29648 19.4817 5.41651C19.6017 5.53653 19.6692 5.69932 19.6692 5.86905V18.0668C19.6692 18.2366 19.6017 18.3993 19.4817 18.5194C19.3617 18.6394 19.1989 18.7068 19.0292 18.7068ZM4.49156 18.7068C4.32182 18.7068 4.15904 18.6394 4.03901 18.5194C3.91899 18.3993 3.85156 18.2366 3.85156 18.0668V5.86905C3.85156 5.69932 3.91899 5.53653 4.03901 5.41651C4.15904 5.29648 4.32182 5.22905 4.49156 5.22905C4.6613 5.22905 4.82409 5.29648 4.94411 5.41651C5.06413 5.53653 5.13156 5.69932 5.13156 5.86905V18.0668C5.13156 18.2366 5.06413 18.3993 4.94411 18.5194C4.82409 18.6394 4.6613 18.7068 4.49156 18.7068Z" fill="#202020"/>
</svg>
