<svg width="24" height="24" viewBox="0 0 24 24" fill="none" xmlns="http://www.w3.org/2000/svg">
<path d="M11.7049 19.2341C11.5352 19.2341 11.3724 19.1667 11.2524 19.0467C11.1324 18.9266 11.0649 18.7638 11.0649 18.5941V5.40563C11.0649 5.23589 11.1324 5.0731 11.2524 4.95308C11.3724 4.83305 11.5352 4.76563 11.7049 4.76562C11.8747 4.76563 12.0375 4.83305 12.1575 4.95308C12.2775 5.0731 12.3449 5.23589 12.3449 5.40563V18.5941C12.3449 18.6782 12.3284 18.7614 12.2962 18.839C12.2641 18.9167 12.2169 18.9872 12.1575 19.0467C12.0981 19.1061 12.0275 19.1532 11.9499 19.1854C11.8722 19.2176 11.789 19.2341 11.7049 19.2341ZM15.8137 18.172C15.644 18.172 15.4812 18.1046 15.3612 17.9846C15.2412 17.8646 15.1737 17.7018 15.1737 17.532V6.46771C15.1737 6.29797 15.2412 6.13518 15.3612 6.01516C15.4812 5.89513 15.644 5.82771 15.8137 5.82771C15.9835 5.82771 16.1463 5.89513 16.2663 6.01516C16.3863 6.13518 16.4537 6.29797 16.4537 6.46771V17.532C16.4537 17.6161 16.4372 17.6993 16.405 17.7769C16.3729 17.8546 16.3257 17.9251 16.2663 17.9846C16.2069 18.044 16.1363 18.0911 16.0587 18.1233C15.981 18.1555 15.8978 18.172 15.8137 18.172ZM19.9225 16.6879C19.7528 16.6879 19.59 16.6204 19.47 16.5004C19.35 16.3804 19.2825 16.2176 19.2825 16.0479V7.95187C19.2825 7.78213 19.35 7.61934 19.47 7.49932C19.59 7.37929 19.7528 7.31187 19.9225 7.31187C20.0923 7.31187 20.2551 7.37929 20.3751 7.49932C20.4951 7.61934 20.5625 7.78213 20.5625 7.95187V16.0479C20.5625 16.2176 20.4951 16.3804 20.3751 16.5004C20.2551 16.6204 20.0923 16.6879 19.9225 16.6879ZM3.48766 16.6879C3.31792 16.6879 3.15513 16.6204 3.03511 16.5004C2.91508 16.3804 2.84766 16.2176 2.84766 16.0479V7.95187C2.84766 7.78213 2.91508 7.61934 3.03511 7.49932C3.15513 7.37929 3.31792 7.31187 3.48766 7.31187C3.65739 7.31187 3.82018 7.37929 3.9402 7.49932C4.06023 7.61934 4.12766 7.78213 4.12766 7.95187V16.0479C4.12766 16.2176 4.06023 16.3804 3.9402 16.5004C3.82018 16.6204 3.65739 16.6879 3.48766 16.6879ZM7.59646 18.172C7.42672 18.172 7.26393 18.1046 7.14391 17.9846C7.02388 17.8646 6.95646 17.7018 6.95646 17.532V6.46771C6.95646 6.38366 6.97301 6.30044 7.00517 6.22279C7.03734 6.14514 7.08448 6.07459 7.14391 6.01516C7.20334 5.95573 7.27389 5.90859 7.35154 5.87642C7.42919 5.84426 7.51241 5.82771 7.59646 5.82771C7.6805 5.82771 7.76372 5.84426 7.84137 5.87642C7.91902 5.90859 7.98957 5.95573 8.049 6.01516C8.10843 6.07459 8.15558 6.14514 8.18774 6.22279C8.2199 6.30044 8.23646 6.38366 8.23646 6.46771V17.532C8.23646 17.7018 8.16903 17.8646 8.049 17.9846C7.92898 18.1046 7.76619 18.172 7.59646 18.172Z" fill="#202020"/>
</svg>
