<svg width="24" height="24" viewBox="0 0 24 24" fill="none" xmlns="http://www.w3.org/2000/svg">
<path d="M11.7054 19.2342C11.5357 19.2342 11.3729 19.1668 11.2529 19.0468C11.1329 18.9268 11.0654 18.764 11.0654 18.5942V5.40575C11.0654 5.23601 11.1329 5.07322 11.2529 4.9532C11.3729 4.83318 11.5357 4.76575 11.7054 4.76575C11.8752 4.76575 12.0379 4.83318 12.158 4.9532C12.278 5.07322 12.3454 5.23601 12.3454 5.40575V18.5942C12.3454 18.6783 12.3289 18.7615 12.2967 18.8391C12.2645 18.9168 12.2174 18.9873 12.158 19.0468C12.0985 19.1062 12.028 19.1533 11.9503 19.1855C11.8727 19.2177 11.7895 19.2342 11.7054 19.2342ZM15.8142 18.1721C15.6445 18.1721 15.4817 18.1047 15.3617 17.9847C15.2417 17.8647 15.1742 17.7019 15.1742 17.5321V6.46783C15.1742 6.29809 15.2417 6.1353 15.3617 6.01528C15.4817 5.89526 15.6445 5.82783 15.8142 5.82783C15.984 5.82783 16.1467 5.89526 16.2668 6.01528C16.3868 6.1353 16.4542 6.29809 16.4542 6.46783V17.5321C16.4542 17.6162 16.4377 17.6994 16.4055 17.7771C16.3733 17.8547 16.3262 17.9253 16.2668 17.9847C16.2073 18.0441 16.1368 18.0913 16.0591 18.1234C15.9815 18.1556 15.8983 18.1721 15.8142 18.1721ZM19.923 16.688C19.7533 16.688 19.5905 16.6206 19.4705 16.5005C19.3505 16.3805 19.283 16.2177 19.283 16.048V7.95199C19.283 7.78225 19.3505 7.61946 19.4705 7.49944C19.5905 7.37942 19.7533 7.31199 19.923 7.31199C20.0928 7.31199 20.2556 7.37942 20.3756 7.49944C20.4956 7.61946 20.563 7.78225 20.563 7.95199V16.048C20.563 16.2177 20.4956 16.3805 20.3756 16.5005C20.2556 16.6206 20.0928 16.688 19.923 16.688ZM3.48814 16.688C3.31841 16.688 3.15562 16.6206 3.0356 16.5005C2.91557 16.3805 2.84814 16.2177 2.84814 16.048V7.95199C2.84814 7.78225 2.91557 7.61946 3.0356 7.49944C3.15562 7.37942 3.31841 7.31199 3.48814 7.31199C3.65788 7.31199 3.82067 7.37942 3.94069 7.49944C4.06072 7.61946 4.12814 7.78225 4.12814 7.95199V16.048C4.12814 16.2177 4.06072 16.3805 3.94069 16.5005C3.82067 16.6206 3.65788 16.688 3.48814 16.688ZM7.59694 18.1721C7.42721 18.1721 7.26442 18.1047 7.1444 17.9847C7.02437 17.8647 6.95694 17.7019 6.95694 17.5321V6.46783C6.95694 6.38378 6.9735 6.30056 7.00566 6.22291C7.03782 6.14526 7.08497 6.07471 7.1444 6.01528C7.20383 5.95585 7.27438 5.90871 7.35203 5.87654C7.42968 5.84438 7.5129 5.82783 7.59694 5.82783C7.68099 5.82783 7.76421 5.84438 7.84186 5.87654C7.91951 5.90871 7.99006 5.95585 8.04949 6.01528C8.10892 6.07471 8.15606 6.14526 8.18823 6.22291C8.22039 6.30056 8.23694 6.38378 8.23694 6.46783V17.5321C8.23694 17.7019 8.16952 17.8647 8.04949 17.9847C7.92947 18.1047 7.76668 18.1721 7.59694 18.1721Z" fill="#202020"/>
</svg>
