<svg width="24" height="24" viewBox="0 0 24 24" fill="none" xmlns="http://www.w3.org/2000/svg">
<path d="M15.6256 21.1859H10.1181C9.35965 21.1851 8.63249 20.8834 8.09617 20.3471C7.55985 19.8107 7.25817 19.0836 7.25732 18.3251V7.13599C7.25826 6.37758 7.55997 5.6505 8.09628 5.11424C8.63259 4.57799 9.35971 4.27636 10.1181 4.27551H15.6256C16.3841 4.27636 17.1112 4.57799 17.6475 5.11424C18.1838 5.6505 18.4855 6.37758 18.4864 7.13599V18.3251C18.4856 19.0836 18.1839 19.8107 17.6476 20.3471C17.1113 20.8834 16.3841 21.1851 15.6256 21.1859ZM10.1181 5.55487C9.69894 5.5553 9.29706 5.72202 9.00068 6.01846C8.70431 6.31489 8.53766 6.71681 8.53732 7.13599V18.3251C8.53775 18.7442 8.70443 19.1461 9.0008 19.4424C9.29716 19.7388 9.699 19.9055 10.1181 19.9059H15.6256C16.0448 19.9055 16.4466 19.7388 16.743 19.4424C17.0393 19.1461 17.206 18.7442 17.2064 18.3251V7.13599C17.2059 6.71692 17.0392 6.31517 16.7429 6.01887C16.4465 5.72258 16.0447 5.55594 15.6256 5.55551L10.1181 5.55487Z" fill="#202020"/>
<path d="M12.872 18.944C12.3918 18.944 11.9223 18.8016 11.523 18.5348C11.1237 18.268 10.8125 17.8887 10.6287 17.4451C10.4449 17.0014 10.3968 16.5131 10.4905 16.0421C10.5842 15.5711 10.8155 15.1385 11.155 14.7989C11.4946 14.4593 11.9273 14.228 12.3983 14.1343C12.8693 14.0406 13.3575 14.0887 13.8012 14.2725C14.2449 14.4563 14.6241 14.7675 14.891 15.1668C15.1578 15.5661 15.3002 16.0356 15.3002 16.5158C15.2992 17.1595 15.043 17.7765 14.5879 18.2317C14.1327 18.6868 13.5157 18.943 12.872 18.944ZM12.872 15.3677C12.6449 15.3677 12.4229 15.435 12.2341 15.5612C12.0453 15.6873 11.8981 15.8667 11.8112 16.0765C11.7243 16.2863 11.7016 16.5171 11.7459 16.7398C11.7902 16.9626 11.8996 17.1671 12.0601 17.3277C12.2207 17.4883 12.4253 17.5976 12.648 17.6419C12.8707 17.6862 13.1016 17.6635 13.3114 17.5766C13.5212 17.4897 13.7005 17.3425 13.8267 17.1537C13.9528 16.9649 14.0202 16.7429 14.0202 16.5158C14.0196 16.2116 13.8984 15.92 13.6832 15.705C13.4679 15.4899 13.1762 15.369 12.872 15.3686V15.3677ZM12.872 11.9501C12.5282 11.9501 12.1921 11.8483 11.9062 11.6573C11.6203 11.4663 11.3975 11.1949 11.2659 10.8773C11.1342 10.5596 11.0998 10.2101 11.1668 9.87293C11.2338 9.53572 11.3994 9.22596 11.6425 8.98283C11.8855 8.73971 12.1953 8.57412 12.5325 8.50703C12.8697 8.43993 13.2192 8.47433 13.5368 8.60589C13.8545 8.73744 14.1259 8.96024 14.317 9.2461C14.508 9.53195 14.6099 9.86804 14.6099 10.2118C14.6094 10.6726 14.4262 11.1144 14.1004 11.4403C13.7746 11.7662 13.3328 11.9495 12.872 11.9501ZM12.872 9.7536C12.7814 9.75354 12.6927 9.78036 12.6173 9.83067C12.5419 9.88099 12.4832 9.95253 12.4484 10.0363C12.4137 10.12 12.4046 10.2121 12.4222 10.301C12.4399 10.39 12.4835 10.4716 12.5476 10.5358C12.6116 10.5999 12.6933 10.6435 12.7822 10.6613C12.8711 10.679 12.9632 10.6699 13.047 10.6352C13.1307 10.6006 13.2023 10.5418 13.2527 10.4665C13.303 10.3911 13.3299 10.3025 13.3299 10.2118C13.3298 10.0904 13.2816 9.97393 13.1957 9.88802C13.1099 9.80212 12.9935 9.75377 12.872 9.7536Z" fill="#202020"/>
</svg>
