<svg width="24" height="24" viewBox="0 0 24 24" fill="none" xmlns="http://www.w3.org/2000/svg">
<g clip-path="url(#clip0_3_231)">
<path fill-rule="evenodd" clip-rule="evenodd" d="M14.625 12C14.625 11.2806 14.3356 10.6287 13.8668 10.1546L16.0084 6.77659C16.2302 6.42676 16.1264 5.96337 15.7766 5.74159C15.4268 5.51978 14.9634 5.62358 14.7416 5.97342L12.5486 9.43242C12.3717 9.39481 12.1881 9.37501 12 9.37501C10.5503 9.37501 9.375 10.5503 9.375 12C9.375 13.4498 10.5503 14.625 12 14.625C13.4497 14.625 14.625 13.4498 14.625 12ZM12 10.875C11.3787 10.875 10.875 11.3787 10.875 12C10.875 12.6213 11.3787 13.125 12 13.125C12.6213 13.125 13.125 12.6213 13.125 12C13.125 11.3787 12.6213 10.875 12 10.875Z" fill="#202020"/>
<path fill-rule="evenodd" clip-rule="evenodd" d="M23.25 12.0012C23.2493 18.2139 18.2128 23.25 12 23.25C5.78681 23.25 0.75 18.2132 0.75 12C0.75 5.78681 5.78681 0.75 12 0.75C18.2128 0.75 23.2493 5.78614 23.25 11.9988V12.0012ZM12.75 3V2.27842C13.9823 2.37216 15.1504 2.69494 16.2121 3.20431L15.8505 3.83074C15.6434 4.18946 15.7663 4.64816 16.125 4.85528C16.4837 5.06239 16.9424 4.93946 17.1495 4.58074L17.5105 3.95546C18.5031 4.63669 19.3633 5.49686 20.0445 6.48949L19.4193 6.8505C19.0605 7.05757 18.9376 7.51627 19.1447 7.875C19.3518 8.23373 19.8105 8.35661 20.1693 8.1495L20.7957 7.78785C21.3051 8.84955 21.6279 10.0177 21.7216 11.25H21C20.5858 11.25 20.25 11.5858 20.25 12C20.25 12.4142 20.5858 12.75 21 12.75H21.7216C21.5177 15.4304 20.2301 17.8077 18.2959 19.445C16.5678 18.0714 14.3792 17.25 12 17.25C9.62085 17.25 7.43224 18.0714 5.70413 19.445C3.76995 17.8077 2.48231 15.4304 2.27842 12.75H3C3.41421 12.75 3.75 12.4142 3.75 12C3.75 11.5858 3.41421 11.25 3 11.25H2.27842C2.37216 10.0177 2.69495 8.84955 3.2043 7.78785L3.83074 8.1495C4.18946 8.35661 4.64816 8.23373 4.85528 7.875C5.06239 7.51627 4.93946 7.05758 4.58074 6.85046L3.95546 6.48949C4.63669 5.4969 5.49686 4.63673 6.48945 3.9555L6.8505 4.58085C7.05757 4.93958 7.51627 5.06246 7.875 4.85535C8.23373 4.64824 8.35661 4.18957 8.14954 3.83085L7.78781 3.20433C8.84951 2.69495 10.0177 2.37216 11.25 2.27842V3C11.25 3.41421 11.5858 3.75 12 3.75C12.4142 3.75 12.75 3.41421 12.75 3ZM6.98036 20.3603C8.44665 21.2425 10.1641 21.75 12 21.75C13.8359 21.75 15.5534 21.2425 17.0196 20.3603C15.6055 19.3463 13.873 18.75 12 18.75C10.127 18.75 8.39449 19.3463 6.98036 20.3603Z" fill="#202020"/>
</g>
<defs>
<clipPath id="clip0_3_231">
<rect width="24" height="24" fill="white"/>
</clipPath>
</defs>
</svg>
