<svg width="24" height="24" viewBox="0 0 24 24" fill="none" xmlns="http://www.w3.org/2000/svg">
<path d="M11.9999 20.6807C9.99172 20.6806 8.04565 19.9842 6.49332 18.7101C4.94098 17.4361 3.87843 15.6632 3.4867 13.6935C3.09497 11.7239 3.39831 9.67934 4.34502 7.90827C5.29173 6.1372 6.82325 4.74917 8.67862 3.98069C10.534 3.21222 12.5984 3.11083 14.5202 3.69382C16.4419 4.27681 18.1021 5.50809 19.2178 7.17788C20.3334 8.84767 20.8356 10.8526 20.6388 12.8512C20.4419 14.8498 19.5582 16.7182 18.1382 18.1383C17.3339 18.9468 16.3773 19.5878 15.3237 20.0242C14.2701 20.4606 13.1404 20.6837 11.9999 20.6807ZM11.9999 4.59937C7.91931 4.59937 4.59931 7.91937 4.59931 12C4.59931 16.0806 7.91931 19.4007 11.9999 19.4007C16.0806 19.4007 19.4006 16.0806 19.4006 12C19.4006 7.91937 16.0806 4.59937 11.9999 4.59937Z" fill="#202020"/>
<path d="M8.37213 10.8707C8.22199 10.8716 8.0763 10.8198 7.96054 10.7241C7.84478 10.6285 7.76633 10.4952 7.73891 10.3476C7.71149 10.2 7.73685 10.0474 7.81055 9.9166C7.88424 9.78578 8.00159 9.68504 8.14205 9.63199C9.58877 9.07519 10.8893 8.80447 12.1171 8.80447C13.6467 8.80447 15.0291 9.24319 15.9344 9.57247C16.0134 9.60122 16.0859 9.64524 16.1479 9.70202C16.2098 9.7588 16.26 9.82723 16.2955 9.9034C16.3311 9.97958 16.3512 10.062 16.3549 10.146C16.3586 10.2299 16.3457 10.3138 16.3169 10.3928C16.2882 10.4718 16.2442 10.5443 16.1874 10.6063C16.1306 10.6683 16.0622 10.7184 15.986 10.754C15.9098 10.7895 15.8274 10.8097 15.7434 10.8133C15.6595 10.817 15.5756 10.8041 15.4966 10.7754C14.6816 10.4787 13.4445 10.0842 12.1171 10.0842C11.0493 10.0842 9.89917 10.327 8.60189 10.8262C8.52871 10.8551 8.45081 10.8702 8.37213 10.8707ZM9.62717 12.6752C9.47674 12.6752 9.33112 12.6222 9.21587 12.5255C9.10063 12.4288 9.02312 12.2946 8.99696 12.1465C8.9708 11.9984 8.99766 11.8457 9.07282 11.7154C9.14798 11.5851 9.26664 11.4854 9.40797 11.4339C10.208 11.1424 11.1488 10.9882 12.1318 10.9882C13.0336 10.9882 13.9097 11.1197 14.6659 11.368C14.8271 11.421 14.9607 11.5359 15.0373 11.6874C15.1138 11.8389 15.1271 12.0146 15.0741 12.1758C15.0211 12.3371 14.9062 12.4707 14.7547 12.5472C14.6032 12.6238 14.4275 12.637 14.2662 12.584C13.6374 12.3776 12.8995 12.2682 12.1318 12.2682C11.2969 12.2682 10.5065 12.3962 9.84669 12.6365C9.77633 12.6621 9.70204 12.6752 9.62717 12.6752ZM10.368 14.8662C10.2248 14.8664 10.0857 14.8186 9.9729 14.7304C9.86011 14.6422 9.78015 14.5188 9.7458 14.3798C9.71144 14.2408 9.72469 14.0943 9.78342 13.9637C9.84214 13.8332 9.94295 13.726 10.0697 13.6595C10.6675 13.3453 11.3718 13.1795 12.1062 13.1795C12.7782 13.1795 13.4345 13.3213 14.0003 13.5888C14.0763 13.6247 14.1444 13.6753 14.2009 13.7376C14.2573 13.7999 14.3009 13.8727 14.3292 13.9518C14.3575 14.031 14.37 14.1149 14.3658 14.1989C14.3617 14.2828 14.341 14.3651 14.3051 14.4411C14.2691 14.5171 14.2186 14.5852 14.1563 14.6417C14.094 14.6981 14.0212 14.7417 13.9421 14.77C13.8629 14.7983 13.779 14.8108 13.695 14.8066C13.6111 14.8025 13.5288 14.7819 13.4528 14.7459C13.0569 14.5587 12.5913 14.4595 12.1062 14.4595C11.5785 14.4595 11.0803 14.575 10.6662 14.793C10.5743 14.8413 10.4719 14.8665 10.368 14.8662Z" fill="#202020"/>
</svg>
