<svg width="24" height="24" viewBox="0 0 24 24" fill="none" xmlns="http://www.w3.org/2000/svg">
<path d="M17.4841 12.672H12.9683C12.5097 12.6714 12.0701 12.4889 11.7458 12.1646C11.4216 11.8403 11.2392 11.4006 11.2387 10.942V6.42621C11.2392 5.96762 11.4216 5.52795 11.7458 5.20364C12.0701 4.87934 12.5097 4.69688 12.9683 4.69629H17.4841C17.9428 4.6968 18.3825 4.87922 18.7068 5.20353C19.0311 5.52785 19.2135 5.96756 19.214 6.42621V10.942C19.2135 11.4007 19.0311 11.8404 18.7068 12.1647C18.3825 12.489 17.9428 12.6715 17.4841 12.672ZM12.9683 5.97629C12.849 5.97646 12.7347 6.02393 12.6504 6.10827C12.5662 6.19262 12.5188 6.30696 12.5187 6.42621V10.942C12.5188 11.0613 12.5662 11.1756 12.6504 11.26C12.7347 11.3443 12.849 11.3918 12.9683 11.392H17.4841C17.6034 11.3919 17.7178 11.3445 17.8022 11.2601C17.8865 11.1757 17.934 11.0613 17.934 10.942V6.42621C17.934 6.30691 17.8865 6.19252 17.8022 6.10816C17.7178 6.0238 17.6034 5.97637 17.4841 5.97629H12.9683ZM11.0316 19.3036H6.51581C6.05716 19.3031 5.61744 19.1207 5.29313 18.7964C4.96882 18.4721 4.7864 18.0324 4.78589 17.5737V13.0579C4.7864 12.5992 4.96882 12.1595 5.29313 11.8352C5.61744 11.5109 6.05716 11.3285 6.51581 11.328H8.67677C8.84651 11.328 9.00929 11.3954 9.12932 11.5154C9.24934 11.6354 9.31677 11.7982 9.31677 11.968C9.31677 12.1377 9.24934 12.3005 9.12932 12.4205C9.00929 12.5405 8.84651 12.608 8.67677 12.608H6.51581C6.39651 12.6081 6.28212 12.6555 6.19776 12.7398C6.1134 12.8242 6.06597 12.9386 6.06589 13.0579V17.5737C6.06597 17.693 6.1134 17.8074 6.19776 17.8918C6.28212 17.9761 6.39651 18.0236 6.51581 18.0236H11.0316C11.1509 18.0235 11.2652 17.976 11.3495 17.8917C11.4338 17.8073 11.4812 17.693 11.4812 17.5737V15.4118C11.4812 15.2421 11.5487 15.0793 11.6687 14.9593C11.7887 14.8392 11.9515 14.7718 12.1212 14.7718C12.291 14.7718 12.4538 14.8392 12.5738 14.9593C12.6938 15.0793 12.7612 15.2421 12.7612 15.4118V17.5737C12.7607 18.0323 12.5784 18.472 12.2541 18.7963C11.9299 19.1206 11.4902 19.3031 11.0316 19.3036Z" fill="#202020"/>
<path d="M14.3338 16.032H9.81798C9.35969 16.0315 8.9203 15.8493 8.59609 15.5254C8.27189 15.2015 8.08931 14.7623 8.08838 14.304V9.78754C8.0888 9.32892 8.27115 8.8892 8.59542 8.56488C8.91968 8.24056 9.35936 8.05813 9.81798 8.05762H11.7879C11.9576 8.05762 12.1204 8.12505 12.2404 8.24507C12.3605 8.36509 12.4279 8.52788 12.4279 8.69762C12.4279 8.86736 12.3605 9.03014 12.2404 9.15017C12.1204 9.27019 11.9576 9.33762 11.7879 9.33762H9.81798C9.69873 9.33779 9.58443 9.38525 9.50014 9.4696C9.41585 9.55395 9.36846 9.66829 9.36838 9.78754V14.304C9.36897 14.4229 9.41658 14.5368 9.50081 14.6207C9.58505 14.7046 9.69907 14.7518 9.81798 14.752H14.3338C14.4528 14.752 14.567 14.7049 14.6514 14.6209C14.7358 14.537 14.7835 14.423 14.7841 14.304V12.1415C14.7841 11.9717 14.8515 11.8089 14.9715 11.6889C15.0915 11.5689 15.2543 11.5015 15.4241 11.5015C15.5938 11.5015 15.7566 11.5689 15.8766 11.6889C15.9966 11.8089 16.0641 11.9717 16.0641 12.1415V14.304C16.063 14.7624 15.8804 15.2017 15.556 15.5256C15.2317 15.8495 14.7922 16.0316 14.3338 16.032Z" fill="#202020"/>
</svg>
