<svg width="24" height="24" viewBox="0 0 24 24" fill="none" xmlns="http://www.w3.org/2000/svg">
<path d="M16.3562 20.2285C16.076 20.2278 15.8032 20.1382 15.5773 19.9725L12.0253 17.3926C12.0176 17.387 12.0083 17.384 11.9987 17.384C11.9892 17.384 11.9799 17.387 11.9722 17.3926L8.42018 19.9725C8.19377 20.1369 7.92113 20.2255 7.6413 20.2255C7.36148 20.2255 7.08884 20.1369 6.86247 19.9724C6.63609 19.8079 6.4676 19.576 6.38113 19.3098C6.29467 19.0437 6.29467 18.757 6.38113 18.4909L7.73729 14.3165C7.74025 14.3075 7.74026 14.2977 7.73733 14.2887C7.73439 14.2797 7.72867 14.2718 7.72097 14.2662L4.16898 11.6864C3.9426 11.5219 3.77411 11.29 3.68765 11.0239C3.60118 10.7577 3.60119 10.471 3.68766 10.2049C3.77413 9.93879 3.94263 9.70686 4.16901 9.54238C4.39539 9.3779 4.66803 9.2893 4.94785 9.28929H9.3405C9.35013 9.28928 9.35951 9.28616 9.36724 9.28039C9.37496 9.27463 9.38062 9.26653 9.38338 9.25729L10.7399 5.08289C10.8264 4.81682 10.9949 4.58497 11.2213 4.42055C11.4476 4.25613 11.7202 4.16757 12 4.16757C12.2798 4.16757 12.5524 4.25613 12.7788 4.42055C13.0051 4.58497 13.1737 4.81682 13.2602 5.08289L14.6167 9.25729C14.6194 9.26653 14.6251 9.27463 14.6328 9.28039C14.6405 9.28616 14.6499 9.28928 14.6595 9.28929H19.0487C19.3285 9.2893 19.6011 9.3779 19.8275 9.54238C20.0539 9.70686 20.2224 9.93879 20.3089 10.2049C20.3953 10.471 20.3953 10.7577 20.3089 11.0239C20.2224 11.29 20.0539 11.5219 19.8275 11.6864L16.2755 14.2662C16.2678 14.2718 16.2621 14.2797 16.2592 14.2887C16.2562 14.2977 16.2563 14.3075 16.2592 14.3165L17.6154 18.4909C17.7052 18.7566 17.707 19.0443 17.6206 19.3111C17.5341 19.578 17.364 19.8099 17.1354 19.9725C16.9094 20.1384 16.6365 20.228 16.3562 20.2285ZM12 16.1014C12.28 16.1016 12.5527 16.1905 12.7789 16.3555L16.3309 18.9354C16.3466 18.9469 16.3571 18.9546 16.3837 18.9354C16.4103 18.9162 16.4061 18.9034 16.4 18.8848L15.0429 14.7104C14.9558 14.4445 14.9553 14.1578 15.0416 13.8916C15.1278 13.6254 15.2964 13.3934 15.5229 13.2291L19.0749 10.6493C19.0906 10.6374 19.1011 10.6301 19.0912 10.5987C19.0813 10.5674 19.0679 10.5667 19.0483 10.5667H14.6595C14.3796 10.5672 14.1067 10.4788 13.8801 10.3143C13.6536 10.1498 13.4852 9.9176 13.3991 9.65121L12.0429 5.47777C12.0368 5.45889 12.0327 5.44577 12 5.44577C11.9674 5.44577 11.9632 5.45793 11.9571 5.47777L10.601 9.65217C10.5149 9.91856 10.3464 10.1507 10.1199 10.3153C9.89336 10.4798 9.62046 10.5682 9.3405 10.5677H4.95138C4.93186 10.5677 4.91938 10.5677 4.9085 10.5997C4.89762 10.6317 4.90849 10.6384 4.92481 10.6502L8.47681 13.2301C8.70334 13.3944 8.87187 13.6263 8.95813 13.8925C9.04439 14.1587 9.04393 14.4454 8.95681 14.7114L7.60097 18.8848C7.59489 18.9037 7.59073 18.9168 7.61729 18.9354C7.64385 18.9539 7.65442 18.9469 7.67009 18.9354L11.2221 16.3555C11.448 16.1907 11.7204 16.1018 12 16.1014Z" fill="#202020"/>
</svg>
