<svg width="24" height="24" viewBox="0 0 24 24" fill="none" xmlns="http://www.w3.org/2000/svg">
<g clip-path="url(#clip0_3_220)">
<path d="M7.5 2.25C5.42895 2.25 3.75 3.92895 3.75 6V10.875C3.75 11.2892 3.41421 11.625 3 11.625C2.58579 11.625 2.25 11.2892 2.25 10.875V6C2.25 3.1005 4.6005 0.75 7.5 0.75H18C20.8995 0.75 23.25 3.1005 23.25 6V16.5C23.25 19.3995 20.8995 21.75 18 21.75H16.875C16.4608 21.75 16.125 21.4142 16.125 21C16.125 20.5858 16.4608 20.25 16.875 20.25H18C20.0711 20.25 21.75 18.5711 21.75 16.5V6C21.75 3.92891 20.0711 2.25 18 2.25H7.5Z" fill="#202020"/>
<path d="M15.217 11.749C14.9521 12.0462 14.5012 12.0846 14.1899 11.8366L11.0741 9.35482L10.1542 10.2121C10.0154 10.3415 9.83263 10.4134 9.64288 10.4134H7.50002C7.08579 10.4134 6.75002 10.0777 6.75002 9.66345C6.75002 9.24926 7.08579 8.91345 7.50002 8.91345H9.34757L10.5244 7.81673C10.7962 7.56341 11.2124 7.54729 11.503 7.77874L14.5694 10.2213L15.7687 8.87595C15.911 8.71631 16.1147 8.625 16.3286 8.625H18.1875C18.6017 8.625 18.9375 8.96078 18.9375 9.375C18.9375 9.78923 18.6017 10.125 18.1875 10.125H16.6648L15.217 11.749ZM3.70984 18.6136C3.29563 18.6136 2.95984 18.9494 2.95984 19.3636C2.95984 19.7778 3.29563 20.1136 3.70984 20.1136H4.5134C4.92763 20.1136 5.2634 19.7778 5.2634 19.3636C5.2634 18.9494 4.92763 18.6136 4.5134 18.6136H3.70984ZM9.53574 18.6136C9.12152 18.6136 8.78574 18.9494 8.78574 19.3636C8.78574 19.7778 9.12152 20.1136 9.53574 20.1136H10.3393C10.7535 20.1136 11.0893 19.7778 11.0893 19.3636C11.0893 18.9494 10.7535 18.6136 10.3393 18.6136H9.53574Z" fill="#202020"/>
<path fill-rule="evenodd" clip-rule="evenodd" d="M4.5786 13.125C3.74874 13.125 2.99624 13.6438 2.72536 14.4368L2.26178 15.7938C1.90937 15.6273 1.48302 15.7593 1.28872 16.1042C1.08541 16.465 1.21316 16.9224 1.57404 17.1258L1.63593 17.1606C1.09845 17.5826 0.75 18.2321 0.75 18.9716V21.3239C0.75 22.4049 1.6429 23.25 2.70536 23.25C3.57777 23.25 4.33586 22.6802 4.57916 21.8778H9.67084C9.91414 22.6802 10.6722 23.25 11.5446 23.25C12.6071 23.25 13.5 22.4049 13.5 21.3239V18.9716C13.5 18.2244 13.1442 17.5689 12.5971 17.1474L12.6356 17.1258C12.9965 16.9224 13.1242 16.465 12.9209 16.1042C12.733 15.7707 12.3281 15.6363 11.9829 15.7783L11.5247 14.4368C11.2538 13.6438 10.5013 13.125 9.6714 13.125H4.5786ZM4.14484 14.9217L3.55323 16.6534H10.6968L10.1052 14.9217C10.0479 14.7541 9.87919 14.625 9.6714 14.625H4.5786C4.37081 14.625 4.20206 14.7541 4.14484 14.9217ZM2.25 18.9716C2.25 18.537 2.6163 18.1534 3.10714 18.1534H11.1429C11.6337 18.1534 12 18.537 12 18.9716V21.3239C12 21.542 11.8136 21.75 11.5446 21.75C11.2757 21.75 11.0893 21.542 11.0893 21.3239V21.1278C11.0893 20.7136 10.7535 20.3778 10.3393 20.3778H3.91073C3.4965 20.3778 3.16071 20.7136 3.16071 21.1278V21.3239C3.16071 21.542 2.9743 21.75 2.70536 21.75C2.43641 21.75 2.25 21.542 2.25 21.3239V18.9716Z" fill="#202020"/>
</g>
<defs>
<clipPath id="clip0_3_220">
<rect width="24" height="24" fill="white"/>
</clipPath>
</defs>
</svg>
