<svg width="24" height="24" viewBox="0 0 24 24" fill="none" xmlns="http://www.w3.org/2000/svg">
<path d="M16.2841 19.2342H7.71583C6.9337 19.2333 6.18388 18.9222 5.63083 18.3691C5.07779 17.8161 4.76668 17.0663 4.76575 16.2841V7.71583C4.76668 6.9337 5.07779 6.18388 5.63083 5.63083C6.18388 5.07779 6.9337 4.76668 7.71583 4.76575H16.2841C17.0663 4.76668 17.8161 5.07779 18.3691 5.63083C18.9222 6.18388 19.2333 6.9337 19.2342 7.71583V16.2841C19.2333 17.0663 18.9222 17.8161 18.3691 18.3691C17.8161 18.9222 17.0663 19.2333 16.2841 19.2342ZM7.71583 6.04575C7.27305 6.04626 6.84855 6.22237 6.53546 6.53546C6.22237 6.84855 6.04626 7.27305 6.04575 7.71583V16.2841C6.04626 16.7269 6.22237 17.1514 6.53546 17.4645C6.84855 17.7776 7.27305 17.9537 7.71583 17.9542H16.2841C16.7269 17.9537 17.1514 17.7776 17.4645 17.4645C17.7776 17.1514 17.9537 16.7269 17.9542 16.2841V7.71583C17.9537 7.27305 17.7776 6.84855 17.4645 6.53546C17.1514 6.22237 16.7269 6.04626 16.2841 6.04575H7.71583Z" fill="#202020"/>
<path d="M9.2595 16.8918C9.08977 16.8918 8.92698 16.8244 8.80696 16.7044C8.68693 16.5844 8.6195 16.4216 8.6195 16.2518V14.191C8.6195 14.0213 8.68693 13.8585 8.80696 13.7385C8.92698 13.6185 9.08977 13.551 9.2595 13.551C9.42924 13.551 9.59203 13.6185 9.71205 13.7385C9.83208 13.8585 9.8995 14.0213 9.8995 14.191V16.2518C9.8995 16.4216 9.83208 16.5844 9.71205 16.7044C9.59203 16.8244 9.42924 16.8918 9.2595 16.8918ZM12.288 16.8918C12.1182 16.8918 11.9555 16.8244 11.8354 16.7044C11.7154 16.5844 11.648 16.4216 11.648 16.2518V12.9433C11.648 12.7736 11.7154 12.6108 11.8354 12.4908C11.9555 12.3708 12.1182 12.3033 12.288 12.3033C12.4577 12.3033 12.6205 12.3708 12.7405 12.4908C12.8606 12.6108 12.928 12.7736 12.928 12.9433V16.2518C12.928 16.4216 12.8606 16.5844 12.7405 16.7044C12.6205 16.8244 12.4577 16.8918 12.288 16.8918ZM15.3133 16.8918C15.1435 16.8918 14.9807 16.8244 14.8607 16.7044C14.7407 16.5844 14.6733 16.4216 14.6733 16.2518V12.0998C14.6733 11.9301 14.7407 11.7673 14.8607 11.6473C14.9807 11.5273 15.1435 11.4598 15.3133 11.4598C15.483 11.4598 15.6458 11.5273 15.7658 11.6473C15.8858 11.7673 15.9533 11.9301 15.9533 12.0998V16.2518C15.9533 16.4216 15.8858 16.5844 15.7658 16.7044C15.6458 16.8244 15.483 16.8918 15.3133 16.8918ZM9.0099 13.1181C8.87099 13.1182 8.7358 13.0731 8.62476 12.9896C8.51372 12.9062 8.43285 12.7888 8.39437 12.6554C8.35589 12.5219 8.36188 12.3795 8.41144 12.2497C8.461 12.12 8.55144 12.0098 8.6691 11.936L14.3613 8.36319C14.505 8.27498 14.6777 8.24706 14.8419 8.2855C15.0061 8.32394 15.1485 8.42563 15.2381 8.56847C15.3278 8.71131 15.3574 8.88376 15.3206 9.04833C15.2838 9.2129 15.1835 9.3563 15.0416 9.44735L9.34942 13.0201C9.24774 13.0841 9.13004 13.1181 9.0099 13.1181Z" fill="#202020"/>
<path d="M14.6944 10.7766C14.5957 10.7767 14.4984 10.754 14.41 10.7103C14.3216 10.6666 14.2445 10.6031 14.1847 10.5246C14.1249 10.4462 14.0841 10.355 14.0654 10.2582C14.0466 10.1613 14.0505 10.0615 14.0768 9.9664L14.2921 9.184L13.2077 8.9504C13.1255 8.93271 13.0476 8.899 12.9784 8.85121C12.9093 8.80342 12.8502 8.74247 12.8046 8.67186C12.7125 8.52924 12.6809 8.35588 12.7166 8.18992C12.7523 8.02396 12.8525 7.87899 12.9952 7.7869C13.1378 7.69481 13.3111 7.66315 13.4771 7.69888L15.224 8.07552C15.3091 8.09386 15.3896 8.12939 15.4605 8.17992C15.5315 8.23045 15.5913 8.29492 15.6365 8.3694C15.6816 8.44387 15.7111 8.52677 15.7231 8.61302C15.7351 8.69928 15.7293 8.78708 15.7062 8.87104L15.311 10.3056C15.274 10.4408 15.1936 10.5601 15.0822 10.6452C14.9708 10.7303 14.8346 10.7765 14.6944 10.7766Z" fill="#202020"/>
</svg>
