<svg width="24" height="24" viewBox="0 0 24 24" fill="none" xmlns="http://www.w3.org/2000/svg">
<path d="M14.3763 20.4406C14.2066 20.4406 14.0438 20.3732 13.9238 20.2531C13.8038 20.1331 13.7363 19.9703 13.7363 19.8006V15.567C13.7366 15.2637 13.7976 14.9635 13.9157 14.6842C14.0338 14.4048 14.2066 14.1519 14.424 13.9404C14.6353 13.7349 14.8859 13.5741 15.1609 13.4677C15.4358 13.3614 15.7294 13.3117 16.024 13.3215H19.8157C19.9403 13.3216 20.0622 13.358 20.1664 13.4263C20.2706 13.4947 20.3526 13.592 20.4024 13.7062C20.4521 13.8205 20.4673 13.9468 20.4463 14.0697C20.4252 14.1925 20.3688 14.3065 20.2838 14.3977L14.8448 20.2367C14.7849 20.3011 14.7124 20.3524 14.6318 20.3874C14.5512 20.4225 14.4642 20.4406 14.3763 20.4406ZM15.9578 14.6003C15.717 14.5998 15.4856 14.6935 15.313 14.8614C15.2183 14.9528 15.1433 15.0625 15.0923 15.1838C15.0413 15.305 15.0155 15.4354 15.0163 15.567V18.1759L18.3443 14.6031H16.0141H15.9914L15.9578 14.6003Z" fill="#202020"/>
<path d="M14.3632 20.4557H6.48799C5.71359 20.4557 4.94911 20.0752 4.39103 19.4125C3.84511 18.7638 3.54431 17.9184 3.54431 17.032V6.94143C3.54524 6.0408 3.90341 5.17732 4.54022 4.54045C5.17703 3.90357 6.04048 3.54533 6.94111 3.54431H17.1062C17.9942 3.54541 18.8455 3.89865 19.4734 4.52656C20.1013 5.15446 20.4546 6.00576 20.4557 6.89375V13.9603C20.4557 14.13 20.3882 14.2928 20.2682 14.4129C20.1482 14.5329 19.9854 14.6003 19.8157 14.6003C19.6459 14.6003 19.4831 14.5329 19.3631 14.4129C19.2431 14.2928 19.1757 14.13 19.1757 13.9603V6.89375C19.1751 6.34508 18.9569 5.81906 18.5689 5.43109C18.1809 5.04312 17.6549 4.8249 17.1062 4.82431H6.94111C6.37985 4.82499 5.84178 5.04827 5.44494 5.44517C5.0481 5.84207 4.8249 6.38017 4.82431 6.94143V17.032C4.82431 17.6173 5.01823 18.1699 5.37023 18.5882C5.68479 18.9613 6.09215 19.1757 6.48799 19.1757H14.3632C14.5329 19.1757 14.6957 19.2431 14.8157 19.3631C14.9358 19.4831 15.0032 19.6459 15.0032 19.8157C15.0032 19.9854 14.9358 20.1482 14.8157 20.2682C14.6957 20.3882 14.5329 20.4557 14.3632 20.4557Z" fill="#202020"/>
<path d="M13.104 14.3311H7.03999C6.87026 14.3311 6.70747 14.2637 6.58745 14.1437C6.46742 14.0237 6.39999 13.8609 6.39999 13.6911C6.39999 13.5214 6.46742 13.3586 6.58745 13.2386C6.70747 13.1186 6.87026 13.0511 7.03999 13.0511H13.104C13.2737 13.0511 13.4365 13.1186 13.5565 13.2386C13.6766 13.3586 13.744 13.5214 13.744 13.6911C13.744 13.8609 13.6766 14.0237 13.5565 14.1437C13.4365 14.2637 13.2737 14.3311 13.104 14.3311ZM11.2253 11.6883H7.03999C6.87026 11.6883 6.70747 11.6208 6.58745 11.5008C6.46742 11.3808 6.39999 11.218 6.39999 11.0483C6.39999 10.8785 6.46742 10.7157 6.58745 10.5957C6.70747 10.4757 6.87026 10.4083 7.03999 10.4083H11.2253C11.395 10.4083 11.5578 10.4757 11.6778 10.5957C11.7978 10.7157 11.8653 10.8785 11.8653 11.0483C11.8653 11.218 11.7978 11.3808 11.6778 11.5008C11.5578 11.6208 11.395 11.6883 11.2253 11.6883ZM8.22879 6.26907C8.05906 6.26907 7.89627 6.20164 7.77625 6.08162C7.65622 5.96159 7.58879 5.79881 7.58879 5.62907V2.95067C7.58879 2.78093 7.65622 2.61814 7.77625 2.49812C7.89627 2.3781 8.05906 2.31067 8.22879 2.31067C8.39853 2.31067 8.56132 2.3781 8.68134 2.49812C8.80137 2.61814 8.86879 2.78093 8.86879 2.95067V5.62907C8.86879 5.79881 8.80137 5.96159 8.68134 6.08162C8.56132 6.20164 8.39853 6.26907 8.22879 6.26907ZM15.3818 6.26907C15.212 6.26907 15.0492 6.20164 14.9292 6.08162C14.8092 5.96159 14.7418 5.79881 14.7418 5.62907V2.95067C14.7418 2.78093 14.8092 2.61814 14.9292 2.49812C15.0492 2.3781 15.212 2.31067 15.3818 2.31067C15.5515 2.31067 15.7143 2.3781 15.8343 2.49812C15.9543 2.61814 16.0218 2.78093 16.0218 2.95067V5.62907C16.0218 5.79881 15.9543 5.96159 15.8343 6.08162C15.7143 6.20164 15.5515 6.26907 15.3818 6.26907Z" fill="#202020"/>
</svg>
