<svg width="24" height="24" viewBox="0 0 24 24" fill="none" xmlns="http://www.w3.org/2000/svg">
<path d="M11.7282 20.2503C10.0963 20.2503 8.50114 19.7665 7.14429 18.8599C5.78745 17.9534 4.7299 16.6648 4.1054 15.1572C3.48089 13.6496 3.31748 11.9907 3.63582 10.3902C3.95415 8.7897 4.73995 7.31956 5.89383 6.16568C7.04771 5.0118 8.51785 4.22601 10.1183 3.90767C11.7188 3.58933 13.3778 3.75274 14.8854 4.37725C16.393 5.00175 17.6815 6.0593 18.5881 7.41614C19.4946 8.77299 19.9785 10.3682 19.9784 12C19.9785 12.4655 19.9396 12.9302 19.8619 13.3891C19.8415 13.509 19.7875 13.6207 19.7061 13.7111L14.2447 19.7623C14.1633 19.8524 14.058 19.9176 13.941 19.9501C13.2204 20.1498 12.476 20.2508 11.7282 20.2503ZM11.7282 5.02947C7.88466 5.02947 4.75794 8.15619 4.75794 11.9997C4.75794 15.8432 7.88466 18.9703 11.7282 18.9703C12.2992 18.9706 12.8681 18.9011 13.4223 18.7632L18.628 12.9949C18.6749 12.6654 18.6984 12.3329 18.6984 12C18.6984 8.15651 15.5717 5.02979 11.7282 5.02979V5.02947Z" fill="#202020"/>
<path d="M13.6669 19.8852C13.5383 19.8852 13.4128 19.8465 13.3066 19.7741C13.2004 19.7017 13.1184 19.599 13.0714 19.4794C12.8327 18.8737 12.7106 18.2284 12.7117 17.5773C12.7117 14.7133 15.0419 12.3834 17.9059 12.3834C18.3841 12.3831 18.86 12.4487 19.3203 12.5783C19.4837 12.6244 19.622 12.7336 19.705 12.8817C19.7879 13.0298 19.8085 13.2049 19.7624 13.3682C19.7163 13.5316 19.6071 13.67 19.459 13.7529C19.3109 13.8358 19.1358 13.8564 18.9725 13.8103C18.2707 13.6124 17.5275 13.6143 16.8267 13.8158C16.126 14.0173 15.4953 14.4103 15.0058 14.9508C14.5163 15.4912 14.1873 16.1576 14.0559 16.8748C13.9245 17.5921 13.9959 18.3318 14.2621 19.0106C14.3003 19.1076 14.3142 19.2125 14.3027 19.3162C14.2911 19.4198 14.2544 19.5191 14.1957 19.6053C14.137 19.6915 14.0582 19.762 13.966 19.8108C13.8738 19.8596 13.7712 19.8851 13.6669 19.8852Z" fill="#202020"/>
</svg>
