<svg width="24" height="24" viewBox="0 0 24 24" fill="none" xmlns="http://www.w3.org/2000/svg">
<path d="M16.7641 20.6694H6.70012C5.79231 20.6685 4.92194 20.3075 4.28002 19.6655C3.6381 19.0236 3.27705 18.1532 3.27612 17.2454V7.18175C3.27697 6.27391 3.63798 5.40349 4.27992 4.76155C4.92187 4.11961 5.79228 3.7586 6.70012 3.75775H16.7641C17.6719 3.75868 18.5423 4.11972 19.1842 4.76165C19.8261 5.40357 20.1872 6.27394 20.1881 7.18175V17.2458C20.187 18.1535 19.8259 19.0237 19.184 19.6656C18.5421 20.3074 17.6719 20.6684 16.7641 20.6694ZM6.70012 5.03839C6.13165 5.0389 5.58662 5.26495 5.18465 5.66692C4.78268 6.06888 4.55663 6.61392 4.55612 7.18239V17.2464C4.55663 17.8149 4.78268 18.3599 5.18465 18.7619C5.58662 19.1638 6.13165 19.3899 6.70012 19.3904H16.7641C17.3326 19.3899 17.8776 19.1638 18.2796 18.7619C18.6816 18.3599 18.9076 17.8149 18.9081 17.2464V7.18175C18.9076 6.61328 18.6816 6.06824 18.2796 5.66628C17.8776 5.26431 17.3326 5.03826 16.7641 5.03775L6.70012 5.03839Z" fill="#202020"/>
</svg>
