<svg width="24" height="24" viewBox="0 0 24 24" fill="none" xmlns="http://www.w3.org/2000/svg">
<path d="M11.9999 20.0067C10.1477 20.0066 8.35281 19.3642 6.92109 18.1891C5.48938 17.014 4.50941 15.3788 4.14815 13.5621C3.78689 11.7455 4.0667 9.85979 4.93991 8.22631C5.81311 6.59283 7.22567 5.31265 8.93693 4.6039C10.6482 3.89514 12.5522 3.80165 14.3247 4.33936C16.0971 4.87708 17.6283 6.01272 18.6573 7.5528C19.6864 9.09288 20.1496 10.9421 19.968 12.7854C19.7864 14.6287 18.9714 16.352 17.6617 17.6618C16.9198 18.4075 16.0375 18.9987 15.0656 19.4013C14.0938 19.8038 13.0518 20.0096 11.9999 20.0067ZM11.9999 5.27329C8.29078 5.27329 5.27318 8.29089 5.27318 12C5.27318 15.7091 8.29078 18.7267 11.9999 18.7267C15.709 18.7267 18.7266 15.7091 18.7266 12C18.7266 8.29089 15.709 5.27329 11.9999 5.27329Z" fill="#202020"/>
<path d="M13.6218 15.5399H10.3783C9.86973 15.5393 9.38216 15.3371 9.02256 14.9775C8.66296 14.6179 8.46071 14.1303 8.46021 13.6218V10.3783C8.46071 9.8697 8.66296 9.38213 9.02256 9.02253C9.38216 8.66293 9.86973 8.46068 10.3783 8.46017H13.6218C14.1304 8.46068 14.6179 8.66293 14.9775 9.02253C15.3371 9.38213 15.5394 9.8697 15.5399 10.3783V13.6218C15.5394 14.1303 15.3371 14.6179 14.9775 14.9775C14.6179 15.3371 14.1304 15.5393 13.6218 15.5399ZM10.3783 9.74017C10.2092 9.74068 10.0472 9.80807 9.92765 9.92762C9.8081 10.0472 9.74071 10.2092 9.74021 10.3783V13.6218C9.74071 13.7908 9.8081 13.9529 9.92765 14.0724C10.0472 14.192 10.2092 14.2593 10.3783 14.2599H13.6218C13.7909 14.2593 13.9529 14.192 14.0724 14.0724C14.192 13.9529 14.2594 13.7908 14.2599 13.6218V10.3783C14.2594 10.2092 14.192 10.0472 14.0724 9.92762C13.9529 9.80807 13.7909 9.74068 13.6218 9.74017H10.3783Z" fill="#202020"/>
</svg>
