<svg width="24" height="24" viewBox="0 0 24 24" fill="none" xmlns="http://www.w3.org/2000/svg">
<path d="M7.31204 6.44157C7.17619 6.44192 7.04375 6.39902 6.93389 6.3191C6.82403 6.23917 6.74246 6.12636 6.70098 5.99699C6.65949 5.86763 6.66025 5.72842 6.70315 5.59951C6.74604 5.47061 6.82884 5.35869 6.93956 5.27997C8.30818 4.30545 9.94154 3.77169 11.6215 3.74996C13.3015 3.72823 14.9481 4.21957 16.3415 5.15837C16.4822 5.25342 16.5793 5.40047 16.6116 5.56715C16.6438 5.73383 16.6085 5.9065 16.5135 6.04717C16.4184 6.18784 16.2714 6.28499 16.1047 6.31725C15.938 6.3495 15.7654 6.31422 15.6247 6.21917C14.4477 5.42628 13.0569 5.01131 11.6379 5.02966C10.2189 5.04802 8.83929 5.49882 7.68324 6.32189C7.57512 6.39972 7.44526 6.44159 7.31204 6.44157ZM15.4967 19.2531C15.3554 19.2532 15.2179 19.2066 15.1059 19.1205C14.9939 19.0343 14.9135 18.9135 14.8773 18.7769C14.8411 18.6403 14.8512 18.4955 14.9059 18.3652C14.9607 18.2349 15.057 18.1264 15.1799 18.0566C16.4126 17.3535 17.4015 16.291 18.0146 15.0111C18.6276 13.7311 18.8355 12.2946 18.6106 10.8934C18.5834 10.7258 18.6238 10.5543 18.723 10.4165C18.8223 10.2788 18.9721 10.1861 19.1397 10.1589C19.3073 10.1316 19.4788 10.172 19.6166 10.2713C19.7543 10.3705 19.847 10.5204 19.8743 10.688C20.1408 12.3469 19.8947 14.0476 19.1689 15.5629C18.4431 17.0782 17.2722 18.3359 15.8125 19.168C15.7164 19.2232 15.6076 19.2526 15.4967 19.2531ZM7.9818 19.2656C7.87176 19.2655 7.76361 19.2369 7.66788 19.1827C6.20538 18.3556 5.03013 17.1018 4.29917 15.589C3.56822 14.0761 3.31639 12.3762 3.57732 10.7165C3.60388 10.5488 3.69596 10.3986 3.8333 10.2988C3.97064 10.199 4.14198 10.1579 4.30964 10.1845C4.4773 10.211 4.62754 10.3031 4.72731 10.4404C4.82708 10.5778 4.8682 10.7491 4.84164 10.9168C4.62173 12.3188 4.83476 13.7545 5.45229 15.0323C6.06981 16.3101 7.06244 17.369 8.29764 18.0678C8.42103 18.1372 8.51791 18.2456 8.57312 18.376C8.62833 18.5064 8.63875 18.6514 8.60276 18.7883C8.56676 18.9252 8.48637 19.0463 8.37419 19.1327C8.262 19.2191 8.12434 19.2658 7.98276 19.2656H7.9818Z" fill="#202020"/>
<path d="M11.728 17.8582C8.49791 17.8582 5.86975 15.23 5.86975 12C5.86975 8.76988 8.49791 6.14172 11.728 6.14172C14.9581 6.14172 17.5862 8.76988 17.5862 12C17.5862 15.23 14.9581 17.8582 11.728 17.8582ZM11.728 7.42172C9.20351 7.42172 7.14975 9.47548 7.14975 12C7.14975 14.5244 9.20351 16.5782 11.728 16.5782C14.2525 16.5782 16.3062 14.5244 16.3062 12C16.3062 9.47548 14.2525 7.42172 11.728 7.42172Z" fill="#202020"/>
</svg>
