<svg width="24" height="24" viewBox="0 0 24 24" fill="none" xmlns="http://www.w3.org/2000/svg">
<path d="M17.4677 20.7747H7.40374C6.49592 20.7738 5.62555 20.4128 4.98363 19.7708C4.34171 19.1289 3.98067 18.2585 3.97974 17.3507V7.28737C3.98067 6.37956 4.34171 5.50919 4.98363 4.86727C5.62555 4.22535 6.49592 3.8643 7.40374 3.86337H17.4677C18.3756 3.86422 19.246 4.22523 19.8879 4.86717C20.5299 5.50912 20.8909 6.37953 20.8917 7.28737V17.3514C20.8907 18.2591 20.5296 19.1294 19.8877 19.7712C19.2458 20.413 18.3755 20.7739 17.4677 20.7747ZM7.40374 5.14369C6.83527 5.1442 6.29023 5.37025 5.88826 5.77222C5.48629 6.17419 5.26024 6.71922 5.25974 7.28769V17.3517C5.26024 17.9202 5.48629 18.4652 5.88826 18.8672C6.29023 19.2691 6.83527 19.4952 7.40374 19.4957H17.4677C18.0362 19.4952 18.5812 19.2691 18.9832 18.8672C19.3852 18.4652 19.6112 17.9202 19.6117 17.3517V7.28737C19.6112 6.7189 19.3852 6.17387 18.9832 5.7719C18.5812 5.36993 18.0362 5.14388 17.4677 5.14337L7.40374 5.14369Z" fill="#202020"/>
<path d="M9.50111 14.992H6.15807C5.98833 14.992 5.82554 14.9246 5.70552 14.8046C5.58549 14.6845 5.51807 14.5217 5.51807 14.352C5.51807 14.1823 5.58549 14.0195 5.70552 13.8995C5.82554 13.7794 5.98833 13.712 6.15807 13.712H9.50111C9.67085 13.712 9.83363 13.7794 9.95365 13.8995C10.0737 14.0195 10.1411 14.1823 10.1411 14.352C10.1411 14.5217 10.0737 14.6845 9.95365 14.8046C9.83363 14.9246 9.67085 14.992 9.50111 14.992ZM18.6947 14.992H11.0598C10.8901 14.992 10.7273 14.9246 10.6073 14.8046C10.4873 14.6845 10.4198 14.5217 10.4198 14.352C10.4198 14.1823 10.4873 14.0195 10.6073 13.8995C10.7273 13.7794 10.8901 13.712 11.0598 13.712H18.6947C18.8644 13.712 19.0272 13.7794 19.1473 13.8995C19.2673 14.0195 19.3347 14.1823 19.3347 14.352C19.3347 14.5217 19.2673 14.6845 19.1473 14.8046C19.0272 14.9246 18.8644 14.992 18.6947 14.992ZM18.6947 17.408H15.3517C15.1819 17.408 15.0191 17.3406 14.8991 17.2206C14.7791 17.1005 14.7117 16.9377 14.7117 16.768C14.7117 16.5983 14.7791 16.4355 14.8991 16.3155C15.0191 16.1954 15.1819 16.128 15.3517 16.128H18.6947C18.8644 16.128 19.0272 16.1954 19.1473 16.3155C19.2673 16.4355 19.3347 16.5983 19.3347 16.768C19.3347 16.9377 19.2673 17.1005 19.1473 17.2206C19.0272 17.3406 18.8644 17.408 18.6947 17.408ZM13.792 17.408H6.15807C5.98833 17.408 5.82554 17.3406 5.70552 17.2206C5.58549 17.1005 5.51807 16.9377 5.51807 16.768C5.51807 16.5983 5.58549 16.4355 5.70552 16.3155C5.82554 16.1954 5.98833 16.128 6.15807 16.128H13.792C13.9617 16.128 14.1245 16.1954 14.2445 16.3155C14.3646 16.4355 14.432 16.5983 14.432 16.768C14.432 16.9377 14.3646 17.1005 14.2445 17.2206C14.1245 17.3406 13.9617 17.408 13.792 17.408Z" fill="#202020"/>
</svg>
