<svg width="24" height="24" viewBox="0 0 24 24" fill="none" xmlns="http://www.w3.org/2000/svg">
<path d="M11.8115 20.6822H11.7958C11.7095 20.68 11.6246 20.6604 11.5461 20.6246C11.4676 20.5888 11.3971 20.5376 11.3388 20.4739L9.08603 18.008H6.96795C5.07995 18.008 3.54395 16.6496 3.54395 14.9798V6.34559C3.54395 4.67615 5.07995 3.31775 6.96795 3.31775H17.0319C18.9199 3.31775 20.4559 4.67615 20.4559 6.34559V14.9798C20.4559 16.6496 18.9199 18.008 17.0319 18.008H14.7699L12.2623 20.4966C12.1424 20.6156 11.9804 20.6823 11.8115 20.6822ZM6.96795 4.59775C5.78587 4.59775 4.82395 5.38175 4.82395 6.34559V14.9798C4.82395 15.9437 5.78555 16.728 6.96795 16.728H9.36795C9.45682 16.728 9.54472 16.7465 9.62604 16.7824C9.70736 16.8183 9.78032 16.8707 9.84027 16.9363L11.8339 19.1181L14.055 16.9136C14.1749 16.7947 14.337 16.7279 14.5059 16.728H17.0316C18.2137 16.728 19.1756 15.9437 19.1756 14.9798V6.34559C19.1756 5.38175 18.2156 4.59775 17.0316 4.59775H6.96795Z" fill="#202020"/>
<path d="M7.64801 13.3613V12.4826L9.70113 10.5814C9.96374 10.3299 10.1637 10.1111 10.3011 9.92512C10.4359 9.74576 10.5081 9.52709 10.5066 9.30272C10.5066 9.04928 10.4225 8.84885 10.2544 8.70144C10.0863 8.55403 9.87499 8.48021 9.62049 8.48C9.35787 8.48 9.14625 8.55936 8.98561 8.71808C8.82497 8.8768 8.74561 9.09408 8.74753 9.36992H7.59009C7.59009 8.99253 7.67542 8.66496 7.84609 8.3872C8.01858 8.10865 8.26735 7.88542 8.56289 7.744C8.87009 7.59211 9.2255 7.51605 9.62913 7.51584C10.0421 7.51584 10.4021 7.58859 10.7091 7.73408C10.999 7.86522 11.2471 8.07384 11.4259 8.33696C11.5986 8.59965 11.6878 8.90841 11.6819 9.22272C11.6809 9.44353 11.6368 9.66202 11.552 9.86592C11.4667 10.0793 11.3151 10.3145 11.0973 10.5715C10.8795 10.8286 10.5729 11.1379 10.1776 11.4995L9.33537 12.3248V12.3642H11.7578V13.3613H7.64801ZM12.4314 12.3475V11.3875L14.8394 7.59392H16.3661V11.3699H17.0813V12.3475H16.3661V13.3613H15.2V12.3475H12.4314ZM15.2224 11.3699V8.92256H15.1776L13.6595 11.3251V11.3699H15.2224Z" fill="#202020"/>
</svg>
