<svg width="24" height="24" viewBox="0 0 24 24" fill="none" xmlns="http://www.w3.org/2000/svg">
<path d="M13.7299 21.0256C13.2131 21.0269 12.7168 20.8237 12.3494 20.4602L6.25888 14.4694C6.07262 14.2853 5.92473 14.066 5.82377 13.8244C5.72282 13.5827 5.67079 13.3234 5.67072 13.0614L5.67904 7.85984C5.68089 7.33898 5.88863 6.83997 6.25694 6.47166C6.62525 6.10335 7.12425 5.89562 7.64512 5.89376L12.6653 5.88544H12.6688C13.1857 5.88423 13.682 6.08749 14.0496 6.45088L20.1888 12.4902C20.5608 12.8565 20.7722 13.3555 20.7765 13.8775C20.7808 14.3995 20.5777 14.9019 20.2118 15.2742L15.136 20.4371C14.955 20.6221 14.7392 20.7693 14.501 20.8703C14.2628 20.9713 14.0069 21.0241 13.7482 21.0256H13.7299ZM12.6685 7.16608L7.648 7.1744C7.46568 7.17499 7.29099 7.24766 7.16204 7.37655C7.0331 7.50543 6.96035 7.68009 6.95968 7.8624L6.95136 13.0643C6.95139 13.1559 6.96959 13.2466 7.00491 13.3312C7.04022 13.4157 7.09196 13.4924 7.15712 13.5568L13.248 19.5475C13.3125 19.6111 13.3889 19.6613 13.4728 19.6953C13.5567 19.7293 13.6465 19.7464 13.737 19.7456C13.8275 19.7449 13.917 19.7263 14.0004 19.6909C14.0837 19.6556 14.1593 19.6041 14.2227 19.5395L19.2992 14.3776C19.4273 14.2472 19.4984 14.0714 19.4969 13.8886C19.4954 13.7058 19.4214 13.5311 19.2912 13.4029L13.152 7.36416C13.0233 7.23691 12.8495 7.16571 12.6685 7.16608Z" fill="#202020"/>
<path d="M10.9558 13.16C10.4086 13.1576 9.88469 12.9383 9.499 12.5501C9.11332 12.1619 8.89738 11.6365 8.89856 11.0893C8.89975 10.5421 9.11797 10.0177 9.50533 9.63113C9.8927 9.24461 10.4176 9.02753 10.9648 9.02753C11.512 9.02753 12.0369 9.24461 12.4243 9.63113C12.8116 10.0177 13.0298 10.5421 13.031 11.0893C13.0322 11.6365 12.8163 12.1619 12.4306 12.5501C12.0449 12.9383 11.521 13.1576 10.9738 13.16H10.9558ZM10.9558 10.2685C10.7692 10.2686 10.5884 10.3335 10.4444 10.4521C10.3003 10.5707 10.2019 10.7357 10.166 10.9188C10.13 11.102 10.1588 11.2919 10.2474 11.4561C10.3359 11.6204 10.4788 11.7488 10.6515 11.8194C10.8243 11.8901 11.0162 11.8985 11.1945 11.8433C11.3727 11.7882 11.5263 11.6728 11.629 11.517C11.7316 11.3611 11.777 11.1745 11.7573 10.9889C11.7376 10.8033 11.654 10.6303 11.521 10.4995C11.3706 10.3512 11.1677 10.2682 10.9565 10.2685H10.9558ZM14.0416 17.4957C13.914 17.4954 13.7893 17.457 13.6837 17.3854C13.578 17.3138 13.4962 17.2122 13.4487 17.0937C13.4013 16.9752 13.3903 16.8453 13.4172 16.7205C13.4442 16.5957 13.5078 16.4819 13.6 16.3936L16.3334 13.7734C16.4565 13.6589 16.6197 13.5973 16.7877 13.6021C16.9558 13.6068 17.1152 13.6775 17.2315 13.7989C17.3479 13.9202 17.4118 14.0825 17.4095 14.2506C17.4072 14.4187 17.3388 14.5792 17.2192 14.6973L14.4858 17.3174C14.3665 17.4323 14.2072 17.4962 14.0416 17.4957Z" fill="#202020"/>
</svg>
