<svg width="24" height="24" viewBox="0 0 24 24" fill="none" xmlns="http://www.w3.org/2000/svg">
<path d="M16.6654 17.7939H5.95242C5.68728 17.7939 5.42678 17.7244 5.19692 17.5922C4.96705 17.4601 4.77587 17.27 4.64244 17.0409C4.50902 16.8117 4.43802 16.5516 4.43655 16.2865C4.43507 16.0214 4.50316 15.7605 4.63402 15.5299L6.57066 12.1165C6.59065 12.0809 6.60115 12.0408 6.60115 12C6.60115 11.9592 6.59065 11.9191 6.57066 11.8835L4.63466 8.47005C4.50383 8.23951 4.43574 7.97869 4.43719 7.71361C4.43864 7.44853 4.50957 7.18846 4.64292 6.95936C4.77627 6.73026 4.96736 6.54014 5.19714 6.40795C5.42692 6.27577 5.68734 6.20616 5.95242 6.20606H16.6654C16.914 6.20589 17.1587 6.26694 17.3781 6.38381C17.5975 6.50067 17.7848 6.66976 17.9233 6.87614L20.8004 11.1542C20.9693 11.4039 21.0596 11.6985 21.0596 12C21.0596 12.3015 20.9693 12.596 20.8004 12.8457L17.9233 17.1238C17.7848 17.3302 17.5975 17.4993 17.3781 17.6161C17.1587 17.733 16.914 17.7941 16.6654 17.7939ZM5.95242 7.48606C5.9112 7.48608 5.87071 7.4969 5.83499 7.51745C5.79926 7.53799 5.76953 7.56754 5.74878 7.60315C5.72803 7.63876 5.71697 7.67919 5.71671 7.72041C5.71645 7.76162 5.727 7.80219 5.7473 7.83805L7.68394 11.2518C7.81264 11.48 7.88026 11.7376 7.88026 11.9997C7.88026 12.2617 7.81264 12.5193 7.68394 12.7475L5.74794 16.1616C5.72764 16.1974 5.71709 16.238 5.71735 16.2792C5.71761 16.3204 5.72867 16.3609 5.74942 16.3965C5.77017 16.4321 5.7999 16.4616 5.83563 16.4822C5.87135 16.5027 5.91184 16.5136 5.95306 16.5136H16.6654C16.704 16.5136 16.7421 16.5041 16.7762 16.4859C16.8103 16.4677 16.8394 16.4414 16.8609 16.4093L19.7374 12.1312C19.7637 12.0924 19.7777 12.0465 19.7777 11.9997C19.7777 11.9528 19.7637 11.907 19.7374 11.8681L16.8609 7.59037C16.8394 7.55826 16.8103 7.53194 16.7762 7.51374C16.7421 7.49555 16.704 7.48604 16.6654 7.48606H5.95242Z" fill="#202020"/>
</svg>
