<svg width="24" height="24" viewBox="0 0 24 24" fill="none" xmlns="http://www.w3.org/2000/svg">
<path d="M16.6649 17.794H5.95193C5.6868 17.794 5.42629 17.7245 5.19643 17.5924C4.96656 17.4602 4.77538 17.2701 4.64195 17.041C4.50853 16.8119 4.43754 16.5518 4.43606 16.2866C4.43458 16.0215 4.50267 15.7606 4.63353 15.53L6.57017 12.1166C6.59016 12.081 6.60066 12.0409 6.60066 12.0001C6.60066 11.9593 6.59016 11.9192 6.57017 11.8836L4.63417 8.47018C4.50334 8.23963 4.43525 7.97881 4.4367 7.71373C4.43815 7.44865 4.50908 7.18859 4.64243 6.95948C4.77578 6.73038 4.96688 6.54026 5.19665 6.40808C5.42643 6.27589 5.68685 6.20628 5.95193 6.20618H16.6649C16.9135 6.20602 17.1583 6.26706 17.3776 6.38393C17.597 6.50079 17.7843 6.66988 17.9228 6.87626L20.7999 11.1543C20.9689 11.404 21.0591 11.6986 21.0591 12.0001C21.0591 12.3016 20.9689 12.5961 20.7999 12.8459L17.9228 17.1239C17.7843 17.3303 17.597 17.4994 17.3776 17.6163C17.1583 17.7331 16.9135 17.7942 16.6649 17.794ZM5.95193 7.48618C5.91072 7.4862 5.87023 7.49702 5.8345 7.51757C5.79877 7.53812 5.76905 7.56767 5.74829 7.60328C5.72754 7.63889 5.71649 7.67931 5.71623 7.72053C5.71597 7.76174 5.72651 7.80231 5.74681 7.83818L7.68345 11.2519C7.81215 11.4802 7.87977 11.7378 7.87977 11.9998C7.87977 12.2618 7.81215 12.5194 7.68345 12.7476L5.74745 16.1617C5.72715 16.1976 5.71661 16.2381 5.71687 16.2793C5.71713 16.3206 5.72818 16.361 5.74893 16.3966C5.76969 16.4322 5.79941 16.4618 5.83514 16.4823C5.87087 16.5028 5.91136 16.5137 5.95257 16.5137H16.6649C16.7035 16.5137 16.7416 16.5042 16.7757 16.486C16.8098 16.4678 16.8389 16.4415 16.8604 16.4094L19.7369 12.1313C19.7632 12.0925 19.7772 12.0467 19.7772 11.9998C19.7772 11.9529 19.7632 11.9071 19.7369 11.8683L16.8604 7.5905C16.8389 7.55838 16.8098 7.53206 16.7757 7.51387C16.7416 7.49567 16.7035 7.48616 16.6649 7.48618H5.95193Z" fill="#202020"/>
</svg>
