<svg width="24" height="24" viewBox="0 0 24 24" fill="none" xmlns="http://www.w3.org/2000/svg">
<path d="M18.9562 18.2912H9.20192C8.91508 18.2905 8.63123 18.233 8.36676 18.1219C8.10229 18.0109 7.86246 17.8485 7.66112 17.6442L3.50336 13.4032C3.10443 12.995 2.88315 12.4456 2.88783 11.8749C2.89251 11.3041 3.12275 10.7584 3.52832 10.3568L7.608 6.33057C8.01097 5.93089 8.55597 5.7073 9.12352 5.70881H18.9562C19.5282 5.70949 20.0767 5.93704 20.4812 6.34155C20.8857 6.74606 21.1132 7.2945 21.1139 7.86657V16.1334C21.1133 16.7055 20.8858 17.254 20.4813 17.6586C20.0767 18.0631 19.5283 18.2906 18.9562 18.2912ZM4.416 12.5069L8.576 16.7482C8.65798 16.8312 8.75557 16.8972 8.86316 16.9423C8.97075 16.9875 9.08621 17.0109 9.20288 17.0112H18.9562C19.1889 17.011 19.4119 16.9184 19.5764 16.7538C19.7409 16.5893 19.8334 16.3661 19.8336 16.1334V7.86657C19.8333 7.63385 19.7408 7.41074 19.5762 7.24618C19.4117 7.08162 19.1886 6.98906 18.9558 6.98881H9.12352C8.89274 6.9883 8.67115 7.07919 8.5072 7.24161L4.42752 11.2678C4.26239 11.431 4.16849 11.6529 4.16633 11.885C4.16417 12.1171 4.25393 12.3407 4.416 12.5069Z" fill="#202020"/>
<path d="M10.5715 15.3834C10.4449 15.3834 10.3211 15.3459 10.2158 15.2755C10.1105 15.2052 10.0285 15.1052 9.98002 14.9882C9.93158 14.8712 9.91893 14.7425 9.94368 14.6183C9.96842 14.4941 10.0295 14.38 10.119 14.2906L15.6054 8.80415C15.7255 8.68394 15.8884 8.61633 16.0583 8.61621C16.2282 8.61609 16.3911 8.68347 16.5114 8.80351C16.6316 8.92356 16.6992 9.08645 16.6993 9.25634C16.6994 9.42623 16.632 9.58922 16.512 9.70943L11.024 15.1958C10.904 15.3159 10.7412 15.3833 10.5715 15.3834Z" fill="#202020"/>
<path d="M16.0579 15.3834C15.8882 15.3833 15.7255 15.3159 15.6055 15.1958L10.1191 9.70945C9.99901 9.58944 9.93155 9.42666 9.93152 9.25692C9.93149 9.08718 9.99889 8.92438 10.1189 8.80433C10.2389 8.68428 10.4017 8.61682 10.5714 8.61679C10.7412 8.61676 10.904 8.68416 11.024 8.80417L16.512 14.2906C16.6016 14.3801 16.6627 14.4942 16.6874 14.6184C16.7121 14.7426 16.6995 14.8713 16.651 14.9884C16.6025 15.1054 16.5204 15.2054 16.415 15.2757C16.3097 15.346 16.1859 15.3835 16.0592 15.3834H16.0579Z" fill="#202020"/>
</svg>
