<svg width="24" height="24" viewBox="0 0 24 24" fill="none" xmlns="http://www.w3.org/2000/svg">
<path d="M18.9561 18.2912H9.20186C8.91502 18.2905 8.63116 18.233 8.3667 18.1219C8.10223 18.0109 7.8624 17.8485 7.66106 17.6442L3.5033 13.4032C3.10437 12.995 2.88309 12.4456 2.88777 11.8749C2.89244 11.3041 3.12269 10.7584 3.52826 10.3568L7.60794 6.33057C8.01091 5.93089 8.55591 5.7073 9.12346 5.70881H18.9561C19.5282 5.70949 20.0766 5.93704 20.4811 6.34155C20.8856 6.74606 21.1132 7.2945 21.1139 7.86657V16.1334C21.1133 16.7055 20.8857 17.254 20.4812 17.6586C20.0767 18.0631 19.5282 18.2906 18.9561 18.2912ZM4.41594 12.5069L8.57594 16.7482C8.65792 16.8312 8.75551 16.8972 8.8631 16.9423C8.97069 16.9875 9.08615 17.0109 9.20282 17.0112H18.9561C19.1888 17.011 19.4119 16.9184 19.5764 16.7538C19.7409 16.5893 19.8334 16.3661 19.8335 16.1334V7.86657C19.8333 7.63385 19.7407 7.41074 19.5762 7.24618C19.4116 7.08162 19.1885 6.98906 18.9558 6.98881H9.12346C8.89268 6.9883 8.67109 7.07919 8.50714 7.24161L4.42746 11.2678C4.26232 11.431 4.16843 11.6529 4.16627 11.885C4.16411 12.1171 4.25387 12.3407 4.41594 12.5069Z" fill="#202020"/>
<path d="M10.5716 15.3834C10.445 15.3834 10.3212 15.3459 10.2159 15.2755C10.1106 15.2052 10.0285 15.1052 9.98008 14.9882C9.93164 14.8712 9.91899 14.7425 9.94374 14.6183C9.96848 14.4941 10.0295 14.38 10.1191 14.2906L15.6055 8.80415C15.7255 8.68394 15.8884 8.61633 16.0583 8.61621C16.2282 8.61609 16.3912 8.68347 16.5114 8.80351C16.6316 8.92356 16.6992 9.08645 16.6994 9.25634C16.6995 9.42623 16.6321 9.58922 16.5121 9.70943L11.0241 15.1958C10.9041 15.3159 10.7413 15.3833 10.5716 15.3834Z" fill="#202020"/>
<path d="M16.0579 15.3833C15.8882 15.3833 15.7255 15.3158 15.6055 15.1958L10.1191 9.70942C9.99901 9.58941 9.93155 9.42663 9.93152 9.25689C9.93149 9.08715 9.99889 8.92434 10.1189 8.8043C10.2389 8.68425 10.4017 8.61679 10.5714 8.61676C10.7412 8.61673 10.904 8.68413 11.024 8.80414L16.512 14.2905C16.6016 14.38 16.6627 14.4941 16.6874 14.6183C16.7121 14.7426 16.6995 14.8713 16.651 14.9883C16.6025 15.1053 16.5204 15.2053 16.415 15.2756C16.3097 15.346 16.1859 15.3834 16.0592 15.3833H16.0579Z" fill="#202020"/>
</svg>
