<svg width="24" height="24" viewBox="0 0 24 24" fill="none" xmlns="http://www.w3.org/2000/svg">
<path d="M17.032 20.4556H6.96801C6.06022 20.4546 5.1899 20.0935 4.548 19.4516C3.90609 18.8097 3.54502 17.9394 3.54401 17.0316V6.96795C3.54502 6.06016 3.90609 5.18984 4.548 4.54793C5.1899 3.90603 6.06022 3.54496 6.96801 3.54395H17.032C17.9398 3.54496 18.8101 3.90603 19.452 4.54793C20.0939 5.18984 20.455 6.06016 20.456 6.96795V17.0319C20.4549 17.9397 20.0938 18.8099 19.4519 19.4517C18.81 20.0936 17.9397 20.4546 17.032 20.4556ZM6.96801 4.82427C6.39954 4.82477 5.8545 5.05082 5.45253 5.45279C5.05056 5.85476 4.82451 6.3998 4.82401 6.96826V17.0323C4.82451 17.6007 5.05056 18.1458 5.45253 18.5477C5.8545 18.9497 6.39954 19.1758 6.96801 19.1763H17.032C17.6005 19.1758 18.1455 18.9497 18.5475 18.5477C18.9494 18.1458 19.1755 17.6007 19.176 17.0323V6.96795C19.1755 6.39948 18.9494 5.85444 18.5475 5.45247C18.1455 5.0505 17.6005 4.82445 17.032 4.82395L6.96801 4.82427Z" fill="#202020"/>
<path d="M11.6419 10.1516C11.4722 10.1516 11.3094 10.0842 11.1894 9.96417C11.0693 9.84414 11.0019 9.68136 11.0019 9.51162C11.0019 9.34188 11.0693 9.17909 11.1894 9.05907C11.3094 8.93905 11.4722 8.87162 11.6419 8.87162H17.248C17.4177 8.87162 17.5805 8.93905 17.7005 9.05907C17.8206 9.17909 17.888 9.34188 17.888 9.51162C17.888 9.68136 17.8206 9.84414 17.7005 9.96417C17.5805 10.0842 17.4177 10.1516 17.248 10.1516H11.6419ZM11.6419 13.9174C11.4722 13.9174 11.3094 13.85 11.1894 13.7299C11.0693 13.6099 11.0019 13.4471 11.0019 13.2774C11.0019 13.1076 11.0693 12.9449 11.1894 12.8248C11.3094 12.7048 11.4722 12.6374 11.6419 12.6374H17.248C17.4177 12.6374 17.5805 12.7048 17.7005 12.8248C17.8206 12.9449 17.888 13.1076 17.888 13.2774C17.888 13.4471 17.8206 13.6099 17.7005 13.7299C17.5805 13.85 17.4177 13.9174 17.248 13.9174H11.6419ZM7.56511 11.1359C7.4095 11.136 7.25926 11.079 7.14271 10.9759L6.08671 10.0479C5.96846 9.93357 5.89879 9.77807 5.89216 9.61369C5.88553 9.44932 5.94245 9.28871 6.05111 9.16519C6.15976 9.04167 6.31181 8.96474 6.47568 8.95035C6.63956 8.93597 6.80268 8.98524 6.93119 9.08794L7.54303 9.62586L9.48415 7.73498C9.60577 7.61654 9.76945 7.55127 9.9392 7.55352C10.1089 7.55577 10.2708 7.62536 10.3893 7.74698C10.5077 7.8686 10.573 8.03228 10.5707 8.20202C10.5685 8.37177 10.4989 8.53366 10.3773 8.6521L8.01183 10.9561C7.89202 11.0719 7.73175 11.1364 7.56511 11.1359ZM7.56511 14.8239C7.4095 14.824 7.25926 14.767 7.14271 14.6639L6.08671 13.7359C5.96284 13.623 5.88825 13.4659 5.87897 13.2985C5.8697 13.1311 5.92648 12.9667 6.03711 12.8408C6.14774 12.7148 6.30338 12.6373 6.47058 12.6248C6.63777 12.6124 6.80316 12.6661 6.93119 12.7743L7.54303 13.3119L9.48415 11.4211C9.54437 11.3624 9.61555 11.3162 9.69363 11.2851C9.7717 11.2539 9.85515 11.2385 9.9392 11.2396C10.0232 11.2407 10.1063 11.2584 10.1835 11.2916C10.2607 11.3248 10.3306 11.3728 10.3893 11.4331C10.4479 11.4933 10.4941 11.5645 10.5253 11.6425C10.5564 11.7206 10.5718 11.8041 10.5707 11.8881C10.5696 11.9722 10.552 12.0552 10.5188 12.1324C10.4856 12.2096 10.4375 12.2795 10.3773 12.3382L8.01183 14.6422C7.89232 14.7587 7.73202 14.8239 7.56511 14.8239Z" fill="#202020"/>
</svg>
