<svg width="24" height="24" viewBox="0 0 24 24" fill="none" xmlns="http://www.w3.org/2000/svg">
<path d="M12.0001 10.72H4.21674C4.047 10.72 3.88421 10.6525 3.76419 10.5325C3.64416 10.4125 3.57674 10.2497 3.57674 10.08C3.57674 9.91024 3.64416 9.74745 3.76419 9.62743C3.88421 9.5074 4.047 9.43998 4.21674 9.43998H12.0001C12.1698 9.43998 12.3326 9.5074 12.4526 9.62743C12.5727 9.74745 12.6401 9.91024 12.6401 10.08C12.6401 10.2497 12.5727 10.4125 12.4526 10.5325C12.3326 10.6525 12.1698 10.72 12.0001 10.72ZM12.0001 6.87998H4.21674C4.047 6.87998 3.88421 6.81255 3.76419 6.69252C3.64416 6.5725 3.57674 6.40971 3.57674 6.23998C3.57674 6.07024 3.64416 5.90745 3.76419 5.78743C3.88421 5.6674 4.047 5.59998 4.21674 5.59998H12.0001C12.1698 5.59998 12.3326 5.6674 12.4526 5.78743C12.5727 5.90745 12.6401 6.07024 12.6401 6.23998C12.6401 6.40971 12.5727 6.5725 12.4526 6.69252C12.3326 6.81255 12.1698 6.87998 12.0001 6.87998ZM19.7838 14.56H4.21642C4.04668 14.56 3.88389 14.4925 3.76387 14.3725C3.64384 14.2525 3.57642 14.0897 3.57642 13.92C3.57642 13.7502 3.64384 13.5875 3.76387 13.4674C3.88389 13.3474 4.04668 13.28 4.21642 13.28H19.7838C19.9535 13.28 20.1163 13.3474 20.2363 13.4674C20.3563 13.5875 20.4238 13.7502 20.4238 13.92C20.4238 14.0897 20.3563 14.2525 20.2363 14.3725C20.1163 14.4925 19.9535 14.56 19.7838 14.56ZM19.7838 18.4H4.21642C4.04668 18.4 3.88389 18.3325 3.76387 18.2125C3.64384 18.0925 3.57642 17.9297 3.57642 17.76C3.57642 17.5902 3.64384 17.4275 3.76387 17.3074C3.88389 17.1874 4.04668 17.12 4.21642 17.12H19.7838C19.9535 17.12 20.1163 17.1874 20.2363 17.3074C20.3563 17.4275 20.4238 17.5902 20.4238 17.76C20.4238 17.9297 20.3563 18.0925 20.2363 18.2125C20.1163 18.3325 19.9535 18.4 19.7838 18.4Z" fill="#202020"/>
</svg>
