<svg width="24" height="24" viewBox="0 0 24 24" fill="none" xmlns="http://www.w3.org/2000/svg">
<path d="M4.21629 20.0669C4.04656 20.0669 3.88377 19.9994 3.76375 19.8794C3.64372 19.7594 3.57629 19.5966 3.57629 19.4269C3.57629 19.2571 3.64372 19.0943 3.76375 18.9743C3.88377 18.8543 4.04656 18.7869 4.21629 18.7869H19.7837C19.9534 18.7869 20.1162 18.8543 20.2362 18.9743C20.3562 19.0943 20.4237 19.2571 20.4237 19.4269C20.4237 19.5966 20.3562 19.7594 20.2362 19.8794C20.1162 19.9994 19.9534 20.0669 19.7837 20.0669H4.21629ZM12 17.8595C8.43517 17.8595 5.53597 14.959 5.53597 11.3955V5.40575C5.53597 5.23601 5.6034 5.07322 5.72343 4.9532C5.84345 4.83318 6.00624 4.76575 6.17597 4.76575C6.34571 4.76575 6.5085 4.83318 6.62852 4.9532C6.74855 5.07322 6.81597 5.23601 6.81597 5.40575V11.3942C6.81597 14.2534 9.14205 16.5782 12 16.5782C14.8579 16.5782 17.184 14.2521 17.184 11.3942V5.40575C17.184 5.23601 17.2514 5.07322 17.3714 4.9532C17.4914 4.83318 17.6542 4.76575 17.824 4.76575C17.9937 4.76575 18.1565 4.83318 18.2765 4.9532C18.3965 5.07322 18.464 5.23601 18.464 5.40575V11.3942C18.464 14.959 15.5648 17.8595 12 17.8595Z" fill="#202020"/>
</svg>
