<svg width="24" height="24" viewBox="0 0 24 24" fill="none" xmlns="http://www.w3.org/2000/svg">
<path d="M10.1667 20.2045C10.1157 20.2045 10.0649 20.1985 10.0153 20.1865C9.85038 20.1465 9.7081 20.0426 9.61976 19.8977C9.53143 19.7528 9.50427 19.5787 9.54428 19.4137L13.2118 4.28478C13.2305 4.20198 13.2655 4.12373 13.3147 4.05459C13.364 3.98545 13.4265 3.92679 13.4986 3.88203C13.5707 3.83727 13.651 3.80731 13.7348 3.79388C13.8187 3.78046 13.9043 3.78384 13.9868 3.80383C14.0693 3.82382 14.147 3.86003 14.2154 3.91033C14.2837 3.96064 14.3414 4.02405 14.385 4.09686C14.4287 4.16967 14.4574 4.25043 14.4695 4.33444C14.4816 4.41846 14.4769 4.50404 14.4556 4.58622L10.7881 19.7152C10.7543 19.8546 10.6747 19.9786 10.562 20.0673C10.4493 20.156 10.3101 20.2043 10.1667 20.2045Z" fill="#202020"/>
<path d="M16.8422 4.69919H10.9241C10.7544 4.69919 10.5916 4.63176 10.4716 4.51174C10.3516 4.39171 10.2841 4.22893 10.2841 4.05919C10.2841 3.88945 10.3516 3.72666 10.4716 3.60664C10.5916 3.48662 10.7544 3.41919 10.9241 3.41919H16.8422C17.012 3.41919 17.1747 3.48662 17.2948 3.60664C17.4148 3.72666 17.4822 3.88945 17.4822 4.05919C17.4822 4.22893 17.4148 4.39171 17.2948 4.51174C17.1747 4.63176 17.012 4.69919 16.8422 4.69919ZM13.1251 20.2045H7.20702C7.03728 20.2045 6.87449 20.137 6.75447 20.017C6.63444 19.897 6.56702 19.7342 6.56702 19.5645C6.56702 19.3947 6.63444 19.2319 6.75447 19.1119C6.87449 18.9919 7.03728 18.9245 7.20702 18.9245H13.1251C13.2948 18.9245 13.4576 18.9919 13.5776 19.1119C13.6977 19.2319 13.7651 19.3947 13.7651 19.5645C13.7651 19.7342 13.6977 19.897 13.5776 20.017C13.4576 20.137 13.2948 20.2045 13.1251 20.2045Z" fill="#202020"/>
</svg>
