<svg width="24" height="24" viewBox="0 0 24 24" fill="none" xmlns="http://www.w3.org/2000/svg">
<path d="M19.7838 6.87998H4.21642C4.04668 6.87998 3.88389 6.81255 3.76387 6.69252C3.64384 6.5725 3.57642 6.40971 3.57642 6.23998C3.57642 6.07024 3.64384 5.90745 3.76387 5.78743C3.88389 5.6674 4.04668 5.59998 4.21642 5.59998H19.7838C19.9535 5.59998 20.1163 5.6674 20.2363 5.78743C20.3563 5.90745 20.4238 6.07024 20.4238 6.23998C20.4238 6.40971 20.3563 6.5725 20.2363 6.69252C20.1163 6.81255 19.9535 6.87998 19.7838 6.87998ZM19.7838 10.72H12.0001C11.8304 10.72 11.6676 10.6525 11.5475 10.5325C11.4275 10.4125 11.3601 10.2497 11.3601 10.08C11.3601 9.91024 11.4275 9.74745 11.5475 9.62743C11.6676 9.5074 11.8304 9.43998 12.0001 9.43998H19.7838C19.9535 9.43998 20.1163 9.5074 20.2363 9.62743C20.3563 9.74745 20.4238 9.91024 20.4238 10.08C20.4238 10.2497 20.3563 10.4125 20.2363 10.5325C20.1163 10.6525 19.9535 10.72 19.7838 10.72ZM19.7838 14.56H4.21642C4.04668 14.56 3.88389 14.4925 3.76387 14.3725C3.64384 14.2525 3.57642 14.0897 3.57642 13.92C3.57642 13.7502 3.64384 13.5875 3.76387 13.4674C3.88389 13.3474 4.04668 13.28 4.21642 13.28H19.7838C19.9535 13.28 20.1163 13.3474 20.2363 13.4674C20.3563 13.5875 20.4238 13.7502 20.4238 13.92C20.4238 14.0897 20.3563 14.2525 20.2363 14.3725C20.1163 14.4925 19.9535 14.56 19.7838 14.56ZM19.7838 18.4H12.0001C11.8304 18.4 11.6676 18.3325 11.5475 18.2125C11.4275 18.0925 11.3601 17.9297 11.3601 17.76C11.3601 17.5902 11.4275 17.4275 11.5475 17.3074C11.6676 17.1874 11.8304 17.12 12.0001 17.12H19.7838C19.9535 17.12 20.1163 17.1874 20.2363 17.3074C20.3563 17.4275 20.4238 17.5902 20.4238 17.76C20.4238 17.9297 20.3563 18.0925 20.2363 18.2125C20.1163 18.3325 19.9535 18.4 19.7838 18.4Z" fill="#202020"/>
</svg>
