<svg width="24" height="24" viewBox="0 0 24 24" fill="none" xmlns="http://www.w3.org/2000/svg">
<path d="M11.9623 20.4233C11.7925 20.4233 11.6297 20.3559 11.5097 20.2359C11.3897 20.1159 11.3223 19.9531 11.3223 19.7833V5.77599C11.3223 5.60625 11.3897 5.44346 11.5097 5.32344C11.6297 5.20341 11.7925 5.13599 11.9623 5.13599C12.132 5.13599 12.2948 5.20341 12.4148 5.32344C12.5348 5.44346 12.6023 5.60625 12.6023 5.77599V19.7833C12.6023 19.8674 12.5857 19.9506 12.5535 20.0283C12.5214 20.1059 12.4742 20.1765 12.4148 20.2359C12.3554 20.2953 12.2848 20.3425 12.2072 20.3746C12.1295 20.4068 12.0463 20.4233 11.9623 20.4233Z" fill="#202020"/>
<path d="M17.1135 8.09887C16.9879 8.09892 16.8651 8.06201 16.7604 7.99277C16.6556 7.92352 16.5736 7.82498 16.5244 7.70943L16.1404 6.80704C16.0383 6.56736 15.7414 6.4 15.4185 6.4H8.43992C8.11992 6.4 7.83192 6.55999 7.72344 6.79487L7.29592 7.72543C7.26123 7.80235 7.21168 7.87165 7.1501 7.92935C7.08853 7.98704 7.01615 8.03199 6.93714 8.06161C6.85813 8.09122 6.77404 8.10492 6.68971 8.10192C6.60539 8.09891 6.52249 8.07926 6.44578 8.04409C6.36908 8.00893 6.30009 7.95894 6.24278 7.89701C6.18547 7.83508 6.14097 7.76243 6.11184 7.68323C6.08272 7.60404 6.06954 7.51987 6.07307 7.43556C6.0766 7.35125 6.09676 7.26848 6.1324 7.19199L6.55992 6.26175C6.87768 5.56799 7.61592 5.12 8.43992 5.12H15.4182C16.2655 5.12 17.0111 5.58528 17.3177 6.3056L17.7017 7.20799C17.7431 7.3053 17.7598 7.41137 17.7503 7.5167C17.7407 7.62204 17.7052 7.72337 17.6469 7.81162C17.5886 7.89988 17.5094 7.97231 17.4162 8.02243C17.3231 8.07256 17.219 8.09883 17.1132 8.09887H17.1135ZM14.447 20.4234H9.47768C9.30794 20.4234 9.14516 20.3559 9.02514 20.2359C8.90511 20.1159 8.83768 19.9531 8.83768 19.7834C8.83768 19.6136 8.90511 19.4508 9.02514 19.3308C9.14516 19.2108 9.30794 19.1434 9.47768 19.1434H14.447C14.6167 19.1434 14.7795 19.2108 14.8995 19.3308C15.0195 19.4508 15.087 19.6136 15.087 19.7834C15.087 19.9531 15.0195 20.1159 14.8995 20.2359C14.7795 20.3559 14.6167 20.4234 14.447 20.4234Z" fill="#202020"/>
</svg>
