<svg width="24" height="24" viewBox="0 0 24 24" fill="none" xmlns="http://www.w3.org/2000/svg">
<path d="M4.11656 6.87998C3.94682 6.87998 3.78404 6.81255 3.66401 6.69252C3.54399 6.5725 3.47656 6.40971 3.47656 6.23998C3.47656 6.07024 3.54399 5.90745 3.66401 5.78743C3.78404 5.6674 3.94682 5.59998 4.11656 5.59998H19.6836C19.8533 5.59998 20.0161 5.6674 20.1361 5.78743C20.2562 5.90745 20.3236 6.07024 20.3236 6.23998C20.3236 6.40971 20.2562 6.5725 20.1361 6.69252C20.0161 6.81255 19.8533 6.87998 19.6836 6.87998H4.11656ZM8.0084 10.72C7.83866 10.72 7.67588 10.6525 7.55585 10.5325C7.43583 10.4125 7.3684 10.2497 7.3684 10.08C7.3684 9.91024 7.43583 9.74745 7.55585 9.62743C7.67588 9.5074 7.83866 9.43998 8.0084 9.43998H15.7914C15.9612 9.43998 16.124 9.5074 16.244 9.62743C16.364 9.74745 16.4314 9.91024 16.4314 10.08C16.4314 10.2497 16.364 10.4125 16.244 10.5325C16.124 10.6525 15.9612 10.72 15.7914 10.72H8.0084ZM4.11656 14.56C3.94682 14.56 3.78404 14.4925 3.66401 14.3725C3.54399 14.2525 3.47656 14.0897 3.47656 13.92C3.47656 13.7502 3.54399 13.5875 3.66401 13.4674C3.78404 13.3474 3.94682 13.28 4.11656 13.28H19.6836C19.8533 13.28 20.0161 13.3474 20.1361 13.4674C20.2562 13.5875 20.3236 13.7502 20.3236 13.92C20.3236 14.0897 20.2562 14.2525 20.1361 14.3725C20.0161 14.4925 19.8533 14.56 19.6836 14.56H4.11656ZM8.0084 18.4C7.83866 18.4 7.67588 18.3325 7.55585 18.2125C7.43583 18.0925 7.3684 17.9297 7.3684 17.76C7.3684 17.5902 7.43583 17.4275 7.55585 17.3074C7.67588 17.1874 7.83866 17.12 8.0084 17.12H15.7914C15.9612 17.12 16.124 17.1874 16.244 17.3074C16.364 17.4275 16.4314 17.5902 16.4314 17.76C16.4314 17.9297 16.364 18.0925 16.244 18.2125C16.124 18.3325 15.9612 18.4 15.7914 18.4H8.0084Z" fill="#202020"/>
</svg>
