<svg width="24" height="24" viewBox="0 0 24 24" fill="none" xmlns="http://www.w3.org/2000/svg">
<path d="M17.0319 20.9347H6.96795C6.06016 20.9337 5.18984 20.5726 4.54793 19.9307C3.90603 19.2888 3.54496 18.4185 3.54395 17.5107V7.44701C3.54488 6.5392 3.90592 5.66883 4.54784 5.02691C5.18976 4.38498 6.06013 4.02394 6.96795 4.02301H17.0319C17.9398 4.02394 18.8101 4.38498 19.452 5.02691C20.094 5.66883 20.455 6.5392 20.4559 7.44701V17.511C20.4548 18.4187 20.0937 19.289 19.4518 19.9308C18.8099 20.5727 17.9397 20.9337 17.0319 20.9347ZM6.96795 5.30365C6.39948 5.30416 5.85444 5.53021 5.45247 5.93217C5.0505 6.33414 4.82445 6.87918 4.82395 7.44765V17.5117C4.82445 18.0801 5.0505 18.6252 5.45247 19.0271C5.85444 19.4291 6.39948 19.6551 6.96795 19.6557H17.0319C17.6004 19.6551 18.1455 19.4291 18.5474 19.0271C18.9494 18.6252 19.1754 18.0801 19.1759 17.5117V7.44701C19.1754 6.87854 18.9494 6.3335 18.5474 5.93153C18.1455 5.52957 17.6004 5.30352 17.0319 5.30301L6.96795 5.30365Z" fill="#202020"/>
<path d="M6.6465 10.1603C6.49239 10.1605 6.3434 10.105 6.2269 10.0041C6.11039 9.90324 6.03421 9.7637 6.01234 9.61115C5.99047 9.45859 6.02438 9.30327 6.10784 9.17372C6.1913 9.04416 6.31871 8.94907 6.46666 8.90592C10.0797 7.8472 13.9205 7.8472 17.5335 8.90592C17.6964 8.95366 17.8337 9.06416 17.9152 9.21311C17.9966 9.36205 18.0155 9.53725 17.9678 9.70016C17.92 9.86307 17.8095 10.0003 17.6606 10.0818C17.5116 10.1632 17.3364 10.1821 17.1735 10.1344C13.7956 9.14437 10.2046 9.14437 6.82666 10.1344C6.76815 10.1516 6.70748 10.1603 6.6465 10.1603Z" fill="#202020"/>
<path d="M11.9322 16.8461C11.7625 16.8461 11.5997 16.7787 11.4797 16.6586C11.3597 16.5386 11.2922 16.3758 11.2922 16.2061V8.752C11.2922 8.58226 11.3597 8.41947 11.4797 8.29945C11.5997 8.17943 11.7625 8.112 11.9322 8.112C12.102 8.112 12.2648 8.17943 12.3848 8.29945C12.5048 8.41947 12.5722 8.58226 12.5722 8.752V16.2061C12.5722 16.3758 12.5048 16.5386 12.3848 16.6586C12.2648 16.7787 12.102 16.8461 11.9322 16.8461Z" fill="#202020"/>
</svg>
