<svg width="24" height="24" viewBox="0 0 24 24" fill="none" xmlns="http://www.w3.org/2000/svg">
<path d="M17.032 20.4557H6.96801C6.06022 20.4547 5.1899 20.0936 4.548 19.4517C3.90609 18.8098 3.54502 17.9395 3.54401 17.0317V6.96801C3.54502 6.06022 3.90609 5.1899 4.548 4.548C5.1899 3.90609 6.06022 3.54502 6.96801 3.54401H17.032C17.9398 3.54502 18.8101 3.90609 19.452 4.548C20.0939 5.1899 20.455 6.06022 20.456 6.96801V17.032C20.456 17.9401 20.0953 18.811 19.4531 19.4531C18.811 20.0953 17.9401 20.456 17.032 20.456V20.4557ZM6.96801 4.82433C6.39954 4.82483 5.8545 5.05088 5.45253 5.45285C5.05056 5.85482 4.82451 6.39986 4.82401 6.96833V17.0323C4.82451 17.6008 5.05056 18.1458 5.45253 18.5478C5.8545 18.9498 6.39954 19.1758 6.96801 19.1763H17.032C17.3136 19.1763 17.5924 19.1209 17.8525 19.0131C18.1126 18.9054 18.349 18.7475 18.548 18.5484C18.7471 18.3493 18.9051 18.1129 19.0128 17.8528C19.1206 17.5927 19.176 17.3139 19.176 17.0323V6.96801C19.1755 6.39954 18.9494 5.8545 18.5475 5.45253C18.1455 5.05056 17.6005 4.82451 17.032 4.82401L6.96801 4.82433Z" fill="#202020"/>
<path d="M10.2947 15.3776C10.2813 15.3776 10.2675 15.3776 10.2541 15.3776C10.1685 15.3721 10.0848 15.3494 10.0081 15.3109C9.93143 15.2725 9.86327 15.219 9.80767 15.1536L7.18752 12.0816C7.07719 11.9525 7.02267 11.7848 7.03596 11.6155C7.04925 11.4462 7.12927 11.289 7.2584 11.1787C7.38752 11.0684 7.55519 11.0139 7.72451 11.0272C7.89384 11.0405 8.05094 11.1205 8.16127 11.2496L10.3533 13.8195L15.8954 8.78848C16.021 8.67437 16.1869 8.61487 16.3565 8.62306C16.526 8.63125 16.6854 8.70647 16.7995 8.83216C16.9136 8.95785 16.9731 9.12372 16.9649 9.29328C16.9567 9.46285 16.8815 9.62221 16.7558 9.73632L10.7248 15.2115C10.607 15.3184 10.4537 15.3776 10.2947 15.3776Z" fill="#202020"/>
</svg>
