<svg width="24" height="24" viewBox="0 0 24 24" fill="none" xmlns="http://www.w3.org/2000/svg">
<path d="M18.5731 17.2029H5.42689C4.91579 17.2024 4.42577 16.9991 4.06437 16.6377C3.70297 16.2763 3.49971 15.7863 3.49921 15.2752V13.888C3.49921 13.7183 3.56663 13.5555 3.68666 13.4355C3.80668 13.3154 3.96947 13.248 4.13921 13.248C4.28072 13.2505 4.4213 13.2247 4.55275 13.1722C4.68421 13.1198 4.80389 13.0417 4.90484 12.9425C5.00578 12.8433 5.08595 12.7249 5.14068 12.5944C5.19541 12.4639 5.22359 12.3238 5.22359 12.1822C5.22359 12.0407 5.19541 11.9006 5.14068 11.7701C5.08595 11.6395 5.00578 11.5212 4.90484 11.422C4.80389 11.3228 4.68421 11.2447 4.55275 11.1922C4.4213 11.1398 4.28072 11.114 4.13921 11.1165C3.96947 11.1165 3.80668 11.0491 3.68666 10.929C3.56663 10.809 3.49921 10.6462 3.49921 10.4765V8.7248C3.49971 8.2137 3.70297 7.72368 4.06437 7.36228C4.42577 7.00088 4.91579 6.79763 5.42689 6.79712H18.5731C19.0842 6.79763 19.5742 7.00088 19.9356 7.36228C20.297 7.72368 20.5003 8.2137 20.5008 8.7248V10.4848C20.5008 10.643 20.4422 10.7955 20.3364 10.913C20.2306 11.0306 20.085 11.1048 19.9277 11.1213C19.6665 11.1497 19.4249 11.2735 19.2495 11.4691C19.074 11.6647 18.9769 11.9182 18.9769 12.181C18.9769 12.4437 19.074 12.6972 19.2495 12.8928C19.4249 13.0884 19.6665 13.2122 19.9277 13.2406C20.085 13.2572 20.2306 13.3313 20.3364 13.4489C20.4422 13.5664 20.5008 13.719 20.5008 13.8771V15.2755C20.5002 15.7866 20.2969 16.2765 19.9355 16.6378C19.5741 16.9992 19.0842 17.2024 18.5731 17.2029ZM4.77921 14.4378V15.2752C4.77938 15.4469 4.84767 15.6116 4.96909 15.733C5.09052 15.8544 5.25516 15.9227 5.42689 15.9229H18.5731C18.7448 15.9227 18.9095 15.8544 19.0309 15.733C19.1523 15.6116 19.2206 15.4469 19.2208 15.2752V14.3792C18.773 14.2116 18.387 13.9112 18.1145 13.5183C17.842 13.1253 17.6959 12.6585 17.6959 12.1803C17.6959 11.7021 17.842 11.2353 18.1145 10.8424C18.387 10.4494 18.773 10.1491 19.2208 9.98144V8.7248C19.2206 8.55308 19.1523 8.38843 19.0309 8.26701C18.9095 8.14558 18.7448 8.07729 18.5731 8.07712H5.42689C5.25516 8.07729 5.09052 8.14558 4.96909 8.26701C4.84767 8.38843 4.77938 8.55308 4.77921 8.7248V9.92352C5.2704 10.0629 5.70271 10.3587 6.01055 10.7661C6.31838 11.1734 6.48494 11.6701 6.48494 12.1806C6.48494 12.6912 6.31838 13.1879 6.01055 13.5952C5.70271 14.0026 5.2704 14.2984 4.77921 14.4378Z" fill="#202020"/>
<path d="M14.8912 10.1552C14.7215 10.1552 14.5587 10.0878 14.4387 9.96775C14.3186 9.84772 14.2512 9.68494 14.2512 9.5152V7.43712C14.2512 7.26738 14.3186 7.10459 14.4387 6.98457C14.5587 6.86455 14.7215 6.79712 14.8912 6.79712C15.0609 6.79712 15.2237 6.86455 15.3438 6.98457C15.4638 7.10459 15.5312 7.26738 15.5312 7.43712V9.5152C15.5312 9.68494 15.4638 9.84772 15.3438 9.96775C15.2237 10.0878 15.0609 10.1552 14.8912 10.1552ZM14.8912 17.2029C14.7215 17.2029 14.5587 17.1355 14.4387 17.0154C14.3186 16.8954 14.2512 16.7326 14.2512 16.5629V14.4848C14.2512 14.3151 14.3186 14.1523 14.4387 14.0323C14.5587 13.9122 14.7215 13.8448 14.8912 13.8448C15.0609 13.8448 15.2237 13.9122 15.3438 14.0323C15.4638 14.1523 15.5312 14.3151 15.5312 14.4848V16.5629C15.5312 16.6469 15.5146 16.7301 15.4825 16.8078C15.4503 16.8854 15.4032 16.956 15.3438 17.0154C15.2843 17.0749 15.2138 17.122 15.1361 17.1542C15.0585 17.1863 14.9752 17.2029 14.8912 17.2029ZM14.8912 13.472C14.7215 13.472 14.5587 13.4046 14.4387 13.2845C14.3186 13.1645 14.2512 13.0017 14.2512 12.832V11.2208C14.2512 11.0511 14.3186 10.8883 14.4387 10.7683C14.5587 10.6482 14.7215 10.5808 14.8912 10.5808C15.0609 10.5808 15.2237 10.6482 15.3438 10.7683C15.4638 10.8883 15.5312 11.0511 15.5312 11.2208V12.832C15.5312 13.0017 15.4638 13.1645 15.3438 13.2845C15.2237 13.4046 15.0609 13.472 14.8912 13.472ZM8.94368 12.7418C8.8495 12.7418 8.75648 12.7211 8.67124 12.681C8.586 12.641 8.51065 12.5826 8.45056 12.5101L8.06656 12.047C7.9603 11.9182 7.90858 11.753 7.92244 11.5866C7.93629 11.4202 8.01463 11.2658 8.14074 11.1564C8.26684 11.0469 8.43073 10.9911 8.59742 11.0008C8.76411 11.0105 8.92041 11.085 9.03296 11.2083L9.1184 11.1398C9.25111 11.0383 9.41825 10.9928 9.5841 11.0129C9.74996 11.0329 9.90139 11.1171 10.006 11.2473C10.1107 11.3775 10.1603 11.5435 10.1442 11.7098C10.1281 11.8761 10.0477 12.0295 9.92 12.1373L9.344 12.6003C9.23066 12.6918 9.08937 12.7418 8.94368 12.7418Z" fill="#202020"/>
</svg>
