<svg width="24" height="24" viewBox="0 0 24 24" fill="none" xmlns="http://www.w3.org/2000/svg">
<path d="M11.9999 20.4557C10.0435 20.4558 8.14754 19.7776 6.6351 18.5365C5.12267 17.2955 4.08735 15.5684 3.70556 13.6496C3.32377 11.7307 3.61913 9.7389 4.5413 8.01342C5.46348 6.28795 6.95542 4.93562 8.76291 4.18685C10.5704 3.43809 12.5816 3.33922 14.4538 3.90709C16.326 4.47496 17.9434 5.67444 19.0304 7.30114C20.1174 8.92784 20.6067 10.8811 20.4149 12.8281C20.2232 14.7752 19.3622 16.5955 17.9788 17.9789C17.1955 18.7666 16.2638 19.3911 15.2375 19.8162C14.2112 20.2414 13.1108 20.4587 11.9999 20.4557ZM11.9999 4.82431C8.04346 4.82431 4.82426 8.04351 4.82426 12C4.82426 15.9565 8.04346 19.1757 11.9999 19.1757C15.9564 19.1757 19.1756 15.9565 19.1756 12C19.1756 8.04351 15.9564 4.82431 11.9999 4.82431Z" fill="#202020"/>
<path d="M10.2948 15.3776C10.2813 15.3776 10.2676 15.3776 10.2541 15.3776C10.1685 15.3721 10.0849 15.3494 10.0082 15.3109C9.9315 15.2725 9.86333 15.219 9.80774 15.1536L7.18758 12.0816C7.07725 11.9525 7.02273 11.7848 7.03602 11.6155C7.04932 11.4462 7.12933 11.289 7.25846 11.1787C7.38758 11.0684 7.55525 11.0139 7.72458 11.0272C7.8939 11.0405 8.05101 11.1205 8.16134 11.2496L10.3533 13.8195L15.8954 8.78848C16.0211 8.67437 16.187 8.61487 16.3565 8.62306C16.5261 8.63125 16.6855 8.70647 16.7996 8.83216C16.9137 8.95785 16.9732 9.12372 16.965 9.29328C16.9568 9.46285 16.8816 9.62221 16.7559 9.73632L10.7249 15.2115C10.6071 15.3184 10.4538 15.3776 10.2948 15.3776Z" fill="#202020"/>
</svg>
