<svg width="24" height="24" viewBox="0 0 24 24" fill="none" xmlns="http://www.w3.org/2000/svg">
<path d="M18.5731 17.8605H5.42689C4.91582 17.8599 4.42585 17.6566 4.06447 17.2952C3.70308 16.9338 3.4998 16.4439 3.49921 15.9328V14.544C3.49921 14.3743 3.56663 14.2115 3.68666 14.0914C3.80668 13.9714 3.96947 13.904 4.13921 13.904C4.28072 13.9064 4.4213 13.8807 4.55275 13.8282C4.68421 13.7758 4.80389 13.6977 4.90484 13.5985C5.00578 13.4992 5.08595 13.3809 5.14068 13.2504C5.19541 13.1199 5.22359 12.9798 5.22359 12.8382C5.22359 12.6967 5.19541 12.5566 5.14068 12.4261C5.08595 12.2955 5.00578 12.1772 4.90484 12.078C4.80389 11.9788 4.68421 11.9007 4.55275 11.8482C4.4213 11.7958 4.28072 11.77 4.13921 11.7725C3.96947 11.7725 3.80668 11.705 3.68666 11.585C3.56663 11.465 3.49921 11.3022 3.49921 11.1325V9.38239C3.50005 8.87152 3.70346 8.38183 4.06482 8.02071C4.42619 7.65958 4.91601 7.4565 5.42689 7.45599H18.5731C19.0842 7.4565 19.5742 7.65976 19.9356 8.02116C20.297 8.38256 20.5003 8.87258 20.5008 9.38367V11.1437C20.5008 11.3018 20.4422 11.4544 20.3364 11.5719C20.2306 11.6894 20.085 11.7636 19.9277 11.7802C19.6665 11.8085 19.4249 11.9324 19.2495 12.128C19.074 12.3236 18.9769 12.5771 18.9769 12.8398C18.9769 13.1026 19.074 13.3561 19.2495 13.5517C19.4249 13.7473 19.6665 13.8711 19.9277 13.8995C20.085 13.916 20.2306 13.9902 20.3364 14.1078C20.4422 14.2253 20.5008 14.3778 20.5008 14.536V15.9344C20.4998 16.4452 20.2963 16.9347 19.935 17.2958C19.5736 17.6568 19.0839 17.8599 18.5731 17.8605ZM4.77921 15.0954V15.9328C4.77938 16.1045 4.84767 16.2692 4.96909 16.3906C5.09052 16.512 5.25516 16.5803 5.42689 16.5805H18.5731C18.7448 16.5803 18.9095 16.512 19.0309 16.3906C19.1523 16.2692 19.2206 16.1045 19.2208 15.9328V15.0368C18.773 14.8692 18.387 14.5688 18.1145 14.1759C17.842 13.7829 17.6959 13.3161 17.6959 12.8379C17.6959 12.3597 17.842 11.8929 18.1145 11.5C18.387 11.107 18.773 10.8067 19.2208 10.639V9.38239C19.2203 9.21089 19.1519 9.04658 19.0305 8.92543C18.9091 8.80428 18.7446 8.73616 18.5731 8.73599H5.42689C5.25516 8.73616 5.09052 8.80446 4.96909 8.92588C4.84767 9.04731 4.77938 9.21195 4.77921 9.38367V10.5824C5.2704 10.7218 5.70271 11.0176 6.01055 11.4249C6.31838 11.8323 6.48494 12.3289 6.48494 12.8395C6.48494 13.3501 6.31838 13.8467 6.01055 14.2541C5.70271 14.6614 5.2704 14.9572 4.77921 15.0966V15.0954Z" fill="#202020"/>
<path d="M14.8912 10.8128C14.7215 10.8128 14.5587 10.7454 14.4387 10.6253C14.3186 10.5053 14.2512 10.3425 14.2512 10.1728V8.09599C14.2512 7.92626 14.3186 7.76347 14.4387 7.64345C14.5587 7.52342 14.7215 7.45599 14.8912 7.45599C15.061 7.45599 15.2237 7.52342 15.3438 7.64345C15.4638 7.76347 15.5312 7.92626 15.5312 8.09599V10.1728C15.5312 10.3425 15.4638 10.5053 15.3438 10.6253C15.2237 10.7454 15.061 10.8128 14.8912 10.8128ZM14.8912 17.8605C14.7215 17.8605 14.5587 17.793 14.4387 17.673C14.3186 17.553 14.2512 17.3902 14.2512 17.2205V15.1424C14.2512 14.9727 14.3186 14.8099 14.4387 14.6898C14.5587 14.5698 14.7215 14.5024 14.8912 14.5024C15.061 14.5024 15.2237 14.5698 15.3438 14.6898C15.4638 14.8099 15.5312 14.9727 15.5312 15.1424V17.2205C15.5312 17.3902 15.4638 17.553 15.3438 17.673C15.2237 17.793 15.061 17.8605 14.8912 17.8605ZM14.8912 14.1296C14.7215 14.1296 14.5587 14.0622 14.4387 13.9421C14.3186 13.8221 14.2512 13.6593 14.2512 13.4896V11.8781C14.2512 11.7083 14.3186 11.5455 14.4387 11.4255C14.5587 11.3055 14.7215 11.2381 14.8912 11.2381C15.061 11.2381 15.2237 11.3055 15.3438 11.4255C15.4638 11.5455 15.5312 11.7083 15.5312 11.8781V13.4896C15.5312 13.6593 15.4638 13.8221 15.3438 13.9421C15.2237 14.0622 15.061 14.1296 14.8912 14.1296Z" fill="#202020"/>
<path d="M13.0314 8.73599H7.43679C7.30219 8.73667 7.17081 8.69489 7.06132 8.6166C6.95183 8.53831 6.86981 8.42749 6.82693 8.2999C6.78405 8.17232 6.78248 8.03446 6.82245 7.90593C6.86243 7.7774 6.94191 7.66475 7.04959 7.58399L10.3798 5.05215C10.8419 4.70128 11.4188 4.53657 11.9965 4.59061C12.5742 4.64465 13.1105 4.9135 13.4995 5.34399L14.7446 6.71999C14.804 6.78563 14.8491 6.86288 14.8771 6.94685C14.9051 7.03082 14.9154 7.11969 14.9073 7.20784C14.8992 7.29598 14.873 7.38149 14.8301 7.45896C14.7873 7.53643 14.7289 7.60417 14.6585 7.65791L13.4198 8.60383C13.3084 8.68933 13.1718 8.73577 13.0314 8.73599ZM9.33631 7.45599H12.815L13.327 7.06367L12.5504 6.20223C12.3767 6.00874 12.1363 5.88803 11.8774 5.86429C11.6185 5.84055 11.3602 5.91554 11.1542 6.07423L9.33631 7.45599Z" fill="#202020"/>
</svg>
