<svg width="24" height="24" viewBox="0 0 24 24" fill="none" xmlns="http://www.w3.org/2000/svg">
<path d="M18.0131 18.0272H5.98682C5.20153 18.0263 4.44865 17.714 3.89336 17.1587C3.33808 16.6034 3.02575 15.8505 3.0249 15.0653V8.9347C3.02575 8.14941 3.33808 7.39652 3.89336 6.84124C4.44865 6.28596 5.20153 5.97363 5.98682 5.97278H18.0131C18.7984 5.97363 19.5512 6.28596 20.1065 6.84124C20.6618 7.39652 20.9741 8.14941 20.975 8.9347V15.0653C20.9741 15.8505 20.6618 16.6034 20.1065 17.1587C19.5512 17.714 18.7984 18.0263 18.0131 18.0272ZM5.98682 7.25278C5.54091 7.25329 5.1134 7.43065 4.79809 7.74596C4.48278 8.06127 4.30541 8.48878 4.3049 8.9347V15.0653C4.30541 15.5112 4.48278 15.9387 4.79809 16.254C5.1134 16.5693 5.54091 16.7467 5.98682 16.7472H18.0131C18.459 16.7467 18.8865 16.5693 19.2018 16.254C19.5171 15.9387 19.6945 15.5112 19.695 15.0653V8.9347C19.6945 8.48878 19.5171 8.06127 19.2018 7.74596C18.8865 7.43065 18.459 7.25329 18.0131 7.25278H5.98682Z" fill="#202020"/>
<path d="M10.0592 14.1119H6.77085C6.43286 14.1115 6.10884 13.9771 5.86984 13.7381C5.63085 13.4991 5.4964 13.175 5.49597 12.8371V11.1619C5.49665 10.824 5.63121 10.5003 5.87018 10.2615C6.10915 10.0227 6.43303 9.88836 6.77085 9.88794H10.0592C10.3972 9.88836 10.7212 10.0228 10.9602 10.2618C11.1992 10.5008 11.3336 10.8248 11.3341 11.1628V12.839C11.3331 13.1766 11.1984 13.5002 10.9595 13.7387C10.7206 13.9773 10.3968 14.1115 10.0592 14.1119ZM6.77597 12.8319H10.0541V11.1679H6.77597V12.8319Z" fill="#202020"/>
</svg>
