<svg width="24" height="24" viewBox="0 0 24 24" fill="none" xmlns="http://www.w3.org/2000/svg">
<path d="M15.7898 14.4797H15.3373C14.6788 14.479 14.0475 14.217 13.5819 13.7514C13.1163 13.2857 12.8544 12.6544 12.8538 11.9959V11.8737C12.8545 11.2152 13.1164 10.584 13.582 10.1184C14.0476 9.6528 14.6788 9.3909 15.3373 9.39014H15.7898C16.4482 9.3909 17.0795 9.65279 17.5451 10.1184C18.0108 10.5839 18.2728 11.2152 18.2736 11.8737V11.9959C18.2728 12.6544 18.0109 13.2857 17.5453 13.7514C17.0796 14.217 16.4483 14.479 15.7898 14.4797ZM15.3373 10.6717C15.0182 10.6721 14.7123 10.799 14.4866 11.0246C14.261 11.2502 14.1341 11.5562 14.1338 11.8753V11.9975C14.1341 12.3166 14.261 12.6226 14.4866 12.8483C14.7122 13.0739 15.0182 13.2009 15.3373 13.2013H15.7898C16.1089 13.2009 16.4149 13.0739 16.6405 12.8483C16.8662 12.6226 16.9932 12.3166 16.9936 11.9975V11.8753C16.9932 11.5561 16.8662 11.2502 16.6405 11.0246C16.4148 10.799 16.1089 10.6721 15.7898 10.6717H15.3373Z" fill="#202020"/>
<path d="M15.8556 18.0272H9.95994C6.63642 18.0272 3.93274 15.3235 3.93274 12C3.93274 8.67646 6.63642 5.97278 9.95994 5.97278H15.8556C19.1791 5.97278 21.8828 8.67646 21.8828 12C21.8828 15.3235 19.1791 18.0272 15.8556 18.0272ZM9.95994 7.25278C7.34234 7.25278 5.21274 9.38238 5.21274 12C5.21274 14.6176 7.34234 16.7472 9.95994 16.7472H15.8556C18.4732 16.7472 20.6028 14.6176 20.6028 12C20.6028 9.38238 18.4732 7.25278 15.8556 7.25278H9.95994Z" fill="#202020"/>
</svg>
