<svg width="24" height="24" viewBox="0 0 24 24" fill="none" xmlns="http://www.w3.org/2000/svg">
<g clip-path="url(#clip0_3_218)">
<path d="M2.25 17.25C2.25 19.7353 4.26472 21.75 6.75 21.75H7.5C7.91423 21.75 8.25 22.0858 8.25 22.5C8.25 22.9142 7.91423 23.25 7.5 23.25H6.75C3.43629 23.25 0.75 20.5637 0.75 17.25V16.5C0.75 16.0858 1.08579 15.75 1.5 15.75C1.91421 15.75 2.25 16.0858 2.25 16.5V17.25ZM16.5 23.25C16.0858 23.25 15.75 22.9142 15.75 22.5C15.75 22.0858 16.0858 21.75 16.5 21.75H17.25C19.7353 21.75 21.75 19.7353 21.75 17.25V16.5C21.75 16.0858 22.0858 15.75 22.5 15.75C22.9142 15.75 23.25 16.0858 23.25 16.5V17.25C23.25 20.5637 20.5637 23.25 17.25 23.25H16.5ZM2.25 7.5C2.25 7.91423 1.91421 8.25 1.5 8.25C1.08579 8.25 0.75 7.91423 0.75 7.5V6.75C0.75 3.43629 3.43629 0.75 6.75 0.75H7.5C7.91423 0.75 8.25 1.08579 8.25 1.5C8.25 1.91421 7.91423 2.25 7.5 2.25H6.75C4.26472 2.25 2.25 4.26472 2.25 6.75V7.5ZM23.25 7.5C23.25 7.91423 22.9142 8.25 22.5 8.25C22.0858 8.25 21.75 7.91423 21.75 7.5V6.75C21.75 4.26472 19.7353 2.25 17.25 2.25H16.5C16.0858 2.25 15.75 1.91421 15.75 1.5C15.75 1.08579 16.0858 0.75 16.5 0.75H17.25C20.5637 0.75 23.25 3.43629 23.25 6.75V7.5Z" fill="#202020"/>
<path fill-rule="evenodd" clip-rule="evenodd" d="M11.6223 6.375C9.93653 6.375 8.35328 7.18455 7.36628 8.55116L7.06294 8.97116H6.57694C5.01566 8.97116 3.75 10.2368 3.75 11.7981C3.75 13.3593 5.01566 14.625 6.57694 14.625H6.59989C6.94129 15.2928 7.63601 15.75 8.4375 15.75C9.23899 15.75 9.93371 15.2928 10.2751 14.625H13.7249C14.0663 15.2928 14.761 15.75 15.5625 15.75C16.3648 15.75 17.0601 15.2919 17.4011 14.6231C18.9841 14.5663 20.25 13.2651 20.25 11.6683V11.3366C20.25 9.97504 19.2135 8.85563 17.8865 8.72441L16.0349 7.37843C15.1377 6.72626 14.0571 6.375 12.948 6.375H11.6223ZM17.5413 13.104C17.2896 12.2491 16.4989 11.625 15.5625 11.625C14.6184 11.625 13.8225 12.2593 13.5776 13.125H10.4224C10.1775 12.2593 9.3816 11.625 8.4375 11.625C7.49546 11.625 6.70091 12.2566 6.45424 13.1194C5.7789 13.0575 5.25 12.4896 5.25 11.7981C5.25 11.0652 5.84407 10.4712 6.57694 10.4712H7.44641C7.68727 10.4712 7.91344 10.3555 8.05444 10.1603L8.58229 9.42941C9.28729 8.45325 10.4182 7.875 11.6223 7.875H12.948C13.7402 7.875 14.5121 8.12591 15.1529 8.59174L17.184 10.0682C17.3122 10.1614 17.4666 10.2116 17.625 10.2116C18.2463 10.2116 18.75 10.7152 18.75 11.3366V11.6683C18.75 12.3882 18.2277 12.9863 17.5413 13.104ZM8.4375 13.125C8.12685 13.125 7.875 13.3769 7.875 13.6875C7.875 13.9981 8.12685 14.25 8.4375 14.25C8.74815 14.25 9 13.9981 9 13.6875C9 13.3769 8.74815 13.125 8.4375 13.125ZM15 13.6875C15 13.3769 15.2519 13.125 15.5625 13.125C15.8731 13.125 16.125 13.3769 16.125 13.6875C16.125 13.9981 15.8731 14.25 15.5625 14.25C15.2519 14.25 15 13.9981 15 13.6875Z" fill="#202020"/>
</g>
<defs>
<clipPath id="clip0_3_218">
<rect width="24" height="24" fill="white"/>
</clipPath>
</defs>
</svg>
