<svg width="24" height="24" viewBox="0 0 24 24" fill="none" xmlns="http://www.w3.org/2000/svg">
<path d="M14.368 14.8595C14.108 14.8596 13.8485 14.8376 13.5923 14.7936C13.5087 14.7803 13.4285 14.7505 13.3565 14.7059C13.2845 14.6614 13.222 14.603 13.1727 14.5341C13.1234 14.4653 13.0882 14.3873 13.0693 14.3048C13.0503 14.2222 13.048 14.1367 13.0623 14.0533C13.0766 13.9698 13.1074 13.89 13.1528 13.8185C13.1982 13.747 13.2573 13.6852 13.3268 13.6368C13.3962 13.5883 13.4746 13.5541 13.5574 13.5361C13.6402 13.5182 13.7257 13.5168 13.809 13.5322C13.9936 13.5637 14.1807 13.5795 14.368 13.5795C15.23 13.5675 16.0526 13.2166 16.6579 12.6028C17.2632 11.989 17.6025 11.1616 17.6025 10.2995C17.6025 9.43747 17.2632 8.61006 16.6579 7.99625C16.0526 7.38244 15.23 7.03157 14.368 7.01953C12.7277 7.01953 11.328 8.24353 11.1162 9.86753C11.094 10.0358 11.0059 10.1884 10.8712 10.2918C10.7366 10.3951 10.5664 10.4407 10.3981 10.4186C10.2298 10.3964 10.0772 10.3083 9.97384 10.1737C9.8705 10.039 9.82489 9.86879 9.84704 9.70049C10.144 7.44289 12.087 5.74017 14.368 5.74017C16.8822 5.74017 18.928 7.78593 18.928 10.3005C18.928 12.8151 16.8835 14.8595 14.368 14.8595Z" fill="#202020"/>
<path d="M9.63201 18.2656C7.11777 18.2656 5.07201 16.2199 5.07201 13.7056C5.07201 11.1914 7.11649 9.14529 9.63201 9.14529C12.1475 9.14529 14.191 11.1911 14.191 13.7056C14.191 16.2202 12.1453 18.2656 9.63201 18.2656ZM9.63201 10.4256C8.98315 10.4254 8.3488 10.6175 7.80918 10.9778C7.26956 11.3382 6.84891 11.8504 6.60044 12.4498C6.35198 13.0492 6.28685 13.7088 6.4133 14.3452C6.53976 14.9816 6.85211 15.5663 7.31085 16.0251C7.76959 16.484 8.35412 16.7965 8.99049 16.9232C9.62687 17.0498 10.2865 16.9849 10.886 16.7366C11.4854 16.4883 11.9978 16.0678 12.3583 15.5283C12.7187 14.9888 12.9111 14.3545 12.911 13.7056C12.9101 12.8361 12.5644 12.0025 11.9497 11.3876C11.335 10.7726 10.5015 10.4266 9.63201 10.4253V10.4256Z" fill="#202020"/>
<path d="M16.3107 18.6576C16.2461 18.6576 16.1819 18.6478 16.1203 18.6285L13.5114 17.8154C13.3981 17.7801 13.2968 17.7139 13.2189 17.6244C13.1411 17.5349 13.0896 17.4255 13.0703 17.3084C13.051 17.1913 13.0647 17.0712 13.1097 16.9614C13.1548 16.8516 13.2295 16.7565 13.3254 16.6867L15.936 14.7894C16.0315 14.72 16.1443 14.6784 16.2619 14.6691C16.3796 14.6598 16.4975 14.6832 16.6027 14.7368C16.7079 14.7903 16.7962 14.8719 16.8579 14.9725C16.9196 15.0731 16.9523 15.1889 16.9523 15.3069V18.0176C16.9523 18.1873 16.8849 18.3501 16.7649 18.4702C16.6448 18.5902 16.4821 18.6576 16.3123 18.6576H16.3107ZM15.1088 16.9725L15.6707 17.1475V16.5638L15.1088 16.9725ZM7.46751 9.33312C7.29778 9.33312 7.13499 9.2657 7.01497 9.14567C6.89494 9.02565 6.82751 8.86286 6.82751 8.69313V5.984C6.82754 5.88367 6.85115 5.78475 6.89644 5.69522C6.94174 5.60569 7.00745 5.52807 7.08827 5.46862C7.16909 5.40916 7.26275 5.36954 7.36171 5.35295C7.46066 5.33637 7.56212 5.34328 7.65791 5.37312L10.2669 6.18624C10.3802 6.22152 10.4815 6.2876 10.5594 6.37711C10.6373 6.46662 10.6888 6.57603 10.7081 6.69312C10.7274 6.81021 10.7138 6.93037 10.6688 7.04016C10.6238 7.14996 10.5491 7.24508 10.4531 7.31488L7.84415 9.21216C7.73453 9.29125 7.60268 9.33359 7.46751 9.33312ZM8.10751 6.85248V7.43616L8.66975 7.02752L8.10751 6.85248Z" fill="#202020"/>
</svg>
