<svg width="24" height="24" viewBox="0 0 24 24" fill="none" xmlns="http://www.w3.org/2000/svg">
<path d="M14.6333 19.8166H9.95744C9.45134 19.8154 8.96282 19.6308 8.58246 19.2969C8.2021 18.9631 7.95571 18.5026 7.88896 18.0009L6.56256 7.83707C6.55034 7.7531 6.55494 7.66755 6.57608 7.58537C6.59723 7.5032 6.63451 7.42606 6.68574 7.35842C6.73698 7.29079 6.80115 7.23402 6.87453 7.19142C6.94791 7.14881 7.02902 7.12122 7.11316 7.11026C7.19729 7.09929 7.28277 7.10516 7.36462 7.12753C7.44647 7.1499 7.52305 7.18832 7.58991 7.24056C7.65677 7.2928 7.71258 7.35781 7.75409 7.43181C7.79559 7.50582 7.82197 7.58734 7.83168 7.67163L9.1584 17.8351C9.18414 18.0291 9.27944 18.2072 9.42658 18.3362C9.57373 18.4652 9.76271 18.5364 9.9584 18.5366H14.6333C14.8294 18.5364 15.0187 18.4649 15.1659 18.3353C15.3131 18.2058 15.4082 18.0271 15.4333 17.8326L16.727 7.67355C16.7362 7.58904 16.7621 7.50721 16.8032 7.43281C16.8443 7.35842 16.8998 7.29296 16.9665 7.24025C17.0331 7.18755 17.1097 7.14865 17.1915 7.12584C17.2734 7.10302 17.359 7.09674 17.4433 7.10737C17.5277 7.118 17.609 7.14531 17.6827 7.18773C17.7564 7.23014 17.8208 7.2868 17.8723 7.3544C17.9239 7.422 17.9614 7.49919 17.9828 7.58145C18.0041 7.66372 18.0089 7.74942 17.9968 7.83355L16.704 17.9945C16.6389 18.4978 16.3929 18.9603 16.0118 19.2956C15.6308 19.6309 15.1408 19.816 14.6333 19.8166ZM18.6042 6.83579H5.95488C5.78514 6.83579 5.62236 6.76836 5.50233 6.64833C5.38231 6.52831 5.31488 6.36552 5.31488 6.19579C5.31488 6.02605 5.38231 5.86326 5.50233 5.74324C5.62236 5.62321 5.78514 5.55579 5.95488 5.55579H18.6042C18.7739 5.55579 18.9367 5.62321 19.0567 5.74324C19.1767 5.86326 19.2442 6.02605 19.2442 6.19579C19.2442 6.36552 19.1767 6.52831 19.0567 6.64833C18.9367 6.76836 18.7739 6.83579 18.6042 6.83579Z" fill="#202020"/>
<path d="M9.94178 6.83585C9.84109 6.8359 9.74182 6.8122 9.65202 6.76666C9.56222 6.72113 9.48443 6.65505 9.42497 6.5738C9.36551 6.49254 9.32606 6.39841 9.30983 6.29904C9.29359 6.19967 9.30103 6.09788 9.33154 6.00193L9.86242 4.33057C9.90325 4.20075 9.98439 4.08732 10.0941 4.00676C10.2037 3.9262 10.3363 3.8827 10.4723 3.88257H14.4029C14.5448 3.88253 14.6827 3.92966 14.7949 4.01655C14.9071 4.10344 14.9873 4.22516 15.0227 4.36257L15.4519 6.03393C15.4943 6.19832 15.4697 6.37284 15.3834 6.51908C15.2972 6.66533 15.1564 6.77133 14.992 6.81377C14.8276 6.8562 14.6531 6.83159 14.5069 6.74536C14.3606 6.65912 14.2546 6.51832 14.2122 6.35393L13.9063 5.16321H10.9408L10.5517 6.38849C10.5108 6.51819 10.4296 6.63147 10.3199 6.71191C10.2102 6.79235 10.0778 6.83576 9.94178 6.83585ZM14.4029 10.3933H10.4723C10.3026 10.3933 10.1398 10.3259 10.0198 10.2058C9.89977 10.0858 9.83234 9.92303 9.83234 9.75329C9.83234 9.58355 9.89977 9.42076 10.0198 9.30074C10.1398 9.18072 10.3026 9.11329 10.4723 9.11329H14.4029C14.5726 9.11329 14.7354 9.18072 14.8554 9.30074C14.9755 9.42076 15.0429 9.58355 15.0429 9.75329C15.0429 9.92303 14.9755 10.0858 14.8554 10.2058C14.7354 10.3259 14.5726 10.3933 14.4029 10.3933ZM14.4029 13.2058H10.4723C10.3026 13.2058 10.1398 13.1383 10.0198 13.0183C9.89977 12.8983 9.83234 12.7355 9.83234 12.5658C9.83234 12.396 9.89977 12.2332 10.0198 12.1132C10.1398 11.9932 10.3026 11.9258 10.4723 11.9258H14.4029C14.5726 11.9258 14.7354 11.9932 14.8554 12.1132C14.9755 12.2332 15.0429 12.396 15.0429 12.5658C15.0429 12.7355 14.9755 12.8983 14.8554 13.0183C14.7354 13.1383 14.5726 13.2058 14.4029 13.2058Z" fill="#202020"/>
</svg>
