<svg width="24" height="24" viewBox="0 0 24 24" fill="none" xmlns="http://www.w3.org/2000/svg">
<path d="M15.6938 18.5837H9.6295C9.45976 18.5837 9.29698 18.5163 9.17695 18.3963C9.05693 18.2762 8.9895 18.1134 8.9895 17.9437C8.9895 17.774 9.05693 17.6112 9.17695 17.4912C9.29698 17.3711 9.45976 17.3037 9.6295 17.3037H15.6938C15.8636 17.3037 16.0263 17.3711 16.1464 17.4912C16.2664 17.6112 16.3338 17.774 16.3338 17.9437C16.3338 18.1134 16.2664 18.2762 16.1464 18.3963C16.0263 18.5163 15.8636 18.5837 15.6938 18.5837Z" fill="#202020"/>
<path d="M21.111 18.5837H18.9526C18.7829 18.5837 18.6201 18.5162 18.5 18.3962C18.38 18.2762 18.3126 18.1134 18.3126 17.9437C18.3126 17.7739 18.38 17.6111 18.5 17.4911C18.6201 17.3711 18.7829 17.3037 18.9526 17.3037H21.111C21.2053 17.3036 21.2958 17.2661 21.3625 17.1993C21.4292 17.1326 21.4667 17.0422 21.4668 16.9478V13.4659C21.4677 13.0035 21.321 12.5529 21.0483 12.1795L18.5894 8.79998C18.4441 8.60079 18.2538 8.43868 18.0341 8.32681C17.8143 8.21494 17.5713 8.15647 17.3248 8.15615H16.2304V14.1222C16.2304 14.292 16.1629 14.4548 16.0429 14.5748C15.9229 14.6948 15.7601 14.7622 15.5904 14.7622H4.62619V17.0816C4.62619 17.1404 4.64954 17.1969 4.69112 17.2385C4.7327 17.2801 4.78911 17.3036 4.84795 17.3037H6.21755C6.38729 17.3037 6.55008 17.3711 6.6701 17.4911C6.79012 17.6111 6.85755 17.7739 6.85755 17.9437C6.85755 18.1134 6.79012 18.2762 6.6701 18.3962C6.55008 18.5162 6.38729 18.5837 6.21755 18.5837H4.84795C4.44979 18.5831 4.0681 18.4246 3.78659 18.143C3.50507 17.8615 3.3467 17.4797 3.34619 17.0816V14.1222C3.34619 13.9525 3.41362 13.7897 3.53364 13.6697C3.65367 13.5497 3.81645 13.4822 3.98619 13.4822H14.9504V7.51646C14.9504 7.34673 15.0178 7.18394 15.1378 7.06392C15.2578 6.94389 15.4206 6.87646 15.5904 6.87646H17.3248C17.7731 6.87719 18.215 6.98358 18.6146 7.18701C19.0142 7.39044 19.3602 7.68519 19.6246 8.04734L22.0831 11.4262C22.5158 12.0182 22.7483 12.7327 22.7468 13.4659V16.9478C22.7463 17.3815 22.5738 17.7973 22.2671 18.104C21.9605 18.4106 21.5447 18.5832 21.111 18.5837Z" fill="#202020"/>
<path d="M7.88379 20.0246C7.47241 20.0246 7.07026 19.9026 6.72821 19.6741C6.38615 19.4455 6.11955 19.1207 5.96212 18.7406C5.80469 18.3605 5.7635 17.9423 5.84376 17.5388C5.92402 17.1354 6.12212 16.7647 6.41301 16.4738C6.7039 16.1829 7.07452 15.9848 7.478 15.9046C7.88148 15.8243 8.2997 15.8655 8.67977 16.023C9.05984 16.1804 9.38469 16.447 9.61325 16.789C9.8418 17.1311 9.96379 17.5332 9.96379 17.9446C9.96286 18.496 9.74342 19.0245 9.35354 19.4144C8.96367 19.8043 8.43515 20.0237 7.88379 20.0246ZM7.88379 17.1427C7.72557 17.1427 7.57089 17.1896 7.43933 17.2775C7.30778 17.3654 7.20524 17.4904 7.14469 17.6366C7.08414 17.7827 7.0683 17.9436 7.09916 18.0988C7.13003 18.254 7.20622 18.3965 7.31811 18.5084C7.42999 18.6203 7.57253 18.6965 7.72772 18.7273C7.8829 18.7582 8.04376 18.7424 8.18994 18.6818C8.33612 18.6213 8.46106 18.5187 8.54897 18.3872C8.63687 18.2556 8.68379 18.1009 8.68379 17.9427C8.68337 17.7307 8.59895 17.5274 8.44901 17.3775C8.29907 17.2275 8.09583 17.1431 7.88379 17.1427ZM17.1347 20.0246C16.7233 20.0246 16.3211 19.9026 15.9791 19.6741C15.637 19.4455 15.3704 19.1207 15.213 18.7406C15.0556 18.3605 15.0144 17.9423 15.0946 17.5388C15.1749 17.1354 15.373 16.7647 15.6639 16.4738C15.9548 16.1829 16.3254 15.9848 16.7289 15.9046C17.1324 15.8243 17.5506 15.8655 17.9307 16.023C18.3107 16.1804 18.6356 16.447 18.8641 16.789C19.0927 17.1311 19.2147 17.5332 19.2147 17.9446C19.2137 18.496 18.9943 19.0245 18.6044 19.4144C18.2146 19.8043 17.686 20.0237 17.1347 20.0246ZM17.1347 17.1427C16.9764 17.1427 16.8218 17.1896 16.6902 17.2775C16.5587 17.3654 16.4561 17.4904 16.3956 17.6366C16.335 17.7827 16.3192 17.9436 16.35 18.0988C16.3809 18.254 16.4571 18.3965 16.569 18.5084C16.6809 18.6203 16.8234 18.6965 16.9786 18.7273C17.1338 18.7582 17.2946 18.7424 17.4408 18.6818C17.587 18.6213 17.7119 18.5187 17.7998 18.3872C17.8878 18.2556 17.9347 18.1009 17.9347 17.9427C17.9342 17.7307 17.8498 17.5274 17.6999 17.3775C17.55 17.2275 17.3467 17.1431 17.1347 17.1427ZM15.5904 14.7622H3.98619C3.81645 14.7622 3.65367 14.6948 3.53364 14.5748C3.41362 14.4547 3.34619 14.292 3.34619 14.1222V9.9587C3.34619 9.78896 3.41362 9.62618 3.53364 9.50615C3.65367 9.38613 3.81645 9.3187 3.98619 9.3187C4.15593 9.3187 4.31872 9.38613 4.43874 9.50615C4.55876 9.62618 4.62619 9.78896 4.62619 9.9587V13.4822H14.9504V5.6867C14.9503 5.57238 14.9048 5.46276 14.824 5.38189C14.7432 5.30102 14.6336 5.25551 14.5193 5.25534H5.05595C4.88621 5.25534 4.72343 5.18791 4.6034 5.06789C4.48338 4.94787 4.41595 4.78508 4.41595 4.61534C4.41595 4.4456 4.48338 4.28282 4.6034 4.16279C4.72343 4.04277 4.88621 3.97534 5.05595 3.97534H14.5193C14.973 3.97593 15.4079 4.15644 15.7287 4.47726C16.0494 4.79808 16.2298 5.23303 16.2304 5.6867V14.1222C16.2304 14.292 16.1629 14.4547 16.0429 14.5748C15.9229 14.6948 15.7601 14.7622 15.5904 14.7622Z" fill="#202020"/>
<path d="M21.5657 12.4429H15.5904C15.4206 12.4429 15.2579 12.3755 15.1378 12.2554C15.0178 12.1354 14.9504 11.9726 14.9504 11.8029C14.9504 11.6332 15.0178 11.4704 15.1378 11.3503C15.2579 11.2303 15.4206 11.1629 15.5904 11.1629H21.5657C21.7355 11.1629 21.8983 11.2303 22.0183 11.3503C22.1383 11.4704 22.2057 11.6332 22.2057 11.8029C22.2057 11.9726 22.1383 12.1354 22.0183 12.2554C21.8983 12.3755 21.7355 12.4429 21.5657 12.4429ZM4.5859 10.6167C3.92675 10.6166 3.28242 10.4211 2.73438 10.0548C2.18635 9.68857 1.75922 9.16803 1.50702 8.55904C1.25482 7.95004 1.18886 7.27994 1.3175 6.63346C1.44613 5.98698 1.76357 5.39316 2.22969 4.92709C2.6958 4.46102 3.28965 4.14364 3.93614 4.01507C4.58263 3.8865 5.25273 3.95252 5.8617 4.20478C6.47067 4.45704 6.99117 4.88421 7.35736 5.43228C7.72356 5.98035 7.91902 6.6247 7.91902 7.28385C7.918 8.16751 7.5665 9.01468 6.94163 9.63949C6.31676 10.2643 5.46956 10.6157 4.5859 10.6167ZM4.5859 5.23105C4.17991 5.23111 3.78305 5.35156 3.44551 5.57717C3.10797 5.80277 2.84491 6.12339 2.68959 6.4985C2.53427 6.87361 2.49366 7.28635 2.5729 7.68453C2.65215 8.08271 2.84768 8.44846 3.13478 8.73551C3.42189 9.02257 3.78766 9.21805 4.18586 9.29723C4.58405 9.37641 4.99678 9.33574 5.37187 9.18036C5.74695 9.02498 6.06753 8.76187 6.29308 8.42429C6.51863 8.08672 6.63902 7.68984 6.63902 7.28385C6.63843 6.73954 6.42192 6.2177 6.037 5.83284C5.65208 5.44799 5.13021 5.23156 4.5859 5.23105Z" fill="#202020"/>
<path d="M3.719 8.34369C3.57411 8.34378 3.43347 8.2947 3.32009 8.20447C3.20671 8.11424 3.12731 7.98821 3.09486 7.84699C3.06242 7.70577 3.07886 7.55772 3.14149 7.42706C3.20412 7.2964 3.30924 7.19085 3.43964 7.12769L3.94588 6.88289V6.07713C3.94588 5.9074 4.01331 5.74461 4.13334 5.62459C4.25336 5.50456 4.41615 5.43713 4.58588 5.43713C4.75562 5.43713 4.91841 5.50456 5.03843 5.62459C5.15846 5.74461 5.22588 5.9074 5.22588 6.07713V7.28385C5.22589 7.40407 5.19204 7.52187 5.1282 7.62374C5.06436 7.72561 4.97312 7.80744 4.86492 7.85985L3.9974 8.27969C3.91064 8.32181 3.81545 8.3437 3.719 8.34369Z" fill="#202020"/>
</svg>
