<svg width="24" height="24" viewBox="0 0 24 24" fill="none" xmlns="http://www.w3.org/2000/svg">
<path d="M14.6633 18.5837H8.59898C8.42925 18.5837 8.26646 18.5163 8.14644 18.3963C8.02641 18.2762 7.95898 18.1134 7.95898 17.9437C7.95898 17.774 8.02641 17.6112 8.14644 17.4912C8.26646 17.3711 8.42925 17.3037 8.59898 17.3037H14.6633C14.833 17.3037 14.9958 17.3711 15.1159 17.4912C15.2359 17.6112 15.3033 17.774 15.3033 17.9437C15.3033 18.1134 15.2359 18.2762 15.1159 18.3963C14.9958 18.5163 14.833 18.5837 14.6633 18.5837Z" fill="#202020"/>
<path d="M20.0807 18.5837H17.9223C17.7525 18.5837 17.5897 18.5162 17.4697 18.3962C17.3497 18.2762 17.2823 18.1134 17.2823 17.9437C17.2823 17.7739 17.3497 17.6111 17.4697 17.4911C17.5897 17.3711 17.7525 17.3037 17.9223 17.3037H20.0807C20.175 17.3036 20.2655 17.2661 20.3322 17.1993C20.3989 17.1326 20.4364 17.0422 20.4365 16.9478V13.4659C20.4373 13.0035 20.2907 12.5529 20.018 12.1795L17.5591 8.79998C17.4137 8.60079 17.2235 8.43868 17.0038 8.32681C16.784 8.21494 16.541 8.15647 16.2944 8.15615H15.2V14.1222C15.2 14.292 15.1326 14.4548 15.0126 14.5748C14.8926 14.6948 14.7298 14.7622 14.56 14.7622H3.59555V17.0816C3.59555 17.1405 3.61895 17.197 3.6606 17.2386C3.70225 17.2803 3.75873 17.3037 3.81763 17.3037H5.18723C5.35697 17.3037 5.51976 17.3711 5.63978 17.4911C5.7598 17.6111 5.82723 17.7739 5.82723 17.9437C5.82723 18.1134 5.7598 18.2762 5.63978 18.3962C5.51976 18.5162 5.35697 18.5837 5.18723 18.5837H3.81763C3.41941 18.5832 3.03765 18.4247 2.75606 18.1432C2.47448 17.8616 2.31606 17.4798 2.31555 17.0816V14.1222C2.31555 13.9525 2.38298 13.7897 2.503 13.6697C2.62303 13.5497 2.78581 13.4822 2.95555 13.4822H13.92V7.51646C13.92 7.34673 13.9875 7.18394 14.1075 7.06392C14.2275 6.94389 14.3903 6.87646 14.56 6.87646H16.2944C16.7428 6.87719 17.1847 6.98358 17.5843 7.18701C17.9839 7.39044 18.3299 7.68519 18.5943 8.04734L21.0528 11.4262C21.4855 12.0182 21.718 12.7327 21.7165 13.4659V16.9478C21.716 17.3815 21.5435 17.7973 21.2368 18.104C20.9302 18.4106 20.5144 18.5832 20.0807 18.5837Z" fill="#202020"/>
<path d="M6.85347 20.0246C6.44209 20.0246 6.03994 19.9026 5.69789 19.6741C5.35583 19.4455 5.08923 19.1207 4.9318 18.7406C4.77437 18.3605 4.73318 17.9423 4.81344 17.5388C4.8937 17.1354 5.0918 16.7647 5.38269 16.4738C5.67358 16.1829 6.0442 15.9848 6.44768 15.9046C6.85116 15.8243 7.26938 15.8655 7.64945 16.023C8.02952 16.1804 8.35437 16.447 8.58293 16.789C8.81148 17.1311 8.93347 17.5332 8.93347 17.9446C8.93254 18.496 8.7131 19.0245 8.32323 19.4144C7.93335 19.8043 7.40484 20.0237 6.85347 20.0246ZM6.85347 17.1427C6.69525 17.1427 6.54057 17.1896 6.40902 17.2775C6.27746 17.3654 6.17492 17.4904 6.11437 17.6366C6.05382 17.7827 6.03798 17.9436 6.06884 18.0988C6.09971 18.254 6.1759 18.3965 6.28779 18.5084C6.39967 18.6203 6.54221 18.6965 6.6974 18.7273C6.85258 18.7582 7.01344 18.7424 7.15962 18.6818C7.3058 18.6213 7.43074 18.5187 7.51865 18.3872C7.60655 18.2556 7.65347 18.1009 7.65347 17.9427C7.65305 17.7307 7.56863 17.5274 7.41869 17.3775C7.26875 17.2275 7.06551 17.1431 6.85347 17.1427ZM16.1044 20.0246C15.693 20.0246 15.2908 19.9026 14.9488 19.6741C14.6067 19.4455 14.3401 19.1207 14.1827 18.7406C14.0253 18.3605 13.9841 17.9423 14.0643 17.5388C14.1446 17.1354 14.3427 16.7647 14.6336 16.4738C14.9245 16.1829 15.2951 15.9848 15.6986 15.9046C16.102 15.8243 16.5203 15.8655 16.9003 16.023C17.2804 16.1804 17.6053 16.447 17.8338 16.789C18.0624 17.1311 18.1844 17.5332 18.1844 17.9446C18.1834 18.496 17.964 19.0245 17.5741 19.4144C17.1842 19.8043 16.6557 20.0237 16.1044 20.0246ZM16.1044 17.1427C15.9461 17.1427 15.7915 17.1896 15.6599 17.2775C15.5283 17.3654 15.4258 17.4904 15.3652 17.6366C15.3047 17.7827 15.2889 17.9436 15.3197 18.0988C15.3506 18.254 15.4268 18.3965 15.5387 18.5084C15.6505 18.6203 15.7931 18.6965 15.9483 18.7273C16.1035 18.7582 16.2643 18.7424 16.4105 18.6818C16.5567 18.6213 16.6816 18.5187 16.7695 18.3872C16.8574 18.2556 16.9044 18.1009 16.9044 17.9427C16.9044 17.7305 16.8201 17.527 16.67 17.377C16.52 17.227 16.3165 17.1427 16.1044 17.1427ZM14.56 14.7622H2.95555C2.78581 14.7622 2.62303 14.6948 2.503 14.5748C2.38298 14.4547 2.31555 14.292 2.31555 14.1222V9.9587C2.31555 9.78896 2.38298 9.62618 2.503 9.50615C2.62303 9.38613 2.78581 9.3187 2.95555 9.3187C3.12529 9.3187 3.28808 9.38613 3.4081 9.50615C3.52812 9.62618 3.59555 9.78896 3.59555 9.9587V13.4822H13.92V5.6867C13.9199 5.57238 13.8745 5.46276 13.7937 5.38189C13.7129 5.30102 13.6033 5.25551 13.489 5.25534H4.02691C3.85717 5.25534 3.69439 5.18791 3.57436 5.06789C3.45434 4.94787 3.38691 4.78508 3.38691 4.61534C3.38691 4.4456 3.45434 4.28282 3.57436 4.16279C3.69439 4.04277 3.85717 3.97534 4.02691 3.97534H13.489C13.9427 3.97593 14.3776 4.15644 14.6983 4.47726C15.0191 4.79808 15.1995 5.23303 15.2 5.6867V14.1222C15.2 14.292 15.1326 14.4547 15.0126 14.5748C14.8926 14.6948 14.7298 14.7622 14.56 14.7622Z" fill="#202020"/>
<path d="M20.5354 12.4429H14.5601C14.3903 12.4429 14.2275 12.3755 14.1075 12.2554C13.9875 12.1354 13.9201 11.9726 13.9201 11.8029C13.9201 11.6332 13.9875 11.4704 14.1075 11.3503C14.2275 11.2303 14.3903 11.1629 14.5601 11.1629H20.5354C20.7052 11.1629 20.8679 11.2303 20.988 11.3503C21.108 11.4704 21.1754 11.6332 21.1754 11.8029C21.1754 11.9726 21.108 12.1354 20.988 12.2554C20.8679 12.3755 20.7052 12.4429 20.5354 12.4429ZM3.55558 10.6167C2.89641 10.6167 2.25205 10.4212 1.70398 10.055C1.1559 9.68876 0.728726 9.16825 0.476474 8.55926C0.224222 7.95027 0.158222 7.28015 0.286819 6.63365C0.415415 5.98715 0.732834 5.39331 1.19893 4.92721C1.66503 4.46111 2.25888 4.14369 2.90538 4.01509C3.55188 3.88649 4.222 3.95249 4.83099 4.20475C5.43998 4.457 5.96049 4.88417 6.3267 5.43225C6.69291 5.98032 6.88838 6.62469 6.88838 7.28385C6.88736 8.16745 6.5359 9.01457 5.9111 9.63937C5.2863 10.2642 4.43918 10.6156 3.55558 10.6167ZM3.55558 5.23105C3.14957 5.23105 2.75269 5.35145 2.41511 5.57701C2.07752 5.80257 1.81441 6.12318 1.65904 6.49828C1.50367 6.87338 1.46302 7.28613 1.54222 7.68433C1.62143 8.08254 1.81694 8.44831 2.10403 8.7354C2.39112 9.02249 2.75689 9.218 3.1551 9.29721C3.5533 9.37642 3.96605 9.33576 4.34115 9.18039C4.71625 9.02502 5.03686 8.76191 5.26242 8.42433C5.48799 8.08674 5.60838 7.68986 5.60838 7.28385C5.60779 6.7396 5.39132 6.2178 5.00647 5.83296C4.62163 5.44811 4.09983 5.23164 3.55558 5.23105Z" fill="#202020"/>
<path d="M3.25341 8.5657C3.1234 8.56567 2.9965 8.52604 2.88957 8.4521L2.05373 7.87418C1.91489 7.77733 1.82009 7.62941 1.79006 7.46282C1.76003 7.29623 1.79723 7.12452 1.89351 6.98529C1.98978 6.84605 2.1373 6.75064 2.30377 6.71992C2.47024 6.6892 2.6421 6.72568 2.78173 6.82138L3.19773 7.10938L4.17629 6.21338C4.23773 6.15377 4.3105 6.10709 4.3903 6.07611C4.4701 6.04512 4.55531 6.03046 4.64088 6.03299C4.72644 6.03553 4.81063 6.0552 4.88846 6.09085C4.96629 6.1265 5.03618 6.1774 5.09399 6.24053C5.15179 6.30367 5.19635 6.37777 5.22501 6.45843C5.25367 6.53909 5.26586 6.62469 5.26085 6.71015C5.25585 6.79561 5.23374 6.87919 5.19586 6.95596C5.15797 7.03272 5.10507 7.10111 5.04029 7.15706L3.68509 8.3993C3.56698 8.50666 3.41302 8.566 3.25341 8.5657Z" fill="#202020"/>
</svg>
