<svg width="24" height="24" viewBox="0 0 24 24" fill="none" xmlns="http://www.w3.org/2000/svg">
<path d="M15.6938 18.5958H9.6295C9.45976 18.5958 9.29698 18.5284 9.17695 18.4083C9.05693 18.2883 8.9895 18.1255 8.9895 17.9558C8.9895 17.7861 9.05693 17.6233 9.17695 17.5032C9.29698 17.3832 9.45976 17.3158 9.6295 17.3158H15.6938C15.8636 17.3158 16.0263 17.3832 16.1464 17.5032C16.2664 17.6233 16.3338 17.7861 16.3338 17.9558C16.3338 18.1255 16.2664 18.2883 16.1464 18.4083C16.0263 18.5284 15.8636 18.5958 15.6938 18.5958Z" fill="#202020"/>
<path d="M21.111 18.5958H18.9526C18.7829 18.5958 18.6201 18.5284 18.5 18.4083C18.38 18.2883 18.3126 18.1255 18.3126 17.9558C18.3126 17.7861 18.38 17.6233 18.5 17.5032C18.6201 17.3832 18.7829 17.3158 18.9526 17.3158H21.111C21.2053 17.3157 21.2958 17.2782 21.3625 17.2115C21.4292 17.1448 21.4667 17.0543 21.4668 16.96V13.478C21.4676 13.0157 21.321 12.5652 21.0483 12.192L18.5897 8.81276C18.4444 8.61352 18.254 8.45138 18.0343 8.33951C17.8145 8.22764 17.5714 8.16919 17.3248 8.16892H16.2304V14.1344C16.2304 14.3041 16.1629 14.4669 16.0429 14.5869C15.9229 14.7069 15.7601 14.7744 15.5904 14.7744H4.62619V17.094C4.62619 17.1529 4.64956 17.2093 4.69114 17.2508C4.73273 17.2924 4.78914 17.3158 4.84795 17.3158H6.21755C6.38729 17.3158 6.55008 17.3832 6.6701 17.5032C6.79012 17.6233 6.85755 17.7861 6.85755 17.9558C6.85755 18.1255 6.79012 18.2883 6.6701 18.4083C6.55008 18.5284 6.38729 18.5958 6.21755 18.5958H4.84795C4.44984 18.5952 4.06821 18.4368 3.7867 18.1553C3.50519 17.8738 3.34678 17.4921 3.34619 17.094V14.1344C3.34619 13.9646 3.41362 13.8018 3.53364 13.6818C3.65367 13.5618 3.81645 13.4944 3.98619 13.4944H14.9504V7.52892C14.9504 7.35918 15.0178 7.19639 15.1378 7.07637C15.2578 6.95634 15.4206 6.88892 15.5904 6.88892H17.3248C17.7731 6.88965 18.215 6.99601 18.6145 7.19939C19.0141 7.40276 19.3601 7.69742 19.6246 8.05948L22.0831 11.4387C22.5158 12.0305 22.7483 12.7449 22.7468 13.478V16.96C22.7464 17.3937 22.5739 17.8095 22.2672 18.1162C21.9605 18.4229 21.5447 18.5954 21.111 18.5958Z" fill="#202020"/>
<path d="M7.88379 20.0368C7.47241 20.0368 7.07026 19.9148 6.72821 19.6862C6.38615 19.4577 6.11955 19.1328 5.96212 18.7527C5.80469 18.3727 5.7635 17.9544 5.84376 17.551C5.92402 17.1475 6.12212 16.7769 6.41301 16.486C6.7039 16.1951 7.07452 15.997 7.478 15.9167C7.88148 15.8365 8.2997 15.8777 8.67977 16.0351C9.05984 16.1925 9.38469 16.4591 9.61325 16.8012C9.8418 17.1432 9.96379 17.5454 9.96379 17.9568C9.96286 18.5081 9.74342 19.0366 9.35354 19.4265C8.96367 19.8164 8.43515 20.0358 7.88379 20.0368ZM7.88379 17.1548C7.72557 17.1548 7.57089 17.2018 7.43933 17.2897C7.30778 17.3776 7.20524 17.5025 7.14469 17.6487C7.08414 17.7949 7.0683 17.9557 7.09916 18.1109C7.13003 18.2661 7.20622 18.4086 7.31811 18.5205C7.42999 18.6324 7.57253 18.7086 7.72772 18.7395C7.8829 18.7703 8.04376 18.7545 8.18994 18.6939C8.33612 18.6334 8.46106 18.5308 8.54897 18.3993C8.63687 18.2677 8.68379 18.1131 8.68379 17.9548C8.68328 17.7428 8.59884 17.5396 8.44892 17.3897C8.299 17.2398 8.09581 17.1553 7.88379 17.1548ZM17.1347 20.0368C16.7233 20.0368 16.3211 19.9148 15.9791 19.6862C15.637 19.4577 15.3704 19.1328 15.213 18.7527C15.0556 18.3727 15.0144 17.9544 15.0946 17.551C15.1749 17.1475 15.373 16.7769 15.6639 16.486C15.9548 16.1951 16.3254 15.997 16.7289 15.9167C17.1324 15.8365 17.5506 15.8777 17.9307 16.0351C18.3107 16.1925 18.6356 16.4591 18.8641 16.8012C19.0927 17.1432 19.2147 17.5454 19.2147 17.9568C19.2138 18.5081 18.9944 19.0367 18.6045 19.4266C18.2146 19.8165 17.6861 20.0359 17.1347 20.0368ZM17.1347 17.1548C16.9764 17.1548 16.8218 17.2018 16.6902 17.2897C16.5587 17.3776 16.4561 17.5025 16.3956 17.6487C16.335 17.7949 16.3192 17.9557 16.35 18.1109C16.3809 18.2661 16.4571 18.4086 16.569 18.5205C16.6809 18.6324 16.8234 18.7086 16.9786 18.7395C17.1338 18.7703 17.2946 18.7545 17.4408 18.6939C17.587 18.6334 17.7119 18.5308 17.7998 18.3993C17.8878 18.2677 17.9347 18.1131 17.9347 17.9548C17.9342 17.7428 17.8498 17.5396 17.6999 17.3896C17.55 17.2397 17.3467 17.1553 17.1347 17.1548ZM15.5904 14.7744H3.98619C3.81645 14.7744 3.65367 14.7069 3.53364 14.5869C3.41362 14.4669 3.34619 14.3041 3.34619 14.1344V9.97083C3.34619 9.80109 3.41362 9.63831 3.53364 9.51828C3.65367 9.39826 3.81645 9.33083 3.98619 9.33083C4.15593 9.33083 4.31872 9.39826 4.43874 9.51828C4.55876 9.63831 4.62619 9.80109 4.62619 9.97083V13.4944H14.9504V5.69883C14.9503 5.58454 14.9048 5.47495 14.824 5.39413C14.7432 5.31332 14.6336 5.26788 14.5193 5.26779H5.05595C4.97191 5.26779 4.88868 5.25124 4.81103 5.21908C4.73339 5.18691 4.66283 5.13977 4.6034 5.08034C4.54397 5.02091 4.49683 4.95036 4.46467 4.87271C4.43251 4.79506 4.41595 4.71184 4.41595 4.62779C4.41595 4.54375 4.43251 4.46052 4.46467 4.38288C4.49683 4.30523 4.54397 4.23467 4.6034 4.17524C4.66283 4.11581 4.73339 4.06867 4.81103 4.03651C4.88868 4.00435 4.97191 3.98779 5.05595 3.98779H14.5193C14.9729 3.98839 15.4078 4.16885 15.7285 4.4896C16.0493 4.81035 16.2298 5.24522 16.2304 5.69883V14.1344C16.2304 14.3041 16.1629 14.4669 16.0429 14.5869C15.9229 14.7069 15.7601 14.7744 15.5904 14.7744Z" fill="#202020"/>
<path d="M21.5657 12.4551H15.5904C15.4206 12.4551 15.2579 12.3877 15.1378 12.2676C15.0178 12.1476 14.9504 11.9848 14.9504 11.8151C14.9504 11.6454 15.0178 11.4826 15.1378 11.3626C15.2579 11.2425 15.4206 11.1751 15.5904 11.1751H21.5657C21.7355 11.1751 21.8983 11.2425 22.0183 11.3626C22.1383 11.4826 22.2057 11.6454 22.2057 11.8151C22.2057 11.9848 22.1383 12.1476 22.0183 12.2676C21.8983 12.3877 21.7355 12.4551 21.5657 12.4551ZM4.5859 10.6289C3.92675 10.6288 3.28242 10.4333 2.73438 10.067C2.18635 9.70077 1.75922 9.18024 1.50702 8.57124C1.25482 7.96225 1.18886 7.29214 1.3175 6.64567C1.44613 5.99919 1.76357 5.40537 2.22969 4.9393C2.6958 4.47323 3.28965 4.15584 3.93614 4.02727C4.58263 3.8987 5.25273 3.96472 5.8617 4.21698C6.47067 4.46924 6.99117 4.89642 7.35736 5.44449C7.72356 5.99256 7.91902 6.63691 7.91902 7.29606C7.918 8.17972 7.5665 9.02688 6.94163 9.65169C6.31676 10.2765 5.46956 10.6279 4.5859 10.6289ZM4.5859 5.24326C4.17991 5.24332 3.78305 5.36377 3.44551 5.58937C3.10797 5.81498 2.84491 6.1356 2.68959 6.51071C2.53427 6.88581 2.49366 7.29855 2.5729 7.69674C2.65215 8.09492 2.84768 8.46066 3.13478 8.74772C3.42189 9.03478 3.78766 9.23026 4.18586 9.30944C4.58405 9.38862 4.99678 9.34795 5.37187 9.19257C5.74695 9.03719 6.06753 8.77407 6.29308 8.4365C6.51863 8.09893 6.63902 7.70205 6.63902 7.29606C6.63834 6.75177 6.4218 6.22998 6.03691 5.84514C5.65201 5.46031 5.13018 5.24385 4.5859 5.24326Z" fill="#202020"/>
<path d="M5.34757 8.69727C5.17822 8.69706 5.01586 8.62974 4.89605 8.51007L3.37349 6.98719C3.31236 6.92815 3.2636 6.85753 3.23006 6.77944C3.19652 6.70136 3.17886 6.61738 3.17812 6.5324C3.17739 6.44742 3.19358 6.36315 3.22576 6.28449C3.25794 6.20584 3.30546 6.13438 3.36555 6.07429C3.42564 6.0142 3.4971 5.96668 3.57575 5.9345C3.65441 5.90232 3.73868 5.88613 3.82366 5.88686C3.90864 5.8876 3.99262 5.90526 4.0707 5.9388C4.14879 5.97234 4.21941 6.0211 4.27845 6.08223L5.80133 7.60478C5.8908 7.69429 5.95174 7.80832 5.97642 7.93245C6.0011 8.05658 5.98843 8.18524 5.94 8.30216C5.89157 8.41909 5.80956 8.51904 5.70434 8.58936C5.59912 8.65969 5.47541 8.69724 5.34885 8.69727H5.34757Z" fill="#202020"/>
<path d="M3.82468 8.69723C3.69812 8.6972 3.57441 8.65965 3.46918 8.58933C3.36396 8.519 3.28195 8.41906 3.23352 8.30213C3.1851 8.1852 3.17242 8.05654 3.1971 7.93241C3.22179 7.80828 3.28272 7.69425 3.3722 7.60475L4.89604 6.08219C4.95546 6.02275 5.02601 5.97559 5.10365 5.94342C5.18129 5.91124 5.26452 5.89467 5.34857 5.89465C5.43261 5.89464 5.51584 5.91118 5.5935 5.94333C5.67115 5.97548 5.74172 6.02261 5.80116 6.08203C5.8606 6.14145 5.90776 6.212 5.93993 6.28964C5.97211 6.36729 5.98868 6.45051 5.98869 6.53456C5.98871 6.6186 5.97217 6.70183 5.94002 6.77949C5.90787 6.85714 5.86074 6.92771 5.80132 6.98715L4.27844 8.51003C4.21892 8.56966 4.14817 8.6169 4.07029 8.64903C3.99241 8.68116 3.90893 8.69755 3.82468 8.69723Z" fill="#202020"/>
</svg>
