<svg width="24" height="24" viewBox="0 0 24 24" fill="none" xmlns="http://www.w3.org/2000/svg">
<path d="M6.77467 19.7667C6.66985 19.7667 6.56666 19.7409 6.47414 19.6917C6.38162 19.6424 6.30261 19.5712 6.24406 19.4843C6.1855 19.3973 6.1492 19.2974 6.13832 19.1931C6.12745 19.0889 6.14235 18.9836 6.18171 18.8864L7.16187 16.4698H6.49595C4.86843 16.4698 3.54395 14.993 3.54395 13.1779V9.47201C3.54394 8.75643 3.80416 8.06526 4.27611 7.52737L6.21627 5.31617C6.49301 5.0007 6.83391 4.74794 7.21617 4.57477C7.59843 4.4016 8.01325 4.31202 8.43291 4.31201H17.5039C19.1315 4.31201 20.4559 5.78881 20.4559 7.60417V11.0976C20.4571 11.8622 20.1598 12.597 19.6271 13.1456L17.327 15.5264C17.0551 15.8064 16.7306 16.0299 16.3721 16.1842C16.0136 16.3385 15.6283 16.4205 15.238 16.4256L11.3577 16.4666L8.95995 19.4487C8.90312 19.5193 8.83194 19.577 8.75112 19.6181C8.6703 19.6591 8.58169 19.6825 8.49115 19.6867L6.80443 19.7661C6.79483 19.7667 6.78395 19.7667 6.77467 19.7667ZM8.43323 5.59233C8.19569 5.59237 7.9609 5.64308 7.74453 5.74108C7.52816 5.83909 7.33519 5.98213 7.17851 6.16065L5.23867 8.37185C4.97095 8.67598 4.82308 9.06716 4.82267 9.47233V13.1779C4.82267 14.2874 5.57275 15.1898 6.49467 15.1898H8.11195C8.21672 15.1899 8.31984 15.2158 8.41227 15.2652C8.5047 15.3145 8.5836 15.3858 8.64205 15.4727C8.7005 15.5597 8.73671 15.6596 8.74751 15.7638C8.7583 15.8681 8.74334 15.9733 8.70395 16.0704L7.74395 18.4407L8.14363 18.4218L10.55 15.4288C10.6093 15.3551 10.6841 15.2954 10.7691 15.2541C10.8542 15.2128 10.9473 15.1908 11.0419 15.1898L15.2246 15.1459C15.4457 15.1432 15.6642 15.0968 15.8673 15.0094C16.0705 14.9221 16.2545 14.7954 16.4086 14.6368L18.7065 12.256C19.0081 11.9454 19.1765 11.5293 19.1756 11.0963V7.60449C19.1756 6.49505 18.4255 5.59233 17.5036 5.59233H8.43323Z" fill="#202020"/>
<path d="M11.0466 13.0381H9.45396C9.28423 13.0381 9.12144 12.9707 9.00142 12.8506C8.88139 12.7306 8.81396 12.5678 8.81396 12.3981V8.33217C8.81396 8.16243 8.88139 7.99964 9.00142 7.87962C9.12144 7.7596 9.28423 7.69217 9.45396 7.69217H11.0466C11.2163 7.69217 11.3791 7.7596 11.4992 7.87962C11.6192 7.99964 11.6866 8.16243 11.6866 8.33217V12.3981C11.6866 12.5678 11.6192 12.7306 11.4992 12.8506C11.3791 12.9707 11.2163 13.0381 11.0466 13.0381ZM10.094 11.7581H10.4066V8.97217H10.094V11.7581ZM14.9439 13.0381H13.3506C13.1809 13.0381 13.0181 12.9707 12.8981 12.8506C12.778 12.7306 12.7106 12.5678 12.7106 12.3981V8.33217C12.7106 8.16243 12.778 7.99964 12.8981 7.87962C13.0181 7.7596 13.1809 7.69217 13.3506 7.69217H14.9439C15.1136 7.69217 15.2764 7.7596 15.3964 7.87962C15.5165 7.99964 15.5839 8.16243 15.5839 8.33217V12.3981C15.5839 12.5678 15.5165 12.7306 15.3964 12.8506C15.2764 12.9707 15.1136 13.0381 14.9439 13.0381ZM13.9916 11.7581H14.3039V8.97217H13.9916V11.7581Z" fill="#202020"/>
</svg>
