<svg width="24" height="24" viewBox="0 0 24 24" fill="none" xmlns="http://www.w3.org/2000/svg">
<path d="M17 2H7C4.23993 2.00323 2.00323 4.23993 2 7V17C2.00323 19.7601 4.23993 21.9968 7 22H17C19.7601 21.9968 21.9968 19.7601 22 17V7C21.9968 4.23993 19.7601 2.00323 17 2ZM21 17C20.9978 19.2083 19.2083 20.9978 17 21H7C4.79175 20.9978 3.0022 19.2083 3 17V7C3.0022 4.79175 4.79175 3.0022 7 3H17C19.2083 3.0022 20.9978 4.79175 21 7V17ZM15.5 10C14.3954 10 13.5 10.8954 13.5 12C13.5 13.1046 14.3954 14 15.5 14C16.604 13.9986 17.4986 13.104 17.5 12C17.5 10.8954 16.6046 10 15.5 10ZM15.5 13C14.9477 13 14.5 12.5523 14.5 12C14.5 11.4477 14.9477 11 15.5 11C16.0521 11.0004 16.4996 11.4479 16.5 12C16.5 12.5523 16.0523 13 15.5 13ZM8.5 10C7.39545 10 6.5 10.8954 6.5 12C6.5 13.1046 7.39545 14 8.5 14C9.604 13.9986 10.4986 13.104 10.5 12C10.5 10.8954 9.60455 10 8.5 10ZM8.5 13C7.94769 13 7.5 12.5523 7.5 12C7.5 11.4477 7.94769 11 8.5 11C9.05212 11.0004 9.49963 11.4479 9.5 12C9.5 12.5523 9.05231 13 8.5 13Z" fill="#202020"/>
</svg>
