<svg width="24" height="24" viewBox="0 0 24 24" fill="none" xmlns="http://www.w3.org/2000/svg">
<path d="M17.7697 16.16C16.8559 16.1587 15.9684 15.8549 15.2455 15.296L12.0001 12.8067L8.75462 15.296C8.13937 15.7681 7.40428 16.0586 6.6325 16.1347C5.86071 16.2107 5.08305 16.0693 4.38749 15.7263C3.69192 15.3834 3.10621 14.8526 2.69662 14.1941C2.28704 13.5355 2.06991 12.7755 2.06982 12C2.06991 11.2245 2.28704 10.4645 2.69662 9.80592C3.10621 9.14739 3.69192 8.61662 4.38749 8.27366C5.08305 7.93071 5.86071 7.78926 6.6325 7.86531C7.40428 7.94136 8.13937 8.23187 8.75462 8.70399L12.0001 11.1933L15.2455 8.70399C15.7698 8.30367 16.3818 8.03396 17.0311 7.91716C17.6803 7.80036 18.348 7.83983 18.9789 8.03232C19.6098 8.22481 20.1858 8.56477 20.6593 9.02408C21.1327 9.48339 21.49 10.0488 21.7015 10.6736C21.913 11.2984 21.9727 11.9646 21.8756 12.6171C21.7786 13.2695 21.5275 13.8895 21.1433 14.4257C20.759 14.9618 20.2526 15.3988 19.666 15.7004C19.0793 16.002 18.4293 16.1595 17.7697 16.16ZM13.0513 12L16.0247 14.2813C16.913 14.9629 18.0426 15.0742 19.0468 14.5789C20.0509 14.0835 20.6503 13.12 20.6503 12C20.6503 10.88 20.0509 9.91647 19.0468 9.42111C18.0426 8.92575 16.9127 9.03711 16.0247 9.71871L13.0513 12ZM6.23718 9.11519C5.79139 9.11693 5.35202 9.22162 4.95334 9.42111C3.94918 9.91647 3.34982 10.88 3.34982 12C3.34982 13.12 3.94918 14.0835 4.95334 14.5789C5.9575 15.0742 7.0871 14.9629 7.97542 14.2813L10.9489 12L7.97542 9.71871C7.47892 9.33043 6.86748 9.11813 6.23718 9.11519Z" fill="#202020"/>
</svg>
