<svg width="24" height="24" viewBox="0 0 24 24" fill="none" xmlns="http://www.w3.org/2000/svg">
<path d="M12 20.6806C9.69773 20.6806 7.48977 19.7661 5.86184 18.1381C4.2339 16.5102 3.31934 14.3022 3.31934 12C3.31934 9.69775 4.2339 7.48979 5.86184 5.86186C7.48977 4.23392 9.69773 3.31936 12 3.31936C13.8972 3.31387 15.743 3.93567 17.2502 5.088C17.3839 5.19124 17.4713 5.34314 17.4935 5.51058C17.5157 5.67803 17.4707 5.84745 17.3685 5.9819C17.2663 6.11635 17.115 6.20494 16.9477 6.22835C16.7805 6.25176 16.6107 6.2081 16.4755 6.10688C15.1907 5.12464 13.6172 4.59464 12 4.59936C7.91934 4.59936 4.59934 7.91936 4.59934 12C4.59934 16.0806 7.91934 19.4006 12 19.4006C16.0806 19.4006 19.4006 16.0806 19.4006 12C19.4012 11.3109 19.3057 10.625 19.1168 9.96224C19.0701 9.79903 19.0902 9.62397 19.1726 9.47556C19.255 9.32715 19.3929 9.21755 19.5561 9.17088C19.7193 9.1242 19.8944 9.14426 20.0428 9.22666C20.1912 9.30906 20.3008 9.44703 20.3475 9.61024C20.7171 10.9025 20.7816 12.2629 20.536 13.5844C20.2904 14.9058 19.7414 16.1522 18.9322 17.2254C18.1229 18.2986 17.0756 19.1692 15.8727 19.7688C14.6698 20.3684 13.3441 20.6805 12 20.6806Z" fill="#202020"/>
<path d="M11.9462 11.0957C11.4109 11.0957 10.8875 10.9369 10.4423 10.6395C9.99719 10.342 9.65025 9.91924 9.44538 9.4246C9.24051 8.92997 9.18692 8.38569 9.2914 7.86059C9.39587 7.3355 9.6537 6.85318 10.0323 6.47463C10.4109 6.09608 10.8932 5.8383 11.4183 5.73389C11.9435 5.62948 12.4877 5.68313 12.9823 5.88806C13.477 6.09298 13.8997 6.43998 14.1971 6.88517C14.4945 7.33035 14.6532 7.85373 14.6531 8.38912C14.6523 9.10674 14.3668 9.79472 13.8593 10.3021C13.3519 10.8095 12.6639 11.0949 11.9462 11.0957ZM11.9462 6.96224C11.664 6.96224 11.3882 7.04592 11.1535 7.20271C10.9189 7.3595 10.736 7.58235 10.628 7.84307C10.52 8.1038 10.4917 8.3907 10.5468 8.66749C10.6018 8.94428 10.7377 9.19852 10.9373 9.39807C11.1368 9.59763 11.3911 9.73352 11.6679 9.78858C11.9447 9.84364 12.2316 9.81538 12.4923 9.70738C12.753 9.59939 12.9759 9.4165 13.1326 9.18185C13.2894 8.9472 13.3731 8.67133 13.3731 8.38912C13.3727 8.01082 13.2222 7.64813 12.9547 7.38063C12.6872 7.11313 12.3245 6.96266 11.9462 6.96224ZM16.169 16.3629C15.9992 16.3629 15.8364 16.2955 15.7164 16.1754C15.5964 16.0554 15.529 15.8926 15.529 15.7229C15.529 14.0269 13.9459 12.6448 12 12.6448C10.0541 12.6448 8.47104 14.0256 8.47104 15.7229C8.47104 15.8926 8.40361 16.0554 8.28359 16.1754C8.16356 16.2955 8.00078 16.3629 7.83104 16.3629C7.6613 16.3629 7.49852 16.2955 7.37849 16.1754C7.25847 16.0554 7.19104 15.8926 7.19104 15.7229C7.19104 13.3197 9.34848 11.3648 12 11.3648C14.6515 11.3648 16.809 13.3197 16.809 15.7229C16.809 15.8926 16.7415 16.0554 16.6215 16.1754C16.5015 16.2955 16.3387 16.3629 16.169 16.3629ZM19.2374 10.4266C18.5783 10.4266 17.9339 10.2311 17.3858 9.86488C16.8378 9.49867 16.4106 8.97815 16.1583 8.36916C15.9061 7.76017 15.8401 7.09006 15.9687 6.44356C16.0973 5.79706 16.4147 5.20321 16.8808 4.73711C17.3469 4.27101 17.9407 3.95359 18.5872 3.825C19.2337 3.6964 19.9039 3.7624 20.5128 4.01465C21.1218 4.2669 21.6424 4.69408 22.0086 5.24215C22.3748 5.79023 22.5702 6.43459 22.5702 7.09376C22.5692 7.97736 22.2178 8.82448 21.593 9.44928C20.9682 10.0741 20.121 10.4255 19.2374 10.4266ZM19.2374 5.04096C18.8314 5.04096 18.4345 5.16135 18.097 5.38692C17.7594 5.61248 17.4963 5.93308 17.3409 6.30818C17.1855 6.68328 17.1449 7.09603 17.2241 7.49424C17.3033 7.89244 17.4988 8.25822 17.7859 8.54531C18.073 8.8324 18.4388 9.02791 18.837 9.10711C19.2352 9.18632 19.6479 9.14567 20.023 8.9903C20.3981 8.83493 20.7187 8.57181 20.9443 8.23423C21.1698 7.89665 21.2902 7.49976 21.2902 7.09376C21.2896 6.5495 21.0732 6.02771 20.6883 5.64286C20.3035 5.25802 19.7817 5.04155 19.2374 5.04096Z" fill="#202020"/>
<path d="M19.2121 8.81025C19.0424 8.81025 18.8796 8.74282 18.7596 8.6228C18.6396 8.50277 18.5721 8.33999 18.5721 8.17025V6.01601C18.5721 5.84627 18.6396 5.68348 18.7596 5.56346C18.8796 5.44344 19.0424 5.37601 19.2121 5.37601C19.3819 5.37601 19.5447 5.44344 19.6647 5.56346C19.7847 5.68348 19.8521 5.84627 19.8521 6.01601V8.16929C19.8523 8.25341 19.8358 8.33674 19.8037 8.4145C19.7716 8.49226 19.7245 8.56293 19.665 8.62246C19.6056 8.68199 19.535 8.72922 19.4573 8.76144C19.3796 8.79366 19.2963 8.81025 19.2121 8.81025Z" fill="#202020"/>
<path d="M20.288 7.73377H18.1357C17.9659 7.73377 17.8031 7.66634 17.6831 7.54631C17.5631 7.42629 17.4957 7.2635 17.4957 7.09377C17.4957 6.92403 17.5631 6.76124 17.6831 6.64122C17.8031 6.52119 17.9659 6.45377 18.1357 6.45377H20.288C20.4577 6.45377 20.6205 6.52119 20.7405 6.64122C20.8606 6.76124 20.928 6.92403 20.928 7.09377C20.928 7.2635 20.8606 7.42629 20.7405 7.54631C20.6205 7.66634 20.4577 7.73377 20.288 7.73377Z" fill="#202020"/>
</svg>
