<svg width="24" height="24" viewBox="0 0 24 24" fill="none" xmlns="http://www.w3.org/2000/svg">
<path d="M11.904 11.6285C9.51712 11.6285 7.57536 9.68673 7.57536 7.29985C7.57536 4.91297 9.51712 2.97089 11.904 2.97089C14.2909 2.97089 16.2326 4.91297 16.2326 7.29985C16.2326 9.68673 14.2909 11.6285 11.904 11.6285ZM11.904 4.25089C11.301 4.25082 10.7114 4.42959 10.21 4.76457C9.70856 5.09956 9.31772 5.57572 9.0869 6.13284C8.85608 6.68996 8.79565 7.30301 8.91326 7.89447C9.03087 8.48593 9.32123 9.02924 9.74762 9.45567C10.174 9.88211 10.7173 10.1725 11.3087 10.2902C11.9002 10.4079 12.5132 10.3475 13.0704 10.1167C13.6275 9.88599 14.1037 9.4952 14.4388 8.99379C14.7738 8.49239 14.9526 7.90289 14.9526 7.29985C14.9518 6.49153 14.6303 5.71655 14.0588 5.14495C13.4873 4.57336 12.7123 4.25182 11.904 4.25089ZM19.4403 21.0291C19.2706 21.0291 19.1078 20.9617 18.9878 20.8417C18.8677 20.7217 18.8003 20.5589 18.8003 20.3891C18.8007 19.6985 18.667 19.0144 18.4067 18.3747C18.3444 18.2176 18.3468 18.0423 18.4132 17.8869C18.4797 17.7316 18.605 17.6088 18.7616 17.5455C18.9183 17.4821 19.0936 17.4832 19.2494 17.5487C19.4052 17.6141 19.5288 17.7385 19.5933 17.8947C19.9155 18.6874 20.0809 19.5351 20.0803 20.3907C20.0799 20.5602 20.0123 20.7226 19.8923 20.8422C19.7723 20.9619 19.6098 21.0291 19.4403 21.0291ZM4.55968 21.0291C4.38994 21.0291 4.22715 20.9617 4.10713 20.8417C3.98711 20.7217 3.91968 20.5589 3.91968 20.3891C3.91968 18.4317 4.7696 16.5955 6.31296 15.2192C7.83552 13.8611 9.856 13.1133 12 13.1133C13.4282 13.1133 14.8317 13.4531 16.0592 14.096C16.1353 14.134 16.2032 14.1868 16.2587 14.2513C16.3142 14.3158 16.3562 14.3907 16.3824 14.4717C16.4086 14.5527 16.4184 14.6381 16.4112 14.7229C16.404 14.8077 16.38 14.8902 16.3405 14.9656C16.301 15.0409 16.2469 15.1077 16.1813 15.1619C16.1157 15.2162 16.04 15.2568 15.9585 15.2814C15.8771 15.306 15.7915 15.3141 15.7069 15.3052C15.6222 15.2964 15.5402 15.2707 15.4656 15.2298C14.4205 14.6826 13.2221 14.3933 12 14.3933C8.25024 14.3933 5.19968 17.0829 5.19968 20.3891C5.19968 20.5589 5.13225 20.7217 5.01223 20.8417C4.8922 20.9617 4.72942 21.0291 4.55968 21.0291Z" fill="#202020"/>
<path d="M18.8554 18.513C18.1962 18.513 17.5519 18.3175 17.0038 17.9513C16.4557 17.5851 16.0285 17.0645 15.7763 16.4556C15.524 15.8466 15.458 15.1765 15.5866 14.53C15.7152 13.8835 16.0326 13.2896 16.4987 12.8235C16.9648 12.3574 17.5587 12.04 18.2052 11.9114C18.8517 11.7828 19.5218 11.8488 20.1308 12.101C20.7398 12.3533 21.2603 12.7805 21.6265 13.3285C21.9927 13.8766 22.1882 14.521 22.1882 15.1802C22.1872 16.0638 21.8357 16.9109 21.2109 17.5357C20.5861 18.1605 19.739 18.5119 18.8554 18.513ZM18.8554 13.1274C18.4494 13.1274 18.0525 13.2477 17.7149 13.4733C17.3773 13.6989 17.1142 14.0195 16.9588 14.3946C16.8035 14.7697 16.7628 15.1824 16.842 15.5806C16.9212 15.9788 17.1167 16.3446 17.4038 16.6317C17.6909 16.9188 18.0567 17.1143 18.4549 17.1935C18.8531 17.2727 19.2659 17.2321 19.641 17.0767C20.0161 16.9213 20.3367 16.6582 20.5622 16.3206C20.7878 15.983 20.9082 15.5862 20.9082 15.1802C20.9075 14.6359 20.691 14.1142 20.3062 13.7294C19.9214 13.3445 19.3996 13.128 18.8554 13.1274Z" fill="#202020"/>
<path d="M22.848 19.9018C22.761 19.9019 22.6749 19.8842 22.595 19.8499C22.5151 19.8155 22.443 19.7651 22.3833 19.7018L20.3088 17.5114C20.2473 17.4512 20.1986 17.3792 20.1655 17.2998C20.1325 17.2203 20.1158 17.135 20.1165 17.049C20.1171 16.9629 20.1352 16.8779 20.1694 16.799C20.2037 16.7201 20.2536 16.6489 20.316 16.5897C20.3784 16.5304 20.4521 16.4844 20.5328 16.4544C20.6134 16.4243 20.6992 16.4108 20.7852 16.4146C20.8711 16.4185 20.9554 16.4396 21.033 16.4768C21.1106 16.514 21.1799 16.5665 21.2368 16.631L23.3113 18.8218C23.3973 18.9125 23.4547 19.0264 23.4767 19.1495C23.4986 19.2725 23.484 19.3993 23.4347 19.5141C23.3855 19.629 23.3037 19.7269 23.1994 19.7957C23.0951 19.8646 22.973 19.9015 22.848 19.9018Z" fill="#202020"/>
</svg>
