<svg width="24" height="24" viewBox="0 0 24 24" fill="none" xmlns="http://www.w3.org/2000/svg">
<path d="M12 20.7734C11.6772 20.775 11.3627 20.6713 11.1042 20.4779C10.8457 20.2846 10.6573 20.0122 10.5677 19.7021L10.1466 18.272C10.1368 18.2388 10.119 18.2085 10.0949 18.1837C10.0707 18.1589 10.0409 18.1404 10.008 18.1297C9.97509 18.119 9.94007 18.1164 9.90596 18.1223C9.87185 18.1281 9.83967 18.1421 9.8122 18.1632L8.63172 19.072C8.37627 19.2687 8.06401 19.3775 7.74163 19.382C7.41924 19.3865 7.10405 19.2866 6.84319 19.0971C6.58232 18.9076 6.3898 18.6388 6.29441 18.3308C6.19901 18.0228 6.20587 17.6922 6.31396 17.3885L6.81348 15.9846C6.82509 15.952 6.82857 15.917 6.82363 15.8827C6.81868 15.8485 6.80546 15.8159 6.7851 15.7879C6.76474 15.7599 6.73786 15.7372 6.70678 15.722C6.67571 15.7067 6.64138 15.6992 6.60676 15.7001L5.11748 15.744C4.79519 15.7529 4.47865 15.6573 4.21521 15.4714C3.95177 15.2856 3.75557 15.0194 3.65595 14.7128C3.55633 14.4061 3.55864 14.0755 3.66254 13.7703C3.76644 13.4651 3.96634 13.2017 4.23236 13.0195L5.46148 12.1773C5.49012 12.1577 5.51356 12.1314 5.52975 12.1008C5.54595 12.0701 5.55441 12.0359 5.55441 12.0013C5.55441 11.9666 5.54595 11.9324 5.52975 11.9017C5.51356 11.8711 5.49012 11.8448 5.46148 11.8253L4.23236 10.983C3.96634 10.8008 3.76644 10.5375 3.66254 10.2322C3.55864 9.92702 3.55633 9.59638 3.65595 9.28974C3.75557 8.9831 3.95177 8.71694 4.21521 8.53106C4.47865 8.34519 4.79519 8.24958 5.11748 8.25854L6.60676 8.29982C6.64138 8.30078 6.67571 8.29329 6.70678 8.278C6.73786 8.26271 6.76474 8.24008 6.7851 8.21206C6.80546 8.18404 6.81868 8.15149 6.82363 8.11721C6.82857 8.08293 6.82509 8.04796 6.81348 8.01534L6.31396 6.6115C6.20587 6.30774 6.19901 5.97715 6.29441 5.66917C6.3898 5.36119 6.58232 5.09236 6.84319 4.90288C7.10405 4.71339 7.41924 4.61344 7.74163 4.61797C8.06401 4.62249 8.37627 4.73125 8.63172 4.92798L9.8122 5.83678C9.83967 5.85781 9.87185 5.87186 9.90596 5.87769C9.94007 5.88353 9.97509 5.88099 10.008 5.87028C10.0409 5.85957 10.0707 5.84102 10.0949 5.81623C10.119 5.79144 10.1368 5.76115 10.1466 5.72798L10.5677 4.29886C10.6588 3.98957 10.8475 3.71807 11.1057 3.52496C11.3639 3.33184 11.6776 3.22748 12 3.22748C12.3225 3.22748 12.6362 3.33184 12.8944 3.52496C13.1526 3.71807 13.3413 3.98957 13.4324 4.29886L13.8535 5.72798C13.8633 5.76115 13.8811 5.79144 13.9052 5.81623C13.9294 5.84102 13.9592 5.85957 13.9921 5.87028C14.025 5.88099 14.06 5.88353 14.0941 5.87769C14.1282 5.87186 14.1604 5.85781 14.1879 5.83678L15.3684 4.92798C15.6238 4.73125 15.9361 4.62249 16.2584 4.61797C16.5808 4.61344 16.896 4.71339 17.1569 4.90288C17.4178 5.09236 17.6103 5.36119 17.7057 5.66917C17.8011 5.97715 17.7942 6.30774 17.6861 6.6115L17.1866 8.01534C17.175 8.04796 17.1715 8.08293 17.1765 8.11721C17.1814 8.15149 17.1946 8.18404 17.215 8.21206C17.2353 8.24008 17.2622 8.26271 17.2933 8.278C17.3244 8.29329 17.3587 8.30078 17.3933 8.29982L18.8826 8.25854C19.2049 8.24958 19.5214 8.34519 19.7849 8.53106C20.0483 8.71694 20.2445 8.9831 20.3441 9.28974C20.4438 9.59638 20.4414 9.92702 20.3375 10.2322C20.2336 10.5375 20.0337 10.8008 19.7677 10.983L18.5386 11.8253C18.51 11.8448 18.4865 11.8711 18.4703 11.9017C18.4541 11.9324 18.4457 11.9666 18.4457 12.0013C18.4457 12.0359 18.4541 12.0701 18.4703 12.1008C18.4865 12.1314 18.51 12.1577 18.5386 12.1773L19.7677 13.0195C20.0337 13.2017 20.2336 13.4651 20.3375 13.7703C20.4414 14.0755 20.4438 14.4061 20.3441 14.7128C20.2445 15.0194 20.0483 15.2856 19.7849 15.4714C19.5214 15.6573 19.2049 15.7529 18.8826 15.744L17.3933 15.7027C17.3587 15.7017 17.3244 15.7092 17.2933 15.7245C17.2622 15.7398 17.2353 15.7624 17.215 15.7905C17.1946 15.8185 17.1814 15.851 17.1765 15.8853C17.1715 15.9196 17.175 15.9545 17.1866 15.9872L17.6861 17.391C17.7933 17.6946 17.7995 18.0247 17.7037 18.3321C17.608 18.6395 17.4154 18.9077 17.1548 19.0968C16.8941 19.2858 16.5794 19.3855 16.2574 19.381C15.9355 19.3766 15.6237 19.2682 15.3684 19.072L14.1879 18.1632C14.1604 18.1421 14.1282 18.1281 14.0941 18.1223C14.06 18.1164 14.025 18.119 13.9921 18.1297C13.9592 18.1404 13.9294 18.1589 13.9052 18.1837C13.8811 18.2085 13.8633 18.2388 13.8535 18.272L13.4324 19.7011C13.3429 20.0114 13.1546 20.284 12.8961 20.4776C12.6376 20.6711 12.323 20.775 12 20.7734ZM9.94212 16.84C10.2646 16.8399 10.5784 16.9442 10.8366 17.1373C11.0947 17.3305 11.2835 17.602 11.3744 17.9113L11.7956 19.3405C11.8085 19.3846 11.8355 19.4234 11.8723 19.451C11.9092 19.4786 11.954 19.4935 12 19.4935C12.0461 19.4935 12.0909 19.4786 12.1277 19.451C12.1646 19.4234 12.1915 19.3846 12.2045 19.3405L12.6256 17.9113C12.6941 17.6786 12.8183 17.466 12.9875 17.292C13.1567 17.118 13.3657 16.9879 13.5964 16.913C13.8272 16.838 14.0728 16.8204 14.3119 16.8617C14.551 16.903 14.7764 17.002 14.9687 17.1501L16.1492 18.0585C16.1856 18.0866 16.2302 18.1022 16.2762 18.1029C16.3223 18.1035 16.3673 18.0892 16.4045 18.0622C16.4418 18.0351 16.4693 17.9967 16.4829 17.9528C16.4965 17.9088 16.4955 17.8616 16.48 17.8182L15.9805 16.416C15.8991 16.1874 15.8747 15.9424 15.9093 15.7023C15.9439 15.4621 16.0365 15.234 16.1792 15.0377C16.3218 14.8414 16.5101 14.6828 16.7278 14.5756C16.9454 14.4685 17.186 14.416 17.4285 14.4227L18.9181 14.464C18.9641 14.4652 19.0093 14.4516 19.0469 14.4251C19.0844 14.3986 19.1124 14.3606 19.1267 14.3168C19.1409 14.2731 19.1406 14.2259 19.1258 14.1823C19.111 14.1388 19.0825 14.1012 19.0445 14.0752L17.8154 13.2329C17.6151 13.0959 17.4512 12.912 17.338 12.6974C17.2248 12.4827 17.1656 12.2436 17.1656 12.0009C17.1656 11.7582 17.2248 11.5192 17.338 11.3045C17.4512 11.0898 17.6151 10.906 17.8154 10.7689L19.0445 9.9267C19.0834 9.90101 19.1127 9.86331 19.1281 9.81936C19.1435 9.77541 19.1441 9.72762 19.1298 9.68331C19.1154 9.639 19.087 9.60061 19.0488 9.574C19.0105 9.54739 18.9646 9.53404 18.9181 9.53598L17.4285 9.57726C17.186 9.58398 16.9454 9.53148 16.7278 9.42432C16.5101 9.31717 16.3218 9.15857 16.1792 8.96226C16.0365 8.76595 15.9439 8.53785 15.9093 8.29769C15.8747 8.05754 15.8991 7.81256 15.9805 7.58398L16.48 6.18174C16.4955 6.13837 16.4965 6.09116 16.4829 6.04718C16.4693 6.00321 16.4418 5.96482 16.4045 5.93776C16.3673 5.91071 16.3223 5.89644 16.2762 5.8971C16.2302 5.89776 16.1856 5.91331 16.1492 5.94142L14.9687 6.8499C14.7764 6.99797 14.551 7.09694 14.3119 7.13826C14.0728 7.17957 13.8272 7.16198 13.5964 7.087C13.3657 7.01201 13.1567 6.88191 12.9875 6.70794C12.8183 6.53398 12.6941 6.3214 12.6256 6.08862L12.2045 4.6595C12.1915 4.61532 12.1646 4.57653 12.1277 4.54894C12.0909 4.52135 12.0461 4.50644 12 4.50644C11.954 4.50644 11.9092 4.52135 11.8723 4.54894C11.8355 4.57653 11.8085 4.61532 11.7956 4.6595L11.3744 6.08862C11.3059 6.3214 11.1817 6.53398 11.0126 6.70794C10.8434 6.88191 10.6344 7.01201 10.4036 7.087C10.1729 7.16198 9.92728 7.17957 9.68817 7.13826C9.44907 7.09694 9.22363 6.99797 9.0314 6.8499L7.85092 5.94142C7.81446 5.91331 7.76988 5.89776 7.72384 5.8971C7.67781 5.89644 7.6328 5.91071 7.59555 5.93776C7.5583 5.96482 7.53081 6.00321 7.5172 6.04718C7.50359 6.09116 7.50459 6.13837 7.52004 6.18174L8.01956 7.58398C8.10093 7.81256 8.12537 8.05754 8.09076 8.29769C8.05615 8.53785 7.96353 8.76595 7.82092 8.96226C7.67832 9.15857 7.49002 9.31717 7.27233 9.42432C7.05463 9.53148 6.8141 9.58398 6.57156 9.57726L5.08196 9.53598C5.03597 9.53471 4.99081 9.54836 4.95322 9.57488C4.91563 9.6014 4.88764 9.63937 4.87341 9.68312C4.85919 9.72687 4.85951 9.77405 4.87431 9.81761C4.88912 9.86116 4.91762 9.89876 4.95556 9.92478L6.18468 10.767C6.38498 10.9041 6.54885 11.0879 6.66208 11.3026C6.77531 11.5173 6.83449 11.7563 6.83449 11.999C6.83449 12.2417 6.77531 12.4808 6.66208 12.6954C6.54885 12.9101 6.38498 13.094 6.18468 13.231L4.95556 14.0733C4.91671 14.0989 4.88734 14.1366 4.87195 14.1806C4.85655 14.2245 4.85598 14.2723 4.87031 14.3166C4.88465 14.3609 4.9131 14.3993 4.95132 14.426C4.98954 14.4526 5.03543 14.4659 5.08196 14.464L6.57156 14.4227C6.8141 14.416 7.05463 14.4685 7.27233 14.5756C7.49002 14.6828 7.67832 14.8414 7.82092 15.0377C7.96353 15.234 8.05615 15.4621 8.09076 15.7023C8.12537 15.9424 8.10093 16.1874 8.01956 16.416L7.52004 17.8182C7.50459 17.8616 7.50359 17.9088 7.5172 17.9528C7.53081 17.9967 7.5583 18.0351 7.59555 18.0622C7.6328 18.0892 7.67781 18.1035 7.72384 18.1029C7.76988 18.1022 7.81446 18.0866 7.85092 18.0585L9.0314 17.1501C9.2924 16.949 9.61263 16.8399 9.94212 16.84Z" fill="#202020"/>
<path d="M10.6486 14.8093C10.6352 14.8093 10.6214 14.8093 10.608 14.8093C10.5223 14.8038 10.4387 14.7811 10.362 14.7426C10.2853 14.7041 10.2172 14.6506 10.1616 14.5853L8.0854 12.1504C7.97507 12.0213 7.92056 11.8536 7.93385 11.6843C7.94714 11.515 8.02715 11.3579 8.15628 11.2475C8.28541 11.1372 8.45308 11.0827 8.6224 11.096C8.79173 11.1093 8.94883 11.1893 9.05916 11.3184L10.7072 13.2506L14.9974 9.3568C15.1237 9.24704 15.2879 9.19109 15.4549 9.20094C15.622 9.21079 15.7785 9.28565 15.891 9.40949C16.0035 9.53333 16.063 9.6963 16.0568 9.86349C16.0506 10.0307 15.9792 10.1888 15.8579 10.304L11.079 14.6432C10.9612 14.7501 10.8077 14.8094 10.6486 14.8093Z" fill="#202020"/>
</svg>
