<svg width="24" height="24" viewBox="0 0 24 24" fill="none" xmlns="http://www.w3.org/2000/svg">
<path d="M18.3748 20.4557H7.41668C6.50886 20.4548 5.63849 20.0937 4.99657 19.4518C4.35465 18.8099 3.99361 17.9395 3.99268 17.0317V6.96801C3.99361 6.06019 4.35465 5.18982 4.99657 4.5479C5.63849 3.90598 6.50886 3.54494 7.41668 3.54401H17.4807C18.3885 3.54494 19.2589 3.90598 19.9008 4.5479C20.5427 5.18982 20.9037 6.06019 20.9047 6.96801V15C20.9047 15.1697 20.8372 15.3325 20.7172 15.4526C20.5972 15.5726 20.4344 15.64 20.2647 15.64C20.0949 15.64 19.9321 15.5726 19.8121 15.4526C19.6921 15.3325 19.6247 15.1697 19.6247 15V6.96801C19.6242 6.39954 19.3981 5.8545 18.9962 5.45253C18.5942 5.05056 18.0491 4.82451 17.4807 4.82401H7.41668C6.84821 4.82451 6.30317 5.05056 5.9012 5.45253C5.49923 5.8545 5.27318 6.39954 5.27268 6.96801V17.032C5.27318 17.6005 5.49923 18.1455 5.9012 18.5475C6.30317 18.9494 6.84821 19.1755 7.41668 19.176H18.3748C18.5445 19.176 18.7073 19.2434 18.8273 19.3635C18.9473 19.4835 19.0148 19.6463 19.0148 19.816C19.0148 19.9857 18.9473 20.1485 18.8273 20.2686C18.7073 20.3886 18.5445 20.456 18.3748 20.456V20.4557Z" fill="#202020"/>
<path d="M20.4242 20.9367C19.795 20.9367 19.1799 20.7501 18.6567 20.4005C18.1335 20.0509 17.7257 19.554 17.4849 18.9727C17.2441 18.3914 17.1811 17.7517 17.3039 17.1345C17.4267 16.5174 17.7297 15.9505 18.1746 15.5056C18.6195 15.0607 19.1864 14.7577 19.8035 14.6349C20.4207 14.5121 21.0604 14.5751 21.6417 14.8159C22.223 15.0567 22.7199 15.4645 23.0695 15.9877C23.4191 16.5109 23.6056 17.126 23.6056 17.7552C23.6047 18.5987 23.2692 19.4074 22.6728 20.0038C22.0764 20.6002 21.2677 20.9357 20.4242 20.9367ZM20.4242 15.8541C20.0481 15.8541 19.6805 15.9656 19.3678 16.1746C19.0551 16.3835 18.8114 16.6805 18.6675 17.028C18.5236 17.3754 18.4859 17.7577 18.5593 18.1266C18.6327 18.4955 18.8138 18.8343 19.0798 19.1002C19.3457 19.3661 19.6846 19.5471 20.0534 19.6205C20.4223 19.6938 20.8046 19.6561 21.1521 19.5121C21.4995 19.3682 21.7965 19.1244 22.0054 18.8117C22.2142 18.4989 22.3257 18.1313 22.3256 17.7552C22.3251 17.2511 22.1245 16.7679 21.7681 16.4115C21.4116 16.055 20.9283 15.8546 20.4242 15.8541ZM20.2642 7.89377H4.63316C4.46343 7.89377 4.30064 7.82634 4.18062 7.70632C4.06059 7.58629 3.99316 7.42351 3.99316 7.25377C3.99316 7.08403 4.06059 6.92124 4.18062 6.80122C4.30064 6.6812 4.46343 6.61377 4.63316 6.61377H20.2642C20.4339 6.61377 20.5967 6.6812 20.7168 6.80122C20.8368 6.92124 20.9042 7.08403 20.9042 7.25377C20.9042 7.42351 20.8368 7.58629 20.7168 7.70632C20.5967 7.82634 20.4339 7.89377 20.2642 7.89377Z" fill="#202020"/>
<path d="M8.58141 7.89375C8.41167 7.89375 8.24888 7.82632 8.12886 7.7063C8.00883 7.58628 7.94141 7.42349 7.94141 7.25375V4.18431C7.94141 4.01457 8.00883 3.85179 8.12886 3.73176C8.24888 3.61174 8.41167 3.54431 8.58141 3.54431C8.75115 3.54431 8.91393 3.61174 9.03395 3.73176C9.15398 3.85179 9.22141 4.01457 9.22141 4.18431V7.25375C9.22141 7.42349 9.15398 7.58628 9.03395 7.7063C8.91393 7.82632 8.75115 7.89375 8.58141 7.89375ZM16.239 7.89375C16.0693 7.89375 15.9065 7.82632 15.7865 7.7063C15.6664 7.58628 15.599 7.42349 15.599 7.25375V4.18431C15.599 4.01457 15.6664 3.85179 15.7865 3.73176C15.9065 3.61174 16.0693 3.54431 16.239 3.54431C16.4087 3.54431 16.5715 3.61174 16.6916 3.73176C16.8116 3.85179 16.879 4.01457 16.879 4.18431V7.25375C16.879 7.42349 16.8116 7.58628 16.6916 7.7063C16.5715 7.82632 16.4087 7.89375 16.239 7.89375ZM12.448 7.89375C12.2782 7.89375 12.1154 7.82632 11.9954 7.7063C11.8754 7.58628 11.808 7.42349 11.808 7.25375V4.18431C11.808 4.01457 11.8754 3.85179 11.9954 3.73176C12.1154 3.61174 12.2782 3.54431 12.448 3.54431C12.6177 3.54431 12.7805 3.61174 12.9005 3.73176C13.0205 3.85179 13.088 4.01457 13.088 4.18431V7.25375C13.088 7.42349 13.0205 7.58628 12.9005 7.7063C12.7805 7.82632 12.6177 7.89375 12.448 7.89375ZM19.752 18.5405C19.5938 18.5407 19.4411 18.4823 19.3234 18.3766C19.2057 18.2709 19.1314 18.1254 19.1146 17.968C19.0979 17.8107 19.1401 17.6528 19.233 17.5247C19.3258 17.3967 19.4629 17.3076 19.6176 17.2746L19.7843 17.2387V16.6653C19.7843 16.4955 19.8517 16.3327 19.9717 16.2127C20.0918 16.0927 20.2545 16.0253 20.4243 16.0253C20.594 16.0253 20.7568 16.0927 20.8768 16.2127C20.9969 16.3327 21.0643 16.4955 21.0643 16.6653V17.7552C21.0643 17.9015 21.0142 18.0433 20.9223 18.1572C20.8304 18.271 20.7023 18.3499 20.5593 18.3808L19.8873 18.5258C19.8429 18.5355 19.7975 18.5404 19.752 18.5405Z" fill="#202020"/>
</svg>
