<svg width="24" height="24" viewBox="0 0 24 24" fill="none" xmlns="http://www.w3.org/2000/svg">
<path d="M17.7077 20.7747H7.64373C6.73591 20.7738 5.86554 20.4128 5.22362 19.7708C4.5817 19.1289 4.22066 18.2585 4.21973 17.3507V7.28737C4.22066 6.37956 4.5817 5.50919 5.22362 4.86727C5.86554 4.22535 6.73591 3.8643 7.64373 3.86337H17.7077C18.6156 3.86422 19.486 4.22523 20.1279 4.86717C20.7699 5.50912 21.1309 6.37953 21.1317 7.28737V17.3514C21.1307 18.2591 20.7696 19.1294 20.1277 19.7712C19.4858 20.413 18.6155 20.7739 17.7077 20.7747ZM7.64373 5.14369C7.07526 5.1442 6.53022 5.37025 6.12825 5.77222C5.72628 6.17419 5.50023 6.71922 5.49973 7.28769V17.3517C5.50023 17.9202 5.72628 18.4652 6.12825 18.8672C6.53022 19.2691 7.07526 19.4952 7.64373 19.4957H17.7077C18.2762 19.4952 18.8212 19.2691 19.2232 18.8672C19.6252 18.4652 19.8512 17.9202 19.8517 17.3517V7.28737C19.8512 6.7189 19.6252 6.17387 19.2232 5.7719C18.8212 5.36993 18.2762 5.14388 17.7077 5.14337L7.64373 5.14369Z" fill="#202020"/>
<path d="M20.4913 9.53055H4.86021C4.69048 9.53055 4.52769 9.46312 4.40767 9.3431C4.28764 9.22307 4.22021 9.06029 4.22021 8.89055C4.22021 8.72081 4.28764 8.55802 4.40767 8.438C4.52769 8.31798 4.69048 8.25055 4.86021 8.25055H20.4913C20.661 8.25055 20.8238 8.31798 20.9438 8.438C21.0638 8.55802 21.1313 8.72081 21.1313 8.89055C21.1313 9.06029 21.0638 9.22307 20.9438 9.3431C20.8238 9.46312 20.661 9.53055 20.4913 9.53055ZM20.4913 16.1939H4.86021C4.69048 16.1939 4.52769 16.1265 4.40767 16.0065C4.28764 15.8864 4.22021 15.7236 4.22021 15.5539C4.22021 15.3842 4.28764 15.2214 4.40767 15.1014C4.52769 14.9813 4.69048 14.9139 4.86021 14.9139H20.4913C20.661 14.9139 20.8238 14.9813 20.9438 15.1014C21.0638 15.2214 21.1313 15.3842 21.1313 15.5539C21.1313 15.7236 21.0638 15.8864 20.9438 16.0065C20.8238 16.1265 20.661 16.1939 20.4913 16.1939Z" fill="#202020"/>
<path d="M17.1958 9.53056C17.0261 9.53056 16.8633 9.46313 16.7433 9.34311C16.6233 9.22308 16.5558 9.0603 16.5558 8.89056V4.50368C16.5558 4.33394 16.6233 4.17115 16.7433 4.05113C16.8633 3.93111 17.0261 3.86368 17.1958 3.86368C17.3656 3.86368 17.5284 3.93111 17.6484 4.05113C17.7684 4.17115 17.8358 4.33394 17.8358 4.50368V8.89056C17.8358 9.0603 17.7684 9.22308 17.6484 9.34311C17.5284 9.46313 17.3656 9.53056 17.1958 9.53056ZM14.2874 9.53056C14.1176 9.53056 13.9548 9.46313 13.8348 9.34311C13.7148 9.22308 13.6474 9.0603 13.6474 8.89056V4.50368C13.6474 4.33394 13.7148 4.17115 13.8348 4.05113C13.9548 3.93111 14.1176 3.86368 14.2874 3.86368C14.4571 3.86368 14.6199 3.93111 14.7399 4.05113C14.8599 4.17115 14.9274 4.33394 14.9274 4.50368V8.89056C14.9274 9.0603 14.8599 9.22308 14.7399 9.34311C14.6199 9.46313 14.4571 9.53056 14.2874 9.53056ZM11.3786 9.53056C11.2088 9.53056 11.046 9.46313 10.926 9.34311C10.806 9.22308 10.7386 9.0603 10.7386 8.89056V4.50368C10.7386 4.33394 10.806 4.17115 10.926 4.05113C11.046 3.93111 11.2088 3.86368 11.3786 3.86368C11.5483 3.86368 11.7111 3.93111 11.8311 4.05113C11.9511 4.17115 12.0186 4.33394 12.0186 4.50368V8.89056C12.0186 9.0603 11.9511 9.22308 11.8311 9.34311C11.7111 9.46313 11.5483 9.53056 11.3786 9.53056ZM8.47008 9.53056C8.30034 9.53056 8.13755 9.46313 8.01753 9.34311C7.89751 9.22308 7.83008 9.0603 7.83008 8.89056V4.50368C7.83008 4.33394 7.89751 4.17115 8.01753 4.05113C8.13755 3.93111 8.30034 3.86368 8.47008 3.86368C8.63982 3.86368 8.8026 3.93111 8.92263 4.05113C9.04265 4.17115 9.11008 4.33394 9.11008 4.50368V8.89056C9.11008 9.0603 9.04265 9.22308 8.92263 9.34311C8.8026 9.46313 8.63982 9.53056 8.47008 9.53056ZM17.1958 20.6467C17.0261 20.6467 16.8633 20.5793 16.7433 20.4593C16.6233 20.3392 16.5558 20.1765 16.5558 20.0067V15.6198C16.5558 15.4501 16.6233 15.2873 16.7433 15.1673C16.8633 15.0473 17.0261 14.9798 17.1958 14.9798C17.3656 14.9798 17.5284 15.0473 17.6484 15.1673C17.7684 15.2873 17.8358 15.4501 17.8358 15.6198V20.0067C17.8358 20.1765 17.7684 20.3392 17.6484 20.4593C17.5284 20.5793 17.3656 20.6467 17.1958 20.6467ZM14.2874 20.6467C14.1176 20.6467 13.9548 20.5793 13.8348 20.4593C13.7148 20.3392 13.6474 20.1765 13.6474 20.0067V15.6198C13.6474 15.4501 13.7148 15.2873 13.8348 15.1673C13.9548 15.0473 14.1176 14.9798 14.2874 14.9798C14.4571 14.9798 14.6199 15.0473 14.7399 15.1673C14.8599 15.2873 14.9274 15.4501 14.9274 15.6198V20.0067C14.9274 20.1765 14.8599 20.3392 14.7399 20.4593C14.6199 20.5793 14.4571 20.6467 14.2874 20.6467ZM11.3786 20.6467C11.2088 20.6467 11.046 20.5793 10.926 20.4593C10.806 20.3392 10.7386 20.1765 10.7386 20.0067V15.6198C10.7386 15.4501 10.806 15.2873 10.926 15.1673C11.046 15.0473 11.2088 14.9798 11.3786 14.9798C11.5483 14.9798 11.7111 15.0473 11.8311 15.1673C11.9511 15.2873 12.0186 15.4501 12.0186 15.6198V20.0067C12.0186 20.1765 11.9511 20.3392 11.8311 20.4593C11.7111 20.5793 11.5483 20.6467 11.3786 20.6467ZM8.47008 20.6467C8.30034 20.6467 8.13755 20.5793 8.01753 20.4593C7.89751 20.3392 7.83008 20.1765 7.83008 20.0067V15.6198C7.83008 15.4501 7.89751 15.2873 8.01753 15.1673C8.13755 15.0473 8.30034 14.9798 8.47008 14.9798C8.63982 14.9798 8.8026 15.0473 8.92263 15.1673C9.04265 15.2873 9.11008 15.4501 9.11008 15.6198V20.0067C9.11008 20.1765 9.04265 20.3392 8.92263 20.4593C8.8026 20.5793 8.63982 20.6467 8.47008 20.6467ZM12.6758 16.0397C12.5061 16.0397 12.3433 15.9723 12.2233 15.8522C12.1033 15.7322 12.0358 15.5694 12.0358 15.3997V8.89056C12.0358 8.72082 12.1033 8.55803 12.2233 8.43801C12.3433 8.31799 12.5061 8.25056 12.6758 8.25056C12.8456 8.25056 13.0084 8.31799 13.1284 8.43801C13.2484 8.55803 13.3158 8.72082 13.3158 8.89056V15.3997C13.3158 15.5694 13.2484 15.7322 13.1284 15.8522C13.0084 15.9723 12.8456 16.0397 12.6758 16.0397Z" fill="#202020"/>
</svg>
