<svg width="24" height="24" viewBox="0 0 24 24" fill="none" xmlns="http://www.w3.org/2000/svg">
<path d="M17.8284 20.4557H6.96795C6.06016 20.4547 5.18984 20.0936 4.54793 19.4517C3.90603 18.8098 3.54496 17.9395 3.54395 17.0317V6.96801C3.54496 6.06022 3.90603 5.1899 4.54793 4.548C5.18984 3.90609 6.06016 3.54502 6.96795 3.54401H17.0319C17.9397 3.54502 18.8101 3.90609 19.452 4.548C20.0939 5.1899 20.4549 6.06022 20.4559 6.96801V14.5421C20.4559 14.7118 20.3885 14.8746 20.2685 14.9946C20.1485 15.1147 19.9857 15.1821 19.8159 15.1821C19.6462 15.1821 19.4834 15.1147 19.3634 14.9946C19.2434 14.8746 19.1759 14.7118 19.1759 14.5421V6.96801C19.1754 6.39954 18.9494 5.8545 18.5474 5.45253C18.1455 5.05056 17.6004 4.82451 17.0319 4.82401H6.96795C6.39948 4.82451 5.85444 5.05056 5.45247 5.45253C5.0505 5.8545 4.82445 6.39954 4.82395 6.96801V17.032C4.82445 17.6005 5.0505 18.1455 5.45247 18.5475C5.85444 18.9494 6.39948 19.1755 6.96795 19.176H17.8284C17.9982 19.176 18.161 19.2434 18.281 19.3635C18.401 19.4835 18.4684 19.6463 18.4684 19.816C18.4684 19.9857 18.401 20.1485 18.281 20.2686C18.161 20.3886 17.9982 20.456 17.8284 20.456V20.4557Z" fill="#202020"/>
<path d="M19.9757 20.9366C19.3465 20.9367 18.7313 20.7502 18.2081 20.4006C17.6849 20.0511 17.2771 19.5542 17.0362 18.9729C16.7954 18.3916 16.7323 17.7519 16.855 17.1347C16.9778 16.5176 17.2807 15.9507 17.7257 15.5057C18.1706 15.0607 18.7375 14.7577 19.3546 14.6349C19.9717 14.5121 20.6114 14.5751 21.1928 14.8159C21.7741 15.0567 22.271 15.4645 22.6206 15.9877C22.9702 16.5108 23.1568 17.126 23.1568 17.7552C23.1559 18.5986 22.8205 19.4073 22.2241 20.0037C21.6277 20.6001 20.8191 20.9356 19.9757 20.9366ZM19.9757 15.8541C19.5996 15.854 19.2319 15.9655 18.9192 16.1744C18.6065 16.3833 18.3627 16.6803 18.2187 17.0277C18.0748 17.3752 18.0371 17.7575 18.1105 18.1264C18.1838 18.4953 18.3649 18.8341 18.6309 19.1C18.8968 19.366 19.2356 19.5471 19.6045 19.6204C19.9734 19.6938 20.3557 19.6561 20.7032 19.5122C21.0506 19.3682 21.3476 19.1244 21.5565 18.8117C21.7654 18.499 21.8769 18.1313 21.8768 17.7552C21.8762 17.2512 21.6757 16.768 21.3193 16.4116C20.9629 16.0552 20.4797 15.8547 19.9757 15.8541Z" fill="#202020"/>
<path d="M19.2885 19.104C19.162 19.104 19.0383 19.0664 18.9331 18.9961C18.8278 18.9258 18.7458 18.8258 18.6974 18.7089C18.649 18.592 18.6363 18.4633 18.661 18.3392C18.6857 18.215 18.7466 18.101 18.8361 18.0115L20.2735 16.5741C20.3935 16.454 20.5563 16.3866 20.726 16.3865C20.8958 16.3865 21.0586 16.4539 21.1786 16.5739C21.2987 16.6939 21.3661 16.8567 21.3662 17.0264C21.3662 17.1962 21.2988 17.359 21.1788 17.479L19.7413 18.9165C19.682 18.976 19.6114 19.0233 19.5337 19.0554C19.456 19.0876 19.3727 19.1041 19.2885 19.104Z" fill="#202020"/>
<path d="M20.7265 19.104C20.6424 19.1041 20.5591 19.0876 20.4814 19.0555C20.4037 19.0233 20.3331 18.976 20.2737 18.9165L18.8363 17.4784C18.7769 17.419 18.7297 17.3484 18.6976 17.2707C18.6654 17.1931 18.6489 17.1099 18.6489 17.0258C18.6489 16.9418 18.6655 16.8585 18.6977 16.7809C18.7298 16.7033 18.777 16.6327 18.8364 16.5733C18.8959 16.5139 18.9664 16.4667 19.0441 16.4346C19.1218 16.4024 19.205 16.3859 19.289 16.3859C19.3731 16.3859 19.4563 16.4025 19.5339 16.4347C19.6116 16.4669 19.6821 16.514 19.7416 16.5734L21.179 18.0109C21.2687 18.1004 21.3298 18.2144 21.3546 18.3387C21.3794 18.4629 21.3668 18.5917 21.3184 18.7088C21.2699 18.8258 21.1878 18.9259 21.0824 18.9962C20.9771 19.0666 20.8532 19.1041 20.7265 19.104ZM19.8158 7.89377H4.18443C4.01469 7.89377 3.85191 7.82634 3.73189 7.70632C3.61186 7.58629 3.54443 7.42351 3.54443 7.25377C3.54443 7.08403 3.61186 6.92124 3.73189 6.80122C3.85191 6.6812 4.01469 6.61377 4.18443 6.61377H19.8158C19.9855 6.61377 20.1483 6.6812 20.2683 6.80122C20.3884 6.92124 20.4558 7.08403 20.4558 7.25377C20.4558 7.42351 20.3884 7.58629 20.2683 7.70632C20.1483 7.82634 19.9855 7.89377 19.8158 7.89377Z" fill="#202020"/>
<path d="M8.13292 7.89375C7.96318 7.89375 7.80039 7.82632 7.68037 7.7063C7.56035 7.58628 7.49292 7.42349 7.49292 7.25375V4.18431C7.49292 4.10027 7.50947 4.01704 7.54164 3.93939C7.5738 3.86175 7.62094 3.79119 7.68037 3.73176C7.7398 3.67233 7.81035 3.62519 7.888 3.59303C7.96565 3.56087 8.04887 3.54431 8.13292 3.54431C8.21697 3.54431 8.30019 3.56087 8.37784 3.59303C8.45549 3.62519 8.52604 3.67233 8.58547 3.73176C8.6449 3.79119 8.69204 3.86175 8.7242 3.93939C8.75637 4.01704 8.77292 4.10027 8.77292 4.18431V7.25375C8.77292 7.42349 8.70549 7.58628 8.58547 7.7063C8.46545 7.82632 8.30266 7.89375 8.13292 7.89375ZM15.7902 7.89375C15.6205 7.89375 15.4577 7.82632 15.3377 7.7063C15.2176 7.58628 15.1502 7.42349 15.1502 7.25375V4.18431C15.1502 4.01457 15.2176 3.85179 15.3377 3.73176C15.4577 3.61174 15.6205 3.54431 15.7902 3.54431C15.9599 3.54431 16.1227 3.61174 16.2427 3.73176C16.3628 3.85179 16.4302 4.01457 16.4302 4.18431V7.25375C16.4302 7.3378 16.4136 7.42102 16.3815 7.49867C16.3493 7.57632 16.3022 7.64687 16.2427 7.7063C16.1833 7.76573 16.1128 7.81287 16.0351 7.84503C15.9575 7.8772 15.8742 7.89375 15.7902 7.89375ZM12.0001 7.89375C11.8304 7.89375 11.6676 7.82632 11.5476 7.7063C11.4275 7.58628 11.3601 7.42349 11.3601 7.25375V4.18431C11.3601 4.01457 11.4275 3.85179 11.5476 3.73176C11.6676 3.61174 11.8304 3.54431 12.0001 3.54431C12.1699 3.54431 12.3326 3.61174 12.4527 3.73176C12.5727 3.85179 12.6401 4.01457 12.6401 4.18431V7.25375C12.6401 7.42349 12.5727 7.58628 12.4527 7.7063C12.3326 7.82632 12.1699 7.89375 12.0001 7.89375Z" fill="#202020"/>
</svg>
