<svg width="24" height="24" viewBox="0 0 24 24" fill="none" xmlns="http://www.w3.org/2000/svg">
<path d="M10.9386 16.4634C10.5143 16.4634 10.1073 16.2948 9.80725 15.9947C9.50719 15.6947 9.33862 15.2877 9.33862 14.8634V9.20256C9.33894 8.92752 9.41015 8.65721 9.54538 8.41771C9.68061 8.17822 9.8753 7.97762 10.1106 7.83529C10.346 7.69296 10.6141 7.61371 10.889 7.60517C11.1639 7.59664 11.4363 7.65911 11.6801 7.78656L16.5185 10.3258C16.7656 10.4558 16.9745 10.6484 17.1242 10.8842C17.2738 11.12 17.3592 11.3909 17.3717 11.6699C17.3842 11.949 17.3235 12.2264 17.1955 12.4747C17.0676 12.723 16.8768 12.9334 16.6423 13.0851L11.8055 16.2077C11.5472 16.3745 11.2462 16.4633 10.9386 16.4634ZM10.9386 8.88256C10.8801 8.8831 10.8227 8.89935 10.7725 8.9296C10.7252 8.95758 10.686 8.99754 10.659 9.04545C10.632 9.09337 10.6181 9.14756 10.6186 9.20256V14.8643C10.619 14.9215 10.6347 14.9775 10.664 15.0266C10.6934 15.0756 10.7354 15.1159 10.7856 15.1433C10.8358 15.1706 10.8924 15.184 10.9495 15.182C11.0067 15.1801 11.0622 15.1629 11.1105 15.1322L15.9495 12.0096C15.9961 11.9792 16.0339 11.9372 16.0593 11.8877C16.0846 11.8382 16.0967 11.7829 16.0942 11.7274C16.0917 11.6718 16.0748 11.6179 16.0451 11.5708C16.0154 11.5238 15.974 11.4853 15.9249 11.4592L11.0868 8.92C11.0415 8.89571 10.991 8.88286 10.9396 8.88256H10.9386Z" fill="#202020"/>
<path d="M11.9538 20.9088C11.3502 20.9088 10.7572 20.7499 10.2344 20.448L5.4962 17.7139C4.97393 17.4114 4.54019 16.9772 4.23831 16.4546C3.93642 15.9319 3.77697 15.3392 3.77588 14.7357V9.26369C3.77687 8.66024 3.93618 8.06761 4.23789 7.545C4.5396 7.02238 4.97315 6.58808 5.49524 6.28545L10.2344 3.55201C10.7575 3.25105 11.3505 3.09265 11.954 3.09265C12.5575 3.09265 13.1504 3.25105 13.6735 3.55201L18.4114 6.28737C18.9336 6.58993 19.3672 7.02421 19.669 7.54684C19.9707 8.06946 20.1301 8.66212 20.1311 9.26561V14.7376C20.1301 15.3411 19.9707 15.9338 19.669 16.4564C19.3672 16.979 18.9336 17.4133 18.4114 17.7159L13.6735 20.448C13.1506 20.7499 12.5575 20.9088 11.9538 20.9088ZM11.9538 4.37089C11.575 4.37045 11.2027 4.46978 10.8744 4.65889L6.1362 7.39457C5.80827 7.58446 5.53592 7.85708 5.34634 8.18518C5.15677 8.51329 5.05661 8.8854 5.05588 9.26433V14.7363C5.05647 15.1151 5.15647 15.4872 5.34588 15.8152C5.53529 16.1433 5.80747 16.4159 6.13524 16.6058L10.8744 19.3408C11.2028 19.5298 11.5751 19.6293 11.954 19.6293C12.3328 19.6293 12.7051 19.5298 13.0335 19.3408L17.7714 16.6055C18.0992 16.4155 18.3714 16.1428 18.5609 15.8147C18.7504 15.4866 18.8504 15.1146 18.8511 14.7357V9.26369C18.8504 8.88486 18.7504 8.51284 18.5609 8.18478C18.3714 7.85673 18.0992 7.58415 17.7714 7.39425L13.0335 4.65921C12.7051 4.46999 12.3328 4.37055 11.9538 4.37089Z" fill="#202020"/>
</svg>
