<svg width="24" height="24" viewBox="0 0 24 24" fill="none" xmlns="http://www.w3.org/2000/svg">
<path d="M5.71361 20.8291C5.59601 20.829 5.48072 20.7964 5.38041 20.735C5.2801 20.6737 5.19864 20.5858 5.14497 20.4812C5.09131 20.3765 5.06752 20.2591 5.07621 20.1418C5.08491 20.0245 5.12575 19.9119 5.19425 19.8163L16.8496 3.56289C16.9486 3.42494 17.0983 3.33195 17.2658 3.30437C17.4333 3.2768 17.6049 3.3169 17.7429 3.41586C17.8808 3.51481 17.9738 3.66452 18.0014 3.83204C18.029 3.99956 17.9889 4.17118 17.8899 4.30914L6.23425 20.5623C6.17493 20.6449 6.09676 20.7123 6.00621 20.7587C5.91567 20.8051 5.81536 20.8292 5.71361 20.8291ZM20.2323 15.9594C19.9367 15.9585 19.6472 15.8751 19.3965 15.7184L17.2679 14.4C17.1752 14.3426 17.0987 14.2626 17.0457 14.1674C16.9927 14.0722 16.9648 13.965 16.9648 13.856V9.95873C16.9648 9.85666 16.9892 9.75605 17.0359 9.66531C17.0827 9.57458 17.1505 9.49634 17.2336 9.43714L19.3111 7.9581C19.5489 7.7887 19.8288 7.68807 20.1201 7.66723C20.4114 7.64638 20.7027 7.70613 20.9623 7.83993C21.2219 7.97372 21.4396 8.1764 21.5916 8.42573C21.7436 8.67507 21.824 8.96144 21.824 9.25346V14.3658C21.8261 14.6495 21.7513 14.9285 21.6075 15.1731C21.4638 15.4178 21.2565 15.6189 21.0077 15.7552C20.7709 15.8884 20.504 15.9587 20.2323 15.9594ZM18.2448 13.5002L20.0688 14.6298C20.1159 14.6593 20.17 14.6756 20.2255 14.677C20.281 14.6785 20.3358 14.665 20.3844 14.6381C20.4329 14.6111 20.4733 14.5716 20.5014 14.5237C20.5295 14.4758 20.5442 14.4213 20.544 14.3658V9.25346C20.544 9.19645 20.5283 9.14054 20.4987 9.09186C20.469 9.04318 20.4265 9.00362 20.3758 8.9775C20.3251 8.95139 20.2682 8.93973 20.2114 8.94382C20.1545 8.9479 20.0999 8.96757 20.0535 9.00065L18.2448 10.2887V13.5002Z" fill="#202020"/>
<path d="M15.4613 19.0099H7.85749C7.11933 19.0092 6.4116 18.7157 5.88965 18.1938C5.3677 17.6718 5.07416 16.9641 5.07349 16.2259V7.77344C5.07416 7.03529 5.3677 6.32756 5.88965 5.8056C6.4116 5.28365 7.11933 4.99012 7.85749 4.98944H15.4613C16.1995 4.99012 16.9072 5.28365 17.4292 5.8056C17.9511 6.32756 18.2446 7.03529 18.2453 7.77344V16.2266C18.2445 16.9646 17.9509 17.6722 17.4289 18.194C16.907 18.7158 16.1994 19.0092 15.4613 19.0099ZM7.85749 6.27008C7.4586 6.27008 7.07605 6.42854 6.794 6.71059C6.51194 6.99265 6.35349 7.3752 6.35349 7.77408V16.2266C6.35349 16.6254 6.51194 17.008 6.794 17.2901C7.07605 17.5721 7.4586 17.7306 7.85749 17.7306H15.4613C15.8602 17.7306 16.2428 17.5721 16.5248 17.2901C16.8069 17.008 16.9653 16.6254 16.9653 16.2266V7.77344C16.9653 7.37456 16.8069 6.99201 16.5248 6.70995C16.2428 6.4279 15.8602 6.26944 15.4613 6.26944L7.85749 6.27008Z" fill="#202020"/>
</svg>
