<svg width="24" height="24" viewBox="0 0 24 24" fill="none" xmlns="http://www.w3.org/2000/svg">
<path d="M17.5017 20.4557H7.43767C6.52986 20.4548 5.65949 20.0937 5.01757 19.4518C4.37564 18.8099 4.0146 17.9395 4.01367 17.0317V6.96801C4.0146 6.06019 4.37564 5.18982 5.01757 4.5479C5.65949 3.90598 6.52986 3.54494 7.43767 3.54401H17.5017C18.4095 3.54494 19.2799 3.90598 19.9218 4.5479C20.5637 5.18982 20.9247 6.06019 20.9257 6.96801V14.7302C20.9257 14.9 20.8582 15.0628 20.7382 15.1828C20.6182 15.3028 20.4554 15.3702 20.2857 15.3702C20.1159 15.3702 19.9531 15.3028 19.8331 15.1828C19.7131 15.0628 19.6457 14.9 19.6457 14.7302V6.96801C19.6452 6.39954 19.4191 5.8545 19.0171 5.45253C18.6152 5.05056 18.0701 4.82451 17.5017 4.82401H7.43767C6.8692 4.82451 6.32416 5.05056 5.9222 5.45253C5.52023 5.8545 5.29418 6.39954 5.29367 6.96801V17.032C5.29418 17.6005 5.52023 18.1455 5.9222 18.5475C6.32416 18.9494 6.8692 19.1755 7.43767 19.176H17.5017C17.6714 19.176 17.8342 19.2434 17.9542 19.3635C18.0742 19.4835 18.1417 19.6463 18.1417 19.816C18.1417 19.9857 18.0742 20.1485 17.9542 20.2686C17.8342 20.3886 17.6714 20.456 17.5017 20.456V20.4557Z" fill="#202020"/>
<path d="M20.4451 20.9366C19.8159 20.9366 19.2008 20.7501 18.6776 20.4005C18.1544 20.0509 17.7466 19.554 17.5058 18.9727C17.2651 18.3914 17.202 17.7517 17.3248 17.1345C17.4476 16.5174 17.7506 15.9505 18.1955 15.5056C18.6404 15.0607 19.2073 14.7576 19.8244 14.6349C20.4416 14.5121 21.0813 14.5751 21.6626 14.8159C22.2439 15.0567 22.7408 15.4645 23.0904 15.9877C23.44 16.5109 23.6266 17.126 23.6266 17.7552C23.6257 18.5987 23.2902 19.4074 22.6938 20.0039C22.0973 20.6003 21.2886 20.9358 20.4451 20.9366ZM20.4451 15.8541C20.069 15.8541 19.7014 15.9656 19.3887 16.1746C19.076 16.3835 18.8323 16.6805 18.6884 17.0279C18.5445 17.3754 18.5068 17.7577 18.5802 18.1266C18.6536 18.4954 18.8348 18.8342 19.1007 19.1002C19.3667 19.3661 19.7055 19.5471 20.0744 19.6205C20.4432 19.6938 20.8255 19.6561 21.173 19.5121C21.5204 19.3682 21.8174 19.1244 22.0263 18.8117C22.2352 18.4989 22.3466 18.1313 22.3466 17.7552C22.346 17.2511 22.1454 16.7679 21.789 16.4114C21.4325 16.055 20.9492 15.8546 20.4451 15.8541Z" fill="#202020"/>
<path d="M21.4938 18.3846H19.4608C19.2911 18.3846 19.1283 18.3172 19.0083 18.1972C18.8882 18.0772 18.8208 17.9144 18.8208 17.7446C18.8208 17.5749 18.8882 17.4121 19.0083 17.2921C19.1283 17.1721 19.2911 17.1046 19.4608 17.1046H21.4938C21.6635 17.1046 21.8263 17.1721 21.9463 17.2921C22.0663 17.4121 22.1338 17.5749 22.1338 17.7446C22.1338 17.9144 22.0663 18.0772 21.9463 18.1972C21.8263 18.3172 21.6635 18.3846 21.4938 18.3846Z" fill="#202020"/>
<path d="M20.4772 19.401C20.3075 19.401 20.1447 19.3335 20.0247 19.2135C19.9046 19.0935 19.8372 18.9307 19.8372 18.761V16.728C19.8372 16.5583 19.9046 16.3955 20.0247 16.2755C20.1447 16.1554 20.3075 16.088 20.4772 16.088C20.6469 16.088 20.8097 16.1554 20.9297 16.2755C21.0498 16.3955 21.1172 16.5583 21.1172 16.728V18.761C21.1172 18.9307 21.0498 19.0935 20.9297 19.2135C20.8097 19.3335 20.6469 19.401 20.4772 19.401ZM20.2852 7.89377H4.65416C4.48442 7.89377 4.32164 7.82634 4.20161 7.70632C4.08159 7.58629 4.01416 7.42351 4.01416 7.25377C4.01416 7.08403 4.08159 6.92124 4.20161 6.80122C4.32164 6.6812 4.48442 6.61377 4.65416 6.61377H20.2852C20.4549 6.61377 20.6177 6.6812 20.7377 6.80122C20.8578 6.92124 20.9252 7.08403 20.9252 7.25377C20.9252 7.42351 20.8578 7.58629 20.7377 7.70632C20.6177 7.82634 20.4549 7.89377 20.2852 7.89377Z" fill="#202020"/>
<path d="M8.60216 7.89375C8.43242 7.89375 8.26963 7.82632 8.14961 7.7063C8.02959 7.58628 7.96216 7.42349 7.96216 7.25375V4.18431C7.96216 4.01457 8.02959 3.85179 8.14961 3.73176C8.26963 3.61174 8.43242 3.54431 8.60216 3.54431C8.7719 3.54431 8.93468 3.61174 9.05471 3.73176C9.17473 3.85179 9.24216 4.01457 9.24216 4.18431V7.25375C9.24216 7.42349 9.17473 7.58628 9.05471 7.7063C8.93468 7.82632 8.7719 7.89375 8.60216 7.89375ZM16.2598 7.89375C16.09 7.89375 15.9272 7.82632 15.8072 7.7063C15.6872 7.58628 15.6198 7.42349 15.6198 7.25375V4.18431C15.6198 4.01457 15.6872 3.85179 15.8072 3.73176C15.9272 3.61174 16.09 3.54431 16.2598 3.54431C16.4295 3.54431 16.5923 3.61174 16.7123 3.73176C16.8323 3.85179 16.8998 4.01457 16.8998 4.18431V7.25375C16.8998 7.42349 16.8323 7.58628 16.7123 7.7063C16.5923 7.82632 16.4295 7.89375 16.2598 7.89375ZM12.4697 7.89375C12.2999 7.89375 12.1372 7.82632 12.0171 7.7063C11.8971 7.58628 11.8297 7.42349 11.8297 7.25375V4.18431C11.8297 4.01457 11.8971 3.85179 12.0171 3.73176C12.1372 3.61174 12.2999 3.54431 12.4697 3.54431C12.6394 3.54431 12.8022 3.61174 12.9222 3.73176C13.0423 3.85179 13.1097 4.01457 13.1097 4.18431V7.25375C13.1097 7.42349 13.0423 7.58628 12.9222 7.7063C12.8022 7.82632 12.6394 7.89375 12.4697 7.89375Z" fill="#202020"/>
</svg>
