<svg width="24" height="24" viewBox="0 0 24 24" fill="none" xmlns="http://www.w3.org/2000/svg">
<path d="M13.6348 20.4557C11.6785 20.4558 9.78273 19.7775 8.27046 18.5366C6.75819 17.2956 5.72299 15.5686 5.34127 13.65C4.95954 11.7313 5.25489 9.73962 6.177 8.01431C7.09911 6.289 8.59093 4.93679 10.3983 4.18809C12.2056 3.43939 14.2166 3.34052 16.0887 3.90832C17.9607 4.47613 19.578 5.67548 20.6649 7.30202C21.7518 8.92857 22.2411 10.8817 22.0494 12.8285C21.8577 14.7754 20.9969 16.5955 19.6137 17.9789C18.8304 18.7666 17.8986 19.3911 16.8723 19.8162C15.8461 20.2414 14.7456 20.4587 13.6348 20.4557ZM13.6348 4.82431C9.67798 4.82431 6.4591 8.04351 6.4591 12C6.4591 15.9565 9.67798 19.1757 13.6348 19.1757C17.5913 19.1757 20.8101 15.9565 20.8101 12C20.8101 8.04351 17.5913 4.82431 13.6348 4.82431Z" fill="#202020"/>
<path d="M11.6726 15.8275C11.2924 15.8275 10.9278 15.6765 10.6589 15.4076C10.3901 15.1388 10.239 14.7741 10.239 14.3939V9.70881C10.2389 9.46206 10.3026 9.21947 10.4238 9.00452C10.5449 8.78958 10.7195 8.60955 10.9307 8.48188C11.1419 8.35421 11.3824 8.28322 11.629 8.27577C11.8757 8.26832 12.1201 8.32468 12.3385 8.43937L16.3424 10.5408C16.5642 10.6572 16.7516 10.8297 16.886 11.0411C17.0204 11.2525 17.097 11.4955 17.1083 11.7457C17.1195 11.996 17.065 12.2448 16.9501 12.4674C16.8352 12.69 16.6639 12.8786 16.4534 13.0144L12.4499 15.5984C12.2182 15.748 11.9484 15.8275 11.6726 15.8275ZM11.6726 9.55553C11.6446 9.55589 11.6173 9.56398 11.5936 9.57889C11.5704 9.59193 11.5513 9.61104 11.5382 9.63416C11.5251 9.65729 11.5186 9.68354 11.5193 9.71009V14.3939C11.5195 14.4214 11.5271 14.4484 11.5413 14.472C11.5555 14.4955 11.5757 14.5149 11.5999 14.5279C11.6241 14.541 11.6513 14.5474 11.6788 14.5463C11.7063 14.5452 11.733 14.5368 11.7561 14.5219L15.7597 11.9379C15.7822 11.9234 15.8005 11.9032 15.8128 11.8793C15.8251 11.8555 15.8309 11.8289 15.8298 11.8021C15.8286 11.7753 15.8204 11.7492 15.806 11.7266C15.7916 11.7039 15.7716 11.6855 15.7478 11.673L11.744 9.57281C11.7219 9.5609 11.6973 9.55453 11.6723 9.55425L11.6726 9.55553Z" fill="#202020"/>
</svg>
