<svg width="24" height="24" viewBox="0 0 24 24" fill="none" xmlns="http://www.w3.org/2000/svg">
<path d="M11.9999 21.1117C10.0435 21.1118 8.14754 20.4336 6.6351 19.1925C5.12267 17.9515 4.08735 16.2244 3.70556 14.3056C3.32377 12.3867 3.61913 10.3949 4.5413 8.66943C5.46348 6.94396 6.95542 5.59163 8.76291 4.84286C10.5704 4.09409 12.5816 3.99522 14.4538 4.56309C16.326 5.13097 17.9434 6.33044 19.0304 7.95714C20.1174 9.58384 20.6067 11.5371 20.4149 13.4841C20.2232 15.4312 19.3622 17.2515 17.9788 18.6349C17.1955 19.4226 16.2638 20.0471 15.2375 20.4722C14.2112 20.8974 13.1108 21.1147 11.9999 21.1117ZM11.9999 5.48064C8.04346 5.48064 4.82426 8.69952 4.82426 12.656C4.82426 16.6125 8.04346 19.8317 11.9999 19.8317C15.9564 19.8317 19.1756 16.6125 19.1756 12.656C19.1756 8.69952 15.9564 5.48064 11.9999 5.48064Z" fill="#202020"/>
<path d="M11.9999 17.1907C11.8302 17.1907 11.6674 17.1233 11.5474 17.0033C11.4274 16.8832 11.3599 16.7205 11.3599 16.5507V8.76128C11.3599 8.59154 11.4274 8.42875 11.5474 8.30873C11.6674 8.18871 11.8302 8.12128 11.9999 8.12128C12.1697 8.12128 12.3325 8.18871 12.4525 8.30873C12.5725 8.42875 12.6399 8.59154 12.6399 8.76128V16.5507C12.6399 16.7205 12.5725 16.8832 12.4525 17.0033C12.3325 17.1233 12.1697 17.1907 11.9999 17.1907ZM14.5382 16.3699C14.3684 16.3699 14.2056 16.3025 14.0856 16.1825C13.9656 16.0624 13.8982 15.8997 13.8982 15.7299V9.58208C13.8982 9.41234 13.9656 9.24955 14.0856 9.12953C14.2056 9.0095 14.3684 8.94208 14.5382 8.94208C14.7079 8.94208 14.8707 9.0095 14.9907 9.12953C15.1107 9.24955 15.1782 9.41234 15.1782 9.58208V15.7299C15.1782 15.8997 15.1107 16.0624 14.9907 16.1825C14.8707 16.3025 14.7079 16.3699 14.5382 16.3699ZM16.8876 15.3082C16.7179 15.3082 16.5551 15.2407 16.4351 15.1207C16.315 15.0007 16.2476 14.8379 16.2476 14.6682V10.6438C16.2476 10.4741 16.315 10.3113 16.4351 10.1913C16.5551 10.0713 16.7179 10.0038 16.8876 10.0038C17.0573 10.0038 17.2201 10.0713 17.3402 10.1913C17.4602 10.3113 17.5276 10.4741 17.5276 10.6438V14.6682C17.5276 14.8379 17.4602 15.0007 17.3402 15.1207C17.2201 15.2407 17.0573 15.3082 16.8876 15.3082ZM9.40793 16.3699C9.23819 16.3699 9.07541 16.3025 8.95538 16.1825C8.83536 16.0624 8.76793 15.8997 8.76793 15.7299V9.58208C8.76793 9.41234 8.83536 9.24955 8.95538 9.12953C9.07541 9.0095 9.23819 8.94208 9.40793 8.94208C9.57767 8.94208 9.74046 9.0095 9.86048 9.12953C9.9805 9.24955 10.0479 9.41234 10.0479 9.58208V15.7299C10.0479 15.8997 9.9805 16.0624 9.86048 16.1825C9.74046 16.3025 9.57767 16.3699 9.40793 16.3699ZM7.08409 15.3082C6.91435 15.3082 6.75157 15.2407 6.63154 15.1207C6.51152 15.0007 6.44409 14.8379 6.44409 14.6682V10.6438C6.44409 10.4741 6.51152 10.3113 6.63154 10.1913C6.75157 10.0713 6.91435 10.0038 7.08409 10.0038C7.25383 10.0038 7.41662 10.0713 7.53664 10.1913C7.65666 10.3113 7.72409 10.4741 7.72409 10.6438V14.6682C7.72409 14.8379 7.65666 15.0007 7.53664 15.1207C7.41662 15.2407 7.25383 15.3082 7.08409 15.3082Z" fill="#202020"/>
</svg>
