<svg width="24" height="24" viewBox="0 0 24 24" fill="none" xmlns="http://www.w3.org/2000/svg">
<path d="M15.0348 18.6343C14.8322 18.6343 14.6312 18.5997 14.4402 18.5322L10.6613 17.1959C10.0692 16.9862 9.44565 16.8791 8.8175 16.8794H7.6159C6.94208 16.8785 6.29609 16.6105 5.81966 16.134C5.34322 15.6575 5.07522 15.0114 5.07446 14.3376V9.49825C5.07523 8.82446 5.34323 8.17847 5.81968 7.70202C6.29612 7.22558 6.9421 6.95757 7.6159 6.95681H9.48822C9.95488 6.956 10.4157 6.85334 10.8386 6.65601L14.1685 5.09441C14.4391 4.96745 14.7372 4.91046 15.0355 4.92867C15.3338 4.94689 15.6227 5.03972 15.8758 5.19866C16.1289 5.35759 16.338 5.57754 16.484 5.83833C16.63 6.09911 16.7081 6.39237 16.7113 6.69121L16.8204 16.8304C16.8229 17.0665 16.7786 17.3007 16.69 17.5195C16.6014 17.7384 16.4703 17.9374 16.3042 18.1052C16.1381 18.273 15.9404 18.4062 15.7225 18.4971C15.5046 18.5879 15.2709 18.6347 15.0348 18.6346V18.6343ZM7.6159 8.23681C7.28148 8.23724 6.96087 8.37027 6.7244 8.60675C6.48792 8.84322 6.35489 9.16383 6.35446 9.49825V14.3376C6.3548 14.6721 6.4878 14.9928 6.72428 15.2293C6.96077 15.4659 7.28142 15.5989 7.6159 15.5994H8.81846C9.59247 15.5989 10.3609 15.7307 11.0905 15.9891L14.8671 17.3255C14.9435 17.3522 15.0252 17.3603 15.1054 17.3488C15.1855 17.3374 15.2618 17.3069 15.3277 17.2598C15.3935 17.2128 15.4471 17.1506 15.4839 17.0784C15.5207 17.0063 15.5397 16.9264 15.5391 16.8455L15.4303 6.70625C15.4293 6.62174 15.4072 6.53882 15.3659 6.46509C15.3245 6.39135 15.2654 6.32916 15.1938 6.28421C15.1222 6.23925 15.0405 6.21297 14.9562 6.20776C14.8718 6.20256 14.7875 6.2186 14.7109 6.25441L11.382 7.81441C10.7888 8.09174 10.1421 8.23591 9.48726 8.23681H7.6159Z" fill="#202020"/>
<path d="M8.73302 16.272C8.56328 16.272 8.40049 16.2046 8.28047 16.0845C8.16045 15.9645 8.09302 15.8017 8.09302 15.632V7.59679C8.09302 7.42705 8.16045 7.26426 8.28047 7.14424C8.40049 7.02422 8.56328 6.95679 8.73302 6.95679C8.90276 6.95679 9.06554 7.02422 9.18557 7.14424C9.30559 7.26426 9.37302 7.42705 9.37302 7.59679V15.632C9.37302 15.8017 9.30559 15.9645 9.18557 16.0845C9.06554 16.2046 8.90276 16.272 8.73302 16.272ZM21.5746 12.256H18.3897C18.2199 12.256 18.0571 12.1886 17.9371 12.0685C17.8171 11.9485 17.7497 11.7857 17.7497 11.616C17.7497 11.4462 17.8171 11.2835 17.9371 11.1634C18.0571 11.0434 18.2199 10.976 18.3897 10.976H21.5746C21.7444 10.976 21.9071 11.0434 22.0272 11.1634C22.1472 11.2835 22.2146 11.4462 22.2146 11.616C22.2146 11.7857 22.1472 11.9485 22.0272 12.0685C21.9071 12.1886 21.7444 12.256 21.5746 12.256Z" fill="#202020"/>
</svg>
