<svg width="24" height="24" viewBox="0 0 24 24" fill="none" xmlns="http://www.w3.org/2000/svg">
<path d="M14.6651 18.6343C14.4625 18.6343 14.2614 18.5997 14.0705 18.5322L10.2916 17.1959C9.6996 16.9862 9.07614 16.8792 8.4481 16.8794H7.24522C6.57145 16.8784 5.92555 16.6103 5.44918 16.1338C4.97281 15.6574 4.70486 15.0114 4.7041 14.3376V9.49825C4.70486 8.82446 4.97287 8.17847 5.44931 7.70202C5.92576 7.22558 6.57174 6.95757 7.24554 6.95681H9.11786C9.58464 6.95613 10.0456 6.85347 10.4686 6.65601L13.7988 5.09441C14.0694 4.96745 14.3675 4.91046 14.6658 4.92867C14.9641 4.94689 15.253 5.03972 15.5061 5.19866C15.7592 5.35759 15.9683 5.57754 16.1143 5.83833C16.2603 6.09911 16.3384 6.39237 16.3415 6.69121L16.4507 16.8304C16.4533 17.0665 16.409 17.3008 16.3205 17.5196C16.2319 17.7385 16.1007 17.9376 15.9347 18.1054C15.7686 18.2732 15.5708 18.4064 15.3529 18.4972C15.135 18.5881 14.9012 18.6348 14.6651 18.6346V18.6343ZM7.24522 8.23681C6.91083 8.23724 6.59025 8.37028 6.35383 8.60677C6.11741 8.84325 5.98444 9.16386 5.9841 9.49825V14.3376C5.98444 14.6721 6.11744 14.9928 6.35392 15.2293C6.59041 15.4659 6.91106 15.5989 7.24554 15.5994H8.4481C9.22211 15.5989 9.9905 15.7308 10.7201 15.9891L14.4961 17.3255C14.5725 17.3522 14.6542 17.3603 14.7344 17.3488C14.8145 17.3374 14.8908 17.3069 14.9567 17.2598C15.0225 17.2128 15.0761 17.1506 15.1129 17.0784C15.1497 17.0063 15.1687 16.9264 15.1681 16.8455L15.059 6.70625C15.0581 6.62195 15.0362 6.53921 14.9952 6.46556C14.9541 6.39192 14.8953 6.32972 14.8241 6.28464C14.7528 6.23955 14.6715 6.21302 14.5873 6.20746C14.5032 6.2019 14.419 6.21749 14.3425 6.25281L11.0123 7.81441C10.4191 8.09174 9.77237 8.23591 9.11754 8.23681H7.24522ZM17.5255 15.5943C17.4067 15.5943 17.2902 15.5612 17.1891 15.4987C17.088 15.4362 17.0063 15.3468 16.9531 15.2405C16.9 15.1342 16.8775 15.0152 16.8881 14.8968C16.8988 14.7784 16.9422 14.6653 17.0135 14.5703C17.4001 14.0583 18.0443 12.9757 18.0142 11.4899C17.986 10.1002 17.3742 9.08993 17.0139 8.60993C16.9116 8.47444 16.8673 8.30387 16.8908 8.13575C16.9143 7.96762 17.0036 7.81572 17.1391 7.71345C17.2746 7.61119 17.4452 7.56693 17.6133 7.59043C17.7815 7.61392 17.9334 7.70324 18.0356 7.83873C18.4903 8.44161 19.2587 9.71393 19.2939 11.464C19.3316 13.3351 18.5217 14.696 18.0356 15.3408C17.9759 15.4196 17.8988 15.4834 17.8103 15.5274C17.7218 15.5714 17.6244 15.5943 17.5255 15.5943Z" fill="#202020"/>
<path d="M8.43785 16.6576C8.26811 16.6576 8.10533 16.5902 7.9853 16.4702C7.86528 16.3501 7.79785 16.1873 7.79785 16.0176V7.98241C7.79785 7.81267 7.86528 7.64988 7.9853 7.52986C8.10533 7.40984 8.26811 7.34241 8.43785 7.34241C8.60759 7.34241 8.77038 7.40984 8.8904 7.52986C9.01042 7.64988 9.07785 7.81267 9.07785 7.98241V16.0176C9.07785 16.1873 9.01042 16.3501 8.8904 16.4702C8.77038 16.5902 8.60759 16.6576 8.43785 16.6576Z" fill="#202020"/>
</svg>
