<svg width="24" height="24" viewBox="0 0 24 24" fill="none" xmlns="http://www.w3.org/2000/svg">
<path d="M6.07361 9.34114C5.94075 9.34127 5.81115 9.30005 5.70277 9.2232C5.5944 9.14634 5.51263 9.03767 5.4688 8.91225C5.42498 8.78682 5.42127 8.65087 5.4582 8.52325C5.49513 8.39563 5.57086 8.28266 5.67489 8.20002L8.58305 5.88802C9.60385 5.0765 10.8035 4.63298 12.0522 4.60514C12.2219 4.60136 12.3862 4.66517 12.5089 4.78252C12.6316 4.89987 12.7026 5.06116 12.7064 5.2309C12.7102 5.40064 12.6464 5.56492 12.529 5.68762C12.4117 5.81031 12.2504 5.88136 12.0806 5.88514C11.1139 5.9069 10.1798 6.25442 9.37921 6.89026L6.47137 9.2013C6.35846 9.29164 6.21821 9.34094 6.07361 9.34114Z" fill="#202020"/>
<path d="M17.4822 9.34561C17.3692 9.3455 17.2582 9.31545 17.1605 9.25851C17.0629 9.20158 16.982 9.11979 16.9262 9.02148C16.8705 8.92316 16.8417 8.81182 16.8429 8.69878C16.8441 8.58574 16.8752 8.47504 16.9331 8.37793L17.6691 7.14369C17.7378 7.02764 17.7581 6.88926 17.7257 6.75836C17.6934 6.62745 17.6109 6.51451 17.496 6.44385L14.2256 4.44545C14.1098 4.37489 13.9708 4.35298 13.8389 4.38452C13.707 4.41605 13.593 4.49846 13.5216 4.61377L11.0211 8.66561C10.9285 8.80206 10.7867 8.89746 10.6254 8.93192C10.4641 8.96637 10.2957 8.93722 10.1554 8.85055C10.015 8.76387 9.91359 8.62636 9.87218 8.4667C9.83077 8.30705 9.85261 8.13757 9.93312 7.99361L12.432 3.94145C12.6817 3.53876 13.0803 3.251 13.5412 3.14085C14.002 3.03069 14.4877 3.10705 14.8925 3.35329L18.1629 5.35137C18.5643 5.5987 18.8527 5.99375 18.9658 6.4515C19.079 6.90926 19.008 7.39314 18.768 7.79905L18.032 9.03297C17.9753 9.12824 17.8948 9.20714 17.7984 9.26194C17.7021 9.31675 17.5931 9.34558 17.4822 9.34561Z" fill="#202020"/>
<path d="M13.0109 9.30241C12.8993 9.30232 12.7896 9.27305 12.6928 9.21749C12.596 9.16193 12.5154 9.08202 12.4591 8.98569C12.4027 8.88937 12.3725 8.77997 12.3714 8.66836C12.3704 8.55675 12.3986 8.44681 12.4531 8.34945L14.8368 4.09601C14.9205 3.94933 15.0588 3.84169 15.2216 3.79654C15.3843 3.7514 15.5583 3.77241 15.7056 3.855C15.8529 3.93759 15.9616 4.07506 16.008 4.23745C16.0544 4.39984 16.0348 4.57398 15.9533 4.72193L13.5699 8.97537C13.5143 9.07468 13.4331 9.15734 13.3348 9.21483C13.2366 9.27232 13.1247 9.30255 13.0109 9.30241Z" fill="#202020"/>
<path d="M17.3555 18.4554H6.64451C5.96666 18.4545 5.31682 18.1849 4.83751 17.7056C4.3582 17.2263 4.08855 16.5764 4.08771 15.8986V10.6186C4.08855 9.94072 4.3582 9.29088 4.83751 8.81157C5.31682 8.33226 5.96666 8.06261 6.64451 8.06177H17.3555C18.0334 8.06261 18.6832 8.33226 19.1625 8.81157C19.6419 9.29088 19.9115 9.94072 19.9123 10.6186V15.8986C19.9115 16.5764 19.6419 17.2263 19.1625 17.7056C18.6832 18.1849 18.0334 18.4545 17.3555 18.4554ZM6.64451 9.34113C6.30614 9.34197 5.98187 9.47676 5.74261 9.71603C5.50334 9.95529 5.36855 10.2796 5.36771 10.6179V15.8979C5.36855 16.2363 5.50334 16.5606 5.74261 16.7998C5.98187 17.0391 6.30614 17.1739 6.64451 17.1747H17.3555C17.6939 17.1739 18.0182 17.0391 18.2574 16.7998C18.4967 16.5606 18.6315 16.2363 18.6323 15.8979V10.6179C18.6315 10.2796 18.4967 9.95529 18.2574 9.71603C18.0182 9.47676 17.6939 9.34197 17.3555 9.34113H6.64451Z" fill="#202020"/>
</svg>
