<svg width="24" height="24" viewBox="0 0 24 24" fill="none" xmlns="http://www.w3.org/2000/svg">
<path d="M17.2368 18.5555H9.97568C9.80594 18.5555 9.64315 18.4881 9.52313 18.3681C9.40311 18.248 9.33568 18.0853 9.33568 17.9155C9.33568 17.7458 9.40311 17.583 9.52313 17.463C9.64315 17.3429 9.80594 17.2755 9.97568 17.2755H17.2368C17.5835 17.2751 17.9158 17.1372 18.161 16.8921C18.4062 16.647 18.5441 16.3147 18.5446 15.968V8.86592C18.5442 8.51919 18.4063 8.18678 18.1611 7.9416C17.9159 7.69643 17.5835 7.5585 17.2368 7.55808H6.58752C6.24084 7.55858 5.90852 7.69655 5.66341 7.94171C5.4183 8.18688 5.28042 8.51924 5.28 8.86592V9.78912C5.28 9.95885 5.21257 10.1216 5.09255 10.2417C4.97253 10.3617 4.80974 10.4291 4.64 10.4291C4.47026 10.4291 4.30747 10.3617 4.18745 10.2417C4.06743 10.1216 4 9.95885 4 9.78912V8.86592C4.0011 8.17992 4.2741 7.52233 4.75918 7.03725C5.24425 6.55218 5.90184 6.27918 6.58784 6.27808H17.2368C17.9228 6.27918 18.5804 6.55218 19.0655 7.03725C19.5505 7.52233 19.8235 8.17992 19.8246 8.86592V15.968C19.8235 16.6539 19.5504 17.3114 19.0654 17.7965C18.5803 18.2815 17.9227 18.5544 17.2368 18.5555Z" fill="#202020"/>
<path d="M19.7229 14.3389H17.4829C17.1193 14.338 16.7708 14.1931 16.5139 13.9359C16.2569 13.6786 16.1124 13.33 16.112 12.9664V12.0272C16.1127 11.6636 16.2575 11.3151 16.5147 11.058C16.7719 10.801 17.1205 10.6564 17.4841 10.656H19.7241C20.0879 10.6564 20.4367 10.8011 20.6939 11.0584C20.9512 11.3156 21.0959 11.6644 21.0963 12.0282V12.9664C21.096 13.3305 20.9511 13.6795 20.6936 13.9369C20.4361 14.1942 20.0869 14.3388 19.7229 14.3389ZM17.4829 11.935C17.4584 11.935 17.435 11.9448 17.4177 11.962C17.4004 11.9793 17.3907 12.0028 17.3907 12.0272V12.9664C17.3907 12.9909 17.4004 13.0144 17.4177 13.0317C17.435 13.049 17.4584 13.0588 17.4829 13.0589H19.7229C19.7473 13.0588 19.7708 13.049 19.7881 13.0317C19.8053 13.0144 19.815 12.9909 19.815 12.9664V12.0272C19.815 12.0028 19.8053 11.9793 19.788 11.962C19.7708 11.9448 19.7473 11.935 19.7229 11.935H17.4829ZM5.61599 19.5325C3.70815 19.5325 2.21375 18.4627 2.21375 17.097C2.21375 15.7312 3.70815 14.6614 5.61599 14.6614C7.52383 14.6614 9.01823 15.7312 9.01823 17.097C9.01823 18.4627 7.52383 19.5325 5.61599 19.5325ZM5.61599 15.9414C4.36511 15.9414 3.49375 16.5494 3.49375 17.097C3.49375 17.6445 4.36511 18.2525 5.61599 18.2525C6.86687 18.2525 7.73823 17.6445 7.73823 17.097C7.73823 16.5494 6.86687 15.9414 5.61599 15.9414Z" fill="#202020"/>
<path d="M5.61599 16.871C3.70815 16.871 2.21375 15.8013 2.21375 14.4355C2.21375 13.0698 3.70815 12 5.61599 12C7.52383 12 9.01823 13.0698 9.01823 14.4355C9.01823 15.8013 7.52383 16.871 5.61599 16.871ZM5.61599 13.28C4.36511 13.28 3.49375 13.888 3.49375 14.4355C3.49375 14.983 4.36511 15.591 5.61599 15.591C6.86687 15.591 7.73823 14.983 7.73823 14.4355C7.73823 13.888 6.86687 13.28 5.61599 13.28Z" fill="#202020"/>
</svg>
