<svg width="24" height="24" viewBox="0 0 24 24" fill="none" xmlns="http://www.w3.org/2000/svg">
<path d="M17.8816 18.368H9.79201C9.62227 18.368 9.45948 18.3006 9.33946 18.1805C9.21943 18.0605 9.15201 17.8977 9.15201 17.728C9.15201 17.5582 9.21943 17.3955 9.33946 17.2754C9.45948 17.1554 9.62227 17.088 9.79201 17.088H17.8816C18.2702 17.0875 18.6426 16.9329 18.9174 16.6582C19.1921 16.3834 19.3467 16.0109 19.3472 15.6224V8.8355C19.3467 8.44696 19.1921 8.07447 18.9174 7.79973C18.6426 7.52499 18.2702 7.37041 17.8816 7.3699H7.54785C7.1593 7.37041 6.78681 7.52499 6.51207 7.79973C6.23733 8.07447 6.08275 8.44696 6.08225 8.8355V13.3843C6.08225 13.554 6.01482 13.7168 5.89479 13.8369C5.77477 13.9569 5.61198 14.0243 5.44225 14.0243C5.27251 14.0243 5.10972 13.9569 4.9897 13.8369C4.86967 13.7168 4.80225 13.554 4.80225 13.3843V8.8355C4.80309 8.10759 5.09263 7.40972 5.60735 6.89501C6.12207 6.38029 6.81993 6.09075 7.54785 6.0899H17.8816C18.6095 6.09075 19.3074 6.38029 19.8221 6.89501C20.3368 7.40972 20.6264 8.10759 20.6272 8.8355V15.6217C20.6265 16.3498 20.3371 17.0478 19.8223 17.5627C19.3076 18.0775 18.6096 18.3671 17.8816 18.368Z" fill="#202020"/>
<path d="M5.45089 21.0957C4.78298 21.0957 4.13004 20.8977 3.57466 20.5267C3.01928 20.1557 2.5864 19.6283 2.33076 19.0113C2.07511 18.3942 2.00819 17.7152 2.13846 17.0601C2.26872 16.405 2.59032 15.8033 3.06259 15.331C3.53485 14.8587 4.13657 14.537 4.79164 14.4067C5.44671 14.2764 6.12573 14.3432 6.7428 14.5988C7.35988 14.8544 7.88731 15.2872 8.25839 15.8426C8.62947 16.3979 8.82753 17.0508 8.82753 17.7187C8.82651 18.614 8.47045 19.4723 7.83743 20.1054C7.20442 20.7384 6.34615 21.0946 5.45089 21.0957ZM5.45089 15.6237C5.03612 15.6236 4.63065 15.7466 4.28576 15.977C3.94087 16.2073 3.67205 16.5348 3.51329 16.918C3.35454 17.3012 3.31299 17.7229 3.39389 18.1297C3.47479 18.5365 3.67451 18.9101 3.9678 19.2034C4.26108 19.4967 4.63475 19.6964 5.04155 19.7773C5.44835 19.8582 5.87001 19.8167 6.25319 19.6579C6.63637 19.4992 6.96387 19.2303 7.19426 18.8855C7.42465 18.5406 7.54759 18.1351 7.54753 17.7203C7.54719 17.1642 7.32624 16.631 6.93316 16.2376C6.54008 15.8442 6.007 15.6228 5.45089 15.6221V15.6237ZM16.1354 7.36993C15.9656 7.36993 15.8028 7.3025 15.6828 7.18248C15.5628 7.06245 15.4954 6.89967 15.4954 6.72993V5.37409C15.4954 4.71809 14.8163 4.18433 13.9818 4.18433H11.9546C11.1197 4.18433 10.4406 4.71809 10.4406 5.37409V6.72993C10.4406 6.89967 10.3732 7.06245 10.2532 7.18248C10.1332 7.3025 9.97039 7.36993 9.80065 7.36993C9.63091 7.36993 9.46813 7.3025 9.3481 7.18248C9.22808 7.06245 9.16065 6.89967 9.16065 6.72993V5.37409C9.16065 4.01217 10.4141 2.90433 11.9546 2.90433H13.9818C15.5223 2.90433 16.7754 4.01217 16.7754 5.37409V6.72993C16.7754 6.89967 16.7079 7.06245 16.5879 7.18248C16.4679 7.3025 16.3051 7.36993 16.1354 7.36993ZM19.9872 14.4083H18.048C17.6675 14.4079 17.3027 14.2566 17.0336 13.9875C16.7646 13.7184 16.6132 13.3536 16.6128 12.9731V12.0922C16.613 11.7115 16.7642 11.3464 17.0333 11.0772C17.3024 10.8079 17.6673 10.6564 18.048 10.656H19.9872C20.1569 10.656 20.3197 10.7234 20.4398 10.8435C20.5598 10.9635 20.6272 11.1263 20.6272 11.296C20.6272 11.4657 20.5598 11.6285 20.4398 11.7486C20.3197 11.8686 20.1569 11.936 19.9872 11.936H18.048C18.0068 11.936 17.9674 11.9524 17.9383 11.9815C17.9092 12.0106 17.8928 12.05 17.8928 12.0912V12.9722C17.8928 13.0133 17.9092 13.0528 17.9383 13.0819C17.9674 13.111 18.0068 13.1274 18.048 13.1274H19.9872C20.1569 13.1274 20.3197 13.1948 20.4398 13.3148C20.5598 13.4348 20.6272 13.5976 20.6272 13.7674C20.6272 13.9371 20.5598 14.0999 20.4398 14.2199C20.3197 14.3399 20.1569 14.4074 19.9872 14.4074V14.4083Z" fill="#202020"/>
<path d="M5.45439 19.2797C5.28465 19.2797 5.12187 19.2122 5.00184 19.0922C4.88182 18.9722 4.81439 18.8094 4.81439 18.6397V16.8912C4.81439 16.7215 4.88182 16.5587 5.00184 16.4386C5.12187 16.3186 5.28465 16.2512 5.45439 16.2512C5.62413 16.2512 5.78692 16.3186 5.90694 16.4386C6.02696 16.5587 6.09439 16.7215 6.09439 16.8912V18.6397C6.09439 18.8094 6.02696 18.9722 5.90694 19.0922C5.78692 19.2122 5.62413 19.2797 5.45439 19.2797Z" fill="#202020"/>
<path d="M6.34176 18.392H4.59328C4.42354 18.392 4.26075 18.3246 4.14073 18.2045C4.02071 18.0845 3.95328 17.9217 3.95328 17.752C3.95328 17.5823 4.02071 17.4195 4.14073 17.2995C4.26075 17.1794 4.42354 17.112 4.59328 17.112H6.34176C6.5115 17.112 6.67428 17.1794 6.79431 17.2995C6.91433 17.4195 6.98176 17.5823 6.98176 17.752C6.98176 17.9217 6.91433 18.0845 6.79431 18.2045C6.67428 18.3246 6.5115 18.392 6.34176 18.392Z" fill="#202020"/>
</svg>
