<svg width="24" height="24" viewBox="0 0 24 24" fill="none" xmlns="http://www.w3.org/2000/svg">
<path d="M16.7261 18.1709H6.29248C5.57783 18.1701 4.89267 17.8859 4.3873 17.3806C3.88194 16.8753 3.59765 16.1901 3.5968 15.4755V8.58942C3.59765 7.87474 3.88193 7.18957 4.38728 6.68422C4.89264 6.17887 5.5778 5.89458 6.29248 5.89374H16.7261C17.4408 5.89458 18.1259 6.17887 18.6313 6.68422C19.1366 7.18957 19.4209 7.87474 19.4218 8.58942V15.4755C19.4209 16.1901 19.1366 16.8753 18.6313 17.3806C18.1259 17.8859 17.4407 18.1701 16.7261 18.1709ZM6.29248 7.17374C5.91715 7.17416 5.55731 7.32345 5.29191 7.58885C5.02651 7.85425 4.87722 8.21409 4.8768 8.58942V15.4755C4.87731 15.8508 5.02663 16.2105 5.29203 16.4759C5.55742 16.7412 5.91721 16.8904 6.29248 16.8909H16.7261C17.1014 16.8904 17.4611 16.7412 17.7265 16.4759C17.9919 16.2105 18.1413 15.8508 18.1418 15.4755V8.58942C18.1413 8.21409 17.992 7.85425 17.7266 7.58885C17.4612 7.32345 17.1014 7.17416 16.7261 7.17374H6.29248Z" fill="#202020"/>
<path d="M9.67936 9.43491H6.76544C6.5957 9.43491 6.43291 9.36748 6.31289 9.24746C6.19287 9.12743 6.12544 8.96465 6.12544 8.79491C6.12544 8.62517 6.19287 8.46238 6.31289 8.34236C6.43291 8.22234 6.5957 8.15491 6.76544 8.15491H9.67936C9.8491 8.15491 10.0119 8.22234 10.1319 8.34236C10.2519 8.46238 10.3194 8.62517 10.3194 8.79491C10.3194 8.96465 10.2519 9.12743 10.1319 9.24746C10.0119 9.36748 9.8491 9.43491 9.67936 9.43491ZM18.9904 14.1783H16.832C16.4575 14.1779 16.0984 14.029 15.8335 13.7642C15.5686 13.4994 15.4196 13.1403 15.4192 12.7658V11.9072C15.42 11.5329 15.5691 11.1742 15.8339 10.9096C16.0988 10.6451 16.4577 10.4964 16.832 10.496H18.9898C19.3642 10.4963 19.7232 10.645 19.9881 10.9095C20.2531 11.174 20.4024 11.5328 20.4032 11.9072V12.7658C20.4027 13.1403 20.2537 13.4993 19.9888 13.7641C19.724 14.0289 19.3649 14.1778 18.9904 14.1783ZM16.832 11.776C16.7968 11.776 16.7631 11.79 16.7382 11.8148C16.7133 11.8396 16.6993 11.8733 16.6992 11.9085V12.7671C16.6993 12.8022 16.7133 12.8359 16.7382 12.8608C16.7631 12.8856 16.7968 12.8995 16.832 12.8995H18.9898C19.0249 12.8995 19.0587 12.8856 19.0835 12.8608C19.1084 12.8359 19.1225 12.8022 19.1226 12.7671V11.9072C19.1225 11.8721 19.1084 11.8384 19.0835 11.8135C19.0587 11.7887 19.0249 11.7747 18.9898 11.7747L16.832 11.776Z" fill="#202020"/>
</svg>
