<svg width="24" height="24" viewBox="0 0 24 24" fill="none" xmlns="http://www.w3.org/2000/svg">
<path d="M6.43681 19.4307C5.86542 19.4307 5.30685 19.2612 4.83176 18.9438C4.35667 18.6263 3.98638 18.1751 3.76773 17.6472C3.54908 17.1193 3.49189 16.5384 3.60339 15.978C3.71488 15.4176 3.99006 14.9028 4.39412 14.4988C4.79818 14.0948 5.31298 13.8197 5.8734 13.7082C6.43383 13.5968 7.01471 13.6541 7.54259 13.8728C8.07047 14.0915 8.52165 14.4618 8.83905 14.9369C9.15646 15.4121 9.32584 15.9707 9.32577 16.5421C9.32492 17.308 9.02027 18.0423 8.47866 18.5838C7.93705 19.1254 7.20272 19.4299 6.43681 19.4307ZM6.43681 14.9331C6.11859 14.9331 5.80751 15.0275 5.54292 15.2043C5.27833 15.381 5.07211 15.6323 4.95033 15.9263C4.82855 16.2203 4.79669 16.5438 4.85877 16.8559C4.92085 17.1681 5.07409 17.4547 5.29911 17.6798C5.52412 17.9048 5.81081 18.058 6.12292 18.1201C6.43503 18.1822 6.75854 18.1503 7.05253 18.0285C7.34653 17.9068 7.59782 17.7005 7.77461 17.4359C7.95141 17.1714 8.04577 16.8603 8.04577 16.5421C8.04535 16.1155 7.8757 15.7065 7.57405 15.4048C7.2724 15.1032 6.8634 14.9335 6.43681 14.9331Z" fill="#202020"/>
<path d="M3.264 20.56C3.13808 20.5597 3.01504 20.5223 2.91028 20.4524C2.80552 20.3826 2.72369 20.2834 2.67505 20.1672C2.62641 20.0511 2.6131 19.9232 2.63681 19.7995C2.66051 19.6758 2.72017 19.5619 2.80832 19.472L4.46976 17.7872C4.58896 17.6663 4.75128 17.5978 4.92102 17.5966C5.09077 17.5954 5.25402 17.6617 5.37488 17.7809C5.49573 17.9001 5.56428 18.0625 5.56545 18.2322C5.56662 18.402 5.50032 18.5652 5.38112 18.6861L3.71968 20.3705C3.6601 20.4308 3.58913 20.4786 3.51089 20.5111C3.43266 20.5436 3.34872 20.5602 3.264 20.56ZM17.8816 18.368H10.4C10.2303 18.368 10.0675 18.3006 9.94745 18.1805C9.82742 18.0605 9.76 17.8977 9.76 17.728C9.76 17.5582 9.82742 17.3955 9.94745 17.2754C10.0675 17.1554 10.2303 17.088 10.4 17.088H17.8816C18.2701 17.0875 18.6426 16.9329 18.9174 16.6582C19.1921 16.3834 19.3467 16.0109 19.3472 15.6224V8.8355C19.3467 8.44696 19.1921 8.07447 18.9174 7.79973C18.6426 7.52499 18.2701 7.37041 17.8816 7.3699H7.54784C7.15929 7.37041 6.78681 7.52499 6.51206 7.79973C6.23732 8.07447 6.08274 8.44696 6.08224 8.8355V12.6163C6.08224 12.786 6.01481 12.9488 5.89478 13.0689C5.77476 13.1889 5.61198 13.2563 5.44224 13.2563C5.2725 13.2563 5.10971 13.1889 4.98969 13.0689C4.86967 12.9488 4.80224 12.786 4.80224 12.6163V8.8355C4.80308 8.10759 5.09262 7.40972 5.60734 6.89501C6.12206 6.38029 6.81992 6.09075 7.54784 6.0899H17.8816C18.6095 6.09075 19.3074 6.38029 19.8221 6.89501C20.3368 7.40972 20.6263 8.10759 20.6272 8.8355V15.6217C20.6265 16.3498 20.3371 17.0478 19.8223 17.5627C19.3076 18.0775 18.6096 18.3671 17.8816 18.368Z" fill="#202020"/>
<path d="M16.1357 7.3699C15.9659 7.3699 15.8032 7.30247 15.6831 7.18245C15.5631 7.06242 15.4957 6.89964 15.4957 6.7299V5.37406C15.4957 4.71806 14.8163 4.1843 13.9818 4.1843H11.9546C11.1197 4.1843 10.4406 4.71806 10.4406 5.37406V6.7299C10.4406 6.89964 10.3732 7.06242 10.2532 7.18245C10.1332 7.30247 9.97038 7.3699 9.80064 7.3699C9.63091 7.3699 9.46812 7.30247 9.3481 7.18245C9.22807 7.06242 9.16064 6.89964 9.16064 6.7299V5.37406C9.16064 4.01214 10.4141 2.9043 11.9546 2.9043H13.9818C15.5222 2.9043 16.7757 4.01214 16.7757 5.37406V6.7299C16.7757 6.89964 16.7083 7.06242 16.5882 7.18245C16.4682 7.30247 16.3054 7.3699 16.1357 7.3699ZM19.9872 14.4083H18.048C17.6675 14.4079 17.3027 14.2565 17.0336 13.9875C16.7646 13.7184 16.6132 13.3536 16.6128 12.9731V12.0921C16.613 11.7115 16.7642 11.3464 17.0333 11.0771C17.3024 10.8079 17.6673 10.6564 18.048 10.656H19.9872C20.1569 10.656 20.3197 10.7234 20.4398 10.8434C20.5598 10.9635 20.6272 11.1262 20.6272 11.296C20.6272 11.4657 20.5598 11.6285 20.4398 11.7485C20.3197 11.8685 20.1569 11.936 19.9872 11.936H18.048C18.0068 11.936 17.9674 11.9523 17.9383 11.9814C17.9092 12.0105 17.8928 12.05 17.8928 12.0912V12.9721C17.8928 13.0133 17.9092 13.0528 17.9383 13.0819C17.9674 13.111 18.0068 13.1273 18.048 13.1273H19.9872C20.1569 13.1273 20.3197 13.1948 20.4398 13.3148C20.5598 13.4348 20.6272 13.5976 20.6272 13.7673C20.6272 13.9371 20.5598 14.0999 20.4398 14.2199C20.3197 14.3399 20.1569 14.4073 19.9872 14.4073V14.4083Z" fill="#202020"/>
</svg>
