<svg width="24" height="24" viewBox="0 0 24 24" fill="none" xmlns="http://www.w3.org/2000/svg">
<path d="M17.8845 18.5533H7.552C6.82408 18.5524 6.12622 18.2629 5.6115 17.7482C5.09678 17.2334 4.80724 16.5356 4.8064 15.8077V9.02142C4.80724 8.2935 5.09678 7.59564 5.6115 7.08092C6.12622 6.5662 6.82408 6.27666 7.552 6.27582H17.8845C18.6124 6.27666 19.3103 6.5662 19.825 7.08092C20.3397 7.59564 20.6292 8.2935 20.6301 9.02142V15.808C20.6291 16.5358 20.3396 17.2336 19.8249 17.7483C19.3102 18.2629 18.6123 18.5524 17.8845 18.5533ZM7.552 7.55582C7.16343 7.55624 6.79089 7.71079 6.51613 7.98555C6.24137 8.26031 6.08682 8.63285 6.0864 9.02142V15.808C6.08682 16.1965 6.24137 16.5691 6.51613 16.8438C6.79089 17.1186 7.16343 17.2732 7.552 17.2736H17.8845C18.273 17.2731 18.6455 17.1185 18.9203 16.8438C19.195 16.569 19.3496 16.1965 19.3501 15.808V9.02142C19.3496 8.63287 19.195 8.26039 18.9203 7.98564C18.6455 7.7109 18.273 7.55633 17.8845 7.55582H7.552Z" fill="#202020"/>
<path d="M16.1382 7.55581C15.9685 7.55581 15.8057 7.48838 15.6857 7.36836C15.5657 7.24834 15.4982 7.08555 15.4982 6.91581V5.55997C15.4982 4.90397 14.8192 4.37021 13.9846 4.37021H11.9574C11.1226 4.37021 10.4435 4.90397 10.4435 5.55997V6.91581C10.4435 7.08555 10.3761 7.24834 10.2561 7.36836C10.136 7.48838 9.97326 7.55581 9.80352 7.55581C9.63378 7.55581 9.471 7.48838 9.35097 7.36836C9.23095 7.24834 9.16352 7.08555 9.16352 6.91581V5.55997C9.16352 4.19805 10.4166 3.09021 11.9574 3.09021H13.984C15.5245 3.09021 16.7776 4.19805 16.7776 5.55997V6.91581C16.7776 7.08544 16.7103 7.24813 16.5904 7.36813C16.4705 7.48814 16.3079 7.55564 16.1382 7.55581ZM19.9901 14.5942H18.5181C18.0937 14.5942 17.6868 14.4256 17.3867 14.1256C17.0867 13.8255 16.9181 13.4186 16.9181 12.9942V12.4422C16.9181 12.0179 17.0867 11.6109 17.3867 11.3108C17.6868 11.0108 18.0937 10.8422 18.5181 10.8422H19.9901C20.1598 10.8422 20.3226 10.9096 20.4426 11.0297C20.5627 11.1497 20.6301 11.3125 20.6301 11.4822C20.6301 11.6519 20.5627 11.8147 20.4426 11.9348C20.3226 12.0548 20.1598 12.1222 19.9901 12.1222H18.5181C18.4332 12.1222 18.3518 12.1559 18.2918 12.2159C18.2318 12.2759 18.1981 12.3573 18.1981 12.4422V12.9949C18.1981 13.0797 18.2318 13.1611 18.2918 13.2211C18.3518 13.2811 18.4332 13.3148 18.5181 13.3148H19.9901C20.1598 13.3148 20.3226 13.3823 20.4426 13.5023C20.5627 13.6223 20.6301 13.7851 20.6301 13.9549C20.6301 14.1246 20.5627 14.2874 20.4426 14.4074C20.3226 14.5274 20.1598 14.5949 19.9901 14.5949V14.5942Z" fill="#202020"/>
</svg>
