<svg width="24" height="24" viewBox="0 0 24 24" fill="none" xmlns="http://www.w3.org/2000/svg">
<path d="M12 20.233C11.4768 20.2333 10.9626 20.096 10.5092 19.8349L5.96036 17.2083C5.50765 16.946 5.1317 16.5695 4.87008 16.1164C4.60846 15.6633 4.47033 15.1494 4.46948 14.6262V9.37376C4.47033 8.85054 4.60846 8.33671 4.87008 7.88361C5.1317 7.4305 5.50765 7.05398 5.96036 6.79168L10.5092 4.16512C10.9627 3.90426 11.4768 3.76697 12 3.76697C12.5233 3.76697 13.0374 3.90426 13.4909 4.16512L18.0397 6.79168C18.4924 7.05398 18.8684 7.4305 19.13 7.88361C19.3916 8.33671 19.5298 8.85054 19.5306 9.37376V14.6262C19.5298 15.1494 19.3916 15.6633 19.13 16.1164C18.8684 16.5695 18.4924 16.946 18.0397 17.2083L13.4909 19.8349C13.0375 20.096 12.5233 20.2333 12 20.233ZM12 5.0464C11.7014 5.04623 11.408 5.12458 11.1492 5.2736L6.60036 7.90016C6.34199 8.04985 6.12743 8.26473 5.97812 8.52332C5.8288 8.78191 5.74996 9.07515 5.74948 9.37376V14.6262C5.74996 14.9248 5.8288 15.2181 5.97812 15.4767C6.12743 15.7353 6.34199 15.9501 6.60036 16.0998L11.1492 18.7264C11.4081 18.8752 11.7014 18.9535 12 18.9535C12.2986 18.9535 12.592 18.8752 12.8509 18.7264L17.3997 16.0998C17.6581 15.9501 17.8727 15.7353 18.022 15.4767C18.1713 15.2181 18.2501 14.9248 18.2506 14.6262V9.37376C18.2501 9.07515 18.1713 8.78191 18.022 8.52332C17.8727 8.26473 17.6581 8.04985 17.3997 7.90016L12.8509 5.2736C12.5921 5.12458 12.2987 5.04623 12 5.0464Z" fill="#202020"/>
<path d="M12 14.4423C11.8302 14.4423 11.6675 14.3748 11.5474 14.2548C11.4274 14.1348 11.36 13.972 11.36 13.8023V8.12035C11.36 7.95061 11.4274 7.78782 11.5474 7.6678C11.6675 7.54778 11.8302 7.48035 12 7.48035C12.1697 7.48035 12.3325 7.54778 12.4525 7.6678C12.5726 7.78782 12.64 7.95061 12.64 8.12035V13.8023C12.64 13.972 12.5726 14.1348 12.4525 14.2548C12.3325 14.3748 12.1697 14.4423 12 14.4423ZM12 17.2208C11.8302 17.2208 11.6675 17.1534 11.5474 17.0334C11.4274 16.9134 11.36 16.7506 11.36 16.5808V15.5981C11.36 15.4284 11.4274 15.2656 11.5474 15.1456C11.6675 15.0255 11.8302 14.9581 12 14.9581C12.1697 14.9581 12.3325 15.0255 12.4525 15.1456C12.5726 15.2656 12.64 15.4284 12.64 15.5981V16.5808C12.64 16.7506 12.5726 16.9134 12.4525 17.0334C12.3325 17.1534 12.1697 17.2208 12 17.2208Z" fill="#202020"/>
</svg>
