<svg width="24" height="24" viewBox="0 0 24 24" fill="none" xmlns="http://www.w3.org/2000/svg">
<path d="M17.032 20.4557H6.96801C6.06022 20.4547 5.1899 20.0936 4.548 19.4517C3.90609 18.8098 3.54502 17.9395 3.54401 17.0317V6.96801C3.54502 6.06022 3.90609 5.1899 4.548 4.548C5.1899 3.90609 6.06022 3.54502 6.96801 3.54401H17.032C17.9398 3.54502 18.8101 3.90609 19.452 4.548C20.0939 5.1899 20.455 6.06022 20.456 6.96801V17.032C20.456 17.9401 20.0953 18.811 19.4531 19.4531C18.811 20.0953 17.9401 20.456 17.032 20.456V20.4557ZM6.96801 4.82433C6.39954 4.82483 5.8545 5.05088 5.45253 5.45285C5.05056 5.85482 4.82451 6.39986 4.82401 6.96833V17.0323C4.82451 17.6008 5.05056 18.1458 5.45253 18.5478C5.8545 18.9498 6.39954 19.1758 6.96801 19.1763H17.032C17.3136 19.1763 17.5924 19.1209 17.8525 19.0131C18.1126 18.9054 18.349 18.7475 18.548 18.5484C18.7471 18.3493 18.9051 18.1129 19.0128 17.8528C19.1206 17.5927 19.176 17.3139 19.176 17.0323V6.96801C19.1755 6.39954 18.9494 5.8545 18.5475 5.45253C18.1455 5.05056 17.6005 4.82451 17.032 4.82401L6.96801 4.82433Z" fill="#202020"/>
<path d="M12 16.5197C11.8302 16.5197 11.6675 16.4523 11.5474 16.3323C11.4274 16.2122 11.36 16.0494 11.36 15.8797V8.12035C11.36 7.95061 11.4274 7.78782 11.5474 7.6678C11.6675 7.54778 11.8302 7.48035 12 7.48035C12.1697 7.48035 12.3325 7.54778 12.4525 7.6678C12.5726 7.78782 12.64 7.95061 12.64 8.12035V15.8797C12.64 16.0494 12.5726 16.2122 12.4525 16.3323C12.3325 16.4523 12.1697 16.5197 12 16.5197Z" fill="#202020"/>
<path d="M15.8797 12.64H8.12035C7.95061 12.64 7.78782 12.5726 7.6678 12.4525C7.54778 12.3325 7.48035 12.1697 7.48035 12C7.48035 11.8302 7.54778 11.6675 7.6678 11.5474C7.78782 11.4274 7.95061 11.36 8.12035 11.36H15.8797C16.0494 11.36 16.2122 11.4274 16.3323 11.5474C16.4523 11.6675 16.5197 11.8302 16.5197 12C16.5197 12.1697 16.4523 12.3325 16.3323 12.4525C16.2122 12.5726 16.0494 12.64 15.8797 12.64Z" fill="#202020"/>
</svg>
