<svg width="24" height="24" viewBox="0 0 24 24" fill="none" xmlns="http://www.w3.org/2000/svg">
<path d="M17.9738 21.1859H7.90984C7.002 21.1851 6.13158 20.8241 5.48964 20.1821C4.8477 19.5402 4.48669 18.6698 4.48584 17.7619V7.69824C4.48669 6.7904 4.8477 5.91998 5.48964 5.27804C6.13158 4.6361 7.002 4.27509 7.90984 4.27424H17.9738C18.8817 4.27517 19.752 4.63621 20.3939 5.27813C21.0359 5.92006 21.3969 6.79042 21.3978 7.69824V17.7622C21.3968 18.67 21.0357 19.5403 20.3938 20.1821C19.7519 20.824 18.8816 21.185 17.9738 21.1859ZM7.90984 5.55488C7.34137 5.55539 6.79633 5.78144 6.39436 6.1834C5.9924 6.58537 5.76635 7.13041 5.76584 7.69888V17.7629C5.76635 18.3313 5.9924 18.8764 6.39436 19.2784C6.79633 19.6803 7.34137 19.9064 7.90984 19.9069H17.9738C18.5423 19.9064 19.0873 19.6803 19.4893 19.2784C19.8913 18.8764 20.1173 18.3313 20.1178 17.7629V7.69824C20.1173 7.12977 19.8913 6.58473 19.4893 6.18276C19.0873 5.7808 18.5423 5.55475 17.9738 5.55424L7.90984 5.55488Z" fill="#202020"/>
<path d="M15.5322 12.2211H10.0263C9.49831 12.2205 8.99215 12.0105 8.61882 11.6372C8.2455 11.2639 8.0355 10.7577 8.03491 10.2298V10.1542C8.0355 9.62628 8.2455 9.12012 8.61882 8.74679C8.99215 8.37347 9.49831 8.16347 10.0263 8.16288H15.5322C16.0602 8.16347 16.5663 8.37347 16.9396 8.74679C17.313 9.12012 17.523 9.62628 17.5236 10.1542V10.2298C17.523 10.7577 17.313 11.2639 16.9396 11.6372C16.5663 12.0105 16.0602 12.2205 15.5322 12.2211ZM10.0263 9.44288C9.83766 9.44305 9.65682 9.51805 9.52345 9.65142C9.39008 9.78479 9.31508 9.96563 9.31491 10.1542V10.2298C9.31508 10.4184 9.39008 10.5992 9.52345 10.7326C9.65682 10.8659 9.83766 10.941 10.0263 10.9411H15.5322C15.7208 10.941 15.9016 10.8659 16.035 10.7326C16.1684 10.5992 16.2434 10.4184 16.2436 10.2298V10.1542C16.2434 9.96563 16.1684 9.78479 16.035 9.65142C15.9016 9.51805 15.7208 9.44305 15.5322 9.44288H10.0263Z" fill="#202020"/>
<path d="M8.67481 10.832H5.12633C4.95659 10.832 4.7938 10.7646 4.67378 10.6446C4.55376 10.5245 4.48633 10.3617 4.48633 10.192C4.48633 10.0223 4.55376 9.85948 4.67378 9.73945C4.7938 9.61943 4.95659 9.552 5.12633 9.552H8.67481C8.84455 9.552 9.00733 9.61943 9.12736 9.73945C9.24738 9.85948 9.31481 10.0223 9.31481 10.192C9.31481 10.3617 9.24738 10.5245 9.12736 10.6446C9.00733 10.7646 8.84455 10.832 8.67481 10.832ZM20.4319 10.832H16.8834C16.7137 10.832 16.5509 10.7646 16.4309 10.6446C16.3109 10.5245 16.2434 10.3617 16.2434 10.192C16.2434 10.0223 16.3109 9.85948 16.4309 9.73945C16.5509 9.61943 16.7137 9.552 16.8834 9.552H20.4319C20.6017 9.552 20.7645 9.61943 20.8845 9.73945C21.0045 9.85948 21.0719 10.0223 21.0719 10.192C21.0719 10.3617 21.0045 10.5245 20.8845 10.6446C20.7645 10.7646 20.6017 10.832 20.4319 10.832Z" fill="#202020"/>
</svg>
