<svg width="24" height="24" viewBox="0 0 24 24" fill="none" xmlns="http://www.w3.org/2000/svg">
<path d="M6.27965 20.4557C6.10991 20.4557 5.94712 20.3882 5.8271 20.2682C5.70708 20.1482 5.63965 19.9854 5.63965 19.8157V4.18431C5.63965 4.01457 5.70708 3.85179 5.8271 3.73176C5.94712 3.61174 6.10991 3.54431 6.27965 3.54431C6.44939 3.54431 6.61217 3.61174 6.7322 3.73176C6.85222 3.85179 6.91965 4.01457 6.91965 4.18431V19.8157C6.91965 19.9854 6.85222 20.1482 6.7322 20.2682C6.61217 20.3882 6.44939 20.4557 6.27965 20.4557Z" fill="#202020"/>
<path d="M16.6464 18.7302H6.34531C6.17557 18.7302 6.01278 18.6628 5.89276 18.5428C5.77274 18.4228 5.70531 18.26 5.70531 18.0902C5.70531 17.9205 5.77274 17.7577 5.89276 17.6377C6.01278 17.5177 6.17557 17.4502 6.34531 17.4502H16.6464C16.7615 17.4501 16.8718 17.4043 16.9532 17.3229C17.0345 17.2414 17.0803 17.1311 17.0803 17.016V14.3773C17.0803 14.2622 17.0345 14.1519 16.9532 14.0705C16.8718 13.9892 16.7615 13.9434 16.6464 13.9434H6.27843C6.10869 13.9434 5.9459 13.8759 5.82588 13.7559C5.70586 13.6359 5.63843 13.4731 5.63843 13.3034C5.63843 13.1336 5.70586 12.9708 5.82588 12.8508C5.9459 12.7308 6.10869 12.6634 6.27843 12.6634H16.6464C17.1008 12.6639 17.5365 12.8446 17.8578 13.1659C18.1791 13.4872 18.3598 13.9229 18.3603 14.3773V17.016C18.3599 17.4705 18.1792 17.9062 17.8579 18.2276C17.5366 18.549 17.1009 18.7297 16.6464 18.7302ZM14.2045 11.6416H6.27971C6.10997 11.6416 5.94718 11.5742 5.82716 11.4542C5.70714 11.3341 5.63971 11.1713 5.63971 11.0016C5.63971 10.8319 5.70714 10.6691 5.82716 10.5491C5.94718 10.429 6.10997 10.3616 6.27971 10.3616H14.2045C14.3488 10.3616 14.4872 10.3043 14.5892 10.2023C14.6912 10.1002 14.7485 9.96188 14.7485 9.8176V7.39968C14.7485 7.25541 14.6912 7.11704 14.5892 7.01502C14.4872 6.913 14.3488 6.85568 14.2045 6.85568H6.27971C6.10997 6.85568 5.94718 6.78826 5.82716 6.66823C5.70714 6.54821 5.63971 6.38542 5.63971 6.21568C5.63971 6.04595 5.70714 5.88316 5.82716 5.76314C5.94718 5.64311 6.10997 5.57568 6.27971 5.57568H14.2045C14.688 5.57645 15.1515 5.76886 15.4934 6.11076C15.8353 6.45266 16.0277 6.91616 16.0285 7.39968V9.81696C16.0279 10.3006 15.8356 10.7643 15.4937 11.1063C15.1517 11.4483 14.6881 11.6408 14.2045 11.6416Z" fill="#202020"/>
</svg>
