<svg width="24" height="24" viewBox="0 0 24 24" fill="none" xmlns="http://www.w3.org/2000/svg">
<path d="M18.7413 18.496H5.25843C4.80394 18.4955 4.36821 18.3147 4.04684 17.9933C3.72547 17.672 3.5447 17.2362 3.54419 16.7818V14.144C3.5447 13.6895 3.72547 13.2538 4.04684 12.9324C4.36821 12.611 4.80394 12.4303 5.25843 12.4298H18.7413C19.1958 12.4303 19.6315 12.611 19.9529 12.9324C20.2743 13.2538 20.455 13.6895 20.4555 14.144V16.7824C20.4549 17.2368 20.274 17.6723 19.9527 17.9936C19.6313 18.3148 19.1957 18.4955 18.7413 18.496ZM5.25843 13.7101C5.14337 13.7102 5.03306 13.756 4.95167 13.8373C4.87028 13.9187 4.82444 14.0289 4.82419 14.144V16.7824C4.82453 16.8974 4.87041 17.0076 4.95179 17.0888C5.03317 17.1701 5.14342 17.2158 5.25843 17.216H18.7413C18.8564 17.2158 18.9668 17.17 19.0482 17.0886C19.1296 17.0072 19.1754 16.8969 19.1755 16.7818V14.144C19.1754 14.0289 19.1296 13.9185 19.0482 13.8371C18.9668 13.7557 18.8564 13.7099 18.7413 13.7098L5.25843 13.7101ZM16.2994 11.4083H7.70035C7.21683 11.4076 6.75333 11.2151 6.41143 10.8732C6.06953 10.5313 5.87711 10.0678 5.87635 9.58431V7.16799C5.87711 6.68447 6.06953 6.22097 6.41143 5.87907C6.75333 5.53717 7.21683 5.34476 7.70035 5.34399H16.2994C16.7829 5.34476 17.2464 5.53717 17.5883 5.87907C17.9302 6.22097 18.1226 6.68447 18.1234 7.16799V9.58527C18.1224 10.0686 17.9298 10.5319 17.588 10.8736C17.2461 11.2153 16.7827 11.4076 16.2994 11.4083ZM7.70035 6.62175C7.55607 6.62175 7.4177 6.67907 7.31568 6.78109C7.21366 6.88311 7.15635 7.02148 7.15635 7.16575V9.58303C7.15635 9.72731 7.21366 9.86568 7.31568 9.9677C7.4177 10.0697 7.55607 10.127 7.70035 10.127H16.2994C16.4437 10.127 16.582 10.0697 16.6841 9.9677C16.7861 9.86568 16.8434 9.72731 16.8434 9.58303V7.16799C16.8434 7.02372 16.7861 6.88535 16.6841 6.78333C16.582 6.68131 16.4437 6.62399 16.2994 6.62399L7.70035 6.62175Z" fill="#202020"/>
<path d="M11.9999 20.4557C11.8301 20.4557 11.6673 20.3882 11.5473 20.2682C11.4273 20.1482 11.3599 19.9854 11.3599 19.8157V17.856C11.3599 17.6863 11.4273 17.5235 11.5473 17.4034C11.6673 17.2834 11.8301 17.216 11.9999 17.216C12.1696 17.216 12.3324 17.2834 12.4524 17.4034C12.5724 17.5235 12.6399 17.6863 12.6399 17.856V19.8147C12.64 19.8988 12.6235 19.9822 12.5914 20.0599C12.5593 20.1377 12.5122 20.2083 12.4528 20.2679C12.3933 20.3274 12.3227 20.3746 12.245 20.4069C12.1673 20.4391 12.084 20.4557 11.9999 20.4557ZM11.9999 13.7101C11.8301 13.7101 11.6673 13.6426 11.5473 13.5226C11.4273 13.4026 11.3599 13.2398 11.3599 13.0701V10.9712C11.3599 10.8015 11.4273 10.6387 11.5473 10.5186C11.6673 10.3986 11.8301 10.3312 11.9999 10.3312C12.1696 10.3312 12.3324 10.3986 12.4524 10.5186C12.5724 10.6387 12.6399 10.8015 12.6399 10.9712V13.0701C12.6399 13.2398 12.5724 13.4026 12.4524 13.5226C12.3324 13.6426 12.1696 13.7101 11.9999 13.7101ZM11.9999 6.62175C11.8301 6.62175 11.6673 6.55432 11.5473 6.4343C11.4273 6.31428 11.3599 6.15149 11.3599 5.98175V4.18431C11.3599 4.01457 11.4273 3.85179 11.5473 3.73176C11.6673 3.61174 11.8301 3.54431 11.9999 3.54431C12.1696 3.54431 12.3324 3.61174 12.4524 3.73176C12.5724 3.85179 12.6399 4.01457 12.6399 4.18431V5.98175C12.6399 6.15149 12.5724 6.31428 12.4524 6.4343C12.3324 6.55432 12.1696 6.62175 11.9999 6.62175Z" fill="#202020"/>
</svg>
