<svg width="24" height="24" viewBox="0 0 24 24" fill="none" xmlns="http://www.w3.org/2000/svg">
<path d="M19.8155 6.91965H4.18443C4.01469 6.91965 3.85191 6.85222 3.73189 6.7322C3.61186 6.61217 3.54443 6.44939 3.54443 6.27965C3.54443 6.10991 3.61186 5.94712 3.73189 5.8271C3.85191 5.70708 4.01469 5.63965 4.18443 5.63965H19.8155C19.9852 5.63965 20.148 5.70708 20.268 5.8271C20.388 5.94712 20.4555 6.10991 20.4555 6.27965C20.4555 6.44939 20.388 6.61217 20.268 6.7322C20.148 6.85222 19.9852 6.91965 19.8155 6.91965Z" fill="#202020"/>
<path d="M17.0161 18.3607H14.3774C14.1523 18.3608 13.9294 18.3165 13.7214 18.2303C13.5135 18.1442 13.3245 18.018 13.1653 17.8588C13.0062 17.6997 12.8799 17.5107 12.7938 17.3027C12.7077 17.0948 12.6634 16.8719 12.6634 16.6468V6.27879C12.6634 6.10906 12.7309 5.94627 12.8509 5.82625C12.9709 5.70622 13.1337 5.63879 13.3034 5.63879C13.4732 5.63879 13.636 5.70622 13.756 5.82625C13.876 5.94627 13.9434 6.10906 13.9434 6.27879V16.6468C13.9434 16.7038 13.9546 16.7602 13.9764 16.8129C13.9982 16.8656 14.0301 16.9134 14.0704 16.9537C14.1107 16.994 14.1586 17.026 14.2113 17.0478C14.2639 17.0696 14.3204 17.0808 14.3774 17.0807H17.0161C17.1312 17.0805 17.2415 17.0347 17.3228 16.9533C17.4042 16.8719 17.4499 16.7616 17.45 16.6465V6.34535C17.45 6.17562 17.5174 6.01283 17.6375 5.89281C17.7575 5.77278 17.9203 5.70535 18.09 5.70535C18.2597 5.70535 18.4225 5.77278 18.5425 5.89281C18.6626 6.01283 18.73 6.17562 18.73 6.34535V16.6465C18.7296 17.1009 18.5489 17.5367 18.2276 17.858C17.9062 18.1794 17.4705 18.3602 17.0161 18.3607ZM9.81704 16.0292H7.39944C6.91592 16.0284 6.45242 15.836 6.11052 15.4941C5.76862 15.1522 5.5762 14.6887 5.57544 14.2052V6.27943C5.57544 6.1097 5.64287 5.94691 5.76289 5.82689C5.88291 5.70686 6.0457 5.63943 6.21544 5.63943C6.38518 5.63943 6.54796 5.70686 6.66799 5.82689C6.78801 5.94691 6.85544 6.1097 6.85544 6.27943V14.2046C6.85544 14.3488 6.91275 14.4872 7.01477 14.5892C7.11679 14.6912 7.25516 14.7486 7.39944 14.7486H9.81704C9.96132 14.7486 10.0997 14.6912 10.2017 14.5892C10.3037 14.4872 10.361 14.3488 10.361 14.2046V6.27975C10.361 6.11002 10.4285 5.94723 10.5485 5.82721C10.6685 5.70718 10.8313 5.63975 11.001 5.63975C11.1708 5.63975 11.3336 5.70718 11.4536 5.82721C11.5736 5.94723 11.641 6.11002 11.641 6.27975V14.2046C11.6404 14.6882 11.4481 15.1518 11.1062 15.4939C10.7643 15.8359 10.3007 16.0284 9.81704 16.0292Z" fill="#202020"/>
</svg>
