<svg width="24" height="24" viewBox="0 0 24 24" fill="none" xmlns="http://www.w3.org/2000/svg">
<path d="M16.8358 19.8832C16.5197 19.883 16.2114 19.7846 15.9536 19.6016L12.1456 16.9079C12.1035 16.878 12.0532 16.862 12.0016 16.862C11.95 16.862 11.8997 16.878 11.8576 16.9079L8.04956 19.6016C7.82069 19.7636 7.55171 19.8594 7.27203 19.8788C6.99234 19.8982 6.71271 19.8403 6.46371 19.7115C6.2147 19.5827 6.00589 19.3879 5.8601 19.1484C5.71432 18.9089 5.63717 18.634 5.63708 18.3536V6.87365C5.63793 6.14259 5.92872 5.44172 6.44566 4.92478C6.96259 4.40784 7.66347 4.11706 8.39452 4.11621H15.6086C16.3397 4.11706 17.0405 4.40784 17.5575 4.92478C18.0744 5.44172 18.3652 6.14259 18.366 6.87365V18.353C18.3656 18.7587 18.2043 19.1477 17.9174 19.4346C17.6305 19.7215 17.2415 19.8828 16.8358 19.8832ZM16.6928 18.5565C16.7301 18.5829 16.7739 18.5986 16.8195 18.6017C16.8651 18.6049 16.9107 18.5954 16.9513 18.5744C16.9919 18.5534 17.026 18.5217 17.0497 18.4826C17.0735 18.4436 17.0861 18.3987 17.086 18.353V6.87365C17.0856 6.48194 16.9298 6.10639 16.6528 5.82941C16.3759 5.55243 16.0003 5.39663 15.6086 5.39621H8.39132C7.99961 5.39663 7.62407 5.55243 7.34708 5.82941C7.0701 6.10639 6.91431 6.48194 6.91388 6.87365V18.353C6.91388 18.3987 6.92644 18.4436 6.9502 18.4826C6.97396 18.5217 7.008 18.5534 7.0486 18.5744C7.08919 18.5954 7.13479 18.6049 7.18039 18.6017C7.22599 18.5986 7.26985 18.5829 7.30716 18.5565L11.1171 15.8628C11.3754 15.6805 11.6838 15.5827 12 15.5827C12.3161 15.5827 12.6245 15.6805 12.8828 15.8628L16.6928 18.5565Z" fill="#202020"/>
<path d="M11.968 10.7841C11.8805 10.7841 11.7939 10.7661 11.7136 10.7313L8.74046 9.4439C8.66326 9.41058 8.59338 9.36237 8.53482 9.30204C8.47625 9.24172 8.43014 9.17044 8.39911 9.09229C8.36809 9.01414 8.35277 8.93065 8.35401 8.84657C8.35526 8.7625 8.37305 8.6795 8.40638 8.6023C8.4397 8.52511 8.4879 8.45523 8.54823 8.39666C8.60856 8.33809 8.67984 8.29198 8.75799 8.26096C8.83614 8.22994 8.91963 8.21461 9.0037 8.21586C9.08778 8.2171 9.17078 8.2349 9.24798 8.26822L11.9769 9.44998L14.9571 8.26118C15.0354 8.22882 15.1193 8.21233 15.204 8.21265C15.2887 8.21298 15.3725 8.23012 15.4506 8.26308C15.5286 8.29604 15.5993 8.34416 15.6586 8.40466C15.7179 8.46516 15.7646 8.53683 15.796 8.61551C15.8274 8.69419 15.8429 8.77832 15.8415 8.86302C15.8401 8.94773 15.8219 9.03131 15.788 9.10894C15.7541 9.18656 15.7051 9.25668 15.6439 9.31522C15.5826 9.37376 15.5104 9.41957 15.4313 9.44998L12.2054 10.7377C12.1299 10.7681 12.0494 10.7838 11.968 10.7841Z" fill="#202020"/>
</svg>
