<svg width="24" height="24" viewBox="0 0 24 24" fill="none" xmlns="http://www.w3.org/2000/svg">
<path d="M16.8359 19.8832C16.5197 19.883 16.2114 19.7846 15.9536 19.6016L12.1456 16.9079C12.1035 16.878 12.0532 16.862 12.0016 16.862C11.95 16.862 11.8997 16.878 11.8576 16.9079L8.04963 19.6016C7.82075 19.7636 7.55177 19.8594 7.27209 19.8788C6.9924 19.8982 6.71278 19.8403 6.46377 19.7115C6.21476 19.5827 6.00595 19.3879 5.86017 19.1484C5.71438 18.9089 5.63723 18.634 5.63715 18.3536V6.87365C5.63799 6.14259 5.92878 5.44172 6.44572 4.92478C6.96265 4.40784 7.66353 4.11706 8.39459 4.11621H15.6087C16.3397 4.11706 17.0406 4.40784 17.5575 4.92478C18.0745 5.44172 18.3653 6.14259 18.3661 6.87365V18.353C18.3657 18.7587 18.2043 19.1477 17.9174 19.4346C17.6306 19.7215 17.2416 19.8828 16.8359 19.8832ZM16.6928 18.5565C16.7301 18.5829 16.774 18.5986 16.8196 18.6017C16.8652 18.6049 16.9108 18.5954 16.9514 18.5744C16.992 18.5534 17.026 18.5217 17.0498 18.4826C17.0735 18.4436 17.0861 18.3987 17.0861 18.353V6.87365C17.0857 6.48194 16.9299 6.10639 16.6529 5.82941C16.3759 5.55243 16.0004 5.39663 15.6087 5.39621H8.39139C7.99967 5.39663 7.62413 5.55243 7.34715 5.82941C7.07016 6.10639 6.91437 6.48194 6.91395 6.87365V18.353C6.91394 18.3987 6.9265 18.4436 6.95026 18.4826C6.97402 18.5217 7.00806 18.5534 7.04866 18.5744C7.08926 18.5954 7.13485 18.6049 7.18045 18.6017C7.22606 18.5986 7.26991 18.5829 7.30723 18.5565L11.1171 15.8628C11.3755 15.6805 11.6839 15.5827 12 15.5827C12.3162 15.5827 12.6246 15.6805 12.8829 15.8628L16.6928 18.5565Z" fill="#202020"/>
<path d="M4.99426 21.4381C4.87421 21.4381 4.75658 21.4043 4.65482 21.3407C4.55305 21.277 4.47124 21.186 4.41874 21.078C4.36625 20.97 4.34517 20.8495 4.35793 20.7301C4.37069 20.6107 4.41677 20.4974 4.4909 20.4029L17.6471 3.63493C17.7522 3.50238 17.9055 3.41684 18.0735 3.397C18.2415 3.37716 18.4105 3.42464 18.5436 3.52905C18.6767 3.63347 18.763 3.78633 18.7837 3.95423C18.8044 4.12212 18.7578 4.29138 18.6541 4.42501L5.49794 21.193C5.43816 21.2695 5.36172 21.3313 5.27444 21.3738C5.18716 21.4163 5.09133 21.4383 4.99426 21.4381Z" fill="#202020"/>
</svg>
