<svg width="24" height="24" viewBox="0 0 24 24" fill="none" xmlns="http://www.w3.org/2000/svg">
<path d="M15.0298 19.9527H6.46143C5.67934 19.9518 4.92951 19.6408 4.37646 19.0878C3.8234 18.5348 3.51228 17.785 3.51135 17.0029V8.43426C3.51228 7.65216 3.8234 6.90237 4.37646 6.34938C4.92951 5.79638 5.67934 5.48534 6.46143 5.4845H15.0298C15.8118 5.48534 16.5617 5.79638 17.1147 6.34938C17.6678 6.90237 17.9789 7.65216 17.9798 8.43426V17.0029C17.9789 17.785 17.6678 18.5348 17.1147 19.0878C16.5617 19.6408 15.8118 19.9518 15.0298 19.9527ZM6.46143 6.7645C6.01868 6.76492 5.59419 6.94097 5.28109 7.25401C4.96799 7.56705 4.79186 7.99151 4.79135 8.43426V17.0029C4.79186 17.4456 4.96799 17.8701 5.28109 18.1831C5.59419 18.4962 6.01868 18.6722 6.46143 18.6727H15.0298C15.4725 18.6722 15.897 18.4962 16.2101 18.1831C16.5232 17.8701 16.6993 17.4456 16.6998 17.0029V8.43426C16.6993 7.99151 16.5232 7.56705 16.2101 7.25401C15.897 6.94097 15.4725 6.76492 15.0298 6.7645H6.46143Z" fill="#202020"/>
<path d="M14.8566 16.0067H6.63457C6.53909 16.0067 6.44483 15.9854 6.35868 15.9442C6.27253 15.903 6.19669 15.8431 6.1367 15.7688C6.07672 15.6945 6.03412 15.6078 6.01201 15.5149C5.98991 15.422 5.98887 15.3254 6.00897 15.232L7.45601 8.56739C7.48713 8.42496 7.56595 8.29743 7.67943 8.20589C7.7929 8.11436 7.93422 8.06431 8.08001 8.06403H13.568C13.7167 8.06401 13.8608 8.11577 13.9755 8.21043C14.0902 8.30509 14.1683 8.43673 14.1965 8.58275L15.4842 15.2461C15.5021 15.3388 15.4993 15.4342 15.476 15.5257C15.4527 15.6171 15.4095 15.7023 15.3495 15.7751C15.2894 15.8478 15.214 15.9064 15.1286 15.9467C15.0433 15.9869 14.9501 16.0077 14.8557 16.0077L14.8566 16.0067ZM7.42817 14.7267H14.08L13.041 9.34403H8.59617L7.42817 14.7267Z" fill="#202020"/>
<path d="M10.9709 17.7459H10.8925C9.63201 17.7459 8.60801 16.6784 8.60801 15.3667C8.60801 15.197 8.67544 15.0342 8.79546 14.9142C8.91548 14.7942 9.07827 14.7267 9.24801 14.7267C9.41775 14.7267 9.58053 14.7942 9.70056 14.9142C9.82058 15.0342 9.88801 15.197 9.88801 15.3667C9.88801 15.9728 10.3382 16.4659 10.8915 16.4659H10.9699C11.5235 16.4659 11.9738 15.9728 11.9738 15.3667C11.9738 15.197 12.0412 15.0342 12.1612 14.9142C12.2812 14.7942 12.444 14.7267 12.6138 14.7267C12.7835 14.7267 12.9463 14.7942 13.0663 14.9142C13.1863 15.0342 13.2538 15.197 13.2538 15.3667C13.2547 16.6784 12.2301 17.7459 10.9709 17.7459ZM14.4563 13.839H7.08385C6.91411 13.839 6.75132 13.7716 6.6313 13.6516C6.51128 13.5316 6.44385 13.3688 6.44385 13.199C6.44385 13.0293 6.51128 12.8665 6.6313 12.7465C6.75132 12.6265 6.91411 12.559 7.08385 12.559H14.4563C14.6261 12.559 14.7889 12.6265 14.9089 12.7465C15.0289 12.8665 15.0963 13.0293 15.0963 13.199C15.0963 13.3688 15.0289 13.5316 14.9089 13.6516C14.7889 13.7716 14.6261 13.839 14.4563 13.839ZM13.9856 11.5869H7.62273C7.45299 11.5869 7.2902 11.5195 7.17018 11.3994C7.05016 11.2794 6.98273 11.1166 6.98273 10.9469C6.98273 10.7771 7.05016 10.6144 7.17018 10.4943C7.2902 10.3743 7.45299 10.3069 7.62273 10.3069H13.9856C14.1553 10.3069 14.3181 10.3743 14.4382 10.4943C14.5582 10.6144 14.6256 10.7771 14.6256 10.9469C14.6256 11.1166 14.5582 11.2794 14.4382 11.3994C14.3181 11.5195 14.1553 11.5869 13.9856 11.5869Z" fill="#202020"/>
</svg>
