<svg width="24" height="24" viewBox="0 0 24 24" fill="none" xmlns="http://www.w3.org/2000/svg">
<path d="M6.75 21H17.25C18.2446 21 19.1984 20.6049 19.9016 19.9016C20.6049 19.1984 21 18.2446 21 17.25V6.75C20.9996 6.6728 20.9843 6.59641 20.955 6.525C20.956 6.50751 20.956 6.48999 20.955 6.4725L20.25 5.07C19.9383 4.4479 19.4596 3.9248 18.8675 3.55923C18.2754 3.19365 17.5933 3.00002 16.8975 3H7.1025C6.40666 3.00002 5.72455 3.19365 5.13248 3.55923C4.54041 3.9248 4.06174 4.4479 3.75 5.07L3.0825 6.4125C3.08154 6.42999 3.08154 6.44751 3.0825 6.465C3.03157 6.5516 3.00321 6.64959 3 6.75V17.25C3 18.2446 3.39509 19.1984 4.09835 19.9016C4.80161 20.6049 5.75544 21 6.75 21ZM19.5 17.25C19.5 17.8467 19.2629 18.419 18.841 18.841C18.419 19.2629 17.8467 19.5 17.25 19.5H6.75C6.15326 19.5 5.58097 19.2629 5.15901 18.841C4.73705 18.419 4.5 17.8467 4.5 17.25V7.5H19.5V17.25ZM5.0925 5.745C5.27901 5.37141 5.5658 5.05708 5.92079 4.83721C6.27577 4.61733 6.68494 4.50057 7.1025 4.5H16.8975C17.3151 4.50057 17.7242 4.61733 18.0792 4.83721C18.4342 5.05708 18.721 5.37141 18.9075 5.745L19.035 6H4.965L5.0925 5.745Z" fill="#202020"/>
<path d="M10.41 17.34C10.8316 17.7621 11.4035 17.9995 12 18C12.594 17.9975 13.1628 17.7602 13.5825 17.34L15.75 15.2175C15.8729 15.074 15.9371 14.8895 15.9298 14.7007C15.9225 14.512 15.8443 14.3329 15.7107 14.1993C15.5771 14.0658 15.3981 13.9875 15.2093 13.9802C15.0206 13.9729 14.836 14.0371 14.6925 14.16L12.75 16.0575V9.75C12.75 9.55109 12.671 9.36032 12.5304 9.21967C12.3897 9.07902 12.1989 9 12 9C11.8011 9 11.6103 9.07902 11.4697 9.21967C11.329 9.36032 11.25 9.55109 11.25 9.75V16.0575L9.34502 14.16C9.20154 14.0371 9.01699 13.9729 8.82823 13.9802C8.63947 13.9875 8.46042 14.0658 8.32685 14.1993C8.19328 14.3329 8.11503 14.512 8.10774 14.7007C8.10045 14.8895 8.16465 15.074 8.28752 15.2175L10.41 17.34Z" fill="#202020"/>
</svg>
