<svg width="24" height="24" viewBox="0 0 24 24" fill="none" xmlns="http://www.w3.org/2000/svg">
<path d="M17.032 20.4556H6.96801C6.06022 20.4546 5.1899 20.0935 4.548 19.4516C3.90609 18.8097 3.54502 17.9394 3.54401 17.0316V6.96795C3.54502 6.06016 3.90609 5.18984 4.548 4.54793C5.1899 3.90603 6.06022 3.54496 6.96801 3.54395H17.032C17.9398 3.54496 18.8101 3.90603 19.452 4.54793C20.0939 5.18984 20.455 6.06016 20.456 6.96795V17.0319C20.4549 17.9397 20.0938 18.8099 19.4519 19.4517C18.81 20.0936 17.9397 20.4546 17.032 20.4556ZM6.96801 4.82427C6.39954 4.82477 5.8545 5.05082 5.45253 5.45279C5.05056 5.85476 4.82451 6.3998 4.82401 6.96826V17.0323C4.82451 17.6007 5.05056 18.1458 5.45253 18.5477C5.8545 18.9497 6.39954 19.1758 6.96801 19.1763H17.032C17.6005 19.1758 18.1455 18.9497 18.5475 18.5477C18.9494 18.1458 19.1755 17.6007 19.176 17.0323V6.96795C19.1755 6.39948 18.9494 5.85444 18.5475 5.45247C18.1455 5.0505 17.6005 4.82445 17.032 4.82395L6.96801 4.82427Z" fill="#202020"/>
<path d="M14.6429 12.0557C14.5244 12.0554 14.4083 12.0222 14.3075 11.9597L12 10.5408L9.6925 11.9607C9.59561 12.0203 9.48457 12.053 9.37083 12.0554C9.25709 12.0579 9.14475 12.0299 9.0454 11.9745C8.94604 11.9191 8.86325 11.8382 8.80555 11.7402C8.74786 11.6421 8.71734 11.5304 8.71714 11.4167V4.18468C8.71714 4.01494 8.78457 3.85215 8.90459 3.73213C9.02462 3.61211 9.1874 3.54468 9.35714 3.54468H14.6429C14.8126 3.54468 14.9754 3.61211 15.0955 3.73213C15.2155 3.85215 15.2829 4.01494 15.2829 4.18468V11.4167C15.2829 11.5864 15.2155 11.7492 15.0955 11.8692C14.9754 11.9892 14.8126 12.0567 14.6429 12.0567V12.0557ZM12 9.14916C12.1185 9.14949 12.2346 9.18272 12.3354 9.24516L14.0029 10.2711V4.82436H9.99714V10.2701L11.6647 9.2442C11.7655 9.1821 11.8816 9.1492 12 9.14916ZM12.5469 14.5799H7.48802C7.31828 14.5799 7.1555 14.5124 7.03547 14.3924C6.91545 14.2724 6.84802 14.1096 6.84802 13.9399C6.84802 13.7701 6.91545 13.6074 7.03547 13.4873C7.1555 13.3673 7.31828 13.2999 7.48802 13.2999H12.5469C12.7166 13.2999 12.8794 13.3673 12.9995 13.4873C13.1195 13.6074 13.1869 13.7701 13.1869 13.9399C13.1869 14.1096 13.1195 14.2724 12.9995 14.3924C12.8794 14.5124 12.7166 14.5799 12.5469 14.5799ZM14.2637 17.584H7.48802C7.31828 17.584 7.1555 17.5166 7.03547 17.3966C6.91545 17.2766 6.84802 17.1138 6.84802 16.944C6.84802 16.7743 6.91545 16.6115 7.03547 16.4915C7.1555 16.3715 7.31828 16.304 7.48802 16.304H14.2637C14.4334 16.304 14.5962 16.3715 14.7163 16.4915C14.8363 16.6115 14.9037 16.7743 14.9037 16.944C14.9037 17.1138 14.8363 17.2766 14.7163 17.3966C14.5962 17.5166 14.4334 17.584 14.2637 17.584Z" fill="#202020"/>
</svg>
