<svg width="24" height="24" viewBox="0 0 24 24" fill="none" xmlns="http://www.w3.org/2000/svg">
<path d="M17.3847 19.8832C17.0685 19.8831 16.7602 19.7847 16.5024 19.6016L12.6928 16.9079C12.6507 16.878 12.6004 16.862 12.5488 16.862C12.4972 16.862 12.4469 16.878 12.4048 16.9079L8.5949 19.6016C8.36603 19.7635 8.09708 19.8593 7.81744 19.8786C7.53781 19.8979 7.25824 19.84 7.00929 19.7112C6.76033 19.5824 6.55156 19.3877 6.4058 19.1482C6.26003 18.9088 6.18287 18.634 6.18274 18.3536V6.87365C6.18359 6.14259 6.47437 5.44172 6.99131 4.92478C7.50825 4.40784 8.20912 4.11706 8.94018 4.11621H16.1575C16.8885 4.11706 17.5894 4.40784 18.1063 4.92478C18.6233 5.44172 18.9141 6.14259 18.9149 6.87365V18.353C18.9145 18.7587 18.7531 19.1477 18.4662 19.4346C18.1793 19.7215 17.7904 19.8828 17.3847 19.8832ZM17.2413 18.5565C17.2786 18.5829 17.3225 18.5985 17.3681 18.6017C17.4137 18.6048 17.4593 18.5954 17.4999 18.5744C17.5406 18.5534 17.5746 18.5216 17.5984 18.4826C17.6222 18.4436 17.6348 18.3987 17.6349 18.353V6.87365C17.6345 6.48194 17.4787 6.10639 17.2017 5.82941C16.9247 5.55243 16.5492 5.39663 16.1575 5.39621H8.94018C8.54847 5.39663 8.17292 5.55243 7.89594 5.82941C7.61896 6.10639 7.46316 6.48194 7.46274 6.87365V18.353C7.46273 18.3987 7.47529 18.4436 7.49905 18.4826C7.52281 18.5217 7.55685 18.5534 7.59745 18.5744C7.63805 18.5954 7.68364 18.6049 7.72925 18.6017C7.77485 18.5986 7.8187 18.5829 7.85602 18.5565L11.6656 15.8628C11.924 15.6805 12.2325 15.5827 12.5487 15.5827C12.8649 15.5827 13.1733 15.6805 13.4317 15.8628L17.2413 18.5565Z" fill="#202020"/>
<path d="M14.3331 10.6023H10.7641C10.5944 10.6023 10.4316 10.5348 10.3116 10.4148C10.1916 10.2948 10.1241 10.132 10.1241 9.96227C10.1241 9.79253 10.1916 9.62974 10.3116 9.50972C10.4316 9.38969 10.5944 9.32227 10.7641 9.32227H14.3331C14.5028 9.32227 14.6656 9.38969 14.7857 9.50972C14.9057 9.62974 14.9731 9.79253 14.9731 9.96227C14.9731 10.132 14.9057 10.2948 14.7857 10.4148C14.6656 10.5348 14.5028 10.6023 14.3331 10.6023Z" fill="#202020"/>
</svg>
