<svg width="24" height="24" viewBox="0 0 24 24" fill="none" xmlns="http://www.w3.org/2000/svg">
<path d="M16.8359 19.8832C16.5197 19.883 16.2114 19.7846 15.9536 19.6016L12.1456 16.9079C12.1035 16.878 12.0532 16.862 12.0016 16.862C11.95 16.862 11.8997 16.878 11.8576 16.9079L8.04963 19.6016C7.82075 19.7636 7.55177 19.8594 7.27209 19.8788C6.9924 19.8982 6.71278 19.8403 6.46377 19.7115C6.21476 19.5827 6.00595 19.3879 5.86017 19.1484C5.71438 18.9089 5.63723 18.634 5.63715 18.3536V6.87365C5.63799 6.14259 5.92878 5.44172 6.44572 4.92478C6.96265 4.40784 7.66353 4.11706 8.39459 4.11621H15.6087C16.3397 4.11706 17.0406 4.40784 17.5575 4.92478C18.0745 5.44172 18.3653 6.14259 18.3661 6.87365V18.353C18.3657 18.7587 18.2043 19.1477 17.9174 19.4346C17.6306 19.7215 17.2416 19.8828 16.8359 19.8832ZM16.6928 18.5565C16.7301 18.5829 16.774 18.5986 16.8196 18.6017C16.8652 18.6049 16.9108 18.5954 16.9514 18.5744C16.992 18.5534 17.026 18.5217 17.0498 18.4826C17.0735 18.4436 17.0861 18.3987 17.0861 18.353V6.87365C17.0857 6.48194 16.9299 6.10639 16.6529 5.82941C16.3759 5.55243 16.0004 5.39663 15.6087 5.39621H8.39139C7.99967 5.39663 7.62413 5.55243 7.34715 5.82941C7.07016 6.10639 6.91437 6.48194 6.91395 6.87365V18.353C6.91394 18.3987 6.9265 18.4436 6.95026 18.4826C6.97402 18.5217 7.00806 18.5534 7.04866 18.5744C7.08926 18.5954 7.13485 18.6049 7.18045 18.6017C7.22606 18.5986 7.26991 18.5829 7.30723 18.5565L11.1171 15.8628C11.3755 15.6805 11.6839 15.5827 12 15.5827C12.3162 15.5827 12.6246 15.6805 12.8829 15.8628L16.6928 18.5565Z" fill="#202020"/>
<path d="M12 12.3869C11.916 12.3869 11.8327 12.3704 11.7551 12.3382C11.6775 12.306 11.6069 12.2589 11.5475 12.1995C11.488 12.14 11.4409 12.0695 11.4087 11.9918C11.3766 11.9142 11.36 11.831 11.36 11.7469V8.17796C11.36 8.00823 11.4274 7.84544 11.5475 7.72542C11.6675 7.60539 11.8303 7.53796 12 7.53796C12.1698 7.53796 12.3325 7.60539 12.4526 7.72542C12.5726 7.84544 12.64 8.00823 12.64 8.17796V11.7469C12.64 11.831 12.6235 11.9142 12.5913 11.9918C12.5591 12.0695 12.512 12.14 12.4526 12.1995C12.3931 12.2589 12.3226 12.306 12.2449 12.3382C12.1673 12.3704 12.0841 12.3869 12 12.3869Z" fill="#202020"/>
<path d="M13.7843 10.6023H10.2157C10.0459 10.6023 9.88316 10.5348 9.76314 10.4148C9.64311 10.2948 9.57568 10.132 9.57568 9.96227C9.57568 9.79253 9.64311 9.62974 9.76314 9.50972C9.88316 9.38969 10.0459 9.32227 10.2157 9.32227H13.7843C13.9541 9.32227 14.1168 9.38969 14.2369 9.50972C14.3569 9.62974 14.4243 9.79253 14.4243 9.96227C14.4243 10.132 14.3569 10.2948 14.2369 10.4148C14.1168 10.5348 13.9541 10.6023 13.7843 10.6023Z" fill="#202020"/>
</svg>
