<svg width="24" height="24" viewBox="0 0 24 24" fill="none" xmlns="http://www.w3.org/2000/svg">
<path d="M12.9685 12.0959H12.9529C12.8028 12.0923 12.6587 12.036 12.546 11.9369C12.4332 11.8378 12.3588 11.7022 12.3359 11.5539C12.0572 9.74842 9.76245 9.27642 9.73941 9.27194C9.57286 9.23918 9.42614 9.1416 9.33153 9.00066C9.23692 8.85973 9.20218 8.68698 9.23494 8.52042C9.26769 8.35387 9.36528 8.20714 9.50621 8.11254C9.64715 8.01793 9.8199 7.98318 9.98645 8.01594C10.553 8.14424 11.0975 8.3557 11.6021 8.64346C12.1845 8.97658 12.6501 9.3865 12.9887 9.85946C13.6514 8.8633 14.6287 8.22522 15.8156 8.01402C15.9818 7.98647 16.1521 8.02554 16.2897 8.12277C16.4272 8.22 16.5209 8.36754 16.5504 8.53339C16.5799 8.69925 16.5428 8.87003 16.4471 9.00871C16.3515 9.14739 16.2051 9.24278 16.0396 9.27418C14.0169 9.63418 13.5986 11.5654 13.5948 11.5849C13.5651 11.7291 13.4866 11.8587 13.3725 11.9518C13.2585 12.0449 13.1158 12.0958 12.9685 12.0959Z" fill="#202020"/>
<path d="M15.6939 10.784C15.5839 10.7839 15.4758 10.7555 15.38 10.7014C15.2842 10.6474 15.2039 10.5695 15.147 10.4754C15.09 10.3813 15.0583 10.2741 15.0548 10.1642C15.0514 10.0542 15.0763 9.94522 15.1272 9.84771L15.6971 8.75619L14.5032 8.23971C14.3474 8.17228 14.2248 8.04573 14.1624 7.8879C14.0999 7.73007 14.1027 7.55389 14.1701 7.39811C14.2375 7.24234 14.3641 7.11972 14.5219 7.05725C14.6797 6.99478 14.8559 6.99756 15.0117 7.06499L16.8357 7.85507C16.9166 7.88973 16.9894 7.94069 17.0497 8.00476C17.11 8.06884 17.1564 8.14465 17.1861 8.22747C17.2157 8.31029 17.228 8.39834 17.2221 8.48612C17.2162 8.57389 17.1923 8.65951 17.1519 8.73763L16.2632 10.4394C16.2091 10.5435 16.1273 10.6307 16.0269 10.6915C15.9265 10.7523 15.8113 10.7843 15.6939 10.784ZM9.97939 10.784C9.86239 10.7841 9.74761 10.7521 9.64752 10.6915C9.54744 10.6309 9.46588 10.5441 9.41171 10.4404L8.52307 8.73859C8.48237 8.66061 8.45818 8.57507 8.45201 8.48732C8.44585 8.39957 8.45784 8.31149 8.48724 8.22859C8.51663 8.14568 8.56281 8.06972 8.62287 8.00545C8.68294 7.94119 8.75561 7.89 8.83635 7.85507L10.6619 7.06499C10.8177 6.99756 10.9939 6.99478 11.1517 7.05725C11.3096 7.11972 11.4361 7.24234 11.5035 7.39811C11.571 7.55389 11.5738 7.73007 11.5113 7.8879C11.4488 8.04573 11.3262 8.17228 11.1704 8.23971L9.97651 8.75523L10.5464 9.84675C10.5976 9.94431 10.6227 10.0534 10.6194 10.1636C10.616 10.2737 10.5843 10.3811 10.5272 10.4753C10.4702 10.5696 10.3898 10.6475 10.2938 10.7016C10.1979 10.7557 10.0896 10.7841 9.97939 10.784ZM12.9682 17.1229C12.7984 17.1229 12.6357 17.0555 12.5156 16.9355C12.3956 16.8154 12.3282 16.6527 12.3282 16.4829V11.456C12.3282 11.2863 12.3956 11.1235 12.5156 11.0035C12.6357 10.8835 12.7984 10.816 12.9682 10.816C13.1379 10.816 13.3007 10.8835 13.4207 11.0035C13.5408 11.1235 13.6082 11.2863 13.6082 11.456V16.4829C13.6082 16.6527 13.5408 16.8154 13.4207 16.9355C13.3007 17.0555 13.1379 17.1229 12.9682 17.1229Z" fill="#202020"/>
</svg>
