<svg width="24" height="24" viewBox="0 0 24 24" fill="none" xmlns="http://www.w3.org/2000/svg">
<path d="M17.0319 20.9347H6.96795C6.06016 20.9337 5.18984 20.5726 4.54793 19.9307C3.90603 19.2888 3.54496 18.4185 3.54395 17.5107V7.44701C3.54488 6.5392 3.90592 5.66883 4.54784 5.02691C5.18976 4.38498 6.06013 4.02394 6.96795 4.02301H17.0319C17.9398 4.02394 18.8101 4.38498 19.452 5.02691C20.094 5.66883 20.455 6.5392 20.4559 7.44701V17.511C20.4548 18.4187 20.0937 19.289 19.4518 19.9308C18.8099 20.5727 17.9397 20.9337 17.0319 20.9347ZM6.96795 5.30365C6.39948 5.30416 5.85444 5.53021 5.45247 5.93217C5.0505 6.33414 4.82445 6.87918 4.82395 7.44765V17.5117C4.82445 18.0801 5.0505 18.6252 5.45247 19.0271C5.85444 19.4291 6.39948 19.6551 6.96795 19.6557H17.0319C17.6004 19.6551 18.1455 19.4291 18.5474 19.0271C18.9494 18.6252 19.1754 18.0801 19.1759 17.5117V7.44701C19.1754 6.87854 18.9494 6.3335 18.5474 5.93153C18.1455 5.52957 17.6004 5.30352 17.0319 5.30301L6.96795 5.30365Z" fill="#202020"/>
<path d="M9.42177 16.7546C9.30676 16.7545 9.1939 16.7234 9.09505 16.6646L8.58689 16.3619C7.97458 15.9965 7.53222 15.4031 7.35686 14.712C7.18151 14.0208 7.28748 13.2883 7.65153 12.6752L9.79969 9.06624C10.305 8.21717 11.127 7.60362 12.0847 7.36057C13.0424 7.11752 14.0575 7.26489 14.9066 7.77024C15.7556 8.2756 16.3692 9.09754 16.6122 10.0553C16.8553 11.013 16.7079 12.028 16.2026 12.8771L14.6042 15.5629C14.4594 15.806 14.2682 16.0183 14.0414 16.1876C13.8146 16.3568 13.5567 16.4798 13.2824 16.5494C13.0081 16.619 12.7228 16.6339 12.4428 16.5932C12.1627 16.5525 11.8934 16.4571 11.6503 16.3123C11.4071 16.1676 11.1948 15.9763 11.0255 15.7496C10.8563 15.5228 10.7333 15.2649 10.6638 14.9906C10.5232 14.4366 10.6085 13.8495 10.9008 13.3584L12.1747 11.2179C12.2171 11.1446 12.2737 11.0805 12.3411 11.0292C12.4085 10.9779 12.4853 10.9405 12.5673 10.9192C12.6492 10.8978 12.7346 10.8929 12.8184 10.9048C12.9023 10.9167 12.9829 10.9451 13.0557 10.9884C13.1285 11.0316 13.192 11.0889 13.2425 11.1569C13.293 11.2249 13.3295 11.3022 13.3498 11.3844C13.3702 11.4666 13.3741 11.552 13.3612 11.6357C13.3484 11.7194 13.319 11.7997 13.2749 11.872L12 14.0131C11.8812 14.2126 11.8465 14.451 11.9035 14.6761C11.9605 14.9011 12.1046 15.0943 12.304 15.2131C12.5035 15.3319 12.7419 15.3667 12.967 15.3096C13.192 15.2526 13.3852 15.1086 13.504 14.9091L15.104 12.224C15.4301 11.6669 15.5228 11.0034 15.3617 10.3782C15.2006 9.7531 14.7989 9.21698 14.2442 8.8868C13.6895 8.55662 13.0267 8.45916 12.4004 8.61566C11.7741 8.77216 11.235 9.16993 10.9008 9.72224L8.75137 13.3299C8.56061 13.6513 8.50509 14.0351 8.597 14.3974C8.6889 14.7596 8.92072 15.0706 9.24161 15.2621L9.74977 15.5645C9.87032 15.6362 9.96398 15.7455 10.0164 15.8756C10.0687 16.0057 10.0769 16.1494 10.0396 16.2846C10.0024 16.4198 9.92173 16.5391 9.81009 16.624C9.69846 16.7089 9.56203 16.7548 9.42177 16.7546Z" fill="#202020"/>
</svg>
