<svg width="24" height="24" viewBox="0 0 24 24" fill="none" xmlns="http://www.w3.org/2000/svg">
<path d="M8.07002 15.93C7.99972 15.9997 7.94392 16.0827 7.90585 16.1741C7.86777 16.2655 7.84817 16.3635 7.84817 16.4625C7.84817 16.5615 7.86777 16.6595 7.90585 16.7509C7.94392 16.8423 7.99972 16.9253 8.07002 16.995C8.21054 17.1347 8.40063 17.2131 8.59877 17.2131C8.79691 17.2131 8.98699 17.1347 9.12752 16.995L15.495 10.6275C15.9167 10.2048 16.1532 9.63192 16.1525 9.03485C16.1518 8.43778 15.914 7.86544 15.4913 7.44375C15.0686 7.02206 14.4957 6.78555 13.8986 6.78625C13.3015 6.78695 12.7292 7.02481 12.3075 7.4475L5.94752 13.8075C5.24337 14.5107 4.84738 15.4647 4.84668 16.4598C4.84598 17.455 5.24061 18.4096 5.94377 19.1138C6.64692 19.8179 7.601 20.2139 8.59611 20.2146C9.59123 20.2153 10.5459 19.8207 11.25 19.1175L17.6175 12.75C18.6021 11.7654 19.1553 10.43 19.1553 9.0375C19.1553 7.64504 18.6021 6.30962 17.6175 5.325C16.6329 4.34038 15.2975 3.78723 13.905 3.78723C12.5126 3.78723 11.1771 4.34038 10.1925 5.325L6.48002 9.075C6.35715 9.21848 6.29294 9.40303 6.30023 9.59179C6.30752 9.78055 6.38577 9.9596 6.51934 10.0932C6.65291 10.2267 6.83197 10.305 7.02073 10.3123C7.20948 10.3196 7.39404 10.2554 7.53752 10.1325L11.25 6.3825C11.9542 5.67934 12.9088 5.28471 13.9039 5.28541C14.899 5.28612 15.8531 5.6821 16.5563 6.38625C17.2594 7.0904 17.6541 8.04504 17.6534 9.04015C17.6526 10.0353 17.2567 10.9893 16.5525 11.6925L10.1925 18.0525C9.98371 18.2618 9.73573 18.4279 9.46273 18.5414C9.18973 18.6548 8.89706 18.7134 8.60142 18.7138C8.30578 18.7141 8.01297 18.6562 7.7397 18.5434C7.46643 18.4306 7.21806 18.2651 7.00877 18.0562C6.79947 17.8474 6.63335 17.5995 6.5199 17.3265C6.40644 17.0535 6.34786 16.7608 6.34751 16.4652C6.34717 16.1695 6.40505 15.8767 6.51787 15.6034C6.63068 15.3302 6.79621 15.0818 7.00502 14.8725L13.3725 8.505C13.4424 8.43556 13.5254 8.38058 13.6165 8.34319C13.7077 8.3058 13.8054 8.28673 13.9039 8.28708C14.0025 8.28743 14.1 8.30719 14.1909 8.34522C14.2818 8.38325 14.3643 8.43882 14.4338 8.50875C14.5032 8.57868 14.5582 8.6616 14.5956 8.75278C14.633 8.84395 14.652 8.9416 14.6517 9.04015C14.6513 9.1387 14.6316 9.23621 14.5935 9.32712C14.5555 9.41803 14.4999 9.50056 14.43 9.57L8.07002 15.93Z" fill="#202020"/>
</svg>
