<svg width="24" height="24" viewBox="0 0 24 24" fill="none" xmlns="http://www.w3.org/2000/svg">
<path d="M12 20.7734C11.6772 20.7751 11.3627 20.6713 11.1042 20.478C10.8457 20.2846 10.6573 20.0122 10.5677 19.7021L10.1466 18.272C10.1367 18.2388 10.119 18.2085 10.0948 18.1837C10.0707 18.159 10.0409 18.1404 10.008 18.1297C9.97504 18.119 9.94003 18.1165 9.90592 18.1223C9.87181 18.1281 9.83963 18.1422 9.81215 18.1632L8.63167 19.072C8.37623 19.2687 8.06397 19.3775 7.74158 19.382C7.4192 19.3865 7.10401 19.2866 6.84314 19.0971C6.58228 18.9076 6.38976 18.6388 6.29436 18.3308C6.19897 18.0228 6.20583 17.6922 6.31391 17.3885L6.81343 15.9846C6.82504 15.952 6.82853 15.9171 6.82358 15.8828C6.81863 15.8485 6.80541 15.8159 6.78505 15.7879C6.76469 15.7599 6.73781 15.7373 6.70674 15.722C6.67566 15.7067 6.64133 15.6992 6.60671 15.7002L5.11743 15.744C4.79514 15.753 4.47861 15.6574 4.21516 15.4715C3.95172 15.2856 3.75552 15.0194 3.6559 14.7128C3.55628 14.4062 3.55859 14.0755 3.66249 13.7703C3.76639 13.4651 3.96629 13.2017 4.23231 13.0195L5.46143 12.1773C5.49008 12.1577 5.51351 12.1315 5.52971 12.1008C5.5459 12.0701 5.55437 12.036 5.55437 12.0013C5.55437 11.9666 5.5459 11.9324 5.52971 11.9018C5.51351 11.8711 5.49008 11.8448 5.46143 11.8253L4.23231 10.983C3.96629 10.8009 3.76639 10.5375 3.66249 10.2323C3.55859 9.92705 3.55628 9.59641 3.6559 9.28977C3.75552 8.98313 3.95172 8.71697 4.21516 8.53109C4.47861 8.34522 4.79514 8.24961 5.11743 8.25857L6.60671 8.29985C6.64133 8.30081 6.67566 8.29332 6.70674 8.27803C6.73781 8.26274 6.76469 8.24011 6.78505 8.21209C6.80541 8.18407 6.81863 8.15152 6.82358 8.11724C6.82853 8.08296 6.82504 8.048 6.81343 8.01537L6.31391 6.61153C6.20583 6.30777 6.19897 5.97718 6.29436 5.6692C6.38976 5.36122 6.58228 5.09239 6.84314 4.90291C7.10401 4.71343 7.4192 4.61347 7.74158 4.618C8.06397 4.62252 8.37623 4.73128 8.63167 4.92801L9.81215 5.83681C9.83963 5.85784 9.87181 5.87189 9.90592 5.87772C9.94003 5.88356 9.97504 5.88102 10.008 5.87031C10.0409 5.8596 10.0707 5.84105 10.0948 5.81626C10.119 5.79147 10.1367 5.76118 10.1466 5.72801L10.5677 4.29889C10.6587 3.9896 10.8475 3.7181 11.1057 3.52499C11.3638 3.33187 11.6776 3.22751 12 3.22751C12.3224 3.22751 12.6362 3.33187 12.8943 3.52499C13.1525 3.7181 13.3412 3.9896 13.4323 4.29889L13.8534 5.72801C13.8633 5.76118 13.881 5.79147 13.9052 5.81626C13.9293 5.84105 13.9591 5.8596 13.992 5.87031C14.0249 5.88102 14.06 5.88356 14.0941 5.87772C14.1282 5.87189 14.1604 5.85784 14.1878 5.83681L15.3683 4.92801C15.6238 4.73128 15.936 4.62252 16.2584 4.618C16.5808 4.61347 16.896 4.71343 17.1568 4.90291C17.4177 5.09239 17.6102 5.36122 17.7056 5.6692C17.801 5.97718 17.7942 6.30777 17.6861 6.61153L17.1866 8.01537C17.1749 8.048 17.1715 8.08296 17.1764 8.11724C17.1813 8.15152 17.1946 8.18407 17.2149 8.21209C17.2353 8.24011 17.2622 8.26274 17.2932 8.27803C17.3243 8.29332 17.3587 8.30081 17.3933 8.29985L18.8826 8.25857C19.2048 8.24961 19.5214 8.34522 19.7848 8.53109C20.0483 8.71697 20.2445 8.98313 20.3441 9.28977C20.4437 9.59641 20.4414 9.92705 20.3375 10.2323C20.2336 10.5375 20.0337 10.8009 19.7677 10.983L18.5386 11.8253C18.5099 11.8448 18.4865 11.8711 18.4703 11.9018C18.4541 11.9324 18.4456 11.9666 18.4456 12.0013C18.4456 12.036 18.4541 12.0701 18.4703 12.1008C18.4865 12.1315 18.5099 12.1577 18.5386 12.1773L19.7677 13.0195C20.0337 13.2017 20.2336 13.4651 20.3375 13.7703C20.4414 14.0755 20.4437 14.4062 20.3441 14.7128C20.2445 15.0194 20.0483 15.2856 19.7848 15.4715C19.5214 15.6574 19.2048 15.753 18.8826 15.744L17.3933 15.7027C17.3587 15.7018 17.3243 15.7092 17.2932 15.7245C17.2622 15.7398 17.2353 15.7625 17.2149 15.7905C17.1946 15.8185 17.1813 15.8511 17.1764 15.8853C17.1715 15.9196 17.1749 15.9546 17.1866 15.9872L17.6861 17.391C17.7932 17.6946 17.7994 18.0248 17.7037 18.3322C17.6079 18.6396 17.4154 18.9078 17.1547 19.0968C16.8941 19.2858 16.5793 19.3855 16.2574 19.3811C15.9355 19.3766 15.6236 19.2682 15.3683 19.072L14.1878 18.1632C14.1604 18.1422 14.1282 18.1281 14.0941 18.1223C14.06 18.1165 14.0249 18.119 13.992 18.1297C13.9591 18.1404 13.9293 18.159 13.9052 18.1837C13.881 18.2085 13.8633 18.2388 13.8534 18.272L13.4323 19.7011C13.3429 20.0114 13.1546 20.284 12.8961 20.4776C12.6375 20.6711 12.3229 20.775 12 20.7734ZM9.94207 16.84C10.2645 16.8399 10.5783 16.9442 10.8365 17.1374C11.0947 17.3305 11.2834 17.602 11.3744 17.9114L11.7955 19.3405C11.8085 19.3847 11.8354 19.4234 11.8723 19.451C11.9091 19.4786 11.9539 19.4935 12 19.4935C12.046 19.4935 12.0908 19.4786 12.1277 19.451C12.1646 19.4234 12.1915 19.3847 12.2045 19.3405L12.6256 17.9114C12.6941 17.6786 12.8183 17.466 12.9874 17.292C13.1566 17.1181 13.3656 16.988 13.5964 16.913C13.8272 16.838 14.0728 16.8204 14.3119 16.8617C14.551 16.903 14.7764 17.002 14.9686 17.1501L16.1491 18.0586C16.1856 18.0867 16.2302 18.1022 16.2762 18.1029C16.3222 18.1035 16.3672 18.0893 16.4045 18.0622C16.4417 18.0352 16.4692 17.9968 16.4828 17.9528C16.4964 17.9088 16.4954 17.8616 16.48 17.8182L15.9805 16.416C15.8991 16.1874 15.8747 15.9424 15.9093 15.7023C15.9439 15.4621 16.0365 15.234 16.1791 15.0377C16.3217 14.8414 16.51 14.6828 16.7277 14.5757C16.9454 14.4685 17.1859 14.416 17.4285 14.4227L18.9181 14.464C18.9641 14.4653 19.0092 14.4516 19.0468 14.4251C19.0844 14.3986 19.1124 14.3606 19.1266 14.3169C19.1408 14.2731 19.1405 14.2259 19.1257 14.1824C19.1109 14.1388 19.0824 14.1012 19.0445 14.0752L17.815 13.233C17.6149 13.0958 17.4511 12.912 17.338 12.6973C17.2248 12.4826 17.1657 12.2436 17.1657 12.001C17.1657 11.7583 17.2248 11.5193 17.338 11.3046C17.4511 11.09 17.6149 10.9061 17.815 10.769L19.0445 9.92673C19.0833 9.90104 19.1127 9.86334 19.1281 9.81939C19.1435 9.77544 19.1441 9.72765 19.1297 9.68334C19.1154 9.63903 19.0869 9.60064 19.0487 9.57403C19.0105 9.54742 18.9646 9.53407 18.9181 9.53601L17.4285 9.57729C17.1859 9.58401 16.9454 9.53151 16.7277 9.42436C16.51 9.3172 16.3217 9.1586 16.1791 8.96229C16.0365 8.76598 15.9439 8.53788 15.9093 8.29772C15.8747 8.05757 15.8991 7.81259 15.9805 7.58401L16.48 6.18177C16.4954 6.1384 16.4964 6.09119 16.4828 6.04722C16.4692 6.00324 16.4417 5.96485 16.4045 5.93779C16.3672 5.91074 16.3222 5.89647 16.2762 5.89713C16.2302 5.89779 16.1856 5.91334 16.1491 5.94145L14.9686 6.84993C14.7764 6.998 14.551 7.09698 14.3119 7.13829C14.0728 7.1796 13.8272 7.16201 13.5964 7.08703C13.3656 7.01205 13.1566 6.88194 12.9874 6.70797C12.8183 6.53401 12.6941 6.32143 12.6256 6.08865L12.2045 4.65953C12.1915 4.61535 12.1646 4.57656 12.1277 4.54897C12.0908 4.52138 12.046 4.50647 12 4.50647C11.9539 4.50647 11.9091 4.52138 11.8723 4.54897C11.8354 4.57656 11.8085 4.61535 11.7955 4.65953L11.3744 6.08865C11.3059 6.32143 11.1817 6.53401 11.0125 6.70797C10.8434 6.88194 10.6344 7.01205 10.4036 7.08703C10.1728 7.16201 9.92723 7.1796 9.68813 7.13829C9.44902 7.09698 9.22359 6.998 9.03135 6.84993L7.85087 5.94145C7.81441 5.91334 7.76983 5.89779 7.7238 5.89713C7.67776 5.89647 7.63276 5.91074 7.59551 5.93779C7.55826 5.96485 7.53077 6.00324 7.51716 6.04722C7.50354 6.09119 7.50454 6.1384 7.51999 6.18177L8.01951 7.58401C8.10088 7.81259 8.12532 8.05757 8.09071 8.29772C8.0561 8.53788 7.96348 8.76598 7.82088 8.96229C7.67827 9.1586 7.48997 9.3172 7.27228 9.42436C7.05459 9.53151 6.81406 9.58401 6.57151 9.57729L5.08191 9.53601C5.03593 9.53474 4.99077 9.54839 4.95318 9.57491C4.91559 9.60143 4.88759 9.63941 4.87337 9.68316C4.85914 9.7269 4.85946 9.77408 4.87427 9.81764C4.88907 9.86119 4.91757 9.89879 4.95551 9.92481L6.18495 10.767C6.38513 10.9042 6.54887 11.0881 6.66201 11.3027C6.77515 11.5174 6.83427 11.7564 6.83427 11.999C6.83427 12.2417 6.77515 12.4807 6.66201 12.6954C6.54887 12.91 6.38513 13.0939 6.18495 13.231L4.95551 14.0733C4.91666 14.099 4.8873 14.1367 4.8719 14.1806C4.85651 14.2246 4.85593 14.2724 4.87027 14.3167C4.8846 14.361 4.91306 14.3994 4.95128 14.426C4.9895 14.4526 5.03538 14.4659 5.08191 14.464L6.57151 14.4227C6.81406 14.416 7.05459 14.4685 7.27228 14.5757C7.48997 14.6828 7.67827 14.8414 7.82088 15.0377C7.96348 15.234 8.0561 15.4621 8.09071 15.7023C8.12532 15.9424 8.10088 16.1874 8.01951 16.416L7.51999 17.8182C7.50454 17.8616 7.50354 17.9088 7.51716 17.9528C7.53077 17.9968 7.55826 18.0352 7.59551 18.0622C7.63276 18.0893 7.67776 18.1035 7.7238 18.1029C7.76983 18.1022 7.81441 18.0867 7.85087 18.0586L9.03135 17.1501C9.29236 16.949 9.61259 16.84 9.94207 16.84Z" fill="#202020"/>
<path d="M14.688 15.6218C14.5624 15.6217 14.4397 15.5847 14.335 15.5154C14.2303 15.4461 14.1483 15.3476 14.0992 15.232L12.1171 10.576L9.88992 15.2566C9.8538 15.3325 9.80308 15.4006 9.74067 15.4569C9.67826 15.5132 9.60537 15.5566 9.52617 15.5847C9.3662 15.6415 9.19023 15.6325 9.03696 15.5595C8.88368 15.4866 8.76566 15.3557 8.70886 15.1958C8.65206 15.0358 8.66113 14.8598 8.73408 14.7066L11.5718 8.74336C11.6248 8.63209 11.7088 8.53847 11.8136 8.47376C11.9185 8.40905 12.0398 8.37599 12.1631 8.37856C12.2863 8.38113 12.4061 8.41921 12.5082 8.48824C12.6103 8.55727 12.6903 8.6543 12.7386 8.76768L15.2768 14.7309C15.3183 14.8282 15.335 14.9343 15.3254 15.0397C15.3158 15.145 15.2803 15.2464 15.2219 15.3346C15.1636 15.4229 15.0843 15.4953 14.9911 15.5454C14.8979 15.5955 14.7938 15.6218 14.688 15.6218Z" fill="#202020"/>
<path d="M13.5696 12.9942H10.5616C10.3919 12.9942 10.2291 12.9268 10.1091 12.8068C9.98903 12.6868 9.9216 12.524 9.9216 12.3542C9.9216 12.1845 9.98903 12.0217 10.1091 11.9017C10.2291 11.7817 10.3919 11.7142 10.5616 11.7142H13.5696C13.7393 11.7142 13.9021 11.7817 14.0221 11.9017C14.1422 12.0217 14.2096 12.1845 14.2096 12.3542C14.2096 12.524 14.1422 12.6868 14.0221 12.8068C13.9021 12.9268 13.7393 12.9942 13.5696 12.9942Z" fill="#202020"/>
</svg>
