<svg width="24" height="24" viewBox="0 0 24 24" fill="none" xmlns="http://www.w3.org/2000/svg">
<path d="M12 20.7734C11.6772 20.775 11.3626 20.6713 11.1041 20.4779C10.8456 20.2846 10.6573 20.0122 10.5677 19.7021L10.1465 18.272C10.1367 18.2388 10.1189 18.2085 10.0948 18.1837C10.0707 18.1589 10.0408 18.1404 10.0079 18.1297C9.97503 18.119 9.94001 18.1164 9.9059 18.1223C9.87179 18.1281 9.83961 18.1421 9.81214 18.1632L8.63166 19.072C8.37621 19.2687 8.06395 19.3775 7.74157 19.382C7.41918 19.3865 7.10399 19.2866 6.84313 19.0971C6.58226 18.9076 6.38974 18.6388 6.29435 18.3308C6.19895 18.0228 6.20581 17.6922 6.3139 17.3885L6.81342 15.9846C6.82503 15.952 6.82851 15.917 6.82356 15.8827C6.81862 15.8485 6.8054 15.8159 6.78504 15.7879C6.76468 15.7599 6.7378 15.7372 6.70672 15.722C6.67565 15.7067 6.64132 15.6992 6.6067 15.7001L5.11742 15.744C4.79513 15.7529 4.47859 15.6573 4.21515 15.4714C3.95171 15.2856 3.75551 15.0194 3.65589 14.7128C3.55627 14.4061 3.55858 14.0755 3.66248 13.7703C3.76638 13.4651 3.96628 13.2017 4.2323 13.0195L5.46142 12.1773C5.49006 12.1577 5.5135 12.1314 5.52969 12.1008C5.54589 12.0701 5.55435 12.0359 5.55435 12.0013C5.55435 11.9666 5.54589 11.9324 5.52969 11.9017C5.5135 11.8711 5.49006 11.8448 5.46142 11.8253L4.2323 10.983C3.96628 10.8008 3.76638 10.5375 3.66248 10.2322C3.55858 9.92702 3.55627 9.59638 3.65589 9.28974C3.75551 8.9831 3.95171 8.71694 4.21515 8.53106C4.47859 8.34519 4.79513 8.24958 5.11742 8.25854L6.6067 8.29982C6.64132 8.30078 6.67565 8.29329 6.70672 8.278C6.7378 8.26271 6.76468 8.24008 6.78504 8.21206C6.8054 8.18404 6.81862 8.15149 6.82356 8.11721C6.82851 8.08293 6.82503 8.04796 6.81342 8.01534L6.3139 6.6115C6.20581 6.30774 6.19895 5.97715 6.29435 5.66917C6.38974 5.36119 6.58226 5.09236 6.84313 4.90288C7.10399 4.71339 7.41918 4.61344 7.74157 4.61797C8.06395 4.62249 8.37621 4.73125 8.63166 4.92798L9.81214 5.83678C9.83961 5.85781 9.87179 5.87186 9.9059 5.87769C9.94001 5.88353 9.97503 5.88099 10.0079 5.87028C10.0408 5.85957 10.0707 5.84102 10.0948 5.81623C10.1189 5.79144 10.1367 5.76115 10.1465 5.72798L10.5677 4.29886C10.6587 3.98957 10.8475 3.71807 11.1056 3.52496C11.3638 3.33184 11.6776 3.22748 12 3.22748C12.3224 3.22748 12.6361 3.33184 12.8943 3.52496C13.1525 3.71807 13.3412 3.98957 13.4323 4.29886L13.8534 5.72798C13.8633 5.76115 13.881 5.79144 13.9052 5.81623C13.9293 5.84102 13.9591 5.85957 13.992 5.87028C14.0249 5.88099 14.0599 5.88353 14.0941 5.87769C14.1282 5.87186 14.1603 5.85781 14.1878 5.83678L15.3683 4.92798C15.6237 4.73125 15.936 4.62249 16.2584 4.61797C16.5808 4.61344 16.896 4.71339 17.1568 4.90288C17.4177 5.09236 17.6102 5.36119 17.7056 5.66917C17.801 5.97715 17.7941 6.30774 17.6861 6.6115L17.1865 8.01534C17.1749 8.04796 17.1714 8.08293 17.1764 8.11721C17.1813 8.15149 17.1946 8.18404 17.2149 8.21206C17.2353 8.24008 17.2622 8.26271 17.2932 8.278C17.3243 8.29329 17.3586 8.30078 17.3933 8.29982L18.8825 8.25854C19.2048 8.24958 19.5214 8.34519 19.7848 8.53106C20.0483 8.71694 20.2444 8.9831 20.3441 9.28974C20.4437 9.59638 20.4414 9.92702 20.3375 10.2322C20.2336 10.5375 20.0337 10.8008 19.7677 10.983L18.5385 11.8253C18.5099 11.8448 18.4865 11.8711 18.4703 11.9017C18.4541 11.9324 18.4456 11.9666 18.4456 12.0013C18.4456 12.0359 18.4541 12.0701 18.4703 12.1008C18.4865 12.1314 18.5099 12.1577 18.5385 12.1773L19.7677 13.0195C20.0337 13.2017 20.2336 13.4651 20.3375 13.7703C20.4414 14.0755 20.4437 14.4061 20.3441 14.7128C20.2444 15.0194 20.0483 15.2856 19.7848 15.4714C19.5214 15.6573 19.2048 15.7529 18.8825 15.744L17.3933 15.7027C17.3586 15.7017 17.3243 15.7092 17.2932 15.7245C17.2622 15.7398 17.2353 15.7624 17.2149 15.7905C17.1946 15.8185 17.1813 15.851 17.1764 15.8853C17.1714 15.9196 17.1749 15.9545 17.1865 15.9872L17.6861 17.391C17.7932 17.6946 17.7994 18.0247 17.7036 18.3321C17.6079 18.6395 17.4153 18.9077 17.1547 19.0968C16.8941 19.2858 16.5793 19.3855 16.2574 19.381C15.9355 19.3766 15.6236 19.2682 15.3683 19.072L14.1878 18.1632C14.1603 18.1421 14.1282 18.1281 14.0941 18.1223C14.0599 18.1164 14.0249 18.119 13.992 18.1297C13.9591 18.1404 13.9293 18.1589 13.9052 18.1837C13.881 18.2085 13.8633 18.2388 13.8534 18.272L13.4323 19.7011C13.3428 20.0114 13.1546 20.284 12.896 20.4776C12.6375 20.6711 12.3229 20.775 12 20.7734ZM9.94206 16.84C10.2645 16.8399 10.5783 16.9442 10.8365 17.1373C11.0947 17.3305 11.2834 17.602 11.3744 17.9113L11.7955 19.3405C11.8085 19.3846 11.8354 19.4234 11.8723 19.451C11.9091 19.4786 11.9539 19.4935 12 19.4935C12.046 19.4935 12.0908 19.4786 12.1277 19.451C12.1645 19.4234 12.1915 19.3846 12.2045 19.3405L12.6256 17.9113C12.6941 17.6786 12.8183 17.466 12.9874 17.292C13.1566 17.118 13.3656 16.9879 13.5964 16.913C13.8272 16.838 14.0727 16.8204 14.3118 16.8617C14.551 16.903 14.7764 17.002 14.9686 17.1501L16.1491 18.0585C16.1856 18.0866 16.2301 18.1022 16.2762 18.1029C16.3222 18.1035 16.3672 18.0892 16.4045 18.0622C16.4417 18.0351 16.4692 17.9967 16.4828 17.9528C16.4964 17.9088 16.4954 17.8616 16.48 17.8182L15.9805 16.416C15.8991 16.1874 15.8746 15.9424 15.9093 15.7023C15.9439 15.4621 16.0365 15.234 16.1791 15.0377C16.3217 14.8414 16.51 14.6828 16.7277 14.5756C16.9454 14.4685 17.1859 14.416 17.4285 14.4227L18.9181 14.464C18.964 14.4652 19.0092 14.4516 19.0468 14.4251C19.0844 14.3986 19.1124 14.3606 19.1266 14.3168C19.1408 14.2731 19.1405 14.2259 19.1257 14.1823C19.1109 14.1388 19.0824 14.1012 19.0445 14.0752L17.815 13.2329C17.6148 13.0958 17.4511 12.9119 17.338 12.6973C17.2248 12.4826 17.1657 12.2436 17.1657 12.0009C17.1657 11.7583 17.2248 11.5193 17.338 11.3046C17.4511 11.09 17.6148 10.9061 17.815 10.7689L19.0445 9.9267C19.0833 9.90101 19.1127 9.86331 19.1281 9.81936C19.1435 9.77541 19.144 9.72762 19.1297 9.68331C19.1154 9.639 19.0869 9.60061 19.0487 9.574C19.0105 9.54739 18.9646 9.53404 18.9181 9.53598L17.4285 9.57726C17.1859 9.58398 16.9454 9.53148 16.7277 9.42432C16.51 9.31717 16.3217 9.15857 16.1791 8.96226C16.0365 8.76595 15.9439 8.53785 15.9093 8.29769C15.8746 8.05754 15.8991 7.81256 15.9805 7.58398L16.48 6.18174C16.4954 6.13837 16.4964 6.09116 16.4828 6.04718C16.4692 6.00321 16.4417 5.96482 16.4045 5.93776C16.3672 5.91071 16.3222 5.89644 16.2762 5.8971C16.2301 5.89776 16.1856 5.91331 16.1491 5.94142L14.9686 6.8499C14.7764 6.99797 14.551 7.09694 14.3118 7.13826C14.0727 7.17957 13.8272 7.16198 13.5964 7.087C13.3656 7.01201 13.1566 6.88191 12.9874 6.70794C12.8183 6.53398 12.6941 6.3214 12.6256 6.08862L12.2045 4.6595C12.1915 4.61532 12.1645 4.57653 12.1277 4.54894C12.0908 4.52135 12.046 4.50644 12 4.50644C11.9539 4.50644 11.9091 4.52135 11.8723 4.54894C11.8354 4.57653 11.8085 4.61532 11.7955 4.6595L11.3744 6.08862C11.3059 6.3214 11.1817 6.53398 11.0125 6.70794C10.8434 6.88191 10.6343 7.01201 10.4036 7.087C10.1728 7.16198 9.92722 7.17957 9.68811 7.13826C9.449 7.09694 9.22357 6.99797 9.03134 6.8499L7.85086 5.94142C7.8144 5.91331 7.76981 5.89776 7.72378 5.8971C7.67775 5.89644 7.63274 5.91071 7.59549 5.93776C7.55824 5.96482 7.53075 6.00321 7.51714 6.04718C7.50353 6.09116 7.50452 6.13837 7.51998 6.18174L8.0195 7.58398C8.10087 7.81256 8.12531 8.05754 8.09069 8.29769C8.05608 8.53785 7.96347 8.76595 7.82086 8.96226C7.67826 9.15857 7.48996 9.31717 7.27226 9.42432C7.05457 9.53148 6.81404 9.58398 6.5715 9.57726L5.0819 9.53598C5.03591 9.53471 4.99075 9.54836 4.95316 9.57488C4.91557 9.6014 4.88758 9.63937 4.87335 9.68312C4.85913 9.72687 4.85944 9.77405 4.87425 9.81761C4.88906 9.86116 4.91756 9.89876 4.9555 9.92478L6.18494 10.767C6.38511 10.9042 6.54885 11.088 6.66199 11.3027C6.77513 11.5174 6.83426 11.7564 6.83426 11.999C6.83426 12.2417 6.77513 12.4807 6.66199 12.6953C6.54885 12.91 6.38511 13.0939 6.18494 13.231L4.9555 14.0733C4.91665 14.0989 4.88728 14.1366 4.87189 14.1806C4.85649 14.2245 4.85592 14.2723 4.87025 14.3166C4.88459 14.3609 4.91304 14.3993 4.95126 14.426C4.98948 14.4526 5.03537 14.4659 5.0819 14.464L6.5715 14.4227C6.81404 14.416 7.05457 14.4685 7.27226 14.5756C7.48996 14.6828 7.67826 14.8414 7.82086 15.0377C7.96347 15.234 8.05608 15.4621 8.09069 15.7023C8.12531 15.9424 8.10087 16.1874 8.0195 16.416L7.51998 17.8182C7.50452 17.8616 7.50353 17.9088 7.51714 17.9528C7.53075 17.9967 7.55824 18.0351 7.59549 18.0622C7.63274 18.0892 7.67775 18.1035 7.72378 18.1029C7.76981 18.1022 7.8144 18.0866 7.85086 18.0585L9.03134 17.1501C9.29234 16.949 9.61257 16.8399 9.94206 16.84Z" fill="#202020"/>
<path d="M14.688 15.6218C14.5625 15.6217 14.4397 15.5847 14.335 15.5154C14.2303 15.4461 14.1483 15.3476 14.0992 15.232L12.1171 10.576L9.88995 15.2566C9.85383 15.3325 9.80311 15.4006 9.7407 15.4569C9.67829 15.5132 9.6054 15.5566 9.5262 15.5847C9.36624 15.6415 9.19026 15.6325 9.03699 15.5595C8.88371 15.4866 8.76569 15.3557 8.70889 15.1958C8.65209 15.0358 8.66116 14.8598 8.73411 14.7066L11.5719 8.74336C11.6248 8.63209 11.7088 8.53847 11.8137 8.47376C11.9185 8.40905 12.0399 8.37599 12.1631 8.37856C12.2863 8.38113 12.4061 8.41921 12.5082 8.48824C12.6103 8.55727 12.6903 8.6543 12.7386 8.76768L15.2768 14.7309C15.3183 14.8282 15.335 14.9343 15.3254 15.0397C15.3159 15.145 15.2803 15.2464 15.222 15.3346C15.1636 15.4229 15.0843 15.4953 14.9912 15.5454C14.898 15.5955 14.7938 15.6218 14.688 15.6218Z" fill="#202020"/>
<path d="M13.5696 12.9942H10.5616C10.3918 12.9942 10.229 12.9268 10.109 12.8068C9.989 12.6868 9.92157 12.524 9.92157 12.3542C9.92157 12.1845 9.989 12.0217 10.109 11.9017C10.229 11.7817 10.3918 11.7142 10.5616 11.7142H13.5696C13.7393 11.7142 13.9021 11.7817 14.0221 11.9017C14.1421 12.0217 14.2096 12.1845 14.2096 12.3542C14.2096 12.524 14.1421 12.6868 14.0221 12.8068C13.9021 12.9268 13.7393 12.9942 13.5696 12.9942Z" fill="#202020"/>
</svg>
