<svg width="24" height="24" viewBox="0 0 24 24" fill="none" xmlns="http://www.w3.org/2000/svg">
<path d="M12.4233 20.313C11.9277 20.3128 11.4331 20.267 10.9458 20.1763C9.62445 19.9309 8.38605 19.3569 7.34474 18.5073C6.30343 17.6576 5.49269 16.5595 4.98721 15.3142C4.48173 14.0689 4.29777 12.7164 4.45227 11.3813C4.60676 10.0462 5.09475 8.7715 5.87128 7.67455C5.96961 7.536 6.11894 7.44218 6.28643 7.41374C6.45392 7.38529 6.62586 7.42455 6.7644 7.52287C6.90295 7.62119 6.99677 7.77052 7.02522 7.93802C7.05366 8.10551 7.01441 8.27744 6.91608 8.41599C5.29368 10.7062 5.27224 13.8 6.862 16.1145C8.96248 19.1718 13.1583 19.9504 16.2156 17.8499C19.2729 15.7494 20.0511 11.552 17.9519 8.49503C16.3618 6.18047 13.4662 5.09087 10.7465 5.78335C10.6096 5.81893 10.4649 5.8082 10.3348 5.75283C10.2047 5.69747 10.0966 5.60058 10.0274 5.4773C9.95815 5.35402 9.9317 5.21129 9.95215 5.07139C9.9726 4.93149 10.0388 4.8023 10.1404 4.70399L12.51 2.39103C12.5699 2.33109 12.6411 2.28364 12.7194 2.25142C12.7978 2.2192 12.8817 2.20286 12.9665 2.20335C13.0512 2.20384 13.135 2.22114 13.213 2.25425C13.2909 2.28737 13.3616 2.33564 13.4207 2.39626C13.4799 2.45689 13.5265 2.52866 13.5577 2.60741C13.589 2.68617 13.6042 2.77034 13.6027 2.85505C13.6011 2.93976 13.5828 3.02331 13.5487 3.10087C13.5146 3.17843 13.4654 3.24845 13.4041 3.30687L12.3935 4.29471C13.3402 4.29474 14.2794 4.46189 15.1679 4.78847C16.931 5.4373 18.4099 6.6853 19.3459 8.31421C20.2819 9.94312 20.6155 11.8493 20.2883 13.6992C19.9611 15.5492 18.9939 17.2253 17.5559 18.4343C16.1179 19.6433 14.3007 20.3083 12.422 20.313H12.4233Z" fill="#202020"/>
<path d="M12.845 15.9168C12.3919 15.9168 11.9866 15.8315 11.629 15.6608C11.2883 15.5043 10.9943 15.2616 10.7759 14.9568C10.5646 14.6559 10.4487 14.2985 10.4431 13.9309H11.6662C11.6748 14.0669 11.7123 14.1995 11.7762 14.3199C11.8401 14.4403 11.9289 14.5457 12.0367 14.6291C12.2607 14.8092 12.5303 14.8992 12.8454 14.8992C13.2168 14.8992 13.5231 14.7746 13.7644 14.5255C14.0057 14.2763 14.1251 13.9569 14.1228 13.5674C14.1249 13.1731 14.0026 12.8492 13.7558 12.5955C13.5089 12.3419 13.1942 12.2139 12.8114 12.2115C12.6009 12.2096 12.3919 12.2489 12.1964 12.3271C12.0145 12.3931 11.8503 12.5 11.7164 12.6397L10.5782 12.4528L10.9439 8.86401H14.9788V9.91713H11.9852L11.7849 11.7623H11.8255C11.9548 11.608 12.1372 11.4811 12.3727 11.3815C12.6182 11.2799 12.8818 11.2291 13.1474 11.232C13.5686 11.232 13.9446 11.3311 14.2754 11.5293C14.6048 11.7264 14.8748 12.0087 15.0569 12.3466C15.2474 12.693 15.3425 13.0894 15.3423 13.5357C15.3423 13.9954 15.2364 14.4048 15.0246 14.7639C14.8143 15.1213 14.5096 15.4138 14.1439 15.6093C13.7693 15.8145 13.3363 15.917 12.845 15.9168Z" fill="#202020"/>
</svg>
