<svg width="24" height="24" viewBox="0 0 24 24" fill="none" xmlns="http://www.w3.org/2000/svg">
<path d="M16.7117 9.3078L15.896 19.2C15.8717 19.4951 15.7372 19.7702 15.5193 19.9707C15.3014 20.1711 15.0161 20.2822 14.72 20.2819H8.13565C7.83979 20.2819 7.55473 20.1707 7.3371 19.9702C7.11947 19.7698 6.98519 19.4948 6.96093 19.2L6.13629 9.19901" stroke="#202020" stroke-width="1.28069" stroke-linecap="round" stroke-linejoin="round"/>
<path d="M16.9068 6.43552H5.90708C5.27579 6.43552 4.76404 6.94727 4.76404 7.57856C4.76404 8.20984 5.27579 8.7216 5.90708 8.7216H16.9068C17.538 8.7216 18.0498 8.20984 18.0498 7.57856C18.0498 6.94727 17.538 6.43552 16.9068 6.43552Z" stroke="#202020" stroke-width="1.28069" stroke-linecap="round" stroke-linejoin="round"/>
<path d="M7.48145 6.43552L9.45297 3.71808" stroke="#202020" stroke-width="1.28069" stroke-linecap="round" stroke-linejoin="round"/>
<path d="M15.2534 6.43552L13.2816 3.71808" stroke="#202020" stroke-width="1.28069" stroke-linecap="round" stroke-linejoin="round"/>
<path d="M9.87378 13.0118L13.2683 16.3888" stroke="#202020" stroke-width="1.28069" stroke-linecap="round" stroke-linejoin="round"/>
<path d="M13.2683 13.0118L9.87378 16.3888" stroke="#202020" stroke-width="1.28069" stroke-linecap="round" stroke-linejoin="round"/>
</svg>
