<svg width="24" height="24" viewBox="0 0 24 24" fill="none" xmlns="http://www.w3.org/2000/svg">
<path d="M16.6642 9.24802L15.8434 19.2C15.8191 19.4948 15.6848 19.7697 15.4672 19.9701C15.2496 20.1704 14.9645 20.2817 14.6687 20.2816H8.08313C7.78731 20.2817 7.5023 20.1704 7.28468 19.9701C7.06706 19.7697 6.93275 19.4948 6.90841 19.2L6.09337 9.31842" stroke="#202020" stroke-width="1.28069" stroke-linecap="round" stroke-linejoin="round"/>
<path d="M16.8543 6.43552H5.85461C5.22333 6.43552 4.71157 6.94727 4.71157 7.57856C4.71157 8.20984 5.22333 8.7216 5.85461 8.7216H16.8543C17.4856 8.7216 17.9973 8.20984 17.9973 7.57856C17.9973 6.94727 17.4856 6.43552 16.8543 6.43552Z" stroke="#202020" stroke-width="1.28069" stroke-linecap="round" stroke-linejoin="round"/>
<path d="M7.42899 6.43552L9.40051 3.71808" stroke="#202020" stroke-width="1.28069" stroke-linecap="round" stroke-linejoin="round"/>
<path d="M15.2009 6.43552L13.2291 3.71808" stroke="#202020" stroke-width="1.28069" stroke-linecap="round" stroke-linejoin="round"/>
<path d="M8.89108 12.96L9.005 14.1075C9.03585 14.4499 9.19373 14.7683 9.44756 15.0001C9.70138 15.2319 10.0328 15.3603 10.3765 15.36H12.3084C12.648 15.3602 12.9756 15.2349 13.2284 15.008C13.4811 14.7812 13.641 14.4689 13.6773 14.1312L13.8053 12.9581" stroke="#202020" stroke-width="1.28069" stroke-linecap="round" stroke-linejoin="round"/>
</svg>
