<svg width="24" height="24" viewBox="0 0 24 24" fill="none" xmlns="http://www.w3.org/2000/svg">
<path d="M15.2023 18.8313H8.7978C8.353 18.8313 7.92494 18.6617 7.60085 18.357C7.27675 18.0524 7.081 17.6356 7.05348 17.1917L6.65956 10.8189C6.64475 10.5807 6.67887 10.342 6.75983 10.1175C6.8408 9.89302 6.96688 9.6875 7.13031 9.5136C7.29374 9.33971 7.49105 9.20113 7.71009 9.10641C7.92913 9.01169 8.16524 8.96284 8.40388 8.96286H15.5962C15.8348 8.96284 16.071 9.01169 16.29 9.10641C16.509 9.20113 16.7063 9.33971 16.8698 9.5136C17.0332 9.6875 17.1593 9.89302 17.2402 10.1175C17.3212 10.342 17.3553 10.5807 17.3405 10.8189L16.9466 17.1917C16.9191 17.6356 16.7233 18.0524 16.3992 18.357C16.0751 18.6617 15.6471 18.8313 15.2023 18.8313Z" stroke="#202020" stroke-width="1.28069" stroke-linecap="round" stroke-linejoin="round"/>
<path d="M9.45886 8.96352V7.41248C9.45886 6.17312 10.5725 5.16864 11.9465 5.16864H12.3472C13.7209 5.16864 14.8349 6.17312 14.8349 7.41248V8.96352" stroke="#202020" stroke-width="1.28069" stroke-linecap="round" stroke-linejoin="round"/>
<path d="M12 16.5571C13.469 16.5571 14.6598 15.3663 14.6598 13.8973C14.6598 12.4283 13.469 11.2374 12 11.2374C10.531 11.2374 9.34015 12.4283 9.34015 13.8973C9.34015 15.3663 10.531 16.5571 12 16.5571Z" stroke="#202020" stroke-width="1.28069" stroke-linecap="round" stroke-linejoin="round"/>
<path d="M11.2573 13.3232L12.6981 14.6049" stroke="#202020" stroke-width="1.28069" stroke-linecap="round" stroke-linejoin="round"/>
<path d="M12.6981 13.3232L11.2573 14.6049" stroke="#202020" stroke-width="1.28069" stroke-linecap="round" stroke-linejoin="round"/>
</svg>
