<svg width="24" height="24" viewBox="0 0 24 24" fill="none" xmlns="http://www.w3.org/2000/svg">
<path d="M3.35356 17.8184C3.15916 17.6279 2.84806 17.6279 2.65367 17.8184C2.45646 18.0117 2.45329 18.3282 2.64659 18.5254L5.47471 21.3535C5.56834 21.4474 5.6956 21.5002 5.82823 21.5C5.96073 21.4999 6.08787 21.4473 6.18156 21.3536C6.37687 21.1584 6.37693 20.8418 6.18168 20.6465L3.35356 17.8184ZM17.1388 6.91711C17.1288 6.90533 17.1247 6.89062 17.1134 6.87958C17.1032 6.86957 17.0897 6.86615 17.0789 6.85718L14.2823 4.06061C14.0879 3.87012 13.7768 3.87012 13.5824 4.06061C13.3852 4.25385 13.3821 4.57037 13.5753 4.76758L16.0504 7.24268L7.24278 16.0503L4.76768 13.5753C4.57328 13.3847 4.26219 13.3847 4.06779 13.5753C3.87058 13.7685 3.86741 14.085 4.06065 14.2822L6.87675 17.0983C6.88499 17.1071 6.89305 17.1152 6.90183 17.1234L9.71788 19.9395C9.8115 20.0334 9.93876 20.0861 10.0714 20.0859C10.2039 20.0859 10.331 20.0333 10.4248 19.9396C10.6201 19.7443 10.6201 19.4277 10.4248 19.2324L7.94975 16.7573L16.7574 7.94971L19.2325 10.4248C19.3262 10.5187 19.4534 10.5715 19.586 10.5713C19.7186 10.5712 19.8457 10.5186 19.9394 10.4249C20.1347 10.2297 20.1347 9.91309 19.9395 9.71777L17.1388 6.91711ZM21.3536 5.47467L18.5255 2.64655C18.331 2.45599 18.0199 2.45599 17.8255 2.64655C17.6284 2.83978 17.6252 3.15631 17.8185 3.35352L20.6466 6.18164C20.7402 6.27557 20.8675 6.32831 21.0001 6.32812C21.1326 6.32806 21.2597 6.27545 21.3534 6.18176C21.5487 5.98651 21.5488 5.66998 21.3536 5.47467Z" fill="#202020"/>
</svg>
