<svg width="24" height="24" viewBox="0 0 24 24" fill="none" xmlns="http://www.w3.org/2000/svg">
<path d="M21.9541 11.082L21.9536 11.0809C21.5168 6.29291 17.7081 2.48383 12.9202 2.04645L12.918 2.0459C12.6143 2.01855 12.3096 2 12 2C8.39148 2 5.23895 3.91779 3.48041 6.78333L3.47949 6.78418L3.47717 6.78864C3.00739 7.55524 2.63715 8.38715 2.38647 9.27185C2.37708 9.30475 2.37006 9.33801 2.36096 9.37097C2.25983 9.74237 2.18115 10.1221 2.12311 10.5093C2.11115 10.5878 2.09735 10.6654 2.08728 10.7441C2.03552 11.1564 2 11.5737 2 12C2 12.0057 2.00085 12.0112 2.00085 12.0168C2.00085 12.021 2 12.0251 2 12.0293C2.00037 12.2823 2.02008 12.5303 2.03894 12.7786C2.04266 12.8247 2.04175 12.8718 2.0459 12.918L2.04626 12.9193C2.50476 18.0156 6.78571 22.0077 12 22C12.3212 22.0005 12.6403 21.9809 12.9578 21.9506C13.0307 21.9435 13.1021 21.9324 13.1744 21.9238C13.4144 21.8956 13.6526 21.8597 13.8892 21.8141C13.9773 21.7971 14.0646 21.7786 14.1519 21.7593C14.3711 21.7109 14.5878 21.6546 14.803 21.5914C14.8898 21.566 14.9771 21.5422 15.0629 21.5145C15.2865 21.4421 15.5064 21.36 15.7244 21.272C15.7789 21.25 15.8363 21.2339 15.8904 21.2111C15.9031 21.2057 15.9149 21.1985 15.9276 21.1931C16.1984 21.0767 16.4645 20.9493 16.7245 20.8088C16.8357 20.749 16.9407 20.6801 17.0493 20.6163C17.1896 20.5333 17.3308 20.4521 17.4673 20.3621C17.6228 20.2602 17.7715 20.15 17.9208 20.0398C17.9745 19.9999 18.0311 19.9648 18.084 19.9238C18.0887 19.9202 18.0898 19.9138 18.0945 19.9099C18.1812 19.8429 18.2733 19.7827 18.3577 19.713C18.8514 19.3054 19.3054 18.8514 19.713 18.3577C21.1393 16.6298 21.9972 14.4151 22.0001 12C22.0001 11.6895 21.9815 11.3857 21.9541 11.082ZM13.5 4C13.4982 3.70886 13.4794 3.4184 13.4509 3.12891C17.2543 3.75055 20.2499 6.7464 20.8712 10.5499C20.033 10.4673 19.1868 10.4926 18.3545 10.6348C17.061 10.8558 15.875 11.3308 14.837 11.9987C13.9722 10.9741 12.9778 10.0687 11.8788 9.30145C12.9003 7.78735 13.4977 5.9635 13.5 4ZM12 3C12.1469 3.00018 12.29 3.01526 12.4352 3.0224C12.4767 3.34656 12.4988 3.6731 12.5 4C12.4979 5.76123 11.9606 7.39691 11.0424 8.75366C9.17639 7.6236 7.0564 6.88483 4.79327 6.63196C6.43414 4.43372 9.04657 3.00323 12 3ZM3.01514 12.2999C3.01093 12.1722 3.00299 12.0448 3.00427 11.9167C3.00604 11.7442 3.01935 11.5746 3.0307 11.4044C3.03943 11.2744 3.04303 11.1443 3.0575 11.0143C3.0722 10.8808 3.09772 10.7509 3.11816 10.6192C3.14453 10.4512 3.16675 10.2831 3.20288 10.1159C3.21704 10.0499 3.23761 9.98627 3.25317 9.92078C3.30841 9.69049 3.36633 9.46045 3.44061 9.23291C3.4422 9.22784 3.44446 9.22302 3.44611 9.21796C3.63104 8.65479 3.87402 8.1015 4.17871 7.56641C6.44391 7.73981 8.56329 8.44604 10.4223 9.55096C8.86395 11.3519 6.56787 12.4969 4 12.5C3.67297 12.4988 3.34644 12.4767 3.02197 12.4352C3.01984 12.39 3.01666 12.3452 3.01514 12.2999ZM10.0449 20.7808C9.94775 20.7593 9.85309 20.7316 9.75708 20.7068C9.47028 20.6332 9.18646 20.5451 8.90607 20.4426C8.81183 20.408 8.71606 20.3766 8.62335 20.3391C8.28522 20.2023 7.95319 20.0444 7.62909 19.8646C7.47266 19.7774 7.32141 19.6822 7.17084 19.5862C7.08405 19.5311 6.9953 19.478 6.91101 19.4203C6.73407 19.2988 6.56342 19.1687 6.39587 19.0351C6.34113 18.9916 6.28485 18.9495 6.23132 18.905C6.052 18.755 5.87988 18.597 5.71289 18.4338C5.6759 18.3977 5.63776 18.3625 5.60144 18.3259C5.43494 18.1575 5.27661 17.9813 5.12372 17.8002C5.08899 17.759 5.05322 17.7186 5.01929 17.6768C4.87762 17.5028 4.74445 17.3218 4.61591 17.1375C4.57465 17.078 4.53235 17.0193 4.49268 16.9589C4.38177 16.7913 4.27893 16.6181 4.17914 16.4429C4.13025 16.3566 4.08063 16.2707 4.03473 16.1829C3.95355 16.0287 3.8797 15.8704 3.80737 15.711C3.75598 15.5971 3.7041 15.4833 3.65759 15.3676C3.60016 15.2254 3.54938 15.08 3.49908 14.9344C3.45282 14.7997 3.40643 14.6651 3.36658 14.5285C3.32593 14.3895 3.29199 14.2477 3.25793 14.106C3.22369 13.9633 3.18915 13.8207 3.16186 13.6764C3.14783 13.6021 3.13959 13.5258 3.12744 13.4507C3.41748 13.4793 3.70837 13.4982 4 13.5C6.92139 13.4966 9.53162 12.1741 11.2741 10.0986C12.2949 10.8069 13.2195 11.6429 14.0259 12.5885C11.6137 14.5331 10.2341 17.6105 10.5544 20.8624C10.3845 20.8349 10.2135 20.8182 10.0449 20.7808ZM17.2103 19.3247C16.8661 19.5706 16.5087 19.79 16.1404 19.982C16.1202 19.9925 16.0991 20.0013 16.0789 20.0117C15.7399 20.1851 15.3912 20.3326 15.0369 20.4604C14.9856 20.4789 14.9352 20.4992 14.8834 20.5167C14.5066 20.645 14.1236 20.7505 13.7356 20.8273C13.7073 20.8329 13.6779 20.8353 13.6494 20.8406C13.3085 20.9047 12.9642 20.9438 12.619 20.9681C12.5126 20.9755 12.406 20.981 12.2987 20.9846C12.054 20.9931 11.8093 20.9833 11.5644 20.9717C11.5233 20.6494 11.5012 20.325 11.5 20C11.5032 17.3306 12.7375 14.952 14.6631 13.3939C15.9249 15.1075 16.8279 17.1102 17.2328 19.3079C17.2252 19.3134 17.218 19.3193 17.2103 19.3247ZM18.0974 18.6008C17.6264 16.4633 16.7213 14.5065 15.479 12.8156C16.7894 11.9885 18.3363 11.502 20 11.5C20.3269 11.5012 20.6534 11.5233 20.9776 11.5648C20.9847 11.71 20.9998 11.8531 21 12C20.9971 14.6123 19.8759 16.9568 18.0974 18.6008Z" fill="#202020"/>
</svg>
