<svg width="24" height="24" viewBox="0 0 24 24" fill="none" xmlns="http://www.w3.org/2000/svg">
<path d="M5.44028 18.0799C3.81276 18.0799 2.48828 16.6031 2.48828 14.7878V9.21336C2.4886 7.398 3.81308 5.91992 5.44028 5.91992H16.4483C18.0758 5.91992 19.4003 7.39672 19.4003 9.21208V14.7548C19.4002 15.6132 19.0614 16.4369 18.4576 17.047C17.8538 17.6571 17.0337 18.0043 16.1753 18.0134H16.1724L5.44476 18.0774L5.44028 18.0799ZM5.44028 7.19992C4.51836 7.19992 3.76828 8.10264 3.76828 9.21208V14.7865C3.76828 15.8953 4.5174 16.7974 5.43868 16.7986L16.1628 16.7346C16.6834 16.7275 17.1802 16.5161 17.5463 16.1459C17.9123 15.7758 18.1183 15.2766 18.1196 14.7561V9.21336C18.12 8.10392 17.3699 7.19992 16.4483 7.19992H5.44028Z" fill="#202020"/>
<path d="M20.1721 15.1639H18.7599C18.5902 15.1639 18.4274 15.0965 18.3074 14.9765C18.1874 14.8565 18.1199 14.6937 18.1199 14.5239C18.1199 14.3542 18.1874 14.1914 18.3074 14.0714C18.4274 13.9514 18.5902 13.8839 18.7599 13.8839H20.1721C20.188 13.8839 20.2032 13.8776 20.2144 13.8664C20.2256 13.8552 20.2319 13.84 20.2319 13.8241V10.1758C20.2319 10.1599 20.2256 10.1447 20.2144 10.1335C20.2032 10.1222 20.188 10.1159 20.1721 10.1159H18.7599C18.5902 10.1159 18.4274 10.0485 18.3074 9.92849C18.1874 9.80846 18.1199 9.64568 18.1199 9.47594C18.1199 9.3062 18.1874 9.14341 18.3074 9.02339C18.4274 8.90337 18.5902 8.83594 18.7599 8.83594H20.1721C20.5273 8.83636 20.8679 8.97766 21.119 9.22883C21.3702 9.48001 21.5115 9.82056 21.5119 10.1758V13.8238C21.5116 14.1791 21.3703 14.5197 21.1191 14.7709C20.868 15.0222 20.5274 15.1635 20.1721 15.1639ZM6.74937 14.7745C6.57964 14.7745 6.41685 14.7071 6.29683 14.587C6.1768 14.467 6.10938 14.3042 6.10938 14.1345V9.86506C6.10938 9.69532 6.1768 9.53253 6.29683 9.41251C6.41685 9.29249 6.57964 9.22506 6.74937 9.22506C6.91911 9.22506 7.0819 9.29249 7.20192 9.41251C7.32195 9.53253 7.38937 9.69532 7.38937 9.86506V14.1345C7.38937 14.3042 7.32195 14.467 7.20192 14.587C7.0819 14.7071 6.91911 14.7745 6.74937 14.7745ZM9.32249 14.7745C9.15276 14.7745 8.98997 14.7071 8.86995 14.587C8.74992 14.467 8.68249 14.3042 8.68249 14.1345V9.86506C8.68249 9.69532 8.74992 9.53253 8.86995 9.41251C8.98997 9.29249 9.15276 9.22506 9.32249 9.22506C9.49223 9.22506 9.65502 9.29249 9.77504 9.41251C9.89507 9.53253 9.96249 9.69532 9.96249 9.86506V14.1345C9.96249 14.3042 9.89507 14.467 9.77504 14.587C9.65502 14.7071 9.49223 14.7745 9.32249 14.7745Z" fill="#202020"/>
</svg>
