<svg width="24" height="24" viewBox="0 0 24 24" fill="none" xmlns="http://www.w3.org/2000/svg">
<path d="M4.73594 18.0799C3.10842 18.0799 1.78394 16.6031 1.78394 14.7878V9.21336C1.78426 7.398 3.10874 5.91992 4.73594 5.91992H15.7439C17.3715 5.91992 18.6959 7.39672 18.6959 9.21208V14.7548C18.6958 15.6132 18.3571 16.4369 17.7532 17.047C17.1494 17.6571 16.3293 18.0043 15.471 18.0134H15.4681L4.74042 18.0774L4.73594 18.0799ZM4.73594 7.19992C3.81402 7.19992 3.06394 8.10264 3.06394 9.21208V14.7865C3.06394 15.8953 3.81306 16.7974 4.73434 16.7986L15.4585 16.7346C15.979 16.7275 16.4759 16.5161 16.8419 16.1459C17.208 15.7758 17.4139 15.2766 17.4153 14.7561V9.21336C17.4156 8.10392 16.6655 7.19992 15.7439 7.19992H4.73594Z" fill="#202020"/>
<path d="M19.4682 15.1642H18.056C17.8863 15.1642 17.7235 15.0968 17.6035 14.9767C17.4834 14.8567 17.416 14.6939 17.416 14.5242C17.416 14.3544 17.4834 14.1917 17.6035 14.0716C17.7235 13.9516 17.8863 13.8842 18.056 13.8842H19.4682C19.484 13.8842 19.4993 13.8779 19.5105 13.8667C19.5217 13.8554 19.528 13.8402 19.528 13.8243V10.176C19.528 10.1602 19.5217 10.1449 19.5105 10.1337C19.4993 10.1225 19.484 10.1162 19.4682 10.1162H18.056C17.8863 10.1162 17.7235 10.0488 17.6035 9.92873C17.4834 9.80871 17.416 9.64592 17.416 9.47618C17.416 9.30644 17.4834 9.14366 17.6035 9.02363C17.7235 8.90361 17.8863 8.83618 18.056 8.83618H19.4682C19.8234 8.83661 20.1639 8.9779 20.4151 9.22908C20.6663 9.48026 20.8076 9.8208 20.808 10.176V13.824C20.8077 14.1793 20.6664 14.5199 20.4152 14.7712C20.164 15.0224 19.8234 15.1638 19.4682 15.1642Z" fill="#202020"/>
</svg>
