<svg width="24" height="24" viewBox="0 0 24 24" fill="none" xmlns="http://www.w3.org/2000/svg">
<path d="M12.1686 18.0377C11.9989 18.0382 11.8359 17.9713 11.7155 17.8516C11.5951 17.7319 11.5272 17.5693 11.5267 17.3996C11.5262 17.2299 11.5931 17.0669 11.7128 16.9465C11.8324 16.8261 11.995 16.7582 12.1648 16.7577L16.1648 16.7334C16.6851 16.7259 17.1816 16.5143 17.5474 16.1442C17.9132 15.7741 18.1189 15.2752 18.1203 14.7548V9.21336C18.12 8.10392 17.3699 7.19992 16.4483 7.19992H12.1686C11.9989 7.19992 11.8361 7.13249 11.7161 7.01247C11.596 6.89245 11.5286 6.72966 11.5286 6.55992C11.5286 6.39018 11.596 6.2274 11.7161 6.10737C11.8361 5.98735 11.9989 5.91992 12.1686 5.91992H16.4483C18.0758 5.91992 19.4003 7.39672 19.4003 9.21208V14.7548C19.4002 15.6132 19.0614 16.4369 18.4576 17.047C17.8538 17.6571 17.0337 18.0043 16.1753 18.0134L12.1728 18.0377H12.1686ZM5.44028 18.0799C3.81276 18.0799 2.48828 16.6031 2.48828 14.7878V9.21336C2.4886 7.398 3.81308 5.91992 5.44028 5.91992H9.62748C9.79722 5.91992 9.96001 5.98735 10.08 6.10737C10.2001 6.2274 10.2675 6.39018 10.2675 6.55992C10.2675 6.72966 10.2001 6.89245 10.08 7.01247C9.96001 7.13249 9.79722 7.19992 9.62748 7.19992H5.44028C4.51836 7.19992 3.76828 8.10264 3.76828 9.21208V14.7865C3.76828 15.8953 4.5174 16.7974 5.43868 16.7986L9.79228 16.7721H9.79612C9.96586 16.7716 10.1288 16.8385 10.2492 16.9582C10.3696 17.0778 10.4375 17.2404 10.438 17.4102C10.4385 17.5799 10.3716 17.7429 10.2519 17.8633C10.1323 17.9837 9.9697 18.0516 9.79996 18.0521L5.44476 18.0799H5.44028Z" fill="#202020"/>
<path d="M20.1718 15.1643H18.7596C18.5899 15.1643 18.4271 15.0968 18.3071 14.9768C18.1871 14.8568 18.1196 14.694 18.1196 14.5243C18.1196 14.3545 18.1871 14.1917 18.3071 14.0717C18.4271 13.9517 18.5899 13.8843 18.7596 13.8843H20.1718C20.1877 13.8843 20.2029 13.878 20.2141 13.8667C20.2253 13.8555 20.2316 13.8403 20.2316 13.8244V10.1761C20.2316 10.1602 20.2253 10.145 20.2141 10.1338C20.2029 10.1226 20.1877 10.1163 20.1718 10.1163H18.7596C18.5899 10.1163 18.4271 10.0488 18.3071 9.92881C18.1871 9.80878 18.1196 9.646 18.1196 9.47626C18.1196 9.30652 18.1871 9.14373 18.3071 9.02371C18.4271 8.90369 18.5899 8.83626 18.7596 8.83626H20.1718C20.527 8.83668 20.8675 8.97798 21.1187 9.22916C21.3699 9.48033 21.5112 9.82088 21.5116 10.1761V13.8241C21.5113 14.1794 21.37 14.52 21.1188 14.7712C20.8677 15.0225 20.5271 15.1638 20.1718 15.1643ZM10.9148 16.3399C10.8116 16.34 10.71 16.315 10.6185 16.2673C10.5271 16.2195 10.4485 16.1503 10.3895 16.0657C10.3306 15.981 10.293 15.8833 10.2799 15.781C10.2668 15.6786 10.2787 15.5746 10.3145 15.4779L11.2492 12.9518H9.01722C8.90898 12.9517 8.80253 12.9241 8.70783 12.8717C8.61313 12.8193 8.53327 12.7437 8.47573 12.652C8.41818 12.5603 8.38484 12.4555 8.3788 12.3475C8.37277 12.2394 8.39425 12.1315 8.44122 12.034L10.2031 8.37482C10.2373 8.29547 10.2871 8.22384 10.3496 8.16425C10.4121 8.10467 10.486 8.05835 10.5669 8.0281C10.6478 7.99784 10.734 7.98428 10.8203 7.98821C10.9066 7.99215 10.9912 8.01351 11.069 8.05101C11.1468 8.08851 11.2162 8.14137 11.273 8.2064C11.3299 8.27144 11.373 8.34731 11.3997 8.42943C11.4264 8.51156 11.4363 8.59825 11.4286 8.68428C11.421 8.77031 11.396 8.8539 11.3551 8.93002L10.0351 11.6718H12.1676C12.2708 11.6718 12.3725 11.6967 12.4639 11.7445C12.5554 11.7922 12.634 11.8614 12.6929 11.946C12.7519 12.0307 12.7895 12.1284 12.8026 12.2307C12.8156 12.3331 12.8037 12.4371 12.7679 12.5339L11.5151 15.922C11.4698 16.0447 11.3879 16.1505 11.2806 16.2252C11.1732 16.2999 11.0456 16.34 10.9148 16.3399Z" fill="#202020"/>
</svg>
