<svg width="24" height="24" viewBox="0 0 24 24" fill="none" xmlns="http://www.w3.org/2000/svg">
<path d="M9.06844 18.0377C8.8987 18.038 8.7358 17.9708 8.61556 17.851C8.49533 17.7312 8.42762 17.5685 8.42732 17.3988C8.42702 17.2291 8.49417 17.0662 8.61398 16.9459C8.73379 16.8257 8.89646 16.758 9.0662 16.7577L16.1638 16.7334C16.6842 16.7261 17.1809 16.5146 17.5468 16.1444C17.9128 15.7743 18.1186 15.2753 18.12 14.7548V9.21336C18.12 8.10392 17.3699 7.19992 16.4483 7.19992C16.2785 7.19992 16.1158 7.13249 15.9957 7.01247C15.8757 6.89245 15.8083 6.72966 15.8083 6.55992C15.8083 6.39018 15.8757 6.2274 15.9957 6.10737C16.1158 5.98735 16.2785 5.91992 16.4483 5.91992C18.0758 5.91992 19.4003 7.39672 19.4003 9.21208V14.7548C19.4002 15.6132 19.0614 16.4369 18.4576 17.047C17.8538 17.6571 17.0337 18.0043 16.1753 18.0134H16.1705L9.07068 18.0377H9.06844ZM5.44028 17.9839C3.81276 17.9839 2.48828 16.5244 2.48828 14.7308V9.23768C2.48828 8.38808 2.7846 7.58008 3.32284 6.96184C3.87228 6.33048 4.61308 5.9612 5.40828 5.92216H5.44028H11.7792C11.9489 5.92216 12.1117 5.98959 12.2317 6.10961C12.3517 6.22964 12.4192 6.39242 12.4192 6.56216C12.4192 6.7319 12.3517 6.89469 12.2317 7.01471C12.1117 7.13473 11.9489 7.20216 11.7792 7.20216H5.45788C4.52508 7.2572 3.7686 8.16728 3.7686 9.23864V14.7295C3.7686 15.8175 4.51868 16.7026 5.4406 16.7026C5.61034 16.7026 5.77313 16.7701 5.89315 16.8901C6.01317 17.0101 6.0806 17.1729 6.0806 17.3426C6.0806 17.5124 6.01317 17.6752 5.89315 17.7952C5.77313 17.9152 5.61034 17.9826 5.4406 17.9826L5.44028 17.9839Z" fill="#202020"/>
<path d="M20.1715 15.1641H18.7593C18.5896 15.1641 18.4268 15.0967 18.3068 14.9766C18.1867 14.8566 18.1193 14.6938 18.1193 14.5241C18.1193 14.3543 18.1867 14.1916 18.3068 14.0715C18.4268 13.9515 18.5896 13.8841 18.7593 13.8841H20.1715C20.1873 13.8841 20.2026 13.8778 20.2138 13.8666C20.225 13.8553 20.2313 13.8401 20.2313 13.8242V10.1759C20.2313 10.1601 20.225 10.1448 20.2138 10.1336C20.2026 10.1224 20.1873 10.1161 20.1715 10.1161H18.7593C18.5896 10.1161 18.4268 10.0487 18.3068 9.92863C18.1867 9.80861 18.1193 9.64582 18.1193 9.47608C18.1193 9.30635 18.1867 9.14356 18.3068 9.02354C18.4268 8.90351 18.5896 8.83608 18.7593 8.83608H20.1715C20.5267 8.83651 20.8672 8.9778 21.1184 9.22898C21.3696 9.48016 21.5109 9.82071 21.5113 10.1759V13.8239C21.511 14.1792 21.3697 14.5198 21.1185 14.7711C20.8673 15.0223 20.5267 15.1637 20.1715 15.1641ZM5.89691 20.1823C5.7831 20.1822 5.67138 20.1517 5.57328 20.0939C5.47519 20.0362 5.39425 19.9534 5.33883 19.854C5.2834 19.7546 5.25549 19.6422 5.25796 19.5284C5.26044 19.4146 5.29321 19.3035 5.35291 19.2066L14.6489 4.12184C14.693 4.05028 14.7508 3.9881 14.819 3.93887C14.8871 3.88964 14.9643 3.85431 15.0461 3.83491C15.1279 3.81551 15.2127 3.81241 15.2957 3.82578C15.3788 3.83916 15.4583 3.86876 15.5299 3.91288C15.6014 3.95701 15.6636 4.0148 15.7128 4.08295C15.7621 4.1511 15.7974 4.22828 15.8168 4.31009C15.8362 4.39189 15.8393 4.47672 15.8259 4.55972C15.8126 4.64272 15.783 4.72228 15.7388 4.79384L6.44283 19.8786C6.38536 19.9717 6.30501 20.0485 6.20944 20.1016C6.11387 20.1548 6.00627 20.1826 5.89691 20.1823Z" fill="#202020"/>
</svg>
