<svg width="24" height="24" viewBox="0 0 24 24" fill="none" xmlns="http://www.w3.org/2000/svg">
<path d="M9.1258 12.64H1.1898C1.02007 12.64 0.85728 12.5726 0.737256 12.4525C0.617233 12.3325 0.549805 12.1697 0.549805 12V4.57312C0.549805 4.40338 0.617233 4.2406 0.737256 4.12057C0.85728 4.00055 1.02007 3.93312 1.1898 3.93312H9.1258C11.5258 3.93312 13.4778 5.88512 13.4778 8.28512C13.4778 10.6851 11.5261 12.64 9.1258 12.64ZM1.8298 11.36H9.1258C9.94093 11.36 10.7227 11.0362 11.2991 10.4598C11.8754 9.88343 12.1992 9.10169 12.1992 8.28656C12.1992 7.47143 11.8754 6.68969 11.2991 6.11331C10.7227 5.53693 9.94093 5.21312 9.1258 5.21312H1.8298V11.36Z" fill="#202020"/>
<path d="M9.1258 20.0669H1.1898C1.02007 20.0669 0.85728 19.9995 0.737256 19.8794C0.617233 19.7594 0.549805 19.5966 0.549805 19.4269V12C0.549805 11.8303 0.617233 11.6675 0.737256 11.5475C0.85728 11.4274 1.02007 11.36 1.1898 11.36H9.1258C11.5258 11.36 13.4778 13.312 13.4778 15.712C13.4778 18.112 11.5261 20.0669 9.1258 20.0669ZM1.8298 18.7869H9.1258C9.94093 18.7869 10.7227 18.4631 11.2991 17.8867C11.8754 17.3103 12.1992 16.5286 12.1992 15.7134C12.1992 14.8983 11.8754 14.1166 11.2991 13.5402C10.7227 12.9638 9.94093 12.64 9.1258 12.64H1.8298V18.7869ZM19.0797 20.032C16.5632 20.032 14.5162 17.984 14.5162 15.4682C14.5162 12.9523 16.5642 10.9046 19.0797 10.9046C21.5952 10.9046 23.6432 12.9526 23.6432 15.4682C23.6432 15.6379 23.5758 15.8007 23.4558 15.9207C23.3358 16.0407 23.173 16.1082 23.0032 16.1082H15.8586C15.9699 16.6681 16.2252 17.1894 16.5994 17.6206C16.9737 18.0518 17.4539 18.378 17.9926 18.5669C18.5314 18.7559 19.1101 18.8011 19.6716 18.6982C20.2332 18.5952 20.7582 18.3476 21.1949 17.9798C21.2592 17.9257 21.3335 17.8847 21.4136 17.8592C21.4937 17.8337 21.578 17.8243 21.6618 17.8314C21.7455 17.8385 21.827 17.862 21.9017 17.9007C21.9763 17.9393 22.0427 17.9922 22.0968 18.0565C22.151 18.1207 22.192 18.195 22.2175 18.2751C22.243 18.3552 22.2524 18.4396 22.2453 18.5233C22.2382 18.6071 22.2147 18.6886 22.176 18.7633C22.1374 18.8379 22.0845 18.9042 22.0202 18.9584C21.1971 19.6514 20.1557 20.0317 19.0797 20.032ZM15.8586 14.8294H22.3008C22.1527 14.0842 21.7507 13.4133 21.1633 12.9312C20.5759 12.4492 19.8396 12.1857 19.0797 12.1857C18.3199 12.1857 17.5835 12.4492 16.9961 12.9312C16.4088 13.4133 16.0068 14.0842 15.8586 14.8294ZM20.985 10.048H17.2228C17.053 10.048 16.8902 9.98058 16.7702 9.86055C16.6502 9.74053 16.5828 9.57774 16.5828 9.40801C16.5828 9.23827 16.6502 9.07548 16.7702 8.95546C16.8902 8.83543 17.053 8.76801 17.2228 8.76801H20.985C21.1547 8.76801 21.3175 8.83543 21.4376 8.95546C21.5576 9.07548 21.625 9.23827 21.625 9.40801C21.625 9.57774 21.5576 9.74053 21.4376 9.86055C21.3175 9.98058 21.1547 10.048 20.985 10.048Z" fill="#202020"/>
</svg>
