<svg width="24" height="24" viewBox="0 0 24 24" fill="none" xmlns="http://www.w3.org/2000/svg">
<path d="M4.77727 4.91354C4.60753 4.91354 4.44474 4.84612 4.32472 4.72609C4.2047 4.60607 4.13727 4.44328 4.13727 4.27354C4.13727 4.10381 4.2047 3.94102 4.32472 3.821C4.44474 3.70097 4.60753 3.63354 4.77727 3.63354H19.2227C19.3924 3.63354 19.5552 3.70097 19.6753 3.821C19.7953 3.94102 19.8627 4.10381 19.8627 4.27354C19.8627 4.44328 19.7953 4.60607 19.6753 4.72609C19.5552 4.84612 19.3924 4.91354 19.2227 4.91354H4.77727Z" fill="#202020"/>
<path d="M12.1085 19.5626C11.2972 19.563 10.5086 19.2944 9.86625 18.7987L5.54849 15.4707C5.47087 15.411 5.408 15.3342 5.36473 15.2463C5.32145 15.1585 5.29893 15.0618 5.29889 14.9639V4.2733C5.29889 4.10356 5.36632 3.94078 5.48634 3.82075C5.60636 3.70073 5.76915 3.6333 5.93889 3.6333H18.2045C18.3742 3.6333 18.537 3.70073 18.657 3.82075C18.7771 3.94078 18.8445 4.10356 18.8445 4.2733V14.9847C18.8445 15.0821 18.8223 15.1782 18.7795 15.2657C18.7368 15.3532 18.6746 15.4298 18.5978 15.4896L14.3661 18.7856C13.7213 19.2893 12.9266 19.5628 12.1085 19.5626ZM6.57889 14.6499L10.6474 17.7859C11.0678 18.11 11.584 18.2851 12.1148 18.2836C12.6456 18.2822 13.1609 18.1043 13.5795 17.7779L17.5645 14.6739V4.91362H6.57889V14.6499Z" fill="#202020"/>
<path d="M9.19743 9.31198C9.0277 9.31198 8.86491 9.24455 8.74489 9.12453C8.62486 9.00451 8.55743 8.84172 8.55743 8.67198C8.55743 8.50224 8.62486 8.33946 8.74489 8.21943C8.86491 8.09941 9.0277 8.03198 9.19743 8.03198H14.8026C14.9723 8.03198 15.1351 8.09941 15.2551 8.21943C15.3751 8.33946 15.4426 8.50224 15.4426 8.67198C15.4426 8.84172 15.3751 9.00451 15.2551 9.12453C15.1351 9.24455 14.9723 9.31198 14.8026 9.31198H9.19743ZM9.19743 13.0765C9.0277 13.0765 8.86491 13.009 8.74489 12.889C8.62486 12.769 8.55743 12.6062 8.55743 12.4365C8.55743 12.2667 8.62486 12.1039 8.74489 11.9839C8.86491 11.8639 9.0277 11.7965 9.19743 11.7965H14.8026C14.9723 11.7965 15.1351 11.8639 15.2551 11.9839C15.3751 12.1039 15.4426 12.2667 15.4426 12.4365C15.4426 12.6062 15.3751 12.769 15.2551 12.889C15.1351 13.009 14.9723 13.0765 14.8026 13.0765H9.19743Z" fill="#202020"/>
</svg>
