<svg width="24" height="24" viewBox="0 0 24 24" fill="none" xmlns="http://www.w3.org/2000/svg">
<path d="M4.44801 12.5824C4.27828 12.5824 4.11549 12.515 3.99547 12.3949C3.87544 12.2749 3.80801 12.1121 3.80801 11.9424C3.80797 10.859 4.02133 9.78612 4.4359 8.78514C4.85048 7.78416 5.45815 6.87463 6.22423 6.1085C6.9903 5.34236 7.89978 4.73462 8.90073 4.31997C9.90168 3.90532 10.9745 3.69188 12.0579 3.69183C12.2277 3.69183 12.3905 3.75926 12.5105 3.87929C12.6305 3.99931 12.6979 4.16209 12.6979 4.33183C12.6979 4.50157 12.6305 4.66436 12.5105 4.78438C12.3905 4.9044 12.2277 4.97183 12.0579 4.97183C8.21441 4.97183 5.08801 8.09887 5.08801 11.9424C5.08801 12.1121 5.02059 12.2749 4.90056 12.3949C4.78054 12.515 4.61775 12.5824 4.44801 12.5824ZM12.0579 20.192C11.8882 20.192 11.7254 20.1246 11.6054 20.0045C11.4854 19.8845 11.4179 19.7217 11.4179 19.552C11.4179 19.3823 11.4854 19.2195 11.6054 19.0994C11.7254 18.9794 11.8882 18.912 12.0579 18.912C15.9015 18.912 19.0282 15.785 19.0282 11.9418C19.0282 11.772 19.0956 11.6092 19.2156 11.4892C19.3356 11.3692 19.4984 11.3018 19.6682 11.3018C19.8379 11.3018 20.0007 11.3692 20.1207 11.4892C20.2407 11.6092 20.3082 11.772 20.3082 11.9418C20.3082 13.0252 20.0948 14.098 19.6802 15.099C19.2655 16.0999 18.6578 17.0094 17.8917 17.7756C17.1256 18.5417 16.2161 19.1494 15.2152 19.564C14.2142 19.9786 13.1414 20.192 12.0579 20.192Z" fill="#202020"/>
<path d="M11.5034 6.34335C11.381 6.34336 11.2612 6.3083 11.1582 6.24232C11.0552 6.17635 10.9732 6.08222 10.922 5.9711C10.8708 5.85997 10.8526 5.73651 10.8694 5.61532C10.8862 5.49414 10.9374 5.38032 11.017 5.28735L11.7702 4.40511L10.793 3.57887C10.728 3.52485 10.6743 3.4585 10.6351 3.38364C10.5959 3.30877 10.5719 3.22689 10.5645 3.1427C10.5571 3.05851 10.5664 2.97369 10.592 2.89314C10.6175 2.81258 10.6588 2.73789 10.7133 2.67336C10.7679 2.60883 10.8347 2.55575 10.9099 2.51719C10.9851 2.47862 11.0672 2.45533 11.1515 2.44865C11.2357 2.44198 11.3205 2.45206 11.4008 2.47831C11.4811 2.50456 11.5555 2.54646 11.6195 2.60159L13.088 3.84319C13.1524 3.89761 13.2054 3.96423 13.2439 4.0392C13.2825 4.11417 13.3059 4.19602 13.3127 4.28005C13.3196 4.36408 13.3097 4.44864 13.2838 4.52886C13.2579 4.60908 13.2163 4.68339 13.1616 4.74751L11.9904 6.11871C11.9303 6.18916 11.8556 6.24572 11.7715 6.28451C11.6875 6.32329 11.596 6.34337 11.5034 6.34335ZM12.1315 21.5494C11.9639 21.5497 11.803 21.4839 11.6835 21.3664L10.3107 20.0201C10.2505 19.9611 10.2026 19.8908 10.1697 19.8132C10.1367 19.7356 10.1195 19.6522 10.1188 19.5679C10.1182 19.4836 10.1342 19.4001 10.166 19.322C10.1978 19.2439 10.2447 19.1729 10.304 19.1129L11.5728 17.8329C11.6922 17.7123 11.8546 17.644 12.0244 17.6432C12.1941 17.6423 12.3573 17.7089 12.4779 17.8283C12.5986 17.9477 12.6668 18.1102 12.6677 18.2799C12.6686 18.4497 12.602 18.6128 12.4825 18.7334L11.6662 19.5577L12.5798 20.4537C12.6706 20.5427 12.7328 20.6567 12.7585 20.7812C12.7842 20.9057 12.7723 21.035 12.7242 21.1527C12.6762 21.2704 12.5942 21.3711 12.4887 21.4419C12.3832 21.5128 12.2589 21.5507 12.1318 21.5507L12.1315 21.5494ZM12.8537 12.5497H9.89119C9.72145 12.5497 9.55866 12.4823 9.43864 12.3623C9.31862 12.2423 9.25119 12.0795 9.25119 11.9097V9.16799C9.25119 8.99825 9.31862 8.83546 9.43864 8.71544C9.55866 8.59542 9.72145 8.52799 9.89119 8.52799H12.8537C13.3871 8.52799 13.8985 8.73985 14.2757 9.11696C14.6528 9.49407 14.8646 10.0055 14.8646 10.5389C14.8646 11.0722 14.6528 11.5837 14.2757 11.9608C13.8985 12.3379 13.3871 12.5497 12.8537 12.5497ZM10.5312 11.2697H12.8537C13.0476 11.2697 13.2335 11.1927 13.3706 11.0557C13.5076 10.9186 13.5846 10.7327 13.5846 10.5389C13.5846 10.345 13.5076 10.1591 13.3706 10.0221C13.2335 9.88499 13.0476 9.80799 12.8537 9.80799H10.5312V11.2697Z" fill="#202020"/>
<path d="M12.8537 15.2915H9.89119C9.72145 15.2915 9.55866 15.2241 9.43864 15.104C9.31862 14.984 9.25119 14.8212 9.25119 14.6515V11.9097C9.25119 11.74 9.31862 11.5772 9.43864 11.4572C9.55866 11.3372 9.72145 11.2697 9.89119 11.2697H12.8537C13.3871 11.2697 13.8985 11.4816 14.2757 11.8587C14.6528 12.2358 14.8646 12.7473 14.8646 13.2806C14.8646 13.8139 14.6528 14.3254 14.2757 14.7025C13.8985 15.0796 13.3871 15.2915 12.8537 15.2915ZM10.5312 14.0115H12.8537C13.0476 14.0115 13.2335 13.9345 13.3706 13.7974C13.5076 13.6604 13.5846 13.4745 13.5846 13.2806C13.5846 13.0868 13.5076 12.9009 13.3706 12.7638C13.2335 12.6267 13.0476 12.5497 12.8537 12.5497H10.5312V14.0115ZM11.6579 9.80798C11.4882 9.80798 11.3254 9.74055 11.2054 9.62053C11.0853 9.5005 11.0179 9.33772 11.0179 9.16798V7.62334C11.0179 7.4536 11.0853 7.29081 11.2054 7.17079C11.3254 7.05077 11.4882 6.98334 11.6579 6.98334C11.8276 6.98334 11.9904 7.05077 12.1105 7.17079C12.2305 7.29081 12.2979 7.4536 12.2979 7.62334V9.16798C12.2979 9.33772 12.2305 9.5005 12.1105 9.62053C11.9904 9.74055 11.8276 9.80798 11.6579 9.80798Z" fill="#202020"/>
<path d="M11.6579 16.9014C11.4882 16.9014 11.3254 16.834 11.2054 16.714C11.0853 16.594 11.0179 16.4312 11.0179 16.2614V14.7165C11.0179 14.5467 11.0853 14.384 11.2054 14.2639C11.3254 14.1439 11.4882 14.0765 11.6579 14.0765C11.8277 14.0765 11.9904 14.1439 12.1105 14.2639C12.2305 14.384 12.2979 14.5467 12.2979 14.7165V16.2614C12.2979 16.4312 12.2305 16.594 12.1105 16.714C11.9904 16.834 11.8277 16.9014 11.6579 16.9014Z" fill="#202020"/>
</svg>
