<svg width="24" height="24" viewBox="0 0 24 24" fill="none" xmlns="http://www.w3.org/2000/svg">
<path d="M18.0397 17.7344H7.98017C7.81043 17.7344 7.64764 17.667 7.52762 17.547C7.40759 17.4269 7.34017 17.2641 7.34017 17.0944C7.34017 16.9247 7.40759 16.7619 7.52762 16.6419C7.64764 16.5218 7.81043 16.4544 7.98017 16.4544H18.0397C18.3297 16.4541 18.6078 16.3386 18.8127 16.1334C19.0177 15.9282 19.1328 15.65 19.1328 15.36V9.60801H5.22817C5.05843 9.60801 4.89564 9.54058 4.77562 9.42056C4.65559 9.30054 4.58817 9.13775 4.58817 8.96801V7.83041C4.58884 7.20114 4.83912 6.59784 5.28408 6.15288C5.72904 5.70792 6.33234 5.45765 6.96161 5.45697H18.0397C18.6689 5.45773 19.2721 5.70805 19.717 6.153C20.1619 6.59795 20.4121 7.2012 20.4128 7.83041V8.95361C20.4128 8.95841 20.4128 8.96321 20.4128 8.96801C20.4128 8.97281 20.4128 8.97729 20.4128 8.98209V15.36C20.4123 15.9894 20.1621 16.5928 19.7172 17.038C19.2724 17.4831 18.669 17.7336 18.0397 17.7344ZM5.86817 8.32641H19.1328V7.83041C19.1326 7.54054 19.0173 7.26262 18.8124 7.05762C18.6074 6.85263 18.3295 6.73731 18.0397 6.73697H6.96161C6.67171 6.73731 6.39379 6.85262 6.1888 7.05761C5.98381 7.26259 5.8685 7.54052 5.86817 7.83041V8.32641Z" fill="#202020"/>
<path d="M17.8454 11.8186H16.4451C16.2754 11.8186 16.1126 11.7511 15.9926 11.6311C15.8726 11.5111 15.8051 11.3483 15.8051 11.1786C15.8051 11.0088 15.8726 10.846 15.9926 10.726C16.1126 10.606 16.2754 10.5386 16.4451 10.5386H17.8454C18.0152 10.5386 18.178 10.606 18.298 10.726C18.418 10.846 18.4854 11.0088 18.4854 11.1786C18.4854 11.3483 18.418 11.5111 18.298 11.6311C18.178 11.7511 18.0152 11.8186 17.8454 11.8186ZM13.9011 11.8186H12.5005C12.3307 11.8186 12.168 11.7511 12.0479 11.6311C11.9279 11.5111 11.8605 11.3483 11.8605 11.1786C11.8605 11.0088 11.9279 10.846 12.0479 10.726C12.168 10.606 12.3307 10.5386 12.5005 10.5386H13.9011C14.0709 10.5386 14.2336 10.606 14.3537 10.726C14.4737 10.846 14.5411 11.0088 14.5411 11.1786C14.5411 11.3483 14.4737 11.5111 14.3537 11.6311C14.2336 11.7511 14.0709 11.8186 13.9011 11.8186ZM5.22816 11.9398C5.05843 11.9398 4.89564 11.8724 4.77562 11.7524C4.65559 11.6324 4.58816 11.4696 4.58816 11.2998V8.968C4.58816 8.79826 4.65559 8.63548 4.77562 8.51545C4.89564 8.39543 5.05843 8.328 5.22816 8.328C5.3979 8.328 5.56069 8.39543 5.68071 8.51545C5.80074 8.63548 5.86816 8.79826 5.86816 8.968V11.2998C5.86816 11.4696 5.80074 11.6324 5.68071 11.7524C5.56069 11.8724 5.3979 11.9398 5.22816 11.9398ZM5.95968 15.9981H4.22688C4.05714 15.9981 3.89436 15.9307 3.77434 15.8106C3.65431 15.6906 3.58688 15.5278 3.58688 15.3581V13.7542C3.58688 13.5845 3.65431 13.4217 3.77434 13.3017C3.89436 13.1817 4.05714 13.1142 4.22688 13.1142H5.95968C6.3421 13.1142 6.70886 13.2662 6.97928 13.5366C7.24969 13.807 7.4016 14.1737 7.4016 14.5562C7.4016 14.9386 7.24969 15.3053 6.97928 15.5758C6.70886 15.8462 6.3421 15.9981 5.95968 15.9981ZM4.86688 14.7181H5.95968C6.00263 14.7181 6.04381 14.701 6.07418 14.6707C6.10454 14.6403 6.1216 14.5991 6.1216 14.5562C6.1216 14.5132 6.10454 14.472 6.07418 14.4417C6.04381 14.4113 6.00263 14.3942 5.95968 14.3942H4.86688V14.7181Z" fill="#202020"/>
<path d="M5.95968 17.6016H4.22688C4.05714 17.6016 3.89436 17.5342 3.77434 17.4141C3.65431 17.2941 3.58688 17.1313 3.58688 16.9616V15.3581C3.58688 15.1883 3.65431 15.0256 3.77434 14.9055C3.89436 14.7855 4.05714 14.7181 4.22688 14.7181H5.95968C6.33834 14.7237 6.69958 14.8781 6.96536 15.1479C7.23114 15.4176 7.38012 15.7811 7.38012 16.1598C7.38012 16.5385 7.23114 16.902 6.96536 17.1718C6.69958 17.4416 6.33834 17.596 5.95968 17.6016ZM4.86688 16.3216H5.95968C6.00134 16.3197 6.04068 16.3019 6.0695 16.2718C6.09832 16.2416 6.11441 16.2015 6.11441 16.1598C6.11441 16.1181 6.09832 16.078 6.0695 16.0479C6.04068 16.0178 6.00134 15.9999 5.95968 15.9981H4.86688V16.3216ZM5.26016 14.3942C5.09043 14.3942 4.92764 14.3268 4.80762 14.2068C4.68759 14.0868 4.62016 13.924 4.62016 13.7542V12.8509C4.62016 12.6811 4.68759 12.5184 4.80762 12.3983C4.92764 12.2783 5.09043 12.2109 5.26016 12.2109C5.4299 12.2109 5.59269 12.2783 5.71271 12.3983C5.83274 12.5184 5.90016 12.6811 5.90016 12.8509V13.7542C5.90016 13.924 5.83274 14.0868 5.71271 14.2068C5.59269 14.3268 5.4299 14.3942 5.26016 14.3942Z" fill="#202020"/>
<path d="M5.26016 18.543C5.09042 18.543 4.92764 18.4756 4.80761 18.3556C4.68759 18.2356 4.62016 18.0728 4.62016 17.903V16.9997C4.62016 16.8299 4.68759 16.6672 4.80761 16.5471C4.92764 16.4271 5.09042 16.3597 5.26016 16.3597C5.4299 16.3597 5.59269 16.4271 5.71271 16.5471C5.83273 16.6672 5.90016 16.8299 5.90016 16.9997V17.903C5.90016 18.0728 5.83273 18.2356 5.71271 18.3556C5.59269 18.4756 5.4299 18.543 5.26016 18.543Z" fill="#202020"/>
</svg>
