<svg width="24" height="24" viewBox="0 0 24 24" fill="none" xmlns="http://www.w3.org/2000/svg">
<path d="M19.275 12.99L18.27 12.3825C17.8394 12.1233 17.3344 12.0156 16.8356 12.0768C16.3367 12.138 15.8727 12.3644 15.5175 12.72L14.985 13.26C14.8722 13.373 14.7262 13.447 14.5684 13.4713C14.4105 13.4956 14.2491 13.4689 14.1075 13.395C12.6334 12.5807 11.4193 11.3666 10.605 9.89251C10.5276 9.74925 10.4988 9.58469 10.5232 9.42367C10.5476 9.26266 10.6237 9.11395 10.74 9.00001L11.28 8.46751C11.6356 8.11232 11.862 7.6483 11.9232 7.14943C11.9844 6.65057 11.8767 6.14559 11.6175 5.71501L11.01 4.72501C10.7191 4.23379 10.3187 3.81643 9.83995 3.50549C9.36118 3.19456 8.81705 2.99846 8.25 2.93251C7.68499 2.86392 7.11178 2.92485 6.57381 3.11067C6.03584 3.29649 5.54723 3.60233 5.145 4.00501L4.875 4.27501C3.73308 5.43767 3.04488 6.97056 2.93483 8.5965C2.82478 10.2224 3.30016 11.8341 4.275 13.14C6.14569 15.637 8.36303 17.8543 10.86 19.725C12.1653 20.7013 13.7773 21.1776 15.4037 21.0676C17.03 20.9575 18.5631 20.2683 19.725 19.125L19.995 18.855C20.3963 18.4501 20.7 17.9591 20.883 17.4193C21.0661 16.8794 21.1236 16.3049 21.0513 15.7395C20.979 15.174 20.7788 14.6325 20.4658 14.1561C20.1528 13.6797 19.7353 13.2809 19.245 12.99H19.275ZM18.9375 17.79L18.6675 18.06C17.7621 18.9509 16.5673 19.4877 15.2999 19.573C14.0326 19.6583 12.7767 19.2865 11.76 18.525C9.37572 16.7408 7.25924 14.6243 5.475 12.24C4.71352 11.2234 4.3417 9.96741 4.42702 8.70006C4.51233 7.43271 5.04913 6.23793 5.94 5.33251L6.2025 5.06251C6.62528 4.64318 7.19704 4.40854 7.7925 4.41001C7.88485 4.40256 7.97765 4.40256 8.07 4.41001C8.41495 4.44937 8.74611 4.56803 9.03756 4.75669C9.32902 4.94536 9.57286 5.19891 9.75 5.49751L10.35 6.50251C10.4358 6.64578 10.4713 6.81359 10.4509 6.97933C10.4306 7.14508 10.3554 7.29928 10.2375 7.41751L9.705 7.95001C9.36009 8.29307 9.13566 8.73869 9.06534 9.22006C8.99503 9.70143 9.08263 10.1926 9.315 10.62C10.2596 12.3446 11.6779 13.7629 13.4025 14.7075C13.8299 14.9399 14.3211 15.0275 14.8024 14.9572C15.2838 14.8869 15.7294 14.6624 16.0725 14.3175L16.605 13.785C16.7232 13.6671 16.8774 13.592 17.0432 13.5716C17.2089 13.5512 17.3767 13.5867 17.52 13.6725L18.525 14.2725C18.8178 14.4484 19.0668 14.6886 19.253 14.9749C19.4391 15.2613 19.5577 15.5863 19.5996 15.9253C19.6415 16.2642 19.6057 16.6083 19.4949 16.9314C19.3841 17.2545 19.2012 17.5481 18.96 17.79H18.9375Z" fill="#202020"/>
<path d="M18 1.5C17.11 1.5 16.24 1.76392 15.4999 2.25839C14.7599 2.75285 14.1831 3.45566 13.8425 4.27792C13.5019 5.10019 13.4128 6.00499 13.5865 6.87791C13.7601 7.75082 14.1887 8.55264 14.818 9.18198C15.4474 9.81132 16.2492 10.2399 17.1221 10.4135C17.995 10.5872 18.8998 10.4981 19.7221 10.1575C20.5443 9.81686 21.2471 9.24009 21.7416 8.50007C22.2361 7.76005 22.5 6.89002 22.5 6C22.5 4.80653 22.0259 3.66193 21.182 2.81802C20.3381 1.97411 19.1935 1.5 18 1.5ZM18 3C18.5286 3.00332 19.0466 3.14836 19.5 3.42L15.42 7.5C15.1484 7.04656 15.0033 6.52857 15 6C15 5.20435 15.3161 4.44129 15.8787 3.87868C16.4413 3.31607 17.2043 3 18 3ZM18 9C17.4711 8.99224 16.9536 8.84476 16.5 8.5725L20.5725 4.5C20.8347 4.95418 20.9733 5.46918 20.9745 5.99364C20.9756 6.51809 20.8392 7.03368 20.5789 7.48899C20.3187 7.9443 19.9436 8.32342 19.4911 8.58855C19.0385 8.85367 18.5244 8.99554 18 9Z" fill="#202020"/>
</svg>
