<svg width="24" height="24" viewBox="0 0 24 24" fill="none" xmlns="http://www.w3.org/2000/svg">
<path d="M17.032 20.4556H6.968C6.06021 20.4546 5.1899 20.0935 4.54799 19.4516C3.90609 18.8097 3.54502 17.9394 3.544 17.0316V6.96795C3.54502 6.06016 3.90609 5.18984 4.54799 4.54793C5.1899 3.90603 6.06021 3.54496 6.968 3.54395H17.032C17.9398 3.54496 18.8101 3.90603 19.452 4.54793C20.0939 5.18984 20.455 6.06016 20.456 6.96795V17.0319C20.4549 17.9397 20.0938 18.8099 19.4519 19.4517C18.81 20.0936 17.9397 20.4546 17.032 20.4556ZM6.968 4.82427C6.39953 4.82477 5.85449 5.05082 5.45253 5.45279C5.05056 5.85476 4.82451 6.3998 4.824 6.96826V17.0323C4.82451 17.6007 5.05056 18.1458 5.45253 18.5477C5.85449 18.9497 6.39953 19.1758 6.968 19.1763H17.032C17.6005 19.1758 18.1455 18.9497 18.5475 18.5477C18.9494 18.1458 19.1755 17.6007 19.176 17.0323V6.96795C19.1755 6.39948 18.9494 5.85444 18.5475 5.45247C18.1455 5.0505 17.6005 4.82445 17.032 4.82395L6.968 4.82427Z" fill="#202020"/>
<path d="M14.3766 13.7844C14.1739 13.7849 13.9738 13.7384 13.792 13.6487L12.128 12.8244C12.088 12.8055 12.0443 12.7957 12 12.7957C11.9557 12.7957 11.912 12.8055 11.872 12.8244L10.208 13.6487C10.0073 13.7473 9.78494 13.7936 9.56158 13.7831C9.33823 13.7726 9.12115 13.7058 8.93056 13.5889C8.75437 13.4821 8.60857 13.3319 8.50715 13.1526C8.40573 12.9732 8.35208 12.7709 8.35136 12.5649V4.25255C8.35136 4.08281 8.41879 3.92002 8.53881 3.8C8.65883 3.67998 8.82162 3.61255 8.99136 3.61255H15.008C15.1777 3.61255 15.3405 3.67998 15.4605 3.8C15.5806 3.92002 15.648 4.08281 15.648 4.25255V12.5661C15.6473 12.7722 15.5936 12.9745 15.4922 13.1538C15.3908 13.3331 15.245 13.4834 15.0688 13.5901C14.8606 13.7178 14.6209 13.7851 14.3766 13.7844ZM9.632 4.89255V12.5047L9.64032 12.5018L11.3043 11.6775C11.5212 11.5708 11.7596 11.5153 12.0013 11.5153C12.243 11.5153 12.4814 11.5708 12.6982 11.6775L14.3622 12.5018L14.3706 12.5047V4.89255H9.632Z" fill="#202020"/>
</svg>
