<svg width="24" height="24" viewBox="0 0 24 24" fill="none" xmlns="http://www.w3.org/2000/svg">
<path d="M17.032 20.4556H6.968C6.06021 20.4546 5.18989 20.0935 4.54799 19.4516C3.90608 18.8097 3.54502 17.9394 3.544 17.0316V6.96795C3.54502 6.06016 3.90608 5.18984 4.54799 4.54793C5.18989 3.90603 6.06021 3.54496 6.968 3.54395H17.032C17.9398 3.54496 18.8101 3.90603 19.452 4.54793C20.0939 5.18984 20.455 6.06016 20.456 6.96795V17.0319C20.4549 17.9397 20.0938 18.8099 19.4519 19.4517C18.81 20.0936 17.9397 20.4546 17.032 20.4556ZM6.968 4.82427C6.39953 4.82477 5.85449 5.05082 5.45252 5.45279C5.05056 5.85476 4.82451 6.3998 4.824 6.96826V17.0323C4.82451 17.6007 5.05056 18.1458 5.45252 18.5477C5.85449 18.9497 6.39953 19.1758 6.968 19.1763H17.032C17.6005 19.1758 18.1455 18.9497 18.5475 18.5477C18.9494 18.1458 19.1755 17.6007 19.176 17.0323V6.96795C19.1755 6.39948 18.9494 5.85444 18.5475 5.45247C18.1455 5.0505 17.6005 4.82445 17.032 4.82395L6.968 4.82427Z" fill="#202020"/>
<path d="M12.1133 16.3267C11.9955 16.3266 11.8801 16.2941 11.7795 16.2329C10.7529 15.6055 9.59683 15.22 8.39904 15.1059C8.13063 15.0814 7.88116 14.9571 7.69979 14.7578C7.51843 14.5584 7.41832 14.2983 7.4192 14.0288V8.79999C7.41919 8.65201 7.44955 8.50559 7.50839 8.36981C7.56722 8.23402 7.65329 8.11175 7.76127 8.01055C7.86924 7.90935 7.99683 7.83138 8.13614 7.78146C8.27545 7.73154 8.42352 7.71072 8.5712 7.72031C9.21591 7.76034 9.85468 7.86758 10.4771 8.04031C11.0415 8.19754 11.589 8.40998 12.1117 8.67455C12.6312 8.4059 13.1747 8.18639 13.735 8.01887C14.2691 7.85926 14.8158 7.74588 15.3693 7.67999C15.5212 7.66172 15.6752 7.67585 15.8212 7.72146C15.9673 7.76708 16.102 7.84313 16.2164 7.94461C16.3309 8.04609 16.4226 8.17069 16.4854 8.31019C16.5482 8.44969 16.5807 8.60092 16.5808 8.75391V14.0659C16.5808 14.319 16.492 14.5641 16.33 14.7585C16.1679 14.953 15.9427 15.0844 15.6938 15.1299C14.5485 15.3403 13.441 15.7198 12.4074 16.256C12.3164 16.3028 12.2156 16.3271 12.1133 16.3267ZM8.6992 13.8505C9.907 13.9893 11.0753 14.366 12.1366 14.959C12.7538 14.6604 13.3935 14.4108 14.0499 14.2128C14.4598 14.089 14.8797 13.985 15.3008 13.9021V8.98143C14.895 9.041 14.494 9.13009 14.1011 9.24799C13.5189 9.42187 12.9583 9.66093 12.4298 9.96063C12.3339 10.0153 12.2255 10.0442 12.1152 10.0446C12.0048 10.045 11.8963 10.0168 11.8 9.96287C11.2732 9.66852 10.7132 9.43809 10.1318 9.27647C9.66328 9.14594 9.18372 9.05875 8.6992 9.01599V13.8505Z" fill="#202020"/>
<path d="M12.1133 16.3267C11.9435 16.3267 11.7808 16.2593 11.6607 16.1393C11.5407 16.0192 11.4733 15.8564 11.4733 15.6867V9.40318C11.4733 9.23345 11.5407 9.07066 11.6607 8.95063C11.7808 8.83061 11.9435 8.76318 12.1133 8.76318C12.283 8.76318 12.4458 8.83061 12.5658 8.95063C12.6859 9.07066 12.7533 9.23345 12.7533 9.40318V15.6867C12.7533 15.8564 12.6859 16.0192 12.5658 16.1393C12.4458 16.2593 12.283 16.3267 12.1133 16.3267Z" fill="#202020"/>
</svg>
