<svg width="24" height="24" viewBox="0 0 24 24" fill="none" xmlns="http://www.w3.org/2000/svg">
<path d="M17.032 20.4556H6.968C5.08 20.4556 3.544 19.022 3.544 17.2604V8.02235C3.544 6.26043 5.08 4.82715 6.968 4.82715H8.88192C9.05166 4.82715 9.21444 4.89458 9.33447 5.0146C9.45449 5.13462 9.52192 5.29741 9.52192 5.46715C9.52192 5.63689 9.45449 5.79967 9.33447 5.9197C9.21444 6.03972 9.05166 6.10715 8.88192 6.10715H6.968C5.78592 6.10715 4.824 6.96635 4.824 8.02235V17.2604C4.824 18.3164 5.7856 19.1756 6.968 19.1756H17.032C18.2141 19.1756 19.176 18.3164 19.176 17.2604V8.02235C19.176 6.96635 18.216 6.10715 17.032 6.10715H15.1162C14.9464 6.10715 14.7836 6.03972 14.6636 5.9197C14.5436 5.79967 14.4762 5.63689 14.4762 5.46715C14.4762 5.29741 14.5436 5.13462 14.6636 5.0146C14.7836 4.89458 14.9464 4.82715 15.1162 4.82715H17.032C18.92 4.82715 20.456 6.26043 20.456 8.02235V17.2604C20.4557 19.022 18.9197 20.4556 17.032 20.4556Z" fill="#202020"/>
<path d="M14.3773 11.9556C14.1838 11.9557 13.9925 11.9153 13.8157 11.8369L12.1517 11.0935C12.1036 11.0729 12.0519 11.0623 11.9997 11.0623C11.9474 11.0623 11.8957 11.0729 11.8477 11.0935L10.1837 11.8369C9.97571 11.9294 9.74807 11.9691 9.52105 11.9523C9.29404 11.9356 9.07469 11.8629 8.88256 11.7409C8.55008 11.5239 8.352 11.1703 8.352 10.7937V4.0391C8.352 3.27814 9.00768 2.65894 9.81312 2.65894H14.1878C14.9933 2.65894 15.649 3.27814 15.649 4.0391V10.7937C15.649 11.1703 15.4499 11.5239 15.1168 11.7399C14.8963 11.8817 14.6394 11.9566 14.3773 11.9556ZM9.81216 3.93894C9.69984 3.93894 9.63104 4.00294 9.63104 4.0391V10.6756C9.64209 10.675 9.65295 10.6724 9.66304 10.6679L11.327 9.92485C11.5391 9.83024 11.7687 9.78134 12.001 9.78134C12.2332 9.78134 12.4628 9.83024 12.6749 9.92485L14.3389 10.6679C14.349 10.6724 14.3598 10.675 14.3709 10.6756V4.0391C14.3709 4.0039 14.3021 3.93894 14.1898 3.93894H9.81216Z" fill="#202020"/>
</svg>
