<svg width="24" height="24" viewBox="0 0 24 24" fill="none" xmlns="http://www.w3.org/2000/svg">
<path d="M12.3306 20.96C11.9326 20.9604 11.5415 20.856 11.1965 20.6573L5.39941 17.312C5.05498 17.1125 4.76894 16.826 4.56988 16.4813C4.37081 16.1366 4.26569 15.7456 4.26501 15.3476V8.65317C4.26558 8.25498 4.37065 7.86392 4.56972 7.51908C4.76879 7.17423 5.05489 6.88767 5.39941 6.68805L11.1965 3.34085C11.5416 3.1424 11.9327 3.03796 12.3308 3.03796C12.7288 3.03796 13.1199 3.1424 13.465 3.34085L19.2621 6.68805C19.6065 6.88763 19.8925 7.1741 20.0915 7.51883C20.2905 7.86356 20.3956 8.25448 20.3962 8.65253V13.4772C20.3962 13.6469 20.3288 13.8097 20.2088 13.9297C20.0887 14.0497 19.926 14.1172 19.7562 14.1172C19.5865 14.1172 19.4237 14.0497 19.3037 13.9297C19.1836 13.8097 19.1162 13.6469 19.1162 13.4772V8.65317C19.1159 8.47975 19.0701 8.30945 18.9834 8.15925C18.8967 8.00906 18.7721 7.88421 18.6221 7.79717L12.825 4.44997C12.6746 4.36355 12.5042 4.31808 12.3308 4.31808C12.1573 4.31808 11.9869 4.36355 11.8365 4.44997L6.03941 7.79717C5.88936 7.88417 5.76475 8.009 5.678 8.1592C5.59125 8.3094 5.54539 8.47972 5.54501 8.65317V15.3469C5.54539 15.5204 5.59125 15.6907 5.678 15.8409C5.76475 15.9911 5.88936 16.1159 6.03941 16.2029L11.8365 19.5501C11.9869 19.6365 12.1573 19.682 12.3308 19.682C12.5042 19.682 12.6746 19.6365 12.825 19.5501L16.889 17.2039C16.9618 17.1612 17.0424 17.1333 17.126 17.1219C17.2096 17.1105 17.2947 17.1157 17.3763 17.1373C17.4579 17.1588 17.5344 17.1963 17.6014 17.2476C17.6685 17.2989 17.7247 17.3629 17.7669 17.436C17.8091 17.5091 17.8365 17.5898 17.8474 17.6735C17.8582 17.7572 17.8524 17.8422 17.8303 17.9237C17.8082 18.0051 17.7702 18.0814 17.7185 18.1481C17.6668 18.2148 17.6024 18.2707 17.529 18.3124L13.465 20.6586C13.1199 20.8569 12.7286 20.9608 12.3306 20.96Z" fill="#202020"/>
<path d="M12.3305 12.6401C12.2182 12.6401 12.1078 12.6105 12.0105 12.5543L4.80314 8.3943C4.65735 8.30883 4.55127 8.16916 4.50808 8.00577C4.46488 7.84238 4.48806 7.66853 4.57257 7.52217C4.65707 7.37581 4.79603 7.26882 4.95913 7.22454C5.12223 7.18026 5.29622 7.20229 5.44314 7.28582L12.3305 11.2612L19.2179 7.28454C19.2907 7.24185 19.3712 7.21399 19.4548 7.20256C19.5385 7.19112 19.6235 7.19634 19.7051 7.21791C19.7867 7.23949 19.8632 7.27699 19.9303 7.32826C19.9973 7.37953 20.0536 7.44355 20.0958 7.51665C20.138 7.58974 20.1653 7.67046 20.1762 7.75416C20.1871 7.83786 20.1813 7.92289 20.1592 8.00434C20.1371 8.0858 20.0991 8.16207 20.0473 8.22878C19.9956 8.29548 19.9312 8.3513 19.8579 8.39302L12.6505 12.553C12.5534 12.6098 12.443 12.6398 12.3305 12.6401Z" fill="#202020"/>
<path d="M12.3306 20.9622C12.1608 20.9622 11.998 20.8948 11.878 20.7748C11.758 20.6548 11.6906 20.492 11.6906 20.3222V12C11.6906 11.8302 11.758 11.6675 11.878 11.5474C11.998 11.4274 12.1608 11.36 12.3306 11.36C12.5003 11.36 12.6631 11.4274 12.7831 11.5474C12.9031 11.6675 12.9706 11.8302 12.9706 12V20.3222C12.9706 20.492 12.9031 20.6548 12.7831 20.7748C12.6631 20.8948 12.5003 20.9622 12.3306 20.9622ZM19.5379 19.4941C18.8788 19.494 18.2345 19.2985 17.6865 18.9323C17.1385 18.5661 16.7114 18.0457 16.4592 17.4367C16.2069 16.8278 16.1409 16.1578 16.2694 15.5113C16.3979 14.8649 16.7153 14.2711 17.1812 13.805C17.6472 13.3388 18.241 13.0214 18.8874 12.8926C19.5338 12.7639 20.2038 12.8298 20.8128 13.0818C21.4218 13.3339 21.9424 13.7609 22.3088 14.3088C22.6751 14.8567 22.8708 15.5009 22.871 16.16C22.8704 17.0439 22.519 17.8914 21.8941 18.5164C21.2692 19.1415 20.4218 19.4931 19.5379 19.4941ZM19.5379 14.1085C19.1319 14.1085 18.735 14.229 18.3974 14.4547C18.0598 14.6803 17.7968 15.001 17.6415 15.3762C17.4862 15.7514 17.4457 16.1642 17.525 16.5624C17.6044 16.9606 17.8 17.3264 18.0873 17.6134C18.3745 17.9004 18.7404 18.0958 19.1387 18.1748C19.5369 18.2538 19.9497 18.213 20.3248 18.0574C20.6998 17.9018 21.0203 17.6385 21.2457 17.3008C21.4711 16.963 21.5913 16.566 21.591 16.16C21.5901 15.6159 21.3734 15.0944 20.9886 14.7098C20.6037 14.3252 20.082 14.109 19.5379 14.1085Z" fill="#202020"/>
<path d="M19.2816 17.6198C19.1431 17.6201 19.0082 17.5751 18.8976 17.4918L17.9814 16.8C17.8497 16.6965 17.7638 16.5454 17.7422 16.3793C17.7206 16.2132 17.765 16.0452 17.8658 15.9114C17.9667 15.7776 18.116 15.6888 18.2817 15.6639C18.4474 15.639 18.6162 15.68 18.752 15.7782L19.1744 16.0982L20.0157 15.0634C20.1248 14.9384 20.2782 14.8608 20.4435 14.8468C20.6088 14.8328 20.773 14.8835 20.9017 14.9882C21.0303 15.0929 21.1132 15.2435 21.133 15.4082C21.1528 15.5729 21.1078 15.7388 21.0077 15.871L19.7766 17.3846C19.7167 17.458 19.6412 17.5172 19.5555 17.5579C19.4699 17.5986 19.3764 17.6197 19.2816 17.6198Z" fill="#202020"/>
</svg>
