<svg width="24" height="24" viewBox="0 0 24 24" fill="none" xmlns="http://www.w3.org/2000/svg">
<path d="M11.9408 20.96C11.5427 20.9604 11.1515 20.856 10.8064 20.6573L5.00932 17.312C4.66493 17.1124 4.37894 16.826 4.17993 16.4812C3.98092 16.1365 3.87586 15.7456 3.87524 15.3475V8.65314C3.87574 8.25498 3.98075 7.86393 4.17977 7.51908C4.37878 7.17423 4.66483 6.88766 5.00932 6.68802L10.8064 3.34146C11.1515 3.14301 11.5426 3.03857 11.9407 3.03857C12.3387 3.03857 12.7298 3.14301 13.0749 3.34146L18.872 6.68802C19.2165 6.88751 19.5026 7.17395 19.7017 7.5187C19.9008 7.86344 20.0059 8.2544 20.0064 8.6525V13.4771C20.0064 13.6469 19.939 13.8097 19.819 13.9297C19.699 14.0497 19.5362 14.1171 19.3664 14.1171C19.1967 14.1171 19.0339 14.0497 18.9139 13.9297C18.7939 13.8097 18.7264 13.6469 18.7264 13.4771V8.65314C18.7261 8.47969 18.6802 8.30937 18.5935 8.15917C18.5067 8.00897 18.3821 7.88414 18.232 7.79714L12.4349 4.44994C12.2845 4.36352 12.1141 4.31805 11.9407 4.31805C11.7672 4.31805 11.5968 4.36352 11.4464 4.44994L5.64932 7.79714C5.49933 7.88418 5.37478 8.00903 5.28809 8.15922C5.2014 8.30942 5.15559 8.47972 5.15524 8.65314V15.3469C5.15559 15.5203 5.2014 15.6906 5.28809 15.8408C5.37478 15.991 5.49933 16.1159 5.64932 16.2029L11.4464 19.5501C11.5968 19.6365 11.7672 19.682 11.9407 19.682C12.1141 19.682 12.2845 19.6365 12.4349 19.5501L16.4989 17.2039C16.5717 17.1612 16.6523 17.1333 16.7359 17.1219C16.8195 17.1104 16.9046 17.1157 16.9862 17.1372C17.0678 17.1588 17.1443 17.1963 17.2114 17.2476C17.2784 17.2988 17.3347 17.3629 17.3769 17.436C17.4191 17.5091 17.4464 17.5898 17.4573 17.6735C17.4681 17.7572 17.4624 17.8422 17.4402 17.9237C17.4181 18.0051 17.3801 18.0814 17.3284 18.1481C17.2767 18.2148 17.2123 18.2706 17.1389 18.3123L13.0749 20.6586C12.7299 20.8568 12.3388 20.9608 11.9408 20.96Z" fill="#202020"/>
<path d="M11.9409 12.6401C11.8285 12.6402 11.7181 12.6106 11.6209 12.5543L4.41349 8.3943C4.2677 8.30883 4.16163 8.16916 4.11843 8.00577C4.07523 7.84238 4.09841 7.66853 4.18292 7.52217C4.26742 7.37581 4.40638 7.26882 4.56948 7.22454C4.73258 7.18026 4.90658 7.20229 5.05349 7.28582L11.9409 11.2612L18.8282 7.28454C18.901 7.24185 18.9816 7.21399 19.0652 7.20256C19.1488 7.19112 19.2339 7.19634 19.3155 7.21791C19.3971 7.23949 19.4736 7.27699 19.5406 7.32826C19.6077 7.37953 19.6639 7.44355 19.7061 7.51665C19.7483 7.58974 19.7757 7.67046 19.7865 7.75416C19.7974 7.83786 19.7916 7.92289 19.7695 8.00434C19.7474 8.0858 19.7094 8.16207 19.6577 8.22878C19.606 8.29548 19.5416 8.3513 19.4682 8.39302L12.2609 12.553C12.1637 12.6096 12.0533 12.6397 11.9409 12.6401Z" fill="#202020"/>
<path d="M11.9408 20.9622C11.771 20.9622 11.6083 20.8948 11.4882 20.7748C11.3682 20.6548 11.3008 20.492 11.3008 20.3222V12C11.3008 11.8302 11.3682 11.6675 11.4882 11.5474C11.6083 11.4274 11.771 11.36 11.9408 11.36C12.1105 11.36 12.2733 11.4274 12.3933 11.5474C12.5134 11.6675 12.5808 11.8302 12.5808 12V20.3222C12.5808 20.492 12.5134 20.6548 12.3933 20.7748C12.2733 20.8948 12.1105 20.9622 11.9408 20.9622ZM19.1481 19.4941C18.489 19.4941 17.8447 19.2986 17.2967 18.9325C16.7486 18.5663 16.3214 18.0459 16.0692 17.437C15.8169 16.8281 15.7508 16.158 15.8793 15.5115C16.0078 14.8651 16.3251 14.2712 16.791 13.8051C17.257 13.3389 17.8507 13.0214 18.4972 12.8927C19.1436 12.7639 19.8137 12.8297 20.4227 13.0818C21.0317 13.3338 21.5523 13.7608 21.9186 14.3087C22.285 14.8566 22.4807 15.5009 22.4809 16.16C22.4803 17.0438 22.129 17.8913 21.5041 18.5163C20.8793 19.1414 20.032 19.493 19.1481 19.4941ZM19.1481 14.1085C18.7421 14.1085 18.3451 14.2289 18.0075 14.4545C17.6699 14.6801 17.4068 15.0008 17.2515 15.376C17.0961 15.7512 17.0556 16.164 17.1349 16.5622C17.2142 16.9605 17.4098 17.3262 17.697 17.6133C17.9843 17.9003 18.3502 18.0957 18.7484 18.1748C19.1467 18.2538 19.5595 18.213 19.9346 18.0574C20.3097 17.9019 20.6302 17.6386 20.8556 17.3008C21.081 16.9631 21.2012 16.566 21.2009 16.16C21.2001 15.6159 20.9835 15.0944 20.5987 14.7098C20.2138 14.3252 19.6922 14.109 19.1481 14.1085Z" fill="#202020"/>
<path d="M19.8467 16.8H19.1482C19.0043 16.8 18.8646 16.7516 18.7517 16.6624L17.7155 15.8455C17.5822 15.7404 17.4962 15.5866 17.4762 15.418C17.4563 15.2495 17.5042 15.0799 17.6093 14.9466C17.7144 14.8133 17.8681 14.7272 18.0367 14.7073C18.2053 14.6874 18.3749 14.7352 18.5082 14.8404L19.3699 15.52H19.8467C20.0165 15.52 20.1792 15.5875 20.2993 15.7075C20.4193 15.8275 20.4867 15.9903 20.4867 16.16C20.4867 16.3298 20.4193 16.4926 20.2993 16.6126C20.1792 16.7326 20.0165 16.8 19.8467 16.8Z" fill="#202020"/>
</svg>
