<svg width="24" height="24" viewBox="0 0 24 24" fill="none" xmlns="http://www.w3.org/2000/svg">
<path d="M12 20.9601C11.6019 20.9605 11.2108 20.856 10.8659 20.6573L5.06877 17.3121C4.72448 17.1123 4.43865 16.8257 4.23986 16.4808C4.04107 16.136 3.93628 15.745 3.93597 15.3469V8.65317C3.93628 8.25513 4.04107 7.86414 4.23986 7.51928C4.43865 7.17443 4.72448 6.8878 5.06877 6.68805L10.8659 3.34085C11.2109 3.1424 11.602 3.03796 12 3.03796C12.398 3.03796 12.789 3.1424 13.1341 3.34085L18.9312 6.68805C19.2757 6.88755 19.5618 7.17399 19.7608 7.51873C19.9599 7.86348 20.065 8.25444 20.0656 8.65253V15.3469C20.0651 15.7451 19.9601 16.1362 19.761 16.4811C19.5619 16.826 19.2758 17.1125 18.9312 17.3121L13.1341 20.6586C12.789 20.8569 12.3979 20.9608 12 20.9601ZM12 4.31685C11.8266 4.31664 11.6561 4.36211 11.5059 4.44869L5.70877 7.79717C5.55902 7.88438 5.43472 8.00929 5.34826 8.15948C5.2618 8.30966 5.21619 8.47988 5.21597 8.65317V15.3469C5.21635 15.5204 5.26221 15.6907 5.34896 15.8409C5.43571 15.9911 5.56032 16.1159 5.71037 16.2029L11.5075 19.5501C11.6578 19.6365 11.8282 19.6819 12.0016 19.6819C12.175 19.6819 12.3453 19.6365 12.4957 19.5501L18.2912 16.2029C18.4412 16.1159 18.5658 15.9911 18.6526 15.8409C18.7393 15.6907 18.7852 15.5204 18.7856 15.3469V8.65317C18.7852 8.47972 18.7393 8.3094 18.6526 8.1592C18.5658 8.00901 18.4412 7.88418 18.2912 7.79717L12.4941 4.44997C12.3438 4.36339 12.1734 4.31792 12 4.31813V4.31685Z" fill="#202020"/>
<path d="M12 12.64C11.8877 12.64 11.7773 12.6104 11.68 12.5542L4.47264 8.3942C4.32684 8.30873 4.22077 8.16906 4.17757 8.00567C4.13437 7.84228 4.15756 7.66844 4.24206 7.52208C4.32656 7.37572 4.46553 7.26873 4.62863 7.22445C4.79173 7.18017 4.96572 7.20219 5.11264 7.28572L12 11.2611L18.8874 7.28444C19.0343 7.20091 19.2083 7.17888 19.3714 7.22317C19.5345 7.26745 19.6734 7.37444 19.7579 7.5208C19.8424 7.66716 19.8656 7.841 19.8224 8.00439C19.7792 8.16778 19.6732 8.30745 19.5274 8.39292L12.32 12.5542C12.2227 12.6104 12.1123 12.64 12 12.64Z" fill="#202020"/>
<path d="M12 20.9622C11.8302 20.9622 11.6675 20.8948 11.5474 20.7748C11.4274 20.6548 11.36 20.492 11.36 20.3222V12C11.36 11.8302 11.4274 11.6675 11.5474 11.5474C11.6675 11.4274 11.8302 11.36 12 11.36C12.1697 11.36 12.3325 11.4274 12.4525 11.5474C12.5726 11.6675 12.64 11.8302 12.64 12V20.3222C12.64 20.492 12.5726 20.6548 12.4525 20.7748C12.3325 20.8948 12.1697 20.9622 12 20.9622Z" fill="#202020"/>
</svg>
