<svg width="24" height="24" viewBox="0 0 24 24" fill="none" xmlns="http://www.w3.org/2000/svg">
<path d="M16.231 20.9346H7.76896C6.98978 20.9345 6.23612 20.6568 5.6432 20.1513C5.0368 19.6335 4.66592 18.9334 4.59936 18.1798L3.80192 9.14807C3.71744 8.19351 4.02592 7.25751 4.64544 6.58007C4.93962 6.25732 5.29847 6.00012 5.69863 5.82524C6.0988 5.65035 6.5313 5.56169 6.968 5.56503H17.032C17.4687 5.56169 17.9012 5.65035 18.3014 5.82524C18.7015 6.00012 19.0604 6.25732 19.3546 6.58007C19.975 7.25751 20.2826 8.19351 20.1981 9.14807L19.4006 18.1798C19.3341 18.9334 18.9632 19.6335 18.3568 20.1513C17.7639 20.6568 17.0102 20.9345 16.231 20.9346ZM6.968 6.84503C6.70902 6.84259 6.45243 6.8947 6.21491 6.99796C5.9774 7.10122 5.76429 7.25333 5.58944 7.44439C5.21088 7.85783 5.024 8.43639 5.07744 9.03543L5.87456 18.0671C5.95168 18.9423 6.80256 19.6546 7.76896 19.6546H16.231C17.1984 19.6546 18.0483 18.9423 18.1254 18.0671L18.9232 9.03543C18.976 8.43767 18.7891 7.85783 18.4112 7.44439C18.2363 7.25333 18.0232 7.10122 17.7857 6.99796C17.5482 6.8947 17.2916 6.84259 17.0326 6.84503H6.968Z" fill="#202020"/>
<path d="M14.8141 6.84509C14.6444 6.84509 14.4816 6.77766 14.3615 6.65764C14.2415 6.53762 14.1741 6.37483 14.1741 6.20509V4.95709C14.1741 4.65821 13.8506 4.40573 13.4675 4.40573H10.5325C10.1485 4.40573 9.82593 4.65821 9.82593 4.95709V6.20509C9.82593 6.37483 9.7585 6.53762 9.63848 6.65764C9.51845 6.77766 9.35567 6.84509 9.18593 6.84509C9.01619 6.84509 8.8534 6.77766 8.73338 6.65764C8.61336 6.53762 8.54593 6.37483 8.54593 6.20509V4.95709C8.54593 3.94717 9.43713 3.12573 10.5325 3.12573H13.4675C14.5629 3.12573 15.4541 3.94717 15.4541 4.95709V6.20509C15.4541 6.37483 15.3867 6.53762 15.2666 6.65764C15.1466 6.77766 14.9838 6.84509 14.8141 6.84509ZM12.7712 14.0941H11.2288C10.8781 14.0937 10.5418 13.9542 10.2938 13.7062C10.0458 13.4582 9.90627 13.1219 9.90593 12.7712V11.2288C9.90627 10.878 10.0458 10.5417 10.2938 10.2937C10.5418 10.0457 10.8781 9.90623 11.2288 9.90589H12.7712C13.122 9.90623 13.4582 10.0457 13.7063 10.2937C13.9543 10.5417 14.0938 10.878 14.0941 11.2288V12.7712C14.0938 13.1219 13.9543 13.4582 13.7063 13.7062C13.4582 13.9542 13.122 14.0937 12.7712 14.0941ZM11.2288 11.1859C11.2174 11.1859 11.2065 11.1904 11.1985 11.1985C11.1904 11.2065 11.1859 11.2174 11.1859 11.2288V12.7712C11.1859 12.7825 11.1904 12.7935 11.1985 12.8015C11.2065 12.8095 11.2174 12.8141 11.2288 12.8141H12.7712C12.7826 12.8141 12.7935 12.8095 12.8015 12.8015C12.8096 12.7935 12.8141 12.7825 12.8141 12.7712V11.2288C12.8141 11.2174 12.8096 11.2065 12.8015 11.1985C12.7935 11.1904 12.7826 11.1859 12.7712 11.1859H11.2288Z" fill="#202020"/>
<path d="M10.3488 12.5955C10.3225 12.5955 10.2962 12.5939 10.2701 12.5907C6.96833 12.1853 4.13185 9.67552 4.01249 9.568C3.88784 9.4543 3.81313 9.29599 3.80461 9.12749C3.79608 8.959 3.85443 8.79395 3.96697 8.66826C4.0795 8.54256 4.23712 8.46639 4.40553 8.4563C4.57393 8.44622 4.73951 8.50303 4.86625 8.6144C4.91201 8.65504 7.53985 10.9651 10.4262 11.3197C10.5879 11.3396 10.7359 11.4204 10.8401 11.5456C10.9442 11.6709 10.9967 11.8311 10.9868 11.9937C10.977 12.1563 10.9055 12.309 10.7869 12.4207C10.6684 12.5324 10.5117 12.5947 10.3488 12.5949V12.5955ZM13.6186 12.5994C13.4555 12.599 13.2987 12.5364 13.1802 12.4244C13.0617 12.3124 12.9905 12.1593 12.981 11.9965C12.9715 11.8338 13.0245 11.6735 13.1292 11.5485C13.2339 11.4234 13.3824 11.3431 13.5443 11.3238C16.4634 10.9792 19.1075 8.64 19.1338 8.61504C19.1958 8.55611 19.2691 8.51023 19.3492 8.48012C19.4294 8.45 19.5147 8.43627 19.6003 8.43973C19.6858 8.44319 19.7698 8.46378 19.8472 8.50026C19.9246 8.53675 19.9939 8.5884 20.0511 8.65215C20.1082 8.71591 20.1519 8.79047 20.1797 8.87143C20.2075 8.9524 20.2188 9.03811 20.2128 9.1235C20.2069 9.2089 20.1839 9.29223 20.1452 9.36858C20.1065 9.44493 20.0529 9.51274 19.9875 9.568C19.8675 9.67552 17.0115 12.2026 13.6944 12.5942C13.6693 12.5975 13.6439 12.5992 13.6186 12.5994Z" fill="#202020"/>
</svg>
