<svg width="24" height="24" viewBox="0 0 24 24" fill="none" xmlns="http://www.w3.org/2000/svg">
<path d="M16.231 20.9346H7.76896C6.98978 20.9345 6.23612 20.6568 5.6432 20.1513C5.0368 19.6335 4.66592 18.9334 4.59936 18.1798L3.80192 9.14807C3.71744 8.19351 4.02592 7.25751 4.64544 6.58007C4.93959 6.25729 5.29844 6.00007 5.69861 5.82519C6.09878 5.6503 6.53129 5.56166 6.968 5.56503H17.032C17.4687 5.5617 17.9012 5.65036 18.3014 5.82524C18.7015 6.00013 19.0604 6.25732 19.3546 6.58007C19.975 7.25751 20.2826 8.19351 20.1981 9.14807L19.4006 18.1798C19.3341 18.9334 18.9632 19.6335 18.3568 20.1513C17.7639 20.6568 17.0102 20.9345 16.231 20.9346ZM6.968 6.84503C6.70902 6.84259 6.45243 6.8947 6.21491 6.99796C5.9774 7.10123 5.76429 7.25333 5.58944 7.44439C5.21088 7.85783 5.024 8.43639 5.07744 9.03543L5.87456 18.0671C5.95168 18.9423 6.80256 19.6546 7.76896 19.6546H16.231C17.1984 19.6546 18.0483 18.9423 18.1254 18.0671L18.9232 9.03543C18.976 8.43767 18.7891 7.85783 18.4112 7.44439C18.2363 7.25333 18.0232 7.10123 17.7857 6.99796C17.5482 6.8947 17.2916 6.84259 17.0326 6.84503H6.968Z" fill="#202020"/>
<path d="M14.8141 6.84509C14.6443 6.84509 14.4816 6.77766 14.3615 6.65764C14.2415 6.53762 14.1741 6.37483 14.1741 6.20509V4.95709C14.1741 4.65821 13.8506 4.40573 13.4675 4.40573H10.5325C10.1485 4.40573 9.82592 4.65821 9.82592 4.95709V6.20509C9.82592 6.37483 9.75849 6.53762 9.63847 6.65764C9.51844 6.77766 9.35565 6.84509 9.18592 6.84509C9.01618 6.84509 8.85339 6.77766 8.73337 6.65764C8.61335 6.53762 8.54592 6.37483 8.54592 6.20509V4.95709C8.54592 3.94717 9.43712 3.12573 10.5325 3.12573H13.4675C14.5629 3.12573 15.4541 3.94717 15.4541 4.95709V6.20509C15.4541 6.37483 15.3866 6.53762 15.2666 6.65764C15.1466 6.77766 14.9838 6.84509 14.8141 6.84509ZM8.88512 12.2704C8.81995 12.2702 8.7552 12.2601 8.69312 12.2403C6.10112 11.4211 4.09792 9.64413 4.01376 9.56861C3.8886 9.45508 3.81341 9.29666 3.80461 9.12791C3.79581 8.95916 3.8541 8.79378 3.96677 8.66784C4.07944 8.54191 4.23734 8.46564 4.40603 8.45569C4.57471 8.44573 4.74049 8.50289 4.8672 8.61469C4.88576 8.63133 6.75808 10.2861 9.07904 11.0201C9.22468 11.0662 9.34906 11.1628 9.4297 11.2925C9.51034 11.4222 9.54192 11.5765 9.51873 11.7275C9.49554 11.8785 9.41912 12.0162 9.30327 12.1158C9.18742 12.2153 9.03979 12.2702 8.88704 12.2704H8.88512ZM14.9926 12.3081C14.8389 12.3083 14.6902 12.2532 14.5738 12.1527C14.4574 12.0523 14.381 11.9134 14.3587 11.7613C14.3363 11.6092 14.3694 11.4541 14.452 11.3244C14.5345 11.1947 14.661 11.0991 14.8083 11.055C17.1818 10.3401 19.1149 8.63197 19.1341 8.61469C19.2613 8.50709 19.4255 8.45335 19.5917 8.46488C19.7579 8.47641 19.9131 8.55232 20.0242 8.67646C20.1353 8.80059 20.1937 8.96318 20.1868 9.12966C20.18 9.29614 20.1085 9.45338 19.9875 9.56797C19.9005 9.64573 17.8304 11.4809 15.1776 12.28C15.1177 12.2984 15.0553 12.3079 14.9926 12.3081Z" fill="#202020"/>
<path d="M12 15.6329C11.2815 15.6329 10.5791 15.4198 9.98164 15.0206C9.3842 14.6214 8.91856 14.054 8.64359 13.3902C8.36862 12.7263 8.29667 11.9959 8.43685 11.2911C8.57703 10.5864 8.92303 9.93909 9.43111 9.43101C9.93919 8.92294 10.5865 8.57693 11.2912 8.43675C11.996 8.29657 12.7264 8.36852 13.3903 8.64349C14.0541 8.91846 14.6215 9.3841 15.0207 9.98154C15.4199 10.579 15.633 11.2814 15.633 11.9999C15.6319 12.9631 15.2488 13.8865 14.5677 14.5676C13.8866 15.2487 12.9632 15.6318 12 15.6329ZM12 9.64694C11.5346 9.64694 11.0797 9.78494 10.6928 10.0435C10.3058 10.302 10.0042 10.6695 9.82615 11.0995C9.64806 11.5294 9.60147 12.0025 9.69226 12.4589C9.78305 12.9154 10.0071 13.3346 10.3362 13.6637C10.6653 13.9928 11.0845 14.2169 11.541 14.3077C11.9974 14.3984 12.4705 14.3518 12.9004 14.1738C13.3304 13.9957 13.6979 13.6941 13.9564 13.3071C14.215 12.9202 14.353 12.4653 14.353 11.9999C14.3522 11.3761 14.1041 10.7781 13.663 10.337C13.2219 9.89585 12.6238 9.64771 12 9.64694Z" fill="#202020"/>
<path d="M12 12.6399C11.9196 12.6399 11.8399 12.6247 11.7651 12.5951L11.1523 12.3519C11.0729 12.3219 11.0003 12.2765 10.9386 12.2181C10.877 12.1598 10.8275 12.0899 10.7932 12.0123C10.7588 11.9347 10.7402 11.851 10.7385 11.7662C10.7368 11.6813 10.7519 11.597 10.7831 11.5181C10.8143 11.4391 10.8608 11.3672 10.9201 11.3064C10.9793 11.2457 11.05 11.1973 11.1281 11.1641C11.2062 11.1309 11.2901 11.1136 11.375 11.1132C11.4599 11.1127 11.5439 11.1291 11.6224 11.1615L11.9136 11.2764L12.736 10.6975C12.8748 10.5997 13.0467 10.561 13.214 10.5899C13.3813 10.6189 13.5302 10.7131 13.628 10.8519C13.7258 10.9906 13.7645 11.1626 13.7355 11.3299C13.7066 11.4971 13.6124 11.6461 13.4736 11.7439L12.369 12.5231C12.261 12.5992 12.1321 12.64 12 12.6399Z" fill="#202020"/>
</svg>
