<svg width="24" height="24" viewBox="0 0 24 24" fill="none" xmlns="http://www.w3.org/2000/svg">
<path d="M14.0775 13.6397C13.9748 13.6397 13.8714 13.6362 13.7681 13.6288C12.9288 13.5689 12.1262 13.2615 11.4617 12.7454C10.7972 12.2293 10.3006 11.5277 10.0348 10.7294C9.76901 9.93114 9.74591 9.07195 9.96842 8.26053C10.1909 7.4491 10.6491 6.72188 11.2849 6.17082C11.9207 5.61977 12.7056 5.26963 13.5405 5.16469C14.3753 5.05975 15.2225 5.20472 15.9749 5.58127C16.7273 5.95781 17.3512 6.54902 17.7676 7.28014C18.184 8.01125 18.3743 8.84942 18.3143 9.68867C18.2373 10.7605 17.7578 11.7634 16.9719 12.4963C16.186 13.2292 15.1521 13.6376 14.0775 13.6397ZM14.0666 6.41123C13.4875 6.41202 12.9213 6.58182 12.4373 6.89981C11.9534 7.21781 11.5728 7.67016 11.3422 8.20136C11.1116 8.73257 11.0411 9.31952 11.1394 9.89021C11.2376 10.4609 11.5003 10.9905 11.8952 11.414C12.2901 11.8376 12.8001 12.1366 13.3625 12.2745C13.9249 12.4124 14.5154 12.3831 15.0614 12.1902C15.6074 11.9973 16.0852 11.6492 16.4363 11.1887C16.7873 10.7281 16.9963 10.1751 17.0375 9.59747C17.0937 8.81071 16.835 8.03386 16.3184 7.43778C15.8019 6.8417 15.0697 6.47521 14.2829 6.41891C14.2106 6.41379 14.1383 6.41123 14.0666 6.41123ZM8.62983 18.816C8.55943 18.816 8.4886 18.8135 8.41735 18.8083C7.64607 18.7526 6.92752 18.3963 6.41633 17.816C5.90513 17.2358 5.64216 16.4781 5.68402 15.7059C5.72587 14.9338 6.06919 14.2089 6.64011 13.6874C7.21102 13.1658 7.96388 12.8892 8.73666 12.9172C9.50945 12.9451 10.2404 13.2753 10.7721 13.8367C11.3039 14.3981 11.594 15.1459 11.58 15.9191C11.566 16.6922 11.249 17.429 10.6973 17.9708C10.1455 18.5126 9.40312 18.8161 8.62983 18.816ZM8.62535 14.1901C8.29964 14.1906 7.98115 14.2861 7.70894 14.4649C7.43674 14.6438 7.22268 14.8982 7.093 15.197C6.96333 15.4958 6.9237 15.826 6.97897 16.1469C7.03424 16.4679 7.182 16.7658 7.40413 17.004C7.62627 17.2422 7.9131 17.4104 8.22945 17.4879C8.5458 17.5655 8.8779 17.549 9.185 17.4405C9.49211 17.332 9.76086 17.1362 9.95828 16.8771C10.1557 16.618 10.2732 16.307 10.2964 15.9821C10.3121 15.763 10.2844 15.5429 10.2151 15.3344C10.1457 15.126 10.0359 14.9332 9.89202 14.7672C9.74814 14.6012 9.57295 14.4651 9.37648 14.3668C9.18001 14.2685 8.96609 14.2099 8.74695 14.1943C8.70631 14.1927 8.66567 14.1911 8.62535 14.1911V14.1901ZM15.5946 18.8688C15.5415 18.8688 15.4884 18.8669 15.4346 18.8631C14.9969 18.8318 14.5784 18.6715 14.2318 18.4023C13.8852 18.1332 13.6263 17.7673 13.4876 17.351C13.349 16.9347 13.337 16.4866 13.453 16.0634C13.5691 15.6402 13.808 15.261 14.1396 14.9736C14.4712 14.6862 14.8806 14.5036 15.316 14.4489C15.7513 14.3942 16.1932 14.4698 16.5856 14.6662C16.978 14.8626 17.3033 15.1709 17.5204 15.5522C17.7376 15.9335 17.8368 16.3707 17.8055 16.8083C17.7648 17.3673 17.5144 17.8903 17.1044 18.2724C16.6944 18.6545 16.1551 18.8676 15.5946 18.8688ZM15.5914 15.7117C15.4087 15.712 15.23 15.7656 15.0774 15.866C14.9247 15.9663 14.8046 16.1091 14.7319 16.2767C14.6591 16.4443 14.6369 16.6295 14.6679 16.8096C14.6989 16.9896 14.7818 17.1567 14.9064 17.2904C15.0311 17.424 15.192 17.5184 15.3694 17.5618C15.5469 17.6053 15.7332 17.5961 15.9055 17.5352C16.0778 17.4744 16.2285 17.3645 16.3393 17.2192C16.4501 17.0739 16.516 16.8994 16.529 16.7171C16.5465 16.469 16.4647 16.224 16.3018 16.036C16.1389 15.848 15.908 15.7323 15.6599 15.7143C15.6369 15.712 15.6141 15.712 15.5914 15.712V15.7117Z" fill="#202020"/>
</svg>
