<svg width="24" height="24" viewBox="0 0 24 24" fill="none" xmlns="http://www.w3.org/2000/svg">
<path d="M9.57022 15.7031H9.55774C9.46593 15.7014 9.37555 15.6801 9.29273 15.6404C9.2099 15.6008 9.13658 15.5438 9.07774 15.4733L7.9139 14.0768C7.81786 13.9617 7.76526 13.8166 7.76526 13.6667C7.76526 13.5169 7.81786 13.3717 7.9139 13.2567L9.1395 11.7885C9.20079 11.7151 9.27775 11.6563 9.36473 11.6166C9.45171 11.5768 9.54649 11.557 9.64211 11.5587C9.73773 11.5604 9.83176 11.5835 9.91728 11.6263C10.0028 11.6691 10.0776 11.7306 10.1363 11.8061L11.3049 13.3101C11.397 13.429 11.4442 13.5765 11.4384 13.7268C11.4325 13.8771 11.374 14.0205 11.2729 14.1319L10.0438 15.4919C9.98398 15.5582 9.91093 15.6112 9.82937 15.6476C9.7478 15.6839 9.65953 15.7028 9.57022 15.7031ZM9.2387 13.6669L9.5907 14.0874L9.96606 13.6714L9.61406 13.2183L9.2387 13.6669ZM14.368 14.8595C14.108 14.8596 13.8485 14.8376 13.5923 14.7936C13.5087 14.7803 13.4285 14.7505 13.3565 14.7059C13.2844 14.6614 13.222 14.603 13.1727 14.5341C13.1234 14.4653 13.0882 14.3873 13.0693 14.3048C13.0503 14.2222 13.0479 14.1367 13.0623 14.0533C13.0766 13.9698 13.1074 13.89 13.1528 13.8185C13.1982 13.747 13.2573 13.6852 13.3268 13.6368C13.3962 13.5883 13.4746 13.5541 13.5574 13.5361C13.6401 13.5182 13.7256 13.5168 13.8089 13.5322C13.9936 13.5637 14.1806 13.5795 14.368 13.5795C15.23 13.5675 16.0525 13.2166 16.6578 12.6028C17.2631 11.989 17.6025 11.1616 17.6025 10.2995C17.6025 9.43747 17.2631 8.61006 16.6578 7.99625C16.0525 7.38244 15.23 7.03157 14.368 7.01953C12.7277 7.01953 11.328 8.24353 11.1161 9.86753C11.094 10.0358 11.0059 10.1884 10.8712 10.2918C10.7366 10.3951 10.5664 10.4407 10.3981 10.4186C10.2298 10.3964 10.0772 10.3083 9.97382 10.1737C9.87048 10.039 9.82487 9.86879 9.84702 9.70049C10.144 7.44289 12.087 5.74017 14.368 5.74017C16.8822 5.74017 18.928 7.78593 18.928 10.3005C18.928 12.8151 16.8835 14.8595 14.368 14.8595Z" fill="#202020"/>
<path d="M9.63202 18.2656C7.11778 18.2656 5.07202 16.2198 5.07202 13.7056C5.07202 11.1913 7.1165 9.14526 9.63202 9.14526C12.1475 9.14526 14.1911 11.191 14.1911 13.7056C14.1911 16.2201 12.1453 18.2656 9.63202 18.2656ZM9.63202 10.4256C8.98317 10.4253 8.34881 10.6175 7.80919 10.9778C7.26957 11.3381 6.84892 11.8504 6.60046 12.4498C6.35199 13.0492 6.28687 13.7088 6.41332 14.3452C6.53977 14.9816 6.85212 15.5662 7.31087 16.0251C7.76961 16.484 8.35413 16.7965 8.99051 16.9231C9.62688 17.0498 10.2865 16.9848 10.886 16.7366C11.4855 16.4883 11.9978 16.0678 12.3583 15.5283C12.7188 14.9887 12.9111 14.3544 12.9111 13.7056C12.9101 12.8361 12.5644 12.0025 11.9497 11.3875C11.335 10.7726 10.5015 10.4265 9.63202 10.4253V10.4256Z" fill="#202020"/>
</svg>
