<svg width="24" height="24" viewBox="0 0 24 24" fill="none" xmlns="http://www.w3.org/2000/svg">
<path d="M17.5809 20.9478H6.82886C6.07789 20.9478 5.35696 20.6529 4.82121 20.1267C4.28546 19.6005 3.97772 18.8849 3.96422 18.1341L3.79846 10.1862V10.1843C3.78649 9.42774 4.07369 8.69702 4.5976 8.15105C5.12151 7.60509 5.83978 7.28803 6.59622 7.26881L7.38534 7.25025C7.52027 7.24766 7.64885 7.1925 7.74371 7.09651C7.83857 7.00051 7.8922 6.87128 7.89318 6.73633L7.89606 6.49537C7.90465 5.7485 8.20738 5.03514 8.73857 4.51006C9.26977 3.98498 9.98658 3.69052 10.7335 3.69057H13.8375C14.5899 3.69116 15.3114 3.99026 15.8436 4.52223C16.3757 5.0542 16.675 5.77556 16.6759 6.52801V6.80001C16.6762 6.9379 16.7311 7.07006 16.8286 7.16753C16.9261 7.26501 17.0583 7.31984 17.1962 7.32001H17.746C18.1265 7.31999 18.5033 7.3958 18.8542 7.54301C19.2052 7.69022 19.5233 7.90588 19.7899 8.1774C20.0566 8.44892 20.2665 8.77084 20.4073 9.12438C20.5482 9.47792 20.6172 9.85598 20.6103 10.2365L20.4452 18.136C20.4313 18.8865 20.1235 19.6016 19.5878 20.1275C19.0522 20.6533 18.3315 20.9479 17.5809 20.9478ZM5.07846 10.1613L5.24422 18.1094C5.2533 18.5245 5.42403 18.9196 5.72005 19.2107C6.01608 19.5018 6.41403 19.6658 6.82918 19.6678H17.5812C17.9958 19.6658 18.3933 19.5021 18.6892 19.2116C18.985 18.921 19.1559 18.5266 19.1655 18.112L19.3306 10.2122C19.3341 10.0018 19.2958 9.79289 19.2177 9.59754C19.1397 9.40219 19.0235 9.22433 18.876 9.07434C18.7285 8.92434 18.5526 8.8052 18.3586 8.72388C18.1646 8.64255 17.9563 8.60066 17.746 8.60065H17.1962C16.719 8.60014 16.2614 8.41034 15.9239 8.0729C15.5864 7.73545 15.3965 7.27791 15.3959 6.80065V6.52801C15.3954 6.1151 15.2311 5.71926 14.9392 5.42729C14.6472 5.13532 14.2514 4.97108 13.8385 4.97057H10.7345C10.3249 4.97195 9.93227 5.13403 9.64101 5.42194C9.34975 5.70985 9.18313 6.10059 9.17702 6.51009L9.17414 6.75105C9.1708 7.21822 8.98515 7.66562 8.65675 7.99791C8.32834 8.3302 7.88316 8.5211 7.41606 8.52993L6.62726 8.54817C6.20878 8.55891 5.81145 8.73437 5.52161 9.03643C5.23178 9.33848 5.07287 9.74272 5.07942 10.1613H5.07846Z" fill="#202020"/>
<path d="M12.2047 17.3184C11.5425 17.3185 10.8952 17.1223 10.3445 16.7545C9.79391 16.3867 9.36471 15.8639 9.11123 15.2522C8.85774 14.6404 8.79135 13.9673 8.92045 13.3178C9.04956 12.6684 9.36836 12.0718 9.83654 11.6035C10.3047 11.1352 10.9012 10.8163 11.5507 10.6871C12.2001 10.5579 12.8733 10.6241 13.4851 10.8775C14.0968 11.1309 14.6197 11.56 14.9876 12.1105C15.3555 12.6611 15.5519 13.3084 15.5519 13.9706C15.551 14.8581 15.198 15.709 14.5705 16.3366C13.943 16.9642 13.0922 17.3173 12.2047 17.3184ZM12.2047 11.903C11.7957 11.9029 11.3958 12.0241 11.0556 12.2512C10.7155 12.4784 10.4504 12.8013 10.2938 13.1792C10.1372 13.557 10.0961 13.9728 10.1759 14.374C10.2556 14.7752 10.4525 15.1437 10.7417 15.4329C11.0309 15.7222 11.3994 15.9192 11.8006 15.999C12.2017 16.0788 12.6176 16.0378 12.9954 15.8813C13.3733 15.7247 13.6963 15.4596 13.9235 15.1195C14.1507 14.7794 14.2719 14.3796 14.2719 13.9706C14.271 13.4226 14.053 12.8974 13.6654 12.51C13.2779 12.1226 12.7526 11.9047 12.2047 11.904V11.903ZM13.9042 7.27487H10.6204C10.4506 7.27487 10.2878 7.20744 10.1678 7.08742C10.0478 6.9674 9.98036 6.80461 9.98036 6.63487C9.98036 6.46513 10.0478 6.30235 10.1678 6.18232C10.2878 6.0623 10.4506 5.99487 10.6204 5.99487H13.9042C14.0739 5.99487 14.2367 6.0623 14.3568 6.18232C14.4768 6.30235 14.5442 6.46513 14.5442 6.63487C14.5442 6.80461 14.4768 6.9674 14.3568 7.08742C14.2367 7.20744 14.0739 7.27487 13.9042 7.27487Z" fill="#202020"/>
</svg>
