<svg width="24" height="24" viewBox="0 0 24 24" fill="none" xmlns="http://www.w3.org/2000/svg">
<path d="M19.5 17C18.9905 17 18.5179 17.1542 18.1227 17.4158L16.0198 15.3129C18.766 12.4635 20.7911 8.99634 21.9033 5.19342C22.0297 4.74689 22.0297 4.27399 21.9033 3.82745C21.5261 2.49493 20.1401 1.72052 18.8076 2.09772C14.949 3.23383 11.5007 5.27954 8.68762 7.98071L6.5835 5.87659C6.84515 5.48157 6.99951 5.00922 7 4.5C7 3.11926 5.88074 2 4.5 2C3.11926 2 2 3.11926 2 4.5C2 5.88074 3.11926 7 4.5 7C5.00916 6.99951 5.48157 6.84515 5.87653 6.58356L7.98065 8.68768C5.2793 11.5004 3.23322 14.9483 2.09668 18.8067C2.0365 19.0205 2.00494 19.2414 2.00287 19.4635C1.98956 20.8522 3.10449 21.9887 4.49316 22.002C4.72974 22.0019 4.96515 21.9684 5.19238 21.9023C8.99561 20.7906 12.4631 18.7657 15.3128 16.0198L17.4158 18.1228C17.1541 18.5179 17 18.9906 17 19.5C17 20.8807 18.1193 22 19.5 22C20.8802 21.9987 21.9987 20.8802 22 19.5C22 18.1193 20.8807 17 19.5 17ZM4.5 6C3.67157 6 3 5.32843 3 4.5C3 3.67157 3.67157 3 4.5 3C5.32806 3.00092 5.99908 3.67194 6 4.5C6 5.32843 5.32843 6 4.5 6ZM19.085 3.05859C19.2202 3.01929 19.3602 2.99921 19.501 2.99902C19.6313 3.00055 19.7608 3.01886 19.8864 3.05359C20.6923 3.27625 21.165 4.11011 20.9424 4.91602C20.2795 7.18176 19.2749 9.32141 17.9826 11.2756L12.7292 6.02222C14.666 4.74274 16.7991 3.73206 19.085 3.05859ZM4.91498 20.9414C4.65009 21.0153 4.37006 21.0153 4.1051 20.9414C3.30298 20.7178 2.83398 19.8862 3.05762 19.084C3.73138 16.7983 4.74219 14.6653 6.02179 12.7288L11.2752 17.9822C9.3208 19.2744 7.18097 20.2788 4.91498 20.9414ZM12.1082 17.4012L6.60181 11.8948C7.24023 11.0133 7.9364 10.1782 8.68762 9.39465L14.6057 15.3127C13.8203 16.0684 12.9857 16.765 12.1082 17.4012ZM15.3127 14.6058L9.39465 8.68774C10.1782 7.93658 11.0134 7.24048 11.8951 6.60211L17.4015 12.1085C16.7651 12.986 16.0685 13.8204 15.3127 14.6058ZM19.5 21C18.6716 21 18 20.3284 18 19.5C18 18.6716 18.6716 18 19.5 18C20.3281 18.0009 20.9991 18.6719 21 19.5C21 20.3284 20.3284 21 19.5 21Z" fill="#202020"/>
</svg>
