<svg width="24" height="24" viewBox="0 0 24 24" fill="none" xmlns="http://www.w3.org/2000/svg">
<g clip-path="url(#clip0_3_235)">
<path d="M2.25 17.25C2.25 19.7353 4.26472 21.75 6.75 21.75H7.5C7.91423 21.75 8.25 22.0858 8.25 22.5C8.25 22.9142 7.91423 23.25 7.5 23.25H6.75C3.43629 23.25 0.75 20.5637 0.75 17.25V16.5C0.75 16.0858 1.08579 15.75 1.5 15.75C1.91421 15.75 2.25 16.0858 2.25 16.5V17.25ZM16.5 23.25C16.0858 23.25 15.75 22.9142 15.75 22.5C15.75 22.0858 16.0858 21.75 16.5 21.75H17.25C19.7353 21.75 21.75 19.7353 21.75 17.25V16.5C21.75 16.0858 22.0858 15.75 22.5 15.75C22.9142 15.75 23.25 16.0858 23.25 16.5V17.25C23.25 20.5637 20.5637 23.25 17.25 23.25H16.5ZM2.25 7.5C2.25 7.91423 1.91421 8.25 1.5 8.25C1.08579 8.25 0.75 7.91423 0.75 7.5V6.75C0.75 3.43629 3.43629 0.75 6.75 0.75H7.5C7.91423 0.75 8.25 1.08579 8.25 1.5C8.25 1.91421 7.91423 2.25 7.5 2.25H6.75C4.26472 2.25 2.25 4.26472 2.25 6.75V7.5ZM23.25 7.5C23.25 7.91423 22.9142 8.25 22.5 8.25C22.0858 8.25 21.75 7.91423 21.75 7.5V6.75C21.75 4.26472 19.7353 2.25 17.25 2.25H16.5C16.0858 2.25 15.75 1.91421 15.75 1.5C15.75 1.08579 16.0858 0.75 16.5 0.75H17.25C20.5637 0.75 23.25 3.43629 23.25 6.75V7.5ZM10.3125 3.375C8.03434 3.375 6.1875 5.22184 6.1875 7.5V9.75C6.1875 10.1642 6.52327 10.5 6.9375 10.5C7.35173 10.5 7.6875 10.1642 7.6875 9.75V7.5C7.6875 6.05025 8.86275 4.875 10.3125 4.875H13.6875C15.1372 4.875 16.3125 6.05025 16.3125 7.5V9.75C16.3125 10.1642 16.6483 10.5 17.0625 10.5C17.4767 10.5 17.8125 10.1642 17.8125 9.75V7.5C17.8125 5.22184 15.9657 3.375 13.6875 3.375H10.3125Z" fill="#202020"/>
<path d="M9.18752 7.3125C8.77329 7.3125 8.43752 7.64828 8.43752 8.0625C8.43752 8.47672 8.77329 8.8125 9.18752 8.8125H14.8125C15.2267 8.8125 15.5625 8.47672 15.5625 8.0625C15.5625 7.64828 15.2267 7.3125 14.8125 7.3125H9.18752ZM5.81945 11.2307C5.5499 10.9162 5.07643 10.8797 4.76192 11.1493C4.44744 11.4189 4.41099 11.8923 4.68058 12.2069L5.55557 13.2277C5.96338 13.7034 6.18752 14.3094 6.18752 14.936V16.5C6.18752 18.7782 8.03435 20.625 10.3125 20.625H13.6875C15.9657 20.625 17.8125 18.7782 17.8125 16.5V14.936C17.8125 14.3094 18.0367 13.7034 18.4445 13.2277L19.3195 12.2069C19.589 11.8923 19.5526 11.4189 19.2381 11.1493C18.9236 10.8797 18.4501 10.9162 18.1806 11.2307L17.3056 12.2515C16.6648 12.9991 16.3125 13.9513 16.3125 14.936V16.5C16.3125 17.9497 15.1373 19.125 13.6875 19.125H10.3125C8.86277 19.125 7.68752 17.9497 7.68752 16.5V14.936C7.68752 13.9513 7.33528 12.9991 6.69444 12.2515L5.81945 11.2307Z" fill="#202020"/>
<path d="M9.46062 13.7448C9.18162 13.4387 8.70724 13.4166 8.40109 13.6956C8.09494 13.9746 8.07289 14.449 8.35189 14.7552C10.358 16.9566 13.642 16.9566 15.6481 14.7552C15.9271 14.449 15.9051 13.9746 15.5989 13.6956C15.2928 13.4166 14.8184 13.4387 14.5394 13.7448C13.1283 15.2934 10.8717 15.2934 9.46062 13.7448Z" fill="#202020"/>
</g>
<defs>
<clipPath id="clip0_3_235">
<rect width="24" height="24" fill="white"/>
</clipPath>
</defs>
</svg>
