<svg width="24" height="24" viewBox="0 0 24 24" fill="none" xmlns="http://www.w3.org/2000/svg">
<path d="M17.2631 7.59967C17.2675 7.51062 17.2819 7.42224 17.2813 7.33301C17.2814 7.31928 17.2814 7.30554 17.2813 7.29187C17.27 4.37506 14.8962 2.01984 11.9795 2.03119C9.06274 2.04254 6.70745 4.41626 6.71881 7.33301C6.71813 7.42749 6.73315 7.52112 6.73809 7.61542C4.54504 8.29633 3.01061 10.3097 3.00006 12.6395C2.98681 15.5695 5.35131 17.9555 8.28131 17.9688C8.49944 17.9695 8.71539 17.954 8.92925 17.928C8.62994 19.112 8.10082 20.2274 7.34478 21.1934C7.27691 21.281 7.24011 21.3887 7.24005 21.4995C7.23998 21.7759 7.46398 21.9999 7.74029 22H16.2598C16.3713 21.9999 16.4795 21.9625 16.5674 21.8938C16.7851 21.7236 16.8235 21.4091 16.6533 21.1914C15.8954 20.2273 15.3663 19.1119 15.0693 17.9277C15.2836 17.9539 15.5001 17.9695 15.7188 17.9688C18.1967 17.9575 20.3368 16.2325 20.874 13.8135C21.4774 11.096 19.8771 8.4065 17.2631 7.59967ZM15.296 21H8.70025C9.34442 19.9844 9.78301 18.8561 10.0154 17.6781C10.7587 17.4191 11.4387 16.9935 12.0001 16.4279C12.5613 16.9934 13.2412 17.4189 13.9842 17.678C14.2148 18.856 14.6523 19.9845 15.296 21ZM15.7188 16.9688C14.4223 16.9739 13.1954 16.3826 12.3917 15.3652C12.3792 15.3496 12.3616 15.3419 12.3477 15.3281C12.3339 15.3143 12.3263 15.2966 12.3106 15.2842C12.2991 15.275 12.2849 15.273 12.2729 15.265C12.244 15.2457 12.2144 15.2316 12.1827 15.219C12.1533 15.2073 12.1251 15.197 12.0945 15.191C12.0629 15.1849 12.0323 15.1838 12.0001 15.1837C11.9678 15.1838 11.9372 15.1849 11.9056 15.191C11.875 15.197 11.8468 15.2073 11.8174 15.219C11.7857 15.2316 11.7562 15.2457 11.7272 15.265C11.7152 15.273 11.701 15.275 11.6895 15.2842C11.6739 15.2966 11.6662 15.3143 11.6525 15.3281C11.6386 15.3419 11.6209 15.3496 11.6085 15.3652C10.8047 16.3826 9.57781 16.9739 8.28131 16.9688C6.27374 16.9574 4.5404 15.5601 4.10333 13.6006C3.58563 11.2798 5.04736 8.97864 7.36822 8.46094C7.38952 8.4563 7.40569 8.44281 7.42571 8.43567C7.46551 8.42151 7.50518 8.40882 7.53918 8.38581C7.55993 8.37183 7.57464 8.35279 7.59289 8.33606C7.62194 8.30945 7.65142 8.28443 7.6734 8.25189C7.68829 8.22992 7.69561 8.20465 7.7069 8.18054C7.72259 8.14691 7.73974 8.11499 7.74761 8.07825C7.75421 8.04828 7.75103 8.01715 7.75189 7.9859C7.75268 7.95618 7.76061 7.92786 7.75591 7.89746C7.72949 7.71051 7.71704 7.52185 7.71881 7.33301C7.71874 7.31922 7.71874 7.30536 7.71881 7.29157C7.73022 4.92713 9.65631 3.01959 12.0207 3.03107C14.3852 3.04248 16.2927 4.96857 16.2813 7.33301C16.2831 7.52185 16.2706 7.71051 16.2442 7.89746C16.2405 7.922 16.2386 7.94672 16.2386 7.97156C16.2386 7.98548 16.2454 7.99713 16.2465 8.01075C16.2497 8.0506 16.2573 8.08753 16.2695 8.12476C16.2778 8.15009 16.2866 8.17377 16.2986 8.19715C16.3154 8.23004 16.3356 8.25891 16.3592 8.2873C16.3773 8.30902 16.3954 8.32874 16.4167 8.34711C16.4426 8.36933 16.4703 8.38709 16.5007 8.40381C16.5291 8.41962 16.5576 8.43219 16.589 8.44226C16.6042 8.44709 16.616 8.45752 16.6319 8.46094C18.5914 8.89801 19.9887 10.6314 20 12.6389C20.0134 15.0168 18.0967 16.9553 15.7188 16.9688Z" fill="#202020"/>
</svg>
