<svg width="24" height="24" viewBox="0 0 24 24" fill="none" xmlns="http://www.w3.org/2000/svg">
<path d="M19.1965 18.0519H9.60672C9.43698 18.0519 9.27419 17.9844 9.15417 17.8644C9.03415 17.7444 8.96672 17.5816 8.96672 17.4119C8.96672 17.2421 9.03415 17.0793 9.15417 16.9593C9.27419 16.8393 9.43698 16.7719 9.60672 16.7719H19.1965C19.4861 16.7715 19.7637 16.6564 19.9686 16.4518C20.1735 16.2471 20.2889 15.9696 20.2896 15.68V9.92545H6.38496C6.21522 9.92545 6.05243 9.85803 5.93241 9.738C5.81239 9.61798 5.74496 9.45519 5.74496 9.28545V8.14785C5.74563 7.51859 5.99591 6.91529 6.44087 6.47033C6.88583 6.02537 7.48913 5.77509 8.1184 5.77441H19.1965C19.8257 5.77518 20.4289 6.02549 20.8738 6.47044C21.3187 6.91539 21.5689 7.51864 21.5696 8.14785V9.27105C21.5696 9.27585 21.5696 9.28065 21.5696 9.28545C21.5696 9.29025 21.5696 9.29505 21.5696 9.29953V15.68C21.5684 16.3089 21.318 16.9117 20.8731 17.3563C20.4283 17.8009 19.8254 18.051 19.1965 18.0519ZM7.02496 8.64545H20.2896V8.14785C20.2893 7.85799 20.1741 7.58006 19.9692 7.37507C19.7642 7.17007 19.4863 7.05475 19.1965 7.05441H8.1184C7.8285 7.05475 7.55058 7.17006 7.34559 7.37505C7.14061 7.58004 7.0253 7.85796 7.02496 8.14785V8.64545Z" fill="#202020"/>
<path d="M19.0022 12.1363H17.6019C17.4322 12.1363 17.2694 12.0689 17.1494 11.9489C17.0294 11.8289 16.9619 11.6661 16.9619 11.4963C16.9619 11.3266 17.0294 11.1638 17.1494 11.0438C17.2694 10.9238 17.4322 10.8563 17.6019 10.8563H19.0022C19.172 10.8563 19.3348 10.9238 19.4548 11.0438C19.5748 11.1638 19.6422 11.3266 19.6422 11.4963C19.6422 11.6661 19.5748 11.8289 19.4548 11.9489C19.3348 12.0689 19.172 12.1363 19.0022 12.1363ZM15.0579 12.1363H13.6573C13.4875 12.1363 13.3248 12.0689 13.2047 11.9489C13.0847 11.8289 13.0173 11.6661 13.0173 11.4963C13.0173 11.3266 13.0847 11.1638 13.2047 11.0438C13.3248 10.9238 13.4875 10.8563 13.6573 10.8563H15.0579C15.2277 10.8563 15.3904 10.9238 15.5105 11.0438C15.6305 11.1638 15.6979 11.3266 15.6979 11.4963C15.6979 11.6661 15.6305 11.8289 15.5105 11.9489C15.3904 12.0689 15.2277 12.1363 15.0579 12.1363ZM6.38496 13.44C6.21522 13.44 6.05244 13.3726 5.93241 13.2526C5.81239 13.1325 5.74496 12.9697 5.74496 12.8V9.28545C5.74496 9.11571 5.81239 8.95292 5.93241 8.8329C6.05244 8.71287 6.21522 8.64545 6.38496 8.64545C6.5547 8.64545 6.71749 8.71287 6.83751 8.8329C6.95753 8.95292 7.02496 9.11571 7.02496 9.28545V12.8C7.02496 12.9697 6.95753 13.1325 6.83751 13.2526C6.71749 13.3726 6.5547 13.44 6.38496 13.44ZM7.08416 17.744C6.93365 17.744 6.78794 17.691 6.67264 17.5942L5.408 16.5325C5.34259 16.4788 5.28848 16.4127 5.2488 16.3379C5.20911 16.2632 5.18465 16.1813 5.17682 16.097C5.16899 16.0128 5.17795 15.9278 5.20318 15.847C5.22841 15.7662 5.26941 15.6913 5.3238 15.6264C5.3782 15.5616 5.44492 15.5082 5.52009 15.4693C5.59526 15.4305 5.67739 15.4069 5.76173 15.4C5.84608 15.393 5.93096 15.4029 6.01146 15.429C6.09196 15.4551 6.16649 15.4969 6.23072 15.552L6.9856 16.1859L8.7456 13.9114C8.84948 13.7768 9.00255 13.6891 9.17112 13.6674C9.33969 13.6458 9.50997 13.692 9.64448 13.7958C9.779 13.8997 9.86674 14.0528 9.88841 14.2214C9.91007 14.3899 9.86388 14.5602 9.76 14.6947L7.5904 17.4957C7.53768 17.5639 7.47173 17.6207 7.3965 17.6628C7.32128 17.7048 7.23833 17.7313 7.15264 17.7405C7.1296 17.7427 7.10688 17.744 7.08416 17.744Z" fill="#202020"/>
</svg>
