<svg width="24" height="24" viewBox="0 0 24 24" fill="none" xmlns="http://www.w3.org/2000/svg">
<path d="M19.1719 18.0519H9.5821C9.41236 18.0519 9.24957 17.9844 9.12955 17.8644C9.00952 17.7444 8.9421 17.5816 8.9421 17.4119C8.9421 17.2421 9.00952 17.0793 9.12955 16.9593C9.24957 16.8393 9.41236 16.7719 9.5821 16.7719H19.1719C19.4615 16.7715 19.7392 16.6564 19.9441 16.4518C20.149 16.2471 20.2645 15.9696 20.2653 15.68V9.92545H6.36034C6.1906 9.92545 6.02781 9.85803 5.90779 9.738C5.78777 9.61798 5.72034 9.45519 5.72034 9.28545V8.14785C5.7211 7.51861 5.9714 6.91536 6.41634 6.47042C6.86128 6.02548 7.46454 5.77518 8.09378 5.77441H19.1719C19.8011 5.77509 20.4044 6.02537 20.8494 6.47033C21.2943 6.91529 21.5446 7.51859 21.5453 8.14785V15.68C21.5441 16.309 21.2936 16.9118 20.8487 17.3564C20.4038 17.801 19.8008 18.0511 19.1719 18.0519ZM7.00034 8.64545H20.2653V8.14785C20.265 7.85796 20.1496 7.58004 19.9447 7.37505C19.7397 7.17006 19.4618 7.05475 19.1719 7.05441H8.09378C7.80388 7.05475 7.52596 7.17006 7.32097 7.37505C7.11599 7.58004 7.00068 7.85796 7.00034 8.14785V8.64545Z" fill="#202020"/>
<path d="M18.9779 12.1363H17.5773C17.4076 12.1363 17.2448 12.0689 17.1247 11.9489C17.0047 11.8289 16.9373 11.6661 16.9373 11.4963C16.9373 11.3266 17.0047 11.1638 17.1247 11.0438C17.2448 10.9238 17.4076 10.8563 17.5773 10.8563H18.9779C19.1477 10.8563 19.3105 10.9238 19.4305 11.0438C19.5505 11.1638 19.6179 11.3266 19.6179 11.4963C19.6179 11.6661 19.5505 11.8289 19.4305 11.9489C19.3105 12.0689 19.1477 12.1363 18.9779 12.1363ZM15.0333 12.1363H13.632C13.4623 12.1363 13.2995 12.0689 13.1795 11.9489C13.0594 11.8289 12.992 11.6661 12.992 11.4963C12.992 11.3266 13.0594 11.1638 13.1795 11.0438C13.2995 10.9238 13.4623 10.8563 13.632 10.8563H15.0323C15.2021 10.8563 15.3649 10.9238 15.4849 11.0438C15.6049 11.1638 15.6723 11.3266 15.6723 11.4963C15.6723 11.6661 15.6049 11.8289 15.4849 11.9489C15.3649 12.0689 15.2021 12.1363 15.0323 12.1363H15.0333ZM6.36034 13.44C6.1906 13.44 6.02781 13.3726 5.90779 13.2526C5.78777 13.1325 5.72034 12.9697 5.72034 12.8V9.28545C5.72034 9.11571 5.78777 8.95292 5.90779 8.8329C6.02781 8.71287 6.1906 8.64545 6.36034 8.64545C6.53008 8.64545 6.69286 8.71287 6.81289 8.8329C6.93291 8.95292 7.00034 9.11571 7.00034 9.28545V12.8C7.00034 12.9697 6.93291 13.1325 6.81289 13.2526C6.69286 13.3726 6.53008 13.44 6.36034 13.44ZM9.0701 16.0272H6.36034C6.1906 16.0272 6.02781 15.9598 5.90779 15.8398C5.78777 15.7197 5.72034 15.5569 5.72034 15.3872C5.72034 15.2175 5.78777 15.0547 5.90779 14.9347C6.02781 14.8146 6.1906 14.7472 6.36034 14.7472H9.0701C9.23984 14.7472 9.40262 14.8146 9.52264 14.9347C9.64267 15.0547 9.7101 15.2175 9.7101 15.3872C9.7101 15.5569 9.64267 15.7197 9.52264 15.8398C9.40262 15.9598 9.23984 16.0272 9.0701 16.0272Z" fill="#202020"/>
<path d="M7.7152 17.5635C7.54546 17.5635 7.38267 17.4961 7.26265 17.3761C7.14262 17.2561 7.0752 17.0933 7.0752 16.9235V13.9757C7.0752 13.806 7.14262 13.6432 7.26265 13.5231C7.38267 13.4031 7.54546 13.3357 7.7152 13.3357C7.88493 13.3357 8.04772 13.4031 8.16774 13.5231C8.28777 13.6432 8.3552 13.806 8.3552 13.9757V16.9235C8.3552 17.0933 8.28777 17.2561 8.16774 17.3761C8.04772 17.4961 7.88493 17.5635 7.7152 17.5635Z" fill="#202020"/>
</svg>
