<svg width="24" height="24" viewBox="0 0 24 24" fill="none" xmlns="http://www.w3.org/2000/svg">
<path d="M14.0218 12.1363H12.6214C12.4517 12.1363 12.2889 12.0689 12.1689 11.9489C12.0489 11.8288 11.9814 11.6661 11.9814 11.4963C11.9814 11.3266 12.0489 11.1638 12.1689 11.0438C12.2889 10.9238 12.4517 10.8563 12.6214 10.8563H14.0218C14.1915 10.8563 14.3543 10.9238 14.4743 11.0438C14.5943 11.1638 14.6618 11.3266 14.6618 11.4963C14.6618 11.6661 14.5943 11.8288 14.4743 11.9489C14.3543 12.0689 14.1915 12.1363 14.0218 12.1363ZM17.8653 12.1363H16.465C16.2952 12.1363 16.1324 12.0689 16.0124 11.9489C15.8924 11.8288 15.825 11.6661 15.825 11.4963C15.825 11.3266 15.8924 11.1638 16.0124 11.0438C16.1324 10.9238 16.2952 10.8563 16.465 10.8563H17.8653C18.035 10.8563 18.1978 10.9238 18.3178 11.0438C18.4379 11.1638 18.5053 11.3266 18.5053 11.4963C18.5053 11.6661 18.4379 11.8288 18.3178 11.9489C18.1978 12.0689 18.035 12.1363 17.8653 12.1363Z" fill="#202020"/>
<path d="M18.0592 18.0519H7.1536C6.51243 18.0517 5.89699 17.7996 5.43992 17.35C4.98285 16.9003 4.72074 16.2891 4.71008 15.648L4.608 9.29825V8.14785C4.60868 7.51859 4.85896 6.91529 5.30391 6.47033C5.74887 6.02537 6.35217 5.77509 6.98144 5.77441H18.0592C18.6885 5.77509 19.2918 6.02537 19.7367 6.47033C20.1817 6.91529 20.432 7.51859 20.4326 8.14785V9.27105C20.4326 9.27585 20.4326 9.28065 20.4326 9.28545C20.4326 9.29025 20.4326 9.29505 20.4326 9.29953V15.68C20.4315 16.309 20.181 16.9118 19.7361 17.3564C19.2912 17.801 18.6882 18.0511 18.0592 18.0519ZM5.8992 9.92545L5.99104 15.6269C5.9973 15.9318 6.12247 16.2222 6.33985 16.4361C6.55722 16.65 6.84959 16.7705 7.15456 16.7719H18.0602C18.3496 16.7713 18.627 16.6561 18.8318 16.4514C19.0365 16.2468 19.1519 15.9695 19.1526 15.68V9.92545H5.8992ZM5.88896 8.64545H19.1526V8.14785C19.1523 7.85796 19.037 7.58004 18.832 7.37505C18.627 7.17006 18.3491 7.05475 18.0592 7.05441H6.98144C6.69152 7.05467 6.41355 7.16995 6.20854 7.37496C6.00354 7.57996 5.88826 7.85793 5.888 8.14785L5.88896 8.64545Z" fill="#202020"/>
</svg>
