<svg width="24" height="24" viewBox="0 0 24 24" fill="none" xmlns="http://www.w3.org/2000/svg">
<path d="M6.33601 18.959C5.66812 18.959 5.01525 18.7608 4.45997 18.3897C3.90469 18.0186 3.47195 17.4911 3.21647 16.874C2.961 16.2569 2.89427 15.5779 3.02473 14.9229C3.15518 14.2678 3.47696 13.6662 3.94936 13.1941C4.42177 12.7219 5.02358 12.4005 5.67868 12.2704C6.33378 12.1403 7.01274 12.2074 7.62969 12.4633C8.24665 12.7191 8.77388 13.1521 9.1447 13.7076C9.51552 14.2631 9.71328 14.9161 9.71297 15.584C9.71153 16.479 9.35522 17.3369 8.72217 17.9696C8.08913 18.6023 7.23101 18.9581 6.33601 18.959ZM6.33601 13.487C5.92136 13.4871 5.51604 13.6101 5.1713 13.8405C4.82656 14.0709 4.55787 14.3984 4.39922 14.7815C4.24057 15.1646 4.19908 15.5861 4.27999 15.9928C4.3609 16.3995 4.56058 16.773 4.85378 17.0662C5.14698 17.3594 5.52054 17.5591 5.92721 17.64C6.33389 17.7209 6.75543 17.6794 7.13853 17.5208C7.52163 17.3621 7.84908 17.0934 8.07949 16.7487C8.30989 16.404 8.4329 15.9986 8.43297 15.584C8.43271 15.0278 8.21174 14.4944 7.81858 14.101C7.42541 13.7076 6.89219 13.4863 6.33601 13.4858V13.487Z" fill="#202020"/>
<path d="M17.672 18.5555H10.1965C10.0267 18.5555 9.86395 18.4881 9.74393 18.3681C9.6239 18.248 9.55647 18.0853 9.55647 17.9155C9.55647 17.7458 9.6239 17.583 9.74393 17.463C9.86395 17.3429 10.0267 17.2755 10.1965 17.2755H17.672C17.9619 17.2752 18.2398 17.1599 18.4448 16.9549C18.6498 16.7499 18.7651 16.472 18.7654 16.1821V10.4291H4.86047C4.69074 10.4291 4.52795 10.3617 4.40793 10.2417C4.2879 10.1216 4.22047 9.95885 4.22047 9.78912V8.65152C4.22124 8.02227 4.47154 7.41902 4.91648 6.97408C5.36142 6.52914 5.96467 6.27884 6.59391 6.27808H17.672C18.3012 6.27884 18.9045 6.52914 19.3494 6.97408C19.7944 7.41902 20.0447 8.02227 20.0454 8.65152V16.1821C20.0448 16.8113 19.7945 17.4146 19.3495 17.8596C18.9046 18.3046 18.3013 18.5548 17.672 18.5555ZM5.50047 9.14912H18.7654V8.65152C18.7651 8.36162 18.6498 8.0837 18.4448 7.87871C18.2398 7.67372 17.9619 7.55841 17.672 7.55808H6.59391C6.30402 7.55841 6.0261 7.67372 5.82111 7.87871C5.61612 8.0837 5.50081 8.36162 5.50047 8.65152V9.14912Z" fill="#202020"/>
<path d="M17.4781 12.64H16.0774C15.9077 12.64 15.7449 12.5726 15.6249 12.4525C15.5049 12.3325 15.4374 12.1697 15.4374 12C15.4374 11.8303 15.5049 11.6675 15.6249 11.5474C15.7449 11.4274 15.9077 11.36 16.0774 11.36H17.4781C17.6478 11.36 17.8106 11.4274 17.9306 11.5474C18.0506 11.6675 18.1181 11.8303 18.1181 12C18.1181 12.1697 18.0506 12.3325 17.9306 12.4525C17.8106 12.5726 17.6478 12.64 17.4781 12.64ZM4.86047 12.192C4.69074 12.192 4.52795 12.1246 4.40793 12.0045C4.2879 11.8845 4.22047 11.7217 4.22047 11.552V9.78911C4.22047 9.61937 4.2879 9.45658 4.40793 9.33656C4.52795 9.21654 4.69074 9.14911 4.86047 9.14911C5.03021 9.14911 5.193 9.21654 5.31302 9.33656C5.43305 9.45658 5.50047 9.61937 5.50047 9.78911V11.552C5.50047 11.7217 5.43305 11.8845 5.31302 12.0045C5.193 12.1246 5.03021 12.192 4.86047 12.192ZM6.01119 17.1152C5.85952 17.1152 5.71277 17.0613 5.59711 16.9632L4.79999 16.2854C4.67187 16.1752 4.59256 16.0188 4.57936 15.8503C4.56617 15.6818 4.62016 15.5149 4.72956 15.386C4.83896 15.2572 4.99488 15.1769 5.16329 15.1626C5.3317 15.1483 5.49893 15.2012 5.62847 15.3097L5.93727 15.5721L6.81023 14.5392C6.86391 14.4732 6.93019 14.4186 7.0052 14.3786C7.08022 14.3385 7.16246 14.3138 7.24713 14.3059C7.3318 14.298 7.4172 14.3071 7.49833 14.3325C7.57946 14.358 7.6547 14.3994 7.71966 14.4543C7.78462 14.5092 7.83799 14.5764 7.87665 14.6522C7.91532 14.7279 7.9385 14.8106 7.94485 14.8954C7.95119 14.9802 7.94058 15.0654 7.91362 15.1461C7.88666 15.2267 7.8439 15.3012 7.78783 15.3651L6.50111 16.8883C6.44671 16.9525 6.38018 17.0053 6.30534 17.0437C6.23049 17.0822 6.14881 17.1055 6.06495 17.1123C6.04799 17.1145 6.02879 17.1152 6.01119 17.1152Z" fill="#202020"/>
</svg>
