<svg width="24" height="24" viewBox="0 0 24 24" fill="none" xmlns="http://www.w3.org/2000/svg">
<path d="M6.99999 17.9239H5.35647C5.25017 17.9239 5.14554 17.8975 5.05201 17.847C4.95849 17.7965 4.87902 17.7234 4.82078 17.6345C4.76254 17.5456 4.72736 17.4436 4.71842 17.3377C4.70949 17.2318 4.72707 17.1253 4.76959 17.0279L5.37951 15.6218C5.41148 15.5473 5.45755 15.4797 5.51519 15.4227L8.46687 12.4867C8.52747 12.4265 8.59953 12.379 8.6788 12.347C8.75806 12.3151 8.84292 12.2993 8.92837 12.3007C9.01382 12.3021 9.09813 12.3205 9.17633 12.355C9.25453 12.3895 9.32503 12.4393 9.38367 12.5015L10.56 13.7495C10.6742 13.8705 10.7368 14.0314 10.7344 14.1978C10.732 14.3643 10.6648 14.5232 10.5472 14.641L7.45247 17.7357C7.3931 17.7952 7.32259 17.8425 7.24495 17.8748C7.16731 17.9071 7.08407 17.9238 6.99999 17.9239ZM6.33183 16.6439H6.73471L9.20255 14.176L8.90367 13.8589L6.50367 16.2448L6.33183 16.6439Z" fill="#202020"/>
<path d="M18.8419 18.0519H9.25216C9.08242 18.0519 8.91963 17.9844 8.79961 17.8644C8.67958 17.7444 8.61216 17.5816 8.61216 17.4119C8.61216 17.2421 8.67958 17.0793 8.79961 16.9593C8.91963 16.8393 9.08242 16.7719 9.25216 16.7719H18.8419C19.1316 16.7717 19.4095 16.6567 19.6146 16.452C19.8196 16.2473 19.9352 15.9697 19.936 15.68V9.92545H6.03072C5.86098 9.92545 5.69819 9.85803 5.57817 9.738C5.45814 9.61798 5.39072 9.45519 5.39072 9.28545V8.14785C5.39139 7.51864 5.64163 6.91539 6.08652 6.47044C6.53141 6.02549 7.13462 5.77518 7.76384 5.77441H18.8419C19.4713 5.77492 20.0748 6.02512 20.5199 6.4701C20.965 6.91508 21.2153 7.51848 21.216 8.14785V9.27105C21.216 9.27585 21.216 9.28065 21.216 9.28545C21.216 9.29025 21.216 9.29505 21.216 9.29953V15.68C21.2148 16.3091 20.9642 16.912 20.5192 17.3566C20.0742 17.8013 19.471 18.0513 18.8419 18.0519ZM6.67072 8.64545H19.936V8.14785C19.9357 7.85796 19.8203 7.58004 19.6154 7.37505C19.4104 7.17006 19.1325 7.05475 18.8426 7.05441H7.76384C7.47397 7.05475 7.19608 7.17007 6.99114 7.37507C6.78621 7.58006 6.67097 7.85799 6.67072 8.14785V8.64545Z" fill="#202020"/>
<path d="M18.648 12.1363H17.248C17.0783 12.1363 16.9155 12.0689 16.7954 11.9489C16.6754 11.8289 16.608 11.6661 16.608 11.4963C16.608 11.3266 16.6754 11.1638 16.7954 11.0438C16.9155 10.9238 17.0783 10.8563 17.248 10.8563H18.6483C18.8181 10.8563 18.9808 10.9238 19.1009 11.0438C19.2209 11.1638 19.2883 11.3266 19.2883 11.4963C19.2883 11.6661 19.2209 11.8289 19.1009 11.9489C18.9808 12.0689 18.8181 12.1363 18.6483 12.1363H18.648ZM14.7037 12.1363H13.303C13.1333 12.1363 12.9705 12.0689 12.8505 11.9489C12.7305 11.8289 12.663 11.6661 12.663 11.4963C12.663 11.3266 12.7305 11.1638 12.8505 11.0438C12.9705 10.9238 13.1333 10.8563 13.303 10.8563H14.7037C14.8734 10.8563 15.0362 10.9238 15.1562 11.0438C15.2762 11.1638 15.3437 11.3266 15.3437 11.4963C15.3437 11.6661 15.2762 11.8289 15.1562 11.9489C15.0362 12.0689 14.8734 12.1363 14.7037 12.1363ZM6.03072 13.664C5.86098 13.664 5.69819 13.5966 5.57817 13.4766C5.45814 13.3565 5.39072 13.1937 5.39072 13.024V9.28545C5.39072 9.11571 5.45814 8.95292 5.57817 8.8329C5.69819 8.71287 5.86098 8.64545 6.03072 8.64545C6.20046 8.64545 6.36324 8.71287 6.48326 8.8329C6.60329 8.95292 6.67072 9.11571 6.67072 9.28545V13.024C6.67072 13.1081 6.65416 13.1913 6.622 13.2689C6.58984 13.3466 6.54269 13.4171 6.48326 13.4766C6.42384 13.536 6.35328 13.5831 6.27563 13.6153C6.19799 13.6475 6.11476 13.664 6.03072 13.664Z" fill="#202020"/>
</svg>
