<svg width="24" height="24" viewBox="0 0 24 24" fill="none" xmlns="http://www.w3.org/2000/svg">
<path d="M16.7968 19.3104H4.85023C4.33627 19.3096 3.84362 19.1049 3.48028 18.7414C3.11695 18.3779 2.91258 17.8852 2.91199 17.3712V8.97216C2.9125 8.45801 3.11697 7.96506 3.48053 7.6015C3.84409 7.23794 4.33704 7.03347 4.85119 7.03296H16.7968C17.3109 7.03355 17.8038 7.23805 18.1674 7.60159C18.5309 7.96513 18.7354 8.45803 18.736 8.97216V17.3712C18.7353 17.8853 18.5308 18.3781 18.1673 18.7417C17.8037 19.1052 17.3109 19.3097 16.7968 19.3104ZM4.85023 8.31296C4.67545 8.31313 4.50788 8.38263 4.38429 8.50622C4.2607 8.62981 4.1912 8.79738 4.19103 8.97216V17.3712C4.1912 17.546 4.2607 17.7135 4.38429 17.8371C4.50788 17.9607 4.67545 18.0302 4.85023 18.0304H16.7968C16.9716 18.0302 17.1391 17.9607 17.2627 17.8371C17.3863 17.7135 17.4558 17.546 17.456 17.3712V8.97216C17.4558 8.79738 17.3863 8.62981 17.2627 8.50622C17.1391 8.38263 16.9716 8.31313 16.7968 8.31296H4.85023Z" fill="#202020"/>
<path d="M19.1497 16.967H18.3971C18.2274 16.967 18.0646 16.8996 17.9445 16.7796C17.8245 16.6595 17.7571 16.4968 17.7571 16.327C17.7571 16.1573 17.8245 15.9945 17.9445 15.8745C18.0646 15.7544 18.2274 15.687 18.3971 15.687H19.1497C19.3245 15.6868 19.4921 15.6173 19.6157 15.4938C19.7393 15.3702 19.8088 15.2026 19.8089 15.0278V6.62877C19.8088 6.454 19.7393 6.28642 19.6157 6.16284C19.4921 6.03925 19.3245 5.96974 19.1497 5.96958H7.20318C7.0284 5.96974 6.86083 6.03925 6.73724 6.16284C6.61365 6.28642 6.54415 6.454 6.54398 6.62877V7.39485C6.54398 7.56459 6.47655 7.72738 6.35653 7.8474C6.2365 7.96743 6.07372 8.03485 5.90398 8.03485C5.73424 8.03485 5.57145 7.96743 5.45143 7.8474C5.33141 7.72738 5.26398 7.56459 5.26398 7.39485V6.62877C5.26465 6.11467 5.46918 5.62183 5.8327 5.2583C6.19623 4.89478 6.68908 4.69025 7.20318 4.68958H19.1497C19.6639 4.69017 20.1568 4.89467 20.5203 5.25821C20.8838 5.62175 21.0883 6.11465 21.0889 6.62877V15.0278C21.0884 15.542 20.884 16.0349 20.5204 16.3985C20.1568 16.762 19.6639 16.9665 19.1497 16.967Z" fill="#202020"/>
<path d="M18.096 11.4685H3.55199C3.38225 11.4685 3.21946 11.401 3.09944 11.281C2.97942 11.161 2.91199 10.9982 2.91199 10.8285C2.91199 10.6587 2.97942 10.496 3.09944 10.3759C3.21946 10.2559 3.38225 10.1885 3.55199 10.1885H18.096C18.2657 10.1885 18.4285 10.2559 18.5485 10.3759C18.6686 10.496 18.736 10.6587 18.736 10.8285C18.736 10.9982 18.6686 11.161 18.5485 11.281C18.4285 11.401 18.2657 11.4685 18.096 11.4685ZM7.01279 17.0704H5.34111C5.17137 17.0704 5.00858 17.003 4.88856 16.8829C4.76854 16.7629 4.70111 16.6001 4.70111 16.4304C4.70111 16.2607 4.76854 16.0979 4.88856 15.9778C5.00858 15.8578 5.17137 15.7904 5.34111 15.7904H7.01279C7.18253 15.7904 7.34531 15.8578 7.46534 15.9778C7.58536 16.0979 7.65279 16.2607 7.65279 16.4304C7.65279 16.6001 7.58536 16.7629 7.46534 16.8829C7.34531 17.003 7.18253 17.0704 7.01279 17.0704ZM10.8233 17.0704H9.15199C8.98225 17.0704 8.81946 17.003 8.69944 16.8829C8.57942 16.7629 8.51199 16.6001 8.51199 16.4304C8.51199 16.2607 8.57942 16.0979 8.69944 15.9778C8.81946 15.8578 8.98225 15.7904 9.15199 15.7904H10.8233C10.9931 15.7904 11.1559 15.8578 11.2759 15.9778C11.3959 16.0979 11.4633 16.2607 11.4633 16.4304C11.4633 16.6001 11.3959 16.7629 11.2759 16.8829C11.1559 17.003 10.9931 17.0704 10.8233 17.0704Z" fill="#202020"/>
</svg>
