<svg width="24" height="24" viewBox="0 0 24 24" fill="none" xmlns="http://www.w3.org/2000/svg">
<path d="M13.1936 12.1363H11.7933C11.6235 12.1363 11.4607 12.0689 11.3407 11.9489C11.2207 11.8288 11.1533 11.6661 11.1533 11.4963C11.1533 11.3266 11.2207 11.1638 11.3407 11.0438C11.4607 10.9238 11.6235 10.8563 11.7933 10.8563H13.1936C13.3633 10.8563 13.5261 10.9238 13.6461 11.0438C13.7662 11.1638 13.8336 11.3266 13.8336 11.4963C13.8336 11.6661 13.7662 11.8288 13.6461 11.9489C13.5261 12.0689 13.3633 12.1363 13.1936 12.1363ZM17.0371 12.1363H15.6368C15.467 12.1363 15.3043 12.0689 15.1842 11.9489C15.0642 11.8288 14.9968 11.6661 14.9968 11.4963C14.9968 11.3266 15.0642 11.1638 15.1842 11.0438C15.3043 10.9238 15.467 10.8563 15.6368 10.8563H17.0371C17.2068 10.8563 17.3696 10.9238 17.4896 11.0438C17.6097 11.1638 17.6771 11.3266 17.6771 11.4963C17.6771 11.6661 17.6097 11.8288 17.4896 11.9489C17.3696 12.0689 17.2068 12.1363 17.0371 12.1363Z" fill="#202020"/>
<path d="M17.231 18.0519H6.32545C5.68428 18.0518 5.06883 17.7997 4.61179 17.35C4.15475 16.9004 3.89274 16.2891 3.88225 15.648L3.77985 9.29889V8.14785C3.78052 7.51859 4.0308 6.91529 4.47576 6.47033C4.92072 6.02537 5.52402 5.77509 6.15329 5.77441H17.231C17.8603 5.77509 18.4636 6.02537 18.9086 6.47033C19.3535 6.91529 19.6038 7.51859 19.6045 8.14785V9.27105C19.6045 9.27585 19.6045 9.28065 19.6045 9.28545C19.6045 9.29025 19.6045 9.29505 19.6045 9.29953V15.68C19.6033 16.309 19.3528 16.9118 18.9079 17.3564C18.463 17.801 17.86 18.0511 17.231 18.0519ZM5.07105 9.92545L5.16289 15.6269C5.16914 15.9318 5.29432 16.2222 5.51169 16.4361C5.72907 16.65 6.02143 16.7705 6.32641 16.7719H17.232C17.5215 16.7713 17.7989 16.6561 18.0036 16.4514C18.2084 16.2468 18.3237 15.9695 18.3245 15.68V9.92545H5.07105ZM5.06081 8.64545H18.3245V8.14785C18.3241 7.85796 18.2088 7.58004 18.0038 7.37505C17.7989 7.17006 17.5209 7.05475 17.231 7.05441H6.15329C5.86339 7.05475 5.58547 7.17006 5.38048 7.37505C5.17549 7.58004 5.06018 7.85796 5.05985 8.14785L5.06081 8.64545Z" fill="#202020"/>
<path d="M20.0938 18.985C19.9523 18.9851 19.8149 18.9381 19.703 18.8515L3.37344 6.24C3.24241 6.13513 3.15782 5.98298 3.13789 5.81634C3.11796 5.6497 3.16429 5.4819 3.26689 5.34909C3.36949 5.21627 3.52015 5.12907 3.68643 5.10628C3.8527 5.08348 4.02127 5.12691 4.15584 5.2272L20.4854 17.8397C20.5912 17.9213 20.6687 18.034 20.7072 18.162C20.7457 18.2899 20.7431 18.4267 20.6999 18.5531C20.6567 18.6796 20.5751 18.7893 20.4664 18.867C20.3576 18.9447 20.2274 18.9864 20.0938 18.9862V18.985Z" fill="#202020"/>
</svg>
