<svg width="24" height="24" viewBox="0 0 24 24" fill="none" xmlns="http://www.w3.org/2000/svg">
<path d="M13.0103 12.416C12.8783 12.4161 12.7495 12.3753 12.6416 12.2994C12.5337 12.2235 12.4518 12.116 12.4074 11.9918C12.3629 11.8675 12.3579 11.7326 12.393 11.6054C12.4282 11.4782 12.5018 11.365 12.6039 11.2813L13.3191 10.6941C13.3838 10.6391 13.4588 10.5976 13.5398 10.5719C13.6207 10.5463 13.706 10.537 13.7906 10.5446C13.8752 10.5522 13.9574 10.5765 14.0325 10.6163C14.1075 10.656 14.174 10.7102 14.2278 10.7759C14.2817 10.8415 14.322 10.9172 14.3464 10.9986C14.3707 11.0799 14.3786 11.1653 14.3696 11.2498C14.3606 11.3342 14.3349 11.416 14.294 11.4904C14.2531 11.5649 14.1977 11.6304 14.1312 11.6832L13.416 12.2701C13.3018 12.3644 13.1584 12.416 13.0103 12.416ZM14.9735 10.8041C14.8415 10.8042 14.7127 10.7635 14.6048 10.6876C14.4969 10.6116 14.415 10.5042 14.3706 10.3799C14.3261 10.2557 14.3211 10.1207 14.3562 9.99355C14.3914 9.86636 14.465 9.75315 14.5671 9.66943L15.2823 9.08223C15.3472 9.0288 15.4221 8.98868 15.5025 8.96418C15.583 8.93968 15.6675 8.93126 15.7512 8.93942C15.835 8.94758 15.9163 8.97214 15.9905 9.01172C16.0647 9.05129 16.1304 9.1051 16.1839 9.17007C16.2373 9.23503 16.2774 9.30989 16.3019 9.39036C16.3264 9.47083 16.3348 9.55534 16.3267 9.63906C16.3185 9.72278 16.2939 9.80408 16.2544 9.8783C16.2148 9.95253 16.161 10.0182 16.096 10.0717L15.3792 10.6589C15.2648 10.7527 15.1214 10.8041 14.9735 10.8041Z" fill="#202020"/>
<path d="M11.9437 18.0003C11.888 18.0003 11.832 17.9978 11.776 17.9927C11.2969 17.9502 10.854 17.7201 10.5437 17.3527L7.82847 14.1527L7.82047 14.1431L7.34495 13.5635C7.04503 13.1973 6.90263 12.727 6.949 12.2559C6.99538 11.7848 7.22673 11.3513 7.59231 11.0506L13.2509 6.40515C13.6169 6.10473 14.0873 5.96202 14.5586 6.00841C15.0298 6.0548 15.4634 6.28649 15.7638 6.65251L16.2336 7.22499L16.2406 7.23363L16.2477 7.24227L18.9209 10.4989C19.2209 10.8652 19.3633 11.3354 19.3169 11.8065C19.2705 12.2776 19.0392 12.7111 18.6736 13.0119L13.103 17.5843C12.7766 17.8535 12.3667 18.0005 11.9437 18.0003ZM9.22527 13.8199L11.52 16.5251C11.6139 16.6351 11.7472 16.704 11.8912 16.717C12.0353 16.7301 12.1787 16.6862 12.2909 16.5949L17.8614 12.0224C17.9649 11.9373 18.0305 11.8146 18.0436 11.6812C18.0567 11.5479 18.0164 11.4147 17.9315 11.3111L15.6573 8.54051L9.22527 13.8199ZM14.3827 7.27971C14.2659 7.27957 14.1527 7.3202 14.0627 7.39459L8.40447 12.0391C8.30086 12.1242 8.23528 12.247 8.22214 12.3804C8.209 12.5139 8.24937 12.6471 8.33439 12.7507L8.40511 12.8368L14.8451 7.55203L14.7744 7.46563C14.7324 7.41417 14.6805 7.37155 14.6219 7.34025C14.5633 7.30894 14.4991 7.28956 14.4329 7.28323C14.4163 7.28067 14.4 7.27971 14.3827 7.27971Z" fill="#202020"/>
<path d="M19.6189 18.0519H5.25279C5.08305 18.0519 4.92027 17.9844 4.80024 17.8644C4.68022 17.7444 4.61279 17.5816 4.61279 17.4119C4.61279 17.2421 4.68022 17.0793 4.80024 16.9593C4.92027 16.8393 5.08305 16.7719 5.25279 16.7719H19.6189C19.7886 16.7719 19.9514 16.8393 20.0714 16.9593C20.1914 17.0793 20.2589 17.2421 20.2589 17.4119C20.2589 17.5816 20.1914 17.7444 20.0714 17.8644C19.9514 17.9844 19.7886 18.0519 19.6189 18.0519Z" fill="#202020"/>
</svg>
