<svg width="24" height="24" viewBox="0 0 24 24" fill="none" xmlns="http://www.w3.org/2000/svg">
<path d="M9.36768 11.4279H5.69408C5.15557 11.4273 4.63928 11.2131 4.25846 10.8324C3.87764 10.4516 3.6634 9.93536 3.66272 9.39685V5.97989C3.6634 5.44138 3.87764 4.92512 4.25846 4.54437C4.63928 4.16361 5.15557 3.94945 5.69408 3.94885H9.36768C9.90619 3.94945 10.4225 4.16361 10.8033 4.54437C11.1841 4.92512 11.3984 5.44138 11.399 5.97989V9.39685C11.3984 9.93536 11.1841 10.4516 10.8033 10.8324C10.4225 11.2131 9.90619 11.4273 9.36768 11.4279ZM5.69408 5.22885C5.49491 5.22902 5.30395 5.30819 5.16309 5.44899C5.02223 5.5898 4.94297 5.78073 4.94272 5.97989V9.39685C4.94297 9.59602 5.02223 9.78695 5.16309 9.92775C5.30395 10.0686 5.49491 10.1477 5.69408 10.1479H9.36768C9.56682 10.1476 9.75773 10.0684 9.89858 9.92766C10.0394 9.78687 10.1187 9.59599 10.119 9.39685V5.97989C10.1187 5.78075 10.0394 5.58987 9.89858 5.44909C9.75773 5.3083 9.56682 5.22911 9.36768 5.22885H5.69408ZM16.4749 11.4279H16.4634C15.4716 11.4279 14.5204 11.0339 13.8191 10.3326C13.1178 9.63132 12.7238 8.68015 12.7238 7.68837C12.7238 6.69659 13.1178 5.74543 13.8191 5.04413C14.5204 4.34284 15.4716 3.94885 16.4634 3.94885H16.4749C17.4667 3.94885 18.4178 4.34284 19.1191 5.04413C19.8204 5.74543 20.2144 6.69659 20.2144 7.68837C20.2144 8.68015 19.8204 9.63132 19.1191 10.3326C18.4178 11.0339 17.4667 11.4279 16.4749 11.4279ZM16.4634 5.22885C15.8111 5.22885 15.1855 5.48798 14.7242 5.94923C14.263 6.41048 14.0038 7.03607 14.0038 7.68837C14.0038 8.34068 14.263 8.96627 14.7242 9.42752C15.1855 9.88876 15.8111 10.1479 16.4634 10.1479H16.4749C16.7979 10.1479 17.1177 10.0843 17.4161 9.96067C17.7145 9.83707 17.9856 9.6559 18.214 9.42752C18.4424 9.19913 18.6236 8.92799 18.7472 8.62959C18.8708 8.33119 18.9344 8.01136 18.9344 7.68837C18.9344 7.36538 18.8708 7.04556 18.7472 6.74715C18.6236 6.44875 18.4424 6.17762 18.214 5.94923C17.9856 5.72084 17.7145 5.53967 17.4161 5.41607C17.1177 5.29247 16.7979 5.22885 16.4749 5.22885H16.4634ZM7.53664 20.0513H7.52512C6.53334 20.0513 5.58218 19.6573 4.88088 18.956C4.17958 18.2547 3.7856 17.3035 3.7856 16.3117C3.7856 15.3199 4.17958 14.3688 4.88088 13.6675C5.58218 12.9662 6.53334 12.5722 7.52512 12.5722H7.53664C8.52842 12.5722 9.47958 12.9662 10.1809 13.6675C10.8822 14.3688 11.2762 15.3199 11.2762 16.3117C11.2762 17.3035 10.8822 18.2547 10.1809 18.956C9.47958 19.6573 8.52842 20.0513 7.53664 20.0513ZM7.52512 13.8522C6.87281 13.8522 6.24723 14.1113 5.78598 14.5726C5.32473 15.0338 5.0656 15.6594 5.0656 16.3117C5.0656 16.964 5.32473 17.5896 5.78598 18.0509C6.24723 18.5121 6.87281 18.7713 7.52512 18.7713H7.53664C8.18894 18.7713 8.81453 18.5121 9.27578 18.0509C9.73703 17.5896 9.99616 16.964 9.99616 16.3117C9.99616 15.6594 9.73703 15.0338 9.27578 14.5726C8.81453 14.1113 8.18894 13.8522 7.53664 13.8522H7.52512ZM18.3059 20.0513H14.6323C14.0938 20.0507 13.5775 19.8365 13.1967 19.4557C12.8159 19.075 12.6016 18.5587 12.601 18.0202V14.6033C12.6016 14.0647 12.8159 13.5485 13.1967 13.1677C13.5775 12.787 14.0938 12.5728 14.6323 12.5722H18.3059C18.8444 12.5728 19.3607 12.787 19.7415 13.1677C20.1224 13.5485 20.3366 14.0647 20.3373 14.6033V18.0202C20.3366 18.5587 20.1224 19.075 19.7415 19.4557C19.3607 19.8365 18.8444 20.0507 18.3059 20.0513ZM14.6323 13.8522C14.4332 13.8525 14.2423 13.9317 14.1014 14.0724C13.9606 14.2132 13.8813 14.4041 13.881 14.6033V18.0202C13.8813 18.2194 13.9606 18.4102 14.1014 18.551C14.2423 18.6918 14.4332 18.771 14.6323 18.7713H18.3059C18.5051 18.7711 18.696 18.6919 18.8369 18.5511C18.9778 18.4103 19.057 18.2194 19.0573 18.0202V14.6033C19.057 14.4041 18.9778 14.2132 18.8369 14.0724C18.696 13.9316 18.5051 13.8524 18.3059 13.8522H14.6323Z" fill="#202020"/>
</svg>
