<svg width="24" height="24" viewBox="0 0 24 24" fill="none" xmlns="http://www.w3.org/2000/svg">
<path d="M15.7555 19.2342H6.42656C5.7453 19.2335 5.09215 18.9625 4.61042 18.4808C4.1287 17.999 3.85773 17.3459 3.85696 16.6646V7.33535C3.85773 6.65408 4.1287 6.00094 4.61042 5.51921C5.09215 5.03748 5.7453 4.76651 6.42656 4.76575H15.7555C16.4368 4.76651 17.0899 5.03748 17.5717 5.51921C18.0534 6.00094 18.3244 6.65408 18.3251 7.33535V16.6646C18.3244 17.3459 18.0534 17.999 17.5717 18.4808C17.0899 18.9625 16.4368 19.2335 15.7555 19.2342ZM6.42656 6.04575C6.08464 6.04609 5.75683 6.18206 5.51505 6.42384C5.27328 6.66561 5.1373 6.99343 5.13696 7.33535V16.6646C5.1373 17.0065 5.27328 17.3344 5.51505 17.5761C5.75683 17.8179 6.08464 17.9539 6.42656 17.9542H15.7555C16.0974 17.9538 16.4252 17.8178 16.6669 17.576C16.9087 17.3343 17.0447 17.0065 17.0451 16.6646V7.33535C17.0447 6.99345 16.9087 6.66569 16.6669 6.42393C16.4252 6.18217 16.0974 6.04617 15.7555 6.04575H6.42656Z" fill="#202020"/>
<path d="M9.80352 15.9312H7.22849C7.05875 15.9312 6.89596 15.8638 6.77594 15.7437C6.65591 15.6237 6.58849 15.4609 6.58849 15.2912V10.9232C6.58882 10.6118 6.71266 10.3133 6.93283 10.0931C7.153 9.87296 7.45152 9.74912 7.76289 9.74878H9.25857C9.5724 9.74937 9.87321 9.8743 10.0951 10.0962C10.317 10.3181 10.442 10.6189 10.4426 10.9328V15.2912C10.4426 15.4608 10.3753 15.6234 10.2555 15.7434C10.1356 15.8634 9.9731 15.9309 9.80352 15.9312ZM7.86849 14.6512H9.16353V11.0288H7.86849V14.6512Z" fill="#202020"/>
<path d="M12.3786 15.9312H9.80351C9.63377 15.9312 9.47099 15.8638 9.35097 15.7438C9.23094 15.6237 9.16351 15.4609 9.16351 15.2912V9.12609C9.16368 8.7937 9.29573 8.47497 9.53067 8.23985C9.76561 8.00473 10.0842 7.87243 10.4166 7.87201H11.7651C12.0974 7.87235 12.416 8.00447 12.6509 8.23939C12.8859 8.47432 13.0181 8.79286 13.0186 9.12513V15.2912C13.0186 15.4609 12.9511 15.6237 12.8311 15.7438C12.7111 15.8638 12.5483 15.9312 12.3786 15.9312ZM10.4435 14.6512H11.7386V9.15201H10.4435V14.6512Z" fill="#202020"/>
<path d="M14.9536 15.9312H12.3786C12.2088 15.9312 12.046 15.8637 11.926 15.7437C11.806 15.6237 11.7386 15.4609 11.7386 15.2912V12.5328C11.7389 12.2289 11.8598 11.9375 12.0747 11.7226C12.2895 11.5077 12.5809 11.3869 12.8848 11.3865H14.4474C14.7513 11.3869 15.0426 11.5077 15.2575 11.7226C15.4724 11.9375 15.5933 12.2289 15.5936 12.5328V15.2912C15.5936 15.4609 15.5262 15.6237 15.4061 15.7437C15.2861 15.8637 15.1233 15.9312 14.9536 15.9312ZM13.0186 14.6512H14.3136V12.6672H13.0186V14.6512Z" fill="#202020"/>
</svg>
