<svg width="24" height="24" viewBox="0 0 24 24" fill="none" xmlns="http://www.w3.org/2000/svg">
<path d="M7.60992 17.5408H7.31264C6.85534 17.5401 6.417 17.3581 6.09364 17.0347C5.77028 16.7114 5.58828 16.273 5.58752 15.8157V11.5114C5.58828 11.0541 5.77028 10.6157 6.09364 10.2924C6.417 9.96903 6.85534 9.78703 7.31264 9.78627H7.60992C8.06722 9.78703 8.50557 9.96903 8.82892 10.2924C9.15228 10.6157 9.33428 11.0541 9.33504 11.5114V15.8157C9.33428 16.273 9.15228 16.7114 8.82892 17.0347C8.50557 17.3581 8.06722 17.5401 7.60992 17.5408ZM7.31264 11.0663C7.19464 11.0664 7.08152 11.1134 6.99808 11.1968C6.91464 11.2803 6.86769 11.3934 6.86752 11.5114V15.8157C6.86769 15.9337 6.91464 16.0468 6.99808 16.1303C7.08152 16.2137 7.19464 16.2607 7.31264 16.2608H7.60992C7.72792 16.2607 7.84104 16.2137 7.92448 16.1303C8.00792 16.0468 8.05487 15.9337 8.05504 15.8157V11.5114C8.05487 11.3934 8.00792 11.2803 7.92448 11.1968C7.84104 11.1134 7.72792 11.0664 7.60992 11.0663H7.31264ZM16.4982 17.5408H16.2013C15.744 17.5401 15.3056 17.3581 14.9823 17.0347C14.6589 16.7114 14.4769 16.273 14.4762 15.8157V9.15971C14.4769 8.70241 14.6589 8.26406 14.9823 7.94071C15.3056 7.61735 15.744 7.43535 16.2013 7.43459H16.4982C16.9555 7.43535 17.3939 7.61735 17.7172 7.94071C18.0406 8.26406 18.2226 8.70241 18.2234 9.15971V15.8157C18.2226 16.273 18.0406 16.7114 17.7172 17.0347C17.3939 17.3581 16.9555 17.5401 16.4982 17.5408ZM16.2013 8.71491C16.0833 8.71508 15.9702 8.76203 15.8867 8.84547C15.8033 8.92891 15.7563 9.04203 15.7562 9.16003V15.816C15.7563 15.934 15.8033 16.0471 15.8867 16.1306C15.9702 16.214 16.0833 16.261 16.2013 16.2611H16.4982C16.6162 16.261 16.7294 16.214 16.8128 16.1306C16.8962 16.0471 16.9432 15.934 16.9434 15.816V9.16003C16.9432 9.04203 16.8962 8.92891 16.8128 8.84547C16.7294 8.76203 16.6162 8.71508 16.4982 8.71491H16.2013ZM12.0669 17.5408H11.7699C11.3126 17.5401 10.8743 17.3581 10.5509 17.0347C10.2276 16.7114 10.0456 16.273 10.0448 15.8157V6.26339C10.0456 5.80609 10.2276 5.36774 10.5509 5.04439C10.8743 4.72103 11.3126 4.53903 11.7699 4.53827H12.0669C12.5242 4.53903 12.9625 4.72103 13.2859 5.04439C13.6092 5.36774 13.7912 5.80609 13.792 6.26339V15.8157C13.7912 16.273 13.6092 16.7114 13.2859 17.0347C12.9625 17.3581 12.5242 17.5401 12.0669 17.5408ZM11.7699 5.81827C11.6519 5.81844 11.5388 5.86539 11.4554 5.94883C11.3719 6.03227 11.325 6.14539 11.3248 6.26339V15.8157C11.325 15.9337 11.3719 16.0468 11.4554 16.1303C11.5388 16.2137 11.6519 16.2607 11.7699 16.2608H12.0669C12.1849 16.2607 12.298 16.2137 12.3814 16.1303C12.4649 16.0468 12.5118 15.9337 12.512 15.8157V6.26339C12.5118 6.14539 12.4649 6.03227 12.3814 5.94883C12.298 5.86539 12.1849 5.81844 12.0669 5.81827H11.7699ZM18.944 19.4618H5.056C4.88626 19.4618 4.72348 19.3944 4.60345 19.2743C4.48343 19.1543 4.416 18.9915 4.416 18.8218C4.416 18.652 4.48343 18.4893 4.60345 18.3692C4.72348 18.2492 4.88626 18.1818 5.056 18.1818H18.944C19.1137 18.1818 19.2765 18.2492 19.3966 18.3692C19.5166 18.4893 19.584 18.652 19.584 18.8218C19.584 18.9915 19.5166 19.1543 19.3966 19.2743C19.2765 19.3944 19.1137 19.4618 18.944 19.4618Z" fill="#202020"/>
</svg>
