<svg width="24" height="24" viewBox="0 0 24 24" fill="none" xmlns="http://www.w3.org/2000/svg">
<path d="M15.9792 19.7254H7.41088C6.62879 19.7246 5.87896 19.4135 5.32591 18.8605C4.77285 18.3075 4.46173 17.5578 4.4608 16.7757V8.20702C4.46173 7.42493 4.77285 6.67514 5.32591 6.12214C5.87896 5.56915 6.62879 5.25811 7.41088 5.25726H14.0538C14.2235 5.25726 14.3863 5.32469 14.5063 5.44471C14.6263 5.56474 14.6938 5.72752 14.6938 5.89726C14.6938 6.067 14.6263 6.22979 14.5063 6.34981C14.3863 6.46983 14.2235 6.53726 14.0538 6.53726H7.41088C6.96813 6.53769 6.54364 6.71373 6.23054 7.02677C5.91744 7.33981 5.74131 7.76428 5.7408 8.20702V16.7757C5.74131 17.2184 5.91744 17.6429 6.23054 17.9559C6.54364 18.269 6.96813 18.445 7.41088 18.4454H15.9792C16.4219 18.445 16.8464 18.269 17.1595 17.9559C17.4726 17.6429 17.6488 17.2184 17.6493 16.7757V8.20702C17.6493 8.03729 17.7167 7.8745 17.8367 7.75448C17.9568 7.63445 18.1195 7.56702 18.2893 7.56702C18.459 7.56702 18.6218 7.63445 18.7418 7.75448C18.8619 7.8745 18.9293 8.03729 18.9293 8.20702V16.7757C18.9283 17.5578 18.6172 18.3075 18.0642 18.8605C17.5111 19.4135 16.7613 19.7246 15.9792 19.7254Z" fill="#202020"/>
<path d="M8.49728 14.7817C8.32754 14.7817 8.16476 14.7143 8.04473 14.5943C7.92471 14.4743 7.85728 14.3115 7.85728 14.1417V10.2003C7.85728 10.0306 7.92471 9.86778 8.04473 9.74776C8.16476 9.62773 8.32754 9.56031 8.49728 9.56031C8.66702 9.56031 8.82981 9.62773 8.94983 9.74776C9.06985 9.86778 9.13728 10.0306 9.13728 10.2003V14.1417C9.13728 14.3115 9.06985 14.4743 8.94983 14.5943C8.82981 14.7143 8.66702 14.7817 8.49728 14.7817ZM11.695 14.7817C11.5253 14.7817 11.3625 14.7143 11.2425 14.5943C11.1225 14.4743 11.055 14.3115 11.055 14.1417V10.2003C11.055 10.0306 11.1225 9.86778 11.2425 9.74776C11.3625 9.62773 11.5253 9.56031 11.695 9.56031C11.8648 9.56031 12.0276 9.62773 12.1476 9.74776C12.2676 9.86778 12.335 10.0306 12.335 10.2003V14.1417C12.335 14.3115 12.2676 14.4743 12.1476 14.5943C12.0276 14.7143 11.8648 14.7817 11.695 14.7817ZM14.8928 14.7817C14.7231 14.7817 14.5603 14.7143 14.4403 14.5943C14.3202 14.4743 14.2528 14.3115 14.2528 14.1417V10.2003C14.2528 10.0306 14.3202 9.86778 14.4403 9.74776C14.5603 9.62773 14.7231 9.56031 14.8928 9.56031C15.0625 9.56031 15.2253 9.62773 15.3453 9.74776C15.4654 9.86778 15.5328 10.0306 15.5328 10.2003V14.1417C15.5328 14.3115 15.4654 14.4743 15.3453 14.5943C15.2253 14.7143 15.0625 14.7817 14.8928 14.7817ZM16.5274 7.72319C16.3658 7.72314 16.2102 7.66198 16.0918 7.55199L15.143 6.67103C15.0187 6.55552 14.9453 6.39533 14.939 6.22571C14.9327 6.05609 14.9941 5.89092 15.1096 5.76655C15.2251 5.64217 15.3853 5.56877 15.5549 5.5625C15.7245 5.55623 15.8897 5.6176 16.0141 5.73311L16.5306 6.21311L18.4672 4.44255C18.5292 4.38582 18.6018 4.34186 18.6808 4.31318C18.7599 4.2845 18.8437 4.27167 18.9277 4.27542C19.0117 4.27916 19.0941 4.29941 19.1702 4.335C19.2464 4.3706 19.3148 4.42084 19.3715 4.48287C19.4283 4.54489 19.4722 4.61749 19.5009 4.6965C19.5296 4.77551 19.5424 4.8594 19.5387 4.94338C19.5349 5.02735 19.5147 5.10977 19.4791 5.18591C19.4435 5.26206 19.3932 5.33046 19.3312 5.38719L16.96 7.55551C16.8418 7.66355 16.6875 7.72338 16.5274 7.72319Z" fill="#202020"/>
</svg>
