<svg width="24" height="24" viewBox="0 0 24 24" fill="none" xmlns="http://www.w3.org/2000/svg">
<path d="M17.032 21.0397H6.96801C6.06022 21.0387 5.1899 20.6776 4.548 20.0357C3.90609 19.3938 3.54502 18.5235 3.54401 17.6157V7.55205C3.54502 6.64426 3.90609 5.77394 4.548 5.13204C5.1899 4.49014 6.06022 4.12907 6.96801 4.12805H8.02913C8.19886 4.12805 8.36165 4.19548 8.48167 4.3155C8.6017 4.43553 8.66913 4.59831 8.66913 4.76805C8.66913 4.93779 8.6017 5.10058 8.48167 5.2206C8.36165 5.34062 8.19886 5.40805 8.02913 5.40805H6.96801C6.39954 5.40856 5.8545 5.63461 5.45253 6.03658C5.05056 6.43854 4.82451 6.98358 4.82401 7.55205V17.6161C4.82451 18.1845 5.05056 18.7296 5.45253 19.1315C5.8545 19.5335 6.39954 19.7595 6.96801 19.7601H17.032C17.6005 19.7595 18.1455 19.5335 18.5475 19.1315C18.9494 18.7296 19.1755 18.1845 19.176 17.6161V7.55205C19.1755 6.98358 18.9494 6.43854 18.5475 6.03658C18.1455 5.63461 17.6005 5.40856 17.032 5.40805H16.0179C15.8482 5.40805 15.6854 5.34062 15.5654 5.2206C15.4454 5.10058 15.3779 4.93779 15.3779 4.76805C15.3779 4.59831 15.4454 4.43553 15.5654 4.3155C15.6854 4.19548 15.8482 4.12805 16.0179 4.12805H17.032C17.9398 4.12907 18.8101 4.49014 19.452 5.13204C20.0939 5.77394 20.455 6.64426 20.456 7.55205V17.6161C20.4549 18.5238 20.0938 19.394 19.4519 20.0359C18.81 20.6777 17.9397 21.0387 17.032 21.0397Z" fill="#202020"/>
<path d="M15.3879 6.79298H8.61219C8.31211 6.79264 8.02442 6.67329 7.81223 6.4611C7.60004 6.24891 7.48069 5.96122 7.48035 5.66114V4.09314C7.48069 3.79307 7.60004 3.50537 7.81223 3.29319C8.02442 3.081 8.31211 2.96164 8.61219 2.9613H15.3879C15.6879 2.96164 15.9756 3.081 16.1878 3.29319C16.4 3.50537 16.5194 3.79307 16.5197 4.09314V5.66114C16.5194 5.96122 16.4 6.24891 16.1878 6.4611C15.9756 6.67329 15.6879 6.79264 15.3879 6.79298ZM8.76035 5.51298H15.2397V4.24034H8.76035V5.51298ZM10.5386 16.1837C10.453 16.1836 10.3683 16.1664 10.2895 16.1329C10.2107 16.0994 10.1395 16.0504 10.08 15.9888L8.07683 13.9219C8.01767 13.8617 7.971 13.7904 7.93953 13.712C7.90806 13.6337 7.8924 13.5499 7.89344 13.4655C7.89449 13.3811 7.91223 13.2977 7.94564 13.2202C7.97905 13.1427 8.02747 13.0725 8.0881 13.0138C8.14874 12.955 8.2204 12.9089 8.29896 12.8779C8.37751 12.847 8.46141 12.8319 8.54581 12.8336C8.63022 12.8352 8.71347 12.8535 8.79076 12.8875C8.86806 12.9214 8.93787 12.9703 8.99619 13.0314L10.56 14.6448L15.385 10.097C15.4462 10.0393 15.5181 9.99428 15.5966 9.96442C15.6752 9.93456 15.7589 9.92047 15.8429 9.92295C15.9269 9.92543 16.0096 9.94444 16.0863 9.97889C16.163 10.0133 16.2321 10.0625 16.2898 10.1237C16.3474 10.1849 16.3925 10.2568 16.4223 10.3354C16.4522 10.4139 16.4663 10.4976 16.4638 10.5816C16.4613 10.6657 16.4423 10.7484 16.4079 10.825C16.3734 10.9017 16.3242 10.9708 16.2631 11.0285L10.976 16.0093C10.8578 16.1211 10.7013 16.1835 10.5386 16.1837Z" fill="#202020"/>
</svg>
