<svg width="24" height="24" viewBox="0 0 24 24" fill="none" xmlns="http://www.w3.org/2000/svg">
<path fill-rule="evenodd" clip-rule="evenodd" d="M3 7.5C3 5.93674 4.19572 4.65274 5.72246 4.51268L5.9025 5.13C6.18251 6.09 7.06252 6.75 8.0625 6.75H13.6875C14.6875 6.75 15.5675 6.09 15.8475 5.13L16.0276 4.51268C17.5543 4.65274 18.75 5.93674 18.75 7.5V13.5C18.75 13.9142 19.0858 14.25 19.5 14.25C19.9142 14.25 20.25 13.9142 20.25 13.5V7.5C20.25 5.22713 18.5649 3.3478 16.3759 3.04318C16.4019 1.82324 15.42 0.75 14.125 0.75H7.62503C6.33004 0.75 5.3481 1.82324 5.37409 3.04318C3.18508 3.34779 1.5 5.22713 1.5 7.5V18.75C1.5 21.2353 3.51472 23.25 6 23.25H10.125C10.5392 23.25 10.875 22.9142 10.875 22.5C10.875 22.0858 10.5392 21.75 10.125 21.75H6C4.34314 21.75 3 20.4069 3 18.75V7.5ZM7.62503 2.25C7.125 2.25 6.765 2.73 6.90503 3.21L7.3425 4.71C7.43584 5.02999 7.72916 5.25 8.0625 5.25H13.6875C14.0208 5.25 14.3142 5.02999 14.4075 4.71L14.845 3.21C14.985 2.73 14.625 2.25 14.125 2.25H7.62503Z" fill="#202020"/>
<path d="M6.375 9.75C5.96078 9.75 5.625 10.0858 5.625 10.5C5.625 10.9142 5.96078 11.25 6.375 11.25H15.375C15.7892 11.25 16.125 10.9142 16.125 10.5C16.125 10.0858 15.7892 9.75 15.375 9.75H6.375ZM5.625 14.25C5.625 13.8358 5.96078 13.5 6.375 13.5H8.8125C9.22673 13.5 9.5625 13.8358 9.5625 14.25C9.5625 14.6642 9.22673 15 8.8125 15H6.375C5.96078 15 5.625 14.6642 5.625 14.25ZM6.375 17.25C5.96078 17.25 5.625 17.5858 5.625 18C5.625 18.4142 5.96078 18.75 6.375 18.75H8.8125C9.22673 18.75 9.5625 18.4142 9.5625 18C9.5625 17.5858 9.22673 17.25 8.8125 17.25H6.375Z" fill="#202020"/>
<path fill-rule="evenodd" clip-rule="evenodd" d="M15.2129 15C14.4972 15 13.8323 15.4382 13.59 16.1321L13.2691 17.051C12.9516 16.979 12.6119 17.1212 12.4469 17.4207C12.2759 17.7309 12.3477 18.1095 12.599 18.3376C12.2321 18.6907 12 19.1813 12 19.7386V21.5796C12 22.5346 12.8008 23.25 13.7143 23.25C14.4246 23.25 15.0667 22.8175 15.3173 22.1761H19.1827C19.4333 22.8175 20.0754 23.25 20.7857 23.25C21.6992 23.25 22.5 22.5346 22.5 21.5796V19.7386C22.5 19.1732 22.2612 18.6765 21.885 18.3224C22.123 18.0929 22.188 17.7241 22.0208 17.4207C21.861 17.1307 21.5374 16.9881 21.2287 17.0448L20.91 16.1321C20.6677 15.4382 20.0028 15 19.2871 15H15.2129ZM15.0061 16.6266L14.6099 17.7614H19.8901L19.4939 16.6266C19.4737 16.5688 19.4016 16.5 19.2871 16.5H15.2129C15.0984 16.5 15.0263 16.5688 15.0061 16.6266ZM13.5 19.7386C13.5 19.5075 13.7066 19.2614 14.0357 19.2614H20.4643C20.7934 19.2614 21 19.5075 21 19.7386V21.5796C21 21.6412 20.9373 21.75 20.7857 21.75C20.6341 21.75 20.5714 21.6412 20.5714 21.5796V21.4261C20.5714 21.0119 20.2356 20.6761 19.8214 20.6761H14.6786C14.2644 20.6761 13.9286 21.0119 13.9286 21.4261V21.5796C13.9286 21.6412 13.8659 21.75 13.7143 21.75C13.5627 21.75 13.5 21.6412 13.5 21.5796V19.7386Z" fill="#202020"/>
</svg>
