<svg width="24" height="24" viewBox="0 0 24 24" fill="none" xmlns="http://www.w3.org/2000/svg">
<path d="M15.5286 19.0964C15.3668 19.0962 15.211 19.0347 15.0926 18.9242C14.9743 18.8138 14.9022 18.6626 14.8909 18.5012L14.7309 16.2061C14.7195 16.0434 14.7706 15.8825 14.8739 15.7562C14.9771 15.63 15.1247 15.5479 15.2864 15.5268L17.5709 15.2276C17.6546 15.2158 17.7399 15.2207 17.8217 15.2421C17.9035 15.2634 17.9803 15.3008 18.0476 15.352C18.1149 15.4032 18.1714 15.4672 18.2138 15.5404C18.2562 15.6136 18.2836 15.6944 18.2946 15.7783C18.3056 15.8621 18.2998 15.9473 18.2777 16.0289C18.2555 16.1105 18.2174 16.187 18.1656 16.2538C18.1137 16.3206 18.0492 16.3764 17.9756 16.4181C17.902 16.4598 17.8209 16.4865 17.737 16.4967L16.0499 16.7175L16.169 18.4116C16.1808 18.5809 16.125 18.748 16.0136 18.8761C15.9023 19.0042 15.7447 19.0829 15.5754 19.0948C15.559 19.096 15.5437 19.0964 15.5286 19.0964Z" fill="#202020"/>
<path d="M19.3718 20.3303C19.2161 20.3304 19.0658 20.2735 18.9491 20.1703L14.944 16.6401C14.8794 16.5849 14.8265 16.5175 14.7883 16.4417C14.75 16.3659 14.7272 16.2833 14.7212 16.1986C14.7152 16.1139 14.7262 16.0289 14.7533 15.9484C14.7805 15.868 14.8234 15.7938 14.8796 15.7301C14.9357 15.6664 15.004 15.6146 15.0804 15.5775C15.1567 15.5405 15.2397 15.519 15.3245 15.5143C15.4093 15.5097 15.4941 15.5219 15.5741 15.5504C15.6541 15.5788 15.7276 15.6229 15.7904 15.6801L19.7955 19.2103C19.893 19.2963 19.9621 19.41 19.9934 19.5362C20.0247 19.6624 20.0168 19.7951 19.9708 19.9167C19.9248 20.0384 19.8428 20.1431 19.7358 20.2169C19.6288 20.2908 19.5019 20.3304 19.3718 20.3303ZM15.8797 21.0397H6.96801C6.06022 21.0387 5.1899 20.6776 4.548 20.0357C3.90609 19.3938 3.54502 18.5235 3.54401 17.6157V7.55205C3.54401 6.64395 3.90475 5.77304 4.54687 5.13092C5.189 4.48879 6.0599 4.12805 6.96801 4.12805H8.02913C8.19886 4.12805 8.36165 4.19548 8.48167 4.3155C8.6017 4.43553 8.66913 4.59831 8.66913 4.76805C8.66913 4.93779 8.6017 5.10058 8.48167 5.2206C8.36165 5.34062 8.19886 5.40805 8.02913 5.40805H6.96801C6.39938 5.40805 5.85405 5.63394 5.45197 6.03601C5.04989 6.43809 4.82401 6.98343 4.82401 7.55205V17.6161C4.82451 18.1845 5.05056 18.7296 5.45253 19.1315C5.8545 19.5335 6.39954 19.7595 6.96801 19.7601H15.8797C16.0494 19.7601 16.2122 19.8275 16.3322 19.9475C16.4523 20.0675 16.5197 20.2303 16.5197 20.4001C16.5197 20.5698 16.4523 20.7326 16.3322 20.8526C16.2122 20.9726 16.0494 21.0401 15.8797 21.0401V21.0397ZM19.8157 16.8743C19.6459 16.8743 19.4832 16.8069 19.3631 16.6868C19.2431 16.5668 19.1757 16.404 19.1757 16.2343V7.55205C19.1752 6.98358 18.9491 6.43854 18.5472 6.03658C18.1452 5.63461 17.6002 5.40856 17.0317 5.40805H16.0179C15.8482 5.40805 15.6854 5.34062 15.5654 5.2206C15.4454 5.10058 15.3779 4.93779 15.3779 4.76805C15.3779 4.59831 15.4454 4.43553 15.5654 4.3155C15.6854 4.19548 15.8482 4.12805 16.0179 4.12805H17.032C17.9398 4.12907 18.8101 4.49014 19.452 5.13204C20.0939 5.77394 20.455 6.64426 20.456 7.55205V16.2343C20.456 16.3184 20.4394 16.4016 20.4073 16.4793C20.3751 16.557 20.3279 16.6275 20.2684 16.687C20.209 16.7464 20.1384 16.7935 20.0607 16.8257C19.983 16.8578 19.8998 16.8743 19.8157 16.8743Z" fill="#202020"/>
<path d="M15.3879 6.79298H8.61219C8.31211 6.79264 8.02442 6.67329 7.81223 6.4611C7.60004 6.24891 7.48069 5.96122 7.48035 5.66114V4.09314C7.48069 3.79307 7.60004 3.50537 7.81223 3.29319C8.02442 3.081 8.31211 2.96164 8.61219 2.9613H15.3879C15.6879 2.96164 15.9756 3.081 16.1878 3.29319C16.4 3.50537 16.5194 3.79307 16.5197 4.09314V5.66114C16.5194 5.96122 16.4 6.24891 16.1878 6.4611C15.9756 6.67329 15.6879 6.79264 15.3879 6.79298ZM8.76035 5.51298H15.2397V4.24034H8.76035V5.51298Z" fill="#202020"/>
</svg>
