<svg width="24" height="24" viewBox="0 0 24 24" fill="none" xmlns="http://www.w3.org/2000/svg">
<path d="M12 18.0611C8.65788 18.0611 5.93884 15.3411 5.93884 12C5.93884 8.6589 8.65884 5.9389 12 5.9389C15.3411 5.9389 18.0611 8.6589 18.0611 12C18.0611 15.3411 15.342 18.0611 12 18.0611ZM12 7.2189C9.36348 7.2189 7.21884 9.3629 7.21884 12C7.21884 14.6371 9.36284 16.7811 12 16.7811C14.6364 16.7811 16.7811 14.6371 16.7811 12C16.7811 9.3629 14.6364 7.2189 12 7.2189Z" fill="#202020"/>
<path d="M8.93468 8.16865C8.76494 8.16865 8.60215 8.10122 8.48213 7.9812C8.36211 7.86117 8.29468 7.69839 8.29468 7.52865V5.36513C8.29519 4.94832 8.46099 4.54873 8.75571 4.254C9.05044 3.95928 9.45003 3.79348 9.86684 3.79297H14.1331C14.5499 3.79348 14.9495 3.95928 15.2442 4.254C15.5389 4.54873 15.7047 4.94832 15.7052 5.36513V7.51201C15.7052 7.68175 15.6378 7.84453 15.5178 7.96456C15.3978 8.08458 15.235 8.15201 15.0652 8.15201C14.8955 8.15201 14.7327 8.08458 14.6127 7.96456C14.4927 7.84453 14.4252 7.68175 14.4252 7.51201V5.36513C14.4252 5.28767 14.3943 5.21341 14.3396 5.15863C14.2848 5.10386 14.2105 5.07305 14.1331 5.07297H9.86684C9.78938 5.07305 9.71512 5.10386 9.66034 5.15863C9.60557 5.21341 9.57476 5.28767 9.57468 5.36513V7.52865C9.57468 7.69839 9.50725 7.86117 9.38723 7.9812C9.2672 8.10122 9.10442 8.16865 8.93468 8.16865ZM14.1331 20.207H9.86684C9.45003 20.2065 9.05044 20.0407 8.75571 19.746C8.46099 19.4513 8.29519 19.0517 8.29468 18.6349V16.4717C8.29468 16.3019 8.36211 16.1392 8.48213 16.0191C8.60215 15.8991 8.76494 15.8317 8.93468 15.8317C9.10442 15.8317 9.2672 15.8991 9.38723 16.0191C9.50725 16.1392 9.57468 16.3019 9.57468 16.4717V18.6349C9.57476 18.7123 9.60557 18.7866 9.66034 18.8414C9.71512 18.8962 9.78938 18.927 9.86684 18.927H14.1331C14.2105 18.927 14.2848 18.8962 14.3396 18.8414C14.3943 18.7866 14.4252 18.7123 14.4252 18.6349V16.4714C14.4252 16.3016 14.4927 16.1388 14.6127 16.0188C14.7327 15.8988 14.8955 15.8314 15.0652 15.8314C15.235 15.8314 15.3978 15.8988 15.5178 16.0188C15.6378 16.1388 15.7052 16.3016 15.7052 16.4714V18.6349C15.7047 19.0517 15.5389 19.4513 15.2442 19.746C14.9495 20.0407 14.5499 20.2065 14.1331 20.207ZM9.8838 13.9229C9.74418 13.9228 9.6084 13.8771 9.49718 13.7927C9.38596 13.7083 9.3054 13.5898 9.26777 13.4554C9.23014 13.3209 9.23751 13.1778 9.28876 13.048C9.34001 12.9181 9.43233 12.8085 9.55164 12.736L11.36 11.6394V8.99201C11.36 8.82227 11.4274 8.65948 11.5474 8.53946C11.6674 8.41944 11.8302 8.35201 12 8.35201C12.1697 8.35201 12.3325 8.41944 12.4525 8.53946C12.5725 8.65948 12.64 8.82227 12.64 8.99201V12C12.6399 12.11 12.6116 12.2182 12.5576 12.314C12.5036 12.4099 12.4259 12.4902 12.3318 12.5472L10.215 13.8301C10.1152 13.8909 10.0006 13.923 9.8838 13.9229Z" fill="#202020"/>
</svg>
