<svg width="24" height="24" viewBox="0 0 24 24" fill="none" xmlns="http://www.w3.org/2000/svg">
<path d="M11.9999 20.6807C9.99172 20.6806 8.04565 19.9842 6.49332 18.7101C4.94098 17.4361 3.87843 15.6632 3.4867 13.6935C3.09497 11.7239 3.39831 9.67934 4.34502 7.90827C5.29173 6.1372 6.82325 4.74917 8.67862 3.98069C10.534 3.21222 12.5984 3.11083 14.5202 3.69382C16.4419 4.27681 18.1021 5.50809 19.2178 7.17788C20.3334 8.84767 20.8357 10.8526 20.6388 12.8512C20.4419 14.8498 19.5582 16.7182 18.1382 18.1383C17.3339 18.9468 16.3773 19.5878 15.3237 20.0242C14.2701 20.4606 13.1404 20.6837 11.9999 20.6807ZM11.9999 4.59937C7.91931 4.59937 4.59931 7.91937 4.59931 12C4.59931 16.0806 7.91931 19.4007 11.9999 19.4007C16.0806 19.4007 19.4006 16.0806 19.4006 12C19.4006 7.91937 16.0806 4.59937 11.9999 4.59937Z" fill="#202020"/>
<path d="M9.25664 15.3834C9.13001 15.3834 9.00622 15.3459 8.90093 15.2756C8.79564 15.2052 8.71358 15.1052 8.66514 14.9882C8.6167 14.8712 8.60405 14.7425 8.6288 14.6183C8.65354 14.4941 8.71457 14.3801 8.80416 14.2906L14.2906 8.80419C14.35 8.74475 14.4206 8.6976 14.4982 8.66543C14.5759 8.63326 14.6591 8.6167 14.7432 8.6167C14.8273 8.6167 14.9105 8.63326 14.9882 8.66543C15.0658 8.6976 15.1364 8.74475 15.1958 8.80419C15.2553 8.86363 15.3024 8.9342 15.3346 9.01186C15.3668 9.08953 15.3833 9.17277 15.3833 9.25683C15.3833 9.34089 15.3668 9.42413 15.3346 9.5018C15.3024 9.57946 15.2553 9.65003 15.1958 9.70947L9.70944 15.1959C9.64999 15.2553 9.57939 15.3025 9.5017 15.3347C9.42401 15.3669 9.34073 15.3834 9.25664 15.3834Z" fill="#202020"/>
<path d="M14.7434 15.3834C14.6593 15.3834 14.576 15.3669 14.4983 15.3347C14.4206 15.3025 14.35 15.2553 14.2906 15.1959L8.80419 9.70947C8.74475 9.65003 8.6976 9.57946 8.66543 9.5018C8.63326 9.42413 8.6167 9.34089 8.6167 9.25683C8.6167 9.17277 8.63326 9.08953 8.66543 9.01186C8.6976 8.9342 8.74475 8.86363 8.80419 8.80419C8.86363 8.74475 8.9342 8.6976 9.01186 8.66543C9.08953 8.63326 9.17277 8.6167 9.25683 8.6167C9.34089 8.6167 9.42413 8.63326 9.5018 8.66543C9.57946 8.6976 9.65003 8.74475 9.70947 8.80419L15.1959 14.2906C15.2855 14.3801 15.3465 14.4941 15.3712 14.6183C15.396 14.7425 15.3833 14.8712 15.3349 14.9882C15.2864 15.1052 15.2044 15.2052 15.0991 15.2756C14.9938 15.3459 14.87 15.3834 14.7434 15.3834Z" fill="#202020"/>
</svg>
