<svg width="24" height="24" viewBox="0 0 24 24" fill="none" xmlns="http://www.w3.org/2000/svg">
<path d="M17.032 20.4557H6.96801C6.06022 20.4547 5.1899 20.0936 4.548 19.4517C3.90609 18.8098 3.54502 17.9395 3.54401 17.0317V6.96801C3.54502 6.06022 3.90609 5.1899 4.548 4.548C5.1899 3.90609 6.06022 3.54502 6.96801 3.54401H17.032C17.9398 3.54502 18.8101 3.90609 19.452 4.548C20.0939 5.1899 20.455 6.06022 20.456 6.96801V17.032C20.456 17.9401 20.0953 18.811 19.4531 19.4531C18.811 20.0953 17.9401 20.456 17.032 20.456V20.4557ZM6.96801 4.82433C6.39954 4.82483 5.8545 5.05088 5.45253 5.45285C5.05056 5.85482 4.82451 6.39986 4.82401 6.96833V17.0323C4.82451 17.6008 5.05056 18.1458 5.45253 18.5478C5.8545 18.9498 6.39954 19.1758 6.96801 19.1763H17.032C17.3136 19.1763 17.5924 19.1209 17.8525 19.0131C18.1126 18.9054 18.349 18.7475 18.548 18.5484C18.7471 18.3493 18.9051 18.1129 19.0128 17.8528C19.1206 17.5927 19.176 17.3139 19.176 17.0323V6.96801C19.1755 6.39954 18.9494 5.8545 18.5475 5.45253C18.1455 5.05056 17.6005 4.82451 17.032 4.82401L6.96801 4.82433Z" fill="#202020"/>
<path d="M9.25664 15.3834C9.13001 15.3834 9.00622 15.3459 8.90093 15.2755C8.79564 15.2052 8.71358 15.1052 8.66514 14.9882C8.6167 14.8712 8.60405 14.7425 8.6288 14.6183C8.65354 14.4941 8.71457 14.38 8.80416 14.2906L14.2906 8.80416C14.35 8.74472 14.4206 8.69757 14.4982 8.6654C14.5759 8.63323 14.6591 8.61667 14.7432 8.61667C14.8273 8.61667 14.9105 8.63323 14.9882 8.6654C15.0658 8.69757 15.1364 8.74472 15.1958 8.80416C15.2553 8.8636 15.3024 8.93417 15.3346 9.01183C15.3668 9.0895 15.3833 9.17274 15.3833 9.2568C15.3833 9.34086 15.3668 9.4241 15.3346 9.50177C15.3024 9.57943 15.2553 9.65 15.1958 9.70944L9.70944 15.1958C9.64999 15.2553 9.57939 15.3025 9.5017 15.3347C9.42401 15.3668 9.34073 15.3834 9.25664 15.3834Z" fill="#202020"/>
<path d="M14.7434 15.3834C14.6593 15.3834 14.576 15.3668 14.4983 15.3347C14.4206 15.3025 14.35 15.2553 14.2906 15.1958L8.80416 9.70944C8.74472 9.65 8.69757 9.57943 8.6654 9.50177C8.63323 9.4241 8.61667 9.34086 8.61667 9.2568C8.61667 9.17274 8.63323 9.0895 8.6654 9.01183C8.69757 8.93417 8.74472 8.8636 8.80416 8.80416C8.8636 8.74472 8.93417 8.69757 9.01183 8.6654C9.0895 8.63323 9.17274 8.61667 9.2568 8.61667C9.34086 8.61667 9.4241 8.63323 9.50177 8.6654C9.57943 8.69757 9.65 8.74472 9.70944 8.80416L15.1958 14.2906C15.2854 14.38 15.3465 14.4941 15.3712 14.6183C15.3959 14.7425 15.3833 14.8712 15.3349 14.9882C15.2864 15.1052 15.2044 15.2052 15.0991 15.2755C14.9938 15.3459 14.87 15.3834 14.7434 15.3834Z" fill="#202020"/>
</svg>
