<svg width="24" height="24" viewBox="0 0 24 24" fill="none" xmlns="http://www.w3.org/2000/svg">
<path d="M18.3576 15.1152H5.49964C4.69082 15.1168 3.91292 14.8046 3.32972 14.2441C3.03852 13.9676 2.80472 13.6363 2.64169 13.2693C2.47867 12.9023 2.38962 12.5067 2.37964 12.1053C2.37964 12.0733 2.37964 12.0413 2.37964 12.0118C2.38074 11.1202 2.71922 10.262 3.32707 9.60971C3.93492 8.95739 4.76711 8.55928 5.65644 8.49534C5.89831 7.27699 6.5188 6.16616 7.42938 5.32135C8.33996 4.47653 9.4941 3.94089 10.7271 3.79085C11.9602 3.64082 13.2091 3.88405 14.2957 4.48585C15.3823 5.08765 16.2511 6.01727 16.778 7.14206C16.9604 7.11968 17.1441 7.10899 17.3278 7.11006C19.69 7.12222 21.6158 9.05406 21.6219 11.4163C21.6237 12.1592 21.4339 12.8901 21.0708 13.5382C20.799 14.018 20.4044 14.4169 19.9277 14.694C19.4509 14.9711 18.909 15.1164 18.3576 15.1152ZM5.90348 9.76702C5.30827 9.76761 4.73761 10.0043 4.31671 10.4251C3.8958 10.846 3.65904 11.4166 3.65836 12.0118C3.65836 12.032 3.65836 12.0521 3.65836 12.0726C3.68332 13.0445 4.50924 13.8352 5.49868 13.8352H18.3576C18.6818 13.8366 19.0005 13.7518 19.2812 13.5895C19.5618 13.4271 19.7943 13.1931 19.9547 12.9113C20.2098 12.4555 20.3432 11.9416 20.3419 11.4192C20.3377 9.75742 18.9828 8.3987 17.3214 8.39006C17.0596 8.38838 16.7986 8.42065 16.5451 8.48606C16.3906 8.52591 16.2268 8.50662 16.0858 8.43198C15.9448 8.35733 15.8367 8.23271 15.7828 8.08254C15.4283 7.09548 14.748 6.25864 13.8542 5.70988C12.9604 5.16112 11.9064 4.93317 10.8657 5.06359C9.82502 5.194 8.8598 5.675 8.12905 6.42735C7.3983 7.17969 6.94561 8.15851 6.84556 9.20254C6.83756 9.28675 6.81296 9.36853 6.77316 9.44317C6.73336 9.51781 6.67916 9.58381 6.6137 9.63738C6.54823 9.69094 6.4728 9.73099 6.39176 9.75522C6.31072 9.77945 6.22568 9.78738 6.14156 9.77854C6.06245 9.77061 5.98298 9.76677 5.90348 9.76702ZM12.0001 20.6051C11.5671 20.6051 11.1438 20.4767 10.7837 20.2361C10.4237 19.9955 10.1431 19.6536 9.97734 19.2535C9.81163 18.8535 9.76827 18.4132 9.85275 17.9885C9.93723 17.5638 10.1458 17.1737 10.452 16.8675C10.7582 16.5613 11.1483 16.3528 11.573 16.2683C11.9977 16.1838 12.4379 16.2272 12.838 16.3929C13.238 16.5586 13.58 16.8392 13.8206 17.1993C14.0612 17.5593 14.1896 17.9826 14.1896 18.4157C14.1889 18.9961 13.958 19.5526 13.5475 19.9631C13.1371 20.3735 12.5806 20.6044 12.0001 20.6051ZM12.0001 17.5065C11.8202 17.5065 11.6444 17.5599 11.4948 17.6598C11.3453 17.7598 11.2287 17.9018 11.1599 18.068C11.0911 18.2342 11.0731 18.4171 11.1082 18.5935C11.1433 18.7699 11.2299 18.932 11.3572 19.0592C11.4844 19.1863 11.6465 19.2729 11.8229 19.308C11.9993 19.343 12.1822 19.325 12.3484 19.2561C12.5145 19.1872 12.6566 19.0706 12.7564 18.921C12.8563 18.7714 12.9096 18.5955 12.9096 18.4157C12.9092 18.1746 12.8133 17.9435 12.6428 17.7731C12.4723 17.6026 12.2412 17.5068 12.0001 17.5065Z" fill="#202020"/>
<path d="M10.4506 19.0557H6.5399C6.37016 19.0557 6.20738 18.9882 6.08735 18.8682C5.96733 18.7482 5.8999 18.5854 5.8999 18.4157C5.8999 18.2459 5.96733 18.0831 6.08735 17.9631C6.20738 17.8431 6.37016 17.7757 6.5399 17.7757H10.4506C10.6204 17.7757 10.7831 17.8431 10.9032 17.9631C11.0232 18.0831 11.0906 18.2459 11.0906 18.4157C11.0906 18.5854 11.0232 18.7482 10.9032 18.8682C10.7831 18.9882 10.6204 19.0557 10.4506 19.0557ZM17.4602 19.0557H13.5495C13.3798 19.0557 13.217 18.9882 13.097 18.8682C12.9769 18.7482 12.9095 18.5854 12.9095 18.4157C12.9095 18.2459 12.9769 18.0831 13.097 17.9631C13.217 17.8431 13.3798 17.7757 13.5495 17.7757H17.4602C17.63 17.7757 17.7927 17.8431 17.9128 17.9631C18.0328 18.0831 18.1002 18.2459 18.1002 18.4157C18.1002 18.5854 18.0328 18.7482 17.9128 18.8682C17.7927 18.9882 17.63 19.0557 17.4602 19.0557ZM12.0001 17.5065C11.8303 17.5065 11.6675 17.4391 11.5475 17.3191C11.4275 17.1991 11.3601 17.0363 11.3601 16.8665V14.5891C11.3601 14.4194 11.4275 14.2566 11.5475 14.1365C11.6675 14.0165 11.8303 13.9491 12.0001 13.9491C12.1698 13.9491 12.3326 14.0165 12.4526 14.1365C12.5726 14.2566 12.6401 14.4194 12.6401 14.5891V16.8665C12.6401 17.0363 12.5726 17.1991 12.4526 17.3191C12.3326 17.4391 12.1698 17.5065 12.0001 17.5065Z" fill="#202020"/>
</svg>
