<svg width="24" height="24" viewBox="0 0 24 24" fill="none" xmlns="http://www.w3.org/2000/svg">
<path d="M19.6683 13.2304C19.4985 13.2304 19.3357 13.163 19.2157 13.043C19.0957 12.9229 19.0283 12.7601 19.0283 12.5904C19.0283 8.74688 15.9012 5.61984 12.0577 5.61984C11.888 5.61984 11.7252 5.55242 11.6052 5.43239C11.4851 5.31237 11.4177 5.14958 11.4177 4.97984C11.4177 4.81011 11.4851 4.64732 11.6052 4.5273C11.7252 4.40727 11.888 4.33984 12.0577 4.33984C14.2459 4.33993 16.3444 5.20921 17.8916 6.75647C19.4389 8.30373 20.3082 10.4022 20.3083 12.5904C20.3083 12.7601 20.2408 12.9229 20.1208 13.043C20.0008 13.163 19.838 13.2304 19.6683 13.2304ZM12.0577 20.8406C9.86977 20.8403 7.77155 19.971 6.22451 18.4238C4.67746 16.8766 3.80828 14.7783 3.80811 12.5904C3.80811 12.4207 3.87553 12.2579 3.99556 12.1379C4.11558 12.0178 4.27837 11.9504 4.44811 11.9504C4.61784 11.9504 4.78063 12.0178 4.90065 12.1379C5.02068 12.2579 5.08811 12.4207 5.08811 12.5904C5.08811 16.4336 8.21515 19.5606 12.0583 19.5606C12.2281 19.5606 12.3909 19.6281 12.5109 19.7481C12.6309 19.8681 12.6983 20.0309 12.6983 20.2006C12.6983 20.3704 12.6309 20.5332 12.5109 20.6532C12.3909 20.7732 12.2281 20.8406 12.0583 20.8406H12.0577Z" fill="#202020"/>
<path d="M19.6679 13.8467C19.5154 13.8468 19.3678 13.7924 19.2519 13.6934L17.8807 12.5225C17.8168 12.4679 17.7642 12.4012 17.7261 12.3263C17.6879 12.2514 17.6649 12.1696 17.6584 12.0858C17.6518 12.002 17.6618 11.9177 17.6878 11.8377C17.7138 11.7578 17.7553 11.6837 17.81 11.6198C17.8646 11.5559 17.9313 11.5034 18.0062 11.4652C18.0811 11.4271 18.1628 11.4041 18.2467 11.3975C18.3305 11.3909 18.4148 11.4009 18.4947 11.4269C18.5747 11.453 18.6488 11.4945 18.7127 11.5491L19.5949 12.3024L20.4212 11.3251C20.5313 11.1972 20.6874 11.1179 20.8557 11.1046C21.0239 11.0913 21.1906 11.1449 21.3195 11.2539C21.4484 11.3629 21.529 11.5184 21.5438 11.6865C21.5585 11.8547 21.5063 12.0218 21.3984 12.1517L20.1568 13.6198C20.1024 13.6841 20.0357 13.7369 19.9608 13.7754C19.8858 13.8138 19.804 13.8371 19.72 13.8438C19.7028 13.8461 19.6852 13.8467 19.6679 13.8467ZM3.09059 13.304C2.96457 13.304 2.84135 13.2667 2.73639 13.197C2.63144 13.1272 2.54942 13.028 2.50062 12.9118C2.45181 12.7956 2.4384 12.6676 2.46207 12.5438C2.48573 12.42 2.54541 12.306 2.63363 12.216L3.97987 10.8432C4.0389 10.783 4.10923 10.735 4.18683 10.7021C4.26444 10.6692 4.34778 10.6519 4.43208 10.6513C4.51637 10.6507 4.59996 10.6667 4.67805 10.6985C4.75613 10.7303 4.82716 10.7771 4.88707 10.8365L6.16707 12.1053C6.28439 12.2254 6.34982 12.3867 6.34925 12.5546C6.34869 12.7225 6.28217 12.8835 6.16404 13.0028C6.04591 13.1221 5.88563 13.1902 5.71776 13.1924C5.54988 13.1946 5.38785 13.1308 5.26659 13.0147L4.44355 12.1984L3.54755 13.112C3.48805 13.1729 3.41697 13.2212 3.33849 13.2542C3.26001 13.2872 3.17572 13.3041 3.09059 13.304ZM15.2375 15.2083H8.68995C8.19715 15.2092 7.72317 15.0191 7.36771 14.6777C7.18971 14.5085 7.04679 14.3059 6.94714 14.0814C6.84748 13.857 6.79303 13.6151 6.78691 13.3696C6.78691 13.3507 6.78691 13.3321 6.78691 13.3139C6.78751 12.8208 6.96061 12.3435 7.27622 11.9646C7.59183 11.5858 8.03005 11.3293 8.51491 11.2397C8.68769 10.6022 9.04687 10.0308 9.54643 9.59878C10.046 9.16673 10.6632 8.89369 11.3189 8.81462C11.9746 8.73556 12.639 8.85408 13.2269 9.155C13.8149 9.45591 14.2996 9.92552 14.6189 10.5037C14.6509 10.5037 14.6829 10.5037 14.7149 10.5037C15.1521 10.506 15.5811 10.6225 15.9596 10.8414C16.338 11.0604 16.6528 11.3743 16.8727 11.7522C17.0927 12.1301 17.2102 12.5588 17.2137 12.996C17.2173 13.4332 17.1067 13.8637 16.8928 14.2451C16.7271 14.538 16.4864 14.7815 16.1956 14.9508C15.9047 15.1201 15.574 15.2089 15.2375 15.2083ZM8.89603 12.4848C8.67621 12.485 8.46547 12.5725 8.31004 12.7279C8.1546 12.8833 8.06717 13.0941 8.06691 13.3139C8.06691 13.3216 8.06691 13.3293 8.06691 13.3373C8.07523 13.663 8.35491 13.9283 8.69027 13.9283H15.2375C15.3466 13.9289 15.454 13.9005 15.5486 13.846C15.6433 13.7915 15.7217 13.7129 15.776 13.6182C15.8806 13.4311 15.9346 13.22 15.9327 13.0056C15.9308 12.7913 15.8731 12.5811 15.7652 12.3959C15.6573 12.2107 15.5029 12.0568 15.3174 11.9495C15.1319 11.8421 14.9216 11.7849 14.7072 11.7837C14.6008 11.7831 14.4948 11.7961 14.3917 11.8224C14.2376 11.8615 14.0745 11.8419 13.934 11.7674C13.7936 11.6929 13.686 11.5687 13.632 11.4192C13.4756 10.9837 13.1754 10.6146 12.7811 10.3725C12.3868 10.1304 11.9218 10.0299 11.4627 10.0874C11.0036 10.1449 10.5777 10.3571 10.2553 10.689C9.93294 11.0209 9.73319 11.4527 9.68899 11.9133C9.681 11.9975 9.65639 12.0792 9.61659 12.1539C9.57679 12.2285 9.52259 12.2945 9.45713 12.3481C9.39166 12.4016 9.31623 12.4417 9.23519 12.4659C9.15415 12.4902 9.06911 12.4981 8.98499 12.4893C8.95544 12.4862 8.92574 12.4847 8.89603 12.4848Z" fill="#202020"/>
</svg>
