<svg width="24" height="24" viewBox="0 0 24 24" fill="none" xmlns="http://www.w3.org/2000/svg">
<path d="M12.0001 18.4486C11.2927 18.4487 10.6011 18.239 10.0129 17.846C9.42468 17.453 8.9662 16.8945 8.69544 16.2409C8.42469 15.5874 8.35381 14.8682 8.49178 14.1744C8.62975 13.4806 8.97037 12.8433 9.47056 12.343C9.97075 11.8428 10.608 11.5021 11.3019 11.3641C11.9957 11.2261 12.7148 11.2969 13.3684 11.5676C14.0219 11.8383 14.5806 12.2967 14.9736 12.8849C15.3666 13.4731 15.5764 14.1646 15.5764 14.872C15.5754 15.8202 15.1983 16.7293 14.5278 17.3998C13.8573 18.0703 12.9483 18.4475 12.0001 18.4486ZM12.0001 12.576C11.5458 12.5759 11.1017 12.7106 10.724 12.9629C10.3463 13.2152 10.0518 13.5739 9.87798 13.9936C9.70411 14.4133 9.6586 14.8751 9.74721 15.3206C9.83582 15.7661 10.0546 16.1754 10.3758 16.4966C10.697 16.8178 11.1062 17.0366 11.5518 17.1252C11.9973 17.2138 12.4591 17.1683 12.8788 16.9944C13.2984 16.8205 13.6571 16.5261 13.9095 16.1484C14.1618 15.7706 14.2964 15.3266 14.2964 14.8723C14.2957 14.2635 14.0535 13.6798 13.6231 13.2493C13.1926 12.8188 12.6089 12.5767 12.0001 12.576Z" fill="#202020"/>
<path d="M18.3573 15.512H14.9362C14.7665 15.512 14.6037 15.4446 14.4836 15.3246C14.3636 15.2045 14.2962 15.0417 14.2962 14.872C14.2962 14.7023 14.3636 14.5395 14.4836 14.4195C14.6037 14.2994 14.7665 14.232 14.9362 14.232H18.3573C18.6815 14.2334 19.0003 14.1486 19.2809 13.9863C19.5616 13.824 19.794 13.5899 19.9544 13.3082C20.2096 12.8523 20.3429 12.3384 20.3416 11.816C20.3375 10.1543 18.9826 8.79521 17.3212 8.78689C17.0593 8.7852 16.7984 8.81747 16.5448 8.88289C16.3905 8.92269 16.2268 8.90345 16.0859 8.82893C15.945 8.75442 15.8369 8.62999 15.7829 8.48001C15.4284 7.49278 14.7482 6.65575 13.8544 6.10685C12.9605 5.55795 11.9063 5.32993 10.8655 5.46035C9.82473 5.59078 8.85941 6.07187 8.12864 6.82436C7.39786 7.57685 6.94522 8.55584 6.84531 9.60001C6.83732 9.68422 6.81271 9.766 6.77291 9.84064C6.73312 9.91528 6.67892 9.98128 6.61345 10.0348C6.54799 10.0884 6.47256 10.1285 6.39152 10.1527C6.31048 10.1769 6.22544 10.1848 6.14131 10.176C6.06222 10.1678 5.98276 10.1636 5.90323 10.1635C5.30803 10.1641 4.73737 10.4008 4.31646 10.8217C3.89556 11.2425 3.65879 11.8131 3.65811 12.4083C3.65811 12.4282 3.65811 12.4483 3.65811 12.4685C3.68307 13.441 4.50899 14.2317 5.49843 14.2317H9.06355C9.23329 14.2317 9.39608 14.2991 9.5161 14.4191C9.63613 14.5392 9.70355 14.702 9.70355 14.8717C9.70355 15.0414 9.63613 15.2042 9.5161 15.3242C9.39608 15.4443 9.23329 15.5117 9.06355 15.5117H5.49939C4.69058 15.5133 3.91267 15.2011 3.32947 14.6407C3.03828 14.3641 2.80447 14.0328 2.64145 13.6658C2.47842 13.2988 2.38937 12.9032 2.37939 12.5018C2.37939 12.4698 2.37939 12.4394 2.37939 12.4083C2.38057 11.5168 2.71909 10.6587 3.32693 10.0064C3.93478 9.35417 4.76692 8.9561 5.65619 8.89217C5.89802 7.67381 6.51848 6.56294 7.42903 5.71809C8.33959 4.87323 9.49373 4.33755 10.7268 4.18748C11.9598 4.03741 13.2087 4.28061 14.2954 4.88239C15.382 5.48417 16.2508 6.41378 16.7778 7.53857C16.9602 7.51638 17.1438 7.50569 17.3276 7.50657C19.6898 7.51873 21.6156 9.45057 21.6216 11.8128C21.6235 12.5557 21.4337 13.2866 21.0706 13.9347C20.7988 14.4146 20.4043 14.8135 19.9275 15.0907C19.4507 15.3678 18.9088 15.5132 18.3573 15.512Z" fill="#202020"/>
<path d="M12.6151 16.1395C12.5304 16.1397 12.4466 16.1229 12.3685 16.0904C12.2904 16.0578 12.2195 16.01 12.1601 15.9498L10.93 14.7072C10.8106 14.5865 10.744 14.4233 10.7449 14.2536C10.7458 14.0838 10.8141 13.9213 10.9348 13.8019C11.0555 13.6825 11.2186 13.6159 11.3884 13.6168C11.5582 13.6177 11.7206 13.686 11.8401 13.8067L13.0701 15.0493C13.159 15.139 13.2193 15.2531 13.2435 15.377C13.2676 15.501 13.2546 15.6293 13.206 15.7459C13.1574 15.8624 13.0753 15.962 12.9703 16.0321C12.8652 16.1021 12.7417 16.1395 12.6154 16.1395H12.6151Z" fill="#202020"/>
<path d="M11.3786 16.1146C11.2518 16.1145 11.1278 16.0768 11.0225 16.0062C10.9171 15.9356 10.8351 15.8353 10.7869 15.718C10.7386 15.6007 10.7263 15.4717 10.7515 15.3474C10.7767 15.2231 10.8383 15.1091 10.9284 15.0198L12.1713 13.7898C12.2919 13.6703 12.4551 13.6038 12.6248 13.6046C12.7945 13.6055 12.957 13.6738 13.0764 13.7944C13.1958 13.915 13.2624 14.0782 13.2615 14.2479C13.2607 14.4177 13.1924 14.5801 13.0718 14.6995L11.8289 15.9293C11.7092 16.0482 11.5473 16.1148 11.3786 16.1146Z" fill="#202020"/>
</svg>
