<svg width="24" height="24" viewBox="0 0 24 24" fill="none" xmlns="http://www.w3.org/2000/svg">
<path d="M17.032 20.4556H6.96801C6.06022 20.4546 5.1899 20.0935 4.548 19.4516C3.90609 18.8097 3.54502 17.9394 3.54401 17.0316V6.96795C3.54502 6.06016 3.90609 5.18984 4.548 4.54793C5.1899 3.90603 6.06022 3.54496 6.96801 3.54395H17.032C17.9398 3.54496 18.8101 3.90603 19.452 4.54793C20.0939 5.18984 20.455 6.06016 20.456 6.96795V17.0319C20.4549 17.9397 20.0938 18.8099 19.4519 19.4518C18.81 20.0936 17.9397 20.4546 17.032 20.4556ZM6.96801 4.82427C6.39954 4.82477 5.8545 5.05082 5.45253 5.45279C5.05056 5.85476 4.82451 6.3998 4.82401 6.96827V17.0323C4.82451 17.6007 5.05056 18.1458 5.45253 18.5477C5.8545 18.9497 6.39954 19.1758 6.96801 19.1763H17.032C17.6005 19.1758 18.1455 18.9497 18.5475 18.5477C18.9494 18.1458 19.1755 17.6007 19.176 17.0323V6.96795C19.1755 6.39948 18.9494 5.85444 18.5475 5.45247C18.1455 5.0505 17.6005 4.82445 17.032 4.82395L6.96801 4.82427Z" fill="#202020"/>
<path d="M7.50049 16.256C7.3731 16.2559 7.24862 16.2178 7.143 16.1466C7.03737 16.0753 6.95541 15.9742 6.90761 15.8561C6.8598 15.738 6.84833 15.6084 6.87465 15.4837C6.90098 15.3591 6.9639 15.2451 7.05537 15.1564L8.81729 13.4492L6.91425 11.52C6.85519 11.4602 6.80848 11.3893 6.7768 11.3115C6.74512 11.2336 6.72908 11.1503 6.7296 11.0662C6.73012 10.9822 6.74719 10.8991 6.77983 10.8216C6.81247 10.7442 6.86005 10.6739 6.91985 10.6148C6.97965 10.5558 7.0505 10.5091 7.12835 10.4774C7.2062 10.4457 7.28952 10.4297 7.37357 10.4302C7.45762 10.4307 7.54074 10.4478 7.61819 10.4804C7.69565 10.5131 7.76591 10.5606 7.82497 10.6204L10.1821 13.0067C10.2415 13.0668 10.2885 13.1382 10.3202 13.2166C10.3519 13.295 10.3677 13.3789 10.3668 13.4635C10.3659 13.548 10.3482 13.6316 10.3148 13.7093C10.2814 13.787 10.2329 13.8573 10.1722 13.9161L7.94593 16.0729C7.82695 16.1896 7.66714 16.2553 7.50049 16.256ZM15.056 16.4678H12C11.8303 16.4678 11.6675 16.4004 11.5475 16.2804C11.4274 16.1603 11.36 15.9975 11.36 15.8278C11.36 15.6581 11.4274 15.4953 11.5475 15.3753C11.6675 15.2552 11.8303 15.1878 12 15.1878H15.056C15.2258 15.1878 15.3885 15.2552 15.5086 15.3753C15.6286 15.4953 15.696 15.6581 15.696 15.8278C15.696 15.9975 15.6286 16.1603 15.5086 16.2804C15.3885 16.4004 15.2258 16.4678 15.056 16.4678Z" fill="#202020"/>
</svg>
