<svg width="24" height="24" viewBox="0 0 24 24" fill="none" xmlns="http://www.w3.org/2000/svg">
<path d="M17.0319 20.4557H6.96795C6.06016 20.4547 5.18984 20.0936 4.54793 19.4517C3.90603 18.8098 3.54496 17.9395 3.54395 17.0317V6.96801C3.54496 6.06022 3.90603 5.1899 4.54793 4.548C5.18984 3.90609 6.06016 3.54502 6.96795 3.54401H17.0319C17.9397 3.54502 18.8101 3.90609 19.452 4.548C20.0939 5.1899 20.4549 6.06022 20.4559 6.96801V17.032C20.4548 17.9397 20.0937 18.81 19.4518 19.4518C18.8099 20.0936 17.9397 20.4547 17.0319 20.4557ZM6.96795 4.82433C6.39948 4.82483 5.85444 5.05088 5.45247 5.45285C5.0505 5.85482 4.82445 6.39986 4.82395 6.96833V17.0323C4.82445 17.6008 5.0505 18.1458 5.45247 18.5478C5.85444 18.9498 6.39948 19.1758 6.96795 19.1763H17.0319C17.6004 19.1758 18.1455 18.9498 18.5474 18.5478C18.9494 18.1458 19.1754 17.6008 19.1759 17.0323V6.96801C19.1754 6.39954 18.9494 5.8545 18.5474 5.45253C18.1455 5.05056 17.6004 4.82451 17.0319 4.82401L6.96795 4.82433Z" fill="#202020"/>
<path d="M7.5004 16.256C7.373 16.2559 7.24853 16.2178 7.1429 16.1466C7.03728 16.0754 6.95532 15.9742 6.90752 15.8562C6.85971 15.7381 6.84824 15.6084 6.87456 15.4838C6.90088 15.3591 6.96381 15.2451 7.05528 15.1565L8.8172 13.4493L6.91416 11.52C6.8551 11.4602 6.80839 11.3893 6.77671 11.3115C6.74502 11.2337 6.72898 11.1503 6.7295 11.0663C6.73002 10.9822 6.74709 10.8991 6.77974 10.8217C6.81238 10.7442 6.85996 10.6739 6.91976 10.6149C6.97956 10.5558 7.05041 10.5091 7.12826 10.4774C7.2061 10.4457 7.28943 10.4297 7.37348 10.4302C7.45753 10.4307 7.54065 10.4478 7.6181 10.4805C7.69555 10.5131 7.76582 10.5607 7.82488 10.6205L10.182 13.0067C10.2414 13.0669 10.2884 13.1382 10.3201 13.2166C10.3518 13.295 10.3676 13.3789 10.3667 13.4635C10.3658 13.5481 10.3481 13.6316 10.3147 13.7093C10.2813 13.787 10.2328 13.8573 10.1721 13.9162L7.94584 16.073C7.82685 16.1896 7.66705 16.2553 7.5004 16.256ZM15.0559 16.4678H11.9999C11.8302 16.4678 11.6674 16.4004 11.5474 16.2804C11.4273 16.1604 11.3599 15.9976 11.3599 15.8278C11.3599 15.6581 11.4273 15.4953 11.5474 15.3753C11.6674 15.2553 11.8302 15.1878 11.9999 15.1878H15.0559C15.2257 15.1878 15.3884 15.2553 15.5085 15.3753C15.6285 15.4953 15.6959 15.6581 15.6959 15.8278C15.6959 15.9976 15.6285 16.1604 15.5085 16.2804C15.3884 16.4004 15.2257 16.4678 15.0559 16.4678Z" fill="#202020"/>
</svg>
