<svg width="24" height="24" viewBox="0 0 24 24" fill="none" xmlns="http://www.w3.org/2000/svg">
<path d="M18.6944 13.6C18.5546 13.6002 18.4186 13.5547 18.3071 13.4704C18.1956 13.386 18.1148 13.2675 18.077 13.1329C18.0392 12.9983 18.0466 12.855 18.0979 12.725C18.1493 12.5949 18.2418 12.4853 18.3613 12.4128C18.7893 12.1532 19.16 11.809 19.4506 11.4014C19.7412 10.9937 19.9456 10.5311 20.0515 10.0418C20.1573 9.55248 20.1623 9.04673 20.0661 8.55543C19.97 8.06412 19.7747 7.59757 19.4922 7.18426C19.2097 6.77096 18.8459 6.41957 18.4231 6.15155C18.0002 5.88354 17.5272 5.70452 17.0328 5.62543C16.5385 5.54635 16.0332 5.56885 15.5479 5.69157C15.0625 5.81428 14.6073 6.03464 14.2099 6.33918C14.1433 6.39039 14.0672 6.42796 13.986 6.44976C13.9049 6.47157 13.8202 6.47717 13.7368 6.46625C13.6535 6.45533 13.5731 6.4281 13.5003 6.38612C13.4275 6.34414 13.3637 6.28823 13.3125 6.22158C13.2613 6.15493 13.2237 6.07885 13.2019 5.99768C13.1801 5.91651 13.1745 5.83184 13.1854 5.7485C13.1963 5.66517 13.2236 5.5848 13.2655 5.51199C13.3075 5.43918 13.3634 5.37535 13.4301 5.32414C14.2955 4.6566 15.3586 4.29631 16.4515 4.30014C19.1885 4.30014 21.415 6.5267 21.415 9.26366C21.4155 10.1169 21.1959 10.9558 20.7774 11.6994C20.3588 12.4429 19.7556 13.0659 19.0259 13.5081C18.9259 13.5686 18.8112 13.6003 18.6944 13.6Z" fill="#202020"/>
<path d="M12 19.648C10.3038 19.648 8.66009 19.0599 7.34891 17.9838C6.03774 16.9078 5.14024 15.4104 4.80933 13.7468C4.47843 12.0832 4.7346 10.3563 5.5342 8.86039C6.33379 7.36449 7.62734 6.19211 9.19443 5.54303C10.7615 4.89394 12.5052 4.80831 14.1283 5.30072C15.7515 5.79313 17.1537 6.83311 18.096 8.24346C19.0383 9.65382 19.4625 11.3473 19.2962 13.0353C19.1299 14.7233 18.3834 16.3015 17.184 17.5008C16.5048 18.1837 15.6969 18.7251 14.8071 19.0937C13.9172 19.4622 12.9631 19.6507 12 19.648ZM12 6.26499C8.66304 6.26499 5.94848 8.97955 5.94848 12.3165C5.94848 15.6535 8.66304 18.368 12 18.368C15.337 18.368 18.0515 15.6535 18.0515 12.3168C18.0515 8.98019 15.337 6.26531 12 6.26531V6.26499Z" fill="#202020"/>
<path d="M11.6182 15.7075C11.1952 15.7075 10.727 15.6323 10.2272 15.4806C10.1468 15.4562 10.0719 15.4162 10.007 15.3628C9.94201 15.3095 9.88818 15.2439 9.84857 15.1698C9.80896 15.0956 9.78434 15.0144 9.77612 14.9308C9.7679 14.8471 9.77623 14.7627 9.80065 14.6822C9.82506 14.6018 9.86508 14.527 9.91842 14.462C9.97175 14.397 10.0374 14.3432 10.1115 14.3036C10.2612 14.2236 10.4366 14.2064 10.599 14.2557C11.5171 14.5344 12.0934 14.4326 12.327 14.2441C12.3846 14.1977 12.5603 14.056 12.5206 13.576C12.512 13.4707 12.4902 13.4285 12.3715 13.3673C12.1843 13.2713 11.8739 13.2153 11.5738 13.1613C11.1501 13.0848 10.712 13.0061 10.3379 12.7897C9.81697 12.488 9.55553 11.9926 9.58209 11.3574C9.60705 10.7549 9.84577 10.2573 10.272 9.91742C11.1494 9.21854 12.5027 9.4451 12.6541 9.47326C12.821 9.50403 12.9689 9.59985 13.0652 9.73964C13.1615 9.87944 13.1983 10.0518 13.1675 10.2187C13.1368 10.3856 13.0409 10.5335 12.9011 10.6298C12.7613 10.7261 12.589 10.7629 12.4221 10.7321C12.1843 10.6896 11.4256 10.6329 11.0682 10.92C10.9853 10.9862 10.8736 11.1097 10.8608 11.4105C10.8515 11.6365 10.8477 11.7305 11.8006 11.9014C12.1933 11.9721 12.6006 12.0454 12.9568 12.2288C13.593 12.5558 13.7645 13.0848 13.7962 13.4707C13.8749 14.4259 13.4781 14.9603 13.1312 15.2403C12.7459 15.552 12.2288 15.7075 11.6182 15.7075Z" fill="#202020"/>
</svg>
