<svg width="24" height="24" viewBox="0 0 24 24" fill="none" xmlns="http://www.w3.org/2000/svg">
<path d="M17.0319 20.4557H6.96795C6.06016 20.4547 5.18984 20.0936 4.54793 19.4517C3.90603 18.8098 3.54496 17.9395 3.54395 17.0317V6.96801C3.54496 6.06022 3.90603 5.1899 4.54793 4.548C5.18984 3.90609 6.06016 3.54502 6.96795 3.54401H17.0319C17.9397 3.54502 18.8101 3.90609 19.452 4.548C20.0939 5.1899 20.4549 6.06022 20.4559 6.96801V17.032C20.4559 17.9401 20.0952 18.811 19.4531 19.4531C18.811 20.0953 17.94 20.456 17.0319 20.456V20.4557ZM6.96795 4.82433C6.39948 4.82483 5.85444 5.05088 5.45247 5.45285C5.0505 5.85482 4.82445 6.39986 4.82395 6.96833V17.0323C4.82445 17.6008 5.0505 18.1458 5.45247 18.5478C5.85444 18.9498 6.39948 19.1758 6.96795 19.1763H17.0319C17.3135 19.1763 17.5923 19.1209 17.8524 19.0131C18.1125 18.9054 18.3489 18.7475 18.548 18.5484C18.7471 18.3493 18.905 18.1129 19.0127 17.8528C19.1205 17.5927 19.1759 17.3139 19.1759 17.0323V6.96801C19.1754 6.39954 18.9494 5.8545 18.5474 5.45253C18.1455 5.05056 17.6004 4.82451 17.0319 4.82401L6.96795 4.82433Z" fill="#202020"/>
<path d="M15.6375 17.39H14.7063C14.2416 17.3895 13.7961 17.2047 13.4676 16.8761C13.139 16.5476 12.9542 16.1021 12.9537 15.6374V13.9539H10.9892V15.6374C10.9887 16.1021 10.8039 16.5476 10.4753 16.8761C10.1467 17.2047 9.70122 17.3895 9.23655 17.39H8.36263C7.89795 17.3895 7.45246 17.2047 7.12388 16.8761C6.79531 16.5476 6.61049 16.1021 6.60999 15.6374V14.4265C6.61049 13.9618 6.79531 13.5163 7.12388 13.1878C7.45246 12.8592 7.89795 12.6744 8.36263 12.6739H9.70919V11.3055H8.36263C7.89795 11.305 7.45246 11.1202 7.12388 10.7916C6.79531 10.4631 6.61049 10.0176 6.60999 9.5529V8.3625C6.61049 7.89783 6.79531 7.45233 7.12388 7.12376C7.45246 6.79519 7.89795 6.61037 8.36263 6.60986H9.23655C9.70122 6.61037 10.1467 6.79519 10.4753 7.12376C10.8039 7.45233 10.9887 7.89783 10.9892 8.3625V10.0265H12.9537V8.3625C12.9542 7.89783 13.139 7.45233 13.4676 7.12376C13.7961 6.79519 14.2416 6.61037 14.7063 6.60986H15.6375C16.1022 6.61037 16.5477 6.79519 16.8762 7.12376C17.2048 7.45233 17.3896 7.89783 17.3901 8.3625V9.5529C17.3896 10.0176 17.2048 10.4631 16.8762 10.7916C16.5477 11.1202 16.1022 11.305 15.6375 11.3055H14.2337V12.6739H15.6375C16.1022 12.6744 16.5477 12.8592 16.8762 13.1878C17.2048 13.5163 17.3896 13.9618 17.3901 14.4265V15.6374C17.3896 16.1021 17.2048 16.5476 16.8762 16.8761C16.5477 17.2047 16.1022 17.3895 15.6375 17.39ZM14.2337 13.9539V15.6374C14.2338 15.7627 14.2837 15.8828 14.3723 15.9714C14.4609 16.06 14.581 16.1099 14.7063 16.11H15.6375C15.7628 16.1099 15.883 16.0601 15.9716 15.9715C16.0602 15.8829 16.1101 15.7627 16.1101 15.6374V14.4265C16.11 14.3012 16.0601 14.1811 15.9715 14.0925C15.8829 14.0039 15.7628 13.954 15.6375 13.9539H14.2337ZM8.36263 13.9539C8.23733 13.954 8.11721 14.0039 8.02861 14.0925C7.94001 14.1811 7.89015 14.3012 7.88999 14.4265V15.6374C7.89007 15.7627 7.93989 15.8829 8.02851 15.9715C8.11713 16.0601 8.2373 16.1099 8.36263 16.11H9.23655C9.36187 16.1099 9.48204 16.0601 9.57066 15.9715C9.65928 15.8829 9.7091 15.7627 9.70919 15.6374V13.9539H8.36263ZM10.9892 12.6739H12.9537V11.3055H10.9892V12.6739ZM14.2337 10.0255H15.6375C15.7628 10.0254 15.8829 9.97552 15.9715 9.88692C16.0601 9.79832 16.11 9.6782 16.1101 9.5529V8.3625C16.1101 8.23718 16.0602 8.11701 15.9716 8.02839C15.883 7.93977 15.7628 7.88995 15.6375 7.88986H14.7063C14.581 7.89003 14.4609 7.93988 14.3723 8.02848C14.2837 8.11708 14.2338 8.2372 14.2337 8.3625V10.0255ZM8.36263 7.88986C8.2373 7.88995 8.11713 7.93977 8.02851 8.02839C7.93989 8.11701 7.89007 8.23718 7.88999 8.3625V9.5529C7.89015 9.6782 7.94001 9.79832 8.02861 9.88692C8.11721 9.97552 8.23733 10.0254 8.36263 10.0255H9.70919V8.36154C9.7091 8.23622 9.65928 8.11605 9.57066 8.02743C9.48204 7.93881 9.36187 7.88899 9.23655 7.8889L8.36263 7.88986Z" fill="#202020"/>
</svg>
