<svg width="24" height="24" viewBox="0 0 24 24" fill="none" xmlns="http://www.w3.org/2000/svg">
<path d="M17.984 20.4556H16.4528C15.7976 20.4548 15.1694 20.1942 14.7062 19.7308C14.243 19.2674 13.9826 18.6391 13.9821 17.9839V14.8019H9.92383V17.9839C9.92307 18.639 9.66252 19.267 9.19933 19.7302C8.73615 20.1933 8.10815 20.4539 7.45311 20.4547H6.01599C5.36078 20.4541 4.73254 20.1937 4.26915 19.7305C3.80576 19.2673 3.54507 18.6391 3.54431 17.9839V15.9923C3.54507 15.3371 3.80577 14.709 4.26917 14.2458C4.73257 13.7826 5.36081 13.5223 6.01599 13.5219H8.64479V10.4441H6.01599C5.36098 10.4434 4.73298 10.1829 4.26979 9.7198C3.8066 9.25666 3.54603 8.6287 3.54527 7.97369V6.01593C3.54578 5.36072 3.80622 4.73248 4.26943 4.26909C4.73264 3.8057 5.36078 3.54501 6.01599 3.54425H7.45407C8.10911 3.54527 8.73701 3.80606 9.20001 4.26943C9.66302 4.73279 9.92332 5.36089 9.92383 6.01593V9.16505H13.9821V6.01593C13.9828 5.36089 14.2434 4.73289 14.7066 4.26971C15.1698 3.80652 15.7978 3.54597 16.4528 3.54521H17.984C18.6392 3.54572 19.2674 3.80616 19.7308 4.26937C20.1942 4.73258 20.4549 5.36072 20.4557 6.01593V7.97465C20.4547 8.62966 20.1938 9.25752 19.7305 9.72048C19.2671 10.1834 18.639 10.4437 17.984 10.4441H15.2621V13.5219H17.984C18.639 13.5225 19.267 13.783 19.7302 14.2461C20.1934 14.7093 20.454 15.3372 20.4547 15.9923V17.9839C20.4542 18.6391 20.1938 19.2674 19.7306 19.7308C19.2673 20.1942 18.6392 20.4548 17.984 20.4556ZM15.2621 14.8019V17.9839C15.2625 18.2996 15.3881 18.6022 15.6113 18.8254C15.8345 19.0486 16.1371 19.1742 16.4528 19.1747H17.984C18.2998 19.1745 18.6027 19.049 18.8261 18.8258C19.0495 18.6025 19.1753 18.2998 19.1757 17.9839V15.9923C19.1752 15.6764 19.0495 15.3737 18.8261 15.1505C18.6027 14.9273 18.2998 14.8019 17.984 14.8019H15.2621ZM6.01407 14.8019C5.69843 14.8022 5.39581 14.9277 5.17259 15.1509C4.94937 15.374 4.82378 15.6766 4.82335 15.9923V17.9839C4.82352 18.3001 4.94926 18.6033 5.17291 18.8267C5.39657 19.0502 5.69982 19.1757 6.01599 19.1756H7.45407C7.76974 19.1749 8.07226 19.0491 8.29529 18.8257C8.51832 18.6023 8.64366 18.2996 8.64383 17.9839V14.8019H6.01407ZM9.92287 13.5219H13.9821V10.4441H9.92383L9.92287 13.5219ZM15.2621 9.16409H17.984C18.2996 9.16375 18.6023 9.03824 18.8255 8.81508C19.0487 8.59192 19.1743 8.28933 19.1747 7.97369V6.01593C19.1745 5.7001 19.0491 5.39723 18.8258 5.17381C18.6026 4.95039 18.2998 4.82467 17.984 4.82425H16.4528C16.137 4.82467 15.8342 4.95039 15.611 5.17381C15.3877 5.39723 15.2622 5.7001 15.2621 6.01593V9.16409ZM6.01599 4.82425C5.69999 4.82442 5.39698 4.95003 5.17353 5.17347C4.95009 5.39692 4.82448 5.69993 4.82431 6.01593V7.97465C4.82499 8.29029 4.95083 8.59277 5.17423 8.81576C5.39763 9.03874 5.70035 9.16401 6.01599 9.16409H8.64479V6.01593C8.64437 5.70026 8.51878 5.39764 8.29557 5.17443C8.07236 4.95122 7.76974 4.82563 7.45407 4.82521L6.01599 4.82425Z" fill="#202020"/>
</svg>
