<svg width="24" height="24" viewBox="0 0 24 24" fill="none" xmlns="http://www.w3.org/2000/svg">
<path d="M15.1763 7.0905C15.0155 7.09047 14.8606 7.02991 14.7424 6.92087C14.6243 6.81183 14.5515 6.6623 14.5385 6.50203C14.5256 6.34176 14.5734 6.18248 14.6726 6.05589C14.7717 5.9293 14.9149 5.84466 15.0736 5.81882L16.5472 5.57722L16.2988 4.06394C16.2853 3.98099 16.2881 3.89617 16.3073 3.81433C16.3265 3.73249 16.3616 3.65523 16.4107 3.58696C16.5097 3.44908 16.6595 3.3562 16.827 3.32874C16.9945 3.30129 17.1661 3.34151 17.304 3.44056C17.4419 3.53961 17.5348 3.68937 17.5622 3.8569L17.9142 6.00314C17.9279 6.08617 17.9251 6.17108 17.906 6.25303C17.8869 6.33498 17.8518 6.41235 17.8027 6.48071C17.7536 6.54908 17.6915 6.60709 17.62 6.65143C17.5485 6.69578 17.4689 6.72558 17.3859 6.73914L15.2809 7.0841C15.2463 7.08907 15.2113 7.09121 15.1763 7.0905ZM6.31613 20.4275C6.16626 20.4273 6.0212 20.3746 5.90623 20.2784C5.79127 20.1823 5.71368 20.0489 5.68701 19.9014L5.30045 17.7599C5.27033 17.593 5.30775 17.4209 5.40448 17.2815C5.50121 17.1421 5.64933 17.0468 5.81629 17.0166L7.91549 16.6399C8.0819 16.6112 8.25294 16.6493 8.39133 16.7461C8.52972 16.8429 8.62425 16.9905 8.65431 17.1567C8.68437 17.3228 8.64753 17.4942 8.55182 17.6333C8.4561 17.7724 8.30927 17.8681 8.14333 17.8995L6.67389 18.1651L6.94685 19.6751C6.96354 19.7674 6.95975 19.8622 6.93575 19.9529C6.91174 20.0435 6.86811 20.1278 6.80794 20.1997C6.74777 20.2716 6.67253 20.3295 6.58755 20.3691C6.50256 20.4087 6.4099 20.4292 6.31613 20.4291V20.4275Z" fill="#202020"/>
<path d="M4.22619 10.53C4.16767 10.5298 4.10944 10.5217 4.05307 10.506C3.88966 10.4601 3.75116 10.3512 3.66805 10.2032C3.58493 10.0552 3.56401 9.88027 3.60987 9.71685C4.118 7.92594 5.18793 6.3456 6.66203 5.20869C8.25318 3.98699 10.2202 3.35776 12.225 3.42918C14.2298 3.5006 16.1471 4.26821 17.6473 5.60005C17.7742 5.71276 17.8512 5.87127 17.8612 6.04071C17.8713 6.21015 17.8136 6.37665 17.7009 6.50357C17.5882 6.63049 17.4297 6.70744 17.2603 6.7175C17.0908 6.72755 16.9243 6.66988 16.7974 6.55717C15.4532 5.36242 13.7171 4.70296 11.9187 4.70405C8.63739 4.70405 5.72795 6.90725 4.84219 10.0625C4.80456 10.1969 4.724 10.3154 4.61279 10.3998C4.50157 10.4842 4.36581 10.5299 4.22619 10.53ZM11.9187 20.6807C9.77604 20.6827 7.70966 19.8856 6.12347 18.4452C6.06121 18.3887 6.01069 18.3205 5.97479 18.2445C5.93888 18.1685 5.9183 18.0862 5.91421 18.0022C5.91013 17.9182 5.92262 17.8343 5.95097 17.7552C5.97933 17.676 6.02299 17.6033 6.07947 17.541C6.13595 17.4788 6.20414 17.4282 6.28014 17.3923C6.35615 17.3564 6.43848 17.3358 6.52244 17.3318C6.6064 17.3277 6.69034 17.3402 6.76947 17.3685C6.8486 17.3969 6.92137 17.4405 6.98363 17.497C7.92284 18.3482 9.06618 18.942 10.3026 19.2207C11.5391 19.4995 12.8266 19.4538 14.0402 19.0881C15.2538 18.7224 16.3522 18.049 17.2287 17.1334C18.1052 16.2178 18.73 15.0911 19.0425 13.8628C19.0858 13.7001 19.1914 13.5611 19.3365 13.4758C19.4816 13.3904 19.6544 13.3657 19.8176 13.4069C19.9808 13.4481 20.1212 13.5519 20.2084 13.6959C20.2956 13.8398 20.3226 14.0123 20.2835 14.1761C19.812 16.0365 18.7332 17.6864 17.218 18.8644C15.7029 20.0424 13.8379 20.6812 11.9187 20.6794V20.6807ZM19.7177 12.6202C19.5268 12.6204 19.3392 12.5703 19.1737 12.4749L17.575 11.5521C17.4097 11.4562 17.2725 11.3187 17.1771 11.1532C17.0816 10.9877 17.0312 10.8001 17.031 10.609V8.76325C17.0312 8.57221 17.0816 8.38457 17.1771 8.21909C17.2725 8.05361 17.4097 7.91607 17.575 7.82021L19.1731 6.89733C19.3386 6.80227 19.5262 6.75226 19.7171 6.75226C19.908 6.75226 20.0955 6.80227 20.2611 6.89733L21.8591 7.82021C22.0244 7.91607 22.1616 8.05361 22.2571 8.21909C22.3525 8.38457 22.4029 8.57221 22.4032 8.76325V10.609C22.4029 10.8001 22.3525 10.9877 22.2571 11.1532C22.1616 11.3187 22.0244 11.4562 21.8591 11.5521L20.2624 12.4749C20.0967 12.5703 19.9089 12.6204 19.7177 12.6202ZM18.3097 10.4986L19.7177 11.3111L21.1257 10.4986V8.87365L19.7177 8.06117L18.3097 8.87365V10.4986Z" fill="#202020"/>
<path d="M19.7178 10.3261C19.6054 10.326 19.4951 10.2965 19.3978 10.2403L17.4106 9.09309C17.2648 9.00762 17.1587 8.86795 17.1155 8.70456C17.0723 8.54117 17.0955 8.36733 17.18 8.22097C17.2645 8.07461 17.4035 7.96761 17.5666 7.92333C17.7297 7.87905 17.9036 7.90108 18.0506 7.98461L19.7178 8.94717L21.385 7.98461C21.4578 7.94192 21.5383 7.91406 21.6219 7.90263C21.7056 7.89119 21.7906 7.89641 21.8722 7.91799C21.9538 7.93956 22.0304 7.97706 22.0974 8.02833C22.1644 8.0796 22.2207 8.14363 22.2629 8.21672C22.3051 8.28982 22.3324 8.37054 22.3433 8.45424C22.3542 8.53793 22.3484 8.62296 22.3263 8.70441C22.3042 8.78587 22.2662 8.86215 22.2144 8.92885C22.1627 8.99556 22.0983 9.05137 22.025 9.09309L20.0378 10.24C19.9405 10.2963 19.8301 10.3259 19.7178 10.3261Z" fill="#202020"/>
<path d="M19.7177 12.6207C19.548 12.6207 19.3852 12.5533 19.2652 12.4333C19.1451 12.3133 19.0777 12.1505 19.0777 11.9807V9.68602C19.0777 9.51628 19.1451 9.35349 19.2652 9.23347C19.3852 9.11345 19.548 9.04602 19.7177 9.04602C19.8874 9.04602 20.0502 9.11345 20.1702 9.23347C20.2903 9.35349 20.3577 9.51628 20.3577 9.68602V11.9807C20.3577 12.1505 20.2903 12.3133 20.1702 12.4333C20.0502 12.5533 19.8874 12.6207 19.7177 12.6207ZM4.28218 16.7791C4.09125 16.7792 3.90365 16.7291 3.73818 16.6339L2.13946 15.7119C1.97421 15.6161 1.837 15.4785 1.74154 15.3131C1.64607 15.1476 1.59571 14.9599 1.59546 14.7689V12.9222C1.59571 12.7311 1.64607 12.5435 1.74154 12.378C1.837 12.2125 1.97421 12.075 2.13946 11.9791L3.73754 11.0563C3.90306 10.9611 4.09063 10.9111 4.28154 10.9111C4.47245 10.9111 4.66002 10.9611 4.82554 11.0563L6.42394 11.9791C6.58919 12.075 6.7264 12.2125 6.82186 12.378C6.91732 12.5435 6.96769 12.7311 6.96794 12.9222V14.7679C6.96769 14.959 6.91732 15.1466 6.82186 15.3121C6.7264 15.4776 6.58919 15.6151 6.42394 15.711L4.82586 16.6339C4.66048 16.7291 4.473 16.7792 4.28218 16.7791ZM2.87418 14.6575L4.28218 15.47L5.69018 14.6575V13.0326L4.28218 12.2201L2.87418 13.0326V14.6575Z" fill="#202020"/>
<path d="M4.28222 14.4851C4.16987 14.4851 4.05951 14.4555 3.96222 14.3993L1.97502 13.2521C1.82922 13.1667 1.72315 13.027 1.67995 12.8636C1.63675 12.7002 1.65994 12.5264 1.74444 12.38C1.82894 12.2337 1.96791 12.1267 2.13101 12.0824C2.29411 12.0381 2.4681 12.0601 2.61502 12.1437L4.28222 13.1062L5.94942 12.1437C6.02223 12.101 6.10277 12.0731 6.18639 12.0617C6.27002 12.0503 6.35508 12.0555 6.43668 12.077C6.51828 12.0986 6.5948 12.1361 6.66185 12.1874C6.7289 12.2387 6.78514 12.3027 6.82735 12.3758C6.86955 12.4489 6.89688 12.5296 6.90775 12.6133C6.91863 12.697 6.91285 12.782 6.89074 12.8635C6.86862 12.9449 6.83061 13.0212 6.7789 13.0879C6.72719 13.1546 6.66279 13.2104 6.58942 13.2521L4.60222 14.4C4.50486 14.4559 4.3945 14.4853 4.28222 14.4851Z" fill="#202020"/>
<path d="M4.28221 16.7798C4.11247 16.7798 3.94969 16.7124 3.82966 16.5923C3.70964 16.4723 3.64221 16.3095 3.64221 16.1398V13.8451C3.64221 13.6753 3.70964 13.5126 3.82966 13.3925C3.94969 13.2725 4.11247 13.2051 4.28221 13.2051C4.45195 13.2051 4.61474 13.2725 4.73476 13.3925C4.85478 13.5126 4.92221 13.6753 4.92221 13.8451V16.1398C4.92221 16.3095 4.85478 16.4723 4.73476 16.5923C4.61474 16.7124 4.45195 16.7798 4.28221 16.7798Z" fill="#202020"/>
</svg>
