<svg width="24" height="24" viewBox="0 0 24 24" fill="none" xmlns="http://www.w3.org/2000/svg">
<path d="M12 20.6806C9.99178 20.6805 8.04571 19.9841 6.49338 18.7101C4.94104 17.436 3.87849 15.6631 3.48676 13.6935C3.09503 11.7238 3.39837 9.67928 4.34508 7.90821C5.2918 6.13713 6.82331 4.74911 8.67869 3.98063C10.5341 3.21216 12.5985 3.11077 14.5202 3.69376C16.442 4.27674 18.1021 5.50803 19.2178 7.17782C20.3335 8.84761 20.8357 10.8526 20.6389 12.8511C20.442 14.8497 19.5583 16.7182 18.1382 18.1382C17.334 18.9467 16.3774 19.5877 15.3238 20.0242C14.2701 20.4606 13.1404 20.6837 12 20.6806ZM12 4.59931C7.91937 4.59931 4.59937 7.91931 4.59937 11.9999C4.59937 16.0806 7.91937 19.4006 12 19.4006C16.0806 19.4006 19.4006 16.0806 19.4006 11.9999C19.4006 7.91931 16.0806 4.59931 12 4.59931Z" fill="#202020"/>
<path d="M12.0026 17.1629C11.795 17.1628 11.5876 17.1503 11.3814 17.1255C10.6061 17.031 9.8628 16.7598 9.20882 16.3327C8.55484 15.9057 8.00764 15.3342 7.60939 14.6622C7.21114 13.9903 6.97247 13.2359 6.91179 12.4572C6.8511 11.6785 6.97001 10.8963 7.25935 10.1708C7.5487 9.44528 8.00075 8.79589 8.58068 8.27267C9.1606 7.74945 9.85291 7.36636 10.6043 7.15292C11.3556 6.93949 12.1459 6.90141 12.9143 7.04161C13.6827 7.18182 14.4086 7.49657 15.0362 7.96162C15.1724 8.06295 15.2628 8.21426 15.2875 8.38226C15.3122 8.55027 15.2692 8.7212 15.1678 8.85746C15.0665 8.99371 14.9152 9.08414 14.7472 9.10883C14.5792 9.13352 14.4083 9.09047 14.272 8.98914C13.6864 8.55503 12.9889 8.29741 12.2617 8.24667C11.5346 8.19593 10.808 8.35417 10.1678 8.70275C9.52763 9.05132 9.00044 9.57568 8.64845 10.214C8.29645 10.8523 8.13431 11.578 8.18115 12.3054C8.228 13.0329 8.48187 13.7318 8.91283 14.3197C9.34379 14.9076 9.93388 15.36 10.6135 15.6236C11.2931 15.8871 12.0339 15.9509 12.7486 15.8073C13.4633 15.6637 14.122 15.3188 14.647 14.8131C14.77 14.6988 14.9329 14.6373 15.1008 14.642C15.2686 14.6466 15.4279 14.7171 15.5443 14.8381C15.6607 14.9592 15.7248 15.1211 15.7229 15.289C15.721 15.4569 15.6532 15.6173 15.5341 15.7357C14.5864 16.6512 13.3202 17.1629 12.0026 17.1629Z" fill="#202020"/>
</svg>
