<svg width="24" height="24" viewBox="0 0 24 24" fill="none" xmlns="http://www.w3.org/2000/svg">
<path d="M12 19.2503H7.744C6.95013 19.2494 6.18903 18.9337 5.62768 18.3723C5.06634 17.811 4.7506 17.0499 4.74976 16.256V7.74403C4.7506 6.95016 5.06634 6.18906 5.62768 5.62771C6.18903 5.06637 6.95013 4.75063 7.744 4.74979H16.256C17.0499 4.75063 17.811 5.06637 18.3723 5.62771C18.9337 6.18906 19.2494 6.95016 19.2502 7.74403V12C19.2502 12.1698 19.1828 12.3326 19.0628 12.4526C18.9428 12.5726 18.78 12.64 18.6102 12.64C18.4405 12.64 18.2777 12.5726 18.1577 12.4526C18.0377 12.3326 17.9702 12.1698 17.9702 12V7.74403C17.9697 7.28954 17.789 6.85381 17.4676 6.53244C17.1462 6.21107 16.7105 6.03029 16.256 6.02979H7.744C7.28951 6.03029 6.85378 6.21107 6.53241 6.53244C6.21103 6.85381 6.03026 7.28954 6.02976 7.74403V16.256C6.03026 16.7105 6.21103 17.1462 6.53241 17.4676C6.85378 17.789 7.28951 17.9698 7.744 17.9703H12C12.1697 17.9703 12.3325 18.0377 12.4525 18.1577C12.5726 18.2777 12.64 18.4405 12.64 18.6103C12.64 18.78 12.5726 18.9428 12.4525 19.0628C12.3325 19.1828 12.1697 19.2503 12 19.2503Z" fill="#202020"/>
<path d="M12 17.072H9.1466C8.55841 17.0713 7.9945 16.8373 7.57859 16.4214C7.16268 16.0055 6.92872 15.4416 6.92804 14.8534V9.14654C6.92872 8.55835 7.16268 7.99444 7.57859 7.57853C7.9945 7.16262 8.55841 6.92866 9.1466 6.92798H14.8535C15.4417 6.92866 16.0056 7.16262 16.4215 7.57853C16.8374 7.99444 17.0714 8.55835 17.072 9.14654V12C17.072 12.1697 17.0046 12.3325 16.8846 12.4525C16.7646 12.5726 16.6018 12.64 16.432 12.64C16.2623 12.64 16.0995 12.5726 15.9795 12.4525C15.8595 12.3325 15.792 12.1697 15.792 12V9.14654C15.7917 8.89772 15.6927 8.65919 15.5168 8.48325C15.3408 8.30731 15.1023 8.20832 14.8535 8.20798H9.1466C8.89778 8.20832 8.65925 8.30731 8.48331 8.48325C8.30737 8.65919 8.20838 8.89772 8.20804 9.14654V14.8534C8.20838 15.1022 8.30737 15.3408 8.48331 15.5167C8.65925 15.6926 8.89778 15.7916 9.1466 15.792H12C12.1698 15.792 12.3326 15.8594 12.4526 15.9794C12.5726 16.0995 12.64 16.2622 12.64 16.432C12.64 16.6017 12.5726 16.7645 12.4526 16.8845C12.3326 17.0046 12.1698 17.072 12 17.072ZM8.88484 6.02974C8.7151 6.02974 8.55232 5.96231 8.43229 5.84229C8.31227 5.72227 8.24484 5.55948 8.24484 5.38974V3.23198C8.24484 3.06224 8.31227 2.89945 8.43229 2.77943C8.55232 2.65941 8.7151 2.59198 8.88484 2.59198C9.05458 2.59198 9.21737 2.65941 9.33739 2.77943C9.45741 2.89945 9.52484 3.06224 9.52484 3.23198V5.3907C9.52459 5.56027 9.45705 5.72281 9.33705 5.84263C9.21705 5.96244 9.05441 6.02974 8.88484 6.02974ZM12 6.02974C11.8303 6.02974 11.6675 5.96231 11.5475 5.84229C11.4275 5.72227 11.36 5.55948 11.36 5.38974V3.23198C11.36 3.06224 11.4275 2.89945 11.5475 2.77943C11.6675 2.65941 11.8303 2.59198 12 2.59198C12.1698 2.59198 12.3326 2.65941 12.4526 2.77943C12.5726 2.89945 12.64 3.06224 12.64 3.23198V5.3907C12.6398 5.56027 12.5722 5.72281 12.4523 5.84263C12.3323 5.96244 12.1696 6.02974 12 6.02974ZM15.1152 6.02974C14.9455 6.02974 14.7827 5.96231 14.6627 5.84229C14.5427 5.72227 14.4752 5.55948 14.4752 5.38974V3.23198C14.4752 3.06224 14.5427 2.89945 14.6627 2.77943C14.7827 2.65941 14.9455 2.59198 15.1152 2.59198C15.285 2.59198 15.4478 2.65941 15.5678 2.77943C15.6878 2.89945 15.7552 3.06224 15.7552 3.23198V5.3907C15.755 5.56027 15.6874 5.72281 15.5675 5.84263C15.4475 5.96244 15.2848 6.02974 15.1152 6.02974ZM8.88484 21.408C8.7151 21.408 8.55232 21.3406 8.43229 21.2205C8.31227 21.1005 8.24484 20.9377 8.24484 20.768V18.6102C8.24484 18.4405 8.31227 18.2777 8.43229 18.1577C8.55232 18.0376 8.7151 17.9702 8.88484 17.9702C9.05458 17.9702 9.21737 18.0376 9.33739 18.1577C9.45741 18.2777 9.52484 18.4405 9.52484 18.6102V20.768C9.52484 20.9377 9.45741 21.1005 9.33739 21.2205C9.21737 21.3406 9.05458 21.408 8.88484 21.408ZM20.768 9.52478H18.6103C18.4405 9.52478 18.2778 9.45735 18.1577 9.33733C18.0377 9.21731 17.9703 9.05452 17.9703 8.88478C17.9703 8.71504 18.0377 8.55226 18.1577 8.43223C18.2778 8.31221 18.4405 8.24478 18.6103 8.24478H20.768C20.9378 8.24478 21.1006 8.31221 21.2206 8.43223C21.3406 8.55226 21.408 8.71504 21.408 8.88478C21.408 9.05452 21.3406 9.21731 21.2206 9.33733C21.1006 9.45735 20.9378 9.52478 20.768 9.52478ZM5.3898 9.52478H3.23204C3.0623 9.52478 2.89952 9.45735 2.77949 9.33733C2.65947 9.21731 2.59204 9.05452 2.59204 8.88478C2.59204 8.71504 2.65947 8.55226 2.77949 8.43223C2.89952 8.31221 3.0623 8.24478 3.23204 8.24478H5.39076C5.5605 8.24478 5.72329 8.31221 5.84331 8.43223C5.96333 8.55226 6.03076 8.71504 6.03076 8.88478C6.03076 9.05452 5.96333 9.21731 5.84331 9.33733C5.72329 9.45735 5.5605 9.52478 5.39076 9.52478H5.3898ZM5.3898 12.64H3.23204C3.0623 12.64 2.89952 12.5726 2.77949 12.4525C2.65947 12.3325 2.59204 12.1697 2.59204 12C2.59204 11.8302 2.65947 11.6675 2.77949 11.5474C2.89952 11.4274 3.0623 11.36 3.23204 11.36H5.39076C5.5605 11.36 5.72329 11.4274 5.84331 11.5474C5.96333 11.6675 6.03076 11.8302 6.03076 12C6.03076 12.1697 5.96333 12.3325 5.84331 12.4525C5.72329 12.5726 5.5605 12.64 5.39076 12.64H5.3898ZM5.3898 15.7552H3.23204C3.0623 15.7552 2.89952 15.6878 2.77949 15.5677C2.65947 15.4477 2.59204 15.2849 2.59204 15.1152C2.59204 14.9454 2.65947 14.7827 2.77949 14.6626C2.89952 14.5426 3.0623 14.4752 3.23204 14.4752H5.39076C5.5605 14.4752 5.72329 14.5426 5.84331 14.6626C5.96333 14.7827 6.03076 14.9454 6.03076 15.1152C6.03076 15.2849 5.96333 15.4477 5.84331 15.5677C5.72329 15.6878 5.5605 15.7552 5.39076 15.7552H5.3898Z" fill="#202020"/>
<path d="M16.4502 21.4096C16.339 21.4097 16.2297 21.3807 16.1331 21.3254L14.8061 20.568C14.6825 20.4974 14.586 20.3877 14.5317 20.2562C14.4775 20.1246 14.4686 19.9787 14.5066 19.8416L14.7155 19.0867C14.6462 18.9836 14.5836 18.8762 14.528 18.7651L13.8451 18.6339C13.6989 18.6059 13.5671 18.5279 13.4722 18.4132C13.3774 18.2984 13.3255 18.1543 13.3254 18.0054V16.4774C13.3255 16.3291 13.377 16.1854 13.4713 16.0709C13.5656 15.9564 13.6967 15.8781 13.8422 15.8496L14.4714 15.7257C14.5181 15.6336 14.5697 15.5439 14.6259 15.4573L14.4339 14.7069C14.4003 14.5741 14.4102 14.4341 14.462 14.3074C14.5138 14.1807 14.6049 14.074 14.7219 14.0029L16.0262 13.2073C16.1564 13.1279 16.3106 13.0975 16.4611 13.1217C16.6117 13.1459 16.7486 13.223 16.8474 13.3392L17.2954 13.8675C17.4289 13.8579 17.563 13.8573 17.6966 13.8656L18.2672 13.28C18.3661 13.1783 18.496 13.1123 18.6364 13.0924C18.7769 13.0726 18.92 13.0999 19.0432 13.1702L20.3702 13.9277C20.4953 13.999 20.5927 14.1105 20.6466 14.2441C20.7005 14.3776 20.7077 14.5255 20.6672 14.6637L20.4733 15.3254C20.5478 15.437 20.6146 15.5535 20.6733 15.6742L21.3846 15.872C21.5189 15.9098 21.6372 15.9904 21.7214 16.1016C21.8056 16.2128 21.8512 16.3485 21.8512 16.488V18.016C21.8512 18.1733 21.7933 18.3252 21.6885 18.4426C21.5836 18.5599 21.4392 18.6345 21.2829 18.6521L20.6154 18.7273C20.576 18.8029 20.5331 18.8765 20.4874 18.9481L20.7341 19.7584C20.7754 19.8942 20.7704 20.0399 20.7199 20.1725C20.6694 20.3052 20.5762 20.4173 20.455 20.4912L19.1504 21.2867C19.0249 21.3633 18.8768 21.3943 18.7311 21.3745C18.5854 21.3548 18.451 21.2854 18.3504 21.1782L17.7984 20.5904C17.6707 20.6006 17.5424 20.6025 17.4144 20.5961L16.9475 21.1721C16.8876 21.2463 16.8118 21.306 16.7257 21.3471C16.6397 21.3882 16.5456 21.4095 16.4502 21.4096ZM15.8742 19.703L16.2973 19.9443L16.64 19.52C16.7125 19.4307 16.8077 19.3625 16.9157 19.3228C17.0237 19.283 17.1403 19.2731 17.2534 19.2941C17.4693 19.3338 17.6908 19.3312 17.9056 19.2864C18.0131 19.2638 18.1246 19.2693 18.2293 19.3024C18.334 19.3354 18.4285 19.3948 18.5037 19.4749L18.9267 19.9254L19.3638 19.6589L19.1693 19.0189C19.1386 18.9179 19.1333 18.8109 19.154 18.7073C19.1746 18.6038 19.2206 18.507 19.2877 18.4256C19.4123 18.2752 19.5093 18.1041 19.5744 17.92C19.6144 17.8067 19.6855 17.7071 19.7795 17.6323C19.8735 17.5576 19.9866 17.5108 20.1059 17.4973L20.5712 17.4448V16.9741L20.0291 16.8214C19.9299 16.7935 19.839 16.7421 19.7639 16.6715C19.6889 16.6009 19.632 16.5133 19.5981 16.416C19.529 16.2163 19.4224 16.0317 19.2842 15.872C19.2142 15.791 19.1657 15.6939 19.143 15.5893C19.1203 15.4848 19.1242 15.3762 19.1542 15.2736L19.296 14.7878L18.8394 14.528L18.3946 14.9856C18.3211 15.0612 18.2301 15.1176 18.1296 15.1495C18.0291 15.1815 17.9222 15.1882 17.8186 15.1689C17.6027 15.1291 17.3813 15.1316 17.1664 15.1763C17.0537 15.1999 16.9368 15.1927 16.8279 15.1554C16.7189 15.1181 16.6221 15.0522 16.5475 14.9645L16.2253 14.5856L15.7917 14.848L15.9402 15.4313C15.9649 15.5288 15.9664 15.6307 15.9445 15.7288C15.9225 15.827 15.8777 15.9185 15.8138 15.9961C15.6898 16.1464 15.5932 16.3172 15.5283 16.5008C15.4914 16.6059 15.4278 16.6996 15.3436 16.7725C15.2594 16.8455 15.1576 16.8952 15.0483 16.9168L14.6051 17.0038V17.4765L15.103 17.5725C15.2134 17.5936 15.3162 17.6434 15.4012 17.7169C15.4862 17.7903 15.5503 17.8849 15.5872 17.991C15.6563 18.1907 15.7628 18.3753 15.9011 18.535C15.97 18.6147 16.0181 18.7102 16.0412 18.813C16.0643 18.9157 16.0617 19.0226 16.0336 19.1241L15.8742 19.703Z" fill="#202020"/>
<path d="M17.5881 18.8576C17.2697 18.8573 16.9585 18.7626 16.6939 18.5854C16.4293 18.4082 16.2232 18.1566 16.1015 17.8623C15.9799 17.568 15.9483 17.2443 16.0107 16.932C16.073 16.6197 16.2266 16.333 16.4519 16.108C16.6772 15.8829 16.9642 15.7298 17.2766 15.6679C17.5889 15.6059 17.9126 15.638 18.2068 15.76C18.5009 15.882 18.7522 16.0885 18.929 16.3534C19.1058 16.6182 19.2001 16.9296 19.2 17.248C19.1993 17.6751 19.0292 18.0844 18.727 18.3862C18.4248 18.688 18.0152 18.8575 17.5881 18.8576ZM17.5881 16.9171C17.5229 16.9174 17.4592 16.9371 17.4052 16.9735C17.3511 17.01 17.309 17.0616 17.2842 17.1219C17.2595 17.1823 17.2531 17.2486 17.266 17.3125C17.2789 17.3765 17.3104 17.4352 17.3566 17.4812C17.4027 17.5273 17.4615 17.5586 17.5255 17.5713C17.5895 17.584 17.6558 17.5774 17.716 17.5525C17.7763 17.5275 17.8278 17.4853 17.8641 17.4311C17.9004 17.3769 17.9198 17.3132 17.92 17.248C17.92 17.2045 17.9115 17.1613 17.8948 17.1211C17.8781 17.0809 17.8536 17.0443 17.8228 17.0136C17.792 16.9828 17.7554 16.9585 17.7151 16.9419C17.6748 16.9254 17.6317 16.9169 17.5881 16.9171Z" fill="#202020"/>
</svg>
