<svg width="24" height="24" viewBox="0 0 24 24" fill="none" xmlns="http://www.w3.org/2000/svg">
<path d="M16.256 19.2503H7.744C6.95013 19.2494 6.18903 18.9337 5.62768 18.3723C5.06634 17.811 4.7506 17.0499 4.74976 16.256V7.74403C4.7506 6.95016 5.06634 6.18906 5.62768 5.62771C6.18903 5.06637 6.95013 4.75063 7.744 4.74979H16.256C17.0499 4.75063 17.811 5.06637 18.3723 5.62771C18.9337 6.18906 19.2494 6.95016 19.2502 7.74403V16.256C19.2494 17.0499 18.9337 17.811 18.3723 18.3723C17.811 18.9337 17.0499 19.2494 16.256 19.2503ZM7.744 6.02979C7.28951 6.03029 6.85378 6.21107 6.53241 6.53244C6.21103 6.85381 6.03026 7.28954 6.02976 7.74403V16.256C6.03026 16.7105 6.21103 17.1462 6.53241 17.4676C6.85378 17.789 7.28951 17.9698 7.744 17.9703H16.256C16.7105 17.9698 17.1462 17.789 17.4676 17.4676C17.789 17.1462 17.9697 16.7105 17.9702 16.256V7.74403C17.9697 7.28954 17.789 6.85381 17.4676 6.53244C17.1462 6.21107 16.7105 6.03029 16.256 6.02979H7.744Z" fill="#202020"/>
<path d="M14.8532 17.072H9.14636C8.55817 17.0713 7.99426 16.8373 7.57835 16.4214C7.16243 16.0055 6.92847 15.4416 6.9278 14.8534V9.14654C6.92847 8.55835 7.16243 7.99444 7.57835 7.57853C7.99426 7.16262 8.55817 6.92866 9.14636 6.92798H14.8532C15.4414 6.92866 16.0053 7.16262 16.4212 7.57853C16.8372 7.99444 17.0711 8.55835 17.0718 9.14654V14.8534C17.0711 15.4416 16.8372 16.0055 16.4212 16.4214C16.0053 16.8373 15.4414 17.0713 14.8532 17.072ZM9.14636 8.20798C8.89754 8.20832 8.65901 8.30731 8.48307 8.48325C8.30713 8.65919 8.20814 8.89772 8.2078 9.14654V14.8534C8.20814 15.1022 8.30713 15.3408 8.48307 15.5167C8.65901 15.6926 8.89754 15.7916 9.14636 15.792H14.8532C15.1021 15.7916 15.3406 15.6926 15.5165 15.5167C15.6925 15.3408 15.7915 15.1022 15.7918 14.8534V9.14654C15.7915 8.89772 15.6925 8.65919 15.5165 8.48325C15.3406 8.30731 15.1021 8.20832 14.8532 8.20798H9.14636ZM8.8846 6.02974C8.71486 6.02974 8.55207 5.96231 8.43205 5.84229C8.31203 5.72227 8.2446 5.55948 8.2446 5.38974V3.23198C8.2446 3.06224 8.31203 2.89945 8.43205 2.77943C8.55207 2.65941 8.71486 2.59198 8.8846 2.59198C9.05434 2.59198 9.21712 2.65941 9.33715 2.77943C9.45717 2.89945 9.5246 3.06224 9.5246 3.23198V5.3907C9.52434 5.56027 9.4568 5.72281 9.33681 5.84263C9.21681 5.96244 9.05417 6.02974 8.8846 6.02974ZM11.9998 6.02974C11.8301 6.02974 11.6673 5.96231 11.5472 5.84229C11.4272 5.72227 11.3598 5.55948 11.3598 5.38974V3.23198C11.3598 3.06224 11.4272 2.89945 11.5472 2.77943C11.6673 2.65941 11.8301 2.59198 11.9998 2.59198C12.1695 2.59198 12.3323 2.65941 12.4523 2.77943C12.5724 2.89945 12.6398 3.06224 12.6398 3.23198V5.3907C12.6395 5.56027 12.572 5.72281 12.452 5.84263C12.332 5.96244 12.1694 6.02974 11.9998 6.02974ZM15.115 6.02974C14.9453 6.02974 14.7825 5.96231 14.6624 5.84229C14.5424 5.72227 14.475 5.55948 14.475 5.38974V3.23198C14.475 3.06224 14.5424 2.89945 14.6624 2.77943C14.7825 2.65941 14.9453 2.59198 15.115 2.59198C15.2847 2.59198 15.4475 2.65941 15.5675 2.77943C15.6876 2.89945 15.755 3.06224 15.755 3.23198V5.3907C15.7547 5.56027 15.6872 5.72281 15.5672 5.84263C15.4472 5.96244 15.2846 6.02974 15.115 6.02974ZM8.8846 21.408C8.71486 21.408 8.55207 21.3406 8.43205 21.2205C8.31203 21.1005 8.2446 20.9377 8.2446 20.768V18.6102C8.2446 18.4405 8.31203 18.2777 8.43205 18.1577C8.55207 18.0376 8.71486 17.9702 8.8846 17.9702C9.05434 17.9702 9.21712 18.0376 9.33715 18.1577C9.45717 18.2777 9.5246 18.4405 9.5246 18.6102V20.768C9.5246 20.9377 9.45717 21.1005 9.33715 21.2205C9.21712 21.3406 9.05434 21.408 8.8846 21.408ZM11.9998 21.408C11.8301 21.408 11.6673 21.3406 11.5472 21.2205C11.4272 21.1005 11.3598 20.9377 11.3598 20.768V18.6102C11.3598 18.4405 11.4272 18.2777 11.5472 18.1577C11.6673 18.0376 11.8301 17.9702 11.9998 17.9702C12.1695 17.9702 12.3323 18.0376 12.4523 18.1577C12.5724 18.2777 12.6398 18.4405 12.6398 18.6102V20.768C12.6398 20.9377 12.5724 21.1005 12.4523 21.2205C12.3323 21.3406 12.1695 21.408 11.9998 21.408ZM15.115 21.408C14.9453 21.408 14.7825 21.3406 14.6624 21.2205C14.5424 21.1005 14.475 20.9377 14.475 20.768V18.6102C14.475 18.4405 14.5424 18.2777 14.6624 18.1577C14.7825 18.0376 14.9453 17.9702 15.115 17.9702C15.2847 17.9702 15.4475 18.0376 15.5675 18.1577C15.6876 18.2777 15.755 18.4405 15.755 18.6102V20.768C15.755 20.9377 15.6876 21.1005 15.5675 21.2205C15.4475 21.3406 15.2847 21.408 15.115 21.408ZM20.7678 9.52478H18.61C18.4403 9.52478 18.2775 9.45735 18.1575 9.33733C18.0375 9.21731 17.97 9.05452 17.97 8.88478C17.97 8.71504 18.0375 8.55226 18.1575 8.43223C18.2775 8.31221 18.4403 8.24478 18.61 8.24478H20.7678C20.9375 8.24478 21.1003 8.31221 21.2203 8.43223C21.3404 8.55226 21.4078 8.71504 21.4078 8.88478C21.4078 9.05452 21.3404 9.21731 21.2203 9.33733C21.1003 9.45735 20.9375 9.52478 20.7678 9.52478ZM20.7678 12.64H18.61C18.4403 12.64 18.2775 12.5726 18.1575 12.4525C18.0375 12.3325 17.97 12.1697 17.97 12C17.97 11.8302 18.0375 11.6675 18.1575 11.5474C18.2775 11.4274 18.4403 11.36 18.61 11.36H20.7678C20.9375 11.36 21.1003 11.4274 21.2203 11.5474C21.3404 11.6675 21.4078 11.8302 21.4078 12C21.4078 12.1697 21.3404 12.3325 21.2203 12.4525C21.1003 12.5726 20.9375 12.64 20.7678 12.64ZM20.7678 15.7552H18.61C18.4403 15.7552 18.2775 15.6878 18.1575 15.5677C18.0375 15.4477 17.97 15.2849 17.97 15.1152C17.97 14.9454 18.0375 14.7827 18.1575 14.6626C18.2775 14.5426 18.4403 14.4752 18.61 14.4752H20.7678C20.9375 14.4752 21.1003 14.5426 21.2203 14.6626C21.3404 14.7827 21.4078 14.9454 21.4078 15.1152C21.4078 15.2849 21.3404 15.4477 21.2203 15.5677C21.1003 15.6878 20.9375 15.7552 20.7678 15.7552ZM5.38956 9.52478H3.2318C3.06206 9.52478 2.89927 9.45735 2.77925 9.33733C2.65923 9.21731 2.5918 9.05452 2.5918 8.88478C2.5918 8.71504 2.65923 8.55226 2.77925 8.43223C2.89927 8.31221 3.06206 8.24478 3.2318 8.24478H5.39052C5.56026 8.24478 5.72304 8.31221 5.84307 8.43223C5.96309 8.55226 6.03052 8.71504 6.03052 8.88478C6.03052 9.05452 5.96309 9.21731 5.84307 9.33733C5.72304 9.45735 5.56026 9.52478 5.39052 9.52478H5.38956ZM5.38956 12.64H3.2318C3.06206 12.64 2.89927 12.5726 2.77925 12.4525C2.65923 12.3325 2.5918 12.1697 2.5918 12C2.5918 11.8302 2.65923 11.6675 2.77925 11.5474C2.89927 11.4274 3.06206 11.36 3.2318 11.36H5.39052C5.56026 11.36 5.72304 11.4274 5.84307 11.5474C5.96309 11.6675 6.03052 11.8302 6.03052 12C6.03052 12.1697 5.96309 12.3325 5.84307 12.4525C5.72304 12.5726 5.56026 12.64 5.39052 12.64H5.38956ZM5.38956 15.7552H3.2318C3.06206 15.7552 2.89927 15.6878 2.77925 15.5677C2.65923 15.4477 2.5918 15.2849 2.5918 15.1152C2.5918 14.9454 2.65923 14.7827 2.77925 14.6626C2.89927 14.5426 3.06206 14.4752 3.2318 14.4752H5.39052C5.56026 14.4752 5.72304 14.5426 5.84307 14.6626C5.96309 14.7827 6.03052 14.9454 6.03052 15.1152C6.03052 15.2849 5.96309 15.4477 5.84307 15.5677C5.72304 15.6878 5.56026 15.7552 5.39052 15.7552H5.38956Z" fill="#202020"/>
<path d="M12.251 15.0598C12.1522 15.0599 12.0548 15.0371 11.9663 14.9932C11.8778 14.9494 11.8007 14.8857 11.7409 14.807C11.6812 14.7284 11.6404 14.637 11.6219 14.5401C11.6033 14.4431 11.6075 14.3431 11.634 14.248L12.082 12.6412H11.2961C11.1963 12.6412 11.0979 12.6179 11.0088 12.5731C10.9197 12.5283 10.8422 12.4632 10.7827 12.3832C10.7232 12.3031 10.6832 12.2103 10.6659 12.112C10.6486 12.0137 10.6546 11.9128 10.6833 11.8172L11.4058 9.40957C11.4564 9.2492 11.5681 9.11519 11.7167 9.0365C11.8653 8.95782 12.039 8.9408 12.2 8.98911C12.3611 9.03742 12.4967 9.14718 12.5775 9.29466C12.6583 9.44215 12.6778 9.6155 12.6318 9.77725L12.1566 11.36H12.9246C13.0232 11.36 13.1206 11.3828 13.209 11.4266C13.2974 11.4705 13.3745 11.5342 13.4342 11.6128C13.4939 11.6913 13.5346 11.7827 13.5532 11.8796C13.5717 11.9765 13.5676 12.0764 13.5412 12.1715L12.867 14.592C12.8294 14.7265 12.7488 14.845 12.6376 14.9295C12.5264 15.0139 12.3906 15.0597 12.251 15.0598Z" fill="#202020"/>
</svg>
