<svg width="24" height="24" viewBox="0 0 24 24" fill="none" xmlns="http://www.w3.org/2000/svg">
<path d="M16.256 19.2502H7.744C6.95013 19.2494 6.18903 18.9337 5.62768 18.3723C5.06634 17.811 4.7506 17.0499 4.74976 16.256V7.744C4.7506 6.95013 5.06634 6.18903 5.62768 5.62768C6.18903 5.06634 6.95013 4.7506 7.744 4.74976H16.256C17.0499 4.7506 17.811 5.06634 18.3723 5.62768C18.9337 6.18903 19.2494 6.95013 19.2502 7.744V16.256C19.2494 17.0499 18.9337 17.811 18.3723 18.3723C17.811 18.9337 17.0499 19.2494 16.256 19.2502ZM7.744 6.02976C7.28951 6.03026 6.85378 6.21103 6.53241 6.53241C6.21103 6.85378 6.03026 7.28951 6.02976 7.744V16.256C6.03026 16.7105 6.21103 17.1462 6.53241 17.4676C6.85378 17.789 7.28951 17.9697 7.744 17.9702H16.256C16.7105 17.9697 17.1462 17.789 17.4676 17.4676C17.789 17.1462 17.9697 16.7105 17.9702 16.256V7.744C17.9697 7.28951 17.789 6.85378 17.4676 6.53241C17.1462 6.21103 16.7105 6.03026 16.256 6.02976H7.744Z" fill="#202020"/>
<path d="M14.8535 17.072H9.1466C8.55841 17.0713 7.9945 16.8373 7.57859 16.4214C7.16268 16.0055 6.92872 15.4416 6.92804 14.8534V9.14654C6.92872 8.55835 7.16268 7.99444 7.57859 7.57853C7.9945 7.16262 8.55841 6.92866 9.1466 6.92798H14.8535C15.4417 6.92866 16.0056 7.16262 16.4215 7.57853C16.8374 7.99444 17.0714 8.55835 17.072 9.14654V14.8534C17.0714 15.4416 16.8374 16.0055 16.4215 16.4214C16.0056 16.8373 15.4417 17.0713 14.8535 17.072ZM9.1466 8.20798C8.89778 8.20832 8.65925 8.30731 8.48331 8.48325C8.30737 8.65919 8.20838 8.89772 8.20804 9.14654V14.8534C8.20838 15.1022 8.30737 15.3408 8.48331 15.5167C8.65925 15.6926 8.89778 15.7916 9.1466 15.792H14.8535C15.1023 15.7916 15.3408 15.6926 15.5168 15.5167C15.6927 15.3408 15.7917 15.1022 15.792 14.8534V9.14654C15.7917 8.89772 15.6927 8.65919 15.5168 8.48325C15.3408 8.30731 15.1023 8.20832 14.8535 8.20798H9.1466ZM8.88484 6.02974C8.7151 6.02974 8.55232 5.96231 8.43229 5.84229C8.31227 5.72227 8.24484 5.55948 8.24484 5.38974V3.23198C8.24484 3.06224 8.31227 2.89945 8.43229 2.77943C8.55232 2.65941 8.7151 2.59198 8.88484 2.59198C9.05458 2.59198 9.21737 2.65941 9.33739 2.77943C9.45741 2.89945 9.52484 3.06224 9.52484 3.23198V5.3907C9.52459 5.56027 9.45705 5.72281 9.33705 5.84263C9.21705 5.96244 9.05441 6.02974 8.88484 6.02974ZM12 6.02974C11.8303 6.02974 11.6675 5.96231 11.5475 5.84229C11.4275 5.72227 11.36 5.55948 11.36 5.38974V3.23198C11.36 3.06224 11.4275 2.89945 11.5475 2.77943C11.6675 2.65941 11.8303 2.59198 12 2.59198C12.1698 2.59198 12.3326 2.65941 12.4526 2.77943C12.5726 2.89945 12.64 3.06224 12.64 3.23198V5.3907C12.6398 5.56027 12.5722 5.72281 12.4523 5.84263C12.3323 5.96244 12.1696 6.02974 12 6.02974ZM15.1152 6.02974C14.9455 6.02974 14.7827 5.96231 14.6627 5.84229C14.5427 5.72227 14.4752 5.55948 14.4752 5.38974V3.23198C14.4752 3.06224 14.5427 2.89945 14.6627 2.77943C14.7827 2.65941 14.9455 2.59198 15.1152 2.59198C15.285 2.59198 15.4478 2.65941 15.5678 2.77943C15.6878 2.89945 15.7552 3.06224 15.7552 3.23198V5.3907C15.755 5.56027 15.6874 5.72281 15.5675 5.84263C15.4475 5.96244 15.2848 6.02974 15.1152 6.02974ZM8.88484 21.408C8.7151 21.408 8.55232 21.3406 8.43229 21.2205C8.31227 21.1005 8.24484 20.9377 8.24484 20.768V18.6102C8.24484 18.4405 8.31227 18.2777 8.43229 18.1577C8.55232 18.0376 8.7151 17.9702 8.88484 17.9702C9.05458 17.9702 9.21737 18.0376 9.33739 18.1577C9.45741 18.2777 9.52484 18.4405 9.52484 18.6102V20.768C9.52484 20.9377 9.45741 21.1005 9.33739 21.2205C9.21737 21.3406 9.05458 21.408 8.88484 21.408ZM12 21.408C11.8303 21.408 11.6675 21.3406 11.5475 21.2205C11.4275 21.1005 11.36 20.9377 11.36 20.768V18.6102C11.36 18.4405 11.4275 18.2777 11.5475 18.1577C11.6675 18.0376 11.8303 17.9702 12 17.9702C12.1698 17.9702 12.3326 18.0376 12.4526 18.1577C12.5726 18.2777 12.64 18.4405 12.64 18.6102V20.768C12.64 20.9377 12.5726 21.1005 12.4526 21.2205C12.3326 21.3406 12.1698 21.408 12 21.408ZM15.1152 21.408C14.9455 21.408 14.7827 21.3406 14.6627 21.2205C14.5427 21.1005 14.4752 20.9377 14.4752 20.768V18.6102C14.4752 18.4405 14.5427 18.2777 14.6627 18.1577C14.7827 18.0376 14.9455 17.9702 15.1152 17.9702C15.285 17.9702 15.4478 18.0376 15.5678 18.1577C15.6878 18.2777 15.7552 18.4405 15.7552 18.6102V20.768C15.7552 20.9377 15.6878 21.1005 15.5678 21.2205C15.4478 21.3406 15.285 21.408 15.1152 21.408ZM20.768 9.52478H18.6103C18.4405 9.52478 18.2778 9.45735 18.1577 9.33733C18.0377 9.21731 17.9703 9.05452 17.9703 8.88478C17.9703 8.71504 18.0377 8.55226 18.1577 8.43223C18.2778 8.31221 18.4405 8.24478 18.6103 8.24478H20.768C20.9378 8.24478 21.1006 8.31221 21.2206 8.43223C21.3406 8.55226 21.408 8.71504 21.408 8.88478C21.408 9.05452 21.3406 9.21731 21.2206 9.33733C21.1006 9.45735 20.9378 9.52478 20.768 9.52478ZM20.768 12.64H18.6103C18.4405 12.64 18.2778 12.5726 18.1577 12.4525C18.0377 12.3325 17.9703 12.1697 17.9703 12C17.9703 11.8302 18.0377 11.6675 18.1577 11.5474C18.2778 11.4274 18.4405 11.36 18.6103 11.36H20.768C20.9378 11.36 21.1006 11.4274 21.2206 11.5474C21.3406 11.6675 21.408 11.8302 21.408 12C21.408 12.1697 21.3406 12.3325 21.2206 12.4525C21.1006 12.5726 20.9378 12.64 20.768 12.64ZM20.768 15.7552H18.6103C18.4405 15.7552 18.2778 15.6878 18.1577 15.5677C18.0377 15.4477 17.9703 15.2849 17.9703 15.1152C17.9703 14.9454 18.0377 14.7827 18.1577 14.6626C18.2778 14.5426 18.4405 14.4752 18.6103 14.4752H20.768C20.9378 14.4752 21.1006 14.5426 21.2206 14.6626C21.3406 14.7827 21.408 14.9454 21.408 15.1152C21.408 15.2849 21.3406 15.4477 21.2206 15.5677C21.1006 15.6878 20.9378 15.7552 20.768 15.7552ZM5.3898 9.52478H3.23204C3.0623 9.52478 2.89952 9.45735 2.77949 9.33733C2.65947 9.21731 2.59204 9.05452 2.59204 8.88478C2.59204 8.71504 2.65947 8.55226 2.77949 8.43223C2.89952 8.31221 3.0623 8.24478 3.23204 8.24478H5.39076C5.5605 8.24478 5.72329 8.31221 5.84331 8.43223C5.96333 8.55226 6.03076 8.71504 6.03076 8.88478C6.03076 9.05452 5.96333 9.21731 5.84331 9.33733C5.72329 9.45735 5.5605 9.52478 5.39076 9.52478H5.3898ZM5.3898 12.64H3.23204C3.0623 12.64 2.89952 12.5726 2.77949 12.4525C2.65947 12.3325 2.59204 12.1697 2.59204 12C2.59204 11.8302 2.65947 11.6675 2.77949 11.5474C2.89952 11.4274 3.0623 11.36 3.23204 11.36H5.39076C5.5605 11.36 5.72329 11.4274 5.84331 11.5474C5.96333 11.6675 6.03076 11.8302 6.03076 12C6.03076 12.1697 5.96333 12.3325 5.84331 12.4525C5.72329 12.5726 5.5605 12.64 5.39076 12.64H5.3898ZM5.3898 15.7552H3.23204C3.0623 15.7552 2.89952 15.6878 2.77949 15.5677C2.65947 15.4477 2.59204 15.2849 2.59204 15.1152C2.59204 14.9454 2.65947 14.7827 2.77949 14.6626C2.89952 14.5426 3.0623 14.4752 3.23204 14.4752H5.39076C5.5605 14.4752 5.72329 14.5426 5.84331 14.6626C5.96333 14.7827 6.03076 14.9454 6.03076 15.1152C6.03076 15.2849 5.96333 15.4477 5.84331 15.5677C5.72329 15.6878 5.5605 15.7552 5.39076 15.7552H5.3898Z" fill="#202020"/>
<path d="M12.2508 15.0598C12.1521 15.0599 12.0547 15.0371 11.9662 14.9933C11.8777 14.9494 11.8006 14.8857 11.7408 14.8071C11.6811 14.7285 11.6403 14.6371 11.6218 14.5401C11.6032 14.4431 11.6074 14.3431 11.6339 14.248L12.0819 12.6413H11.2959C11.1962 12.6413 11.0978 12.6179 11.0087 12.5731C10.9195 12.5283 10.8421 12.4633 10.7826 12.3832C10.723 12.3031 10.683 12.2103 10.6658 12.112C10.6485 12.0138 10.6545 11.9128 10.6831 11.8173L11.4057 9.4096C11.4563 9.24923 11.568 9.11522 11.7166 9.03654C11.8652 8.95785 12.0388 8.94083 12.1999 8.98914C12.361 9.03745 12.4966 9.14721 12.5774 9.29469C12.6581 9.44218 12.6776 9.61553 12.6316 9.77728L12.1564 11.36H12.9244C13.0231 11.36 13.1205 11.3828 13.2089 11.4267C13.2973 11.4705 13.3744 11.5342 13.4341 11.6128C13.4938 11.6914 13.5345 11.7827 13.5531 11.8796C13.5716 11.9765 13.5675 12.0764 13.5411 12.1715L12.8668 14.592C12.8293 14.7265 12.7487 14.845 12.6375 14.9295C12.5263 15.014 12.3905 15.0597 12.2508 15.0598Z" fill="#202020"/>
</svg>
