<svg width="24" height="24" viewBox="0 0 24 24" fill="none" xmlns="http://www.w3.org/2000/svg">
<path d="M16.9506 19.8919C16.7808 19.8919 16.6181 19.8244 16.498 19.7044C16.378 19.5844 16.3106 19.4216 16.3106 19.2519V9.13986C16.3102 8.75525 16.1573 8.38649 15.8853 8.11454C15.6134 7.84258 15.2446 7.68964 14.86 7.6893H4.4901C4.32036 7.6893 4.15757 7.62187 4.03755 7.50185C3.91753 7.38183 3.8501 7.21904 3.8501 7.0493C3.8501 6.87956 3.91753 6.71678 4.03755 6.59675C4.15757 6.47673 4.32036 6.4093 4.4901 6.4093H14.86C15.5839 6.41015 16.278 6.6981 16.7899 7.21C17.3018 7.7219 17.5897 8.41593 17.5906 9.13986V19.2519C17.5906 19.4216 17.5231 19.5844 17.4031 19.7044C17.2831 19.8244 17.1203 19.8919 16.9506 19.8919Z" fill="#202020"/>
<path d="M19.2479 17.5907H9.13974C8.41581 17.5899 7.72177 17.3019 7.20988 16.79C6.69798 16.2781 6.41003 15.5841 6.40918 14.8602V4.6013C6.40918 4.43156 6.47661 4.26878 6.59663 4.14876C6.71665 4.02873 6.87944 3.9613 7.04918 3.9613C7.21892 3.9613 7.3817 4.02873 7.50173 4.14876C7.62175 4.26878 7.68918 4.43156 7.68918 4.6013V14.8602C7.68952 15.2448 7.84245 15.6136 8.11441 15.8855C8.38637 16.1575 8.75513 16.3104 9.13974 16.3107H19.2479C19.4176 16.3107 19.5804 16.3782 19.7004 16.4982C19.8205 16.6182 19.8879 16.781 19.8879 16.9507C19.8879 17.1205 19.8205 17.2833 19.7004 17.4033C19.5804 17.5233 19.4176 17.5907 19.2479 17.5907Z" fill="#202020"/>
</svg>
