<svg width="24" height="24" viewBox="0 0 24 24" fill="none" xmlns="http://www.w3.org/2000/svg">
<path d="M17.0319 19.0311H6.96795C5.07995 19.0311 3.54395 17.6727 3.54395 16.0029V5.60897C3.5439 5.48398 3.58045 5.3617 3.6491 5.25724C3.71775 5.15278 3.81548 5.07071 3.93024 5.02115C4.045 4.9716 4.17175 4.95674 4.29486 4.9784C4.41797 5.00007 4.53204 5.05731 4.62299 5.14306L8.20027 8.51202L11.5519 5.16097C11.6122 5.10076 11.6839 5.05317 11.7627 5.02101C11.8416 4.98885 11.9261 4.97276 12.0113 4.97369C12.0965 4.97461 12.1806 4.99253 12.2588 5.02639C12.337 5.06026 12.4076 5.10938 12.4665 5.17089L15.8153 8.66722L19.3654 5.15393C19.4552 5.06507 19.5692 5.00476 19.6932 4.9806C19.8172 4.95643 19.9456 4.9695 20.0621 5.01816C20.1787 5.06681 20.2783 5.14888 20.3483 5.25401C20.4183 5.35915 20.4557 5.48266 20.4556 5.60897V16.0029C20.4556 17.6727 18.9196 19.0311 17.0319 19.0311ZM4.82427 7.09122V16.0029C4.82427 16.9671 5.78587 17.7511 6.96827 17.7511H17.0323C18.2143 17.7511 19.1763 16.9671 19.1763 16.0029V7.14274L16.254 10.0346C16.1937 10.0943 16.122 10.1414 16.0433 10.1732C15.9645 10.205 15.8802 10.2207 15.7953 10.2196C15.7104 10.2185 15.6266 10.2005 15.5487 10.1666C15.4708 10.1328 15.4005 10.0837 15.3417 10.0224L11.9948 6.52802L8.66683 9.85602C8.54915 9.97376 8.39024 10.041 8.22379 10.0435C8.05735 10.046 7.89647 9.9836 7.77531 9.86946L4.82427 7.09122Z" fill="#202020"/>
</svg>
