<svg width="24" height="24" viewBox="0 0 24 24" fill="none" xmlns="http://www.w3.org/2000/svg">
<path d="M12.0175 15.0314C10.9836 15.0315 9.96498 14.7808 9.0492 14.3008C8.40739 13.9658 7.86983 13.4611 7.49511 12.8417C7.12038 12.2222 6.92287 11.5118 6.92408 10.7878V5.51519C6.92476 4.91546 7.1633 4.34048 7.58737 3.91641C8.01145 3.49233 8.58643 3.25379 9.18616 3.25311H14.8479C15.4477 3.25379 16.0226 3.49233 16.4467 3.91641C16.8708 4.34048 17.1093 4.91546 17.11 5.51519V10.7878C17.1113 11.5117 16.9139 12.222 16.5394 12.8415C16.1648 13.4609 15.6275 13.9657 14.9858 14.3008C14.0701 14.7808 13.0515 15.0315 12.0175 15.0314ZM9.18616 4.53311C8.9258 4.53345 8.6762 4.63703 8.4921 4.82113C8.30799 5.00523 8.20442 5.25483 8.20408 5.51519V10.7878C8.20336 11.2782 8.33726 11.7594 8.59118 12.1789C8.8451 12.5984 9.20929 12.9402 9.64408 13.167C10.3766 13.5508 11.1912 13.7512 12.0182 13.7512C12.8451 13.7512 13.6597 13.5508 14.3922 13.167C14.827 12.9402 15.1912 12.5984 15.4451 12.1789C15.6991 11.7594 15.833 11.2782 15.8322 10.7878V5.51519C15.8319 5.25445 15.728 5.00451 15.5434 4.82034C15.3588 4.63617 15.1087 4.53286 14.8479 4.53311H9.18616Z" fill="#202020"/>
<path d="M16.6671 11.6627H16.4709C16.3012 11.6627 16.1384 11.5953 16.0184 11.4753C15.8984 11.3553 15.8309 11.1925 15.8309 11.0227C15.8309 10.853 15.8984 10.6902 16.0184 10.5702C16.1384 10.4502 16.3012 10.3827 16.4709 10.3827H16.6671C16.9228 10.3826 17.168 10.2811 17.3489 10.1004C17.5298 9.91969 17.6316 9.67458 17.6319 9.41889V7.11905C17.6316 6.86351 17.53 6.6185 17.3493 6.4378C17.1686 6.2571 16.9236 6.15547 16.668 6.15521H16.4719C16.3022 6.15521 16.1394 6.08779 16.0193 5.96776C15.8993 5.84774 15.8319 5.68495 15.8319 5.51521C15.8319 5.34548 15.8993 5.18269 16.0193 5.06267C16.1394 4.94264 16.3022 4.87521 16.4719 4.87521H16.668C17.2629 4.87589 17.8333 5.11251 18.2539 5.53317C18.6746 5.95382 18.9112 6.52416 18.9119 7.11905V9.41889C18.9112 10.014 18.6745 10.5844 18.2536 11.0051C17.8327 11.4258 17.2622 11.6623 16.6671 11.6627ZM7.52885 11.6627H7.33269C6.73763 11.6623 6.16705 11.4258 5.74618 11.0051C5.32532 10.5844 5.08857 10.014 5.08789 9.41889V7.11905C5.08857 6.52416 5.32519 5.95382 5.74584 5.53317C6.1665 5.11251 6.73684 4.87589 7.33173 4.87521H7.52789C7.69763 4.87521 7.86042 4.94264 7.98044 5.06267C8.10046 5.18269 8.16789 5.34548 8.16789 5.51521C8.16789 5.68495 8.10046 5.84774 7.98044 5.96776C7.86042 6.08779 7.69763 6.15521 7.52789 6.15521H7.33173C7.07618 6.15547 6.83117 6.2571 6.65047 6.4378C6.46977 6.6185 6.36814 6.86351 6.36789 7.11905V9.41889C6.36823 9.67442 6.46989 9.91938 6.65057 10.1001C6.83125 10.2807 7.07621 10.3824 7.33173 10.3827H7.52789C7.69763 10.3827 7.86042 10.4502 7.98044 10.5702C8.10046 10.6902 8.16789 10.853 8.16789 11.0227C8.16789 11.1925 8.10046 11.3553 7.98044 11.4753C7.86042 11.5953 7.69763 11.6627 7.52789 11.6627H7.52885ZM12.0175 18.8909C11.8478 18.8909 11.685 18.8235 11.5649 18.7034C11.4449 18.5834 11.3775 18.4206 11.3775 18.2509V14.3914C11.3775 14.2216 11.4449 14.0588 11.5649 13.9388C11.685 13.8188 11.8478 13.7514 12.0175 13.7514C12.1872 13.7514 12.35 13.8188 12.47 13.9388C12.5901 14.0588 12.6575 14.2216 12.6575 14.3914V18.2509C12.6575 18.3349 12.6409 18.4182 12.6088 18.4958C12.5766 18.5735 12.5295 18.644 12.47 18.7034C12.4106 18.7629 12.3401 18.81 12.2624 18.8422C12.1848 18.8743 12.1015 18.8909 12.0175 18.8909Z" fill="#202020"/>
<path d="M16.471 21.3392H7.52892C7.35918 21.3392 7.19639 21.2718 7.07637 21.1518C6.95634 21.0317 6.88892 20.8689 6.88892 20.6992C6.88985 19.8827 7.21462 19.1 7.79198 18.5227C8.36934 17.9454 9.15213 17.6207 9.9686 17.6198H14.0326C14.8491 17.6207 15.6319 17.9454 16.2092 18.5227C16.7866 19.1 17.1113 19.8827 17.1123 20.6992C17.1123 20.7834 17.0957 20.8667 17.0634 20.9444C17.0312 21.0221 16.9839 21.0928 16.9244 21.1522C16.8648 21.2117 16.7941 21.2588 16.7163 21.2909C16.6385 21.3229 16.5551 21.3394 16.471 21.3392ZM8.28796 20.0592H15.712C15.5818 19.7185 15.3514 19.4253 15.0511 19.2183C14.7508 19.0113 14.3948 18.9002 14.03 18.8998H9.96604C9.60197 18.901 9.24679 19.0124 8.94725 19.2194C8.64772 19.4263 8.41786 19.7191 8.28796 20.0592Z" fill="#202020"/>
</svg>
