<svg width="24" height="24" viewBox="0 0 24 24" fill="none" xmlns="http://www.w3.org/2000/svg">
<path d="M12 16.409C11.7582 16.4089 11.5207 16.3451 11.3114 16.224L8.68547 14.7082C8.47637 14.5868 8.30274 14.4128 8.1819 14.2034C8.06107 13.994 7.99725 13.7566 7.99683 13.5149V10.4842C7.99725 10.2424 8.06107 10.005 8.1819 9.79561C8.30274 9.58623 8.47637 9.41219 8.68547 9.29087L11.3114 7.77599C11.5208 7.65578 11.758 7.59253 11.9994 7.59253C12.2408 7.59253 12.478 7.65578 12.6874 7.77599L15.3133 9.29183C15.5224 9.41315 15.696 9.58719 15.8169 9.79657C15.9377 10.006 16.0015 10.2434 16.0019 10.4851V13.5168C16.0015 13.7585 15.9377 13.9959 15.8169 14.2053C15.696 14.4147 15.5224 14.5887 15.3133 14.7101L12.6887 16.224C12.4794 16.3451 12.2418 16.4089 12 16.409ZM12 8.87071C11.983 8.87058 11.9662 8.875 11.9514 8.88351L9.32547 10.4C9.31056 10.4084 9.29818 10.4207 9.28963 10.4356C9.28107 10.4505 9.27665 10.4673 9.27683 10.4845V13.5162C9.27665 13.5333 9.28107 13.5502 9.28963 13.565C9.29818 13.5799 9.31056 13.5922 9.32547 13.6006L11.9514 15.1168C11.966 15.1251 11.9826 15.1294 11.9994 15.1294C12.0162 15.1294 12.0327 15.1251 12.0474 15.1168L14.6746 13.6C14.6895 13.5915 14.7019 13.5792 14.7104 13.5644C14.719 13.5495 14.7234 13.5327 14.7232 13.5155V10.4842C14.7234 10.467 14.719 10.4501 14.7104 10.4353C14.7019 10.4204 14.6895 10.4081 14.6746 10.3997L12.0487 8.88351C12.0339 8.875 12.0171 8.87058 12 8.87071Z" fill="#202020"/>
<path d="M12.0001 12.64C11.8877 12.64 11.7773 12.6104 11.6801 12.5542L8.41606 10.6694C8.27026 10.5839 8.16419 10.4443 8.12099 10.2809C8.0778 10.1175 8.10098 9.94365 8.18548 9.79729C8.26998 9.65093 8.40895 9.54393 8.57205 9.49965C8.73515 9.45537 8.90914 9.4774 9.05606 9.56093L12.0001 11.2611L14.9441 9.56093C15.091 9.4774 15.265 9.45537 15.4281 9.49965C15.5912 9.54393 15.7301 9.65093 15.8146 9.79729C15.8991 9.94365 15.9223 10.1175 15.8791 10.2809C15.8359 10.4443 15.7299 10.5839 15.5841 10.6694L12.3201 12.5542C12.2228 12.6104 12.1124 12.64 12.0001 12.64Z" fill="#202020"/>
<path d="M12 16.4096C11.8302 16.4096 11.6675 16.3422 11.5474 16.2221C11.4274 16.1021 11.36 15.9393 11.36 15.7696V12C11.36 11.8302 11.4274 11.6675 11.5474 11.5474C11.6675 11.4274 11.8302 11.36 12 11.36C12.1697 11.36 12.3325 11.4274 12.4525 11.5474C12.5726 11.6675 12.64 11.8302 12.64 12V15.7696C12.64 15.9393 12.5726 16.1021 12.4525 16.2221C12.3325 16.3422 12.1697 16.4096 12 16.4096Z" fill="#202020"/>
<path d="M17.0319 20.4556H6.96795C6.06016 20.4546 5.18984 20.0935 4.54793 19.4516C3.90603 18.8097 3.54496 17.9394 3.54395 17.0316V6.96795C3.54496 6.06016 3.90603 5.18984 4.54793 4.54793C5.18984 3.90603 6.06016 3.54496 6.96795 3.54395H17.0319C17.9397 3.54496 18.8101 3.90603 19.452 4.54793C20.0939 5.18984 20.4549 6.06016 20.4559 6.96795V17.0319C20.4548 17.9397 20.0937 18.8099 19.4518 19.4517C18.8099 20.0936 17.9397 20.4546 17.0319 20.4556ZM6.96795 4.82427C6.39948 4.82477 5.85444 5.05082 5.45247 5.45279C5.0505 5.85476 4.82445 6.3998 4.82395 6.96826V17.0323C4.82445 17.6007 5.0505 18.1458 5.45247 18.5477C5.85444 18.9497 6.39948 19.1758 6.96795 19.1763H17.0319C17.6004 19.1758 18.1455 18.9497 18.5474 18.5477C18.9494 18.1458 19.1754 17.6007 19.1759 17.0323V6.96795C19.1754 6.39948 18.9494 5.85444 18.5474 5.45247C18.1455 5.0505 17.6004 4.82445 17.0319 4.82395L6.96795 4.82427Z" fill="#202020"/>
</svg>
