<svg width="24" height="24" viewBox="0 0 24 24" fill="none" xmlns="http://www.w3.org/2000/svg">
<path d="M5.99065 14.7309C5.45053 14.7309 4.92254 14.5707 4.47345 14.2706C4.02436 13.9706 3.67434 13.5441 3.46764 13.0451C3.26095 12.5461 3.20687 11.997 3.31224 11.4672C3.41761 10.9375 3.6777 10.4509 4.05962 10.069C4.44154 9.68706 4.92814 9.42696 5.45788 9.32159C5.98762 9.21622 6.53671 9.2703 7.03571 9.477C7.53471 9.68369 7.96122 10.0337 8.26129 10.4828C8.56136 10.9319 8.72153 11.4599 8.72153 12C8.72076 12.724 8.4328 13.4182 7.92083 13.9302C7.40885 14.4422 6.71469 14.7301 5.99065 14.7309ZM5.99065 10.5491C5.70369 10.5491 5.42318 10.6342 5.18458 10.7936C4.94599 10.9531 4.76002 11.1797 4.65021 11.4448C4.5404 11.7099 4.51166 12.0016 4.56765 12.2831C4.62363 12.5645 4.76181 12.823 4.96472 13.0259C5.16763 13.2288 5.42615 13.367 5.70759 13.423C5.98904 13.479 6.28076 13.4503 6.54587 13.3404C6.81099 13.2306 7.03759 13.0447 7.19701 12.8061C7.35643 12.5675 7.44153 12.287 7.44153 12C7.4411 11.6153 7.28811 11.2465 7.01611 10.9745C6.74411 10.7025 6.37531 10.5495 5.99065 10.5491ZM18.0092 14.7309C17.4691 14.7309 16.9411 14.5707 16.492 14.2706C16.0429 13.9706 15.6929 13.5441 15.4862 13.0451C15.2795 12.5461 15.2254 11.997 15.3308 11.4672C15.4362 10.9375 15.6963 10.4509 16.0782 10.069C16.4601 9.68706 16.9467 9.42696 17.4764 9.32159C18.0062 9.21622 18.5553 9.2703 19.0543 9.477C19.5533 9.68369 19.9798 10.0337 20.2799 10.4828C20.5799 10.9319 20.7401 11.4599 20.7401 12C20.7392 12.724 20.4513 13.4181 19.9393 13.9301C19.4273 14.442 18.7332 14.73 18.0092 14.7309ZM18.0092 10.5491C17.7222 10.5491 17.4417 10.6342 17.2031 10.7936C16.9645 10.9531 16.7786 11.1797 16.6688 11.4448C16.559 11.7099 16.5302 12.0016 16.5862 12.2831C16.6422 12.5645 16.7804 12.823 16.9833 13.0259C17.1862 13.2288 17.4447 13.367 17.7262 13.423C18.0076 13.479 18.2993 13.4503 18.5644 13.3404C18.8295 13.2306 19.0561 13.0447 19.2156 12.8061C19.375 12.5675 19.4601 12.287 19.4601 12C19.4597 11.6153 19.3067 11.2465 19.0347 10.9745C18.7627 10.7025 18.3939 10.5495 18.0092 10.5491ZM18.0092 20.8C17.4691 20.8 16.9411 20.6398 16.492 20.3398C16.0429 20.0397 15.6929 19.6132 15.4862 19.1142C15.2795 18.6152 15.2254 18.0661 15.3308 17.5364C15.4362 17.0066 15.6963 16.52 16.0782 16.1381C16.4601 15.7562 16.9467 15.4961 17.4764 15.3907C18.0062 15.2853 18.5553 15.3394 19.0543 15.5461C19.5533 15.7528 19.9798 16.1028 20.2799 16.5519C20.5799 17.001 20.7401 17.529 20.7401 18.0691C20.7392 18.7931 20.4513 19.4873 19.9393 19.9992C19.4273 20.5112 18.7332 20.7992 18.0092 20.8ZM18.0092 16.6182C17.7222 16.6182 17.4417 16.7033 17.2031 16.8628C16.9645 17.0222 16.7786 17.2488 16.6688 17.5139C16.559 17.779 16.5302 18.0707 16.5862 18.3522C16.6422 18.6336 16.7804 18.8921 16.9833 19.095C17.1862 19.298 17.4447 19.4361 17.7262 19.4921C18.0076 19.5481 18.2993 19.5194 18.5644 19.4096C18.8295 19.2997 19.0561 19.1138 19.2156 18.8752C19.375 18.6366 19.4601 18.3561 19.4601 18.0691C19.4599 17.6843 19.307 17.3153 19.035 17.043C18.763 16.7708 18.394 16.6177 18.0092 16.6173V16.6182ZM18.0092 8.66272C17.4691 8.66272 16.9411 8.50256 16.492 8.20248C16.0429 7.90241 15.6929 7.47591 15.4862 6.9769C15.2795 6.4779 15.2254 5.92881 15.3308 5.39907C15.4362 4.86933 15.6963 4.38274 16.0782 4.00082C16.4601 3.6189 16.9467 3.3588 17.4764 3.25343C18.0062 3.14806 18.5553 3.20214 19.0543 3.40884C19.5533 3.61553 19.9798 3.96555 20.2799 4.41464C20.5799 4.86374 20.7401 5.39172 20.7401 5.93184C20.7392 6.65583 20.4511 7.3499 19.9392 7.86184C19.4273 8.37377 18.7332 8.66179 18.0092 8.66272ZM18.0092 4.48096C17.7222 4.48096 17.4417 4.56605 17.2031 4.72548C16.9645 4.8849 16.7786 5.1115 16.6688 5.37661C16.559 5.64173 16.5302 5.93345 16.5862 6.21489C16.6422 6.49634 16.7804 6.75486 16.9833 6.95777C17.1862 7.16068 17.4447 7.29886 17.7262 7.35484C18.0076 7.41082 18.2993 7.38209 18.5644 7.27228C18.8295 7.16246 19.0561 6.9765 19.2156 6.73791C19.375 6.49931 19.4601 6.2188 19.4601 5.93184C19.4599 5.54701 19.307 5.17797 19.035 4.90576C18.763 4.63355 18.394 4.48042 18.0092 4.48V4.48096Z" fill="#202020"/>
<path d="M15.9183 18.7081H13.7343C13.052 18.7074 12.3978 18.436 11.9153 17.9536C11.4328 17.4711 11.1614 16.817 11.1605 16.1347V7.86525C11.1614 7.18294 11.4328 6.52881 11.9153 6.04637C12.3978 5.56394 13.052 5.29257 13.7343 5.29181H15.9183C16.088 5.29181 16.2508 5.35924 16.3708 5.47926C16.4909 5.59928 16.5583 5.76207 16.5583 5.93181C16.5583 6.10155 16.4909 6.26433 16.3708 6.38436C16.2508 6.50438 16.088 6.57181 15.9183 6.57181H13.7343C13.3913 6.57215 13.0625 6.70852 12.8199 6.951C12.5774 7.19349 12.4409 7.52228 12.4405 7.86525V16.1347C12.4409 16.4777 12.5774 16.8065 12.8199 17.0489C13.0625 17.2914 13.3913 17.4278 13.7343 17.4281H15.9183C16.088 17.4281 16.2508 17.4956 16.3708 17.6156C16.4909 17.7356 16.5583 17.8984 16.5583 18.0681C16.5583 18.2379 16.4909 18.4007 16.3708 18.5207C16.2508 18.6407 16.088 18.7081 15.9183 18.7081Z" fill="#202020"/>
<path d="M15.8937 12.64H8.08153C7.91179 12.64 7.749 12.5725 7.62898 12.4525C7.50896 12.3325 7.44153 12.1697 7.44153 12C7.44153 11.8302 7.50896 11.6674 7.62898 11.5474C7.749 11.4274 7.91179 11.36 8.08153 11.36H15.8937C16.0634 11.36 16.2262 11.4274 16.3462 11.5474C16.4663 11.6674 16.5337 11.8302 16.5337 12C16.5337 12.1697 16.4663 12.3325 16.3462 12.4525C16.2262 12.5725 16.0634 12.64 15.8937 12.64Z" fill="#202020"/>
</svg>
