<svg width="24" height="24" viewBox="0 0 24 24" fill="none" xmlns="http://www.w3.org/2000/svg">
<path d="M5.99072 14.7308C5.45061 14.7308 4.92262 14.5707 4.47353 14.2706C4.02444 13.9705 3.67441 13.544 3.46772 13.045C3.26103 12.546 3.20694 11.9969 3.31232 11.4672C3.41769 10.9375 3.67778 10.4509 4.0597 10.0689C4.44162 9.68703 4.92822 9.42693 5.45795 9.32156C5.98769 9.21619 6.53678 9.27027 7.03579 9.47696C7.53479 9.68366 7.96129 10.0337 8.26137 10.4828C8.56144 10.9319 8.7216 11.4599 8.7216 12C8.72084 12.724 8.43288 13.4182 7.9209 13.9302C7.40893 14.4421 6.71476 14.7301 5.99072 14.7308ZM5.99072 10.5491C5.70377 10.5491 5.42325 10.6342 5.18466 10.7936C4.94606 10.953 4.7601 11.1796 4.65028 11.4447C4.54047 11.7099 4.51174 12.0016 4.56772 12.283C4.6237 12.5645 4.76189 12.823 4.9648 13.0259C5.16771 13.2288 5.42623 13.367 5.70767 13.423C5.98911 13.479 6.28084 13.4502 6.54595 13.3404C6.81106 13.2306 7.03766 13.0446 7.19709 12.806C7.35651 12.5674 7.4416 12.2869 7.4416 12C7.44118 11.6153 7.28818 11.2465 7.01618 10.9745C6.74418 10.7025 6.37539 10.5495 5.99072 10.5491ZM18.0093 14.7308C17.4692 14.7308 16.9412 14.5707 16.4921 14.2706C16.043 13.9705 15.693 13.544 15.4863 13.045C15.2796 12.546 15.2255 11.9969 15.3309 11.4672C15.4362 10.9375 15.6963 10.4509 16.0783 10.0689C16.4602 9.68703 16.9468 9.42693 17.4765 9.32156C18.0063 9.21619 18.5553 9.27027 19.0543 9.47696C19.5533 9.68366 19.9799 10.0337 20.2799 10.4828C20.58 10.9319 20.7402 11.4599 20.7402 12C20.7393 12.724 20.4513 13.4181 19.9394 13.9301C19.4274 14.442 18.7333 14.73 18.0093 14.7308ZM18.0093 10.5491C17.7223 10.5491 17.4418 10.6342 17.2032 10.7936C16.9646 10.953 16.7787 11.1796 16.6688 11.4447C16.559 11.7099 16.5303 12.0016 16.5863 12.283C16.6423 12.5645 16.7804 12.823 16.9834 13.0259C17.1863 13.2288 17.4448 13.367 17.7262 13.423C18.0077 13.479 18.2994 13.4502 18.5645 13.3404C18.8296 13.2306 19.0562 13.0446 19.2156 12.806C19.3751 12.5674 19.4602 12.2869 19.4602 12C19.4597 11.6153 19.3067 11.2465 19.0347 10.9745C18.7627 10.7025 18.3939 10.5495 18.0093 10.5491ZM18.0093 20.8C17.4692 20.8 16.9412 20.6398 16.4921 20.3397C16.043 20.0397 15.693 19.6132 15.4863 19.1142C15.2796 18.6151 15.2255 18.0661 15.3309 17.5363C15.4362 17.0066 15.6963 16.52 16.0783 16.1381C16.4602 15.7561 16.9468 15.4961 17.4765 15.3907C18.0063 15.2853 18.5553 15.3394 19.0543 15.5461C19.5533 15.7528 19.9799 16.1028 20.2799 16.5519C20.58 17.001 20.7402 17.529 20.7402 18.0691C20.7393 18.7931 20.4513 19.4872 19.9394 19.9992C19.4274 20.5111 18.7333 20.7991 18.0093 20.8ZM18.0093 16.6182C17.7223 16.6182 17.4418 16.7033 17.2032 16.8627C16.9646 17.0222 16.7787 17.2487 16.6688 17.5139C16.559 17.779 16.5303 18.0707 16.5863 18.3521C16.6423 18.6336 16.7804 18.8921 16.9834 19.095C17.1863 19.2979 17.4448 19.4361 17.7262 19.4921C18.0077 19.5481 18.2994 19.5193 18.5645 19.4095C18.8296 19.2997 19.0562 19.1138 19.2156 18.8752C19.3751 18.6366 19.4602 18.356 19.4602 18.0691C19.46 17.6843 19.3071 17.3152 19.0351 17.043C18.7631 16.7708 18.3941 16.6177 18.0093 16.6172V16.6182ZM18.0093 8.66269C17.4692 8.66269 16.9412 8.50253 16.4921 8.20245C16.043 7.90238 15.693 7.47587 15.4863 6.97687C15.2796 6.47787 15.2255 5.92878 15.3309 5.39904C15.4362 4.8693 15.6963 4.38271 16.0783 4.00079C16.4602 3.61886 16.9468 3.35877 17.4765 3.2534C18.0063 3.14803 18.5553 3.20211 19.0543 3.4088C19.5533 3.6155 19.9799 3.96552 20.2799 4.41461C20.58 4.8637 20.7402 5.39169 20.7402 5.93181C20.7392 6.6558 20.4512 7.34987 19.9393 7.8618C19.4273 8.37374 18.7333 8.66176 18.0093 8.66269ZM18.0093 4.48093C17.7223 4.48093 17.4418 4.56602 17.2032 4.72545C16.9646 4.88487 16.7787 5.11147 16.6688 5.37658C16.559 5.6417 16.5303 5.93342 16.5863 6.21486C16.6423 6.4963 16.7804 6.75483 16.9834 6.95774C17.1863 7.16065 17.4448 7.29883 17.7262 7.35481C18.0077 7.41079 18.2994 7.38206 18.5645 7.27225C18.8296 7.16243 19.0562 6.97647 19.2156 6.73787C19.3751 6.49928 19.4602 6.21877 19.4602 5.93181C19.46 5.54698 19.3071 5.17794 19.0351 4.90573C18.7631 4.63352 18.3941 4.48039 18.0093 4.47997V4.48093Z" fill="#202020"/>
<path d="M15.9184 18.7083H13.7344C13.0521 18.7075 12.398 18.4362 11.9155 17.9537C11.433 17.4713 11.1615 16.8172 11.1607 16.1349V7.86543C11.1615 7.18312 11.433 6.529 11.9155 6.04656C12.398 5.56412 13.0521 5.29275 13.7344 5.29199H15.9184C16.0882 5.29199 16.2509 5.35942 16.371 5.47944C16.491 5.59947 16.5584 5.76225 16.5584 5.93199C16.5584 6.10173 16.491 6.26452 16.371 6.38454C16.2509 6.50456 16.0882 6.57199 15.9184 6.57199H13.7344C13.3915 6.57233 13.0626 6.7087 12.8201 6.95119C12.5775 7.19367 12.4411 7.52246 12.4407 7.86543V16.1349C12.4411 16.4778 12.5775 16.8066 12.8201 17.0491C13.0626 17.2916 13.3915 17.428 13.7344 17.4283H15.9184C16.0882 17.4283 16.2509 17.4957 16.371 17.6158C16.491 17.7358 16.5584 17.8986 16.5584 18.0683C16.5584 18.2381 16.491 18.4008 16.371 18.5209C16.2509 18.6409 16.0882 18.7083 15.9184 18.7083Z" fill="#202020"/>
<path d="M15.8938 12.6401H8.08162C7.91188 12.6401 7.74909 12.5727 7.62907 12.4527C7.50905 12.3326 7.44162 12.1698 7.44162 12.0001C7.44162 11.8304 7.50905 11.6676 7.62907 11.5476C7.74909 11.4275 7.91188 11.3601 8.08162 11.3601H15.8938C16.0635 11.3601 16.2263 11.4275 16.3463 11.5476C16.4664 11.6676 16.5338 11.8304 16.5338 12.0001C16.5338 12.1698 16.4664 12.3326 16.3463 12.4527C16.2263 12.5727 16.0635 12.6401 15.8938 12.6401Z" fill="#202020"/>
</svg>
