<svg width="24" height="24" viewBox="0 0 24 24" fill="none" xmlns="http://www.w3.org/2000/svg">
<path d="M12 16.48C9.53028 16.48 7.52004 14.4707 7.52004 12C7.52004 9.52928 9.52932 7.52 12 7.52C14.4708 7.52 16.48 9.52928 16.48 12C16.48 14.4707 14.4698 16.48 12 16.48ZM12 8.8C11.3671 8.8 10.7485 8.98767 10.2222 9.33929C9.69598 9.69091 9.28583 10.1907 9.04363 10.7754C8.80143 11.3601 8.73806 12.0035 8.86153 12.6243C8.985 13.245 9.28977 13.8152 9.7373 14.2627C10.1848 14.7103 10.755 15.015 11.3758 15.1385C11.9965 15.262 12.6399 15.1986 13.2246 14.9564C13.8094 14.7142 14.3091 14.3041 14.6607 13.7778C15.0124 13.2516 15.2 12.6329 15.2 12C15.1993 11.1515 14.8619 10.338 14.2619 9.7381C13.662 9.13815 12.8485 8.80076 12 8.8ZM12 6.528C11.8303 6.528 11.6675 6.46057 11.5475 6.34055C11.4275 6.22052 11.36 6.05774 11.36 5.888V5.4128C11.36 5.24306 11.4275 5.08027 11.5475 4.96025C11.6675 4.84023 11.8303 4.7728 12 4.7728C12.1698 4.7728 12.3326 4.84023 12.4526 4.96025C12.5726 5.08027 12.64 5.24306 12.64 5.4128V5.888C12.64 6.05774 12.5726 6.22052 12.4526 6.34055C12.3326 6.46057 12.1698 6.528 12 6.528ZM8.07108 7.95712C7.97759 7.95718 7.88522 7.93675 7.80046 7.89728C7.71571 7.8578 7.64064 7.80024 7.58052 7.72864L7.27556 7.36512C7.16862 7.23484 7.11739 7.06765 7.13299 6.89983C7.14858 6.73201 7.22974 6.57712 7.35886 6.46878C7.48797 6.36044 7.6546 6.30741 7.82258 6.32119C7.99056 6.33497 8.14632 6.41446 8.25604 6.5424L8.561 6.90592C8.63923 6.99922 8.68923 7.11291 8.70511 7.23363C8.72099 7.35436 8.70211 7.47711 8.65067 7.58747C8.59923 7.69784 8.51738 7.79124 8.41472 7.85672C8.31206 7.92219 8.19285 7.95702 8.07108 7.95712ZM5.98084 11.5786C5.94329 11.5786 5.90581 11.5753 5.86884 11.5686L5.40164 11.488C5.23572 11.4572 5.08867 11.3621 4.9925 11.2234C4.89634 11.0848 4.85883 10.9137 4.88816 10.7475C4.91748 10.5813 5.01125 10.4335 5.14907 10.3361C5.28689 10.2387 5.4576 10.1997 5.62404 10.2275L6.09124 10.3098C6.24898 10.3374 6.39063 10.4232 6.48822 10.5501C6.58582 10.6771 6.63227 10.836 6.6184 10.9956C6.60454 11.1551 6.53137 11.3036 6.41333 11.4119C6.2953 11.5201 6.14098 11.5801 5.98084 11.5802V11.5786ZM14.2532 18.8301C14.1218 18.8301 13.9936 18.7897 13.886 18.7144C13.7783 18.639 13.6965 18.5324 13.6516 18.409L13.4893 17.9632C13.4313 17.8037 13.439 17.6276 13.5107 17.4738C13.5825 17.32 13.7124 17.2009 13.8719 17.1429C14.0314 17.0848 14.2074 17.0925 14.3613 17.1643C14.5151 17.236 14.6342 17.3659 14.6922 17.5254L14.8544 17.9712C14.8896 18.0679 14.901 18.1716 14.8876 18.2736C14.8741 18.3756 14.8363 18.4728 14.7773 18.5571C14.7183 18.6414 14.6399 18.7102 14.5486 18.7577C14.4574 18.8052 14.356 18.8301 14.2532 18.8301ZM17.7044 15.9338C17.592 15.9339 17.4816 15.9043 17.3844 15.848L16.9738 15.6109C16.8268 15.526 16.7195 15.3862 16.6755 15.2222C16.6315 15.0582 16.6545 14.8835 16.7394 14.7365C16.8243 14.5894 16.9641 14.4821 17.1281 14.4382C17.292 14.3942 17.4668 14.4172 17.6138 14.5021L18.0244 14.7395C18.1464 14.81 18.2417 14.9187 18.2956 15.0489C18.3495 15.179 18.359 15.3233 18.3225 15.4594C18.2861 15.5955 18.2057 15.7157 18.094 15.8015C17.9822 15.8873 17.8452 15.9338 17.7044 15.9338ZM18.0192 11.5786C17.8591 11.5785 17.7048 11.5185 17.5867 11.4103C17.4687 11.3021 17.3955 11.1535 17.3817 10.994C17.3678 10.8344 17.4143 10.6755 17.5119 10.5485C17.6095 10.4216 17.7511 10.3358 17.9088 10.3082L18.376 10.2259C18.5432 10.1962 18.7153 10.2341 18.8545 10.3313C18.9937 10.4285 19.0886 10.577 19.1183 10.7442C19.148 10.9113 19.1101 11.0834 19.0129 11.2226C18.9157 11.3618 18.7672 11.4567 18.6 11.4864L18.1328 11.5686C18.0954 11.5754 18.0573 11.5787 18.0192 11.5786ZM15.929 7.95712C15.8072 7.95702 15.688 7.92219 15.5854 7.85672C15.4827 7.79124 15.4008 7.69784 15.3494 7.58747C15.298 7.47711 15.2791 7.35436 15.295 7.23363C15.3109 7.11291 15.3608 6.99922 15.4391 6.90592L15.744 6.5424C15.8538 6.41446 16.0095 6.33497 16.1775 6.32119C16.3455 6.30741 16.5121 6.36044 16.6412 6.46878C16.7703 6.57712 16.8515 6.73201 16.8671 6.89983C16.8827 7.06765 16.8315 7.23484 16.7245 7.36512L16.4196 7.72864C16.3594 7.80024 16.2844 7.8578 16.1996 7.89728C16.1149 7.93675 16.0225 7.95718 15.929 7.95712Z" fill="#202020"/>
<path d="M12 12.64C11.841 12.64 11.6877 12.5808 11.5699 12.4739L9.9504 11.0019C9.8268 10.8873 9.75342 10.7285 9.74619 10.5601C9.73897 10.3917 9.79849 10.2272 9.91182 10.1024C10.0252 9.97761 10.1831 9.90257 10.3515 9.89358C10.5198 9.88459 10.6849 9.94238 10.8109 10.0544L12.4307 11.5264C12.5263 11.6133 12.5934 11.7271 12.6231 11.8528C12.6528 11.9786 12.6438 12.1104 12.5972 12.2309C12.5505 12.3514 12.4686 12.4549 12.362 12.528C12.2554 12.601 12.1292 12.6401 12 12.64Z" fill="#202020"/>
</svg>
