<svg width="24" height="24" viewBox="0 0 24 24" fill="none" xmlns="http://www.w3.org/2000/svg">
<path d="M18.7238 18.9082H5.84865C5.67891 18.9082 5.51612 18.8408 5.3961 18.7207C5.27608 18.6007 5.20865 18.4379 5.20865 18.2682V5.73186C5.20865 5.56212 5.27608 5.39933 5.3961 5.27931C5.51612 5.15929 5.67891 5.09186 5.84865 5.09186C6.01839 5.09186 6.18117 5.15929 6.3012 5.27931C6.42122 5.39933 6.48865 5.56212 6.48865 5.73186V17.6282H18.7238C18.8936 17.6282 19.0564 17.6956 19.1764 17.8156C19.2964 17.9357 19.3638 18.0984 19.3638 18.2682C19.3638 18.4379 19.2964 18.6007 19.1764 18.7207C19.0564 18.8408 18.8936 18.9082 18.7238 18.9082Z" fill="#202020"/>
<path d="M7.79807 17.1117C7.66768 17.1118 7.54035 17.0722 7.43314 16.998C7.32592 16.9238 7.24392 16.8186 7.19813 16.6965C7.15233 16.5744 7.14491 16.4413 7.17687 16.3148C7.20883 16.1884 7.27864 16.0748 7.37695 15.9891L12 11.9571C12.064 11.9013 12.1385 11.8588 12.2191 11.8321C12.2997 11.8054 12.3848 11.7949 12.4695 11.8014C12.5542 11.8079 12.6367 11.8312 12.7123 11.8699C12.7879 11.9086 12.855 11.962 12.9097 12.0269L14.1728 13.5235L18.5414 9.80642C18.6707 9.69639 18.8384 9.64221 19.0076 9.6558C19.1768 9.6694 19.3336 9.74965 19.4437 9.8789C19.5537 10.0082 19.6079 10.1758 19.5943 10.345C19.5807 10.5142 19.5004 10.6711 19.3712 10.7811L14.5142 14.9146C14.4501 14.9692 14.3758 15.0106 14.2956 15.0364C14.2154 15.0622 14.1309 15.0719 14.0469 15.0649C13.9629 15.058 13.8812 15.0346 13.8063 14.996C13.7314 14.9574 13.6649 14.9044 13.6105 14.84L12.352 13.3495L8.21823 16.9539C8.1019 17.0557 7.95261 17.1117 7.79807 17.1117Z" fill="#202020"/>
</svg>
