<svg width="24" height="24" viewBox="0 0 24 24" fill="none" xmlns="http://www.w3.org/2000/svg">
<path d="M6.63605 20.2784C6.28274 20.2753 5.93571 20.1847 5.626 20.0146C5.31629 19.8446 5.05356 19.6004 4.86132 19.3039C4.66908 19.0075 4.55332 18.668 4.52439 18.3159C4.49547 17.9637 4.55428 17.6099 4.69557 17.2861L6.87157 12.3418C6.9189 12.234 6.94334 12.1177 6.94334 12C6.94334 11.8823 6.9189 11.766 6.87157 11.6582L4.69557 6.71392C4.51563 6.30506 4.4689 5.84996 4.56199 5.41307C4.65507 4.97619 4.88326 4.57966 5.21423 4.27967C5.54519 3.97967 5.96216 3.79142 6.40607 3.74157C6.84997 3.69172 7.29831 3.7828 7.68757 4.00192L18.5996 10.1459C18.9285 10.3312 19.2022 10.6006 19.3927 10.9265C19.5832 11.2524 19.6836 11.6231 19.6836 12.0006C19.6836 12.3781 19.5832 12.7489 19.3927 13.0748C19.2022 13.4007 18.9285 13.6701 18.5996 13.8554L7.68757 19.9994C7.36696 20.1814 7.00474 20.2775 6.63605 20.2784ZM6.64149 5.00256C6.43119 5.00506 6.22915 5.08478 6.07381 5.22656C5.85461 5.42528 5.68533 5.78432 5.86709 6.19712L8.04309 11.1411C8.16179 11.4114 8.22308 11.7035 8.22308 11.9987C8.22308 12.294 8.16179 12.586 8.04309 12.8563L5.86709 17.8003C5.68533 18.2131 5.85461 18.5722 6.07381 18.7709C6.29301 18.9696 6.66677 19.1027 7.05973 18.8813L17.9717 12.7373C18.1028 12.6635 18.212 12.5561 18.2879 12.4262C18.3638 12.2963 18.4038 12.1485 18.4038 11.9981C18.4038 11.8476 18.3638 11.6999 18.2879 11.57C18.212 11.4401 18.1028 11.3327 17.9717 11.2589L7.05973 5.11488C6.93245 5.0417 6.7883 5.00299 6.64149 5.00256Z" fill="#202020"/>
</svg>
