<svg width="24" height="24" viewBox="0 0 24 24" fill="none" xmlns="http://www.w3.org/2000/svg">
<path d="M18.1566 19.5872C17.8567 19.5865 17.5602 19.5231 17.2862 19.4013L12.3419 17.2253C12.2342 17.1779 12.1178 17.1535 12.0001 17.1535C11.8825 17.1535 11.7661 17.1779 11.6584 17.2253L6.71404 19.4013C6.30519 19.5812 5.85008 19.628 5.4132 19.5349C4.97631 19.4418 4.57978 19.2136 4.27979 18.8826C3.9798 18.5517 3.79154 18.1347 3.74169 17.6908C3.69184 17.2469 3.78292 16.7985 4.00204 16.4093L10.146 5.49728C10.3313 5.16835 10.6007 4.8946 10.9266 4.7041C11.2525 4.5136 11.6232 4.41321 12.0008 4.41321C12.3783 4.41321 12.749 4.5136 13.0749 4.7041C13.4008 4.8946 13.6702 5.16835 13.8555 5.49728L19.9995 16.4093C20.1806 16.7326 20.2744 17.0975 20.2717 17.4681C20.269 17.8387 20.1699 18.2023 19.9841 18.5229C19.7983 18.8436 19.5321 19.1103 19.2119 19.2969C18.8917 19.4836 18.5285 19.5836 18.1579 19.5872H18.1566ZM12.0001 15.872C12.2954 15.8719 12.5874 15.9333 12.8577 16.0522L17.8017 18.2282C18.2145 18.4099 18.5736 18.2406 18.7723 18.0214C18.971 17.8022 19.1041 17.4285 18.8827 17.0355L12.7387 6.12352C12.6649 5.99241 12.5575 5.88329 12.4276 5.80736C12.2977 5.73143 12.1499 5.69141 11.9995 5.69141C11.849 5.69141 11.7013 5.73143 11.5714 5.80736C11.4415 5.88329 11.3341 5.99241 11.2603 6.12352L5.11628 17.0355C4.89484 17.4285 5.02828 17.8035 5.22668 18.0214C5.42508 18.2394 5.78444 18.4099 6.19724 18.2282L11.1412 16.0522C11.4119 15.9331 11.7044 15.8718 12.0001 15.872Z" fill="#202020"/>
</svg>
