<svg width="24" height="24" viewBox="0 0 24 24" fill="none" xmlns="http://www.w3.org/2000/svg">
<path d="M11.728 20.2502C9.81934 20.2502 7.96977 19.5883 6.49441 18.3774C5.01905 17.1665 4.00919 15.4815 3.6369 13.6095C3.26461 11.7375 3.55291 9.79437 4.45269 8.11112C5.35247 6.42787 6.80806 5.10867 8.57144 4.37831C10.3348 3.64794 12.2969 3.5516 14.1233 4.10568C15.9498 4.65977 17.5276 5.83001 18.588 7.41701C19.6483 9.00401 20.1256 10.9096 19.9385 12.809C19.7514 14.7085 18.9115 16.4843 17.5619 17.8339C16.7975 18.6024 15.8883 19.2116 14.887 19.6264C13.8856 20.0411 12.8119 20.2532 11.728 20.2502ZM11.728 5.02976C7.88447 5.02976 4.75775 8.15648 4.75775 12C4.75775 15.8435 7.88447 18.9702 11.728 18.9702C15.5715 18.9702 18.6982 15.8435 18.6982 12C18.6982 8.15648 15.5715 5.02976 11.728 5.02976Z" fill="#202020"/>
<path d="M10.1373 10.8928C9.83265 10.8928 9.53486 10.8025 9.28157 10.6332C9.02829 10.464 8.83088 10.2234 8.71432 9.94195C8.59776 9.6605 8.56728 9.35081 8.62673 9.05204C8.68619 8.75327 8.8329 8.47884 9.04833 8.26346C9.26376 8.04808 9.53822 7.90142 9.837 7.84202C10.1358 7.78263 10.4455 7.81318 10.7269 7.9298C11.0083 8.04642 11.2488 8.24388 11.418 8.4972C11.5872 8.75052 11.6775 9.04832 11.6774 9.35295C11.6769 9.76124 11.5145 10.1527 11.2258 10.4413C10.937 10.73 10.5456 10.8924 10.1373 10.8928ZM10.1373 9.09279C10.0858 9.09279 10.0355 9.10805 9.99274 9.13663C9.94995 9.16522 9.91661 9.20585 9.89692 9.25339C9.87723 9.30093 9.87208 9.35324 9.88211 9.40371C9.89215 9.45417 9.91693 9.50053 9.95331 9.53691C9.9897 9.5733 10.0361 9.59807 10.0865 9.60811C10.137 9.61815 10.1893 9.613 10.2368 9.59331C10.2844 9.57362 10.325 9.54027 10.3536 9.49749C10.3822 9.4547 10.3974 9.40441 10.3974 9.35295C10.3974 9.28395 10.37 9.21778 10.3212 9.16899C10.2724 9.1202 10.2063 9.09279 10.1373 9.09279ZM14.1613 15.904C13.8566 15.9041 13.5588 15.8138 13.3055 15.6446C13.0522 15.4754 12.8547 15.2349 12.7381 14.9534C12.6215 14.672 12.591 14.3623 12.6503 14.0636C12.7097 13.7648 12.8564 13.4903 13.0718 13.2749C13.2872 13.0595 13.5616 12.9127 13.8604 12.8533C14.1591 12.7938 14.4688 12.8243 14.7503 12.9409C15.0317 13.0574 15.2723 13.2548 15.4415 13.5081C15.6108 13.7614 15.7011 14.0592 15.7011 14.3638C15.7007 14.7721 15.5383 15.1636 15.2497 15.4523C14.961 15.741 14.5696 15.9035 14.1613 15.904ZM14.1613 14.104C14.1098 14.1039 14.0594 14.1191 14.0166 14.1477C13.9738 14.1763 13.9404 14.2169 13.9207 14.2644C13.9009 14.312 13.8957 14.3643 13.9058 14.4148C13.9158 14.4653 13.9406 14.5117 13.977 14.5481C14.0134 14.5845 14.0598 14.6093 14.1103 14.6193C14.1608 14.6294 14.2131 14.6242 14.2607 14.6044C14.3082 14.5847 14.3488 14.5513 14.3774 14.5085C14.406 14.4657 14.4212 14.4153 14.4211 14.3638C14.4208 14.2951 14.3933 14.2293 14.3446 14.1808C14.2959 14.1323 14.23 14.105 14.1613 14.105V14.104ZM8.93855 15.377C8.81278 15.3769 8.68981 15.3397 8.58502 15.2702C8.48022 15.2006 8.39824 15.1018 8.34932 14.9859C8.3004 14.87 8.2867 14.7423 8.30994 14.6187C8.33318 14.4951 8.39233 14.3811 8.47999 14.2909L14.0656 8.54623C14.1841 8.42453 14.3461 8.35489 14.516 8.35264C14.6859 8.35039 14.8497 8.41571 14.9714 8.53423C15.0931 8.65275 15.1627 8.81476 15.1649 8.98463C15.1672 9.15449 15.1019 9.31829 14.9834 9.43999L9.39775 15.183C9.33808 15.2444 9.26669 15.2932 9.18781 15.3265C9.10893 15.3598 9.02418 15.377 8.93855 15.377Z" fill="#202020"/>
</svg>
