<svg width="24" height="24" viewBox="0 0 24 24" fill="none" xmlns="http://www.w3.org/2000/svg">
<path d="M13.9027 19.7267C13.3165 19.7267 12.7683 19.4423 12.415 18.9267C12.3647 18.8532 12.2972 18.7931 12.2184 18.7515C12.1396 18.71 12.0518 18.6882 11.9627 18.6882C11.8736 18.6882 11.7859 18.71 11.707 18.7515C11.6282 18.7931 11.5607 18.8532 11.5104 18.9267C11.041 19.6122 10.2272 19.889 9.43712 19.6307C8.64704 19.3725 8.15136 18.6707 8.1744 17.8413C8.17641 17.7525 8.15681 17.6645 8.11728 17.5849C8.07775 17.5053 8.01948 17.4365 7.94748 17.3845C7.87548 17.3324 7.79191 17.2986 7.70396 17.286C7.616 17.2734 7.5263 17.2823 7.44256 17.312C6.65984 17.5904 5.83872 17.336 5.3504 16.664C4.86208 15.992 4.87392 15.1325 5.38048 14.4743C5.4348 14.4037 5.47111 14.3209 5.48627 14.2331C5.50142 14.1453 5.49496 14.0552 5.46745 13.9704C5.43995 13.8857 5.39222 13.809 5.32839 13.7468C5.26456 13.6847 5.18656 13.639 5.10112 13.6138C4.30432 13.3789 3.78912 12.6906 3.78912 11.8599C3.78912 11.0291 4.304 10.3408 5.10112 10.1059C5.18656 10.0807 5.26456 10.0351 5.32839 9.97291C5.39222 9.91077 5.43995 9.83402 5.46745 9.74929C5.49496 9.66456 5.50142 9.57441 5.48627 9.48663C5.47111 9.39884 5.4348 9.31607 5.38048 9.24547C4.87392 8.58723 4.86208 7.72771 5.3504 7.05571C5.83872 6.38371 6.65984 6.12771 7.44256 6.40771C7.52651 6.43752 7.61645 6.44644 7.70461 6.43369C7.79277 6.42095 7.87651 6.38692 7.94857 6.33455C8.02063 6.28218 8.07885 6.21305 8.1182 6.13313C8.15755 6.05321 8.17684 5.96491 8.1744 5.87587C8.15136 5.04387 8.64704 4.34307 9.43712 4.08643C10.2272 3.82979 11.041 4.10659 11.5104 4.79043C11.5607 4.86395 11.6282 4.92409 11.707 4.96565C11.7859 5.00721 11.8736 5.02893 11.9627 5.02893C12.0518 5.02893 12.1396 5.00721 12.2184 4.96565C12.2972 4.92409 12.3647 4.86395 12.415 4.79043C12.8848 4.10499 13.6986 3.82819 14.4886 4.08643C15.2787 4.34467 15.7741 5.04643 15.751 5.87587C15.7486 5.96495 15.7679 6.05329 15.8072 6.13325C15.8466 6.2132 15.9049 6.28236 15.977 6.33473C16.0491 6.38711 16.1329 6.42112 16.2211 6.43384C16.3093 6.44656 16.3992 6.43759 16.4832 6.40771C17.2659 6.12931 18.087 6.38371 18.5754 7.05571C19.0637 7.72771 19.0515 8.58723 18.5434 9.24547C18.489 9.31607 18.4526 9.39886 18.4374 9.48669C18.4223 9.57451 18.4287 9.66471 18.4563 9.74947C18.4838 9.83422 18.5316 9.91099 18.5955 9.97311C18.6594 10.0352 18.7375 10.0808 18.823 10.1059C19.6198 10.3408 20.135 11.0291 20.135 11.8599C20.135 12.6906 19.6202 13.3789 18.823 13.6138C18.7375 13.6389 18.6594 13.6845 18.5955 13.7466C18.5316 13.8087 18.4838 13.8855 18.4563 13.9703C18.4287 14.055 18.4223 14.1452 18.4374 14.233C18.4526 14.3209 18.489 14.4037 18.5434 14.4743C19.0499 15.1325 19.0618 15.992 18.5754 16.664C18.089 17.336 17.2659 17.5895 16.4832 17.312C16.3992 17.2821 16.3093 17.2732 16.2211 17.2859C16.1329 17.2986 16.0491 17.3326 15.977 17.385C15.9049 17.4374 15.8466 17.5065 15.8072 17.5865C15.7679 17.6664 15.7486 17.7548 15.751 17.8439C15.7741 18.6743 15.2784 19.3767 14.4886 19.6333C14.2994 19.6949 14.1017 19.7264 13.9027 19.7267ZM11.9629 17.408C12.2601 17.4078 12.5529 17.4802 12.8159 17.6187C13.0789 17.7573 13.3041 17.9579 13.472 18.2032C13.687 18.5171 14.0026 18.4445 14.0941 18.4151C14.1856 18.3856 14.4832 18.2586 14.4726 17.8781C14.4645 17.5811 14.5287 17.2866 14.66 17.0201C14.7912 16.7536 14.9854 16.523 15.2257 16.3484C15.4661 16.1738 15.7453 16.0604 16.0394 16.018C16.3334 15.9755 16.6334 16.0054 16.9133 16.105C17.2717 16.233 17.4842 15.9885 17.5408 15.9107C17.5974 15.833 17.7648 15.5555 17.5315 15.2538C17.3501 15.0184 17.2288 14.7422 17.1782 14.4494C17.1276 14.1565 17.1491 13.8557 17.241 13.573C17.3328 13.2903 17.4922 13.0343 17.7053 12.8271C17.9184 12.62 18.1789 12.4679 18.464 12.384C18.8291 12.2765 18.8576 11.9543 18.8576 11.8579C18.8576 11.7616 18.8291 11.4394 18.464 11.3319C18.179 11.2479 17.9188 11.0957 17.7059 10.8886C17.4929 10.6814 17.3337 10.4255 17.2419 10.1429C17.1501 9.8604 17.1285 9.55974 17.179 9.26698C17.2295 8.97422 17.3506 8.69818 17.5318 8.46275C17.7642 8.16131 17.5958 7.88387 17.5411 7.80611C17.4864 7.72835 17.272 7.48419 16.9136 7.61187C16.6337 7.71145 16.3337 7.74132 16.0396 7.6989C15.7456 7.65647 15.4663 7.54302 15.2259 7.36837C14.9855 7.19371 14.7914 6.96312 14.6602 6.69654C14.529 6.42996 14.4647 6.13543 14.473 5.83843C14.4835 5.45827 14.185 5.33155 14.0944 5.30179C14.0038 5.27203 13.6874 5.19939 13.4723 5.51331C13.3044 5.75843 13.0794 5.95894 12.8165 6.09749C12.5537 6.23603 12.2611 6.30844 11.964 6.30844C11.6669 6.30844 11.3743 6.23603 11.1115 6.09749C10.8487 5.95894 10.6236 5.75843 10.4557 5.51331C10.2406 5.19939 9.92544 5.27203 9.83392 5.30179C9.7424 5.33155 9.4448 5.45827 9.45504 5.83843C9.46327 6.13539 9.39901 6.42988 9.26783 6.69642C9.13666 6.96297 8.94251 7.19354 8.70219 7.36818C8.46188 7.54283 8.18262 7.65629 7.8886 7.69875C7.59457 7.74121 7.29463 7.71139 7.01472 7.61187C6.656 7.48387 6.44384 7.72835 6.3872 7.80611C6.33056 7.88387 6.1632 8.16131 6.39616 8.46275C6.57744 8.69815 6.6986 8.9742 6.74917 9.26698C6.79974 9.55976 6.77819 9.86045 6.68638 10.143C6.59458 10.4256 6.43528 10.6815 6.22229 10.8887C6.00929 11.0958 5.74902 11.248 5.464 11.3319C5.09888 11.4394 5.07072 11.7616 5.07072 11.8579C5.07072 11.9543 5.09888 12.2765 5.464 12.384C5.74902 12.4679 6.00929 12.62 6.22229 12.8271C6.43529 13.0342 6.59459 13.2901 6.6864 13.5727C6.77821 13.8552 6.79976 14.1559 6.74919 14.4487C6.69862 14.7414 6.57744 15.0174 6.39616 15.2528C6.16416 15.5546 6.33056 15.832 6.3872 15.9098C6.44384 15.9875 6.656 16.2317 7.01472 16.104C7.29461 16.0045 7.59452 15.9747 7.88852 16.0171C8.18252 16.0596 8.46175 16.173 8.70206 16.3476C8.94237 16.5222 9.13652 16.7528 9.26772 17.0193C9.39892 17.2858 9.46321 17.5802 9.45504 17.8771C9.4448 18.2576 9.74304 18.3843 9.83392 18.4141C9.9248 18.4439 10.2406 18.5162 10.4557 18.2023C10.6236 17.9575 10.8485 17.7572 11.1111 17.6188C11.3737 17.4805 11.6661 17.4081 11.9629 17.408Z" fill="#202020"/>
<path d="M10.1002 10.8928C9.79554 10.8928 9.49775 10.8025 9.24447 10.6332C8.99118 10.464 8.79377 10.2234 8.67721 9.94198C8.56065 9.66053 8.53017 9.35084 8.58962 9.05207C8.64908 8.7533 8.79579 8.47887 9.01122 8.26349C9.22665 8.04811 9.50111 7.90145 9.79989 7.84206C10.0987 7.78266 10.4084 7.81321 10.6898 7.92983C10.9712 8.04645 11.2117 8.24391 11.3809 8.49723C11.5501 8.75055 11.6404 9.04835 11.6403 9.35298C11.6398 9.76127 11.4774 10.1527 11.1886 10.4414C10.8999 10.73 10.5085 10.8924 10.1002 10.8928ZM10.1002 9.09282C10.0487 9.09282 9.99841 9.10808 9.95563 9.13667C9.91285 9.16525 9.8795 9.20588 9.85981 9.25342C9.84012 9.30096 9.83497 9.35327 9.845 9.40374C9.85504 9.4542 9.87982 9.50056 9.9162 9.53694C9.95259 9.57333 9.99894 9.5981 10.0494 9.60814C10.0999 9.61818 10.1522 9.61303 10.1997 9.59334C10.2473 9.57365 10.2879 9.5403 10.3165 9.49752C10.3451 9.45473 10.3603 9.40444 10.3603 9.35298C10.3602 9.28401 10.3328 9.21788 10.284 9.16911C10.2353 9.12034 10.1691 9.09291 10.1002 9.09282ZM14.1238 15.904C13.8192 15.904 13.5214 15.8137 13.2681 15.6444C13.0148 15.4751 12.8174 15.2345 12.7008 14.953C12.5843 14.6715 12.5538 14.3618 12.6133 14.063C12.6729 13.7642 12.8196 13.4898 13.0351 13.2745C13.2506 13.0591 13.5251 12.9125 13.824 12.8532C14.1228 12.7939 14.4325 12.8245 14.7139 12.9412C14.9953 13.0579 15.2358 13.2555 15.4049 13.5089C15.574 13.7623 15.6642 14.0602 15.664 14.3648C15.6633 14.773 15.5008 15.1643 15.2121 15.4528C14.9234 15.7413 14.532 15.9036 14.1238 15.904ZM14.1238 14.104C14.0724 14.104 14.0221 14.1193 13.9793 14.1479C13.9365 14.1765 13.9031 14.2171 13.8835 14.2647C13.8638 14.3123 13.8586 14.3646 13.8687 14.4151C13.8788 14.4655 13.9036 14.5119 13.94 14.5483C13.9764 14.5846 14.0228 14.6094 14.0733 14.6194C14.1238 14.6294 14.1761 14.6242 14.2236 14.6044C14.2712 14.5847 14.3118 14.5513 14.3403 14.5085C14.3689 14.4657 14.3841 14.4153 14.384 14.3639C14.3837 14.2951 14.3561 14.2292 14.3074 14.1807C14.2586 14.1322 14.1926 14.105 14.1238 14.105V14.104ZM8.90145 15.377C8.77567 15.3769 8.6527 15.3398 8.54791 15.2702C8.44311 15.2007 8.36113 15.1018 8.31221 14.9859C8.26329 14.87 8.24959 14.7423 8.27283 14.6187C8.29607 14.4951 8.35522 14.3811 8.44289 14.2909L14.0285 8.54626C14.147 8.4246 14.309 8.355 14.4788 8.35278C14.6487 8.35056 14.8124 8.4159 14.9341 8.53442C15.0557 8.65294 15.1253 8.81494 15.1276 8.98477C15.1298 9.1546 15.0644 9.31836 14.9459 9.44002L9.36033 15.1831C9.30069 15.2444 9.22935 15.2932 9.15053 15.3265C9.07171 15.3598 8.98701 15.377 8.90145 15.377Z" fill="#202020"/>
</svg>
