<svg width="24" height="24" viewBox="0 0 24 24" fill="none" xmlns="http://www.w3.org/2000/svg">
<path d="M17.8321 15.4784H15.3255C15.1558 15.4784 14.993 15.411 14.873 15.2909C14.753 15.1709 14.6855 15.0081 14.6855 14.8384V5.056C14.6855 4.88626 14.753 4.72348 14.873 4.60345C14.993 4.48343 15.1558 4.416 15.3255 4.416H17.8321C18.3478 4.41676 18.8421 4.62209 19.2066 4.98691C19.571 5.35173 19.7759 5.84624 19.7761 6.36192V13.5338C19.7755 14.0492 19.5705 14.5434 19.2061 14.9079C18.8417 15.2725 18.3476 15.4776 17.8321 15.4784ZM15.9655 14.1984H17.8321C18.0082 14.1981 18.177 14.1279 18.3015 14.0033C18.4259 13.8787 18.4959 13.7099 18.4961 13.5338V6.36192C18.4963 6.18559 18.4264 6.0164 18.3019 5.89153C18.1774 5.76667 18.0084 5.69634 17.8321 5.696H15.9655V14.1984Z" fill="#202020"/>
<path d="M11.2753 19.584C10.9409 19.5838 10.6174 19.4648 10.3626 19.2483C9.82877 18.7981 9.46333 18.1802 9.32594 17.4955C9.18854 16.8108 9.28732 16.0997 9.60613 15.4784H6.66405C6.3181 15.4784 5.97611 15.4048 5.66076 15.2626C5.34542 15.1203 5.06393 14.9126 4.83497 14.6533C4.60601 14.3939 4.43481 14.0889 4.33274 13.7583C4.23067 13.4278 4.20006 13.0793 4.24293 12.736L4.85413 7.86432C4.97431 6.91296 5.43711 6.03801 6.1559 5.40327C6.87468 4.76854 7.80017 4.41755 8.75909 4.416H15.3255C15.4952 4.416 15.658 4.48343 15.778 4.60345C15.8981 4.72348 15.9655 4.88626 15.9655 5.056V14.8384C15.9654 14.9968 15.9066 15.1496 15.8004 15.2672L12.3242 19.1162C12.192 19.2634 12.0303 19.3812 11.8495 19.4618C11.6688 19.5424 11.4731 19.584 11.2753 19.584ZM8.75909 5.696C8.11236 5.69699 7.48813 5.93355 7.00317 6.36143C6.51821 6.78932 6.20574 7.37922 6.12421 8.0208L5.51301 12.8925C5.49248 13.0558 5.50696 13.2217 5.55548 13.379C5.604 13.5363 5.68546 13.6815 5.79443 13.8049C5.9034 13.9283 6.03739 14.0271 6.18749 14.0948C6.3376 14.1624 6.50038 14.1973 6.66501 14.1971H10.8378C10.9571 14.1971 11.0739 14.2304 11.1753 14.2932C11.2766 14.3561 11.3583 14.446 11.4113 14.5528C11.4643 14.6597 11.4863 14.7792 11.475 14.8979C11.4637 15.0166 11.4195 15.1297 11.3473 15.2246L10.9153 15.7926C10.6335 16.1618 10.5047 16.6253 10.5554 17.0869C10.6062 17.5485 10.8327 17.9729 11.1879 18.272C11.2145 18.2946 11.2489 18.3059 11.2838 18.3035C11.3186 18.3011 11.3511 18.2852 11.3745 18.2592L14.6855 14.592V5.696H8.75909Z" fill="#202020"/>
</svg>
