<svg width="24" height="24" viewBox="0 0 24 24" fill="none" xmlns="http://www.w3.org/2000/svg">
<path d="M17.3613 16.1919H15.5952C15.4255 16.1919 15.2627 16.1245 15.1427 16.0045C15.0226 15.8845 14.9552 15.7217 14.9552 15.5519C14.9552 15.3822 15.0226 15.2194 15.1427 15.0994C15.2627 14.9794 15.4255 14.9119 15.5952 14.9119H17.3613C17.7061 14.9116 18.0367 14.7745 18.2805 14.5307C18.5243 14.2869 18.6614 13.9563 18.6618 13.6115V8.75674L14.9562 5.29563H10.3453C10.0005 5.29596 9.66989 5.43309 9.42608 5.6769C9.18226 5.92071 9.04514 6.2513 9.0448 6.59611V8.25595C9.0448 8.42568 8.97737 8.58847 8.85735 8.70849C8.73733 8.82852 8.57454 8.89595 8.4048 8.89595C8.23506 8.89595 8.07228 8.82852 7.95225 8.70849C7.83223 8.58847 7.7648 8.42568 7.7648 8.25595V6.59611C7.76548 5.91193 8.03757 5.25597 8.52135 4.77218C9.00514 4.28839 9.6611 4.0163 10.3453 4.01563H15.2093C15.3714 4.01561 15.5275 4.07714 15.6461 4.18778L19.7386 8.01114C19.8028 8.07114 19.854 8.14373 19.889 8.22439C19.9239 8.30504 19.9419 8.39204 19.9418 8.47995V13.6121C19.9407 14.2961 19.6685 14.9518 19.1848 15.4354C18.7011 15.919 18.0453 16.1911 17.3613 16.1919Z" fill="#202020"/>
<path d="M19.3018 9.08795H16.352C15.8796 9.08736 15.4268 8.89945 15.0928 8.56543C14.7587 8.23142 14.5708 7.77857 14.5702 7.3062V4.65564C14.5703 4.53115 14.6066 4.40938 14.6748 4.30523C14.7429 4.20107 14.84 4.11906 14.9541 4.06924C15.0682 4.01942 15.1943 4.00395 15.317 4.02472C15.4398 4.04549 15.5538 4.10161 15.6451 4.1862L19.7366 7.97787C19.8312 8.06527 19.8973 8.17917 19.9261 8.30468C19.9549 8.4302 19.9452 8.56149 19.8982 8.6814C19.8513 8.80131 19.7692 8.90426 19.6628 8.9768C19.5564 9.04933 19.4305 9.08807 19.3018 9.08795ZM15.8486 6.12156V7.30555C15.8486 7.37161 15.8617 7.43702 15.887 7.49804C15.9123 7.55905 15.9494 7.61448 15.9961 7.66115C16.0429 7.70781 16.0984 7.7448 16.1594 7.76999C16.2205 7.79518 16.2859 7.80808 16.352 7.80795H17.6707L15.8486 6.12156ZM13.6547 19.9843H6.63872C5.95457 19.9835 5.29866 19.7114 4.81489 19.2276C4.33112 18.7439 4.05901 18.0879 4.05824 17.4038V10.3878C4.05926 9.70378 4.33148 9.04808 4.81521 8.56447C5.29894 8.08086 5.95471 7.8088 6.63872 7.80795H11.5027C11.6649 7.80802 11.821 7.86967 11.9395 7.98043L16.032 11.8028C16.0961 11.8627 16.1473 11.9352 16.1822 12.0156C16.2172 12.0961 16.2352 12.1829 16.2352 12.2707V17.4038C16.2345 18.088 15.9624 18.7439 15.4786 19.2277C14.9949 19.7115 14.3389 19.9836 13.6547 19.9843ZM6.63872 9.08795C6.29392 9.08829 5.96333 9.22542 5.71952 9.46923C5.47571 9.71305 5.33858 10.0436 5.33824 10.3884V17.4038C5.33858 17.7486 5.47571 18.0792 5.71952 18.323C5.96333 18.5668 6.29392 18.7039 6.63872 18.7043H13.6547C13.9995 18.7039 14.3301 18.5668 14.5739 18.323C14.8177 18.0792 14.9549 17.7486 14.9552 17.4038V12.5484L11.2499 9.08795H6.63872Z" fill="#202020"/>
<path d="M15.5952 12.879H12.6442C12.1718 12.8785 11.719 12.6906 11.3849 12.3567C11.0509 12.0227 10.863 11.5699 10.8624 11.0975V8.44794C10.8625 8.32365 10.8988 8.20209 10.9669 8.0981C11.035 7.9941 11.1318 7.91218 11.2457 7.86233C11.3595 7.81248 11.4855 7.79686 11.608 7.81737C11.7306 7.83789 11.8446 7.89365 11.936 7.97786L16.0301 11.7695C16.1244 11.857 16.1903 11.9708 16.219 12.0962C16.2476 12.2216 16.2379 12.3528 16.1909 12.4725C16.144 12.5923 16.062 12.6952 15.9558 12.7677C15.8495 12.8402 15.7238 12.879 15.5952 12.879ZM12.1424 9.91258V11.0966C12.1426 11.2296 12.1955 11.3571 12.2896 11.4511C12.3836 11.5451 12.5112 11.5979 12.6442 11.598H13.9626L12.1424 9.91258Z" fill="#202020"/>
</svg>
