<svg width="24" height="24" viewBox="0 0 24 24" fill="none" xmlns="http://www.w3.org/2000/svg">
<path d="M17.032 20.4556H6.968C6.06021 20.4546 5.18989 20.0935 4.54799 19.4516C3.90608 18.8097 3.54502 17.9394 3.544 17.0316V6.96795C3.54502 6.06016 3.90608 5.18984 4.54799 4.54793C5.18989 3.90603 6.06021 3.54496 6.968 3.54395H13.944C14.1063 3.54393 14.2626 3.60558 14.3811 3.71643L20.2525 9.2009C20.3166 9.26079 20.3677 9.33323 20.4027 9.41371C20.4377 9.49419 20.4557 9.581 20.4557 9.66874V17.0319C20.4557 17.94 20.0949 18.811 19.4528 19.4531C18.8107 20.0952 17.9398 20.4559 17.0317 20.4559L17.032 20.4556ZM6.968 4.82427C6.39953 4.82477 5.85449 5.05082 5.45252 5.45279C5.05056 5.85476 4.82451 6.3998 4.824 6.96826V17.0323C4.82451 17.6007 5.05056 18.1458 5.45252 18.5477C5.85449 18.9497 6.39953 19.1758 6.968 19.1763H17.032C17.3136 19.1763 17.5923 19.1208 17.8525 19.0131C18.1126 18.9053 18.3489 18.7474 18.548 18.5483C18.7471 18.3492 18.905 18.1129 19.0128 17.8527C19.1205 17.5926 19.176 17.3138 19.176 17.0323V9.9465L13.6922 4.82427H6.968Z" fill="#202020"/>
<path d="M19.8157 10.2637H15.5821C14.9782 10.2631 14.3992 10.0229 13.9722 9.59584C13.5452 9.16883 13.305 8.58987 13.3043 7.98597V4.18437C13.3043 4.05983 13.3406 3.93798 13.4088 3.83376C13.477 3.72955 13.5741 3.64749 13.6882 3.59766C13.8024 3.54782 13.9286 3.53237 14.0514 3.55321C14.1742 3.57404 14.2882 3.63024 14.3795 3.71493L20.2506 9.15493C20.345 9.24235 20.411 9.35622 20.4397 9.48168C20.4685 9.60714 20.4587 9.73836 20.4118 9.8582C20.3648 9.97804 20.2828 10.0809 20.1765 10.1535C20.0701 10.226 19.9444 10.2647 19.8157 10.2647V10.2637ZM14.5843 5.64997V7.98597C14.5847 8.25049 14.6899 8.50408 14.8769 8.69112C15.064 8.87817 15.3176 8.98339 15.5821 8.98373H18.183L14.5843 5.64997ZM8.31456 16.7377C8.15672 16.7376 8.00447 16.6793 7.88704 16.5738L6.17248 15.0346C6.10845 14.9789 6.05614 14.911 6.01861 14.8349C5.98107 14.7587 5.95905 14.6759 5.95383 14.5912C5.94861 14.5065 5.9603 14.4215 5.98821 14.3414C6.01612 14.2612 6.0597 14.1874 6.1164 14.1243C6.17311 14.0611 6.24182 14.0099 6.31852 13.9735C6.39522 13.9371 6.47838 13.9164 6.56318 13.9125C6.64797 13.9086 6.73269 13.9216 6.8124 13.9508C6.89212 13.9799 6.96525 14.0246 7.02752 14.0823L8.34464 15.2641L9.72064 14.1985C9.85482 14.0944 10.0248 14.048 10.1932 14.0693C10.3617 14.0907 10.5147 14.178 10.6187 14.3122C10.7227 14.4464 10.7692 14.6164 10.7478 14.7848C10.7265 14.9532 10.6391 15.1063 10.505 15.2103L8.70784 16.6033C8.59535 16.6906 8.45695 16.7379 8.31456 16.7377Z" fill="#202020"/>
<path d="M8.31456 16.7377C8.14482 16.7377 7.98204 16.6702 7.86201 16.5502C7.74199 16.4302 7.67456 16.2674 7.67456 16.0977V11.2423C7.67456 11.0726 7.74199 10.9098 7.86201 10.7897C7.98204 10.6697 8.14482 10.6023 8.31456 10.6023C8.4843 10.6023 8.64709 10.6697 8.76711 10.7897C8.88713 10.9098 8.95456 11.0726 8.95456 11.2423V16.0977C8.95456 16.2674 8.88713 16.4302 8.76711 16.5502C8.64709 16.6702 8.4843 16.7377 8.31456 16.7377Z" fill="#202020"/>
</svg>
