<svg width="24" height="24" viewBox="0 0 24 24" fill="none" xmlns="http://www.w3.org/2000/svg">
<path d="M17.032 20.4556H6.96801C6.06022 20.4546 5.1899 20.0935 4.548 19.4516C3.90609 18.8097 3.54502 17.9394 3.54401 17.0316V6.96795C3.54502 6.06016 3.90609 5.18984 4.548 4.54793C5.1899 3.90603 6.06022 3.54496 6.96801 3.54395H13.944C14.1063 3.54393 14.2626 3.60558 14.3811 3.71643L20.2525 9.2009C20.3166 9.26079 20.3678 9.33323 20.4027 9.41371C20.4377 9.49419 20.4557 9.581 20.4557 9.66874V17.0319C20.4557 17.94 20.0949 18.811 19.4528 19.4531C18.8107 20.0952 17.9398 20.4559 17.0317 20.4559L17.032 20.4556ZM6.96801 4.82427C6.39954 4.82477 5.8545 5.05082 5.45253 5.45279C5.05056 5.85476 4.82451 6.3998 4.82401 6.96826V17.0323C4.82451 17.6007 5.05056 18.1458 5.45253 18.5477C5.8545 18.9497 6.39954 19.1758 6.96801 19.1763H17.032C17.3136 19.1763 17.5924 19.1208 17.8525 19.0131C18.1126 18.9053 18.349 18.7474 18.548 18.5483C18.7471 18.3492 18.9051 18.1129 19.0128 17.8527C19.1205 17.5926 19.176 17.3138 19.176 17.0323V9.9465L13.6922 4.82427H6.96801Z" fill="#202020"/>
<path d="M19.8157 10.2637H15.5821C14.9782 10.2631 14.3992 10.0229 13.9722 9.59585C13.5452 9.16883 13.305 8.58987 13.3043 7.98597V4.18437C13.3043 4.05983 13.3406 3.93798 13.4088 3.83376C13.477 3.72955 13.5741 3.64749 13.6882 3.59766C13.8024 3.54782 13.9286 3.53237 14.0514 3.55321C14.1742 3.57404 14.2882 3.63024 14.3795 3.71493L20.2506 9.15493C20.345 9.24235 20.411 9.35622 20.4397 9.48168C20.4685 9.60714 20.4587 9.73836 20.4118 9.8582C20.3648 9.97804 20.2828 10.0809 20.1765 10.1535C20.0701 10.226 19.9444 10.2647 19.8157 10.2647V10.2637ZM14.5843 5.64997V7.98597C14.5847 8.25049 14.6899 8.50408 14.8769 8.69112C15.064 8.87817 15.3176 8.9834 15.5821 8.98373H18.183L14.5843 5.64997ZM13.104 14.3313H7.03999C6.87026 14.3313 6.70747 14.2638 6.58745 14.1438C6.46742 14.0238 6.39999 13.861 6.39999 13.6913C6.39999 13.5215 6.46742 13.3587 6.58745 13.2387C6.70747 13.1187 6.87026 13.0513 7.03999 13.0513H13.104C13.2737 13.0513 13.4365 13.1187 13.5565 13.2387C13.6766 13.3587 13.744 13.5215 13.744 13.6913C13.744 13.861 13.6766 14.0238 13.5565 14.1438C13.4365 14.2638 13.2737 14.3313 13.104 14.3313ZM11.2253 11.6884H7.03999C6.87026 11.6884 6.70747 11.6209 6.58745 11.5009C6.46742 11.3809 6.39999 11.2181 6.39999 11.0484C6.39999 10.8786 6.46742 10.7158 6.58745 10.5958C6.70747 10.4758 6.87026 10.4084 7.03999 10.4084H11.2253C11.395 10.4084 11.5578 10.4758 11.6778 10.5958C11.7978 10.7158 11.8653 10.8786 11.8653 11.0484C11.8653 11.2181 11.7978 11.3809 11.6778 11.5009C11.5578 11.6209 11.395 11.6884 11.2253 11.6884Z" fill="#202020"/>
</svg>
