<svg width="24" height="24" viewBox="0 0 24 24" fill="none" xmlns="http://www.w3.org/2000/svg">
<path d="M17.032 20.4556H6.968C6.06021 20.4546 5.18989 20.0935 4.54799 19.4516C3.90608 18.8097 3.54502 17.9394 3.544 17.0316V6.96795C3.54502 6.06016 3.90608 5.18984 4.54799 4.54793C5.18989 3.90603 6.06021 3.54496 6.968 3.54395H13.944C14.1063 3.54393 14.2626 3.60558 14.3811 3.71643L20.2525 9.2009C20.3166 9.26079 20.3677 9.33323 20.4027 9.41371C20.4377 9.49419 20.4557 9.581 20.4557 9.66874V17.0319C20.4557 17.94 20.0949 18.811 19.4528 19.4531C18.8107 20.0952 17.9398 20.4559 17.0317 20.4559L17.032 20.4556ZM6.968 4.82427C6.39953 4.82477 5.85449 5.05082 5.45252 5.45279C5.05056 5.85476 4.82451 6.3998 4.824 6.96826V17.0323C4.82451 17.6007 5.05056 18.1458 5.45252 18.5477C5.85449 18.9497 6.39953 19.1758 6.968 19.1763H17.032C17.3136 19.1763 17.5923 19.1208 17.8525 19.0131C18.1126 18.9053 18.3489 18.7474 18.548 18.5483C18.7471 18.3492 18.905 18.1129 19.0128 17.8527C19.1205 17.5926 19.176 17.3138 19.176 17.0323V9.9465L13.6922 4.82427H6.968Z" fill="#202020"/>
<path d="M19.8157 10.2637H15.5821C14.9782 10.2631 14.3992 10.0229 13.9722 9.59585C13.5452 9.16883 13.305 8.58987 13.3043 7.98597V4.18437C13.3043 4.05983 13.3406 3.93798 13.4088 3.83376C13.477 3.72955 13.5741 3.64749 13.6882 3.59766C13.8024 3.54782 13.9286 3.53237 14.0514 3.55321C14.1742 3.57404 14.2882 3.63024 14.3795 3.71493L20.2506 9.15493C20.345 9.24235 20.411 9.35622 20.4397 9.48168C20.4685 9.60714 20.4587 9.73836 20.4118 9.8582C20.3648 9.97804 20.2828 10.0809 20.1765 10.1535C20.0701 10.226 19.9444 10.2647 19.8157 10.2647V10.2637ZM14.5843 5.64997V7.98597C14.5847 8.25049 14.6899 8.50408 14.8769 8.69112C15.064 8.87817 15.3176 8.9834 15.5821 8.98373H18.183L14.5843 5.64997ZM9.536 17.4644C9.44735 17.4643 9.35968 17.4459 9.27854 17.4102C9.1974 17.3745 9.12456 17.3223 9.06464 17.257L6.83168 14.825C6.73129 14.7157 6.67202 14.5749 6.66402 14.4266C6.65603 14.2784 6.69979 14.132 6.78784 14.0125L7.61664 12.8874C7.6761 12.8067 7.75371 12.741 7.8432 12.6958C7.93269 12.6505 8.03156 12.627 8.13184 12.6269H10.848C10.9443 12.6269 11.0395 12.6487 11.1262 12.6906C11.213 12.7325 11.2892 12.7934 11.3491 12.8689L12.192 13.93C12.2846 14.0467 12.3337 14.192 12.3306 14.341C12.3276 14.4899 12.2727 14.6332 12.1754 14.746L10.0221 17.242C9.96309 17.3103 9.89031 17.3654 9.80852 17.4036C9.72674 17.4418 9.63779 17.4623 9.54752 17.4637L9.536 17.4644ZM8.13088 14.3473L9.52096 15.8615L10.8586 14.3111L10.5386 13.9069H8.45664L8.13088 14.3473Z" fill="#202020"/>
</svg>
