<svg width="24" height="24" viewBox="0 0 24 24" fill="none" xmlns="http://www.w3.org/2000/svg">
<path d="M17.032 20.4556H6.96801C6.06022 20.4546 5.1899 20.0935 4.548 19.4516C3.90609 18.8097 3.54502 17.9394 3.54401 17.0316V6.96795C3.54502 6.06016 3.90609 5.18984 4.548 4.54793C5.1899 3.90603 6.06022 3.54496 6.96801 3.54395H17.032C17.9398 3.54496 18.8101 3.90603 19.452 4.54793C20.0939 5.18984 20.455 6.06016 20.456 6.96795V17.0319C20.4549 17.9397 20.0938 18.8099 19.4519 19.4517C18.81 20.0936 17.9397 20.4546 17.032 20.4556ZM6.96801 4.82427C6.39954 4.82477 5.8545 5.05082 5.45253 5.45279C5.05056 5.85476 4.82451 6.3998 4.82401 6.96826V17.0323C4.82451 17.6007 5.05056 18.1458 5.45253 18.5477C5.8545 18.9497 6.39954 19.1758 6.96801 19.1763H17.032C17.6005 19.1758 18.1455 18.9497 18.5475 18.5477C18.9494 18.1458 19.1755 17.6007 19.176 17.0323V6.96795C19.1755 6.39948 18.9494 5.85444 18.5475 5.45247C18.1455 5.0505 17.6005 4.82445 17.032 4.82395L6.96801 4.82427Z" fill="#202020"/>
<path d="M19.8157 8.67487H16.128C15.7038 8.67436 15.2971 8.50563 14.9972 8.20568C14.6972 7.90573 14.5285 7.49906 14.528 7.07487V4.18431C14.528 4.01457 14.5954 3.85179 14.7155 3.73176C14.8355 3.61174 14.9983 3.54431 15.168 3.54431C15.3377 3.54431 15.5005 3.61174 15.6206 3.73176C15.7406 3.85179 15.808 4.01457 15.808 4.18431V7.07487C15.808 7.15974 15.8417 7.24113 15.9017 7.30115C15.9617 7.36116 16.0431 7.39487 16.128 7.39487H19.8157C19.9854 7.39487 20.1482 7.4623 20.2682 7.58232C20.3883 7.70235 20.4557 7.86513 20.4557 8.03487C20.4557 8.20461 20.3883 8.3674 20.2682 8.48742C20.1482 8.60744 19.9854 8.67487 19.8157 8.67487ZM9.64832 17.6502C9.47891 17.6502 9.31643 17.583 9.19648 17.4634L7.3888 15.6602C7.07387 15.3461 6.88734 14.9258 6.86567 14.4816C6.84399 14.0373 6.98872 13.6009 7.27159 13.2577C7.55445 12.9144 7.95513 12.689 8.39534 12.6253C8.83555 12.5617 9.28368 12.6645 9.65216 12.9136C9.99498 12.6976 10.4009 12.6043 10.8037 12.649C11.2064 12.6937 11.582 12.8738 11.8691 13.1597C12.2042 13.4948 12.3927 13.9492 12.3932 14.4231C12.3938 14.897 12.2063 15.3518 11.872 15.6877L10.1014 17.4624C9.98158 17.5825 9.81894 17.65 9.64928 17.6502H9.64832ZM8.65088 13.888C8.55053 13.888 8.45245 13.9178 8.36905 13.9736C8.28564 14.0294 8.22066 14.1087 8.18232 14.2014C8.14399 14.2942 8.13402 14.3962 8.15369 14.4946C8.17335 14.593 8.22177 14.6834 8.2928 14.7542L9.64736 16.1056L10.9661 14.784C11.061 14.6888 11.1143 14.5599 11.1143 14.4254C11.1143 14.291 11.061 14.1621 10.9661 14.0669C10.8709 13.9718 10.7419 13.9184 10.6074 13.9184C10.4728 13.9184 10.3438 13.9718 10.2486 14.0669L10.0982 14.2176C10.0389 14.2771 9.96836 14.3244 9.89073 14.3567C9.81309 14.389 9.72985 14.4056 9.64576 14.4058C9.47619 14.4057 9.31357 14.3384 9.1936 14.2186L9.01056 14.0358C8.96339 13.9886 8.9073 13.9512 8.84556 13.9258C8.78381 13.9004 8.71764 13.8876 8.65088 13.888Z" fill="#202020"/>
</svg>
