<svg width="24" height="24" viewBox="0 0 24 24" fill="none" xmlns="http://www.w3.org/2000/svg">
<path d="M6.37856 12.576C6.20882 12.576 6.04603 12.5086 5.92601 12.3886C5.80598 12.2685 5.73856 12.1058 5.73856 11.936C5.73856 11.7663 5.80598 11.6035 5.92601 11.4835C6.04603 11.3634 6.20882 11.296 6.37856 11.296H11.984C12.1537 11.296 12.3165 11.3634 12.4365 11.4835C12.5566 11.6035 12.624 11.7663 12.624 11.936C12.624 12.1058 12.5566 12.2685 12.4365 12.3886C12.3165 12.5086 12.1537 12.576 11.984 12.576H6.37856ZM6.37856 16.3405C6.20882 16.3405 6.04603 16.2731 5.92601 16.153C5.80598 16.033 5.73856 15.8702 5.73856 15.7005C5.73856 15.5308 5.80598 15.368 5.92601 15.248C6.04603 15.1279 6.20882 15.0605 6.37856 15.0605H11.984C12.1537 15.0605 12.3165 15.1279 12.4365 15.248C12.5566 15.368 12.624 15.5308 12.624 15.7005C12.624 15.8702 12.5566 16.033 12.4365 16.153C12.3165 16.2731 12.1537 16.3405 11.984 16.3405H6.37856Z" fill="#202020"/>
<path d="M17.032 20.4556H6.96801C6.06022 20.4546 5.1899 20.0935 4.548 19.4516C3.90609 18.8097 3.54502 17.9394 3.54401 17.0316V6.96795C3.54502 6.06016 3.90609 5.18984 4.548 4.54793C5.1899 3.90603 6.06022 3.54496 6.96801 3.54395H9.47201C9.64174 3.54395 9.80453 3.61137 9.92455 3.7314C10.0446 3.85142 10.112 4.01421 10.112 4.18395C10.112 4.35368 10.0446 4.51647 9.92455 4.63649C9.80453 4.75652 9.64174 4.82395 9.47201 4.82395H6.96801C6.39954 4.82445 5.8545 5.0505 5.45253 5.45247C5.05056 5.85444 4.82451 6.39948 4.82401 6.96795V17.0319C4.82451 17.6004 5.05056 18.1455 5.45253 18.5474C5.8545 18.9494 6.39954 19.1754 6.96801 19.1759H17.032C17.6005 19.1754 18.1455 18.9494 18.5475 18.5474C18.9494 18.1455 19.1755 17.6004 19.176 17.0319V9.91994C19.176 9.75021 19.2434 9.58742 19.3635 9.4674C19.4835 9.34737 19.6463 9.27994 19.816 9.27994C19.9857 9.27994 20.1485 9.34737 20.2686 9.4674C20.3886 9.58742 20.456 9.75021 20.456 9.91994V17.0319C20.4549 17.9397 20.0938 18.8099 19.4519 19.4517C18.81 20.0936 17.9397 20.4546 17.032 20.4556Z" fill="#202020"/>
<path d="M14.8442 13.2752C14.4877 13.2752 14.1459 13.1336 13.8938 12.8815C13.6418 12.6295 13.5002 12.2876 13.5002 11.9312V10.4403L11.6672 8.28159C11.211 7.74412 10.9603 7.06212 10.96 6.35711V4.18431C10.96 4.01457 11.0274 3.85179 11.1475 3.73176C11.2675 3.61174 11.4303 3.54431 11.6 3.54431H19.4269C19.5966 3.54431 19.7594 3.61174 19.8794 3.73176C19.9995 3.85179 20.0669 4.01457 20.0669 4.18431V6.14623C20.068 6.53678 19.9915 6.92367 19.8421 7.28449C19.6926 7.64531 19.4731 7.97291 19.1962 8.24831L17.1699 10.2746V10.9498C17.1692 11.5663 16.924 12.1575 16.488 12.5935C16.0519 13.0294 15.4608 13.2746 14.8442 13.2752ZM12.24 4.82431V6.35711C12.2402 6.75858 12.3829 7.14694 12.6426 7.45311L14.6288 9.78911C14.7275 9.90522 14.7815 10.0527 14.7811 10.2051V11.9331C14.7811 11.9501 14.7879 11.9664 14.7999 11.9784C14.8119 11.9904 14.8282 11.9971 14.8451 11.9971C15.1223 11.9969 15.3881 11.8866 15.5842 11.6906C15.7803 11.4947 15.8905 11.2289 15.8909 10.9517V10.0093C15.8909 9.83955 15.9584 9.67679 16.0784 9.55679L18.2918 7.34303C18.4496 7.18629 18.5747 6.9998 18.6598 6.79435C18.745 6.58891 18.7885 6.36862 18.7878 6.14623V4.82431H12.24Z" fill="#202020"/>
</svg>
