<svg width="24" height="24" viewBox="0 0 24 24" fill="none" xmlns="http://www.w3.org/2000/svg">
<path d="M17.032 20.4556H6.96801C6.06022 20.4546 5.1899 20.0935 4.548 19.4516C3.90609 18.8097 3.54502 17.9394 3.54401 17.0316V6.96795C3.54502 6.06016 3.90609 5.18984 4.548 4.54793C5.1899 3.90603 6.06022 3.54496 6.96801 3.54395H17.032C17.9398 3.54496 18.8101 3.90603 19.452 4.54793C20.0939 5.18984 20.455 6.06016 20.456 6.96795V17.0319C20.4549 17.9397 20.0938 18.8099 19.4519 19.4517C18.81 20.0936 17.9397 20.4546 17.032 20.4556ZM6.96801 4.82427C6.39954 4.82477 5.8545 5.05082 5.45253 5.45279C5.05056 5.85476 4.82451 6.3998 4.82401 6.96826V17.0323C4.82451 17.6007 5.05056 18.1458 5.45253 18.5477C5.8545 18.9497 6.39954 19.1758 6.96801 19.1763H17.032C17.6005 19.1758 18.1455 18.9497 18.5475 18.5477C18.9494 18.1458 19.1755 17.6007 19.176 17.0323V6.96795C19.1755 6.39948 18.9494 5.85444 18.5475 5.45247C18.1455 5.0505 17.6005 4.82445 17.032 4.82395L6.96801 4.82427Z" fill="#202020"/>
<path d="M13.104 14.3312H7.03999C6.87026 14.3312 6.70747 14.2638 6.58745 14.1437C6.46742 14.0237 6.39999 13.8609 6.39999 13.6912C6.39999 13.5215 6.46742 13.3587 6.58745 13.2386C6.70747 13.1186 6.87026 13.0512 7.03999 13.0512H13.104C13.2737 13.0512 13.4365 13.1186 13.5565 13.2386C13.6766 13.3587 13.744 13.5215 13.744 13.6912C13.744 13.8609 13.6766 14.0237 13.5565 14.1437C13.4365 14.2638 13.2737 14.3312 13.104 14.3312ZM11.2253 11.6883H7.03999C6.87026 11.6883 6.70747 11.6209 6.58745 11.5009C6.46742 11.3808 6.39999 11.218 6.39999 11.0483C6.39999 10.8786 6.46742 10.7158 6.58745 10.5958C6.70747 10.4757 6.87026 10.4083 7.03999 10.4083H11.2253C11.395 10.4083 11.5578 10.4757 11.6778 10.5958C11.7978 10.7158 11.8653 10.8786 11.8653 11.0483C11.8653 11.218 11.7978 11.3808 11.6778 11.5009C11.5578 11.6209 11.395 11.6883 11.2253 11.6883ZM19.8157 8.67487H16.128C15.7038 8.67436 15.2971 8.50563 14.9972 8.20568C14.6972 7.90573 14.5285 7.49906 14.528 7.07487V4.18431C14.528 4.01457 14.5954 3.85179 14.7154 3.73176C14.8355 3.61174 14.9983 3.54431 15.168 3.54431C15.3377 3.54431 15.5005 3.61174 15.6205 3.73176C15.7406 3.85179 15.808 4.01457 15.808 4.18431V7.07487C15.808 7.15974 15.8417 7.24113 15.9017 7.30115C15.9617 7.36116 16.0431 7.39487 16.128 7.39487H19.8157C19.9854 7.39487 20.1482 7.4623 20.2682 7.58232C20.3882 7.70235 20.4557 7.86513 20.4557 8.03487C20.4557 8.20461 20.3882 8.3674 20.2682 8.48742C20.1482 8.60744 19.9854 8.67487 19.8157 8.67487Z" fill="#202020"/>
</svg>
