<svg width="24" height="24" viewBox="0 0 24 24" fill="none" xmlns="http://www.w3.org/2000/svg">
<path d="M17.032 20.4556H6.968C6.06021 20.4546 5.18989 20.0935 4.54799 19.4516C3.90608 18.8097 3.54502 17.9394 3.544 17.0316V6.96795C3.54502 6.06016 3.90608 5.18984 4.54799 4.54793C5.18989 3.90603 6.06021 3.54496 6.968 3.54395H13.944C14.1063 3.54393 14.2626 3.60558 14.3811 3.71643L20.2525 9.2009C20.3166 9.26079 20.3677 9.33323 20.4027 9.41371C20.4377 9.49419 20.4557 9.581 20.4557 9.66874V17.0319C20.4557 17.94 20.0949 18.811 19.4528 19.4531C18.8107 20.0952 17.9398 20.4559 17.0317 20.4559L17.032 20.4556ZM6.968 4.82427C6.39953 4.82477 5.85449 5.05082 5.45252 5.45279C5.05056 5.85476 4.82451 6.3998 4.824 6.96826V17.0323C4.82451 17.6007 5.05056 18.1458 5.45252 18.5477C5.85449 18.9497 6.39953 19.1758 6.968 19.1763H17.032C17.3136 19.1763 17.5923 19.1208 17.8525 19.0131C18.1126 18.9053 18.3489 18.7474 18.548 18.5483C18.7471 18.3492 18.905 18.1129 19.0128 17.8527C19.1205 17.5926 19.176 17.3138 19.176 17.0323V9.9465L13.6922 4.82427H6.968Z" fill="#202020"/>
<path d="M19.8157 10.2637H15.5821C14.9782 10.2631 14.3992 10.0229 13.9722 9.59585C13.5452 9.16883 13.305 8.58987 13.3043 7.98597V4.18437C13.3043 4.05983 13.3406 3.93798 13.4088 3.83376C13.477 3.72955 13.5741 3.64749 13.6882 3.59766C13.8024 3.54782 13.9286 3.53237 14.0514 3.55321C14.1742 3.57404 14.2882 3.63024 14.3795 3.71493L20.2506 9.15493C20.345 9.24235 20.411 9.35622 20.4397 9.48168C20.4685 9.60714 20.4587 9.73836 20.4118 9.8582C20.3648 9.97804 20.2828 10.0809 20.1765 10.1535C20.0701 10.226 19.9444 10.2647 19.8157 10.2647V10.2637ZM14.5843 5.64997V7.98597C14.5847 8.25049 14.6899 8.50408 14.8769 8.69112C15.064 8.87817 15.3176 8.9834 15.5821 8.98373H18.183L14.5843 5.64997ZM8.12416 16.7729C8.03942 16.773 7.9555 16.7562 7.87731 16.7235C7.79913 16.6908 7.72824 16.6429 7.6688 16.5825L6.05184 14.9441C5.93729 14.828 5.87136 14.6726 5.86749 14.5096C5.86362 14.3466 5.92212 14.1883 6.03104 14.0669L7.57024 12.3524C7.68442 12.2291 7.84249 12.1557 8.01033 12.1479C8.17817 12.1402 8.34232 12.1988 8.46735 12.3111C8.59237 12.4233 8.66824 12.5802 8.67857 12.7479C8.6889 12.9156 8.63286 13.0807 8.52256 13.2074L7.38592 14.4737L8.5792 15.6817C8.66796 15.7714 8.72817 15.8855 8.75227 16.0094C8.77637 16.1333 8.76327 16.2616 8.71463 16.3781C8.66599 16.4947 8.58398 16.5942 8.47891 16.6642C8.37384 16.7342 8.25041 16.7716 8.12416 16.7716V16.7729Z" fill="#202020"/>
<path d="M11.3622 15.136H6.5072C6.33746 15.136 6.17467 15.0685 6.05465 14.9485C5.93463 14.8285 5.8672 14.6657 5.8672 14.496C5.8672 14.3262 5.93463 14.1634 6.05465 14.0434C6.17467 13.9234 6.33746 13.856 6.5072 13.856H11.3622C11.532 13.856 11.6948 13.9234 11.8148 14.0434C11.9348 14.1634 12.0022 14.3262 12.0022 14.496C12.0022 14.6657 11.9348 14.8285 11.8148 14.9485C11.6948 15.0685 11.532 15.136 11.3622 15.136Z" fill="#202020"/>
</svg>
