<svg width="24" height="24" viewBox="0 0 24 24" fill="none" xmlns="http://www.w3.org/2000/svg">
<path d="M9.45408 20.4556H6.968C6.06021 20.4546 5.18989 20.0935 4.54799 19.4516C3.90608 18.8097 3.54502 17.9394 3.544 17.0316V6.96795C3.54502 6.06016 3.90608 5.18984 4.54799 4.54793C5.18989 3.90603 6.06021 3.54496 6.968 3.54395H13.944C14.1063 3.54393 14.2626 3.60558 14.3811 3.71643L20.2525 9.2009C20.3166 9.26079 20.3677 9.33323 20.4027 9.41371C20.4377 9.49419 20.4557 9.581 20.4557 9.66874V15.1577C20.4557 15.3274 20.3882 15.4902 20.2682 15.6103C20.1482 15.7303 19.9854 15.7977 19.8157 15.7977C19.6459 15.7977 19.4832 15.7303 19.3631 15.6103C19.2431 15.4902 19.1757 15.3274 19.1757 15.1577V9.9465L13.6922 4.82427H6.968C6.39953 4.82477 5.85449 5.05082 5.45252 5.45279C5.05056 5.85476 4.82451 6.3998 4.824 6.96826V17.0323C4.82451 17.6007 5.05056 18.1458 5.45252 18.5477C5.85449 18.9497 6.39953 19.1758 6.968 19.1763H9.45408C9.62382 19.1763 9.7866 19.2437 9.90663 19.3637C10.0266 19.4837 10.0941 19.6465 10.0941 19.8163C10.0941 19.986 10.0266 20.1488 9.90663 20.2688C9.7866 20.3888 9.62382 20.4563 9.45408 20.4563V20.4556Z" fill="#202020"/>
<path d="M19.8157 10.2637H15.5821C14.9782 10.2631 14.3992 10.0229 13.9722 9.59585C13.5452 9.16883 13.305 8.58987 13.3043 7.98597V4.18437C13.3043 4.05983 13.3406 3.93798 13.4088 3.83376C13.477 3.72955 13.5741 3.64749 13.6882 3.59766C13.8024 3.54782 13.9286 3.53237 14.0514 3.55321C14.1742 3.57404 14.2882 3.63024 14.3795 3.71493L20.2506 9.15493C20.345 9.24235 20.411 9.35622 20.4397 9.48168C20.4685 9.60714 20.4587 9.73836 20.4118 9.8582C20.3648 9.97804 20.2828 10.0809 20.1765 10.1535C20.0701 10.226 19.9444 10.2647 19.8157 10.2647V10.2637ZM14.5843 5.64997V7.98597C14.5847 8.25049 14.6899 8.50408 14.8769 8.69112C15.064 8.87817 15.3176 8.9834 15.5821 8.98373H18.183L14.5843 5.64997ZM20.8454 20.4557H12.0022C11.8363 20.4558 11.6768 20.3915 11.5574 20.2763C11.438 20.1611 11.368 20.004 11.3622 19.8381C11.3389 19.1745 11.4736 18.5924 11.7622 18.1082C12.0042 17.7052 12.3482 17.3731 12.7594 17.1453C13.058 16.9786 13.38 16.8576 13.7146 16.7866C13.8015 16.5627 13.9163 16.3507 14.0563 16.1556C14.417 15.6557 15.1056 15.0599 16.3389 15.0599C17.5869 15.0599 18.2531 15.6788 18.5907 16.1981C18.7097 16.3824 18.8064 16.5802 18.8787 16.7873C19.3187 16.8421 19.7405 16.9964 20.112 17.2385C20.5137 17.508 20.8409 17.8745 21.0634 18.3041C21.305 18.7645 21.4485 19.2701 21.4848 19.7889C21.4884 19.8751 21.4746 19.9613 21.444 20.042C21.4135 20.1228 21.3669 20.1966 21.3071 20.2589C21.2473 20.3212 21.1755 20.3707 21.0961 20.4046C21.0166 20.4384 20.9312 20.4558 20.8448 20.4557H20.8454ZM12.697 19.1757H20.0541C20.0155 19.0717 19.9693 18.9706 19.9158 18.8733C19.6026 18.3085 19.0976 18.034 18.3722 18.034C18.2132 18.0368 18.0592 17.9792 17.941 17.8729C17.8228 17.7666 17.7493 17.6195 17.7354 17.4612C17.6996 17.2472 17.6179 17.0435 17.496 16.8641C17.2518 16.5121 16.8733 16.3405 16.3392 16.3405C15.7757 16.3405 15.369 16.5252 15.095 16.905C14.9748 17.0721 14.8889 17.2613 14.8422 17.4618C14.8204 17.6076 14.7483 17.7412 14.6383 17.8394C14.5283 17.9376 14.3874 17.9942 14.24 17.9994C13.9302 18.0282 13.6301 18.123 13.36 18.2775C13.1931 18.3729 13.048 18.5021 12.9338 18.6567C12.8196 18.8114 12.739 18.9881 12.697 19.1757Z" fill="#202020"/>
</svg>
