<svg width="24" height="24" viewBox="0 0 24 24" fill="none" xmlns="http://www.w3.org/2000/svg">
<path d="M17.032 21.0397H6.96801C6.06022 21.0387 5.1899 20.6776 4.548 20.0357C3.90609 19.3938 3.54502 18.5235 3.54401 17.6157V7.55205C3.54502 6.64426 3.90609 5.77394 4.548 5.13204C5.1899 4.49014 6.06022 4.12907 6.96801 4.12805H8.02913C8.19886 4.12805 8.36165 4.19548 8.48167 4.3155C8.6017 4.43553 8.66913 4.59831 8.66913 4.76805C8.66913 4.93779 8.6017 5.10058 8.48167 5.2206C8.36165 5.34062 8.19886 5.40805 8.02913 5.40805H6.96801C6.39954 5.40856 5.8545 5.63461 5.45253 6.03658C5.05056 6.43854 4.82451 6.98358 4.82401 7.55205V17.6161C4.82451 18.1845 5.05056 18.7296 5.45253 19.1315C5.8545 19.5335 6.39954 19.7595 6.96801 19.7601H17.032C17.6005 19.7595 18.1455 19.5335 18.5475 19.1315C18.9494 18.7296 19.1755 18.1845 19.176 17.6161V7.55205C19.1755 6.98358 18.9494 6.43854 18.5475 6.03658C18.1455 5.63461 17.6005 5.40856 17.032 5.40805H16.0179C15.8482 5.40805 15.6854 5.34062 15.5654 5.2206C15.4454 5.10058 15.3779 4.93779 15.3779 4.76805C15.3779 4.59831 15.4454 4.43553 15.5654 4.3155C15.6854 4.19548 15.8482 4.12805 16.0179 4.12805H17.032C17.9398 4.12907 18.8101 4.49014 19.452 5.13204C20.0939 5.77394 20.455 6.64426 20.456 7.55205V17.6161C20.4549 18.5238 20.0938 19.394 19.4519 20.0359C18.81 20.6777 17.9397 21.0387 17.032 21.0397Z" fill="#202020"/>
<path d="M15.3878 6.79298H8.61216C8.31208 6.79264 8.02439 6.67329 7.8122 6.4611C7.60001 6.24891 7.48065 5.96122 7.48032 5.66114V4.09314C7.48065 3.79307 7.60001 3.50537 7.8122 3.29319C8.02439 3.081 8.31208 2.96164 8.61216 2.9613H15.3878C15.6879 2.96164 15.9756 3.081 16.1878 3.29319C16.4 3.50537 16.5193 3.79307 16.5197 4.09314V5.66114C16.5193 5.96122 16.4 6.24891 16.1878 6.4611C15.9756 6.67329 15.6879 6.79264 15.3878 6.79298ZM8.76032 5.51298H15.2397V4.24034H8.76032V5.51298Z" fill="#202020"/>
</svg>
