<svg width="24" height="24" viewBox="0 0 24 24" fill="none" xmlns="http://www.w3.org/2000/svg">
<path d="M17.984 8.73122H11.688C11.5183 8.73122 11.3555 8.66379 11.2355 8.54377C11.1155 8.42375 11.048 8.26096 11.048 8.09122C11.048 7.92148 11.1155 7.7587 11.2355 7.63867C11.3555 7.51865 11.5183 7.45122 11.688 7.45122H17.984C18.1538 7.45122 18.3166 7.51865 18.4366 7.63867C18.5566 7.7587 18.624 7.92148 18.624 8.09122C18.624 8.26096 18.5566 8.42375 18.4366 8.54377C18.3166 8.66379 18.1538 8.73122 17.984 8.73122ZM17.984 16.8029H11.688C11.5183 16.8029 11.3555 16.7355 11.2355 16.6154C11.1155 16.4954 11.048 16.3326 11.048 16.1629C11.048 15.9932 11.1155 15.8304 11.2355 15.7104C11.3555 15.5903 11.5183 15.5229 11.688 15.5229H17.984C18.1538 15.5229 18.3166 15.5903 18.4366 15.7104C18.5566 15.8304 18.624 15.9932 18.624 16.1629C18.624 16.3326 18.5566 16.4954 18.4366 16.6154C18.3166 16.7355 18.1538 16.8029 17.984 16.8029ZM6.61925 9.62914C6.44951 9.62914 6.28672 9.56171 6.1667 9.44169C6.04668 9.32167 5.97925 9.15888 5.97925 8.98914V7.46434C5.97925 7.2946 6.04668 7.13182 6.1667 7.01179C6.28672 6.89177 6.44951 6.82434 6.61925 6.82434C6.78899 6.82434 6.95177 6.89177 7.0718 7.01179C7.19182 7.13182 7.25925 7.2946 7.25925 7.46434V8.98914C7.25925 9.07319 7.24269 9.15641 7.21053 9.23406C7.17837 9.31171 7.13123 9.38226 7.0718 9.44169C7.01237 9.50112 6.94181 9.54826 6.86416 9.58042C6.78652 9.61259 6.70329 9.62914 6.61925 9.62914ZM6.61925 17.5655C6.44951 17.5655 6.28672 17.498 6.1667 17.378C6.04668 17.258 5.97925 17.0952 5.97925 16.9255V15.4007C5.97925 15.2309 6.04668 15.0681 6.1667 14.9481C6.28672 14.8281 6.44951 14.7607 6.61925 14.7607C6.78899 14.7607 6.95177 14.8281 7.0718 14.9481C7.19182 15.0681 7.25925 15.2309 7.25925 15.4007V16.9255C7.25925 17.0952 7.19182 17.258 7.0718 17.378C6.95177 17.498 6.78899 17.5655 6.61925 17.5655ZM8.88933 9.62914C8.71959 9.62914 8.5568 9.56171 8.43678 9.44169C8.31676 9.32167 8.24933 9.15888 8.24933 8.98914V7.46434C8.24933 7.2946 8.31676 7.13182 8.43678 7.01179C8.5568 6.89177 8.71959 6.82434 8.88933 6.82434C9.05907 6.82434 9.22185 6.89177 9.34188 7.01179C9.4619 7.13182 9.52933 7.2946 9.52933 7.46434V8.98914C9.52933 9.07319 9.51277 9.15641 9.48061 9.23406C9.44845 9.31171 9.40131 9.38226 9.34188 9.44169C9.28245 9.50112 9.21189 9.54826 9.13424 9.58042C9.0566 9.61259 8.97337 9.62914 8.88933 9.62914ZM8.88933 17.5655C8.71959 17.5655 8.5568 17.498 8.43678 17.378C8.31676 17.258 8.24933 17.0952 8.24933 16.9255V15.4007C8.24933 15.2309 8.31676 15.0681 8.43678 14.9481C8.5568 14.8281 8.71959 14.7607 8.88933 14.7607C9.05907 14.7607 9.22185 14.8281 9.34188 14.9481C9.4619 15.0681 9.52933 15.2309 9.52933 15.4007V16.9255C9.52933 17.0952 9.4619 17.258 9.34188 17.378C9.22185 17.498 9.05907 17.5655 8.88933 17.5655Z" fill="#202020"/>
<path d="M17.0319 20.4557H6.96795C6.06016 20.4547 5.18984 20.0936 4.54793 19.4517C3.90603 18.8098 3.54496 17.9395 3.54395 17.0317V6.96801C3.54496 6.06022 3.90603 5.1899 4.54793 4.548C5.18984 3.90609 6.06016 3.54502 6.96795 3.54401H17.0319C17.9397 3.54502 18.8101 3.90609 19.452 4.548C20.0939 5.1899 20.4549 6.06022 20.4559 6.96801V17.032C20.4548 17.9397 20.0937 18.81 19.4518 19.4518C18.8099 20.0936 17.9397 20.4547 17.0319 20.4557ZM6.96795 4.82433C6.39948 4.82483 5.85444 5.05088 5.45247 5.45285C5.0505 5.85482 4.82445 6.39986 4.82395 6.96833V17.0323C4.82445 17.6008 5.0505 18.1458 5.45247 18.5478C5.85444 18.9498 6.39948 19.1758 6.96795 19.1763H17.0319C17.6004 19.1758 18.1455 18.9498 18.5474 18.5478C18.9494 18.1458 19.1754 17.6008 19.1759 17.0323V6.96801C19.1754 6.39954 18.9494 5.8545 18.5474 5.45253C18.1455 5.05056 17.6004 4.82451 17.0319 4.82401L6.96795 4.82433Z" fill="#202020"/>
<path d="M19.8155 12.64H4.18419C4.01445 12.64 3.85166 12.5726 3.73164 12.4525C3.61162 12.3325 3.54419 12.1697 3.54419 12C3.54419 11.8302 3.61162 11.6675 3.73164 11.5474C3.85166 11.4274 4.01445 11.36 4.18419 11.36H19.8155C19.9853 11.36 20.1481 11.4274 20.2681 11.5474C20.3881 11.6675 20.4555 11.8302 20.4555 12C20.4555 12.1697 20.3881 12.3325 20.2681 12.4525C20.1481 12.5726 19.9853 12.64 19.8155 12.64Z" fill="#202020"/>
</svg>
