<svg width="24" height="24" viewBox="0 0 24 24" fill="none" xmlns="http://www.w3.org/2000/svg">
<path d="M6.05633 18.7031C5.96475 18.7031 5.87425 18.6834 5.79092 18.6454C5.7076 18.6074 5.6334 18.552 5.57334 18.4828C5.51328 18.4137 5.46876 18.3325 5.44277 18.2447C5.41679 18.1569 5.40996 18.0645 5.42273 17.9738L5.87713 14.7469C5.89602 14.6126 5.95709 14.4878 6.05153 14.3904L14.2378 5.95621C14.6958 5.47606 15.3251 5.19641 15.9884 5.1782C16.6517 5.15998 17.2954 5.40467 17.7791 5.85895C18.2628 6.31323 18.5474 6.94028 18.5708 7.60345C18.5942 8.26662 18.3545 8.91217 17.904 9.39941L17.896 9.40773L9.70625 17.8458C9.61679 17.9378 9.50173 18.0008 9.37601 18.0266L6.18529 18.6896C6.14287 18.6985 6.09966 18.703 6.05633 18.7031ZM7.11553 15.1322L6.81601 17.2512L8.92353 16.8135L16.9734 8.52069C17.1935 8.28069 17.3099 7.96348 17.2973 7.6381C17.2846 7.31271 17.144 7.0055 16.9059 6.78331C16.6679 6.56112 16.3517 6.44195 16.0262 6.45174C15.7007 6.46153 15.3923 6.59948 15.168 6.83557L15.1603 6.84389L7.11553 15.1322Z" fill="#202020"/>
<path d="M16.1117 10.9267C15.9492 10.9267 15.7928 10.8649 15.6742 10.7539L12.9379 8.19006C12.814 8.07401 12.7414 7.91349 12.7358 7.74384C12.7303 7.57419 12.7924 7.40929 12.9085 7.28542C13.0245 7.16156 13.185 7.08887 13.3547 7.08335C13.5243 7.07783 13.6892 7.13993 13.8131 7.25598L16.5494 9.81982C16.643 9.9076 16.7081 10.0215 16.7362 10.1467C16.7643 10.272 16.754 10.4027 16.7068 10.5221C16.6596 10.6414 16.5776 10.7438 16.4715 10.816C16.3654 10.8881 16.24 10.9267 16.1117 10.9267ZM19.7181 20.4557H4.28191C4.11217 20.4557 3.94938 20.3882 3.82936 20.2682C3.70934 20.1482 3.64191 19.9854 3.64191 19.8157C3.64191 19.6459 3.70934 19.4831 3.82936 19.3631C3.94938 19.2431 4.11217 19.1757 4.28191 19.1757H19.7181C19.8878 19.1757 20.0506 19.2431 20.1706 19.3631C20.2906 19.4831 20.3581 19.6459 20.3581 19.8157C20.3581 19.9854 20.2906 20.1482 20.1706 20.2682C20.0506 20.3882 19.8878 20.4557 19.7181 20.4557Z" fill="#202020"/>
</svg>
