<svg width="24" height="24" viewBox="0 0 24 24" fill="none" xmlns="http://www.w3.org/2000/svg">
<path d="M17.032 20.4556H6.96801C6.06022 20.4546 5.1899 20.0935 4.548 19.4516C3.90609 18.8097 3.54502 17.9394 3.54401 17.0316V6.96795C3.54502 6.06016 3.90609 5.18984 4.548 4.54793C5.1899 3.90603 6.06022 3.54496 6.96801 3.54395H13.944C14.1137 3.54395 14.2765 3.61137 14.3966 3.7314C14.5166 3.85142 14.584 4.01421 14.584 4.18395C14.584 4.35368 14.5166 4.51647 14.3966 4.63649C14.2765 4.75652 14.1137 4.82395 13.944 4.82395H6.96801C6.39954 4.82445 5.8545 5.0505 5.45253 5.45247C5.05056 5.85444 4.82451 6.39948 4.82401 6.96795V17.0319C4.82451 17.6004 5.05056 18.1455 5.45253 18.5474C5.8545 18.9494 6.39954 19.1754 6.96801 19.1759H17.032C17.6005 19.1754 18.1455 18.9494 18.5475 18.5474C18.9494 18.1455 19.1755 17.6004 19.176 17.0319V9.66874C19.176 9.49901 19.2434 9.33622 19.3635 9.2162C19.4835 9.09617 19.6463 9.02874 19.816 9.02874C19.9857 9.02874 20.1485 9.09617 20.2686 9.2162C20.3886 9.33622 20.456 9.49901 20.456 9.66874V17.0319C20.4549 17.9397 20.0938 18.8099 19.4519 19.4517C18.81 20.0936 17.9397 20.4546 17.032 20.4556Z" fill="#202020"/>
<path d="M8.14976 16.5847C8.05816 16.5847 7.96761 16.5651 7.88425 16.5271C7.80089 16.4891 7.72665 16.4337 7.66656 16.3645C7.60646 16.2954 7.56191 16.2142 7.53591 16.1263C7.5099 16.0385 7.50306 15.9461 7.51584 15.8554L7.97024 12.6285C7.98909 12.4941 8.0503 12.3693 8.14496 12.272L16.3309 3.83747C16.7875 3.35129 17.4186 3.06643 18.0853 3.04555C18.7519 3.02466 19.3996 3.26947 19.8858 3.72611C20.3719 4.18274 20.6568 4.81381 20.6777 5.48048C20.6986 6.14715 20.4538 6.79481 19.9971 7.28099L19.9894 7.28899L11.7997 15.7271C11.7104 15.8189 11.5958 15.882 11.4704 15.9082L8.28 16.5712C8.23716 16.5801 8.19352 16.5846 8.14976 16.5847ZM9.20864 13.0135L8.9104 15.1328L11.0179 14.6947L19.0666 6.40195C19.2869 6.16196 19.4035 5.84462 19.3909 5.51908C19.3783 5.19353 19.2375 4.88615 18.9993 4.6639C18.7611 4.44164 18.4447 4.32253 18.1191 4.3325C17.7935 4.34248 17.485 4.48073 17.2608 4.71715L17.2531 4.72515L9.20864 13.0135Z" fill="#202020"/>
<path d="M18.2051 8.8083C18.0425 8.80861 17.886 8.74666 17.7677 8.63518L15.0314 6.07166C14.97 6.01419 14.9206 5.9452 14.8859 5.86864C14.8513 5.79208 14.832 5.70944 14.8293 5.62543C14.8266 5.54143 14.8404 5.45771 14.87 5.37905C14.8996 5.3004 14.9445 5.22835 15.0019 5.16702C15.0594 5.10568 15.1284 5.05627 15.2049 5.0216C15.2815 4.98692 15.3641 4.96767 15.4481 4.96494C15.5322 4.9622 15.6159 4.97604 15.6945 5.00566C15.7732 5.03529 15.8452 5.08011 15.9066 5.13758L18.6426 7.70142C18.7362 7.78918 18.8012 7.90305 18.8293 8.02824C18.8574 8.15344 18.8472 8.28419 18.8 8.40352C18.7529 8.52285 18.6709 8.62525 18.5648 8.69743C18.4588 8.76961 18.3334 8.80823 18.2051 8.8083Z" fill="#202020"/>
</svg>
