<svg width="24" height="24" viewBox="0 0 24 24" fill="none" xmlns="http://www.w3.org/2000/svg">
<path d="M12 16.7801C9.03137 16.7801 6.61633 14.3651 6.61633 11.3968V6.4771C6.61633 6.30736 6.68376 6.14457 6.80378 6.02455C6.92381 5.90453 7.08659 5.8371 7.25633 5.8371H16.7437C16.9134 5.8371 17.0762 5.90453 17.1962 6.02455C17.3163 6.14457 17.3837 6.30736 17.3837 6.4771V11.3968C17.3837 14.3651 14.9687 16.7801 12 16.7801ZM7.89633 7.11614V11.3968C7.89633 12.4851 8.32868 13.5289 9.09827 14.2985C9.86786 15.0681 10.9116 15.5005 12 15.5005C13.0884 15.5005 14.1322 15.0681 14.9018 14.2985C15.6713 13.5289 16.1037 12.4851 16.1037 11.3968V7.1171L7.89633 7.11614Z" fill="#202020"/>
<path d="M9.86528 7.11711C9.69554 7.11711 9.53276 7.04968 9.41273 6.92966C9.29271 6.80964 9.22528 6.64685 9.22528 6.47711V4.00383C9.22528 3.83409 9.29271 3.67131 9.41273 3.55128C9.53276 3.43126 9.69554 3.36383 9.86528 3.36383C10.035 3.36383 10.1978 3.43126 10.3178 3.55128C10.4379 3.67131 10.5053 3.83409 10.5053 4.00383V6.47711C10.5053 6.64685 10.4379 6.80964 10.3178 6.92966C10.1978 7.04968 10.035 7.11711 9.86528 7.11711ZM14.1347 7.11711C13.965 7.11711 13.8022 7.04968 13.6822 6.92966C13.5621 6.80964 13.4947 6.64685 13.4947 6.47711V4.00383C13.4947 3.83409 13.5621 3.67131 13.6822 3.55128C13.8022 3.43126 13.965 3.36383 14.1347 3.36383C14.3045 3.36383 14.4672 3.43126 14.5873 3.55128C14.7073 3.67131 14.7747 3.83409 14.7747 4.00383V6.47711C14.7747 6.64685 14.7073 6.80964 14.5873 6.92966C14.4672 7.04968 14.3045 7.11711 14.1347 7.11711ZM12 20.6362C11.8303 20.6362 11.6675 20.5687 11.5475 20.4487C11.4274 20.3287 11.36 20.1659 11.36 19.9961V16.1402C11.36 15.9704 11.4274 15.8076 11.5475 15.6876C11.6675 15.5676 11.8303 15.5001 12 15.5001C12.1697 15.5001 12.3325 15.5676 12.4525 15.6876C12.5726 15.8076 12.64 15.9704 12.64 16.1402V19.9961C12.64 20.1659 12.5726 20.3287 12.4525 20.4487C12.3325 20.5687 12.1697 20.6362 12 20.6362Z" fill="#202020"/>
</svg>
