<svg width="24" height="24" viewBox="0 0 24 24" fill="none" xmlns="http://www.w3.org/2000/svg">
<path d="M12.0001 16.7802C9.0315 16.7802 6.61646 14.3651 6.61646 11.3968V6.47713C6.61646 6.30739 6.68388 6.1446 6.80391 6.02458C6.92393 5.90456 7.08672 5.83713 7.25646 5.83713H16.7438C16.9136 5.83713 17.0763 5.90456 17.1964 6.02458C17.3164 6.1446 17.3838 6.30739 17.3838 6.47713V11.3968C17.3838 14.3651 14.9688 16.7802 12.0001 16.7802ZM7.89646 7.11617V11.3968C7.89646 12.4852 8.32881 13.529 9.0984 14.2985C9.86798 15.0681 10.9118 15.5005 12.0001 15.5005C13.0885 15.5005 14.1323 15.0681 14.9019 14.2985C15.6715 13.529 16.1038 12.4852 16.1038 11.3968V7.11713L7.89646 7.11617Z" fill="#202020"/>
<path d="M9.86534 7.11714C9.6956 7.11714 9.53282 7.04971 9.41279 6.92969C9.29277 6.80967 9.22534 6.64688 9.22534 6.47714V4.00386C9.22534 3.83412 9.29277 3.67134 9.41279 3.55131C9.53282 3.43129 9.6956 3.36386 9.86534 3.36386C10.0351 3.36386 10.1979 3.43129 10.3179 3.55131C10.4379 3.67134 10.5053 3.83412 10.5053 4.00386V6.47714C10.5053 6.64688 10.4379 6.80967 10.3179 6.92969C10.1979 7.04971 10.0351 7.11714 9.86534 7.11714ZM14.1348 7.11714C13.965 7.11714 13.8023 7.04971 13.6822 6.92969C13.5622 6.80967 13.4948 6.64688 13.4948 6.47714V4.00386C13.4948 3.83412 13.5622 3.67134 13.6822 3.55131C13.8023 3.43129 13.965 3.36386 14.1348 3.36386C14.3045 3.36386 14.4673 3.43129 14.5873 3.55131C14.7074 3.67134 14.7748 3.83412 14.7748 4.00386V6.47714C14.7748 6.64688 14.7074 6.80967 14.5873 6.92969C14.4673 7.04971 14.3045 7.11714 14.1348 7.11714ZM12.0001 20.6362C11.8303 20.6362 11.6675 20.5688 11.5475 20.4487C11.4275 20.3287 11.3601 20.1659 11.3601 19.9962V16.1402C11.3601 15.9704 11.4275 15.8077 11.5475 15.6876C11.6675 15.5676 11.8303 15.5002 12.0001 15.5002C12.1698 15.5002 12.3326 15.5676 12.4526 15.6876C12.5726 15.8077 12.6401 15.9704 12.6401 16.1402V19.9962C12.6401 20.1659 12.5726 20.3287 12.4526 20.4487C12.3326 20.5688 12.1698 20.6362 12.0001 20.6362Z" fill="#202020"/>
</svg>
