<svg width="24" height="24" viewBox="0 0 24 24" fill="none" xmlns="http://www.w3.org/2000/svg">
<path d="M18.7257 11.52H14.2098C13.7512 11.5195 13.3115 11.3371 12.9872 11.0128C12.6628 10.6885 12.4804 10.2488 12.4799 9.7901V5.27426C12.4808 4.81592 12.6635 4.37665 12.9877 4.05273C13.312 3.72882 13.7515 3.54669 14.2098 3.54626H18.7257C19.1843 3.54669 19.624 3.72904 19.9483 4.0533C20.2726 4.37756 20.4551 4.81725 20.4556 5.27586V9.7901C20.4551 10.2488 20.2727 10.6885 19.9483 11.0128C19.624 11.3371 19.1843 11.5195 18.7257 11.52ZM14.2098 4.82466C14.0909 4.82475 13.9768 4.87191 13.8925 4.95586C13.8082 5.0398 13.7605 5.1537 13.7599 5.27266V9.7901C13.7601 9.90938 13.8075 10.0237 13.8919 10.1081C13.9762 10.1924 14.0906 10.2399 14.2098 10.24H18.7257C18.8449 10.2399 18.9593 10.1924 19.0436 10.1081C19.128 10.0237 19.1754 9.90938 19.1756 9.7901V5.27426C19.175 5.1553 19.1273 5.0414 19.043 4.95746C18.9587 4.87351 18.8446 4.82635 18.7257 4.82626L14.2098 4.82466ZM18.7257 20.4557H14.2098C13.7512 20.4552 13.3115 20.2728 12.9872 19.9485C12.6628 19.6241 12.4804 19.1844 12.4799 18.7258V14.2099C12.4804 13.7513 12.6628 13.3116 12.9872 12.9873C13.3115 12.663 13.7512 12.4805 14.2098 12.48H18.7257C19.1843 12.4805 19.624 12.663 19.9483 12.9873C20.2727 13.3116 20.4551 13.7513 20.4556 14.2099V18.7258C20.4551 19.1844 20.2727 19.6241 19.9483 19.9485C19.624 20.2728 19.1843 20.4552 18.7257 20.4557ZM14.2098 13.76C14.0906 13.7602 13.9762 13.8076 13.8919 13.892C13.8075 13.9763 13.7601 14.0907 13.7599 14.2099V18.7258C13.7601 18.8451 13.8075 18.9594 13.8919 19.0437C13.9762 19.1281 14.0906 19.1755 14.2098 19.1757H18.7257C18.8449 19.1755 18.9593 19.1281 19.0436 19.0437C19.128 18.9594 19.1754 18.8451 19.1756 18.7258V14.2099C19.1754 14.0907 19.128 13.9763 19.0436 13.892C18.9593 13.8076 18.8449 13.7602 18.7257 13.76H14.2098ZM9.59255 11.52H5.07639C4.61807 11.519 4.17885 11.3364 3.85495 11.0121C3.53105 10.6878 3.3489 10.2484 3.34839 9.7901V5.27426C3.34932 4.81626 3.53167 4.37727 3.85554 4.05341C4.1794 3.72955 4.61838 3.54719 5.07639 3.54626H9.59255C10.0511 3.54677 10.4907 3.72916 10.815 4.05341C11.1393 4.37767 11.3216 4.8173 11.3221 5.27586V9.7901C11.3216 10.2487 11.1393 10.6884 10.815 11.0127C10.4908 11.337 10.0511 11.5194 9.59255 11.52ZM5.07639 4.82466C4.95773 4.82517 4.84407 4.87253 4.76016 4.95644C4.67626 5.04035 4.62889 5.154 4.62839 5.27266V9.7901C4.62847 9.90907 4.67564 10.0232 4.75958 10.1075C4.84352 10.1918 4.95742 10.2394 5.07639 10.24H9.59255C9.71179 10.2399 9.8261 10.1924 9.91039 10.108C9.99468 10.0237 10.0421 9.90935 10.0421 9.7901V5.27426C10.0416 5.15533 9.99406 5.04143 9.90981 4.95748C9.82555 4.87352 9.71149 4.82635 9.59255 4.82626L5.07639 4.82466ZM9.59255 20.4557H5.07639C4.61807 20.4547 4.17885 20.272 3.85495 19.9478C3.53105 19.6235 3.3489 19.1841 3.34839 18.7258V14.2099C3.3489 13.7516 3.53105 13.3122 3.85495 12.9879C4.17885 12.6637 4.61807 12.481 5.07639 12.48H9.59255C10.0511 12.4806 10.4908 12.6631 10.815 12.9874C11.1393 13.3117 11.3216 13.7514 11.3221 14.2099V18.7258C11.3216 19.1844 11.1393 19.624 10.815 19.9483C10.4908 20.2727 10.0511 20.4551 9.59255 20.4557ZM5.07639 13.76C4.95742 13.7606 4.84352 13.8083 4.75958 13.8926C4.67564 13.9769 4.62847 14.091 4.62839 14.2099V18.7258C4.62847 18.8448 4.67564 18.9589 4.75958 19.0432C4.84352 19.1275 4.95742 19.1751 5.07639 19.1757H9.59255C9.71179 19.1755 9.8261 19.1281 9.91039 19.0437C9.99468 18.9594 10.0421 18.845 10.0421 18.7258V14.2099C10.0421 14.0907 9.99468 13.9764 9.91039 13.892C9.8261 13.8077 9.71179 13.7602 9.59255 13.76H5.07639Z" fill="#202020"/>
</svg>
