<svg width="24" height="24" viewBox="0 0 24 24" fill="none" xmlns="http://www.w3.org/2000/svg">
<path d="M18.7257 11.52H14.2098C13.7512 11.5195 13.3115 11.3371 12.9872 11.0128C12.6628 10.6885 12.4804 10.2488 12.4799 9.7901V5.27426C12.4808 4.81592 12.6635 4.37665 12.9877 4.05273C13.312 3.72882 13.7515 3.54669 14.2098 3.54626H18.7257C19.1843 3.54669 19.624 3.72904 19.9483 4.0533C20.2726 4.37756 20.4551 4.81725 20.4556 5.27586V9.7901C20.4551 10.2488 20.2727 10.6885 19.9483 11.0128C19.624 11.3371 19.1843 11.5195 18.7257 11.52ZM14.2098 4.82466C14.0909 4.82475 13.9768 4.87191 13.8925 4.95586C13.8082 5.0398 13.7605 5.1537 13.7599 5.27266V9.7901C13.7601 9.90938 13.8075 10.0237 13.8919 10.1081C13.9762 10.1924 14.0906 10.2399 14.2098 10.24H18.7257C18.8449 10.2399 18.9593 10.1924 19.0436 10.1081C19.128 10.0237 19.1754 9.90938 19.1756 9.7901V5.27426C19.175 5.1553 19.1273 5.0414 19.043 4.95746C18.9587 4.87351 18.8446 4.82635 18.7257 4.82626L14.2098 4.82466ZM9.59255 11.52H5.07639C4.61807 11.519 4.17885 11.3364 3.85495 11.0121C3.53105 10.6878 3.3489 10.2484 3.34839 9.7901V5.27426C3.34932 4.81626 3.53167 4.37727 3.85554 4.05341C4.1794 3.72955 4.61838 3.54719 5.07639 3.54626H9.59255C10.0511 3.54677 10.4907 3.72916 10.815 4.05341C11.1393 4.37767 11.3216 4.8173 11.3221 5.27586V9.7901C11.3216 10.2487 11.1393 10.6884 10.815 11.0127C10.4908 11.337 10.0511 11.5194 9.59255 11.52ZM5.07639 4.82466C4.95773 4.82517 4.84407 4.87253 4.76016 4.95644C4.67626 5.04035 4.62889 5.154 4.62839 5.27266V9.7901C4.62847 9.90907 4.67564 10.0232 4.75958 10.1075C4.84352 10.1918 4.95742 10.2394 5.07639 10.24H9.59255C9.71179 10.2399 9.8261 10.1924 9.91039 10.108C9.99468 10.0237 10.0421 9.90935 10.0421 9.7901V5.27426C10.0416 5.15533 9.99406 5.04143 9.90981 4.95748C9.82555 4.87352 9.71149 4.82635 9.59255 4.82626L5.07639 4.82466ZM9.59255 20.4557H5.07639C4.61807 20.4547 4.17885 20.272 3.85495 19.9478C3.53105 19.6235 3.3489 19.1841 3.34839 18.7258V14.2099C3.3489 13.7516 3.53105 13.3122 3.85495 12.9879C4.17885 12.6637 4.61807 12.481 5.07639 12.48H9.59255C10.0511 12.4806 10.4908 12.6631 10.815 12.9874C11.1393 13.3117 11.3216 13.7514 11.3221 14.2099V18.7258C11.3216 19.1844 11.1393 19.624 10.815 19.9483C10.4908 20.2727 10.0511 20.4551 9.59255 20.4557ZM5.07639 13.76C4.95742 13.7606 4.84352 13.8083 4.75958 13.8926C4.67564 13.9769 4.62847 14.091 4.62839 14.2099V18.7258C4.62847 18.8448 4.67564 18.9589 4.75958 19.0432C4.84352 19.1275 4.95742 19.1751 5.07639 19.1757H9.59255C9.71179 19.1755 9.8261 19.1281 9.91039 19.0437C9.99468 18.9594 10.0421 18.845 10.0421 18.7258V14.2099C10.0421 14.0907 9.99468 13.9764 9.91039 13.892C9.8261 13.8077 9.71179 13.7602 9.59255 13.76H5.07639ZM18.3999 18.0359H14.638C14.4682 18.0359 14.3055 17.9684 14.1854 17.8484C14.0654 17.7284 13.998 17.5656 13.998 17.3959C13.998 17.2261 14.0654 17.0633 14.1854 16.9433C14.3055 16.8233 14.4682 16.7559 14.638 16.7559H18.3999C18.5696 16.7559 18.7324 16.8233 18.8525 16.9433C18.9725 17.0633 19.0399 17.2261 19.0399 17.3959C19.0399 17.5656 18.9725 17.7284 18.8525 17.8484C18.7324 17.9684 18.5696 18.0359 18.3999 18.0359ZM18.3999 16.176H14.638C14.4682 16.176 14.3055 16.1086 14.1854 15.9886C14.0654 15.8685 13.998 15.7058 13.998 15.536C13.998 15.3663 14.0654 15.2035 14.1854 15.0835C14.3055 14.9635 14.4682 14.896 14.638 14.896H18.3999C18.5696 14.896 18.7324 14.9635 18.8525 15.0835C18.9725 15.2035 19.0399 15.3663 19.0399 15.536C19.0399 15.7058 18.9725 15.8685 18.8525 15.9886C18.7324 16.1086 18.5696 16.176 18.3999 16.176Z" fill="#202020"/>
</svg>
