<svg width="24" height="24" viewBox="0 0 24 24" fill="none" xmlns="http://www.w3.org/2000/svg">
<path d="M9.64395 20.4557H5.45835C4.95093 20.4551 4.46446 20.2533 4.10566 19.8945C3.74686 19.5357 3.54503 19.0492 3.54443 18.5418V5.45828C3.54503 4.95089 3.74687 4.46445 4.10568 4.1057C4.46449 3.74695 4.95096 3.54519 5.45835 3.54468H9.64395C10.1513 3.54519 10.6378 3.74695 10.9966 4.1057C11.3554 4.46445 11.5573 4.95089 11.5579 5.45828V18.5418C11.5573 19.0492 11.3554 19.5357 10.9966 19.8945C10.6378 20.2533 10.1514 20.4551 9.64395 20.4557ZM5.45835 4.82468C5.29033 4.82485 5.12924 4.89165 5.0104 5.01042C4.89157 5.1292 4.82469 5.29026 4.82443 5.45828V18.5418C4.82469 18.7098 4.89156 18.8709 5.01038 18.9898C5.12921 19.1086 5.29031 19.1755 5.45835 19.1757H9.64395C9.812 19.1755 9.97309 19.1086 10.0919 18.9898C10.2107 18.8709 10.2776 18.7098 10.2779 18.5418V5.45828C10.2776 5.29026 10.2107 5.1292 10.0919 5.01042C9.97306 4.89165 9.81197 4.82485 9.64395 4.82468H5.45835ZM18.7259 11.52H14.21C13.7514 11.5195 13.3117 11.3371 12.9874 11.0128C12.663 10.6885 12.4806 10.2488 12.4801 9.79012V5.27428C12.481 4.81594 12.6637 4.37666 12.9879 4.05275C13.3122 3.72883 13.7517 3.5467 14.21 3.54628H18.7259C19.1845 3.5467 19.6242 3.72905 19.9485 4.05331C20.2729 4.37758 20.4553 4.81726 20.4558 5.27588V9.79012C20.4553 10.2488 20.2729 10.6885 19.9485 11.0128C19.6242 11.3371 19.1845 11.5195 18.7259 11.52ZM14.21 4.82468C14.0911 4.82476 13.977 4.87193 13.8927 4.95587C13.8084 5.03981 13.7607 5.15371 13.7601 5.27268V9.79012C13.7603 9.90939 13.8077 10.0237 13.8921 10.1081C13.9764 10.1924 14.0908 10.2399 14.21 10.24H18.7259C18.8451 10.2399 18.9595 10.1924 19.0438 10.1081C19.1282 10.0237 19.1756 9.90939 19.1758 9.79012V5.27428C19.1752 5.15531 19.1275 5.04141 19.0432 4.95747C18.9589 4.87353 18.8448 4.82636 18.7259 4.82628L14.21 4.82468ZM18.7259 20.4557H14.21C13.7514 20.4552 13.3117 20.2728 12.9874 19.9485C12.663 19.6242 12.4806 19.1844 12.4801 18.7258V14.21C12.4806 13.7513 12.663 13.3116 12.9874 12.9873C13.3117 12.663 13.7514 12.4805 14.21 12.48H18.7259C19.1845 12.4805 19.6242 12.663 19.9485 12.9873C20.2729 13.3116 20.4553 13.7513 20.4558 14.21V18.7258C20.4553 19.1844 20.2729 19.6242 19.9485 19.9485C19.6242 20.2728 19.1845 20.4552 18.7259 20.4557ZM14.21 13.76C14.0908 13.7602 13.9764 13.8077 13.8921 13.892C13.8077 13.9763 13.7603 14.0907 13.7601 14.21V18.7258C13.7603 18.8451 13.8077 18.9594 13.8921 19.0438C13.9764 19.1281 14.0908 19.1755 14.21 19.1757H18.7259C18.8451 19.1755 18.9595 19.1281 19.0438 19.0438C19.1282 18.9594 19.1756 18.8451 19.1758 18.7258V14.21C19.1756 14.0907 19.1282 13.9763 19.0438 13.892C18.9595 13.8077 18.8451 13.7602 18.7259 13.76H14.21Z" fill="#202020"/>
</svg>
