<svg width="24" height="24" viewBox="0 0 24 24" fill="none" xmlns="http://www.w3.org/2000/svg">
<path d="M7.90758 10.1264C7.78372 10.1261 7.6626 10.0899 7.5589 10.0222C7.4552 9.95446 7.37339 9.85809 7.32339 9.74477C7.27339 9.63145 7.25734 9.50606 7.2772 9.3838C7.29706 9.26154 7.35196 9.14767 7.43526 9.056C7.61606 8.85696 8.28806 8.21056 9.34406 8.19712H9.37798C10.4519 8.19712 11.1348 8.85248 11.3201 9.05504C11.3768 9.11709 11.4207 9.1897 11.4494 9.26873C11.4781 9.34777 11.4909 9.43167 11.4871 9.51566C11.4834 9.59965 11.4631 9.68208 11.4275 9.75823C11.3919 9.83439 11.3416 9.90279 11.2796 9.95952C11.2175 10.0163 11.1449 10.0602 11.0659 10.0889C10.9869 10.1175 10.9029 10.1304 10.819 10.1266C10.735 10.1228 10.6525 10.1026 10.5764 10.067C10.5002 10.0314 10.4318 9.98109 10.3751 9.91904C10.3073 9.8448 9.94278 9.47776 9.37734 9.47776H9.36038C8.80486 9.4848 8.44678 9.8464 8.38054 9.91872C8.32055 9.98441 8.24748 10.0368 8.16603 10.0726C8.08457 10.1084 7.99654 10.1267 7.90758 10.1264ZM16.906 10.1264C16.8091 10.1265 16.7134 10.1045 16.6262 10.0622C16.539 10.0199 16.4626 9.95839 16.4026 9.88224C16.3441 9.808 16.026 9.43616 15.5034 9.40768C14.8788 9.37376 14.4842 9.86304 14.4676 9.88384C14.4153 9.94971 14.3506 10.0046 14.2771 10.0455C14.2036 10.0864 14.1228 10.1123 14.0393 10.122C13.9558 10.1316 13.8712 10.1247 13.7903 10.1016C13.7094 10.0785 13.6339 10.0398 13.5681 9.98752C13.5022 9.93526 13.4473 9.87055 13.4064 9.79706C13.3655 9.72357 13.3396 9.64276 13.3299 9.55923C13.3203 9.4757 13.3272 9.3911 13.3503 9.31024C13.3734 9.22939 13.4121 9.15387 13.4644 9.088C13.6007 8.91616 14.3421 8.06144 15.5732 8.128C16.6189 8.18528 17.242 8.87776 17.4084 9.088C17.4827 9.18236 17.5289 9.29571 17.5418 9.4151C17.5547 9.53448 17.5337 9.65509 17.4813 9.76313C17.4289 9.87118 17.3472 9.9623 17.2454 10.0261C17.1437 10.0899 17.0261 10.1237 16.906 10.1238V10.1264ZM15.4359 17.1674H9.37766C9.29122 17.1674 9.20566 17.15 9.12614 17.1161C9.04662 17.0822 8.97479 17.0326 8.91498 16.9702C8.85517 16.9078 8.80862 16.8339 8.77815 16.753C8.74767 16.6721 8.7339 16.5859 8.73766 16.4995C8.78133 15.5572 9.18437 14.6675 9.86391 14.0132C10.5435 13.359 11.4478 12.99 12.3911 12.9821H12.4068C13.3526 12.9863 14.2607 13.3537 14.9434 14.0083C15.6261 14.6629 16.0313 15.5547 16.0753 16.4995C16.079 16.5859 16.0652 16.6721 16.0348 16.753C16.0043 16.8339 15.9578 16.9078 15.8979 16.9702C15.8381 17.0326 15.7663 17.0822 15.6868 17.1161C15.6073 17.15 15.5217 17.1674 15.4353 17.1674H15.4359ZM10.1441 15.8874H14.6685C14.3418 14.9466 13.4381 14.2621 12.4065 14.2621H12.3965C11.3709 14.2666 10.4717 14.9517 10.1441 15.8874Z" fill="#202020"/>
<path d="M17.44 20.4557H7.37468C6.46687 20.4547 5.5965 20.0937 4.95458 19.4518C4.31266 18.8099 3.95162 17.9395 3.95068 17.0317V6.968C3.95162 6.06018 4.31266 5.18982 4.95458 4.54789C5.5965 3.90597 6.46687 3.54493 7.37468 3.544H17.44C18.3478 3.54493 19.2181 3.90597 19.8601 4.54789C20.502 5.18982 20.863 6.06018 20.864 6.968V17.032C20.8629 17.9398 20.5019 18.81 19.86 19.4519C19.218 20.0938 18.3477 20.4547 17.44 20.4557ZM7.37468 4.82432C6.80622 4.82483 6.26118 5.05088 5.85921 5.45284C5.45724 5.85481 5.23119 6.39985 5.23068 6.96832V17.0323C5.23119 17.6008 5.45724 18.1458 5.85921 18.5478C6.26118 18.9498 6.80622 19.1758 7.37468 19.1763H17.44C18.0084 19.1758 18.5535 18.9498 18.9554 18.5478C19.3574 18.1458 19.5835 17.6008 19.584 17.0323V6.968C19.5835 6.39953 19.3574 5.85449 18.9554 5.45252C18.5535 5.05056 18.0084 4.82451 17.44 4.824L7.37468 4.82432Z" fill="#202020"/>
</svg>
