<svg width="24" height="24" viewBox="0 0 24 24" fill="none" xmlns="http://www.w3.org/2000/svg">
<path d="M10.4406 10.1264C10.3517 10.1266 10.2638 10.1081 10.1824 10.0722C10.1011 10.0363 10.0282 9.98383 9.96833 9.91808C9.89953 9.8432 9.52993 9.47008 8.95361 9.47712C8.39809 9.48416 8.04001 9.84576 7.97377 9.91808C7.91704 9.98012 7.84864 10.0304 7.77248 10.066C7.69633 10.1016 7.6139 10.1219 7.52991 10.1256C7.44592 10.1294 7.36202 10.1166 7.28298 10.0879C7.20395 10.0592 7.13134 10.0153 7.06929 9.95856C7.00724 9.90183 6.95698 9.83343 6.92136 9.75727C6.88575 9.68112 6.86548 9.59869 6.86172 9.5147C6.85797 9.43071 6.87079 9.34681 6.89945 9.26777C6.92812 9.18874 6.97208 9.11612 7.02881 9.05408C7.20929 8.85632 7.88097 8.20992 8.93697 8.19648C10.0291 8.18208 10.7258 8.84928 10.913 9.05408C10.9967 9.1457 11.0519 9.25969 11.072 9.38216C11.0921 9.50463 11.0762 9.6303 11.0261 9.74387C10.9761 9.85743 10.8941 9.954 10.7901 10.0218C10.6862 10.0896 10.5648 10.1257 10.4406 10.1258V10.1264ZM16.4992 10.1264C16.4023 10.1265 16.3066 10.1045 16.2194 10.0622C16.1322 10.0199 16.0558 9.95839 15.9958 9.88224C15.9376 9.808 15.6192 9.43616 15.0966 9.40768C14.4733 9.37376 14.0774 9.86304 14.0611 9.88384C13.9556 10.0169 13.8015 10.1025 13.6328 10.122C13.4641 10.1414 13.2946 10.0931 13.1616 9.98752C13.0286 9.88198 12.9429 9.72792 12.9235 9.55923C12.904 9.39054 12.9524 9.22103 13.0579 9.088C13.1942 8.91584 13.9373 8.06176 15.1664 8.128C16.2122 8.18528 16.8355 8.87776 17.0016 9.088C17.0759 9.18236 17.1221 9.29571 17.135 9.41509C17.1479 9.53448 17.127 9.65509 17.0746 9.76313C17.0221 9.87118 16.9404 9.9623 16.8387 10.0261C16.7369 10.0899 16.6193 10.1237 16.4992 10.1238V10.1264ZM12 17.1674H11.9843C11.0412 17.1593 10.137 16.7902 9.45755 16.136C8.77814 15.4817 8.37519 14.5921 8.33153 13.6499C8.32777 13.5636 8.34154 13.4773 8.37202 13.3964C8.40249 13.3156 8.44904 13.2417 8.50885 13.1793C8.56865 13.1169 8.64049 13.0672 8.72001 13.0333C8.79953 12.9994 8.88509 12.982 8.97153 12.9821H15.0291C15.1156 12.982 15.2011 12.9994 15.2807 13.0333C15.3602 13.0672 15.432 13.1169 15.4918 13.1793C15.5516 13.2417 15.5982 13.3156 15.6286 13.3964C15.6591 13.4773 15.6729 13.5636 15.6691 13.6499C15.6252 14.5948 15.2199 15.4868 14.537 16.1414C13.8542 16.796 12.9459 17.1633 12 17.1674ZM9.73857 14.2621C10.0653 15.1978 10.9645 15.8829 11.9898 15.8874H12C13.032 15.8874 13.9354 15.2029 14.2621 14.2621H9.73857Z" fill="#202020"/>
<path d="M17.0319 20.4557H6.96795C6.06016 20.4547 5.18984 20.0936 4.54793 19.4517C3.90603 18.8098 3.54496 17.9395 3.54395 17.0317V6.968C3.54496 6.06021 3.90603 5.18989 4.54793 4.54799C5.18984 3.90608 6.06016 3.54502 6.96795 3.544H17.0319C17.9397 3.54502 18.8101 3.90608 19.452 4.54799C20.0939 5.18989 20.4549 6.06021 20.4559 6.968V17.032C20.4548 17.9397 20.0937 18.81 19.4518 19.4518C18.8099 20.0936 17.9397 20.4547 17.0319 20.4557ZM6.96795 4.82432C6.39948 4.82483 5.85444 5.05088 5.45247 5.45284C5.0505 5.85481 4.82445 6.39985 4.82395 6.96832V17.0323C4.82445 17.6008 5.0505 18.1458 5.45247 18.5478C5.85444 18.9498 6.39948 19.1758 6.96795 19.1763H17.0319C17.6004 19.1758 18.1455 18.9498 18.5474 18.5478C18.9494 18.1458 19.1754 17.6008 19.1759 17.0323V6.968C19.1754 6.39953 18.9494 5.85449 18.5474 5.45252C18.1455 5.05056 17.6004 4.82451 17.0319 4.824L6.96795 4.82432Z" fill="#202020"/>
</svg>
