<svg width="24" height="24" viewBox="0 0 24 24" fill="none" xmlns="http://www.w3.org/2000/svg">
<path d="M5.46047 20.9472C4.79264 20.9472 4.1398 20.7492 3.58451 20.3781C3.02923 20.0071 2.59643 19.4797 2.34086 18.8627C2.08529 18.2457 2.01843 17.5668 2.14871 16.9118C2.279 16.2568 2.6006 15.6551 3.07283 15.1829C3.54506 14.7107 4.14672 14.3891 4.80172 14.2588C5.45673 14.1285 6.13566 14.1954 6.75266 14.4509C7.36966 14.7065 7.89702 15.1393 8.26805 15.6946C8.63908 16.2499 8.83711 16.9027 8.83711 17.5706C8.8361 18.4658 8.48002 19.324 7.847 19.9571C7.21397 20.5901 6.3557 20.9462 5.46047 20.9472ZM5.46047 15.4752C5.0458 15.4752 4.64043 15.5982 4.29564 15.8285C3.95085 16.0589 3.68212 16.3864 3.52343 16.7695C3.36474 17.1526 3.32322 17.5742 3.40412 17.9809C3.48502 18.3876 3.6847 18.7612 3.97792 19.0544C4.27115 19.3476 4.64473 19.5473 5.05144 19.6282C5.45815 19.7091 5.87971 19.6676 6.26282 19.5089C6.64593 19.3502 6.97338 19.0815 7.20377 18.7367C7.43415 18.3919 7.55711 17.9865 7.55711 17.5718C7.55677 17.0158 7.33581 16.4825 6.94273 16.0892C6.54964 15.6959 6.01655 15.4746 5.46047 15.4739V15.4752Z" fill="#202020"/>
<path d="M4.38912 18.8096C4.24223 18.8097 4.09976 18.7594 3.98562 18.6669C3.87148 18.5745 3.79262 18.4456 3.76226 18.3019C3.73191 18.1581 3.75191 18.0084 3.81891 17.8776C3.88591 17.7469 3.99584 17.6432 4.13024 17.584L4.90816 17.2403V16.4829C4.90816 16.3131 4.97558 16.1503 5.09561 16.0303C5.21563 15.9103 5.37842 15.8429 5.54816 15.8429C5.71789 15.8429 5.88068 15.9103 6.0007 16.0303C6.12073 16.1503 6.18816 16.3131 6.18816 16.4829V17.6573C6.18818 17.7813 6.15215 17.9028 6.08442 18.0067C6.0167 18.1107 5.92022 18.1927 5.80672 18.2429L4.64735 18.7549C4.56601 18.7909 4.47806 18.8095 4.38912 18.8096ZM17.167 18.368H11.1293C10.9595 18.368 10.7968 18.3006 10.6767 18.1805C10.5567 18.0605 10.4893 17.8977 10.4893 17.728C10.4893 17.5582 10.5567 17.3955 10.6767 17.2754C10.7968 17.1554 10.9595 17.088 11.1293 17.088H17.167C18.016 17.088 18.6323 16.4448 18.6323 15.5584V15.1424C18.6323 14.9726 18.6997 14.8099 18.8198 14.6898C18.9398 14.5698 19.1026 14.5024 19.2723 14.5024C19.4421 14.5024 19.6048 14.5698 19.7249 14.6898C19.8449 14.8099 19.9123 14.9726 19.9123 15.1424V15.5584C19.9123 17.1593 18.7322 18.368 17.167 18.368ZM4.72768 13.9379C4.55794 13.9379 4.39515 13.8705 4.27513 13.7505C4.1551 13.6304 4.08767 13.4676 4.08767 13.2979V8.8355C4.08852 8.10764 4.37802 7.40983 4.89266 6.89512C5.40731 6.38041 6.10509 6.09084 6.83295 6.0899H17.167C17.8949 6.09084 18.5927 6.38041 19.1073 6.89512C19.622 7.40983 19.9115 8.10764 19.9123 8.8355V9.8947C19.9123 10.0644 19.8449 10.2272 19.7249 10.3473C19.6048 10.4673 19.4421 10.5347 19.2723 10.5347C19.1026 10.5347 18.9398 10.4673 18.8198 10.3473C18.6997 10.2272 18.6323 10.0644 18.6323 9.8947V8.8355C18.6319 8.44699 18.4774 8.0745 18.2027 7.79975C17.928 7.525 17.5555 7.37041 17.167 7.3699H6.83295C6.44444 7.37041 6.07199 7.525 5.79729 7.79975C5.5226 8.0745 5.3681 8.44699 5.36768 8.8355V13.2979C5.36768 13.4676 5.30025 13.6304 5.18022 13.7505C5.0602 13.8705 4.89741 13.9379 4.72768 13.9379Z" fill="#202020"/>
<path d="M19.7258 14.3747H17.657C17.2706 14.3743 16.9002 14.2206 16.627 13.9474C16.3538 13.6742 16.2001 13.3038 16.1997 12.9174V12.1494C16.2001 11.7631 16.3538 11.3926 16.627 11.1194C16.9002 10.8462 17.2706 10.6926 17.657 10.6921H19.7258C20.1121 10.6923 20.4826 10.8457 20.7559 11.1186C21.0293 11.3916 21.1832 11.7618 21.184 12.1481V12.9161C21.1839 13.3029 21.0303 13.6738 20.7568 13.9473C20.4834 14.2208 20.1125 14.3745 19.7258 14.3747ZM17.657 11.9709C17.61 11.971 17.5649 11.9897 17.5317 12.0229C17.4985 12.0561 17.4798 12.1012 17.4797 12.1481V12.9161C17.4798 12.9631 17.4985 13.0082 17.5317 13.0414C17.5649 13.0746 17.61 13.0933 17.657 13.0934H19.7258C19.7728 13.0933 19.8178 13.0746 19.851 13.0414C19.8843 13.0082 19.903 12.9631 19.903 12.9161V12.1481C19.903 12.1011 19.8844 12.056 19.8511 12.0228C19.8179 11.9895 19.7728 11.9709 19.7258 11.9709H17.657ZM6.74369 7.37023C6.59243 7.37046 6.44598 7.31712 6.33031 7.21966C6.21464 7.12219 6.13723 6.98691 6.1118 6.83781C6.08637 6.68871 6.11458 6.53541 6.19141 6.40513C6.26825 6.27484 6.38874 6.17597 6.53153 6.12607L13.2659 3.75807C13.5307 3.66505 13.814 3.63686 14.0919 3.67584C14.3699 3.71481 14.6345 3.81984 14.8635 3.9821C15.0925 4.14437 15.2793 4.35915 15.4082 4.60846C15.5371 4.85777 15.6044 5.13435 15.6045 5.41503V6.72863C15.6045 6.89836 15.5371 7.06115 15.417 7.18117C15.297 7.3012 15.1342 7.36863 14.9645 7.36863C14.7948 7.36863 14.632 7.3012 14.5119 7.18117C14.3919 7.06115 14.3245 6.89836 14.3245 6.72863V5.41631C14.3242 5.34031 14.3058 5.26548 14.2707 5.19805C14.2357 5.13063 14.185 5.07257 14.1229 5.02873C14.0608 4.98488 13.9892 4.95652 13.9139 4.94601C13.8386 4.9355 13.762 4.94314 13.6902 4.96831L6.95585 7.33631C6.88755 7.35949 6.81582 7.37096 6.74369 7.37023ZM16.6986 9.63199H13.7846C13.6149 9.63199 13.4521 9.56456 13.3321 9.44453C13.2121 9.32451 13.1446 9.16172 13.1446 8.99199C13.1446 8.82225 13.2121 8.65946 13.3321 8.53944C13.4521 8.41941 13.6149 8.35199 13.7846 8.35199H16.6986C16.8683 8.35199 17.0311 8.41941 17.1511 8.53944C17.2711 8.65946 17.3386 8.82225 17.3386 8.99199C17.3386 9.16172 17.2711 9.32451 17.1511 9.44453C17.0311 9.56456 16.8683 9.63199 16.6986 9.63199Z" fill="#202020"/>
</svg>
