<svg width="24" height="24" viewBox="0 0 24 24" fill="none" xmlns="http://www.w3.org/2000/svg">
<path d="M18.5309 18.368H8.19712C7.46923 18.3671 6.77141 18.0776 6.25674 17.5629C5.74207 17.0481 5.45261 16.3503 5.45184 15.6224V8.8355C5.45261 8.10762 5.74207 7.40975 6.25674 6.89503C6.77141 6.3803 7.46923 6.09075 8.19712 6.0899H18.5309C19.2588 6.09075 19.9567 6.38029 20.4714 6.89501C20.9861 7.40972 21.2756 8.10759 21.2765 8.8355V9.78366C21.2765 9.9534 21.2091 10.1162 21.089 10.2362C20.969 10.3562 20.8062 10.4237 20.6365 10.4237C20.4667 10.4237 20.304 10.3562 20.1839 10.2362C20.0639 10.1162 19.9965 9.9534 19.9965 9.78366V8.8355C19.9961 8.44693 19.8415 8.0744 19.5668 7.79964C19.292 7.52488 18.9195 7.37033 18.5309 7.3699H8.19712C7.80861 7.37041 7.43615 7.525 7.16146 7.79975C6.88677 8.0745 6.73227 8.44699 6.73184 8.8355V15.6217C6.7321 16.0104 6.88653 16.383 7.16124 16.6579C7.43595 16.9328 7.8085 17.0875 8.19712 17.088H18.5309C18.9195 17.0876 19.292 16.933 19.5668 16.6583C19.8415 16.3835 19.9961 16.011 19.9965 15.6224V15.3389C19.9965 15.1691 20.0639 15.0063 20.1839 14.8863C20.304 14.7663 20.4667 14.6989 20.6365 14.6989C20.8062 14.6989 20.969 14.7663 21.089 14.8863C21.2091 15.0063 21.2765 15.1691 21.2765 15.3389V15.6224C21.2756 16.3503 20.9861 17.0482 20.4714 17.5629C19.9567 18.0776 19.2588 18.3671 18.5309 18.368Z" fill="#202020"/>
<path d="M8.01151 7.37022C7.86026 7.37045 7.7138 7.31711 7.59813 7.21965C7.48246 7.12218 7.40505 6.9869 7.37962 6.8378C7.3542 6.68869 7.3824 6.5354 7.45924 6.40511C7.53607 6.27483 7.65657 6.17596 7.79935 6.12606L15.0198 3.58878C15.2296 3.51503 15.4539 3.49262 15.6741 3.52344C15.8942 3.55425 16.1038 3.63739 16.2852 3.76588C16.4667 3.89437 16.6147 4.06447 16.7168 4.26193C16.8189 4.45939 16.8723 4.67846 16.8723 4.90078V6.72925C16.8723 6.89899 16.8049 7.06178 16.6849 7.1818C16.5648 7.30183 16.4021 7.36926 16.2323 7.36926C16.0626 7.36926 15.8998 7.30183 15.7798 7.1818C15.6597 7.06178 15.5923 6.89899 15.5923 6.72925V4.90142C15.5924 4.88362 15.5881 4.86606 15.58 4.85024C15.5718 4.83442 15.56 4.82079 15.5455 4.8105C15.5309 4.80021 15.5142 4.79356 15.4965 4.79112C15.4789 4.78867 15.4609 4.7905 15.4442 4.79646L8.22399 7.33373C8.15573 7.35778 8.08389 7.37012 8.01151 7.37022ZM18.1411 9.63198H15.2272C15.0575 9.63198 14.8947 9.56455 14.7746 9.44452C14.6546 9.3245 14.5872 9.16171 14.5872 8.99198C14.5872 8.82224 14.6546 8.65945 14.7746 8.53943C14.8947 8.4194 15.0575 8.35198 15.2272 8.35198H18.1411C18.3108 8.35198 18.4736 8.4194 18.5937 8.53943C18.7137 8.65945 18.7811 8.82224 18.7811 8.99198C18.7811 9.16171 18.7137 9.3245 18.5937 9.44452C18.4736 9.56455 18.3108 9.63198 18.1411 9.63198ZM20.6586 14.3747H18.8739C18.4496 14.3747 18.0426 14.2061 17.7425 13.9061C17.4425 13.606 17.2739 13.199 17.2739 12.7747V12.2902C17.2739 11.8659 17.4425 11.4589 17.7425 11.1588C18.0426 10.8588 18.4496 10.6902 18.8739 10.6902H20.6586C21.0829 10.6902 21.4899 10.8588 21.7899 11.1588C22.09 11.4589 22.2586 11.8659 22.2586 12.2902V12.7753C22.2584 13.1996 22.0897 13.6064 21.7897 13.9063C21.4897 14.2062 21.0828 14.3747 20.6586 14.3747ZM18.8739 11.9709C18.789 11.9709 18.7077 12.0046 18.6476 12.0646C18.5876 12.1246 18.5539 12.206 18.5539 12.2909V12.776C18.5539 12.8608 18.5876 12.9422 18.6476 13.0023C18.7077 13.0623 18.789 13.096 18.8739 13.096H20.6586C20.7434 13.096 20.8248 13.0623 20.8848 13.0023C20.9448 12.9422 20.9786 12.8608 20.9786 12.776V12.2902C20.9786 12.2053 20.9448 12.124 20.8848 12.0639C20.8248 12.0039 20.7434 11.9702 20.6586 11.9702L18.8739 11.9709Z" fill="#202020"/>
</svg>
