<svg width="24" height="24" viewBox="0 0 24 24" fill="none" xmlns="http://www.w3.org/2000/svg">
<path d="M4.98817 21.0957C4.32025 21.0957 3.66732 20.8977 3.11194 20.5267C2.55656 20.1557 2.12368 19.6283 1.86803 19.0112C1.61239 18.3942 1.54547 17.7152 1.67574 17.0601C1.806 16.405 2.1276 15.8032 2.59986 15.3309C3.07213 14.8586 3.67384 14.537 4.32892 14.4066C4.98399 14.2763 5.663 14.3432 6.28008 14.5988C6.89716 14.8543 7.42459 15.2872 7.79566 15.8425C8.16674 16.3979 8.36481 17.0508 8.36481 17.7187C8.36379 18.614 8.00772 19.4723 7.37471 20.1053C6.7417 20.7384 5.88343 21.0946 4.98817 21.0957ZM4.98817 15.6237C4.5734 15.6236 4.16793 15.7465 3.82304 15.9769C3.47815 16.2073 3.20932 16.5348 3.05057 16.918C2.89182 17.3012 2.85026 17.7228 2.93116 18.1296C3.01207 18.5364 3.21179 18.9101 3.50507 19.2034C3.79836 19.4967 4.17203 19.6964 4.57883 19.7773C4.98563 19.8582 5.40728 19.8166 5.79047 19.6579C6.17365 19.4991 6.50115 19.2303 6.73154 18.8854C6.96193 18.5405 7.08487 18.1351 7.08481 17.7203C7.08455 17.1642 6.86363 16.6309 6.47053 16.2375C6.07744 15.8441 5.5443 15.6227 4.98817 15.6221V15.6237Z" fill="#202020"/>
<path d="M4.66144 19.0432C4.49848 19.0434 4.34163 18.9812 4.22304 18.8694L3.59808 18.2822C3.53621 18.2248 3.48631 18.1558 3.45123 18.079C3.41616 18.0023 3.39661 17.9193 3.39372 17.835C3.39082 17.7506 3.40464 17.6666 3.43436 17.5876C3.46409 17.5086 3.50914 17.4363 3.56693 17.3748C3.62472 17.3133 3.6941 17.2638 3.77108 17.2292C3.84806 17.1946 3.93112 17.1756 4.01547 17.1733C4.09983 17.1709 4.18382 17.1853 4.26261 17.2155C4.3414 17.2457 4.41343 17.2912 4.47456 17.3494L4.66464 17.528L5.70592 16.5648C5.83124 16.4543 5.99481 16.3971 6.16169 16.4056C6.32856 16.414 6.48551 16.4874 6.599 16.6101C6.71249 16.7327 6.77352 16.8949 6.76904 17.0619C6.76456 17.2289 6.69494 17.3876 6.57504 17.504L5.096 18.8726C4.97791 18.9824 4.82265 19.0433 4.66144 19.0432ZM17.167 18.368H11.1293C10.9595 18.368 10.7968 18.3006 10.6767 18.1805C10.5567 18.0605 10.4893 17.8977 10.4893 17.728C10.4893 17.5582 10.5567 17.3955 10.6767 17.2754C10.7968 17.1554 10.9595 17.088 11.1293 17.088H17.167C18.016 17.088 18.6323 16.4448 18.6323 15.5584V15.2704C18.6323 15.1006 18.6997 14.9379 18.8198 14.8178C18.9398 14.6978 19.1026 14.6304 19.2723 14.6304C19.4421 14.6304 19.6048 14.6978 19.7249 14.8178C19.8449 14.9379 19.9123 15.1006 19.9123 15.2704V15.5584C19.9123 17.1593 18.7322 18.368 17.167 18.368ZM4.72768 13.9379C4.55794 13.9379 4.39516 13.8705 4.27513 13.7505C4.15511 13.6304 4.08768 13.4676 4.08768 13.2979V8.8355C4.08853 8.10764 4.37803 7.40983 4.89267 6.89512C5.40732 6.38041 6.1051 6.09084 6.83296 6.0899H17.167C17.8949 6.09084 18.5927 6.38041 19.1073 6.89512C19.622 7.40983 19.9115 8.10764 19.9123 8.8355V9.8307C19.9123 10.0004 19.8449 10.1632 19.7249 10.2833C19.6048 10.4033 19.4421 10.4707 19.2723 10.4707C19.1026 10.4707 18.9398 10.4033 18.8198 10.2833C18.6997 10.1632 18.6323 10.0004 18.6323 9.8307V8.8355C18.6319 8.44699 18.4774 8.0745 18.2027 7.79975C17.928 7.525 17.5556 7.37041 17.167 7.3699H6.83296C6.44445 7.37041 6.07199 7.525 5.7973 7.79975C5.52261 8.0745 5.36811 8.44699 5.36768 8.8355V13.2979C5.36768 13.4676 5.30025 13.6304 5.18023 13.7505C5.06021 13.8705 4.89742 13.9379 4.72768 13.9379Z" fill="#202020"/>
<path d="M19.7258 14.3747H17.657C17.2706 14.3743 16.9002 14.2206 16.6271 13.9474C16.3539 13.6742 16.2003 13.3038 16.2 12.9174V12.1494C16.2003 11.7631 16.3539 11.3927 16.6271 11.1195C16.9002 10.8463 17.2706 10.6926 17.657 10.6921H19.7258C20.1121 10.6923 20.4825 10.8457 20.7559 11.1186C21.0293 11.3916 21.1832 11.7618 21.184 12.1481V12.9161C21.1839 13.3029 21.0303 13.6738 20.7568 13.9473C20.4834 14.2208 20.1125 14.3745 19.7258 14.3747ZM17.657 11.9709C17.61 11.971 17.565 11.9897 17.5318 12.0229C17.4986 12.0561 17.48 12.1012 17.48 12.1481V12.9161C17.48 12.9631 17.4986 13.0082 17.5318 13.0414C17.565 13.0746 17.61 13.0933 17.657 13.0934H19.7258C19.7727 13.0933 19.8178 13.0746 19.851 13.0414C19.8842 13.0082 19.9029 12.9631 19.903 12.9161V12.1481C19.903 12.1011 19.8844 12.056 19.8511 12.0228C19.8179 11.9895 19.7728 11.9709 19.7258 11.9709H17.657ZM6.74367 7.37023C6.59242 7.37046 6.44597 7.31712 6.3303 7.21966C6.21462 7.12219 6.13721 6.98691 6.11178 6.83781C6.08636 6.68871 6.11456 6.53541 6.1914 6.40513C6.26823 6.27484 6.38873 6.17597 6.53151 6.12607L13.2659 3.75807C13.5307 3.66505 13.814 3.63686 14.0919 3.67584C14.3699 3.71481 14.6345 3.81984 14.8635 3.9821C15.0925 4.14437 15.2793 4.35915 15.4082 4.60846C15.5371 4.85777 15.6044 5.13435 15.6045 5.41503V6.72863C15.6045 6.89836 15.537 7.06115 15.417 7.18117C15.297 7.3012 15.1342 7.36863 14.9645 7.36863C14.7947 7.36863 14.6319 7.3012 14.5119 7.18117C14.3919 7.06115 14.3245 6.89836 14.3245 6.72863V5.41631C14.3242 5.34031 14.3058 5.26548 14.2707 5.19805C14.2357 5.13063 14.185 5.07257 14.1229 5.02873C14.0608 4.98488 13.9892 4.95652 13.9139 4.94601C13.8386 4.9355 13.7619 4.94314 13.6902 4.96831L6.95583 7.33631C6.88753 7.35949 6.8158 7.37096 6.74367 7.37023ZM16.6986 9.63199H13.7846C13.6149 9.63199 13.4521 9.56456 13.3321 9.44453C13.2121 9.32451 13.1446 9.16172 13.1446 8.99199C13.1446 8.82225 13.2121 8.65946 13.3321 8.53944C13.4521 8.41941 13.6149 8.35199 13.7846 8.35199H16.6986C16.8683 8.35199 17.0311 8.41941 17.1511 8.53944C17.2711 8.65946 17.3386 8.82225 17.3386 8.99199C17.3386 9.16172 17.2711 9.32451 17.1511 9.44453C17.0311 9.56456 16.8683 9.63199 16.6986 9.63199Z" fill="#202020"/>
</svg>
