<svg width="24" height="24" viewBox="0 0 24 24" fill="none" xmlns="http://www.w3.org/2000/svg">
<path d="M17.0319 20.9347H6.96795C6.06016 20.9337 5.18984 20.5726 4.54793 19.9307C3.90603 19.2888 3.54496 18.4185 3.54395 17.5107V7.44701C3.54488 6.5392 3.90592 5.66883 4.54784 5.02691C5.18976 4.38498 6.06013 4.02394 6.96795 4.02301H17.0319C17.9398 4.02394 18.8101 4.38498 19.452 5.02691C20.094 5.66883 20.455 6.5392 20.4559 7.44701V17.511C20.4548 18.4187 20.0937 19.289 19.4518 19.9308C18.8099 20.5727 17.9397 20.9337 17.0319 20.9347ZM6.96795 5.30365C6.39948 5.30416 5.85444 5.53021 5.45247 5.93217C5.0505 6.33414 4.82445 6.87918 4.82395 7.44765V17.5117C4.82445 18.0801 5.0505 18.6252 5.45247 19.0271C5.85444 19.4291 6.39948 19.6551 6.96795 19.6557H17.0319C17.6004 19.6551 18.1455 19.4291 18.5474 19.0271C18.9494 18.6252 19.1754 18.0801 19.1759 17.5117V7.44701C19.1754 6.87854 18.9494 6.3335 18.5474 5.93153C18.1455 5.52957 17.6004 5.30352 17.0319 5.30301L6.96795 5.30365Z" fill="#202020"/>
<path d="M11.1238 18.4259C10.6818 18.426 10.2529 18.2756 9.90778 17.9994L7.24826 15.8832C6.8419 15.5592 6.58067 15.0872 6.52188 14.5708C6.46309 14.0544 6.61154 13.5357 6.93466 13.1287L11.3388 7.59265C11.6626 7.1859 12.1347 6.9244 12.6512 6.86565C13.1678 6.80691 13.6865 6.95572 14.0934 7.27937L16.7529 9.39553C17.1593 9.71957 17.4205 10.1916 17.4793 10.708C17.5381 11.2244 17.3896 11.743 17.0665 12.1501L12.6623 17.6861C12.5026 17.888 12.3043 18.0562 12.0791 18.181C11.8539 18.3058 11.6062 18.3847 11.3503 18.4131C11.2751 18.4217 11.1995 18.426 11.1238 18.4259ZM10.7039 16.9978C10.7739 17.0534 10.8541 17.0948 10.94 17.1194C11.0259 17.1441 11.1158 17.1516 11.2046 17.1415C11.2934 17.1314 11.3793 17.1039 11.4574 17.0605C11.5356 17.0172 11.6045 16.9589 11.6601 16.889L16.0639 11.3546C16.1757 11.2134 16.2271 11.0338 16.2067 10.8549C16.1864 10.676 16.0961 10.5125 15.9555 10.4L13.2959 8.28225C13.226 8.2266 13.1458 8.18526 13.0599 8.1606C12.974 8.13595 12.8841 8.12846 12.7953 8.13856C12.7065 8.14867 12.6206 8.17617 12.5424 8.21949C12.4643 8.26281 12.3954 8.32111 12.3398 8.39105L7.93594 13.9255C7.82366 14.0667 7.77203 14.2467 7.79237 14.426C7.81271 14.6052 7.90336 14.7691 8.04442 14.8816L10.7039 16.9978Z" fill="#202020"/>
<path d="M13.6976 15.9959C13.553 15.996 13.4126 15.9469 13.2995 15.8567L8.57378 12.096C8.50671 12.0442 8.45062 11.9795 8.40876 11.9057C8.3669 11.832 8.34011 11.7507 8.32994 11.6665C8.31977 11.5824 8.32642 11.497 8.34952 11.4154C8.37261 11.3339 8.41169 11.2577 8.46447 11.1913C8.51725 11.125 8.58269 11.0698 8.65699 11.0289C8.73128 10.9881 8.81296 10.9624 8.89726 10.9534C8.98156 10.9444 9.06681 10.9522 9.14807 10.9764C9.22932 11.0006 9.30495 11.0407 9.37057 11.0944L14.0967 14.8551C14.2006 14.9378 14.2762 15.0507 14.313 15.1783C14.3499 15.3059 14.3461 15.4418 14.3023 15.5672C14.2584 15.6925 14.1767 15.8011 14.0683 15.878C13.96 15.9548 13.8304 15.996 13.6976 15.9959Z" fill="#202020"/>
</svg>
