<svg width="24" height="24" viewBox="0 0 24 24" fill="none" xmlns="http://www.w3.org/2000/svg">
<path d="M17.0319 20.4557H6.96795C6.06016 20.4547 5.18984 20.0936 4.54793 19.4517C3.90603 18.8098 3.54496 17.9395 3.54395 17.0317V6.968C3.54496 6.06021 3.90603 5.18989 4.54793 4.54799C5.18984 3.90608 6.06016 3.54502 6.96795 3.544H17.0319C17.9397 3.54502 18.8101 3.90608 19.452 4.54799C20.0939 5.18989 20.4549 6.06021 20.4559 6.968V17.032C20.4548 17.9397 20.0937 18.81 19.4518 19.4518C18.8099 20.0936 17.9397 20.4547 17.0319 20.4557ZM6.96795 4.82432C6.39948 4.82483 5.85444 5.05088 5.45247 5.45284C5.0505 5.85481 4.82445 6.39985 4.82395 6.96832V17.0323C4.82445 17.6008 5.0505 18.1458 5.45247 18.5478C5.85444 18.9498 6.39948 19.1758 6.96795 19.1763H17.0319C17.6004 19.1758 18.1455 18.9498 18.5474 18.5478C18.9494 18.1458 19.1754 17.6008 19.1759 17.0323V6.968C19.1754 6.39953 18.9494 5.85449 18.5474 5.45252C18.1455 5.05056 17.6004 4.82451 17.0319 4.824L6.96795 4.82432Z" fill="#202020"/>
<path d="M12.8387 20.367H10.4707C10.301 20.367 10.1382 20.2996 10.0182 20.1796C9.89817 20.0596 9.83074 19.8968 9.83074 19.727V14.4499H8.79234C8.62261 14.4499 8.45982 14.3825 8.3398 14.2625C8.21977 14.1424 8.15234 13.9797 8.15234 13.8099V11.552C8.15234 11.3823 8.21977 11.2195 8.3398 11.0994C8.45982 10.9794 8.62261 10.912 8.79234 10.912H9.82978V8.59488C9.83055 7.91842 10.0996 7.26988 10.5779 6.79152C11.0562 6.31316 11.7047 6.04404 12.3811 6.0432H15.2077C15.3774 6.0432 15.5402 6.11063 15.6603 6.23065C15.7803 6.35067 15.8477 6.51346 15.8477 6.6832V9.21312C15.8477 9.38286 15.7803 9.54564 15.6603 9.66567C15.5402 9.78569 15.3774 9.85312 15.2077 9.85312H13.4797V10.912H14.5251C14.6949 10.912 14.8577 10.9794 14.9777 11.0994C15.0977 11.2195 15.1651 11.3823 15.1651 11.552V13.8109C15.1651 13.9806 15.0977 14.1434 14.9777 14.2634C14.8577 14.3834 14.6949 14.4509 14.5251 14.4509H13.4787V19.727C13.4787 19.8968 13.4113 20.0596 13.2913 20.1796C13.1713 20.2996 13.0085 20.367 12.8387 20.367ZM11.1107 19.087H12.1987V13.8099C12.1987 13.6402 12.2662 13.4774 12.3862 13.3574C12.5062 13.2373 12.669 13.1699 12.8387 13.1699H13.8842V12.192H12.8387C12.669 12.192 12.5062 12.1246 12.3862 12.0045C12.2662 11.8845 12.1987 11.7217 12.1987 11.552V9.21312C12.1987 9.04338 12.2662 8.88059 12.3862 8.76057C12.5062 8.64055 12.669 8.57312 12.8387 8.57312H14.5667V7.3232H12.3811C12.044 7.32362 11.7209 7.45775 11.4825 7.69615C11.2442 7.93456 11.1101 8.25777 11.1098 8.59488V11.552C11.1098 11.7217 11.0424 11.8845 10.9223 12.0045C10.8023 12.1246 10.6395 12.192 10.4698 12.192H9.43234V13.1709H10.4698C10.6395 13.1709 10.8023 13.2383 10.9223 13.3583C11.0424 13.4784 11.1098 13.6411 11.1098 13.8109L11.1107 19.087Z" fill="#202020"/>
</svg>
