<svg width="24" height="24" viewBox="0 0 24 24" fill="none" xmlns="http://www.w3.org/2000/svg">
<path d="M18.8775 7.8075H15.8175C15.6549 7.80288 15.4982 7.74552 15.371 7.64406C15.2438 7.54259 15.1531 7.40253 15.1125 7.245L14.205 4.35C14.057 3.89984 13.7707 3.50789 13.3869 3.23002C13.0031 2.95216 12.5413 2.80256 12.0675 2.80256C11.5936 2.80256 11.1319 2.95216 10.7481 3.23002C10.3642 3.50789 10.0779 3.89984 9.92999 4.35L8.99999 7.245C8.95903 7.40374 8.86718 7.5447 8.7385 7.64628C8.60983 7.74787 8.4514 7.8045 8.28749 7.8075H5.24999C4.7825 7.81306 4.32836 7.9641 3.95067 8.23964C3.57298 8.51518 3.2905 8.90153 3.14249 9.345C2.97124 9.81006 2.95158 10.3174 3.0863 10.7943C3.22102 11.2712 3.50323 11.6933 3.89249 12L6.42749 14.0175C6.5665 14.1348 6.66671 14.2915 6.71491 14.4669C6.76311 14.6422 6.75704 14.8281 6.69749 15L5.78249 18C5.62884 18.4817 5.63331 19 5.79524 19.479C5.95717 19.9581 6.26806 20.3728 6.68249 20.6625C7.06321 20.9322 7.52104 21.0714 7.98747 21.0592C8.45389 21.0471 8.90384 20.8842 9.26999 20.595L11.64 18.765C11.7611 18.6707 11.9102 18.6195 12.0637 18.6195C12.2172 18.6195 12.3663 18.6707 12.4875 18.765L14.865 20.595C15.23 20.8836 15.6786 21.0461 16.1437 21.0583C16.6089 21.0705 17.0654 20.9316 17.445 20.6625C17.8594 20.3728 18.1703 19.9581 18.3322 19.479C18.4942 19 18.4986 18.4817 18.345 18L17.4375 15C17.3824 14.8324 17.3787 14.6522 17.4268 14.4825C17.4749 14.3127 17.5727 14.1613 17.7075 14.0475L20.25 12C20.6402 11.694 20.9231 11.272 21.0579 10.7948C21.1927 10.3176 21.1724 9.80992 21 9.345C20.8511 8.89912 20.5664 8.51106 20.1857 8.23531C19.805 7.95955 19.3475 7.80994 18.8775 7.8075ZM19.3125 10.8075L16.7775 12.8175C16.4125 13.1243 16.1464 13.5324 16.013 13.9902C15.8795 14.448 15.8846 14.9351 16.0275 15.39L16.9425 18.39C17.0022 18.5671 17.0039 18.7586 16.9472 18.9366C16.8906 19.1147 16.7786 19.27 16.6275 19.38C16.5105 19.4706 16.3667 19.5198 16.2187 19.5198C16.0708 19.5198 15.927 19.4706 15.81 19.38L13.4325 17.5575C13.0501 17.2589 12.5789 17.0967 12.0937 17.0967C11.6086 17.0967 11.1374 17.2589 10.755 17.5575L8.38499 19.38C8.26854 19.4718 8.12455 19.5218 7.97624 19.5218C7.82792 19.5218 7.68393 19.4718 7.56749 19.38C7.41641 19.27 7.30439 19.1147 7.24773 18.9366C7.19107 18.7586 7.19274 18.5671 7.25249 18.39L8.15999 15.39C8.30496 14.9352 8.31103 14.4476 8.17743 13.9893C8.04384 13.5311 7.77664 13.1231 7.40999 12.8175L4.82249 10.83C4.6802 10.7135 4.57774 10.5555 4.52935 10.3781C4.48097 10.2007 4.48905 10.0126 4.55249 9.84C4.59811 9.68924 4.69003 9.55667 4.81523 9.46109C4.94042 9.36551 5.09253 9.31177 5.24999 9.3075H8.30999C8.79425 9.30426 9.26455 9.14488 9.65099 8.85302C10.0374 8.56116 10.3194 8.1524 10.455 7.6875L11.355 4.8C11.4103 4.66011 11.5064 4.54007 11.6307 4.45548C11.7551 4.3709 11.9021 4.32567 12.0525 4.32567C12.2029 4.32567 12.3499 4.3709 12.4742 4.45548C12.5986 4.54007 12.6947 4.66011 12.75 4.8L13.6575 7.6875C13.7927 8.15118 14.0735 8.55905 14.4585 8.85079C14.8434 9.14253 15.312 9.30266 15.795 9.3075H18.855C19.0124 9.31177 19.1645 9.36551 19.2897 9.46109C19.4149 9.55667 19.5069 9.68924 19.5525 9.84C19.6216 10.0093 19.6356 10.1961 19.5925 10.3738C19.5494 10.5515 19.4515 10.7111 19.3125 10.83V10.8075Z" fill="#202020"/>
</svg>
