<svg width="24" height="24" viewBox="0 0 24 24" fill="none" xmlns="http://www.w3.org/2000/svg">
<path d="M14.3754 18.8227H6.71999C5.93756 18.8221 5.18735 18.5111 4.63406 17.9578C4.08077 17.4046 3.76963 16.6544 3.76895 15.872V7.30463C3.7698 6.52232 4.08101 5.7723 4.63429 5.21921C5.18756 4.66612 5.93767 4.35515 6.71999 4.35455H15.2874C16.0695 4.3554 16.8194 4.66648 17.3724 5.21955C17.9255 5.77261 18.2366 6.52248 18.2374 7.30463V12.9872C18.2374 13.1569 18.17 13.3197 18.05 13.4397C17.93 13.5598 17.7672 13.6272 17.5974 13.6272C17.4277 13.6272 17.2649 13.5598 17.1449 13.4397C17.0249 13.3197 16.9574 13.1569 16.9574 12.9872V7.30463C16.9569 6.86186 16.7808 6.43736 16.4677 6.12427C16.1546 5.81118 15.7301 5.63506 15.2874 5.63455H6.71999C6.27721 5.63506 5.85272 5.81118 5.53963 6.12427C5.22654 6.43736 5.05042 6.86186 5.04991 7.30463V15.872C5.05017 16.3149 5.22618 16.7396 5.53931 17.0529C5.85244 17.3661 6.27708 17.5423 6.71999 17.5427H14.3754C14.5451 17.5427 14.7079 17.6101 14.8279 17.7302C14.9479 17.8502 15.0154 18.013 15.0154 18.1827C15.0154 18.3525 14.9479 18.5152 14.8279 18.6353C14.7079 18.7553 14.5451 18.8227 14.3754 18.8227Z" fill="#202020"/>
<path d="M7.96031 13.5222C7.82785 13.5223 7.69862 13.4814 7.59044 13.4049C7.48227 13.3285 7.40047 13.2204 7.35633 13.0955C7.3122 12.9706 7.3079 12.8351 7.34404 12.7076C7.38017 12.5802 7.45495 12.4671 7.55807 12.384L9.85407 10.5318C9.98131 10.4292 10.143 10.3791 10.306 10.3919C10.469 10.4047 10.6209 10.4794 10.7306 10.6006L11.9843 11.9859L13.6246 10.5488C13.7527 10.4399 13.9184 10.3857 14.0861 10.398C14.2538 10.4103 14.4099 10.488 14.5207 10.6145C14.6315 10.7409 14.6881 10.9058 14.6782 11.0737C14.6684 11.2415 14.5929 11.3987 14.4682 11.5114L12.3542 13.3635C12.2279 13.4741 12.0632 13.5307 11.8956 13.521C11.728 13.5113 11.5709 13.4361 11.4582 13.3117L10.1875 11.9078L8.36191 13.3798C8.24834 13.472 8.10655 13.5222 7.96031 13.5222ZM16.3334 19.6445C16.1749 19.6442 16.0188 19.6065 15.8776 19.5344C15.7365 19.4623 15.6144 19.3579 15.5213 19.2297C15.4281 19.1014 15.3666 18.953 15.3418 18.7964C15.3169 18.6399 15.3294 18.4797 15.3782 18.329L15.5747 17.7242L15.0602 17.3504C14.8886 17.2257 14.7609 17.0499 14.6954 16.8482C14.6299 16.6465 14.6299 16.4292 14.6955 16.2275C14.761 16.0258 14.8887 15.85 15.0603 15.7253C15.2318 15.6007 15.4385 15.5335 15.6506 15.5334H16.288L16.4845 14.9286C16.5497 14.7267 16.6774 14.5507 16.8491 14.426C17.0209 14.3013 17.2278 14.2344 17.44 14.2349C17.6522 14.2345 17.859 14.3015 18.0306 14.4261C18.2023 14.5508 18.3299 14.7268 18.3952 14.9286L18.5917 15.5334H19.2275C19.4396 15.5335 19.6462 15.6007 19.8178 15.7253C19.9893 15.85 20.117 16.0258 20.1826 16.2275C20.2481 16.4292 20.2481 16.6465 20.1826 16.8482C20.1171 17.0499 19.9895 17.2257 19.8179 17.3504L19.3034 17.7242L19.4998 18.329C19.5659 18.531 19.5662 18.7488 19.5006 18.951C19.435 19.1532 19.307 19.3294 19.1349 19.4542C18.9629 19.579 18.7556 19.6461 18.5431 19.6456C18.3305 19.6452 18.1236 19.5773 17.952 19.4518L17.44 19.0781L16.9254 19.4518C16.7535 19.5772 16.5462 19.6447 16.3334 19.6445ZM16.4989 16.8134C16.666 16.9375 16.7903 17.1105 16.8545 17.3085C16.9188 17.5064 16.9199 17.7195 16.8576 17.9181C17.0271 17.7974 17.2301 17.7325 17.4382 17.7325C17.6464 17.7325 17.8493 17.7974 18.0189 17.9181C17.9566 17.7195 17.9576 17.5064 18.022 17.3084C18.0863 17.1105 18.2107 16.9374 18.3779 16.8134C18.1701 16.8111 17.9681 16.7441 17.8 16.6218C17.632 16.4995 17.5061 16.3279 17.44 16.1309C17.3736 16.3284 17.2473 16.5003 17.0786 16.6227C16.9099 16.745 16.7073 16.8117 16.4989 16.8134Z" fill="#202020"/>
</svg>
