<svg width="24" height="24" viewBox="0 0 24 24" fill="none" xmlns="http://www.w3.org/2000/svg">
<path d="M17.032 20.4556H6.96801C6.06022 20.4546 5.1899 20.0935 4.548 19.4516C3.90609 18.8097 3.54502 17.9394 3.54401 17.0316V6.96795C3.54502 6.06016 3.90609 5.18984 4.548 4.54793C5.1899 3.90603 6.06022 3.54496 6.96801 3.54395H17.032C17.9398 3.54496 18.8101 3.90603 19.452 4.54793C20.0939 5.18984 20.455 6.06016 20.456 6.96795V17.0319C20.4549 17.9397 20.0938 18.8099 19.4519 19.4517C18.81 20.0936 17.9397 20.4546 17.032 20.4556ZM6.96801 4.82427C6.39954 4.82477 5.8545 5.05082 5.45253 5.45279C5.05056 5.85476 4.82451 6.3998 4.82401 6.96826V17.0323C4.82451 17.6007 5.05056 18.1458 5.45253 18.5477C5.8545 18.9497 6.39954 19.1758 6.96801 19.1763H17.032C17.6005 19.1758 18.1455 18.9497 18.5475 18.5477C18.9494 18.1458 19.1755 17.6007 19.176 17.0323V6.96795C19.1755 6.39948 18.9494 5.85444 18.5475 5.45247C18.1455 5.0505 17.6005 4.82445 17.032 4.82395L6.96801 4.82427Z" fill="#202020"/>
<path d="M11.936 18.0189H11.7498C11.3794 18.0185 11.0244 17.8712 10.7626 17.6093C10.5007 17.3475 10.3534 16.9924 10.353 16.6221V14.5101C10.3528 14.3432 10.3182 14.1782 10.2515 14.0253C10.1848 13.8723 10.0873 13.7348 9.96513 13.6211L7.98113 11.7811C7.5319 11.3646 7.25188 10.7972 7.19457 10.1872L7.09857 9.15426C7.07373 8.89053 7.10419 8.62452 7.18802 8.37325C7.27185 8.12197 7.4072 7.89095 7.58542 7.69496C7.76363 7.49898 7.98078 7.34235 8.22299 7.23508C8.46519 7.12782 8.72712 7.07228 8.99201 7.07202H15.1591C15.4273 7.07205 15.6924 7.12875 15.9372 7.2384C16.182 7.34806 16.4008 7.5082 16.5794 7.70833C16.7579 7.90846 16.8922 8.14406 16.9733 8.3997C17.0545 8.65533 17.0807 8.92523 17.0503 9.1917L16.912 10.4029C16.8546 10.9123 16.6408 11.3914 16.3002 11.7744L14.784 13.4826C14.587 13.7044 14.4783 13.9907 14.4784 14.2874V15.4759C14.4777 16.15 14.2096 16.7963 13.733 17.273C13.2563 17.7497 12.6101 18.018 11.936 18.0189ZM8.99201 8.35202C8.90518 8.35204 8.81931 8.37019 8.7399 8.4053C8.66049 8.44042 8.58929 8.49173 8.53085 8.55595C8.47241 8.62017 8.42802 8.69589 8.40054 8.77825C8.37305 8.86062 8.36306 8.94782 8.37121 9.03426L8.46721 10.0672C8.4949 10.3639 8.63106 10.64 8.84961 10.8426L10.8336 12.6826C11.0848 12.9162 11.2852 13.199 11.4224 13.5134C11.5596 13.8278 11.6306 14.1671 11.6311 14.5101V16.6221C11.6311 16.6531 11.6435 16.6827 11.6654 16.7046C11.6872 16.7265 11.7169 16.7388 11.7479 16.7389H11.936C12.2709 16.7386 12.5919 16.6054 12.8287 16.3686C13.0655 16.1318 13.1987 15.8107 13.1991 15.4759V14.2874C13.1989 13.6776 13.4224 13.089 13.8272 12.633L15.3434 10.9239C15.5092 10.7376 15.6133 10.5045 15.6413 10.2567L15.7795 9.04546C15.7894 8.95815 15.7807 8.86974 15.754 8.78603C15.7273 8.70232 15.6833 8.62519 15.6247 8.55971C15.5661 8.49424 15.4943 8.44188 15.4141 8.40609C15.3338 8.3703 15.2469 8.35187 15.1591 8.35202H8.99201Z" fill="#202020"/>
</svg>
