<svg width="24" height="24" viewBox="0 0 24 24" fill="none" xmlns="http://www.w3.org/2000/svg">
<path d="M11.7862 20.5488H11.5021C11.027 20.5481 10.5716 20.3591 10.2357 20.0232C9.89977 19.6873 9.71076 19.2319 9.71008 18.7568V15.5373C9.70973 15.237 9.64756 14.9399 9.52743 14.6646C9.4073 14.3894 9.2318 14.1418 9.01184 13.9373L5.98976 11.136C5.36473 10.5574 4.97526 9.7684 4.896 8.92034L4.74784 7.34658C4.71433 6.99104 4.75545 6.63242 4.86854 6.29369C4.98163 5.95496 5.16422 5.64357 5.40461 5.37948C5.64499 5.11539 5.93788 4.90441 6.26451 4.76004C6.59115 4.61568 6.94433 4.54112 7.30144 4.54114H16.6973C17.0587 4.54115 17.416 4.61753 17.7458 4.76527C18.0756 4.913 18.3705 5.12877 18.6111 5.39841C18.8517 5.66806 19.0326 5.98551 19.142 6.32996C19.2514 6.6744 19.2867 7.03807 19.2458 7.39714L19.0349 9.24226C18.9553 9.94994 18.6584 10.6156 18.185 11.1475L17.6694 11.7283C17.6148 11.7947 17.5473 11.8493 17.471 11.8889C17.3948 11.9286 17.3113 11.9525 17.2256 11.9592C17.1399 11.9659 17.0537 11.9553 16.9722 11.928C16.8907 11.9007 16.8156 11.8572 16.7512 11.8002C16.6869 11.7432 16.6347 11.6738 16.5978 11.5962C16.5608 11.5186 16.5399 11.4343 16.5362 11.3484C16.5326 11.2626 16.5463 11.1768 16.5765 11.0963C16.6067 11.0159 16.6528 10.9423 16.712 10.88L17.2275 10.2992C17.5259 9.96386 17.713 9.54431 17.7632 9.09826L17.9741 7.25314C17.9946 7.07326 17.9769 6.89107 17.9221 6.71852C17.8673 6.54597 17.7766 6.38694 17.6561 6.25186C17.5355 6.11678 17.3878 6.0087 17.2226 5.93469C17.0573 5.86068 16.8783 5.82242 16.6973 5.82242H7.30272C7.12377 5.82234 6.94677 5.85965 6.78307 5.93194C6.61937 6.00422 6.47256 6.10991 6.35207 6.24221C6.23157 6.37452 6.14003 6.53053 6.08332 6.70026C6.02661 6.86999 6.00597 7.04969 6.02272 7.22786L6.17152 8.80002C6.22152 9.33408 6.46671 9.83095 6.86016 10.1955L9.88192 12.9984C10.2307 13.323 10.5091 13.7158 10.6996 14.1526C10.8901 14.5893 10.9888 15.0605 10.9894 15.537V18.7559C10.9894 18.8916 11.0434 19.0219 11.1394 19.1179C11.2354 19.2139 11.3656 19.2679 11.5014 19.2679H11.7856C12.3606 19.269 12.9142 19.0501 13.3328 18.656C13.3933 18.5948 13.4655 18.5464 13.5452 18.5138C13.6248 18.4812 13.7102 18.4649 13.7963 18.466C13.8823 18.4672 13.9673 18.4856 14.0461 18.5203C14.1248 18.5551 14.1958 18.6053 14.2547 18.6681C14.3135 18.7308 14.3592 18.8048 14.3888 18.8856C14.4184 18.9664 14.4315 19.0524 14.4271 19.1384C14.4227 19.2243 14.4011 19.3085 14.3635 19.3859C14.3258 19.4633 14.2729 19.5323 14.208 19.5888C13.553 20.2064 12.6865 20.5499 11.7862 20.5488Z" fill="#202020"/>
<path d="M15.5424 20.032C15.4112 20.032 15.2831 19.9917 15.1755 19.9165C15.068 19.8413 14.9861 19.7348 14.9411 19.6115L14.3187 17.9066C14.2641 17.7572 14.2671 17.5928 14.327 17.4455L15.9894 13.3664C16.0797 13.1376 16.2145 12.929 16.386 12.7526C16.5574 12.5763 16.7622 12.4357 16.9883 12.339C17.2145 12.2423 17.4576 12.1914 17.7036 12.1893C17.9496 12.1872 18.1935 12.2339 18.4213 12.3267C18.6491 12.4195 18.8562 12.5566 19.0306 12.73C19.2051 12.9034 19.3434 13.1097 19.4376 13.337C19.5318 13.5642 19.5799 13.8078 19.5793 14.0538C19.5787 14.2998 19.5293 14.5432 19.4339 14.7699L17.7718 18.848C17.7118 18.9953 17.5991 19.115 17.4557 19.1837L15.8189 19.968C15.7327 20.0098 15.6382 20.0317 15.5424 20.032ZM15.6058 17.6995L15.9018 18.5101L16.6797 18.1373L18.2477 14.2871C18.2775 14.2164 18.293 14.1404 18.2932 14.0637C18.2935 13.9869 18.2785 13.9109 18.2491 13.84C18.2198 13.7691 18.1767 13.7047 18.1222 13.6506C18.0678 13.5965 18.0032 13.5538 17.9321 13.5248C17.8611 13.4959 17.7849 13.4813 17.7082 13.482C17.6315 13.4827 17.5556 13.4986 17.4851 13.5288C17.4146 13.559 17.3507 13.6029 17.2973 13.658C17.2438 13.7131 17.2018 13.7782 17.1738 13.8496L15.6058 17.6995Z" fill="#202020"/>
</svg>
