<svg width="24" height="24" viewBox="0 0 24 24" fill="none" xmlns="http://www.w3.org/2000/svg">
<path d="M12.0467 20.5488H11.7629C11.2878 20.5481 10.8324 20.3591 10.4965 20.0232C10.1606 19.6873 9.97155 19.2319 9.97087 18.7568V15.5373C9.97052 15.2369 9.90834 14.9399 9.78822 14.6646C9.66809 14.3894 9.49259 14.1418 9.27263 13.9373L6.25023 11.136C5.62612 10.5575 5.23717 9.76921 5.15775 8.92192L5.00959 7.34816C4.97613 6.99261 5.01728 6.63399 5.13042 6.29525C5.24355 5.95652 5.42617 5.64514 5.66658 5.38106C5.90699 5.11697 6.19989 4.90599 6.52654 4.76163C6.85319 4.61727 7.20638 4.54271 7.56351 4.54272H16.9581C17.3194 4.54279 17.6767 4.6192 18.0065 4.76695C18.3363 4.91471 18.6312 5.13047 18.8718 5.40011C19.1124 5.66974 19.2933 5.98717 19.4027 6.3316C19.5121 6.67602 19.5475 7.03967 19.5065 7.39872L19.296 9.24224C19.2164 9.94993 18.9195 10.6156 18.4461 11.1475L16.8992 12.8909C16.4406 13.4074 16.0708 13.9964 15.8051 14.6339C15.7378 14.7876 15.6128 14.9087 15.4571 14.9712C15.3013 15.0336 15.1273 15.0324 14.9724 14.9678C14.8176 14.9032 14.6943 14.7804 14.6291 14.6257C14.5639 14.4711 14.5621 14.2971 14.624 14.1411C14.9443 13.3731 15.3897 12.6636 15.9421 12.0413L17.4889 10.2979C17.7873 9.96257 17.9744 9.54302 18.0246 9.09696L18.2352 7.25184C18.2557 7.07198 18.2381 6.8898 18.1833 6.71725C18.1285 6.5447 18.0379 6.38567 17.9174 6.25058C17.7969 6.1155 17.6492 6.00741 17.484 5.93339C17.3187 5.85938 17.1397 5.82113 16.9587 5.82112H7.56351C7.38456 5.82105 7.20756 5.85835 7.04386 5.93064C6.88015 6.00293 6.73335 6.10861 6.61286 6.24092C6.49236 6.37322 6.40082 6.52924 6.34411 6.69897C6.28739 6.86869 6.26675 7.0484 6.28351 7.22656L6.43199 8.8C6.48187 9.3341 6.72708 9.83101 7.12063 10.1955L10.144 12.9987C10.4929 13.3232 10.7713 13.7161 10.9619 14.1528C11.1525 14.5895 11.2512 15.0608 11.2518 15.5373V18.7558C11.2518 18.8916 11.3058 19.0219 11.4018 19.1179C11.4978 19.2139 11.628 19.2678 11.7638 19.2678H12.0477C12.6222 19.2686 13.1752 19.0497 13.5936 18.656C13.6544 18.5965 13.7265 18.5497 13.8057 18.5183C13.8849 18.487 13.9695 18.4718 14.0546 18.4736C14.1397 18.4753 14.2236 18.4941 14.3014 18.5287C14.3792 18.5633 14.4492 18.6131 14.5075 18.6751C14.5659 18.7371 14.6112 18.8102 14.6409 18.8899C14.6707 18.9697 14.6842 19.0546 14.6807 19.1397C14.6772 19.2247 14.6568 19.3082 14.6206 19.3853C14.5844 19.4624 14.5333 19.5314 14.4701 19.5885C13.8147 20.2065 12.9475 20.5502 12.0467 20.5488Z" fill="#202020"/>
<path d="M16.3097 20.8064C15.5912 20.8064 14.8888 20.5934 14.2914 20.1942C13.6939 19.795 13.2283 19.2276 12.9533 18.5638C12.6784 17.8999 12.6064 17.1695 12.7466 16.4647C12.8868 15.76 13.2328 15.1127 13.7409 14.6046C14.2489 14.0965 14.8963 13.7505 15.601 13.6103C16.3057 13.4702 17.0362 13.5421 17.7 13.8171C18.3639 14.092 18.9313 14.5577 19.3304 15.1551C19.7296 15.7526 19.9427 16.455 19.9427 17.1735C19.9416 18.1367 19.5585 19.0601 18.8774 19.7412C18.1964 20.4222 17.2729 20.8053 16.3097 20.8064ZM16.3097 14.8205C15.8444 14.8205 15.3895 14.9585 15.0025 15.2171C14.6156 15.4756 14.314 15.8431 14.1359 16.273C13.9578 16.703 13.9112 17.1761 14.002 17.6325C14.0928 18.089 14.3169 18.5082 14.646 18.8373C14.975 19.1664 15.3943 19.3904 15.8507 19.4812C16.3071 19.572 16.7802 19.5254 17.2102 19.3473C17.6401 19.1693 18.0076 18.8677 18.2662 18.4807C18.5247 18.0938 18.6627 17.6389 18.6627 17.1735C18.6619 16.5497 18.4138 15.9516 17.9727 15.5105C17.5316 15.0694 16.9336 14.8213 16.3097 14.8205Z" fill="#202020"/>
<path d="M16.3098 18.705C16.14 18.705 15.9772 18.6375 15.8572 18.5175C15.7372 18.3975 15.6698 18.2347 15.6698 18.065V16.2182C15.6698 16.0485 15.7372 15.8857 15.8572 15.7657C15.9772 15.6457 16.14 15.5782 16.3098 15.5782C16.4795 15.5782 16.6423 15.6457 16.7623 15.7657C16.8823 15.8857 16.9498 16.0485 16.9498 16.2182V18.065C16.9498 18.2347 16.8823 18.3975 16.7623 18.5175C16.6423 18.6375 16.4795 18.705 16.3098 18.705Z" fill="#202020"/>
<path d="M17.2333 17.7817H15.3866C15.2168 17.7817 15.054 17.7143 14.934 17.5943C14.814 17.4742 14.7466 17.3114 14.7466 17.1417C14.7466 16.972 14.814 16.8092 14.934 16.6892C15.054 16.5691 15.2168 16.5017 15.3866 16.5017H17.2333C17.403 16.5017 17.5658 16.5691 17.6858 16.6892C17.8058 16.8092 17.8733 16.972 17.8733 17.1417C17.8733 17.3114 17.8058 17.4742 17.6858 17.5943C17.5658 17.7143 17.403 17.7817 17.2333 17.7817Z" fill="#202020"/>
</svg>
