<svg width="24" height="24" viewBox="0 0 24 24" fill="none" xmlns="http://www.w3.org/2000/svg">
<path d="M12.2963 20.5488H12.0125C11.5374 20.5481 11.082 20.3591 10.7461 20.0232C10.4102 19.6873 10.2211 19.2319 10.2205 18.7568V15.5373C10.2201 15.237 10.1579 14.9399 10.0378 14.6647C9.91768 14.3894 9.74218 14.1418 9.52222 13.9373L6.49982 11.136C5.8756 10.557 5.48685 9.7681 5.40798 8.92034L5.25982 7.34658C5.22636 6.99102 5.26751 6.6324 5.38065 6.29367C5.49378 5.95493 5.6764 5.64356 5.91681 5.37947C6.15722 5.11538 6.45012 4.90441 6.77677 4.76005C7.10342 4.61569 7.45661 4.54113 7.81374 4.54114H17.2077C17.569 4.5412 17.9263 4.61761 18.2561 4.76536C18.5859 4.91312 18.8807 5.12889 19.1213 5.39853C19.3619 5.66818 19.5427 5.98561 19.6521 6.33003C19.7614 6.67446 19.7968 7.0381 19.7558 7.39714L19.5453 9.24226C19.4656 9.9499 19.1687 10.6155 18.6953 11.1475L16.384 13.7511C16.0299 14.1506 15.8348 14.6662 15.8355 15.2V17.0103C15.8342 17.9485 15.4609 18.8479 14.7974 19.5112C14.134 20.1746 13.2345 20.5477 12.2963 20.5488ZM7.8131 5.82114C7.63414 5.82106 7.45715 5.85837 7.29345 5.93066C7.12974 6.00294 6.98294 6.10863 6.86244 6.24093C6.74195 6.37324 6.65041 6.52925 6.5937 6.69898C6.53698 6.86871 6.51634 7.04841 6.5331 7.22658L6.6819 8.80002C6.73178 9.33412 6.97699 9.83103 7.37054 10.1955L10.392 12.9984C10.7409 13.3229 11.0193 13.7158 11.2099 14.1525C11.4005 14.5892 11.4992 15.0605 11.4998 15.537V18.7559C11.4998 18.8916 11.5538 19.0219 11.6498 19.1179C11.7458 19.2139 11.876 19.2679 12.0118 19.2679H12.2957C12.8946 19.2672 13.4689 19.0289 13.8924 18.6054C14.3159 18.1819 14.5542 17.6076 14.5549 17.0087V15.2C14.5546 14.3531 14.865 13.5355 15.4272 12.9021L17.7369 10.2986C18.0355 9.96332 18.2228 9.54373 18.2729 9.09762L18.4835 7.2525C18.5041 7.07263 18.4864 6.89046 18.4316 6.7179C18.3768 6.54535 18.2862 6.38632 18.1657 6.25123C18.0452 6.11615 17.8975 6.00806 17.7323 5.93405C17.567 5.86004 17.3881 5.82178 17.207 5.82178L7.8131 5.82114Z" fill="#202020"/>
<path d="M7.3747 11.7136C7.26161 11.7136 7.15055 11.6835 7.05285 11.6266C6.95514 11.5696 6.87427 11.4878 6.81847 11.3894C6.76267 11.2911 6.73393 11.1797 6.73518 11.0666C6.73643 10.9535 6.76762 10.8428 6.82558 10.7456L10.336 4.85348C10.4229 4.70764 10.5642 4.60228 10.7288 4.56061C10.8933 4.51893 11.0677 4.54434 11.2136 4.63124C11.3594 4.71815 11.4648 4.85943 11.5065 5.02402C11.5481 5.1886 11.5227 5.36299 11.4358 5.50884L7.9251 11.401C7.86833 11.4964 7.78775 11.5753 7.69126 11.6301C7.59476 11.6849 7.48567 11.7137 7.3747 11.7136Z" fill="#202020"/>
</svg>
