<svg width="24" height="24" viewBox="0 0 24 24" fill="none" xmlns="http://www.w3.org/2000/svg">
<path d="M11.7232 19.8166H11.4394C10.9643 19.8159 10.509 19.6268 10.1731 19.2909C9.83719 18.955 9.64814 18.4997 9.64738 18.0246V14.8054C9.64703 14.5051 9.58486 14.208 9.46473 13.9328C9.34461 13.6575 9.1691 13.4099 8.94914 13.2054L5.9277 10.4022C5.30342 9.82396 4.91442 9.03572 4.83522 8.18846L4.68706 6.6147C4.65343 6.25915 4.6944 5.9005 4.80737 5.5617C4.92034 5.2229 5.10281 4.91143 5.34311 4.64722C5.5834 4.38301 5.87621 4.17189 6.2028 4.02737C6.5294 3.88286 6.88257 3.80813 7.2397 3.80798H16.6343C16.9957 3.808 17.353 3.88437 17.6828 4.03211C18.0126 4.17985 18.3075 4.39561 18.5481 4.66526C18.7887 4.93491 18.9696 5.25236 19.079 5.5968C19.1884 5.94125 19.2237 6.30492 19.1827 6.66398L18.9722 8.51198C18.8924 9.21956 18.5953 9.88504 18.1219 10.4169L16.576 12.16C16.1174 12.6766 15.7475 13.2657 15.4816 13.9033C15.4159 14.0601 15.2907 14.1843 15.1334 14.2486C14.9762 14.313 14.7998 14.3122 14.6431 14.2465C14.4864 14.1809 14.3622 14.0556 14.2978 13.8983C14.2334 13.7411 14.2342 13.5647 14.2999 13.408C14.62 12.6401 15.0653 11.9306 15.6176 11.3085L17.1645 9.5651C17.463 9.22986 17.6502 8.81025 17.7002 8.36414L17.9111 6.51902C17.9316 6.33912 17.9139 6.1569 17.8591 5.98431C17.8044 5.81171 17.7137 5.65265 17.5932 5.51753C17.4726 5.38242 17.3249 5.27431 17.1596 5.20028C16.9944 5.12625 16.8153 5.08798 16.6343 5.08798H7.2397C7.06075 5.08791 6.88375 5.12521 6.72005 5.1975C6.55635 5.26979 6.40955 5.37547 6.28905 5.50778C6.16855 5.64008 6.07702 5.7961 6.0203 5.96582C5.96359 6.13555 5.94295 6.31526 5.9597 6.49342L6.10786 8.06718C6.1581 8.60118 6.40325 9.09797 6.7965 9.4627L9.81826 12.2656C10.1671 12.5901 10.4455 12.983 10.636 13.4197C10.8266 13.8564 10.9252 14.3277 10.9258 14.8041V18.024C10.9258 18.1598 10.9797 18.29 11.0757 18.386C11.1718 18.482 11.302 18.536 11.4378 18.536H11.7216C12.2965 18.537 12.8499 18.3178 13.2682 17.9235C13.3921 17.8085 13.5565 17.7473 13.7254 17.7531C13.8943 17.7589 14.0541 17.8313 14.1698 17.9545C14.2856 18.0776 14.3479 18.2416 14.3432 18.4106C14.3385 18.5795 14.2671 18.7398 14.1447 18.8563C13.4897 19.4738 12.6234 19.8174 11.7232 19.8166Z" fill="#202020"/>
<path d="M15.9859 20.0745C15.2674 20.0745 14.565 19.8614 13.9676 19.4623C13.3701 19.0631 12.9045 18.4957 12.6295 17.8318C12.3545 17.168 12.2826 16.4375 12.4228 15.7328C12.563 15.0281 12.909 14.3807 13.417 13.8727C13.9251 13.3646 14.5724 13.0186 15.2772 12.8784C15.9819 12.7382 16.7124 12.8102 17.3762 13.0851C18.04 13.3601 18.6074 13.8258 19.0066 14.4232C19.4058 15.0206 19.6189 15.723 19.6189 16.4416C19.6179 17.4048 19.2348 18.3282 18.5537 19.0093C17.8726 19.6904 16.9491 20.0735 15.9859 20.0745ZM15.9859 14.0886C15.5206 14.0886 15.0656 14.2266 14.6787 14.4851C14.2918 14.7437 13.9902 15.1112 13.8121 15.5411C13.634 15.9711 13.5874 16.4442 13.6782 16.9006C13.769 17.357 13.9931 17.7763 14.3221 18.1053C14.6512 18.4344 15.0705 18.6585 15.5269 18.7493C15.9833 18.8401 16.4564 18.7935 16.8864 18.6154C17.3163 18.4373 17.6838 18.1357 17.9423 17.7488C18.2009 17.3618 18.3389 16.9069 18.3389 16.4416C18.3383 15.8177 18.0902 15.2196 17.6491 14.7784C17.2079 14.3373 16.6098 14.0892 15.9859 14.0886Z" fill="#202020"/>
<path d="M15.8029 17.8608C15.6603 17.8609 15.5217 17.8133 15.4093 17.7254L14.585 17.0816C14.5187 17.0298 14.4633 16.9656 14.4219 16.8924C14.3805 16.8193 14.3539 16.7387 14.3436 16.6553C14.3334 16.5718 14.3396 16.4872 14.3621 16.4062C14.3845 16.3252 14.4227 16.2494 14.4744 16.1832C14.5261 16.1169 14.5904 16.0615 14.6636 16.0201C14.7367 15.9787 14.8173 15.9521 14.9007 15.9418C14.9841 15.9316 15.0688 15.9378 15.1498 15.9603C15.2308 15.9827 15.3066 16.0209 15.3728 16.0726L15.7066 16.3331L16.5975 15.2547C16.7062 15.1258 16.8613 15.0451 17.0292 15.0299C17.1971 15.0148 17.3642 15.0665 17.4942 15.1739C17.6242 15.2812 17.7066 15.4355 17.7234 15.6033C17.7403 15.771 17.6903 15.9386 17.5843 16.0697L16.2967 17.6284C16.2366 17.7012 16.1611 17.7597 16.0758 17.7999C15.9904 17.84 15.8972 17.8608 15.8029 17.8608Z" fill="#202020"/>
</svg>
