<svg width="24" height="24" viewBox="0 0 24 24" fill="none" xmlns="http://www.w3.org/2000/svg">
<path d="M8.27428 20.1619C8.10454 20.1619 7.94175 20.0945 7.82173 19.9745C7.70171 19.8544 7.63428 19.6917 7.63428 19.5219V4.47808C7.63428 4.30834 7.70171 4.14556 7.82173 4.02553C7.94175 3.90551 8.10454 3.83808 8.27428 3.83808C8.44402 3.83808 8.6068 3.90551 8.72683 4.02553C8.84685 4.14556 8.91428 4.30834 8.91428 4.47808V19.5219C8.91428 19.6917 8.84685 19.8544 8.72683 19.9745C8.6068 20.0945 8.44402 20.1619 8.27428 20.1619Z" fill="#202020"/>
<path d="M8.33656 16.4269C8.16682 16.4269 8.00404 16.3595 7.88401 16.2394C7.76399 16.1194 7.69656 15.9566 7.69656 15.7869L7.68408 5.73184C7.68392 5.61942 7.71337 5.50893 7.76947 5.41151C7.82558 5.31409 7.90635 5.23316 8.00367 5.17688C8.10099 5.12059 8.21142 5.09094 8.32385 5.0909C8.43627 5.09086 8.54672 5.12043 8.64408 5.17664L15.3871 9.05952C15.6843 9.23037 15.9312 9.47646 16.1031 9.77304C16.275 10.0696 16.3657 10.4062 16.3662 10.749C16.3667 11.0918 16.2769 11.4287 16.1059 11.7257C15.9349 12.0228 15.6886 12.2696 15.3919 12.4413L8.6572 16.3408C8.55976 16.3972 8.44915 16.4269 8.33656 16.4269ZM8.96536 6.83936L8.97528 14.6774L14.75 11.3338C14.8524 11.2748 14.9374 11.19 14.9965 11.0877C15.0556 10.9855 15.0867 10.8695 15.0867 10.7514C15.0867 10.6333 15.0556 10.5172 14.9965 10.415C14.9374 10.3127 14.8524 10.2279 14.75 10.169L8.96536 6.83936Z" fill="#202020"/>
</svg>
