<svg width="24" height="24" viewBox="0 0 24 24" fill="none" xmlns="http://www.w3.org/2000/svg">
<path d="M12.0002 18.9873C11.8305 18.9873 11.6677 18.9199 11.5477 18.7998C11.4277 18.6798 11.3602 18.517 11.3602 18.3473V13.6564H6.98551C6.86918 13.6564 6.75505 13.6246 6.65541 13.5646C6.55576 13.5045 6.47437 13.4185 6.41997 13.3157C6.36558 13.2128 6.34024 13.0971 6.34669 12.9809C6.35313 12.8648 6.39111 12.7526 6.45655 12.6564L11.4713 5.29256C11.5477 5.18025 11.6579 5.09518 11.7859 5.04967C11.914 5.00416 12.0531 5.00057 12.1833 5.03941C12.3135 5.07826 12.428 5.15753 12.5101 5.26575C12.5923 5.37397 12.6378 5.50552 12.6402 5.64136L12.7193 10.0724H17.015C17.1305 10.0724 17.2439 10.1036 17.3431 10.1628C17.4424 10.222 17.5237 10.307 17.5785 10.4087C17.6334 10.5104 17.6596 10.6251 17.6545 10.7405C17.6495 10.856 17.6132 10.9679 17.5497 11.0644L12.5353 18.6986C12.477 18.7873 12.3976 18.8602 12.3042 18.9105C12.2108 18.9609 12.1064 18.9873 12.0002 18.9873ZM8.19575 12.3764H12.0002C12.17 12.3764 12.3328 12.4438 12.4528 12.5639C12.5728 12.6839 12.6402 12.8467 12.6402 13.0164V16.2071L15.8287 11.3524H12.0905C11.9227 11.3524 11.7616 11.2866 11.6419 11.169C11.5223 11.0515 11.4535 10.8917 11.4505 10.7239L11.3961 7.67656L8.19575 12.3764Z" fill="#202020"/>
</svg>
