<svg width="24" height="24" viewBox="0 0 24 24" fill="none" xmlns="http://www.w3.org/2000/svg">
<path d="M17.7504 18.944H7.28128C6.62219 18.9433 5.99032 18.6811 5.52431 18.215C5.05829 17.7489 4.79619 17.117 4.79552 16.458V7.54243C4.79611 6.88329 5.05817 6.25131 5.5242 5.78516C5.99022 5.31902 6.62214 5.0568 7.28128 5.05603H9.536C10.0601 5.05525 10.571 5.2205 10.9954 5.52807C11.4198 5.83563 11.7358 6.26971 11.8982 6.76803L12.2006 7.69091C12.2792 7.93292 12.4324 8.1438 12.6383 8.29329C12.8442 8.44277 13.0921 8.52316 13.3466 8.52291H17.7504C18.4093 8.52367 19.041 8.78572 19.507 9.25159C19.973 9.71746 20.2352 10.3491 20.2362 11.008V16.4576C20.2356 17.1168 19.9735 17.7488 19.5075 18.2149C19.0415 18.681 18.4095 18.9433 17.7504 18.944ZM7.28128 6.33603C6.96156 6.33646 6.65507 6.46367 6.42903 6.68977C6.20299 6.91587 6.07586 7.2224 6.07552 7.54211V16.4576C6.07577 16.7774 6.20287 17.084 6.42892 17.3102C6.65497 17.5363 6.96151 17.6636 7.28128 17.664H17.7504C18.0701 17.6636 18.3766 17.5364 18.6026 17.3103C18.8287 17.0842 18.9558 16.7777 18.9562 16.458V11.008C18.9558 10.6883 18.8287 10.3819 18.6026 10.1558C18.3766 9.92976 18.0701 9.80261 17.7504 9.80227H13.3456C12.8215 9.80305 12.3106 9.63781 11.8862 9.33024C11.4618 9.02267 11.1458 8.58859 10.9834 8.09027L10.681 7.16803C10.6025 6.92619 10.4494 6.71541 10.2437 6.56594C10.038 6.41647 9.79026 6.33599 9.536 6.33603H7.28128Z" fill="#202020"/>
<path d="M12.5354 16C12.3658 16.0001 12.2032 15.9328 12.0832 15.8131L10.2755 14.0096C9.96099 13.6954 9.77482 13.2753 9.75334 12.8313C9.73186 12.3872 9.87662 11.9511 10.1594 11.6081C10.4421 11.265 10.8425 11.0396 11.2825 10.9759C11.7225 10.9121 12.1704 11.0146 12.5389 11.2634C12.8816 11.0471 13.2876 10.9537 13.6904 10.9984C14.0932 11.0432 14.4689 11.2233 14.7558 11.5094C15.0911 11.8445 15.2797 12.2989 15.2802 12.7729C15.2807 13.2468 15.0932 13.7016 14.7587 14.0374L12.9882 15.8122C12.8683 15.9322 12.7057 15.9998 12.536 16H12.5354ZM11.5379 12.2362C11.4375 12.2361 11.3394 12.2659 11.256 12.3217C11.1725 12.3774 11.1075 12.4567 11.0691 12.5495C11.0307 12.6422 11.0207 12.7443 11.0404 12.8427C11.06 12.9411 11.1085 13.0315 11.1795 13.1024L12.5341 14.4538L13.8528 13.1315C13.9477 13.0363 14.001 12.9074 14.001 12.773C14.001 12.6385 13.9477 12.5096 13.8528 12.4144C13.8057 12.3673 13.7498 12.3299 13.6882 12.3044C13.6267 12.2789 13.5607 12.2658 13.4941 12.2658C13.4275 12.2658 13.3615 12.2789 13.2999 12.3044C13.2384 12.3299 13.1825 12.3673 13.1354 12.4144L12.985 12.5651C12.9257 12.6247 12.8552 12.6719 12.7776 12.7042C12.7 12.7364 12.6168 12.753 12.5328 12.753C12.3634 12.7529 12.2009 12.6857 12.081 12.5661L11.896 12.384C11.849 12.3369 11.7932 12.2996 11.7318 12.2743C11.6703 12.2489 11.6044 12.2359 11.5379 12.2362Z" fill="#202020"/>
</svg>
