<svg width="24" height="24" viewBox="0 0 24 24" fill="none" xmlns="http://www.w3.org/2000/svg">
<path d="M17.2345 18.944H6.76542C6.10634 18.9433 5.47447 18.6811 5.00845 18.215C4.54244 17.7489 4.28034 17.117 4.27966 16.458V7.54243C4.28026 6.88329 4.54232 6.25131 5.00834 5.78516C5.47436 5.31902 6.10628 5.0568 6.76542 5.05603H9.01918C9.5433 5.05525 10.0542 5.2205 10.4786 5.52807C10.903 5.83563 11.219 6.26971 11.3814 6.76803L11.6838 7.69091C11.7624 7.93292 11.9156 8.1438 12.1215 8.29329C12.3273 8.44277 12.5753 8.52316 12.8297 8.52291H17.2345C17.8935 8.52367 18.5252 8.78572 18.9912 9.25159C19.4572 9.71746 19.7194 10.3491 19.7203 11.008V16.4576C19.7197 17.1168 19.4576 17.7488 18.9916 18.2149C18.5256 18.681 17.8937 18.9433 17.2345 18.944ZM6.76542 6.33603C6.44571 6.33646 6.13922 6.46367 5.91318 6.68977C5.68714 6.91587 5.56 7.2224 5.55966 7.54211V16.4576C5.55992 16.7774 5.68701 17.084 5.91306 17.3102C6.13911 17.5363 6.44565 17.6636 6.76542 17.664H17.2345C17.5543 17.6636 17.8607 17.5364 18.0868 17.3103C18.3128 17.0842 18.44 16.7777 18.4403 16.458V11.008C18.44 10.6883 18.3128 10.3819 18.0868 10.1558C17.8607 9.92976 17.5542 9.80261 17.2345 9.80227H12.8297C12.3056 9.80305 11.7947 9.63781 11.3703 9.33024C10.946 9.02267 10.6299 8.58859 10.4675 8.09027L10.1651 7.16803C10.0866 6.92603 9.93335 6.71514 9.72746 6.56566C9.52158 6.41617 9.27361 6.33578 9.01918 6.33603H6.76542Z" fill="#202020"/>
<path d="M16.5507 9.80195C16.3809 9.80195 16.2182 9.73452 16.0981 9.6145C15.9781 9.49447 15.9107 9.33169 15.9107 9.16195V7.22755C15.9103 6.99361 15.8172 6.76936 15.6518 6.60397C15.4863 6.43858 15.2621 6.34556 15.0281 6.34531H9.19676C9.02702 6.34531 8.86424 6.27788 8.74421 6.15786C8.62419 6.03783 8.55676 5.87505 8.55676 5.70531C8.55676 5.53557 8.62419 5.37278 8.74421 5.25276C8.86424 5.13274 9.02702 5.06531 9.19676 5.06531H15.0281C15.6014 5.0659 16.1511 5.29389 16.5565 5.69925C16.9619 6.10461 17.19 6.65424 17.1907 7.22755V9.16195C17.1907 9.33169 17.1233 9.49447 17.0032 9.6145C16.8832 9.73452 16.7204 9.80195 16.5507 9.80195Z" fill="#202020"/>
</svg>
