<svg width="24" height="24" viewBox="0 0 24 24" fill="none" xmlns="http://www.w3.org/2000/svg">
<path d="M14.9222 18.944H7.50047C6.84138 18.9433 6.20951 18.6811 5.7435 18.215C5.27749 17.7489 5.01539 17.117 5.01471 16.458V7.54243C5.0153 6.88329 5.27736 6.25131 5.74339 5.78516C6.20941 5.31902 6.84133 5.0568 7.50047 5.05603H9.75423C10.2784 5.05528 10.7893 5.22054 11.2137 5.52809C11.6382 5.83565 11.9543 6.26971 12.1168 6.76803L12.4189 7.69091C12.4974 7.93297 12.6507 8.14389 12.8566 8.29338C13.0626 8.44287 13.3106 8.52323 13.5651 8.52291H17.9696C18.6286 8.52359 19.2604 8.7856 19.7264 9.25148C20.1925 9.71735 20.4547 10.3491 20.4557 11.008V16.4576C20.4557 16.6274 20.3882 16.7902 20.2682 16.9102C20.1482 17.0302 19.9854 17.0976 19.8157 17.0976C19.6459 17.0976 19.4831 17.0302 19.3631 16.9102C19.2431 16.7902 19.1757 16.6274 19.1757 16.4576V11.008C19.1752 10.6883 19.048 10.3818 18.8219 10.1558C18.5958 9.92975 18.2893 9.80261 17.9696 9.80227H13.5651C13.0409 9.80312 12.53 9.6379 12.1055 9.33033C11.6811 9.02276 11.365 8.58865 11.2025 8.09027L10.9001 7.16803C10.8217 6.92598 10.6685 6.71503 10.4626 6.56554C10.2567 6.41604 10.0087 6.33569 9.75423 6.33603H7.50047C7.18076 6.33646 6.87426 6.46367 6.64822 6.68977C6.42218 6.91587 6.29505 7.2224 6.29471 7.54211V16.4576C6.29496 16.7774 6.42206 17.084 6.64811 17.3102C6.87416 17.5363 7.1807 17.6636 7.50047 17.664H14.9222C15.092 17.664 15.2548 17.7315 15.3748 17.8515C15.4948 17.9715 15.5622 18.1343 15.5622 18.304C15.5622 18.4738 15.4948 18.6366 15.3748 18.7566C15.2548 18.8766 15.092 18.944 14.9222 18.944Z" fill="#202020"/>
<path d="M20.0276 19.8265H16.602C16.0905 19.8263 15.5987 19.629 15.2288 19.2758C14.8589 18.9225 14.6393 18.4403 14.6155 17.9293C14.5918 17.4184 14.7658 16.9179 15.1014 16.5319C15.437 16.1458 15.9084 15.9039 16.4176 15.8563C16.5773 15.5136 16.8313 15.2234 17.1499 15.0199C17.4684 14.8163 17.8384 14.7077 18.2165 14.7068C18.5946 14.7059 18.9651 14.8127 19.2846 15.0147C19.6042 15.2168 19.8595 15.5057 20.0208 15.8476H20.0276C20.5552 15.8476 21.0612 16.0572 21.4343 16.4303C21.8074 16.8034 22.017 17.3094 22.017 17.8371C22.017 18.3647 21.8074 18.8707 21.4343 19.2438C21.0612 19.6169 20.5552 19.8265 20.0276 19.8265ZM16.602 17.1276C16.4138 17.1276 16.2334 17.2024 16.1003 17.3354C15.9673 17.4685 15.8925 17.6489 15.8925 17.8371C15.8925 18.0252 15.9673 18.2057 16.1003 18.3387C16.2334 18.4718 16.4138 18.5465 16.602 18.5465H20.0276C20.1311 18.5464 20.2334 18.5236 20.3272 18.4797C20.421 18.4358 20.5041 18.3719 20.5706 18.2925C20.6371 18.2131 20.6854 18.1201 20.7121 18.02C20.7388 17.9199 20.7432 17.8152 20.7252 17.7133C20.7071 17.6113 20.6669 17.5145 20.6075 17.4297C20.548 17.3449 20.4707 17.2742 20.381 17.2224C20.2912 17.1707 20.1913 17.1393 20.0881 17.1303C19.9849 17.1213 19.881 17.135 19.7837 17.1705C19.6917 17.2041 19.5932 17.2162 19.4958 17.2057C19.3984 17.1953 19.3047 17.1626 19.2219 17.1103C19.1391 17.0579 19.0694 16.9872 19.0183 16.9037C18.9671 16.8201 18.9358 16.726 18.9268 16.6284C18.9095 16.4557 18.8296 16.2954 18.7021 16.1777C18.5746 16.06 18.4083 15.9931 18.2348 15.9898C18.0613 15.9864 17.8926 16.0468 17.7607 16.1595C17.6287 16.2722 17.5426 16.4293 17.5188 16.6012C17.5072 16.6888 17.4776 16.7729 17.432 16.8485C17.3863 16.9241 17.3255 16.9893 17.2533 17.0403C17.1812 17.0912 17.0993 17.1266 17.0128 17.1443C16.9263 17.1621 16.8371 17.1617 16.7508 17.1433C16.7018 17.133 16.652 17.1277 16.602 17.1276Z" fill="#202020"/>
</svg>
