<svg width="24" height="24" viewBox="0 0 24 24" fill="none" xmlns="http://www.w3.org/2000/svg">
<path d="M5.8787 10.1207C5.21953 10.1207 4.57517 9.92521 4.0271 9.559C3.47902 9.19279 3.05185 8.67228 2.79959 8.06329C2.54734 7.4543 2.48134 6.78418 2.60994 6.13768C2.73854 5.49118 3.05595 4.89733 3.52205 4.43123C3.98815 3.96513 4.582 3.64772 5.2285 3.51912C5.875 3.39052 6.54512 3.45652 7.15411 3.70877C7.7631 3.96103 8.28361 4.3882 8.64982 4.93628C9.01603 5.48435 9.2115 6.12871 9.2115 6.78788C9.21048 7.67148 8.85902 8.5186 8.23422 9.1434C7.60942 9.7682 6.7623 10.1197 5.8787 10.1207ZM5.8787 4.73508C5.47269 4.73508 5.07581 4.85547 4.73823 5.08104C4.40064 5.3066 4.13753 5.62721 3.98216 6.00231C3.82679 6.37741 3.78614 6.79016 3.86534 7.18836C3.94455 7.58657 4.14006 7.95234 4.42715 8.23943C4.71424 8.52652 5.08001 8.72203 5.47822 8.80124C5.87642 8.88044 6.28917 8.83979 6.66427 8.68442C7.03937 8.52905 7.35998 8.26594 7.58554 7.92835C7.81111 7.59077 7.9315 7.19389 7.9315 6.78788C7.93057 6.24382 7.71396 5.72232 7.32916 5.3377C6.94436 4.95308 6.42276 4.73672 5.8787 4.73604V4.73508ZM18.1213 10.1207C17.4621 10.1206 16.8178 9.9251 16.2697 9.55885C15.7217 9.1926 15.2946 8.67206 15.0424 8.06307C14.7902 7.45407 14.7242 6.78397 14.8529 6.13749C14.9815 5.49101 15.2989 4.89719 15.765 4.43112C16.2312 3.96505 16.825 3.64767 17.4715 3.5191C18.118 3.39052 18.7881 3.45654 19.3971 3.7088C20.006 3.96107 20.5265 4.38824 20.8927 4.93631C21.2589 5.48438 21.4544 6.12873 21.4544 6.78788C21.4534 7.67154 21.1019 8.51871 20.477 9.14352C19.8521 9.76833 19.0049 10.1197 18.1213 10.1207ZM18.1213 4.73508C17.7153 4.73514 17.3184 4.85559 16.9809 5.08119C16.6433 5.3068 16.3803 5.62742 16.2249 6.00253C16.0696 6.37763 16.029 6.79037 16.1083 7.18856C16.1875 7.58674 16.383 7.95248 16.6701 8.23954C16.9572 8.5266 17.323 8.72208 17.7212 8.80126C18.1194 8.88044 18.5321 8.83977 18.9072 8.68439C19.2823 8.52901 19.6029 8.2659 19.8284 7.92832C20.054 7.59075 20.1744 7.19387 20.1744 6.78788C20.1734 6.24376 19.9568 5.72222 19.5719 5.33759C19.1871 4.95296 18.6654 4.73663 18.1213 4.73604V4.73508ZM5.8787 20.5988C5.21953 20.5988 4.57517 20.4033 4.0271 20.0371C3.47902 19.6709 3.05185 19.1504 2.79959 18.5414C2.54734 17.9324 2.48134 17.2623 2.60994 16.6158C2.73854 15.9693 3.05595 15.3754 3.52205 14.9093C3.98815 14.4432 4.582 14.1258 5.2285 13.9972C5.875 13.8686 6.54512 13.9346 7.15411 14.1869C7.7631 14.4391 8.28361 14.8663 8.64982 15.4144C9.01603 15.9624 9.2115 16.6068 9.2115 17.266C9.21048 18.1496 8.85902 18.9967 8.23422 19.6215C7.60942 20.2463 6.7623 20.5977 5.8787 20.5988ZM5.8787 15.2132C5.47269 15.2132 5.07581 15.3336 4.73823 15.5591C4.40064 15.7847 4.13753 16.1053 3.98216 16.4804C3.82679 16.8555 3.78614 17.2682 3.86534 17.6664C3.94455 18.0646 4.14006 18.4304 4.42715 18.7175C4.71424 19.0046 5.08001 19.2001 5.47822 19.2793C5.87642 19.3585 6.28917 19.3179 6.66427 19.1625C7.03937 19.0071 7.35998 18.744 7.58554 18.4064C7.81111 18.0689 7.9315 17.672 7.9315 17.266C7.93082 16.7217 7.71433 16.2 7.3295 15.8152C6.94467 15.4303 6.42293 15.2138 5.8787 15.2132ZM18.1213 20.5988C17.4621 20.5987 16.8178 20.4032 16.2697 20.0369C15.7217 19.6707 15.2946 19.1501 15.0424 18.5411C14.7902 17.9322 14.7242 17.262 14.8529 16.6156C14.9815 15.9691 15.2989 15.3753 15.765 14.9092C16.2312 14.4431 16.825 14.1257 17.4715 13.9972C18.118 13.8686 18.7881 13.9346 19.3971 14.1869C20.006 14.4391 20.5265 14.8663 20.8927 15.4144C21.2589 15.9625 21.4544 16.6068 21.4544 17.266C21.4534 18.1496 21.1019 18.9968 20.477 19.6216C19.8521 20.2464 19.0049 20.5978 18.1213 20.5988ZM18.1213 15.2132C17.7153 15.2132 17.3184 15.3337 16.9809 15.5593C16.6433 15.7849 16.3803 16.1055 16.2249 16.4806C16.0696 16.8557 16.029 17.2685 16.1083 17.6666C16.1875 18.0648 16.383 18.4306 16.6701 18.7176C16.9572 19.0047 17.323 19.2002 17.7212 19.2793C18.1194 19.3585 18.5321 19.3179 18.9072 19.1625C19.2823 19.0071 19.6029 18.744 19.8284 18.4064C20.054 18.0688 20.1744 17.672 20.1744 17.266C20.1737 16.7217 19.9572 16.1999 19.5723 15.815C19.1874 15.4302 18.6655 15.2138 18.1213 15.2132Z" fill="#202020"/>
<path d="M8.45293 6.53281C8.28319 6.53281 8.1204 6.46538 8.00038 6.34536C7.88036 6.22533 7.81293 6.06255 7.81293 5.89281C7.81293 5.72307 7.88036 5.56028 8.00038 5.44026C8.1204 5.32024 8.28319 5.25281 8.45293 5.25281H15.5605C15.7302 5.25281 15.893 5.32024 16.013 5.44026C16.133 5.56028 16.2005 5.72307 16.2005 5.89281C16.2005 6.06255 16.133 6.22533 16.013 6.34536C15.893 6.46538 15.7302 6.53281 15.5605 6.53281H8.45293ZM18.1073 15.2029C17.9376 15.2029 17.7748 15.1355 17.6548 15.0154C17.5348 14.8954 17.4673 14.7326 17.4673 14.5629V9.48801C17.4673 9.31827 17.5348 9.15548 17.6548 9.03546C17.7748 8.91544 17.9376 8.84801 18.1073 8.84801C18.2771 8.84801 18.4399 8.91544 18.5599 9.03546C18.6799 9.15548 18.7473 9.31827 18.7473 9.48801V14.5629C18.7473 14.7326 18.6799 14.8954 18.5599 15.0154C18.4399 15.1355 18.2771 15.2029 18.1073 15.2029ZM8.44365 18.7472C8.27391 18.7472 8.11112 18.6798 7.9911 18.5598C7.87108 18.4397 7.80365 18.2769 7.80365 18.1072C7.80365 17.9375 7.87108 17.7747 7.9911 17.6547C8.11112 17.5346 8.27391 17.4672 8.44365 17.4672H15.5605C15.7302 17.4672 15.893 17.5346 16.013 17.6547C16.133 17.7747 16.2005 17.9375 16.2005 18.1072C16.2005 18.2769 16.133 18.4397 16.013 18.5598C15.893 18.6798 15.7302 18.7472 15.5605 18.7472H8.44365ZM5.89293 15.1709C5.72319 15.1709 5.5604 15.1035 5.44038 14.9834C5.32036 14.8634 5.25293 14.7006 5.25293 14.5309V9.48801C5.25293 9.31827 5.32036 9.15548 5.44038 9.03546C5.5604 8.91544 5.72319 8.84801 5.89293 8.84801C6.06267 8.84801 6.22545 8.91544 6.34548 9.03546C6.4655 9.15548 6.53293 9.31827 6.53293 9.48801V14.5309C6.53293 14.7006 6.4655 14.8634 6.34548 14.9834C6.22545 15.1035 6.06267 15.1709 5.89293 15.1709Z" fill="#202020"/>
</svg>
