<svg width="24" height="24" viewBox="0 0 24 24" fill="none" xmlns="http://www.w3.org/2000/svg">
<path d="M12.5357 18.128C12.035 18.128 11.5548 17.9291 11.2007 17.575C10.8466 17.2209 10.6477 16.7407 10.6477 16.24V8.8688C10.6476 8.54375 10.7315 8.2242 10.8911 7.94106C11.0508 7.65793 11.2808 7.4208 11.559 7.25264C11.8371 7.08448 12.154 6.99099 12.4789 6.9812C12.8038 6.97142 13.1257 7.04568 13.4135 7.1968L19.712 10.5024C20.004 10.6558 20.2508 10.883 20.4276 11.1615C20.6045 11.4399 20.7053 11.7598 20.7201 12.0893C20.7348 12.4188 20.663 12.7465 20.5118 13.0396C20.3605 13.3327 20.1351 13.5811 19.8579 13.76L13.5594 17.824C13.2546 18.0218 12.8991 18.1274 12.5357 18.128ZM12.5376 8.25856C12.4259 8.25965 12.3166 8.29058 12.2208 8.34816C12.1306 8.40166 12.056 8.4779 12.0045 8.56927C11.953 8.66064 11.9264 8.76392 11.9274 8.8688V16.2394C11.9272 16.3488 11.9564 16.4562 12.0122 16.5504C12.0679 16.6445 12.148 16.7219 12.2441 16.7743C12.3401 16.8267 12.4485 16.8523 12.5578 16.8482C12.6672 16.8442 12.7734 16.8107 12.8653 16.7514L19.1639 12.6874C19.2533 12.6298 19.3261 12.5498 19.3749 12.4553C19.4238 12.3608 19.447 12.2551 19.4422 12.1489C19.4375 12.0426 19.4049 11.9395 19.3478 11.8497C19.2907 11.76 19.2111 11.6868 19.1168 11.6374L12.8183 8.33024C12.732 8.28375 12.6356 8.25913 12.5376 8.25856Z" fill="#202020"/>
<path d="M6.96344 18.128C6.46271 18.128 5.98249 17.9291 5.62842 17.575C5.27435 17.2209 5.07544 16.7407 5.07544 16.24V8.8688C5.07548 8.54393 5.15934 8.22458 5.31892 7.94161C5.47849 7.65864 5.70838 7.42164 5.98636 7.25351C6.26433 7.08539 6.58099 6.99184 6.9057 6.9819C7.23041 6.97197 7.55219 7.04598 7.83992 7.1968L11.0124 8.8608C11.0878 8.89927 11.1548 8.95232 11.2096 9.01688C11.2644 9.08143 11.3058 9.15622 11.3315 9.23689C11.3571 9.31757 11.3665 9.40253 11.3591 9.48687C11.3517 9.5712 11.3277 9.65323 11.2883 9.7282C11.249 9.80317 11.1952 9.86959 11.13 9.92362C11.0648 9.97765 10.9896 10.0182 10.9086 10.043C10.8277 10.0677 10.7426 10.0761 10.6584 10.0678C10.5741 10.0594 10.4924 10.0344 10.4178 9.99424L7.24504 8.33024C7.15235 8.28152 7.04865 8.25756 6.94398 8.26069C6.83931 8.26382 6.73723 8.29393 6.64762 8.34811C6.558 8.40228 6.4839 8.47868 6.43249 8.5699C6.38108 8.66113 6.3541 8.76408 6.35416 8.8688V16.2394C6.35389 16.3488 6.38317 16.4563 6.43893 16.5505C6.49468 16.6447 6.57483 16.7221 6.67091 16.7746C6.767 16.827 6.87546 16.8525 6.98485 16.8484C7.09424 16.8444 7.20049 16.8108 7.2924 16.7514L10.3724 14.7635C10.443 14.716 10.5223 14.6831 10.6058 14.6666C10.6893 14.6501 10.7752 14.6505 10.8585 14.6676C10.9418 14.6847 11.0209 14.7183 11.0911 14.7663C11.1613 14.8143 11.2213 14.8759 11.2674 14.9474C11.3136 15.0189 11.345 15.0988 11.3599 15.1826C11.3747 15.2663 11.3728 15.3522 11.354 15.4352C11.3353 15.5182 11.3003 15.5966 11.2509 15.6659C11.2015 15.7352 11.1388 15.7939 11.0665 15.8387L7.98648 17.8269C7.68149 18.0235 7.3263 18.128 6.96344 18.128Z" fill="#202020"/>
</svg>
