<svg width="24" height="24" viewBox="0 0 24 24" fill="none" xmlns="http://www.w3.org/2000/svg">
<path d="M3.57749 20.91C3.63476 20.9173 3.69272 20.9173 3.74999 20.91C3.88849 20.9096 4.02417 20.8708 4.14199 20.798C4.25981 20.7252 4.35516 20.6212 4.41749 20.4975L4.93499 19.5C5.51958 18.3433 6.36663 17.3394 7.40843 16.5684C8.45024 15.7975 9.65792 15.2809 10.935 15.06C11.0606 15.5731 11.3195 16.0439 11.6854 16.4248C12.0514 16.8057 12.5114 17.0833 13.019 17.2294C13.5266 17.3755 14.0638 17.385 14.5763 17.2569C15.0887 17.1289 15.5583 16.8677 15.9375 16.5L20.1075 12.3375C20.3898 12.0585 20.6139 11.7262 20.7669 11.3599C20.9199 10.9937 20.9987 10.6007 20.9987 10.2038C20.9987 9.80682 20.9199 9.41383 20.7669 9.04756C20.6139 8.68129 20.3898 8.34902 20.1075 8.07L16.0125 3.945C15.5929 3.52771 15.0593 3.24382 14.4788 3.12906C13.8983 3.01429 13.2968 3.07376 12.75 3.3C12.1866 3.52087 11.7032 3.90696 11.3632 4.40756C11.0232 4.90816 10.8426 5.49987 10.845 6.105C8.63191 6.5459 6.64028 7.7408 5.2097 9.48594C3.77911 11.2311 2.99816 13.4184 2.99999 15.675V20.175C2.99883 20.3448 3.05533 20.51 3.16023 20.6435C3.26514 20.777 3.41224 20.871 3.57749 20.91ZM4.49999 15.675C4.5012 13.6736 5.22992 11.7409 6.5504 10.2369C7.87087 8.73288 9.69306 7.76019 11.6775 7.5C11.8591 7.4762 12.0256 7.3868 12.1458 7.24864C12.266 7.11048 12.3315 6.93312 12.33 6.75V6.105C12.3275 5.79724 12.4196 5.49615 12.5941 5.24258C12.7685 4.989 13.0167 4.79521 13.305 4.6875C13.4977 4.60826 13.7041 4.5675 13.9125 4.5675C14.3034 4.57112 14.6774 4.7272 14.955 5.0025L19.065 9.12C19.2067 9.25958 19.3193 9.42594 19.3961 9.60943C19.4729 9.79291 19.5125 9.98984 19.5125 10.1888C19.5125 10.3877 19.4729 10.5846 19.3961 10.7681C19.3193 10.9516 19.2067 11.1179 19.065 11.2575L14.9025 15.4275C14.6928 15.6424 14.4235 15.7895 14.1293 15.8497C13.8352 15.9098 13.5297 15.8803 13.2525 15.765C12.9787 15.6556 12.7453 15.4643 12.5842 15.2173C12.4232 14.9704 12.3422 14.6797 12.3525 14.385V14.205C12.3522 14.1022 12.3307 14.0005 12.2894 13.9063C12.2481 13.8121 12.1879 13.7274 12.1125 13.6575C12.0361 13.5874 11.946 13.5338 11.8479 13.5003C11.7498 13.4667 11.6458 13.4538 11.5425 13.4625C10.1605 13.5747 8.81812 13.9791 7.60408 14.6488C6.39004 15.3185 5.33202 16.2384 4.49999 17.3475V15.675Z" fill="#202020"/>
</svg>
