<svg width="24" height="24" viewBox="0 0 24 24" fill="none" xmlns="http://www.w3.org/2000/svg">
<path d="M7.40606 19.7085H17.4697C19.0071 19.7085 20.2534 18.4622 20.2534 16.9248V6.86114C20.2534 5.32375 19.0071 4.07745 17.4697 4.07745L7.40606 4.07745C5.86868 4.07745 4.62238 5.32375 4.62238 6.86114L4.62238 16.9248C4.62238 18.4622 5.86868 19.7085 7.40606 19.7085Z" stroke="#202020" stroke-width="1.30573" stroke-linecap="round" stroke-linejoin="round"/>
<path d="M14.5444 8.17603L16.3604 9.99203L14.579 11.7735" stroke="#202020" stroke-width="1.30573" stroke-linecap="round" stroke-linejoin="round"/>
<path d="M15.8828 10.016H11.3132C10.5712 10.016 9.85952 10.3107 9.33479 10.8354C8.81006 11.3601 8.51522 12.0717 8.51514 12.8138C8.51514 13.5558 8.80993 14.2676 9.33467 14.7923C9.85942 15.317 10.5711 15.6118 11.3132 15.6118H13.9945" stroke="#202020" stroke-width="1.30573" stroke-linecap="round" stroke-linejoin="round"/>
</svg>
