<svg width="24" height="24" viewBox="0 0 24 24" fill="none" xmlns="http://www.w3.org/2000/svg">
<path d="M6.13578 21.728C6.01723 21.7279 5.90101 21.695 5.80011 21.6327C5.6992 21.5705 5.61757 21.4814 5.56431 21.3755C5.51105 21.2696 5.48826 21.151 5.49848 21.0328C5.5087 20.9147 5.55152 20.8018 5.62218 20.7066L18.5854 3.22977C18.6349 3.16073 18.6976 3.10223 18.7699 3.05767C18.8422 3.01312 18.9227 2.98341 19.0066 2.97026C19.0905 2.95712 19.1762 2.96081 19.2586 2.98112C19.3411 3.00143 19.4187 3.03796 19.4869 3.08856C19.5552 3.13917 19.6126 3.20285 19.656 3.27589C19.6993 3.34893 19.7277 3.42987 19.7394 3.51398C19.7512 3.5981 19.7461 3.68372 19.7244 3.76584C19.7028 3.84797 19.665 3.92496 19.6132 3.99233L6.65034 21.4688C6.59081 21.5492 6.51324 21.6146 6.42388 21.6596C6.33452 21.7046 6.23584 21.728 6.13578 21.728Z" fill="#202020"/>
<path d="M4.18463 16.9872C4.05642 16.9872 3.93116 16.9487 3.8251 16.8766C3.71904 16.8046 3.63706 16.7024 3.58978 16.5832C3.5425 16.464 3.53211 16.3334 3.55995 16.2082C3.58778 16.0831 3.65257 15.9692 3.74591 15.8813L8.17631 11.712C8.58138 11.3311 9.10658 11.1034 9.66146 11.0681C10.2164 11.0327 10.7662 11.192 11.2163 11.5184L13.3638 13.0778C13.6012 13.2495 13.8969 13.3204 14.1863 13.275C14.4758 13.2295 14.7355 13.0714 14.9088 12.8352L19.1139 7.08161C19.2141 6.94454 19.3645 6.85287 19.5323 6.82677C19.7 6.80066 19.8712 6.84226 20.0083 6.94241C20.1454 7.04255 20.237 7.19304 20.2631 7.36078C20.2892 7.52851 20.2477 7.69974 20.1475 7.83681L15.9417 13.5901C15.568 14.0993 15.0081 14.44 14.3841 14.5378C13.7601 14.6355 13.1227 14.4825 12.6112 14.112L10.464 12.5539C10.2552 12.4026 10.0001 12.3287 9.74275 12.3451C9.48537 12.3614 9.24173 12.467 9.05375 12.6435L4.62303 16.8134C4.50445 16.9252 4.34759 16.9874 4.18463 16.9872Z" fill="#202020"/>
<path d="M12.6176 11.52C12.2408 11.52 11.8725 11.4083 11.5593 11.199C11.246 10.9896 11.0018 10.6921 10.8577 10.344C10.7135 9.99595 10.6757 9.61293 10.7493 9.2434C10.8228 8.87388 11.0042 8.53445 11.2706 8.26803C11.537 8.00162 11.8764 7.82019 12.246 7.74669C12.6155 7.67318 12.9985 7.71091 13.3466 7.85509C13.6947 7.99927 13.9922 8.24344 14.2015 8.55671C14.4108 8.86997 14.5226 9.23828 14.5226 9.61504C14.522 10.1201 14.3211 10.6043 13.964 10.9614C13.6068 11.3185 13.1227 11.5194 12.6176 11.52ZM12.6176 8.99008C12.494 8.99008 12.3732 9.02674 12.2704 9.09541C12.1676 9.16408 12.0875 9.26169 12.0402 9.37588C11.9929 9.49008 11.9805 9.61574 12.0047 9.73697C12.0288 9.8582 12.0883 9.96955 12.1757 10.057C12.2631 10.1444 12.3745 10.2039 12.4957 10.228C12.6169 10.2521 12.7426 10.2397 12.8568 10.1924C12.971 10.1451 13.0686 10.065 13.1372 9.96225C13.2059 9.85948 13.2426 9.73865 13.2426 9.61504C13.2419 9.44968 13.1758 9.29131 13.0587 9.17456C12.9415 9.05781 12.783 8.99217 12.6176 8.992V8.99008Z" fill="#202020"/>
</svg>
