<svg width="24" height="24" viewBox="0 0 24 24" fill="none" xmlns="http://www.w3.org/2000/svg">
<path d="M18.5681 20.4557H8.50408C7.59629 20.4547 6.72597 20.0936 6.08407 19.4517C5.44216 18.8098 5.08109 17.9395 5.08008 17.0317V6.96801C5.08109 6.06022 5.44216 5.1899 6.08407 4.548C6.72597 3.90609 7.59629 3.54502 8.50408 3.54401H18.0161C18.1858 3.54401 18.3486 3.61143 18.4686 3.73146C18.5886 3.85148 18.6561 4.01427 18.6561 4.18401C18.6561 4.35374 18.5886 4.51653 18.4686 4.63655C18.3486 4.75658 18.1858 4.82401 18.0161 4.82401H8.50408C7.93561 4.82451 7.39057 5.05056 6.9886 5.45253C6.58663 5.8545 6.36059 6.39954 6.36008 6.96801V17.032C6.36059 17.6005 6.58663 18.1455 6.9886 18.5475C7.39057 18.9494 7.93561 19.1755 8.50408 19.176H18.5681C19.1365 19.1755 19.6816 18.9494 20.0836 18.5475C20.4855 18.1455 20.7116 17.6005 20.7121 17.032V8.35201C20.7121 8.18227 20.7795 8.01948 20.8995 7.89946C21.0196 7.77943 21.1823 7.71201 21.3521 7.71201C21.5218 7.71201 21.6846 7.77943 21.8046 7.89946C21.9246 8.01948 21.9921 8.18227 21.9921 8.35201V17.032C21.991 17.9397 21.6299 18.81 20.988 19.4518C20.3461 20.0936 19.4758 20.4547 18.5681 20.4557Z" fill="#202020"/>
<path d="M5.72084 16.9872C5.58525 16.9873 5.45313 16.9443 5.34356 16.8644C5.23399 16.7845 5.15261 16.6719 5.11118 16.5428C5.06974 16.4137 5.07039 16.2747 5.11302 16.146C5.15564 16.0173 5.23806 15.9054 5.34836 15.8266L10.9704 11.8106C11.3786 11.5192 11.8776 11.3838 12.377 11.4288C12.8765 11.4739 13.3432 11.6964 13.6927 12.056L14.1797 12.5571C14.3239 12.7045 14.5184 12.7921 14.7243 12.8025C14.9302 12.8129 15.1325 12.7453 15.2908 12.6131L20.9394 7.86145C21.0693 7.75218 21.2373 7.69898 21.4064 7.71356C21.5755 7.72815 21.7319 7.80931 21.8412 7.93921C21.9504 8.0691 22.0036 8.23708 21.989 8.40619C21.9745 8.5753 21.8933 8.7317 21.7634 8.84097L16.1148 13.5926C15.7084 13.9321 15.1889 14.1059 14.6601 14.0792C14.1312 14.0526 13.6319 13.8275 13.2616 13.449L12.7746 12.9478C12.6391 12.8068 12.4572 12.7195 12.2625 12.7018C12.0677 12.6842 11.8731 12.7375 11.7144 12.8518L6.09237 16.8682C5.98393 16.9455 5.85406 16.9872 5.72084 16.9872Z" fill="#202020"/>
<path d="M14.7347 11.52C14.3579 11.5199 13.9896 11.4081 13.6764 11.1987C13.3631 10.9893 13.119 10.6917 12.9749 10.3436C12.8308 9.99545 12.7932 9.61238 12.8668 9.24285C12.9404 8.87332 13.122 8.53392 13.3885 8.26758C13.655 8.00123 13.9945 7.81991 14.3641 7.74654C14.7337 7.67317 15.1167 7.71105 15.4648 7.85539C15.8128 7.99973 16.1103 8.24404 16.3194 8.55743C16.5286 8.87082 16.6402 9.23921 16.64 9.616C16.6392 10.1209 16.4381 10.6049 16.0809 10.9618C15.7238 11.3188 15.2397 11.5195 14.7347 11.52ZM14.7347 8.99008C14.6112 8.99014 14.4904 9.02683 14.3877 9.09549C14.285 9.16416 14.2049 9.26173 14.1577 9.37588C14.1104 9.49003 14.098 9.61562 14.1221 9.73681C14.1461 9.85799 14.2056 9.96932 14.2929 10.0567C14.3802 10.1441 14.4915 10.2037 14.6126 10.2279C14.7338 10.2521 14.8594 10.2398 14.9736 10.1927C15.0878 10.1455 15.1855 10.0656 15.2542 9.96291C15.323 9.86027 15.3598 9.73955 15.36 9.616C15.3595 9.45044 15.2934 9.29182 15.1762 9.17487C15.059 9.05793 14.9003 8.99217 14.7347 8.992V8.99008ZM21.3514 7.37408C21.1965 7.37408 21.0469 7.31791 20.9302 7.216L19.7418 6.176C19.678 6.12084 19.6257 6.05363 19.588 5.97821C19.5503 5.90279 19.5278 5.82066 19.5219 5.73654C19.5161 5.65242 19.5268 5.56797 19.5537 5.48804C19.5806 5.4081 19.623 5.33426 19.6784 5.27077C19.7339 5.20727 19.8014 5.15536 19.877 5.11803C19.9526 5.0807 20.0349 5.05867 20.119 5.05323C20.2032 5.04778 20.2876 5.05902 20.3674 5.08629C20.4472 5.11357 20.5208 5.15634 20.584 5.21216L21.3222 5.85728L22.0214 5.1584C22.1421 5.04182 22.3038 4.97731 22.4716 4.97877C22.6394 4.98023 22.7999 5.04754 22.9186 5.1662C23.0373 5.28486 23.1046 5.44538 23.106 5.61318C23.1075 5.78099 23.043 5.94265 22.9264 6.06336L21.8042 7.1856C21.7448 7.24525 21.6742 7.29259 21.5965 7.32494C21.5188 7.35728 21.4355 7.37398 21.3514 7.37408Z" fill="#202020"/>
<path d="M21.3517 7.37408C21.1819 7.37408 21.0191 7.30665 20.8991 7.18663C20.7791 7.06661 20.7117 6.90382 20.7117 6.73408V4.36032C20.7117 4.19058 20.7791 4.0278 20.8991 3.90777C21.0191 3.78775 21.1819 3.72032 21.3517 3.72032C21.5214 3.72032 21.6842 3.78775 21.8042 3.90777C21.9242 4.0278 21.9917 4.19058 21.9917 4.36032V6.73408C21.9917 6.90382 21.9242 7.06661 21.8042 7.18663C21.6842 7.30665 21.5214 7.37408 21.3517 7.37408Z" fill="#202020"/>
</svg>
