<svg width="24" height="24" viewBox="0 0 24 24" fill="none" xmlns="http://www.w3.org/2000/svg">
<path d="M17.3003 20.4557H7.23626C6.32844 20.4548 5.45807 20.0937 4.81615 19.4518C4.17423 18.8099 3.81319 17.9395 3.81226 17.0317V6.96801C3.81319 6.06019 4.17423 5.18982 4.81615 4.5479C5.45807 3.90598 6.32844 3.54494 7.23626 3.54401H16.7473C16.917 3.54401 17.0798 3.61143 17.1998 3.73146C17.3199 3.85148 17.3873 4.01427 17.3873 4.18401C17.3873 4.35374 17.3199 4.51653 17.1998 4.63655C17.0798 4.75658 16.917 4.82401 16.7473 4.82401H7.23626C6.66779 4.82451 6.12275 5.05056 5.72078 5.45253C5.31881 5.8545 5.09276 6.39954 5.09226 6.96801V17.032C5.09276 17.6005 5.31881 18.1455 5.72078 18.5475C6.12275 18.9494 6.66779 19.1755 7.23626 19.176H17.3003C17.8687 19.1755 18.4138 18.9494 18.8157 18.5475C19.2177 18.1455 19.4437 17.6005 19.4443 17.032V8.35201C19.4443 8.18227 19.5117 8.01948 19.6317 7.89946C19.7517 7.77943 19.9145 7.71201 20.0843 7.71201C20.254 7.71201 20.4168 7.77943 20.5368 7.89946C20.6568 8.01948 20.7243 8.18227 20.7243 8.35201V17.032C20.7232 17.9397 20.362 18.81 19.7202 19.4518C19.0783 20.0936 18.208 20.4547 17.3003 20.4557Z" fill="#202020"/>
<path d="M4.45302 16.9872C4.31743 16.9872 4.18531 16.9442 4.07574 16.8644C3.96616 16.7845 3.88479 16.6719 3.84336 16.5428C3.80192 16.4136 3.80256 16.2747 3.84519 16.146C3.88782 16.0173 3.97023 15.9054 4.08054 15.8265L9.82102 11.7261C10.1961 11.458 10.6547 11.3333 11.1139 11.3744C11.573 11.4155 12.0022 11.6197 12.3237 11.9501L13.0217 12.6688C13.136 12.7856 13.2902 12.8551 13.4534 12.8634C13.6167 12.8716 13.7771 12.818 13.9026 12.7133L19.6716 7.86143C19.7359 7.80732 19.8102 7.76642 19.8904 7.74104C19.9705 7.71567 20.0548 7.70633 20.1386 7.71355C20.2223 7.72077 20.3038 7.74441 20.3784 7.78313C20.453 7.82184 20.5192 7.87487 20.5733 7.93919C20.6274 8.0035 20.6684 8.07785 20.6937 8.15797C20.7191 8.2381 20.7284 8.32244 20.7212 8.40617C20.714 8.48991 20.6904 8.5714 20.6516 8.646C20.6129 8.7206 20.5599 8.78684 20.4956 8.84095L14.7266 13.6941C14.3529 14.0064 13.8752 14.1663 13.3887 14.1418C12.9023 14.1173 12.443 13.9102 12.1026 13.5619L11.4044 12.8435C11.2969 12.7321 11.1529 12.6631 10.9988 12.6492C10.8446 12.6354 10.6906 12.6775 10.565 12.768L4.82454 16.8681C4.71618 16.9457 4.58626 16.9873 4.45302 16.9872Z" fill="#202020"/>
<path d="M13.2651 11.52C12.8883 11.52 12.52 11.4083 12.2067 11.1989C11.8935 10.9896 11.6493 10.6921 11.5051 10.344C11.3609 9.99594 11.3232 9.61291 11.3967 9.24339C11.4702 8.87386 11.6516 8.53443 11.9181 8.26802C12.1845 8.0016 12.5239 7.82017 12.8934 7.74667C13.263 7.67317 13.646 7.71089 13.9941 7.85507C14.3422 7.99926 14.6397 8.24342 14.849 8.55669C15.0583 8.86996 15.17 9.23826 15.17 9.61503C15.1694 10.1201 14.9685 10.6043 14.6114 10.9614C14.2543 11.3185 13.7701 11.5194 13.2651 11.52ZM13.2651 8.99007C13.1415 8.99007 13.0206 9.02672 12.9179 9.09539C12.8151 9.16406 12.735 9.26167 12.6877 9.37586C12.6404 9.49006 12.628 9.61572 12.6521 9.73695C12.6762 9.85818 12.7358 9.96954 12.8232 10.0569C12.9106 10.1443 13.0219 10.2039 13.1431 10.228C13.2644 10.2521 13.39 10.2397 13.5042 10.1924C13.6184 10.1451 13.716 10.065 13.7847 9.96224C13.8534 9.85946 13.89 9.73863 13.89 9.61503C13.8894 9.44966 13.8232 9.29129 13.7061 9.17454C13.589 9.05779 13.4304 8.99215 13.2651 8.99199V8.99007ZM20.0174 7.37407C19.8476 7.37407 19.6849 7.30664 19.5648 7.18661C19.4448 7.06659 19.3774 6.90381 19.3774 6.73407V4.36031C19.3774 4.19057 19.4448 4.02778 19.5648 3.90776C19.6849 3.78773 19.8476 3.72031 20.0174 3.72031C20.1871 3.72031 20.3499 3.78773 20.4699 3.90776C20.59 4.02778 20.6574 4.19057 20.6574 4.36031V6.73407C20.6574 6.90381 20.59 7.06659 20.4699 7.18661C20.3499 7.30664 20.1871 7.37407 20.0174 7.37407Z" fill="#202020"/>
<path d="M21.2041 6.1872H18.8307C18.6609 6.1872 18.4981 6.11977 18.3781 5.99974C18.2581 5.87972 18.1907 5.71693 18.1907 5.5472C18.1907 5.37746 18.2581 5.21467 18.3781 5.09465C18.4981 4.97462 18.6609 4.9072 18.8307 4.9072H21.2041C21.3739 4.9072 21.5366 4.97462 21.6567 5.09465C21.7767 5.21467 21.8441 5.37746 21.8441 5.5472C21.8441 5.71693 21.7767 5.87972 21.6567 5.99974C21.5366 6.11977 21.3739 6.1872 21.2041 6.1872Z" fill="#202020"/>
</svg>
