<svg width="24" height="24" viewBox="0 0 24 24" fill="none" xmlns="http://www.w3.org/2000/svg">
<path d="M17.0319 20.4557H6.96795C6.06016 20.4547 5.18984 20.0936 4.54793 19.4517C3.90603 18.8098 3.54496 17.9395 3.54395 17.0317V6.96801C3.54496 6.06022 3.90603 5.1899 4.54793 4.548C5.18984 3.90609 6.06016 3.54502 6.96795 3.54401H16.4799C16.6497 3.54401 16.8125 3.61143 16.9325 3.73146C17.0525 3.85148 17.1199 4.01427 17.1199 4.18401C17.1199 4.35374 17.0525 4.51653 16.9325 4.63655C16.8125 4.75658 16.6497 4.82401 16.4799 4.82401H6.96795C6.39948 4.82451 5.85444 5.05056 5.45247 5.45253C5.0505 5.8545 4.82445 6.39954 4.82395 6.96801V17.032C4.82445 17.6005 5.0505 18.1455 5.45247 18.5475C5.85444 18.9494 6.39948 19.1755 6.96795 19.176H17.0319C17.6004 19.1755 18.1455 18.9494 18.5474 18.5475C18.9494 18.1455 19.1754 17.6005 19.1759 17.032V8.35201C19.1759 8.18227 19.2434 8.01948 19.3634 7.89946C19.4834 7.77943 19.6462 7.71201 19.8159 7.71201C19.9857 7.71201 20.1485 7.77943 20.2685 7.89946C20.3885 8.01948 20.4559 8.18227 20.4559 8.35201V17.032C20.4548 17.9397 20.0937 18.81 19.4518 19.4518C18.8099 20.0936 17.9397 20.4547 17.0319 20.4557Z" fill="#202020"/>
<path d="M4.18496 16.9872C4.04936 16.9873 3.91725 16.9443 3.80767 16.8644C3.6981 16.7845 3.61673 16.6719 3.57529 16.5428C3.53385 16.4137 3.5345 16.2747 3.57713 16.146C3.61976 16.0173 3.70217 15.9054 3.81248 15.8266L9.30208 11.904C9.74696 11.5861 10.2911 11.4383 10.8356 11.4873C11.3802 11.5364 11.8891 11.779 12.2701 12.1712L12.521 12.4294C12.6985 12.6111 12.9381 12.7191 13.1918 12.7318C13.4455 12.7446 13.6947 12.6612 13.8896 12.4982L19.4035 7.86145C19.5334 7.75218 19.7014 7.69898 19.8705 7.71356C20.0396 7.72815 20.196 7.80931 20.3053 7.93921C20.4145 8.0691 20.4677 8.23708 20.4532 8.40619C20.4386 8.5753 20.3574 8.7317 20.2275 8.84097L14.7136 13.479C14.2706 13.8493 13.7042 14.0389 13.1276 14.0098C12.551 13.9808 12.0065 13.7354 11.6029 13.3226L11.352 13.0643C11.185 12.8907 10.9609 12.7833 10.721 12.7617C10.481 12.7401 10.2414 12.8059 10.0461 12.9469L4.55648 16.8682C4.44804 16.9455 4.31817 16.9872 4.18496 16.9872Z" fill="#202020"/>
<path d="M13.0241 11.52C12.6473 11.52 12.279 11.4083 11.9658 11.199C11.6525 10.9896 11.4083 10.6921 11.2641 10.344C11.12 9.99596 11.0822 9.61293 11.1557 9.2434C11.2292 8.87388 11.4107 8.53445 11.6771 8.26803C11.9435 8.00162 12.2829 7.82019 12.6525 7.74669C13.022 7.67318 13.405 7.71091 13.7531 7.85509C14.1012 7.99927 14.3987 8.24344 14.608 8.55671C14.8173 8.86997 14.9291 9.23828 14.9291 9.61504C14.9285 10.1201 14.7276 10.6043 14.3705 10.9614C14.0133 11.3185 13.5291 11.5194 13.0241 11.52ZM13.0241 8.992C12.9005 8.992 12.7797 9.02866 12.6769 9.09733C12.5741 9.166 12.494 9.26361 12.4467 9.3778C12.3994 9.492 12.387 9.61766 12.4112 9.73889C12.4353 9.86012 12.4948 9.97148 12.5822 10.0589C12.6696 10.1463 12.7809 10.2058 12.9022 10.2299C13.0234 10.254 13.1491 10.2417 13.2633 10.1944C13.3775 10.147 13.4751 10.0669 13.5437 9.96417C13.6124 9.8614 13.6491 9.74057 13.6491 9.61696C13.6489 9.45127 13.583 9.2924 13.4658 9.17524C13.3487 9.05807 13.1898 8.99217 13.0241 8.992ZM19.2983 7.59168C19.2069 7.59165 19.1166 7.57204 19.0334 7.53417C18.9503 7.49631 18.8761 7.44107 18.8161 7.37216L17.6241 6.00512C17.3686 5.71267 17.228 5.33744 17.2283 4.94912C17.2281 4.67867 17.2963 4.41255 17.4264 4.17545C17.5565 3.93835 17.7444 3.73792 17.9726 3.59276C18.2008 3.44759 18.4619 3.36238 18.7318 3.34502C19.0017 3.32766 19.2717 3.37871 19.5166 3.49344C19.759 3.40657 20.0187 3.37926 20.2739 3.41383C20.5291 3.4484 20.7722 3.54383 20.9828 3.69208C21.1933 3.84032 21.3651 4.03703 21.4837 4.26561C21.6023 4.49419 21.6642 4.74794 21.6641 5.00544C21.6654 5.42375 21.5026 5.82588 21.2107 6.12544C21.1787 6.15744 21.1467 6.18944 21.1147 6.21728L19.7185 7.43488C19.6021 7.53637 19.4528 7.59209 19.2983 7.59168ZM18.835 4.6224C18.792 4.6224 18.7495 4.63087 18.7098 4.64733C18.6701 4.66378 18.634 4.6879 18.6036 4.71831C18.5732 4.74871 18.5492 4.7848 18.5327 4.82451C18.5163 4.86423 18.5079 4.90679 18.5079 4.94976C18.5078 5.01443 18.5271 5.07764 18.5633 5.1312C18.5709 5.1424 18.5793 5.15309 18.5883 5.1632L19.3601 6.048L20.2737 5.2512C20.2811 5.24512 20.2878 5.2384 20.2942 5.232C20.3509 5.17312 20.3835 5.09512 20.3856 5.01338C20.3877 4.93164 20.3591 4.85209 20.3054 4.7904C20.2513 4.72866 20.176 4.68948 20.0944 4.68065C20.0127 4.67182 19.9308 4.69398 19.8647 4.74272C19.746 4.83146 19.6002 4.87623 19.4521 4.8694C19.3041 4.86257 19.163 4.80457 19.0529 4.70528C18.9931 4.65156 18.9154 4.62202 18.835 4.6224Z" fill="#202020"/>
</svg>
