<svg width="24" height="24" viewBox="0 0 24 24" fill="none" xmlns="http://www.w3.org/2000/svg">
<path d="M17.4677 20.4557H7.40374C6.49595 20.4547 5.62563 20.0936 4.98373 19.4517C4.34182 18.8098 3.98075 17.9395 3.97974 17.0317V6.96801C3.98075 6.06022 4.34182 5.1899 4.98373 4.548C5.62563 3.90609 6.49595 3.54502 7.40374 3.54401H16.9148C17.0845 3.54401 17.2473 3.61143 17.3673 3.73146C17.4873 3.85148 17.5548 4.01427 17.5548 4.18401C17.5548 4.35374 17.4873 4.51653 17.3673 4.63655C17.2473 4.75658 17.0845 4.82401 16.9148 4.82401H7.40374C6.83527 4.82451 6.29023 5.05056 5.88826 5.45253C5.48629 5.8545 5.26024 6.39954 5.25974 6.96801V17.032C5.26024 17.6005 5.48629 18.1455 5.88826 18.5475C6.29023 18.9494 6.83527 19.1755 7.40374 19.176H17.4677C18.0362 19.1755 18.5812 18.9494 18.9832 18.5475C19.3852 18.1455 19.6112 17.6005 19.6117 17.032V8.35201C19.6117 8.18227 19.6792 8.01948 19.7992 7.89946C19.9192 7.77943 20.082 7.71201 20.2517 7.71201C20.4215 7.71201 20.5843 7.77943 20.7043 7.89946C20.8243 8.01948 20.8917 8.18227 20.8917 8.35201V17.032C20.8907 17.9398 20.5296 18.8101 19.8877 19.4519C19.2458 20.0938 18.3755 20.4548 17.4677 20.4557Z" fill="#202020"/>
<path d="M4.62075 16.9872C4.48515 16.9873 4.35304 16.9443 4.24346 16.8644C4.13389 16.7845 4.05252 16.6719 4.01108 16.5428C3.96965 16.4137 3.97029 16.2747 4.01292 16.146C4.05555 16.0173 4.13796 15.9054 4.24827 15.8266L9.67387 11.951C10.1366 11.6205 10.7024 11.4668 11.2687 11.5178C11.835 11.5688 12.3643 11.821 12.7606 12.2288L12.8975 12.3696C13.0913 12.5678 13.3526 12.6856 13.6294 12.6996C13.9062 12.7135 14.178 12.6225 14.3907 12.4448L19.8399 7.86145C19.9698 7.75218 20.1378 7.69898 20.3069 7.71356C20.476 7.72815 20.6324 7.80931 20.7417 7.93921C20.851 8.0691 20.9042 8.23708 20.8896 8.40619C20.875 8.5753 20.7938 8.7317 20.6639 8.84097L15.2147 13.4243C14.7539 13.8093 14.1649 14.0064 13.5652 13.9763C12.9656 13.9462 12.3993 13.691 11.9795 13.2618L11.8425 13.121C11.6603 12.9316 11.4159 12.8143 11.1541 12.7908C10.8923 12.7673 10.6309 12.8391 10.4179 12.993L4.99195 16.8682C4.8836 16.9455 4.75385 16.9871 4.62075 16.9872Z" fill="#202020"/>
<path d="M13.4323 11.52C13.0555 11.52 12.6872 11.4083 12.374 11.199C12.0607 10.9896 11.8165 10.6921 11.6724 10.344C11.5282 9.99595 11.4904 9.61293 11.5639 9.2434C11.6375 8.87388 11.8189 8.53445 12.0853 8.26803C12.3517 8.00162 12.6911 7.82019 13.0607 7.74669C13.4302 7.67318 13.8132 7.71091 14.1613 7.85509C14.5094 7.99927 14.8069 8.24343 15.0162 8.5567C15.2255 8.86997 15.3373 9.23828 15.3373 9.61504C15.3367 10.1201 15.1358 10.6043 14.7787 10.9614C14.4215 11.3185 13.9374 11.5194 13.4323 11.52ZM13.4323 8.99008C13.3087 8.99008 13.1879 9.02674 13.0851 9.09541C12.9823 9.16408 12.9022 9.26168 12.8549 9.37588C12.8076 9.49008 12.7952 9.61574 12.8194 9.73697C12.8435 9.8582 12.903 9.96955 12.9904 10.057C13.0778 10.1444 13.1892 10.2039 13.3104 10.228C13.4316 10.2521 13.5573 10.2397 13.6715 10.1924C13.7857 10.1451 13.8833 10.065 13.9519 9.96225C14.0206 9.85948 14.0573 9.73865 14.0573 9.61504C14.0566 9.44968 13.9905 9.29131 13.8734 9.17456C13.7562 9.05781 13.5977 8.99217 13.4323 8.992V8.99008ZM19.3456 7.02656C19.219 7.02654 19.0953 6.98899 18.9901 6.91866C18.8849 6.84833 18.8029 6.74839 18.7544 6.63146C18.706 6.51453 18.6933 6.38587 18.718 6.26174C18.7427 6.13761 18.8036 6.02359 18.8931 5.93408L20.5715 4.256C20.6915 4.13595 20.8543 4.0685 21.024 4.06847C21.1938 4.06844 21.3566 4.13584 21.4766 4.25584C21.5967 4.37585 21.6641 4.53863 21.6642 4.70837C21.6642 4.87811 21.5968 5.04091 21.4768 5.16096L19.7984 6.83904C19.739 6.8986 19.6684 6.94583 19.5907 6.97801C19.513 7.01019 19.4297 7.02669 19.3456 7.02656Z" fill="#202020"/>
<path d="M21.024 7.02656C20.9399 7.02665 20.8567 7.01013 20.7791 6.97795C20.7014 6.94577 20.6309 6.89856 20.5715 6.83904L18.8931 5.16064C18.7766 5.0399 18.7121 4.87821 18.7136 4.7104C18.7152 4.5426 18.7825 4.3821 18.9012 4.26348C19.0199 4.14486 19.1805 4.07761 19.3483 4.07621C19.5161 4.07481 19.6777 4.13938 19.7984 4.256L21.4768 5.9344C21.5662 6.02394 21.627 6.13797 21.6516 6.26207C21.6763 6.38618 21.6635 6.51479 21.6151 6.63167C21.5666 6.74854 21.4846 6.84844 21.3794 6.91872C21.2742 6.98901 21.1505 7.02653 21.024 7.02656Z" fill="#202020"/>
</svg>
