<svg width="24" height="24" viewBox="0 0 24 24" fill="none" xmlns="http://www.w3.org/2000/svg">
<path d="M19.3383 20.224C19.1685 20.224 19.0057 20.1566 18.8857 20.0365C18.7657 19.9165 18.6983 19.7537 18.6983 19.584V12C18.6983 8.15648 15.5715 5.02976 11.728 5.02976C7.8845 5.02976 4.75778 8.15648 4.75778 12V19.4982C4.75778 19.668 4.69035 19.8308 4.57033 19.9508C4.45031 20.0708 4.28752 20.1382 4.11778 20.1382C3.94804 20.1382 3.78526 20.0708 3.66523 19.9508C3.54521 19.8308 3.47778 19.668 3.47778 19.4982V12C3.47778 10.9166 3.69118 9.84373 4.1058 8.84277C4.52041 7.8418 5.12812 6.9323 5.89422 6.1662C6.66033 5.40009 7.56983 4.79238 8.57079 4.37777C9.57176 3.96315 10.6446 3.74976 11.728 3.74976C12.8115 3.74976 13.8843 3.96315 14.8853 4.37777C15.8862 4.79238 16.7957 5.40009 17.5618 6.1662C18.3279 6.9323 18.9356 7.8418 19.3503 8.84277C19.7649 9.84373 19.9783 10.9166 19.9783 12V19.584C19.9783 19.7537 19.9108 19.9165 19.7908 20.0365C19.6708 20.1566 19.508 20.224 19.3383 20.224Z" fill="#202020"/>
<path d="M19.3396 20.352C19.2228 20.3525 19.1081 20.3208 19.0081 20.2605L16.8001 18.9251L14.5921 20.2605C14.4921 20.321 14.3775 20.353 14.2607 20.353C14.1439 20.353 14.0293 20.321 13.9294 20.2605L11.7214 18.9251L9.51336 20.2605C9.41341 20.321 9.29882 20.353 9.182 20.353C9.06518 20.353 8.95058 20.321 8.85064 20.2605L6.64264 18.9251L4.43464 20.2605C4.36272 20.3047 4.28275 20.3343 4.19935 20.3475C4.11594 20.3608 4.03075 20.3573 3.94868 20.3375C3.8666 20.3176 3.78927 20.2817 3.72114 20.2318C3.653 20.1819 3.59542 20.119 3.55169 20.0468C3.50797 19.9745 3.47898 19.8944 3.46639 19.8109C3.45379 19.7274 3.45785 19.6422 3.47832 19.5603C3.49879 19.4783 3.53527 19.4013 3.58566 19.3335C3.63605 19.2658 3.69935 19.2086 3.77192 19.1655L6.31016 17.6295C6.4101 17.569 6.5247 17.537 6.64152 17.537C6.75834 17.537 6.87293 17.569 6.97288 17.6295L9.18088 18.9648L11.3889 17.6295C11.4888 17.569 11.6034 17.537 11.7202 17.537C11.8371 17.537 11.9517 17.569 12.0516 17.6295L14.2596 18.9648L16.4676 17.6295C16.5675 17.569 16.6821 17.537 16.799 17.537C16.9158 17.537 17.0304 17.569 17.1303 17.6295L19.6686 19.1655C19.7875 19.2379 19.8795 19.3472 19.9307 19.4767C19.982 19.6061 19.9895 19.7488 19.9523 19.883C19.9151 20.0172 19.8352 20.1356 19.7246 20.2202C19.614 20.3049 19.4788 20.3511 19.3396 20.352ZM11.7252 11.5651C11.2745 11.5651 10.8339 11.4315 10.4592 11.1811C10.0844 10.9307 9.79237 10.5748 9.6199 10.1584C9.44744 9.74197 9.40233 9.28377 9.49029 8.84174C9.57824 8.3997 9.7953 7.99367 10.114 7.675C10.4327 7.35633 10.8388 7.13933 11.2808 7.05144C11.7229 6.96355 12.1811 7.00872 12.5974 7.18124C13.0138 7.35376 13.3697 7.64588 13.62 8.02066C13.8704 8.39543 14.004 8.83603 14.0039 9.28673C14.0032 9.89085 13.7629 10.47 13.3357 10.8972C12.9085 11.3243 12.3293 11.5645 11.7252 11.5651ZM11.7252 8.28801C11.5277 8.28801 11.3346 8.34659 11.1703 8.45633C11.0061 8.56607 10.8781 8.72205 10.8025 8.90454C10.7269 9.08703 10.7071 9.28784 10.7457 9.48157C10.7842 9.6753 10.8793 9.85326 11.019 9.99293C11.1587 10.1326 11.3366 10.2277 11.5304 10.2663C11.7241 10.3048 11.9249 10.285 12.1074 10.2094C12.2899 10.1338 12.4459 10.0058 12.5556 9.84159C12.6653 9.67735 12.7239 9.48426 12.7239 9.28673C12.7237 9.02193 12.6184 8.76805 12.4311 8.58081C12.2439 8.39357 11.99 8.28827 11.7252 8.28801Z" fill="#202020"/>
<path d="M11.7338 14.3066C10.9297 14.3066 10.1658 14.0964 9.52585 13.6986C8.87721 13.2957 8.40009 12.7172 8.18185 12.0695C8.12791 11.9085 8.14013 11.7327 8.2158 11.5808C8.29148 11.4288 8.42441 11.3132 8.58537 11.2592C8.74632 11.2053 8.92211 11.2175 9.07406 11.2932C9.22601 11.3689 9.34167 11.5018 9.39561 11.6628C9.66025 12.4525 10.6436 13.026 11.7316 13.026C12.7588 13.026 13.675 12.5364 14.011 11.8077C14.082 11.6536 14.2115 11.5339 14.3707 11.4752C14.53 11.4164 14.7061 11.4234 14.8602 11.4944C15.0144 11.5655 15.134 11.6949 15.1928 11.8542C15.2515 12.0135 15.2446 12.1896 15.1735 12.3437C14.9041 12.928 14.4321 13.4231 13.809 13.7757C13.1985 14.1232 12.4801 14.3066 11.7338 14.3066Z" fill="#202020"/>
</svg>
