<svg width="24" height="24" viewBox="0 0 24 24" fill="none" xmlns="http://www.w3.org/2000/svg">
<path d="M13.1991 20.3277C11.5006 20.3173 9.8465 19.7845 8.4612 18.8018C7.0759 17.8191 6.02651 16.4339 5.45545 14.8343C4.88438 13.2347 4.8193 11.4981 5.26903 9.86029C5.71876 8.22243 6.66152 6.7626 7.96937 5.67893C9.27722 4.59525 10.8868 3.9402 12.5797 3.80269C14.2726 3.66517 15.9668 4.05185 17.4325 4.91024C18.8981 5.76862 20.0641 7.05715 20.7722 8.60095C21.4804 10.1447 21.6965 11.869 21.3911 13.5398C21.377 13.6227 21.3468 13.702 21.3022 13.7732C21.2575 13.8444 21.1993 13.9061 21.1308 13.9548C21.0623 14.0035 20.9848 14.0382 20.9029 14.057C20.821 14.0757 20.7362 14.0782 20.6533 14.0642C20.5704 14.0501 20.4911 14.0199 20.4199 13.9753C20.3487 13.9306 20.287 13.8724 20.2383 13.8039C20.1897 13.7354 20.1549 13.6579 20.1362 13.576C20.1174 13.4941 20.115 13.4093 20.129 13.3264C20.2101 12.889 20.2496 12.4449 20.2467 12C20.2467 8.11392 17.0851 4.95232 13.1991 4.95232C9.31298 4.95232 6.1517 8.11392 6.1517 12C6.1517 15.8861 9.31202 19.0477 13.1991 19.0477C14.1564 19.0495 15.1039 18.8549 15.9831 18.4758C16.139 18.4087 16.3152 18.4063 16.4729 18.469C16.6306 18.5318 16.7569 18.6547 16.824 18.8106C16.8912 18.9665 16.8936 19.1427 16.8308 19.3004C16.7681 19.4581 16.6452 19.5844 16.4893 19.6515C15.4503 20.0996 14.3305 20.3297 13.1991 20.3277Z" fill="#202020"/>
<path d="M11.6919 20.1799C11.5573 20.1799 11.426 20.1375 11.3169 20.0587C11.2077 19.9799 11.1262 19.8687 11.0839 19.7408C9.4206 14.7143 9.4206 9.28572 11.0839 4.25922C11.1372 4.09796 11.2524 3.96449 11.4041 3.88815C11.5558 3.81182 11.7316 3.79888 11.8929 3.85218C12.0541 3.90547 12.1876 4.02065 12.2639 4.17235C12.3403 4.32406 12.3532 4.49988 12.2999 4.66114C10.7227 9.42661 10.7227 14.5734 12.2999 19.3389C12.3317 19.4351 12.3402 19.5375 12.3248 19.6376C12.3093 19.7377 12.2703 19.8327 12.2109 19.9148C12.1516 19.9969 12.0736 20.0638 11.9833 20.1098C11.8931 20.1559 11.7932 20.1799 11.6919 20.1799ZM14.5601 20.1799C14.4588 20.1799 14.3589 20.1559 14.2687 20.1098C14.1784 20.0638 14.1004 19.9969 14.0411 19.9148C13.9817 19.8327 13.9427 19.7377 13.9272 19.6376C13.9117 19.5375 13.9203 19.4351 13.9521 19.3389C14.7464 16.9422 15.1463 14.4324 15.1361 11.9075C15.1263 9.44472 14.7267 6.99898 13.9521 4.66114C13.9257 4.58129 13.9153 4.49703 13.9215 4.41317C13.9276 4.3293 13.9503 4.24747 13.9881 4.17235C14.0259 4.09724 14.0781 4.0303 14.1417 3.97536C14.2054 3.92042 14.2793 3.87857 14.3591 3.85218C14.439 3.82578 14.5232 3.81538 14.6071 3.82155C14.6909 3.82773 14.7728 3.85036 14.8479 3.88815C14.923 3.92595 14.99 3.97817 15.0449 4.04184C15.0998 4.10551 15.1417 4.17937 15.1681 4.25922C15.9847 6.72515 16.4059 9.3048 16.4161 11.9024C16.4271 14.5661 16.0057 17.2139 15.1681 19.7424C15.1255 19.87 15.0439 19.9808 14.9348 20.0594C14.8256 20.1379 14.6945 20.18 14.5601 20.1799Z" fill="#202020"/>
<path d="M13.222 15.2883H13.1234C10.5258 15.2783 7.94611 14.8571 5.4802 14.0403C5.40036 14.0139 5.3265 13.972 5.26284 13.9171C5.19918 13.8621 5.14697 13.7951 5.10919 13.72C5.03288 13.5683 5.01998 13.3924 5.07332 13.2312C5.09973 13.1513 5.14161 13.0775 5.19657 13.0138C5.25153 12.9502 5.31848 12.898 5.39362 12.8602C5.54536 12.7839 5.72119 12.771 5.88244 12.8243C8.22026 13.5984 10.6659 13.9975 13.1285 14.0067C15.6532 14.0177 18.163 13.6188 20.5599 12.8256C20.7211 12.7723 20.897 12.7852 21.0487 12.8616C21.2004 12.9379 21.3155 13.0714 21.3688 13.2326C21.4221 13.3939 21.4092 13.5697 21.3329 13.7214C21.2565 13.8731 21.1231 13.9883 20.9618 14.0416C18.4651 14.8682 15.852 15.2891 13.222 15.2883ZM5.68116 11.207C5.52887 11.2073 5.38147 11.1532 5.26545 11.0546C5.14943 10.9559 5.07239 10.8191 5.04818 10.6688C5.02397 10.5184 5.05417 10.3643 5.13335 10.2343C5.21254 10.1042 5.33552 10.0066 5.4802 9.95902C10.5068 8.29605 15.9352 8.29605 20.9618 9.95902C21.1231 10.0123 21.2565 10.1275 21.3329 10.2792C21.4092 10.4309 21.4221 10.6067 21.3688 10.768C21.3155 10.9292 21.2004 11.0627 21.0487 11.139C20.897 11.2154 20.7211 11.2283 20.5599 11.175C15.7944 9.59825 10.6479 9.59825 5.88244 11.175C5.81749 11.1964 5.74954 11.2072 5.68116 11.207Z" fill="#202020"/>
<path d="M18.983 19.6537C18.577 19.6538 18.1776 19.5517 17.8215 19.3569C17.4654 19.162 17.1641 18.8806 16.9454 18.5386C16.7266 18.1967 16.5975 17.8052 16.5698 17.4002C16.5422 16.9952 16.6169 16.5898 16.7872 16.2212C16.9574 15.8527 17.2177 15.533 17.544 15.2916C17.8704 15.0501 18.2522 14.8947 18.6544 14.8396C19.0566 14.7845 19.4661 14.8316 19.8454 14.9765C20.2246 15.1213 20.5612 15.3593 20.8243 15.6685C20.8788 15.7324 20.9201 15.8065 20.946 15.8865C20.9719 15.9665 20.9817 16.0507 20.975 16.1345C20.9683 16.2183 20.9452 16.2999 20.907 16.3748C20.8687 16.4496 20.8161 16.5162 20.7521 16.5707C20.6881 16.6252 20.614 16.6666 20.5341 16.6924C20.4541 16.7183 20.3698 16.7282 20.286 16.7215C20.2023 16.7148 20.1206 16.6916 20.0458 16.6534C19.9709 16.6151 19.9044 16.5625 19.8499 16.4985C19.6978 16.3198 19.4943 16.1924 19.267 16.1338C19.0398 16.0752 18.8 16.0884 18.5805 16.1714C18.361 16.2544 18.1725 16.4032 18.0409 16.5975C17.9093 16.7918 17.841 17.022 17.8453 17.2567C17.8496 17.4913 17.9264 17.7189 18.065 17.9082C18.2037 18.0975 18.3975 18.2393 18.6199 18.3142C18.8423 18.389 19.0825 18.3933 19.3074 18.3264C19.5323 18.2595 19.7311 18.1247 19.8764 17.9405C19.9286 17.8745 19.9932 17.8195 20.0665 17.7785C20.1399 17.7376 20.2207 17.7115 20.3042 17.7017C20.3877 17.6919 20.4722 17.6987 20.5531 17.7216C20.634 17.7446 20.7095 17.7832 20.7755 17.8353C20.8414 17.8875 20.8964 17.9521 20.9374 18.0255C20.9783 18.0989 21.0045 18.1796 21.0142 18.2631C21.024 18.3466 21.0172 18.4312 20.9943 18.512C20.9713 18.5929 20.9327 18.6684 20.8806 18.7344C20.6549 19.0217 20.3667 19.2538 20.0379 19.4131C19.7091 19.5724 19.3483 19.6547 18.983 19.6537Z" fill="#202020"/>
<path d="M19.5492 17.3895C19.3846 17.3896 19.2264 17.3264 19.1073 17.2129C18.9881 17.0994 18.9173 16.9444 18.9094 16.7801C18.9016 16.6157 18.9573 16.4547 19.065 16.3304C19.1728 16.206 19.3243 16.128 19.488 16.1124L20.2688 16.0359L20.1316 15.056C20.1139 14.8907 20.1612 14.725 20.2636 14.594C20.3659 14.463 20.5152 14.377 20.6799 14.3541C20.8446 14.3312 21.0117 14.3733 21.1458 14.4715C21.28 14.5697 21.3707 14.7162 21.3988 14.88L21.6285 16.5204C21.6403 16.6058 21.6346 16.6927 21.6119 16.7758C21.5893 16.859 21.55 16.9368 21.4965 17.0044C21.4431 17.072 21.3765 17.1282 21.3008 17.1694C21.2251 17.2107 21.1419 17.2362 21.056 17.2445L19.6112 17.3863C19.5911 17.3882 19.57 17.3895 19.5492 17.3895Z" fill="#202020"/>
</svg>
