<svg width="24" height="24" viewBox="0 0 24 24" fill="none" xmlns="http://www.w3.org/2000/svg">
<path d="M12.4133 20.3277C10.6435 20.3262 8.9203 19.7603 7.49411 18.7124C6.06791 17.6644 5.01304 16.189 4.48279 14.5005C3.95254 12.812 3.97453 10.9984 4.54558 9.32321C5.11663 7.64806 6.20698 6.19864 7.65817 5.18559C9.10937 4.17254 10.8458 3.64864 12.6151 3.69002C14.3845 3.7314 16.0945 4.33591 17.4967 5.4157C18.899 6.49549 19.9204 7.99429 20.4125 9.69431C20.9046 11.3943 20.8418 13.207 20.2332 14.8689C20.2047 14.9484 20.1608 15.0216 20.1039 15.084C20.0471 15.1465 19.9784 15.1972 19.9019 15.233C19.8254 15.2688 19.7425 15.2891 19.6581 15.2928C19.5737 15.2964 19.4894 15.2833 19.4101 15.2542C19.3307 15.2251 19.258 15.1805 19.1959 15.1232C19.1339 15.0658 19.0839 14.9967 19.0487 14.9199C19.0135 14.8431 18.9939 14.76 18.9909 14.6756C18.988 14.5912 19.0018 14.507 19.0316 14.4279C19.3166 13.6503 19.4619 12.8283 19.4607 12.0001C19.4607 8.11398 16.2991 4.95238 12.4133 4.95238C8.52757 4.95238 5.36565 8.11398 5.36565 12.0001C5.36565 15.8861 8.52725 19.0477 12.4133 19.0477C13.3707 19.0496 14.3182 18.855 15.1973 18.4759C15.3532 18.4087 15.5294 18.4062 15.6872 18.469C15.8449 18.5317 15.9713 18.6546 16.0384 18.8105C16.1056 18.9664 16.1081 19.1426 16.0454 19.3003C15.9826 19.4581 15.8598 19.5844 15.7039 19.6516C14.6648 20.0996 13.5449 20.3298 12.4133 20.3277Z" fill="#202020"/>
<path d="M10.9061 20.1799C10.7715 20.1799 10.6403 20.1375 10.5311 20.0587C10.4219 19.9799 10.3404 19.8687 10.2981 19.7408C8.63483 14.7143 8.63483 9.28572 10.2981 4.25922C10.3514 4.09796 10.4666 3.96449 10.6183 3.88815C10.77 3.81182 10.9459 3.79888 11.1071 3.85218C11.2684 3.90547 11.4018 4.02065 11.4782 4.17235C11.5545 4.32406 11.5674 4.49988 11.5141 4.66114C9.93694 9.42661 9.93694 14.5734 11.5141 19.3389C11.546 19.4351 11.5545 19.5375 11.539 19.6376C11.5235 19.7377 11.4845 19.8327 11.4252 19.9148C11.3658 19.9969 11.2878 20.0638 11.1976 20.1098C11.1073 20.1559 11.0075 20.1799 10.9061 20.1799ZM13.7727 20.1799C13.6714 20.1799 13.5715 20.1559 13.4813 20.1098C13.3911 20.0638 13.313 19.9969 13.2537 19.9148C13.1943 19.8327 13.1553 19.7377 13.1398 19.6376C13.1244 19.5375 13.1329 19.4351 13.1647 19.3389C13.9583 16.9421 14.3577 14.4323 14.3471 11.9075C14.3377 9.44482 13.9386 6.9991 13.1647 4.66114C13.1114 4.49988 13.1244 4.32406 13.2007 4.17235C13.277 4.02065 13.4105 3.90547 13.5717 3.85218C13.733 3.79888 13.9088 3.81182 14.0605 3.88815C14.2122 3.96449 14.3274 4.09796 14.3807 4.25922C15.1975 6.72511 15.6187 9.30478 15.6287 11.9024C15.64 14.5661 15.2185 17.2139 14.3807 19.7424C14.3382 19.87 14.2565 19.9808 14.1474 20.0594C14.0382 20.1379 13.9072 20.18 13.7727 20.1799Z" fill="#202020"/>
<path d="M12.436 15.2883H12.3378C9.74017 15.2783 7.1605 14.8571 4.69461 14.0403C4.61476 14.0139 4.5409 13.9721 4.47723 13.9171C4.41356 13.8622 4.36134 13.7952 4.32354 13.7201C4.28575 13.645 4.26312 13.5632 4.25694 13.4793C4.25077 13.3954 4.26118 13.3112 4.28757 13.2313C4.31396 13.1515 4.35581 13.0776 4.41075 13.014C4.46569 12.9503 4.53263 12.8981 4.60774 12.8603C4.75945 12.7839 4.93527 12.771 5.09653 12.8243C7.43434 13.5984 9.87998 13.9975 12.3426 14.0067C14.8673 14.0179 17.3771 13.619 19.774 12.8256C19.9352 12.7723 20.111 12.7852 20.2627 12.8616C20.4145 12.9379 20.5296 13.0714 20.5829 13.2326C20.6362 13.3939 20.6233 13.5697 20.5469 13.7214C20.4706 13.8731 20.3371 13.9883 20.1759 14.0416C17.6792 14.8682 15.066 15.2891 12.436 15.2883ZM4.89589 11.207C4.74359 11.2073 4.59619 11.1532 4.48017 11.0546C4.36415 10.9559 4.28711 10.8191 4.2629 10.6688C4.23869 10.5184 4.26889 10.3643 4.34808 10.2343C4.42726 10.1042 4.55024 10.0066 4.69493 9.95902C9.72138 8.29605 15.1498 8.29605 20.1762 9.95902C20.256 9.98541 20.3299 10.0273 20.3936 10.0822C20.4572 10.1371 20.5095 10.2041 20.5473 10.2792C20.5851 10.3543 20.6077 10.4361 20.6139 10.52C20.62 10.6039 20.6096 10.6881 20.5832 10.768C20.5569 10.8478 20.515 10.9217 20.4601 10.9854C20.4051 11.049 20.3382 11.1012 20.2631 11.139C20.1879 11.1768 20.1061 11.1995 20.0223 11.2056C19.9384 11.2118 19.8541 11.2014 19.7743 11.175C17.4073 10.3906 14.9299 9.99084 12.4364 9.99102H12.3429C9.88014 10.0005 7.43439 10.3999 5.09653 11.1744C5.03181 11.1959 4.96408 11.2069 4.89589 11.207ZM17.6159 18.9497C17.257 18.9497 16.9061 18.8433 16.6076 18.6439C16.3092 18.4445 16.0766 18.161 15.9393 17.8294C15.8019 17.4978 15.766 17.1329 15.8361 16.7809C15.9061 16.4288 16.079 16.1055 16.3328 15.8517C16.5866 15.5979 16.91 15.4251 17.262 15.3551C17.6141 15.2851 17.979 15.3211 18.3106 15.4585C18.6422 15.5959 18.9256 15.8286 19.1249 16.1271C19.3243 16.4255 19.4307 16.7764 19.4306 17.1353C19.43 17.6164 19.2386 18.0776 18.8984 18.4178C18.5582 18.7579 18.097 18.9492 17.6159 18.9497ZM17.6159 16.6006C17.5101 16.6006 17.4067 16.632 17.3188 16.6907C17.2309 16.7495 17.1623 16.833 17.1219 16.9307C17.0814 17.0284 17.0708 17.1359 17.0914 17.2397C17.1121 17.3434 17.163 17.4387 17.2378 17.5134C17.3126 17.5882 17.4078 17.6392 17.5116 17.6598C17.6153 17.6804 17.7228 17.6698 17.8205 17.6294C17.9182 17.5889 18.0017 17.5204 18.0605 17.4324C18.1192 17.3445 18.1506 17.2411 18.1506 17.1353C18.1504 16.9936 18.094 16.8577 17.9938 16.7574C17.8936 16.6572 17.7576 16.6008 17.6159 16.6006Z" fill="#202020"/>
<path d="M19.5887 19.8836C19.5046 19.8837 19.4213 19.8672 19.3436 19.835C19.2659 19.8029 19.1953 19.7556 19.1359 19.6961L17.9237 18.4826C17.8626 18.4236 17.8139 18.3529 17.7804 18.2748C17.7469 18.1967 17.7292 18.1128 17.7285 18.0278C17.7278 17.9428 17.7441 17.8585 17.7763 17.7799C17.8085 17.7012 17.856 17.6298 17.9161 17.5697C17.9762 17.5097 18.0477 17.4622 18.1264 17.43C18.205 17.3979 18.2893 17.3817 18.3743 17.3825C18.4593 17.3832 18.5433 17.4009 18.6213 17.4345C18.6994 17.4681 18.77 17.5168 18.829 17.578L20.0415 18.7911C20.131 18.8806 20.1919 18.9947 20.2166 19.1188C20.2413 19.243 20.2286 19.3717 20.1801 19.4886C20.1316 19.6056 20.0496 19.7055 19.9443 19.7758C19.839 19.8461 19.7153 19.8836 19.5887 19.8836Z" fill="#202020"/>
</svg>
