<svg width="24" height="24" viewBox="0 0 24 24" fill="none" xmlns="http://www.w3.org/2000/svg">
<path d="M5.36862 3.51965C9.0303 -0.173217 14.9697 -0.173217 18.6314 3.51965C22.2896 7.209 22.2896 13.188 18.6314 16.8773C18.3397 17.1714 17.8649 17.1735 17.5707 16.8818C17.2766 16.5902 17.2746 16.1153 17.5662 15.8212C20.6446 12.7165 20.6446 7.68041 17.5662 4.57579C14.4914 1.47473 9.50865 1.47473 6.43377 4.57579C3.35541 7.68041 3.35541 12.7165 6.43377 15.8212L12.5326 21.9719C12.8242 22.2661 12.8222 22.7409 12.5281 23.0326C12.2339 23.3242 11.7591 23.3222 11.4674 23.0281L5.36862 16.8773C1.71046 13.188 1.71046 7.209 5.36862 3.51965Z" fill="#202020"/>
<path d="M8.29016 10.7727C8.29016 10.3585 8.62597 10.0227 9.04016 10.0227H9.73661C10.1508 10.0227 10.4866 10.3585 10.4866 10.7727C10.4866 11.1869 10.1508 11.5227 9.73661 11.5227H9.04016C8.62597 11.5227 8.29016 11.1869 8.29016 10.7727ZM13.3393 10.7727C13.3393 10.3585 13.6751 10.0227 14.0893 10.0227H14.7857C15.1999 10.0227 15.5357 10.3585 15.5357 10.7727C15.5357 11.1869 15.1999 11.5227 14.7857 11.5227H14.0893C13.6751 11.5227 13.3393 11.1869 13.3393 10.7727Z" fill="#202020"/>
<path fill-rule="evenodd" clip-rule="evenodd" d="M8.09209 6.45757C8.34045 5.72812 9.03082 5.25 9.79312 5.25H14.2069C14.9692 5.25 15.6596 5.72812 15.9079 6.45757L16.2734 7.53109C16.593 7.45031 16.9397 7.58861 17.1097 7.88948C17.2968 8.22034 17.2051 8.63284 16.9102 8.85607C17.3471 9.24071 17.625 9.80047 17.625 10.4318V12.4773C17.625 13.4712 16.8064 14.25 15.8304 14.25C15.0544 14.25 14.3781 13.7579 14.1333 13.0568H9.8667C9.6219 13.7579 8.94555 14.25 8.16964 14.25C7.19355 14.25 6.375 13.4712 6.375 12.4773V10.4318C6.375 9.80812 6.6462 9.25425 7.074 8.8701C6.76391 8.6505 6.66427 8.22743 6.8553 7.88948C7.03102 7.57856 7.39538 7.44124 7.72358 7.53994L8.09209 6.45757ZM9.04316 8.31818L9.51206 6.94102C9.54806 6.83524 9.6561 6.75 9.79312 6.75H14.2069C14.3439 6.75 14.4519 6.83524 14.4879 6.94102L14.9568 8.31818H9.04316ZM8.51786 9.81818C8.14774 9.81818 7.875 10.1078 7.875 10.4318V12.4773C7.875 12.613 7.99185 12.75 8.16964 12.75C8.34742 12.75 8.46427 12.613 8.46427 12.4773V12.3068C8.46427 11.8926 8.80009 11.5568 9.21427 11.5568H14.7857C15.1999 11.5568 15.5357 11.8926 15.5357 12.3068V12.4773C15.5357 12.613 15.6526 12.75 15.8304 12.75C16.0081 12.75 16.125 12.613 16.125 12.4773V10.4318C16.125 10.1078 15.8523 9.81818 15.4821 9.81818H8.51786Z" fill="#202020"/>
<path d="M12.9697 20.4053C12.6768 20.1125 12.6768 19.6376 12.9697 19.3447C13.2626 19.0518 13.7375 19.0518 14.0303 19.3447L14.5575 19.8719L16.0978 17.9117C16.3537 17.5859 16.8252 17.5293 17.1509 17.7853C17.4766 18.0412 17.5332 18.5127 17.2772 18.8384L15.2147 21.4634C15.0822 21.632 14.8839 21.7359 14.6698 21.7487C14.4557 21.7615 14.2463 21.682 14.0947 21.5303L12.9697 20.4053Z" fill="#202020"/>
</svg>
