<svg width="24" height="24" viewBox="0 0 24 24" fill="none" xmlns="http://www.w3.org/2000/svg">
<path d="M12.4124 19.0352C10.7845 19.0354 9.20692 18.4711 7.94843 17.4386C6.68994 16.406 5.82843 14.969 5.5107 13.3724C5.19297 11.7758 5.43868 10.1184 6.20595 8.68269C6.97323 7.24696 8.2146 6.1217 9.71854 5.49864C11.2225 4.87559 12.8959 4.79329 14.4538 5.26578C16.0116 5.73827 17.3574 6.73631 18.2618 8.08983C19.1662 9.44335 19.5734 11.0686 19.4138 12.6887C19.2543 14.3087 18.5379 15.8233 17.3868 16.9744C16.7351 17.6298 15.9599 18.1494 15.1061 18.5031C14.2522 18.8569 13.3366 19.0377 12.4124 19.0352ZM12.4124 6.24481C9.23897 6.24481 6.65593 8.82657 6.65593 12C6.65593 15.1735 9.23769 17.7552 12.4111 17.7552C15.5846 17.7552 18.1676 15.1735 18.1676 12C18.1676 8.82657 15.5859 6.24481 12.4124 6.24481Z" fill="#202020"/>
<path d="M12.4124 15.6695C11.6867 15.6695 10.9773 15.4543 10.3738 15.0511C9.77038 14.6479 9.30006 14.0748 9.02233 13.4043C8.7446 12.7338 8.67193 11.996 8.81351 11.2842C8.9551 10.5724 9.30458 9.91853 9.81776 9.40535C10.3309 8.89217 10.9848 8.54269 11.6966 8.4011C12.4084 8.25952 13.1462 8.33218 13.8167 8.60991C14.4872 8.88765 15.0603 9.35797 15.4635 9.9614C15.8667 10.5648 16.0819 11.2743 16.0819 12C16.0808 12.9729 15.6938 13.9056 15.0059 14.5935C14.318 15.2814 13.3853 15.6684 12.4124 15.6695ZM12.4124 9.61059C11.9399 9.61059 11.4779 9.75073 11.0849 10.0133C10.692 10.2758 10.3857 10.649 10.2049 11.0856C10.024 11.5222 9.97672 12.0027 10.0689 12.4662C10.1611 12.9297 10.3887 13.3555 10.7229 13.6896C11.057 14.0238 11.4828 14.2514 11.9463 14.3436C12.4098 14.4358 12.8902 14.3884 13.3268 14.2076C13.7635 14.0267 14.1366 13.7205 14.3992 13.3275C14.6617 12.9346 14.8019 12.4726 14.8019 12C14.8011 11.3665 14.5491 10.7592 14.1012 10.3113C13.6533 9.86335 13.0459 9.61136 12.4124 9.61059ZM12.4124 6.24483C12.2427 6.24483 12.0799 6.17741 11.9599 6.05738C11.8399 5.93736 11.7724 5.77457 11.7724 5.60483V3.62083C11.7724 3.4511 11.8399 3.28831 11.9599 3.16829C12.0799 3.04826 12.2427 2.98083 12.4124 2.98083C12.5822 2.98083 12.745 3.04826 12.865 3.16829C12.985 3.28831 13.0524 3.4511 13.0524 3.62083V5.60483C13.0524 5.77457 12.985 5.93736 12.865 6.05738C12.745 6.17741 12.5822 6.24483 12.4124 6.24483ZM12.4124 21.018C12.2427 21.018 12.0799 20.9505 11.9599 20.8305C11.8399 20.7105 11.7724 20.5477 11.7724 20.378V18.394C11.7724 18.2242 11.8399 18.0614 11.9599 17.9414C12.0799 17.8214 12.2427 17.754 12.4124 17.754C12.5822 17.754 12.745 17.8214 12.865 17.9414C12.985 18.0614 13.0524 18.2242 13.0524 18.394V20.378C13.0524 20.5477 12.985 20.7105 12.865 20.8305C12.745 20.9505 12.5822 21.018 12.4124 21.018ZM20.7904 12.64H18.8064C18.6366 12.64 18.4738 12.5726 18.3538 12.4526C18.2338 12.3326 18.1664 12.1698 18.1664 12C18.1664 11.8303 18.2338 11.6675 18.3538 11.5475C18.4738 11.4275 18.6366 11.36 18.8064 11.36H20.7904C20.9601 11.36 21.1229 11.4275 21.2429 11.5475C21.3629 11.6675 21.4304 11.8303 21.4304 12C21.4304 12.1698 21.3629 12.3326 21.2429 12.4526C21.1229 12.5726 20.9601 12.64 20.7904 12.64ZM6.01597 12.64H4.03197C3.86223 12.64 3.69944 12.5726 3.57942 12.4526C3.4594 12.3326 3.39197 12.1698 3.39197 12C3.39197 11.8303 3.4594 11.6675 3.57942 11.5475C3.69944 11.4275 3.86223 11.36 4.03197 11.36H6.01597C6.18571 11.36 6.34849 11.4275 6.46852 11.5475C6.58854 11.6675 6.65597 11.8303 6.65597 12C6.65597 12.1698 6.58854 12.3326 6.46852 12.4526C6.34849 12.5726 6.18571 12.64 6.01597 12.64Z" fill="#202020"/>
<path d="M5.02584 20.3981C4.90068 20.398 4.77829 20.3613 4.67379 20.2924C4.56929 20.2236 4.48728 20.1256 4.43791 20.0106C4.38853 19.8956 4.37395 19.7686 4.39598 19.6454C4.418 19.5222 4.47567 19.4082 4.56184 19.3174L19.0994 4.01597C19.1573 3.95504 19.2266 3.9061 19.3034 3.87196C19.3802 3.83782 19.463 3.81914 19.547 3.81698C19.631 3.81483 19.7147 3.82924 19.7931 3.85941C19.8716 3.88957 19.9433 3.93489 20.0042 3.99277C20.0652 4.05066 20.1141 4.11998 20.1482 4.19678C20.1824 4.27358 20.2011 4.35635 20.2032 4.44037C20.2054 4.52439 20.191 4.60801 20.1608 4.68645C20.1306 4.7649 20.0853 4.83664 20.0274 4.89757L5.48984 20.199C5.43003 20.2619 5.35806 20.312 5.27829 20.3462C5.19853 20.3804 5.11263 20.3981 5.02584 20.3981Z" fill="#202020"/>
</svg>
