<svg width="24" height="24" viewBox="0 0 24 24" fill="none" xmlns="http://www.w3.org/2000/svg">
<path d="M9.04016 10.0227C8.62597 10.0227 8.29016 10.3585 8.29016 10.7727C8.29016 11.1869 8.62597 11.5227 9.04016 11.5227H9.73661C10.1508 11.5227 10.4866 11.1869 10.4866 10.7727C10.4866 10.3585 10.1508 10.0227 9.73661 10.0227H9.04016ZM14.0893 10.0227C13.6751 10.0227 13.3393 10.3585 13.3393 10.7727C13.3393 11.1869 13.6751 11.5227 14.0893 11.5227H14.7857C15.1999 11.5227 15.5357 11.1869 15.5357 10.7727C15.5357 10.3585 15.1999 10.0227 14.7857 10.0227H14.0893Z" fill="#202020"/>
<path fill-rule="evenodd" clip-rule="evenodd" d="M9.79312 5.25C9.03082 5.25 8.34045 5.72812 8.09209 6.45757L7.72358 7.53994C7.39538 7.44124 7.03102 7.57856 6.8553 7.88948C6.66427 8.22743 6.76391 8.6505 7.074 8.8701C6.6462 9.25425 6.375 9.80812 6.375 10.4318V12.4773C6.375 13.4712 7.19355 14.25 8.16964 14.25C8.94555 14.25 9.6219 13.7579 9.8667 13.0568H14.1333C14.3781 13.7579 15.0544 14.25 15.8304 14.25C16.8064 14.25 17.625 13.4712 17.625 12.4773V10.4318C17.625 9.80047 17.3471 9.24071 16.9102 8.85607C17.2051 8.63284 17.2968 8.22034 17.1097 7.88948C16.9397 7.58861 16.593 7.45031 16.2734 7.53109L15.9079 6.45757C15.6596 5.72812 14.9692 5.25 14.2069 5.25H9.79312ZM9.51206 6.94102L9.04316 8.31818H14.9568L14.4879 6.94102C14.4519 6.83524 14.3439 6.75 14.2069 6.75H9.79312C9.6561 6.75 9.54806 6.83524 9.51206 6.94102ZM7.875 10.4318C7.875 10.1078 8.14774 9.81818 8.51786 9.81818H15.4821C15.8523 9.81818 16.125 10.1078 16.125 10.4318V12.4773C16.125 12.613 16.0081 12.75 15.8304 12.75C15.6526 12.75 15.5357 12.613 15.5357 12.4773V12.3068C15.5357 11.8926 15.1999 11.5568 14.7857 11.5568H9.21427C8.80009 11.5568 8.46427 11.8926 8.46427 12.3068V12.4773C8.46427 12.613 8.34742 12.75 8.16964 12.75C7.99185 12.75 7.875 12.613 7.875 12.4773V10.4318Z" fill="#202020"/>
<path fill-rule="evenodd" clip-rule="evenodd" d="M18.6314 3.51965C14.9697 -0.173217 9.0303 -0.173217 5.36862 3.51965C1.71046 7.209 1.71046 13.188 5.36862 16.8773L11.4674 23.0281C11.6083 23.1701 11.8 23.25 12 23.25C12.2 23.25 12.3918 23.1701 12.5326 23.0281L18.6314 16.8773C22.2896 13.188 22.2896 7.209 18.6314 3.51965ZM6.43377 4.57579C9.50865 1.47473 14.4914 1.47473 17.5662 4.57579C20.6446 7.68041 20.6446 12.7165 17.5662 15.8212L12 21.4348L6.43377 15.8212C3.35541 12.7165 3.35541 7.68041 6.43377 4.57579Z" fill="#202020"/>
</svg>
