<svg width="24" height="24" viewBox="0 0 24 24" fill="none" xmlns="http://www.w3.org/2000/svg">
<path d="M6.96795 20.4557C6.05984 20.4557 5.18894 20.095 4.54681 19.4529C3.90469 18.8108 3.54395 17.9398 3.54395 17.0317V6.96807C3.54496 6.06028 3.90603 5.18996 4.54793 4.54806C5.18984 3.90615 6.06016 3.54508 6.96795 3.54407H17.0319C17.94 3.54407 18.811 3.90481 19.4531 4.54693C20.0952 5.18906 20.4559 6.05997 20.4559 6.96807V17.0321C20.4549 17.9399 20.0939 18.8102 19.452 19.4521C18.8101 20.094 17.9397 20.455 17.0319 20.4561L6.96795 20.4557ZM17.0319 4.82439H6.96795C6.39948 4.8249 5.85444 5.05094 5.45247 5.45291C5.0505 5.85488 4.82445 6.39992 4.82395 6.96839V17.0324C4.82395 17.3139 4.8794 17.5927 4.98715 17.8529C5.09489 18.113 5.25282 18.3493 5.45191 18.5484C5.651 18.7475 5.88735 18.9054 6.14747 19.0132C6.40759 19.1209 6.68639 19.1764 6.96795 19.1764H17.0319C17.6004 19.1758 18.1454 18.9497 18.5473 18.5478C18.9493 18.1458 19.1754 17.6008 19.1759 17.0324V6.96807C19.1759 6.39944 18.9501 5.85411 18.548 5.45203C18.1459 5.04995 17.6006 4.82407 17.0319 4.82407V4.82439Z" fill="#202020"/>
<path d="M11.9999 20.4557C11.8301 20.4557 11.6673 20.3882 11.5473 20.2682C11.4273 20.1482 11.3599 19.9854 11.3599 19.8157V4.18431C11.3599 4.01457 11.4273 3.85179 11.5473 3.73176C11.6673 3.61174 11.8301 3.54431 11.9999 3.54431C12.1696 3.54431 12.3324 3.61174 12.4524 3.73176C12.5724 3.85179 12.6399 4.01457 12.6399 4.18431V19.8157C12.6399 19.9854 12.5724 20.1482 12.4524 20.2682C12.3324 20.3882 12.1696 20.4557 11.9999 20.4557Z" fill="#202020"/>
<path d="M11.9999 9.94724H4.18419C4.01445 9.94724 3.85166 9.87981 3.73164 9.75978C3.61162 9.63976 3.54419 9.47697 3.54419 9.30724C3.54419 9.1375 3.61162 8.97471 3.73164 8.85469C3.85166 8.73466 4.01445 8.66724 4.18419 8.66724H11.9999C12.1696 8.66724 12.3324 8.73466 12.4524 8.85469C12.5724 8.97471 12.6399 9.1375 12.6399 9.30724C12.6399 9.47697 12.5724 9.63976 12.4524 9.75978C12.3324 9.87981 12.1696 9.94724 11.9999 9.94724ZM19.8155 15.5492H11.9999C11.8301 15.5492 11.6673 15.4817 11.5473 15.3617C11.4273 15.2417 11.3599 15.0789 11.3599 14.9092C11.3599 14.7394 11.4273 14.5766 11.5473 14.4566C11.6673 14.3366 11.8301 14.2692 11.9999 14.2692H19.8155C19.9853 14.2692 20.1481 14.3366 20.2681 14.4566C20.3881 14.5766 20.4555 14.7394 20.4555 14.9092C20.4555 15.0789 20.3881 15.2417 20.2681 15.3617C20.1481 15.4817 19.9853 15.5492 19.8155 15.5492Z" fill="#202020"/>
</svg>
