<svg width="24" height="24" viewBox="0 0 24 24" fill="none" xmlns="http://www.w3.org/2000/svg">
<path d="M6.96795 20.4556C6.05984 20.4556 5.18894 20.0949 4.54681 19.4528C3.90469 18.8106 3.54395 17.9397 3.54395 17.0316V6.96795C3.54395 6.05984 3.90469 5.18894 4.54681 4.54681C5.18894 3.90469 6.05984 3.54395 6.96795 3.54395H17.0319C17.94 3.54395 18.811 3.90469 19.4531 4.54681C20.0952 5.18894 20.4559 6.05984 20.4559 6.96795V17.0319C20.4559 17.94 20.0952 18.811 19.4531 19.4531C18.811 20.0952 17.94 20.4559 17.0319 20.4559L6.96795 20.4556ZM17.0319 4.82427H6.96795C6.39932 4.82427 5.85399 5.05015 5.45191 5.45223C5.04983 5.85431 4.82395 6.39964 4.82395 6.96826V17.0323C4.82395 17.3138 4.8794 17.5926 4.98715 17.8527C5.09489 18.1129 5.25282 18.3492 5.45191 18.5483C5.651 18.7474 5.88735 18.9053 6.14747 19.0131C6.40759 19.1208 6.68639 19.1763 6.96795 19.1763H17.0319C17.3135 19.1763 17.5923 19.1208 17.8524 19.0131C18.1125 18.9053 18.3489 18.7474 18.548 18.5483C18.7471 18.3492 18.905 18.1129 19.0127 17.8527C19.1205 17.5926 19.1759 17.3138 19.1759 17.0323V6.96795C19.1759 6.39932 18.9501 5.85399 18.548 5.45191C18.1459 5.04983 17.6006 4.82395 17.0319 4.82395V4.82427Z" fill="#202020"/>
<path d="M4.18443 9.75327C4.01469 9.75327 3.85191 9.68584 3.73189 9.56581C3.61186 9.44579 3.54443 9.28301 3.54443 9.11327C3.54443 8.94353 3.61186 8.78074 3.73189 8.66072C3.85191 8.54069 4.01469 8.47327 4.18443 8.47327H19.8158C19.9855 8.47327 20.1483 8.54069 20.2683 8.66072C20.3884 8.78074 20.4558 8.94353 20.4558 9.11327C20.4558 9.28301 20.3884 9.44579 20.2683 9.56581C20.1483 9.68584 19.9855 9.75327 19.8158 9.75327H4.18443Z" fill="#202020"/>
<path d="M12.0001 20.4557C11.8304 20.4557 11.6676 20.3882 11.5476 20.2682C11.4275 20.1482 11.3601 19.9854 11.3601 19.8157V9.11327C11.3601 8.94353 11.4275 8.78074 11.5476 8.66072C11.6676 8.54069 11.8304 8.47327 12.0001 8.47327C12.1698 8.47327 12.3326 8.54069 12.4527 8.66072C12.5727 8.78074 12.6401 8.94353 12.6401 9.11327V19.8157C12.6401 19.9854 12.5727 20.1482 12.4527 20.2682C12.3326 20.3882 12.1698 20.4557 12.0001 20.4557Z" fill="#202020"/>
</svg>
