<svg width="24" height="24" viewBox="0 0 24 24" fill="none" xmlns="http://www.w3.org/2000/svg">
<path d="M6.96795 20.4556C6.06013 20.4547 5.18976 20.0937 4.54784 19.4517C3.90592 18.8098 3.54488 17.9394 3.54395 17.0316V6.96795C3.54488 6.06013 3.90592 5.18976 4.54784 4.54784C5.18976 3.90592 6.06013 3.54488 6.96795 3.54395H17.0319C17.9398 3.54488 18.8101 3.90592 19.452 4.54784C20.094 5.18976 20.455 6.06013 20.4559 6.96795V14.4819C20.4559 14.6516 20.3885 14.8144 20.2685 14.9344C20.1485 15.0544 19.9857 15.1219 19.8159 15.1219C19.6462 15.1219 19.4834 15.0544 19.3634 14.9344C19.2434 14.8144 19.1759 14.6516 19.1759 14.4819V6.96795C19.1754 6.39948 18.9494 5.85444 18.5474 5.45247C18.1455 5.0505 17.6004 4.82445 17.0319 4.82395H6.96795C6.39948 4.82445 5.85444 5.0505 5.45247 5.45247C5.0505 5.85444 4.82445 6.39948 4.82395 6.96795V17.0319C4.82445 17.6004 5.0505 18.1455 5.45247 18.5474C5.85444 18.9494 6.39948 19.1754 6.96795 19.1759H13.4079C13.5777 19.1759 13.7405 19.2434 13.8605 19.3634C13.9805 19.4834 14.0479 19.6462 14.0479 19.8159C14.0479 19.9857 13.9805 20.1485 13.8605 20.2685C13.7405 20.3885 13.5777 20.4559 13.4079 20.4559L6.96795 20.4556Z" fill="#202020"/>
<path d="M9.46495 20.4557C9.29521 20.4557 9.13243 20.3882 9.0124 20.2682C8.89238 20.1482 8.82495 19.9854 8.82495 19.8157V4.18431C8.82495 4.01457 8.89238 3.85179 9.0124 3.73176C9.13243 3.61174 9.29521 3.54431 9.46495 3.54431C9.63469 3.54431 9.79748 3.61174 9.9175 3.73176C10.0375 3.85179 10.105 4.01457 10.105 4.18431V19.8157C10.105 19.9854 10.0375 20.1482 9.9175 20.2682C9.79748 20.3882 9.63469 20.4557 9.46495 20.4557ZM14.7453 15.2803C14.5755 15.2803 14.4127 15.2129 14.2927 15.0929C14.1727 14.9728 14.1053 14.81 14.1053 14.6403V4.18431C14.1053 4.01457 14.1727 3.85179 14.2927 3.73176C14.4127 3.61174 14.5755 3.54431 14.7453 3.54431C14.915 3.54431 15.0778 3.61174 15.1978 3.73176C15.3178 3.85179 15.3853 4.01457 15.3853 4.18431V14.6403C15.3853 14.81 15.3178 14.9728 15.1978 15.0929C15.0778 15.2129 14.915 15.2803 14.7453 15.2803Z" fill="#202020"/>
<path d="M4.22545 9.99973C4.05571 9.99973 3.89292 9.9323 3.7729 9.81228C3.65288 9.69225 3.58545 9.52947 3.58545 9.35973C3.58545 9.18999 3.65288 9.0272 3.7729 8.90718C3.89292 8.78716 4.05571 8.71973 4.22545 8.71973H19.7925C19.9622 8.71973 20.125 8.78716 20.245 8.90718C20.3651 9.0272 20.4325 9.18999 20.4325 9.35973C20.4325 9.52947 20.3651 9.69225 20.245 9.81228C20.125 9.9323 19.9622 9.99973 19.7925 9.99973H4.22545ZM4.22545 15.2804C4.05571 15.2804 3.89292 15.2129 3.7729 15.0929C3.65288 14.9729 3.58545 14.8101 3.58545 14.6404C3.58545 14.4706 3.65288 14.3078 3.7729 14.1878C3.89292 14.0678 4.05571 14.0004 4.22545 14.0004H14.7519C14.9216 14.0004 15.0844 14.0678 15.2044 14.1878C15.3244 14.3078 15.3919 14.4706 15.3919 14.6404C15.3919 14.8101 15.3244 14.9729 15.2044 15.0929C15.0844 15.2129 14.9216 15.2804 14.7519 15.2804H4.22545ZM19.1039 20.7277H15.7221C15.3638 20.7272 15.0203 20.5846 14.767 20.3312C14.5137 20.0779 14.3712 19.7344 14.3707 19.376V17.3204C14.371 16.962 14.5134 16.6183 14.7668 16.3648C15.0201 16.1112 15.3637 15.9686 15.7221 15.968H19.1039C19.4622 15.9685 19.8057 16.111 20.0591 16.3643C20.3124 16.6176 20.455 16.9611 20.4555 17.3194V19.376C20.4551 19.7344 20.3126 20.078 20.0592 20.3314C19.8058 20.5848 19.4622 20.7273 19.1039 20.7277ZM15.7221 17.248C15.7032 17.248 15.685 17.2556 15.6716 17.2689C15.6582 17.2823 15.6507 17.3005 15.6507 17.3194V19.376C15.6507 19.395 15.6582 19.4132 15.6716 19.4266C15.685 19.4401 15.7031 19.4476 15.7221 19.4477H19.1039C19.1228 19.4476 19.141 19.4401 19.1544 19.4266C19.1679 19.4132 19.1754 19.395 19.1755 19.376V17.3204C19.1756 17.3109 19.1738 17.3015 19.1703 17.2927C19.1667 17.284 19.1614 17.276 19.1548 17.2693C19.1481 17.2625 19.1402 17.2572 19.1314 17.2536C19.1227 17.2499 19.1133 17.248 19.1039 17.248H15.7221Z" fill="#202020"/>
<path d="M18.5119 17.248H16.253C16.0833 17.248 15.9205 17.1806 15.8005 17.0606C15.6805 16.9406 15.613 16.7778 15.613 16.608V15.6247C15.6135 15.194 15.7848 14.7812 16.0894 14.4767C16.3939 14.1722 16.8067 14.0009 17.2374 14.0004H17.5276C17.9582 14.0009 18.3711 14.1722 18.6756 14.4767C18.9801 14.7812 19.1514 15.194 19.1519 15.6247V16.608C19.1519 16.6921 19.1354 16.7753 19.1032 16.853C19.071 16.9306 19.0239 17.0012 18.9645 17.0606C18.905 17.12 18.8345 17.1672 18.7568 17.1993C18.6792 17.2315 18.596 17.248 18.5119 17.248ZM16.893 15.968H17.8719V15.6247C17.8718 15.5334 17.8355 15.4459 17.771 15.3813C17.7064 15.3168 17.6189 15.2805 17.5276 15.2804H17.2374C17.1461 15.2805 17.0585 15.3168 16.994 15.3813C16.9294 15.4459 16.8931 15.5334 16.893 15.6247V15.968Z" fill="#202020"/>
</svg>
