<svg width="24" height="24" viewBox="0 0 24 24" fill="none" xmlns="http://www.w3.org/2000/svg">
<path d="M8.43157 20.4556C7.52375 20.4547 6.65339 20.0937 6.01146 19.4517C5.36954 18.8098 5.0085 17.9394 5.00757 17.0316V6.96795C5.00842 6.0601 5.36943 5.18969 6.01137 4.54775C6.65331 3.90581 7.52373 3.54479 8.43157 3.54395H18.4959C19.4037 3.54488 20.2741 3.90592 20.916 4.54784C21.5579 5.18976 21.919 6.06013 21.9199 6.96795V14.4819C21.9199 14.6516 21.8525 14.8144 21.7324 14.9344C21.6124 15.0544 21.4496 15.1219 21.2799 15.1219C21.1101 15.1219 20.9474 15.0544 20.8273 14.9344C20.7073 14.8144 20.6399 14.6516 20.6399 14.4819V6.96795C20.6394 6.39948 20.4133 5.85444 20.0114 5.45247C19.6094 5.0505 19.0644 4.82445 18.4959 4.82395H8.43125C7.86275 4.82437 7.31767 5.05039 6.91568 5.45238C6.51369 5.85436 6.28767 6.39945 6.28725 6.96795V17.0319C6.28776 17.6004 6.51381 18.1455 6.91577 18.5474C7.31774 18.9494 7.86278 19.1754 8.43125 19.1759H14.8706C15.0403 19.1759 15.2031 19.2434 15.3232 19.3634C15.4432 19.4834 15.5106 19.6462 15.5106 19.8159C15.5106 19.9857 15.4432 20.1485 15.3232 20.2685C15.2031 20.3885 15.0403 20.4559 14.8706 20.4559L8.43157 20.4556Z" fill="#202020"/>
<path d="M10.9286 20.4557C10.7588 20.4557 10.596 20.3882 10.476 20.2682C10.356 20.1482 10.2886 19.9854 10.2886 19.8157V4.18431C10.2886 4.01457 10.356 3.85179 10.476 3.73176C10.596 3.61174 10.7588 3.54431 10.9286 3.54431C11.0983 3.54431 11.2611 3.61174 11.3811 3.73176C11.5011 3.85179 11.5686 4.01457 11.5686 4.18431V19.8157C11.5686 19.9854 11.5011 20.1482 11.3811 20.2682C11.2611 20.3882 11.0983 20.4557 10.9286 20.4557ZM16.2089 15.2803C16.0392 15.2803 15.8764 15.2129 15.7563 15.0929C15.6363 14.9728 15.5689 14.81 15.5689 14.6403V4.18431C15.5689 4.01457 15.6363 3.85179 15.7563 3.73176C15.8764 3.61174 16.0392 3.54431 16.2089 3.54431C16.3786 3.54431 16.5414 3.61174 16.6614 3.73176C16.7815 3.85179 16.8489 4.01457 16.8489 4.18431V14.6403C16.8489 14.81 16.7815 14.9728 16.6614 15.0929C16.5414 15.2129 16.3786 15.2803 16.2089 15.2803Z" fill="#202020"/>
<path d="M5.68932 9.99973C5.51958 9.99973 5.35679 9.9323 5.23677 9.81228C5.11674 9.69225 5.04932 9.52947 5.04932 9.35973C5.04932 9.18999 5.11674 9.0272 5.23677 8.90718C5.35679 8.78716 5.51958 8.71973 5.68932 8.71973H21.2564C21.4261 8.71973 21.5889 8.78716 21.7089 8.90718C21.8289 9.0272 21.8964 9.18999 21.8964 9.35973C21.8964 9.52947 21.8289 9.69225 21.7089 9.81228C21.5889 9.9323 21.4261 9.99973 21.2564 9.99973H5.68932ZM5.68932 15.2804C5.51958 15.2804 5.35679 15.2129 5.23677 15.0929C5.11674 14.9729 5.04932 14.8101 5.04932 14.6404C5.04932 14.4706 5.11674 14.3078 5.23677 14.1878C5.35679 14.0678 5.51958 14.0004 5.68932 14.0004H16.2173C16.3871 14.0004 16.5498 14.0678 16.6699 14.1878C16.7899 14.3078 16.8573 14.4706 16.8573 14.6404C16.8573 14.8101 16.7899 14.9729 16.6699 15.0929C16.5498 15.2129 16.3871 15.2804 16.2173 15.2804H5.68932ZM16.5204 20.345C16.4356 20.345 16.3518 20.3282 16.2736 20.2955C16.1954 20.2629 16.1245 20.215 16.065 20.1547C16.0054 20.0945 15.9584 20.023 15.9268 19.9444C15.8951 19.8658 15.8793 19.7817 15.8804 19.697L15.9002 18.0925C15.9023 17.9333 15.9636 17.7805 16.0724 17.664L18.2592 15.3181C18.4069 15.1558 18.5853 15.0245 18.7841 14.9317C18.9829 14.8389 19.1981 14.7864 19.4174 14.7774C19.6366 14.7684 19.8554 14.803 20.0612 14.8791C20.2669 14.9553 20.4555 15.0716 20.616 15.2212C20.7765 15.3708 20.9057 15.5508 20.9961 15.7507C21.0865 15.9506 21.1363 16.1664 21.1427 16.3857C21.1491 16.6051 21.1119 16.8234 21.0332 17.0283C20.9546 17.2331 20.836 17.4203 20.6845 17.5789L18.496 19.9248C18.3965 20.0316 18.2635 20.1012 18.1191 20.122L16.6103 20.3383C16.5805 20.3427 16.5505 20.3449 16.5204 20.345ZM17.1773 18.3559L17.1696 18.9639L17.7136 18.8855L19.7469 16.7047C19.8151 16.6313 19.8513 16.534 19.8478 16.4339C19.8442 16.3339 19.8012 16.2393 19.728 16.1709C19.6918 16.1371 19.6492 16.1108 19.6027 16.0934C19.5562 16.0761 19.5068 16.068 19.4572 16.0698C19.4077 16.0715 19.3589 16.0831 19.3138 16.1036C19.2687 16.1242 19.2281 16.1535 19.1943 16.1898L17.1773 18.3559Z" fill="#202020"/>
<path d="M19.7194 18.3309C19.5574 18.3312 19.4015 18.2698 19.2832 18.1591L17.7946 16.7712C17.732 16.7142 17.6814 16.6454 17.6456 16.5686C17.6099 16.4919 17.5897 16.4089 17.5862 16.3243C17.5828 16.2397 17.5961 16.1553 17.6255 16.0759C17.6549 15.9965 17.6998 15.9238 17.7575 15.8619C17.8152 15.7999 17.8846 15.7501 17.9618 15.7152C18.0389 15.6803 18.1221 15.661 18.2067 15.6585C18.2914 15.656 18.3756 15.6703 18.4547 15.7006C18.5337 15.7309 18.606 15.7765 18.6672 15.8349L20.1559 17.2228C20.2499 17.3104 20.3153 17.4243 20.3437 17.5496C20.3721 17.6749 20.3621 17.8059 20.315 17.9255C20.2679 18.045 20.1859 18.1476 20.0797 18.22C19.9734 18.2923 19.8479 18.3309 19.7194 18.3309Z" fill="#202020"/>
</svg>
