<svg width="24" height="24" viewBox="0 0 24 24" fill="none" xmlns="http://www.w3.org/2000/svg">
<path d="M6.96795 20.4556C6.05984 20.4556 5.18894 20.0949 4.54681 19.4528C3.90469 18.8106 3.54395 17.9397 3.54395 17.0316V6.96795C3.54496 6.06016 3.90603 5.18984 4.54793 4.54793C5.18984 3.90603 6.06016 3.54496 6.96795 3.54395H17.0319C17.94 3.54395 18.811 3.90469 19.4531 4.54681C20.0952 5.18894 20.4559 6.05984 20.4559 6.96795V17.0319C20.4549 17.9397 20.0939 18.8101 19.452 19.452C18.8101 20.0939 17.9397 20.4549 17.0319 20.4559L6.96795 20.4556ZM17.0319 4.82427H6.96795C6.39948 4.82477 5.85444 5.05082 5.45247 5.45279C5.0505 5.85476 4.82445 6.3998 4.82395 6.96826V17.0323C4.82395 17.3138 4.8794 17.5926 4.98715 17.8527C5.09489 18.1129 5.25282 18.3492 5.45191 18.5483C5.651 18.7474 5.88735 18.9053 6.14747 19.0131C6.40759 19.1208 6.68639 19.1763 6.96795 19.1763H17.0319C17.6004 19.1757 18.1454 18.9496 18.5473 18.5476C18.9493 18.1457 19.1754 17.6007 19.1759 17.0323V6.96795C19.1759 6.39932 18.9501 5.85399 18.548 5.45191C18.1459 5.04983 17.6006 4.82395 17.0319 4.82395V4.82427Z" fill="#202020"/>
<path d="M9.11314 20.4557C8.94341 20.4557 8.78062 20.3882 8.6606 20.2682C8.54057 20.1482 8.47314 19.9854 8.47314 19.8157V4.18431C8.47314 4.01457 8.54057 3.85179 8.6606 3.73176C8.78062 3.61174 8.94341 3.54431 9.11314 3.54431C9.28288 3.54431 9.44567 3.61174 9.56569 3.73176C9.68572 3.85179 9.75314 4.01457 9.75314 4.18431V19.8157C9.75314 19.9854 9.68572 20.1482 9.56569 20.2682C9.44567 20.3882 9.28288 20.4557 9.11314 20.4557Z" fill="#202020"/>
</svg>
