<svg width="24" height="24" viewBox="0 0 24 24" fill="none" xmlns="http://www.w3.org/2000/svg">
<path d="M6.96795 20.4557C6.05984 20.4557 5.18894 20.095 4.54681 19.4529C3.90469 18.8108 3.54395 17.9398 3.54395 17.0317V6.96807C3.54496 6.06028 3.90603 5.18996 4.54793 4.54806C5.18984 3.90615 6.06016 3.54508 6.96795 3.54407H17.0319C17.94 3.54407 18.811 3.90481 19.4531 4.54693C20.0952 5.18906 20.4559 6.05997 20.4559 6.96807V17.0321C20.4549 17.9399 20.0939 18.8102 19.452 19.4521C18.8101 20.094 17.9397 20.455 17.0319 20.4561L6.96795 20.4557ZM17.0319 4.82439H6.96795C6.39948 4.8249 5.85444 5.05094 5.45247 5.45291C5.0505 5.85488 4.82445 6.39992 4.82395 6.96839V17.0324C4.82395 17.3139 4.8794 17.5927 4.98715 17.8529C5.09489 18.113 5.25282 18.3493 5.45191 18.5484C5.651 18.7475 5.88735 18.9054 6.14747 19.0132C6.40759 19.1209 6.68639 19.1764 6.96795 19.1764H17.0319C17.6004 19.1758 18.1454 18.9497 18.5473 18.5478C18.9493 18.1458 19.1754 17.6008 19.1759 17.0324V6.96807C19.1759 6.39944 18.9501 5.85411 18.548 5.45203C18.1459 5.04995 17.6006 4.82407 17.0319 4.82407V4.82439Z" fill="#202020"/>
<path d="M9.11339 20.4557C8.94365 20.4557 8.78086 20.3882 8.66084 20.2682C8.54082 20.1482 8.47339 19.9854 8.47339 19.8157V4.18431C8.47339 4.01457 8.54082 3.85179 8.66084 3.73176C8.78086 3.61174 8.94365 3.54431 9.11339 3.54431C9.28313 3.54431 9.44591 3.61174 9.56594 3.73176C9.68596 3.85179 9.75339 4.01457 9.75339 4.18431V19.8157C9.75339 19.9854 9.68596 20.1482 9.56594 20.2682C9.44591 20.3882 9.28313 20.4557 9.11339 20.4557Z" fill="#202020"/>
<path d="M19.8158 12.64H9.11339C8.94365 12.64 8.78086 12.5726 8.66084 12.4525C8.54082 12.3325 8.47339 12.1697 8.47339 12C8.47339 11.8302 8.54082 11.6675 8.66084 11.5474C8.78086 11.4274 8.94365 11.36 9.11339 11.36H19.8158C19.9855 11.36 20.1483 11.4274 20.2683 11.5474C20.3884 11.6675 20.4558 11.8302 20.4558 12C20.4558 12.1697 20.3884 12.3325 20.2683 12.4525C20.1483 12.5726 19.9855 12.64 19.8158 12.64Z" fill="#202020"/>
</svg>
