<svg width="24" height="24" viewBox="0 0 24 24" fill="none" xmlns="http://www.w3.org/2000/svg">
<path d="M8.06592 19.023C7.9521 19.0229 7.84039 18.9924 7.74229 18.9346C7.64419 18.8769 7.56326 18.7941 7.50783 18.6947C7.45241 18.5953 7.42449 18.4829 7.42697 18.3691C7.42945 18.2553 7.46222 18.1442 7.52192 18.0473L15.3888 5.27998C15.4329 5.20833 15.4907 5.14608 15.5589 5.09677C15.6271 5.04746 15.7043 5.01206 15.7862 4.9926C15.8681 4.97313 15.9529 4.96998 16.036 4.98333C16.1191 4.99668 16.1987 5.02626 16.2704 5.07038C16.342 5.11451 16.4043 5.17231 16.4536 5.24049C16.5029 5.30868 16.5383 5.38591 16.5578 5.46777C16.5772 5.54964 16.5804 5.63453 16.567 5.71761C16.5537 5.80069 16.5241 5.88033 16.48 5.95198L8.6112 18.72C8.55371 18.8128 8.47342 18.8894 8.37798 18.9424C8.28254 18.9955 8.17511 19.0232 8.06592 19.023Z" fill="#202020"/>
<path d="M13.7488 19.9597H10.2512C9.76014 19.9611 9.27371 19.865 8.82005 19.6771C8.36639 19.4892 7.95452 19.2131 7.6083 18.8649L5.13502 16.3917C4.78681 16.0454 4.51076 15.6336 4.32284 15.1799C4.13493 14.7262 4.0389 14.2398 4.0403 13.7488V10.2512C4.0389 9.76014 4.13493 9.27371 4.32284 8.82005C4.51076 8.36639 4.78681 7.95452 5.13502 7.6083L7.6083 5.13502C7.95452 4.78681 8.36639 4.51076 8.82005 4.32284C9.27371 4.13493 9.76014 4.0389 10.2512 4.0403H13.7488C14.2398 4.0389 14.7262 4.13493 15.1799 4.32284C15.6336 4.51076 16.0454 4.78681 16.3917 5.13502L18.8649 7.6083C19.2131 7.95452 19.4892 8.36639 19.6771 8.82005C19.865 9.27371 19.9611 9.76014 19.9597 10.2512V13.7488C19.9611 14.2398 19.865 14.7262 19.6771 15.1799C19.4892 15.6336 19.2131 16.0454 18.8649 16.3917L16.3917 18.8649C16.0454 19.2131 15.6336 19.4892 15.1799 19.6771C14.7262 19.865 14.2398 19.9611 13.7488 19.9597ZM10.2512 5.3203C9.92832 5.31938 9.60849 5.38255 9.31021 5.50614C9.01195 5.62974 8.74117 5.81129 8.51358 6.0403L6.0403 8.51358C5.81129 8.74117 5.62974 9.01195 5.50614 9.31021C5.38255 9.60849 5.31938 9.92832 5.3203 10.2512V13.7488C5.31938 14.0716 5.38255 14.3915 5.50614 14.6897C5.62974 14.988 5.81129 15.2588 6.0403 15.4864L8.51358 17.9597C8.74117 18.1887 9.01195 18.3702 9.31021 18.4938C9.60849 18.6174 9.92832 18.6806 10.2512 18.6797H13.7488C14.0716 18.6806 14.3915 18.6174 14.6897 18.4938C14.988 18.3702 15.2588 18.1887 15.4864 17.9597L17.9597 15.488C18.1887 15.2604 18.3702 14.9896 18.4938 14.6913C18.6174 14.3931 18.6806 14.0732 18.6797 13.7504V10.2512C18.6806 9.92835 18.6174 9.60854 18.4939 9.31028C18.3704 9.01202 18.1889 8.74123 17.96 8.51358L15.488 6.0403C15.2604 5.81129 14.9896 5.62974 14.6913 5.50614C14.3931 5.38255 14.0732 5.31938 13.7504 5.3203H10.2512Z" fill="#202020"/>
</svg>
