<svg width="24" height="24" viewBox="0 0 24 24" fill="none" xmlns="http://www.w3.org/2000/svg">
<path d="M17.159 20.128C17.0259 20.1281 16.8962 20.0868 16.7877 20.0098C16.6792 19.9327 16.5975 19.8238 16.5538 19.6981C16.5101 19.5725 16.5067 19.4363 16.544 19.3086C16.5813 19.1809 16.6574 19.068 16.7618 18.9856L17.7775 18.1837H16.7855C15.6924 18.1837 14.6902 17.6733 14.1046 16.8189L7.97912 7.88159C7.63736 7.38303 7.01464 7.07199 6.35384 7.07199H3.6732C3.50346 7.07199 3.34068 7.00456 3.22065 6.88454C3.10063 6.76452 3.0332 6.60173 3.0332 6.43199C3.0332 6.26225 3.10063 6.09947 3.22065 5.97944C3.34068 5.85942 3.50346 5.79199 3.6732 5.79199H6.35384C7.44696 5.79199 8.4492 6.30207 9.0348 7.15647L15.1615 16.096C15.5033 16.5946 16.126 16.9043 16.7868 16.9043H19.6207C19.754 16.904 19.8841 16.9453 19.9928 17.0224C20.1015 17.0996 20.1834 17.2087 20.2271 17.3347C20.2707 17.4606 20.274 17.5971 20.2363 17.7249C20.1987 17.8528 20.1221 17.9658 20.0172 18.048L17.5551 19.991C17.4423 20.0801 17.3027 20.1283 17.159 20.128Z" fill="#202020"/>
<path d="M6.50712 18.1846H3.6732C3.50346 18.1846 3.34068 18.1172 3.22065 17.9972C3.10063 17.8772 3.0332 17.7144 3.0332 17.5446C3.0332 17.3749 3.10063 17.2121 3.22065 17.0921C3.34068 16.9721 3.50346 16.9046 3.6732 16.9046H6.50712C7.16792 16.9046 7.79064 16.5949 8.1324 16.0963L14.2591 7.15775C14.8447 6.30399 15.847 5.79199 16.9401 5.79199H18.0425L17.1945 4.96895C17.1333 4.91062 17.0843 4.84075 17.0502 4.76337C17.0162 4.68599 16.9979 4.60263 16.9962 4.51811C16.9946 4.4336 17.0097 4.3496 17.0407 4.27096C17.0717 4.19232 17.118 4.1206 17.1769 4.05994C17.2358 3.99929 17.3061 3.9509 17.3838 3.91757C17.4614 3.88424 17.545 3.86663 17.6295 3.86576C17.714 3.86488 17.7979 3.88076 17.8762 3.91248C17.9546 3.9442 18.0259 3.99112 18.086 4.05055L20.0665 5.97279C20.1579 6.06152 20.2207 6.1755 20.247 6.30016C20.2732 6.42481 20.2616 6.55446 20.2138 6.6725C20.1659 6.79055 20.0839 6.89162 19.9782 6.96279C19.8726 7.03396 19.7481 7.07198 19.6207 7.07199H16.9401C16.2793 7.07199 15.6566 7.38175 15.3148 7.88031L9.1884 16.8198C8.60248 17.6742 7.60024 18.1846 6.50712 18.1846Z" fill="#202020"/>
</svg>
