<svg width="24" height="24" viewBox="0 0 24 24" fill="none" xmlns="http://www.w3.org/2000/svg">
<path d="M9.46719 10.8089C9.16846 10.8089 8.87644 10.7204 8.62805 10.5544C8.37967 10.3884 8.18608 10.1525 8.07176 9.87655C7.95744 9.60056 7.92753 9.29687 7.98581 9.00388C8.04409 8.71089 8.18794 8.44177 8.39917 8.23053C8.61041 8.0193 8.87953 7.87545 9.17252 7.81717C9.46551 7.75889 9.7692 7.7888 10.0452 7.90312C10.3212 8.01744 10.5571 8.21103 10.723 8.45941C10.889 8.7078 10.9776 8.99982 10.9776 9.29855C10.9771 9.69897 10.8178 10.0829 10.5346 10.366C10.2515 10.6491 9.86762 10.8084 9.46719 10.8089ZM9.46719 9.06815C9.42162 9.06815 9.37707 9.08166 9.33918 9.10698C9.3013 9.13229 9.27176 9.16828 9.25433 9.21038C9.23689 9.25248 9.23233 9.2988 9.24122 9.3435C9.25011 9.38819 9.27205 9.42924 9.30427 9.46147C9.33649 9.49369 9.37755 9.51563 9.42224 9.52452C9.46693 9.53341 9.51326 9.52885 9.55536 9.51141C9.59746 9.49397 9.63344 9.46444 9.65876 9.42655C9.68408 9.38866 9.69759 9.34412 9.69759 9.29855C9.6975 9.23747 9.6732 9.17891 9.63001 9.13572C9.58682 9.09253 9.52827 9.06823 9.46719 9.06815ZM13.4432 15.783C13.1445 15.7831 12.8524 15.6946 12.604 15.5287C12.3556 15.3628 12.162 15.1269 12.0476 14.851C11.9332 14.5751 11.9032 14.2714 11.9614 13.9784C12.0196 13.6854 12.1634 13.4162 12.3745 13.205C12.5857 12.9937 12.8547 12.8497 13.1477 12.7914C13.4406 12.733 13.7443 12.7628 14.0204 12.877C14.2964 12.9912 14.5323 13.1847 14.6984 13.433C14.8644 13.6813 14.9531 13.9733 14.9533 14.272C14.953 14.6725 14.7939 15.0565 14.5108 15.3398C14.2276 15.6231 13.8437 15.7825 13.4432 15.783ZM13.4432 14.0422C13.3976 14.0422 13.353 14.0556 13.3151 14.0809C13.2772 14.1062 13.2476 14.1421 13.2301 14.1842C13.2126 14.2263 13.208 14.2727 13.2169 14.3174C13.2257 14.3621 13.2476 14.4032 13.2798 14.4354C13.312 14.4677 13.3531 14.4897 13.3978 14.4986C13.4425 14.5075 13.4888 14.5029 13.531 14.4855C13.5731 14.4681 13.6091 14.4386 13.6344 14.4007C13.6597 14.3628 13.6733 14.3182 13.6733 14.2726C13.6732 14.2116 13.6489 14.1531 13.6058 14.1099C13.5627 14.0667 13.5042 14.0424 13.4432 14.0422ZM8.47999 15.4003C8.35412 15.4004 8.23103 15.3633 8.12612 15.2938C8.02121 15.2242 7.93913 15.1253 7.89016 15.0093C7.84118 14.8934 7.82748 14.7656 7.85078 14.6419C7.87407 14.5182 7.93332 14.4041 8.02111 14.3139L13.4208 8.75967C13.4789 8.69732 13.5488 8.6472 13.6265 8.61225C13.7042 8.57729 13.7881 8.5582 13.8733 8.5561C13.9585 8.55399 14.0432 8.56892 14.1225 8.59999C14.2019 8.63107 14.2742 8.67768 14.3353 8.73708C14.3963 8.79648 14.445 8.86747 14.4782 8.94591C14.5115 9.02434 14.5288 9.10863 14.5291 9.19383C14.5294 9.27903 14.5126 9.36343 14.4798 9.44208C14.4471 9.52072 14.3989 9.59203 14.3382 9.65183L8.93759 15.2064C8.8781 15.2676 8.80697 15.3163 8.72838 15.3496C8.64979 15.3829 8.56534 15.4001 8.47999 15.4003Z" fill="#202020"/>
<path d="M11.3533 20.4298C9.44455 20.4297 7.59489 19.7678 6.11945 18.5569C4.64401 17.346 3.63409 15.6609 3.26177 13.7889C2.88944 11.9168 3.17775 9.97354 4.07756 8.29021C4.97738 6.60688 6.43302 5.28762 8.19648 4.55723C9.95994 3.82683 11.9221 3.73048 13.7486 4.2846C15.5752 4.83872 17.1531 6.00902 18.2135 7.5961C19.2738 9.18318 19.7511 11.0888 19.564 12.9884C19.3769 14.8879 18.5369 16.6638 17.1872 18.0135C16.4228 18.7819 15.5137 19.3912 14.5123 19.806C13.5109 20.2207 12.4372 20.4328 11.3533 20.4298ZM11.3533 5.20929C7.51009 5.20929 4.38401 8.33601 4.38401 12.1795C4.38401 16.0231 7.51105 19.1498 11.3542 19.1498C15.1974 19.1498 18.3248 16.0231 18.3248 12.1795C18.3248 8.33601 15.1968 5.20929 11.3533 5.20929Z" fill="#202020"/>
</svg>
