<svg width="24" height="24" viewBox="0 0 24 24" fill="none" xmlns="http://www.w3.org/2000/svg">
<path d="M16.8045 18.8665H8.23615C7.45406 18.8657 6.70423 18.5547 6.15118 18.0017C5.59812 17.4487 5.287 16.6989 5.28607 15.9168V7.34814C5.287 6.56604 5.59812 5.81625 6.15118 5.26326C6.70423 4.71026 7.45406 4.39922 8.23615 4.39838H16.8045C17.5866 4.39922 18.3364 4.71026 18.8894 5.26326C19.4425 5.81625 19.7536 6.56604 19.7546 7.34814V15.9168C19.7536 16.6989 19.4425 17.4487 18.8894 18.0017C18.3364 18.5547 17.5866 18.8657 16.8045 18.8665ZM8.23615 5.67838C7.7934 5.6788 7.36891 5.85485 7.05581 6.16789C6.74271 6.48093 6.56658 6.90539 6.56607 7.34814V15.9168C6.56658 16.3595 6.74271 16.784 7.05581 17.097C7.36891 17.4101 7.7934 17.5861 8.23615 17.5865H16.8045C17.2472 17.5861 17.6717 17.4101 17.9848 17.097C18.2979 16.784 18.474 16.3595 18.4746 15.9168V7.34814C18.474 6.90539 18.2979 6.48093 17.9848 6.16789C17.6717 5.85485 17.2472 5.6788 16.8045 5.67838H8.23615Z" fill="#202020"/>
<path d="M14.513 15.3395H10.528C10.0735 15.339 9.63777 15.1583 9.3164 14.8369C8.99503 14.5155 8.81426 14.0798 8.81375 13.6253V9.64002C8.81426 9.18553 8.99503 8.7498 9.3164 8.42843C9.63777 8.10706 10.0735 7.92629 10.528 7.92578H14.513C14.9674 7.92629 15.4032 8.10706 15.7245 8.42843C16.0459 8.7498 16.2267 9.18553 16.2272 9.64002V13.6253C16.2267 14.0798 16.0459 14.5155 15.7245 14.8369C15.4032 15.1583 14.9674 15.339 14.513 15.3395ZM10.528 9.20578C10.4129 9.20595 10.3025 9.25176 10.2211 9.33315C10.1397 9.41455 10.0939 9.52491 10.0938 9.64002V13.6253C10.0939 13.7404 10.1397 13.8508 10.2211 13.9322C10.3025 14.0136 10.4129 14.0594 10.528 14.0595H14.513C14.6281 14.0594 14.7384 14.0136 14.8198 13.9322C14.9012 13.8508 14.947 13.7404 14.9472 13.6253V9.64002C14.947 9.52491 14.9012 9.41455 14.8198 9.33315C14.7384 9.25176 14.6281 9.20595 14.513 9.20578H10.528Z" fill="#202020"/>
<path d="M12.5203 15.3395C12.3506 15.3395 12.1878 15.2721 12.0678 15.1521C11.9477 15.0321 11.8803 14.8693 11.8803 14.6995V8.56578C11.8803 8.39604 11.9477 8.23326 12.0678 8.11323C12.1878 7.99321 12.3506 7.92578 12.5203 7.92578C12.69 7.92578 12.8528 7.99321 12.9729 8.11323C13.0929 8.23326 13.1603 8.39604 13.1603 8.56578V14.6995C13.1603 14.8693 13.0929 15.0321 12.9729 15.1521C12.8528 15.2721 12.69 15.3395 12.5203 15.3395Z" fill="#202020"/>
<path d="M15.5872 12.2726H9.45345C9.28371 12.2726 9.12092 12.2052 9.0009 12.0852C8.88087 11.9651 8.81345 11.8024 8.81345 11.6326C8.81345 11.4629 8.88087 11.3001 9.0009 11.1801C9.12092 11.06 9.28371 10.9926 9.45345 10.9926H15.5872C15.7569 10.9926 15.9197 11.06 16.0398 11.1801C16.1598 11.3001 16.2272 11.4629 16.2272 11.6326C16.2272 11.8024 16.1598 11.9651 16.0398 12.0852C15.9197 12.2052 15.7569 12.2726 15.5872 12.2726Z" fill="#202020"/>
</svg>
