<svg width="24" height="24" viewBox="0 0 24 24" fill="none" xmlns="http://www.w3.org/2000/svg">
<path d="M9.01732 19.0256C8.99972 19.0256 8.9818 19.0256 8.96356 19.0234C8.79441 19.0093 8.6378 18.9286 8.52816 18.799C8.41852 18.6694 8.36484 18.5016 8.37892 18.3325L9.5098 4.76225C9.51303 4.6758 9.53377 4.59091 9.57074 4.5127C9.60771 4.43448 9.66015 4.36458 9.7249 4.30721C9.78965 4.24983 9.86536 4.20618 9.94745 4.17889C10.0295 4.1516 10.1163 4.14123 10.2025 4.14842C10.2887 4.15561 10.3726 4.1802 10.449 4.22071C10.5255 4.26122 10.5929 4.3168 10.6473 4.38411C10.7016 4.45141 10.7418 4.52904 10.7653 4.61229C10.7888 4.69554 10.7952 4.7827 10.784 4.86849L9.65444 18.4387C9.64112 18.5986 9.56825 18.7477 9.45025 18.8563C9.33226 18.965 9.17774 19.0254 9.01732 19.0256ZM14.5757 19.0256C14.5578 19.0256 14.5399 19.0256 14.522 19.0234C14.3528 19.0093 14.1962 18.9286 14.0866 18.799C13.9769 18.6694 13.9232 18.5016 13.9373 18.3325L15.0682 4.76225C15.0744 4.6779 15.0972 4.5956 15.1354 4.52013C15.1736 4.44466 15.2263 4.3775 15.2906 4.32254C15.3549 4.26759 15.4295 4.22592 15.51 4.19995C15.5905 4.17398 15.6753 4.16422 15.7596 4.17124C15.8439 4.17826 15.926 4.20192 16.001 4.24085C16.0761 4.27978 16.1428 4.33321 16.1971 4.39804C16.2514 4.46288 16.2923 4.53784 16.3175 4.61859C16.3427 4.69934 16.3516 4.78428 16.3437 4.86849L15.2128 18.4387C15.1995 18.5986 15.1266 18.7477 15.0087 18.8563C14.8907 18.965 14.7361 19.0254 14.5757 19.0256Z" fill="#202020"/>
<path d="M5.50814 9.50593C5.3384 9.50631 5.17546 9.43924 5.05517 9.31949C4.93488 9.19974 4.86708 9.0371 4.8667 8.86737C4.86632 8.69763 4.93338 8.53469 5.05313 8.41439C5.17289 8.2941 5.33552 8.22631 5.50526 8.22593L19.1222 8.16001H19.1257C19.2955 8.15962 19.4584 8.22669 19.5787 8.34644C19.699 8.46619 19.7668 8.62883 19.7672 8.79856C19.7676 8.9683 19.7005 9.13124 19.5807 9.25154C19.461 9.37183 19.2984 9.43962 19.1286 9.44001L5.51166 9.50752L5.50814 9.50593ZM5.59678 15.0426C5.51273 15.0428 5.42947 15.0264 5.35174 14.9945C5.27401 14.9625 5.20334 14.9155 5.14376 14.8562C5.08419 14.797 5.03687 14.7265 5.00451 14.649C4.97215 14.5714 4.95539 14.4882 4.95518 14.4042C4.95497 14.3201 4.97132 14.2369 5.00329 14.1591C5.03525 14.0814 5.08222 14.0107 5.1415 13.9511C5.20078 13.8916 5.27122 13.8443 5.34878 13.8119C5.42635 13.7795 5.50953 13.7628 5.59358 13.7626L19.2109 13.696H19.2141C19.3838 13.6956 19.5468 13.7626 19.6671 13.8823C19.7874 14.002 19.8552 14.1647 19.8557 14.3344C19.8561 14.5041 19.7891 14.6671 19.6693 14.7874C19.5496 14.9077 19.387 14.9756 19.2173 14.976L5.59998 15.0426H5.59678Z" fill="#202020"/>
</svg>
