<svg width="24" height="24" viewBox="0 0 24 24" fill="none" xmlns="http://www.w3.org/2000/svg">
<path d="M17.736 20.4556H6.96801C6.06022 20.4546 5.1899 20.0935 4.548 19.4516C3.90609 18.8097 3.54502 17.9394 3.54401 17.0316V6.96795C3.54502 6.06016 3.90609 5.18984 4.548 4.54793C5.1899 3.90603 6.06022 3.54496 6.96801 3.54395H17.032C17.9398 3.54496 18.8101 3.90603 19.452 4.54793C20.0939 5.18984 20.455 6.06016 20.456 6.96795V13.2959C20.456 13.4657 20.3886 13.6285 20.2686 13.7485C20.1485 13.8685 19.9857 13.9359 19.816 13.9359C19.6463 13.9359 19.4835 13.8685 19.3635 13.7485C19.2434 13.6285 19.176 13.4657 19.176 13.2959V6.96795C19.1755 6.39948 18.9494 5.85444 18.5475 5.45247C18.1455 5.0505 17.6005 4.82445 17.032 4.82395H6.96801C6.39954 4.82445 5.8545 5.0505 5.45253 5.45247C5.05056 5.85444 4.82451 6.39948 4.82401 6.96795V17.0319C4.82451 17.6004 5.05056 18.1455 5.45253 18.5474C5.8545 18.9494 6.39954 19.1754 6.96801 19.1759H17.736C17.9057 19.1759 18.0685 19.2434 18.1886 19.3634C18.3086 19.4834 18.376 19.6462 18.376 19.8159C18.376 19.9857 18.3086 20.1485 18.1886 20.2685C18.0685 20.3885 17.9057 20.4559 17.736 20.4559V20.4556Z" fill="#202020"/>
<path d="M10.44 15.8246C10.4221 15.8246 10.4042 15.8246 10.3859 15.8224C10.2168 15.8083 10.0602 15.7276 9.95052 15.598C9.84088 15.4684 9.7872 15.3006 9.80128 15.1315L10.3987 7.96347C10.4144 7.79557 10.4957 7.64063 10.625 7.53233C10.7542 7.42404 10.921 7.37114 11.0891 7.38514C11.2571 7.39914 11.4129 7.4789 11.5224 7.60709C11.632 7.73527 11.6866 7.90153 11.6742 8.06971L11.0768 15.2377C11.0635 15.3975 10.9907 15.5465 10.8727 15.6552C10.7548 15.7639 10.6004 15.8243 10.44 15.8246ZM13.376 15.8246C13.3581 15.8246 13.3402 15.8246 13.3222 15.8224C13.1531 15.8083 12.9965 15.7276 12.8868 15.598C12.7772 15.4684 12.7235 15.3006 12.7376 15.1315L13.3347 7.96347C13.3488 7.79429 13.4295 7.63763 13.5591 7.52796C13.6887 7.41828 13.8566 7.36459 14.0258 7.37867C14.1949 7.39276 14.3516 7.47348 14.4613 7.60308C14.571 7.73267 14.6246 7.90053 14.6106 8.06971L14.0131 15.2377C13.9998 15.3976 13.9269 15.5466 13.8089 15.6553C13.6909 15.764 13.5364 15.8244 13.376 15.8246Z" fill="#202020"/>
<path d="M8.58591 10.7957C8.50186 10.796 8.4186 10.7796 8.34087 10.7476C8.26314 10.7157 8.19247 10.6687 8.13289 10.6094C8.07331 10.5501 8.02599 10.4797 7.99364 10.4021C7.96128 10.3246 7.94452 10.2414 7.94431 10.1573C7.9441 10.0733 7.96044 9.99004 7.99241 9.91231C8.02438 9.83458 8.07135 9.76391 8.13063 9.70433C8.18991 9.64475 8.26034 9.59743 8.33791 9.56508C8.41548 9.53272 8.49866 9.51596 8.58271 9.51575L15.776 9.48023H15.7792C15.9489 9.4798 16.1119 9.54682 16.2322 9.66655C16.3525 9.78627 16.4204 9.94889 16.4208 10.1186C16.4212 10.2884 16.3542 10.4513 16.2345 10.5716C16.1147 10.692 15.9521 10.7598 15.7824 10.7602L8.58911 10.7957H8.58591ZM8.63263 13.7205C8.46289 13.721 8.29993 13.6539 8.17961 13.5342C8.05929 13.4145 7.99145 13.2519 7.99103 13.0821C7.9906 12.9124 8.05762 12.7495 8.17735 12.6291C8.29707 12.5088 8.45969 12.441 8.62943 12.4405L15.8227 12.405H15.8259C15.9956 12.4046 16.1586 12.4716 16.2789 12.5913C16.3992 12.7111 16.4671 12.8737 16.4675 13.0434C16.4679 13.2132 16.4009 13.3761 16.2812 13.4964C16.1615 13.6168 15.9988 13.6846 15.8291 13.685L8.63583 13.7205H8.63263ZM19.879 20.4556C19.7093 20.4556 19.5465 20.3881 19.4265 20.2681L18.2534 19.0949C18.194 19.0355 18.1468 18.965 18.1147 18.8873C18.0825 18.8097 18.0659 18.7265 18.0659 18.6424C18.0659 18.5584 18.0824 18.4751 18.1146 18.3975C18.1467 18.3198 18.1938 18.2493 18.2533 18.1898C18.3127 18.1304 18.3832 18.0832 18.4609 18.0511C18.5385 18.0189 18.6217 18.0023 18.7058 18.0023C18.7898 18.0023 18.8731 18.0188 18.9507 18.051C19.0284 18.0831 19.0989 18.1302 19.1584 18.1897L19.8624 18.8937L20.52 18.1897C20.636 18.0657 20.7964 17.9929 20.9661 17.9873C21.1357 17.9816 21.3007 18.0436 21.4246 18.1596C21.5486 18.2756 21.6214 18.436 21.627 18.6057C21.6327 18.7753 21.5707 18.9403 21.4547 19.0642L20.3462 20.2527C20.2876 20.3154 20.2169 20.3656 20.1385 20.4004C20.06 20.4352 19.9754 20.4538 19.8896 20.4553L19.879 20.4556Z" fill="#202020"/>
<path d="M19.879 20.4556C19.7093 20.4556 19.5465 20.3882 19.4265 20.2682C19.3065 20.1482 19.239 19.9854 19.239 19.8156V15.2179C19.239 15.1338 19.2556 15.0506 19.2878 14.973C19.3199 14.8953 19.3671 14.8248 19.4265 14.7653C19.4859 14.7059 19.5565 14.6588 19.6341 14.6266C19.7118 14.5944 19.795 14.5779 19.879 14.5779C19.9631 14.5779 20.0463 14.5944 20.124 14.6266C20.2016 14.6588 20.2722 14.7059 20.3316 14.7653C20.391 14.8248 20.4382 14.8953 20.4703 14.973C20.5025 15.0506 20.519 15.1338 20.519 15.2179V19.8156C20.519 19.9854 20.4516 20.1482 20.3316 20.2682C20.2116 20.3882 20.0488 20.4556 19.879 20.4556Z" fill="#202020"/>
</svg>
