<svg width="24" height="24" viewBox="0 0 24 24" fill="none" xmlns="http://www.w3.org/2000/svg">
<path d="M7.81279 8.47072C7.37121 8.47078 6.93952 8.3399 6.57232 8.09461C6.20512 7.84932 5.91891 7.50065 5.74988 7.0927C5.58084 6.68474 5.53658 6.23582 5.6227 5.80271C5.70881 5.3696 5.92142 4.97175 6.23365 4.65948C6.54587 4.34721 6.94369 4.13454 7.37679 4.04836C7.80989 3.96219 8.25882 4.00639 8.6668 4.17536C9.07478 4.34433 9.42349 4.6305 9.66883 4.99766C9.91417 5.36482 10.0451 5.79649 10.0451 6.23808C10.0444 6.82995 9.80904 7.39739 9.39055 7.81593C8.97207 8.23448 8.40466 8.46996 7.81279 8.47072ZM7.81279 5.28576C7.62435 5.2857 7.44013 5.34152 7.28342 5.44618C7.12671 5.55083 7.00455 5.69961 6.93241 5.87369C6.86027 6.04778 6.84138 6.23935 6.87812 6.42417C6.91487 6.609 7.00561 6.77877 7.13886 6.91202C7.27211 7.04527 7.44188 7.136 7.6267 7.17275C7.81153 7.2095 8.0031 7.19061 8.17718 7.11846C8.35127 7.04632 8.50005 6.92417 8.6047 6.76746C8.70935 6.61075 8.76518 6.42652 8.76512 6.23808C8.76478 5.98561 8.66433 5.74358 8.48581 5.56506C8.30729 5.38654 8.06526 5.2861 7.81279 5.28576Z" fill="#202020"/>
<path d="M10.7567 7.9888H8.99864C8.8289 7.9888 8.66612 7.92137 8.54609 7.80135C8.42607 7.68133 8.35864 7.51854 8.35864 7.3488C8.35864 7.17906 8.42607 7.01628 8.54609 6.89625C8.66612 6.77623 8.8289 6.7088 8.99864 6.7088H10.7199V5.93792H9.18392C9.01418 5.93792 8.8514 5.87049 8.73137 5.75047C8.61135 5.63045 8.54392 5.46766 8.54392 5.29792C8.54392 5.12818 8.61135 4.9654 8.73137 4.84537C8.8514 4.72535 9.01418 4.65792 9.18392 4.65792H10.7583C11.0875 4.65851 11.4031 4.7896 11.6358 5.02246C11.8686 5.25531 11.9995 5.57094 11.9999 5.90016V6.74624C11.9996 7.0758 11.8685 7.39175 11.6354 7.62472C11.4023 7.85769 11.0863 7.98863 10.7567 7.9888ZM9.94712 20.5062C9.77738 20.5062 9.6146 20.4388 9.49457 20.3188C9.37455 20.1988 9.30712 20.036 9.30712 19.8662V17.4342C9.30712 17.2645 9.37455 17.1017 9.49457 16.9817C9.6146 16.8617 9.77738 16.7942 9.94712 16.7942C10.1169 16.7942 10.2796 16.8617 10.3997 16.9817C10.5197 17.1017 10.5871 17.2645 10.5871 17.4342V19.8662C10.5871 20.036 10.5197 20.1988 10.3997 20.3188C10.2796 20.4388 10.1169 20.5062 9.94712 20.5062Z" fill="#202020"/>
<path d="M9.94713 9.67232C9.77739 9.67232 9.6146 9.60489 9.49458 9.48487C9.37456 9.36485 9.30713 9.20206 9.30713 9.03232V7.3488C9.30713 7.26476 9.32368 7.18153 9.35585 7.10388C9.38801 7.02624 9.43515 6.95568 9.49458 6.89625C9.55401 6.83682 9.62456 6.78968 9.70221 6.75752C9.77986 6.72536 9.86308 6.7088 9.94713 6.7088C10.0312 6.7088 10.1144 6.72536 10.192 6.75752C10.2697 6.78968 10.3402 6.83682 10.3997 6.89625C10.4591 6.95568 10.5062 7.02624 10.5384 7.10388C10.5706 7.18153 10.5871 7.26476 10.5871 7.3488V9.03232C10.5871 9.20206 10.5197 9.36485 10.3997 9.48487C10.2797 9.60489 10.1169 9.67232 9.94713 9.67232Z" fill="#202020"/>
<path d="M10.258 17.4909H9.6254C9.16378 17.4904 8.72121 17.3068 8.3948 16.9804C8.06839 16.6539 7.88479 16.2114 7.88428 15.7498V10.8707C7.88479 10.4091 8.06838 9.96647 8.39478 9.64001C8.72119 9.31355 9.16375 9.12987 9.6254 9.12928H10.258C10.7199 9.12962 11.1627 9.31318 11.4893 9.63967C11.8159 9.96616 11.9996 10.4089 12.0001 10.8707V15.7498C11.9996 16.2115 11.8159 16.6543 11.4893 16.9807C11.1626 17.3071 10.7198 17.4906 10.258 17.4909ZM9.6254 10.4093C9.50312 10.4095 9.38593 10.4582 9.2995 10.5447C9.21307 10.6312 9.16445 10.7484 9.16428 10.8707V15.7498C9.16445 15.872 9.21308 15.9892 9.29952 16.0756C9.38596 16.1621 9.50315 16.2107 9.6254 16.2109H10.258C10.3804 16.211 10.4979 16.1624 10.5845 16.076C10.6712 15.9895 10.7199 15.8722 10.7201 15.7498V10.8707C10.72 10.7484 10.6714 10.6311 10.585 10.5446C10.4985 10.4581 10.3813 10.4095 10.259 10.4093H9.6254ZM18.675 8.47072C18.2334 8.47072 17.8018 8.33978 17.4346 8.09445C17.0675 7.84913 16.7813 7.50044 16.6123 7.09247C16.4433 6.68451 16.3991 6.2356 16.4853 5.80251C16.5714 5.36942 16.784 4.97161 17.0963 4.65937C17.4085 4.34713 17.8063 4.13449 18.2394 4.04834C18.6725 3.96219 19.1214 4.00641 19.5294 4.17539C19.9374 4.34437 20.286 4.63054 20.5314 4.99769C20.7767 5.36485 20.9076 5.79651 20.9076 6.23808C20.907 6.83003 20.6716 7.39757 20.2531 7.81614C19.8345 8.23471 19.2669 8.47013 18.675 8.47072ZM18.675 5.28576C18.4866 5.28576 18.3024 5.34164 18.1457 5.44633C17.989 5.55102 17.8669 5.69982 17.7948 5.87392C17.7227 6.04801 17.7039 6.23957 17.7407 6.42437C17.7775 6.60917 17.8682 6.77892 18.0015 6.91213C18.1348 7.04535 18.3045 7.13605 18.4893 7.17278C18.6742 7.2095 18.8657 7.19059 19.0398 7.11843C19.2138 7.04628 19.3626 6.92413 19.4672 6.76743C19.5719 6.61072 19.6277 6.42651 19.6276 6.23808C19.6274 5.98553 19.5269 5.74341 19.3483 5.56486C19.1697 5.38631 18.9275 5.28593 18.675 5.28576Z" fill="#202020"/>
<path d="M17.4888 7.9888H15.7308C15.4014 7.98838 15.0856 7.85732 14.8527 7.62438C14.6198 7.39143 14.4889 7.07563 14.4885 6.74624V5.90016C14.4889 5.5708 14.6199 5.25503 14.8527 5.02214C15.0856 4.78925 15.4014 4.65826 15.7308 4.65792H17.3052C17.4749 4.65792 17.6377 4.72535 17.7577 4.84537C17.8777 4.9654 17.9452 5.12818 17.9452 5.29792C17.9452 5.46766 17.8777 5.63045 17.7577 5.75047C17.6377 5.87049 17.4749 5.93792 17.3052 5.93792H15.7692V6.7088H17.4895C17.6592 6.7088 17.822 6.77623 17.942 6.89625C18.0621 7.01628 18.1295 7.17906 18.1295 7.3488C18.1295 7.51854 18.0621 7.68133 17.942 7.80135C17.822 7.92137 17.6592 7.9888 17.4895 7.9888H17.4888Z" fill="#202020"/>
<path d="M16.5401 20.5062C16.3704 20.5062 16.2076 20.4388 16.0876 20.3188C15.9676 20.1988 15.9001 20.036 15.9001 19.8662V7.3488C15.9001 7.17906 15.9676 7.01628 16.0876 6.89625C16.2076 6.77623 16.3704 6.7088 16.5401 6.7088C16.7099 6.7088 16.8727 6.77623 16.9927 6.89625C17.1127 7.01628 17.1801 7.17906 17.1801 7.3488V19.8662C17.1801 20.036 17.1127 20.1988 16.9927 20.3188C16.8727 20.4388 16.7099 20.5062 16.5401 20.5062Z" fill="#202020"/>
</svg>
