<svg width="24" height="24" viewBox="0 0 24 24" fill="none" xmlns="http://www.w3.org/2000/svg">
<path d="M12.0726 19.68C11.9031 19.68 11.7405 19.6126 11.6205 19.4928L5.54049 13.4288L4.85473 12.7443C2.92929 10.8243 2.92545 7.69344 4.84673 5.76832C5.30417 5.30959 5.84751 4.94549 6.44571 4.69681C7.04391 4.44814 7.68524 4.31976 8.33307 4.31902C8.9809 4.31828 9.62252 4.44518 10.2213 4.69248C10.8201 4.93979 11.3642 5.30264 11.8227 5.76032L12.0557 5.99232L12.1661 5.8816C13.0652 4.97421 14.2812 4.45094 15.5582 4.42191C16.8353 4.39287 18.0738 4.86034 19.0132 5.72593C19.9526 6.59152 20.5196 7.78775 20.5949 9.06291C20.6702 10.3381 20.2479 11.5927 19.417 12.5629C19.3068 12.6917 19.1499 12.7716 18.9809 12.7849C18.8118 12.7983 18.6444 12.744 18.5154 12.634C18.3863 12.524 18.3062 12.3672 18.2926 12.1982C18.279 12.0292 18.3331 11.8617 18.4429 11.7325C19.6701 10.2925 19.5808 8.11648 18.24 6.77952C17.9004 6.4407 17.4973 6.1721 17.0539 5.98905C16.6104 5.806 16.1352 5.71209 15.6555 5.71269C15.1757 5.71328 14.7008 5.80837 14.2578 5.99251C13.8148 6.17666 13.4124 6.44626 13.0736 6.78592L12.512 7.34976C12.4526 7.40931 12.3821 7.45658 12.3045 7.48886C12.2268 7.52115 12.1436 7.53782 12.0595 7.53792C11.89 7.53797 11.7274 7.47076 11.6074 7.35104L10.9216 6.66656C10.5819 6.32764 10.1788 6.05895 9.73526 5.87583C9.29173 5.69271 8.81647 5.59874 8.33662 5.59929C7.85677 5.59984 7.38173 5.6949 6.93862 5.87903C6.49551 6.06317 6.093 6.33278 5.75409 6.67248C5.06962 7.35852 4.68571 8.28837 4.68682 9.25746C4.68793 10.2266 5.07397 11.1555 5.76001 11.84L6.44577 12.5242L12.5258 18.5885C12.615 18.6781 12.6756 18.7921 12.7001 18.9161C12.7246 19.0401 12.7118 19.1686 12.6633 19.2854C12.6148 19.4021 12.5329 19.5019 12.4277 19.5722C12.3226 19.6424 12.1991 19.6799 12.0726 19.68Z" fill="#202020"/>
<path d="M16.2559 19.5408C15.5967 19.5408 14.9524 19.3453 14.4043 18.9791C13.8562 18.6129 13.429 18.0924 13.1768 17.4834C12.9245 16.8744 12.8585 16.2043 12.9871 15.5578C13.1157 14.9113 13.4332 14.3175 13.8993 13.8514C14.3654 13.3853 14.9592 13.0678 15.6057 12.9392C16.2522 12.8106 16.9223 12.8766 17.5313 13.1289C18.1403 13.3811 18.6608 13.8083 19.027 14.3564C19.3932 14.9045 19.5887 15.5488 19.5887 16.208C19.5877 17.0916 19.2362 17.9387 18.6114 18.5635C17.9866 19.1883 17.1395 19.5398 16.2559 19.5408ZM16.2559 14.1552C15.8499 14.1552 15.453 14.2756 15.1154 14.5012C14.7778 14.7267 14.5147 15.0473 14.3594 15.4224C14.204 15.7975 14.1633 16.2103 14.2425 16.6085C14.3217 17.0067 14.5173 17.3725 14.8043 17.6595C15.0914 17.9466 15.4572 18.1421 15.8554 18.2214C16.2536 18.3006 16.6664 18.2599 17.0415 18.1045C17.4166 17.9492 17.7372 17.6861 17.9627 17.3485C18.1883 17.0109 18.3087 16.614 18.3087 16.208C18.308 15.6638 18.0915 15.142 17.7067 14.7572C17.3219 14.3724 16.8001 14.1559 16.2559 14.1552Z" fill="#202020"/>
<path d="M19.6867 20.304C19.599 20.304 19.5123 20.2861 19.4319 20.2512C19.3515 20.2164 19.2791 20.1654 19.2192 20.1014L17.7305 18.5107C17.6715 18.4497 17.6252 18.3775 17.5943 18.2984C17.5634 18.2192 17.5486 18.1348 17.5507 18.0499C17.5528 17.965 17.5718 17.8813 17.6066 17.8038C17.6414 17.7263 17.6912 17.6565 17.7532 17.5985C17.8152 17.5405 17.8881 17.4954 17.9678 17.4658C18.0474 17.4362 18.1321 17.4228 18.2169 17.4263C18.3018 17.4298 18.3851 17.4502 18.462 17.4862C18.5389 17.5222 18.6079 17.5732 18.6649 17.6362L20.1539 19.2266C20.2392 19.3176 20.296 19.4317 20.3173 19.5546C20.3386 19.6776 20.3235 19.8041 20.2739 19.9186C20.2242 20.0331 20.1422 20.1306 20.0379 20.1991C19.9335 20.2675 19.8115 20.304 19.6867 20.304Z" fill="#202020"/>
</svg>
