<svg width="24" height="24" viewBox="0 0 24 24" fill="none" xmlns="http://www.w3.org/2000/svg">
<path d="M12.0726 19.68C11.9031 19.68 11.7405 19.6126 11.6205 19.4928L5.54049 13.4288L4.85473 12.7443C2.92929 10.8243 2.92545 7.69344 4.84673 5.76832C5.30417 5.30959 5.84751 4.94549 6.44571 4.69681C7.04391 4.44814 7.68524 4.31976 8.33307 4.31902C8.9809 4.31828 9.62252 4.44518 10.2213 4.69248C10.8201 4.93979 11.3642 5.30264 11.8227 5.76032L12.0557 5.99232L12.1661 5.8816C13.0652 4.97421 14.2812 4.45094 15.5582 4.42191C16.8353 4.39287 18.0738 4.86034 19.0132 5.72593C19.9526 6.59152 20.5196 7.78775 20.5949 9.06291C20.6702 10.3381 20.2479 11.5927 19.417 12.5629C19.3068 12.6917 19.1499 12.7716 18.9809 12.7849C18.8118 12.7983 18.6444 12.744 18.5154 12.634C18.3863 12.524 18.3062 12.3672 18.2926 12.1982C18.279 12.0292 18.3331 11.8617 18.4429 11.7325C19.6701 10.2925 19.5808 8.11648 18.24 6.77952C17.9004 6.4407 17.4973 6.1721 17.0539 5.98905C16.6104 5.806 16.1352 5.71209 15.6555 5.71269C15.1757 5.71328 14.7008 5.80837 14.2578 5.99251C13.8148 6.17666 13.4124 6.44626 13.0736 6.78592L12.512 7.34976C12.4526 7.40931 12.3821 7.45658 12.3045 7.48886C12.2268 7.52115 12.1436 7.53782 12.0595 7.53792C11.89 7.53797 11.7274 7.47076 11.6074 7.35104L10.9216 6.66656C10.5819 6.32764 10.1788 6.05895 9.73526 5.87583C9.29173 5.69271 8.81647 5.59874 8.33662 5.59929C7.85677 5.59984 7.38173 5.6949 6.93862 5.87903C6.49551 6.06317 6.093 6.33278 5.75409 6.67248C5.06962 7.35852 4.68571 8.28837 4.68682 9.25746C4.68793 10.2266 5.07397 11.1555 5.76001 11.84L6.44577 12.5242L12.5258 18.5885C12.615 18.6781 12.6756 18.7921 12.7001 18.9161C12.7246 19.0401 12.7118 19.1686 12.6633 19.2854C12.6148 19.4021 12.5329 19.5019 12.4277 19.5722C12.3226 19.6424 12.1991 19.6799 12.0726 19.68Z" fill="#202020"/>
<path d="M16.256 19.5408C15.5969 19.5408 14.9525 19.3453 14.4044 18.9791C13.8563 18.6129 13.4292 18.0924 13.1769 17.4834C12.9247 16.8744 12.8587 16.2043 12.9873 15.5578C13.1159 14.9113 13.4333 14.3175 13.8994 13.8514C14.3655 13.3853 14.9593 13.0678 15.6058 12.9392C16.2523 12.8106 16.9224 12.8766 17.5314 13.1289C18.1404 13.3811 18.6609 13.8083 19.0271 14.3564C19.3934 14.9045 19.5888 15.5488 19.5888 16.208C19.5878 17.0916 19.2363 17.9387 18.6115 18.5635C17.9867 19.1883 17.1396 19.5398 16.256 19.5408ZM16.256 14.1552C15.85 14.1552 15.4531 14.2756 15.1155 14.5012C14.778 14.7267 14.5149 15.0473 14.3595 15.4224C14.2041 15.7975 14.1635 16.2103 14.2427 16.6085C14.3219 17.0067 14.5174 17.3725 14.8045 17.6595C15.0916 17.9466 15.4573 18.1421 15.8555 18.2214C16.2537 18.3006 16.6665 18.2599 17.0416 18.1045C17.4167 17.9492 17.7373 17.6861 17.9629 17.3485C18.1884 17.0109 18.3088 16.614 18.3088 16.208C18.3081 15.6638 18.0916 15.142 17.7068 14.7572C17.322 14.3724 16.8002 14.1559 16.256 14.1552Z" fill="#202020"/>
<path d="M15.9239 17.5866C15.836 17.5865 15.749 17.5682 15.6685 17.5329C15.588 17.4976 15.5157 17.446 15.456 17.3814L14.656 16.519C14.5956 16.4581 14.5479 16.3857 14.516 16.306C14.4841 16.2264 14.4685 16.1411 14.4702 16.0553C14.4719 15.9695 14.4909 15.8849 14.5259 15.8065C14.561 15.7282 14.6115 15.6577 14.6743 15.5993C14.7372 15.5408 14.8112 15.4956 14.8919 15.4664C14.9725 15.4371 15.0583 15.4244 15.144 15.4289C15.2297 15.4335 15.3136 15.4552 15.3908 15.4928C15.4679 15.5305 15.5367 15.5832 15.593 15.648L15.9821 16.0675L16.9319 15.2829C17.063 15.1769 17.2306 15.1269 17.3983 15.1438C17.5661 15.1607 17.7204 15.243 17.8277 15.373C17.9351 15.503 17.9868 15.6701 17.9717 15.838C17.9565 16.0059 17.8758 16.1611 17.7469 16.2698L16.3312 17.44C16.2166 17.5347 16.0726 17.5865 15.9239 17.5866Z" fill="#202020"/>
</svg>
