<svg width="24" height="24" viewBox="0 0 24 24" fill="none" xmlns="http://www.w3.org/2000/svg">
<path d="M12.0726 19.68C11.9031 19.68 11.7405 19.6126 11.6205 19.4928L5.54049 13.4288L4.85473 12.7443C2.92929 10.8243 2.92545 7.69344 4.84673 5.76832C5.30417 5.30959 5.84751 4.94549 6.44571 4.69681C7.04391 4.44814 7.68524 4.31976 8.33307 4.31902C8.9809 4.31828 9.62252 4.44518 10.2213 4.69248C10.8201 4.93979 11.3642 5.30264 11.8227 5.76032L12.0557 5.99232L12.1661 5.8816C13.0901 4.95546 14.3441 4.43426 15.6523 4.43264C16.9605 4.43102 18.2158 4.94911 19.1421 5.87296C21.0675 7.79296 21.0714 10.9238 19.1501 12.849L18.5875 13.4128L12.5238 19.4928C12.4043 19.6122 12.2423 19.6795 12.0733 19.68H12.0726ZM8.33985 5.6C7.61691 5.60007 6.91024 5.81461 6.30929 6.21648C5.70835 6.61835 5.24013 7.18948 4.96392 7.85757C4.68771 8.52566 4.61591 9.26068 4.75763 9.96959C4.89934 10.6785 5.24818 11.3294 5.76001 11.84L6.44577 12.5242L12.0714 18.1363L17.6832 12.5098L18.2461 11.9459C18.9293 11.2594 19.3124 10.33 19.3112 9.36146C19.3101 8.39293 18.9248 7.46439 18.24 6.77952C17.9004 6.4407 17.4973 6.1721 17.0539 5.98905C16.6104 5.806 16.1352 5.71209 15.6555 5.71269C15.1757 5.71328 14.7008 5.80837 14.2578 5.99251C13.8148 6.17666 13.4124 6.44626 13.0736 6.78592L12.512 7.34976C12.4526 7.40921 12.382 7.45638 12.3043 7.48856C12.2267 7.52074 12.1434 7.5373 12.0594 7.5373C11.9753 7.5373 11.8921 7.52074 11.8144 7.48856C11.7367 7.45638 11.6662 7.40921 11.6067 7.34976L10.921 6.66528C10.5824 6.32612 10.1799 6.05737 9.73693 5.87453C9.29393 5.69169 8.8191 5.59839 8.33985 5.6Z" fill="#202020"/>
</svg>
