<svg width="24" height="24" viewBox="0 0 24 24" fill="none" xmlns="http://www.w3.org/2000/svg">
<path d="M17.0319 20.4557H6.96795C6.06016 20.4547 5.18984 20.0937 4.54793 19.4518C3.90603 18.8099 3.54496 17.9395 3.54395 17.0317V6.96807C3.54496 6.06028 3.90603 5.18996 4.54793 4.54806C5.18984 3.90615 6.06016 3.54508 6.96795 3.54407H17.0319C17.9397 3.54508 18.8101 3.90615 19.452 4.54806C20.0939 5.18996 20.4549 6.06028 20.4559 6.96807V17.0321C20.4559 17.9402 20.0952 18.8111 19.4531 19.4532C18.811 20.0953 17.94 20.4561 17.0319 20.4561V20.4557ZM6.96795 4.82439C6.39948 4.8249 5.85444 5.05094 5.45247 5.45291C5.0505 5.85488 4.82445 6.39992 4.82395 6.96839V17.0324C4.82445 17.6009 5.0505 18.1459 5.45247 18.5479C5.85444 18.9498 6.39948 19.1759 6.96795 19.1764H17.0319C17.3135 19.1764 17.5923 19.1209 17.8524 19.0132C18.1125 18.9054 18.3489 18.7475 18.548 18.5484C18.7471 18.3493 18.905 18.113 19.0127 17.8529C19.1205 17.5927 19.1759 17.3139 19.1759 17.0324V6.96807C19.1754 6.3996 18.9494 5.85456 18.5474 5.45259C18.1455 5.05062 17.6004 4.82458 17.0319 4.82407L6.96795 4.82439Z" fill="#202020"/>
<path d="M8.99899 17.3901C8.569 17.3901 8.14866 17.2626 7.79112 17.0238C7.43358 16.7849 7.15488 16.4454 6.99026 16.0482C6.82563 15.651 6.78248 15.2138 6.86625 14.7921C6.95002 14.3703 7.15695 13.9829 7.46089 13.6787C7.76482 13.3746 8.15211 13.1674 8.5738 13.0833C8.99549 12.9992 9.43264 13.042 9.82998 13.2064C10.2273 13.3707 10.567 13.6491 10.8062 14.0065C11.0453 14.3639 11.1731 14.7841 11.1734 15.2141C11.1734 15.7909 10.9443 16.3442 10.5366 16.7522C10.1289 17.1602 9.57582 17.3897 8.99899 17.3901ZM8.99899 14.3216C8.82208 14.3216 8.64914 14.3741 8.50205 14.4724C8.35496 14.5707 8.24032 14.7104 8.17264 14.8738C8.10495 15.0373 8.08726 15.2171 8.1218 15.3906C8.15633 15.5641 8.24155 15.7235 8.36666 15.8486C8.49178 15.9736 8.65118 16.0588 8.82469 16.0933C8.99821 16.1277 9.17806 16.11 9.34148 16.0422C9.5049 15.9745 9.64457 15.8598 9.74281 15.7127C9.84105 15.5656 9.89345 15.3926 9.89339 15.2157C9.89288 14.9787 9.79847 14.7515 9.63084 14.5839C9.46321 14.4164 9.23601 14.322 8.99899 14.3216ZM8.99899 10.9584C8.56892 10.9584 8.14851 10.8309 7.79092 10.5919C7.43334 10.353 7.15464 10.0134 6.99007 9.61605C6.82551 9.21872 6.78246 8.7815 6.86639 8.3597C6.95032 7.9379 7.15744 7.55046 7.46157 7.24637C7.76569 6.94229 8.15316 6.73523 8.57498 6.65136C8.99679 6.5675 9.434 6.6106 9.83131 6.77523C10.2286 6.93985 10.5682 7.2186 10.8071 7.57622C11.046 7.93384 11.1734 8.35427 11.1734 8.78434C11.1729 9.36084 10.9436 9.91358 10.5359 10.3212C10.1283 10.7288 9.57549 10.958 8.99899 10.9584ZM8.99899 7.88994C8.82209 7.88994 8.64917 7.9424 8.50208 8.04067C8.355 8.13895 8.24036 8.27864 8.17267 8.44207C8.10497 8.6055 8.08726 8.78533 8.12177 8.95883C8.15628 9.13233 8.24147 9.29169 8.36655 9.41678C8.49163 9.54186 8.651 9.62704 8.8245 9.66155C8.99799 9.69607 9.17783 9.67835 9.34126 9.61066C9.50469 9.54296 9.64437 9.42833 9.74265 9.28124C9.84093 9.13416 9.89339 8.96124 9.89339 8.78434C9.89296 8.54726 9.7986 8.32001 9.63095 8.15237C9.46331 7.98473 9.23607 7.89036 8.99899 7.88994Z" fill="#202020"/>
<path d="M8.99889 14.3216C8.82915 14.3216 8.66636 14.2542 8.54634 14.1342C8.42631 14.0141 8.35889 13.8514 8.35889 13.6816V10.3184C8.35889 10.1487 8.42631 9.9859 8.54634 9.86587C8.66636 9.74585 8.82915 9.67842 8.99889 9.67842C9.16863 9.67842 9.33141 9.74585 9.45143 9.86587C9.57146 9.9859 9.63889 10.1487 9.63889 10.3184V13.6816C9.63889 13.8514 9.57146 14.0141 9.45143 14.1342C9.33141 14.2542 9.16863 14.3216 8.99889 14.3216ZM15.0008 10.9584C14.5707 10.9585 14.1503 10.831 13.7927 10.5921C13.435 10.3532 13.1563 10.0136 12.9917 9.61628C12.827 9.21894 12.784 8.78172 12.8679 8.35989C12.9517 7.93807 13.1588 7.5506 13.463 7.24649C13.7671 6.94237 14.1545 6.73527 14.5764 6.65138C14.9982 6.5675 15.4354 6.61058 15.8327 6.7752C16.2301 6.93981 16.5697 7.21856 16.8086 7.57619C17.0475 7.93382 17.175 8.35426 17.1749 8.78434C17.1744 9.36079 16.9452 9.91348 16.5376 10.3211C16.1299 10.7287 15.5773 10.9579 15.0008 10.9584ZM15.0008 7.88994C14.8239 7.88988 14.6509 7.94228 14.5038 8.04052C14.3567 8.13876 14.242 8.27842 14.1743 8.44185C14.1065 8.60527 14.0888 8.78512 14.1232 8.95863C14.1577 9.13215 14.2429 9.29155 14.3679 9.41666C14.493 9.54178 14.6524 9.62699 14.8259 9.66153C14.9994 9.69607 15.1792 9.67837 15.3427 9.61069C15.5061 9.543 15.6458 9.42837 15.7441 9.28128C15.8424 9.13419 15.8949 8.96125 15.8949 8.78434C15.8945 8.54732 15.8001 8.32012 15.6326 8.15248C15.465 7.98485 15.2378 7.89045 15.0008 7.88994Z" fill="#202020"/>
<path d="M8.99864 14.3217C8.87979 14.3217 8.76328 14.2886 8.66218 14.2261C8.56107 14.1636 8.47936 14.0742 8.42621 13.9679C8.37306 13.8616 8.35056 13.7426 8.36123 13.6242C8.3719 13.5058 8.41533 13.3927 8.48664 13.2977L9.23928 12.2881C9.45505 12.0005 9.73466 11.767 10.0561 11.6059C10.3775 11.4449 10.7319 11.3607 11.0914 11.3601H12.3241C12.5134 11.3605 12.6991 11.3087 12.8607 11.2102C13.0223 11.1117 13.1536 10.9704 13.2399 10.802L13.7279 9.85605C13.7659 9.78037 13.8184 9.71296 13.8826 9.65774C13.9468 9.60251 14.0213 9.56057 14.1018 9.53434C14.1823 9.50811 14.2672 9.4981 14.3515 9.50491C14.4359 9.51172 14.5181 9.5352 14.5934 9.574C14.6686 9.6128 14.7354 9.66614 14.7899 9.73094C14.8444 9.79574 14.8855 9.8707 14.9108 9.95149C14.9361 10.0323 14.9451 10.1173 14.9374 10.2016C14.9296 10.2859 14.9052 10.3678 14.8655 10.4426L14.3769 11.3898C14.1831 11.7671 13.8888 12.0835 13.5266 12.3041C13.1644 12.5247 12.7482 12.641 12.3241 12.6401H11.0914C10.9309 12.6406 10.7727 12.6784 10.6293 12.7506C10.4859 12.8228 10.3612 12.9274 10.2652 13.0561L9.51192 14.066C9.45215 14.1456 9.37462 14.2101 9.28552 14.2545C9.19642 14.2989 9.09819 14.3219 8.99864 14.3217Z" fill="#202020"/>
</svg>
