<svg width="24" height="24" viewBox="0 0 24 24" fill="none" xmlns="http://www.w3.org/2000/svg">
<path d="M17.0319 20.4557H6.96795C6.06016 20.4547 5.18984 20.0936 4.54793 19.4517C3.90603 18.8098 3.54496 17.9395 3.54395 17.0317V6.96801C3.54496 6.06022 3.90603 5.1899 4.54793 4.548C5.18984 3.90609 6.06016 3.54502 6.96795 3.54401H17.0319C17.9397 3.54502 18.8101 3.90609 19.452 4.548C20.0939 5.1899 20.4549 6.06022 20.4559 6.96801V17.032C20.4559 17.9401 20.0952 18.811 19.4531 19.4531C18.811 20.0953 17.94 20.456 17.0319 20.456V20.4557ZM6.96795 4.82433C6.39948 4.82483 5.85444 5.05088 5.45247 5.45285C5.0505 5.85482 4.82445 6.39986 4.82395 6.96833V17.0323C4.82445 17.6008 5.0505 18.1458 5.45247 18.5478C5.85444 18.9498 6.39948 19.1758 6.96795 19.1763H17.0319C17.3135 19.1763 17.5923 19.1209 17.8524 19.0131C18.1125 18.9054 18.3489 18.7475 18.548 18.5484C18.7471 18.3493 18.905 18.1129 19.0127 17.8528C19.1205 17.5927 19.1759 17.3139 19.1759 17.0323V6.96801C19.1754 6.39954 18.9494 5.8545 18.5474 5.45253C18.1455 5.05056 17.6004 4.82451 17.0319 4.82401L6.96795 4.82433Z" fill="#202020"/>
<path d="M8.99911 10.9584C8.56904 10.9584 8.14863 10.8309 7.79104 10.5919C7.43346 10.353 7.15476 10.0134 6.99019 9.61605C6.82563 9.21872 6.78259 8.7815 6.86651 8.3597C6.95044 7.9379 7.15756 7.55046 7.46169 7.24637C7.76582 6.94229 8.15329 6.73523 8.5751 6.65136C8.99691 6.5675 9.43412 6.6106 9.83144 6.77523C10.2288 6.93985 10.5683 7.2186 10.8072 7.57622C11.0461 7.93384 11.1736 8.35427 11.1735 8.78434C11.173 9.36084 10.9437 9.91358 10.5361 10.3212C10.1284 10.7288 9.57561 10.958 8.99911 10.9584ZM8.99911 7.88994C8.82221 7.88994 8.64929 7.9424 8.50221 8.04067C8.35512 8.13895 8.24049 8.27864 8.17279 8.44207C8.1051 8.6055 8.08738 8.78533 8.12189 8.95883C8.1564 9.13233 8.24159 9.29169 8.36667 9.41678C8.49176 9.54186 8.65112 9.62704 8.82462 9.66155C8.99812 9.69607 9.17795 9.67835 9.34138 9.61066C9.50481 9.54296 9.6445 9.42833 9.74277 9.28124C9.84105 9.13416 9.89351 8.96124 9.89351 8.78434C9.89309 8.54726 9.79872 8.32001 9.63108 8.15237C9.46344 7.98473 9.23619 7.89036 8.99911 7.88994ZM8.99911 17.3901C8.56912 17.3901 8.14879 17.2626 7.79124 17.0238C7.4337 16.7849 7.155 16.4454 6.99038 16.0482C6.82576 15.651 6.7826 15.2138 6.86637 14.7921C6.95014 14.3703 7.15708 13.9829 7.46101 13.6787C7.76495 13.3746 8.15224 13.1674 8.57392 13.0833C8.99561 12.9992 9.43276 13.042 9.83011 13.2064C10.2275 13.3707 10.5672 13.6491 10.8063 14.0065C11.0454 14.3639 11.1732 14.7841 11.1735 15.2141C11.1735 15.7909 10.9445 16.3442 10.5367 16.7522C10.129 17.1602 9.57594 17.3897 8.99911 17.3901ZM8.99911 14.3216C8.8222 14.3216 8.64926 14.3741 8.50217 14.4724C8.35508 14.5707 8.24045 14.7104 8.17276 14.8738C8.10507 15.0373 8.08738 15.2171 8.12192 15.3906C8.15645 15.5641 8.24167 15.7235 8.36678 15.8486C8.4919 15.9736 8.6513 16.0588 8.82482 16.0933C8.99833 16.1277 9.17818 16.11 9.3416 16.0422C9.50503 15.9745 9.64469 15.8598 9.74293 15.7127C9.84117 15.5656 9.89357 15.3926 9.89351 15.2157C9.893 14.9787 9.7986 14.7515 9.63096 14.5839C9.46333 14.4164 9.23613 14.322 8.99911 14.3216Z" fill="#202020"/>
<path d="M8.99889 14.3216C8.82915 14.3216 8.66636 14.2542 8.54634 14.1342C8.42631 14.0142 8.35889 13.8514 8.35889 13.6816V10.3184C8.35889 10.1487 8.42631 9.98591 8.54634 9.86589C8.66636 9.74586 8.82915 9.67844 8.99889 9.67844C9.16863 9.67844 9.33141 9.74586 9.45143 9.86589C9.57146 9.98591 9.63889 10.1487 9.63889 10.3184V13.6816C9.63889 13.8514 9.57146 14.0142 9.45143 14.1342C9.33141 14.2542 9.16863 14.3216 8.99889 14.3216ZM15.0008 17.3901C14.5708 17.3902 14.1504 17.2627 13.7929 17.0239C13.4353 16.7851 13.1565 16.4456 12.9918 16.0484C12.8272 15.6512 12.784 15.2141 12.8677 14.7923C12.9514 14.3705 13.1584 13.9831 13.4623 13.6789C13.7662 13.3747 14.1535 13.1674 14.5752 13.0833C14.9969 12.9992 15.434 13.042 15.8314 13.2063C16.2288 13.3707 16.5685 13.6491 16.8076 14.0065C17.0468 14.3639 17.1746 14.7841 17.1749 15.2141C17.1749 15.7909 16.9459 16.3441 16.5382 16.7521C16.1306 17.1601 15.5776 17.3896 15.0008 17.3901ZM15.0008 14.3216C14.8239 14.3216 14.6509 14.374 14.5038 14.4722C14.3567 14.5705 14.242 14.7102 14.1742 14.8736C14.1065 15.0371 14.0888 15.2169 14.1233 15.3904C14.1578 15.564 14.2429 15.7234 14.3681 15.8485C14.4932 15.9736 14.6526 16.0588 14.8261 16.0933C14.9996 16.1278 15.1795 16.11 15.3429 16.0423C15.5064 15.9746 15.646 15.8599 15.7443 15.7127C15.8425 15.5656 15.895 15.3926 15.8949 15.2157C15.8944 14.9787 15.8 14.7516 15.6325 14.5841C15.4649 14.4165 15.2378 14.3221 15.0008 14.3216Z" fill="#202020"/>
<path d="M14.2978 14.4922C14.1799 14.4922 14.0644 14.4598 13.9638 14.3983C13.8632 14.3369 13.7816 14.2489 13.7279 14.144L13.2392 13.1968C13.1527 13.0287 13.0215 12.8878 12.86 12.7895C12.6985 12.6913 12.513 12.6395 12.324 12.64H11.0914C10.7319 12.6394 10.3774 12.5552 10.056 12.3941C9.73459 12.2331 9.45498 11.9996 9.23921 11.712L8.48593 10.7021C8.38443 10.5661 8.34113 10.3953 8.36555 10.2273C8.38997 10.0593 8.48013 9.90793 8.61617 9.80643C8.75222 9.70492 8.92301 9.66162 9.09099 9.68605C9.25896 9.71047 9.41035 9.80062 9.51185 9.93667L10.2651 10.9466C10.3614 11.0748 10.4862 11.1788 10.6296 11.2506C10.773 11.3223 10.931 11.3598 11.0914 11.36H12.324C12.7484 11.3591 13.1648 11.4755 13.5271 11.6963C13.8895 11.9172 14.1838 12.2339 14.3775 12.6115L14.8661 13.5587C14.9164 13.6563 14.9408 13.7651 14.9369 13.8748C14.9331 13.9844 14.901 14.0913 14.844 14.185C14.7869 14.2787 14.7067 14.3562 14.611 14.41C14.5154 14.4638 14.4075 14.4921 14.2978 14.4922Z" fill="#202020"/>
</svg>
