<svg width="24" height="24" viewBox="0 0 24 24" fill="none" xmlns="http://www.w3.org/2000/svg">
<path d="M17.0319 20.4557H6.96795C6.06016 20.4546 5.18984 20.0936 4.54793 19.4517C3.90603 18.8098 3.54496 17.9394 3.54395 17.0317V6.96798C3.54496 6.06019 3.90603 5.18987 4.54793 4.54796C5.18984 3.90606 6.06016 3.54499 6.96795 3.54398H17.0319C17.9397 3.54499 18.8101 3.90606 19.452 4.54796C20.0939 5.18987 20.4549 6.06019 20.4559 6.96798V17.032C20.4559 17.9401 20.0952 18.811 19.4531 19.4531C18.811 20.0952 17.94 20.456 17.0319 20.456V20.4557ZM6.96795 4.8243C6.39948 4.8248 5.85444 5.05085 5.45247 5.45282C5.0505 5.85479 4.82445 6.39983 4.82395 6.9683V17.0323C4.82445 17.6008 5.0505 18.1458 5.45247 18.5478C5.85444 18.9497 6.39948 19.1758 6.96795 19.1763H17.0319C17.3135 19.1763 17.5923 19.1208 17.8524 19.0131C18.1125 18.9053 18.3489 18.7474 18.548 18.5483C18.7471 18.3492 18.905 18.1129 19.0127 17.8528C19.1205 17.5926 19.1759 17.3139 19.1759 17.0323V6.96798C19.1754 6.39951 18.9494 5.85447 18.5474 5.4525C18.1455 5.05053 17.6004 4.82448 17.0319 4.82398L6.96795 4.8243Z" fill="#202020"/>
<path d="M8.99911 10.9584C8.56904 10.9584 8.14863 10.8308 7.79104 10.5919C7.43346 10.3529 7.15476 10.0133 6.99019 9.61599C6.82563 9.21865 6.78259 8.78144 6.86651 8.35964C6.95044 7.93784 7.15756 7.5504 7.46169 7.24631C7.76582 6.94223 8.15329 6.73516 8.5751 6.6513C8.99691 6.56744 9.43412 6.61054 9.83144 6.77517C10.2288 6.93979 10.5683 7.21854 10.8072 7.57616C11.0461 7.93378 11.1736 8.35421 11.1735 8.78428C11.173 9.36078 10.9437 9.91352 10.5361 10.3211C10.1284 10.7288 9.57561 10.9579 8.99911 10.9584ZM8.99911 7.88988C8.82221 7.88988 8.64929 7.94234 8.50221 8.04061C8.35512 8.13889 8.24049 8.27858 8.17279 8.44201C8.1051 8.60544 8.08738 8.78527 8.12189 8.95877C8.1564 9.13226 8.24159 9.29163 8.36667 9.41672C8.49176 9.5418 8.65112 9.62698 8.82462 9.66149C8.99812 9.696 9.17795 9.67829 9.34138 9.6106C9.50481 9.5429 9.6445 9.42826 9.74277 9.28118C9.84105 9.1341 9.89351 8.96118 9.89351 8.78428C9.89309 8.5472 9.79872 8.31995 9.63108 8.15231C9.46344 7.98467 9.23619 7.8903 8.99911 7.88988ZM8.99911 17.39C8.56912 17.39 8.14879 17.2626 7.79124 17.0237C7.4337 16.7848 7.155 16.4453 6.99038 16.0481C6.82576 15.6509 6.7826 15.2138 6.86637 14.792C6.95014 14.3703 7.15708 13.9828 7.46101 13.6787C7.76495 13.3745 8.15224 13.1673 8.57392 13.0832C8.99561 12.9991 9.43276 13.042 9.83011 13.2063C10.2275 13.3706 10.5672 13.6491 10.8063 14.0064C11.0454 14.3638 11.1732 14.7841 11.1735 15.214C11.1735 15.7909 10.9445 16.3441 10.5367 16.7521C10.129 17.1602 9.57594 17.3896 8.99911 17.39ZM8.99911 14.3216C8.8222 14.3216 8.64926 14.374 8.50217 14.4723C8.35508 14.5706 8.24045 14.7103 8.17276 14.8738C8.10507 15.0372 8.08738 15.2171 8.12192 15.3906C8.15645 15.5641 8.24167 15.7234 8.36678 15.8485C8.4919 15.9736 8.6513 16.0587 8.82482 16.0932C8.99833 16.1277 9.17818 16.1099 9.3416 16.0422C9.50503 15.9744 9.64469 15.8598 9.74293 15.7126C9.84117 15.5655 9.89357 15.3925 9.89351 15.2156C9.893 14.9786 9.7986 14.7514 9.63096 14.5839C9.46333 14.4163 9.23613 14.322 8.99911 14.3216Z" fill="#202020"/>
<path d="M8.99913 14.3216C8.82939 14.3216 8.66661 14.2542 8.54658 14.1342C8.42656 14.0141 8.35913 13.8513 8.35913 13.6816V10.3184C8.35913 10.1487 8.42656 9.98588 8.54658 9.86586C8.66661 9.74583 8.82939 9.67841 8.99913 9.67841C9.16887 9.67841 9.33166 9.74583 9.45168 9.86586C9.5717 9.98588 9.63913 10.1487 9.63913 10.3184V13.6816C9.63913 13.8513 9.5717 14.0141 9.45168 14.1342C9.33166 14.2542 9.16887 14.3216 8.99913 14.3216ZM15.0011 17.3901C14.5711 17.3902 14.1507 17.2627 13.7931 17.0239C13.4355 16.7851 13.1568 16.4456 12.9921 16.0484C12.8274 15.6512 12.7842 15.214 12.868 14.7923C12.9517 14.3705 13.1586 13.983 13.4625 13.6788C13.7664 13.3746 14.1537 13.1674 14.5754 13.0833C14.9971 12.9992 15.4343 13.042 15.8317 13.2063C16.229 13.3706 16.5687 13.6491 16.8079 14.0065C17.047 14.3638 17.1748 14.7841 17.1751 15.2141C17.1751 15.7909 16.9461 16.344 16.5385 16.7521C16.1308 17.1601 15.5778 17.3896 15.0011 17.3901ZM15.0011 14.3216C14.8241 14.3215 14.6512 14.374 14.504 14.4722C14.3569 14.5705 14.2422 14.7101 14.1745 14.8736C14.1067 15.037 14.089 15.2169 14.1235 15.3904C14.158 15.5639 14.2432 15.7233 14.3683 15.8484C14.4934 15.9735 14.6528 16.0587 14.8263 16.0932C14.9998 16.1277 15.1797 16.11 15.3432 16.0423C15.5066 15.9745 15.6463 15.8598 15.7445 15.7127C15.8428 15.5656 15.8952 15.3926 15.8951 15.2157C15.8946 14.9787 15.8003 14.7516 15.6327 14.584C15.4651 14.4165 15.238 14.3221 15.0011 14.3216Z" fill="#202020"/>
<path d="M15.0009 14.3216C14.8311 14.3216 14.6684 14.2542 14.5483 14.1342C14.4283 14.0141 14.3609 13.8513 14.3609 13.6816V9.536C14.3608 9.53119 14.3589 9.5266 14.3555 9.5232C14.352 9.51979 14.3475 9.51784 14.3426 9.51776H12.9894C12.8196 9.51776 12.6568 9.45033 12.5368 9.33031C12.4168 9.21029 12.3494 9.0475 12.3494 8.87776C12.3494 8.70802 12.4168 8.54524 12.5368 8.42521C12.6568 8.30519 12.8196 8.23776 12.9894 8.23776H14.3426C14.6868 8.23819 15.0168 8.3751 15.2602 8.61848C15.5035 8.86185 15.6405 9.19182 15.6409 9.536V13.6816C15.6409 13.8513 15.5735 14.0141 15.4534 14.1342C15.3334 14.2542 15.1706 14.3216 15.0009 14.3216Z" fill="#202020"/>
<path d="M13.4741 10.3862C13.39 10.3864 13.3067 10.3699 13.229 10.3377C13.1513 10.3055 13.0807 10.2583 13.0213 10.1987L12.1528 9.3299C12.0393 9.21641 11.9726 9.06439 11.9659 8.90399C11.9592 8.7436 12.013 8.58655 12.1167 8.46398L12.966 7.46014C13.0203 7.39597 13.0868 7.34314 13.1616 7.30466C13.2363 7.26617 13.318 7.24279 13.4018 7.23586C13.4856 7.22892 13.5699 7.23856 13.65 7.26422C13.7301 7.28988 13.8044 7.33107 13.8685 7.38542C13.9327 7.43978 13.9855 7.50624 14.024 7.58102C14.0625 7.65579 14.0859 7.73742 14.0928 7.82123C14.0998 7.90504 14.0901 7.98939 14.0645 8.06948C14.0388 8.14957 13.9976 8.22381 13.9432 8.28798L13.4741 8.84222L13.9266 9.2947C14.0161 9.38421 14.077 9.49823 14.1017 9.62236C14.1264 9.74649 14.1137 9.87515 14.0653 9.99208C14.0169 10.109 13.9348 10.209 13.8296 10.2793C13.7244 10.3496 13.6007 10.3872 13.4741 10.3872V10.3862Z" fill="#202020"/>
</svg>
