<svg width="24" height="24" viewBox="0 0 24 24" fill="none" xmlns="http://www.w3.org/2000/svg">
<path d="M6.73313 9.68855C6.07397 9.68855 5.4296 9.49309 4.88153 9.12687C4.33345 8.76066 3.90628 8.24015 3.65403 7.63116C3.40177 7.02217 3.33577 6.35205 3.46437 5.70555C3.59297 5.05905 3.91039 4.46521 4.37649 3.99911C4.84259 3.533 5.43643 3.21559 6.08293 3.08699C6.72943 2.95839 7.39955 3.02439 8.00854 3.27665C8.61753 3.5289 9.13804 3.95607 9.50425 4.50415C9.87047 5.05222 10.0659 5.69658 10.0659 6.35575C10.0649 7.23935 9.71346 8.08647 9.08865 8.71127C8.46385 9.33608 7.61673 9.68753 6.73313 9.68855ZM6.73313 4.30295C6.32713 4.30295 5.93024 4.42335 5.59266 4.64891C5.25508 4.87447 4.99196 5.19508 4.83659 5.57018C4.68122 5.94528 4.64057 6.35803 4.71978 6.75623C4.79898 7.15444 4.99449 7.52021 5.28158 7.8073C5.56867 8.09439 5.93445 8.2899 6.33265 8.36911C6.73085 8.44832 7.1436 8.40766 7.5187 8.25229C7.8938 8.09692 8.21441 7.83381 8.43997 7.49623C8.66554 7.15864 8.78593 6.76176 8.78593 6.35575C8.78525 5.81152 8.56876 5.28978 8.18393 4.90495C7.7991 4.52012 7.27736 4.30363 6.73313 4.30295ZM6.73313 20.9769C6.07397 20.9769 5.4296 20.7814 4.88153 20.4152C4.33345 20.049 3.90628 19.5285 3.65403 18.9195C3.40177 18.3105 3.33577 17.6404 3.46437 16.9939C3.59297 16.3474 3.91039 15.7535 4.37649 15.2874C4.84259 14.8213 5.43643 14.5039 6.08293 14.3753C6.72943 14.2467 7.39955 14.3127 8.00854 14.565C8.61753 14.8172 9.13804 15.2444 9.50425 15.7925C9.87047 16.3405 10.0659 16.9849 10.0659 17.6441C10.0649 18.5277 9.71346 19.3748 9.08865 19.9996C8.46385 20.6244 7.61673 20.9759 6.73313 20.9769ZM6.73313 15.5913C6.32713 15.5913 5.93024 15.7117 5.59266 15.9372C5.25508 16.1628 4.99196 16.4834 4.83659 16.8585C4.68122 17.2336 4.64057 17.6463 4.71978 18.0446C4.79898 18.4428 4.99449 18.8085 5.28158 19.0956C5.56867 19.3827 5.93445 19.5782 6.33265 19.6574C6.73085 19.7366 7.1436 19.696 7.5187 19.5406C7.8938 19.3852 8.21441 19.1221 8.43997 18.7845C8.66554 18.447 8.78593 18.0501 8.78593 17.6441C8.78525 17.0998 8.56876 16.5781 8.18393 16.1933C7.7991 15.8084 7.27736 15.5919 6.73313 15.5913Z" fill="#202020"/>
<path d="M6.73314 15.5914C6.5634 15.5914 6.40061 15.524 6.28059 15.404C6.16057 15.284 6.09314 15.1212 6.09314 14.9514V9.04872C6.09318 8.9174 6.13362 8.78927 6.20897 8.68172C6.28432 8.57417 6.39092 8.4924 6.51433 8.4475C6.63773 8.40261 6.77196 8.39676 6.8988 8.43075C7.02565 8.46474 7.13896 8.53693 7.22338 8.63752L8.35906 9.9908C8.7861 10.5011 9.32001 10.9114 9.92305 11.1927C10.5261 11.474 11.1836 11.6194 11.849 11.6186H14.592C14.7618 11.6186 14.9245 11.6861 15.0446 11.8061C15.1646 11.9261 15.232 12.0889 15.232 12.2586C15.232 12.4284 15.1646 12.5912 15.0446 12.7112C14.9245 12.8312 14.7618 12.8986 14.592 12.8986H11.849C10.9966 12.8995 10.1544 12.7133 9.38187 12.353C8.60935 11.9927 7.92538 11.4672 7.37826 10.8135L7.37314 10.8074V14.9514C7.37314 15.1212 7.30571 15.284 7.18569 15.404C7.06566 15.524 6.90288 15.5914 6.73314 15.5914Z" fill="#202020"/>
<path d="M17.2669 15.5914C16.6077 15.5914 15.9634 15.3959 15.4153 15.0297C14.8672 14.6635 14.44 14.143 14.1878 13.534C13.9355 12.925 13.8695 12.2549 13.9981 11.6084C14.1267 10.9619 14.4441 10.368 14.9102 9.90194C15.3763 9.43584 15.9702 9.11842 16.6167 8.98982C17.2632 8.86122 17.9333 8.92723 18.5423 9.17948C19.1513 9.43173 19.6718 9.8589 20.038 10.407C20.4042 10.9551 20.5997 11.5994 20.5997 12.2586C20.5987 13.1422 20.2472 13.9893 19.6224 14.6141C18.9976 15.2389 18.1505 15.5904 17.2669 15.5914ZM17.2669 10.2058C16.8609 10.2058 16.464 10.3262 16.1264 10.5517C15.7888 10.7773 15.5257 11.0979 15.3703 11.473C15.215 11.8481 15.1743 12.2609 15.2535 12.6591C15.3327 13.0573 15.5282 13.423 15.8153 13.7101C16.1024 13.9972 16.4682 14.1927 16.8664 14.2719C17.2646 14.3511 17.6774 14.3105 18.0525 14.1551C18.4276 13.9998 18.7482 13.7366 18.9737 13.3991C19.1993 13.0615 19.3197 12.6646 19.3197 12.2586C19.3192 11.7143 19.1027 11.1925 18.7179 10.8076C18.333 10.4227 17.8112 10.2063 17.2669 10.2058Z" fill="#202020"/>
</svg>
