<svg width="24" height="24" viewBox="0 0 24 24" fill="none" xmlns="http://www.w3.org/2000/svg">
<path d="M6.73319 9.68858C6.07403 9.68858 5.42966 9.49312 4.88159 9.1269C4.33351 8.76069 3.90634 8.24018 3.65409 7.63119C3.40183 7.0222 3.33583 6.35208 3.46443 5.70558C3.59303 5.05908 3.91045 4.46524 4.37655 3.99914C4.84265 3.53304 5.4365 3.21562 6.08299 3.08702C6.72949 2.95842 7.39961 3.02442 8.0086 3.27668C8.61759 3.52893 9.1381 3.9561 9.50431 4.50418C9.87053 5.05225 10.066 5.69662 10.066 6.35578C10.065 7.23938 9.71352 8.0865 9.08872 8.7113C8.46391 9.33611 7.61679 9.68756 6.73319 9.68858ZM6.73319 4.30298C6.32719 4.30298 5.9303 4.42338 5.59272 4.64894C5.25514 4.8745 4.99202 5.19511 4.83665 5.57021C4.68128 5.94531 4.64063 6.35806 4.71984 6.75626C4.79904 7.15447 4.99455 7.52024 5.28164 7.80733C5.56873 8.09442 5.93451 8.28993 6.33271 8.36914C6.73092 8.44835 7.14366 8.40769 7.51876 8.25232C7.89387 8.09695 8.21447 7.83384 8.44003 7.49626C8.6656 7.15867 8.78599 6.76179 8.78599 6.35578C8.78532 5.81155 8.56882 5.28981 8.18399 4.90498C7.79916 4.52015 7.27742 4.30366 6.73319 4.30298ZM6.73319 20.9769C6.07403 20.9769 5.42966 20.7814 4.88159 20.4152C4.33351 20.049 3.90634 19.5285 3.65409 18.9195C3.40183 18.3105 3.33583 17.6404 3.46443 16.9939C3.59303 16.3474 3.91045 15.7536 4.37655 15.2875C4.84265 14.8214 5.4365 14.5039 6.08299 14.3753C6.72949 14.2467 7.39961 14.3127 8.0086 14.565C8.61759 14.8172 9.1381 15.2444 9.50431 15.7925C9.87053 16.3406 10.066 16.9849 10.066 17.6441C10.065 18.5277 9.71352 19.3748 9.08872 19.9996C8.46391 20.6244 7.61679 20.9759 6.73319 20.9769ZM6.73319 15.5913C6.32719 15.5913 5.9303 15.7117 5.59272 15.9373C5.25514 16.1628 4.99202 16.4834 4.83665 16.8585C4.68128 17.2336 4.64063 17.6464 4.71984 18.0446C4.79904 18.4428 4.99455 18.8086 5.28164 19.0957C5.56873 19.3827 5.93451 19.5782 6.33271 19.6575C6.73092 19.7367 7.14366 19.696 7.51876 19.5406C7.89387 19.3853 8.21447 19.1222 8.44003 18.7846C8.6656 18.447 8.78599 18.0501 8.78599 17.6441C8.78532 17.0999 8.56882 16.5781 8.18399 16.1933C7.79916 15.8085 7.27742 15.592 6.73319 15.5913Z" fill="#202020"/>
<path d="M6.73326 15.5914C6.56352 15.5914 6.40074 15.5239 6.28071 15.4039C6.16069 15.2839 6.09326 15.1211 6.09326 14.9514V9.04863C6.09326 8.87889 6.16069 8.71611 6.28071 8.59608C6.40074 8.47606 6.56352 8.40863 6.73326 8.40863C6.903 8.40863 7.06579 8.47606 7.18581 8.59608C7.30583 8.71611 7.37326 8.87889 7.37326 9.04863V14.9514C7.37326 15.1211 7.30583 15.2839 7.18581 15.4039C7.06579 15.5239 6.903 15.5914 6.73326 15.5914ZM17.267 20.977C16.6079 20.977 15.9635 20.7815 15.4154 20.4153C14.8673 20.0491 14.4402 19.5285 14.1879 18.9196C13.9357 18.3106 13.8697 17.6405 13.9983 16.994C14.1269 16.3475 14.4443 15.7536 14.9104 15.2875C15.3765 14.8214 15.9703 14.504 16.6168 14.3754C17.2633 14.2468 17.9334 14.3128 18.5424 14.565C19.1514 14.8173 19.6719 15.2445 20.0381 15.7925C20.4044 16.3406 20.5998 16.985 20.5998 17.6442C20.5988 18.5278 20.2473 19.3749 19.6225 19.9997C18.9977 20.6245 18.1506 20.9759 17.267 20.977ZM17.267 15.5914C16.861 15.5914 16.4641 15.7117 16.1265 15.9373C15.789 16.1629 15.5259 16.4835 15.3705 16.8586C15.2151 17.2337 15.1745 17.6464 15.2537 18.0446C15.3329 18.4428 15.5284 18.8086 15.8155 19.0957C16.1026 19.3828 16.4683 19.5783 16.8665 19.6575C17.2647 19.7367 17.6775 19.6961 18.0526 19.5407C18.4277 19.3853 18.7483 19.1222 18.9739 18.7846C19.1994 18.447 19.3198 18.0502 19.3198 17.6442C19.3191 17.0999 19.1026 16.5782 18.7178 16.1934C18.333 15.8085 17.8113 15.592 17.267 15.5914Z" fill="#202020"/>
<path d="M16.0321 15.8906C15.9145 15.8906 15.7992 15.8583 15.6988 15.7971C15.5984 15.7359 15.5167 15.6482 15.4629 15.5437L14.6062 13.8816C14.4141 13.507 14.1222 13.1928 13.7627 12.9737C13.4032 12.7546 12.9901 12.6391 12.5691 12.64H10.4056C9.84966 12.6387 9.30162 12.5083 8.80472 12.259C8.30781 12.0097 7.87562 11.6484 7.54223 11.2035L6.22031 9.43136C6.1188 9.29531 6.0755 9.12451 6.09992 8.95654C6.12435 8.78857 6.2145 8.63718 6.35055 8.53567C6.48659 8.43417 6.65739 8.39087 6.82536 8.41529C6.99333 8.43972 7.14472 8.52987 7.24623 8.66591L8.56815 10.4384C8.78217 10.7238 9.05954 10.9555 9.37839 11.1155C9.69724 11.2754 10.0489 11.3591 10.4056 11.36H12.5691C13.2252 11.3585 13.869 11.5384 14.4293 11.8798C14.9896 12.2213 15.4447 12.7109 15.7441 13.2947L16.6014 14.9587C16.6514 15.0563 16.6755 15.165 16.6714 15.2745C16.6673 15.384 16.6351 15.4907 16.578 15.5842C16.5208 15.6777 16.4406 15.755 16.3451 15.8087C16.2495 15.8623 16.1417 15.8905 16.0321 15.8906Z" fill="#202020"/>
</svg>
