<svg width="24" height="24" viewBox="0 0 24 24" fill="none" xmlns="http://www.w3.org/2000/svg">
<path d="M17.032 20.4556H6.96801C6.06022 20.4546 5.1899 20.0935 4.548 19.4516C3.90609 18.8097 3.54502 17.9394 3.54401 17.0316V6.96795C3.54502 6.06016 3.90609 5.18984 4.548 4.54793C5.1899 3.90603 6.06022 3.54496 6.96801 3.54395H17.032C17.9398 3.54496 18.8101 3.90603 19.452 4.54793C20.0939 5.18984 20.455 6.06016 20.456 6.96795V17.0319C20.456 17.94 20.0953 18.811 19.4531 19.4531C18.811 20.0952 17.9401 20.4559 17.032 20.4559V20.4556ZM6.96801 4.82427C6.39954 4.82477 5.8545 5.05082 5.45253 5.45279C5.05056 5.85476 4.82451 6.3998 4.82401 6.96827V17.0323C4.82451 17.6007 5.05056 18.1458 5.45253 18.5477C5.8545 18.9497 6.39954 19.1758 6.96801 19.1763H17.032C17.3136 19.1763 17.5924 19.1208 17.8525 19.0131C18.1126 18.9053 18.349 18.7474 18.548 18.5483C18.7471 18.3492 18.9051 18.1129 19.0128 17.8527C19.1206 17.5926 19.176 17.3138 19.176 17.0323V6.96795C19.1755 6.39948 18.9494 5.85444 18.5475 5.45247C18.1455 5.0505 17.6005 4.82445 17.032 4.82395L6.96801 4.82427Z" fill="#202020"/>
<path d="M8.99905 10.9584C8.56898 10.9584 8.14857 10.8309 7.79098 10.5919C7.4334 10.353 7.1547 10.0134 6.99013 9.61605C6.82557 9.21872 6.78253 8.7815 6.86645 8.3597C6.95038 7.9379 7.1575 7.55046 7.46163 7.24637C7.76575 6.94229 8.15323 6.73523 8.57504 6.65136C8.99685 6.5675 9.43406 6.6106 9.83138 6.77523C10.2287 6.93985 10.5683 7.2186 10.8072 7.57622C11.046 7.93384 11.1735 8.35427 11.1734 8.78434C11.1729 9.36084 10.9437 9.91358 10.536 10.3212C10.1283 10.7288 9.57555 10.958 8.99905 10.9584ZM8.99905 7.88994C8.82215 7.88994 8.64923 7.9424 8.50214 8.04067C8.35506 8.13895 8.24042 8.27864 8.17273 8.44207C8.10503 8.6055 8.08732 8.78533 8.12183 8.95883C8.15634 9.13233 8.24153 9.29169 8.36661 9.41678C8.49169 9.54186 8.65106 9.62704 8.82456 9.66155C8.99805 9.69607 9.17789 9.67835 9.34132 9.61066C9.50475 9.54296 9.64444 9.42833 9.74271 9.28124C9.84099 9.13416 9.89345 8.96124 9.89345 8.78434C9.89302 8.54726 9.79866 8.32001 9.63102 8.15237C9.46337 7.98473 9.23613 7.89036 8.99905 7.88994ZM8.99905 17.3901C8.56906 17.3901 8.14872 17.2626 7.79118 17.0238C7.43364 16.7849 7.15494 16.4454 6.99032 16.0482C6.82569 15.651 6.78254 15.2138 6.86631 14.7921C6.95008 14.3703 7.15701 13.9829 7.46095 13.6787C7.76488 13.3746 8.15218 13.1674 8.57386 13.0833C8.99555 12.9992 9.4327 13.042 9.83005 13.2064C10.2274 13.3707 10.5671 13.6491 10.8062 14.0065C11.0453 14.3639 11.1731 14.7841 11.1734 15.2141C11.1734 15.7909 10.9444 16.3442 10.5367 16.7522C10.1289 17.1602 9.57588 17.3897 8.99905 17.3901ZM8.99905 14.3216C8.82214 14.3216 8.6492 14.3741 8.50211 14.4724C8.35502 14.5707 8.24038 14.7104 8.1727 14.8738C8.10501 15.0373 8.08732 15.2171 8.12186 15.3906C8.15639 15.5641 8.24161 15.7235 8.36672 15.8486C8.49184 15.9736 8.65124 16.0588 8.82475 16.0933C8.99827 16.1277 9.17812 16.11 9.34154 16.0422C9.50497 15.9745 9.64463 15.8598 9.74287 15.7127C9.84111 15.5656 9.89351 15.3926 9.89345 15.2157C9.89294 14.9787 9.79854 14.7515 9.6309 14.5839C9.46327 14.4164 9.23607 14.322 8.99905 14.3216Z" fill="#202020"/>
<path d="M8.99904 14.3217C8.8293 14.3217 8.66651 14.2542 8.54649 14.1342C8.42647 14.0142 8.35904 13.8514 8.35904 13.6817V10.3185C8.35904 10.1487 8.42647 9.98594 8.54649 9.86592C8.66651 9.74589 8.8293 9.67847 8.99904 9.67847C9.16878 9.67847 9.33156 9.74589 9.45159 9.86592C9.57161 9.98594 9.63904 10.1487 9.63904 10.3185V13.6817C9.63904 13.8514 9.57161 14.0142 9.45159 14.1342C9.33156 14.2542 9.16878 14.3217 8.99904 14.3217ZM15.001 17.3901C14.571 17.3902 14.1506 17.2628 13.793 17.024C13.4354 16.7851 13.1567 16.4457 12.992 16.0484C12.8273 15.6512 12.7841 15.2141 12.8679 14.7923C12.9516 14.3706 13.1585 13.9831 13.4624 13.6789C13.7664 13.3747 14.1536 13.1675 14.5753 13.0833C14.997 12.9992 15.4342 13.0421 15.8316 13.2064C16.2289 13.3707 16.5687 13.6491 16.8078 14.0065C17.0469 14.3639 17.1747 14.7841 17.175 15.2141C17.175 15.7909 16.946 16.3441 16.5384 16.7521C16.1307 17.1602 15.5777 17.3896 15.001 17.3901ZM15.001 14.3217C14.824 14.3216 14.6511 14.374 14.5039 14.4723C14.3568 14.5705 14.2421 14.7102 14.1744 14.8736C14.1066 15.0371 14.0889 15.217 14.1234 15.3905C14.1579 15.564 14.2431 15.7234 14.3682 15.8485C14.4933 15.9736 14.6527 16.0588 14.8262 16.0933C14.9998 16.1278 15.1796 16.1101 15.3431 16.0423C15.5065 15.9746 15.6462 15.8599 15.7444 15.7128C15.8427 15.5656 15.8951 15.3927 15.895 15.2157C15.8945 14.9788 15.8002 14.7517 15.6326 14.5841C15.465 14.4165 15.2379 14.3222 15.001 14.3217Z" fill="#202020"/>
<path d="M14.2979 14.4922C14.1801 14.4923 14.0645 14.4598 13.964 14.3984C13.8634 14.337 13.7817 14.249 13.728 14.1441L13.2394 13.1969C13.1529 13.0288 13.0217 12.8878 12.8602 12.7896C12.6987 12.6913 12.5132 12.6396 12.3242 12.6401H11.0915C10.732 12.6394 10.3776 12.5552 10.0562 12.3942C9.73474 12.2332 9.45513 11.9996 9.23936 11.7121L8.48608 10.7022C8.38458 10.5661 8.34128 10.3953 8.3657 10.2274C8.39013 10.0594 8.48028 9.90799 8.61632 9.80649C8.75237 9.70498 8.92317 9.66168 9.09114 9.68611C9.25911 9.71053 9.4105 9.80068 9.512 9.93673L10.2653 10.9466C10.3616 11.0748 10.4863 11.1789 10.6297 11.2507C10.7731 11.3224 10.9312 11.3599 11.0915 11.3601H12.3242C12.7485 11.3592 13.1649 11.4756 13.5273 11.6964C13.8897 11.9173 14.1839 12.234 14.3776 12.6116L14.8662 13.5588C14.9166 13.6563 14.941 13.7652 14.9371 13.8748C14.9332 13.9845 14.9012 14.0913 14.8441 14.1851C14.7871 14.2788 14.7068 14.3563 14.6112 14.4101C14.5155 14.4639 14.4077 14.4922 14.2979 14.4922Z" fill="#202020"/>
</svg>
