<svg width="24" height="24" viewBox="0 0 24 24" fill="none" xmlns="http://www.w3.org/2000/svg">
<path d="M15.8102 19.552H7.4176C6.75215 19.5512 6.11417 19.2865 5.64366 18.816C5.17314 18.3454 4.90851 17.7074 4.90784 17.0419V11.0784C4.90864 10.7465 4.97488 10.418 5.10276 10.1117C5.23065 9.80544 5.41766 9.52738 5.65312 9.29345L9.82144 5.17216C10.2901 4.70719 10.9238 4.4468 11.584 4.448H11.5859C12.2456 4.44655 12.8791 4.70633 13.3478 5.17056L17.5549 9.31648C18.0306 9.78718 18.3 10.4274 18.304 11.0966L18.3213 17.0358C18.3221 17.3661 18.2577 17.6932 18.1319 17.9985C18.006 18.3038 17.8212 18.5813 17.5879 18.815C17.3546 19.0487 17.0775 19.2342 16.7725 19.3606C16.4675 19.4871 16.1405 19.5521 15.8102 19.552ZM10.7222 6.08L6.55296 10.2038C6.43763 10.3185 6.34603 10.4547 6.28338 10.6048C6.22073 10.7549 6.18826 10.9158 6.18784 11.0784V17.0429C6.18843 17.3688 6.3182 17.6812 6.54872 17.9116C6.77923 18.142 7.09169 18.2716 7.4176 18.272H15.8102C15.9721 18.272 16.1323 18.2401 16.2818 18.178C16.4313 18.116 16.567 18.0251 16.6813 17.9105C16.7956 17.7959 16.8861 17.6599 16.9477 17.5102C17.0093 17.3606 17.0408 17.2002 17.0403 17.0384L17.024 11.1005C17.0221 10.7725 16.8902 10.4587 16.6573 10.2278L12.4496 6.08C12.2188 5.85407 11.9086 5.72754 11.5856 5.72754C11.2626 5.72754 10.9524 5.85407 10.7216 6.08H10.7222Z" fill="#202020"/>
<path d="M13.6064 16.8115H9.62147C9.16698 16.811 8.73125 16.6302 8.40988 16.3089C8.0885 15.9875 7.90773 15.5518 7.90723 15.0973V11.112C7.90773 10.6575 8.0885 10.2218 8.40988 9.90042C8.73125 9.57904 9.16698 9.39827 9.62147 9.39777H13.6064C14.0609 9.39827 14.4967 9.57903 14.8181 9.9004C15.1396 10.2218 15.3204 10.6575 15.321 11.112V15.0973C15.3204 15.5518 15.1396 15.9875 14.8181 16.3089C14.4967 16.6303 14.0609 16.811 13.6064 16.8115ZM9.62147 10.6778C9.50633 10.6779 9.39592 10.7236 9.31451 10.805C9.23309 10.8865 9.18731 10.9969 9.18723 11.112V15.0973C9.18731 15.2124 9.23309 15.3228 9.31451 15.4042C9.39592 15.4857 9.50633 15.5314 9.62147 15.5315H13.6064C13.7216 15.5314 13.832 15.4857 13.9135 15.4043C13.995 15.3229 14.0408 15.2125 14.041 15.0973V11.112C14.0408 10.9968 13.995 10.8864 13.9135 10.805C13.832 10.7236 13.7216 10.6779 13.6064 10.6778H9.62147Z" fill="#202020"/>
<path d="M11.6141 16.8115C11.4443 16.8115 11.2815 16.7441 11.1615 16.6241C11.0415 16.5041 10.9741 16.3413 10.9741 16.1715V10.0378C10.9741 9.86803 11.0415 9.70524 11.1615 9.58522C11.2815 9.46519 11.4443 9.39777 11.6141 9.39777C11.7838 9.39777 11.9466 9.46519 12.0666 9.58522C12.1866 9.70524 12.2541 9.86803 12.2541 10.0378V16.1715C12.2541 16.3413 12.1866 16.5041 12.0666 16.6241C11.9466 16.7441 11.7838 16.8115 11.6141 16.8115Z" fill="#202020"/>
<path d="M14.681 13.7447H8.54723C8.37749 13.7447 8.2147 13.6772 8.09468 13.5572C7.97465 13.4372 7.90723 13.2744 7.90723 13.1047C7.90723 12.9349 7.97465 12.7721 8.09468 12.6521C8.2147 12.5321 8.37749 12.4647 8.54723 12.4647H14.681C14.8507 12.4647 15.0135 12.5321 15.1335 12.6521C15.2536 12.7721 15.321 12.9349 15.321 13.1047C15.321 13.2744 15.2536 13.4372 15.1335 13.5572C15.0135 13.6772 14.8507 13.7447 14.681 13.7447Z" fill="#202020"/>
</svg>
