<svg width="24" height="24" viewBox="0 0 24 24" fill="none" xmlns="http://www.w3.org/2000/svg">
<path d="M16.1962 19.552H7.80384C7.13836 19.5512 6.50036 19.2865 6.02979 18.816C5.55922 18.3454 5.29452 17.7074 5.29376 17.0419V11.0784C5.29574 10.4081 5.56381 9.7661 6.03904 9.29345L10.208 5.17216C10.6766 4.70726 11.3102 4.44689 11.9702 4.448H11.9722C12.6319 4.44655 13.2653 4.70633 13.7341 5.17056L17.9411 9.31648C18.4158 9.78771 18.6843 10.4278 18.688 11.0966L18.7053 17.0358C18.7062 17.3659 18.6419 17.6929 18.5162 17.9982C18.3905 18.3034 18.2059 18.5808 17.9728 18.8145C17.7397 19.0482 17.4628 19.2337 17.1579 19.3603C16.8531 19.4868 16.5262 19.552 16.1962 19.552ZM11.1082 6.08L6.93888 10.2038C6.82356 10.3185 6.73195 10.4547 6.6693 10.6048C6.60666 10.7549 6.57419 10.9158 6.57376 11.0784V17.0429C6.57436 17.3689 6.70417 17.6813 6.93476 17.9117C7.16534 18.1421 7.47787 18.2717 7.80384 18.272H16.1962C16.358 18.272 16.5182 18.2401 16.6677 18.178C16.8172 18.116 16.9529 18.0251 17.0672 17.9105C17.1815 17.7959 17.272 17.6599 17.3336 17.5102C17.3952 17.3606 17.4267 17.2002 17.4262 17.0384L17.408 11.1005C17.4062 10.7726 17.2744 10.4588 17.0416 10.2278L12.8355 6.08C12.6047 5.85399 12.2946 5.72741 11.9715 5.72741C11.6485 5.72741 11.3383 5.85399 11.1075 6.08H11.1082Z" fill="#202020"/>
<path d="M15.2732 15.6095C15.1894 15.6099 15.1063 15.5937 15.0287 15.5619C14.9511 15.5301 14.8805 15.4833 14.8211 15.4242L13.0291 13.6361L12.3084 14.2761C12.1896 14.3814 12.0359 14.4389 11.8771 14.4372C11.7183 14.4356 11.5658 14.3749 11.4492 14.2671L9.64219 12.5954C9.57911 12.5387 9.52794 12.4701 9.49164 12.3934C9.45534 12.3168 9.43463 12.2337 9.43073 12.1489C9.42683 12.0642 9.43981 11.9796 9.46891 11.8999C9.49801 11.8202 9.54265 11.7471 9.60025 11.6849C9.65784 11.6226 9.72723 11.5724 9.8044 11.5372C9.88156 11.502 9.96495 11.4825 10.0497 11.4798C10.1345 11.4771 10.2189 11.4913 10.2982 11.5215C10.3774 11.5518 10.4499 11.5974 10.5113 11.6559L11.8927 12.9337L12.6303 12.2796C12.7523 12.1714 12.9109 12.1138 13.0738 12.1186C13.2368 12.1233 13.3917 12.1901 13.5071 12.3052L15.7241 14.519C15.8137 14.6084 15.8747 14.7225 15.8995 14.8466C15.9242 14.9708 15.9116 15.0995 15.8632 15.2165C15.8148 15.3334 15.7328 15.4334 15.6275 15.5038C15.5223 15.5742 15.3985 15.6117 15.2719 15.6118L15.2732 15.6095Z" fill="#202020"/>
<path d="M15.439 15.7488H15.4349L13.0669 15.7337C12.8971 15.7332 12.7346 15.6653 12.6149 15.5449C12.4952 15.4245 12.4283 15.2615 12.4288 15.0918C12.4293 14.9221 12.4972 14.7595 12.6176 14.6398C12.738 14.5202 12.901 14.4532 13.0707 14.4537H13.0749L14.7664 14.4646L14.6813 12.7952C14.6728 12.6256 14.732 12.4597 14.8459 12.3338C14.9597 12.2079 15.119 12.1325 15.2885 12.124C15.458 12.1155 15.624 12.1747 15.7498 12.2886C15.8757 12.4024 15.9512 12.5616 15.9597 12.7312L16.079 15.0774C16.0834 15.1641 16.07 15.2508 16.0398 15.3322C16.0096 15.4135 15.9632 15.4879 15.9033 15.5508C15.8434 15.6137 15.7714 15.6637 15.6916 15.6978C15.6118 15.732 15.5259 15.7495 15.439 15.7494V15.7488Z" fill="#202020"/>
</svg>
