<svg width="24" height="24" viewBox="0 0 24 24" fill="none" xmlns="http://www.w3.org/2000/svg">
<path d="M16.561 19.552H8.16833C7.50288 19.5512 6.86491 19.2865 6.39439 18.816C5.92387 18.3454 5.65925 17.7074 5.65857 17.0419V11.0784C5.66054 10.4081 5.92862 9.7661 6.40385 9.29345L10.5722 5.17216C11.0409 4.70711 11.6748 4.44672 12.335 4.448H12.337C12.9967 4.44655 13.6302 4.70633 14.0989 5.17056L18.3059 9.31648C18.7809 9.78755 19.0498 10.4277 19.0538 11.0966L19.071 17.0358C19.0719 17.366 19.0077 17.6931 18.8819 17.9984C18.7561 18.3037 18.5714 18.5811 18.3382 18.8149C18.105 19.0486 17.828 19.234 17.523 19.3605C17.2181 19.487 16.8911 19.5521 16.561 19.552ZM12.337 5.728C12.0138 5.72688 11.7033 5.85339 11.473 6.08L7.30369 10.2038C7.18836 10.3185 7.09676 10.4547 7.03411 10.6048C6.97146 10.7549 6.939 10.9158 6.93857 11.0784V17.0429C6.93916 17.3688 7.06894 17.6812 7.29945 17.9116C7.52997 18.142 7.84242 18.2716 8.16833 18.272H16.561C16.7228 18.2721 16.8831 18.2403 17.0326 18.1784C17.1821 18.1165 17.3179 18.0257 17.4323 17.9112C17.5467 17.7966 17.6373 17.6607 17.699 17.5111C17.7607 17.3615 17.7923 17.2012 17.792 17.0394L17.7747 11.1005C17.7728 10.7725 17.6409 10.4587 17.408 10.2278L13.2003 6.08C12.9701 5.85363 12.6599 5.72715 12.337 5.728Z" fill="#202020"/>
<path d="M15.6381 15.6093C15.5542 15.6097 15.4711 15.5935 15.3935 15.5618C15.3159 15.53 15.2454 15.4831 15.1859 15.424L13.3939 13.6359L12.6733 14.2759C12.5545 14.3813 12.4007 14.4388 12.2418 14.4371C12.0829 14.4355 11.9304 14.3748 11.8138 14.2669L10.0067 12.5952C9.94503 12.5381 9.89518 12.4694 9.86004 12.3931C9.82489 12.3167 9.80513 12.2342 9.80187 12.1502C9.79862 12.0662 9.81194 11.9824 9.84107 11.9036C9.87021 11.8248 9.91459 11.7524 9.97168 11.6907C10.0288 11.629 10.0974 11.5792 10.1738 11.5441C10.2501 11.5089 10.3327 11.4891 10.4167 11.4859C10.5006 11.4826 10.5845 11.496 10.6633 11.5251C10.7421 11.5542 10.8145 11.5986 10.8762 11.6557L12.2576 12.9335L12.9952 12.2794C13.1171 12.1712 13.2757 12.1136 13.4387 12.1183C13.6016 12.1231 13.7566 12.1899 13.872 12.305L16.089 14.5187C16.1785 14.6082 16.2395 14.7222 16.2643 14.8464C16.2891 14.9705 16.2764 15.0992 16.228 15.2162C16.1796 15.3332 16.0976 15.4332 15.9924 15.5036C15.8871 15.5739 15.7634 15.6115 15.6368 15.6115L15.6381 15.6093Z" fill="#202020"/>
<path d="M9.88385 14.5104C9.71951 14.5106 9.56139 14.4476 9.44225 14.3344C9.3231 14.2212 9.25207 14.0665 9.24385 13.9024L9.12449 11.5562C9.12013 11.4692 9.13357 11.3823 9.16398 11.3007C9.19439 11.2191 9.24113 11.1445 9.30134 11.0816C9.36155 11.0187 9.43397 10.9688 9.51415 10.9348C9.59434 10.9009 9.68061 10.8836 9.76769 10.8842L12.1357 10.8992C12.3054 10.8997 12.468 10.9676 12.5877 11.088C12.7073 11.2084 12.7743 11.3714 12.7738 11.5411C12.7733 11.7109 12.7053 11.8735 12.585 11.9931C12.4646 12.1128 12.3016 12.1797 12.1318 12.1792H12.1277L10.4362 12.1686L10.5213 13.8378C10.5256 13.9218 10.5133 14.0059 10.485 14.0852C10.4568 14.1645 10.4132 14.2375 10.3567 14.2999C10.3002 14.3623 10.232 14.413 10.1559 14.449C10.0798 14.485 9.99737 14.5057 9.91329 14.5098C9.90593 14.5101 9.89473 14.5104 9.88385 14.5104Z" fill="#202020"/>
</svg>
