<svg width="24" height="24" viewBox="0 0 24 24" fill="none" xmlns="http://www.w3.org/2000/svg">
<path d="M18.4399 19.1443H7.0329C6.29369 19.1446 5.57351 18.91 4.97629 18.4744C4.37906 18.0388 3.93567 17.4247 3.71008 16.7207C3.4845 16.0168 3.4884 15.2594 3.72121 14.5578C3.95402 13.8562 4.4037 13.2467 5.00538 12.8173L9.2201 9.80672C9.6878 9.47252 10.2598 9.31709 10.8323 9.36864C11.4049 9.4202 11.9399 9.67531 12.3404 10.0877L13.1724 10.945L17.1404 7.60608C17.4342 7.35908 17.7925 7.20109 18.173 7.15069C18.5535 7.10029 18.9405 7.15957 19.2885 7.32157C19.6365 7.48356 19.931 7.74154 20.1374 8.06517C20.3438 8.3888 20.4536 8.76463 20.4537 9.14848V17.129C20.453 17.663 20.2407 18.175 19.8632 18.5527C19.4858 18.9305 18.974 19.1432 18.4399 19.1443ZM10.6179 10.6371C10.3832 10.6374 10.1546 10.7113 9.9641 10.8483L5.74938 13.8589C5.36839 14.1307 5.08362 14.5165 4.93618 14.9607C4.78874 15.4049 4.78625 15.8844 4.92906 16.3301C5.07188 16.7758 5.35262 17.1646 5.73076 17.4403C6.1089 17.7161 6.56489 17.8646 7.0329 17.8643H18.4399C18.6351 17.8643 18.8223 17.7868 18.9604 17.6488C19.0984 17.5107 19.1759 17.3235 19.1759 17.1283V9.14848C19.1758 9.00842 19.1357 8.87132 19.0603 8.75326C18.985 8.6352 18.8775 8.5411 18.7505 8.48199C18.6235 8.42289 18.4823 8.40124 18.3435 8.4196C18.2046 8.43795 18.0739 8.49554 17.9667 8.5856L13.5414 12.3082C13.4176 12.4119 13.2593 12.465 13.0981 12.4568C12.9368 12.4487 12.7846 12.3799 12.6719 12.2643L11.4239 10.9795C11.3195 10.8712 11.1942 10.7851 11.0558 10.7263C10.9173 10.6674 10.7683 10.6371 10.6179 10.6371Z" fill="#202020"/>
<path d="M12.9968 9.36384C12.62 9.36384 12.2517 9.25211 11.9384 9.04279C11.6251 8.83347 11.381 8.53596 11.2368 8.18787C11.0926 7.83979 11.0549 7.45676 11.1284 7.08724C11.2019 6.71771 11.3833 6.37828 11.6497 6.11187C11.9162 5.84545 12.2556 5.66402 12.6251 5.59052C12.9946 5.51702 13.3777 5.55474 13.7258 5.69892C14.0738 5.84311 14.3714 6.08727 14.5807 6.40054C14.79 6.71381 14.9017 7.08211 14.9017 7.45888C14.9011 7.96392 14.7002 8.44811 14.3431 8.80523C13.986 9.16235 13.5018 9.36325 12.9968 9.36384ZM12.9968 6.83392C12.8732 6.83392 12.7523 6.87057 12.6495 6.93924C12.5468 7.00791 12.4667 7.10552 12.4194 7.21972C12.3721 7.33391 12.3597 7.45957 12.3838 7.5808C12.4079 7.70203 12.4674 7.81339 12.5548 7.90079C12.6422 7.98819 12.7536 8.04772 12.8748 8.07183C12.9961 8.09594 13.1217 8.08357 13.2359 8.03627C13.3501 7.98896 13.4477 7.90886 13.5164 7.80609C13.5851 7.70331 13.6217 7.58248 13.6217 7.45888C13.6215 7.29318 13.5556 7.13432 13.4385 7.01715C13.3213 6.89999 13.1625 6.83409 12.9968 6.83392Z" fill="#202020"/>
</svg>
