<svg width="24" height="24" viewBox="0 0 24 24" fill="none" xmlns="http://www.w3.org/2000/svg">
<path d="M12 20.6807C9.99178 20.6806 8.04571 19.9842 6.49338 18.7101C4.94104 17.4361 3.87849 15.6632 3.48676 13.6935C3.09503 11.7239 3.39837 9.67934 4.34508 7.90827C5.2918 6.1372 6.82331 4.74917 8.67869 3.98069C10.5341 3.21222 12.5985 3.11083 14.5202 3.69382C16.442 4.27681 18.1021 5.50809 19.2178 7.17788C20.3335 8.84767 20.8357 10.8526 20.6389 12.8512C20.442 14.8498 19.5583 16.7182 18.1382 18.1383C17.334 18.9468 16.3774 19.5878 15.3238 20.0242C14.2701 20.4606 13.1404 20.6837 12 20.6807ZM12 4.59937C7.91937 4.59937 4.59937 7.91937 4.59937 12C4.59937 16.0806 7.91937 19.4007 12 19.4007C16.0806 19.4007 19.4006 16.0806 19.4006 12C19.4006 7.91937 16.0806 4.59937 12 4.59937Z" fill="#202020"/>
<path d="M12 14.4422C11.8302 14.4422 11.6675 14.3748 11.5474 14.2548C11.4274 14.1348 11.36 13.972 11.36 13.8022V8.12032C11.36 7.95058 11.4274 7.78779 11.5474 7.66777C11.6675 7.54774 11.8302 7.48032 12 7.48032C12.1697 7.48032 12.3325 7.54774 12.4525 7.66777C12.5726 7.78779 12.64 7.95058 12.64 8.12032V13.8022C12.64 13.972 12.5726 14.1348 12.4525 14.2548C12.3325 14.3748 12.1697 14.4422 12 14.4422ZM12 17.2208C11.8302 17.2208 11.6675 17.1534 11.5474 17.0333C11.4274 16.9133 11.36 16.7505 11.36 16.5808V15.5981C11.36 15.4283 11.4274 15.2656 11.5474 15.1455C11.6675 15.0255 11.8302 14.9581 12 14.9581C12.1697 14.9581 12.3325 15.0255 12.4525 15.1455C12.5726 15.2656 12.64 15.4283 12.64 15.5981V16.5808C12.64 16.7505 12.5726 16.9133 12.4525 17.0333C12.3325 17.1534 12.1697 17.2208 12 17.2208Z" fill="#202020"/>
</svg>
