<svg width="24" height="24" viewBox="0 0 24 24" fill="none" xmlns="http://www.w3.org/2000/svg">
<path d="M17.0319 20.4557H6.96795C6.06016 20.4547 5.18984 20.0936 4.54793 19.4517C3.90603 18.8098 3.54496 17.9395 3.54395 17.0317V6.96801C3.54496 6.06022 3.90603 5.1899 4.54793 4.548C5.18984 3.90609 6.06016 3.54502 6.96795 3.54401H17.0319C17.9397 3.54502 18.8101 3.90609 19.452 4.548C20.0939 5.1899 20.4549 6.06022 20.4559 6.96801V17.032C20.4548 17.9397 20.0937 18.81 19.4518 19.4518C18.8099 20.0936 17.9397 20.4547 17.0319 20.4557ZM6.96795 4.82433C6.39948 4.82483 5.85444 5.05088 5.45247 5.45285C5.0505 5.85482 4.82445 6.39986 4.82395 6.96833V17.0323C4.82445 17.6008 5.0505 18.1458 5.45247 18.5478C5.85444 18.9498 6.39948 19.1758 6.96795 19.1763H17.0319C17.6004 19.1758 18.1455 18.9498 18.5474 18.5478C18.9494 18.1458 19.1754 17.6008 19.1759 17.0323V6.96801C19.1754 6.39954 18.9494 5.8545 18.5474 5.45253C18.1455 5.05056 17.6004 4.82451 17.0319 4.82401L6.96795 4.82433Z" fill="#202020"/>
<path d="M12 15.3328C11.3409 15.3328 10.6965 15.1373 10.1484 14.7711C9.60036 14.4049 9.17318 13.8844 8.92093 13.2754C8.66868 12.6664 8.60268 11.9963 8.73128 11.3498C8.85987 10.7033 9.17729 10.1095 9.64339 9.64336C10.1095 9.17726 10.7033 8.85984 11.3498 8.73124C11.9963 8.60264 12.6665 8.66865 13.2754 8.9209C13.8844 9.17315 14.4049 9.60032 14.7712 10.1484C15.1374 10.6965 15.3328 11.3408 15.3328 12C15.3318 12.8836 14.9804 13.7307 14.3556 14.3555C13.7308 14.9803 12.8836 15.3318 12 15.3328ZM12 9.9472C11.594 9.9472 11.1971 10.0676 10.8596 10.2932C10.522 10.5187 10.2589 10.8393 10.1035 11.2144C9.94813 11.5895 9.90747 12.0023 9.98668 12.4005C10.0659 12.7987 10.2614 13.1645 10.5485 13.4516C10.8356 13.7386 11.2014 13.9342 11.5996 14.0134C11.9978 14.0926 12.4105 14.0519 12.7856 13.8965C13.1607 13.7412 13.4813 13.4781 13.7069 13.1405C13.9324 12.8029 14.0528 12.406 14.0528 12C14.0522 11.4558 13.8357 10.934 13.4508 10.5492C13.066 10.1644 12.5443 9.94788 12 9.9472ZM16.2512 8.01216H16.0932C15.9234 8.01216 15.7606 7.94473 15.6406 7.82471C15.5206 7.70469 15.4532 7.5419 15.4532 7.37216C15.4532 7.20242 15.5206 7.03964 15.6406 6.91961C15.7606 6.79959 15.9234 6.73216 16.0932 6.73216H16.2512C16.421 6.73216 16.5838 6.79959 16.7038 6.91961C16.8238 7.03964 16.8912 7.20242 16.8912 7.37216C16.8912 7.5419 16.8238 7.70469 16.7038 7.82471C16.5838 7.94473 16.421 8.01216 16.2512 8.01216Z" fill="#202020"/>
</svg>
