<svg width="24" height="24" viewBox="0 0 24 24" fill="none" xmlns="http://www.w3.org/2000/svg">
<path d="M16.4131 14.3958H7.5869C7.41716 14.3958 7.25437 14.3284 7.13435 14.2084C7.01433 14.0884 6.9469 13.9256 6.9469 13.7558C6.9469 13.5861 7.01433 13.4233 7.13435 13.3033C7.25437 13.1833 7.41716 13.1158 7.5869 13.1158H16.4131C16.5829 13.1158 16.7457 13.1833 16.8657 13.3033C16.9857 13.4233 17.0531 13.5861 17.0531 13.7558C17.0531 13.9256 16.9857 14.0884 16.8657 14.2084C16.7457 14.3284 16.5829 14.3958 16.4131 14.3958ZM16.4131 11.3011H13.6723C13.5026 11.3011 13.3398 11.2337 13.2198 11.1137C13.0998 10.9936 13.0323 10.8309 13.0323 10.6611C13.0323 10.4914 13.0998 10.3286 13.2198 10.2086C13.3398 10.0885 13.5026 10.0211 13.6723 10.0211H16.4131C16.5829 10.0211 16.7457 10.0885 16.8657 10.2086C16.9857 10.3286 17.0531 10.4914 17.0531 10.6611C17.0531 10.8309 16.9857 10.9936 16.8657 11.1137C16.7457 11.2337 16.5829 11.3011 16.4131 11.3011ZM11.4099 11.3011H10.6061C10.4364 11.3011 10.2736 11.2337 10.1536 11.1137C10.0335 10.9936 9.9661 10.8309 9.9661 10.6611C9.9661 10.4914 10.0335 10.3286 10.1536 10.2086C10.2736 10.0885 10.4364 10.0211 10.6061 10.0211H11.4099C11.5797 10.0211 11.7425 10.0885 11.8625 10.2086C11.9825 10.3286 12.0499 10.4914 12.0499 10.6611C12.0499 10.8309 11.9825 10.9936 11.8625 11.1137C11.7425 11.2337 11.5797 11.3011 11.4099 11.3011ZM8.4621 11.3011H7.5869C7.41716 11.3011 7.25437 11.2337 7.13435 11.1137C7.01433 10.9936 6.9469 10.8309 6.9469 10.6611C6.9469 10.4914 7.01433 10.3286 7.13435 10.2086C7.25437 10.0885 7.41716 10.0211 7.5869 10.0211H8.4621C8.63184 10.0211 8.79462 10.0885 8.91465 10.2086C9.03467 10.3286 9.1021 10.4914 9.1021 10.6611C9.1021 10.8309 9.03467 10.9936 8.91465 11.1137C8.79462 11.2337 8.63184 11.3011 8.4621 11.3011Z" fill="#202020"/>
<path d="M17.319 18.9261H6.68092C5.84954 18.925 5.05253 18.5942 4.46465 18.0063C3.87678 17.4185 3.54602 16.6214 3.54492 15.7901V8.21022C3.54602 7.37884 3.87678 6.58182 4.46465 5.99395C5.05253 5.40607 5.84954 5.07532 6.68092 5.07422H17.319C18.1504 5.07532 18.9474 5.40607 19.5353 5.99395C20.1231 6.58182 20.4539 7.37884 20.455 8.21022V15.7897C20.454 16.6212 20.1233 17.4183 19.5354 18.0062C18.9475 18.5942 18.1504 18.925 17.319 18.9261ZM6.68092 6.3539C6.18889 6.35458 5.7172 6.55034 5.36928 6.89826C5.02136 7.24618 4.8256 7.71786 4.82492 8.2099V15.7897C4.8256 16.2818 5.02136 16.7535 5.36928 17.1014C5.7172 17.4493 6.18889 17.6451 6.68092 17.6457H17.319C17.811 17.6451 18.2827 17.4493 18.6306 17.1014C18.9786 16.7535 19.1743 16.2818 19.175 15.7897V8.21022C19.1743 7.71818 18.9786 7.2465 18.6306 6.89858C18.2827 6.55066 17.811 6.3549 17.319 6.35422L6.68092 6.3539Z" fill="#202020"/>
</svg>
