<svg width="24" height="24" viewBox="0 0 24 24" fill="none" xmlns="http://www.w3.org/2000/svg">
<path d="M16.6371 13.9229H7.27676C6.98163 13.9243 6.69008 13.8583 6.42434 13.7299C6.15859 13.6015 5.92567 13.4141 5.74332 13.1821C5.23548 12.552 5.0566 11.6035 5.26332 10.6448L6.33596 5.71903C6.57884 4.59903 7.57148 3.75583 8.64476 3.75583H15.2704C16.3436 3.75583 17.3363 4.59967 17.5795 5.71903L18.6492 10.6448C18.8576 11.6048 18.6787 12.552 18.1692 13.1821C17.987 13.414 17.7543 13.6012 17.4888 13.7296C17.2233 13.858 16.932 13.9241 16.6371 13.9229ZM8.64348 5.03583C8.18236 5.03583 7.69788 5.47295 7.58524 5.99071L6.51548 10.9165C6.39068 11.4925 6.47644 12.0521 6.73948 12.3789C6.88284 12.5565 7.05948 12.6429 7.27644 12.6429H16.6371C16.8553 12.6429 17.0307 12.5565 17.174 12.3789C17.4374 12.0521 17.5235 11.4918 17.398 10.9165L16.3286 5.99071C16.2163 5.47295 15.7315 5.03583 15.2704 5.03583H8.64348Z" fill="#202020"/>
<path d="M11.9571 21.1171C11.7874 21.1171 11.6246 21.0497 11.5046 20.9297C11.3846 20.8096 11.3171 20.6469 11.3171 20.4771V13.2829C11.3171 13.1131 11.3846 12.9504 11.5046 12.8303C11.6246 12.7103 11.7874 12.6429 11.9571 12.6429C12.1269 12.6429 12.2897 12.7103 12.4097 12.8303C12.5297 12.9504 12.5971 13.1131 12.5971 13.2829V20.4771C12.5971 20.6469 12.5297 20.8096 12.4097 20.9297C12.2897 21.0497 12.1269 21.1171 11.9571 21.1171Z" fill="#202020"/>
<path d="M14.4191 21.1171H9.49498C9.32524 21.1171 9.16245 21.0497 9.04243 20.9296C8.92241 20.8096 8.85498 20.6468 8.85498 20.4771C8.85498 20.3074 8.92241 20.1446 9.04243 20.0246C9.16245 19.9045 9.32524 19.8371 9.49498 19.8371H14.4191C14.5889 19.8371 14.7517 19.9045 14.8717 20.0246C14.9917 20.1446 15.0591 20.3074 15.0591 20.4771C15.0591 20.6468 14.9917 20.8096 14.8717 20.9296C14.7517 21.0497 14.5889 21.1171 14.4191 21.1171Z" fill="#202020"/>
</svg>
