<svg width="24" height="24" viewBox="0 0 24 24" fill="none" xmlns="http://www.w3.org/2000/svg">
<path d="M14.5667 19.3987H9.43322C9.34885 19.3987 9.26531 19.3821 9.18741 19.3497C9.10952 19.3173 9.03879 19.2698 8.97931 19.2099C8.91983 19.1501 8.87277 19.0791 8.84083 19.001C8.8089 18.9229 8.79272 18.8393 8.79322 18.7549L8.81178 15.6067C7.86056 15.0504 7.07163 14.2546 6.52351 13.2986C5.97539 12.3426 5.6872 11.2598 5.68762 10.1578C5.68762 6.67714 8.5193 3.84546 11.9999 3.84546C15.4806 3.84546 18.3123 6.67714 18.3123 10.1578C18.3127 11.2598 18.0245 12.3426 17.4764 13.2986C16.9283 14.2546 16.1393 15.0504 15.1881 15.6067L15.2067 18.7549C15.2072 18.8393 15.191 18.9229 15.1591 19.001C15.1271 19.0791 15.0801 19.1501 15.0206 19.2099C14.9611 19.2698 14.8904 19.3173 14.8125 19.3497C14.7346 19.3821 14.651 19.3987 14.5667 19.3987ZM10.0771 18.1187H13.9228L13.9059 15.232C13.905 15.1127 13.9375 14.9956 13.9997 14.8938C14.0619 14.7921 14.1513 14.7097 14.2579 14.656C15.0935 14.2391 15.796 13.597 16.2862 12.8022C16.7763 12.0073 17.0346 11.0913 17.0319 10.1575C17.0319 7.38274 14.7747 5.12514 11.9996 5.12514C9.22458 5.12514 6.96762 7.38306 6.96762 10.1578C6.965 11.0916 7.22333 12.0075 7.71349 12.8023C8.20364 13.5971 8.90612 14.2392 9.7417 14.656C9.84822 14.7097 9.93762 14.7921 9.99982 14.8938C10.062 14.9956 10.0945 15.1127 10.0937 15.232L10.0771 18.1187ZM14.7663 21.2691H8.98554C8.8158 21.2691 8.65302 21.2017 8.53299 21.0817C8.41297 20.9617 8.34554 20.7989 8.34554 20.6291C8.34554 20.4594 8.41297 20.2966 8.53299 20.1766C8.65302 20.0566 8.8158 19.9891 8.98554 19.9891H14.7663C14.9361 19.9891 15.0989 20.0566 15.2189 20.1766C15.3389 20.2966 15.4063 20.4594 15.4063 20.6291C15.4063 20.7989 15.3389 20.9617 15.2189 21.0817C15.0989 21.2017 14.9361 21.2691 14.7663 21.2691Z" fill="#202020"/>
</svg>
