<svg width="24" height="24" viewBox="0 0 24 24" fill="none" xmlns="http://www.w3.org/2000/svg">
<path d="M15.6779 19.399H10.5444C10.4601 19.399 10.3765 19.3823 10.2986 19.3499C10.2207 19.3175 10.15 19.27 10.0905 19.2102C10.031 19.1503 9.98398 19.0793 9.95204 19.0012C9.9201 18.9231 9.90392 18.8395 9.90443 18.7551L9.92331 15.607C8.97209 15.0506 8.18315 14.2548 7.63498 13.2988C7.08682 12.3429 6.79854 11.26 6.79883 10.158C6.79883 6.67738 9.63051 3.8457 13.1111 3.8457C16.5918 3.8457 19.4244 6.67738 19.4244 10.158C19.4247 11.26 19.1364 12.3429 18.5883 13.2988C18.0401 14.2548 17.2512 15.0506 16.2999 15.607L16.3185 18.7551C16.319 18.8395 16.3028 18.9231 16.2709 19.0012C16.239 19.0793 16.1919 19.1503 16.1324 19.2102C16.0729 19.27 16.0022 19.3175 15.9243 19.3499C15.8464 19.3823 15.7629 19.399 15.6785 19.399H15.6779ZM11.1883 18.119H15.034L15.0171 15.2323C15.0162 15.113 15.0488 14.9959 15.111 14.8941C15.1732 14.7923 15.2626 14.7099 15.3691 14.6563C16.2049 14.2396 16.9077 13.5977 17.3981 12.8028C17.8885 12.008 18.147 11.092 18.1444 10.158C18.1444 7.3833 15.8868 5.1257 13.1118 5.1257C10.3367 5.1257 8.07883 7.3833 8.07883 10.158C8.07619 11.0919 8.33456 12.0078 8.82478 12.8026C9.315 13.5975 10.0176 14.2395 10.8532 14.6563C10.9597 14.7099 11.0491 14.7923 11.1113 14.8941C11.1735 14.9959 11.2061 15.113 11.2052 15.2323L11.1883 18.119ZM15.8775 21.2694H10.0967C9.92701 21.2694 9.76422 21.202 9.6442 21.0819C9.52418 20.9619 9.45675 20.7991 9.45675 20.6294C9.45675 20.4596 9.52418 20.2969 9.6442 20.1768C9.76422 20.0568 9.92701 19.9894 10.0967 19.9894H15.8775C16.0473 19.9894 16.2101 20.0568 16.3301 20.1768C16.4501 20.2969 16.5175 20.4596 16.5175 20.6294C16.5175 20.7991 16.4501 20.9619 16.3301 21.0819C16.2101 21.202 16.0473 21.2694 15.8775 21.2694Z" fill="#202020"/>
<path d="M6.08299 21.3617C5.96297 21.3617 5.84538 21.3278 5.74366 21.2641C5.64194 21.2004 5.56018 21.1094 5.50772 21.0014C5.45527 20.8935 5.43422 20.773 5.44699 20.6536C5.45977 20.5343 5.50584 20.4209 5.57995 20.3265L19.0939 3.10124C19.199 2.96869 19.3523 2.88315 19.5203 2.86331C19.6883 2.84347 19.8573 2.89094 19.9904 2.99536C20.1235 3.09978 20.2098 3.25264 20.2305 3.42053C20.2512 3.58843 20.2046 3.75769 20.1009 3.89132L6.58699 21.1166C6.52708 21.193 6.45057 21.2548 6.36325 21.2973C6.27593 21.3397 6.18009 21.3618 6.08299 21.3617Z" fill="#202020"/>
</svg>
