<svg width="24" height="24" viewBox="0 0 24 24" fill="none" xmlns="http://www.w3.org/2000/svg">
<path d="M8.67456 19.584H6.19392C5.67139 19.5833 5.17049 19.3753 4.80116 19.0057C4.43183 18.6361 4.22425 18.135 4.224 17.6125V10.4922C4.22451 9.96975 4.43224 9.46888 4.80161 9.09945C5.17098 8.73001 5.67183 8.5222 6.19424 8.52161H8.67488C8.84462 8.52161 9.0074 8.58904 9.12743 8.70906C9.24745 8.82908 9.31488 8.99187 9.31488 9.16161V18.944C9.31488 19.0281 9.29831 19.1113 9.26613 19.189C9.23395 19.2667 9.18678 19.3372 9.12731 19.3967C9.06785 19.4561 8.99726 19.5032 8.91957 19.5354C8.84189 19.5675 8.75863 19.584 8.67456 19.584ZM6.19392 9.80161C6.01093 9.80195 5.83555 9.87483 5.70622 10.0043C5.57689 10.1337 5.50417 10.3092 5.504 10.4922V17.6125C5.50391 17.7956 5.57652 17.9713 5.70588 18.101C5.83524 18.2306 6.01077 18.3037 6.19392 18.304H8.03456V9.80161H6.19392Z" fill="#202020"/>
<path d="M15.2409 19.584H8.67455C8.50481 19.584 8.34202 19.5166 8.222 19.3965C8.10197 19.2765 8.03455 19.1137 8.03455 18.944V9.1616C8.03461 9.00315 8.09344 8.85036 8.19967 8.7328L11.6758 4.88384C11.9208 4.61016 12.2631 4.44307 12.6295 4.4182C12.996 4.39333 13.3577 4.51265 13.6374 4.75072C14.1715 5.20101 14.5371 5.81908 14.6745 6.50399C14.8119 7.1889 14.713 7.90016 14.3939 8.5216H17.336C17.6821 8.52158 18.0242 8.59519 18.3397 8.73755C18.6552 8.8799 18.9368 9.08774 19.1657 9.34726C19.3947 9.60679 19.5659 9.91205 19.6678 10.2428C19.7698 10.5735 19.8002 10.9222 19.7571 11.2656L19.1459 16.1373C19.0254 17.0884 18.5624 17.9629 17.8437 18.5973C17.1249 19.2317 16.1996 19.5825 15.2409 19.584ZM9.31455 18.304H15.2409C15.8877 18.303 16.5119 18.0664 16.9969 17.6386C17.4818 17.2107 17.7943 16.6208 17.8758 15.9792L18.487 11.1075C18.5076 10.9442 18.4931 10.7783 18.4446 10.621C18.396 10.4637 18.3146 10.3185 18.2056 10.1951C18.0966 10.0717 17.9626 9.97287 17.8125 9.90525C17.6624 9.83763 17.4997 9.80273 17.335 9.80288H13.1622C13.043 9.8029 12.9261 9.7696 12.8248 9.70675C12.7235 9.6439 12.6417 9.55399 12.5887 9.44716C12.5358 9.34033 12.5137 9.22083 12.525 9.10213C12.5363 8.98343 12.5806 8.87025 12.6528 8.77536L13.0848 8.20736C13.3665 7.83818 13.4954 7.37474 13.4446 6.91312C13.3938 6.45151 13.1674 6.02713 12.8121 5.728C12.7855 5.70542 12.7511 5.69412 12.7163 5.69651C12.6814 5.6989 12.6489 5.71479 12.6256 5.7408L9.31455 9.408V18.304Z" fill="#202020"/>
</svg>
