<svg width="24" height="24" viewBox="0 0 24 24" fill="none" xmlns="http://www.w3.org/2000/svg">
<path d="M11.8115 20.6822H11.7958C11.7095 20.68 11.6246 20.6604 11.5461 20.6247C11.4676 20.5889 11.3971 20.5376 11.3388 20.4739L9.08603 18.008H6.96795C5.07995 18.008 3.54395 16.6496 3.54395 14.9798V6.3456C3.54395 4.67616 5.07995 3.31776 6.96795 3.31776H17.0319C18.9199 3.31776 20.4559 4.67616 20.4559 6.3456V14.9798C20.4559 16.6496 18.9199 18.008 17.0319 18.008H14.7699L12.2623 20.4966C12.1424 20.6156 11.9804 20.6823 11.8115 20.6822ZM6.96795 4.59776C5.78587 4.59776 4.82395 5.38176 4.82395 6.3456V14.9798C4.82395 15.9437 5.78555 16.728 6.96795 16.728H9.36795C9.45682 16.728 9.54472 16.7466 9.62604 16.7824C9.70736 16.8183 9.78032 16.8707 9.84027 16.9363L11.8339 19.1181L14.055 16.9136C14.1749 16.7947 14.337 16.728 14.5059 16.728H17.0316C18.2137 16.728 19.1756 15.9437 19.1756 14.9798V6.3456C19.1756 5.38176 18.2156 4.59776 17.0316 4.59776H6.96795Z" fill="#202020"/>
<path d="M12.0287 14.7098C11.8593 14.7097 11.6968 14.6425 11.5769 14.5229L8.88122 11.8349C8.45416 11.4089 8.20721 10.835 8.19147 10.232C8.17574 9.62895 8.39242 9.04297 8.79668 8.59525C9.20094 8.14754 9.76184 7.87237 10.3633 7.82667C10.9648 7.78098 11.5608 7.96826 12.0281 8.34977C12.4803 8.00335 13.0429 7.83288 13.6113 7.87001C14.1798 7.90715 14.7154 8.14938 15.1187 8.55169C15.5594 8.99236 15.8073 9.58987 15.8081 10.2131C15.8088 10.8364 15.5622 11.4345 15.1225 11.8762L12.4819 14.5216C12.3621 14.6418 12.1994 14.7095 12.0297 14.7098H12.0287ZM10.5414 9.09825C10.3295 9.09833 10.1224 9.16126 9.94629 9.27908C9.77018 9.39689 9.63297 9.56429 9.55202 9.7601C9.47108 9.95591 9.45002 10.1713 9.49153 10.3791C9.53305 10.5869 9.63525 10.7777 9.78522 10.9274L12.0278 13.1645L14.2166 10.9706C14.4168 10.7693 14.5291 10.4969 14.5287 10.213C14.5283 9.92918 14.4154 9.65704 14.2147 9.45633C14.1152 9.35697 13.997 9.27819 13.8671 9.22449C13.7371 9.17079 13.5978 9.14323 13.4572 9.14338C13.3166 9.14353 13.1774 9.17138 13.0475 9.22536C12.9177 9.27933 12.7997 9.35835 12.7004 9.45793L12.4764 9.68193C12.417 9.74142 12.3465 9.78863 12.2689 9.82086C12.1912 9.85309 12.108 9.86971 12.0239 9.86977C11.8544 9.86981 11.6918 9.8026 11.5718 9.68289L11.2985 9.41025C11.1992 9.31075 11.0812 9.23195 10.9512 9.17839C10.8212 9.12484 10.6819 9.0976 10.5414 9.09825Z" fill="#202020"/>
</svg>
