<svg width="24" height="24" viewBox="0 0 24 24" fill="none" xmlns="http://www.w3.org/2000/svg">
<path d="M10.5533 15.7824H9.22816C8.87011 15.782 8.52685 15.6396 8.27364 15.3864C8.02043 15.1333 7.87795 14.79 7.87744 14.432V10.6275C7.87786 10.2694 8.02031 9.9261 8.27353 9.67288C8.52674 9.41966 8.87006 9.27722 9.22816 9.27679H10.5533C10.723 9.27679 10.8858 9.34422 11.0058 9.46425C11.1259 9.58427 11.1933 9.74706 11.1933 9.91679V15.1424C11.1933 15.3121 11.1259 15.4749 11.0058 15.5949C10.8858 15.715 10.723 15.7824 10.5533 15.7824ZM9.22816 10.5568C9.20943 10.5569 9.19149 10.5644 9.17825 10.5776C9.165 10.5908 9.15753 10.6088 9.15744 10.6275V14.432C9.15753 14.4507 9.165 14.4687 9.17825 14.4819C9.19149 14.4952 9.20943 14.5026 9.22816 14.5027H9.91328V10.5568H9.22816Z" fill="#202020"/>
<path d="M14.0615 15.7824H10.5533C10.3836 15.7824 10.2208 15.715 10.1008 15.595C9.98076 15.4749 9.91333 15.3121 9.91333 15.1424V9.9168C9.91383 9.75815 9.97325 9.60533 10.08 9.488L11.936 7.43168C12.1187 7.2279 12.3737 7.10351 12.6467 7.08504C12.9197 7.06657 13.1891 7.15547 13.3975 7.3328C13.6738 7.56569 13.8799 7.87086 13.9926 8.21419C14.1054 8.55752 14.1203 8.92545 14.0359 9.2768H15.1808C15.408 9.27685 15.6326 9.32522 15.8396 9.41869C16.0467 9.51216 16.2315 9.6486 16.3818 9.81895C16.5321 9.9893 16.6444 10.1897 16.7113 10.4068C16.7782 10.6238 16.7982 10.8527 16.77 11.0781L16.4432 13.6806C16.3696 14.2607 16.0872 14.794 15.6488 15.1808C15.2105 15.5677 14.6462 15.7815 14.0615 15.7824ZM11.1933 14.5024H14.0615C14.3344 14.502 14.5978 14.4022 14.8024 14.2216C15.0071 14.041 15.1389 13.792 15.1732 13.5213L15.4999 10.9187C15.5056 10.8734 15.5015 10.8273 15.488 10.7837C15.4745 10.74 15.4519 10.6997 15.4216 10.6655C15.3914 10.6313 15.3541 10.6039 15.3125 10.5851C15.2708 10.5664 15.2256 10.5567 15.1799 10.5568H12.9511C12.8319 10.5568 12.7151 10.5235 12.6138 10.4606C12.5125 10.3978 12.4308 10.3079 12.3779 10.2012C12.3249 10.0944 12.3028 9.97495 12.3141 9.8563C12.3254 9.73765 12.3695 9.6245 12.4416 9.5296L12.6724 9.22592C12.753 9.11998 12.8001 8.99235 12.8076 8.85943C12.8151 8.72651 12.7828 8.59437 12.7146 8.48L11.1933 10.1632V14.5024Z" fill="#202020"/>
<path d="M12.1321 21.3891C11.7144 21.3919 11.306 21.2657 10.9627 21.0278C10.6194 20.7899 10.3578 20.4519 10.2137 20.0598L9.83928 19.065C9.80126 18.9639 9.74245 18.8719 9.66666 18.795C9.59086 18.7181 9.49977 18.658 9.39927 18.6185C9.29877 18.579 9.1911 18.5611 9.08323 18.5658C8.97535 18.5706 8.86968 18.5979 8.77304 18.6461L7.82136 19.1197C7.4421 19.3087 7.01362 19.3756 6.59479 19.3113C6.17595 19.247 5.7873 19.0546 5.48221 18.7605C5.17712 18.4665 4.97057 18.0851 4.89091 17.669C4.81126 17.2528 4.86242 16.8221 5.03736 16.4362L5.47608 15.4678C5.52062 15.3695 5.54405 15.2629 5.54482 15.1549C5.5456 15.047 5.52372 14.94 5.48059 14.8411C5.43747 14.7421 5.37406 14.6533 5.29446 14.5803C5.21485 14.5074 5.12084 14.4519 5.01848 14.4176L4.0108 14.08C3.60906 13.9454 3.25884 13.6897 3.00824 13.3481C2.75763 13.0065 2.61893 12.5956 2.61118 12.172C2.60343 11.7484 2.72701 11.3328 2.96496 10.9822C3.2029 10.6316 3.54353 10.3633 3.94008 10.2141L4.93496 9.83969C5.03602 9.80167 5.12798 9.74286 5.20488 9.66707C5.28179 9.59127 5.34192 9.50018 5.38141 9.39968C5.42089 9.29918 5.43883 9.19151 5.43409 9.08364C5.42934 8.97576 5.402 8.87009 5.35384 8.77345L4.88024 7.82177C4.69123 7.44251 4.62429 7.01404 4.6886 6.5952C4.75291 6.17636 4.94531 5.78771 5.23939 5.48262C5.53346 5.17754 5.91478 4.97098 6.33097 4.89133C6.74716 4.81167 7.17781 4.86283 7.56376 5.03777L8.53208 5.47649C8.63042 5.52104 8.73702 5.54446 8.84499 5.54523C8.95295 5.54601 9.05988 5.52413 9.15886 5.48101C9.25783 5.43788 9.34666 5.37447 9.41961 5.29487C9.49255 5.21527 9.54798 5.12125 9.58232 5.01889L9.91992 4.01089C10.0545 3.60915 10.3102 3.25893 10.6518 3.00833C10.9935 2.75772 11.4043 2.61902 11.8279 2.61127C12.2515 2.60353 12.6672 2.72711 13.0177 2.96505C13.3683 3.20299 13.6366 3.54362 13.7858 3.94017L14.1602 4.93505C14.1983 5.03611 14.2571 5.12807 14.3329 5.20497C14.4087 5.28188 14.4997 5.34202 14.6002 5.3815C14.7007 5.42098 14.8084 5.43893 14.9163 5.43418C15.0242 5.42943 15.1298 5.40209 15.2265 5.35393L16.1782 4.88033C16.5574 4.69133 16.9859 4.62438 17.4047 4.68869C17.8236 4.753 18.2122 4.9454 18.5173 5.23948C18.8224 5.53356 19.0289 5.91488 19.1086 6.33107C19.1883 6.74726 19.1371 7.1779 18.9622 7.56385L18.5234 8.53217C18.4789 8.63051 18.4555 8.73711 18.4547 8.84508C18.4539 8.95304 18.4758 9.05997 18.5189 9.15895C18.562 9.25793 18.6255 9.34676 18.7051 9.4197C18.7847 9.49264 18.8787 9.54807 18.981 9.58241L19.989 9.92001C20.3908 10.0546 20.741 10.3103 20.9916 10.6519C21.2422 10.9936 21.3809 11.4044 21.3886 11.828C21.3964 12.2516 21.2728 12.6673 21.0349 13.0178C20.7969 13.3684 20.4563 13.6367 20.0598 13.7859L19.0649 14.1603C18.9638 14.1983 18.8719 14.2572 18.795 14.3329C18.718 14.4087 18.6579 14.4998 18.6184 14.6003C18.5789 14.7008 18.561 14.8085 18.5657 14.9164C18.5705 15.0243 18.5978 15.1299 18.646 15.2266L19.1196 16.1782C19.3086 16.5575 19.3755 16.986 19.3112 17.4048C19.2469 17.8237 19.0545 18.2123 18.7604 18.5174C18.4664 18.8225 18.085 19.029 17.6689 19.1087C17.2527 19.1883 16.822 19.1372 16.4361 18.9622L15.4678 18.5235C15.3694 18.479 15.2628 18.4556 15.1548 18.4548C15.0469 18.454 14.94 18.4759 14.841 18.519C14.742 18.5621 14.6532 18.6255 14.5802 18.7051C14.5073 18.7847 14.4519 18.8788 14.4175 18.9811L14.0799 19.9891C13.9481 20.3926 13.6932 20.7446 13.351 20.9957C13.0088 21.2467 12.5965 21.3842 12.1721 21.3888L12.1321 21.3891ZM11.4118 19.609C11.5897 20.0819 12.0198 20.111 12.1478 20.1088C12.2758 20.1066 12.7049 20.0618 12.8655 19.5824L13.2031 18.5744C13.2945 18.3023 13.4419 18.0524 13.6359 17.8409C13.8298 17.6293 14.066 17.4608 14.3292 17.3462C14.5923 17.2316 14.8766 17.1734 15.1636 17.1756C15.4506 17.1777 15.734 17.24 15.9954 17.3584L16.9638 17.7971C17.4242 18.0058 17.7494 17.7219 17.838 17.6298C17.9266 17.5376 18.1986 17.2026 17.9734 16.7501L17.4994 15.7984C17.3715 15.5414 17.2989 15.2605 17.2863 14.9737C17.2737 14.6869 17.3215 14.4006 17.4265 14.1334C17.5315 13.8663 17.6913 13.6241 17.8958 13.4226C18.1002 13.221 18.3447 13.0647 18.6134 12.9635L19.6082 12.5891C20.0812 12.4112 20.1103 11.9811 20.1081 11.8531C20.1058 11.7251 20.0617 11.296 19.5839 11.1338L18.5759 10.7962C18.3038 10.7048 18.0539 10.5574 17.8424 10.3634C17.6308 10.1694 17.4623 9.93326 17.3477 9.67011C17.2331 9.40696 17.175 9.12269 17.1771 8.83568C17.1792 8.54867 17.2415 8.26529 17.3599 8.00385L17.7986 7.03553C18.0073 6.57505 17.7234 6.24993 17.6313 6.16129C17.5391 6.07265 17.2041 5.80065 16.7516 6.02593L15.7999 6.49985C15.5429 6.6278 15.262 6.70041 14.9752 6.71298C14.6884 6.72555 14.4021 6.6778 14.135 6.57281C13.8678 6.46783 13.6256 6.30794 13.4241 6.1035C13.2225 5.89905 13.0662 5.6546 12.965 5.38593L12.5906 4.39105C12.4127 3.91809 11.9826 3.88897 11.8546 3.89121C11.7266 3.89345 11.2975 3.93825 11.1369 4.41761L10.7993 5.42561C10.7079 5.6977 10.5605 5.9476 10.3665 6.15916C10.1726 6.37073 9.93637 6.53925 9.67322 6.65385C9.41007 6.76845 9.1258 6.82657 8.83879 6.82446C8.55177 6.82235 8.2684 6.76006 8.00696 6.64161L7.03864 6.20289C6.57816 5.99425 6.25304 6.27809 6.1644 6.37025C6.07576 6.46241 5.80376 6.79745 6.02904 7.24993L6.50296 8.20161C6.63091 8.45858 6.70352 8.73955 6.71609 9.02635C6.72866 9.31314 6.68091 9.59938 6.57592 9.86657C6.47094 10.1338 6.31105 10.3759 6.10661 10.5775C5.90216 10.779 5.6577 10.9354 5.38904 11.0365L4.39416 11.4109C3.9212 11.5888 3.89208 12.0189 3.89432 12.1469C3.89656 12.2749 3.94136 12.704 4.42072 12.8646L5.42872 13.2022C5.70081 13.2936 5.95071 13.441 6.16227 13.635C6.37384 13.829 6.54236 14.0652 6.65696 14.3283C6.77156 14.5915 6.82968 14.8757 6.82757 15.1627C6.82546 15.4497 6.76317 15.7331 6.64472 15.9946L6.206 16.9629C5.99736 17.4234 6.2812 17.7485 6.37336 17.8371C6.46552 17.9258 6.80056 18.1978 7.25304 17.9725L8.20472 17.4986C8.46169 17.3706 8.74266 17.298 9.02945 17.2854C9.31625 17.2729 9.60249 17.3206 9.86967 17.4256C10.1369 17.5306 10.379 17.6905 10.5806 17.8949C10.7821 18.0994 10.9385 18.3438 11.0396 18.6125L11.414 19.6074L11.4118 19.609Z" fill="#202020"/>
</svg>
