<svg width="24" height="24" viewBox="0 0 24 24" fill="none" xmlns="http://www.w3.org/2000/svg">
<path d="M11.7812 13.481H11.0858C10.9161 13.481 10.7533 13.4135 10.6333 13.2935C10.5132 13.1735 10.4458 13.0107 10.4458 12.841C10.4458 12.6712 10.5132 12.5085 10.6333 12.3884C10.7533 12.2684 10.9161 12.201 11.0858 12.201H11.7812C12.7317 12.201 13.6433 11.8234 14.3155 11.1512C14.9876 10.4791 15.3652 9.56751 15.3652 8.61698C15.3652 7.66644 14.9876 6.75484 14.3155 6.08271C13.6433 5.41058 12.7317 5.03298 11.7812 5.03298H6.3463C5.39555 5.03298 4.48374 5.41066 3.81146 6.08294C3.13918 6.75522 2.7615 7.66703 2.7615 8.61778C2.7615 9.56852 3.13918 10.4803 3.81146 11.1526C4.48374 11.8249 5.39555 12.2026 6.3463 12.2026H6.9975C7.16724 12.2026 7.33002 12.27 7.45005 12.39C7.57007 12.5101 7.6375 12.6728 7.6375 12.8426C7.6375 13.0123 7.57007 13.1751 7.45005 13.2951C7.33002 13.4151 7.16724 13.4826 6.9975 13.4826H6.3463C3.66406 13.4826 1.4823 11.3002 1.4823 8.61858C1.4823 5.93698 3.6647 3.75458 6.3463 3.75458H11.7812C14.4637 3.75458 16.6452 5.93698 16.6452 8.61858C16.6452 11.3002 14.4641 13.481 11.7812 13.481Z" fill="#202020"/>
<path d="M17.6539 20.2486H12.219C9.53642 20.2486 7.35498 18.0662 7.35498 15.3846C7.35498 12.703 9.53706 10.5206 12.219 10.5206H12.9665C13.1362 10.5206 13.299 10.5881 13.419 10.7081C13.5391 10.8281 13.6065 10.9909 13.6065 11.1606C13.6065 11.3304 13.5391 11.4932 13.419 11.6132C13.299 11.7332 13.1362 11.8006 12.9665 11.8006H12.219C11.2684 11.8006 10.3568 12.1782 9.68471 12.8504C9.01258 13.5225 8.63498 14.4341 8.63498 15.3846C8.63498 16.3352 9.01258 17.2468 9.68471 17.9189C10.3568 18.591 11.2684 18.9686 12.219 18.9686H17.6539C18.6044 18.9686 19.516 18.591 20.1881 17.9189C20.8603 17.2468 21.2379 16.3352 21.2379 15.3846C21.2379 14.4341 20.8603 13.5225 20.1881 12.8504C19.516 12.1782 18.6044 11.8006 17.6539 11.8006H16.8699C16.7001 11.8006 16.5373 11.7332 16.4173 11.6132C16.2973 11.4932 16.2299 11.3304 16.2299 11.1606C16.2299 10.9909 16.2973 10.8281 16.4173 10.7081C16.5373 10.5881 16.7001 10.5206 16.8699 10.5206H17.6539C20.3361 10.5206 22.5179 12.703 22.5179 15.3846C22.5179 18.0662 20.3361 20.2486 17.6539 20.2486Z" fill="#202020"/>
</svg>
