<svg width="24" height="24" viewBox="0 0 24 24" fill="none" xmlns="http://www.w3.org/2000/svg">
<path d="M7.90719 17.7261C7.43523 17.7257 6.96508 17.6677 6.50719 17.5533C5.77278 17.3727 5.08148 17.0483 4.47331 16.5988C3.86514 16.1492 3.35219 15.5835 2.96415 14.9344C1.32799 12.2147 2.20959 8.67199 4.92959 7.03455C5.88397 6.46115 6.98397 6.17638 8.0967 6.21465C9.20943 6.25292 10.2873 6.61261 11.2 7.25023C11.2689 7.29856 11.3275 7.35998 11.3727 7.43099C11.4178 7.50199 11.4485 7.58119 11.4631 7.66407C11.4776 7.74694 11.4757 7.83187 11.4574 7.91399C11.4391 7.99612 11.4048 8.07384 11.3565 8.14271C11.3081 8.21159 11.2467 8.27027 11.1757 8.31541C11.1047 8.36055 11.0255 8.39126 10.9426 8.40579C10.8598 8.42032 10.7748 8.41839 10.6927 8.4001C10.6106 8.38181 10.5329 8.34752 10.464 8.29919C9.75423 7.80347 8.91614 7.52382 8.05092 7.494C7.1857 7.46419 6.33035 7.6855 5.58815 8.13119C3.47295 9.40351 2.78751 12.1597 4.05983 14.2752C4.62354 15.2122 5.51066 15.9104 6.55382 16.2383C7.59698 16.5661 8.72406 16.5009 9.72242 16.0548C10.7208 15.6088 11.5214 14.8128 11.9732 13.8171C12.425 12.8213 12.4968 11.6946 12.175 10.6496C12.125 10.4872 12.1414 10.3116 12.2208 10.1614C12.3002 10.0112 12.436 9.89871 12.5984 9.84863C12.7607 9.79856 12.9363 9.81503 13.0866 9.89443C13.2368 9.97382 13.3493 10.1096 13.3994 10.272C13.7722 11.4902 13.7326 12.7973 13.2867 13.9907C12.8749 15.0856 12.1397 16.0293 11.1789 16.6964C10.218 17.3636 9.07695 17.7227 7.90719 17.7261Z" fill="#202020"/>
<path d="M16.096 17.792C15.0513 17.7907 14.0268 17.5044 13.1328 16.9638C13.0583 16.9218 12.993 16.8653 12.9408 16.7976C12.8885 16.7299 12.8503 16.6524 12.8285 16.5697C12.8067 16.487 12.8017 16.4008 12.8138 16.3161C12.8258 16.2314 12.8548 16.15 12.8988 16.0767C12.9429 16.0034 13.0012 15.9397 13.0703 15.8893C13.1394 15.8389 13.2179 15.8029 13.3012 15.7834C13.3844 15.7638 13.4708 15.7612 13.5551 15.7756C13.6394 15.79 13.72 15.8211 13.792 15.8672C14.3748 16.2202 15.0309 16.4348 15.7096 16.4944C16.3884 16.554 17.0718 16.457 17.7072 16.2109C20.0112 15.3251 21.1655 12.7306 20.28 10.4262C19.3946 8.12191 16.8 6.96831 14.496 7.85375C13.5611 8.21057 12.7732 8.87109 12.2586 9.72935C11.7441 10.5876 11.5328 11.5938 11.6586 12.5866C11.6691 12.6699 11.6631 12.7546 11.6409 12.8357C11.6186 12.9167 11.5807 12.9926 11.5291 13.059C11.4776 13.1254 11.4135 13.181 11.3405 13.2226C11.2674 13.2643 11.1869 13.2911 11.1035 13.3016C11.0201 13.3121 10.9355 13.3061 10.8544 13.2839C10.7734 13.2617 10.6975 13.2237 10.6311 13.1722C10.5647 13.1206 10.5091 13.0565 10.4675 12.9835C10.4258 12.9105 10.399 12.8299 10.3885 12.7466C10.2329 11.482 10.4993 10.2016 11.1463 9.10399C11.803 7.9831 12.8231 7.12036 14.0375 6.65887C17.0003 5.52031 20.337 7.00415 21.4759 9.96703C22.6147 12.9299 21.1303 16.2669 18.1674 17.4054C17.5066 17.6605 16.8044 17.7916 16.096 17.792Z" fill="#202020"/>
</svg>
