<svg width="24" height="24" viewBox="0 0 24 24" fill="none" xmlns="http://www.w3.org/2000/svg">
<path d="M11.1068 16.864H9.28282C6.60058 16.864 4.41882 14.6819 4.41882 12C4.41882 9.31807 6.60122 7.13599 9.28282 7.13599H10.8361C11.0058 7.13599 11.1686 7.20341 11.2887 7.32344C11.4087 7.44346 11.4761 7.60625 11.4761 7.77599C11.4761 7.94572 11.4087 8.10851 11.2887 8.22854C11.1686 8.34856 11.0058 8.41599 10.8361 8.41599H9.2825C8.33197 8.41599 7.42036 8.79359 6.74823 9.46572C6.0761 10.1378 5.6985 11.0495 5.6985 12C5.6985 12.9505 6.0761 13.8621 6.74823 14.5343C7.42036 15.2064 8.33197 15.584 9.2825 15.584H11.1065C11.2762 15.584 11.439 15.6514 11.5591 15.7714C11.6791 15.8915 11.7465 16.0542 11.7465 16.224C11.7465 16.3937 11.6791 16.5565 11.5591 16.6765C11.439 16.7966 11.2762 16.864 11.1065 16.864H11.1068ZM14.7174 16.864H12.7257C12.556 16.864 12.3932 16.7966 12.2732 16.6765C12.1531 16.5565 12.0857 16.3937 12.0857 16.224C12.0857 16.0542 12.1531 15.8915 12.2732 15.7714C12.3932 15.6514 12.556 15.584 12.7257 15.584H14.7174C15.6679 15.584 16.5795 15.2064 17.2517 14.5343C17.9238 13.8621 18.3014 12.9505 18.3014 12C18.3014 11.0495 17.9238 10.1378 17.2517 9.46572C16.5795 8.79359 15.6679 8.41599 14.7174 8.41599H12.5439C12.3742 8.41599 12.2114 8.34856 12.0914 8.22854C11.9714 8.10851 11.9039 7.94572 11.9039 7.77599C11.9039 7.60625 11.9714 7.44346 12.0914 7.32344C12.2114 7.20341 12.3742 7.13599 12.5439 7.13599H14.7164C17.3987 7.13599 19.5804 9.31807 19.5804 12C19.5804 14.6819 17.3996 16.864 14.7174 16.864Z" fill="#202020"/>
<path d="M14.8621 12.64H9.0797C8.90996 12.64 8.74717 12.5726 8.62715 12.4525C8.50713 12.3325 8.4397 12.1697 8.4397 12C8.4397 11.8302 8.50713 11.6675 8.62715 11.5474C8.74717 11.4274 8.90996 11.36 9.0797 11.36H14.8621C15.0318 11.36 15.1946 11.4274 15.3146 11.5474C15.4347 11.6675 15.5021 11.8302 15.5021 12C15.5021 12.1697 15.4347 12.3325 15.3146 12.4525C15.1946 12.5726 15.0318 12.64 14.8621 12.64Z" fill="#202020"/>
</svg>
