<svg width="24" height="24" viewBox="0 0 24 24" fill="none" xmlns="http://www.w3.org/2000/svg">
<path d="M11.9999 20.9347C10.0435 20.9349 8.14754 20.2567 6.6351 19.0156C5.12267 17.7745 4.08735 16.0475 3.70556 14.1286C3.32377 12.2098 3.61913 10.218 4.5413 8.49249C5.46348 6.76702 6.95542 5.41469 8.76291 4.66592C10.5704 3.91715 12.5816 3.81828 14.4538 4.38615C16.326 4.95402 17.9434 6.1535 19.0304 7.7802C20.1174 9.4069 20.6067 11.3602 20.4149 13.3072C20.2232 15.2542 19.3622 17.0745 17.9788 18.4579C17.1955 19.2456 16.2638 19.8701 15.2375 20.2953C14.2112 20.7204 13.1108 20.9378 11.9999 20.9347ZM11.9999 5.3037C8.04346 5.3037 4.82426 8.52258 4.82426 12.4791C4.82426 16.4355 8.04346 19.6547 11.9999 19.6547C15.9564 19.6547 19.1756 16.4355 19.1756 12.4791C19.1756 8.52258 15.9564 5.3037 11.9999 5.3037Z" fill="#202020"/>
<path d="M8.7764 16.1181C8.18991 16.119 7.61797 15.9355 7.14157 15.5934C6.66517 15.2514 6.30845 14.7681 6.12192 14.2121C5.9354 13.656 5.92852 13.0554 6.10226 12.4952C6.276 11.9351 6.62156 11.4437 7.09 11.0909L9.30472 9.42173C9.89698 8.97544 10.6423 8.78271 11.3766 8.88593C11.7402 8.93704 12.0902 9.05927 12.4066 9.24564C12.723 9.43201 12.9996 9.67887 13.2206 9.97213C13.4415 10.2654 13.6026 10.5993 13.6945 10.9548C13.7865 11.3103 13.8075 11.6804 13.7564 12.044C13.7052 12.4077 13.583 12.7577 13.3966 13.074C13.2103 13.3904 12.9634 13.667 12.6702 13.888C12.6029 13.9385 12.5264 13.9754 12.4449 13.9964C12.3634 14.0174 12.2786 14.0221 12.1953 14.0103C12.112 13.9985 12.0318 13.9705 11.9594 13.9277C11.8869 13.8849 11.8236 13.8283 11.773 13.7611C11.7225 13.6939 11.6856 13.6173 11.6646 13.5358C11.6436 13.4544 11.6389 13.3696 11.6507 13.2863C11.6625 13.2029 11.6905 13.1228 11.7333 13.0503C11.7761 12.9779 11.8327 12.9145 11.8999 12.864C12.2118 12.6188 12.4151 12.2612 12.4663 11.8679C12.5176 11.4746 12.4125 11.0768 12.1738 10.76C11.9351 10.4432 11.5818 10.2326 11.1896 10.1734C10.7973 10.1141 10.3975 10.211 10.0759 10.4432L7.86152 12.1123C7.54966 12.3574 7.3463 12.715 7.29509 13.1084C7.24388 13.5017 7.34889 13.8994 7.58759 14.2162C7.82629 14.5331 8.17966 14.7437 8.57188 14.8029C8.9641 14.8621 9.3639 14.7653 9.68552 14.5331C9.8211 14.4309 9.99171 14.3868 10.1598 14.4104C10.2431 14.4221 10.3232 14.4501 10.3956 14.4927C10.4681 14.5354 10.5314 14.5919 10.582 14.659C10.6326 14.7261 10.6695 14.8026 10.6905 14.884C10.7116 14.9653 10.7164 15.0501 10.7047 15.1333C10.693 15.2166 10.665 15.2967 10.6224 15.3691C10.5797 15.4416 10.5232 15.5049 10.4561 15.5555C9.97236 15.9209 9.38261 16.1184 8.7764 16.1181Z" fill="#202020"/>
<path d="M13.0159 16.0986C12.4296 16.0993 11.858 15.9157 11.3818 15.5736C10.9056 15.2315 10.5491 14.7484 10.3626 14.1925C10.1762 13.6367 10.1692 13.0362 10.3428 12.4762C10.5164 11.9162 10.8617 11.425 11.3299 11.072C11.3968 11.0197 11.4736 10.9813 11.5555 10.9589C11.6375 10.9366 11.7231 10.9308 11.8074 10.9419C11.8916 10.953 11.9728 10.9808 12.0462 11.0236C12.1196 11.0664 12.1837 11.1234 12.2349 11.1913C12.286 11.2591 12.3231 11.3365 12.3441 11.4188C12.365 11.5012 12.3693 11.5869 12.3567 11.6709C12.3442 11.755 12.315 11.8357 12.271 11.9083C12.2269 11.981 12.1688 12.0441 12.1001 12.0941C11.9366 12.2121 11.7983 12.3616 11.6933 12.5338C11.5883 12.706 11.5187 12.8973 11.4885 13.0968C11.4584 13.2962 11.4684 13.4996 11.5179 13.6951C11.5674 13.8906 11.6554 14.0742 11.7767 14.2353C11.8981 14.3964 12.0504 14.5316 12.2246 14.6331C12.3989 14.7346 12.5917 14.8002 12.7917 14.8263C12.9917 14.8523 13.1948 14.8382 13.3893 14.7847C13.5837 14.7312 13.7656 14.6395 13.9241 14.5149L16.1385 12.8458C16.4486 12.6123 16.6574 12.2688 16.7218 11.8861C16.7862 11.5033 16.7013 11.1104 16.4846 10.7883C16.2678 10.4663 15.9359 10.2397 15.557 10.1551C15.1781 10.0706 14.7813 10.1347 14.4483 10.3341C14.303 10.4138 14.1326 10.4341 13.9727 10.3907C13.8128 10.3473 13.676 10.2436 13.591 10.1014C13.506 9.95924 13.4794 9.78962 13.5169 9.62826C13.5544 9.46689 13.653 9.32634 13.7919 9.23617C14.406 8.86828 15.1378 8.74994 15.8365 8.90554C16.5352 9.06113 17.1477 9.4788 17.5476 10.0725C17.9475 10.6662 18.1045 11.3907 17.9862 12.0966C17.8679 12.8026 17.4833 13.4363 16.9116 13.8672L14.6969 15.5363C14.2129 15.9021 13.6226 16.0996 13.0159 16.0986Z" fill="#202020"/>
</svg>
