<svg width="24" height="24" viewBox="0 0 24 24" fill="none" xmlns="http://www.w3.org/2000/svg">
<path d="M12.3969 20.3277C12.1191 20.3288 11.8457 20.2583 11.6031 20.123C11.3604 19.9877 11.1568 19.7922 11.0117 19.5552L6.89039 12.8928C6.88815 12.8887 6.88559 12.8848 6.88335 12.881C5.80079 11.0426 5.79055 8.8042 6.85583 6.89284C7.95183 4.9258 9.93807 3.7226 12.1694 3.67428C12.2171 3.67428 12.2654 3.67428 12.3134 3.67236H12.3233C12.4286 3.67236 12.5352 3.67492 12.6398 3.6794C14.8584 3.77924 16.8184 5.00036 17.8827 6.94596C18.8965 8.80004 18.8827 10.9741 17.8462 12.7648L17.8414 12.7728L13.7957 19.5348C13.6529 19.7755 13.4501 19.9751 13.2072 20.1141C12.9642 20.2531 12.6893 20.3267 12.4094 20.3277H12.3969ZM7.98287 12.224L12.1003 18.88C12.1319 18.9311 12.176 18.9731 12.2285 19.0021C12.281 19.0311 12.3401 19.0461 12.4001 19.0457C12.4601 19.0452 12.519 19.0293 12.5711 18.9995C12.6231 18.9698 12.6666 18.9271 12.6974 18.8756L16.7406 12.12C17.549 10.7204 17.5563 9.01604 16.7598 7.56036C16.3485 6.802 15.7473 6.16347 15.015 5.7073C14.2828 5.25114 13.4446 4.99299 12.5825 4.95812C12.4968 4.95428 12.4094 4.95236 12.3233 4.95236H12.315C12.2757 4.95236 12.2363 4.95236 12.1973 4.95396C10.4251 4.99236 8.84623 5.95012 7.97327 7.51588C7.13327 9.02404 7.13583 10.784 7.98287 12.224Z" fill="#202020"/>
<path d="M12.3519 12.4583C11.8702 12.4584 11.3994 12.3156 10.9989 12.048C10.5983 11.7805 10.2862 11.4001 10.1018 10.9552C9.91746 10.5102 9.86921 10.0205 9.96316 9.54809C10.0571 9.07567 10.289 8.64173 10.6296 8.30115C10.9702 7.96056 11.4042 7.72862 11.8766 7.63467C12.349 7.54072 12.8387 7.58897 13.2836 7.77332C13.7286 7.95768 14.109 8.26985 14.3765 8.67037C14.6441 9.07088 14.7868 9.54175 14.7868 10.0234C14.786 10.6689 14.5292 11.2878 14.0728 11.7443C13.6163 12.2008 12.9974 12.4575 12.3519 12.4583ZM12.3519 8.86821C12.1234 8.86815 11.9 8.93585 11.71 9.06274C11.52 9.18964 11.3719 9.37003 11.2844 9.58111C11.1969 9.79219 11.174 10.0245 11.2185 10.2486C11.2631 10.4727 11.3731 10.6786 11.5346 10.8401C11.6962 11.0017 11.902 11.1118 12.1261 11.1564C12.3502 11.201 12.5825 11.1781 12.7936 11.0907C13.0047 11.0033 13.1851 10.8552 13.3121 10.6652C13.439 10.4753 13.5068 10.2519 13.5068 10.0234C13.5064 9.71719 13.3847 9.42361 13.1682 9.20705C12.9517 8.99049 12.6581 8.86864 12.3519 8.86821Z" fill="#202020"/>
</svg>
