<svg width="24" height="24" viewBox="0 0 24 24" fill="none" xmlns="http://www.w3.org/2000/svg">
<path d="M12.0468 20.352C11.7685 20.3531 11.4946 20.2824 11.2515 20.1469C11.0084 20.0114 10.8044 19.8155 10.6589 19.5783L6.52548 12.896L6.51844 12.8842C5.433 11.04 5.42276 8.79491 6.49092 6.88003C7.5898 4.90819 9.58148 3.70179 11.8186 3.65283C11.8666 3.65283 11.9146 3.65283 11.9629 3.65283H11.9728C12.0784 3.65283 12.1853 3.65539 12.2903 3.65987C14.5146 3.75683 16.48 4.98115 17.5472 6.93187C18.5636 8.78979 18.5498 10.9709 17.5104 12.7664L17.506 12.7744L13.448 19.5562C13.3052 19.7977 13.1022 19.998 12.8587 20.1375C12.6153 20.277 12.3398 20.3509 12.0592 20.352H12.0468ZM7.61796 12.2272L11.7476 18.9034C11.7793 18.9549 11.8238 18.9973 11.8768 19.0266C11.9297 19.0559 11.9893 19.0711 12.0498 19.0706C12.1103 19.0702 12.1696 19.0541 12.2221 19.024C12.2746 18.994 12.3185 18.9509 12.3495 18.8989L16.4048 12.1213C17.216 10.7168 17.2234 9.00707 16.4244 7.54531C16.0116 6.7843 15.4083 6.14356 14.6734 5.68587C13.9386 5.22818 13.0974 4.96924 12.2324 4.93443C12.1466 4.93059 12.0589 4.92867 11.9725 4.92867H11.9645C11.9248 4.92867 11.8855 4.92867 11.8461 4.92867C10.0679 4.96771 8.48388 5.92835 7.60868 7.49923C6.76548 9.01507 6.769 10.7812 7.61796 12.2272Z" fill="#202020"/>
<path d="M11.5584 12.2503C11.5284 12.2503 11.4985 12.2481 11.4688 12.2439C11.3795 12.2313 11.2938 12.2 11.2174 12.1519C11.141 12.1039 11.0757 12.0403 11.0256 11.9652L10.0509 10.5031C9.95661 10.3619 9.92228 10.189 9.95546 10.0225C9.98865 9.85593 10.0866 9.7094 10.2279 9.61511C10.3691 9.52082 10.542 9.4865 10.7085 9.51968C10.875 9.55287 11.0216 9.65085 11.1159 9.79207L11.6919 10.6561L14.312 8.43879C14.4416 8.32914 14.6095 8.27546 14.7786 8.28957C14.9478 8.30367 15.1044 8.3844 15.2141 8.51399C15.3237 8.64359 15.3774 8.81144 15.3633 8.98061C15.3492 9.14978 15.2685 9.30642 15.1389 9.41607L11.9709 12.0967C11.8559 12.1951 11.7097 12.2495 11.5584 12.2503Z" fill="#202020"/>
</svg>
