<svg width="24" height="24" viewBox="0 0 24 24" fill="none" xmlns="http://www.w3.org/2000/svg">
<path d="M12.1444 20.6048C11.8636 20.6059 11.5872 20.5346 11.342 20.3979C11.0967 20.2611 10.8908 20.0635 10.7441 19.824L6.54856 13.04C6.546 13.0362 6.54376 13.032 6.54152 13.0282C5.44008 11.1616 5.43112 8.88707 6.51336 6.94403C7.62728 4.94531 9.64552 3.72259 11.913 3.67331C11.9617 3.67331 12.009 3.67331 12.0593 3.67139H12.0695C12.1764 3.67139 12.2846 3.67395 12.3911 3.67875C14.6458 3.78019 16.6375 5.02083 17.7191 6.99811C18.7492 8.88099 18.7351 11.0912 17.682 12.9107L17.6772 12.9187L13.5585 19.8032C13.414 20.0463 13.209 20.2478 12.9634 20.3881C12.7178 20.5283 12.44 20.6024 12.1572 20.6032L12.1444 20.6048ZM7.64104 12.3741L11.833 19.1507C11.8662 19.2044 11.9126 19.2486 11.9678 19.2791C12.023 19.3096 12.0851 19.3254 12.1481 19.3249C12.2112 19.3245 12.2731 19.3077 12.3278 19.2764C12.3825 19.245 12.4282 19.2001 12.4606 19.1459L16.5761 12.2663C17.401 10.8381 17.4081 9.09827 16.5959 7.61347C16.1764 6.83943 15.563 6.18767 14.8158 5.72206C14.0686 5.25645 13.2132 4.99298 12.3335 4.95747C12.2458 4.95363 12.1569 4.95139 12.0692 4.95139H12.0609C12.0206 4.95139 11.9806 4.95139 11.9406 4.95299C10.1326 4.99203 8.52168 5.97059 7.63144 7.56803C6.77384 9.10723 6.77736 10.9031 7.64104 12.3741Z" fill="#202020"/>
<path d="M5.26043 20.6048C5.14365 20.6046 5.02916 20.5725 4.92934 20.5118C4.82953 20.4512 4.74821 20.3644 4.69418 20.2609C4.64016 20.1574 4.61549 20.041 4.62286 19.9245C4.63022 19.8079 4.66933 19.6956 4.73595 19.5997L16.6915 2.39171C16.7391 2.32187 16.8 2.26215 16.8709 2.216C16.9417 2.16985 17.0209 2.13819 17.104 2.12283C17.1872 2.10748 17.2725 2.10874 17.3551 2.12654C17.4377 2.14435 17.516 2.17834 17.5854 2.22656C17.6549 2.27478 17.714 2.33628 17.7596 2.40749C17.8051 2.47871 17.836 2.55824 17.8507 2.64149C17.8653 2.72474 17.8633 2.81006 17.8447 2.89252C17.8262 2.97499 17.7915 3.05296 17.7427 3.12195L5.78683 20.33C5.72783 20.4149 5.64912 20.4843 5.55744 20.5321C5.46577 20.58 5.36386 20.605 5.26043 20.6048Z" fill="#202020"/>
<path d="M12.0959 12.5936C11.6079 12.5936 11.1308 12.4489 10.7251 12.1778C10.3193 11.9066 10.003 11.5213 9.81625 11.0704C9.62949 10.6195 9.58062 10.1234 9.67583 9.6447C9.77104 9.16605 10.0061 8.72638 10.3511 8.38129C10.6962 8.0362 11.1359 7.80119 11.6145 7.70598C12.0932 7.61077 12.5893 7.65964 13.0402 7.8464C13.4911 8.03316 13.8765 8.34943 14.1476 8.75521C14.4187 9.16099 14.5635 9.63806 14.5635 10.1261C14.5627 10.7803 14.3025 11.4075 13.8399 11.87C13.3773 12.3326 12.7501 12.5928 12.0959 12.5936ZM12.0959 8.93857C11.8611 8.93857 11.6315 9.00822 11.4362 9.1387C11.2409 9.26919 11.0887 9.45466 10.9988 9.67165C10.9089 9.88864 10.8854 10.1274 10.9312 10.3578C10.9771 10.5881 11.0902 10.7997 11.2562 10.9658C11.4223 11.1319 11.6339 11.245 11.8643 11.2908C12.0946 11.3366 12.3334 11.3131 12.5504 11.2232C12.7674 11.1333 12.9528 10.9811 13.0833 10.7858C13.2138 10.5906 13.2835 10.361 13.2835 10.1261C13.283 9.81127 13.1578 9.50947 12.9352 9.28685C12.7126 9.06424 12.4108 8.93899 12.0959 8.93857Z" fill="#202020"/>
</svg>
