<svg width="24" height="24" viewBox="0 0 24 24" fill="none" xmlns="http://www.w3.org/2000/svg">
<path d="M12.0726 19.68C11.9031 19.68 11.7405 19.6128 11.6205 19.4931L5.54049 13.4288L4.85473 12.7443C2.92929 10.8243 2.92545 7.69344 4.84673 5.76832C5.30417 5.30959 5.84751 4.94549 6.44571 4.69681C7.04391 4.44814 7.68524 4.31976 8.33307 4.31902C8.9809 4.31828 9.62252 4.44518 10.2213 4.69248C10.8201 4.93979 11.3642 5.30264 11.8227 5.76032L12.0557 5.99232L12.1661 5.8816C13.0901 4.95546 14.3441 4.43426 15.6523 4.43264C16.9605 4.43102 18.2158 4.94911 19.1421 5.87296C20.0445 6.77312 20.8554 8.41664 20.504 9.8976C20.485 9.97974 20.4499 10.0573 20.4008 10.1258C20.3517 10.1944 20.2895 10.2525 20.2178 10.297C20.1462 10.3414 20.0664 10.3712 19.9832 10.3848C19.9 10.3983 19.8149 10.3952 19.7329 10.3758C19.6508 10.3563 19.5734 10.3209 19.5051 10.2714C19.4368 10.2219 19.379 10.1595 19.3349 10.0876C19.2909 10.0157 19.2614 9.93583 19.2483 9.85254C19.2352 9.76924 19.2387 9.68418 19.2586 9.60224C19.4826 8.6544 18.9008 7.44032 18.2381 6.7792C17.8984 6.44038 17.4954 6.17178 17.0519 5.98873C16.6085 5.80568 16.1333 5.71177 15.6536 5.71237C15.1738 5.71296 14.6989 5.80805 14.2559 5.99219C13.8129 6.17634 13.4105 6.44594 13.0717 6.7856L12.512 7.34976C12.4526 7.40931 12.3821 7.45658 12.3045 7.48886C12.2268 7.52115 12.1436 7.53782 12.0595 7.53792C11.89 7.53797 11.7274 7.47076 11.6074 7.35104L10.9216 6.66656C10.5819 6.32764 10.1788 6.05895 9.73526 5.87583C9.29173 5.69271 8.81647 5.59874 8.33662 5.59929C7.85677 5.59984 7.38173 5.6949 6.93862 5.87903C6.49551 6.06317 6.093 6.33278 5.75409 6.67248C5.06962 7.35852 4.68571 8.28837 4.68682 9.25746C4.68793 10.2266 5.07397 11.1555 5.76001 11.84L6.44577 12.5242L12.0714 18.1363L13.6589 16.544C13.7182 16.4845 13.7887 16.4373 13.8664 16.405C13.944 16.3727 14.0272 16.3561 14.1112 16.356C14.1953 16.3559 14.2785 16.3723 14.3562 16.4044C14.4339 16.4365 14.5045 16.4835 14.564 16.5429C14.6235 16.6022 14.6707 16.6727 14.703 16.7503C14.7353 16.828 14.7519 16.9112 14.752 16.9952C14.7521 17.0793 14.7357 17.1625 14.7036 17.2402C14.6715 17.3179 14.6245 17.3885 14.5651 17.448L12.5258 19.4925C12.4058 19.6125 12.243 19.68 12.0733 19.68H12.0726Z" fill="#202020"/>
<path d="M16.4772 19.6896C16.3078 19.6896 16.1453 19.6224 16.0254 19.5027L11.4404 14.9286C11.1019 14.6013 10.832 14.21 10.6463 13.7773C10.4605 13.3447 10.3627 12.8794 10.3585 12.4086C10.3544 11.9378 10.4439 11.4708 10.6219 11.035C10.8 10.5991 11.0629 10.203 11.3955 9.86976C11.7281 9.5365 12.1237 9.27275 12.5592 9.09386C12.9947 8.91496 13.4615 8.82451 13.9323 8.82775C14.4031 8.831 14.8686 8.92788 15.3016 9.11276C15.7346 9.29764 16.1265 9.56682 16.4545 9.90463L16.4673 9.91711C17.1382 9.28154 18.0305 8.93266 18.9545 8.94461C19.8786 8.95656 20.7615 9.32841 21.4158 9.98111C22.0812 10.6466 22.4556 11.5489 22.4566 12.49C22.4577 13.4311 22.0855 14.3343 21.4215 15.0013L16.9303 19.5014C16.8105 19.6216 16.6479 19.6893 16.4782 19.6896H16.4772ZM13.9492 10.1462C13.5001 10.1462 13.061 10.2795 12.6877 10.5291C12.3143 10.7787 12.0234 11.1335 11.8517 11.5485C11.6801 11.9636 11.6354 12.4202 11.7234 12.8606C11.8114 13.3011 12.0281 13.7055 12.346 14.0227L16.4762 18.144L20.5153 14.0954C20.9398 13.6689 21.1779 13.0915 21.1772 12.4898C21.1766 11.8881 20.9372 11.3112 20.5118 10.8858C20.3008 10.6752 20.0504 10.5083 19.7748 10.3945C19.4993 10.2808 19.2041 10.2224 18.906 10.2227C18.6079 10.2231 18.3128 10.2822 18.0376 10.3966C17.7623 10.511 17.5123 10.6785 17.3018 10.8896L16.9204 11.272C16.861 11.3315 16.7905 11.3787 16.7128 11.4109C16.6352 11.4432 16.552 11.4598 16.4679 11.4598C16.2984 11.4599 16.1358 11.3927 16.0158 11.273L15.5521 10.809C15.3417 10.5979 15.0916 10.4307 14.8162 10.317C14.5408 10.2032 14.2456 10.1452 13.9476 10.1462H13.9492Z" fill="#202020"/>
</svg>
