<svg width="24" height="24" viewBox="0 0 24 24" fill="none" xmlns="http://www.w3.org/2000/svg">
<path d="M13.6224 20.3763C13.4159 20.3758 13.2124 20.3262 13.0288 20.2316C12.8452 20.137 12.6867 20.0002 12.5664 19.8323L9.96672 16.296C9.96112 16.2884 9.95323 16.2827 9.94421 16.2798C9.93518 16.277 9.92547 16.277 9.91648 16.28L5.74944 17.6586C5.48372 17.7468 5.1969 17.7485 4.93012 17.6636C4.66333 17.5787 4.4303 17.4115 4.26445 17.1859C4.09859 16.9604 4.00844 16.6881 4.00692 16.4081C4.00541 16.1281 4.0926 15.8549 4.256 15.6275L6.816 12.0627C6.82155 12.055 6.82453 12.0458 6.82453 12.0363C6.82453 12.0269 6.82155 12.0176 6.816 12.0099L4.21856 8.47297C4.05252 8.24749 3.96216 7.97521 3.96047 7.6952C3.95878 7.41518 4.04584 7.14183 4.20915 6.91436C4.37247 6.6869 4.60364 6.51701 4.8695 6.42909C5.13535 6.34117 5.42223 6.33973 5.68896 6.42497L9.87072 7.75873C9.87945 7.76168 9.88888 7.76185 9.89771 7.75921C9.90653 7.75658 9.91432 7.75126 9.92 7.74401L12.48 4.17953C12.6434 3.95283 12.8744 3.7836 13.1398 3.69604C13.4052 3.60849 13.6915 3.60708 13.9577 3.69204C14.224 3.77699 14.4565 3.94394 14.6222 4.16903C14.7878 4.39412 14.8781 4.66582 14.88 4.94529L14.9037 9.33441C14.9037 9.34405 14.9068 9.35343 14.9126 9.36115C14.9183 9.36888 14.9264 9.37454 14.9357 9.37729L19.1171 10.711C19.3837 10.7961 19.6165 10.9634 19.7821 11.1888C19.9478 11.4143 20.0378 11.6864 20.0394 11.9662C20.0409 12.246 19.9538 12.5191 19.7906 12.7464C19.6274 12.9736 19.3965 13.1434 19.1309 13.2314L14.9661 14.6093C14.9569 14.6121 14.9488 14.6178 14.943 14.6255C14.9373 14.6332 14.9341 14.6425 14.9341 14.6522L14.9587 19.04C14.9633 19.3206 14.8774 19.5951 14.7137 19.823C14.55 20.0509 14.3173 20.22 14.0499 20.3053C13.9121 20.3515 13.7678 20.3755 13.6224 20.3763ZM9.93216 14.9971C10.1399 14.9972 10.3447 15.0462 10.53 15.1402C10.7152 15.2342 10.8757 15.3706 10.9984 15.5382L13.5974 19.0752C13.609 19.0909 13.6166 19.1014 13.6477 19.0912C13.6787 19.081 13.6797 19.0679 13.6797 19.0483L13.656 14.6592C13.6539 14.3792 13.7408 14.1058 13.9042 13.8784C14.0675 13.651 14.2988 13.4814 14.5648 13.3939L18.7318 12.0154C18.7504 12.009 18.7638 12.0048 18.7638 11.9722C18.7638 11.9395 18.751 11.9354 18.7318 11.9296L14.5488 10.5955C14.2819 10.511 14.0488 10.344 13.883 10.1184C13.7173 9.89281 13.6275 9.62041 13.6266 9.34049L13.6029 4.95137C13.6029 4.93153 13.6029 4.91937 13.5709 4.90849C13.5389 4.89761 13.5322 4.90849 13.5206 4.92513L10.9606 8.48993C10.7977 8.71764 10.5667 8.88773 10.3009 8.97566C10.0351 9.0636 9.74817 9.06484 9.4816 8.97921L5.30016 7.64545C5.28128 7.63937 5.26816 7.63553 5.2496 7.66209C5.23104 7.68865 5.2384 7.69921 5.2496 7.71489L7.84864 11.2518C8.01485 11.4771 8.10522 11.7494 8.10671 12.0294C8.10821 12.3093 8.02075 12.5826 7.85696 12.8096L5.29696 16.3744C5.28544 16.3904 5.27776 16.401 5.29696 16.4272C5.31616 16.4534 5.32896 16.4496 5.3472 16.4435L9.51424 15.0646C9.64907 15.02 9.79015 14.9972 9.93216 14.9971Z" fill="#202020"/>
<path d="M19.68 18.3408C19.5571 18.3407 19.4369 18.3052 19.3338 18.2384L15.9091 16.0275C15.7665 15.9354 15.6663 15.7905 15.6306 15.6245C15.5948 15.4585 15.6265 15.2852 15.7186 15.1425C15.8106 14.9999 15.9556 14.8997 16.1216 14.864C16.2875 14.8282 16.4609 14.8599 16.6035 14.952L20.0275 17.1629C20.1437 17.2378 20.2326 17.3483 20.2807 17.4779C20.3289 17.6075 20.3337 17.7493 20.2946 17.8819C20.2555 18.0145 20.1745 18.1309 20.0637 18.2136C19.9529 18.2963 19.8183 18.341 19.68 18.3408Z" fill="#202020"/>
</svg>
