<svg width="24" height="24" viewBox="0 0 24 24" fill="none" xmlns="http://www.w3.org/2000/svg">
<path d="M10.9392 9.73538H5.24034C5.0706 9.73538 4.90782 9.66795 4.78779 9.54793C4.66777 9.42791 4.60034 9.26512 4.60034 9.09538C4.60034 8.92564 4.66777 8.76286 4.78779 8.64283C4.90782 8.52281 5.0706 8.45538 5.24034 8.45538H10.9392C11.109 8.45538 11.2717 8.52281 11.3918 8.64283C11.5118 8.76286 11.5792 8.92564 11.5792 9.09538C11.5792 9.26512 11.5118 9.42791 11.3918 9.54793C11.2717 9.66795 11.109 9.73538 10.9392 9.73538Z" fill="#202020"/>
<path d="M8.08959 12.5846C7.91985 12.5846 7.75706 12.5172 7.63704 12.3972C7.51701 12.2772 7.44958 12.1144 7.44958 11.9446V6.24608C7.44958 6.07634 7.51701 5.91355 7.63704 5.79353C7.75706 5.67351 7.91985 5.60608 8.08959 5.60608C8.25932 5.60608 8.42211 5.67351 8.54213 5.79353C8.66216 5.91355 8.72958 6.07634 8.72958 6.24608V11.9446C8.72958 12.1144 8.66216 12.2772 8.54213 12.3972C8.42211 12.5172 8.25932 12.5846 8.08959 12.5846ZM18.2121 18.3939C18.1262 18.3941 18.0411 18.3768 17.9619 18.3432C17.8828 18.3096 17.8113 18.2604 17.7517 18.1984L13.7945 14.0973C13.6767 13.9751 13.6122 13.8111 13.6153 13.6414C13.6183 13.4717 13.6887 13.3102 13.8109 13.1923C13.933 13.0745 14.097 13.01 14.2667 13.0131C14.4364 13.0161 14.598 13.0865 14.7158 13.2086L18.6726 17.3098C18.7598 17.4002 18.8184 17.5142 18.8412 17.6376C18.864 17.7611 18.85 17.8886 18.8009 18.0041C18.7518 18.1197 18.6698 18.2183 18.5652 18.2876C18.4605 18.3569 18.3377 18.3939 18.2121 18.3939Z" fill="#202020"/>
<path d="M14.1831 18.3219C14.0555 18.3219 13.931 18.2837 13.8253 18.2124C13.7196 18.141 13.6376 18.0397 13.5899 17.9215C13.5422 17.8032 13.5309 17.6734 13.5574 17.5487C13.584 17.424 13.6472 17.31 13.7389 17.2215L17.8397 13.2643C17.9619 13.1465 18.1259 13.0819 18.2956 13.085C18.4654 13.088 18.6269 13.1583 18.7448 13.2805C18.8627 13.4027 18.9272 13.5667 18.9242 13.7364C18.9212 13.9062 18.8508 14.0677 18.7287 14.1856L14.6275 18.144C14.5081 18.2588 14.3487 18.3226 14.1831 18.3219ZM18.7597 9.73538H13.0608C12.8911 9.73538 12.7283 9.66795 12.6083 9.54793C12.4883 9.42791 12.4208 9.26512 12.4208 9.09538C12.4208 8.92564 12.4883 8.76286 12.6083 8.64283C12.7283 8.52281 12.8911 8.45538 13.0608 8.45538H18.7597C18.9294 8.45538 19.0922 8.52281 19.2123 8.64283C19.3323 8.76286 19.3997 8.92564 19.3997 9.09538C19.3997 9.26512 19.3323 9.42791 19.2123 9.54793C19.0922 9.66795 18.9294 9.73538 18.7597 9.73538ZM10.9392 15.4947H5.24034C5.0706 15.4947 4.90782 15.4273 4.78779 15.3073C4.66777 15.1873 4.60034 15.0245 4.60034 14.8547C4.60034 14.685 4.66777 14.5222 4.78779 14.4022C4.90782 14.2822 5.0706 14.2147 5.24034 14.2147H10.9392C11.109 14.2147 11.2717 14.2822 11.3918 14.4022C11.5118 14.5222 11.5792 14.685 11.5792 14.8547C11.5792 15.0245 11.5118 15.1873 11.3918 15.3073C11.2717 15.4273 11.109 15.4947 10.9392 15.4947ZM10.9392 18.1927H5.24034C5.0706 18.1927 4.90782 18.1252 4.78779 18.0052C4.66777 17.8852 4.60034 17.7224 4.60034 17.5527C4.60034 17.3829 4.66777 17.2201 4.78779 17.1001C4.90782 16.9801 5.0706 16.9127 5.24034 16.9127H10.9392C11.109 16.9127 11.2717 16.9801 11.3918 17.1001C11.5118 17.2201 11.5792 17.3829 11.5792 17.5527C11.5792 17.7224 11.5118 17.8852 11.3918 18.0052C11.2717 18.1252 11.109 18.1927 10.9392 18.1927Z" fill="#202020"/>
</svg>
