<svg width="24" height="24" viewBox="0 0 24 24" fill="none" xmlns="http://www.w3.org/2000/svg">
<path d="M4.15263 10.9939H4.14655C4.0625 10.9931 3.97944 10.9757 3.90209 10.9428C3.82475 10.9099 3.75464 10.8621 3.69578 10.8021C3.63691 10.7421 3.59044 10.6711 3.55901 10.5932C3.52759 10.5152 3.51183 10.4318 3.51263 10.3478L3.54463 6.96474C3.54658 6.0576 3.90807 5.18821 4.54988 4.54712C5.19169 3.90603 6.06148 3.54551 6.96863 3.54459H10.208C10.3777 3.54459 10.5405 3.61201 10.6605 3.73204C10.7806 3.85206 10.848 4.01485 10.848 4.18459C10.848 4.35432 10.7806 4.51711 10.6605 4.63713C10.5405 4.75716 10.3777 4.82459 10.208 4.82459H6.96799C6.39952 4.82509 5.85448 5.05114 5.45252 5.45311C5.05055 5.85508 4.8245 6.40012 4.82399 6.96859V6.97467L4.79199 10.3606C4.79022 10.529 4.7221 10.69 4.60241 10.8086C4.48271 10.9271 4.3211 10.9937 4.15263 10.9939ZM19.8153 10.9939C19.6467 10.9939 19.4848 10.9273 19.3649 10.8086C19.2451 10.6899 19.177 10.5286 19.1754 10.3599L19.1434 6.97403V6.96795C19.1434 6.39932 18.9175 5.85399 18.5154 5.45191C18.1133 5.04983 17.568 4.82395 16.9994 4.82395H13.76C13.5903 4.82395 13.4275 4.75652 13.3074 4.63649C13.1874 4.51647 13.12 4.35368 13.12 4.18395C13.12 4.01421 13.1874 3.85142 13.3074 3.7314C13.4275 3.61137 13.5903 3.54395 13.76 3.54395H17C17.9075 3.54394 18.7779 3.9042 19.4199 4.54557C20.0619 5.18693 20.4231 6.05693 20.424 6.96443L20.456 10.3471C20.4568 10.4312 20.441 10.5146 20.4096 10.5925C20.3782 10.6705 20.3317 10.7415 20.2728 10.8015C20.214 10.8615 20.1439 10.9093 20.0665 10.9422C19.9892 10.9751 19.9061 10.9924 19.8221 10.9932L19.8153 10.9939ZM10.208 20.4556H6.96799C6.06081 20.4546 5.19103 20.094 4.54922 19.4529C3.90742 18.8117 3.54594 17.9423 3.54399 17.0351L3.51199 13.6521C3.51038 13.4824 3.57626 13.3189 3.69514 13.1978C3.81403 13.0766 3.97617 13.0076 4.14591 13.006C4.31565 13.0044 4.47908 13.0703 4.60024 13.1892C4.7214 13.3081 4.79038 13.4702 4.79199 13.6399L4.82399 17.0259V17.0319C4.8245 17.6004 5.05055 18.1455 5.45252 18.5474C5.85448 18.9494 6.39952 19.1754 6.96799 19.1759H10.208C10.3777 19.1759 10.5405 19.2434 10.6605 19.3634C10.7806 19.4834 10.848 19.6462 10.848 19.8159C10.848 19.9857 10.7806 20.1485 10.6605 20.2685C10.5405 20.3885 10.3777 20.4559 10.208 20.4559V20.4556ZM13.76 20.4556C13.5903 20.4556 13.4275 20.3882 13.3074 20.2682C13.1874 20.1481 13.12 19.9854 13.12 19.8156C13.12 19.6459 13.1874 19.4831 13.3074 19.3631C13.4275 19.2431 13.5903 19.1756 13.76 19.1756H17C17.5686 19.1756 18.114 18.9497 18.516 18.5477C18.9181 18.1456 19.144 17.6002 19.144 17.0316V17.0255L19.176 13.6396C19.1776 13.4699 19.2466 13.3077 19.3677 13.1889C19.4277 13.13 19.4987 13.0835 19.5767 13.0521C19.6546 13.0207 19.738 13.0049 19.8221 13.0057C19.9061 13.0065 19.9892 13.0238 20.0665 13.0567C20.1439 13.0896 20.214 13.1375 20.2728 13.1975C20.3317 13.2574 20.3782 13.3285 20.4096 13.4064C20.441 13.4844 20.4568 13.5677 20.456 13.6518L20.424 17.0348C20.4231 17.9423 20.0619 18.8123 19.4199 19.4537C18.7779 20.095 17.9075 20.4553 17 20.4553L13.76 20.4556Z" fill="#202020"/>
</svg>
