<svg width="24" height="24" viewBox="0 0 24 24" fill="none" xmlns="http://www.w3.org/2000/svg">
<path d="M17.0319 20.9347H6.96795C6.06016 20.9337 5.18984 20.5726 4.54793 19.9307C3.90603 19.2888 3.54496 18.4185 3.54395 17.5107V7.44701C3.54488 6.5392 3.90592 5.66883 4.54784 5.02691C5.18976 4.38498 6.06013 4.02394 6.96795 4.02301H17.0319C17.9398 4.02394 18.8101 4.38498 19.452 5.02691C20.094 5.66883 20.455 6.5392 20.4559 7.44701V17.511C20.4548 18.4187 20.0937 19.289 19.4518 19.9308C18.8099 20.5727 17.9397 20.9337 17.0319 20.9347ZM6.96795 5.30365C6.39948 5.30416 5.85444 5.53021 5.45247 5.93217C5.0505 6.33414 4.82445 6.87918 4.82395 7.44765V17.5117C4.82445 18.0801 5.0505 18.6252 5.45247 19.0271C5.85444 19.4291 6.39948 19.6551 6.96795 19.6557H17.0319C17.6004 19.6551 18.1455 19.4291 18.5474 19.0271C18.9494 18.6252 19.1754 18.0801 19.1759 17.5117V7.44701C19.1754 6.87854 18.9494 6.3335 18.5474 5.93153C18.1455 5.52957 17.6004 5.30352 17.0319 5.30301L6.96795 5.30365Z" fill="#202020"/>
<path d="M6.78722 10.4599C6.70317 10.4599 6.61995 10.4433 6.5423 10.4111C6.46465 10.379 6.3941 10.3318 6.33467 10.2724C6.27524 10.213 6.2281 10.1424 6.19593 10.0648C6.16377 9.98712 6.14722 9.9039 6.14722 9.81985V7.18785C6.14722 7.01811 6.21465 6.85533 6.33467 6.7353C6.45469 6.61528 6.61748 6.54785 6.78722 6.54785H9.39874C9.56848 6.54785 9.73126 6.61528 9.85129 6.7353C9.97131 6.85533 10.0387 7.01811 10.0387 7.18785C10.0387 7.35759 9.97131 7.52038 9.85129 7.6404C9.73126 7.76042 9.56848 7.82785 9.39874 7.82785H7.42722V9.81985C7.42722 9.9039 7.41066 9.98712 7.3785 10.0648C7.34634 10.1424 7.29919 10.213 7.23977 10.2724C7.18034 10.3318 7.10978 10.379 7.03213 10.4111C6.95449 10.4433 6.87126 10.4599 6.78722 10.4599ZM17.376 18.4544H14.7434C14.5736 18.4544 14.4109 18.387 14.2908 18.267C14.1708 18.1469 14.1034 17.9842 14.1034 17.8144C14.1034 17.6447 14.1708 17.4819 14.2908 17.3619C14.4109 17.2418 14.5736 17.1744 14.7434 17.1744H16.736V15.2029C16.736 15.0332 16.8034 14.8704 16.9235 14.7503C17.0435 14.6303 17.2063 14.5629 17.376 14.5629C17.5458 14.5629 17.7085 14.6303 17.8286 14.7503C17.9486 14.8704 18.016 15.0332 18.016 15.2029V17.8144C18.016 17.9842 17.9486 18.1469 17.8286 18.267C17.7085 18.387 17.5458 18.4544 17.376 18.4544Z" fill="#202020"/>
<path d="M17.3759 18.4544C17.2917 18.4544 17.2082 18.4378 17.1304 18.4056C17.0526 18.3733 16.9819 18.3259 16.9225 18.2663L6.33398 7.63938C6.21759 7.51848 6.15335 7.35669 6.1551 7.18888C6.15685 7.02106 6.22444 6.86065 6.34332 6.74219C6.4622 6.62374 6.62285 6.55671 6.79067 6.55556C6.95848 6.5544 7.12004 6.61921 7.24054 6.73602L17.829 17.3626C17.9183 17.4522 17.9791 17.5662 18.0036 17.6903C18.0281 17.8144 18.0154 17.9429 17.9669 18.0597C17.9184 18.1766 17.8364 18.2764 17.7312 18.3466C17.626 18.4169 17.5024 18.4544 17.3759 18.4544ZM17.3925 10.464C17.2228 10.464 17.06 10.3966 16.94 10.2766C16.82 10.1566 16.7525 9.99376 16.7525 9.82402V7.85218H14.7602C14.5905 7.85218 14.4277 7.78476 14.3077 7.66473C14.1876 7.54471 14.1202 7.38192 14.1202 7.21218C14.1202 7.04245 14.1876 6.87966 14.3077 6.75964C14.4277 6.63961 14.5905 6.57218 14.7602 6.57218H17.3925C17.5623 6.57218 17.7251 6.63961 17.8451 6.75964C17.9651 6.87966 18.0325 7.04245 18.0325 7.21218V9.82402C18.0325 9.99376 17.9651 10.1566 17.8451 10.2766C17.7251 10.3966 17.5623 10.464 17.3925 10.464ZM9.3775 18.4403H6.76598C6.59624 18.4403 6.43345 18.3729 6.31343 18.2529C6.1934 18.1329 6.12598 17.9701 6.12598 17.8003V15.168C6.12598 14.9983 6.1934 14.8355 6.31343 14.7155C6.43345 14.5955 6.59624 14.528 6.76598 14.528C6.93572 14.528 7.0985 14.5955 7.21852 14.7155C7.33855 14.8355 7.40598 14.9983 7.40598 15.168V17.16H9.3775C9.54723 17.16 9.71002 17.2275 9.83004 17.3475C9.95007 17.4675 10.0175 17.6303 10.0175 17.8C10.0175 17.9698 9.95007 18.1326 9.83004 18.2526C9.71002 18.3726 9.54723 18.44 9.3775 18.44V18.4403Z" fill="#202020"/>
<path d="M6.76609 18.4403C6.63945 18.4403 6.51566 18.4027 6.4104 18.3323C6.30514 18.2619 6.22313 18.1618 6.17476 18.0448C6.12638 17.9278 6.11381 17.799 6.13864 17.6748C6.16347 17.5506 6.22459 17.4366 6.31425 17.3472L16.9408 6.75871C17.0611 6.63888 17.224 6.57172 17.3938 6.57202C17.5635 6.57232 17.7262 6.64005 17.8461 6.76031C17.9659 6.88057 18.0331 7.04351 18.0328 7.21328C18.0325 7.38306 17.9647 7.54576 17.8445 7.66559L7.21792 18.2538C7.15857 18.313 7.08811 18.36 7.01058 18.392C6.93305 18.424 6.84997 18.4404 6.76609 18.4403Z" fill="#202020"/>
</svg>
