<svg width="24" height="24" viewBox="0 0 24 24" fill="none" xmlns="http://www.w3.org/2000/svg">
<path d="M18.2998 12.6398H5.11168C4.94194 12.6398 4.77915 12.5723 4.65913 12.4523C4.53911 12.3323 4.47168 12.1695 4.47168 11.9998C4.47168 11.83 4.53911 11.6673 4.65913 11.5472C4.77915 11.4272 4.94194 11.3598 5.11168 11.3598H18.2998C18.4696 11.3598 18.6324 11.4272 18.7524 11.5472C18.8724 11.6673 18.9398 11.83 18.9398 11.9998C18.9398 12.1695 18.8724 12.3323 18.7524 12.4523C18.6324 12.5723 18.4696 12.6398 18.2998 12.6398ZM18.2998 16.7486H5.11168C4.94194 16.7486 4.77915 16.6811 4.65913 16.5611C4.53911 16.4411 4.47168 16.2783 4.47168 16.1086C4.47168 15.9388 4.53911 15.7761 4.65913 15.656C4.77915 15.536 4.94194 15.4686 5.11168 15.4686H18.2998C18.4696 15.4686 18.6324 15.536 18.7524 15.656C18.8724 15.7761 18.9398 15.9388 18.9398 16.1086C18.9398 16.2783 18.8724 16.4411 18.7524 16.5611C18.6324 16.6811 18.4696 16.7486 18.2998 16.7486ZM18.2998 8.53098H5.11168C4.94194 8.53098 4.77915 8.46355 4.65913 8.34352C4.53911 8.2235 4.47168 8.06072 4.47168 7.89098C4.47168 7.72124 4.53911 7.55845 4.65913 7.43843C4.77915 7.3184 4.94194 7.25098 5.11168 7.25098H18.2998C18.4696 7.25098 18.6324 7.3184 18.7524 7.43843C18.8724 7.55845 18.9398 7.72124 18.9398 7.89098C18.9398 8.06072 18.8724 8.2235 18.7524 8.34352C18.6324 8.46355 18.4696 8.53098 18.2998 8.53098Z" fill="#202020"/>
</svg>
