<svg width="24" height="24" viewBox="0 0 24 24" fill="none" xmlns="http://www.w3.org/2000/svg">
<path d="M18.2996 12.64H5.11144C4.9417 12.64 4.77891 12.5726 4.65889 12.4526C4.53886 12.3325 4.47144 12.1698 4.47144 12C4.47144 11.8303 4.53886 11.6675 4.65889 11.5475C4.77891 11.4274 4.9417 11.36 5.11144 11.36H18.2996C18.4693 11.36 18.6321 11.4274 18.7521 11.5475C18.8722 11.6675 18.9396 11.8303 18.9396 12C18.9396 12.1698 18.8722 12.3325 18.7521 12.4526C18.6321 12.5726 18.4693 12.64 18.2996 12.64ZM18.2996 16.7488H5.11144C4.9417 16.7488 4.77891 16.6814 4.65889 16.5614C4.53886 16.4413 4.47144 16.2786 4.47144 16.1088C4.47144 15.9391 4.53886 15.7763 4.65889 15.6563C4.77891 15.5362 4.9417 15.4688 5.11144 15.4688H18.2996C18.4693 15.4688 18.6321 15.5362 18.7521 15.6563C18.8722 15.7763 18.9396 15.9391 18.9396 16.1088C18.9396 16.2786 18.8722 16.4413 18.7521 16.5614C18.6321 16.6814 18.4693 16.7488 18.2996 16.7488ZM18.2996 8.53122H5.11144C4.9417 8.53122 4.77891 8.46379 4.65889 8.34377C4.53886 8.22375 4.47144 8.06096 4.47144 7.89122C4.47144 7.72148 4.53886 7.5587 4.65889 7.43867C4.77891 7.31865 4.9417 7.25122 5.11144 7.25122H18.2996C18.4693 7.25122 18.6321 7.31865 18.7521 7.43867C18.8722 7.5587 18.9396 7.72148 18.9396 7.89122C18.9396 8.06096 18.8722 8.22375 18.7521 8.34377C18.6321 8.46379 18.4693 8.53122 18.2996 8.53122Z" fill="#202020"/>
</svg>
