<svg width="24" height="24" viewBox="0 0 24 24" fill="none" xmlns="http://www.w3.org/2000/svg">
<path d="M18.75 3H5.25C4.25544 3 3.30161 3.39509 2.59835 4.09835C1.89509 4.80161 1.5 5.75544 1.5 6.75V14.25C1.5 14.7425 1.597 15.2301 1.78545 15.6851C1.97391 16.14 2.25013 16.5534 2.59835 16.9017C3.30161 17.6049 4.25544 18 5.25 18H5.385C5.48423 18.0004 5.58239 18.0205 5.6738 18.0591C5.76521 18.0978 5.84804 18.1541 5.9175 18.225L8.04 20.3625C8.24903 20.5723 8.49742 20.7387 8.77091 20.8523C9.0444 20.9658 9.33762 21.0243 9.63375 21.0243C9.92988 21.0243 10.2231 20.9658 10.4966 20.8523C10.7701 20.7387 11.0185 20.5723 11.2275 20.3625L13.35 18.225C13.4885 18.0837 13.6772 18.0028 13.875 18H18.75C19.2425 18 19.7301 17.903 20.1851 17.7145C20.64 17.5261 21.0534 17.2499 21.4016 16.9017C21.7499 16.5534 22.0261 16.14 22.2145 15.6851C22.403 15.2301 22.5 14.7425 22.5 14.25V6.75C22.5 5.75544 22.1049 4.80161 21.4016 4.09835C20.6984 3.39509 19.7446 3 18.75 3ZM21 14.25C21 14.8467 20.7629 15.419 20.341 15.841C19.919 16.2629 19.3467 16.5 18.75 16.5H13.875C13.5791 16.5012 13.2864 16.5608 13.0135 16.6754C12.7407 16.7899 12.4931 16.9572 12.285 17.1675L10.1625 19.305C10.022 19.4447 9.83189 19.5231 9.63375 19.5231C9.43561 19.5231 9.24552 19.4447 9.105 19.305L6.9825 17.145C6.77165 16.9378 6.52204 16.7742 6.24793 16.6635C5.97382 16.5529 5.68059 16.4973 5.385 16.5H5.25C4.65326 16.5 4.08097 16.2629 3.65901 15.841C3.23705 15.419 3 14.8467 3 14.25V6.75C3 6.15326 3.23705 5.58097 3.65901 5.15901C4.08097 4.73705 4.65326 4.5 5.25 4.5H18.75C19.3467 4.5 19.919 4.73705 20.341 5.15901C20.7629 5.58097 21 6.15326 21 6.75V14.25Z" fill="#202020"/>
</svg>
