<svg width="24" height="24" viewBox="0 0 24 24" fill="none" xmlns="http://www.w3.org/2000/svg">
<path d="M11.9859 20.9676H11.9709C11.8482 20.9648 11.7289 20.9267 11.6272 20.858C11.5255 20.7892 11.4458 20.6926 11.3974 20.5798L10.1859 17.75H6.49601C4.86849 17.75 3.54401 16.2732 3.54401 14.4582V8.88445C3.54401 7.06909 4.86849 5.59229 6.49601 5.59229H17.504C19.1315 5.59229 20.456 7.06909 20.456 8.88445V14.4579C20.456 16.2729 19.1315 17.7497 17.504 17.7497H13.9456L12.5619 20.608C12.5093 20.7159 12.4274 20.8069 12.3256 20.8705C12.2237 20.9341 12.106 20.9678 11.9859 20.9676ZM6.49601 6.87229C5.57409 6.87229 4.82401 7.77501 4.82401 8.88445V14.4579C4.82401 15.5673 5.57409 16.4697 6.49601 16.4697H10.608C10.7333 16.4697 10.8559 16.5065 10.9605 16.5755C11.0651 16.6445 11.1472 16.7427 11.1965 16.8579L12.0218 18.784L12.9683 16.832C13.0207 16.7238 13.1026 16.6325 13.2044 16.5687C13.3063 16.5049 13.4241 16.471 13.5443 16.471H17.504C18.4259 16.471 19.176 15.5686 19.176 14.4592V8.88445C19.176 7.77501 18.4259 6.87229 17.504 6.87229H6.49601Z" fill="#202020"/>
<path d="M9.15615 13.9767C8.98986 13.9767 8.8301 13.9119 8.71071 13.7962L7.40095 12.5274C7.34021 12.4686 7.29174 12.3983 7.25834 12.3206C7.22493 12.2429 7.20726 12.1593 7.20634 12.0748C7.20541 11.9902 7.22126 11.9063 7.25296 11.8279C7.28466 11.7495 7.33159 11.6781 7.39103 11.618L8.77791 10.2138C8.8366 10.1524 8.90693 10.1033 8.98478 10.0694C9.06263 10.0355 9.14646 10.0174 9.23138 10.0162C9.31629 10.015 9.4006 10.0307 9.47938 10.0624C9.55817 10.0941 9.62985 10.1412 9.69026 10.2009C9.75067 10.2606 9.7986 10.3317 9.83125 10.4101C9.8639 10.4885 9.88062 10.5726 9.88044 10.6575C9.88026 10.7424 9.86318 10.8265 9.83019 10.9047C9.7972 10.983 9.74897 11.0539 9.68831 11.1133L8.75583 12.0576L9.59999 12.8768C9.69157 12.9655 9.75459 13.0795 9.78098 13.2042C9.80737 13.3289 9.79592 13.4586 9.74811 13.5768C9.70029 13.6949 9.61828 13.7961 9.51258 13.8674C9.40689 13.9386 9.28233 13.9767 9.15487 13.9767H9.15615ZM14.8438 13.9767C14.7165 13.9764 14.5921 13.9382 14.4866 13.8668C14.3811 13.7955 14.2993 13.6943 14.2516 13.5762C14.204 13.4581 14.1926 13.3285 14.2191 13.2039C14.2455 13.0793 14.3085 12.9654 14.4 12.8768L15.2454 12.0576L14.3129 11.1133C14.2523 11.0539 14.2041 10.983 14.1711 10.9047C14.1381 10.8265 14.121 10.7424 14.1208 10.6575C14.1206 10.5726 14.1374 10.4885 14.17 10.4101C14.2027 10.3317 14.2506 10.2606 14.311 10.2009C14.3714 10.1412 14.4431 10.0941 14.5219 10.0624C14.6007 10.0307 14.685 10.015 14.7699 10.0162C14.8548 10.0174 14.9386 10.0355 15.0165 10.0694C15.0943 10.1033 15.1647 10.1524 15.2233 10.2138L16.608 11.618C16.6674 11.6781 16.7144 11.7495 16.7461 11.8279C16.7778 11.9063 16.7936 11.9902 16.7927 12.0748C16.7918 12.1593 16.7741 12.2429 16.7407 12.3206C16.7073 12.3983 16.6588 12.4686 16.5981 12.5274L15.2883 13.7962C15.1692 13.9117 15.0098 13.9764 14.8438 13.9767ZM11.0208 14.7479C10.9143 14.7479 10.8095 14.7213 10.7159 14.6705C10.6223 14.6197 10.5428 14.5464 10.4847 14.4572C10.4266 14.368 10.3916 14.2656 10.383 14.1595C10.3745 14.0533 10.3925 13.9467 10.4355 13.8493L12.3805 9.4474C12.4132 9.36872 12.4613 9.29737 12.522 9.23753C12.5827 9.1777 12.6547 9.13058 12.7338 9.09895C12.8129 9.06731 12.8976 9.0518 12.9828 9.05332C13.068 9.05485 13.152 9.07337 13.23 9.1078C13.3079 9.14224 13.3782 9.1919 13.4367 9.25386C13.4952 9.31583 13.5408 9.38885 13.5707 9.46865C13.6006 9.54845 13.6142 9.63342 13.6109 9.71857C13.6075 9.80372 13.5872 9.88734 13.551 9.96452L11.6064 14.368C11.556 14.4812 11.4739 14.5774 11.3699 14.6448C11.266 14.7122 11.1447 14.7481 11.0208 14.7479Z" fill="#202020"/>
</svg>
