<svg width="24" height="24" viewBox="0 0 24 24" fill="none" xmlns="http://www.w3.org/2000/svg">
<path d="M8.08155 19.6877C7.99699 19.6877 7.91326 19.6709 7.83522 19.6384C7.75717 19.6058 7.68634 19.5582 7.62683 19.4981C7.56732 19.438 7.52031 19.3667 7.48851 19.2884C7.4567 19.21 7.44074 19.1262 7.44155 19.0416L7.46555 16.4698H6.49595C4.86843 16.4698 3.54395 14.993 3.54395 13.1779V7.60448C3.54395 5.78912 4.86843 4.31232 6.49595 4.31232H17.5039C19.1315 4.31232 20.4559 5.78912 20.4559 7.60448V13.1459C20.4557 14.0043 20.117 14.828 19.5132 15.4381C18.9094 16.0482 18.0893 16.3956 17.231 16.4048L11.3315 16.4669L8.55227 19.4813C8.49233 19.5463 8.41955 19.5983 8.33854 19.6338C8.25752 19.6693 8.17001 19.6877 8.08155 19.6877ZM6.49595 5.59232C5.57403 5.59232 4.82395 6.49504 4.82395 7.60448V13.1779C4.82395 14.2874 5.57403 15.1898 6.49595 15.1898H8.11195C8.19651 15.1898 8.28023 15.2065 8.35828 15.239C8.43632 15.2716 8.50715 15.3193 8.56666 15.3794C8.62617 15.4394 8.67318 15.5107 8.70498 15.5891C8.73679 15.6674 8.75275 15.7513 8.75195 15.8358L8.73595 17.3923L10.5766 15.3962C10.6357 15.332 10.7074 15.2805 10.7871 15.245C10.8668 15.2095 10.953 15.1907 11.0403 15.1898L17.2163 15.1258C17.737 15.1185 18.234 14.9071 18.6003 14.537C18.9666 14.1668 19.1729 13.6676 19.1747 13.1469V7.60448C19.1747 6.49504 18.4246 5.59232 17.5027 5.59232H6.49595Z" fill="#202020"/>
<path d="M11.1661 11.632V11.536C11.168 11.2075 11.1976 10.9455 11.2547 10.7501C11.3008 10.5756 11.3867 10.4141 11.5056 10.2784C11.6245 10.1525 11.7594 10.0427 11.9069 9.952C12.0677 9.85116 12.2145 9.72946 12.3434 9.59008C12.4611 9.46158 12.5247 9.29263 12.521 9.1184C12.521 8.9232 12.4538 8.76693 12.3194 8.6496C12.1852 8.53215 12.0119 8.46934 11.8336 8.4736C11.6525 8.47241 11.4771 8.53635 11.3392 8.65376C11.1939 8.77408 11.1165 8.94869 11.1069 9.1776H9.95776C9.96715 8.80213 10.0573 8.49141 10.2282 8.24544C10.3971 8.00102 10.6327 7.8103 10.9069 7.696C11.2023 7.5726 11.5198 7.51075 11.84 7.51424C12.2133 7.51424 12.544 7.57579 12.832 7.69888C13.1033 7.80906 13.3377 7.99406 13.5078 8.23232C13.6715 8.46528 13.7532 8.74602 13.753 9.07456C13.7528 9.40309 13.6734 9.67819 13.5149 9.89984C13.3451 10.1298 13.1293 10.3219 12.8813 10.464C12.6598 10.5973 12.4975 10.741 12.3942 10.895C12.291 11.0491 12.2377 11.2631 12.2342 11.5373V11.6333L11.1661 11.632ZM11.721 13.4346C11.6318 13.436 11.5432 13.4193 11.4607 13.3854C11.3782 13.3515 11.3034 13.3012 11.241 13.2374C11.1763 13.1757 11.1253 13.1011 11.0914 13.0184C11.0574 12.9357 11.0412 12.8468 11.0438 12.7574C11.0418 12.6691 11.0582 12.5814 11.0922 12.4999C11.1261 12.4184 11.1768 12.3449 11.241 12.2842C11.3034 12.2218 11.3774 12.1722 11.459 12.1385C11.5405 12.1047 11.6279 12.0873 11.7162 12.0873C11.8044 12.0873 11.8918 12.1047 11.9733 12.1385C12.0549 12.1722 12.129 12.2218 12.1914 12.2842C12.2858 12.3778 12.3503 12.4974 12.3767 12.6278C12.4032 12.7581 12.3903 12.8934 12.3398 13.0165C12.2893 13.1395 12.2034 13.2448 12.093 13.319C11.9826 13.3932 11.8527 13.433 11.7197 13.4333L11.721 13.4346Z" fill="#202020"/>
</svg>
