<svg width="24" height="24" viewBox="0 0 24 24" fill="none" xmlns="http://www.w3.org/2000/svg">
<path d="M13.28 18.2813C10.8739 18.2813 8.9165 16.3242 8.9165 13.9181V7.7552C8.91618 5.34944 10.8736 3.392 13.28 3.392C15.6864 3.392 17.6432 5.34944 17.6432 7.7552V13.9181C17.6429 16.3242 15.6855 18.2813 13.28 18.2813ZM13.28 4.672C12.4625 4.67285 11.6788 4.99794 11.1007 5.57596C10.5226 6.15398 10.1974 6.93771 10.1965 7.7552V13.9181C10.1974 14.7356 10.5226 15.5193 11.1007 16.0973C11.6788 16.6753 12.4625 17.0004 13.28 17.0013C14.0975 17.0003 14.8811 16.6752 15.4591 16.0972C16.0372 15.5192 16.3623 14.7355 16.3632 13.9181V7.7552C16.3623 6.93777 16.0372 6.15409 15.4591 5.57608C14.8811 4.99807 14.0975 4.67293 13.28 4.672Z" fill="#202020"/>
<path d="M13.6921 20.5498H12.8668C9.5654 20.5498 6.87964 17.8637 6.87964 14.5622C6.87964 14.3925 6.94707 14.2297 7.06709 14.1097C7.18711 13.9897 7.3499 13.9222 7.51964 13.9222C7.68938 13.9222 7.85216 13.9897 7.97219 14.1097C8.09221 14.2297 8.15964 14.3925 8.15964 14.5622C8.15964 17.1578 10.2716 19.2698 12.8668 19.2698H13.6921C16.288 19.2698 18.3996 17.1578 18.3996 14.5622C18.3996 14.3925 18.4671 14.2297 18.5871 14.1097C18.7071 13.9897 18.8699 13.9222 19.0396 13.9222C19.2094 13.9222 19.3722 13.9897 19.4922 14.1097C19.6122 14.2297 19.6796 14.3925 19.6796 14.5622C19.68 17.8637 16.9936 20.5498 13.6921 20.5498ZM14.1945 8.27584H11.8905C11.7208 8.27584 11.558 8.20841 11.438 8.08839C11.3179 7.96837 11.2505 7.80558 11.2505 7.63584C11.2505 7.4661 11.3179 7.30332 11.438 7.18329C11.558 7.06327 11.7208 6.99584 11.8905 6.99584H14.1945C14.3643 6.99584 14.527 7.06327 14.6471 7.18329C14.7671 7.30332 14.8345 7.4661 14.8345 7.63584C14.8345 7.80558 14.7671 7.96837 14.6471 8.08839C14.527 8.20841 14.3643 8.27584 14.1945 8.27584ZM14.1036 10.2749H11.8905C11.7208 10.2749 11.558 10.2075 11.438 10.0874C11.3179 9.96741 11.2505 9.80462 11.2505 9.63488C11.2505 9.46514 11.3179 9.30236 11.438 9.18233C11.558 9.06231 11.7208 8.99488 11.8905 8.99488H14.1036C14.2734 8.99488 14.4362 9.06231 14.5562 9.18233C14.6762 9.30236 14.7436 9.46514 14.7436 9.63488C14.7436 9.80462 14.6762 9.96741 14.5562 10.0874C14.4362 10.2075 14.2734 10.2749 14.1036 10.2749Z" fill="#202020"/>
<path d="M6.49608 20.9251C6.37848 20.925 6.26319 20.8924 6.16288 20.831C6.06257 20.7696 5.98111 20.6818 5.92744 20.5772C5.87378 20.4725 5.84999 20.3551 5.85868 20.2378C5.86738 20.1205 5.90822 20.0079 5.97672 19.9123L17.6321 3.65888C17.6811 3.59057 17.7431 3.53258 17.8145 3.48822C17.8859 3.44387 17.9653 3.41401 18.0483 3.40035C18.1312 3.3867 18.216 3.38952 18.2979 3.40865C18.3798 3.42777 18.4571 3.46284 18.5254 3.51184C18.5937 3.56084 18.6517 3.62281 18.696 3.69422C18.7404 3.76563 18.7702 3.84508 18.7839 3.92802C18.7975 4.01097 18.7947 4.0958 18.7756 4.17766C18.7565 4.25952 18.7214 4.33681 18.6724 4.40512L7.01704 20.6582C6.95769 20.741 6.87947 20.8083 6.78886 20.8547C6.69826 20.9011 6.59788 20.9253 6.49608 20.9251Z" fill="#202020"/>
</svg>
