<svg width="24" height="24" viewBox="0 0 24 24" fill="none" xmlns="http://www.w3.org/2000/svg">
<path d="M12.864 12.384C12.731 12.384 12.6012 12.3426 12.4928 12.2655C12.3844 12.1883 12.3028 12.0793 12.2592 11.9536L10.5213 6.94402C10.4937 6.8646 10.4821 6.78053 10.4871 6.69661C10.492 6.6127 10.5135 6.53058 10.5502 6.45496C10.5869 6.37933 10.6381 6.31167 10.701 6.25585C10.7638 6.20003 10.837 6.15714 10.9165 6.12962L19.8125 3.04514C19.8919 3.0176 19.976 3.00598 20.0599 3.01094C20.1438 3.0159 20.2259 3.03734 20.3015 3.07404C20.3772 3.11074 20.4448 3.16198 20.5006 3.22483C20.5565 3.28768 20.5994 3.36091 20.6269 3.44034L22.3632 8.44802C22.3907 8.52744 22.4024 8.61151 22.3974 8.69543C22.3924 8.77934 22.371 8.86146 22.3343 8.93709C22.2976 9.01271 22.2464 9.08037 22.1835 9.13619C22.1207 9.19201 22.0474 9.23491 21.968 9.26242L13.072 12.3469C13.0052 12.3708 12.9349 12.3833 12.864 12.384ZM11.9405 7.13026L13.2573 10.929L20.944 8.26402L19.6269 4.4653L11.9405 7.13026Z" fill="#202020"/>
<path d="M7.136 13.2621C7.00289 13.2623 6.87304 13.2209 6.76452 13.1438C6.65601 13.0667 6.57423 12.9577 6.53057 12.832L5.47969 9.80064C5.42406 9.64028 5.43441 9.46438 5.50846 9.31166C5.58251 9.15893 5.71421 9.04187 5.87457 8.98624L11.2592 7.11936C11.4195 7.06383 11.5953 7.07423 11.748 7.14827C11.9006 7.22232 12.0176 7.35395 12.0733 7.51424L13.1245 10.5456C13.152 10.625 13.1636 10.7091 13.1587 10.793C13.1537 10.8769 13.1323 10.959 13.0956 11.0347C13.0589 11.1103 13.0076 11.1779 12.9448 11.2338C12.8819 11.2896 12.8087 11.3325 12.7293 11.36L7.34496 13.2266C7.27777 13.2499 7.20715 13.2619 7.136 13.2621ZM6.89921 9.9856L7.53025 11.808L11.7053 10.3603L11.0736 8.53824L6.89921 9.9856Z" fill="#202020"/>
<path d="M3.01823 14.2464C2.88525 14.2464 2.75558 14.2049 2.64725 14.1277C2.53892 14.0506 2.45731 13.9417 2.41375 13.816L1.63679 11.576C1.60921 11.4966 1.59755 11.4125 1.60248 11.3285C1.60742 11.2446 1.62885 11.1624 1.66555 11.0867C1.70225 11.0111 1.75351 10.9434 1.81638 10.8875C1.87926 10.8317 1.95253 10.7888 2.03199 10.7613L6.01183 9.38144C6.17215 9.32591 6.34796 9.33631 6.50062 9.41036C6.65327 9.48441 6.77028 9.61604 6.82591 9.77632L7.60287 12.0163C7.63061 12.0958 7.64238 12.18 7.63752 12.2641C7.63266 12.3481 7.61126 12.4304 7.57454 12.5062C7.53783 12.5819 7.48653 12.6497 7.42357 12.7056C7.36062 12.7616 7.28725 12.8045 7.20767 12.832L3.22815 14.2112C3.1606 14.2344 3.08967 14.2463 3.01823 14.2464ZM3.05599 11.761L3.41343 12.792L6.18367 11.832L5.82623 10.801L3.05599 11.761ZM9.05215 20.9894C8.95034 20.9893 8.85003 20.9648 8.75956 20.9181C8.6691 20.8714 8.59109 20.8037 8.53201 20.7208C8.47293 20.6379 8.43449 20.5421 8.41987 20.4413C8.40526 20.3405 8.4149 20.2377 8.44799 20.1414L11.6051 10.937C11.648 10.8118 11.7286 10.7031 11.8358 10.6257C11.9431 10.5482 12.0716 10.5059 12.2039 10.5045C12.3362 10.5032 12.4656 10.5428 12.5744 10.618C12.6832 10.6932 12.766 10.8003 12.8115 10.9245L16.1802 20.128C16.2385 20.2874 16.2311 20.4635 16.1597 20.6175C16.0882 20.7715 15.9585 20.8908 15.799 20.9491C15.6396 21.0075 15.4635 21.0001 15.3095 20.9286C15.1556 20.8571 15.0363 20.7274 14.9779 20.568L12.2291 13.0586L9.65727 20.5568C9.61406 20.683 9.53251 20.7925 9.42402 20.8701C9.31553 20.9476 9.18552 20.9894 9.05215 20.9894Z" fill="#202020"/>
</svg>
