<svg width="24" height="24" viewBox="0 0 24 24" fill="none" xmlns="http://www.w3.org/2000/svg">
<path d="M12.2729 18.2813C9.86679 18.2813 7.90967 16.3242 7.90967 13.9181V7.7552C7.90967 5.34944 9.86679 3.392 12.2729 3.392C14.6789 3.392 16.6361 5.34944 16.6361 7.7552V13.9181C16.6361 16.3242 14.6789 18.2813 12.2729 18.2813ZM12.2729 4.672C11.4554 4.67293 10.6718 4.99807 10.0937 5.57608C9.51573 6.15409 9.1906 6.93777 9.18967 7.7552V13.9181C9.1906 14.7355 9.51573 15.5192 10.0937 16.0972C10.6718 16.6752 11.4554 17.0003 12.2729 17.0013C13.0903 17.0003 13.874 16.6752 14.452 16.0972C15.03 15.5192 15.3551 14.7355 15.3561 13.9181V7.7552C15.3551 6.93777 15.03 6.15409 14.452 5.57608C13.874 4.99807 13.0903 4.67293 12.2729 4.672Z" fill="#202020"/>
<path d="M12.6855 20.5498H11.8606C8.55913 20.5498 5.87305 17.8637 5.87305 14.5622C5.87305 14.3925 5.94048 14.2297 6.0605 14.1097C6.18052 13.9897 6.34331 13.9222 6.51305 13.9222C6.68279 13.9222 6.84557 13.9897 6.9656 14.1097C7.08562 14.2297 7.15305 14.3925 7.15305 14.5622C7.15305 17.1578 9.26505 19.2698 11.8606 19.2698H12.6855C15.2814 19.2698 17.393 17.1578 17.393 14.5622C17.393 14.3925 17.4605 14.2297 17.5805 14.1097C17.7005 13.9897 17.8633 13.9222 18.033 13.9222C18.2028 13.9222 18.3656 13.9897 18.4856 14.1097C18.6056 14.2297 18.673 14.3925 18.673 14.5622C18.673 17.8637 15.987 20.5498 12.6855 20.5498ZM13.1879 8.27584H10.8839C10.7142 8.27584 10.5514 8.20841 10.4314 8.08839C10.3114 7.96837 10.2439 7.80558 10.2439 7.63584C10.2439 7.4661 10.3114 7.30332 10.4314 7.18329C10.5514 7.06327 10.7142 6.99584 10.8839 6.99584H13.1879C13.3577 6.99584 13.5205 7.06327 13.6405 7.18329C13.7605 7.30332 13.8279 7.4661 13.8279 7.63584C13.8279 7.80558 13.7605 7.96837 13.6405 8.08839C13.5205 8.20841 13.3577 8.27584 13.1879 8.27584ZM13.1879 10.2749H10.8839C10.7142 10.2749 10.5514 10.2075 10.4314 10.0874C10.3114 9.96741 10.2439 9.80462 10.2439 9.63488C10.2439 9.46514 10.3114 9.30236 10.4314 9.18233C10.5514 9.06231 10.7142 8.99488 10.8839 8.99488H13.1879C13.3577 8.99488 13.5205 9.06231 13.6405 9.18233C13.7605 9.30236 13.8279 9.46514 13.8279 9.63488C13.8279 9.80462 13.7605 9.96741 13.6405 10.0874C13.5205 10.2075 13.3577 10.2749 13.1879 10.2749Z" fill="#202020"/>
</svg>
