<svg width="24" height="24" viewBox="0 0 24 24" fill="none" xmlns="http://www.w3.org/2000/svg">
<path d="M6.35529 20.8291C6.23766 20.829 6.12233 20.7965 6.02197 20.7351C5.92161 20.6738 5.84011 20.586 5.7864 20.4813C5.7327 20.3766 5.70889 20.2592 5.71757 20.1419C5.72625 20.0246 5.76709 19.9119 5.83561 19.8163L17.4913 3.56288C17.5902 3.42497 17.7399 3.33201 17.9074 3.30447C18.0749 3.27692 18.2465 3.31704 18.3844 3.416C18.5223 3.51496 18.6153 3.66465 18.6428 3.83214C18.6704 3.99963 18.6302 4.17121 18.5313 4.30912L6.87593 20.5622C6.81661 20.6449 6.73844 20.7122 6.64789 20.7587C6.55734 20.8051 6.45704 20.8292 6.35529 20.8291Z" fill="#202020"/>
<path d="M12.6164 15.3155C11.6364 15.3143 10.6968 14.9245 10.0039 14.2315C9.31095 13.5385 8.92117 12.5989 8.92007 11.6189V6.56C8.91093 6.06885 8.99978 5.5808 9.18141 5.12438C9.36305 4.66795 9.63384 4.25231 9.97795 3.90173C10.3221 3.55116 10.7326 3.27268 11.1856 3.08259C11.6385 2.89249 12.1248 2.79458 12.6161 2.79458C13.1073 2.79458 13.5936 2.89249 14.0466 3.08259C14.4996 3.27268 14.9101 3.55116 15.2542 3.90173C15.5983 4.25231 15.8691 4.66795 16.0507 5.12438C16.2324 5.5808 16.3212 6.06885 16.3121 6.56V11.6189C16.311 12.5988 15.9213 13.5383 15.2285 14.2312C14.5357 14.9242 13.5963 15.3142 12.6164 15.3155ZM12.6164 4.14336C11.9757 4.14404 11.3614 4.39888 10.9084 4.85195C10.4554 5.30502 10.2007 5.91931 10.2001 6.56V11.6189C10.1927 11.9408 10.2497 12.261 10.3678 12.5606C10.4858 12.8602 10.6626 13.1332 10.8877 13.3635C11.1128 13.5939 11.3816 13.7769 11.6784 13.9018C11.9752 14.0268 12.294 14.0911 12.6161 14.0911C12.9381 14.0911 13.2569 14.0268 13.5537 13.9018C13.8505 13.7769 14.1194 13.5939 14.3444 13.3635C14.5695 13.1332 14.7463 12.8602 14.8644 12.5606C14.9825 12.261 15.0395 11.9408 15.0321 11.6189V6.56C15.0314 5.91944 14.7767 5.3053 14.3238 4.85227C13.871 4.39923 13.257 4.14429 12.6164 4.14336Z" fill="#202020"/>
<path d="M12.9552 17.1776H12.2778C9.50405 17.1776 7.24805 14.9213 7.24805 12.1478C7.24805 11.9781 7.31548 11.8153 7.4355 11.6953C7.55552 11.5753 7.71831 11.5078 7.88805 11.5078C8.05779 11.5078 8.22057 11.5753 8.3406 11.6953C8.46062 11.8153 8.52805 11.9781 8.52805 12.1478C8.52923 13.142 8.92468 14.0951 9.62764 14.798C10.3306 15.501 11.2837 15.8964 12.2778 15.8976H12.9552C13.9492 15.8962 14.902 15.5006 15.6048 14.7977C16.3076 14.0947 16.7029 13.1418 16.704 12.1478C16.704 11.9781 16.7715 11.8153 16.8915 11.6953C17.0115 11.5753 17.1743 11.5078 17.344 11.5078C17.5138 11.5078 17.6766 11.5753 17.7966 11.6953C17.9166 11.8153 17.984 11.9781 17.984 12.1478C17.984 14.9213 15.7287 17.1776 12.9552 17.1776ZM13.3674 8.74272H11.4762C11.3065 8.74272 11.1437 8.67529 11.0237 8.55527C10.9036 8.43524 10.8362 8.27246 10.8362 8.10272C10.8362 7.93298 10.9036 7.77019 11.0237 7.65017C11.1437 7.53015 11.3065 7.46272 11.4762 7.46272H13.3674C13.5371 7.46272 13.6999 7.53015 13.82 7.65017C13.94 7.77019 14.0074 7.93298 14.0074 8.10272C14.0074 8.27246 13.94 8.43524 13.82 8.55527C13.6999 8.67529 13.5371 8.74272 13.3674 8.74272ZM13.3674 7.03168H11.4762C11.3065 7.03168 11.1437 6.96425 11.0237 6.84423C10.9036 6.7242 10.8362 6.56142 10.8362 6.39168C10.8362 6.22194 10.9036 6.05915 11.0237 5.93913C11.1437 5.81911 11.3065 5.75168 11.4762 5.75168H13.3674C13.5371 5.75168 13.6999 5.81911 13.82 5.93913C13.94 6.05915 14.0074 6.22194 14.0074 6.39168C14.0074 6.56142 13.94 6.7242 13.82 6.84423C13.6999 6.96425 13.5371 7.03168 13.3674 7.03168Z" fill="#202020"/>
<path d="M12.6163 21.0157C12.4466 21.0157 12.2838 20.9483 12.1638 20.8282C12.0437 20.7082 11.9763 20.5454 11.9763 20.3757V16.5376C11.9763 16.3679 12.0437 16.2051 12.1638 16.0851C12.2838 15.965 12.4466 15.8976 12.6163 15.8976C12.7861 15.8976 12.9488 15.965 13.0689 16.0851C13.1889 16.2051 13.2563 16.3679 13.2563 16.5376V20.3757C13.2563 20.5454 13.1889 20.7082 13.0689 20.8282C12.9488 20.9483 12.7861 21.0157 12.6163 21.0157Z" fill="#202020"/>
</svg>
