<svg width="24" height="24" viewBox="0 0 24 24" fill="none" xmlns="http://www.w3.org/2000/svg">
<path d="M12.9251 15.3155C11.945 15.3144 11.0054 14.9246 10.3124 14.2316C9.61934 13.5386 9.22952 12.599 9.22842 11.6189V6.56C9.21928 6.06885 9.30813 5.5808 9.48976 5.12438C9.6714 4.66795 9.94219 4.25231 10.2863 3.90173C10.6304 3.55116 11.0409 3.27268 11.4939 3.08259C11.9469 2.89249 12.4332 2.79458 12.9244 2.79458C13.4157 2.79458 13.902 2.89249 14.3549 3.08259C14.8079 3.27268 15.2184 3.55116 15.5625 3.90173C15.9067 4.25231 16.1774 4.66795 16.3591 5.12438C16.5407 5.5808 16.6296 6.06885 16.6204 6.56V11.6189C16.6193 12.5987 16.2297 13.5382 15.5369 14.2311C14.8442 14.9241 13.9049 15.3141 12.9251 15.3155ZM12.9251 4.14336C12.2843 4.14404 11.67 4.39887 11.217 4.85193C10.7639 5.30499 10.5091 5.91928 10.5084 6.56V11.6189C10.501 11.9408 10.558 12.261 10.6761 12.5606C10.7942 12.8602 10.971 13.1332 11.196 13.3635C11.4211 13.5939 11.69 13.7769 11.9868 13.9018C12.2836 14.0268 12.6024 14.0911 12.9244 14.0911C13.2465 14.0911 13.5653 14.0268 13.8621 13.9018C14.1589 13.7769 14.4277 13.5939 14.6528 13.3635C14.8779 13.1332 15.0547 12.8602 15.1727 12.5606C15.2908 12.261 15.3478 11.9408 15.3404 11.6189V6.56C15.3397 5.9195 15.0851 5.3054 14.6323 4.85238C14.1795 4.39936 13.5656 4.14438 12.9251 4.14336Z" fill="#202020"/>
<path d="M13.2636 17.1776H12.5865C9.81304 17.1776 7.5564 14.9213 7.5564 12.1478C7.5564 11.9781 7.62382 11.8153 7.74385 11.6953C7.86387 11.5753 8.02666 11.5078 8.1964 11.5078C8.36614 11.5078 8.52892 11.5753 8.64894 11.6953C8.76897 11.8153 8.8364 11.9781 8.8364 12.1478C8.83758 13.142 9.23307 14.0952 9.9361 14.7981C10.6391 15.5011 11.5923 15.8965 12.5865 15.8976H13.2636C14.2578 15.8965 15.2109 15.5011 15.914 14.7981C16.617 14.0952 17.0125 13.142 17.0137 12.1478C17.0137 11.9781 17.0811 11.8153 17.2011 11.6953C17.3211 11.5753 17.4839 11.5078 17.6537 11.5078C17.8234 11.5078 17.9862 11.5753 18.1062 11.6953C18.2262 11.8153 18.2937 11.9781 18.2937 12.1478C18.2937 14.9213 16.0374 17.1776 13.2636 17.1776ZM13.6761 8.74272H11.7846C11.6148 8.74272 11.452 8.67529 11.332 8.55527C11.212 8.43524 11.1446 8.27246 11.1446 8.10272C11.1446 7.93298 11.212 7.77019 11.332 7.65017C11.452 7.53015 11.6148 7.46272 11.7846 7.46272H13.6761C13.8458 7.46272 14.0086 7.53015 14.1286 7.65017C14.2486 7.77019 14.3161 7.93298 14.3161 8.10272C14.3161 8.27246 14.2486 8.43524 14.1286 8.55527C14.0086 8.67529 13.8458 8.74272 13.6761 8.74272ZM13.6761 7.03168H11.7846C11.6148 7.03168 11.452 6.96425 11.332 6.84423C11.212 6.7242 11.1446 6.56142 11.1446 6.39168C11.1446 6.22194 11.212 6.05915 11.332 5.93913C11.452 5.81911 11.6148 5.75168 11.7846 5.75168H13.6761C13.8458 5.75168 14.0086 5.81911 14.1286 5.93913C14.2486 6.05915 14.3161 6.22194 14.3161 6.39168C14.3161 6.56142 14.2486 6.7242 14.1286 6.84423C14.0086 6.96425 13.8458 7.03168 13.6761 7.03168Z" fill="#202020"/>
<path d="M12.9252 21.0157C12.7554 21.0157 12.5926 20.9483 12.4726 20.8282C12.3526 20.7082 12.2852 20.5454 12.2852 20.3757V16.5376C12.2852 16.3679 12.3526 16.2051 12.4726 16.0851C12.5926 15.965 12.7554 15.8976 12.9252 15.8976C13.0949 15.8976 13.2577 15.965 13.3777 16.0851C13.4977 16.2051 13.5652 16.3679 13.5652 16.5376V20.3757C13.5652 20.5454 13.4977 20.7082 13.3777 20.8282C13.2577 20.9483 13.0949 21.0157 12.9252 21.0157Z" fill="#202020"/>
</svg>
