<svg width="24" height="24" viewBox="0 0 24 24" fill="none" xmlns="http://www.w3.org/2000/svg">
<path d="M14.9014 20.0592H8.29437C7.82057 20.0587 7.3663 19.8703 7.03133 19.5352C6.69635 19.2001 6.50807 18.7458 6.50781 18.272V10.422C6.50827 10.1809 6.55734 9.94226 6.65207 9.72047C6.7468 9.49868 6.88526 9.29825 7.05917 9.13117L9.27965 7.00572C9.39871 6.8918 9.55711 6.82819 9.72189 6.82812H13.4275C13.5904 6.82813 13.7472 6.89027 13.8659 7.00188L16.1251 9.12637C16.3024 9.29368 16.4437 9.49538 16.5404 9.71914C16.6372 9.9429 16.6872 10.184 16.6877 10.4278V18.272C16.6874 18.7457 16.4992 19.2 16.1643 19.5351C15.8294 19.8702 15.3752 20.0587 14.9014 20.0592ZM9.97981 8.10813L7.94429 10.056C7.89493 10.1033 7.85562 10.1602 7.82873 10.2231C7.80185 10.286 7.78793 10.3536 7.78781 10.422V18.272C7.78798 18.4062 7.84142 18.5349 7.93639 18.6299C8.03136 18.7248 8.16011 18.7781 8.29437 18.7782H14.9014C15.0356 18.778 15.1643 18.7246 15.2592 18.6297C15.3541 18.5348 15.4075 18.4062 15.4077 18.272V10.4278C15.4074 10.3587 15.3931 10.2903 15.3656 10.2269C15.3381 10.1634 15.298 10.1063 15.2477 10.0588L13.1731 8.10684L9.97981 8.10813Z" fill="#202020"/>
<path d="M13.5638 8.10808H9.57533C9.12128 8.10808 8.68583 7.92771 8.36477 7.60665C8.0437 7.28559 7.86333 6.85013 7.86333 6.39608C7.86333 5.94203 8.0437 5.50658 8.36477 5.18552C8.68583 4.86445 9.12128 4.68408 9.57533 4.68408H13.5638C14.0179 4.68408 14.4533 4.86445 14.7744 5.18552C15.0954 5.50658 15.2758 5.94203 15.2758 6.39608C15.2758 6.85013 15.0954 7.28559 14.7744 7.60665C14.4533 7.92771 14.0179 8.10808 13.5638 8.10808ZM9.57533 5.96408C9.46076 5.96408 9.35088 6.0096 9.26986 6.09061C9.18885 6.17163 9.14333 6.28151 9.14333 6.39608C9.14333 6.51066 9.18885 6.62054 9.26986 6.70155C9.35088 6.78257 9.46076 6.82808 9.57533 6.82808H13.5638C13.6784 6.82808 13.7883 6.78257 13.8693 6.70155C13.9503 6.62054 13.9958 6.51066 13.9958 6.39608C13.9958 6.28151 13.9503 6.17163 13.8693 6.09061C13.7883 6.0096 13.6784 5.96408 13.5638 5.96408H9.57533ZM16.0477 15.9257H13.2173C12.7911 15.9243 12.374 15.803 12.0135 15.5758C11.653 15.3487 11.3637 15.0247 11.1785 14.6409C11.0983 14.4745 10.9729 14.3339 10.8166 14.2354C10.6603 14.1369 10.4794 14.0844 10.2947 14.0838H7.14781C6.97807 14.0838 6.81529 14.0163 6.69526 13.8963C6.57524 13.7763 6.50781 13.6135 6.50781 13.4438C6.50781 13.274 6.57524 13.1112 6.69526 12.9912C6.81529 12.8712 6.97807 12.8038 7.14781 12.8038H10.2947C10.7207 12.8052 11.1378 12.9265 11.4982 13.1537C11.8587 13.3809 12.148 13.7048 12.3331 14.0886C12.4134 14.255 12.5389 14.3954 12.6953 14.494C12.8516 14.5925 13.0325 14.645 13.2173 14.6457H16.0477C16.2174 14.6457 16.3802 14.7131 16.5002 14.8331C16.6202 14.9532 16.6877 15.1159 16.6877 15.2857C16.6877 15.4554 16.6202 15.6182 16.5002 15.7382C16.3802 15.8583 16.2174 15.9257 16.0477 15.9257Z" fill="#202020"/>
</svg>
