<svg width="24" height="24" viewBox="0 0 24 24" fill="none" xmlns="http://www.w3.org/2000/svg">
<path d="M16.3131 18.8154H8.41778C8.02529 18.8153 7.63872 18.7197 7.29145 18.5369C6.94417 18.354 6.64663 18.0893 6.42451 17.7657C6.20239 17.4421 6.06237 17.0694 6.01654 16.6796C5.97071 16.2898 6.02045 15.8947 6.16146 15.5284C6.1669 15.514 6.1733 15.4996 6.1797 15.4855L7.12818 13.4727C7.39651 12.9012 7.53601 12.2778 7.53682 11.6465V10.3146C7.53682 7.62022 9.72914 5.42822 12.4235 5.42822C15.1179 5.42822 17.3099 7.62022 17.3099 10.3146V11.7617C17.3092 12.354 17.4322 12.9399 17.6709 13.482L18.573 15.5399C18.579 15.5533 18.5844 15.5671 18.5893 15.5812C18.7198 15.9461 18.7606 16.3369 18.7084 16.7209C18.6562 17.1049 18.5125 17.4707 18.2894 17.7875C18.0663 18.1043 17.7703 18.3629 17.4264 18.5414C17.0824 18.7199 16.7006 18.8131 16.3131 18.8132V18.8154ZM7.34866 16.0077C7.28598 16.1797 7.26569 16.3642 7.2895 16.5456C7.31332 16.727 7.38053 16.9 7.48545 17.05C7.59037 17.1999 7.7299 17.3223 7.8922 17.4068C8.0545 17.4913 8.23479 17.5354 8.41778 17.5354H16.3131C16.494 17.5355 16.6723 17.4924 16.8332 17.4098C16.9942 17.3272 17.1331 17.2074 17.2384 17.0603C17.3438 16.9133 17.4126 16.7432 17.4391 16.5643C17.4656 16.3854 17.4491 16.2027 17.3909 16.0314L16.4981 13.9949C16.1885 13.2908 16.0291 12.5299 16.0299 11.7607V10.3146C16.021 9.36399 15.6371 8.45533 14.9617 7.78628C14.2863 7.11722 13.3741 6.74188 12.4234 6.74188C11.4727 6.74188 10.5605 7.11722 9.88508 7.78628C9.20969 8.45533 8.82577 9.36399 8.81682 10.3146V11.6465C8.81575 12.4664 8.63451 13.2761 8.28594 14.0183L7.34866 16.0077Z" fill="#202020"/>
<path d="M13.3382 20.5542H11.3942C10.7688 20.5536 10.1691 20.3049 9.72672 19.8628C9.28433 19.4207 9.03528 18.8213 9.03418 18.1958C9.03418 18.0261 9.10161 17.8633 9.22163 17.7433C9.34166 17.6233 9.50444 17.5558 9.67418 17.5558C9.84392 17.5558 10.0067 17.6233 10.1267 17.7433C10.2468 17.8633 10.3142 18.0261 10.3142 18.1958C10.3146 18.4821 10.4285 18.7565 10.631 18.9589C10.8334 19.1613 11.1079 19.2752 11.3942 19.2755H13.3382C13.6244 19.2752 13.8988 19.1613 14.1013 18.9589C14.3037 18.7565 14.4175 18.4821 14.4179 18.1958C14.4179 18.0261 14.4853 17.8633 14.6053 17.7433C14.7253 17.6233 14.8881 17.5558 15.0579 17.5558C15.2276 17.5558 15.3904 17.6233 15.5104 17.7433C15.6304 17.8633 15.6979 18.0261 15.6979 18.1958C15.6968 18.8212 15.4479 19.4207 15.0055 19.8628C14.5632 20.3049 13.9636 20.5536 13.3382 20.5542ZM12.4236 6.70784C12.2539 6.70784 12.0911 6.64041 11.9711 6.52039C11.851 6.40037 11.7836 6.23758 11.7836 6.06784V4.64C11.7836 4.47026 11.851 4.30747 11.9711 4.18745C12.0911 4.06743 12.2539 4 12.4236 4C12.5934 4 12.7561 4.06743 12.8762 4.18745C12.9962 4.30747 13.0636 4.47026 13.0636 4.64V6.06784C13.0636 6.23758 12.9962 6.40037 12.8762 6.52039C12.7561 6.64041 12.5934 6.70784 12.4236 6.70784Z" fill="#202020"/>
</svg>
