<svg width="24" height="24" viewBox="0 0 24 24" fill="none" xmlns="http://www.w3.org/2000/svg">
<path d="M16.3133 17.3872H8.41792C8.02541 17.3872 7.6388 17.2916 7.29148 17.1088C6.94417 16.9259 6.64659 16.6613 6.42446 16.3377C6.20232 16.014 6.06231 15.6412 6.01651 15.2514C5.97072 14.8616 6.02052 14.4664 6.1616 14.1002C6.16704 14.0858 6.17312 14.0714 6.17984 14.0573L7.12832 12.0445C7.3965 11.473 7.536 10.8496 7.53696 10.2182V8.8864C7.53696 6.192 9.72896 4 12.4237 4C15.1184 4 17.3101 6.192 17.3101 8.8864V10.3334C17.3093 10.9257 17.4321 11.5117 17.6707 12.0538L18.5734 14.1117C18.5792 14.1251 18.585 14.1389 18.5898 14.153C18.7202 14.5178 18.7611 14.9087 18.7089 15.2927C18.6567 15.6767 18.513 16.0425 18.2899 16.3593C18.0668 16.6761 17.7708 16.9346 17.4268 17.1131C17.0829 17.2916 16.7011 17.3849 16.3136 17.385L16.3133 17.3872ZM7.3488 14.5795C7.28613 14.7514 7.26583 14.9359 7.28965 15.1174C7.31346 15.2988 7.38068 15.4718 7.4856 15.6217C7.59052 15.7716 7.73004 15.8941 7.89235 15.9786C8.05465 16.0631 8.23494 16.1072 8.41792 16.1072H16.3133C16.4941 16.1072 16.6724 16.0641 16.8333 15.9814C16.9942 15.8988 17.133 15.779 17.2384 15.632C17.3437 15.4849 17.4125 15.3149 17.4391 15.136C17.4656 14.9571 17.4492 14.7745 17.391 14.6032L16.4982 12.5667C16.1885 11.8626 16.0291 11.1017 16.0301 10.3325V8.8864C16.0211 7.93577 15.6372 7.02711 14.9618 6.35805C14.2864 5.689 13.3742 5.31365 12.4235 5.31365C11.4728 5.31365 10.5606 5.689 9.88523 6.35805C9.20984 7.02711 8.82592 7.93577 8.81696 8.8864V10.2182C8.81578 11.0382 8.63455 11.8479 8.28608 12.5901L7.3488 14.5795Z" fill="#202020"/>
<path d="M13.3373 19.1258H11.393C10.7676 19.1252 10.168 18.8765 9.72566 18.4344C9.28332 17.9923 9.03434 17.3928 9.03333 16.7674C9.03333 16.5977 9.10075 16.4349 9.22078 16.3149C9.3408 16.1949 9.50359 16.1274 9.67333 16.1274C9.84306 16.1274 10.0058 16.1949 10.1259 16.3149C10.2459 16.4349 10.3133 16.5977 10.3133 16.7674C10.3137 17.0537 10.4275 17.3281 10.6299 17.5305C10.8323 17.7329 11.1068 17.8468 11.393 17.8471H13.3373C13.6236 17.8468 13.898 17.7329 14.1004 17.5305C14.3028 17.3281 14.4167 17.0537 14.417 16.7674C14.417 16.5977 14.4844 16.4349 14.6045 16.3149C14.7245 16.1949 14.8873 16.1274 15.057 16.1274C15.2267 16.1274 15.3895 16.1949 15.5096 16.3149C15.6296 16.4349 15.697 16.5977 15.697 16.7674C15.696 17.3928 15.447 17.9923 15.0047 18.4344C14.5623 18.8765 13.9627 19.1252 13.3373 19.1258Z" fill="#202020"/>
</svg>
