<svg width="24" height="24" viewBox="0 0 24 24" fill="none" xmlns="http://www.w3.org/2000/svg">
<path d="M14.5668 18.3985H9.43334C9.34897 18.3985 9.26544 18.3818 9.18754 18.3494C9.10964 18.317 9.03891 18.2695 8.97943 18.2097C8.91995 18.1498 8.87289 18.0788 8.84095 18.0008C8.80902 17.9227 8.79284 17.839 8.79334 17.7547L8.8119 14.6065C7.86068 14.0501 7.07175 13.2544 6.52363 12.2984C5.97552 11.3424 5.68733 10.2595 5.68774 9.15753C5.68774 5.67689 8.51942 2.84521 12.0001 2.84521C15.4807 2.84521 18.3124 5.67689 18.3124 9.15753C18.3128 10.2595 18.0246 11.3424 17.4765 12.2984C16.9284 13.2544 16.1394 14.0501 15.1882 14.6065L15.2068 17.7547C15.2073 17.839 15.1911 17.9227 15.1592 18.0008C15.1272 18.0788 15.0802 18.1498 15.0207 18.2097C14.9612 18.2695 14.8905 18.317 14.8126 18.3494C14.7347 18.3818 14.6512 18.3985 14.5668 18.3985ZM10.0772 17.1185H13.9229L13.906 14.2318C13.9052 14.1125 13.9377 13.9954 13.9999 13.8936C14.0621 13.7918 14.1515 13.7094 14.258 13.6558C15.0936 13.2389 15.7961 12.5968 16.2863 11.8019C16.7764 11.0071 17.0348 10.0911 17.0321 9.15722C17.0321 6.3825 14.7748 4.12489 11.9997 4.12489C9.2247 4.12489 6.96774 6.38281 6.96774 9.15753C6.96512 10.0913 7.22345 11.0073 7.71361 11.8021C8.20376 12.5969 8.90625 13.2389 9.74182 13.6558C9.84834 13.7094 9.93774 13.7918 9.99994 13.8936C10.0621 13.9954 10.0947 14.1125 10.0938 14.2318L10.0772 17.1185ZM14.7665 20.2689H8.98566C8.81593 20.2689 8.65314 20.2015 8.53312 20.0814C8.41309 19.9614 8.34566 19.7986 8.34566 19.6289C8.34566 19.4592 8.41309 19.2964 8.53312 19.1763C8.65314 19.0563 8.81593 18.9889 8.98566 18.9889H14.7665C14.9362 18.9889 15.099 19.0563 15.219 19.1763C15.339 19.2964 15.4065 19.4592 15.4065 19.6289C15.4065 19.7986 15.339 19.9614 15.219 20.0814C15.099 20.2015 14.9362 20.2689 14.7665 20.2689Z" fill="#202020"/>
</svg>
