<svg width="24" height="24" viewBox="0 0 24 24" fill="none" xmlns="http://www.w3.org/2000/svg">
<path d="M12.1732 17.3971C8.64677 17.3971 5.77765 14.528 5.77765 11.0016C5.77765 7.4752 8.64677 4.60608 12.1732 4.60608C15.6996 4.60608 18.5687 7.4752 18.5687 11.0016C18.5687 14.528 15.6996 17.3971 12.1732 17.3971ZM12.1732 5.88608C9.35269 5.88608 7.05765 8.1808 7.05765 11.0016C7.05765 13.8224 9.35269 16.1171 12.1732 16.1171C14.9936 16.1171 17.2887 13.824 17.2887 11.0016C17.2887 8.1792 14.994 5.88608 12.1732 5.88608ZM18.1213 19.3939H5.87877C5.70903 19.3939 5.54624 19.3265 5.42622 19.2065C5.3062 19.0864 5.23877 18.9237 5.23877 18.7539C5.23877 18.5842 5.3062 18.4214 5.42622 18.3014C5.54624 18.1813 5.70903 18.1139 5.87877 18.1139H18.1213C18.2911 18.1139 18.4539 18.1813 18.5739 18.3014C18.6939 18.4214 18.7613 18.5842 18.7613 18.7539C18.7613 18.9237 18.6939 19.0864 18.5739 19.2065C18.4539 19.3265 18.2911 19.3939 18.1213 19.3939Z" fill="#202020"/>
</svg>
