<svg width="24" height="24" viewBox="0 0 24 24" fill="none" xmlns="http://www.w3.org/2000/svg">
<path d="M13.0579 20.4272H6.18209C5.27425 20.4264 4.40383 20.0654 3.76189 19.4234C3.11995 18.7815 2.75893 17.9111 2.75809 17.0032V6.93987C2.75902 6.03205 3.12006 5.16169 3.76198 4.51976C4.40391 3.87784 5.27427 3.5168 6.18209 3.51587H16.2461C17.1539 3.51689 18.0242 3.87795 18.6661 4.51986C19.308 5.16176 19.6691 6.03208 19.6701 6.93987V15.5059C19.6701 15.6757 19.6027 15.8385 19.4826 15.9585C19.3626 16.0785 19.1998 16.1459 19.0301 16.1459C18.8603 16.1459 18.6976 16.0785 18.5775 15.9585C18.4575 15.8385 18.3901 15.6757 18.3901 15.5059V6.93987C18.3896 6.3714 18.1635 5.82636 17.7616 5.42439C17.3596 5.02243 16.8146 4.79638 16.2461 4.79587H6.18209C5.61362 4.79638 5.06858 5.02243 4.66661 5.42439C4.26464 5.82636 4.0386 6.3714 4.03809 6.93987V17.0039C4.03851 17.5724 4.26453 18.1175 4.66652 18.5194C5.0685 18.9214 5.61359 19.1474 6.18209 19.1479H13.0579C13.2277 19.1479 13.3905 19.2153 13.5105 19.3353C13.6305 19.4553 13.6979 19.6181 13.6979 19.7879C13.6979 19.9576 13.6305 20.1204 13.5105 20.2404C13.3905 20.3604 13.2277 20.4279 13.0579 20.4279V20.4272ZM19.2915 20.4839C19.1642 20.4835 19.0399 20.4453 18.9344 20.3739C18.829 20.3025 18.7472 20.2013 18.6996 20.0832C18.652 19.9651 18.6407 19.8355 18.6671 19.711C18.6935 19.5864 18.7565 19.4726 18.848 19.384L19.6934 18.5648L18.761 17.6205C18.6449 17.4991 18.5812 17.337 18.5836 17.1691C18.5859 17.0012 18.6542 16.8409 18.7737 16.7229C18.8931 16.6049 19.0542 16.5385 19.2221 16.5382C19.3901 16.5378 19.5514 16.6035 19.6714 16.721L21.056 18.1251C21.1154 18.1853 21.1624 18.2567 21.1941 18.3351C21.2258 18.4135 21.2416 18.4974 21.2407 18.5819C21.2398 18.6665 21.2221 18.75 21.1887 18.8277C21.1553 18.9054 21.1068 18.9757 21.0461 19.0346L19.7363 20.3034C19.6172 20.4192 19.4576 20.484 19.2915 20.4839Z" fill="#202020"/>
<path d="M16.0358 20.4838C15.8695 20.484 15.7096 20.4192 15.5904 20.3033L14.2806 19.0345C14.2199 18.9756 14.1714 18.9053 14.138 18.8276C14.1046 18.7499 14.0869 18.6664 14.086 18.5818C14.0851 18.4973 14.101 18.4133 14.1327 18.3349C14.1644 18.2565 14.2113 18.1852 14.2707 18.125L15.6576 16.7209C15.7769 16.6001 15.9393 16.5317 16.109 16.5306C16.2787 16.5296 16.4419 16.596 16.5627 16.7153C16.6835 16.8346 16.7519 16.9969 16.753 17.1667C16.754 17.3364 16.6876 17.4996 16.5683 17.6204L15.6355 18.5647L16.48 19.3839C16.5716 19.4726 16.6346 19.5866 16.661 19.7113C16.6874 19.8361 16.6759 19.9658 16.6281 20.084C16.5802 20.2022 16.4981 20.3033 16.3924 20.3746C16.2867 20.4458 16.162 20.4838 16.0346 20.4838H16.0358ZM13.4512 6.95799H9.10432C8.74364 6.95678 8.39426 6.83205 8.11437 6.60456C7.83448 6.37708 7.64098 6.06057 7.56608 5.70775L7.26912 4.28791C7.25051 4.20512 7.24855 4.11945 7.26336 4.03589C7.27817 3.95233 7.30944 3.87256 7.35537 3.8012C7.4013 3.72984 7.46095 3.66833 7.53087 3.62024C7.60079 3.57215 7.67958 3.53845 7.76265 3.5211C7.84571 3.50374 7.9314 3.50308 8.01472 3.51915C8.09805 3.53521 8.17734 3.56769 8.248 3.61469C8.31866 3.66169 8.37926 3.72227 8.42629 3.79291C8.47331 3.86355 8.50582 3.94283 8.52192 4.02615L8.81888 5.44695C8.83283 5.51239 8.86875 5.57109 8.92068 5.6133C8.9726 5.6555 9.0374 5.67867 9.10432 5.67895H13.4512C13.516 5.67902 13.579 5.65747 13.6302 5.61771C13.6814 5.57795 13.7178 5.52225 13.7338 5.45943L14.1059 3.99895C14.1486 3.83529 14.2543 3.69518 14.4 3.60923C14.5456 3.52328 14.7194 3.49848 14.8833 3.54026C15.0472 3.58204 15.1879 3.68699 15.2746 3.83218C15.3614 3.97737 15.3871 4.15099 15.3462 4.31511L14.9741 5.77559C14.8878 6.11392 14.6912 6.41384 14.4154 6.62797C14.1396 6.8421 13.8004 6.95822 13.4512 6.95799Z" fill="#202020"/>
</svg>
