<svg width="24" height="24" viewBox="0 0 24 24" fill="none" xmlns="http://www.w3.org/2000/svg">
<path d="M12 19.4973C10.0732 19.4973 8.22535 18.7319 6.8629 17.3694C5.50046 16.007 4.73505 14.1591 4.73505 12.2323C4.73505 10.3055 5.50046 8.45765 6.8629 7.0952C8.22535 5.73276 10.0732 4.96735 12 4.96735C12.1697 4.96735 12.3325 5.03477 12.4526 5.1548C12.5726 5.27482 12.64 5.43761 12.64 5.60735C12.64 5.77708 12.5726 5.93987 12.4526 6.05989C12.3325 6.17992 12.1697 6.24735 12 6.24735C8.69985 6.24735 6.01601 8.93215 6.01601 12.2313C6.01601 15.5305 8.70081 18.2153 12 18.2153C15.2992 18.2153 17.984 15.5305 17.984 12.2313C17.987 11.0065 17.6116 9.81071 16.9091 8.80735C16.861 8.73845 16.8269 8.66075 16.8088 8.57867C16.7907 8.4966 16.7889 8.41176 16.8036 8.32901C16.8183 8.24625 16.8491 8.1672 16.8943 8.09636C16.9396 8.02552 16.9983 7.96428 17.0672 7.91615C17.1361 7.86801 17.2138 7.83391 17.2959 7.81581C17.378 7.7977 17.4628 7.79593 17.5455 7.81061C17.7127 7.84026 17.8612 7.93508 17.9584 8.07423C18.719 9.1633 19.1663 10.4401 19.2518 11.7657C19.3373 13.0913 19.0577 14.4149 18.4434 15.5927C17.8291 16.7705 16.9035 17.7572 15.7675 18.4456C14.6314 19.1341 13.3284 19.4978 12 19.4973Z" fill="#202020"/>
<path d="M12.3008 15.0215C11.8813 15.0215 11.4173 14.9469 10.9219 14.7975C10.8415 14.773 10.7667 14.733 10.7017 14.6797C10.6367 14.6263 10.5829 14.5607 10.5433 14.4866C10.5037 14.4125 10.4791 14.3312 10.4708 14.2476C10.4626 14.1639 10.4709 14.0795 10.4954 13.9991C10.5198 13.9186 10.5598 13.8438 10.6131 13.7788C10.6665 13.7139 10.7321 13.66 10.8062 13.6204C10.9559 13.5404 11.1313 13.5232 11.2938 13.5725C12.2003 13.8477 12.7683 13.7475 12.9981 13.5623C13.0544 13.5168 13.2262 13.3783 13.1872 12.9063C13.1789 12.8048 13.1584 12.7642 13.0474 12.7069C12.8659 12.6135 12.561 12.5587 12.2659 12.5056C11.8442 12.4301 11.4083 12.3517 11.0304 12.136C10.511 11.84 10.2368 11.3491 10.2371 10.72C10.2371 9.97345 10.5789 9.53281 10.8646 9.29473C11.7357 8.56961 13.1654 8.80641 13.3254 8.83585C13.4925 8.86628 13.6406 8.96181 13.7371 9.10143C13.8337 9.24104 13.8709 9.41331 13.8405 9.58033C13.8101 9.74736 13.7145 9.89545 13.5749 9.99204C13.4353 10.0886 13.263 10.1258 13.096 10.0954C12.776 10.0381 12.0064 10.0083 11.6826 10.2794C11.6058 10.3434 11.5174 10.4522 11.5171 10.721C11.5171 10.9799 11.5642 11.0781 12.4922 11.2445C12.8803 11.3143 13.2816 11.3863 13.6342 11.568C14.1309 11.824 14.4176 12.2503 14.4627 12.7997C14.5411 13.7479 14.1466 14.2787 13.8022 14.5571C13.4202 14.8656 12.9069 15.0215 12.3008 15.0215Z" fill="#202020"/>
<path d="M12.3575 15.968C12.1877 15.968 12.0249 15.9006 11.9049 15.7806C11.7849 15.6605 11.7175 15.4978 11.7175 15.328V8.41602C11.7175 8.24628 11.7849 8.08349 11.9049 7.96347C12.0249 7.84345 12.1877 7.77602 12.3575 7.77602C12.5272 7.77602 12.69 7.84345 12.81 7.96347C12.93 8.08349 12.9975 8.24628 12.9975 8.41602V15.328C12.9975 15.4978 12.93 15.6605 12.81 15.7806C12.69 15.9006 12.5272 15.968 12.3575 15.968ZM14.4154 7.93346C14.2926 7.93314 14.1724 7.8975 14.0693 7.83077C13.9662 7.76405 13.8845 7.66907 13.8339 7.55717C13.7833 7.44527 13.766 7.32117 13.7839 7.19968C13.8019 7.07819 13.8545 6.96445 13.9354 6.87202L16.9728 3.40194C17.0846 3.27421 17.2426 3.19613 17.412 3.18488C17.5814 3.17363 17.7483 3.23012 17.876 3.34194C18.0038 3.45375 18.0818 3.61173 18.0931 3.78111C18.1043 3.9505 18.0478 4.11741 17.936 4.24514L14.8973 7.71522C14.8372 7.78385 14.7631 7.83882 14.68 7.87646C14.5968 7.91411 14.5066 7.93354 14.4154 7.93346Z" fill="#202020"/>
<path d="M17.993 6.4221C17.827 6.4222 17.6676 6.35786 17.5482 6.24264C17.4288 6.12742 17.3588 5.97033 17.353 5.8045L17.2877 3.90402L15.6282 4.1645C15.5444 4.17919 15.4586 4.17705 15.3757 4.15821C15.2928 4.13936 15.2145 4.10419 15.1453 4.05474C15.0762 4.00529 15.0176 3.94256 14.9729 3.87021C14.9283 3.79786 14.8985 3.71733 14.8853 3.63334C14.8721 3.54936 14.8758 3.46358 14.8961 3.38103C14.9165 3.29849 14.9531 3.22082 15.0037 3.15256C15.0544 3.08431 15.1182 3.02683 15.1914 2.9835C15.2645 2.94017 15.3455 2.91184 15.4298 2.90018L17.8029 2.52802C17.8922 2.51399 17.9835 2.51904 18.0707 2.54283C18.1579 2.56662 18.2391 2.60863 18.3089 2.66607C18.3787 2.72351 18.4355 2.79509 18.4757 2.87609C18.5158 2.95709 18.5383 3.04568 18.5418 3.13602L18.633 5.76002C18.6388 5.92957 18.5772 6.09452 18.4615 6.21861C18.3458 6.3427 18.1855 6.41577 18.016 6.42178L17.993 6.4221Z" fill="#202020"/>
</svg>
