<svg width="24" height="24" viewBox="0 0 24 24" fill="none" xmlns="http://www.w3.org/2000/svg">
<path d="M17.7209 18.272H8.98175C8.81201 18.272 8.64922 18.2046 8.5292 18.0846C8.40918 17.9645 8.34175 17.8017 8.34175 17.632C8.34175 17.4623 8.40918 17.2995 8.5292 17.1795C8.64922 17.0594 8.81201 16.992 8.98175 16.992H17.7209C18.1815 16.9915 18.623 16.8083 18.9487 16.4827C19.2744 16.1571 19.4576 15.7156 19.4582 15.255V9.01089C19.4576 8.55034 19.2744 8.10884 18.9487 7.78321C18.623 7.45759 18.1815 7.27444 17.7209 7.27393H7.92895C7.46843 7.27444 7.02693 7.4576 6.70129 7.78323C6.37566 8.10887 6.1925 8.55037 6.19199 9.01089V14.1712C6.19199 14.3409 6.12456 14.5037 6.00454 14.6238C5.88451 14.7438 5.72173 14.8112 5.55199 14.8112C5.38225 14.8112 5.21946 14.7438 5.09944 14.6238C4.97942 14.5037 4.91199 14.3409 4.91199 14.1712V9.01089C4.91283 8.211 5.23096 7.44412 5.79657 6.87851C6.36218 6.3129 7.12906 5.99477 7.92895 5.99393H17.7209C18.5209 5.99477 19.2878 6.31289 19.8534 6.87849C20.4191 7.44409 20.7373 8.21097 20.7382 9.01089V15.2541C20.7376 16.0542 20.4195 16.8213 19.8538 17.3871C19.2881 17.9529 18.521 18.2712 17.7209 18.272Z" fill="#202020"/>
<path d="M12.8256 14.4733C12.3237 14.4733 11.8331 14.3245 11.4157 14.0456C10.9984 13.7668 10.6732 13.3704 10.4811 12.9067C10.2891 12.443 10.2388 11.9328 10.3368 11.4405C10.4347 10.9483 10.6764 10.4961 11.0314 10.1412C11.3863 9.78634 11.8385 9.54468 12.3307 9.44681C12.823 9.34893 13.3332 9.39923 13.7969 9.59134C14.2606 9.78346 14.6569 10.1088 14.9357 10.5261C15.2145 10.9435 15.3633 11.4341 15.3632 11.936C15.3624 12.6088 15.0948 13.2537 14.6191 13.7294C14.1434 14.2051 13.4983 14.4726 12.8256 14.4733ZM12.8256 10.6784C12.5769 10.6784 12.3337 10.7522 12.1269 10.8904C11.9201 11.0285 11.7589 11.2249 11.6637 11.4547C11.5685 11.6845 11.5436 11.9374 11.5922 12.1814C11.6407 12.4253 11.7605 12.6494 11.9363 12.8253C12.1122 13.0011 12.3363 13.1209 12.5803 13.1694C12.8242 13.218 13.0771 13.1931 13.3069 13.0979C13.5367 13.0027 13.7331 12.8415 13.8713 12.6347C14.0094 12.4279 14.0832 12.1847 14.0832 11.936C14.0829 11.6026 13.9503 11.2829 13.7145 11.0471C13.4787 10.8114 13.159 10.6787 12.8256 10.6784ZM17.408 14.6211C17.2383 14.6211 17.0755 14.5537 16.9554 14.4337C16.8354 14.3137 16.768 14.1509 16.768 13.9811V10.016C16.768 9.84627 16.8354 9.68348 16.9554 9.56346C17.0755 9.44343 17.2383 9.37601 17.408 9.37601C17.5777 9.37601 17.7405 9.44343 17.8605 9.56346C17.9806 9.68348 18.048 9.84627 18.048 10.016V13.9811C18.048 14.1509 17.9806 14.3137 17.8605 14.4337C17.7405 14.5537 17.5777 14.6211 17.408 14.6211ZM5.55328 21.0077C4.8854 21.0077 4.23252 20.8096 3.67722 20.4386C3.12191 20.0675 2.68912 19.5401 2.43358 18.923C2.17804 18.306 2.11122 17.627 2.24159 16.9719C2.37195 16.3169 2.69364 15.7153 3.16597 15.2431C3.6383 14.7709 4.24005 14.4494 4.89512 14.3192C5.55018 14.189 6.22914 14.256 6.84613 14.5117C7.46311 14.7674 7.9904 15.2004 8.36132 15.7558C8.73223 16.3112 8.93011 16.9641 8.92992 17.632C8.92865 18.5271 8.57246 19.3851 7.93946 20.0179C7.30647 20.6507 6.44834 21.0067 5.55328 21.0077ZM5.55328 15.5357C5.13859 15.5357 4.73321 15.6587 4.38841 15.8891C4.04362 16.1195 3.77488 16.4469 3.6162 16.8301C3.45752 17.2132 3.41602 17.6348 3.49695 18.0415C3.57787 18.4482 3.77759 18.8218 4.07084 19.115C4.36409 19.4082 4.73771 19.6079 5.14444 19.6887C5.55117 19.7696 5.97274 19.728 6.35585 19.5693C6.73895 19.4105 7.06638 19.1418 7.29673 18.7969C7.52707 18.4521 7.64998 18.0467 7.64992 17.632C7.64958 17.076 7.4286 16.5428 7.03551 16.1495C6.64241 15.7562 6.10932 15.535 5.55328 15.5344V15.5357Z" fill="#202020"/>
<path d="M6.16833 18.8986C6.08369 18.8987 5.99986 18.882 5.92174 18.8494C5.84362 18.8168 5.77276 18.769 5.71329 18.7088L4.48321 17.4662C4.42408 17.4065 4.3773 17.3357 4.34554 17.2579C4.31377 17.1801 4.29764 17.0968 4.29807 17.0127C4.2985 16.9287 4.31549 16.8455 4.34805 16.768C4.38061 16.6906 4.42811 16.6202 4.48785 16.5611C4.54759 16.502 4.61838 16.4552 4.6962 16.4234C4.77401 16.3917 4.85732 16.3756 4.94137 16.376C5.02542 16.3764 5.10856 16.3934 5.18605 16.426C5.26353 16.4585 5.33384 16.506 5.39297 16.5658L6.62401 17.8083C6.71286 17.8981 6.77316 18.0121 6.79733 18.1361C6.82151 18.26 6.80846 18.3884 6.75985 18.5049C6.71123 18.6215 6.62922 18.7211 6.52413 18.7911C6.41904 18.8611 6.29558 18.8985 6.16929 18.8986H6.16833Z" fill="#202020"/>
<path d="M4.93185 18.8736C4.80496 18.8736 4.68091 18.836 4.57548 18.7653C4.47005 18.6947 4.38799 18.5943 4.33974 18.477C4.29148 18.3596 4.2792 18.2306 4.30447 18.1062C4.32973 17.9818 4.39139 17.8678 4.48161 17.7786L5.72449 16.5488C5.84633 16.4356 6.00742 16.3744 6.17365 16.3779C6.33989 16.3814 6.49823 16.4495 6.61513 16.5678C6.73204 16.686 6.79834 16.8451 6.8 17.0114C6.80166 17.1776 6.73854 17.338 6.62401 17.4586L5.38209 18.688C5.26247 18.807 5.10058 18.8737 4.93185 18.8736Z" fill="#202020"/>
</svg>
