<svg width="24" height="24" viewBox="0 0 24 24" fill="none" xmlns="http://www.w3.org/2000/svg">
<path d="M12.5203 19.5805C10.5759 19.5805 8.71108 18.8081 7.33615 17.4331C5.96122 16.0582 5.1888 14.1934 5.1888 12.249C5.1888 10.3045 5.96122 8.43973 7.33615 7.0648C8.71108 5.68988 10.5759 4.91745 12.5203 4.91745C12.6901 4.91745 12.8528 4.98488 12.9729 5.1049C13.0929 5.22492 13.1603 5.38771 13.1603 5.55745C13.1603 5.72719 13.0929 5.88998 12.9729 6.01C12.8528 6.13002 12.6901 6.19745 12.5203 6.19745C9.18336 6.19745 6.4688 8.91233 6.4688 12.249C6.4688 15.5856 9.184 18.3005 12.5203 18.3005C15.8566 18.3005 18.5718 15.5859 18.5718 12.249C18.5741 11.0108 18.1942 9.80204 17.4838 8.78785C17.4341 8.71902 17.3986 8.64099 17.3793 8.55831C17.3601 8.47562 17.3574 8.38992 17.3716 8.30621C17.3858 8.2225 17.4165 8.14244 17.4619 8.07071C17.5073 7.99898 17.5666 7.937 17.6362 7.88839C17.7058 7.83977 17.7844 7.8055 17.8674 7.78755C17.9504 7.76961 18.0361 7.76835 18.1196 7.78386C18.203 7.79937 18.2826 7.83134 18.3536 7.8779C18.4246 7.92446 18.4856 7.98468 18.5331 8.05505C19.2995 9.15418 19.7501 10.4423 19.8358 11.7795C19.9215 13.1168 19.6392 14.4519 19.0194 15.6399C18.3996 16.8279 17.4661 17.8233 16.3203 18.5181C15.1745 19.2128 13.8603 19.5803 12.5203 19.5805Z" fill="#202020"/>
<path d="M12.8243 15.0595C12.401 15.0595 11.9331 14.9843 11.4333 14.8326C11.3528 14.8082 11.278 14.7682 11.213 14.7149C11.1481 14.6615 11.0942 14.5959 11.0546 14.5218C11.015 14.4476 10.9904 14.3664 10.9822 14.2828C10.974 14.1991 10.9823 14.1147 11.0067 14.0342C11.0311 13.9538 11.0711 13.879 11.1245 13.814C11.1778 13.749 11.2434 13.6952 11.3176 13.6556C11.3917 13.616 11.4729 13.5914 11.5566 13.5832C11.6402 13.5749 11.7247 13.5833 11.8051 13.6077C12.7232 13.8864 13.2992 13.7846 13.5331 13.5965C13.5907 13.5498 13.7661 13.4083 13.7251 12.928C13.7165 12.823 13.695 12.7805 13.5763 12.7194C13.3891 12.6234 13.0787 12.5674 12.7782 12.5133C12.3549 12.4368 11.9168 12.3581 11.5427 12.1418C11.0218 11.84 10.7603 11.345 10.7869 10.7094C10.8118 10.1072 11.0506 9.60928 11.4768 9.26944C12.3542 8.57056 13.7075 8.79712 13.8589 8.82528C14.0258 8.85605 14.1737 8.95187 14.27 9.09166C14.3663 9.23146 14.4031 9.40378 14.3723 9.57072C14.3415 9.73766 14.2457 9.88554 14.1059 9.98183C13.9661 10.0781 13.7938 10.1149 13.6269 10.0842C13.3888 10.0416 12.6304 9.98496 12.273 10.272C12.1898 10.3386 12.0781 10.4618 12.0656 10.7626C12.0563 10.9885 12.0525 11.0826 13.0051 11.2534C13.3981 11.3242 13.8051 11.3974 14.1613 11.5811C14.7978 11.9078 14.969 12.4368 15.001 12.8227C15.0797 13.7779 14.6829 14.3123 14.336 14.5923C13.952 14.9027 13.4349 15.0595 12.8243 15.0595Z" fill="#202020"/>
<path d="M12.8813 16.0163C12.7115 16.0163 12.5488 15.9489 12.4287 15.8289C12.3087 15.7088 12.2413 15.5461 12.2413 15.3763V8.39296C12.2413 8.22323 12.3087 8.06044 12.4287 7.94042C12.5488 7.82039 12.7115 7.75296 12.8813 7.75296C13.051 7.75296 13.2138 7.82039 13.3338 7.94042C13.4539 8.06044 13.5213 8.22323 13.5213 8.39296V15.3763C13.5213 15.5461 13.4539 15.7088 13.3338 15.8289C13.2138 15.9489 13.051 16.0163 12.8813 16.0163ZM15.3654 7.18272C15.2406 7.18272 15.1184 7.1462 15.0141 7.07764C14.9097 7.00909 14.8277 6.91151 14.7781 6.79691C14.7285 6.68232 14.7135 6.55572 14.735 6.43272C14.7564 6.30971 14.8134 6.19567 14.8989 6.10464L18.0867 2.70848C18.2037 2.5883 18.3631 2.51882 18.5308 2.515C18.6985 2.51117 18.8609 2.57331 18.9832 2.68803C19.1055 2.80276 19.1779 2.96091 19.1848 3.12847C19.1918 3.29602 19.1326 3.4596 19.0202 3.584L15.8323 6.9808C15.7724 7.04459 15.7001 7.09541 15.6198 7.13014C15.5395 7.16487 15.4529 7.18277 15.3654 7.18272Z" fill="#202020"/>
<path d="M14.889 7.83807C14.7192 7.83807 14.5564 7.77065 14.4364 7.65062C14.3164 7.5306 14.249 7.36781 14.249 7.19808V4.54656C14.249 4.37682 14.3164 4.21403 14.4364 4.09401C14.5564 3.97398 14.7192 3.90656 14.889 3.90656C15.0587 3.90656 15.2215 3.97398 15.3415 4.09401C15.4615 4.21403 15.529 4.37682 15.529 4.54656V6.47551L17.2202 6.26975C17.3887 6.24909 17.5585 6.29621 17.6923 6.40075C17.826 6.50529 17.9128 6.65869 17.9334 6.8272C17.9541 6.9957 17.907 7.16552 17.8024 7.29928C17.6979 7.43305 17.5445 7.51981 17.376 7.54047L14.9674 7.83327C14.9414 7.83652 14.9152 7.83812 14.889 7.83807Z" fill="#202020"/>
</svg>
