<svg width="24" height="24" viewBox="0 0 24 24" fill="none" xmlns="http://www.w3.org/2000/svg">
<path d="M19.0781 18.272H9.57823C9.4085 18.272 9.24571 18.2046 9.12569 18.0846C9.00566 17.9645 8.93823 17.8017 8.93823 17.632C8.93823 17.4623 9.00566 17.2995 9.12569 17.1795C9.24571 17.0594 9.4085 16.992 9.57823 16.992H19.0781C19.3227 16.9916 19.5572 16.8941 19.7301 16.7209C19.9029 16.5478 20 16.3131 20 16.0685V8.19649C19.9997 7.95189 19.9025 7.71738 19.7295 7.54442C19.5565 7.37146 19.322 7.27418 19.0774 7.27393H7.65855C7.41395 7.27418 7.17944 7.37146 7.00649 7.54442C6.83353 7.71738 6.73625 7.95189 6.73599 8.19649V14.1165C6.73599 14.2862 6.66857 14.449 6.54854 14.569C6.42852 14.6891 6.26573 14.7565 6.09599 14.7565C5.92626 14.7565 5.76347 14.6891 5.64345 14.569C5.52342 14.449 5.45599 14.2862 5.45599 14.1165V8.19649C5.45667 7.61254 5.68894 7.0527 6.10186 6.63979C6.51477 6.22688 7.07461 5.9946 7.65855 5.99393H19.0781C19.6619 5.99477 20.2216 6.22712 20.6344 6.64002C21.0471 7.05291 21.2793 7.61265 21.28 8.19649V16.0685C21.2796 16.6525 21.0475 17.2125 20.6347 17.6256C20.2219 18.0387 19.6621 18.2712 19.0781 18.272Z" fill="#202020"/>
<path d="M13.3683 14.4733C12.8664 14.4734 12.3757 14.3246 11.9584 14.0458C11.541 13.7669 11.2157 13.3706 11.0236 12.9069C10.8315 12.4432 10.7812 11.933 10.8791 11.4407C10.977 10.9484 11.2187 10.4962 11.5736 10.1413C11.9286 9.78642 12.3807 9.54473 12.873 9.44683C13.3653 9.34893 13.8755 9.39921 14.3392 9.59131C14.8029 9.78342 15.1993 10.1087 15.4781 10.5261C15.7569 10.9434 15.9057 11.4341 15.9056 11.936C15.9048 12.6087 15.6373 13.2536 15.1616 13.7293C14.6859 14.205 14.041 14.4725 13.3683 14.4733ZM13.3683 10.6784C13.1196 10.6783 12.8764 10.752 12.6695 10.8902C12.4627 11.0283 12.3015 11.2247 12.2062 11.4545C12.111 11.6843 12.086 11.9372 12.1345 12.1812C12.183 12.4251 12.3028 12.6492 12.4786 12.8252C12.6545 13.0011 12.8786 13.1209 13.1225 13.1694C13.3665 13.218 13.6194 13.1931 13.8492 13.0979C14.079 13.0027 14.2754 12.8415 14.4136 12.6347C14.5518 12.4279 14.6256 12.1848 14.6256 11.936C14.6253 11.6026 14.4928 11.2829 14.2571 11.0471C14.0214 10.8114 13.7017 10.6787 13.3683 10.6784ZM17.952 14.6211C17.7823 14.6211 17.6195 14.5537 17.4995 14.4337C17.3794 14.3137 17.312 14.1509 17.312 13.9811V10.016C17.312 9.84627 17.3794 9.68348 17.4995 9.56346C17.6195 9.44343 17.7823 9.37601 17.952 9.37601C18.1217 9.37601 18.2845 9.44343 18.4046 9.56346C18.5246 9.68348 18.592 9.84627 18.592 10.016V13.9811C18.592 14.1509 18.5246 14.3137 18.4046 14.4337C18.2845 14.5537 18.1217 14.6211 17.952 14.6211ZM6.096 21.0077C5.4281 21.0078 4.77516 20.8099 4.21977 20.4389C3.66438 20.0679 3.23148 19.5405 2.97584 18.9235C2.7202 18.3064 2.6533 17.6274 2.78359 16.9723C2.91389 16.3173 3.23553 15.7155 3.70783 15.2433C4.18013 14.771 4.78188 14.4494 5.43696 14.3192C6.09205 14.189 6.77104 14.256 7.38806 14.5117C8.00508 14.7674 8.53241 15.2003 8.90336 15.7557C9.2743 16.3111 9.47219 16.9641 9.472 17.632C9.47082 18.527 9.11474 19.385 8.48186 20.0178C7.84899 20.6506 6.99098 21.0066 6.096 21.0077ZM6.096 15.5357C5.68128 15.5356 5.27584 15.6584 4.93096 15.8887C4.58608 16.1191 4.31725 16.4465 4.15847 16.8296C3.99969 17.2127 3.9581 17.6343 4.03895 18.0411C4.11981 18.4478 4.31947 18.8215 4.6127 19.1148C4.90593 19.408 5.27954 19.6078 5.68629 19.6887C6.09303 19.7696 6.51464 19.7281 6.89778 19.5693C7.28093 19.4106 7.60839 19.1418 7.83876 18.797C8.06914 18.4521 8.19206 18.0467 8.192 17.632C8.19166 17.0761 7.97078 16.543 7.57782 16.1497C7.18486 15.7565 6.65194 15.5352 6.096 15.5344V15.5357Z" fill="#202020"/>
<path d="M4.31071 20.0256C4.18388 20.0256 4.05992 19.9879 3.95455 19.9173C3.84919 19.8467 3.76719 19.7464 3.71894 19.6291C3.6707 19.5118 3.6584 19.3828 3.6836 19.2585C3.70879 19.1342 3.77036 19.0201 3.86047 18.9309L7.43103 15.3968C7.55167 15.2774 7.71481 15.2108 7.88455 15.2117C8.0543 15.2125 8.21674 15.2808 8.33615 15.4015C8.45556 15.5221 8.52216 15.6852 8.52129 15.855C8.52042 16.0247 8.45215 16.1872 8.33151 16.3066L4.76095 19.84C4.64119 19.9588 4.47939 20.0255 4.31071 20.0256Z" fill="#202020"/>
</svg>
