<svg width="24" height="24" viewBox="0 0 24 24" fill="none" xmlns="http://www.w3.org/2000/svg">
<path d="M19.0963 18.1386H7.84001C7.23464 18.1379 6.65426 17.8971 6.22618 17.4691C5.79809 17.0411 5.55725 16.4607 5.55649 15.8554V8.14337C5.55759 7.53823 5.79858 6.95821 6.22663 6.53046C6.65468 6.10271 7.23487 5.86213 7.84001 5.86145H19.0963C19.7017 5.86213 20.2821 6.10289 20.7102 6.53091C21.1382 6.95894 21.3791 7.53929 21.3798 8.14465V15.8567C21.3787 16.4618 21.1378 17.0418 20.7097 17.4696C20.2817 17.8973 19.7015 18.1379 19.0963 18.1386ZM7.84001 7.14145C7.57399 7.1417 7.31894 7.24747 7.13081 7.43554C6.94267 7.62361 6.83683 7.87863 6.83649 8.14465V15.8567C6.83717 16.1224 6.94316 16.3771 7.13126 16.5649C7.31935 16.7527 7.57421 16.8583 7.84001 16.8586H19.0963C19.3623 16.8583 19.6174 16.7526 19.8055 16.5645C19.9937 16.3764 20.0995 16.1214 20.0998 15.8554V8.14337C20.0995 7.87735 19.9937 7.62233 19.8055 7.43426C19.6174 7.24619 19.3623 7.14042 19.0963 7.14017L7.84001 7.14145Z" fill="#202020"/>
<path d="M13.4672 14.3408C12.9653 14.3408 12.4747 14.192 12.0574 13.9131C11.6401 13.6343 11.3148 13.238 11.1228 12.7743C10.9307 12.3106 10.8804 11.8004 10.9783 11.3081C11.0763 10.8159 11.3179 10.3637 11.6728 10.0089C12.0277 9.65397 12.4799 9.41228 12.9721 9.31437C13.4644 9.21646 13.9746 9.26671 14.4383 9.45877C14.902 9.65084 15.2983 9.97609 15.5771 10.3934C15.856 10.8107 16.0048 11.3013 16.0048 11.8032C16.0041 12.476 15.7365 13.1211 15.2608 13.5968C14.7851 14.0726 14.14 14.3401 13.4672 14.3408ZM13.4672 10.5459C13.2184 10.5459 12.9753 10.6197 12.7685 10.7579C12.5617 10.8961 12.4005 11.0925 12.3053 11.3223C12.2101 11.5522 12.1852 11.805 12.2338 12.049C12.2823 12.293 12.4021 12.517 12.578 12.6929C12.754 12.8688 12.9781 12.9885 13.222 13.037C13.466 13.0855 13.7189 13.0605 13.9487 12.9653C14.1785 12.8701 14.3749 12.7088 14.513 12.502C14.6511 12.2951 14.7249 12.052 14.7248 11.8032C14.7244 11.4698 14.5917 11.1502 14.356 10.9145C14.1202 10.6788 13.8006 10.5463 13.4672 10.5459ZM8.24575 10.0077H6.19487C6.02513 10.0077 5.86235 9.94026 5.74232 9.82024C5.6223 9.70022 5.55487 9.53743 5.55487 9.36769C5.55487 9.19795 5.6223 9.03517 5.74232 8.91514C5.86235 8.79512 6.02513 8.72769 6.19487 8.72769H8.24575C8.2706 8.7272 8.29429 8.71708 8.31184 8.69948C8.32939 8.68187 8.33942 8.65814 8.33983 8.63329V6.50145C8.33983 6.33171 8.40726 6.16893 8.52728 6.0489C8.64731 5.92888 8.81009 5.86145 8.97983 5.86145C9.14957 5.86145 9.31236 5.92888 9.43238 6.0489C9.5524 6.16893 9.61983 6.33171 9.61983 6.50145V8.63329C9.61941 8.99762 9.47451 9.34691 9.21692 9.60456C8.95934 9.86221 8.61008 10.0072 8.24575 10.0077ZM20.5507 10.0077H18.4998C18.1355 10.0072 17.7862 9.86221 17.5287 9.60456C17.2711 9.34691 17.1262 8.99762 17.1257 8.63329V6.50145C17.1257 6.33171 17.1932 6.16893 17.3132 6.0489C17.4332 5.92888 17.596 5.86145 17.7657 5.86145C17.9355 5.86145 18.0983 5.92888 18.2183 6.0489C18.3383 6.16893 18.4057 6.33171 18.4057 6.50145V8.63329C18.4062 8.65814 18.4162 8.68187 18.4337 8.69948C18.4513 8.71708 18.475 8.7272 18.4998 8.72769H20.5507C20.7204 8.72769 20.8832 8.79512 21.0033 8.91514C21.1233 9.03517 21.1907 9.19795 21.1907 9.36769C21.1907 9.53743 21.1233 9.70022 21.0033 9.82024C20.8832 9.94026 20.7204 10.0077 20.5507 10.0077ZM8.97983 18.1386C8.81009 18.1386 8.64731 18.0711 8.52728 17.9511C8.40726 17.8311 8.33983 17.6683 8.33983 17.4986V15.3667C8.33942 15.3419 8.32939 15.3182 8.31184 15.3005C8.29429 15.2829 8.2706 15.2728 8.24575 15.2723H6.19487C6.02513 15.2723 5.86235 15.2049 5.74232 15.0849C5.6223 14.9649 5.55487 14.8021 5.55487 14.6323C5.55487 14.4626 5.6223 14.2998 5.74232 14.1798C5.86235 14.0598 6.02513 13.9923 6.19487 13.9923H8.24575C8.61008 13.9928 8.95934 14.1378 9.21692 14.3955C9.47451 14.6531 9.61941 15.0024 9.61983 15.3667V17.4986C9.61983 17.5826 9.60328 17.6658 9.57111 17.7435C9.53895 17.8211 9.49181 17.8917 9.43238 17.9511C9.37295 18.0105 9.3024 18.0577 9.22475 18.0899C9.1471 18.122 9.06388 18.1386 8.97983 18.1386ZM17.7657 18.1386C17.596 18.1386 17.4332 18.0711 17.3132 17.9511C17.1932 17.8311 17.1257 17.6683 17.1257 17.4986V15.3667C17.1262 15.0024 17.2711 14.6531 17.5287 14.3955C17.7862 14.1378 18.1355 13.9928 18.4998 13.9923H20.5507C20.7204 13.9923 20.8832 14.0598 21.0033 14.1798C21.1233 14.2998 21.1907 14.4626 21.1907 14.6323C21.1907 14.8021 21.1233 14.9649 21.0033 15.0849C20.8832 15.2049 20.7204 15.2723 20.5507 15.2723H18.4998C18.475 15.2728 18.4513 15.2829 18.4337 15.3005C18.4162 15.3182 18.4062 15.3419 18.4057 15.3667V17.4986C18.4057 17.5826 18.3892 17.6658 18.357 17.7435C18.3249 17.8211 18.2777 17.8917 18.2183 17.9511C18.1589 18.0105 18.0883 18.0577 18.0107 18.0899C17.933 18.122 17.8498 18.1386 17.7657 18.1386Z" fill="#202020"/>
</svg>
