<svg width="24" height="24" viewBox="0 0 24 24" fill="none" xmlns="http://www.w3.org/2000/svg">
<path d="M16.832 16.8602H8.30208C8.13234 16.8602 7.96955 16.7927 7.84953 16.6727C7.72951 16.5527 7.66208 16.3899 7.66208 16.2202C7.66208 16.0504 7.72951 15.8876 7.84953 15.7676C7.96955 15.6476 8.13234 15.5802 8.30208 15.5802H16.832C17.2149 15.5797 17.582 15.4275 17.8527 15.1567C18.1234 14.886 18.2757 14.5189 18.2762 14.136V7.30689C18.2757 6.92401 18.1234 6.55693 17.8527 6.28619C17.582 6.01544 17.2149 5.86316 16.832 5.86273H6.45376C6.0709 5.86324 5.70387 6.01556 5.43314 6.28628C5.16242 6.557 5.01011 6.92403 5.0096 7.30689V12C5.0096 12.1698 4.94217 12.3325 4.82215 12.4526C4.70212 12.5726 4.53934 12.64 4.3696 12.64C4.19986 12.64 4.03707 12.5726 3.91705 12.4526C3.79703 12.3325 3.7296 12.1698 3.7296 12V7.30689C3.73045 6.58466 4.01773 5.89225 4.52842 5.38156C5.03912 4.87086 5.73153 4.58358 6.45376 4.58273H16.832C17.5542 4.58358 18.2466 4.87086 18.7573 5.38156C19.268 5.89225 19.5553 6.58466 19.5562 7.30689V14.136C19.5553 14.8582 19.268 15.5507 18.7573 16.0613C18.2466 16.572 17.5542 16.8593 16.832 16.8602Z" fill="#202020"/>
<path d="M11.6422 13.0621C11.1404 13.0621 10.6499 12.9133 10.2326 12.6345C9.81535 12.3557 9.49014 11.9594 9.2981 11.4958C9.10606 11.0321 9.05582 10.522 9.15372 10.0298C9.25162 9.53762 9.49327 9.08552 9.84812 8.73067C10.203 8.37583 10.6551 8.13417 11.1472 8.03627C11.6394 7.93837 12.1496 7.98862 12.6132 8.18066C13.0768 8.3727 13.4731 8.69791 13.7519 9.11516C14.0307 9.53242 14.1795 10.023 14.1795 10.5248C14.1788 11.1975 13.9112 11.8424 13.4355 12.3181C12.9599 12.7938 12.3149 13.0613 11.6422 13.0621ZM11.6422 9.26752C11.3936 9.26752 11.1505 9.34126 10.9437 9.47941C10.737 9.61756 10.5758 9.81392 10.4807 10.0437C10.3855 10.2734 10.3606 10.5262 10.4091 10.7701C10.4576 11.014 10.5774 11.238 10.7532 11.4138C10.929 11.5897 11.1531 11.7094 11.397 11.7579C11.6409 11.8064 11.8936 11.7815 12.1234 11.6864C12.3531 11.5912 12.5495 11.4301 12.6876 11.2233C12.8258 11.0165 12.8995 10.7735 12.8995 10.5248C12.8991 10.1915 12.7665 9.87193 12.5308 9.63624C12.2951 9.40054 11.9756 9.26794 11.6422 9.26752ZM16.224 13.2099C16.0543 13.2099 15.8915 13.1425 15.7715 13.0225C15.6514 12.9024 15.584 12.7397 15.584 12.5699V8.60576C15.584 8.43602 15.6514 8.27323 15.7715 8.15321C15.8915 8.03319 16.0543 7.96576 16.224 7.96576C16.3937 7.96576 16.5565 8.03319 16.6766 8.15321C16.7966 8.27323 16.864 8.43602 16.864 8.60576V12.5699C16.864 12.7397 16.7966 12.9024 16.6766 13.0225C16.5565 13.1425 16.3937 13.2099 16.224 13.2099ZM4.84033 19.0003C4.17249 19.0003 3.51965 18.8023 2.96436 18.4313C2.40908 18.0602 1.97629 17.5329 1.72072 16.9159C1.46515 16.2989 1.39828 15.6199 1.52857 14.9649C1.65886 14.3099 1.98045 13.7083 2.45268 13.236C2.92491 12.7638 3.52657 12.4422 4.18158 12.3119C4.83658 12.1816 5.51551 12.2485 6.13251 12.5041C6.74951 12.7596 7.27687 13.1924 7.6479 13.7477C8.01893 14.303 8.21697 14.9558 8.21697 15.6237C8.21603 16.5189 7.85998 17.3773 7.22694 18.0103C6.5939 18.6433 5.73558 18.9994 4.84033 19.0003ZM4.84033 13.5283C4.42565 13.5283 4.02029 13.6513 3.67549 13.8817C3.3307 14.112 3.06197 14.4395 2.90328 14.8226C2.74459 15.2057 2.70307 15.6273 2.78397 16.034C2.86487 16.4407 3.06456 16.8143 3.35778 17.1075C3.651 17.4007 4.02458 17.6004 4.43129 17.6813C4.838 17.7622 5.25956 17.7207 5.64267 17.562C6.02579 17.4033 6.35324 17.1346 6.58362 16.7898C6.814 16.445 6.93697 16.0396 6.93697 15.625C6.93671 15.0689 6.71578 14.5356 6.32267 14.1422C5.92957 13.7489 5.39643 13.5276 4.84033 13.527V13.5283Z" fill="#202020"/>
<path d="M4.82719 17.1379C4.65746 17.1379 4.49467 17.0705 4.37465 16.9505C4.25462 16.8304 4.18719 16.6677 4.18719 16.4979V14.7494C4.18719 14.5797 4.25462 14.4169 4.37465 14.2969C4.49467 14.1769 4.65746 14.1094 4.82719 14.1094C4.99693 14.1094 5.15972 14.1769 5.27974 14.2969C5.39977 14.4169 5.46719 14.5797 5.46719 14.7494V16.4979C5.46719 16.6677 5.39977 16.8304 5.27974 16.9505C5.15972 17.0705 4.99693 17.1379 4.82719 17.1379Z" fill="#202020"/>
<path d="M5.71456 16.2506H3.96608C3.79634 16.2506 3.63356 16.1831 3.51353 16.0631C3.39351 15.9431 3.32608 15.7803 3.32608 15.6106C3.32608 15.4408 3.39351 15.278 3.51353 15.158C3.63356 15.038 3.79634 14.9706 3.96608 14.9706H5.71456C5.8843 14.9706 6.04709 15.038 6.16711 15.158C6.28713 15.278 6.35456 15.4408 6.35456 15.6106C6.35456 15.7803 6.28713 15.9431 6.16711 16.0631C6.04709 16.1831 5.8843 16.2506 5.71456 16.2506Z" fill="#202020"/>
</svg>
