<svg width="24" height="24" viewBox="0 0 24 24" fill="none" xmlns="http://www.w3.org/2000/svg">
<path d="M18.2637 18.3523H10.4029C10.2331 18.3523 10.0703 18.2849 9.95032 18.1649C9.8303 18.0448 9.76287 17.8821 9.76287 17.7123C9.76287 17.5426 9.8303 17.3798 9.95032 17.2598C10.0703 17.1397 10.2331 17.0723 10.4029 17.0723H18.2637C18.7241 17.0716 19.1654 16.8884 19.4909 16.5628C19.8164 16.2372 19.9995 15.7958 20 15.3354V9.09216C19.9995 8.63164 19.8163 8.19013 19.4907 7.8645C19.1651 7.53887 18.7235 7.3557 18.263 7.3552H8.47103C8.01052 7.3557 7.56901 7.53887 7.24338 7.8645C6.91774 8.19013 6.73458 8.63164 6.73407 9.09216V13.4317C6.73407 13.6014 6.66664 13.7642 6.54662 13.8842C6.4266 14.0042 6.26381 14.0717 6.09407 14.0717C5.92433 14.0717 5.76155 14.0042 5.64152 13.8842C5.5215 13.7642 5.45407 13.6014 5.45407 13.4317V9.09216C5.45492 8.29227 5.77305 7.52538 6.33865 6.95978C6.90426 6.39417 7.67114 6.07604 8.47103 6.0752H18.263C19.0629 6.07604 19.8298 6.39417 20.3954 6.95978C20.961 7.52538 21.2791 8.29227 21.28 9.09216V15.3354C21.2791 16.1351 20.9611 16.9019 20.3956 17.4675C19.8302 18.0331 19.0634 18.3513 18.2637 18.3523Z" fill="#202020"/>
<path d="M13.3683 14.5546C12.8664 14.5546 12.3757 14.4059 11.9584 14.1271C11.541 13.8482 11.2157 13.4519 11.0236 12.9882C10.8315 12.5245 10.7812 12.0143 10.8791 11.522C10.977 11.0297 11.2187 10.5775 11.5736 10.2226C11.9286 9.86772 12.3807 9.62603 12.873 9.52813C13.3653 9.43023 13.8755 9.48051 14.3392 9.67261C14.8029 9.86472 15.1993 10.19 15.4781 10.6074C15.7569 11.0247 15.9057 11.5154 15.9056 12.0173C15.9048 12.69 15.6373 13.3349 15.1616 13.8106C14.6859 14.2863 14.041 14.5538 13.3683 14.5546ZM13.3683 10.7597C13.1196 10.7596 12.8764 10.8333 12.6695 10.9715C12.4627 11.1096 12.3015 11.306 12.2062 11.5358C12.111 11.7656 12.086 12.0185 12.1345 12.2625C12.183 12.5064 12.3028 12.7305 12.4786 12.9065C12.6545 13.0824 12.8786 13.2022 13.1225 13.2507C13.3665 13.2993 13.6194 13.2744 13.8492 13.1792C14.079 13.084 14.2754 12.9228 14.4136 12.716C14.5518 12.5092 14.6256 12.2661 14.6256 12.0173C14.6253 11.6839 14.4927 11.3643 14.257 11.1285C14.0213 10.8928 13.7017 10.7601 13.3683 10.7597ZM17.952 14.7024C17.7823 14.7024 17.6195 14.635 17.4995 14.515C17.3794 14.395 17.312 14.2322 17.312 14.0624V10.0979C17.312 9.92821 17.3794 9.76542 17.4995 9.6454C17.6195 9.52538 17.7823 9.45795 17.952 9.45795C18.1217 9.45795 18.2845 9.52538 18.4046 9.6454C18.5246 9.76542 18.592 9.92821 18.592 10.0979V14.0624C18.592 14.2322 18.5246 14.395 18.4046 14.515C18.2845 14.635 18.1217 14.7024 17.952 14.7024ZM6.096 21.088C5.4281 21.0882 4.77516 20.8902 4.21977 20.5192C3.66438 20.1482 3.23148 19.6208 2.97584 19.0038C2.7202 18.3867 2.6533 17.7078 2.78359 17.0527C2.91389 16.3976 3.23553 15.7959 3.70783 15.3236C4.18013 14.8514 4.78188 14.5298 5.43696 14.3996C6.09205 14.2693 6.77104 14.3363 7.38806 14.592C8.00508 14.8477 8.53241 15.2806 8.90336 15.8361C9.2743 16.3915 9.47219 17.0444 9.472 17.7123C9.47082 18.6073 9.11474 19.4653 8.48186 20.0981C7.84899 20.7309 6.99098 21.0869 6.096 21.088ZM6.096 15.616C5.68128 15.6159 5.27584 15.7388 4.93096 15.9691C4.58608 16.1994 4.31725 16.5268 4.15847 16.9099C3.99969 17.2931 3.9581 17.7147 4.03895 18.1214C4.11981 18.5282 4.31947 18.9018 4.6127 19.1951C4.90593 19.4884 5.27954 19.6881 5.68629 19.769C6.09303 19.8499 6.51464 19.8084 6.89778 19.6497C7.28093 19.491 7.60839 19.2222 7.83876 18.8773C8.06914 18.5325 8.19206 18.1271 8.192 17.7123C8.19124 17.1567 7.97018 16.6239 7.57727 16.231C7.18437 15.838 6.65169 15.6169 6.096 15.616Z" fill="#202020"/>
<path d="M6.07711 18.4989H5.15199C4.98225 18.4989 4.81947 18.4315 4.69945 18.3114C4.57942 18.1914 4.51199 18.0286 4.51199 17.8589C4.51199 17.6892 4.57942 17.5264 4.69945 17.4064C4.81947 17.2863 4.98225 17.2189 5.15199 17.2189H5.76959L6.39999 16.425C6.45179 16.3577 6.51647 16.3014 6.59026 16.2593C6.66404 16.2173 6.74546 16.1903 6.82976 16.18C6.91407 16.1698 6.99957 16.1764 7.08129 16.1995C7.16302 16.2226 7.23932 16.2618 7.30576 16.3146C7.37221 16.3675 7.42746 16.4331 7.4683 16.5076C7.50914 16.5821 7.53475 16.6639 7.54364 16.7484C7.55253 16.8328 7.54452 16.9182 7.52007 16.9995C7.49563 17.0809 7.45525 17.1565 7.40127 17.2221L6.57695 18.2576C6.51709 18.3328 6.44108 18.3935 6.35455 18.4353C6.26802 18.477 6.1732 18.4988 6.07711 18.4989Z" fill="#202020"/>
</svg>
