<svg width="24" height="24" viewBox="0 0 24 24" fill="none" xmlns="http://www.w3.org/2000/svg">
<path d="M16.9532 18.0698H7.48348C6.83574 18.069 6.21475 17.8113 5.75672 17.3533C5.2987 16.8953 5.04105 16.2743 5.04028 15.6266V8.02624C5.04105 7.3785 5.2987 6.7575 5.75672 6.29948C6.21475 5.84145 6.83574 5.5838 7.48348 5.58304H17.752C18.3862 5.58372 18.9943 5.83598 19.4428 6.28448C19.8913 6.73298 20.1436 7.34108 20.1443 7.97536V12.4093C20.1443 12.579 20.0769 12.7418 19.9568 12.8618C19.8368 12.9819 19.674 13.0493 19.5043 13.0493C19.3345 13.0493 19.1718 12.9819 19.0517 12.8618C18.9317 12.7418 18.8643 12.579 18.8643 12.4093V7.97536C18.8639 7.68046 18.7466 7.39773 18.5381 7.1892C18.3296 6.98068 18.0469 6.86338 17.752 6.86304H7.48348C7.17511 6.86346 6.8795 6.98615 6.66144 7.2042C6.44339 7.42225 6.32071 7.71787 6.32028 8.02624V15.6266C6.32071 15.9349 6.44339 16.2305 6.66144 16.4486C6.8795 16.6666 7.17511 16.7893 7.48348 16.7898H16.9532C17.123 16.7898 17.2858 16.8572 17.4058 16.9772C17.5258 17.0972 17.5932 17.26 17.5932 17.4298C17.5932 17.5995 17.5258 17.7623 17.4058 17.8823C17.2858 18.0023 17.123 18.0698 16.9532 18.0698Z" fill="#202020"/>
<path d="M16.8572 15.456H5.68028C5.51054 15.456 5.34776 15.3886 5.22773 15.2685C5.10771 15.1485 5.04028 14.9857 5.04028 14.816C5.04028 14.6463 5.10771 14.4835 5.22773 14.3634C5.34776 14.2434 5.51054 14.176 5.68028 14.176H16.8572C17.027 14.176 17.1898 14.2434 17.3098 14.3634C17.4298 14.4835 17.4972 14.6463 17.4972 14.816C17.4972 14.9857 17.4298 15.1485 17.3098 15.2685C17.1898 15.3886 17.027 15.456 16.8572 15.456ZM12.5923 21.7197C12.4225 21.7197 12.2598 21.6522 12.1397 21.5322C12.0197 21.4122 11.9523 21.2494 11.9523 21.0797V17.5331C11.9523 17.3634 12.0197 17.2006 12.1397 17.0806C12.2598 16.9605 12.4225 16.8931 12.5923 16.8931C12.762 16.8931 12.9248 16.9605 13.0448 17.0806C13.1649 17.2006 13.2323 17.3634 13.2323 17.5331V21.0797C13.2323 21.2494 13.1649 21.4122 13.0448 21.5322C12.9248 21.6522 12.762 21.7197 12.5923 21.7197Z" fill="#202020"/>
<path d="M15.032 21.7197H10.1529C9.9832 21.7197 9.82041 21.6522 9.70039 21.5322C9.58037 21.4122 9.51294 21.2494 9.51294 21.0797C9.51294 20.9099 9.58037 20.7472 9.70039 20.6271C9.82041 20.5071 9.9832 20.4397 10.1529 20.4397H15.032C15.2017 20.4397 15.3645 20.5071 15.4845 20.6271C15.6046 20.7472 15.672 20.9099 15.672 21.0797C15.672 21.2494 15.6046 21.4122 15.4845 21.5322C15.3645 21.6522 15.2017 21.7197 15.032 21.7197ZM21.472 21.4221H19.4678C19.0045 21.4215 18.5603 21.2371 18.2327 20.9095C17.9051 20.5818 17.7208 20.1376 17.7203 19.6742V15.0042C17.7208 14.5408 17.9051 14.0966 18.2327 13.7689C18.5603 13.4413 19.0045 13.2569 19.4678 13.2563H21.472C21.9354 13.2569 22.3796 13.4412 22.7072 13.7689C23.0349 14.0966 23.2192 14.5408 23.2198 15.0042V19.6742C23.2193 20.1376 23.035 20.5819 22.7073 20.9096C22.3797 21.2373 21.9354 21.4216 21.472 21.4221ZM19.4678 14.5363C19.3438 14.5365 19.225 14.5858 19.1373 14.6736C19.0497 14.7613 19.0004 14.8802 19.0003 15.0042V19.6742C19.0004 19.7982 19.0497 19.9171 19.1373 20.0048C19.225 20.0926 19.3438 20.1419 19.4678 20.1421H21.472C21.596 20.1419 21.7149 20.0926 21.8026 20.0049C21.8903 19.9172 21.9397 19.7983 21.9398 19.6742V15.0042C21.9397 14.8801 21.8903 14.7612 21.8026 14.6735C21.7149 14.5858 21.596 14.5365 21.472 14.5363H19.4678Z" fill="#202020"/>
<path d="M20.514 19.8963C20.3443 19.8963 20.1815 19.8289 20.0615 19.7089C19.9415 19.5888 19.874 19.4261 19.874 19.2563V19.232C19.874 19.0623 19.9415 18.8995 20.0615 18.7794C20.1815 18.6594 20.3443 18.592 20.514 18.592C20.6838 18.592 20.8465 18.6594 20.9666 18.7794C21.0866 18.8995 21.154 19.0623 21.154 19.232V19.2573C21.1538 19.4268 21.0862 19.5894 20.9662 19.7092C20.8462 19.829 20.6836 19.8963 20.514 19.8963Z" fill="#202020"/>
</svg>
