<svg width="24" height="24" viewBox="0 0 24 24" fill="none" xmlns="http://www.w3.org/2000/svg">
<path d="M18.2668 18.0698H8.06747C7.41972 18.069 6.79873 17.8113 6.34071 17.3533C5.88268 16.8953 5.62503 16.2743 5.62427 15.6266V8.02624C5.62503 7.3785 5.88268 6.7575 6.34071 6.29948C6.79873 5.84145 7.41972 5.5838 8.06747 5.58304H18.3359C18.9702 5.58372 19.5783 5.83599 20.0267 6.2845C20.4752 6.73301 20.7274 7.34111 20.7279 7.97536V15.608C20.7274 16.2606 20.4679 16.8863 20.0065 17.3478C19.5451 17.8094 18.9194 18.069 18.2668 18.0698ZM8.06747 6.86304C7.7591 6.86346 7.46348 6.98615 7.24543 7.2042C7.02738 7.42225 6.90469 7.71787 6.90427 8.02624V15.6266C6.90469 15.9349 7.02738 16.2305 7.24543 16.4486C7.46348 16.6666 7.7591 16.7893 8.06747 16.7898H18.2668C18.58 16.7891 18.8802 16.6643 19.1016 16.4429C19.323 16.2214 19.4477 15.9212 19.4483 15.608V7.97536C19.448 7.68043 19.3307 7.39766 19.1222 7.18911C18.9137 6.98056 18.6309 6.86329 18.3359 6.86304H8.06747Z" fill="#202020"/>
<path d="M20.0883 15.456H6.26427C6.09453 15.456 5.93174 15.3886 5.81172 15.2685C5.6917 15.1485 5.62427 14.9857 5.62427 14.816C5.62427 14.6463 5.6917 14.4835 5.81172 14.3634C5.93174 14.2434 6.09453 14.176 6.26427 14.176H20.0883C20.258 14.176 20.4208 14.2434 20.5408 14.3634C20.6608 14.4835 20.7283 14.6463 20.7283 14.816C20.7283 14.9857 20.6608 15.1485 20.5408 15.2685C20.4208 15.3886 20.258 15.456 20.0883 15.456ZM13.1763 21.7197C13.0065 21.7197 12.8437 21.6522 12.7237 21.5322C12.6037 21.4122 12.5363 21.2494 12.5363 21.0797V17.5331C12.5363 17.3634 12.6037 17.2006 12.7237 17.0806C12.8437 16.9605 13.0065 16.8931 13.1763 16.8931C13.346 16.8931 13.5088 16.9605 13.6288 17.0806C13.7488 17.2006 13.8163 17.3634 13.8163 17.5331V21.0797C13.8163 21.2494 13.7488 21.4122 13.6288 21.5322C13.5088 21.6522 13.346 21.7197 13.1763 21.7197Z" fill="#202020"/>
<path d="M15.616 21.7197H10.7369C10.5672 21.7197 10.4044 21.6523 10.2844 21.5322C10.1644 21.4122 10.0969 21.2494 10.0969 21.0797C10.0969 20.9099 10.1644 20.7472 10.2844 20.6271C10.4044 20.5071 10.5672 20.4397 10.7369 20.4397H15.616C15.7857 20.4397 15.9485 20.5071 16.0685 20.6271C16.1885 20.7472 16.256 20.9099 16.256 21.0797C16.256 21.2494 16.1885 21.4122 16.0685 21.5322C15.9485 21.6523 15.7857 21.7197 15.616 21.7197Z" fill="#202020"/>
</svg>
