<svg width="24" height="24" viewBox="0 0 24 24" fill="none" xmlns="http://www.w3.org/2000/svg">
<path d="M17.0319 20.4557H6.96795C6.06016 20.4547 5.18984 20.0936 4.54793 19.4517C3.90603 18.8098 3.54496 17.9395 3.54395 17.0317V6.96801C3.54496 6.06022 3.90603 5.1899 4.54793 4.548C5.18984 3.90609 6.06016 3.54502 6.96795 3.54401H17.0319C17.9397 3.54502 18.8101 3.90609 19.452 4.548C20.0939 5.1899 20.4549 6.06022 20.4559 6.96801V17.032C20.4548 17.9397 20.0937 18.81 19.4518 19.4518C18.8099 20.0936 17.9397 20.4547 17.0319 20.4557ZM6.96795 4.82433C6.39948 4.82483 5.85444 5.05088 5.45247 5.45285C5.0505 5.85482 4.82445 6.39986 4.82395 6.96833V17.0323C4.82445 17.6008 5.0505 18.1458 5.45247 18.5478C5.85444 18.9498 6.39948 19.1758 6.96795 19.1763H17.0319C17.6004 19.1758 18.1455 18.9498 18.5474 18.5478C18.9494 18.1458 19.1754 17.6008 19.1759 17.0323V6.96801C19.1754 6.39954 18.9494 5.8545 18.5474 5.45253C18.1455 5.05056 17.6004 4.82451 17.0319 4.82401L6.96795 4.82433Z" fill="#202020"/>
<path d="M9.40416 12.64H8.30016C8.13042 12.64 7.96763 12.5726 7.84761 12.4525C7.72758 12.3325 7.66016 12.1697 7.66016 12C7.66016 11.8302 7.72758 11.6675 7.84761 11.5474C7.96763 11.4274 8.13042 11.36 8.30016 11.36H9.40416C9.57389 11.36 9.73668 11.4274 9.8567 11.5474C9.97673 11.6675 10.0442 11.8302 10.0442 12C10.0442 12.1697 9.97673 12.3325 9.8567 12.4525C9.73668 12.5726 9.57389 12.64 9.40416 12.64ZM12.5606 12.64H11.424C11.2543 12.64 11.0915 12.5726 10.9714 12.4525C10.8514 12.3325 10.784 12.1697 10.784 12C10.784 11.8302 10.8514 11.6675 10.9714 11.5474C11.0915 11.4274 11.2543 11.36 11.424 11.36H12.5616C12.7313 11.36 12.8941 11.4274 13.0141 11.5474C13.1342 11.6675 13.2016 11.8302 13.2016 12C13.2016 12.1697 13.1342 12.3325 13.0141 12.4525C12.8941 12.5726 12.7313 12.64 12.5616 12.64H12.5606ZM15.6998 12.64H14.5091C14.3394 12.64 14.1766 12.5726 14.0566 12.4525C13.9365 12.3325 13.8691 12.1697 13.8691 12C13.8691 11.8302 13.9365 11.6675 14.0566 11.5474C14.1766 11.4274 14.3394 11.36 14.5091 11.36H15.6998C15.8696 11.36 16.0324 11.4274 16.1524 11.5474C16.2724 11.6675 16.3398 11.8302 16.3398 12C16.3398 12.1697 16.2724 12.3325 16.1524 12.4525C16.0324 12.5726 15.8696 12.64 15.6998 12.64Z" fill="#202020"/>
</svg>
