<svg width="24" height="24" viewBox="0 0 24 24" fill="none" xmlns="http://www.w3.org/2000/svg">
<path d="M7.79967 18.6727C7.20175 18.6727 6.61725 18.4955 6.12007 18.1634C5.62289 17.8312 5.23537 17.3591 5.00651 16.8067C4.77766 16.2543 4.71775 15.6465 4.83436 15.0601C4.95096 14.4736 5.23886 13.9349 5.66162 13.5121C6.08439 13.0893 6.62304 12.8014 7.20946 12.6847C7.79589 12.568 8.40373 12.6279 8.95614 12.8567C9.50855 13.0855 9.9807 13.4729 10.3129 13.9701C10.6451 14.4672 10.8224 15.0517 10.8224 15.6496C10.8215 16.4511 10.5027 17.2194 9.93604 17.7861C9.36939 18.3528 8.60109 18.6717 7.79967 18.6727ZM7.79967 13.9066C7.45491 13.9065 7.11788 14.0087 6.8312 14.2002C6.54452 14.3917 6.32106 14.6639 6.18908 14.9824C6.0571 15.3009 6.02254 15.6514 6.08976 15.9895C6.15698 16.3276 6.32296 16.6382 6.56672 16.882C6.81047 17.1258 7.12105 17.2919 7.45918 17.3592C7.7973 17.4264 8.14779 17.3919 8.46631 17.26C8.78482 17.1281 9.05707 16.9047 9.24861 16.618C9.44015 16.3314 9.54239 15.9944 9.54239 15.6496C9.54188 15.1876 9.35812 14.7446 9.03142 14.4178C8.70471 14.091 8.26174 13.9072 7.79967 13.9066ZM16.2003 18.6727C15.6024 18.6727 15.0179 18.4954 14.5208 18.1632C14.0237 17.831 13.6362 17.3589 13.4074 16.8065C13.1786 16.2541 13.1187 15.6463 13.2354 15.0599C13.352 14.4735 13.6399 13.9348 14.0627 13.512C14.4855 13.0892 15.0241 12.8013 15.6105 12.6847C16.197 12.568 16.8048 12.6279 17.3572 12.8567C17.9096 13.0855 18.3817 13.473 18.7139 13.9701C19.046 14.4673 19.2233 15.0517 19.2233 15.6496C19.2225 16.4511 18.9037 17.2196 18.337 17.7863C17.7702 18.3531 17.0018 18.6718 16.2003 18.6727ZM16.2003 13.9066C15.8556 13.9066 15.5186 14.0088 15.2319 14.2003C14.9453 14.3919 14.7219 14.6641 14.5899 14.9826C14.458 15.3011 14.4235 15.6516 14.4908 15.9897C14.558 16.3278 14.724 16.6384 14.9678 16.8821C15.2116 17.1259 15.5221 17.2919 15.8603 17.3592C16.1984 17.4264 16.5488 17.3919 16.8673 17.26C17.1858 17.1281 17.4581 16.9047 17.6496 16.618C17.8411 16.3314 17.9433 15.9944 17.9433 15.6496C17.9428 15.1875 17.759 14.7445 17.4323 14.4177C17.1055 14.0909 16.6624 13.9071 16.2003 13.9066ZM12.0131 11.3735C11.4151 11.3735 10.8306 11.1961 10.3334 10.8639C9.83626 10.5316 9.44879 10.0594 9.22003 9.50693C8.99127 8.95445 8.9315 8.34654 9.04827 7.76008C9.16505 7.17362 9.45312 6.63497 9.87606 6.21226C10.299 5.78954 10.8378 5.50175 11.4243 5.38529C12.0108 5.26882 12.6187 5.32892 13.1711 5.55797C13.7234 5.78702 14.1955 6.17474 14.5275 6.67209C14.8594 7.16943 15.0365 7.75406 15.0361 8.35203C15.0348 9.15323 14.7158 9.9212 14.1491 10.4876C13.5824 11.054 12.8143 11.3725 12.0131 11.3735ZM12.0131 6.60739C11.6684 6.60739 11.3315 6.70958 11.0449 6.90104C10.7583 7.0925 10.5349 7.36463 10.4029 7.68303C10.2709 8.00144 10.2363 8.35182 10.3034 8.6899C10.3706 9.02797 10.5364 9.33855 10.78 9.58238C11.0236 9.82622 11.3341 9.99235 11.6721 10.0598C12.0101 10.1272 12.3605 10.0929 12.679 9.96125C12.9976 9.82957 13.2699 9.60641 13.4616 9.31998C13.6533 9.03355 13.7558 8.69671 13.7561 8.35203C13.7561 7.88963 13.5724 7.44617 13.2456 7.11905C12.9188 6.79193 12.4755 6.6079 12.0131 6.60739Z" fill="#202020"/>
</svg>
