<svg width="24" height="24" viewBox="0 0 24 24" fill="none" xmlns="http://www.w3.org/2000/svg">
<path d="M11.9999 20.207C8.91158 20.207 6.3999 17.6944 6.3999 14.607V9.39392C6.3999 6.3056 8.91254 3.79391 11.9999 3.79391C15.0873 3.79391 17.5999 6.30656 17.5999 9.39392V14.6061C17.5999 17.696 15.0882 20.207 11.9999 20.207ZM11.9999 5.07296C9.61718 5.07296 7.6799 7.0112 7.6799 9.39296V14.6061C7.6799 16.9888 9.61814 18.9261 11.9999 18.9261C14.3826 18.9261 16.3199 16.9878 16.3199 14.6061V9.39392C16.3199 7.0112 14.3826 5.07296 11.9999 5.07296Z" fill="#202020"/>
<path d="M12.0001 8.14497C11.8304 8.14497 11.6676 8.07754 11.5476 7.95752C11.4275 7.83749 11.3601 7.67471 11.3601 7.50497V4.43297C11.3601 4.26323 11.4275 4.10044 11.5476 3.98042C11.6676 3.8604 11.8304 3.79297 12.0001 3.79297C12.1698 3.79297 12.3326 3.8604 12.4527 3.98042C12.5727 4.10044 12.6401 4.26323 12.6401 4.43297V7.50497C12.6401 7.67471 12.5727 7.83749 12.4527 7.95752C12.3326 8.07754 12.1698 8.14497 12.0001 8.14497Z" fill="#202020"/>
<path d="M11.9068 10.5242C11.5164 10.5242 11.142 10.3691 10.866 10.093C10.5899 9.81697 10.4348 9.44256 10.4348 9.05216V8.33696C10.4348 7.94656 10.5899 7.57215 10.866 7.2961C11.142 7.02004 11.5164 6.86496 11.9068 6.86496C12.2972 6.86496 12.6716 7.02004 12.9477 7.2961C13.2237 7.57215 13.3788 7.94656 13.3788 8.33696V9.05216C13.3784 9.44243 13.2232 9.81659 12.9472 10.0926C12.6712 10.3685 12.2971 10.5237 11.9068 10.5242ZM11.9068 8.14496C11.8559 8.14496 11.8071 8.16519 11.771 8.2012C11.735 8.2372 11.7148 8.28604 11.7148 8.33696V9.05216C11.7148 9.10308 11.735 9.15192 11.771 9.18792C11.8071 9.22393 11.8559 9.24416 11.9068 9.24416C11.9577 9.24416 12.0066 9.22393 12.0426 9.18792C12.0786 9.15192 12.0988 9.10308 12.0988 9.05216V8.33696C12.0988 8.28604 12.0786 8.2372 12.0426 8.2012C12.0066 8.16519 11.9577 8.14496 11.9068 8.14496Z" fill="#202020"/>
</svg>
