<svg width="24" height="24" viewBox="0 0 24 24" fill="none" xmlns="http://www.w3.org/2000/svg">
<path d="M12 20.2502C10.0914 20.2501 8.24183 19.5882 6.76647 18.3774C5.29112 17.1665 4.28126 15.4815 3.90897 13.6095C3.53667 11.7375 3.82498 9.79434 4.72476 8.11109C5.62454 6.42784 7.08012 5.10864 8.8435 4.37828C10.6069 3.64791 12.5689 3.55157 14.3954 4.10565C16.2219 4.65974 17.7997 5.82998 18.86 7.41698C19.9204 9.00398 20.3977 10.9095 20.2106 12.809C20.0235 14.7085 19.1836 16.4843 17.834 17.8339C17.0696 18.6023 16.1604 19.2116 15.159 19.6263C14.1576 20.0411 13.0839 20.2531 12 20.2502ZM12 5.02973C8.15653 5.02973 5.02981 8.15645 5.02981 12C5.02981 15.8435 8.15653 18.9702 12 18.9702C15.8436 18.9702 18.9703 15.8435 18.9703 12C18.9703 8.15645 15.8436 5.02973 12 5.02973Z" fill="#202020"/>
<path d="M12.2765 16.0918C12.1565 16.092 12.0389 16.0585 11.9371 15.9952C11.8353 15.9318 11.7533 15.8411 11.7005 15.7334L8.69986 9.60506C8.64907 9.50145 8.62723 9.38603 8.63666 9.27103C8.6461 9.15603 8.68644 9.04572 8.75344 8.95177C8.82043 8.85782 8.91158 8.78373 9.01723 8.73734C9.12288 8.69096 9.23911 8.674 9.35361 8.68826L15.872 9.49914C16.0069 9.51575 16.133 9.57487 16.2321 9.66795C16.3311 9.76103 16.398 9.88323 16.4229 10.0168C16.4479 10.1505 16.4297 10.2885 16.3709 10.4111C16.3121 10.5337 16.2158 10.6343 16.096 10.6985L13.216 12.2425L12.9139 15.5103C12.9012 15.6494 12.8433 15.7804 12.7491 15.8835C12.6549 15.9865 12.5296 16.056 12.3923 16.0812C12.3541 16.0882 12.3153 16.0917 12.2765 16.0918ZM10.3699 10.1046L11.8483 13.1222L11.9712 11.7827C11.9809 11.6772 12.0166 11.5759 12.075 11.4876C12.1335 11.3994 12.213 11.3271 12.3063 11.2771L13.7171 10.5209L10.3699 10.1046Z" fill="#202020"/>
</svg>
