<svg width="24" height="24" viewBox="0 0 24 24" fill="none" xmlns="http://www.w3.org/2000/svg">
<path d="M11.9999 20.0067C10.1475 20.0067 8.3524 19.3644 6.92047 18.1893C5.48855 17.0141 4.50839 15.3788 4.14701 13.562C3.78564 11.7452 4.0654 9.85925 4.93864 8.22559C5.81187 6.59192 7.22454 5.31157 8.93595 4.60271C10.6474 3.89385 12.5516 3.80032 14.3243 4.33808C16.0969 4.87583 17.6282 6.01159 18.6573 7.55183C19.6864 9.09207 20.1497 10.9415 19.968 12.785C19.7864 14.6285 18.9712 16.3519 17.6613 17.6618C16.9196 18.4075 16.0373 18.9988 15.0655 19.4013C14.0937 19.8038 13.0517 20.0096 11.9999 20.0067ZM11.9999 5.27327C8.29079 5.27327 5.27319 8.29087 5.27319 12C5.27319 15.7091 8.29079 18.7267 11.9999 18.7267C15.709 18.7267 18.7266 15.7091 18.7266 12C18.7266 8.29087 15.709 5.27327 11.9999 5.27327Z" fill="#202020"/>
<path d="M8.98196 15.9821C8.62121 15.9821 8.26855 15.8751 7.9686 15.6747C7.66864 15.4743 7.43486 15.1894 7.2968 14.8561C7.15875 14.5228 7.12263 14.1561 7.19301 13.8022C7.26339 13.4484 7.43711 13.1234 7.6922 12.8683C7.94729 12.6132 8.27229 12.4395 8.62612 12.3691C8.97994 12.2987 9.34668 12.3349 9.67997 12.4729C10.0133 12.611 10.2981 12.8448 10.4986 13.1447C10.699 13.4447 10.806 13.7973 10.806 14.1581C10.806 14.6418 10.6138 15.1058 10.2717 15.4478C9.92966 15.7899 9.46571 15.9821 8.98196 15.9821ZM8.98196 13.617C8.87437 13.617 8.76919 13.6489 8.67973 13.7086C8.59027 13.7684 8.52054 13.8534 8.47937 13.9528C8.4382 14.0522 8.42742 14.1616 8.44841 14.2671C8.4694 14.3726 8.52121 14.4695 8.59729 14.5456C8.67337 14.6217 8.77031 14.6735 8.87583 14.6945C8.98136 14.7155 9.09074 14.7047 9.19014 14.6635C9.28954 14.6224 9.3745 14.5526 9.43428 14.4632C9.49405 14.3737 9.52596 14.2685 9.52596 14.161C9.52596 14.0167 9.46865 13.8783 9.36663 13.7763C9.26461 13.6743 9.12624 13.617 8.98196 13.617Z" fill="#202020"/>
<path d="M10.1649 14.7299C9.99516 14.7299 9.83238 14.6625 9.71235 14.5425C9.59233 14.4224 9.5249 14.2597 9.5249 14.0899V10.1037C9.52664 9.68055 9.68075 9.27221 9.95902 8.95345C10.2373 8.63469 10.6211 8.42685 11.0401 8.368L13.4705 8.03424C13.7184 8.00019 13.9707 8.01964 14.2105 8.09129C14.4503 8.16293 14.6719 8.28511 14.8605 8.44959C15.0491 8.61407 15.2002 8.81705 15.3038 9.04485C15.4074 9.27265 15.4609 9.52 15.4609 9.77024V13.4502C15.4609 13.62 15.3935 13.7828 15.2735 13.9028C15.1534 14.0228 14.9906 14.0902 14.8209 14.0902C14.6512 14.0902 14.4884 14.0228 14.3684 13.9028C14.2483 13.7828 14.1809 13.62 14.1809 13.4502V9.77024C14.1809 9.7028 14.1665 9.63614 14.1386 9.57474C14.1107 9.51334 14.07 9.45864 14.0192 9.41431C13.9684 9.36998 13.9086 9.33705 13.844 9.31775C13.7794 9.29844 13.7114 9.29321 13.6446 9.3024L11.2129 9.63616C11.1 9.65201 10.9967 9.708 10.9217 9.79386C10.8468 9.87973 10.8053 9.98972 10.8049 10.1037V14.0899C10.8049 14.2597 10.7375 14.4224 10.6175 14.5425C10.4974 14.6625 10.3346 14.7299 10.1649 14.7299Z" fill="#202020"/>
<path d="M13.6367 15.3139C13.2759 15.3139 12.9232 15.2069 12.6232 15.0064C12.3232 14.8059 12.0894 14.521 11.9514 14.1876C11.8134 13.8542 11.7774 13.4874 11.8479 13.1335C11.9184 12.7796 12.0923 12.4546 12.3475 12.1996C12.6028 11.9446 12.928 11.771 13.2819 11.7008C13.6358 11.6306 14.0026 11.6669 14.3359 11.8052C14.6691 11.9435 14.9539 12.1776 15.1541 12.4777C15.3544 12.7779 15.4611 13.1307 15.4607 13.4915C15.4603 13.975 15.268 14.4385 14.9259 14.7803C14.5839 15.122 14.1202 15.3139 13.6367 15.3139ZM13.6367 12.9488C13.5292 12.9488 13.424 12.9807 13.3345 13.0405C13.2451 13.1003 13.1753 13.1852 13.1342 13.2846C13.093 13.384 13.0822 13.4934 13.1032 13.5989C13.1242 13.7045 13.176 13.8014 13.2521 13.8775C13.3282 13.9536 13.4251 14.0054 13.5306 14.0264C13.6361 14.0473 13.7455 14.0366 13.8449 13.9954C13.9443 13.9542 14.0293 13.8845 14.0891 13.795C14.1488 13.7056 14.1807 13.6004 14.1807 13.4928C14.1807 13.3485 14.1234 13.2102 14.0214 13.1081C13.9194 13.0061 13.781 12.9488 13.6367 12.9488Z" fill="#202020"/>
</svg>
