<svg width="24" height="24" viewBox="0 0 24 24" fill="none" xmlns="http://www.w3.org/2000/svg">
<path d="M18.1712 20.4557H7.41668C6.50886 20.4548 5.63849 20.0937 4.99657 19.4518C4.35465 18.8099 3.99361 17.9395 3.99268 17.0317V6.96801C3.99361 6.06019 4.35465 5.18982 4.99657 4.5479C5.63849 3.90598 6.50886 3.54494 7.41668 3.54401H17.4807C18.3885 3.54494 19.2589 3.90598 19.9008 4.5479C20.5427 5.18982 20.9037 6.06019 20.9047 6.96801V14.56C20.9047 14.7297 20.8372 14.8925 20.7172 15.0126C20.5972 15.1326 20.4344 15.2 20.2647 15.2C20.0949 15.2 19.9321 15.1326 19.8121 15.0126C19.6921 14.8925 19.6247 14.7297 19.6247 14.56V6.96801C19.6242 6.39954 19.3981 5.8545 18.9962 5.45253C18.5942 5.05056 18.0491 4.82451 17.4807 4.82401H7.41668C6.84821 4.82451 6.30317 5.05056 5.9012 5.45253C5.49923 5.8545 5.27318 6.39954 5.27268 6.96801V17.032C5.27318 17.6005 5.49923 18.1455 5.9012 18.5475C6.30317 18.9494 6.84821 19.1755 7.41668 19.176H18.1712C18.341 19.176 18.5038 19.2434 18.6238 19.3635C18.7438 19.4835 18.8112 19.6463 18.8112 19.816C18.8112 19.9857 18.7438 20.1485 18.6238 20.2686C18.5038 20.3886 18.341 20.456 18.1712 20.456V20.4557Z" fill="#202020"/>
<path d="M9.75041 15.8678C9.38958 15.8681 9.03678 15.7614 8.73661 15.5612C8.43644 15.361 8.20241 15.0762 8.06411 14.743C7.92581 14.4097 7.88946 14.0429 7.95966 13.689C8.02986 13.335 8.20345 13.0099 8.45848 12.7546C8.7135 12.4994 9.03851 12.3255 9.39237 12.255C9.74624 12.1845 10.1131 12.2205 10.4464 12.3585C10.7798 12.4965 11.0648 12.7303 11.2653 13.0303C11.4658 13.3303 11.5728 13.683 11.5728 14.0438C11.5728 14.5273 11.3809 14.991 11.0391 15.333C10.6974 15.6751 10.2339 15.8674 9.75041 15.8678ZM9.75041 13.5024C9.64275 13.5021 9.53741 13.5337 9.44774 13.5933C9.35807 13.6529 9.28809 13.7377 9.24668 13.8371C9.20526 13.9365 9.19425 14.0459 9.21506 14.1515C9.23587 14.2572 9.28756 14.3543 9.36357 14.4305C9.43959 14.5067 9.53652 14.5587 9.64209 14.5798C9.74766 14.6009 9.85712 14.5903 9.95661 14.5491C10.0561 14.508 10.1412 14.4383 10.201 14.3488C10.2609 14.2593 10.2928 14.1541 10.2928 14.0464C10.2924 13.9027 10.2351 13.765 10.1335 13.6633C10.0318 13.5617 9.89413 13.5044 9.75041 13.504V13.5024Z" fill="#202020"/>
<path d="M10.9327 14.6157C10.763 14.6157 10.6002 14.5482 10.4802 14.4282C10.3602 14.3082 10.2927 14.1454 10.2927 13.9757V9.98944C10.2945 9.56631 10.4486 9.15797 10.7268 8.83921C11.0051 8.52045 11.3889 8.31261 11.8079 8.25376L14.2367 7.92C14.4846 7.88595 14.7369 7.90539 14.9767 7.97702C15.2164 8.04865 15.438 8.17079 15.6266 8.33524C15.8152 8.49969 15.9664 8.70263 16.0699 8.93039C16.1735 9.15815 16.2271 9.40546 16.2271 9.65568V13.3357C16.2271 13.5054 16.1597 13.6682 16.0397 13.7882C15.9196 13.9082 15.7569 13.9757 15.5871 13.9757C15.4174 13.9757 15.2546 13.9082 15.1346 13.7882C15.0146 13.6682 14.9471 13.5054 14.9471 13.3357V9.65568C14.9472 9.58827 14.9328 9.52162 14.905 9.46023C14.8771 9.39885 14.8364 9.34416 14.7856 9.29984C14.7348 9.25553 14.6751 9.22263 14.6105 9.20337C14.5459 9.1841 14.4779 9.17891 14.4111 9.18816L11.9791 9.5216C11.8662 9.53746 11.7628 9.59349 11.6879 9.67942C11.6129 9.76535 11.5715 9.87542 11.5711 9.98944V13.9757C11.5711 14.1451 11.5039 14.3077 11.3842 14.4277C11.2646 14.5476 11.1022 14.6153 10.9327 14.6157Z" fill="#202020"/>
<path d="M14.4048 15.2C14.0441 15.2 13.6914 15.093 13.3915 14.8926C13.0915 14.6922 12.8577 14.4073 12.7197 14.074C12.5816 13.7407 12.5455 13.374 12.6159 13.0202C12.6862 12.6663 12.86 12.3413 13.115 12.0862C13.3701 11.8311 13.6951 11.6574 14.049 11.5871C14.4028 11.5167 14.7695 11.5528 15.1028 11.6908C15.4361 11.8289 15.721 12.0627 15.9214 12.3626C16.1218 12.6626 16.2288 13.0152 16.2288 13.376C16.2288 13.8598 16.0366 14.3237 15.6946 14.6658C15.3525 15.0078 14.8886 15.2 14.4048 15.2ZM14.4048 12.8349C14.2972 12.8349 14.1919 12.8668 14.1024 12.9267C14.0129 12.9865 13.9432 13.0716 13.9021 13.1711C13.8609 13.2706 13.8503 13.38 13.8714 13.4856C13.8925 13.5912 13.9445 13.6881 14.0207 13.7641C14.097 13.8401 14.194 13.8918 14.2997 13.9126C14.4053 13.9334 14.5147 13.9224 14.6141 13.881C14.7135 13.8396 14.7983 13.7696 14.8579 13.6799C14.9175 13.5903 14.9491 13.4849 14.9488 13.3773C14.9485 13.2332 14.891 13.0952 14.789 12.9934C14.687 12.8917 14.5489 12.8346 14.4048 12.8346V12.8349ZM19.8551 20.7699C19.2258 20.77 18.6107 20.5835 18.0875 20.2339C17.5642 19.8844 17.1564 19.3875 16.9156 18.8062C16.6747 18.2249 16.6117 17.5852 16.7344 16.968C16.8571 16.3509 17.1601 15.7839 17.605 15.339C18.0499 14.894 18.6168 14.591 19.2339 14.4682C19.8511 14.3454 20.4908 14.4084 21.0721 14.6492C21.6535 14.89 22.1504 15.2977 22.5 15.8209C22.8496 16.3441 23.0362 16.9592 23.0362 17.5885C23.0352 18.4319 22.6998 19.2405 22.1034 19.837C21.5071 20.4334 20.6985 20.7689 19.8551 20.7699ZM19.8551 15.687C19.479 15.687 19.1113 15.7984 18.7986 16.0073C18.4858 16.2162 18.2421 16.5132 18.0981 16.8606C17.9542 17.208 17.9165 17.5904 17.9898 17.9592C18.0631 18.3281 18.2442 18.6669 18.5101 18.9329C18.776 19.1988 19.1148 19.38 19.4837 19.4534C19.8525 19.5268 20.2348 19.4891 20.5823 19.3452C20.9298 19.2013 21.2268 18.9576 21.4357 18.6449C21.6446 18.3322 21.7562 17.9646 21.7562 17.5885C21.7556 17.0844 21.5551 16.6012 21.1987 16.2447C20.8423 15.8883 20.3591 15.6877 19.8551 15.687Z" fill="#202020"/>
<path d="M23.04 21.7414C22.9535 21.7416 22.8678 21.7241 22.7883 21.6901C22.7087 21.6561 22.6369 21.6063 22.5772 21.5437L21.056 19.952C20.9968 19.8915 20.9502 19.8198 20.9189 19.7411C20.8876 19.6624 20.8722 19.5783 20.8736 19.4937C20.8751 19.409 20.8933 19.3255 20.9272 19.2479C20.9612 19.1703 21.0102 19.1003 21.0714 19.0418C21.1326 18.9833 21.2049 18.9375 21.2839 18.9071C21.3629 18.8768 21.4472 18.8624 21.5319 18.8648C21.6165 18.8672 21.6998 18.8864 21.777 18.9213C21.8541 18.9561 21.9236 19.0059 21.9814 19.0678L23.502 20.6595C23.5885 20.7501 23.6465 20.8641 23.6689 20.9873C23.6912 21.1106 23.6769 21.2376 23.6277 21.3528C23.5785 21.468 23.4966 21.5662 23.3921 21.6353C23.2876 21.7044 23.1652 21.7413 23.04 21.7414Z" fill="#202020"/>
</svg>
