<svg width="24" height="24" viewBox="0 0 24 24" fill="none" xmlns="http://www.w3.org/2000/svg">
<path d="M18.3629 19.4051C17.7968 19.4045 17.2539 19.1794 16.8536 18.779C16.4532 18.3787 16.2279 17.8359 16.2273 17.2698V15.1773C16.2279 14.6111 16.4532 14.0683 16.8536 13.668C17.2539 13.2677 17.7968 13.0425 18.3629 13.0419H18.8279V12C18.8279 8.62271 16.0801 5.87487 12.7028 5.87487C9.32551 5.87487 6.57735 8.62271 6.57735 12V12.9638L7.09863 12.9462C7.38195 12.9368 7.66428 12.9844 7.92882 13.0863C8.19337 13.1882 8.43472 13.3422 8.63854 13.5393C8.84235 13.7363 9.00445 13.9723 9.11521 14.2332C9.22597 14.4942 9.28312 14.7748 9.28327 15.0582V17.2896C9.28293 17.8505 9.05998 18.3884 8.66338 18.785C8.26679 19.1817 7.72898 19.4047 7.16807 19.4051C6.67188 19.4046 6.19615 19.2073 5.84526 18.8565C5.49437 18.5056 5.29698 18.0299 5.29639 17.5338V12C5.30924 10.0444 6.09511 8.17333 7.48247 6.79505C8.86983 5.41678 10.7461 4.64323 12.7017 4.64323C14.6573 4.64323 16.5335 5.41678 17.9209 6.79505C19.3082 8.17333 20.0941 10.0444 20.1069 12V17.6602C20.1064 18.1226 19.9226 18.566 19.5956 18.8931C19.2687 19.2202 18.8254 19.4044 18.3629 19.4051ZM18.3629 14.3219C18.1361 14.3222 17.9187 14.4124 17.7583 14.5727C17.5979 14.7331 17.5076 14.9505 17.5073 15.1773V17.2698C17.5076 17.4966 17.5979 17.714 17.7583 17.8743C17.9187 18.0347 18.1361 18.1249 18.3629 18.1251C18.4862 18.1249 18.6044 18.0759 18.6915 17.9887C18.7787 17.9016 18.8277 17.7834 18.8279 17.6602V14.3219H18.3629ZM6.57735 14.2445V17.5338C6.5776 17.6904 6.6399 17.8406 6.75061 17.9514C6.86131 18.0622 7.01142 18.1247 7.16807 18.1251C7.38924 18.1249 7.60129 18.0369 7.75768 17.8805C7.91408 17.7241 8.00205 17.5121 8.00231 17.2909V15.0595C8.00233 14.9476 7.97983 14.8368 7.93616 14.7338C7.89248 14.6308 7.82852 14.5376 7.74809 14.4598C7.66765 14.382 7.57239 14.3211 7.46796 14.2809C7.36353 14.2407 7.25207 14.2219 7.14023 14.2256L6.57735 14.2445Z" fill="#202020"/>
<path d="M11.4881 12.64C11.4708 12.64 11.4536 12.64 11.436 12.6378C11.319 12.6282 11.2068 12.5867 11.1118 12.5177C11.0169 12.4488 10.9427 12.355 10.8974 12.2467L10.4292 11.1267H9.09483C8.9251 11.1267 8.76231 11.0593 8.64229 10.9393C8.52226 10.8192 8.45483 10.6565 8.45483 10.4867C8.45483 10.317 8.52226 10.1542 8.64229 10.0342C8.76231 9.91414 8.9251 9.84671 9.09483 9.84671H10.8564C10.9827 9.84668 11.1062 9.884 11.2113 9.95398C11.3164 10.024 11.3985 10.1235 11.4472 10.24L11.6024 10.6118L12.9784 8.40831C13.0464 8.29952 13.1455 8.21367 13.2629 8.16191C13.3803 8.11015 13.5105 8.09487 13.6367 8.11805C13.7629 8.14123 13.8792 8.2018 13.9705 8.29191C14.0619 8.38201 14.124 8.49749 14.1489 8.62335L14.4321 10.048H15.5777C15.7475 10.048 15.9102 10.1154 16.0303 10.2354C16.1503 10.3555 16.2177 10.5183 16.2177 10.688C16.2177 10.8577 16.1503 11.0205 16.0303 11.1405C15.9102 11.2606 15.7475 11.328 15.5777 11.328H13.906C13.7578 11.328 13.6142 11.2766 13.4997 11.1825C13.3852 11.0884 13.3069 10.9575 13.2782 10.8122L13.2078 10.456L12.0321 12.3392C11.9745 12.4314 11.8943 12.5074 11.7991 12.5601C11.7039 12.6127 11.5969 12.6402 11.4881 12.64Z" fill="#202020"/>
</svg>
