<svg width="24" height="24" viewBox="0 0 24 24" fill="none" xmlns="http://www.w3.org/2000/svg">
<path d="M9.1199 18.3293C8.75915 18.3293 8.40649 18.2223 8.10654 18.0219C7.80658 17.8215 7.5728 17.5366 7.43474 17.2033C7.29669 16.87 7.26057 16.5033 7.33095 16.1494C7.40133 15.7956 7.57505 15.4706 7.83014 15.2155C8.08523 14.9604 8.41023 14.7867 8.76405 14.7163C9.11788 14.6459 9.48462 14.6821 9.81791 14.8201C10.1512 14.9582 10.4361 15.192 10.6365 15.4919C10.8369 15.7919 10.9439 16.1445 10.9439 16.5053C10.9439 16.989 10.7517 17.453 10.4097 17.795C10.0676 18.1371 9.60365 18.3293 9.1199 18.3293ZM9.1199 15.9642C9.01231 15.9642 8.90713 15.9961 8.81767 16.0558C8.72821 16.1156 8.65848 16.2006 8.61731 16.3C8.57613 16.3994 8.56536 16.5088 8.58635 16.6143C8.60734 16.7198 8.65915 16.8167 8.73523 16.8928C8.81131 16.9689 8.90824 17.0207 9.01377 17.0417C9.1193 17.0627 9.22868 17.0519 9.32808 17.0107C9.42748 16.9696 9.51244 16.8998 9.57222 16.8104C9.63199 16.7209 9.6639 16.6157 9.6639 16.5082C9.6639 16.3639 9.60659 16.2255 9.50457 16.1235C9.40255 16.0215 9.26418 15.9642 9.1199 15.9642Z" fill="#202020"/>
<path d="M10.3041 17.0771C10.1343 17.0771 9.97154 17.0097 9.85151 16.8897C9.73149 16.7696 9.66406 16.6069 9.66406 16.4371V12.4509C9.66575 12.0279 9.81969 11.6198 10.0977 11.301C10.3757 10.9823 10.7592 10.7743 11.178 10.7152L13.6081 10.3814C13.8559 10.3474 14.1083 10.3668 14.348 10.4385C14.5877 10.5101 14.8094 10.6322 14.9979 10.7967C15.1865 10.9611 15.3377 11.1641 15.4413 11.3918C15.5449 11.6196 15.5985 11.8669 15.5985 12.1171V15.7971C15.5985 15.9669 15.531 16.1296 15.411 16.2497C15.291 16.3697 15.1282 16.4371 14.9585 16.4371C14.7887 16.4371 14.6259 16.3697 14.5059 16.2497C14.3859 16.1296 14.3185 15.9669 14.3185 15.7971V12.1171C14.3184 12.0497 14.304 11.9831 14.2761 11.9218C14.2482 11.8605 14.2075 11.8058 14.1567 11.7615C14.1059 11.7172 14.0463 11.6843 13.9817 11.665C13.9172 11.6457 13.8492 11.6405 13.7825 11.6496L11.3521 11.9834C11.2392 11.9992 11.1358 12.0552 11.0609 12.1411C10.986 12.2269 10.9445 12.3369 10.9441 12.4509V16.4371C10.9441 16.6069 10.8766 16.7696 10.7566 16.8897C10.6366 17.0097 10.4738 17.0771 10.3041 17.0771Z" fill="#202020"/>
<path d="M13.7751 17.6611C13.4142 17.6614 13.0614 17.5547 12.7613 17.3545C12.4611 17.1543 12.2271 16.8695 12.0888 16.5362C11.9505 16.203 11.9141 15.8362 11.9843 15.4823C12.0545 15.1283 12.2281 14.8032 12.4831 14.5479C12.7382 14.2927 13.0632 14.1188 13.417 14.0483C13.7709 13.9778 14.1377 14.0138 14.4711 14.1518C14.8045 14.2898 15.0895 14.5236 15.29 14.8236C15.4904 15.1236 15.5975 15.4763 15.5975 15.8371C15.5975 16.3206 15.4055 16.7843 15.0638 17.1263C14.7221 17.4683 14.2585 17.6607 13.7751 17.6611ZM13.7751 15.296C13.6674 15.2957 13.5621 15.3273 13.4724 15.3869C13.3827 15.4465 13.3128 15.5313 13.2713 15.6307C13.2299 15.7301 13.2189 15.8395 13.2397 15.9451C13.2605 16.0508 13.3122 16.1479 13.3882 16.2241C13.4642 16.3003 13.5612 16.3523 13.6667 16.3734C13.7723 16.3946 13.8818 16.3839 13.9813 16.3427C14.0808 16.3016 14.1658 16.2319 14.2257 16.1424C14.2855 16.0529 14.3175 15.9477 14.3175 15.84C14.3175 15.696 14.2604 15.5579 14.1587 15.4559C14.057 15.3539 13.9191 15.2964 13.7751 15.296Z" fill="#202020"/>
<path d="M18.1194 20.9386H6.20065C5.35971 20.9376 4.55348 20.6032 3.95885 20.0085C3.36421 19.4139 3.02974 18.6077 3.02881 17.7667V10.9277C3.02974 10.0867 3.36421 9.28052 3.95885 8.68588C4.55348 8.09125 5.35971 7.75678 6.20065 7.75584H18.1194C18.9603 7.75678 19.7665 8.09125 20.3612 8.68588C20.9558 9.28052 21.2903 10.0867 21.2912 10.9277V17.7667C21.2903 18.6077 20.9558 19.4139 20.3612 20.0085C19.7665 20.6032 18.9603 20.9376 18.1194 20.9386ZM6.20065 9.03456C5.69908 9.03516 5.21823 9.23467 4.86357 9.58933C4.50891 9.94399 4.3094 10.4248 4.30881 10.9264V17.7667C4.3094 18.2683 4.50891 18.7491 4.86357 19.1038C5.21823 19.4585 5.69908 19.658 6.20065 19.6586H18.1194C18.6209 19.658 19.1018 19.4585 19.4564 19.1038C19.8111 18.7491 20.0106 18.2683 20.0112 17.7667V10.9277C20.0106 10.4261 19.8111 9.94527 19.4564 9.59061C19.1018 9.23595 18.6209 9.03644 18.1194 9.03584L6.20065 9.03456Z" fill="#202020"/>
<path d="M17.2583 9.03584H7.05986C6.94668 9.03583 6.83552 9.00581 6.73772 8.94882C6.63992 8.89184 6.55898 8.80994 6.50316 8.71147C6.44734 8.613 6.41863 8.50149 6.41997 8.38831C6.4213 8.27513 6.45262 8.16433 6.51075 8.0672L7.40962 6.5648C7.55562 6.32227 7.7617 6.12149 8.00795 5.98186C8.2542 5.84223 8.5323 5.76846 8.81539 5.76768H15.6851C15.9951 5.76864 16.2985 5.85708 16.5605 6.02284C16.8224 6.18859 17.0322 6.42492 17.1658 6.70464L17.8378 8.12192C17.884 8.21948 17.9048 8.32714 17.8982 8.43489C17.8916 8.54263 17.8579 8.64696 17.8001 8.73817C17.7424 8.82938 17.6625 8.9045 17.5679 8.95654C17.4734 9.00859 17.3672 9.03587 17.2592 9.03584H17.2583ZM8.1885 7.75584H16.2471L16.009 7.25248C15.9797 7.19135 15.9338 7.1397 15.8765 7.10347C15.8193 7.06724 15.7529 7.04791 15.6851 7.04768H8.81539C8.75345 7.04785 8.69261 7.06398 8.63874 7.09454C8.58487 7.12509 8.53979 7.16902 8.50786 7.22208L8.1885 7.75584Z" fill="#202020"/>
<path d="M15.3722 7.04768H9.23273C9.12495 7.04771 9.01892 7.02053 8.92446 6.96865C8.82999 6.91677 8.75016 6.84188 8.69236 6.75092C8.63456 6.65996 8.60067 6.55588 8.59382 6.44833C8.58698 6.34077 8.6074 6.23323 8.65321 6.13568L9.35529 4.64C9.50504 4.32308 9.74158 4.05511 10.0375 3.86718C10.3333 3.67926 10.6764 3.57907 11.027 3.57824H13.5182C13.8591 3.57729 14.1935 3.67115 14.4841 3.84932C14.7748 4.0275 15.0101 4.28297 15.1639 4.5872L15.9425 6.11712C15.9921 6.21468 16.0159 6.32333 16.0116 6.43271C16.0072 6.54208 15.9749 6.64852 15.9177 6.74184C15.8605 6.83516 15.7803 6.91225 15.6848 6.96574C15.5893 7.01923 15.4817 7.04733 15.3722 7.04736V7.04768ZM10.2401 5.76768H14.3284L14.0231 5.16832C13.976 5.07495 13.9037 4.99653 13.8146 4.94183C13.7254 4.88713 13.6228 4.8583 13.5182 4.85856H11.027C10.9196 4.85904 10.8145 4.88989 10.7239 4.94753C10.6333 5.00517 10.5609 5.08726 10.515 5.18432L10.2401 5.76768Z" fill="#202020"/>
</svg>
