<svg width="24" height="24" viewBox="0 0 24 24" fill="none" xmlns="http://www.w3.org/2000/svg">
<path d="M17.0319 20.4557H6.96795C6.06016 20.4547 5.18984 20.0936 4.54793 19.4517C3.90603 18.8098 3.54496 17.9395 3.54395 17.0317V6.96801C3.54496 6.06022 3.90603 5.1899 4.54793 4.548C5.18984 3.90609 6.06016 3.54502 6.96795 3.54401H17.0319C17.9397 3.54502 18.8101 3.90609 19.452 4.548C20.0939 5.1899 20.4549 6.06022 20.4559 6.96801V14.56C20.4559 14.7297 20.3885 14.8925 20.2685 15.0126C20.1485 15.1326 19.9857 15.2 19.8159 15.2C19.6462 15.2 19.4834 15.1326 19.3634 15.0126C19.2434 14.8925 19.1759 14.7297 19.1759 14.56V6.96801C19.1754 6.39954 18.9494 5.8545 18.5474 5.45253C18.1455 5.05056 17.6004 4.82451 17.0319 4.82401H6.96795C6.39948 4.82451 5.85444 5.05056 5.45247 5.45253C5.0505 5.8545 4.82445 6.39954 4.82395 6.96801V17.032C4.82445 17.6005 5.0505 18.1455 5.45247 18.5475C5.85444 18.9494 6.39948 19.1755 6.96795 19.176H17.0319C17.2017 19.176 17.3645 19.2434 17.4845 19.3635C17.6045 19.4835 17.6719 19.6463 17.6719 19.816C17.6719 19.9857 17.6045 20.1485 17.4845 20.2686C17.3645 20.3886 17.2017 20.456 17.0319 20.456V20.4557Z" fill="#202020"/>
<path d="M9.30154 15.8678C8.94079 15.8678 8.58814 15.7609 8.28818 15.5604C7.98822 15.36 7.75444 15.0751 7.61638 14.7418C7.47833 14.4086 7.44221 14.0418 7.51259 13.688C7.58297 13.3342 7.75669 13.0092 8.01178 12.7541C8.26687 12.499 8.59187 12.3253 8.9457 12.2549C9.29952 12.1845 9.66626 12.2206 9.99955 12.3587C10.3328 12.4967 10.6177 12.7305 10.8181 13.0305C11.0186 13.3304 11.1255 13.6831 11.1255 14.0438C11.1255 14.5276 10.9334 14.9915 10.5913 15.3336C10.2492 15.6757 9.7853 15.8678 9.30154 15.8678ZM9.30154 13.5024C9.19395 13.5024 9.08877 13.5343 8.99931 13.5941C8.90985 13.6538 8.84012 13.7388 8.79895 13.8382C8.75778 13.9376 8.747 14.047 8.76799 14.1525C8.78898 14.258 8.84079 14.355 8.91687 14.4311C8.99295 14.5071 9.08988 14.559 9.19541 14.5799C9.30094 14.6009 9.41032 14.5902 9.50972 14.549C9.60912 14.5078 9.69408 14.4381 9.75386 14.3486C9.81364 14.2592 9.84554 14.154 9.84554 14.0464C9.84512 13.9024 9.78762 13.7644 9.68564 13.6628C9.58367 13.5611 9.44554 13.504 9.30154 13.504V13.5024Z" fill="#202020"/>
<path d="M10.4842 14.6157C10.3145 14.6157 10.1517 14.5482 10.0317 14.4282C9.91167 14.3082 9.84424 14.1454 9.84424 13.9757V9.98944C9.84592 9.56655 9.99981 9.1584 10.2778 8.83968C10.5557 8.52095 10.9391 8.31296 11.3578 8.25376L13.7882 7.92C14.0361 7.886 14.2884 7.90549 14.5281 7.97713C14.7678 8.04878 14.9894 8.17093 15.178 8.33537C15.3666 8.49981 15.5177 8.70272 15.6213 8.93046C15.7249 9.1582 15.7786 9.40548 15.7786 9.65568V13.3357C15.7786 13.5054 15.7112 13.6682 15.5912 13.7882C15.4712 13.9082 15.3084 13.9757 15.1386 13.9757C14.9689 13.9757 14.8061 13.9082 14.6861 13.7882C14.5661 13.6682 14.4986 13.5054 14.4986 13.3357V9.65568C14.4986 9.58827 14.4842 9.52164 14.4563 9.46028C14.4283 9.39892 14.3876 9.34426 14.3368 9.29996C14.286 9.25566 14.2263 9.22277 14.1617 9.20348C14.0971 9.1842 14.0291 9.17897 13.9623 9.18816L11.5319 9.5216C11.4191 9.53759 11.3158 9.59367 11.2409 9.67958C11.1661 9.76549 11.1246 9.87549 11.1242 9.98944V13.9757C11.1242 14.1454 11.0568 14.3082 10.9368 14.4282C10.8168 14.5482 10.654 14.6157 10.4842 14.6157Z" fill="#202020"/>
<path d="M13.9558 15.2C13.5951 15.2 13.2424 15.093 12.9425 14.8926C12.6425 14.6922 12.4087 14.4073 12.2707 14.074C12.1326 13.7407 12.0965 13.374 12.1669 13.0202C12.2373 12.6663 12.411 12.3413 12.6661 12.0862C12.9212 11.8311 13.2462 11.6574 13.6 11.5871C13.9538 11.5167 14.3206 11.5528 14.6539 11.6908C14.9871 11.8289 15.272 12.0627 15.4724 12.3626C15.6729 12.6626 15.7798 13.0152 15.7798 13.376C15.7798 13.8598 15.5877 14.3237 15.2456 14.6658C14.9035 15.0078 14.4396 15.2 13.9558 15.2ZM13.9558 12.8349C13.8482 12.8349 13.7429 12.8668 13.6534 12.9267C13.5639 12.9865 13.4942 13.0716 13.4531 13.1711C13.412 13.2706 13.4013 13.38 13.4224 13.4856C13.4435 13.5912 13.4955 13.6881 13.5717 13.7641C13.648 13.8401 13.7451 13.8918 13.8507 13.9126C13.9563 13.9334 14.0658 13.9224 14.1651 13.881C14.2645 13.8396 14.3494 13.7696 14.4089 13.6799C14.4685 13.5903 14.5002 13.4849 14.4998 13.3773C14.4995 13.2332 14.442 13.0952 14.3401 12.9934C14.2381 12.8917 14.0999 12.8346 13.9558 12.8346V12.8349ZM19.4061 20.7699C18.7768 20.7699 18.1617 20.5833 17.6386 20.2338C17.1154 19.8842 16.7076 19.3873 16.4668 18.806C16.226 18.2246 16.163 17.585 16.2858 16.9678C16.4085 16.3507 16.7115 15.7838 17.1565 15.3389C17.6014 14.8939 18.1683 14.5909 18.7854 14.4682C19.4025 14.3454 20.0422 14.4084 20.6236 14.6492C21.2049 14.89 21.7018 15.2978 22.0513 15.821C22.4009 16.3442 22.5875 16.9593 22.5875 17.5885C22.5867 18.432 22.2512 19.2407 21.6548 19.8372C21.0583 20.4336 20.2496 20.7691 19.4061 20.7699ZM19.4061 15.687C19.03 15.687 18.6624 15.7986 18.3497 16.0075C18.037 16.2164 17.7933 16.5134 17.6494 16.8608C17.5055 17.2083 17.4678 17.5906 17.5412 17.9594C17.6145 18.3283 17.7956 18.6671 18.0616 18.933C18.3275 19.1989 18.6663 19.38 19.0351 19.4534C19.404 19.5268 19.7863 19.4891 20.1337 19.3452C20.4812 19.2013 20.7781 18.9576 20.9871 18.6449C21.196 18.3322 21.3075 17.9646 21.3075 17.5885C21.307 17.0843 21.1065 16.601 20.75 16.2445C20.3936 15.888 19.9102 15.6876 19.4061 15.687Z" fill="#202020"/>
<path d="M18.72 18.9366C18.5934 18.9367 18.4696 18.8992 18.3643 18.8288C18.259 18.7585 18.177 18.6585 18.1285 18.5415C18.0801 18.4245 18.0674 18.2958 18.0922 18.1716C18.1169 18.0474 18.178 17.9333 18.2675 17.8438L19.705 16.4064C19.7635 16.343 19.8342 16.2921 19.9129 16.2567C19.9916 16.2214 20.0767 16.2023 20.1629 16.2006C20.2492 16.199 20.3349 16.2148 20.4149 16.2471C20.4949 16.2794 20.5675 16.3275 20.6284 16.3886C20.6894 16.4497 20.7373 16.5225 20.7694 16.6026C20.8015 16.6826 20.817 16.7684 20.8151 16.8547C20.8132 16.9409 20.7939 17.0259 20.7583 17.1045C20.7227 17.1831 20.6716 17.2537 20.608 17.312L19.1706 18.7494C19.051 18.8689 18.889 18.9362 18.72 18.9366Z" fill="#202020"/>
<path d="M20.1568 18.9366C19.9871 18.9366 19.8243 18.8692 19.7043 18.7491L18.2669 17.312C18.1468 17.192 18.0794 17.0292 18.0793 16.8595C18.0793 16.6897 18.1467 16.5269 18.2667 16.4069C18.3867 16.2868 18.5495 16.2194 18.7192 16.2193C18.889 16.2193 19.0518 16.2867 19.1718 16.4067L20.608 17.8438C20.6976 17.9333 20.7586 18.0474 20.7834 18.1716C20.8081 18.2957 20.7955 18.4245 20.747 18.5415C20.6986 18.6585 20.6165 18.7585 20.5112 18.8288C20.4059 18.8991 20.2821 18.9367 20.1555 18.9366H20.1568Z" fill="#202020"/>
</svg>
