<svg width="24" height="24" viewBox="0 0 24 24" fill="none" xmlns="http://www.w3.org/2000/svg">
<path d="M10.2931 20.591C9.65116 20.591 9.02361 20.4007 8.48984 20.044C7.95607 19.6873 7.54006 19.1804 7.2944 18.5873C7.04875 17.9942 6.98449 17.3416 7.10975 16.7119C7.23502 16.0823 7.54418 15.504 7.99814 15.0501C8.4521 14.5962 9.03047 14.287 9.6601 14.1618C10.2897 14.0366 10.9424 14.101 11.5354 14.3467C12.1285 14.5924 12.6354 15.0085 12.992 15.5423C13.3486 16.0761 13.5389 16.7036 13.5389 17.3456C13.538 18.2061 13.1957 19.0311 12.5872 19.6396C11.9787 20.248 11.1536 20.5902 10.2931 20.591ZM10.2931 15.3798C9.90433 15.3798 9.52427 15.4951 9.20101 15.7111C8.87774 15.9271 8.62578 16.2341 8.477 16.5933C8.32822 16.9525 8.28929 17.3478 8.36514 17.7291C8.44099 18.1104 8.62821 18.4607 8.90312 18.7356C9.17804 19.0105 9.5283 19.1977 9.90962 19.2736C10.2909 19.3494 10.6862 19.3105 11.0454 19.1617C11.4046 19.0129 11.7116 18.761 11.9276 18.4377C12.1436 18.1144 12.2589 17.7344 12.2589 17.3456C12.2584 16.8244 12.0511 16.3247 11.6826 15.9562C11.314 15.5876 10.8143 15.3803 10.2931 15.3798Z" fill="#202020"/>
<path d="M12.8988 17.8963C12.7291 17.8963 12.5663 17.8289 12.4462 17.7089C12.3262 17.5888 12.2588 17.4261 12.2588 17.2563V8.32C12.2588 8.31082 12.2588 8.30154 12.2588 8.29216V6.336C12.2588 6.11907 12.3141 5.90573 12.4194 5.7161C12.5248 5.52647 12.6767 5.36681 12.8608 5.25217C13.045 5.13753 13.2553 5.07171 13.472 5.0609C13.6886 5.05009 13.9045 5.09466 14.0991 5.1904L18.6879 7.44928C18.9025 7.55384 19.0832 7.7168 19.2093 7.91944C19.3354 8.12209 19.4018 8.35619 19.4009 8.59488V10.0774C19.4009 10.2929 19.3465 10.5048 19.2426 10.6935C19.1387 10.8822 18.9887 11.0416 18.8067 11.1568C18.6246 11.2719 18.4164 11.3392 18.2014 11.3522C17.9863 11.3653 17.7715 11.3237 17.5769 11.2314L13.5388 9.3184V17.2563C13.5388 17.4261 13.4714 17.5888 13.3513 17.7089C13.2313 17.8289 13.0685 17.8963 12.8988 17.8963ZM13.5388 7.90208L18.1212 10.0723V8.59712L13.5388 6.34208V7.90208Z" fill="#202020"/>
</svg>
