<svg width="24" height="24" viewBox="0 0 24 24" fill="none" xmlns="http://www.w3.org/2000/svg">
<path d="M8.95999 18.3526C8.59923 18.3526 8.24658 18.2457 7.94663 18.0452C7.64667 17.8448 7.41289 17.5599 7.27483 17.2267C7.13678 16.8934 7.10066 16.5266 7.17103 16.1728C7.24141 15.819 7.41513 15.494 7.67022 15.2389C7.92532 14.9838 8.25032 14.8101 8.60414 14.7397C8.95796 14.6693 9.32471 14.7054 9.658 14.8435C9.99129 14.9815 10.2762 15.2153 10.4766 15.5153C10.677 15.8152 10.784 16.1679 10.784 16.5286C10.784 17.0124 10.5918 17.4763 10.2497 17.8184C9.90768 18.1605 9.44374 18.3526 8.95999 18.3526ZM8.95999 15.9875C8.85233 15.9875 8.74709 16.0195 8.65759 16.0793C8.5681 16.1392 8.49837 16.2242 8.45724 16.3237C8.41612 16.4232 8.40544 16.5327 8.42656 16.6382C8.44768 16.7438 8.49965 16.8407 8.57589 16.9167C8.65213 16.9928 8.74921 17.0444 8.85484 17.0653C8.96047 17.0861 9.0699 17.0751 9.16928 17.0336C9.26865 16.9922 9.3535 16.9223 9.41309 16.8326C9.47267 16.7429 9.5043 16.6376 9.50399 16.5299C9.50356 16.3859 9.44606 16.248 9.34409 16.1463C9.24211 16.0446 9.10399 15.9875 8.95999 15.9875Z" fill="#202020"/>
<path d="M10.1439 17.1005C9.97417 17.1005 9.81138 17.0331 9.69136 16.913C9.57133 16.793 9.50391 16.6302 9.50391 16.4605V12.4742C9.5056 12.0513 9.65953 11.6431 9.93754 11.3244C10.2156 11.0057 10.599 10.7977 11.0178 10.7386L13.4479 10.4048C13.6958 10.3708 13.9481 10.3902 14.1878 10.4618C14.4276 10.5334 14.6492 10.6556 14.8378 10.82C15.0264 10.9845 15.1775 11.1874 15.2811 11.4152C15.3847 11.643 15.4383 11.8903 15.4383 12.1405V15.8205C15.4383 15.9902 15.3709 16.153 15.2509 16.273C15.1308 16.3931 14.968 16.4605 14.7983 16.4605C14.6286 16.4605 14.4658 16.3931 14.3458 16.273C14.2257 16.153 14.1583 15.9902 14.1583 15.8205V12.1405C14.1583 12.0731 14.1438 12.0065 14.1159 11.9452C14.088 11.8838 14.0473 11.8292 13.9966 11.7849C13.9458 11.7406 13.8861 11.7077 13.8216 11.6884C13.757 11.6691 13.6891 11.6638 13.6223 11.673L11.1919 12.0067C11.079 12.0225 10.9756 12.0785 10.9007 12.1644C10.8257 12.2502 10.7843 12.3603 10.7839 12.4742V16.4605C10.7839 16.6302 10.7165 16.793 10.5965 16.913C10.4764 17.0331 10.3136 17.1005 10.1439 17.1005Z" fill="#202020"/>
<path d="M13.6152 17.6845C13.2543 17.6848 12.9015 17.5781 12.6014 17.3779C12.3012 17.1776 12.0672 16.8929 11.9289 16.5596C11.7906 16.2263 11.7542 15.8595 11.8244 15.5056C11.8946 15.1517 12.0682 14.8265 12.3232 14.5713C12.5783 14.316 12.9033 14.1422 13.2571 14.0716C13.611 14.0011 13.9778 14.0372 14.3112 14.1752C14.6446 14.3132 14.9295 14.547 15.13 14.847C15.3305 15.1469 15.4376 15.4997 15.4376 15.8605C15.4376 16.344 15.2456 16.8077 14.9039 17.1497C14.5622 17.4917 14.0986 17.6841 13.6152 17.6845ZM13.6152 15.3194C13.5074 15.319 13.402 15.3507 13.3123 15.4104C13.2226 15.47 13.1526 15.555 13.1113 15.6544C13.0699 15.7539 13.059 15.8634 13.0799 15.9691C13.1009 16.0748 13.1527 16.1719 13.2289 16.248C13.3051 16.3242 13.4021 16.376 13.5078 16.397C13.6135 16.4179 13.723 16.407 13.8225 16.3656C13.9219 16.3243 14.0069 16.2543 14.0665 16.1646C14.1262 16.0749 14.1579 15.9695 14.1576 15.8618C14.1571 15.718 14.0998 15.5803 13.9982 15.4787C13.8966 15.3771 13.7589 15.3198 13.6152 15.3194Z" fill="#202020"/>
<path d="M17.9595 20.9616H6.04074C5.19983 20.9607 4.3936 20.6263 3.79896 20.0318C3.20431 19.4372 2.86983 18.631 2.8689 17.7901V10.951C2.86983 10.1101 3.2043 9.30387 3.79894 8.70923C4.39357 8.1146 5.1998 7.78013 6.04074 7.77919H17.9595C18.8004 7.78013 19.6066 8.1146 20.2013 8.70923C20.7959 9.30387 21.1304 10.1101 21.1313 10.951V17.7901C21.1304 18.631 20.7959 19.4372 20.2012 20.0318C19.6066 20.6263 18.8004 20.9607 17.9595 20.9616ZM6.04074 9.05919C5.53917 9.05979 5.05832 9.2593 4.70366 9.61396C4.349 9.96862 4.14949 10.4495 4.1489 10.951V17.7901C4.14949 18.2916 4.34901 18.7724 4.70368 19.127C5.05835 19.4816 5.5392 19.6811 6.04074 19.6816H17.9595C18.461 19.6811 18.9418 19.4816 19.2965 19.127C19.6512 18.7724 19.8507 18.2916 19.8513 17.7901V10.951C19.8507 10.4495 19.6512 9.96862 19.2965 9.61396C18.9419 9.2593 18.461 9.05979 17.9595 9.05919H6.04074ZM14.7758 7.07199H9.38826C9.21852 7.07199 9.05573 7.00457 8.93571 6.88454C8.81568 6.76452 8.74826 6.60173 8.74826 6.43199C8.74826 6.26226 8.81568 6.09947 8.93571 5.97945C9.05573 5.85942 9.21852 5.79199 9.38826 5.79199H14.7758C14.9455 5.79199 15.1083 5.85942 15.2283 5.97945C15.3483 6.09947 15.4158 6.26226 15.4158 6.43199C15.4158 6.60173 15.3483 6.76452 15.2283 6.88454C15.1083 7.00457 14.9455 7.07199 14.7758 7.07199ZM13.7364 4.88191H10.4273C10.2576 4.88191 10.0948 4.81449 9.97475 4.69446C9.85472 4.57444 9.7873 4.41165 9.7873 4.24191C9.7873 4.07217 9.85472 3.90939 9.97475 3.78937C10.0948 3.66934 10.2576 3.60191 10.4273 3.60191H13.7364C13.9062 3.60191 14.0689 3.66934 14.189 3.78937C14.309 3.90939 14.3764 4.07217 14.3764 4.24191C14.3764 4.41165 14.309 4.57444 14.189 4.69446C14.0689 4.81449 13.9062 4.88191 13.7364 4.88191Z" fill="#202020"/>
</svg>
