<svg width="24" height="24" viewBox="0 0 24 24" fill="none" xmlns="http://www.w3.org/2000/svg">
<path d="M10.8195 18.3872C10.3205 18.387 9.83281 18.2387 9.41803 17.9613C9.00325 17.6839 8.68005 17.2897 8.48928 16.8286C8.29851 16.3675 8.24874 15.8602 8.34627 15.3709C8.4438 14.8815 8.68424 14.432 9.0372 14.0793C9.39016 13.7265 9.83978 13.4864 10.3292 13.3892C10.8187 13.2919 11.3259 13.342 11.7869 13.5331C12.2479 13.7241 12.6419 14.0476 12.919 14.4626C13.1962 14.8775 13.3441 15.3653 13.344 15.8643C13.3432 16.5335 13.077 17.175 12.6037 17.648C12.1304 18.121 11.4887 18.3869 10.8195 18.3872ZM10.8195 14.6211C10.5737 14.6214 10.3335 14.6945 10.1292 14.8313C9.92492 14.968 9.76577 15.1623 9.67187 15.3895C9.57798 15.6166 9.55354 15.8666 9.60165 16.1076C9.64977 16.3487 9.76827 16.5701 9.94219 16.7439C10.1161 16.9176 10.3376 17.0359 10.5787 17.0837C10.8199 17.1316 11.0698 17.1069 11.2969 17.0128C11.5239 16.9186 11.718 16.7593 11.8546 16.5549C11.9911 16.3505 12.064 16.1102 12.064 15.8643C12.0637 15.5345 11.9324 15.2183 11.6991 14.9852C11.4657 14.7521 11.1494 14.6211 10.8195 14.6211Z" fill="#202020"/>
<path d="M12.704 16.3936C12.5342 16.3936 12.3714 16.3262 12.2514 16.2062C12.1314 16.0861 12.064 15.9233 12.064 15.7536V9.40609C12.0659 8.82404 12.2775 8.26219 12.6601 7.82351C13.0426 7.38483 13.5705 7.09872 14.1468 7.01761L18.016 6.48641C18.357 6.43957 18.7042 6.46632 19.0341 6.56487C19.364 6.66343 19.6689 6.83149 19.9284 7.05775C20.1879 7.28402 20.3959 7.56323 20.5385 7.87662C20.681 8.19 20.7548 8.53028 20.7548 8.87457V14.736C20.7548 14.9057 20.6874 15.0685 20.5674 15.1886C20.4474 15.3086 20.2846 15.376 20.1148 15.376C19.9451 15.376 19.7823 15.3086 19.6623 15.1886C19.5423 15.0685 19.4748 14.9057 19.4748 14.736V8.87457C19.4748 8.71307 19.4402 8.55344 19.3734 8.40644C19.3065 8.25944 19.2089 8.12846 19.0872 8.02234C18.9654 7.91622 18.8224 7.83741 18.6676 7.79122C18.5129 7.74503 18.35 7.73253 18.19 7.75457L14.3203 8.28577C14.05 8.32378 13.8024 8.45793 13.623 8.66363C13.4436 8.86933 13.3443 9.13281 13.3433 9.40577V15.7536C13.3433 15.9232 13.276 16.0859 13.1561 16.2059C13.0362 16.3259 12.8736 16.3934 12.704 16.3936Z" fill="#202020"/>
<path d="M18.2311 17.3235C17.7321 17.3235 17.2443 17.1755 16.8293 16.8983C16.4144 16.621 16.091 16.227 15.9 15.7659C15.709 15.3048 15.6591 14.7975 15.7564 14.3081C15.8538 13.8186 16.0941 13.369 16.447 13.0161C16.7998 12.6633 17.2494 12.423 17.7389 12.3256C18.2283 12.2282 18.7357 12.2782 19.1967 12.4692C19.6578 12.6602 20.0518 12.9836 20.3291 13.3985C20.6063 13.8134 20.7543 14.3013 20.7543 14.8003C20.7536 15.4693 20.4875 16.1106 20.0145 16.5836C19.5414 17.0567 18.9001 17.3228 18.2311 17.3235ZM18.2311 13.5571C17.9852 13.5571 17.7449 13.63 17.5404 13.7666C17.336 13.9032 17.1767 14.0974 17.0826 14.3246C16.9885 14.5517 16.9638 14.8017 17.0118 15.0428C17.0598 15.284 17.1782 15.5055 17.3521 15.6794C17.5259 15.8533 17.7474 15.9717 17.9886 16.0196C18.2297 16.0676 18.4797 16.043 18.7069 15.9489C18.934 15.8548 19.1282 15.6954 19.2648 15.491C19.4014 15.2866 19.4743 15.0462 19.4743 14.8003C19.4739 14.4707 19.3428 14.1548 19.1097 13.9217C18.8767 13.6887 18.5607 13.5575 18.2311 13.5571ZM7.39433 18.2035H3.88585C3.71611 18.2035 3.55332 18.1361 3.4333 18.0161C3.31328 17.896 3.24585 17.7333 3.24585 17.5635C3.24585 17.3938 3.31328 17.231 3.4333 17.111C3.55332 16.9909 3.71611 16.9235 3.88585 16.9235H7.39433C7.56407 16.9235 7.72685 16.9909 7.84688 17.111C7.9669 17.231 8.03433 17.3938 8.03433 17.5635C8.03433 17.7333 7.9669 17.896 7.84688 18.0161C7.72685 18.1361 7.56407 18.2035 7.39433 18.2035ZM7.16809 15.3882H3.88585C3.71611 15.3882 3.55332 15.3207 3.4333 15.2007C3.31328 15.0807 3.24585 14.9179 3.24585 14.7482C3.24585 14.5784 3.31328 14.4156 3.4333 14.2956C3.55332 14.1756 3.71611 14.1082 3.88585 14.1082H7.16809C7.33783 14.1082 7.50061 14.1756 7.62064 14.2956C7.74066 14.4156 7.80809 14.5784 7.80809 14.7482C7.80809 14.9179 7.74066 15.0807 7.62064 15.2007C7.50061 15.3207 7.33783 15.3882 7.16809 15.3882ZM9.43145 12.5254H3.88585C3.71611 12.5254 3.55332 12.458 3.4333 12.338C3.31328 12.218 3.24585 12.0552 3.24585 11.8854C3.24585 11.7157 3.31328 11.5529 3.4333 11.4329C3.55332 11.3129 3.71611 11.2454 3.88585 11.2454H9.43145C9.60119 11.2454 9.76397 11.3129 9.884 11.4329C10.004 11.5529 10.0714 11.7157 10.0714 11.8854C10.0714 12.0552 10.004 12.218 9.884 12.338C9.76397 12.458 9.60119 12.5254 9.43145 12.5254ZM10.6199 9.67935H3.88585C3.71611 9.67935 3.55332 9.61192 3.4333 9.4919C3.31328 9.37188 3.24585 9.20909 3.24585 9.03935C3.24585 8.86961 3.31328 8.70683 3.4333 8.5868C3.55332 8.46678 3.71611 8.39935 3.88585 8.39935H10.6199C10.7897 8.39935 10.9525 8.46678 11.0725 8.5868C11.1925 8.70683 11.2599 8.86961 11.2599 9.03935C11.2599 9.20909 11.1925 9.37188 11.0725 9.4919C10.9525 9.61192 10.7897 9.67935 10.6199 9.67935ZM12.3354 6.89279H3.88745C3.71771 6.89279 3.55492 6.82536 3.4349 6.70534C3.31488 6.58532 3.24745 6.42253 3.24745 6.25279C3.24745 6.08305 3.31488 5.92027 3.4349 5.80024C3.55492 5.68022 3.71771 5.61279 3.88745 5.61279H12.3354C12.5052 5.61279 12.668 5.68022 12.788 5.80024C12.908 5.92027 12.9754 6.08305 12.9754 6.25279C12.9754 6.42253 12.908 6.58532 12.788 6.70534C12.668 6.82536 12.5052 6.89279 12.3354 6.89279Z" fill="#202020"/>
</svg>
