<svg width="24" height="24" viewBox="0 0 24 24" fill="none" xmlns="http://www.w3.org/2000/svg">
<path d="M19.275 12.99L18.27 12.3825C17.8394 12.1233 17.3344 12.0156 16.8356 12.0768C16.3367 12.138 15.8727 12.3644 15.5175 12.72L14.985 13.26C14.8722 13.373 14.7262 13.447 14.5684 13.4713C14.4106 13.4956 14.2491 13.4689 14.1075 13.395C13.8 13.2225 13.5 13.035 13.23 12.8475C13.086 12.7433 12.9097 12.6937 12.7325 12.7074C12.5553 12.7212 12.3887 12.7974 12.2625 12.9225L8.51251 16.6725C8.42921 16.7437 8.36255 16.8324 8.31719 16.9321C8.27184 17.0319 8.24891 17.1404 8.25001 17.25C8.25231 17.3521 8.27546 17.4527 8.31802 17.5456C8.36058 17.6384 8.42165 17.7216 8.49751 17.79C9.24751 18.465 10.035 19.1175 10.845 19.725C12.1504 20.7013 13.7623 21.1776 15.3887 21.0676C17.015 20.9575 18.5481 20.2683 19.71 19.125L19.98 18.855C20.3813 18.4501 20.685 17.9591 20.868 17.4193C21.0511 16.8794 21.1086 16.3049 21.0363 15.7395C20.964 15.174 20.7638 14.6325 20.4508 14.1561C20.1378 13.6797 19.7203 13.2809 19.23 12.99H19.275ZM18.9375 17.79L18.6675 18.06C17.7613 18.9495 16.5667 19.4853 15.2998 19.5706C14.0329 19.6559 12.7772 19.285 11.76 18.525C11.1975 18.0975 10.6425 17.655 10.11 17.1975L12.8925 14.4225L13.38 14.7075C13.8074 14.9399 14.2986 15.0275 14.78 14.9572C15.2613 14.8869 15.7069 14.6624 16.05 14.3175L16.5825 13.785C16.7007 13.6671 16.8549 13.592 17.0207 13.5716C17.1864 13.5512 17.3542 13.5867 17.4975 13.6725L18.5025 14.2725C18.7953 14.4484 19.0443 14.6886 19.2305 14.9749C19.4166 15.2613 19.5352 15.5863 19.5771 15.9253C19.619 16.2642 19.5832 16.6083 19.4724 16.9314C19.3616 17.2545 19.1787 17.5481 18.9375 17.79ZM5.74501 14.9475L3.59251 17.0925C3.52221 17.1622 3.46641 17.2452 3.42834 17.3366C3.39026 17.428 3.37066 17.526 3.37066 17.625C3.37066 17.724 3.39026 17.822 3.42834 17.9134C3.46641 18.0048 3.52221 18.0878 3.59251 18.1575C3.66223 18.2278 3.74518 18.2836 3.83657 18.3217C3.92797 18.3598 4.026 18.3794 4.12501 18.3794C4.22402 18.3794 4.32205 18.3598 4.41344 18.3217C4.50483 18.2836 4.58778 18.2278 4.65751 18.1575L18.1575 4.65751C18.2987 4.51628 18.3781 4.32473 18.3781 4.12501C18.3781 3.92528 18.2987 3.73374 18.1575 3.59251C18.0163 3.45128 17.8247 3.37194 17.625 3.37194C17.4253 3.37194 17.2337 3.45128 17.0925 3.59251L10.68 10.0125C10.68 9.96751 10.6275 9.93751 10.605 9.89251C10.5276 9.74925 10.4989 9.58469 10.5232 9.42367C10.5476 9.26266 10.6237 9.11395 10.74 9.00001L11.28 8.46751C11.6356 8.11232 11.862 7.6483 11.9232 7.14943C11.9844 6.65057 11.8768 6.14559 11.6175 5.71501L11.01 4.72501C10.7192 4.23379 10.3187 3.81643 9.83995 3.50549C9.36119 3.19456 8.81705 2.99846 8.25001 2.93251C7.685 2.86392 7.11179 2.92485 6.57382 3.11067C6.03585 3.29649 5.54724 3.60233 5.14501 4.00501L4.87501 4.27501C3.73309 5.43767 3.04488 6.97056 2.93484 8.5965C2.82479 10.2224 3.30017 11.8341 4.27501 13.14C4.74001 13.7625 5.25001 14.3625 5.74501 14.9475ZM5.94001 5.33251L6.20251 5.06251C6.44489 4.82133 6.73905 4.63857 7.06264 4.52811C7.38623 4.41764 7.73075 4.38238 8.07001 4.42501C8.4136 4.46272 8.74389 4.57909 9.03524 4.76508C9.32659 4.95108 9.57118 5.2017 9.75001 5.49751L10.35 6.50251C10.4358 6.64578 10.4713 6.81359 10.4509 6.97933C10.4306 7.14508 10.3554 7.29928 10.2375 7.41751L9.70501 7.95001C9.36009 8.29307 9.13566 8.73869 9.06535 9.22006C8.99504 9.70143 9.08263 10.1926 9.31501 10.62C9.40501 10.785 9.51751 10.935 9.61501 11.1L6.81001 13.8825C6.34501 13.35 5.89501 12.8025 5.47501 12.24C4.71352 11.2234 4.34171 9.96741 4.42702 8.70006C4.51234 7.43271 5.04913 6.23793 5.94001 5.33251Z" fill="#202020"/>
</svg>
