<svg width="24" height="24" viewBox="0 0 24 24" fill="none" xmlns="http://www.w3.org/2000/svg">
<path d="M6.75 21H17.25C18.2446 21 19.1984 20.6049 19.9016 19.9016C20.6049 19.1984 21 18.2446 21 17.25V11.25C21 11.0511 20.921 10.8603 20.7803 10.7197C20.6397 10.579 20.4489 10.5 20.25 10.5C20.0511 10.5 19.8603 10.579 19.7197 10.7197C19.579 10.8603 19.5 11.0511 19.5 11.25V17.25C19.5 17.8467 19.2629 18.419 18.841 18.841C18.419 19.2629 17.8467 19.5 17.25 19.5H6.75C6.15326 19.5 5.58097 19.2629 5.15901 18.841C4.73705 18.419 4.5 17.8467 4.5 17.25V6.75C4.5 6.15326 4.73705 5.58097 5.15901 5.15901C5.58097 4.73705 6.15326 4.5 6.75 4.5H12.75C12.9489 4.5 13.1397 4.42098 13.2803 4.28033C13.421 4.13968 13.5 3.94891 13.5 3.75C13.5 3.55109 13.421 3.36032 13.2803 3.21967C13.1397 3.07902 12.9489 3 12.75 3H6.75C5.75544 3 4.80161 3.39509 4.09835 4.09835C3.39509 4.80161 3 5.75544 3 6.75V17.25C3 18.2446 3.39509 19.1984 4.09835 19.9016C4.80161 20.6049 5.75544 21 6.75 21Z" fill="#202020"/>
<path d="M10.8225 9.57L10.6425 10.8075C10.584 11.1562 10.6085 11.5139 10.714 11.8514C10.8196 12.1889 11.0032 12.4967 11.25 12.75C11.6715 13.1721 12.2435 13.4095 12.84 13.41H13.1625L14.4 13.23C14.8829 13.1613 15.3303 12.9376 15.675 12.5925L20.0925 8.175C20.3714 7.89638 20.5927 7.56552 20.7437 7.20132C20.8946 6.83713 20.9724 6.44675 20.9724 6.0525C20.9724 5.65826 20.8946 5.26788 20.7437 4.90368C20.5927 4.53949 20.3714 4.20862 20.0925 3.93C19.5205 3.3844 18.7604 3.08 17.97 3.08C17.1795 3.08 16.4194 3.3844 15.8475 3.93L11.43 8.3475C11.1058 8.68226 10.8935 9.10942 10.8225 9.57ZM12.3225 9.78C12.3457 9.62113 12.4193 9.47392 12.5325 9.36L16.9575 4.9425C17.092 4.78548 17.2574 4.65795 17.4435 4.56791C17.6296 4.47788 17.8323 4.42728 18.0389 4.41931C18.2455 4.41133 18.4515 4.44614 18.644 4.52155C18.8365 4.59696 19.0113 4.71135 19.1575 4.85753C19.3036 5.00371 19.418 5.17853 19.4934 5.37102C19.5689 5.56351 19.6037 5.7695 19.5957 5.97608C19.5877 6.18266 19.5371 6.38536 19.4471 6.57146C19.357 6.75756 19.2295 6.92303 19.0725 7.0575L14.655 11.4825C14.5411 11.5957 14.3939 11.6693 14.235 11.6925L12.9975 11.8725C12.8811 11.8903 12.7622 11.8805 12.6503 11.8439C12.5384 11.8072 12.4367 11.7447 12.3535 11.6615C12.2703 11.5782 12.2078 11.4766 12.1711 11.3647C12.1345 11.2528 12.1247 11.1339 12.1425 11.0175L12.3225 9.78Z" fill="#202020"/>
</svg>
