<svg width="24" height="24" viewBox="0 0 24 24" fill="none" xmlns="http://www.w3.org/2000/svg">
<path d="M17.032 20.4556H6.96801C6.06022 20.4546 5.1899 20.0935 4.548 19.4516C3.90609 18.8097 3.54502 17.9394 3.54401 17.0316V6.96795C3.54502 6.06016 3.90609 5.18984 4.548 4.54793C5.1899 3.90603 6.06022 3.54496 6.96801 3.54395H17.032C17.9398 3.54496 18.8101 3.90603 19.452 4.54793C20.0939 5.18984 20.455 6.06016 20.456 6.96795V14.0959C20.456 14.2657 20.3886 14.4285 20.2686 14.5485C20.1485 14.6685 19.9857 14.7359 19.816 14.7359C19.6463 14.7359 19.4835 14.6685 19.3635 14.5485C19.2434 14.4285 19.176 14.2657 19.176 14.0959V6.96795C19.1755 6.39948 18.9494 5.85444 18.5475 5.45247C18.1455 5.0505 17.6005 4.82445 17.032 4.82395H6.96801C6.39954 4.82445 5.8545 5.0505 5.45253 5.45247C5.05056 5.85444 4.82451 6.39948 4.82401 6.96795V17.0319C4.82451 17.6004 5.05056 18.1455 5.45253 18.5474C5.8545 18.9494 6.39954 19.1754 6.96801 19.1759H17.032C17.3178 19.1763 17.6007 19.1192 17.864 19.0079C17.9417 18.9737 18.0254 18.9552 18.1102 18.9536C18.1951 18.952 18.2795 18.9673 18.3584 18.9986C18.4373 19.0299 18.5091 19.0766 18.5698 19.136C18.6305 19.1953 18.6788 19.2662 18.7118 19.3443C18.7449 19.4225 18.762 19.5065 18.7623 19.5914C18.7626 19.6763 18.746 19.7604 18.7135 19.8388C18.6809 19.9172 18.6331 19.9883 18.5728 20.0481C18.5125 20.1078 18.4409 20.155 18.3622 20.1868C17.9414 20.3649 17.489 20.4563 17.032 20.4556Z" fill="#202020"/>
<path d="M12.5469 15.2959H7.48802C7.31828 15.2959 7.1555 15.2285 7.03547 15.1085C6.91545 14.9885 6.84802 14.8257 6.84802 14.6559C6.84802 14.4862 6.91545 14.3234 7.03547 14.2034C7.1555 14.0834 7.31828 14.0159 7.48802 14.0159H12.5469C12.7166 14.0159 12.8794 14.0834 12.9995 14.2034C13.1195 14.3234 13.1869 14.4862 13.1869 14.6559C13.1869 14.8257 13.1195 14.9885 12.9995 15.1085C12.8794 15.2285 12.7166 15.2959 12.5469 15.2959ZM14.2637 12.1327H7.48802C7.31828 12.1327 7.1555 12.0653 7.03547 11.9453C6.91545 11.8253 6.84802 11.6625 6.84802 11.4927C6.84802 11.323 6.91545 11.1602 7.03547 11.0402C7.1555 10.9202 7.31828 10.8527 7.48802 10.8527H14.2637C14.4334 10.8527 14.5962 10.9202 14.7163 11.0402C14.8363 11.1602 14.9037 11.323 14.9037 11.4927C14.9037 11.6625 14.8363 11.8253 14.7163 11.9453C14.5962 12.0653 14.4334 12.1327 14.2637 12.1327ZM8.4237 6.26907C8.25396 6.26907 8.09118 6.20164 7.97115 6.08162C7.85113 5.96159 7.7837 5.79881 7.7837 5.62907V2.95067C7.7837 2.78093 7.85113 2.61814 7.97115 2.49812C8.09118 2.3781 8.25396 2.31067 8.4237 2.31067C8.59344 2.31067 8.75623 2.3781 8.87625 2.49812C8.99627 2.61814 9.0637 2.78093 9.0637 2.95067V5.62907C9.0637 5.79881 8.99627 5.96159 8.87625 6.08162C8.75623 6.20164 8.59344 6.26907 8.4237 6.26907ZM15.5763 6.26907C15.4066 6.26907 15.2438 6.20164 15.1238 6.08162C15.0038 5.96159 14.9363 5.79881 14.9363 5.62907V2.95067C14.9363 2.78093 15.0038 2.61814 15.1238 2.49812C15.2438 2.3781 15.4066 2.31067 15.5763 2.31067C15.7461 2.31067 15.9089 2.3781 16.0289 2.49812C16.1489 2.61814 16.2163 2.78093 16.2163 2.95067V5.62907C16.2163 5.79881 16.1489 5.96159 16.0289 6.08162C15.9089 6.20164 15.7461 6.26907 15.5763 6.26907ZM19.6208 20.5487C19.1603 20.5532 18.7035 20.4663 18.2768 20.2931C17.8501 20.1199 17.4619 19.8639 17.1347 19.5398C16.8075 19.2157 16.5478 18.83 16.3705 18.405C16.1933 17.98 16.102 17.524 16.102 17.0635C16.102 16.6029 16.1933 16.147 16.3705 15.7219C16.5478 15.2969 16.8075 14.9112 17.1347 14.5871C17.4619 14.263 17.8501 14.007 18.2768 13.8338C18.7035 13.6607 19.1603 13.5738 19.6208 13.5782C20.5394 13.587 21.4173 13.9581 22.0638 14.6107C22.7102 15.2634 23.0729 16.1449 23.0729 17.0635C23.0729 17.9821 22.7102 18.8635 22.0638 19.5162C21.4173 20.1689 20.5394 20.5399 19.6208 20.5487ZM19.6208 14.8582C19.1846 14.8581 18.7582 14.9874 18.3954 15.2297C18.0327 15.4721 17.75 15.8165 17.583 16.2195C17.416 16.6225 17.3723 17.066 17.4574 17.4938C17.5425 17.9217 17.7526 18.3147 18.061 18.6231C18.3695 18.9316 18.7625 19.1416 19.1903 19.2267C19.6182 19.3118 20.0616 19.2681 20.4646 19.1011C20.8676 18.9342 21.2121 18.6514 21.4544 18.2887C21.6967 17.926 21.826 17.4995 21.8259 17.0633C21.8279 16.7732 21.7723 16.4855 21.6622 16.2171C21.5521 15.9486 21.3897 15.7048 21.1845 15.4996C20.9794 15.2944 20.7355 15.1321 20.467 15.022C20.1986 14.9119 19.911 14.8562 19.6208 14.8582Z" fill="#202020"/>
<path d="M19.6208 18.3961C19.451 18.3961 19.2882 18.3287 19.1682 18.2087C19.0482 18.0886 18.9808 17.9259 18.9808 17.7561V16.3708C18.9808 16.2011 19.0482 16.0383 19.1682 15.9183C19.2882 15.7983 19.451 15.7308 19.6208 15.7308C19.7905 15.7308 19.9533 15.7983 20.0733 15.9183C20.1933 16.0383 20.2608 16.2011 20.2608 16.3708V17.7561C20.2608 17.9259 20.1933 18.0886 20.0733 18.2087C19.9533 18.3287 19.7905 18.3961 19.6208 18.3961Z" fill="#202020"/>
<path d="M20.3133 17.7033H18.928C18.7583 17.7033 18.5955 17.6359 18.4755 17.5159C18.3555 17.3959 18.288 17.2331 18.288 17.0633C18.288 16.8936 18.3555 16.7308 18.4755 16.6108C18.5955 16.4908 18.7583 16.4233 18.928 16.4233H20.3133C20.483 16.4233 20.6458 16.4908 20.7659 16.6108C20.8859 16.7308 20.9533 16.8936 20.9533 17.0633C20.9533 17.2331 20.8859 17.3959 20.7659 17.5159C20.6458 17.6359 20.483 17.7033 20.3133 17.7033Z" fill="#202020"/>
</svg>
