<svg width="24" height="24" viewBox="0 0 24 24" fill="none" xmlns="http://www.w3.org/2000/svg">
<path d="M14.7373 18.5997C14.5004 18.5999 14.2646 18.5676 14.0365 18.5037L8.13728 16.8518C7.47713 16.6669 6.91747 16.2274 6.58141 15.6298C6.24535 15.0323 6.16041 14.3258 6.34528 13.6656L8.50752 5.93952C8.69317 5.27985 9.13286 4.72074 9.73017 4.3848C10.3275 4.04886 11.0336 3.96353 11.6938 4.14752L17.593 5.7984C18.2531 5.98345 18.8127 6.42308 19.1487 7.02064C19.4848 7.6182 19.5697 8.32476 19.385 8.98496L17.223 16.7098C17.0708 17.2524 16.7457 17.7305 16.2971 18.0716C15.8485 18.4126 15.3008 18.5981 14.7373 18.5997ZM10.9965 5.33088C10.7116 5.33119 10.4347 5.4245 10.2078 5.59663C9.98083 5.76875 9.8163 6.01028 9.7392 6.28448L7.57696 14.0106C7.4837 14.3439 7.52669 14.7007 7.69646 15.0024C7.86623 15.304 8.14888 15.5259 8.48224 15.6192L14.3814 17.2701C14.5465 17.3163 14.7191 17.3296 14.8893 17.3091C15.0594 17.2887 15.2239 17.2349 15.3734 17.1508C15.5228 17.0668 15.6541 16.9542 15.76 16.8193C15.8659 16.6845 15.9442 16.5302 15.9904 16.3651L18.1523 8.64C18.1987 8.47491 18.2121 8.3023 18.1918 8.13203C18.1714 7.96176 18.1177 7.79717 18.0337 7.64766C17.9497 7.49816 17.8371 7.36666 17.7023 7.26069C17.5675 7.15472 17.4131 7.07636 17.248 7.03008L11.3478 5.3792C11.2335 5.34721 11.1153 5.33095 10.9965 5.33088Z" fill="#202020"/>
<path d="M7.15679 20.0471C6.45921 20.046 5.78577 19.7916 5.26157 19.3314C4.73736 18.8712 4.39801 18.2363 4.30655 17.5447L3.33695 10.1687C3.2376 9.41329 3.44202 8.64927 3.90534 8.04437C4.36867 7.43946 5.05305 7.04307 5.80831 6.94219L8.42303 6.5505C8.50615 6.53807 8.59091 6.54212 8.67246 6.56244C8.75401 6.58276 8.83077 6.61894 8.89834 6.66892C8.96591 6.7189 9.02298 6.7817 9.06628 6.85373C9.10958 6.92577 9.13827 7.00562 9.15071 7.08875C9.16314 7.17187 9.15909 7.25662 9.13877 7.33818C9.11845 7.41973 9.08227 7.49649 9.03229 7.56406C8.98231 7.63163 8.91951 7.68869 8.84748 7.732C8.77544 7.7753 8.69559 7.80399 8.61247 7.81642L5.99263 8.20874L5.98111 8.21035C5.77305 8.23756 5.5724 8.30551 5.39062 8.41032C5.20884 8.51513 5.0495 8.65474 4.92171 8.82116C4.79392 8.98759 4.70018 9.17757 4.64585 9.38025C4.59153 9.58292 4.57768 9.79432 4.60511 10.0023L5.57439 17.3787C5.62549 17.7624 5.814 18.1146 6.10497 18.37C6.39595 18.6254 6.76964 18.7666 7.15679 18.7675C7.22096 18.7674 7.28507 18.7636 7.34879 18.7559L14.8243 17.3195C14.9071 17.3029 14.9923 17.303 15.0751 17.3195C15.1579 17.3361 15.2366 17.3689 15.3067 17.416C15.3767 17.4631 15.4368 17.5236 15.4833 17.594C15.5299 17.6645 15.5621 17.7434 15.578 17.8263C15.594 17.9092 15.5933 17.9944 15.5762 18.0771C15.559 18.1598 15.5257 18.2382 15.4781 18.3079C15.4305 18.3777 15.3696 18.4373 15.2988 18.4834C15.2281 18.5294 15.1489 18.5611 15.0659 18.5764L7.57023 20.0164C7.55775 20.019 7.54527 20.0209 7.53279 20.0225C7.40812 20.0389 7.28252 20.0471 7.15679 20.0471ZM16.0726 10.2055C16.0129 10.2055 15.9534 10.1971 15.896 10.1806L11.0509 8.79147C10.9701 8.76835 10.8946 8.72955 10.8288 8.67727C10.763 8.62499 10.7081 8.56026 10.6673 8.48678C10.6265 8.4133 10.6006 8.33249 10.591 8.24899C10.5814 8.16549 10.5884 8.08092 10.6115 8.00011C10.6346 7.91929 10.6734 7.84383 10.7257 7.77801C10.778 7.7122 10.8427 7.65733 10.9162 7.61653C10.9897 7.57573 11.0705 7.54981 11.154 7.54023C11.2375 7.53066 11.3221 7.53763 11.4029 7.56075L16.2483 8.95018C16.3968 8.99261 16.5249 9.08727 16.609 9.21672C16.6932 9.34617 16.7277 9.50167 16.7062 9.65456C16.6847 9.80746 16.6087 9.94743 16.4922 10.0487C16.3756 10.1499 16.2264 10.2057 16.072 10.2055H16.0726Z" fill="#202020"/>
<path d="M13.2441 12.3905C13.1844 12.3905 13.1249 12.3821 13.0675 12.3655L10.167 11.5335C10.0068 11.4843 9.87228 11.3743 9.79236 11.2269C9.71244 11.0796 9.69349 10.9068 9.73959 10.7457C9.78569 10.5846 9.89315 10.448 10.0389 10.3652C10.1846 10.2824 10.357 10.2602 10.519 10.3031L13.4195 11.1351C13.5679 11.1776 13.6961 11.2722 13.7802 11.4017C13.8644 11.5311 13.8989 11.6866 13.8774 11.8395C13.8559 11.9924 13.7799 12.1324 13.6634 12.2336C13.5468 12.3349 13.3976 12.3906 13.2432 12.3905H13.2441Z" fill="#202020"/>
</svg>
