<svg width="24" height="24" viewBox="0 0 24 24" fill="none" xmlns="http://www.w3.org/2000/svg">
<path d="M17.032 20.4556H6.96801C6.06022 20.4546 5.1899 20.0935 4.548 19.4516C3.90609 18.8097 3.54502 17.9394 3.54401 17.0316V6.96795C3.54502 6.06016 3.90609 5.18984 4.548 4.54793C5.1899 3.90603 6.06022 3.54496 6.96801 3.54395H17.032C17.9401 3.54395 18.811 3.90469 19.4531 4.54681C20.0953 5.18894 20.456 6.05984 20.456 6.96795V17.0319C20.4549 17.9397 20.0938 18.8099 19.4519 19.4517C18.81 20.0936 17.9397 20.4546 17.032 20.4556ZM6.96801 4.82427C6.39954 4.82477 5.8545 5.05082 5.45253 5.45279C5.05056 5.85476 4.82451 6.3998 4.82401 6.96826V17.0323C4.82451 17.6007 5.05056 18.1458 5.45253 18.5477C5.8545 18.9497 6.39954 19.1758 6.96801 19.1763H17.032C17.6005 19.1758 18.1455 18.9497 18.5475 18.5477C18.9494 18.1458 19.1755 17.6007 19.176 17.0323V6.96795C19.176 6.39932 18.9501 5.85399 18.548 5.45191C18.146 5.04983 17.6006 4.82395 17.032 4.82395L6.96801 4.82427Z" fill="#202020"/>
<path d="M8.22881 6.26907C8.05907 6.26907 7.89628 6.20164 7.77626 6.08162C7.65623 5.96159 7.58881 5.79881 7.58881 5.62907V2.95067C7.58881 2.78093 7.65623 2.61814 7.77626 2.49812C7.89628 2.3781 8.05907 2.31067 8.22881 2.31067C8.39854 2.31067 8.56133 2.3781 8.68135 2.49812C8.80138 2.61814 8.86881 2.78093 8.86881 2.95067V5.62907C8.86881 5.79881 8.80138 5.96159 8.68135 6.08162C8.56133 6.20164 8.39854 6.26907 8.22881 6.26907ZM15.3818 6.26907C15.212 6.26907 15.0492 6.20164 14.9292 6.08162C14.8092 5.96159 14.7418 5.79881 14.7418 5.62907V2.95067C14.7418 2.78093 14.8092 2.61814 14.9292 2.49812C15.0492 2.3781 15.212 2.31067 15.3818 2.31067C15.5515 2.31067 15.7143 2.3781 15.8343 2.49812C15.9543 2.61814 16.0218 2.78093 16.0218 2.95067V5.62907C16.0218 5.79881 15.9543 5.96159 15.8343 6.08162C15.7143 6.20164 15.5515 6.26907 15.3818 6.26907ZM8.64481 18.4121C8.47507 18.4121 8.31228 18.3447 8.19226 18.2247C8.07224 18.1046 8.00481 17.9418 8.00481 17.7721V12.8595C8.00481 12.6897 8.07224 12.5269 8.19226 12.4069C8.31228 12.2869 8.47507 12.2195 8.64481 12.2195C8.81454 12.2195 8.97733 12.2869 9.09736 12.4069C9.21738 12.5269 9.28481 12.6897 9.28481 12.8595V17.7721C9.28481 17.9418 9.21738 18.1046 9.09736 18.2247C8.97733 18.3447 8.81454 18.4121 8.64481 18.4121Z" fill="#202020"/>
<path d="M11.1011 15.9558H6.18816C6.01842 15.9558 5.85563 15.8884 5.73561 15.7683C5.61559 15.6483 5.54816 15.4855 5.54816 15.3158C5.54816 15.146 5.61559 14.9833 5.73561 14.8632C5.85563 14.7432 6.01842 14.6758 6.18816 14.6758H11.1011C11.2709 14.6758 11.4336 14.7432 11.5537 14.8632C11.6737 14.9833 11.7411 15.146 11.7411 15.3158C11.7411 15.4855 11.6737 15.6483 11.5537 15.7683C11.4336 15.8884 11.2709 15.9558 11.1011 15.9558Z" fill="#202020"/>
</svg>
