<svg width="24" height="24" viewBox="0 0 24 24" fill="none" xmlns="http://www.w3.org/2000/svg">
<path d="M17.032 20.4556H6.96801C6.06022 20.4546 5.1899 20.0935 4.548 19.4516C3.90609 18.8097 3.54502 17.9394 3.54401 17.0316V6.96795C3.54502 6.06016 3.90609 5.18984 4.548 4.54793C5.1899 3.90603 6.06022 3.54496 6.96801 3.54395H17.032C17.9398 3.54496 18.8101 3.90603 19.452 4.54793C20.0939 5.18984 20.455 6.06016 20.456 6.96795V17.0319C20.4549 17.9397 20.0938 18.8099 19.4519 19.4517C18.81 20.0936 17.9397 20.4546 17.032 20.4556ZM6.96801 4.82427C6.39954 4.82477 5.8545 5.05082 5.45253 5.45279C5.05056 5.85476 4.82451 6.3998 4.82401 6.96826V17.0323C4.82451 17.6007 5.05056 18.1458 5.45253 18.5477C5.8545 18.9497 6.39954 19.1758 6.96801 19.1763H17.032C17.6005 19.1758 18.1455 18.9497 18.5475 18.5477C18.9494 18.1458 19.1755 17.6007 19.176 17.0323V6.96795C19.1755 6.39948 18.9494 5.85444 18.5475 5.45247C18.1455 5.0505 17.6005 4.82445 17.032 4.82395L6.96801 4.82427Z" fill="#202020"/>
<path d="M12.5469 15.2959H7.48799C7.31825 15.2959 7.15547 15.2285 7.03544 15.1085C6.91542 14.9885 6.84799 14.8257 6.84799 14.6559C6.84799 14.4862 6.91542 14.3234 7.03544 14.2034C7.15547 14.0834 7.31825 14.0159 7.48799 14.0159H12.5469C12.7166 14.0159 12.8794 14.0834 12.9994 14.2034C13.1194 14.3234 13.1869 14.4862 13.1869 14.6559C13.1869 14.8257 13.1194 14.9885 12.9994 15.1085C12.8794 15.2285 12.7166 15.2959 12.5469 15.2959ZM14.2637 12.1327H7.48799C7.31825 12.1327 7.15547 12.0653 7.03544 11.9453C6.91542 11.8253 6.84799 11.6625 6.84799 11.4927C6.84799 11.323 6.91542 11.1602 7.03544 11.0402C7.15547 10.9202 7.31825 10.8527 7.48799 10.8527H14.2637C14.4334 10.8527 14.5962 10.9202 14.7162 11.0402C14.8362 11.1602 14.9037 11.323 14.9037 11.4927C14.9037 11.6625 14.8362 11.8253 14.7162 11.9453C14.5962 12.0653 14.4334 12.1327 14.2637 12.1327ZM8.42367 6.26907C8.25393 6.26907 8.09115 6.20164 7.97112 6.08162C7.8511 5.96159 7.78367 5.79881 7.78367 5.62907V2.95067C7.78367 2.78093 7.8511 2.61814 7.97112 2.49812C8.09115 2.3781 8.25393 2.31067 8.42367 2.31067C8.59341 2.31067 8.7562 2.3781 8.87622 2.49812C8.99624 2.61814 9.06367 2.78093 9.06367 2.95067V5.62907C9.06367 5.79881 8.99624 5.96159 8.87622 6.08162C8.7562 6.20164 8.59341 6.26907 8.42367 6.26907ZM15.5763 6.26907C15.4066 6.26907 15.2438 6.20164 15.1238 6.08162C15.0037 5.96159 14.9363 5.79881 14.9363 5.62907V2.95067C14.9363 2.78093 15.0037 2.61814 15.1238 2.49812C15.2438 2.3781 15.4066 2.31067 15.5763 2.31067C15.7461 2.31067 15.9088 2.3781 16.0289 2.49812C16.1489 2.61814 16.2163 2.78093 16.2163 2.95067V5.62907C16.2163 5.79881 16.1489 5.96159 16.0289 6.08162C15.9088 6.20164 15.7461 6.26907 15.5763 6.26907Z" fill="#202020"/>
</svg>
