<svg width="24" height="24" viewBox="0 0 24 24" fill="none" xmlns="http://www.w3.org/2000/svg">
<path d="M17.547 8.47278C17.1045 8.47284 16.672 8.34168 16.304 8.09589C15.9361 7.85009 15.6493 7.50071 15.4799 7.09191C15.3106 6.68312 15.2662 6.23328 15.3525 5.79929C15.4389 5.36531 15.6519 4.96666 15.9648 4.65377C16.2777 4.34089 16.6763 4.12782 17.1103 4.04151C17.5443 3.9552 17.9942 3.99953 18.4029 4.16889C18.8117 4.33825 19.1611 4.62504 19.4069 4.99298C19.6527 5.36092 19.7839 5.79349 19.7838 6.23598C19.783 6.82895 19.547 7.3974 19.1277 7.8167C18.7084 8.236 18.14 8.47193 17.547 8.47278ZM17.547 5.27886C17.3577 5.27879 17.1726 5.33487 17.0152 5.44C16.8577 5.54514 16.735 5.6946 16.6625 5.86948C16.59 6.04437 16.571 6.23682 16.6079 6.4225C16.6448 6.60819 16.7359 6.77876 16.8698 6.91265C17.0036 7.04654 17.1742 7.13773 17.3598 7.17468C17.5455 7.21164 17.738 7.1927 17.9129 7.12027C18.0878 7.04784 18.2373 6.92516 18.3425 6.76776C18.4477 6.61035 18.5038 6.42529 18.5038 6.23598C18.5032 5.98249 18.4022 5.73956 18.2229 5.56041C18.0435 5.38126 17.8005 5.28047 17.547 5.28014V5.27886Z" fill="#202020"/>
<path d="M12.0004 20.5725C10.818 20.5714 9.64977 20.3158 8.57505 19.8229C7.50033 19.33 6.54435 18.6114 5.77215 17.7161C4.99995 16.8207 4.42962 15.7695 4.09996 14.6341C3.77031 13.4986 3.68905 12.3054 3.86172 11.1357C4.03438 9.96606 4.45693 8.84728 5.10061 7.85549C5.74429 6.8637 6.59401 6.02216 7.59199 5.38811C8.58996 4.75406 9.71278 4.34236 10.8841 4.18102C12.0554 4.01969 13.2477 4.11249 14.3799 4.45312C14.5424 4.50209 14.6789 4.61362 14.7592 4.76317C14.8395 4.91272 14.8571 5.08804 14.8081 5.25056C14.7591 5.41309 14.6476 5.5495 14.498 5.6298C14.3485 5.71009 14.1732 5.72769 14.0106 5.67872C13.3586 5.48273 12.6813 5.38344 12.0004 5.384C8.16584 5.384 5.04616 8.50368 5.04616 12.3382C5.04616 16.1728 8.16584 19.2925 12.0004 19.2925C15.835 19.2925 18.9546 16.1728 18.9546 12.3382C18.9565 11.4209 18.7757 10.5124 18.4228 9.6656C18.3899 9.58792 18.3726 9.50449 18.372 9.42011C18.3714 9.33573 18.3875 9.25207 18.4194 9.17395C18.4513 9.09582 18.4983 9.02476 18.5577 8.96487C18.6172 8.90498 18.6879 8.85743 18.7657 8.82497C18.8436 8.7925 18.9272 8.77576 19.0116 8.7757C19.0959 8.77564 19.1795 8.79227 19.2574 8.82463C19.3353 8.85698 19.4061 8.90443 19.4656 8.96424C19.5252 9.02405 19.5723 9.09504 19.6042 9.17312C20.1249 10.4246 20.3286 11.7852 20.1973 13.1343C20.0661 14.4834 19.6038 15.7792 18.8517 16.9068C18.0995 18.0345 17.0807 18.959 15.8855 19.5984C14.6904 20.2379 13.3559 20.5725 12.0004 20.5725Z" fill="#202020"/>
</svg>
