<svg width="24" height="24" viewBox="0 0 24 24" fill="none" xmlns="http://www.w3.org/2000/svg">
<path d="M16.946 18.6035H9.05059C8.6581 18.6034 8.27154 18.5078 7.92426 18.3249C7.57699 18.1421 7.27944 17.8774 7.05733 17.5538C6.83521 17.2302 6.69519 16.8574 6.64936 16.4676C6.60353 16.0778 6.65326 15.6827 6.79427 15.3165C6.79971 15.3021 6.80611 15.2877 6.81251 15.2736L7.76099 13.2608C8.02932 12.6893 8.16882 12.0659 8.16963 11.4345V10.1027C8.16963 7.40831 10.3619 5.21631 13.0563 5.21631C15.7507 5.21631 17.9427 7.40831 17.9427 10.1027V11.5497C17.942 12.1421 18.065 12.728 18.3037 13.2701L19.2058 15.328C19.2118 15.3414 19.2172 15.3552 19.2221 15.3693C19.3526 15.7341 19.3934 16.125 19.3412 16.509C19.2891 16.893 19.1454 17.2588 18.9222 17.5756C18.6991 17.8924 18.4031 18.1509 18.0592 18.3294C17.7152 18.5079 17.3334 18.6012 16.946 18.6013V18.6035ZM7.98147 15.7958C7.91879 15.9677 7.8985 16.1522 7.92231 16.3337C7.94613 16.5151 8.01334 16.6881 8.11826 16.838C8.22318 16.988 8.36271 17.1104 8.52501 17.1949C8.68731 17.2794 8.8676 17.3235 9.05059 17.3235H16.946C17.1268 17.3236 17.3051 17.2805 17.4661 17.1979C17.627 17.1152 17.7659 16.9954 17.8712 16.8484C17.9766 16.7014 18.0454 16.5313 18.0719 16.3524C18.0984 16.1735 18.0819 15.9908 18.0237 15.8195L17.1309 13.783C16.8213 13.0789 16.6619 12.318 16.6627 11.5488V10.1027C16.6538 9.15207 16.2699 8.24342 15.5945 7.57436C14.9191 6.90531 14.0069 6.52996 13.0562 6.52996C12.1055 6.52996 11.1933 6.90531 10.5179 7.57436C9.84251 8.24342 9.45858 9.15207 9.44963 10.1027V11.4345C9.44856 12.2545 9.26733 13.0642 8.91875 13.8064L7.98147 15.7958Z" fill="#202020"/>
<path d="M13.971 20.3423H12.027C11.4016 20.3417 10.8019 20.093 10.3595 19.6509C9.91714 19.2088 9.66809 18.6094 9.66699 17.9839C9.66699 17.8142 9.73442 17.6514 9.85444 17.5314C9.97447 17.4114 10.1373 17.3439 10.307 17.3439C10.4767 17.3439 10.6395 17.4114 10.7595 17.5314C10.8796 17.6514 10.947 17.8142 10.947 17.9839C10.9474 18.2702 11.0613 18.5446 11.2638 18.747C11.4663 18.9494 11.7407 19.0633 12.027 19.0636H13.971C14.2572 19.0633 14.5317 18.9494 14.7341 18.747C14.9365 18.5446 15.0503 18.2702 15.0507 17.9839C15.0507 17.8142 15.1181 17.6514 15.2381 17.5314C15.3581 17.4114 15.5209 17.3439 15.6907 17.3439C15.8604 17.3439 16.0232 17.4114 16.1432 17.5314C16.2632 17.6514 16.3307 17.8142 16.3307 17.9839C16.3297 18.6093 16.0807 19.2088 15.6383 19.6509C15.196 20.093 14.5964 20.3417 13.971 20.3423ZM13.0564 6.49593C12.8867 6.49593 12.7239 6.4285 12.6039 6.30847C12.4839 6.18845 12.4164 6.02566 12.4164 5.85593V4.42809C12.4164 4.25835 12.4839 4.09556 12.6039 3.97554C12.7239 3.85551 12.8867 3.78809 13.0564 3.78809C13.2262 3.78809 13.389 3.85551 13.509 3.97554C13.629 4.09556 13.6964 4.25835 13.6964 4.42809V5.85593C13.6964 6.02566 13.629 6.18845 13.509 6.30847C13.389 6.4285 13.2262 6.49593 13.0564 6.49593Z" fill="#202020"/>
</svg>
