<svg width="24" height="24" viewBox="0 0 24 24" fill="none" xmlns="http://www.w3.org/2000/svg">
<path d="M16.4003 20.0001H7.35682C6.52397 19.9992 5.72551 19.6679 5.13663 19.0789C4.54775 18.49 4.21655 17.6915 4.2157 16.8587V7.81673C4.21655 6.98389 4.54775 6.18539 5.13663 5.59645C5.72551 5.00751 6.52397 4.67622 7.35682 4.67529H14.3898C14.5595 4.67529 14.7223 4.74272 14.8423 4.86274C14.9624 4.98277 15.0298 5.14555 15.0298 5.31529C15.0298 5.48503 14.9624 5.64782 14.8423 5.76784C14.7223 5.88786 14.5595 5.95529 14.3898 5.95529H7.35682C6.86334 5.95589 6.39026 6.1522 6.04135 6.50117C5.69244 6.85014 5.49621 7.32326 5.4957 7.81673V16.8599C5.49655 17.3532 5.69293 17.826 6.0418 18.1747C6.39067 18.5234 6.86357 18.7195 7.35682 18.7201H16.4003C16.8938 18.7195 17.3669 18.5232 17.7158 18.1742C18.0647 17.8252 18.261 17.3521 18.2615 16.8587V9.28009C18.2615 9.11035 18.3289 8.94757 18.4489 8.82754C18.5689 8.70752 18.7317 8.64009 18.9015 8.64009C19.0712 8.64009 19.234 8.70752 19.354 8.82754C19.474 8.94757 19.5415 9.11035 19.5415 9.28009V16.8599C19.5403 17.6926 19.2089 18.4907 18.6201 19.0794C18.0312 19.6681 17.233 19.9992 16.4003 20.0001Z" fill="#202020"/>
<path d="M17.5472 8.47278C17.1047 8.47284 16.6721 8.34168 16.3042 8.09589C15.9362 7.85009 15.6495 7.50071 15.4801 7.09191C15.3107 6.68312 15.2664 6.23328 15.3527 5.79929C15.439 5.36531 15.6521 4.96666 15.965 4.65377C16.2779 4.34089 16.6765 4.12782 17.1105 4.04151C17.5445 3.9552 17.9943 3.99953 18.4031 4.16889C18.8119 4.33825 19.1613 4.62504 19.4071 4.99298C19.6529 5.36092 19.784 5.79349 19.784 6.23598C19.7831 6.82895 19.5472 7.3974 19.1279 7.8167C18.7086 8.236 18.1402 8.47193 17.5472 8.47278ZM17.5472 5.27886C17.3579 5.27879 17.1728 5.33487 17.0153 5.44C16.8579 5.54514 16.7352 5.6946 16.6627 5.86948C16.5902 6.04437 16.5712 6.23682 16.6081 6.4225C16.645 6.60819 16.7361 6.77876 16.87 6.91265C17.0038 7.04654 17.1743 7.13773 17.36 7.17468C17.5457 7.21164 17.7381 7.1927 17.9131 7.12027C18.088 7.04784 18.2375 6.92516 18.3427 6.76776C18.4478 6.61035 18.504 6.42529 18.504 6.23598C18.5033 5.98251 18.4022 5.73964 18.2229 5.5605C18.0436 5.38137 17.8006 5.28056 17.5472 5.28014V5.27886ZM13.0045 13.1429H7.48766C7.31792 13.1429 7.15513 13.0754 7.03511 12.9554C6.91508 12.8354 6.84766 12.6726 6.84766 12.5029C6.84766 12.3331 6.91508 12.1703 7.03511 12.0503C7.15513 11.9303 7.31792 11.8629 7.48766 11.8629H13.0045C13.1742 11.8629 13.337 11.9303 13.457 12.0503C13.577 12.1703 13.6445 12.3331 13.6445 12.5029C13.6445 12.6726 13.577 12.8354 13.457 12.9554C13.337 13.0754 13.1742 13.1429 13.0045 13.1429ZM11.1411 10.4913H7.48766C7.31792 10.4913 7.15513 10.4239 7.03511 10.3039C6.91508 10.1839 6.84766 10.0211 6.84766 9.85134C6.84766 9.6816 6.91508 9.51881 7.03511 9.39879C7.15513 9.27876 7.31792 9.21134 7.48766 9.21134H11.1411C11.3108 9.21134 11.4736 9.27876 11.5936 9.39879C11.7137 9.51881 11.7811 9.6816 11.7811 9.85134C11.7811 10.0211 11.7137 10.1839 11.5936 10.3039C11.4736 10.4239 11.3108 10.4913 11.1411 10.4913ZM14.7949 15.8526H7.48766C7.31792 15.8526 7.15513 15.7852 7.03511 15.6652C6.91508 15.5451 6.84766 15.3824 6.84766 15.2126C6.84766 15.0429 6.91508 14.8801 7.03511 14.7601C7.15513 14.64 7.31792 14.5726 7.48766 14.5726H14.7949C14.9646 14.5726 15.1274 14.64 15.2474 14.7601C15.3674 14.8801 15.4349 15.0429 15.4349 15.2126C15.4349 15.3824 15.3674 15.5451 15.2474 15.6652C15.1274 15.7852 14.9646 15.8526 14.7949 15.8526Z" fill="#202020"/>
</svg>
