<svg width="24" height="24" viewBox="0 0 24 24" fill="none" xmlns="http://www.w3.org/2000/svg">
<path d="M17 2H7C4.23993 2.00323 2.00323 4.23993 2 7V17C2.00323 19.7601 4.23993 21.9968 7 22H17C19.7601 21.9968 21.9968 19.7601 22 17V7C21.9968 4.23993 19.7601 2.00323 17 2ZM21 17C20.9978 19.2083 19.2083 20.9978 17 21H7C4.79175 20.9978 3.0022 19.2083 3 17V7C3.0022 4.79175 4.79175 3.0022 7 3H17C19.2083 3.0022 20.9978 4.79175 21 7V17ZM12 10C10.8954 10 10 10.8954 10 12C10 13.1046 10.8954 14 12 14C13.104 13.9986 13.9986 13.104 14 12C14 10.8954 13.1046 10 12 10ZM12 13C11.4477 13 11 12.5523 11 12C11 11.4477 11.4477 11 12 11C12.5521 11.0004 12.9996 11.4479 13 12C13 12.5523 12.5523 13 12 13Z" fill="#202020"/>
</svg>
