<svg width="24" height="24" viewBox="0 0 24 24" fill="none" xmlns="http://www.w3.org/2000/svg">
<path d="M19.275 12.99L18.27 12.3825C17.8394 12.1233 17.3344 12.0156 16.8356 12.0768C16.3367 12.138 15.8727 12.3644 15.5175 12.72L14.985 13.26C14.8722 13.373 14.7262 13.447 14.5684 13.4713C14.4106 13.4956 14.2491 13.4688 14.1075 13.395C12.6334 12.5807 11.4193 11.3666 10.605 9.8925C10.5276 9.74925 10.4989 9.58468 10.5232 9.42367C10.5476 9.26265 10.6237 9.11394 10.74 9L11.28 8.4675C11.6356 8.11231 11.862 7.64829 11.9232 7.14943C11.9844 6.65056 11.8768 6.14558 11.6175 5.715L11.01 4.725C10.7192 4.23474 10.3204 3.81725 9.84392 3.50425C9.3675 3.19124 8.82598 2.99098 8.26054 2.91867C7.6951 2.84637 7.12062 2.90392 6.58076 3.08696C6.0409 3.27 5.54987 3.57371 5.14501 3.975L4.87501 4.275C3.73309 5.43767 3.04488 6.97056 2.93484 8.59649C2.82479 10.2224 3.30017 11.8341 4.27501 13.14C6.1477 15.6352 8.36477 17.8523 10.86 19.725C12.1654 20.7013 13.7773 21.1776 15.4037 21.0675C17.03 20.9575 18.5631 20.2683 19.725 19.125L19.995 18.855C20.3963 18.4501 20.7 17.9591 20.883 17.4193C21.0661 16.8794 21.1236 16.3049 21.0513 15.7395C20.979 15.174 20.7788 14.6325 20.4658 14.1561C20.1528 13.6797 19.7353 13.2809 19.245 12.99H19.275ZM18.9375 17.79L18.6675 18.06C17.7621 18.9509 16.5673 19.4877 15.3 19.573C14.0326 19.6583 12.7767 19.2865 11.76 18.525C9.37573 16.7408 7.25925 14.6243 5.47501 12.24C4.71352 11.2233 4.34171 9.9674 4.42702 8.70005C4.51234 7.4327 5.04913 6.23793 5.94001 5.3325L6.21001 5.0625C6.63094 4.64501 7.19964 4.41052 7.79251 4.41C7.88486 4.40255 7.97766 4.40255 8.07001 4.41C8.41496 4.44937 8.74612 4.56802 9.03757 4.75669C9.32903 4.94535 9.57287 5.1989 9.75001 5.4975L10.35 6.5025C10.4358 6.64577 10.4713 6.81358 10.4509 6.97933C10.4306 7.14507 10.3554 7.29928 10.2375 7.4175L9.70501 7.95C9.36009 8.29307 9.13566 8.73868 9.06535 9.22005C8.99504 9.70142 9.08263 10.1926 9.31501 10.62C10.2596 12.3446 11.6779 13.7629 13.4025 14.7075C13.8299 14.9399 14.3211 15.0275 14.8025 14.9572C15.2838 14.8868 15.7294 14.6624 16.0725 14.3175L16.605 13.785C16.7232 13.6671 16.8774 13.5919 17.0432 13.5716C17.2089 13.5512 17.3767 13.5867 17.52 13.6725L18.525 14.2725C18.8178 14.4484 19.0668 14.6886 19.253 14.9749C19.4391 15.2613 19.5577 15.5863 19.5996 15.9253C19.6415 16.2642 19.6057 16.6083 19.4949 16.9314C19.3841 17.2545 19.2012 17.5481 18.96 17.79H18.9375Z" fill="#202020"/>
<path d="M20.25 9C20.4489 9 20.6397 8.92098 20.7803 8.78033C20.921 8.63968 21 8.44891 21 8.25V5.25C21 4.65326 20.7629 4.08097 20.341 3.65901C19.919 3.23705 19.3467 3 18.75 3H15.75C15.5511 3 15.3603 3.07902 15.2197 3.21967C15.079 3.36032 15 3.55109 15 3.75C15 3.94891 15.079 4.13968 15.2197 4.28033C15.3603 4.42098 15.5511 4.5 15.75 4.5H18.4425L13.7925 9.1425C13.7222 9.21222 13.6664 9.29517 13.6283 9.38657C13.5903 9.47796 13.5706 9.57599 13.5706 9.675C13.5706 9.77401 13.5903 9.87204 13.6283 9.96343C13.6664 10.0548 13.7222 10.1378 13.7925 10.2075C13.8622 10.2778 13.9452 10.3336 14.0366 10.3717C14.128 10.4097 14.226 10.4293 14.325 10.4293C14.424 10.4293 14.522 10.4097 14.6134 10.3717C14.7048 10.3336 14.7878 10.2778 14.8575 10.2075L19.5 5.5575V8.25C19.5 8.44891 19.579 8.63968 19.7197 8.78033C19.8603 8.92098 20.0511 9 20.25 9Z" fill="#202020"/>
</svg>
