<svg width="24" height="24" viewBox="0 0 24 24" fill="none" xmlns="http://www.w3.org/2000/svg">
<path d="M8.27135 17.8202C8.15629 17.8202 8.04339 17.789 7.94463 17.7299L7.24895 17.3159C6.46441 16.8476 5.89762 16.0874 5.6729 15.2018C5.44818 14.3162 5.58388 13.3777 6.05023 12.592L8.99199 7.65059C10.3642 5.34659 13.3555 4.58659 15.6605 5.95843C16.2095 6.2851 16.6888 6.71675 17.071 7.2287C17.4532 7.74065 17.7308 8.32288 17.8879 8.94213C18.0451 9.56138 18.0787 10.2055 17.9868 10.8378C17.895 11.47 17.6795 12.078 17.3526 12.6269L15.1642 16.3037C14.9819 16.61 14.741 16.8774 14.4554 17.0906C14.1697 17.3039 13.8449 17.4587 13.4994 17.5464C13.1539 17.6341 12.7945 17.6529 12.4418 17.6017C12.089 17.5505 11.7498 17.4303 11.4435 17.248C11.1372 17.0657 10.8698 16.8249 10.6566 16.5393C10.4433 16.2536 10.2885 15.9288 10.2008 15.5833C10.1131 15.2378 10.0943 14.8784 10.1455 14.5257C10.1967 14.1729 10.3169 13.8337 10.4992 13.5274L12.2435 10.5968C12.2865 10.5246 12.3433 10.4615 12.4106 10.4112C12.478 10.3608 12.5546 10.3243 12.636 10.3036C12.7175 10.2829 12.8023 10.2784 12.8855 10.2905C12.9687 10.3025 13.0487 10.3308 13.121 10.3738C13.1932 10.4168 13.2563 10.4735 13.3066 10.5409C13.3569 10.6082 13.3935 10.6848 13.4142 10.7663C13.4349 10.8478 13.4394 10.9325 13.4273 11.0158C13.4153 11.099 13.387 11.179 13.344 11.2512L11.5997 14.1821C11.5003 14.344 11.4342 14.524 11.405 14.7116C11.3758 14.8993 11.3842 15.0909 11.4296 15.2753C11.4751 15.4597 11.5567 15.6332 11.6698 15.7858C11.7829 15.9384 11.9252 16.067 12.0883 16.1641C12.2515 16.2613 12.4324 16.3251 12.6204 16.3517C12.8085 16.3784 12.9999 16.3675 13.1837 16.3195C13.3675 16.2716 13.5399 16.1877 13.691 16.0725C13.842 15.9574 13.9687 15.8135 14.0637 15.649L16.2522 11.9722C16.7384 11.1552 16.8802 10.1786 16.6464 9.25707C16.4125 8.33556 15.8222 7.54468 15.0053 7.05843C14.1883 6.57217 13.2117 6.43036 12.2902 6.66419C11.3686 6.89803 10.5778 7.48836 10.0915 8.30531L7.15039 13.248C6.85764 13.7418 6.77258 14.3314 6.91384 14.8878C7.0551 15.4441 7.41116 15.9218 7.90399 16.216L8.59967 16.6301C8.72022 16.7018 8.81388 16.8111 8.86625 16.9412C8.91862 17.0713 8.92681 17.215 8.88954 17.3502C8.85227 17.4854 8.77162 17.6047 8.65999 17.6896C8.54836 17.7745 8.41192 17.8204 8.27167 17.8202H8.27135Z" fill="#202020"/>
</svg>
