<svg width="24" height="24" viewBox="0 0 24 24" fill="none" xmlns="http://www.w3.org/2000/svg">
<path d="M10.6454 19.0307C9.73175 19.0295 8.85588 18.666 8.20995 18.0198C7.56403 17.3736 7.2008 16.4976 7.19995 15.584V9.83391C7.19995 7.15167 9.38203 4.96991 12.064 4.96991C14.7459 4.96991 16.928 7.15231 16.928 9.83391V14.112C16.9202 14.8267 16.6308 15.5095 16.1227 16.0122C15.6145 16.5148 14.9286 16.7968 14.2139 16.7968C13.4991 16.7968 12.8132 16.5148 12.3051 16.0122C11.7969 15.5095 11.5076 14.8267 11.4998 14.112V10.7024C11.4998 10.5327 11.5672 10.3699 11.6872 10.2498C11.8073 10.1298 11.9701 10.0624 12.1398 10.0624C12.3095 10.0624 12.4723 10.1298 12.5923 10.2498C12.7124 10.3699 12.7798 10.5327 12.7798 10.7024V14.112C12.7854 14.4886 12.939 14.8479 13.2073 15.1123C13.4756 15.3766 13.8372 15.5248 14.2139 15.5248C14.5905 15.5248 14.9521 15.3766 15.2204 15.1123C15.4888 14.8479 15.6423 14.4886 15.648 14.112V9.83391C15.648 8.88337 15.2704 7.97177 14.5982 7.29964C13.9261 6.62751 13.0145 6.24991 12.064 6.24991C11.1134 6.24991 10.2018 6.62751 9.52968 7.29964C8.85755 7.97177 8.47995 8.88337 8.47995 9.83391V15.584C8.48063 16.1583 8.70906 16.7088 9.11513 17.1149C9.5212 17.521 10.0718 17.7494 10.646 17.7501H11.456C11.6257 17.7501 11.7885 17.8175 11.9085 17.9375C12.0285 18.0575 12.096 18.2203 12.096 18.3901C12.096 18.5598 12.0285 18.7226 11.9085 18.8426C11.7885 18.9626 11.6257 19.0301 11.456 19.0301L10.6454 19.0307Z" fill="#202020"/>
</svg>
