<svg width="24" height="24" viewBox="0 0 24 24" fill="none" xmlns="http://www.w3.org/2000/svg">
<g clip-path="url(#clip0_3_225)">
<path d="M20.7254 3.2915C17.3568 -0.0971652 11.8933 -0.0971652 8.52468 3.2915C6.38385 5.44504 5.60598 8.44804 6.18577 11.2163C6.27067 11.6217 6.66817 11.8815 7.07358 11.7966C7.479 11.7117 7.73883 11.3142 7.65389 10.9088C7.17284 8.61199 7.81946 6.12851 9.58848 4.34903C12.3706 1.55033 16.8795 1.55033 19.6616 4.34903C22.4462 7.15016 22.4462 11.6935 19.6616 14.4946L14.0931 20.0963C13.8011 20.39 13.8025 20.8649 14.0963 21.1569C14.39 21.4489 14.8649 21.4475 15.1569 21.1537L20.7254 15.5522C24.0916 12.166 24.0916 6.6777 20.7254 3.2915Z" fill="#202020"/>
<path fill-rule="evenodd" clip-rule="evenodd" d="M15 10.875H13.875V12.75C13.875 13.1642 13.5392 13.5 13.125 13.5C12.7108 13.5 12.375 13.1642 12.375 12.75V6.375C12.375 5.96078 12.7108 5.625 13.125 5.625H15C16.4497 5.625 17.625 6.80025 17.625 8.25C17.625 9.69975 16.4497 10.875 15 10.875ZM13.875 9.375V7.125H15C15.6213 7.125 16.125 7.62866 16.125 8.25C16.125 8.87134 15.6213 9.375 15 9.375H13.875Z" fill="#202020"/>
<path d="M3.70984 18.6136C3.29563 18.6136 2.95984 18.9494 2.95984 19.3636C2.95984 19.7778 3.29563 20.1136 3.70984 20.1136H4.5134C4.92763 20.1136 5.2634 19.7778 5.2634 19.3636C5.2634 18.9494 4.92763 18.6136 4.5134 18.6136H3.70984ZM9.53574 18.6136C9.12152 18.6136 8.78574 18.9494 8.78574 19.3636C8.78574 19.7778 9.12152 20.1136 9.53574 20.1136H10.3393C10.7535 20.1136 11.0893 19.7778 11.0893 19.3636C11.0893 18.9494 10.7535 18.6136 10.3393 18.6136H9.53574Z" fill="#202020"/>
<path fill-rule="evenodd" clip-rule="evenodd" d="M4.5786 13.125C3.74874 13.125 2.99624 13.6438 2.72536 14.4368L2.26178 15.7938C1.90937 15.6273 1.48302 15.7593 1.28872 16.1042C1.08541 16.465 1.21316 16.9224 1.57404 17.1258L1.63593 17.1606C1.09845 17.5826 0.75 18.2321 0.75 18.9716V21.3239C0.75 22.4049 1.6429 23.25 2.70536 23.25C3.57777 23.25 4.33586 22.6802 4.57916 21.8778H9.67084C9.91414 22.6802 10.6722 23.25 11.5446 23.25C12.6071 23.25 13.5 22.4049 13.5 21.3239V18.9716C13.5 18.2244 13.1442 17.5689 12.5971 17.1474L12.6356 17.1258C12.9965 16.9224 13.1242 16.465 12.9209 16.1042C12.733 15.7707 12.3281 15.6363 11.9829 15.7783L11.5247 14.4368C11.2538 13.6438 10.5013 13.125 9.6714 13.125H4.5786ZM4.14484 14.9217L3.55323 16.6534H10.6968L10.1052 14.9217C10.0479 14.7541 9.87919 14.625 9.6714 14.625H4.5786C4.37081 14.625 4.20206 14.7541 4.14484 14.9217ZM2.25 18.9716C2.25 18.537 2.6163 18.1534 3.10714 18.1534H11.1429C11.6337 18.1534 12 18.537 12 18.9716V21.3239C12 21.542 11.8136 21.75 11.5446 21.75C11.2757 21.75 11.0893 21.542 11.0893 21.3239V21.1278C11.0893 20.7136 10.7535 20.3778 10.3393 20.3778H3.91073C3.4965 20.3778 3.16071 20.7136 3.16071 21.1278V21.3239C3.16071 21.542 2.9743 21.75 2.70536 21.75C2.43641 21.75 2.25 21.542 2.25 21.3239V18.9716Z" fill="#202020"/>
</g>
<defs>
<clipPath id="clip0_3_225">
<rect width="24" height="24" fill="white"/>
</clipPath>
</defs>
</svg>
