<svg width="24" height="24" viewBox="0 0 24 24" fill="none" xmlns="http://www.w3.org/2000/svg">
<path d="M10.4708 17.6102H9.39784C9.04851 17.6099 8.71357 17.471 8.46653 17.224C8.21948 16.977 8.0805 16.6421 8.08008 16.2928V8.09312C8.0805 7.74379 8.21948 7.40889 8.46653 7.1619C8.71357 6.91492 9.04851 6.77602 9.39784 6.77568H10.4708C10.8201 6.7761 11.1549 6.91504 11.4019 7.16202C11.6489 7.40899 11.7878 7.74384 11.7882 8.09312V16.2928C11.7878 16.6421 11.6489 16.9769 11.4019 17.2239C11.1549 17.4709 10.8201 17.6098 10.4708 17.6102ZM9.39784 8.05568C9.39289 8.05564 9.38799 8.05658 9.38341 8.05844C9.37883 8.0603 9.37467 8.06305 9.37116 8.06653C9.36765 8.07001 9.36486 8.07416 9.36296 8.07872C9.36106 8.08328 9.36008 8.08818 9.36008 8.09312V16.2928C9.36008 16.2977 9.36106 16.3026 9.36296 16.3072C9.36486 16.3118 9.36765 16.3159 9.37116 16.3194C9.37467 16.3229 9.37883 16.3256 9.38341 16.3275C9.38799 16.3293 9.39289 16.3303 9.39784 16.3302H10.4708C10.4807 16.3302 10.4903 16.3263 10.4973 16.3193C10.5043 16.3123 10.5082 16.3027 10.5082 16.2928V8.09312C10.5082 8.08319 10.5043 8.07367 10.4973 8.06665C10.4903 8.05963 10.4807 8.05568 10.4708 8.05568H9.39784ZM15.5249 17.6102H14.4519C14.1026 17.6099 13.7677 17.471 13.5206 17.224C13.2736 16.977 13.1346 16.6421 13.1342 16.2928V8.09312C13.1346 7.74379 13.2736 7.40889 13.5206 7.1619C13.7677 6.91492 14.1026 6.77602 14.4519 6.77568H15.5249C15.8742 6.7761 16.209 6.91504 16.456 7.16202C16.703 7.40899 16.8419 7.74384 16.8423 8.09312V16.2928C16.8419 16.6421 16.703 16.9769 16.456 17.2239C16.209 17.4709 15.8742 17.6098 15.5249 17.6102ZM14.4519 8.05568C14.447 8.05564 14.4421 8.05658 14.4375 8.05844C14.4329 8.0603 14.4287 8.06305 14.4252 8.06653C14.4217 8.07001 14.4189 8.07416 14.417 8.07872C14.4151 8.08328 14.4142 8.08818 14.4142 8.09312V16.2928C14.4142 16.2977 14.4151 16.3026 14.417 16.3072C14.4189 16.3118 14.4217 16.3159 14.4252 16.3194C14.4287 16.3229 14.4329 16.3256 14.4375 16.3275C14.4421 16.3293 14.447 16.3303 14.4519 16.3302H15.5249C15.5348 16.3302 15.5443 16.3263 15.5514 16.3193C15.5584 16.3123 15.5623 16.3027 15.5623 16.2928V8.09312C15.5623 8.08319 15.5584 8.07367 15.5514 8.06665C15.5443 8.05963 15.5348 8.05568 15.5249 8.05568H14.4519Z" fill="#202020"/>
</svg>
