<svg width="24" height="24" viewBox="0 0 24 24" fill="none" xmlns="http://www.w3.org/2000/svg">
<path d="M12.8891 20.0067C11.0368 20.0066 9.24197 19.3642 7.81025 18.1891C6.37854 17.014 5.39857 15.3788 5.03731 13.5621C4.67605 11.7455 4.95586 9.85977 5.82907 8.22629C6.70227 6.59282 8.11483 5.31264 9.82609 4.60388C11.5373 3.89512 13.4414 3.80163 15.2139 4.33935C16.9863 4.87706 18.5175 6.0127 19.5465 7.55278C20.5755 9.09287 21.0387 10.9421 20.8572 12.7854C20.6756 14.6287 19.8605 16.352 18.5508 17.6618C17.809 18.4075 16.9266 18.9987 15.9548 19.4012C14.983 19.8038 13.9409 20.0095 12.8891 20.0067ZM12.8891 5.27327C9.17994 5.27327 6.16234 8.29087 6.16234 12C6.16234 15.7091 9.17994 18.7267 12.8891 18.7267C16.5982 18.7267 19.6161 15.7091 19.6161 12C19.6161 8.29087 16.5982 5.27327 12.8891 5.27327Z" fill="#202020"/>
<path d="M11.0172 16.2211H9.71676C9.3974 16.2211 9.0911 16.0943 8.86518 15.8686C8.63926 15.6428 8.51222 15.3366 8.51196 15.0173V9.36832C8.5123 9.04917 8.63925 8.7432 8.86495 8.51756C9.09065 8.29192 9.39666 8.16505 9.7158 8.16479H11.0163C11.3354 8.16505 11.6414 8.29192 11.8671 8.51756C12.0928 8.7432 12.2198 9.04917 12.2201 9.36832V15.0173C12.2199 15.3363 12.0931 15.6422 11.8676 15.8679C11.6421 16.0936 11.3363 16.2206 11.0172 16.2211ZM9.79292 14.9411H10.9411V9.44479H9.79196L9.79292 14.9411ZM16.0716 16.2211H14.7708C14.4518 16.2205 14.1461 16.0935 13.9206 15.8678C13.6951 15.6421 13.5683 15.3363 13.568 15.0173V9.36832C13.5684 9.0492 13.6954 8.74327 13.921 8.51765C14.1467 8.29203 14.4527 8.16513 14.7718 8.16479H16.0726C16.3917 8.16513 16.6976 8.29204 16.9232 8.51767C17.1489 8.7433 17.2758 9.04923 17.2761 9.36832V15.0173C17.2759 15.3366 17.1489 15.6427 16.923 15.8685C16.6972 16.0942 16.391 16.221 16.0716 16.2211ZM14.847 14.9411H15.9952V9.44479H14.848L14.847 14.9411Z" fill="#202020"/>
</svg>
