<svg width="24" height="24" viewBox="0 0 24 24" fill="none" xmlns="http://www.w3.org/2000/svg">
<path d="M16.0131 19.2342H7.4448C6.66268 19.2333 5.91285 18.9222 5.35981 18.3691C4.80676 17.8161 4.49565 17.0663 4.49472 16.2841V7.71583C4.49565 6.9337 4.80676 6.18388 5.35981 5.63083C5.91285 5.07779 6.66268 4.76668 7.4448 4.76575H16.0131C16.7952 4.76668 17.5451 5.07779 18.0981 5.63083C18.6512 6.18388 18.9623 6.9337 18.9632 7.71583V16.2841C18.9623 17.0663 18.6512 17.8161 18.0981 18.3691C17.5451 18.9222 16.7952 19.2333 16.0131 19.2342ZM7.4448 6.04575C7.00202 6.04626 6.57753 6.22237 6.26444 6.53546C5.95135 6.84855 5.77523 7.27305 5.77472 7.71583V16.2841C5.77523 16.7269 5.95135 17.1514 6.26444 17.4645C6.57753 17.7776 7.00202 17.9537 7.4448 17.9542H16.0131C16.4559 17.9537 16.8804 17.7776 17.1935 17.4645C17.5066 17.1514 17.6827 16.7269 17.6832 16.2841V7.71583C17.6827 7.27305 17.5066 6.84855 17.1935 6.53546C16.8804 6.22237 16.4559 6.04626 16.0131 6.04575H7.4448Z" fill="#202020"/>
<path d="M10.0038 11.136C9.69921 11.136 9.4014 11.0458 9.14808 10.8766C8.89476 10.7074 8.69731 10.4669 8.58069 10.1854C8.46407 9.90402 8.43352 9.59433 8.49291 9.29555C8.5523 8.99677 8.69896 8.72231 8.91435 8.50688C9.12973 8.29145 9.40416 8.14474 9.70293 8.08528C10.0017 8.02583 10.3114 8.05631 10.5928 8.17287C10.8743 8.28943 11.1148 8.48684 11.2841 8.74012C11.4533 8.99341 11.5437 9.2912 11.5437 9.59582C11.5433 10.0041 11.3809 10.3956 11.0922 10.6843C10.8035 10.973 10.4121 11.1355 10.0038 11.136ZM10.0038 9.33598C9.95235 9.33592 9.90201 9.35113 9.85918 9.3797C9.81635 9.40826 9.78295 9.44889 9.76322 9.49644C9.74349 9.54399 9.73831 9.59632 9.74834 9.64682C9.75837 9.69732 9.78315 9.7437 9.81956 9.78011C9.85596 9.81651 9.90234 9.84129 9.95284 9.85132C10.0033 9.86135 10.0557 9.85617 10.1032 9.83644C10.1508 9.81671 10.1914 9.78331 10.22 9.74048C10.2485 9.69765 10.2637 9.64731 10.2637 9.59582C10.2638 9.56161 10.2572 9.5277 10.2442 9.49605C10.2312 9.46439 10.2121 9.43561 10.1879 9.41136C10.1638 9.3871 10.1351 9.36784 10.1035 9.35469C10.0719 9.34154 10.0381 9.33475 10.0038 9.3347V9.33598ZM14.0275 16.1469C13.7229 16.1469 13.4251 16.0565 13.1718 15.8873C12.9186 15.7181 12.7212 15.4775 12.6046 15.1961C12.488 14.9147 12.4575 14.605 12.517 14.3062C12.5764 14.0075 12.7231 13.733 12.9385 13.5176C13.1539 13.3023 13.4283 13.1556 13.727 13.0961C14.0258 13.0367 14.3355 13.0672 14.6169 13.1838C14.8983 13.3004 15.1389 13.4978 15.3081 13.751C15.4773 14.0043 15.5677 14.3021 15.5677 14.6067C15.5673 15.015 15.4048 15.4065 15.1161 15.6953C14.8274 15.984 14.4359 16.1464 14.0275 16.1469ZM14.0275 14.3465C13.9761 14.3465 13.9258 14.3618 13.883 14.3904C13.8402 14.419 13.8068 14.4596 13.7872 14.5071C13.7675 14.5547 13.7623 14.607 13.7724 14.6575C13.7824 14.7079 13.8072 14.7543 13.8436 14.7907C13.8799 14.827 13.9263 14.8518 13.9768 14.8619C14.0272 14.8719 14.0795 14.8668 14.1271 14.8471C14.1746 14.8274 14.2152 14.794 14.2438 14.7512C14.2724 14.7085 14.2877 14.6582 14.2877 14.6067C14.2876 14.5377 14.2602 14.4716 14.2114 14.4228C14.1626 14.3741 14.0965 14.3466 14.0275 14.3465ZM8.80512 15.6189C8.67931 15.6189 8.5563 15.5818 8.45146 15.5122C8.34661 15.4427 8.26458 15.3438 8.21562 15.2279C8.16666 15.1121 8.15294 14.9843 8.17617 14.8607C8.1994 14.737 8.25855 14.623 8.34624 14.5328L13.9318 8.78814C14.0502 8.66644 14.212 8.59674 14.3818 8.59437C14.5515 8.592 14.7153 8.65715 14.837 8.7755C14.9587 8.89385 15.0284 9.0557 15.0307 9.22545C15.0331 9.39519 14.9679 9.55892 14.8496 9.68062L9.264 15.424C9.20444 15.4855 9.13313 15.5345 9.05431 15.5679C8.97549 15.6014 8.89075 15.6187 8.80512 15.6189Z" fill="#202020"/>
</svg>
