<svg width="24" height="24" viewBox="0 0 24 24" fill="none" xmlns="http://www.w3.org/2000/svg">
<path d="M16.7526 19.2343H7.24861C6.59068 19.2335 5.95992 18.9718 5.4947 18.5066C5.02947 18.0414 4.76777 17.4106 4.76701 16.7527C4.76701 14.8482 5.52348 13.0217 6.87005 11.6749C8.21661 10.328 10.043 9.57125 11.9475 9.57091H12.0525C13.9571 9.57091 15.7838 10.3275 17.1306 11.6743C18.4774 13.0211 19.2341 14.8477 19.2342 16.7524C19.2335 17.4103 18.9719 18.0412 18.5066 18.5065C18.0414 18.9718 17.4106 19.2335 16.7526 19.2343ZM11.9475 10.8503C8.69341 10.8503 6.04573 13.4976 6.04573 16.7517C6.04607 17.0703 6.17277 17.3758 6.39803 17.6011C6.62329 17.8264 6.92872 17.9532 7.24733 17.9536H16.7513C17.0699 17.9532 17.3753 17.8265 17.6005 17.6012C17.8258 17.376 17.9525 17.0706 17.9529 16.752C17.9529 13.4976 15.3053 10.8503 12.0512 10.8503H11.9475ZM5.53341 10.9946C5.09914 10.9946 4.67462 10.8658 4.31355 10.6245C3.95247 10.3832 3.67107 10.0403 3.50492 9.63904C3.33878 9.2378 3.29536 8.79631 3.38015 8.3704C3.46494 7.94448 3.67414 7.55328 3.98128 7.24627C4.28843 6.93926 4.67972 6.73023 5.10568 6.64562C5.53163 6.56102 5.9731 6.60463 6.37427 6.77095C6.77543 6.93727 7.11825 7.21883 7.35939 7.58001C7.60052 7.94118 7.72912 8.36576 7.72893 8.80003C7.728 9.38195 7.49636 9.93975 7.08479 10.3511C6.67323 10.7625 6.11533 10.9939 5.53341 10.9946ZM5.53341 7.88355C5.35238 7.88355 5.17541 7.93722 5.02488 8.03778C4.87434 8.13834 4.757 8.28126 4.68767 8.4485C4.61835 8.61573 4.60017 8.79976 4.63541 8.97733C4.67066 9.1549 4.75776 9.31803 4.8857 9.4461C5.01364 9.57418 5.17668 9.66145 5.35421 9.69688C5.53174 9.73232 5.7158 9.71432 5.8831 9.64518C6.05041 9.57603 6.19346 9.45884 6.29417 9.30841C6.39489 9.15798 6.44874 8.98106 6.44893 8.80003C6.44885 8.55716 6.35239 8.32424 6.18075 8.15242C6.0091 7.98059 5.77628 7.88389 5.53341 7.88355ZM18.3523 10.9946C17.918 10.9946 17.4935 10.8658 17.1324 10.6245C16.7714 10.3832 16.4899 10.0403 16.3238 9.63904C16.1577 9.2378 16.1142 8.79631 16.199 8.3704C16.2838 7.94448 16.493 7.55328 16.8002 7.24627C17.1073 6.93926 17.4986 6.73023 17.9246 6.64562C18.3505 6.56102 18.792 6.60463 19.1931 6.77095C19.5943 6.93727 19.9371 7.21883 20.1783 7.58001C20.4194 7.94118 20.548 8.36576 20.5478 8.80003C20.547 9.38197 20.3153 9.93982 19.9038 10.3512C19.4922 10.7626 18.9342 10.994 18.3523 10.9946ZM18.3523 7.88355C18.1713 7.88355 17.9943 7.93722 17.8438 8.03778C17.6932 8.13834 17.5759 8.28126 17.5066 8.4485C17.4372 8.61573 17.419 8.79976 17.4543 8.97733C17.4895 9.1549 17.5766 9.31803 17.7046 9.4461C17.8325 9.57418 17.9956 9.66145 18.1731 9.69688C18.3506 9.73232 18.5347 9.71432 18.702 9.64518C18.8693 9.57603 19.0123 9.45884 19.1131 9.30841C19.2138 9.15798 19.2676 8.98106 19.2678 8.80003C19.2678 8.55713 19.1714 8.32417 18.9997 8.15232C18.8281 7.98048 18.5952 7.88381 18.3523 7.88355ZM12 8.38115C11.5657 8.38115 11.1412 8.25238 10.7802 8.01112C10.4191 7.76986 10.1377 7.42695 9.97154 7.02575C9.80538 6.62455 9.76192 6.18309 9.84666 5.75719C9.9314 5.33129 10.1405 4.94009 10.4476 4.63305C10.7547 4.32602 11.1459 4.11694 11.5718 4.03226C11.9978 3.94758 12.4392 3.99111 12.8404 4.15733C13.2416 4.32355 13.5844 4.60501 13.8256 4.9661C14.0668 5.32719 14.1956 5.75171 14.1955 6.18595C14.1948 6.768 13.9633 7.32602 13.5517 7.73756C13.1401 8.1491 12.582 8.38056 12 8.38115ZM12 5.27043C11.8189 5.27043 11.6419 5.32413 11.4913 5.42473C11.3408 5.52532 11.2234 5.66831 11.1541 5.8356C11.0848 6.00289 11.0667 6.18697 11.102 6.36456C11.1374 6.54216 11.2246 6.70529 11.3526 6.83332C11.4806 6.96136 11.6438 7.04856 11.8214 7.08388C11.999 7.11921 12.183 7.10108 12.3503 7.03178C12.5176 6.96249 12.6606 6.84515 12.7612 6.69459C12.8618 6.54403 12.9155 6.36703 12.9155 6.18595C12.9152 5.94322 12.8187 5.7105 12.6471 5.53886C12.4754 5.36723 12.2427 5.27069 12 5.27043Z" fill="#202020"/>
</svg>
