<svg width="24" height="24" viewBox="0 0 24 24" fill="none" xmlns="http://www.w3.org/2000/svg">
<path d="M17.8664 20.0618H7.5061C6.77567 20.0609 6.0754 19.7704 5.55893 19.2538C5.04246 18.7373 4.75198 18.037 4.75122 17.3066V6.94658C4.75215 6.21625 5.04271 5.51611 5.55915 4.99972C6.0756 4.48334 6.77578 4.19286 7.5061 4.19202H17.8664C18.5969 4.19286 19.2972 4.48341 19.8137 4.99993C20.3302 5.51645 20.6208 6.21675 20.6216 6.94722V17.3066C20.6208 18.037 20.3302 18.7373 19.8137 19.2539C19.2972 19.7704 18.5969 20.0609 17.8664 20.0618ZM7.5061 5.47202C7.11504 5.47252 6.74014 5.62812 6.46365 5.90467C6.18716 6.18123 6.03164 6.55615 6.03122 6.94722V17.3066C6.03164 17.6976 6.18716 18.0726 6.46365 18.3491C6.74014 18.6257 7.11504 18.7813 7.5061 18.7818H17.8664C18.2575 18.7814 18.6325 18.6258 18.9091 18.3492C19.1856 18.0727 19.3412 17.6977 19.3416 17.3066V6.94658C19.3412 6.55546 19.1856 6.18048 18.9091 5.90392C18.6325 5.62736 18.2575 5.4718 17.8664 5.47138L7.5061 5.47202Z" fill="#202020"/>
<path d="M17.8666 20.0617C17.7825 20.0619 17.6993 20.0454 17.6216 20.0132C17.5439 19.981 17.4734 19.9338 17.4141 19.8742L4.9386 7.39902C4.81859 7.27897 4.75119 7.11616 4.75122 6.94642C4.75125 6.77668 4.81871 6.6139 4.93876 6.4939C5.0588 6.37389 5.22161 6.30649 5.39135 6.30652C5.56109 6.30655 5.72387 6.37401 5.84388 6.49406L18.3191 18.9693C18.4086 19.0588 18.4695 19.1728 18.4942 19.2969C18.5189 19.421 18.5062 19.5497 18.4578 19.6666C18.4093 19.7836 18.3273 19.8835 18.2221 19.9538C18.1169 20.0242 17.9932 20.0617 17.8666 20.0617Z" fill="#202020"/>
<path d="M6.01589 19.4486C5.88918 19.4482 5.76545 19.4102 5.66036 19.3394C5.55527 19.2686 5.47356 19.1682 5.42559 19.051C5.37761 18.9337 5.36552 18.8048 5.39085 18.6807C5.41619 18.5565 5.4778 18.4427 5.56789 18.3536L11.1788 12.807C11.2385 12.7479 11.3094 12.7012 11.3872 12.6695C11.4651 12.6378 11.5484 12.6217 11.6324 12.6222C11.7165 12.6227 11.7996 12.6397 11.8771 12.6723C11.9545 12.705 12.0248 12.7525 12.0839 12.8123C12.143 12.8721 12.1897 12.9429 12.2214 13.0207C12.2531 13.0986 12.2692 13.1819 12.2687 13.266C12.2682 13.35 12.2512 13.4331 12.2186 13.5106C12.1859 13.5881 12.1384 13.6583 12.0786 13.7174L6.46709 19.264C6.34694 19.3826 6.18476 19.449 6.01589 19.4486Z" fill="#202020"/>
</svg>
