<svg width="24" height="24" viewBox="0 0 24 24" fill="none" xmlns="http://www.w3.org/2000/svg">
<path d="M11.9999 20.0067C10.1475 20.0067 8.3524 19.3644 6.92047 18.1893C5.48855 17.0141 4.50839 15.3788 4.14701 13.562C3.78564 11.7452 4.0654 9.85927 4.93864 8.2256C5.81187 6.59193 7.22454 5.31159 8.93595 4.60272C10.6474 3.89386 12.5516 3.80034 14.3243 4.33809C16.0969 4.87585 17.6282 6.01161 18.6573 7.55185C19.6864 9.09209 20.1497 10.9415 19.968 12.785C19.7864 14.6285 18.9712 16.352 17.6613 17.6618C16.9196 18.4075 16.0373 18.9988 15.0655 19.4013C14.0937 19.8038 13.0517 20.0096 11.9999 20.0067ZM11.9999 5.27329C8.29079 5.27329 5.27319 8.29089 5.27319 12C5.27319 15.7091 8.29079 18.7267 11.9999 18.7267C15.709 18.7267 18.7266 15.7091 18.7266 12C18.7266 8.29089 15.709 5.27329 11.9999 5.27329Z" fill="#202020"/>
<path d="M10.9244 15.2362C10.5804 15.2362 10.2505 15.0995 10.0073 14.8563C9.76409 14.6131 9.62744 14.2832 9.62744 13.9392V10.0608C9.62735 9.83755 9.68491 9.61805 9.79454 9.42357C9.90417 9.22908 10.0622 9.0662 10.2532 8.95069C10.4443 8.83518 10.6619 8.77095 10.885 8.76423C11.1082 8.75751 11.3293 8.80852 11.527 8.91232L14.8412 10.6518C15.0419 10.7572 15.2115 10.9132 15.3331 11.1045C15.4547 11.2957 15.524 11.5155 15.5342 11.7419C15.5444 11.9684 15.4951 12.1935 15.3912 12.3949C15.2873 12.5963 15.1324 12.767 14.942 12.8899L11.6274 15.0288C11.418 15.1642 11.1738 15.2362 10.9244 15.2362ZM10.9244 10.0429C10.9212 10.0432 10.9181 10.0443 10.9154 10.0461C10.9126 10.0472 10.9102 10.0493 10.9088 10.052C10.9073 10.0547 10.9068 10.0578 10.9074 10.0608V13.9392C10.9072 13.942 10.9072 13.9448 10.9074 13.9475C10.9096 13.9503 10.9123 13.9525 10.9154 13.9542C10.9185 13.9559 10.9219 13.9568 10.9254 13.9571C10.928 13.9563 10.9305 13.955 10.9327 13.9533L14.2479 11.8144C14.254 11.8102 14.2559 11.809 14.2556 11.7994C14.2553 11.7898 14.253 11.7885 14.2466 11.7853L10.9321 10.0458C10.9298 10.0443 10.9271 10.0433 10.9244 10.0429Z" fill="#202020"/>
</svg>
