<svg width="24" height="24" viewBox="0 0 24 24" fill="none" xmlns="http://www.w3.org/2000/svg">
<path d="M9.82974 20.0182C9.43602 20.0172 9.04889 19.9172 8.70398 19.7274C8.33152 19.5283 8.02061 19.2311 7.80492 18.8681C7.58923 18.505 7.47697 18.0898 7.4803 17.6675V7.59712C7.48025 7.19324 7.58447 6.7962 7.78288 6.44441C7.98128 6.09263 8.26715 5.79803 8.6128 5.58913C8.95845 5.38022 9.35218 5.2641 9.75587 5.25199C10.1596 5.23987 10.5595 5.33219 10.9171 5.52L19.5229 10.0365C19.8858 10.227 20.1925 10.5093 20.4123 10.8552C20.6322 11.2011 20.7576 11.5986 20.7759 12.0081C20.7943 12.4176 20.7051 12.8248 20.5171 13.189C20.3292 13.5533 20.049 13.8619 19.7046 14.0842L11.0989 19.6384C10.7213 19.8848 10.2806 20.0167 9.82974 20.0182ZM9.82558 6.528C9.63136 6.52882 9.44113 6.58319 9.27582 6.68512C9.1173 6.77832 8.98622 6.91175 8.89586 7.0719C8.8055 7.23206 8.75907 7.41324 8.76126 7.59712V17.6675C8.76113 17.8591 8.81266 18.0472 8.91042 18.212C9.00819 18.3768 9.14857 18.5121 9.3168 18.6038C9.48502 18.6956 9.67486 18.7402 9.86633 18.7331C10.0578 18.726 10.2438 18.6674 10.4048 18.5635L19.0105 13.0086C19.167 12.9077 19.2942 12.7674 19.3796 12.602C19.465 12.4365 19.5055 12.2516 19.4971 12.0656C19.4888 11.8796 19.4318 11.699 19.332 11.5419C19.2321 11.3847 19.0928 11.2565 18.928 11.1699L10.3222 6.65344C10.1693 6.57191 9.99885 6.52886 9.82558 6.528Z" fill="#202020"/>
</svg>
