<svg width="24" height="24" viewBox="0 0 24 24" fill="none" xmlns="http://www.w3.org/2000/svg">
<path d="M11.9999 20.0067C10.3151 20.0052 8.67367 19.4718 7.30981 18.4825C5.94595 17.4932 4.92925 16.0986 4.40469 14.4974C3.88012 12.8963 3.87447 11.1704 4.38854 9.56586C4.9026 7.96132 5.91015 6.56004 7.2675 5.56184C8.62485 4.56364 10.2627 4.01947 11.9475 4.00694C13.6324 3.9944 15.2782 4.51412 16.6502 5.49201C18.0223 6.4699 19.0506 7.85602 19.5885 9.45273C20.1263 11.0494 20.1464 12.7752 19.6457 14.384C19.5952 14.546 19.4824 14.6814 19.3321 14.7603C19.1818 14.8392 19.0063 14.8551 18.8443 14.8046C18.6822 14.7541 18.5468 14.6413 18.468 14.491C18.3891 14.3407 18.3731 14.1652 18.4236 14.0032C18.6251 13.3546 18.7273 12.6792 18.7267 12C18.7267 8.29087 15.7091 5.27327 11.9999 5.27327C8.29082 5.27327 5.27322 8.29087 5.27322 12C5.27322 15.7091 8.29082 18.7267 11.9999 18.7267C12.9742 18.7292 13.9371 18.5181 14.8211 18.1085C14.9749 18.0385 15.1502 18.0322 15.3086 18.091C15.4671 18.1498 15.5958 18.2689 15.6668 18.4222C15.7378 18.5756 15.7453 18.7508 15.6875 18.9097C15.6298 19.0685 15.5116 19.1981 15.3587 19.2701C14.3064 19.7581 13.1599 20.0096 11.9999 20.0067Z" fill="#202020"/>
<path d="M10.9244 15.2362C10.5804 15.2362 10.2505 15.0995 10.0073 14.8563C9.76409 14.6131 9.62744 14.2832 9.62744 13.9392V10.0608C9.62735 9.83755 9.68491 9.61805 9.79454 9.42357C9.90417 9.22908 10.0622 9.0662 10.2532 8.95069C10.4443 8.83518 10.6619 8.77095 10.885 8.76423C11.1082 8.75751 11.3293 8.80852 11.527 8.91232L14.8412 10.6518C15.0419 10.7572 15.2115 10.9132 15.3331 11.1045C15.4547 11.2957 15.524 11.5155 15.5342 11.7419C15.5444 11.9684 15.4951 12.1935 15.3912 12.3949C15.2873 12.5963 15.1324 12.767 14.942 12.8899L11.6274 15.0288C11.418 15.1642 11.1738 15.2362 10.9244 15.2362ZM10.9244 10.0429C10.9212 10.0432 10.9181 10.0443 10.9154 10.0461C10.9126 10.0472 10.9102 10.0493 10.9088 10.052C10.9073 10.0547 10.9068 10.0578 10.9074 10.0608V13.9392C10.9072 13.942 10.9072 13.9448 10.9074 13.9475C10.9096 13.9503 10.9123 13.9526 10.9154 13.9542C10.9185 13.9559 10.9219 13.9568 10.9254 13.9571C10.928 13.9563 10.9305 13.955 10.9327 13.9533L14.2479 11.8144C14.254 11.8102 14.2559 11.809 14.2556 11.7994C14.2553 11.7898 14.253 11.7885 14.2466 11.7853L10.9321 10.0458C10.9298 10.0443 10.9271 10.0433 10.9244 10.0429ZM17.5273 20.0512C16.898 20.0512 16.2829 19.8646 15.7597 19.515C15.2365 19.1654 14.8288 18.6685 14.588 18.0872C14.3472 17.5058 14.2842 16.8661 14.407 16.249C14.5298 15.6318 14.8328 15.065 15.2778 14.62C15.7227 14.1751 16.2897 13.8721 16.9068 13.7494C17.524 13.6267 18.1637 13.6897 18.745 13.9306C19.3263 14.1714 19.8232 14.5793 20.1727 15.1025C20.5223 15.6257 20.7088 16.2408 20.7087 16.8701C20.7077 17.7135 20.3722 18.5221 19.7758 19.1185C19.1793 19.7148 18.3707 20.0503 17.5273 20.0512ZM17.5273 14.9686C17.1512 14.9686 16.7836 15.0802 16.4709 15.2891C16.1582 15.498 15.9145 15.795 15.7706 16.1424C15.6267 16.4899 15.589 16.8722 15.6624 17.241C15.7357 17.6099 15.9168 17.9487 16.1828 18.2146C16.4487 18.4805 16.7875 18.6616 17.1563 18.735C17.5252 18.8084 17.9075 18.7707 18.2549 18.6268C18.6024 18.4829 18.8993 18.2392 19.1083 17.9265C19.3172 17.6138 19.4287 17.2462 19.4287 16.8701C19.4281 16.366 19.2276 15.8827 18.8711 15.5262C18.5147 15.1698 18.0314 14.9692 17.5273 14.9686Z" fill="#202020"/>
<path d="M16.8405 18.2179C16.714 18.2179 16.5903 18.1803 16.4851 18.11C16.3798 18.0397 16.2978 17.9397 16.2494 17.8228C16.201 17.7059 16.1883 17.5772 16.213 17.4531C16.2377 17.329 16.2986 17.2149 16.3881 17.1254L17.8255 15.688C17.8845 15.6269 17.9552 15.5781 18.0332 15.5446C18.1113 15.511 18.1953 15.4934 18.2803 15.4926C18.3653 15.4919 18.4495 15.5081 18.5282 15.5403C18.6069 15.5725 18.6783 15.62 18.7384 15.6801C18.7985 15.7402 18.846 15.8116 18.8782 15.8903C18.9104 15.9689 18.9266 16.0532 18.9258 16.1382C18.9251 16.2232 18.9074 16.3071 18.8739 16.3852C18.8403 16.4633 18.7916 16.5339 18.7305 16.593L17.293 18.0307C17.2337 18.0902 17.1631 18.1373 17.0855 18.1695C17.0078 18.2016 16.9246 18.2181 16.8405 18.2179Z" fill="#202020"/>
<path d="M18.2781 18.2179C18.194 18.2181 18.1108 18.2016 18.0332 18.1695C17.9555 18.1373 17.885 18.0902 17.8256 18.0307L16.3882 16.5929C16.2716 16.4722 16.2071 16.3106 16.2085 16.1428C16.21 15.975 16.2773 15.8144 16.3959 15.6958C16.5146 15.5771 16.6751 15.5098 16.8429 15.5084C17.0107 15.5069 17.1724 15.5714 17.2931 15.688L18.7306 17.1254C18.82 17.2149 18.881 17.329 18.9056 17.4531C18.9303 17.5772 18.9177 17.7059 18.8692 17.8228C18.8208 17.9397 18.7388 18.0397 18.6336 18.11C18.5283 18.1803 18.4046 18.2179 18.2781 18.2179Z" fill="#202020"/>
</svg>
