<svg width="24" height="24" viewBox="0 0 24 24" fill="none" xmlns="http://www.w3.org/2000/svg">
<path d="M9.46015 12.4573C9.32986 12.4573 9.20267 12.4176 9.09558 12.3433C8.98849 12.2691 8.9066 12.164 8.86086 12.042C8.81512 11.92 8.80769 11.787 8.83959 11.6606C8.87149 11.5343 8.94118 11.4207 9.03935 11.3351L11.424 9.25699C11.488 9.20123 11.5625 9.15877 11.643 9.13206C11.7236 9.10536 11.8087 9.09495 11.8933 9.10144C11.978 9.10793 12.0605 9.1312 12.136 9.16988C12.2116 9.20856 12.2787 9.26188 12.3334 9.32675L12.7837 9.85987L14.7974 8.14595C14.8607 8.08677 14.9353 8.04104 15.0167 8.01153C15.0981 7.98202 15.1847 7.96934 15.2712 7.97428C15.3576 7.97921 15.4422 8.00164 15.5198 8.04021C15.5973 8.07879 15.6662 8.1327 15.7223 8.19869C15.7784 8.26467 15.8206 8.34136 15.8462 8.42411C15.8718 8.50685 15.8803 8.59393 15.8712 8.68007C15.8622 8.76621 15.8358 8.84962 15.7935 8.92524C15.7513 9.00087 15.6942 9.06713 15.6256 9.12003L13.1226 11.2512C13.0584 11.3058 12.9841 11.3472 12.9039 11.373C12.8237 11.3988 12.7392 11.4085 12.6552 11.4016C12.5713 11.3947 12.4895 11.3712 12.4146 11.3326C12.3397 11.294 12.2732 11.241 12.2189 11.1767L11.7734 10.6493L9.88063 12.2999C9.76408 12.4014 9.61472 12.4573 9.46015 12.4573ZM19.9961 5.81827H4.00383C3.83409 5.81827 3.67131 5.75084 3.55128 5.63082C3.43126 5.51079 3.36383 5.34801 3.36383 5.17827C3.36383 5.00853 3.43126 4.84574 3.55128 4.72572C3.67131 4.6057 3.83409 4.53827 4.00383 4.53827H19.9961C20.1659 4.53827 20.3287 4.6057 20.4487 4.72572C20.5687 4.84574 20.6362 5.00853 20.6362 5.17827C20.6362 5.34801 20.5687 5.51079 20.4487 5.63082C20.3287 5.75084 20.1659 5.81827 19.9961 5.81827Z" fill="#202020"/>
<path d="M19.3411 15.8023H4.65889C4.48915 15.8023 4.32637 15.7348 4.20634 15.6148C4.08632 15.4948 4.01889 15.332 4.01889 15.1623V5.17827C4.01889 5.00853 4.08632 4.84574 4.20634 4.72572C4.32637 4.6057 4.48915 4.53827 4.65889 4.53827C4.82863 4.53827 4.99142 4.6057 5.11144 4.72572C5.23146 4.84574 5.29889 5.00853 5.29889 5.17827V14.5223H18.7011V5.17827C18.7011 5.00853 18.7686 4.84574 18.8886 4.72572C19.0086 4.6057 19.1714 4.53827 19.3411 4.53827C19.5109 4.53827 19.6737 4.6057 19.7937 4.72572C19.9137 4.84574 19.9811 5.00853 19.9811 5.17827V15.1623C19.9811 15.332 19.9137 15.4948 19.7937 15.6148C19.6737 15.7348 19.5109 15.8023 19.3411 15.8023Z" fill="#202020"/>
<path d="M12 19.4617C11.8302 19.4617 11.6675 19.3943 11.5474 19.2743C11.4274 19.1543 11.36 18.9915 11.36 18.8217V15.1622C11.36 14.9925 11.4274 14.8297 11.5474 14.7097C11.6675 14.5896 11.8302 14.5222 12 14.5222C12.1697 14.5222 12.3325 14.5896 12.4525 14.7097C12.5726 14.8297 12.64 14.9925 12.64 15.1622V18.8217C12.64 18.9915 12.5726 19.1543 12.4525 19.2743C12.3325 19.3943 12.1697 19.4617 12 19.4617Z" fill="#202020"/>
<path d="M14.2813 19.4618H9.71874C9.549 19.4618 9.38621 19.3943 9.26619 19.2743C9.14616 19.1543 9.07874 18.9915 9.07874 18.8218C9.07874 18.652 9.14616 18.4892 9.26619 18.3692C9.38621 18.2492 9.549 18.1818 9.71874 18.1818H14.2813C14.451 18.1818 14.6138 18.2492 14.7338 18.3692C14.8539 18.4892 14.9213 18.652 14.9213 18.8218C14.9213 18.9915 14.8539 19.1543 14.7338 19.2743C14.6138 19.3943 14.451 19.4618 14.2813 19.4618Z" fill="#202020"/>
</svg>
