<svg width="24" height="24" viewBox="0 0 24 24" fill="none" xmlns="http://www.w3.org/2000/svg">
<path d="M19.3599 19.1389H17.3391C17.1694 19.1389 17.0066 19.0715 16.8866 18.9514C16.7666 18.8314 16.6991 18.6686 16.6991 18.4989C16.6991 18.3291 16.7666 18.1664 16.8866 18.0463C17.0066 17.9263 17.1694 17.8589 17.3391 17.8589H19.3599C19.8613 17.8584 20.3421 17.659 20.6968 17.3046C21.0514 16.9501 21.251 16.4694 21.2518 15.968V9.12832C21.2512 8.62676 21.0517 8.1459 20.697 7.79124C20.3423 7.43658 19.8615 7.23707 19.3599 7.23648H7.44088C6.93932 7.23707 6.45847 7.43658 6.1038 7.79124C5.74914 8.1459 5.54964 8.62676 5.54904 9.12832V15.968C5.54964 16.4695 5.74915 16.9504 6.10382 17.305C6.45849 17.6596 6.93935 17.859 7.44088 17.8595H9.40792C9.57766 17.8595 9.74045 17.9269 9.86047 18.047C9.9805 18.167 10.0479 18.3298 10.0479 18.4995C10.0479 18.6693 9.9805 18.832 9.86047 18.9521C9.74045 19.0721 9.57766 19.1395 9.40792 19.1395H7.44088C6.6 19.1386 5.79382 18.8042 5.1992 18.2096C4.60457 17.615 4.27006 16.8089 4.26904 15.968V9.12832C4.26997 8.28738 4.60445 7.48115 5.19908 6.88652C5.79372 6.29189 6.59994 5.95741 7.44088 5.95648H19.3599C20.2009 5.95741 21.0071 6.29189 21.6017 6.88652C22.1964 7.48115 22.5308 8.28738 22.5318 9.12832V15.968C22.5306 16.8088 22.196 17.6148 21.6014 18.2092C21.0068 18.8036 20.2007 19.1379 19.3599 19.1389Z" fill="#202020"/>
<path d="M14.7161 21.2179H12.0847C11.3895 21.2174 10.7228 20.941 10.2312 20.4494C9.73957 19.9577 9.46316 19.2911 9.46265 18.5958V15.4278C9.46265 15.2581 9.53008 15.0953 9.6501 14.9753C9.77012 14.8553 9.93291 14.7878 10.1026 14.7878H16.6982C16.8679 14.7878 17.0307 14.8553 17.1507 14.9753C17.2707 15.0953 17.3382 15.2581 17.3382 15.4278V18.5958C17.3377 19.2911 17.0612 19.9577 16.5696 20.4494C16.078 20.941 15.4113 21.2174 14.7161 21.2179ZM10.7426 16.0678V18.5958C10.7432 18.9516 10.8847 19.2927 11.1363 19.5443C11.3879 19.7959 11.7289 19.9374 12.0847 19.9379H14.7161C15.0719 19.9374 15.4129 19.7959 15.6645 19.5443C15.9161 19.2927 16.0577 18.9516 16.0582 18.5958V16.0678H10.7426Z" fill="#202020"/>
<path d="M18.0932 16.0678H8.70787C8.53813 16.0678 8.37535 16.0004 8.25532 15.8804C8.1353 15.7604 8.06787 15.5976 8.06787 15.4278C8.06787 15.2581 8.1353 15.0953 8.25532 14.9753C8.37535 14.8553 8.53813 14.7878 8.70787 14.7878H18.0932C18.2629 14.7878 18.4257 14.8553 18.5457 14.9753C18.6657 15.0953 18.7332 15.2581 18.7332 15.4278C18.7332 15.5976 18.6657 15.7604 18.5457 15.8804C18.4257 16.0004 18.2629 16.0678 18.0932 16.0678ZM19.4288 9.47199H17.4637C17.294 9.47199 17.1312 9.40457 17.0112 9.28454C16.8911 9.16452 16.8237 9.00173 16.8237 8.83199C16.8237 8.66226 16.8911 8.49947 17.0112 8.37945C17.1312 8.25942 17.294 8.19199 17.4637 8.19199H19.4288C19.5986 8.19199 19.7614 8.25942 19.8814 8.37945C20.0014 8.49947 20.0688 8.66226 20.0688 8.83199C20.0688 9.00173 20.0014 9.16452 19.8814 9.28454C19.7614 9.40457 19.5986 9.47199 19.4288 9.47199ZM17.0506 7.23647H9.75043C9.58069 7.23647 9.41791 7.16905 9.29788 7.04902C9.17786 6.929 9.11043 6.76621 9.11043 6.59647V4.65887C9.11094 4.16133 9.30879 3.6843 9.66058 3.33245C10.0124 2.9806 10.4894 2.78267 10.9869 2.78207H15.8138C16.3114 2.78267 16.7884 2.98059 17.1402 3.33243C17.4921 3.68427 17.69 4.1613 17.6906 4.65887V6.59647C17.6906 6.76621 17.6232 6.929 17.5031 7.04902C17.3831 7.16905 17.2203 7.23647 17.0506 7.23647ZM10.3904 5.95647H16.4106V4.65887C16.4104 4.50064 16.3475 4.34894 16.2356 4.23706C16.1237 4.12517 15.972 4.06224 15.8138 4.06207H10.9869C10.8287 4.06233 10.6771 4.1253 10.5653 4.23717C10.4535 4.34905 10.3906 4.5007 10.3904 4.65887V5.95647Z" fill="#202020"/>
</svg>
