<svg width="24" height="24" viewBox="0 0 24 24" fill="none" xmlns="http://www.w3.org/2000/svg">
<path d="M18.7124 19.1389H16.6919C16.5222 19.1389 16.3594 19.0715 16.2394 18.9514C16.1193 18.8314 16.0519 18.6686 16.0519 18.4989C16.0519 18.3291 16.1193 18.1664 16.2394 18.0463C16.3594 17.9263 16.5222 17.8589 16.6919 17.8589H18.7124C19.2138 17.8584 19.6946 17.659 20.0492 17.3046C20.4039 16.9501 20.6035 16.4694 20.6042 15.968V9.12832C20.6036 8.62676 20.4041 8.1459 20.0495 7.79124C19.6948 7.43658 19.214 7.23707 18.7124 7.23648H6.79367C6.2921 7.23707 5.81125 7.43658 5.45659 7.79124C5.10193 8.1459 4.90242 8.62676 4.90183 9.12832V15.968C4.90242 16.4695 5.10194 16.9504 5.45661 17.305C5.81128 17.6596 6.29213 17.859 6.79367 17.8595H8.75911C8.92885 17.8595 9.09163 17.9269 9.21165 18.047C9.33168 18.167 9.39911 18.3298 9.39911 18.4995C9.39911 18.6693 9.33168 18.832 9.21165 18.9521C9.09163 19.0721 8.92885 19.1395 8.75911 19.1395H6.79367C5.95276 19.1387 5.14653 18.8043 4.55189 18.2097C3.95724 17.6151 3.62276 16.8089 3.62183 15.968V9.12832C3.62276 8.28738 3.95723 7.48115 4.55187 6.88652C5.1465 6.29189 5.95273 5.95741 6.79367 5.95648H18.7124C19.5533 5.95741 20.3596 6.29189 20.9542 6.88652C21.5488 7.48115 21.8833 8.28738 21.8842 9.12832V15.968C21.8831 16.8088 21.5486 17.6148 20.9539 18.2093C20.3593 18.8037 19.5532 19.138 18.7124 19.1389Z" fill="#202020"/>
<path d="M14.0687 21.2179H11.437C10.7418 21.2174 10.0751 20.941 9.58349 20.4494C9.09187 19.9577 8.81545 19.2911 8.81494 18.5958V15.4278C8.81494 15.2581 8.88237 15.0953 9.00239 14.9753C9.12242 14.8553 9.2852 14.7878 9.45494 14.7878H16.0508C16.2205 14.7878 16.3833 14.8553 16.5033 14.9753C16.6234 15.0953 16.6908 15.2581 16.6908 15.4278V18.5958C16.6903 19.2911 16.4139 19.9577 15.9222 20.4494C15.4306 20.941 14.764 21.2174 14.0687 21.2179ZM10.0949 16.0678V18.5958C10.0954 18.9516 10.237 19.2927 10.4886 19.5443C10.7402 19.7959 11.0812 19.9374 11.437 19.9379H14.0687C14.4245 19.9374 14.7656 19.7959 15.0171 19.5443C15.2687 19.2927 15.4103 18.9516 15.4108 18.5958V16.0678H10.0949Z" fill="#202020"/>
<path d="M17.4458 16.0678H8.06017C7.89043 16.0678 7.72764 16.0004 7.60762 15.8804C7.48759 15.7604 7.42017 15.5976 7.42017 15.4278C7.42017 15.2581 7.48759 15.0953 7.60762 14.9753C7.72764 14.8553 7.89043 14.7878 8.06017 14.7878H17.4458C17.6155 14.7878 17.7783 14.8553 17.8983 14.9753C18.0183 15.0953 18.0858 15.2581 18.0858 15.4278C18.0858 15.5976 18.0183 15.7604 17.8983 15.8804C17.7783 16.0004 17.6155 16.0678 17.4458 16.0678ZM18.7811 9.47199H16.816C16.6463 9.47199 16.4835 9.40457 16.3635 9.28454C16.2434 9.16452 16.176 9.00173 16.176 8.83199C16.176 8.66226 16.2434 8.49947 16.3635 8.37945C16.4835 8.25942 16.6463 8.19199 16.816 8.19199H18.7811C18.9509 8.19199 19.1136 8.25942 19.2337 8.37945C19.3537 8.49947 19.4211 8.66226 19.4211 8.83199C19.4211 9.00173 19.3537 9.16452 19.2337 9.28454C19.1136 9.40457 18.9509 9.47199 18.7811 9.47199ZM16.4032 7.23647H9.10273C8.93299 7.23647 8.7702 7.16905 8.65018 7.04902C8.53015 6.929 8.46273 6.76621 8.46273 6.59647V4.65887C8.46332 4.1613 8.66124 3.68427 9.01308 3.33243C9.36492 2.98059 9.84195 2.78267 10.3395 2.78207H15.168C15.6656 2.78267 16.1426 2.98059 16.4944 3.33243C16.8463 3.68427 17.0442 4.1613 17.0448 4.65887V6.59647C17.0448 6.68065 17.0282 6.76401 16.9959 6.84176C16.9637 6.91951 16.9164 6.99014 16.8568 7.04959C16.7972 7.10904 16.7264 7.15615 16.6486 7.18822C16.5708 7.22029 16.4874 7.23668 16.4032 7.23647ZM9.74273 5.95647H15.7632V4.65887C15.763 4.50095 15.7002 4.34954 15.5887 4.23772C15.4772 4.1259 15.3259 4.06275 15.168 4.06207H10.3395C10.1813 4.06233 10.0297 4.12529 9.9178 4.23715C9.80594 4.34902 9.74298 4.50067 9.74273 4.65887V5.95647Z" fill="#202020"/>
<path d="M6.27201 21.4499C6.15346 21.4499 6.03724 21.4169 5.93634 21.3546C5.83543 21.2924 5.7538 21.2033 5.70054 21.0974C5.64728 20.9915 5.62449 20.8729 5.63471 20.7548C5.64493 20.6366 5.68775 20.5237 5.75841 20.4285L18.72 2.952C18.8211 2.81566 18.9723 2.72507 19.1402 2.70017C19.3081 2.67526 19.479 2.71808 19.6154 2.8192C19.7517 2.92032 19.8423 3.07146 19.8672 3.23938C19.8921 3.40729 19.8493 3.57822 19.7482 3.71456L6.78561 21.191C6.72614 21.2713 6.64872 21.3365 6.55953 21.3814C6.47035 21.4264 6.37189 21.4498 6.27201 21.4499Z" fill="#202020"/>
</svg>
