<svg width="24" height="24" viewBox="0 0 24 24" fill="none" xmlns="http://www.w3.org/2000/svg">
<path d="M19.3117 20.032H17.1581C16.9883 20.032 16.8256 19.9646 16.7055 19.8446C16.5855 19.7245 16.5181 19.5617 16.5181 19.392C16.5181 19.2223 16.5855 19.0595 16.7055 18.9395C16.8256 18.8194 16.9883 18.752 17.1581 18.752H19.3117C19.4814 18.752 19.6442 18.8194 19.7642 18.9395C19.8843 19.0595 19.9517 19.2223 19.9517 19.392C19.9517 19.5617 19.8843 19.7245 19.7642 19.8446C19.6442 19.9646 19.4814 20.032 19.3117 20.032ZM11.904 11.6285C9.51712 11.6285 7.57536 9.68673 7.57536 7.29985C7.57536 4.91297 9.51712 2.97089 11.904 2.97089C14.2909 2.97089 16.2326 4.91297 16.2326 7.29985C16.2326 9.68673 14.2909 11.6285 11.904 11.6285ZM11.904 4.25089C11.301 4.25082 10.7114 4.42959 10.21 4.76457C9.70856 5.09956 9.31772 5.57572 9.0869 6.13284C8.85609 6.68996 8.79566 7.30301 8.91327 7.89447C9.03088 8.48593 9.32124 9.02924 9.74763 9.45567C10.174 9.88211 10.7173 10.1725 11.3087 10.2902C11.9002 10.4079 12.5133 10.3475 13.0704 10.1167C13.6275 9.88599 14.1037 9.4952 14.4388 8.99379C14.7738 8.49239 14.9526 7.90289 14.9526 7.29985C14.9518 6.49153 14.6303 5.71655 14.0588 5.14495C13.4873 4.57336 12.7123 4.25182 11.904 4.25089Z" fill="#202020"/>
<path d="M15.5926 21.0291H7.00416C6.55766 21.0296 6.11864 20.9144 5.72986 20.6949C5.34107 20.4753 5.01578 20.1588 4.78565 19.7761C4.55553 19.3935 4.42841 18.9578 4.41668 18.5114C4.40495 18.0651 4.50901 17.6233 4.71872 17.2291C5.37248 16.009 6.39008 14.9786 7.66112 14.2493C8.95648 13.5062 10.4566 13.1133 12 13.1133C13.5434 13.1133 15.0435 13.5062 16.3389 14.2493C17.6099 14.9786 18.6275 16.0093 19.2813 17.2291C19.3614 17.3787 19.3789 17.5541 19.3298 17.7166C19.2806 17.879 19.169 18.0154 19.0194 18.0955C18.8697 18.1757 18.6944 18.1931 18.5319 18.144C18.3694 18.0949 18.2331 17.9832 18.153 17.8336C17.033 15.744 14.6179 14.3933 12 14.3933C9.38208 14.3933 6.96704 15.744 5.84704 17.8336C5.74059 18.0307 5.68754 18.2523 5.69315 18.4763C5.69876 18.7002 5.76285 18.9188 5.87904 19.1104C5.99443 19.306 6.15899 19.468 6.35637 19.5802C6.55375 19.6925 6.77708 19.7512 7.00416 19.7504H15.5926C15.7624 19.7504 15.9252 19.8178 16.0452 19.9379C16.1652 20.0579 16.2326 20.2207 16.2326 20.3904C16.2326 20.5601 16.1652 20.7229 16.0452 20.8429C15.9252 20.963 15.7624 21.0304 15.5926 21.0304V21.0291Z" fill="#202020"/>
</svg>
