<svg width="24" height="24" viewBox="0 0 24 24" fill="none" xmlns="http://www.w3.org/2000/svg">
<path d="M18.4538 20.736C18.2947 20.7362 18.1413 20.677 18.0237 20.5699L17.2102 19.8323C17.0845 19.7183 17.0092 19.5589 17.001 19.3894C16.9927 19.2198 17.0522 19.0539 17.1662 18.9282C17.2803 18.8024 17.4397 18.7272 17.6092 18.7189C17.7788 18.7107 17.9447 18.7701 18.0704 18.8842L18.4566 19.2362L19.5933 18.2202C19.6559 18.164 19.7289 18.1208 19.8082 18.0929C19.8875 18.065 19.9715 18.053 20.0555 18.0576C20.1394 18.0622 20.2217 18.0832 20.2975 18.1196C20.3733 18.1559 20.4412 18.2069 20.4973 18.2694C20.5534 18.332 20.5967 18.4051 20.6245 18.4844C20.6524 18.5637 20.6644 18.6477 20.6599 18.7317C20.6553 18.8156 20.6342 18.8978 20.5979 18.9736C20.5615 19.0494 20.5106 19.1173 20.448 19.1734L18.88 20.5738C18.7628 20.6785 18.611 20.7363 18.4538 20.736ZM12.0198 11.6285C9.63297 11.6285 7.69089 9.68673 7.69089 7.29985C7.69089 4.91297 9.63201 2.97089 12.0198 2.97089C14.4077 2.97089 16.3485 4.91297 16.3485 7.29985C16.3485 9.68673 14.4067 11.6285 12.0198 11.6285ZM12.0198 4.25089C11.4168 4.25082 10.8273 4.42959 10.3258 4.76457C9.82441 5.09956 9.43357 5.57572 9.20275 6.13284C8.97193 6.68996 8.9115 7.30301 9.02911 7.89447C9.14672 8.48593 9.43708 9.02924 9.86347 9.45567C10.2899 9.88211 10.8331 10.1725 11.4246 10.2902C12.016 10.4079 12.6291 10.3475 13.1862 10.1167C13.7434 9.88599 14.2196 9.4952 14.5546 8.99379C14.8897 8.49239 15.0685 7.90289 15.0685 7.29985C15.0676 6.49153 14.7462 5.71655 14.1746 5.14495C13.6031 4.57336 12.8282 4.25182 12.0198 4.25089Z" fill="#202020"/>
<path d="M15.7085 21.0291H7.11999C6.67349 21.0296 6.23447 20.9144 5.84569 20.6949C5.4569 20.4753 5.13161 20.1588 4.90148 19.7761C4.67136 19.3935 4.54424 18.9578 4.53251 18.5114C4.52078 18.0651 4.62484 17.6233 4.83455 17.2291C5.48831 16.009 6.50559 14.9786 7.77695 14.2493C9.07231 13.5062 10.5725 13.1133 12.1158 13.1133C13.6592 13.1133 15.1594 13.5062 16.4544 14.2493C17.7258 14.9786 18.743 16.0093 19.3968 17.2291C19.4731 17.3783 19.4878 17.5515 19.4377 17.7115C19.3877 17.8714 19.2769 18.0053 19.1292 18.0845C18.9815 18.1637 18.8086 18.1817 18.6478 18.1348C18.4869 18.0879 18.3508 17.9797 18.2688 17.8336C17.1488 15.744 14.7338 14.3933 12.1158 14.3933C9.49791 14.3933 7.08255 15.744 5.96287 17.8336C5.85633 18.0307 5.80322 18.2523 5.80883 18.4763C5.81445 18.7003 5.87859 18.9189 5.99487 19.1104C6.11023 19.306 6.27479 19.468 6.47217 19.5803C6.66956 19.6926 6.89291 19.7512 7.11999 19.7504H15.7085C15.8782 19.7504 16.041 19.8178 16.161 19.9379C16.281 20.0579 16.3485 20.2207 16.3485 20.3904C16.3485 20.5601 16.281 20.7229 16.161 20.8429C16.041 20.963 15.8782 21.0304 15.7085 21.0304V21.0291Z" fill="#202020"/>
</svg>
