<svg width="24" height="24" viewBox="0 0 24 24" fill="none" xmlns="http://www.w3.org/2000/svg">
<path d="M11.904 11.6285C9.51711 11.6285 7.57535 9.68673 7.57535 7.29985C7.57535 4.91297 9.51711 2.97089 11.904 2.97089C14.2909 2.97089 16.2326 4.91297 16.2326 7.29985C16.2326 9.68673 14.2909 11.6285 11.904 11.6285ZM11.904 4.25089C11.3009 4.25082 10.7114 4.42959 10.21 4.76457C9.70855 5.09956 9.31771 5.57572 9.08689 6.13284C8.85607 6.68996 8.79564 7.30301 8.91325 7.89447C9.03086 8.48593 9.32122 9.02924 9.74761 9.45567C10.174 9.88211 10.7173 10.1725 11.3087 10.2902C11.9002 10.4079 12.5132 10.3475 13.0704 10.1167C13.6275 9.88599 14.1037 9.4952 14.4388 8.99379C14.7738 8.49239 14.9526 7.90289 14.9526 7.29985C14.9518 6.49153 14.6303 5.71655 14.0588 5.14495C13.4872 4.57336 12.7123 4.25182 11.904 4.25089ZM16.9958 21.0291H7.00415C6.55764 21.0296 6.11862 20.9145 5.72984 20.6949C5.34106 20.4753 5.01577 20.1588 4.78564 19.7761C4.55551 19.3935 4.42839 18.9578 4.41666 18.5115C4.40493 18.0651 4.50899 17.6233 4.71871 17.2291C5.37247 16.009 6.39007 14.9786 7.66111 14.2493C8.95647 13.5062 10.4566 13.1133 12 13.1133C13.5433 13.1133 15.0435 13.5062 16.3389 14.2493C17.6099 14.9786 18.6275 16.0093 19.2813 17.2291C19.491 17.6233 19.595 18.0651 19.5833 18.5115C19.5716 18.9578 19.4445 19.3935 19.2143 19.7761C18.9842 20.1588 18.6589 20.4753 18.2701 20.6949C17.8814 20.9145 17.4423 21.0296 16.9958 21.0291ZM12 14.3933C9.38207 14.3933 6.96703 15.7437 5.84703 17.8336C5.74057 18.0307 5.68752 18.2523 5.69314 18.4763C5.69875 18.7002 5.76283 18.9188 5.87903 19.1104C5.99441 19.306 6.15897 19.468 6.35635 19.5802C6.55374 19.6925 6.77707 19.7512 7.00415 19.7504H16.9958C17.2229 19.7512 17.4462 19.6925 17.6436 19.5802C17.841 19.468 18.0056 19.306 18.1209 19.1104C18.2371 18.9188 18.3012 18.7002 18.3068 18.4763C18.3125 18.2523 18.2594 18.0307 18.1529 17.8336C17.0329 15.744 14.6179 14.3933 12 14.3933Z" fill="#202020"/>
</svg>
