<svg width="24" height="24" viewBox="0 0 24 24" fill="none" xmlns="http://www.w3.org/2000/svg">
<path d="M12.0198 11.6285C9.63295 11.6285 7.69087 9.68673 7.69087 7.29985C7.69087 4.91297 9.63199 2.97089 12.0198 2.97089C14.4077 2.97089 16.3485 4.91297 16.3485 7.29985C16.3485 9.68673 14.4067 11.6285 12.0198 11.6285ZM12.0198 4.25089C11.4168 4.25082 10.8273 4.42959 10.3258 4.76457C9.82439 5.09956 9.43355 5.57572 9.20273 6.13284C8.97191 6.68996 8.91149 7.30301 9.0291 7.89447C9.14671 8.48593 9.43707 9.02924 9.86346 9.45567C10.2899 9.88211 10.8331 10.1725 11.4246 10.2902C12.016 10.4079 12.6291 10.3475 13.1862 10.1167C13.7434 9.88599 14.2196 9.4952 14.5546 8.99379C14.8896 8.49239 15.0685 7.90289 15.0685 7.29985C15.0676 6.49153 14.7462 5.71655 14.1746 5.14495C13.6031 4.57336 12.8282 4.25182 12.0198 4.25089ZM15.2285 21.0291H7.11999C6.67349 21.0296 6.23447 20.9144 5.84569 20.6949C5.4569 20.4753 5.13161 20.1588 4.90148 19.7761C4.67136 19.3935 4.54424 18.9578 4.53251 18.5114C4.52078 18.0651 4.62484 17.6233 4.83455 17.2291C5.48831 16.009 6.50559 14.9786 7.77695 14.2493C9.07231 13.5062 10.5725 13.1133 12.1158 13.1133C13.6592 13.1133 15.1594 13.5062 16.4544 14.2493C17.7258 14.9786 18.743 16.0093 19.3968 17.2291C19.4731 17.3783 19.4878 17.5515 19.4377 17.7115C19.3877 17.8714 19.2769 18.0053 19.1292 18.0845C18.9815 18.1637 18.8086 18.1817 18.6478 18.1348C18.4869 18.0879 18.3508 17.9797 18.2688 17.8336C17.1488 15.744 14.7338 14.3933 12.1158 14.3933C9.49791 14.3933 7.08255 15.744 5.96287 17.8336C5.85633 18.0307 5.80322 18.2523 5.80883 18.4763C5.81445 18.7003 5.87859 18.9189 5.99487 19.1104C6.11023 19.306 6.27479 19.468 6.47217 19.5803C6.66956 19.6926 6.89291 19.7512 7.11999 19.7504H15.2285C15.3982 19.7504 15.561 19.8178 15.681 19.9379C15.801 20.0579 15.8685 20.2207 15.8685 20.3904C15.8685 20.5601 15.801 20.7229 15.681 20.843C15.561 20.963 15.3982 21.0304 15.2285 21.0304V21.0291Z" fill="#202020"/>
<path d="M17.5331 21.1869C17.3634 21.1869 17.2006 21.1194 17.0806 20.9994C16.9606 20.8794 16.8931 20.7166 16.8931 20.5469V18.3933C16.8931 18.2235 16.9606 18.0607 17.0806 17.9407C17.2006 17.8207 17.3634 17.7533 17.5331 17.7533C17.7029 17.7533 17.8657 17.8207 17.9857 17.9407C18.1057 18.0607 18.1731 18.2235 18.1731 18.3933V20.5469C18.1731 20.7166 18.1057 20.8794 17.9857 20.9994C17.8657 21.1194 17.7029 21.1869 17.5331 21.1869Z" fill="#202020"/>
<path d="M18.6099 20.1101H16.4563C16.2866 20.1101 16.1238 20.0427 16.0038 19.9226C15.8837 19.8026 15.8163 19.6398 15.8163 19.4701C15.8163 19.3003 15.8837 19.1376 16.0038 19.0175C16.1238 18.8975 16.2866 18.8301 16.4563 18.8301H18.6099C18.7797 18.8301 18.9424 18.8975 19.0625 19.0175C19.1825 19.1376 19.2499 19.3003 19.2499 19.4701C19.2499 19.6398 19.1825 19.8026 19.0625 19.9226C18.9424 20.0427 18.7797 20.1101 18.6099 20.1101Z" fill="#202020"/>
</svg>
