<svg width="24" height="24" viewBox="0 0 24 24" fill="none" xmlns="http://www.w3.org/2000/svg">
<path d="M6.73313 9.68855C6.07397 9.68855 5.4296 9.49309 4.88153 9.12687C4.33345 8.76066 3.90628 8.24015 3.65403 7.63116C3.40177 7.02217 3.33577 6.35205 3.46437 5.70555C3.59297 5.05905 3.91039 4.46521 4.37649 3.99911C4.84259 3.533 5.43643 3.21559 6.08293 3.08699C6.72943 2.95839 7.39955 3.02439 8.00854 3.27665C8.61753 3.5289 9.13804 3.95607 9.50425 4.50415C9.87047 5.05222 10.0659 5.69658 10.0659 6.35575C10.0649 7.23935 9.71346 8.08647 9.08865 8.71127C8.46385 9.33608 7.61673 9.68753 6.73313 9.68855ZM6.73313 4.30295C6.32713 4.30295 5.93024 4.42335 5.59266 4.64891C5.25508 4.87447 4.99196 5.19508 4.83659 5.57018C4.68122 5.94528 4.64057 6.35803 4.71978 6.75623C4.79898 7.15444 4.99449 7.52021 5.28158 7.8073C5.56867 8.09439 5.93445 8.2899 6.33265 8.36911C6.73085 8.44832 7.1436 8.40766 7.5187 8.25229C7.8938 8.09692 8.21441 7.83381 8.43997 7.49623C8.66554 7.15864 8.78593 6.76176 8.78593 6.35575C8.78525 5.81152 8.56876 5.28978 8.18393 4.90495C7.7991 4.52012 7.27736 4.30363 6.73313 4.30295ZM6.73313 20.9769C6.07397 20.9769 5.4296 20.7814 4.88153 20.4152C4.33345 20.049 3.90628 19.5285 3.65403 18.9195C3.40177 18.3105 3.33577 17.6404 3.46437 16.9939C3.59297 16.3474 3.91039 15.7535 4.37649 15.2874C4.84259 14.8213 5.43643 14.5039 6.08293 14.3753C6.72943 14.2467 7.39955 14.3127 8.00854 14.565C8.61753 14.8172 9.13804 15.2444 9.50425 15.7925C9.87047 16.3405 10.0659 16.9849 10.0659 17.6441C10.0649 18.5277 9.71346 19.3748 9.08865 19.9996C8.46385 20.6244 7.61673 20.9759 6.73313 20.9769ZM6.73313 15.5913C6.32713 15.5913 5.93024 15.7117 5.59266 15.9372C5.25508 16.1628 4.99196 16.4834 4.83659 16.8585C4.68122 17.2336 4.64057 17.6463 4.71978 18.0446C4.79898 18.4428 4.99449 18.8085 5.28158 19.0956C5.56867 19.3827 5.93445 19.5782 6.33265 19.6574C6.73085 19.7366 7.1436 19.696 7.5187 19.5406C7.8938 19.3852 8.21441 19.1221 8.43997 18.7845C8.66554 18.447 8.78593 18.0501 8.78593 17.6441C8.78525 17.0998 8.56876 16.5781 8.18393 16.1933C7.7991 15.8084 7.27736 15.5919 6.73313 15.5913Z" fill="#202020"/>
<path d="M6.73311 15.5914C6.56337 15.5914 6.40058 15.524 6.28056 15.404C6.16054 15.2839 6.09311 15.1212 6.09311 14.9514V9.04869C6.09311 8.87895 6.16054 8.71617 6.28056 8.59614C6.40058 8.47612 6.56337 8.40869 6.73311 8.40869C6.90285 8.40869 7.06563 8.47612 7.18566 8.59614C7.30568 8.71617 7.37311 8.87895 7.37311 9.04869V14.9514C7.37311 15.1212 7.30568 15.2839 7.18566 15.404C7.06563 15.524 6.90285 15.5914 6.73311 15.5914ZM17.2669 20.977C16.6077 20.977 15.9633 20.7815 15.4153 20.4153C14.8672 20.0491 14.44 19.5286 14.1878 18.9196C13.9355 18.3106 13.8695 17.6405 13.9981 16.994C14.1267 16.3475 14.4441 15.7537 14.9102 15.2876C15.3763 14.8215 15.9702 14.504 16.6167 14.3755C17.2632 14.2469 17.9333 14.3129 18.5423 14.5651C19.1513 14.8174 19.6718 15.2445 20.038 15.7926C20.4042 16.3407 20.5997 16.985 20.5997 17.6442C20.5987 18.5278 20.2472 19.3749 19.6224 19.9997C18.9976 20.6245 18.1505 20.976 17.2669 20.977ZM17.2669 15.5914C16.8609 15.5914 16.464 15.7118 16.1264 15.9374C15.7888 16.1629 15.5257 16.4835 15.3703 16.8586C15.215 17.2337 15.1743 17.6465 15.2535 18.0447C15.3327 18.4429 15.5282 18.8087 15.8153 19.0958C16.1024 19.3829 16.4682 19.5784 16.8664 19.6576C17.2646 19.7368 17.6773 19.6961 18.0524 19.5408C18.4275 19.3854 18.7481 19.1223 18.9737 18.7847C19.1993 18.4471 19.3197 18.0502 19.3197 17.6442C19.319 17.1 19.1025 16.5782 18.7177 16.1934C18.3328 15.8086 17.8111 15.5921 17.2669 15.5914Z" fill="#202020"/>
<path d="M17.2669 15.5913C17.0971 15.5913 16.9343 15.5239 16.8143 15.4039C16.6943 15.2838 16.6269 15.1211 16.6269 14.9513V7.67484C16.6267 7.53825 16.5724 7.40731 16.4758 7.31072C16.3792 7.21414 16.2483 7.15981 16.1117 7.15964H13.7363C13.5666 7.15964 13.4038 7.09221 13.2838 6.97219C13.1637 6.85216 13.0963 6.68938 13.0963 6.51964C13.0963 6.3499 13.1637 6.18711 13.2838 6.06709C13.4038 5.94707 13.5666 5.87964 13.7363 5.87964H16.1117C16.5876 5.88023 17.0439 6.06956 17.3804 6.4061C17.717 6.74263 17.9063 7.1989 17.9069 7.67484V14.9513C17.9069 15.1211 17.8394 15.2838 17.7194 15.4039C17.5994 15.5239 17.4366 15.5913 17.2669 15.5913Z" fill="#202020"/>
<path d="M15.2611 8.68442C15.0914 8.68439 14.9286 8.61694 14.8086 8.4969L13.2838 6.9721C13.1704 6.85856 13.1037 6.70652 13.097 6.54613C13.0904 6.38574 13.1443 6.22871 13.248 6.10618L14.7389 4.34426C14.7928 4.27901 14.8592 4.22511 14.9341 4.18568C15.009 4.14626 15.0911 4.12209 15.1754 4.11458C15.2597 4.10707 15.3447 4.11638 15.4254 4.14195C15.5061 4.16752 15.581 4.20885 15.6456 4.26355C15.7102 4.31825 15.7634 4.38523 15.8019 4.46061C15.8405 4.53598 15.8637 4.61826 15.8702 4.70268C15.8768 4.7871 15.8665 4.87197 15.84 4.95238C15.8135 5.0328 15.7713 5.10715 15.7158 5.17114L14.6054 6.48314L15.7136 7.5913C15.8032 7.68079 15.8642 7.79484 15.889 7.91903C15.9137 8.04321 15.9011 8.17195 15.8526 8.28894C15.8042 8.40594 15.7221 8.50593 15.6168 8.57627C15.5115 8.64661 15.3877 8.68414 15.2611 8.6841V8.68442Z" fill="#202020"/>
</svg>
