<svg width="24" height="24" viewBox="0 0 24 24" fill="none" xmlns="http://www.w3.org/2000/svg">
<path d="M11.9999 20.9347C10.0435 20.9349 8.14754 20.2567 6.6351 19.0156C5.12267 17.7745 4.08735 16.0475 3.70556 14.1286C3.32377 12.2098 3.61913 10.218 4.5413 8.49249C5.46348 6.76702 6.95542 5.41469 8.76291 4.66592C10.5704 3.91715 12.5816 3.81828 14.4538 4.38615C16.326 4.95402 17.9434 6.1535 19.0304 7.7802C20.1174 9.4069 20.6067 11.3602 20.4149 13.3072C20.2232 15.2542 19.3622 17.0745 17.9788 18.4579C17.1955 19.2456 16.2638 19.8701 15.2375 20.2953C14.2112 20.7204 13.1108 20.9378 11.9999 20.9347ZM11.9999 5.3037C8.04346 5.3037 4.82426 8.52258 4.82426 12.4791C4.82426 16.4355 8.04346 19.6547 11.9999 19.6547C15.9564 19.6547 19.1756 16.4355 19.1756 12.48C19.1756 8.5245 15.9564 5.3037 11.9999 5.3037Z" fill="#202020"/>
<path d="M10.3494 16.992H7.68545C7.32069 16.9914 6.97105 16.8462 6.71312 16.5883C6.4552 16.3304 6.31004 15.9807 6.30945 15.616V12.9523C6.31004 12.5875 6.4552 12.2379 6.71312 11.98C6.97105 11.722 7.32069 11.5769 7.68545 11.5763H10.3494C10.7142 11.5769 11.0639 11.722 11.3218 11.98C11.5797 12.2379 11.7249 12.5875 11.7254 12.9523V15.616C11.7249 15.9807 11.5797 16.3304 11.3218 16.5883C11.0639 16.8462 10.7142 16.9914 10.3494 16.992ZM7.68545 12.8544C7.65999 12.8544 7.63557 12.8645 7.61757 12.8825C7.59956 12.9005 7.58945 12.9249 7.58945 12.9504V15.616C7.58945 15.6414 7.59956 15.6659 7.61757 15.6839C7.63557 15.7019 7.65999 15.712 7.68545 15.712H10.3494C10.3749 15.712 10.3993 15.7019 10.4173 15.6839C10.4353 15.6659 10.4454 15.6414 10.4454 15.616V12.9523C10.4454 12.9268 10.4353 12.9024 10.4173 12.8844C10.3993 12.8664 10.3749 12.8563 10.3494 12.8563L7.68545 12.8544ZM16.3146 16.992H13.6506C13.2858 16.9914 12.9362 16.8462 12.6782 16.5883C12.4203 16.3304 12.2752 15.9807 12.2746 15.616V12.9523C12.2752 12.5875 12.4203 12.2379 12.6782 11.98C12.9362 11.722 13.2858 11.5769 13.6506 11.5763H16.3146C16.6793 11.5769 17.029 11.722 17.2869 11.98C17.5448 12.2379 17.69 12.5875 17.6906 12.9523V15.616C17.69 15.9807 17.5448 16.3304 17.2869 16.5883C17.029 16.8462 16.6793 16.9914 16.3146 16.992ZM13.6506 12.8544C13.6251 12.8544 13.6007 12.8645 13.5827 12.8825C13.5647 12.9005 13.5546 12.9249 13.5546 12.9504V15.616C13.5546 15.6414 13.5647 15.6659 13.5827 15.6839C13.6007 15.7019 13.6251 15.712 13.6506 15.712H16.3146C16.34 15.712 16.3644 15.7019 16.3824 15.6839C16.4005 15.6659 16.4106 15.6414 16.4106 15.616V12.9523C16.4106 12.9268 16.4005 12.9024 16.3824 12.8844C16.3644 12.8664 16.34 12.8563 16.3146 12.8563L13.6506 12.8544Z" fill="#202020"/>
<path d="M6.94884 13.5923C6.7791 13.5923 6.61631 13.5249 6.49629 13.4049C6.37627 13.2848 6.30884 13.1221 6.30884 12.9523V10.9318C6.30994 10.3029 6.51173 9.69066 6.88484 9.18431L7.5962 8.22431C7.64544 8.15477 7.70807 8.09576 7.78042 8.05075C7.85277 8.00574 7.93338 7.97563 8.01753 7.96218C8.10167 7.94873 8.18765 7.95223 8.27042 7.97245C8.3532 7.99268 8.4311 8.02923 8.49956 8.07996C8.56802 8.1307 8.62566 8.19459 8.6691 8.26789C8.71254 8.3412 8.7409 8.42244 8.75253 8.50686C8.76415 8.59127 8.7588 8.67715 8.73679 8.75947C8.71478 8.84179 8.67656 8.91888 8.62436 8.98623L7.91332 9.94623C7.70267 10.2317 7.58866 10.577 7.58788 10.9318V12.9523C7.58788 13.1219 7.52058 13.2845 7.40077 13.4045C7.28095 13.5245 7.11841 13.5921 6.94884 13.5923ZM12.914 13.5923C12.7442 13.5923 12.5814 13.5249 12.4614 13.4049C12.3414 13.2848 12.274 13.1221 12.274 12.9523V10.9318C12.2751 10.3029 12.4768 9.69066 12.85 9.18431L13.5613 8.22431C13.6113 8.15664 13.6742 8.09947 13.7463 8.05609C13.8185 8.01271 13.8984 7.98396 13.9816 7.97148C14.0649 7.959 14.1497 7.96303 14.2314 7.98336C14.3131 8.00368 14.39 8.03988 14.4576 8.08991C14.5253 8.13994 14.5825 8.20281 14.6259 8.27493C14.6692 8.34705 14.698 8.42701 14.7105 8.51024C14.723 8.59347 14.7189 8.67834 14.6986 8.76001C14.6783 8.84169 14.6421 8.91856 14.592 8.98623L13.881 9.94623C13.6704 10.2317 13.5563 10.577 13.5556 10.9318V12.9523C13.5556 13.0365 13.539 13.1198 13.5067 13.1976C13.4744 13.2754 13.4271 13.346 13.3675 13.4054C13.3079 13.4649 13.2372 13.512 13.1594 13.5441C13.0815 13.5761 12.9981 13.5925 12.914 13.5923Z" fill="#202020"/>
</svg>
