<svg width="24" height="24" viewBox="0 0 24 24" fill="none" xmlns="http://www.w3.org/2000/svg">
<path d="M20 13.1635H14.7072C14.1495 13.1629 13.6148 12.9411 13.2204 12.5467C12.826 12.1523 12.6042 11.6176 12.6036 11.0599V5.76738C12.6042 5.20963 12.826 4.67489 13.2204 4.2805C13.6148 3.88612 14.1495 3.66429 14.7072 3.6637H20C20.5578 3.66429 21.0925 3.88612 21.4869 4.2805C21.8813 4.67489 22.1031 5.20963 22.1037 5.76738V11.0599C22.1031 11.6176 21.8813 12.1523 21.4869 12.5467C21.0925 12.9411 20.5578 13.1629 20 13.1635ZM14.7072 4.9437C14.4889 4.94395 14.2795 5.03081 14.1251 5.18523C13.9707 5.33964 13.8838 5.549 13.8836 5.76738V11.0599C13.8838 11.2782 13.9707 11.4876 14.1251 11.642C14.2795 11.7964 14.4889 11.8833 14.7072 11.8835H20C20.2184 11.8833 20.4278 11.7964 20.5822 11.642C20.7366 11.4876 20.8235 11.2782 20.8237 11.0599V5.76738C20.8235 5.549 20.7366 5.33964 20.5822 5.18523C20.4278 5.03081 20.2184 4.94395 20 4.9437H14.7072ZM9.29284 13.1635H4.00004C3.44229 13.1629 2.90756 12.9411 2.51317 12.5467C2.11878 12.1523 1.89696 11.6176 1.89636 11.0599V5.76738C1.89696 5.20963 2.11878 4.67489 2.51317 4.2805C2.90756 3.88612 3.44229 3.66429 4.00004 3.6637H9.29284C9.85059 3.66429 10.3853 3.88612 10.7797 4.2805C11.1741 4.67489 11.3959 5.20963 11.3965 5.76738V11.0599C11.3959 11.6176 11.1741 12.1523 10.7797 12.5467C10.3853 12.9411 9.85059 13.1629 9.29284 13.1635ZM4.00004 4.9437C3.78167 4.94395 3.57231 5.03081 3.41789 5.18523C3.26348 5.33964 3.17662 5.549 3.17636 5.76738V11.0599C3.17662 11.2782 3.26348 11.4876 3.41789 11.642C3.57231 11.7964 3.78167 11.8833 4.00004 11.8835H9.29284C9.51122 11.8833 9.72058 11.7964 9.87499 11.642C10.0294 11.4876 10.1163 11.2782 10.1165 11.0599V5.76738C10.1163 5.549 10.0294 5.33964 9.87499 5.18523C9.72058 5.03081 9.51122 4.94395 9.29284 4.9437H4.00004Z" fill="#202020"/>
<path d="M19.1533 20.3363C19.035 20.3359 18.9191 20.3027 18.8185 20.2403C18.718 20.178 18.6366 20.089 18.5836 19.9833C18.5305 19.8775 18.5079 19.7591 18.518 19.6413C18.5282 19.5234 18.5709 19.4106 18.6413 19.3155L20.0528 17.408C20.5516 16.7317 20.8215 15.9139 20.8234 15.0736V11.0599C20.8234 10.8901 20.8908 10.7273 21.0108 10.6073C21.1308 10.4873 21.2936 10.4199 21.4634 10.4199C21.6331 10.4199 21.7959 10.4873 21.9159 10.6073C22.0359 10.7273 22.1034 10.8901 22.1034 11.0599V15.0736C22.101 16.1882 21.7429 17.273 21.0813 18.1699L19.6682 20.0775C19.6086 20.1579 19.5309 20.2232 19.4415 20.2681C19.3521 20.3131 19.2534 20.3365 19.1533 20.3363ZM8.44801 20.3363C8.32953 20.3363 8.2134 20.3033 8.11256 20.2411C8.01171 20.1789 7.93011 20.09 7.87683 19.9841C7.82355 19.8783 7.8007 19.7598 7.81081 19.6417C7.82092 19.5237 7.86359 19.4108 7.93409 19.3155L9.34593 17.408C9.84468 16.7317 10.1146 15.9139 10.1165 15.0736V11.0599C10.1165 10.8901 10.1839 10.7273 10.3039 10.6073C10.424 10.4873 10.5867 10.4199 10.7565 10.4199C10.9262 10.4199 11.089 10.4873 11.209 10.6073C11.3291 10.7273 11.3965 10.8901 11.3965 11.0599V15.0736C11.3941 16.1882 11.036 17.273 10.3744 18.1699L8.96001 20.0775C8.9007 20.1575 8.82353 20.2225 8.73464 20.2675C8.64576 20.3124 8.54761 20.336 8.44801 20.3363Z" fill="#202020"/>
</svg>
