<svg width="24" height="24" viewBox="0 0 24 24" fill="none" xmlns="http://www.w3.org/2000/svg">
<path d="M9.29284 20.3363H4.00004C3.44229 20.3357 2.90756 20.1139 2.51317 19.7195C2.11878 19.3251 1.89696 18.7904 1.89636 18.2326V12.9402C1.89696 12.3824 2.11878 11.8477 2.51317 11.4533C2.90756 11.0589 3.44229 10.8371 4.00004 10.8365H9.29284C9.85059 10.8371 10.3853 11.0589 10.7797 11.4533C11.1741 11.8477 11.3959 12.3824 11.3965 12.9402V18.2326C11.3959 18.7904 11.1741 19.3251 10.7797 19.7195C10.3853 20.1139 9.85059 20.3357 9.29284 20.3363ZM4.00004 12.1165C3.78167 12.1167 3.57231 12.2036 3.41789 12.358C3.26348 12.5124 3.17662 12.7218 3.17636 12.9402V18.2326C3.17662 18.451 3.26348 18.6604 3.41789 18.8148C3.57231 18.9692 3.78167 19.0561 4.00004 19.0563H9.29284C9.51122 19.0561 9.72058 18.9692 9.87499 18.8148C10.0294 18.6604 10.1163 18.451 10.1165 18.2326V12.9402C10.1163 12.7218 10.0294 12.5124 9.87499 12.358C9.72058 12.2036 9.51122 12.1167 9.29284 12.1165H4.00004ZM20 20.3363H14.7072C14.1495 20.3357 13.6148 20.1139 13.2204 19.7195C12.826 19.3251 12.6042 18.7904 12.6036 18.2326V12.9402C12.6042 12.3824 12.826 11.8477 13.2204 11.4533C13.6148 11.0589 14.1495 10.8371 14.7072 10.8365H20C20.5578 10.8371 21.0925 11.0589 21.4869 11.4533C21.8813 11.8477 22.1031 12.3824 22.1037 12.9402V18.2326C22.1031 18.7904 21.8813 19.3251 21.4869 19.7195C21.0925 20.1139 20.5578 20.3357 20 20.3363ZM14.7072 12.1165C14.4889 12.1167 14.2795 12.2036 14.1251 12.358C13.9707 12.5124 13.8838 12.7218 13.8836 12.9402V18.2326C13.8838 18.451 13.9707 18.6604 14.1251 18.8148C14.2795 18.9692 14.4889 19.0561 14.7072 19.0563H20C20.2184 19.0561 20.4278 18.9692 20.5822 18.8148C20.7366 18.6604 20.8235 18.451 20.8237 18.2326V12.9402C20.8235 12.7218 20.7366 12.5124 20.5822 12.358C20.4278 12.2036 20.2184 12.1167 20 12.1165H14.7072Z" fill="#202020"/>
<path d="M2.53661 13.5802C2.36687 13.5802 2.20408 13.5127 2.08406 13.3927C1.96403 13.2727 1.89661 13.1099 1.89661 12.9402V8.92799C1.899 7.8134 2.25707 6.72866 2.91869 5.83167L4.33181 3.92415C4.43341 3.7893 4.58418 3.70006 4.75128 3.67587C4.91838 3.65168 5.08827 3.6945 5.22394 3.79501C5.35961 3.89552 5.45007 4.04556 5.47561 4.21247C5.50114 4.37937 5.45969 4.5496 5.36029 4.68607L3.94717 6.59199C3.44809 7.26873 3.17813 8.08714 3.17661 8.92799V12.9402C3.17661 13.1099 3.10918 13.2727 2.98915 13.3927C2.86913 13.5127 2.70634 13.5802 2.53661 13.5802ZM13.2435 13.5802C13.0737 13.5802 12.911 13.5127 12.7909 13.3927C12.6709 13.2727 12.6035 13.1099 12.6035 12.9402V8.92799C12.6059 7.8134 12.9639 6.72866 13.6256 5.83167L15.04 3.92255C15.1416 3.7877 15.2923 3.69846 15.4594 3.67427C15.6265 3.65008 15.7964 3.6929 15.9321 3.79341C16.0678 3.89392 16.1582 4.04396 16.1838 4.21087C16.2093 4.37777 16.1679 4.548 16.0684 4.68447L14.654 6.59199C14.155 7.26873 13.885 8.08714 13.8835 8.92799V12.9402C13.8835 13.1099 13.8161 13.2727 13.696 13.3927C13.576 13.5127 13.4132 13.5802 13.2435 13.5802Z" fill="#202020"/>
</svg>
