<svg width="24" height="24" viewBox="0 0 24 24" fill="none" xmlns="http://www.w3.org/2000/svg">
<path d="M12 12.64C11.8734 12.64 11.7497 12.6024 11.6445 12.5321C11.5393 12.4618 11.4572 12.3619 11.4088 12.2449C11.3604 12.128 11.3477 11.9993 11.3724 11.8752C11.3971 11.7511 11.458 11.6371 11.5475 11.5475L16.9833 6.11203C17.1045 5.99828 17.2652 5.93616 17.4314 5.9388C17.5976 5.94144 17.7563 6.00864 17.8738 6.12617C17.9914 6.24371 18.0586 6.40236 18.0612 6.56856C18.0638 6.73475 18.0017 6.89546 17.888 7.01667L12.4525 12.4525C12.3931 12.5121 12.3226 12.5593 12.245 12.5915C12.1673 12.6237 12.084 12.6402 12 12.64Z" fill="#202020"/>
<path d="M11.9999 20.3277C10.6304 20.3279 9.28188 19.9903 8.07396 19.3448C6.86603 18.6993 5.83595 17.7659 5.07497 16.6272C4.31398 15.4885 3.84559 14.1797 3.71128 12.8167C3.57698 11.4537 3.7809 10.0787 4.30499 8.81333C4.82908 7.548 5.65715 6.43145 6.71586 5.56261C7.77456 4.69377 9.03121 4.09946 10.3745 3.83232C11.7178 3.56518 13.1062 3.63346 14.4167 4.03111C15.7273 4.42876 16.9196 5.14352 17.8879 6.11204C18.008 6.23205 18.0754 6.39483 18.0755 6.56457C18.0755 6.73431 18.0081 6.89712 17.8881 7.01716C17.7681 7.13721 17.6053 7.20467 17.4356 7.2047C17.2658 7.20473 17.103 7.13733 16.983 7.01732C16.3302 6.36074 15.5536 5.84015 14.6983 5.4857C13.843 5.13125 12.9258 4.94997 11.9999 4.95236C8.11386 4.95236 4.95226 8.11396 4.95226 12C4.95226 15.8861 8.11386 19.0477 11.9999 19.0477C15.886 19.0477 19.0476 15.8861 19.0476 12C19.0496 10.6326 18.6521 9.2944 17.9039 8.1498C17.858 8.07942 17.8263 8.00066 17.8108 7.91804C17.7952 7.83541 17.7961 7.75054 17.8134 7.66826C17.8307 7.58598 17.864 7.5079 17.9114 7.43849C17.9588 7.36908 18.0195 7.3097 18.0899 7.26372C18.1602 7.21775 18.239 7.18609 18.3216 7.17055C18.4043 7.15502 18.4891 7.15591 18.5714 7.17317C18.6537 7.19044 18.7318 7.22374 18.8012 7.27117C18.8706 7.31861 18.93 7.37926 18.9759 7.44964C19.7957 8.70629 20.2607 10.161 20.3219 11.6602C20.3831 13.1593 20.0381 14.6471 19.3235 15.9664C18.6088 17.2856 17.5511 18.3873 16.262 19.155C14.9729 19.9227 13.5003 20.3279 11.9999 20.3277Z" fill="#202020"/>
<path d="M11.9999 17.8512C8.77332 17.8512 6.14868 15.2272 6.14868 12C6.14868 8.77283 8.77268 6.14883 11.9999 6.14883C12.7686 6.14674 13.5301 6.29712 14.2403 6.59126C14.9505 6.8854 15.5953 7.31745 16.1375 7.86243C16.2576 7.98252 16.325 8.14539 16.325 8.31523C16.325 8.48506 16.2576 8.64794 16.1375 8.76803C16.0174 8.88812 15.8545 8.95558 15.6847 8.95558C15.5148 8.95558 15.352 8.88812 15.2319 8.76803C14.8084 8.34225 14.3048 8.00468 13.75 7.77487C13.1952 7.54505 12.6004 7.42754 11.9999 7.42915C9.47924 7.42915 7.42868 9.47971 7.42868 12.0003C7.42868 14.521 9.47924 16.5712 11.9999 16.5712C14.5205 16.5712 16.5711 14.5207 16.5711 12C16.5735 11.2709 16.3995 10.552 16.0639 9.90466C16.0253 9.82999 16.0018 9.74845 15.9947 9.6647C15.9877 9.58094 15.9972 9.49662 16.0227 9.41654C16.0743 9.2548 16.1879 9.12018 16.3388 9.04227C16.4896 8.96436 16.6652 8.94955 16.8269 9.0011C16.9886 9.05265 17.1233 9.16633 17.2012 9.31715C17.6281 10.147 17.8509 11.0668 17.8511 12C17.8511 15.2266 15.2264 17.8512 11.9999 17.8512Z" fill="#202020"/>
</svg>
