<svg width="24" height="24" viewBox="0 0 24 24" fill="none" xmlns="http://www.w3.org/2000/svg">
<path d="M17.9595 19.9392H6.04074C5.19991 19.9383 4.39378 19.6039 3.79916 19.0094C3.20455 18.4149 2.87 17.6088 2.8689 16.768V9.92833C2.86983 9.08742 3.20431 8.28122 3.79896 7.68664C4.3936 7.09206 5.19983 6.75765 6.04074 6.75681H17.9595C18.8004 6.75765 19.6066 7.09206 20.2012 7.68664C20.7959 8.28122 21.1304 9.08742 21.1313 9.92833V16.768C21.1302 17.6088 20.7956 18.4149 20.201 19.0094C19.6064 19.6039 18.8003 19.9383 17.9595 19.9392ZM6.04074 8.03521C5.5392 8.03571 5.05835 8.23515 4.70368 8.58976C4.34901 8.94437 4.14949 9.42519 4.1489 9.92673V16.768C4.14949 17.2696 4.349 17.7504 4.70366 18.1051C5.05832 18.4597 5.53917 18.6593 6.04074 18.6598H17.9595C18.461 18.6593 18.9419 18.4597 19.2965 18.1051C19.6512 17.7504 19.8507 17.2696 19.8513 16.768V9.92833C19.8507 9.42679 19.6512 8.94597 19.2965 8.59136C18.9418 8.23675 18.461 8.03731 17.9595 8.03681L6.04074 8.03521Z" fill="#202020"/>
<path d="M7.22149 8.03681C7.05175 8.03681 6.88897 7.96938 6.76894 7.84936C6.64892 7.72934 6.58149 7.56655 6.58149 7.39681V4.67201C6.58149 4.50227 6.64892 4.33949 6.76894 4.21946C6.88897 4.09944 7.05175 4.03201 7.22149 4.03201C7.39123 4.03201 7.55402 4.09944 7.67404 4.21946C7.79406 4.33949 7.86149 4.50227 7.86149 4.67201V7.39617C7.86158 7.48027 7.84508 7.56356 7.81296 7.64129C7.78083 7.71901 7.73371 7.78964 7.67427 7.84914C7.61483 7.90863 7.54425 7.95583 7.46656 7.98804C7.38887 8.02024 7.30559 8.03681 7.22149 8.03681ZM15.2221 16.3072C14.581 16.3072 13.9543 16.117 13.4213 15.7607C12.8882 15.4045 12.4728 14.8982 12.2275 14.3059C11.9822 13.7136 11.9181 13.0618 12.0432 12.433C12.1683 11.8042 12.477 11.2267 12.9304 10.7733C13.3838 10.32 13.9614 10.0113 14.5902 9.88628C15.219 9.76122 15.8707 9.82544 16.463 10.0708C17.0553 10.3162 17.5616 10.7316 17.9178 11.2647C18.2739 11.7978 18.4641 12.4245 18.4641 13.0656C18.4631 13.9251 18.1213 14.7491 17.5135 15.3569C16.9057 15.9646 16.0816 16.3064 15.2221 16.3072ZM15.2221 11.1043C14.8342 11.1044 14.4549 11.2195 14.1324 11.4351C13.8098 11.6507 13.5585 11.9571 13.41 12.3156C13.2616 12.674 13.2229 13.0684 13.2986 13.4489C13.3744 13.8294 13.5612 14.1789 13.8356 14.4532C14.11 14.7275 14.4596 14.9143 14.8401 14.9899C15.2206 15.0655 15.615 15.0266 15.9734 14.8781C16.3318 14.7296 16.6381 14.4781 16.8536 14.1555C17.0691 13.8329 17.1841 13.4536 17.1841 13.0656C17.1835 12.5455 16.9767 12.0468 16.6088 11.679C16.241 11.3112 15.7423 11.1044 15.2221 11.104V11.1043ZM9.18405 11.6432H6.77989C6.61015 11.6432 6.44737 11.5758 6.32734 11.4558C6.20732 11.3357 6.13989 11.173 6.13989 11.0032C6.13989 10.8335 6.20732 10.6707 6.32734 10.5507C6.44737 10.4306 6.61015 10.3632 6.77989 10.3632H9.18405C9.35379 10.3632 9.51658 10.4306 9.6366 10.5507C9.75662 10.6707 9.82405 10.8335 9.82405 11.0032C9.82405 11.173 9.75662 11.3357 9.6366 11.4558C9.51658 11.5758 9.35379 11.6432 9.18405 11.6432ZM9.18405 13.9879H6.77989C6.61015 13.9879 6.44737 13.9204 6.32734 13.8004C6.20732 13.6804 6.13989 13.5176 6.13989 13.3479C6.13989 13.1781 6.20732 13.0153 6.32734 12.8953C6.44737 12.7753 6.61015 12.7079 6.77989 12.7079H9.18405C9.35379 12.7079 9.51658 12.7753 9.6366 12.8953C9.75662 13.0153 9.82405 13.1781 9.82405 13.3479C9.82405 13.5176 9.75662 13.6804 9.6366 13.8004C9.51658 13.9204 9.35379 13.9879 9.18405 13.9879Z" fill="#202020"/>
</svg>
