<svg width="24" height="24" viewBox="0 0 24 24" fill="none" xmlns="http://www.w3.org/2000/svg">
<path d="M15.7897 20.4557H8.21022C7.37884 20.4546 6.58182 20.1238 5.99395 19.536C5.40607 18.9481 5.07532 18.1511 5.07422 17.3197V6.68098C5.07532 5.8496 5.40607 5.05259 5.99395 4.46471C6.58182 3.87684 7.37884 3.54608 8.21022 3.54498H15.7897C16.6211 3.54608 17.4181 3.87684 18.006 4.46471C18.5939 5.05259 18.9246 5.8496 18.9257 6.68098V8.44098C18.9255 8.71846 18.8152 8.9845 18.619 9.18073C18.4228 9.37697 18.1568 9.48736 17.8793 9.4877H17.3897V12.1024C17.3895 12.4193 17.509 12.7245 17.7245 12.9568L18.7555 14.0714C18.8649 14.1896 18.9257 14.3448 18.9257 14.5059V17.3187C18.9249 18.1503 18.5943 18.9476 18.0063 19.5356C17.4184 20.1237 16.6213 20.4546 15.7897 20.4557ZM8.21022 4.82434C7.71818 4.82502 7.2465 5.02078 6.89858 5.3687C6.55066 5.71662 6.3549 6.18831 6.35422 6.68034V17.3191C6.3549 17.8111 6.55066 18.2828 6.89858 18.6307C7.2465 18.9786 7.71818 19.1744 8.21022 19.1751H15.7897C16.2818 19.1744 16.7535 18.9786 17.1014 18.6307C17.4493 18.2828 17.6451 17.8111 17.6457 17.3191V14.7571L16.7849 13.8266C16.3502 13.3579 16.109 12.742 16.1097 12.1027V9.25474C16.11 8.97721 16.2204 8.71112 16.4166 8.51488C16.6128 8.31864 16.8789 8.20828 17.1565 8.20802H17.6457V6.68098C17.6451 6.18895 17.4493 5.71726 17.1014 5.36934C16.7535 5.02142 16.2818 4.82566 15.7897 4.82498L8.21022 4.82434Z" fill="#202020"/>
<path d="M15.7676 20.4557C15.5979 20.4557 15.4351 20.3882 15.3151 20.2682C15.1951 20.1482 15.1276 19.9854 15.1276 19.8157V18.08C15.1275 18.0026 15.0968 17.9284 15.0421 17.8737C14.9873 17.819 14.9132 17.7882 14.8358 17.7881H9.14203C9.06466 17.7882 8.99047 17.819 8.93576 17.8737C8.88105 17.9284 8.85028 18.0026 8.85019 18.08V19.8147C8.85019 19.9844 8.78276 20.1472 8.66274 20.2672C8.54272 20.3873 8.37993 20.4547 8.21019 20.4547C8.04045 20.4547 7.87767 20.3873 7.75764 20.2672C7.63762 20.1472 7.57019 19.9844 7.57019 19.8147V18.08C7.5707 17.6633 7.73647 17.2637 8.03113 16.9691C8.3258 16.6744 8.72531 16.5086 9.14203 16.5081H14.8358C15.2525 16.5086 15.652 16.6744 15.9467 16.9691C16.2414 17.2637 16.4071 17.6633 16.4076 18.08V19.8147C16.4078 19.8988 16.3913 19.9821 16.3592 20.0599C16.3271 20.1377 16.28 20.2083 16.2205 20.2679C16.1611 20.3274 16.0905 20.3746 16.0128 20.4068C15.9351 20.4391 15.8518 20.4557 15.7676 20.4557ZM14.3718 9.42014H9.62811C9.45837 9.42014 9.29558 9.35271 9.17556 9.23268C9.05554 9.11266 8.98811 8.94988 8.98811 8.78014C8.98811 8.6104 9.05554 8.44761 9.17556 8.32759C9.29558 8.20756 9.45837 8.14014 9.62811 8.14014H14.3718C14.5415 8.14014 14.7043 8.20756 14.8243 8.32759C14.9444 8.44761 15.0118 8.6104 15.0118 8.78014C15.0118 8.94988 14.9444 9.11266 14.8243 9.23268C14.7043 9.35271 14.5415 9.42014 14.3718 9.42014Z" fill="#202020"/>
</svg>
