<svg width="24" height="24" viewBox="0 0 24 24" fill="none" xmlns="http://www.w3.org/2000/svg">
<path d="M15.7897 20.4556H8.21022C7.37884 20.4545 6.58182 20.1238 5.99395 19.5359C5.40607 18.948 5.07532 18.151 5.07422 17.3196V6.68092C5.07532 5.84954 5.40607 5.05253 5.99395 4.46465C6.58182 3.87678 7.37884 3.54602 8.21022 3.54492H15.7897C16.6211 3.54602 17.4181 3.87678 18.006 4.46465C18.5939 5.05253 18.9246 5.84954 18.9257 6.68092V8.44092C18.9255 8.7184 18.8152 8.98444 18.619 9.18067C18.4228 9.37691 18.1568 9.4873 17.8793 9.48764H17.3897V12.1024C17.3895 12.4192 17.509 12.7244 17.7245 12.9568L18.7555 14.0713C18.8649 14.1896 18.9257 14.3448 18.9257 14.5059V17.3187C18.9249 18.1502 18.5943 18.9475 18.0063 19.5356C17.4184 20.1237 16.6213 20.4545 15.7897 20.4556ZM8.21022 4.82428C7.71819 4.82496 7.2465 5.02072 6.89858 5.36864C6.55066 5.71656 6.3549 6.18825 6.35422 6.68028V17.319C6.3549 17.811 6.55066 18.2827 6.89858 18.6306C7.2465 18.9786 7.71819 19.1743 8.21022 19.175H15.7897C16.2818 19.1743 16.7535 18.9786 17.1014 18.6306C17.4493 18.2827 17.6451 17.811 17.6457 17.319V14.7571L16.7849 13.8265C16.3502 13.3578 16.109 12.7419 16.1097 12.1027V9.25468C16.11 8.97715 16.2204 8.71106 16.4166 8.51482C16.6128 8.31858 16.8789 8.20822 17.1565 8.20796H17.6457V6.68092C17.6451 6.18889 17.4493 5.7172 17.1014 5.36928C16.7535 5.02136 16.2818 4.8256 15.7897 4.82492L8.21022 4.82428Z" fill="#202020"/>
<path d="M15.7678 20.4556C15.598 20.4556 15.4352 20.3882 15.3152 20.2682C15.1952 20.1481 15.1278 19.9854 15.1278 19.8156V18.0799C15.1277 18.0026 15.0969 17.9284 15.0422 17.8737C14.9875 17.819 14.9133 17.7882 14.8359 17.7881H9.14215C9.06478 17.7882 8.9906 17.819 8.93588 17.8737C8.88117 17.9284 8.8504 18.0026 8.85031 18.0799V19.8147C8.85031 19.9844 8.78288 20.1472 8.66286 20.2672C8.54284 20.3872 8.38005 20.4547 8.21031 20.4547C8.04057 20.4547 7.87779 20.3872 7.75776 20.2672C7.63774 20.1472 7.57031 19.9844 7.57031 19.8147V18.0799C7.57082 17.6632 7.73659 17.2637 8.03125 16.969C8.32592 16.6744 8.72543 16.5086 9.14215 16.5081H14.8359C15.2526 16.5086 15.6521 16.6744 15.9468 16.969C16.2415 17.2637 16.4072 17.6632 16.4078 18.0799V19.8147C16.4079 19.8988 16.3914 19.9821 16.3593 20.0599C16.3272 20.1376 16.2801 20.2083 16.2206 20.2678C16.1612 20.3274 16.0906 20.3746 16.0129 20.4068C15.9352 20.439 15.8519 20.4556 15.7678 20.4556ZM9.20583 6.91193C9.03609 6.91193 8.87331 6.8445 8.75328 6.72448C8.63326 6.60446 8.56583 6.44167 8.56583 6.27193V4.18425C8.56583 4.01451 8.63326 3.85173 8.75328 3.7317C8.87331 3.61168 9.03609 3.54425 9.20583 3.54425C9.37557 3.54425 9.53836 3.61168 9.65838 3.7317C9.7784 3.85173 9.84583 4.01451 9.84583 4.18425V6.27193C9.84583 6.44167 9.7784 6.60446 9.65838 6.72448C9.53836 6.8445 9.37557 6.91193 9.20583 6.91193ZM11.9889 6.91193C11.8191 6.91193 11.6563 6.8445 11.5363 6.72448C11.4163 6.60446 11.3489 6.44167 11.3489 6.27193V4.18425C11.3489 4.01451 11.4163 3.85173 11.5363 3.7317C11.6563 3.61168 11.8191 3.54425 11.9889 3.54425C12.1586 3.54425 12.3214 3.61168 12.4414 3.7317C12.5614 3.85173 12.6289 4.01451 12.6289 4.18425V6.27193C12.6289 6.35598 12.6123 6.4392 12.5802 6.51685C12.548 6.5945 12.5009 6.66505 12.4414 6.72448C12.382 6.78391 12.3114 6.83105 12.2338 6.86321C12.1561 6.89538 12.0729 6.91193 11.9889 6.91193ZM14.7722 6.91193C14.6025 6.91193 14.4397 6.8445 14.3197 6.72448C14.1997 6.60446 14.1322 6.44167 14.1322 6.27193V4.18425C14.1322 4.01451 14.1997 3.85173 14.3197 3.7317C14.4397 3.61168 14.6025 3.54425 14.7722 3.54425C14.942 3.54425 15.1048 3.61168 15.2248 3.7317C15.3448 3.85173 15.4122 4.01451 15.4122 4.18425V6.27193C15.4122 6.44167 15.3448 6.60446 15.2248 6.72448C15.1048 6.8445 14.942 6.91193 14.7722 6.91193Z" fill="#202020"/>
</svg>
