<svg width="24" height="24" viewBox="0 0 24 24" fill="none" xmlns="http://www.w3.org/2000/svg">
<path d="M15.6204 18.9808C15.3645 18.9798 15.1155 18.8973 14.9097 18.7453L11.9999 16.6314L9.09013 18.7453C8.88353 18.8955 8.63468 18.9764 8.37926 18.9765C8.12384 18.9765 7.87496 18.8957 7.66831 18.7455C7.46166 18.5954 7.30784 18.3837 7.22893 18.1408C7.15001 17.8979 7.15004 17.6362 7.22901 17.3933L8.34069 13.9728L5.43093 11.8586C5.22424 11.7085 5.07037 11.4968 4.99139 11.2539C4.91241 11.011 4.91238 10.7493 4.99129 10.5064C5.07021 10.2635 5.22402 10.0518 5.43068 9.90163C5.63734 9.75151 5.88622 9.67068 6.14165 9.67073H9.73845L10.8498 6.25025C10.9287 6.00738 11.0825 5.79573 11.2891 5.64564C11.4957 5.49554 11.7445 5.4147 11.9999 5.4147C12.2553 5.4147 12.5041 5.49554 12.7107 5.64564C12.9173 5.79573 13.071 6.00738 13.15 6.25025L14.2613 9.67073H17.8581C18.1136 9.67068 18.3624 9.75151 18.5691 9.90163C18.7758 10.0518 18.9296 10.2635 19.0085 10.5064C19.0874 10.7493 19.0874 11.011 19.0084 11.2539C18.9294 11.4968 18.7755 11.7085 18.5689 11.8586L15.6591 13.9728L16.7708 17.3933C16.8525 17.6359 16.8539 17.8985 16.7748 18.142C16.6956 18.3855 16.5402 18.597 16.3314 18.7453C16.1254 18.8973 15.8764 18.9798 15.6204 18.9808ZM6.35893 10.9507L9.13429 12.9667C9.34133 13.1165 9.49544 13.3281 9.57441 13.5711C9.65338 13.8141 9.65311 14.0759 9.57365 14.3187L8.51349 17.5827L11.2892 15.5667C11.4955 15.4161 11.7444 15.3349 11.9999 15.3349C12.2554 15.3349 12.5043 15.4161 12.7106 15.5667L15.4863 17.5827L14.4261 14.3187C14.3467 14.0759 14.3464 13.8141 14.4254 13.5711C14.5043 13.3281 14.6585 13.1165 14.8655 12.9667L17.6409 10.9507H14.2101C13.9546 10.9512 13.7056 10.8706 13.4989 10.7204C13.2922 10.5703 13.1385 10.3583 13.0601 10.1152L11.9999 6.85249L10.9397 10.1165C10.8612 10.3596 10.7076 10.5715 10.5009 10.7217C10.2942 10.8719 10.0451 10.9525 9.78965 10.952L6.35893 10.9507ZM11.9999 5.12001C11.8302 5.12001 11.6674 5.05258 11.5473 4.93256C11.4273 4.81253 11.3599 4.64975 11.3599 4.48001V3.02785C11.3599 2.85811 11.4273 2.69532 11.5473 2.5753C11.6674 2.45528 11.8302 2.38785 11.9999 2.38785C12.1696 2.38785 12.3324 2.45528 12.4524 2.5753C12.5725 2.69532 12.6399 2.85811 12.6399 3.02785V4.48001C12.6399 4.64975 12.5725 4.81253 12.4524 4.93256C12.3324 5.05258 12.1696 5.12001 11.9999 5.12001Z" fill="#202020"/>
<path d="M16.4583 8.36609C16.2886 8.36609 16.1258 8.29866 16.0058 8.17864C15.8858 8.05861 15.8183 7.89583 15.8183 7.72609V3.02785C15.8183 2.85811 15.8858 2.69532 16.0058 2.5753C16.1258 2.45528 16.2886 2.38785 16.4583 2.38785C16.6281 2.38785 16.7909 2.45528 16.9109 2.5753C17.0309 2.69532 17.0983 2.85811 17.0983 3.02785V7.72609C17.0983 7.89583 17.0309 8.05861 16.9109 8.17864C16.7909 8.29866 16.6281 8.36609 16.4583 8.36609ZM7.13609 8.36609C6.96636 8.36609 6.80357 8.29866 6.68355 8.17864C6.56352 8.05861 6.49609 7.89583 6.49609 7.72609V3.02785C6.49609 2.85811 6.56352 2.69532 6.68355 2.5753C6.80357 2.45528 6.96636 2.38785 7.13609 2.38785C7.30583 2.38785 7.46862 2.45528 7.58864 2.5753C7.70867 2.69532 7.77609 2.85811 7.77609 3.02785V7.72609C7.77609 7.89583 7.70867 8.05861 7.58864 8.17864C7.46862 8.29866 7.30583 8.36609 7.13609 8.36609Z" fill="#202020"/>
</svg>
