<svg width="24" height="24" viewBox="0 0 24 24" fill="none" xmlns="http://www.w3.org/2000/svg">
<path d="M8.13 6.00001C8.1675 6.00001 15.825 6.00001 15.855 6.00001C16.0539 5.98608 16.2391 5.89371 16.37 5.74321C16.5008 5.59271 16.5664 5.39642 16.5525 5.19751C16.5386 4.99859 16.4462 4.81336 16.2957 4.68255C16.1452 4.55175 15.9489 4.48608 15.75 4.50001H8.25C8.05109 4.50001 7.86032 4.57902 7.71967 4.71968C7.57902 4.86033 7.5 5.05109 7.5 5.25001C7.49769 5.42977 7.56003 5.60439 7.67566 5.74205C7.79129 5.87971 7.95253 5.97126 8.13 6.00001ZM8.25 9.00001H15.75C15.9489 9.00001 16.1397 8.92099 16.2803 8.78034C16.421 8.63968 16.5 8.44892 16.5 8.25001C16.5 8.05109 16.421 7.86033 16.2803 7.71968C16.1397 7.57902 15.9489 7.50001 15.75 7.50001H8.25C8.05109 7.50001 7.86032 7.57902 7.71967 7.71968C7.57902 7.86033 7.5 8.05109 7.5 8.25001C7.5 8.44892 7.57902 8.63968 7.71967 8.78034C7.86032 8.92099 8.05109 9.00001 8.25 9.00001Z" fill="#202020"/>
<path d="M20.5425 7.9575C20.525 7.92408 20.5022 7.89369 20.475 7.8675L20.355 7.7475L20.28 7.6875L19.53 7.0425V3.75C19.53 3.15326 19.2929 2.58097 18.871 2.15901C18.449 1.73705 17.8767 1.5 17.28 1.5H6.75C6.15326 1.5 5.58097 1.73705 5.15901 2.15901C4.73705 2.58097 4.5 3.15326 4.5 3.75V7.0275L3.6525 7.7175C3.61442 7.74687 3.58147 7.78235 3.555 7.8225C3.52591 7.84991 3.50292 7.88313 3.4875 7.92C3.16792 8.47694 2.99984 9.10789 3 9.75V17.25C3 18.2446 3.39509 19.1984 4.09835 19.9016C4.80161 20.6049 5.75544 21 6.75 21H17.25C18.2446 21 19.1984 20.6049 19.9016 19.9016C20.6049 19.1984 21 18.2446 21 17.25V9.75C20.9996 9.12367 20.8423 8.50742 20.5425 7.9575ZM6 3.75C6 3.55109 6.07902 3.36032 6.21967 3.21967C6.36032 3.07902 6.55109 3 6.75 3H17.25C17.4489 3 17.6397 3.07902 17.7803 3.21967C17.921 3.36032 18 3.55109 18 3.75V8.895L12.645 13.2675C12.4617 13.4167 12.2326 13.4982 11.9963 13.4982C11.7599 13.4982 11.5308 13.4167 11.3475 13.2675L6 8.895V3.75ZM19.5 17.25C19.5 17.8467 19.2629 18.419 18.841 18.841C18.419 19.2629 17.8467 19.5 17.25 19.5H6.75C6.15326 19.5 5.58097 19.2629 5.15901 18.841C4.73705 18.419 4.5 17.8467 4.5 17.25V9.75C4.49626 9.70007 4.49626 9.64993 4.5 9.6L10.3875 14.4225C10.8373 14.7964 11.4038 15.0011 11.9887 15.0011C12.5737 15.0011 13.1402 14.7964 13.59 14.4225L19.5 9.6C19.5037 9.64993 19.5037 9.70007 19.5 9.75V17.25Z" fill="#202020"/>
<path d="M17.25 16.5H15.75C15.5511 16.5 15.3603 16.579 15.2197 16.7197C15.079 16.8603 15 17.0511 15 17.25C15 17.4489 15.079 17.6397 15.2197 17.7803C15.3603 17.921 15.5511 18 15.75 18H17.25C17.4489 18 17.6397 17.921 17.7803 17.7803C17.921 17.6397 18 17.4489 18 17.25C18 17.0511 17.921 16.8603 17.7803 16.7197C17.6397 16.579 17.4489 16.5 17.25 16.5Z" fill="#202020"/>
</svg>
