<svg width="24" height="24" viewBox="0 0 24 24" fill="none" xmlns="http://www.w3.org/2000/svg">
<path d="M17.9907 19.6496C17.8702 19.65 17.752 19.6161 17.6499 19.552L16.056 18.5501L14.8061 19.4074C14.7024 19.4786 14.58 19.5177 14.4542 19.5197C14.3284 19.5218 14.2048 19.4867 14.0989 19.4189L12.7833 18.576L11.5894 19.4307C11.4797 19.5093 11.348 19.5512 11.213 19.5504C11.0781 19.5496 10.9468 19.5061 10.8381 19.4263L9.64671 18.552L7.97535 19.5581C7.87823 19.6166 7.76732 19.6482 7.65396 19.6498C7.5406 19.6514 7.42885 19.6228 7.33016 19.567C7.23146 19.5112 7.14936 19.4302 7.09225 19.3323C7.03513 19.2343 7.00506 19.123 7.00511 19.0096V7.82465C7.00386 7.39762 7.09202 6.97505 7.26391 6.58414C7.43581 6.19322 7.68764 5.84262 8.00319 5.55489C8.64255 4.96481 9.51615 4.64001 10.464 4.64001H15.152C16.1046 4.64001 16.9837 4.96673 17.6269 5.56033C17.9445 5.84956 18.198 6.20213 18.3711 6.59533C18.5442 6.98853 18.6329 7.41362 18.6317 7.84321V19.0096C18.6317 19.1794 18.5642 19.3421 18.4442 19.4622C18.3242 19.5822 18.1614 19.6496 17.9917 19.6496H17.9907ZM9.68191 17.1437C9.81811 17.1436 9.95077 17.1871 10.0605 17.2679L11.2214 18.12L12.3907 17.2829C12.4947 17.2085 12.6187 17.1669 12.7466 17.1636C12.8745 17.1603 13.0004 17.1954 13.1082 17.2643L14.432 18.112L15.68 17.2567C15.7831 17.1857 15.9048 17.1466 16.0299 17.1441C16.155 17.1416 16.2781 17.1758 16.384 17.2426L17.3536 17.8522V7.84321C17.3536 6.74689 16.4077 5.92001 15.1539 5.92001H10.464C9.22239 5.92001 8.28607 6.73889 8.28607 7.82465V17.8775L9.35263 17.2355C9.45203 17.1756 9.56585 17.1439 9.68191 17.1437Z" fill="#202020"/>
<path d="M15.535 10.1664H12.5178C12.348 10.1664 12.1852 10.099 12.0652 9.97896C11.9452 9.85894 11.8778 9.69615 11.8778 9.52641C11.8778 9.35668 11.9452 9.19389 12.0652 9.07386C12.1852 8.95384 12.348 8.88641 12.5178 8.88641H15.535C15.7048 8.88641 15.8676 8.95384 15.9876 9.07386C16.1076 9.19389 16.175 9.35668 16.175 9.52641C16.175 9.69615 16.1076 9.85894 15.9876 9.97896C15.8676 10.099 15.7048 10.1664 15.535 10.1664ZM15.5773 12.2221H12.4752C12.3055 12.2221 12.1427 12.1547 12.0227 12.0346C11.9026 11.9146 11.8352 11.7518 11.8352 11.5821C11.8352 11.4124 11.9026 11.2496 12.0227 11.1295C12.1427 11.0095 12.3055 10.9421 12.4752 10.9421H15.5773C15.747 10.9421 15.9098 11.0095 16.0298 11.1295C16.1499 11.2496 16.2173 11.4124 16.2173 11.5821C16.2173 11.7518 16.1499 11.9146 16.0298 12.0346C15.9098 12.1547 15.747 12.2221 15.5773 12.2221ZM10.6042 10.1664H9.97185C9.80211 10.1664 9.63932 10.099 9.5193 9.97896C9.39928 9.85894 9.33185 9.69615 9.33185 9.52641C9.33185 9.35668 9.39928 9.19389 9.5193 9.07386C9.63932 8.95384 9.80211 8.88641 9.97185 8.88641H10.6042C10.7739 8.88641 10.9367 8.95384 11.0567 9.07386C11.1767 9.19389 11.2442 9.35668 11.2442 9.52641C11.2442 9.69615 11.1767 9.85894 11.0567 9.97896C10.9367 10.099 10.7739 10.1664 10.6042 10.1664ZM10.6042 12.2221H9.97185C9.80211 12.2221 9.63932 12.1547 9.5193 12.0346C9.39928 11.9146 9.33185 11.7518 9.33185 11.5821C9.33185 11.4124 9.39928 11.2496 9.5193 11.1295C9.63932 11.0095 9.80211 10.9421 9.97185 10.9421H10.6042C10.7739 10.9421 10.9367 11.0095 11.0567 11.1295C11.1767 11.2496 11.2442 11.4124 11.2442 11.5821C11.2442 11.7518 11.1767 11.9146 11.0567 12.0346C10.9367 12.1547 10.7739 12.2221 10.6042 12.2221Z" fill="#202020"/>
</svg>
