<svg width="24" height="24" viewBox="0 0 24 24" fill="none" xmlns="http://www.w3.org/2000/svg">
<path d="M17.1728 19.5049C17.0522 19.505 16.9341 19.4709 16.832 19.4067L15.2381 18.4045L13.9882 19.2621C13.8845 19.3332 13.7621 19.3721 13.6364 19.3741C13.5107 19.3761 13.3872 19.341 13.2813 19.2733L11.9654 18.432L10.7715 19.2867C10.6618 19.3653 10.5301 19.4071 10.3951 19.4063C10.2602 19.4055 10.1289 19.3621 10.0202 19.2822L8.82881 18.407L7.15745 19.4131C7.06036 19.4716 6.94947 19.5032 6.83614 19.5048C6.7228 19.5064 6.61108 19.4779 6.51239 19.4221C6.41371 19.3664 6.3316 19.2854 6.27446 19.1875C6.21733 19.0896 6.18722 18.9783 6.18721 18.8649V7.67999C6.18596 7.25295 6.27411 6.83038 6.44601 6.43947C6.61791 6.04855 6.86973 5.69795 7.18529 5.41023C7.82529 4.82015 8.69825 4.49503 9.64513 4.49503H14.3331C15.2858 4.49503 16.1648 4.82207 16.808 5.41567C17.1257 5.70487 17.3792 6.05744 17.5523 6.45064C17.7254 6.84384 17.8141 7.26894 17.8128 7.69855V18.8649C17.8128 19.0347 17.7454 19.1975 17.6254 19.3175C17.5053 19.4375 17.3425 19.5049 17.1728 19.5049ZM8.86401 16.999C9.00015 16.999 9.13276 17.0424 9.24257 17.1229L10.4035 17.975L11.5728 17.1379C11.6768 17.0635 11.8008 17.0219 11.9287 17.0186C12.0566 17.0153 12.1825 17.0504 12.2902 17.1193L13.6138 17.9667L14.8618 17.111C14.9649 17.0401 15.0865 17.001 15.2117 16.9985C15.3368 16.996 15.4599 17.0302 15.5658 17.0969L16.5354 17.7065V7.69855C16.5354 6.60191 15.5898 5.77503 14.3357 5.77503H9.64513C8.40353 5.77503 7.46721 6.59391 7.46721 7.67999V17.7328L8.53409 17.0905C8.63371 17.0306 8.74776 16.999 8.86401 16.999Z" fill="#202020"/>
<path d="M10.8717 10.752C10.5982 10.752 10.331 10.6709 10.1036 10.519C9.87631 10.3671 9.69912 10.1512 9.59449 9.89864C9.48986 9.64603 9.46248 9.36808 9.51582 9.09992C9.56916 8.83176 9.70082 8.58544 9.89416 8.39211C10.0875 8.19878 10.3338 8.06712 10.602 8.01378C10.8701 7.96044 11.1481 7.98781 11.4007 8.09244C11.6533 8.19707 11.8692 8.37426 12.0211 8.60159C12.173 8.82893 12.2541 9.0962 12.2541 9.36961C12.2537 9.73615 12.108 10.0876 11.8488 10.3467C11.5896 10.6059 11.2382 10.7517 10.8717 10.752ZM10.8717 9.26753C10.8514 9.26753 10.8316 9.27355 10.8147 9.28481C10.7979 9.29608 10.7848 9.31209 10.777 9.33082C10.7693 9.34955 10.7673 9.37016 10.7713 9.39003C10.7752 9.4099 10.785 9.42815 10.7994 9.44246C10.8137 9.45676 10.832 9.46649 10.8519 9.47041C10.8718 9.47432 10.8924 9.47225 10.9111 9.46445C10.9298 9.45665 10.9457 9.44347 10.957 9.42659C10.9682 9.40971 10.9741 9.38988 10.9741 9.36961C10.9738 9.34265 10.9629 9.31689 10.9437 9.29794C10.9245 9.27899 10.8986 9.26841 10.8717 9.26849V9.26753ZM14.1897 14.8861C13.9163 14.8861 13.6491 14.805 13.4217 14.6531C13.1944 14.5012 13.0172 14.2853 12.9126 14.0327C12.8079 13.7801 12.7806 13.5022 12.8339 13.234C12.8872 12.9658 13.0189 12.7195 13.2122 12.5262C13.4056 12.3329 13.6519 12.2012 13.92 12.1479C14.1882 12.0945 14.4662 12.1219 14.7188 12.2265C14.9714 12.3312 15.1873 12.5083 15.3392 12.7357C15.4911 12.963 15.5721 13.2303 15.5721 13.5037C15.5717 13.8702 15.4259 14.2216 15.1668 14.4807C14.9076 14.7399 14.5562 14.8857 14.1897 14.8861ZM14.1897 13.4016C14.1695 13.4016 14.1497 13.4076 14.1328 13.4189C14.116 13.4302 14.1028 13.4462 14.0951 13.4649C14.0874 13.4836 14.0854 13.5042 14.0893 13.5241C14.0933 13.544 14.1031 13.5622 14.1174 13.5765C14.1318 13.5908 14.1501 13.6006 14.17 13.6045C14.1898 13.6084 14.2104 13.6063 14.2291 13.5985C14.2479 13.5907 14.2638 13.5776 14.275 13.5607C14.2863 13.5438 14.2922 13.524 14.2921 13.5037C14.2921 13.4903 14.2895 13.477 14.2843 13.4646C14.2792 13.4522 14.2716 13.4409 14.2621 13.4314C14.2526 13.4219 14.2413 13.4144 14.2289 13.4093C14.2165 13.4042 14.2032 13.4016 14.1897 13.4016ZM9.88318 14.4506C9.75738 14.4506 9.63437 14.4135 9.52952 14.344C9.42468 14.2744 9.34265 14.1755 9.29369 14.0597C9.24472 13.9438 9.231 13.816 9.25423 13.6924C9.27746 13.5688 9.33662 13.4547 9.4243 13.3645L14.0323 8.62849C14.1511 8.50892 14.3123 8.44104 14.4809 8.43961C14.6494 8.43818 14.8117 8.5033 14.9326 8.62084C15.0534 8.73838 15.123 8.89884 15.1262 9.06738C15.1294 9.23591 15.066 9.39891 14.9497 9.52097L10.3437 14.257C10.2839 14.3186 10.2123 14.3674 10.1332 14.4007C10.054 14.434 9.96901 14.4509 9.88318 14.4506Z" fill="#202020"/>
</svg>
