<svg width="24" height="24" viewBox="0 0 24 24" fill="none" xmlns="http://www.w3.org/2000/svg">
<path d="M13.8362 19.0371C13.6997 19.0369 13.5668 18.9931 13.457 18.912L12.2438 18.0195L11.3098 18.7696C11.199 18.8585 11.0618 18.908 10.9199 18.9104C10.7779 18.9128 10.6391 18.8678 10.5254 18.7827L9.54401 18.0467L8.65665 18.7901C8.54041 18.8874 8.3934 18.9403 8.24179 18.9394C8.09018 18.9384 7.94383 18.8837 7.82881 18.7849L6.93985 18.0217L5.66657 18.9177C5.57073 18.9853 5.45817 19.0252 5.3412 19.0331C5.22422 19.041 5.10731 19.0167 5.00324 18.9627C4.89916 18.9087 4.81191 18.8272 4.75102 18.727C4.69012 18.6268 4.65792 18.5118 4.65793 18.3945V7.59485C4.65878 6.77358 4.9854 5.98618 5.56613 5.40546C6.14686 4.82473 6.93425 4.4981 7.75553 4.49725H13.8355C14.0053 4.49725 14.1681 4.56468 14.2881 4.68471C14.4081 4.80473 14.4755 4.96751 14.4755 5.13725V18.3971C14.4755 18.5668 14.4081 18.7296 14.2881 18.8496C14.1681 18.9697 14.0053 19.0371 13.8355 19.0371H13.8362ZM6.97889 16.5731C7.13155 16.5733 7.27909 16.6282 7.39489 16.7277L8.24993 17.4637L9.10977 16.743C9.22039 16.6503 9.35912 16.5977 9.50342 16.5937C9.64772 16.5898 9.78912 16.6347 9.90465 16.7213L10.8947 17.4627L11.8253 16.7158C11.9353 16.6275 12.0714 16.578 12.2124 16.575C12.3534 16.572 12.4915 16.6156 12.6051 16.6992L13.1952 17.1334V5.77725H7.75521C7.27331 5.77776 6.81129 5.96942 6.47053 6.31018C6.12978 6.65093 5.93812 7.11295 5.93761 7.59485V17.1629L6.60961 16.6893C6.71776 16.6133 6.84676 16.5728 6.97889 16.5731Z" fill="#202020"/>
<path d="M15.7581 10.9862H13.8361C13.6664 10.9862 13.5036 10.9188 13.3836 10.7988C13.2636 10.6787 13.1961 10.516 13.1961 10.3462C13.1961 10.1765 13.2636 10.0137 13.3836 9.89366C13.5036 9.77364 13.6664 9.70621 13.8361 9.70621H15.7581C15.9961 9.70596 16.2244 9.61128 16.3927 9.44294C16.5611 9.2746 16.6557 9.04636 16.656 8.80829V7.13373C16.6556 6.7741 16.5125 6.42932 16.2582 6.17502C16.0039 5.92073 15.6591 5.77768 15.2995 5.77725H13.8361C13.6664 5.77725 13.5036 5.70982 13.3836 5.5898C13.2636 5.46978 13.1961 5.30699 13.1961 5.13725C13.1961 4.96751 13.2636 4.80473 13.3836 4.68471C13.5036 4.56468 13.6664 4.49725 13.8361 4.49725H15.2995C15.9985 4.49802 16.6687 4.77603 17.1629 5.2703C17.6572 5.76457 17.9352 6.43473 17.936 7.13373V8.80829C17.9353 9.38571 17.7056 9.93927 17.2973 10.3476C16.8891 10.7559 16.3355 10.9855 15.7581 10.9862ZM7.56799 10.7792H6.92415C6.75441 10.7792 6.59162 10.7117 6.4716 10.5917C6.35158 10.4717 6.28415 10.3089 6.28415 10.1392C6.28415 9.96943 6.35158 9.80665 6.4716 9.68662C6.59162 9.5666 6.75441 9.49917 6.92415 9.49917H7.56799C7.73773 9.49917 7.90051 9.5666 8.02054 9.68662C8.14056 9.80665 8.20799 9.96943 8.20799 10.1392C8.20799 10.3089 8.14056 10.4717 8.02054 10.5917C7.90051 10.7117 7.73773 10.7792 7.56799 10.7792ZM12.0611 10.7792H9.22623C9.05649 10.7792 8.8937 10.7117 8.77368 10.5917C8.65366 10.4717 8.58623 10.3089 8.58623 10.1392C8.58623 9.96943 8.65366 9.80665 8.77368 9.68662C8.8937 9.5666 9.05649 9.49917 9.22623 9.49917H12.0611C12.2308 9.49917 12.3936 9.5666 12.5137 9.68662C12.6337 9.80665 12.7011 9.96943 12.7011 10.1392C12.7011 10.3089 12.6337 10.4717 12.5137 10.5917C12.3936 10.7117 12.2308 10.7792 12.0611 10.7792ZM7.56799 13.28H6.92415C6.75441 13.28 6.59162 13.2125 6.4716 13.0925C6.35158 12.9725 6.28415 12.8097 6.28415 12.64C6.28415 12.4702 6.35158 12.3074 6.4716 12.1874C6.59162 12.0674 6.75441 12 6.92415 12H7.56799C7.73773 12 7.90051 12.0674 8.02054 12.1874C8.14056 12.3074 8.20799 12.4702 8.20799 12.64C8.20799 12.8097 8.14056 12.9725 8.02054 13.0925C7.90051 13.2125 7.73773 13.28 7.56799 13.28ZM12.0611 13.28H9.22623C9.05649 13.28 8.8937 13.2125 8.77368 13.0925C8.65366 12.9725 8.58623 12.8097 8.58623 12.64C8.58623 12.4702 8.65366 12.3074 8.77368 12.1874C8.8937 12.0674 9.05649 12 9.22623 12H12.0611C12.2308 12 12.3936 12.0674 12.5137 12.1874C12.6337 12.3074 12.7011 12.4702 12.7011 12.64C12.7011 12.8097 12.6337 12.9725 12.5137 13.0925C12.3936 13.2125 12.2308 13.28 12.0611 13.28Z" fill="#202020"/>
</svg>
