<svg width="24" height="24" viewBox="0 0 24 24" fill="none" xmlns="http://www.w3.org/2000/svg">
<path d="M14.5395 19.0371C14.4029 19.037 14.2699 18.9931 14.16 18.912L12.9469 18.0195L12.0128 18.7702C11.9021 18.8591 11.7649 18.9086 11.6229 18.911C11.4809 18.9134 11.3421 18.8685 11.2285 18.7833L10.247 18.0473L9.35968 18.7907C9.24345 18.888 9.09643 18.9409 8.94482 18.94C8.79322 18.9391 8.64686 18.8843 8.53184 18.7856L7.64288 18.0224L6.3696 18.9184C6.27376 18.9859 6.16121 19.0258 6.04423 19.0337C5.92725 19.0417 5.81035 19.0173 5.70627 18.9633C5.60219 18.9093 5.51495 18.8278 5.45405 18.7276C5.39316 18.6274 5.36096 18.5124 5.36096 18.3952V7.59485C5.36189 6.7736 5.68855 5.98626 6.26926 5.40555C6.84997 4.82484 7.63731 4.49819 8.45856 4.49725H14.5386C14.7083 4.49725 14.8711 4.56468 14.9911 4.68471C15.1111 4.80473 15.1786 4.96751 15.1786 5.13725V18.3971C15.1786 18.5668 15.1111 18.7296 14.9911 18.8496C14.8711 18.9697 14.7083 19.0371 14.5386 19.0371H14.5395ZM7.68192 16.5731C7.83458 16.5733 7.98213 16.6282 8.09792 16.7277L8.95296 17.4637L9.81312 16.743C9.92372 16.6504 10.0624 16.5978 10.2066 16.5938C10.3508 16.5899 10.4922 16.6348 10.6077 16.7213L11.5978 17.4627L12.5283 16.7158C12.6383 16.6275 12.7744 16.578 12.9154 16.575C13.0564 16.572 13.1945 16.6156 13.3082 16.6992L13.8982 17.1334V5.77725H8.45824C7.97634 5.77776 7.51432 5.96942 7.17357 6.31018C6.83281 6.65093 6.64115 7.11295 6.64064 7.59485V17.1629L7.31264 16.6893C7.42079 16.6133 7.54979 16.5728 7.68192 16.5731Z" fill="#202020"/>
<path d="M16.3357 10.9862H14.5392C14.3695 10.9862 14.2067 10.9188 14.0867 10.7988C13.9667 10.6787 13.8992 10.516 13.8992 10.3462C13.8992 10.1765 13.9667 10.0137 14.0867 9.89367C14.2067 9.77364 14.3695 9.70621 14.5392 9.70621H16.3357C16.6073 9.70621 16.8677 9.59833 17.0598 9.40629C17.2518 9.21425 17.3597 8.9538 17.3597 8.68221V7.13373C17.3593 6.7741 17.2162 6.42932 16.9619 6.17502C16.7076 5.92073 16.3629 5.77768 16.0032 5.77725H14.5392C14.3695 5.77725 14.2067 5.70983 14.0867 5.5898C13.9667 5.46978 13.8992 5.30699 13.8992 5.13725C13.8992 4.96751 13.9667 4.80473 14.0867 4.68471C14.2067 4.56468 14.3695 4.49725 14.5392 4.49725H16.0026C16.7016 4.49802 17.3717 4.77603 17.866 5.2703C18.3603 5.76457 18.6383 6.43473 18.6391 7.13373V8.68285C18.6384 9.29353 18.3955 9.87901 17.9637 10.3108C17.5319 10.7426 16.9464 10.9855 16.3357 10.9862ZM8.14339 14.3747C8.02507 14.3746 7.90911 14.3416 7.80838 14.2795C7.70766 14.2175 7.62611 14.1287 7.5728 14.0231C7.51949 13.9174 7.4965 13.7991 7.50639 13.6812C7.51628 13.5633 7.55866 13.4504 7.62883 13.3552L11.2128 8.48829C11.3136 8.35165 11.4645 8.26063 11.6323 8.23525C11.8002 8.20986 11.9712 8.25219 12.1079 8.35293C12.2445 8.45367 12.3355 8.60457 12.3609 8.77242C12.3863 8.94027 12.344 9.11133 12.2432 9.24797L8.65923 14.1149C8.59963 14.1956 8.52189 14.2611 8.43228 14.3063C8.34268 14.3514 8.24372 14.3748 8.14339 14.3747ZM8.68611 10.4781H7.77123C7.60149 10.4781 7.4387 10.4106 7.31868 10.2906C7.19865 10.1706 7.13123 10.0078 7.13123 9.83805C7.13123 9.66832 7.19865 9.50553 7.31868 9.38551C7.4387 9.26548 7.60149 9.19805 7.77123 9.19805H8.68611C8.85584 9.19805 9.01863 9.26548 9.13865 9.38551C9.25868 9.50553 9.32611 9.66832 9.32611 9.83805C9.32611 10.0078 9.25868 10.1706 9.13865 10.2906C9.01863 10.4106 8.85584 10.4781 8.68611 10.4781ZM12 13.4598H11.0851C10.9154 13.4598 10.7526 13.3924 10.6326 13.2724C10.5126 13.1523 10.4451 12.9896 10.4451 12.8198C10.4451 12.6501 10.5126 12.4873 10.6326 12.3673C10.7526 12.2472 10.9154 12.1798 11.0851 12.1798H12C12.1698 12.1798 12.3326 12.2472 12.4526 12.3673C12.5726 12.4873 12.64 12.6501 12.64 12.8198C12.64 12.9896 12.5726 13.1523 12.4526 13.2724C12.3326 13.3924 12.1698 13.4598 12 13.4598Z" fill="#202020"/>
</svg>
