<svg width="24" height="24" viewBox="0 0 24 24" fill="none" xmlns="http://www.w3.org/2000/svg">
<path d="M17.1728 19.6496C17.0523 19.65 16.9341 19.6161 16.832 19.552L15.2381 18.5501L13.9882 19.4074C13.8845 19.4785 13.7622 19.5175 13.6365 19.5196C13.5107 19.5216 13.3872 19.4866 13.2813 19.4189L11.9654 18.576L10.7715 19.4307C10.6618 19.5093 10.5301 19.5512 10.3951 19.5504C10.2602 19.5496 10.1289 19.5061 10.0202 19.4263L8.82881 18.552L7.15745 19.5581C7.06033 19.6166 6.94942 19.6482 6.83606 19.6498C6.72269 19.6514 6.61095 19.6228 6.51225 19.567C6.41356 19.5112 6.33146 19.4302 6.27434 19.3323C6.21723 19.2343 6.18716 19.123 6.18721 19.0096V7.82465C6.18596 7.39762 6.27411 6.97505 6.44601 6.58414C6.61791 6.19322 6.86973 5.84262 7.18529 5.55489C7.82529 4.96481 8.69825 4.64001 9.64513 4.64001H14.3331C15.2858 4.64001 16.1648 4.96673 16.808 5.56033C17.1257 5.84956 17.3792 6.20213 17.5522 6.59533C17.7253 6.98853 17.8141 7.41362 17.8128 7.84321V19.0096C17.8128 19.1794 17.7454 19.3421 17.6254 19.4622C17.5053 19.5822 17.3425 19.6496 17.1728 19.6496ZM8.86401 17.1437C9.00021 17.1436 9.13287 17.1871 9.24257 17.2679L10.4035 18.12L11.5728 17.2829C11.6768 17.2085 11.8008 17.1669 11.9287 17.1636C12.0566 17.1603 12.1825 17.1954 12.2902 17.2643L13.6138 18.112L14.8618 17.2567C14.9649 17.1857 15.0865 17.1466 15.2117 17.1441C15.3368 17.1416 15.4599 17.1758 15.5658 17.2426L16.5354 17.8522V7.84321C16.5354 6.74689 15.5898 5.92001 14.3357 5.92001H9.64513C8.40353 5.92001 7.46721 6.73889 7.46721 7.82465V17.8775L8.53409 17.2355C8.63363 17.1754 8.74772 17.1437 8.86401 17.1437Z" fill="#202020"/>
<path d="M13.8749 10.1664H10.1251C9.95537 10.1664 9.79258 10.099 9.67256 9.97896C9.55254 9.85894 9.48511 9.69615 9.48511 9.52641C9.48511 9.35668 9.55254 9.19389 9.67256 9.07386C9.79258 8.95384 9.95537 8.88641 10.1251 8.88641H13.8749C14.0446 8.88641 14.2074 8.95384 14.3274 9.07386C14.4474 9.19389 14.5149 9.35668 14.5149 9.52641C14.5149 9.69615 14.4474 9.85894 14.3274 9.97896C14.2074 10.099 14.0446 10.1664 13.8749 10.1664ZM13.2582 12.2221H10.7417C10.572 12.2221 10.4092 12.1547 10.2892 12.0346C10.1692 11.9146 10.1017 11.7518 10.1017 11.5821C10.1017 11.4124 10.1692 11.2496 10.2892 11.1295C10.4092 11.0095 10.572 10.9421 10.7417 10.9421H13.2582C13.428 10.9421 13.5908 11.0095 13.7108 11.1295C13.8308 11.2496 13.8982 11.4124 13.8982 11.5821C13.8982 11.7518 13.8308 11.9146 13.7108 12.0346C13.5908 12.1547 13.428 12.2221 13.2582 12.2221Z" fill="#202020"/>
</svg>
