<svg width="24" height="24" viewBox="0 0 24 24" fill="none" xmlns="http://www.w3.org/2000/svg">
<path d="M6.61921 19.296C6.44947 19.296 6.28668 19.2286 6.16666 19.1085C6.04663 18.9885 5.97921 18.8257 5.97921 18.656V7.47167C5.97771 7.04472 6.06563 6.62218 6.23731 6.23126C6.40899 5.84035 6.66062 5.4897 6.97601 5.20191C7.61601 4.61183 8.48897 4.28671 9.43585 4.28671H14.1238C15.0765 4.28671 15.9555 4.61343 16.5987 5.20703C16.9163 5.49634 17.1698 5.84898 17.3428 6.24223C17.5158 6.63548 17.6045 7.06061 17.6032 7.49023V13.16C17.6032 13.3297 17.5358 13.4925 17.4158 13.6125C17.2957 13.7326 17.1329 13.8 16.9632 13.8C16.7935 13.8 16.6307 13.7326 16.5107 13.6125C16.3906 13.4925 16.3232 13.3297 16.3232 13.16V7.49023C16.3232 6.39359 15.3776 5.56671 14.1238 5.56671H9.43713C8.19553 5.56671 7.25921 6.38559 7.25921 7.47167V17.5242L8.32577 16.8822C8.43389 16.8171 8.55888 16.7853 8.68501 16.791C8.81113 16.7967 8.93275 16.8396 9.03456 16.9142L10.1955 17.7664L11.3645 16.9293C11.4328 16.8803 11.5102 16.8453 11.592 16.8263C11.6739 16.8072 11.7587 16.8045 11.8417 16.8182C11.9246 16.8319 12.004 16.8619 12.0754 16.9063C12.1468 16.9507 12.2087 17.0088 12.2576 17.0771C12.3065 17.1455 12.3415 17.2228 12.3606 17.3047C12.3796 17.3865 12.3824 17.4714 12.3687 17.5543C12.3549 17.6372 12.325 17.7166 12.2806 17.788C12.2362 17.8594 12.1781 17.9213 12.1098 17.9702L10.5635 19.0771C10.4538 19.1557 10.3221 19.1975 10.1871 19.1967C10.0522 19.1959 9.92094 19.1525 9.81217 19.0726L8.62081 18.1987L6.94913 19.2048C6.84952 19.2647 6.73543 19.2962 6.61921 19.296Z" fill="#202020"/>
<path d="M13.6669 9.81345H9.9171C9.74736 9.81345 9.58457 9.74602 9.46455 9.626C9.34453 9.50597 9.2771 9.34319 9.2771 9.17345C9.2771 9.00371 9.34453 8.84092 9.46455 8.7209C9.58457 8.60088 9.74736 8.53345 9.9171 8.53345H13.6669C13.8366 8.53345 13.9994 8.60088 14.1194 8.7209C14.2394 8.84092 14.3069 9.00371 14.3069 9.17345C14.3069 9.34319 14.2394 9.50597 14.1194 9.626C13.9994 9.74602 13.8366 9.81345 13.6669 9.81345ZM13.6669 11.5392H9.9171C9.74736 11.5392 9.58457 11.4718 9.46455 11.3518C9.34453 11.2317 9.2771 11.0689 9.2771 10.8992C9.2771 10.7295 9.34453 10.5667 9.46455 10.4467C9.58457 10.3266 9.74736 10.2592 9.9171 10.2592H13.6669C13.8366 10.2592 13.9994 10.3266 14.1194 10.4467C14.2394 10.5667 14.3069 10.7295 14.3069 10.8992C14.3069 11.0689 14.2394 11.2317 14.1194 11.3518C13.9994 11.4718 13.8366 11.5392 13.6669 11.5392ZM15.5321 19.4192C14.9722 19.4192 14.4249 19.2532 13.9593 18.9421C13.4937 18.631 13.1309 18.1889 12.9166 17.6716C12.7023 17.1543 12.6463 16.585 12.7555 16.0359C12.8647 15.4867 13.1344 14.9822 13.5303 14.5863C13.9262 14.1904 14.4307 13.9208 14.9798 13.8115C15.529 13.7023 16.0982 13.7584 16.6155 13.9726C17.1328 14.1869 17.575 14.5498 17.8861 15.0153C18.1971 15.4809 18.3632 16.0282 18.3632 16.5882C18.3623 17.3387 18.0638 18.0583 17.5331 18.5891C17.0023 19.1198 16.2827 19.4184 15.5321 19.4192ZM15.5321 15.0371C15.2254 15.0371 14.9255 15.1281 14.6704 15.2985C14.4154 15.469 14.2166 15.7112 14.0992 15.9946C13.9818 16.278 13.9511 16.5899 14.0109 16.8908C14.0707 17.1916 14.2185 17.468 14.4354 17.6849C14.6523 17.9018 14.9287 18.0496 15.2295 18.1094C15.5304 18.1692 15.8423 18.1385 16.1257 18.0211C16.4091 17.9037 16.6514 17.7049 16.8218 17.4499C16.9922 17.1948 17.0832 16.8949 17.0832 16.5882C17.0827 16.177 16.9191 15.7827 16.6283 15.492C16.3376 15.2012 15.9433 15.0376 15.5321 15.0371Z" fill="#202020"/>
<path d="M18.3495 20.2134C18.1845 20.2136 18.0259 20.1498 17.9069 20.0355L16.5219 18.7085C16.4613 18.6503 16.4126 18.5807 16.3788 18.5038C16.345 18.4268 16.3267 18.3439 16.325 18.2599C16.3232 18.1758 16.338 18.0922 16.3685 18.0139C16.3991 17.9356 16.4447 17.864 16.5029 17.8033C16.6204 17.6808 16.7818 17.6099 16.9515 17.6064C17.0356 17.6046 17.1191 17.6194 17.1975 17.6499C17.2758 17.6805 17.3473 17.7261 17.408 17.7843L18.793 19.1113C18.8852 19.1997 18.9489 19.3137 18.9758 19.4386C19.0027 19.5635 18.9917 19.6935 18.944 19.8121C18.8964 19.9306 18.8144 20.0322 18.7085 20.1037C18.6027 20.1752 18.4779 20.2134 18.3501 20.2134H18.3495Z" fill="#202020"/>
</svg>
