<svg width="24" height="24" viewBox="0 0 24 24" fill="none" xmlns="http://www.w3.org/2000/svg">
<path d="M17.1728 20.4301C17.0281 20.4302 16.8877 20.3812 16.7744 20.2912L15.2407 19.072L14.0455 20.1085C13.9319 20.2069 13.7874 20.2623 13.6371 20.2649C13.4869 20.2674 13.3405 20.2171 13.2237 20.1226L11.968 19.1072L10.8278 20.1389C10.7092 20.2461 10.5548 20.3051 10.3949 20.3041C10.2349 20.3032 10.0812 20.2424 9.96385 20.1338L8.82369 19.0755L7.21505 20.2995C7.12015 20.3717 7.00698 20.416 6.88828 20.4273C6.76958 20.4386 6.65007 20.4166 6.54324 20.3636C6.43641 20.3106 6.34651 20.2289 6.28366 20.1275C6.22081 20.0262 6.18751 19.9093 6.18753 19.7901V5.54082C6.18751 5.42158 6.22081 5.30471 6.28366 5.20338C6.34651 5.10205 6.43641 5.02029 6.54324 4.96732C6.65007 4.91436 6.76958 4.89229 6.88828 4.90361C7.00698 4.91493 7.12015 4.95918 7.21505 5.03138L8.82369 6.25538L9.96385 5.19714C10.0812 5.08846 10.2349 5.02762 10.3948 5.02662C10.5547 5.02561 10.7092 5.0845 10.8278 5.1917L11.968 6.2237L13.2231 5.20834C13.3399 5.11384 13.4862 5.06347 13.6365 5.06604C13.7867 5.06861 13.9313 5.12397 14.0448 5.22242L15.24 6.2589L16.7738 5.0397C16.868 4.96473 16.9815 4.91788 17.1012 4.90452C17.2209 4.89117 17.3419 4.91184 17.4503 4.96418C17.5588 5.01652 17.6503 5.0984 17.7143 5.2004C17.7783 5.3024 17.8122 5.42039 17.8122 5.54082V19.7901C17.8122 19.9598 17.7447 20.1226 17.6247 20.2426C17.5047 20.3627 17.3419 20.4301 17.1722 20.4301H17.1728ZM8.86401 17.6C9.02544 17.6001 9.18089 17.6611 9.29921 17.7709L10.4042 18.7949L11.5159 17.792C11.629 17.6896 11.775 17.631 11.9276 17.6268C12.0802 17.6226 12.2292 17.673 12.3478 17.769L13.6118 18.793L14.8032 17.7568C14.916 17.6589 15.0595 17.6036 15.2088 17.6004C15.3581 17.5972 15.5039 17.6463 15.6208 17.7392L16.5328 18.464V6.8669L15.6208 7.59138C15.5039 7.68435 15.3582 7.73351 15.2089 7.73036C15.0596 7.7272 14.9161 7.67192 14.8032 7.5741L13.6118 6.5405L12.3478 7.5645C12.2292 7.66053 12.0802 7.71102 11.9277 7.70686C11.7751 7.70269 11.629 7.64414 11.5159 7.54178L10.4042 6.53442L9.29921 7.55842C9.18872 7.66086 9.04564 7.72104 8.89514 7.72836C8.74464 7.73568 8.59639 7.68966 8.47649 7.59842L7.46721 6.83042V18.4989L8.47649 17.7309C8.58787 17.6461 8.724 17.6001 8.86401 17.6Z" fill="#202020"/>
<path d="M13.9962 11.7242H9.56801C9.39827 11.7242 9.23548 11.6567 9.11546 11.5367C8.99544 11.4167 8.92801 11.2539 8.92801 11.0842C8.92801 10.9144 8.99544 10.7516 9.11546 10.6316C9.23548 10.5116 9.39827 10.4442 9.56801 10.4442H13.9962C14.1659 10.4442 14.3287 10.5116 14.4487 10.6316C14.5687 10.7516 14.6362 10.9144 14.6362 11.0842C14.6362 11.2539 14.5687 11.4167 14.4487 11.5367C14.3287 11.6567 14.1659 11.7242 13.9962 11.7242ZM13.2733 14.2992H9.56801C9.39827 14.2992 9.23548 14.2318 9.11546 14.1117C8.99544 13.9917 8.92801 13.8289 8.92801 13.6592C8.92801 13.4895 8.99544 13.3267 9.11546 13.2066C9.23548 13.0866 9.39827 13.0192 9.56801 13.0192H13.2733C13.443 13.0192 13.6058 13.0866 13.7258 13.2066C13.8459 13.3267 13.9133 13.4895 13.9133 13.6592C13.9133 13.8289 13.8459 13.9917 13.7258 14.1117C13.6058 14.2318 13.443 14.2992 13.2733 14.2992Z" fill="#202020"/>
</svg>
