<svg width="24" height="24" viewBox="0 0 24 24" fill="none" xmlns="http://www.w3.org/2000/svg">
<path d="M16.3242 19.0451C16.1876 19.0452 16.0547 19.0016 15.9447 18.9207L14.7315 18.0282L13.7978 18.7779C13.687 18.8668 13.5499 18.9164 13.4079 18.9187C13.2659 18.9211 13.1271 18.8762 13.0135 18.7911L12.032 18.0551L11.1443 18.7987C11.0281 18.8961 10.8811 18.949 10.7295 18.9481C10.5779 18.9471 10.4315 18.8924 10.3165 18.7936L9.42787 18.0304L8.15427 18.9264C8.05843 18.9939 7.94588 19.0339 7.8289 19.0418C7.71192 19.0497 7.59501 19.0254 7.49094 18.9714C7.38686 18.9174 7.29961 18.8358 7.23872 18.7356C7.17783 18.6355 7.14562 18.5205 7.14563 18.4032V7.60289C7.14656 6.78156 7.47325 5.99413 8.05402 5.41336C8.63479 4.83259 9.42222 4.50591 10.2435 4.50497H16.3235C16.4933 4.50497 16.6561 4.5724 16.7761 4.69243C16.8961 4.81245 16.9635 4.97524 16.9635 5.14497V18.4051C16.9635 18.5749 16.8961 18.7377 16.7761 18.8577C16.6561 18.9777 16.4933 19.0451 16.3235 19.0451H16.3242ZM9.46659 16.5811C9.61921 16.5813 9.76675 16.636 9.88259 16.7354L10.7376 17.4698L11.5978 16.7491C11.7084 16.6565 11.8471 16.604 11.9913 16.6001C12.1356 16.5962 12.2769 16.6412 12.3923 16.7277L13.3824 17.4691L14.313 16.7219C14.423 16.6337 14.5591 16.5842 14.7001 16.5812C14.8412 16.5783 14.9792 16.622 15.0928 16.7056L15.6832 17.1395V5.78497H10.2432C9.76124 5.78548 9.29914 5.97718 8.95833 6.31799C8.61751 6.65881 8.42582 7.12091 8.42531 7.60289V17.1709L9.09731 16.6973C9.20539 16.6212 9.33443 16.5806 9.46659 16.5811Z" fill="#202020"/>
<path d="M18.464 10.9943H16.3242C16.1544 10.9943 15.9917 10.9268 15.8716 10.8068C15.7516 10.6868 15.6842 10.524 15.6842 10.3543C15.6842 10.1845 15.7516 10.0217 15.8716 9.90171C15.9917 9.78168 16.1544 9.71425 16.3242 9.71425H18.464C18.6444 9.71409 18.8173 9.64235 18.9449 9.51481C19.0724 9.38726 19.1442 9.21431 19.1443 9.03393V7.14177C19.144 6.78209 19.001 6.43723 18.7467 6.18286C18.4924 5.92849 18.1475 5.7854 17.7879 5.78497H16.3242C16.1544 5.78497 15.9917 5.71755 15.8716 5.59752C15.7516 5.4775 15.6842 5.31471 15.6842 5.14497C15.6842 4.97524 15.7516 4.81245 15.8716 4.69243C15.9917 4.5724 16.1544 4.50497 16.3242 4.50497H17.7872C18.4862 4.50582 19.1564 4.78391 19.6507 5.27823C20.1449 5.77255 20.4229 6.44274 20.4237 7.14177V9.03393C20.4231 9.55355 20.2165 10.0517 19.8491 10.4192C19.4817 10.7867 18.9836 10.9935 18.464 10.9943ZM13.8403 9.57665H10.5171C10.3474 9.57665 10.1846 9.50923 10.0646 9.3892C9.94456 9.26918 9.87714 9.10639 9.87714 8.93665C9.87714 8.76692 9.94456 8.60413 10.0646 8.48411C10.1846 8.36408 10.3474 8.29665 10.5171 8.29665H13.8403C14.0101 8.29665 14.1729 8.36408 14.2929 8.48411C14.4129 8.60413 14.4803 8.76692 14.4803 8.93665C14.4803 9.10639 14.4129 9.26918 14.2929 9.3892C14.1729 9.50923 14.0101 9.57665 13.8403 9.57665ZM13.9024 11.648H10.5792C10.4095 11.648 10.2467 11.5806 10.1267 11.4606C10.0066 11.3405 9.93922 11.1778 9.93922 11.008C9.93922 10.8383 10.0066 10.6755 10.1267 10.5555C10.2467 10.4354 10.4095 10.368 10.5792 10.368H13.9024C14.0722 10.368 14.2349 10.4354 14.355 10.5555C14.475 10.6755 14.5424 10.8383 14.5424 11.008C14.5424 11.1778 14.475 11.3405 14.355 11.4606C14.2349 11.5806 14.0722 11.648 13.9024 11.648Z" fill="#202020"/>
</svg>
