<svg width="24" height="24" viewBox="0 0 24 24" fill="none" xmlns="http://www.w3.org/2000/svg">
<path d="M14.8035 19.0371C14.667 19.0369 14.5342 18.9931 14.4243 18.912L13.2112 18.0195L12.2771 18.7696C12.1664 18.8585 12.0292 18.908 11.8872 18.9104C11.7452 18.9128 11.6065 18.8679 11.4928 18.7827L10.5114 18.0467L9.62403 18.7901C9.50779 18.8874 9.36077 18.9403 9.20917 18.9394C9.05756 18.9385 8.91121 18.8837 8.79619 18.785L7.90723 18.0234L6.63395 18.9194C6.5381 18.9869 6.42555 19.0268 6.30857 19.0347C6.1916 19.0427 6.07469 19.0183 5.97061 18.9643C5.86654 18.9103 5.77929 18.8288 5.7184 18.7286C5.6575 18.6284 5.6253 18.5134 5.62531 18.3962V7.59488C5.62615 6.77361 5.95278 5.98621 6.53351 5.40549C7.11424 4.82476 7.90163 4.49813 8.72291 4.49728H14.8029C14.9726 4.49728 15.1354 4.56471 15.2555 4.68474C15.3755 4.80476 15.4429 4.96755 15.4429 5.13728V18.3971C15.4429 18.5669 15.3755 18.7296 15.2555 18.8497C15.1354 18.9697 14.9726 19.0371 14.8029 19.0371H14.8035ZM7.94627 16.5731C8.09893 16.5734 8.24647 16.6282 8.36227 16.7277L9.21731 17.4637L10.08 16.7414C10.1906 16.6488 10.3293 16.5962 10.4735 16.5923C10.6177 16.5883 10.7591 16.6332 10.8746 16.7197L11.8647 17.4611L12.7952 16.7142C12.9052 16.6259 13.0413 16.5764 13.1823 16.5734C13.3233 16.5704 13.4614 16.6141 13.5751 16.6976L14.1651 17.1318V5.77728H8.72515C8.24324 5.77779 7.78123 5.96945 7.44047 6.31021C7.09971 6.65096 6.90805 7.11298 6.90755 7.59488V17.1629L7.57955 16.6893C7.68698 16.6139 7.81501 16.5733 7.94627 16.5731Z" fill="#202020"/>
<path d="M16.9431 10.9862H14.8035C14.6338 10.9862 14.471 10.9188 14.351 10.7988C14.231 10.6788 14.1635 10.516 14.1635 10.3462C14.1635 10.1765 14.231 10.0137 14.351 9.8937C14.471 9.77367 14.6338 9.70624 14.8035 9.70624H16.9431C17.1234 9.70607 17.2964 9.63434 17.4239 9.5068C17.5515 9.37925 17.6232 9.2063 17.6234 9.02592V7.13376C17.6229 6.77413 17.4799 6.42935 17.2256 6.17506C16.9713 5.92076 16.6265 5.77771 16.2669 5.77728H14.8035C14.6338 5.77728 14.471 5.70986 14.351 5.58983C14.231 5.46981 14.1635 5.30702 14.1635 5.13728C14.1635 4.96755 14.231 4.80476 14.351 4.68474C14.471 4.56471 14.6338 4.49728 14.8035 4.49728H16.2669C16.9659 4.49805 17.6361 4.77606 18.1303 5.27033C18.6246 5.7646 18.9026 6.43476 18.9034 7.13376V9.02592C18.9028 9.54565 18.6961 10.0439 18.3286 10.4114C17.961 10.7789 17.4628 10.9857 16.9431 10.9862ZM12.32 9.568H8.99681C8.82707 9.568 8.66429 9.50058 8.54426 9.38055C8.42424 9.26053 8.35681 9.09774 8.35681 8.928C8.35681 8.75827 8.42424 8.59548 8.54426 8.47546C8.66429 8.35543 8.82707 8.288 8.99681 8.288H12.32C12.4897 8.288 12.6525 8.35543 12.7726 8.47546C12.8926 8.59548 12.96 8.75827 12.96 8.928C12.96 9.09774 12.8926 9.26053 12.7726 9.38055C12.6525 9.50058 12.4897 9.568 12.32 9.568Z" fill="#202020"/>
</svg>
