<svg width="24" height="24" viewBox="0 0 24 24" fill="none" xmlns="http://www.w3.org/2000/svg">
<path d="M6.61921 19.296C6.44947 19.296 6.28668 19.2286 6.16666 19.1086C6.04663 18.9885 5.97921 18.8258 5.97921 18.656V7.4717C5.97771 7.04475 6.06563 6.62221 6.23731 6.23129C6.40899 5.84038 6.66062 5.48973 6.97601 5.20194C7.61601 4.61186 8.48897 4.28674 9.43585 4.28674H14.1238C15.0765 4.28674 15.9555 4.61346 16.5987 5.20706C16.9163 5.49637 17.1698 5.84901 17.3428 6.24226C17.5158 6.63551 17.6045 7.06064 17.6032 7.49026V13.16C17.6032 13.3298 17.5358 13.4925 17.4158 13.6126C17.2957 13.7326 17.1329 13.8 16.9632 13.8C16.7935 13.8 16.6307 13.7326 16.5107 13.6126C16.3906 13.4925 16.3232 13.3298 16.3232 13.16V7.49026C16.3232 6.39362 15.3776 5.56674 14.1238 5.56674H9.43713C8.19553 5.56674 7.25921 6.38562 7.25921 7.4717V17.5242L8.32577 16.8823C8.43389 16.8171 8.55888 16.7854 8.68501 16.791C8.81113 16.7967 8.93275 16.8396 9.03456 16.9143L10.1955 17.7664L11.3645 16.9293C11.4328 16.8804 11.5102 16.8454 11.592 16.8263C11.6739 16.8073 11.7587 16.8045 11.8417 16.8183C11.9246 16.832 12.004 16.8619 12.0754 16.9063C12.1468 16.9508 12.2087 17.0088 12.2576 17.0771C12.3065 17.1455 12.3415 17.2228 12.3606 17.3047C12.3796 17.3866 12.3824 17.4714 12.3687 17.5543C12.3549 17.6373 12.325 17.7167 12.2806 17.788C12.2362 17.8594 12.1781 17.9213 12.1098 17.9703L10.5635 19.0771C10.4538 19.1557 10.3221 19.1976 10.1871 19.1968C10.0522 19.196 9.92094 19.1525 9.81217 19.0727L8.62081 18.1987L6.94945 19.2048C6.8497 19.2647 6.73553 19.2962 6.61921 19.296Z" fill="#202020"/>
<path d="M13.6669 9.81345H9.9171C9.74736 9.81345 9.58457 9.74602 9.46455 9.626C9.34453 9.50597 9.2771 9.34319 9.2771 9.17345C9.2771 9.00371 9.34453 8.84092 9.46455 8.7209C9.58457 8.60088 9.74736 8.53345 9.9171 8.53345H13.6669C13.8366 8.53345 13.9994 8.60088 14.1194 8.7209C14.2394 8.84092 14.3069 9.00371 14.3069 9.17345C14.3069 9.34319 14.2394 9.50597 14.1194 9.626C13.9994 9.74602 13.8366 9.81345 13.6669 9.81345ZM13.6669 11.5392H9.9171C9.74736 11.5392 9.58457 11.4718 9.46455 11.3518C9.34453 11.2317 9.2771 11.0689 9.2771 10.8992C9.2771 10.7295 9.34453 10.5667 9.46455 10.4467C9.58457 10.3266 9.74736 10.2592 9.9171 10.2592H13.6669C13.8366 10.2592 13.9994 10.3266 14.1194 10.4467C14.2394 10.5667 14.3069 10.7295 14.3069 10.8992C14.3069 11.0689 14.2394 11.2317 14.1194 11.3518C13.9994 11.4718 13.8366 11.5392 13.6669 11.5392ZM14.2861 19.712H12.6429C12.5365 19.7121 12.4319 19.6857 12.3383 19.6352C12.2447 19.5847 12.1652 19.5117 12.1069 19.4228C12.0487 19.3339 12.0135 19.2318 12.0045 19.1259C11.9955 19.02 12.0131 18.9135 12.0557 18.816L12.6656 17.4099C12.6979 17.3357 12.744 17.2682 12.8013 17.2109L15.7529 14.2749C15.8136 14.2146 15.8856 14.167 15.9649 14.1351C16.0442 14.1031 16.1291 14.0873 16.2146 14.0887C16.3001 14.09 16.3844 14.1085 16.4627 14.143C16.5409 14.1776 16.6114 14.2274 16.6701 14.2896L17.8464 15.5376C17.9607 15.6587 18.0232 15.8197 18.0208 15.9862C18.0183 16.1527 17.9511 16.3117 17.8333 16.4294L14.7389 19.5238C14.6795 19.5834 14.6089 19.6307 14.5312 19.663C14.4535 19.6953 14.3702 19.7119 14.2861 19.712ZM13.6182 18.432H14.0211L16.4886 15.9645L16.1897 15.648L13.7897 18.0339L13.6182 18.432Z" fill="#202020"/>
</svg>
