<svg width="24" height="24" viewBox="0 0 24 24" fill="none" xmlns="http://www.w3.org/2000/svg">
<path d="M13.024 20.3261C11.1715 20.3256 9.3765 19.6829 7.94478 18.5074C6.51306 17.3319 5.5332 15.6964 5.17214 13.8794C4.81108 12.0625 5.09115 10.1766 5.96465 8.543C6.83815 6.90941 8.25102 5.62921 9.96256 4.92052C11.6741 4.21182 13.5784 4.11848 15.3511 4.65639C17.1237 5.19429 18.655 6.33018 19.6841 7.87051C20.7132 9.41084 21.1763 11.2603 20.9947 13.1039C20.8131 14.9474 19.9979 16.6709 18.688 17.9808C17.9459 18.7269 17.0632 19.3184 16.091 19.721C15.1187 20.1236 14.0763 20.3292 13.024 20.3261ZM13.024 5.59233C9.31485 5.59233 6.29724 8.60993 6.29724 12.3191C6.29724 16.0282 9.31612 19.0461 13.024 19.0461C16.7331 19.0461 19.7507 16.0285 19.7507 12.3194C19.7507 8.61025 16.736 5.59233 13.024 5.59233Z" fill="#202020"/>
</svg>
