<svg width="24" height="24" viewBox="0 0 24 24" fill="none" xmlns="http://www.w3.org/2000/svg">
<path d="M7.76714 19.7085H17.8308C19.3682 19.7085 20.6145 18.4622 20.6145 16.9248V6.86114C20.6145 5.32375 19.3682 4.07745 17.8308 4.07745L7.76714 4.07745C6.22976 4.07745 4.98346 5.32375 4.98346 6.86114L4.98346 16.9248C4.98346 18.4622 6.22976 19.7085 7.76714 19.7085Z" stroke="#202020" stroke-width="1.30573" stroke-linecap="round" stroke-linejoin="round"/>
<path d="M9.22372 15.7577L9.08484 13.4774L11.3223 13.3411" stroke="#202020" stroke-width="1.30573" stroke-linecap="round" stroke-linejoin="round"/>
<path d="M16.3575 7.65381V9.93861H14.1162" stroke="#202020" stroke-width="1.30573" stroke-linecap="round" stroke-linejoin="round"/>
<path d="M8.96423 11.7307C8.96443 10.8946 9.24057 10.0821 9.7498 9.41904C10.259 8.75601 10.9729 8.27961 11.7805 8.06377C12.5882 7.84793 13.4445 7.90472 14.2166 8.22533C14.9887 8.54593 15.6334 9.11243 16.0506 9.83689M16.5559 11.7307C16.5557 12.5804 16.2704 13.4055 15.7457 14.0739C15.221 14.7423 14.4872 15.2154 13.6618 15.4173C12.8364 15.6193 11.9671 15.5386 11.1931 15.188C10.419 14.8374 9.78497 14.2372 9.39239 13.4836" stroke="#202020" stroke-width="1.30573" stroke-linecap="round" stroke-linejoin="round"/>
</svg>
