<svg width="24" height="24" viewBox="0 0 24 24" fill="none" xmlns="http://www.w3.org/2000/svg">
<path d="M8.86392 18.3312C5.53432 18.3312 2.8252 15.6224 2.8252 12.2928C2.8252 8.96319 5.53335 6.25407 8.86392 6.25407H11.7852L11.2188 5.59423C11.1168 5.46445 11.069 5.3003 11.0851 5.13606C11.1013 4.97181 11.1803 4.82017 11.3057 4.7128C11.431 4.60543 11.593 4.55063 11.7578 4.55984C11.9226 4.56905 12.0774 4.64156 12.19 4.76223L13.6639 6.47711C13.7434 6.57004 13.7946 6.6838 13.8115 6.80493C13.8283 6.92605 13.8101 7.04947 13.759 7.16057C13.7079 7.27167 13.626 7.3658 13.5231 7.43182C13.4201 7.49784 13.3004 7.53299 13.1782 7.53311H8.86392C6.23992 7.53311 4.1052 9.66783 4.1052 12.2918C4.1052 14.9158 6.23992 17.0512 8.86392 17.0512C9.03365 17.0512 9.19644 17.1186 9.31646 17.2386C9.43649 17.3587 9.50392 17.5214 9.50392 17.6912C9.50392 17.8609 9.43649 18.0237 9.31646 18.1437C9.19644 18.2638 9.03365 18.3312 8.86392 18.3312Z" fill="#202020"/>
<path d="M12 20.048C11.9082 20.048 11.8175 20.0283 11.734 19.9902C11.6506 19.9521 11.5763 19.8965 11.5161 19.8272L10.0285 18.112C9.9481 18.0193 9.89608 17.9054 9.8786 17.784C9.86112 17.6625 9.87891 17.5386 9.92986 17.427C9.98082 17.3154 10.0628 17.2208 10.166 17.1544C10.2692 17.0881 10.3893 17.0528 10.512 17.0528H14.6909C17.3149 17.0528 19.4493 14.9181 19.4493 12.2944C19.4493 9.67072 17.3145 7.53568 14.6909 7.53568C14.5211 7.53568 14.3583 7.46825 14.2383 7.34822C14.1183 7.2282 14.0509 7.06541 14.0509 6.89568C14.0509 6.72594 14.1183 6.56315 14.2383 6.44313C14.3583 6.3231 14.5211 6.25568 14.6909 6.25568C18.0205 6.25568 20.7293 8.96448 20.7293 12.2944C20.7293 15.6243 18.0205 18.3328 14.6909 18.3328H11.9136L12.4835 18.9904C12.5634 19.0831 12.615 19.1969 12.6322 19.318C12.6494 19.4392 12.6315 19.5628 12.5806 19.6741C12.5297 19.7854 12.4479 19.8798 12.345 19.9461C12.2421 20.0123 12.1224 20.0477 12 20.048Z" fill="#202020"/>
<path d="M15.0298 12.64H8.79527C8.62553 12.64 8.46275 12.5726 8.34272 12.4525C8.2227 12.3325 8.15527 12.1697 8.15527 12C8.15527 11.8302 8.2227 11.6675 8.34272 11.5474C8.46275 11.4274 8.62553 11.36 8.79527 11.36H15.0298C15.1996 11.36 15.3624 11.4274 15.4824 11.5474C15.6024 11.6675 15.6698 11.8302 15.6698 12C15.6698 12.1697 15.6024 12.3325 15.4824 12.4525C15.3624 12.5726 15.1996 12.64 15.0298 12.64Z" fill="#202020"/>
</svg>
