<svg width="24" height="24" viewBox="0 0 24 24" fill="none" xmlns="http://www.w3.org/2000/svg">
<path d="M18.9237 20.1555H12.2456C11.6486 20.1549 11.0763 19.9174 10.6541 19.4952C10.2319 19.0731 9.99449 18.5007 9.99381 17.9037V11.2256C9.99449 10.6286 10.2319 10.0562 10.6541 9.63406C11.0763 9.21191 11.6486 8.97445 12.2456 8.97377H18.9237C19.5207 8.97445 20.0931 9.21191 20.5153 9.63406C20.9374 10.0562 21.1749 10.6286 21.1756 11.2256V17.9037C21.1749 18.5007 20.9374 19.0731 20.5153 19.4952C20.0931 19.9174 19.5207 20.1549 18.9237 20.1555ZM12.2456 10.2538C11.988 10.254 11.7409 10.3565 11.5587 10.5387C11.3765 10.7209 11.2741 10.9679 11.2738 11.2256V17.9037C11.2741 18.1614 11.3765 18.4084 11.5587 18.5906C11.7409 18.7728 11.988 18.8753 12.2456 18.8755H18.9237C19.1814 18.8753 19.4284 18.7728 19.6106 18.5906C19.7928 18.4084 19.8953 18.1614 19.8956 17.9037V11.2256C19.8953 10.9679 19.7928 10.7209 19.6106 10.5387C19.4284 10.3565 19.1814 10.254 18.9237 10.2538H12.2456ZM6.50133 12.2922C6.33159 12.2922 6.1688 12.2247 6.04878 12.1047C5.92876 11.9847 5.86133 11.8219 5.86133 11.6522C5.86133 9.02369 7.02741 6.80993 9.23317 5.25025C10.8674 4.09441 12.4908 3.70945 12.5592 3.69377C12.6412 3.67486 12.7261 3.67227 12.809 3.68616C12.8919 3.70005 12.9713 3.73014 13.0427 3.77471C13.114 3.81928 13.1758 3.87746 13.2246 3.94594C13.2735 4.01441 13.3083 4.09182 13.3272 4.17377C13.3462 4.25571 13.3487 4.34058 13.3349 4.42352C13.321 4.50647 13.2909 4.58586 13.2463 4.65718C13.2017 4.72849 13.1436 4.79033 13.0751 4.83916C13.0066 4.88799 12.9292 4.92286 12.8472 4.94177C12.8175 4.94881 11.3608 5.30305 9.93749 6.32033C8.08149 7.64641 7.14005 9.44097 7.14005 11.6534C7.13971 11.8227 7.07231 11.985 6.9526 12.1047C6.83289 12.2244 6.67062 12.2918 6.50133 12.2922Z" fill="#202020"/>
<path d="M12.3037 7.83011C12.2739 7.83003 12.244 7.82789 12.2145 7.82371C12.0466 7.79991 11.8951 7.7105 11.7931 7.5751C11.6911 7.43969 11.647 7.26936 11.6705 7.10147L12.0711 4.22883C12.0827 4.14558 12.1106 4.06544 12.1532 3.99298C12.1958 3.92051 12.2523 3.85715 12.3193 3.8065C12.3864 3.75585 12.4628 3.71891 12.5442 3.69779C12.6255 3.67666 12.7103 3.67177 12.7935 3.68339C12.8768 3.69501 12.9569 3.72291 13.0294 3.76551C13.1018 3.8081 13.1652 3.86455 13.2158 3.93163C13.2665 3.99871 13.3034 4.07511 13.3246 4.15647C13.3457 4.23782 13.3506 4.32254 13.3389 4.40579L12.938 7.27843C12.9167 7.43145 12.8407 7.5716 12.7241 7.673C12.6076 7.77439 12.4582 7.8302 12.3037 7.83011Z" fill="#202020"/>
</svg>
