<svg width="24" height="24" viewBox="0 0 24 24" fill="none" xmlns="http://www.w3.org/2000/svg">
<path d="M14.0279 18.4144H13.1901C12.6487 18.4143 12.1172 18.269 11.6511 17.9937C11.1849 17.7184 10.8011 17.3231 10.5397 16.849C10.2782 16.3749 10.1487 15.8394 10.1646 15.2982C10.1805 14.7571 10.3413 14.2301 10.6301 13.7721L12.528 10.7622C12.6948 10.4979 12.7876 10.1937 12.7967 9.88128C12.8059 9.56889 12.7311 9.25976 12.5801 8.98611C12.4292 8.71246 12.2076 8.48431 11.9384 8.32544C11.6693 8.16658 11.3625 8.0828 11.05 8.08286C10.8802 8.08286 10.7174 8.01543 10.5974 7.89541C10.4774 7.77539 10.41 7.6126 10.41 7.44286C10.41 7.27312 10.4774 7.11034 10.5974 6.99031C10.7174 6.87029 10.8802 6.80286 11.05 6.80286C11.5914 6.80293 12.1228 6.94819 12.589 7.22352C13.0552 7.49884 13.439 7.89414 13.7004 8.36823C13.9619 8.84232 14.0914 9.37786 14.0755 9.91902C14.0596 10.4602 13.8988 10.9872 13.61 11.4451L11.712 14.455C11.5454 14.7194 11.4527 15.0236 11.4436 15.3359C11.4345 15.6483 11.5093 15.9574 11.6603 16.231C11.8112 16.5046 12.0327 16.7327 12.3018 16.8916C12.5709 17.0505 12.8776 17.1343 13.1901 17.1344H14.0279C14.1976 17.1344 14.3604 17.2018 14.4804 17.3218C14.6005 17.4419 14.6679 17.6046 14.6679 17.7744C14.6679 17.9441 14.6005 18.1069 14.4804 18.2269C14.3604 18.347 14.1976 18.4144 14.0279 18.4144ZM7.55684 9.78174C7.02367 9.7818 6.50246 9.62376 6.05911 9.32759C5.61577 9.03143 5.27021 8.61044 5.06613 8.11788C4.86205 7.62531 4.80862 7.08329 4.9126 6.56036C5.01658 6.03743 5.27329 5.55707 5.65027 5.18004C6.02726 4.80301 6.50758 4.54624 7.0305 4.4422C7.55342 4.33816 8.09545 4.39153 8.58804 4.59555C9.08063 4.79957 9.50166 5.14508 9.79788 5.58839C10.0941 6.0317 10.2522 6.55289 10.2522 7.08606C10.2514 7.80069 9.96712 8.4858 9.46183 8.99115C8.95655 9.49649 8.27146 9.78081 7.55684 9.78174ZM7.55684 5.6707C7.27682 5.67064 7.00307 5.75362 6.77021 5.90915C6.53735 6.06469 6.35585 6.28578 6.24866 6.54448C6.14148 6.80317 6.11341 7.08784 6.16803 7.36249C6.22264 7.63713 6.35748 7.88941 6.55548 8.08742C6.75349 8.28542 7.00577 8.42026 7.28041 8.47487C7.55506 8.52949 7.83973 8.50143 8.09843 8.39424C8.35712 8.28705 8.57822 8.10555 8.73375 7.87269C8.88928 7.63984 8.97226 7.36608 8.9722 7.08606C8.97169 6.71084 8.82241 6.35113 8.55709 6.08581C8.29177 5.82049 7.93206 5.67121 7.55684 5.6707ZM18.5543 20.4208H16.433C16.0205 20.4204 15.625 20.2563 15.3333 19.9646C15.0416 19.6729 14.8776 19.2774 14.8772 18.8649V16.9693C14.8777 16.5568 15.0418 16.1614 15.3334 15.8698C15.6251 15.5782 16.0206 15.4142 16.433 15.4137H18.5543C18.9667 15.4142 19.3622 15.5782 19.6538 15.8698C19.9455 16.1614 20.1096 16.5568 20.1101 16.9693V18.8649C20.1097 19.2774 19.9456 19.6729 19.654 19.9646C19.3623 20.2563 18.9668 20.4204 18.5543 20.4208ZM16.433 16.6937C16.3599 16.6938 16.2899 16.7229 16.2382 16.7745C16.1865 16.8262 16.1573 16.8962 16.1572 16.9693V18.8649C16.1572 18.9381 16.1863 19.0082 16.238 19.0599C16.2898 19.1116 16.3599 19.1407 16.433 19.1408H18.5543C18.6274 19.1407 18.6975 19.1116 18.7492 19.0599C18.8009 19.0082 18.83 18.9381 18.8301 18.8649V16.9693C18.83 16.8962 18.8009 16.8261 18.7492 16.7744C18.6975 16.7228 18.6274 16.6937 18.5543 16.6937H16.433Z" fill="#202020"/>
<path d="M7.55699 7.77603C7.38725 7.77603 7.22447 7.7086 7.10444 7.58858C6.98442 7.46856 6.91699 7.30577 6.91699 7.13603V7.00035C6.91699 6.91631 6.93355 6.83308 6.96571 6.75543C6.99787 6.67779 7.04501 6.60723 7.10444 6.5478C7.16387 6.48837 7.23443 6.44123 7.31208 6.40907C7.38972 6.37691 7.47295 6.36035 7.55699 6.36035C7.64104 6.36035 7.72426 6.37691 7.80191 6.40907C7.87956 6.44123 7.95011 6.48837 8.00954 6.5478C8.06897 6.60723 8.11611 6.67779 8.14828 6.75543C8.18044 6.83308 8.19699 6.91631 8.19699 7.00035V7.13603C8.19699 7.30577 8.12956 7.46856 8.00954 7.58858C7.88952 7.7086 7.72673 7.77603 7.55699 7.77603ZM17.494 18.656C17.3242 18.656 17.1614 18.5886 17.0414 18.4686C16.9214 18.3486 16.854 18.1858 16.854 18.016V17.8804C16.854 17.7106 16.9214 17.5478 17.0414 17.4278C17.1614 17.3078 17.3242 17.2404 17.494 17.2404C17.6637 17.2404 17.8265 17.3078 17.9465 17.4278C18.0665 17.5478 18.134 17.7106 18.134 17.8804V18.016C18.134 18.1858 18.0665 18.3486 17.9465 18.4686C17.8265 18.5886 17.6637 18.656 17.494 18.656Z" fill="#202020"/>
</svg>
