<svg width="24" height="24" viewBox="0 0 24 24" fill="none" xmlns="http://www.w3.org/2000/svg">
<path d="M18.5416 11.5578H5.45811C4.95069 11.5572 4.46422 11.3553 4.10542 10.9965C3.74662 10.6377 3.54478 10.1513 3.54419 9.64383V5.45823C3.54478 4.95081 3.74662 4.46434 4.10542 4.10554C4.46422 3.74674 4.95069 3.5449 5.45811 3.54431H18.5416C19.049 3.5449 19.5355 3.74674 19.8943 4.10554C20.2531 4.46434 20.455 4.95081 20.4555 5.45823V9.64383C20.455 10.1513 20.2531 10.6377 19.8943 10.9965C19.5355 11.3553 19.049 11.5572 18.5416 11.5578ZM5.45811 4.82431C5.29006 4.82457 5.12897 4.89143 5.01014 5.01026C4.89131 5.12909 4.82444 5.29018 4.82419 5.45823V9.64383C4.82444 9.81188 4.89131 9.97297 5.01014 10.0918C5.12897 10.2106 5.29006 10.2775 5.45811 10.2778H18.5416C18.7097 10.2775 18.8708 10.2106 18.9896 10.0918C19.1084 9.97297 19.1753 9.81188 19.1755 9.64383V5.45823C19.1753 5.29018 19.1084 5.12909 18.9896 5.01026C18.8708 4.89143 18.7097 4.82457 18.5416 4.82431H5.45811ZM18.3755 20.4557H5.62419C5.07275 20.455 4.54408 20.2356 4.15416 19.8457C3.76423 19.4558 3.54487 18.9271 3.54419 18.3757V14.56C3.54487 14.0085 3.76423 13.4799 4.15416 13.09C4.54408 12.7 5.07275 12.4807 5.62419 12.48H18.3755C18.927 12.4807 19.4557 12.7 19.8456 13.09C20.2355 13.4799 20.4549 14.0085 20.4555 14.56V18.3757C20.4549 18.9271 20.2355 19.4558 19.8456 19.8457C19.4557 20.2356 18.927 20.455 18.3755 20.4557ZM5.62419 13.76C5.41202 13.76 5.20853 13.8443 5.0585 13.9943C4.90847 14.1443 4.82419 14.3478 4.82419 14.56V18.3757C4.82419 18.5878 4.90847 18.7913 5.0585 18.9414C5.20853 19.0914 5.41202 19.1757 5.62419 19.1757H18.3755C18.5877 19.1757 18.7912 19.0914 18.9412 18.9414C19.0913 18.7913 19.1755 18.5878 19.1755 18.3757V14.56C19.1755 14.3478 19.0913 14.1443 18.9412 13.9943C18.7912 13.8443 18.5877 13.76 18.3755 13.76H5.62419Z" fill="#202020"/>
</svg>
