<svg width="24" height="24" viewBox="0 0 24 24" fill="none" xmlns="http://www.w3.org/2000/svg">
<path d="M11.2778 12.6682H8.26976C8.10002 12.6682 7.93724 12.6008 7.81721 12.4807C7.69719 12.3607 7.62976 12.1979 7.62976 12.0282C7.62976 11.8584 7.69719 11.6957 7.81721 11.5756C7.93724 11.4556 8.10002 11.3882 8.26976 11.3882H11.2778C11.4475 11.3882 11.6103 11.4556 11.7303 11.5756C11.8503 11.6957 11.9178 11.8584 11.9178 12.0282C11.9178 12.1979 11.8503 12.3607 11.7303 12.4807C11.6103 12.6008 11.4475 12.6682 11.2778 12.6682Z" fill="#202020"/>
<path d="M13.8493 19.7981C13.562 19.798 13.2819 19.7085 13.0477 19.5421L9.83745 17.2721C9.81874 17.2588 9.79638 17.2517 9.77345 17.2517C9.75052 17.2517 9.72816 17.2588 9.70945 17.2721L6.50049 19.5421C6.29251 19.6892 6.0481 19.7763 5.79397 19.7938C5.53985 19.8114 5.28579 19.7587 5.05956 19.6416C4.83334 19.5246 4.64366 19.3475 4.51125 19.1299C4.37885 18.9123 4.30881 18.6625 4.30881 18.4077V8.73413C4.30949 8.09137 4.56512 7.47513 5.01962 7.02063C5.47412 6.56613 6.09037 6.31049 6.73313 6.30981H12.815C13.4578 6.31049 14.0741 6.56613 14.5286 7.02063C14.9831 7.47513 15.2387 8.09137 15.2394 8.73413V18.4077C15.2389 18.7763 15.0924 19.1297 14.8318 19.3903C14.5712 19.651 14.2179 19.7976 13.8493 19.7981ZM9.77409 15.9725C10.0614 15.9723 10.3417 16.0612 10.5763 16.2269L13.7869 18.4961C13.8028 18.5087 13.8221 18.5162 13.8423 18.5176C13.8625 18.519 13.8827 18.5143 13.9002 18.5041C13.9184 18.4957 13.9338 18.4821 13.9443 18.465C13.9548 18.4479 13.9601 18.4281 13.9594 18.4081V8.73413C13.959 8.43075 13.8384 8.13988 13.6238 7.92535C13.4093 7.71082 13.1184 7.59015 12.815 7.58981H6.73313C6.42974 7.59015 6.13887 7.71082 5.92435 7.92535C5.70982 8.13988 5.58915 8.43075 5.58881 8.73413V18.4077C5.5888 18.4278 5.59432 18.4475 5.60476 18.4647C5.6152 18.4818 5.63017 18.4958 5.64801 18.505C5.66586 18.5142 5.6859 18.5184 5.70593 18.517C5.72597 18.5155 5.74523 18.5086 5.76161 18.497L8.97185 16.2269C9.20649 16.0612 9.48679 15.9723 9.77409 15.9725Z" fill="#202020"/>
<path d="M18.3011 17.6897C18.0144 17.6891 17.7349 17.5996 17.5011 17.4337L14.2893 15.1639C14.2197 15.1158 14.1603 15.0543 14.1146 14.9831C14.0689 14.9119 14.0378 14.8324 14.023 14.749C14.0083 14.6657 14.0102 14.5803 14.0287 14.4978C14.0472 14.4152 14.0818 14.3371 14.1307 14.268C14.1795 14.1989 14.2416 14.1402 14.3132 14.0952C14.3849 14.0503 14.4648 14.02 14.5483 14.0061C14.6317 13.9923 14.7171 13.9951 14.7995 14.0144C14.8819 14.0337 14.9596 14.0692 15.0282 14.1188L18.24 16.3889C18.2564 16.4004 18.2757 16.4072 18.2957 16.4085C18.3158 16.4099 18.3358 16.4057 18.3536 16.3965C18.3714 16.3872 18.3863 16.3733 18.3968 16.3561C18.4072 16.339 18.4128 16.3193 18.4128 16.2993V6.62598C18.4125 6.32259 18.2918 6.03173 18.0773 5.8172C17.8627 5.60267 17.5719 5.482 17.2685 5.48166H11.185C10.8816 5.482 10.5907 5.60267 10.3762 5.8172C10.1617 6.03173 10.041 6.32259 10.0407 6.62598C10.0407 6.79572 9.97322 6.95851 9.8532 7.07853C9.73318 7.19855 9.57039 7.26598 9.40065 7.26598C9.23091 7.26598 9.06813 7.19855 8.9481 7.07853C8.82808 6.95851 8.76065 6.79572 8.76065 6.62598C8.76133 5.98322 9.01696 5.36698 9.47147 4.91248C9.92597 4.45797 10.5422 4.20234 11.185 4.20166H17.2669C17.9097 4.20234 18.5259 4.45797 18.9804 4.91248C19.4349 5.36698 19.6905 5.98322 19.6912 6.62598V16.2993C19.6908 16.6678 19.5442 17.0212 19.2836 17.2818C19.023 17.5425 18.6697 17.6892 18.3011 17.6897Z" fill="#202020"/>
</svg>
