<svg width="24" height="24" viewBox="0 0 24 24" fill="none" xmlns="http://www.w3.org/2000/svg">
<path d="M17.0319 21.1453H6.96795C6.06013 21.1443 5.18976 20.7833 4.54784 20.1414C3.90592 19.4995 3.54488 18.6291 3.54395 17.7213V7.65792C3.54496 6.75013 3.90603 5.87981 4.54793 5.23791C5.18984 4.596 6.06016 4.23493 6.96795 4.23392H17.0319C17.9397 4.23493 18.8101 4.596 19.452 5.23791C20.0939 5.87981 20.4549 6.75013 20.4559 7.65792V17.7219C20.4548 18.6296 20.0937 19.4998 19.4518 20.1416C18.8099 20.7834 17.9396 21.1443 17.0319 21.1453ZM6.96795 5.51424C6.39948 5.51475 5.85444 5.74079 5.45247 6.14276C5.0505 6.54473 4.82445 7.08977 4.82395 7.65824V17.7222C4.82445 18.2907 5.0505 18.8357 5.45247 19.2377C5.85444 19.6397 6.39948 19.8657 6.96795 19.8662H17.0319C17.6004 19.8657 18.1455 19.6397 18.5474 19.2377C18.9494 18.8357 19.1754 18.2907 19.1759 17.7222V7.65792C19.1754 7.08945 18.9494 6.54441 18.5474 6.14244C18.1455 5.74047 17.6004 5.51443 17.0319 5.51392L6.96795 5.51424Z" fill="#202020"/>
<path d="M8.36994 11.4323C8.03114 11.4323 7.69994 11.3319 7.41824 11.1436C7.13654 10.9554 6.91698 10.6878 6.78734 10.3748C6.6577 10.0618 6.6238 9.71736 6.68992 9.38507C6.75604 9.05278 6.91922 8.74756 7.15881 8.50801C7.3984 8.26846 7.70365 8.10534 8.03596 8.03928C8.36826 7.97323 8.71269 8.00719 9.02569 8.13689C9.33868 8.26659 9.60619 8.4862 9.79437 8.76793C9.98256 9.04967 10.083 9.38088 10.0829 9.71969C10.0824 10.1738 9.90175 10.6092 9.58061 10.9303C9.25947 11.2513 8.82406 11.4319 8.36994 11.4323ZM8.36994 9.28673C8.28431 9.28673 8.2006 9.31212 8.1294 9.3597C8.0582 9.40727 8.00271 9.47489 7.96994 9.554C7.93717 9.63312 7.9286 9.72017 7.9453 9.80416C7.96201 9.88814 8.00324 9.96529 8.06379 10.0258C8.12434 10.0864 8.20149 10.1276 8.28548 10.1443C8.36946 10.161 8.45652 10.1525 8.53563 10.1197C8.61474 10.0869 8.68236 10.0314 8.72994 9.96023C8.77751 9.88903 8.8029 9.80532 8.8029 9.71969C8.80273 9.60491 8.75706 9.49489 8.67591 9.41373C8.59475 9.33257 8.48472 9.2869 8.36994 9.28673ZM8.36994 17.6442C8.03115 17.6442 7.69997 17.5437 7.41827 17.3555C7.13658 17.1673 6.91702 16.8997 6.78737 16.5867C6.65772 16.2737 6.6238 15.9293 6.6899 15.597C6.75599 15.2647 6.91914 14.9595 7.1587 14.72C7.39826 14.4804 7.70348 14.3173 8.03576 14.2512C8.36804 14.1851 8.71246 14.219 9.02546 14.3486C9.33847 14.4783 9.606 14.6978 9.79422 14.9795C9.98244 15.2612 10.0829 15.5924 10.0829 15.9312C10.0824 16.3854 9.90176 16.8208 9.58063 17.1419C9.2595 17.463 8.82409 17.6437 8.36994 17.6442ZM8.36994 15.4983C8.28431 15.4983 8.2006 15.5236 8.1294 15.5712C8.0582 15.6188 8.00271 15.6864 7.96994 15.7655C7.93717 15.8446 7.9286 15.9317 7.9453 16.0157C7.96201 16.0997 8.00324 16.1768 8.06379 16.2374C8.12434 16.2979 8.20149 16.3391 8.28548 16.3559C8.36946 16.3726 8.45652 16.364 8.53563 16.3312C8.61474 16.2984 8.68236 16.2429 8.72994 16.1717C8.77751 16.1005 8.8029 16.0168 8.8029 15.9312C8.80273 15.8164 8.75706 15.7064 8.67591 15.6252C8.59475 15.5441 8.48472 15.4984 8.36994 15.4983Z" fill="#202020"/>
<path d="M8.00003 15.5635C7.85454 15.5637 7.71334 15.5142 7.5997 15.4234C7.48607 15.3325 7.40678 15.2057 7.37491 15.0637C7.34305 14.9217 7.3605 14.7731 7.4244 14.6424C7.4883 14.5117 7.59483 14.4067 7.72643 14.3446L16.4768 10.2138C16.5528 10.1778 16.6352 10.1572 16.7191 10.1531C16.8031 10.149 16.887 10.1615 16.9662 10.1898C17.0453 10.2181 17.1181 10.2618 17.1804 10.3182C17.2427 10.3747 17.2932 10.4429 17.3292 10.5189C17.3651 10.5949 17.3857 10.6772 17.3898 10.7612C17.3939 10.8451 17.3814 10.9291 17.3531 11.0082C17.3248 11.0874 17.2811 11.1602 17.2247 11.2224C17.1682 11.2847 17.1 11.3353 17.024 11.3712L8.27427 15.5021C8.1886 15.5428 8.09489 15.5638 8.00003 15.5635Z" fill="#202020"/>
<path d="M16.7494 16.4586C16.6369 16.4585 16.5265 16.4286 16.4294 16.3718L7.59736 11.2461C7.52466 11.2039 7.46098 11.1478 7.40996 11.081C7.35894 11.0142 7.32158 10.938 7.3 10.8567C7.27843 10.7755 7.27307 10.6908 7.28423 10.6075C7.29539 10.5242 7.32285 10.4439 7.36504 10.3712C7.40723 10.2985 7.46333 10.2348 7.53013 10.1838C7.59693 10.1328 7.67312 10.0954 7.75436 10.0738C7.8356 10.0523 7.9203 10.0469 8.00361 10.0581C8.08692 10.0692 8.16722 10.0967 8.23992 10.1389L17.0713 15.264C17.1931 15.3347 17.2882 15.4435 17.3419 15.5738C17.3955 15.704 17.4047 15.8483 17.3681 15.9842C17.3314 16.1202 17.2509 16.2403 17.139 16.3259C17.0272 16.4115 16.8902 16.4578 16.7494 16.4576V16.4586Z" fill="#202020"/>
</svg>
