<svg width="24" height="24" viewBox="0 0 24 24" fill="none" xmlns="http://www.w3.org/2000/svg">
<path d="M17.0319 20.4557H6.96795C6.06016 20.4547 5.18984 20.0936 4.54793 19.4517C3.90603 18.8098 3.54496 17.9395 3.54395 17.0317V6.96801C3.54496 6.06022 3.90603 5.1899 4.54793 4.548C5.18984 3.90609 6.06016 3.54502 6.96795 3.54401H17.0319C17.9397 3.54502 18.8101 3.90609 19.452 4.548C20.0939 5.1899 20.4549 6.06022 20.4559 6.96801V17.032C20.4548 17.9397 20.0937 18.81 19.4518 19.4518C18.8099 20.0936 17.9397 20.4547 17.0319 20.4557ZM6.96795 4.82433C6.39948 4.82483 5.85444 5.05088 5.45247 5.45285C5.0505 5.85482 4.82445 6.39986 4.82395 6.96833V17.0323C4.82445 17.6008 5.0505 18.1458 5.45247 18.5478C5.85444 18.9498 6.39948 19.1758 6.96795 19.1763H17.0319C17.6004 19.1758 18.1455 18.9498 18.5474 18.5478C18.9494 18.1458 19.1754 17.6008 19.1759 17.0323V6.96801C19.1754 6.39954 18.9494 5.8545 18.5474 5.45253C18.1455 5.05056 17.6004 4.82451 17.0319 4.82401L6.96795 4.82433Z" fill="#202020"/>
<path d="M16.323 17.8458H12.7118C12.3534 17.8453 12.0099 17.7028 11.7565 17.4494C11.5031 17.196 11.3605 16.8524 11.3601 16.4941V14.9808C11.3605 14.6224 11.5031 14.2789 11.7565 14.0255C12.0099 13.7721 12.3534 13.6295 12.7118 13.6291H16.323C16.6813 13.6295 17.0248 13.7721 17.2782 14.0255C17.5315 14.2789 17.674 14.6225 17.6743 14.9808V16.4941C17.674 16.8524 17.5315 17.196 17.2782 17.4494C17.0248 17.7028 16.6813 17.8453 16.323 17.8458ZM12.7118 14.9091C12.6928 14.9091 12.6745 14.9167 12.6611 14.9301C12.6477 14.9436 12.6401 14.9618 12.6401 14.9808V16.4941C12.6401 16.5131 12.6477 16.5313 12.6611 16.5448C12.6745 16.5582 12.6928 16.5658 12.7118 16.5658H16.323C16.3419 16.5657 16.3601 16.5581 16.3735 16.5447C16.3868 16.5312 16.3943 16.513 16.3943 16.4941V14.9808C16.3944 14.9714 16.3926 14.9621 16.389 14.9534C16.3854 14.9447 16.3802 14.9368 16.3736 14.9301C16.3669 14.9235 16.359 14.9182 16.3504 14.9146C16.3417 14.911 16.3324 14.9091 16.323 14.9091H12.7118Z" fill="#202020"/>
</svg>
