<svg width="24" height="24" viewBox="0 0 24 24" fill="none" xmlns="http://www.w3.org/2000/svg">
<path d="M17.0319 20.4557H6.96795C6.06016 20.4547 5.18984 20.0936 4.54793 19.4517C3.90603 18.8098 3.54496 17.9395 3.54395 17.0317V6.96801C3.54496 6.06022 3.90603 5.1899 4.54793 4.548C5.18984 3.90609 6.06016 3.54502 6.96795 3.54401H17.0319C17.9397 3.54502 18.8101 3.90609 19.452 4.548C20.0939 5.1899 20.4549 6.06022 20.4559 6.96801V17.032C20.4548 17.9397 20.0937 18.81 19.4518 19.4518C18.8099 20.0936 17.9397 20.4547 17.0319 20.4557ZM6.96795 4.82433C6.39948 4.82483 5.85444 5.05088 5.45247 5.45285C5.0505 5.85482 4.82445 6.39986 4.82395 6.96833V17.0323C4.82445 17.6008 5.0505 18.1458 5.45247 18.5478C5.85444 18.9498 6.39948 19.1758 6.96795 19.1763H17.0319C17.6004 19.1758 18.1455 18.9498 18.5474 18.5478C18.9494 18.1458 19.1754 17.6008 19.1759 17.0323V6.96801C19.1754 6.39954 18.9494 5.8545 18.5474 5.45253C18.1455 5.05056 17.6004 4.82451 17.0319 4.82401L6.96795 4.82433Z" fill="#202020"/>
<path d="M10.1616 16.6778C9.99547 16.678 9.83576 16.6134 9.71652 16.4976L8.1402 14.9706C8.07947 14.9117 8.031 14.8414 7.99759 14.7637C7.96419 14.686 7.94652 14.6025 7.94559 14.5179C7.94467 14.4334 7.96052 14.3495 7.99222 14.2711C8.02392 14.1926 8.07085 14.1213 8.13028 14.0611L9.79908 12.3715C9.85815 12.3117 9.92841 12.2642 10.0059 12.2315C10.0833 12.1989 10.1664 12.1818 10.2505 12.1813C10.3345 12.1808 10.4179 12.1968 10.4957 12.2285C10.5736 12.2602 10.6444 12.3069 10.7042 12.3659C10.764 12.425 10.8116 12.4953 10.8442 12.5727C10.8769 12.6502 10.8939 12.7333 10.8945 12.8173C10.895 12.9014 10.8789 12.9847 10.8473 13.0626C10.8156 13.1404 10.7689 13.2113 10.7098 13.2711L9.4938 14.5008L10.6061 15.5783C10.6976 15.667 10.7605 15.7809 10.7869 15.9056C10.8132 16.0303 10.8017 16.16 10.7538 16.2781C10.706 16.3962 10.624 16.4973 10.5183 16.5685C10.4126 16.6397 10.2881 16.6778 10.1607 16.6778H10.1616ZM13.8384 16.6778C13.711 16.6778 13.5865 16.6397 13.4808 16.5685C13.3752 16.4973 13.2931 16.3962 13.2453 16.2781C13.1975 16.16 13.186 16.0303 13.2123 15.9056C13.2386 15.7809 13.3015 15.667 13.393 15.5783L14.5053 14.5008L13.2893 13.2711C13.2303 13.2113 13.1836 13.1404 13.1519 13.0626C13.1202 12.9847 13.1041 12.9014 13.1047 12.8173C13.1052 12.7333 13.1223 12.6502 13.1549 12.5727C13.1875 12.4953 13.2351 12.425 13.2949 12.3659C13.3547 12.3069 13.4256 12.2602 13.5034 12.2285C13.5813 12.1968 13.6646 12.1808 13.7486 12.1813C13.8327 12.1818 13.9158 12.1989 13.9933 12.2315C14.0707 12.2642 14.141 12.3117 14.2 12.3715L15.8688 14.0611C15.9283 14.1213 15.9752 14.1926 16.0069 14.2711C16.0386 14.3495 16.0545 14.4334 16.0535 14.5179C16.0526 14.6025 16.0349 14.686 16.0015 14.7637C15.9681 14.8414 15.9197 14.9117 15.8589 14.9706L14.2826 16.4976C14.1636 16.6131 14.0043 16.6778 13.8384 16.6778Z" fill="#202020"/>
</svg>
