<svg width="24" height="24" viewBox="0 0 24 24" fill="none" xmlns="http://www.w3.org/2000/svg">
<path d="M17.032 20.4556H6.96801C6.06022 20.4546 5.1899 20.0935 4.548 19.4516C3.90609 18.8097 3.54502 17.9394 3.54401 17.0316V6.96795C3.54502 6.06016 3.90609 5.18984 4.548 4.54793C5.1899 3.90603 6.06022 3.54496 6.96801 3.54395H17.032C17.9398 3.54496 18.8101 3.90603 19.452 4.54793C20.0939 5.18984 20.455 6.06016 20.456 6.96795V17.0319C20.4549 17.9397 20.0938 18.8099 19.4519 19.4518C18.81 20.0936 17.9397 20.4546 17.032 20.4556ZM6.96801 4.82427C6.39954 4.82477 5.8545 5.05082 5.45253 5.45279C5.05056 5.85476 4.82451 6.3998 4.82401 6.96827V17.0323C4.82451 17.6007 5.05056 18.1458 5.45253 18.5477C5.8545 18.9497 6.39954 19.1758 6.96801 19.1763H17.032C17.6005 19.1758 18.1455 18.9497 18.5475 18.5477C18.9494 18.1458 19.1755 17.6007 19.176 17.0323V6.96795C19.1755 6.39948 18.9494 5.85444 18.5475 5.45247C18.1455 5.0505 17.6005 4.82445 17.032 4.82395L6.96801 4.82427Z" fill="#202020"/>
<path d="M10.1616 16.6777C9.9954 16.6779 9.8357 16.6133 9.71646 16.4975L8.14014 14.9705C8.07941 14.9116 8.03094 14.8413 7.99753 14.7636C7.96413 14.6859 7.94646 14.6024 7.94553 14.5178C7.94461 14.4332 7.96046 14.3493 7.99216 14.2709C8.02386 14.1925 8.07079 14.1212 8.13022 14.061L9.79902 12.3714C9.85809 12.3116 9.92835 12.264 10.0058 12.2314C10.0833 12.1988 10.1664 12.1817 10.2504 12.1812C10.3345 12.1806 10.4178 12.1967 10.4956 12.2284C10.5735 12.2601 10.6443 12.3068 10.7041 12.3658C10.7639 12.4249 10.8115 12.4951 10.8442 12.5726C10.8768 12.6501 10.8939 12.7332 10.8944 12.8172C10.8949 12.9013 10.8789 12.9846 10.8472 13.0624C10.8155 13.1403 10.7688 13.2111 10.7097 13.2709L9.49374 14.5007L10.6061 15.5781C10.6976 15.6668 10.7605 15.7808 10.7868 15.9055C10.8131 16.0302 10.8016 16.1599 10.7538 16.278C10.7059 16.3961 10.6239 16.4972 10.5182 16.5684C10.4126 16.6396 10.288 16.6777 10.1606 16.6777H10.1616ZM13.8384 16.6777C13.711 16.6777 13.5864 16.6396 13.4808 16.5684C13.3751 16.4972 13.2931 16.3961 13.2452 16.278C13.1974 16.1599 13.1859 16.0302 13.2122 15.9055C13.2385 15.7808 13.3015 15.6668 13.3929 15.5781L14.5053 14.5007L13.2893 13.2709C13.2302 13.2111 13.1835 13.1403 13.1518 13.0624C13.1201 12.9846 13.1041 12.9013 13.1046 12.8172C13.1051 12.7332 13.1222 12.6501 13.1548 12.5726C13.1875 12.4951 13.2351 12.4249 13.2949 12.3658C13.3547 12.3068 13.4255 12.2601 13.5034 12.2284C13.5812 12.1967 13.6645 12.1806 13.7486 12.1812C13.8326 12.1817 13.9158 12.1988 13.9932 12.2314C14.0707 12.264 14.1409 12.3116 14.2 12.3714L15.8688 14.061C15.9282 14.1212 15.9751 14.1925 16.0068 14.2709C16.0385 14.3493 16.0544 14.4332 16.0535 14.5178C16.0526 14.6024 16.0349 14.6859 16.0015 14.7636C15.9681 14.8413 15.9196 14.9116 15.8589 14.9705L14.2825 16.4975C14.1635 16.613 14.0042 16.6776 13.8384 16.6777Z" fill="#202020"/>
</svg>
