<svg width="24" height="24" viewBox="0 0 24 24" fill="none" xmlns="http://www.w3.org/2000/svg">
<path d="M22.4899 20.5139C22.3222 20.5138 22.1613 20.4477 22.0419 20.3299L19.9939 18.3107C19.9325 18.2521 19.8834 18.1818 19.8494 18.104C19.8155 18.0262 19.7973 17.9424 19.796 17.8575C19.7948 17.7726 19.8104 17.6883 19.842 17.6095C19.8736 17.5307 19.9206 17.459 19.9802 17.3985C20.0398 17.3381 20.1109 17.2901 20.1892 17.2574C20.2675 17.2246 20.3516 17.2078 20.4365 17.2079C20.5214 17.208 20.6055 17.2249 20.6837 17.2578C20.762 17.2907 20.833 17.3388 20.8925 17.3993L22.9405 19.4182C23.0308 19.5073 23.0926 19.6212 23.1181 19.7454C23.1435 19.8697 23.1315 19.9987 23.0835 20.1161C23.0355 20.2335 22.9537 20.334 22.8484 20.4048C22.7432 20.4757 22.6193 20.5136 22.4925 20.5139H22.4899Z" fill="#202020"/>
<path d="M12.1475 20.9728C9.77785 20.9728 7.50527 20.0315 5.82969 18.3559C4.1541 16.6803 3.21277 14.4077 3.21277 12.0381C3.21277 9.66848 4.1541 7.3959 5.82969 5.72031C7.50527 4.04473 9.77785 3.10339 12.1475 3.10339C12.6378 3.10338 13.1273 3.1434 13.6112 3.22307C13.6953 3.23539 13.7761 3.26434 13.8489 3.30824C13.9218 3.35214 13.9851 3.41011 14.0353 3.47877C14.0854 3.54742 14.1214 3.62538 14.1411 3.70809C14.1608 3.79081 14.1638 3.87661 14.1499 3.9605C14.1361 4.04439 14.1057 4.12469 14.0605 4.19669C14.0153 4.26869 13.9561 4.33097 13.8866 4.37987C13.817 4.42877 13.7384 4.46333 13.6554 4.48151C13.5723 4.4997 13.4865 4.50116 13.4028 4.48579C12.9879 4.41764 12.568 4.3834 12.1475 4.38339C7.92701 4.38339 4.49309 7.81731 4.49309 12.0381C4.49309 16.2589 7.92701 19.6928 12.1475 19.6928C16.368 19.6928 19.8022 16.2589 19.8022 12.0381C19.804 11.0502 19.6134 10.0713 19.2412 9.15619C19.1773 8.99893 19.1784 8.82271 19.2444 8.66629C19.3104 8.50986 19.4358 8.38606 19.5931 8.32211C19.7503 8.25816 19.9266 8.25931 20.083 8.32529C20.2394 8.39127 20.3632 8.51669 20.4272 8.67395C20.9779 10.0307 21.1869 11.502 21.0357 12.9585C20.8845 14.4149 20.3777 15.8119 19.56 17.0266C18.7423 18.2413 17.6386 19.2364 16.3461 19.9245C15.0536 20.6126 13.6118 20.9726 12.1475 20.9728Z" fill="#202020"/>
<path d="M17.1987 9.08002C17.0292 9.08007 16.8665 9.01286 16.7465 8.89314L14.9388 7.08994C14.6239 6.77586 14.4374 6.35564 14.4157 5.91138C14.394 5.46712 14.5388 5.03074 14.8216 4.68748C15.1045 4.34423 15.5052 4.11877 15.9454 4.05513C16.3856 3.9915 16.8337 4.09428 17.2022 4.34338C17.545 4.12714 17.9511 4.03372 18.3539 4.07843C18.7567 4.12313 19.1324 4.30332 19.4195 4.58946C19.7547 4.92452 19.9433 5.3789 19.9438 5.85287C19.9444 6.32683 19.7568 6.78165 19.4224 7.11746L17.6518 8.8925C17.5924 8.95199 17.5219 8.9992 17.4442 9.03143C17.3666 9.06366 17.2834 9.08028 17.1993 9.08034L17.1987 9.08002ZM16.2012 5.31746C16.1009 5.3175 16.0028 5.34729 15.9194 5.40309C15.836 5.45888 15.771 5.53816 15.7327 5.6309C15.6943 5.72364 15.6844 5.82566 15.704 5.92406C15.7237 6.02247 15.7721 6.11282 15.8432 6.1837L17.1974 7.53506L18.5164 6.21282C18.6113 6.11759 18.6645 5.98866 18.6645 5.85426C18.6645 5.71986 18.6113 5.59094 18.5164 5.4957C18.4693 5.44858 18.4134 5.4112 18.3519 5.3857C18.2903 5.3602 18.2243 5.34707 18.1577 5.34707C18.0911 5.34707 18.0251 5.3602 17.9636 5.3857C17.902 5.4112 17.8461 5.44858 17.799 5.4957L17.6489 5.64642C17.5896 5.70597 17.519 5.75324 17.4414 5.78552C17.3638 5.81781 17.2805 5.83448 17.1964 5.83458C17.0269 5.83455 16.8642 5.76722 16.7443 5.64738L16.5609 5.46466C16.5137 5.41748 16.4576 5.38017 16.3959 5.3549C16.3341 5.32963 16.268 5.3169 16.2012 5.31746Z" fill="#202020"/>
</svg>
