<svg width="24" height="24" viewBox="0 0 24 24" fill="none" xmlns="http://www.w3.org/2000/svg">
<path d="M13.8928 12.64H10.7078C10.5381 12.64 10.3753 12.5726 10.2553 12.4525C10.1353 12.3325 10.0678 12.1697 10.0678 12C10.0678 11.8302 10.1353 11.6675 10.2553 11.5474C10.3753 11.4274 10.5381 11.36 10.7078 11.36H13.8928C14.0625 11.36 14.2253 11.4274 14.3453 11.5474C14.4654 11.6675 14.5328 11.8302 14.5328 12C14.5328 12.1697 14.4654 12.3325 14.3453 12.4525C14.2253 12.5726 14.0625 12.64 13.8928 12.64Z" fill="#202020"/>
<path d="M12.3002 20.9347C10.2331 20.9348 8.22991 20.218 6.63201 18.9067C5.03411 17.5954 3.94034 15.7706 3.53705 13.7432C3.13376 11.7158 3.44591 9.61132 4.42032 7.7883C5.39473 5.96527 6.9711 4.53651 8.88084 3.74545C10.7906 2.95439 12.9155 2.84999 14.8936 3.45002C16.8717 4.05005 18.5806 5.31739 19.729 7.03611C20.8774 8.75483 21.3944 10.8186 21.1918 12.8757C20.9892 14.9329 20.0796 16.8561 18.6179 18.3178C17.7902 19.15 16.8056 19.8098 15.7211 20.259C14.6367 20.7082 13.4739 20.9379 12.3002 20.9347ZM12.3002 4.34531C8.07936 4.34531 4.64576 7.77923 4.64576 12C4.64576 16.2208 8.07936 19.6547 12.3002 19.6547C16.521 19.6547 19.9549 16.2208 19.9549 12C19.9549 7.77923 16.521 4.34531 12.3002 4.34531Z" fill="#202020"/>
<path d="M12.3002 14.2323C12.1304 14.2323 11.9676 14.1649 11.8476 14.0449C11.7276 13.9249 11.6602 13.7621 11.6602 13.5923V10.4077C11.6602 10.238 11.7276 10.0752 11.8476 9.95515C11.9676 9.83513 12.1304 9.7677 12.3002 9.7677C12.4699 9.7677 12.6327 9.83513 12.7527 9.95515C12.8727 10.0752 12.9402 10.238 12.9402 10.4077V13.5923C12.9402 13.7621 12.8727 13.9249 12.7527 14.0449C12.6327 14.1649 12.4699 14.2323 12.3002 14.2323ZM21.92 20.9347C21.7552 20.9349 21.5967 20.8713 21.4778 20.7571L19.3997 18.7693C19.3377 18.7115 19.2878 18.642 19.2529 18.5648C19.218 18.4876 19.1988 18.4042 19.1964 18.3195C19.1939 18.2348 19.2084 18.1504 19.2388 18.0713C19.2692 17.9922 19.3151 17.92 19.3737 17.8587C19.4322 17.7975 19.5024 17.7485 19.5801 17.7146C19.6577 17.6807 19.7414 17.6626 19.8261 17.6613C19.9108 17.6599 19.995 17.6754 20.0737 17.7069C20.1523 17.7384 20.224 17.7851 20.2845 17.8445L22.3626 19.832C22.455 19.9203 22.5189 20.0343 22.5459 20.1593C22.573 20.2843 22.562 20.4145 22.5144 20.5331C22.4667 20.6518 22.3847 20.7534 22.2787 20.825C22.1728 20.8966 22.0479 20.9348 21.92 20.9347Z" fill="#202020"/>
</svg>
