<svg width="24" height="24" viewBox="0 0 24 24" fill="none" xmlns="http://www.w3.org/2000/svg">
<path d="M12.5222 19.4605C12.2621 19.4605 12.0053 19.402 11.7709 19.2893L6.97598 16.9869C6.70403 16.8556 6.4709 16.6558 6.29951 16.4071C6.12811 16.1585 6.02434 15.8695 5.99838 15.5686L5.40286 8.47583C5.37097 8.10912 5.45702 7.74181 5.64847 7.42741C5.83991 7.11302 6.12675 6.86798 6.46718 6.72799L11.5552 4.61855C11.9814 4.44287 12.4598 4.44287 12.8861 4.61855L17.5449 6.55999C17.8808 6.69954 18.1643 6.94125 18.3552 7.25086C18.5461 7.56048 18.6348 7.92231 18.6086 8.28511L18.56 8.97087C18.5479 9.14018 18.469 9.29776 18.3408 9.40893C18.2125 9.5201 18.0453 9.57576 17.876 9.56367C17.7067 9.55157 17.5491 9.47271 17.4379 9.34444C17.3267 9.21616 17.2711 9.04898 17.2832 8.87967L17.3318 8.19199C17.3386 8.09692 17.3154 8.00212 17.2653 7.92098C17.2153 7.83984 17.1411 7.77647 17.0531 7.73983L12.3945 5.80127C12.2828 5.75518 12.1574 5.75518 12.0457 5.80127L6.95774 7.91039C6.86849 7.9471 6.7933 8.01135 6.74311 8.09377C6.69292 8.17619 6.67035 8.27249 6.6787 8.36863L7.2755 15.4614C7.28226 15.5403 7.30941 15.616 7.3543 15.6812C7.39918 15.7464 7.46025 15.7988 7.5315 15.8333L12.3251 18.1353C12.3921 18.1677 12.466 18.183 12.5404 18.18C12.6147 18.177 12.6872 18.1557 12.7513 18.1181L13.5286 17.664C13.6751 17.5781 13.8498 17.554 14.0141 17.5969C14.1784 17.6398 14.3189 17.7463 14.4048 17.8928C14.4906 18.0393 14.5147 18.2139 14.4718 18.3783C14.4289 18.5426 14.3225 18.6831 14.176 18.7689L13.3987 19.223C13.1329 19.3788 12.8303 19.4607 12.5222 19.4605Z" fill="#202020"/>
<path d="M20.7728 17.472H13.744C13.3717 17.4716 13.0147 17.3234 12.7515 17.0601C12.4882 16.7968 12.3402 16.4398 12.3398 16.0675V11.1264C12.3402 10.7541 12.4882 10.3971 12.7515 10.1339C13.0147 9.87061 13.3717 9.72257 13.744 9.72223H20.7728C21.1449 9.72291 21.5016 9.87109 21.7646 10.1343C22.0276 10.3975 22.1756 10.7543 22.176 11.1264V16.0678C22.1755 16.4399 22.0275 16.7966 21.7645 17.0598C21.5015 17.323 21.1449 17.4712 20.7728 17.472ZM13.744 11.0022C13.7111 11.0022 13.6795 11.0153 13.6562 11.0386C13.6329 11.0619 13.6198 11.0935 13.6198 11.1264V16.0678C13.6199 16.1007 13.633 16.1323 13.6563 16.1555C13.6796 16.1788 13.7111 16.1919 13.744 16.192H20.7728C20.8058 16.1919 20.8373 16.1788 20.8606 16.1554C20.8839 16.1321 20.897 16.1005 20.897 16.0675V11.1264C20.897 11.0935 20.8839 11.0619 20.8606 11.0386C20.8373 11.0153 20.8057 11.0022 20.7728 11.0022H13.744Z" fill="#202020"/>
<path d="M21.536 12.8586H12.9798C12.8101 12.8586 12.6473 12.7911 12.5273 12.6711C12.4073 12.5511 12.3398 12.3883 12.3398 12.2186C12.3398 12.0488 12.4073 11.886 12.5273 11.766C12.6473 11.646 12.8101 11.5786 12.9798 11.5786H21.536C21.7057 11.5786 21.8685 11.646 21.9886 11.766C22.1086 11.886 22.176 12.0488 22.176 12.2186C22.176 12.3883 22.1086 12.5511 21.9886 12.6711C21.8685 12.7911 21.7057 12.8586 21.536 12.8586ZM15.5603 15.8342H14.577C14.4072 15.8342 14.2444 15.7668 14.1244 15.6468C14.0044 15.5268 13.937 15.364 13.937 15.1942C13.937 15.0245 14.0044 14.8617 14.1244 14.7417C14.2444 14.6217 14.4072 14.5542 14.577 14.5542H15.5603C15.7301 14.5542 15.8928 14.6217 16.0129 14.7417C16.1329 14.8617 16.2003 15.0245 16.2003 15.1942C16.2003 15.364 16.1329 15.5268 16.0129 15.6468C15.8928 15.7668 15.7301 15.8342 15.5603 15.8342ZM18.2502 15.8342H17.2669C17.0971 15.8342 16.9344 15.7668 16.8143 15.6468C16.6943 15.5268 16.6269 15.364 16.6269 15.1942C16.6269 15.0245 16.6943 14.8617 16.8143 14.7417C16.9344 14.6217 17.0971 14.5542 17.2669 14.5542H18.2502C18.42 14.5542 18.5828 14.6217 18.7028 14.7417C18.8228 14.8617 18.8902 15.0245 18.8902 15.1942C18.8902 15.364 18.8228 15.5268 18.7028 15.6468C18.5828 15.7668 18.42 15.8342 18.2502 15.8342Z" fill="#202020"/>
</svg>
