<svg width="24" height="24" viewBox="0 0 24 24" fill="none" xmlns="http://www.w3.org/2000/svg">
<path d="M4.44752 12.1125L9.18752 14.3625C9.40437 14.4596 9.57789 14.6331 9.67502 14.85L11.8875 19.59C12.0867 20.0198 12.404 20.3841 12.8023 20.6404C13.2007 20.8967 13.6638 21.0344 14.1375 21.0375H14.2875C14.7923 21.0162 15.2784 20.8409 15.6806 20.5352C16.0828 20.2295 16.3818 19.8081 16.5375 19.3275L20.865 6.29999C21.0138 5.85903 21.0365 5.38525 20.9304 4.9321C20.8243 4.47895 20.5937 4.06445 20.2647 3.73536C19.9356 3.40627 19.5211 3.17568 19.0679 3.0696C18.6148 2.96352 18.141 2.98617 17.7 3.13499L4.71752 7.49999C4.23693 7.65569 3.81549 7.95473 3.50981 8.35694C3.20413 8.75914 3.02885 9.24526 3.00752 9.74999C2.988 10.2419 3.11428 10.7285 3.37048 11.1489C3.62668 11.5692 4.00138 11.9044 4.44752 12.1125ZM4.50002 9.74999C4.51003 9.54766 4.58142 9.35317 4.70468 9.1924C4.82793 9.03163 4.99722 8.9122 5.19002 8.84999L18.1725 4.55249C18.2763 4.51684 18.3853 4.49908 18.495 4.49999C18.6536 4.5031 18.8093 4.54315 18.9497 4.61696C19.0901 4.69076 19.2113 4.79629 19.3038 4.92517C19.3962 5.05404 19.4574 5.2027 19.4823 5.35933C19.5073 5.51597 19.4954 5.67627 19.4475 5.82749L15.12 18.81C15.0597 18.9983 14.9448 19.1644 14.7899 19.2872C14.635 19.4101 14.4471 19.4841 14.25 19.5C14.0488 19.5157 13.8477 19.4686 13.6744 19.3652C13.5011 19.2617 13.3642 19.107 13.2825 18.9225L11.0325 14.175C11.0325 14.175 10.995 14.115 10.98 14.0775L14.1225 10.9425C14.1924 10.8726 14.2479 10.7895 14.2858 10.6982C14.3236 10.6068 14.3431 10.5089 14.3431 10.41C14.3431 10.3111 14.3236 10.2132 14.2858 10.1218C14.2479 10.0304 14.1924 9.94742 14.1225 9.87749C14.0526 9.80756 13.9696 9.75209 13.8782 9.71425C13.7868 9.6764 13.6889 9.65692 13.59 9.65692C13.4911 9.65692 13.3932 9.6764 13.3018 9.71425C13.2105 9.75209 13.1274 9.80756 13.0575 9.87749L9.92252 13.02L9.82502 12.9675L5.08502 10.7175C4.89974 10.6361 4.74412 10.4995 4.63941 10.3263C4.5347 10.1532 4.48602 9.95187 4.50002 9.74999Z" fill="#202020"/>
</svg>
