<svg width="24" height="24" viewBox="0 0 24 24" fill="none" xmlns="http://www.w3.org/2000/svg">
<path d="M14.3919 20.593H14.3836C13.9607 20.5957 13.5481 20.4628 13.2063 20.2137C12.8644 19.9647 12.6115 19.6127 12.4844 19.2093L10.4044 12.8413L4.33913 9.99329C3.95726 9.81409 3.6416 9.51907 3.43702 9.15017C3.23244 8.78127 3.14936 8.35728 3.19957 7.93845C3.24978 7.51962 3.43074 7.12728 3.71673 6.8172C4.00271 6.50712 4.37916 6.29508 4.79257 6.21121L18.4079 3.44897C18.7531 3.37882 19.1106 3.40079 19.4445 3.51265C19.7785 3.62451 20.0771 3.82234 20.3103 4.08622C20.5436 4.35011 20.7032 4.67076 20.7732 5.01592C20.8432 5.36109 20.8211 5.7186 20.709 6.05249L16.293 19.225C16.1632 19.6257 15.9087 19.9746 15.5667 20.2206C15.2248 20.4667 14.8132 20.5971 14.3919 20.593ZM18.5353 4.07553L18.6633 4.70274L5.04729 7.46497C4.57017 7.56097 4.48537 7.96801 4.47129 8.08993C4.45721 8.21185 4.44313 8.62689 4.88377 8.83393L11.1999 11.7987C11.279 11.8359 11.3497 11.8888 11.4075 11.9543C11.4653 12.0198 11.5092 12.0965 11.5362 12.1795L13.702 18.8122C13.853 19.2749 14.2665 19.3123 14.3894 19.313C14.5122 19.3136 14.926 19.2791 15.0809 18.8176L19.4969 5.64513C19.5373 5.52436 19.5453 5.39507 19.52 5.27024C19.4947 5.14541 19.437 5.02943 19.3527 4.93394C19.2684 4.83846 19.1605 4.76683 19.0398 4.72625C18.919 4.68567 18.7897 4.67756 18.6649 4.70274L18.5353 4.07553Z" fill="#202020"/>
<path d="M10.9273 13.0179C10.7972 13.0181 10.6702 12.9786 10.5632 12.9047C10.4561 12.8309 10.3741 12.7261 10.3281 12.6045C10.282 12.4829 10.2741 12.3501 10.3054 12.2239C10.3367 12.0976 10.4058 11.9839 10.5033 11.8979L14.2991 8.544C14.3622 8.48836 14.4356 8.44568 14.5151 8.4184C14.5946 8.39112 14.6787 8.37977 14.7626 8.385C14.8466 8.39023 14.9286 8.41193 15.0041 8.44888C15.0797 8.48582 15.1472 8.53728 15.2028 8.60032C15.2585 8.66335 15.3011 8.73673 15.3284 8.81626C15.3557 8.89578 15.367 8.97991 15.3618 9.06382C15.3566 9.14774 15.3349 9.2298 15.2979 9.30532C15.261 9.38085 15.2095 9.44836 15.1465 9.504L11.351 12.8576C11.2341 12.9611 11.0834 13.0181 10.9273 13.0179Z" fill="#202020"/>
</svg>
