<svg width="24" height="24" viewBox="0 0 24 24" fill="none" xmlns="http://www.w3.org/2000/svg">
<path d="M17.032 20.4556H6.96801C6.06022 20.4546 5.1899 20.0935 4.548 19.4516C3.90609 18.8097 3.54502 17.9394 3.54401 17.0316V6.96795C3.54502 6.06016 3.90609 5.18984 4.548 4.54793C5.1899 3.90603 6.06022 3.54496 6.96801 3.54395H17.032C17.9398 3.54496 18.8101 3.90603 19.452 4.54793C20.0939 5.18984 20.455 6.06016 20.456 6.96795V17.0319C20.4549 17.9397 20.0938 18.8099 19.4519 19.4517C18.81 20.0936 17.9397 20.4546 17.032 20.4556ZM6.96801 4.82427C6.39954 4.82477 5.8545 5.05082 5.45253 5.45279C5.05056 5.85476 4.82451 6.3998 4.82401 6.96826V17.0323C4.82451 17.6007 5.05056 18.1458 5.45253 18.5477C5.8545 18.9497 6.39954 19.1758 6.96801 19.1763H17.032C17.6005 19.1758 18.1455 18.9497 18.5475 18.5477C18.9494 18.1458 19.1755 17.6007 19.176 17.0323V6.96795C19.1755 6.39948 18.9494 5.85444 18.5475 5.45247C18.1455 5.0505 17.6005 4.82445 17.032 4.82395L6.96801 4.82427Z" fill="#202020"/>
<path d="M9.09184 17.6038C8.9221 17.6038 8.75932 17.5364 8.6393 17.4163C8.51927 17.2963 8.45184 17.1335 8.45184 16.9638V15.0608C8.45184 14.891 8.51927 14.7282 8.6393 14.6082C8.75932 14.4882 8.9221 14.4208 9.09184 14.4208C9.26158 14.4208 9.42437 14.4882 9.54439 14.6082C9.66442 14.7282 9.73184 14.891 9.73184 15.0608V16.9638C9.73184 17.1335 9.66442 17.2963 9.54439 17.4163C9.42437 17.5364 9.26158 17.6038 9.09184 17.6038ZM9.09184 12.5139C8.9221 12.5139 8.75932 12.4465 8.6393 12.3264C8.51927 12.2064 8.45184 12.0436 8.45184 11.8739V7.03612C8.45184 6.86638 8.51927 6.70359 8.6393 6.58357C8.75932 6.46355 8.9221 6.39612 9.09184 6.39612C9.26158 6.39612 9.42437 6.46355 9.54439 6.58357C9.66442 6.70359 9.73184 6.86638 9.73184 7.03612V11.8739C9.73184 12.0436 9.66442 12.2064 9.54439 12.3264C9.42437 12.4465 9.26158 12.5139 9.09184 12.5139Z" fill="#202020"/>
<path d="M9.67965 15.7008H8.50398C8.06765 15.7002 7.64934 15.5267 7.34081 15.2182C7.03228 14.9096 6.85872 14.4913 6.85822 14.055V12.8796C6.85872 12.4433 7.03228 12.025 7.34081 11.7165C7.64934 11.4079 8.06765 11.2344 8.50398 11.2339H9.67965C10.116 11.2344 10.5342 11.408 10.8427 11.7165C11.1512 12.025 11.3247 12.4433 11.3251 12.8796V14.055C11.3247 14.4913 11.1512 14.9096 10.8427 15.2181C10.5342 15.5267 10.116 15.7002 9.67965 15.7008ZM8.50398 12.5139C8.407 12.514 8.31401 12.5525 8.24544 12.6211C8.17686 12.6897 8.1383 12.7827 8.13822 12.8796V14.055C8.13838 14.152 8.17697 14.2449 8.24553 14.3134C8.31409 14.382 8.40702 14.4206 8.50398 14.4208H9.67965C9.77658 14.4206 9.86948 14.382 9.93799 14.3134C10.0065 14.2449 10.045 14.1519 10.0451 14.055V12.8796C10.0451 12.7827 10.0066 12.6897 9.93808 12.6211C9.86956 12.5525 9.7766 12.514 9.67965 12.5139H8.50398ZM14.9081 9.57916C14.7384 9.57916 14.5756 9.51173 14.4556 9.39171C14.3356 9.27168 14.2681 9.1089 14.2681 8.93916V7.03612C14.2681 6.86638 14.3356 6.70359 14.4556 6.58357C14.5756 6.46355 14.7384 6.39612 14.9081 6.39612C15.0779 6.39612 15.2407 6.46355 15.3607 6.58357C15.4807 6.70359 15.5481 6.86638 15.5481 7.03612V8.93916C15.5481 9.1089 15.4807 9.27168 15.3607 9.39171C15.2407 9.51173 15.0779 9.57916 14.9081 9.57916ZM14.9081 17.6038C14.7384 17.6038 14.5756 17.5364 14.4556 17.4163C14.3356 17.2963 14.2681 17.1335 14.2681 16.9638V12.126C14.2681 11.9563 14.3356 11.7935 14.4556 11.6735C14.5756 11.5535 14.7384 11.486 14.9081 11.486C15.0779 11.486 15.2407 11.5535 15.3607 11.6735C15.4807 11.7935 15.5481 11.9563 15.5481 12.126V16.9638C15.5481 17.1335 15.4807 17.2963 15.3607 17.4163C15.2407 17.5364 15.0779 17.6038 14.9081 17.6038Z" fill="#202020"/>
<path d="M15.496 12.7661H14.3203C13.884 12.7656 13.4657 12.592 13.1573 12.2835C12.8488 11.9749 12.6753 11.5566 12.6749 11.1203V9.94495C12.6753 9.50866 12.8488 9.09035 13.1573 8.78181C13.4657 8.47327 13.884 8.2997 14.3203 8.29919H15.496C15.9323 8.2997 16.3506 8.47326 16.6592 8.78179C16.9677 9.09032 17.1412 9.50863 17.1417 9.94495V11.1203C17.1412 11.5566 16.9677 11.975 16.6592 12.2835C16.3506 12.592 15.9323 12.7656 15.496 12.7661ZM14.3203 9.57919C14.2234 9.57936 14.1305 9.61796 14.062 9.68653C13.9935 9.7551 13.955 9.84803 13.9549 9.94495V11.1203C13.9549 11.2173 13.9934 11.3102 14.0619 11.3788C14.1304 11.4474 14.2234 11.486 14.3203 11.4861H15.496C15.593 11.486 15.6859 11.4474 15.7545 11.3789C15.8231 11.3103 15.8617 11.2173 15.8617 11.1203V9.94495C15.8616 9.848 15.823 9.75507 15.7544 9.68651C15.6859 9.61795 15.5929 9.57936 15.496 9.57919H14.3203Z" fill="#202020"/>
</svg>
