<svg width="24" height="24" viewBox="0 0 24 24" fill="none" xmlns="http://www.w3.org/2000/svg">
<path d="M7.44322 18.4982C7.27348 18.4982 7.1107 18.4308 6.99067 18.3107C6.87065 18.1907 6.80322 18.0279 6.80322 17.8582V11.7523C6.80322 11.5825 6.87065 11.4197 6.99067 11.2997C7.1107 11.1797 7.27348 11.1123 7.44322 11.1123C7.61296 11.1123 7.77575 11.1797 7.89577 11.2997C8.01579 11.4197 8.08322 11.5825 8.08322 11.7523V17.8582C8.08322 18.0279 8.01579 18.1907 7.89577 18.3107C7.77575 18.4308 7.61296 18.4982 7.44322 18.4982ZM7.44322 9.81755C7.27348 9.81755 7.1107 9.75012 6.99067 9.6301C6.87065 9.51007 6.80322 9.34729 6.80322 9.17755V6.14171C6.80322 5.97197 6.87065 5.80918 6.99067 5.68916C7.1107 5.56914 7.27348 5.50171 7.44322 5.50171C7.61296 5.50171 7.77575 5.56914 7.89577 5.68916C8.01579 5.80918 8.08322 5.97197 8.08322 6.14171V9.17755C8.08322 9.34729 8.01579 9.51007 7.89577 9.6301C7.77575 9.75012 7.61296 9.81755 7.44322 9.81755ZM12.0016 18.4982C11.8319 18.4982 11.6691 18.4308 11.5491 18.3107C11.4291 18.1907 11.3616 18.0279 11.3616 17.8582V13.7279C11.3616 13.5582 11.4291 13.3954 11.5491 13.2754C11.6691 13.1554 11.8319 13.0879 12.0016 13.0879C12.1714 13.0879 12.3341 13.1554 12.4542 13.2754C12.5742 13.3954 12.6416 13.5582 12.6416 13.7279V17.8582C12.6416 18.0279 12.5742 18.1907 12.4542 18.3107C12.3341 18.4308 12.1714 18.4982 12.0016 18.4982ZM12.0016 12.0735C11.8319 12.0735 11.6691 12.0061 11.5491 11.8861C11.4291 11.7661 11.3616 11.6033 11.3616 11.4335V6.14171C11.3616 5.97197 11.4291 5.80918 11.5491 5.68916C11.6691 5.56914 11.8319 5.50171 12.0016 5.50171C12.1714 5.50171 12.3341 5.56914 12.4542 5.68916C12.5742 5.80918 12.6416 5.97197 12.6416 6.14171V11.4335C12.6416 11.6033 12.5742 11.7661 12.4542 11.8861C12.3341 12.0061 12.1714 12.0735 12.0016 12.0735ZM16.5603 18.4982C16.3906 18.4982 16.2278 18.4308 16.1078 18.3107C15.9878 18.1907 15.9203 18.0279 15.9203 17.8582V10.2483C15.9203 10.0785 15.9878 9.91574 16.1078 9.79572C16.2278 9.6757 16.3906 9.60827 16.5603 9.60827C16.7301 9.60827 16.8929 9.6757 17.0129 9.79572C17.1329 9.91574 17.2003 10.0785 17.2003 10.2483V17.8582C17.2003 18.0279 17.1329 18.1907 17.0129 18.3107C16.8929 18.4308 16.7301 18.4982 16.5603 18.4982ZM16.5603 8.66235C16.3906 8.66235 16.2278 8.59492 16.1078 8.4749C15.9878 8.35487 15.9203 8.19209 15.9203 8.02235V6.14171C15.9203 5.97197 15.9878 5.80918 16.1078 5.68916C16.2278 5.56914 16.3906 5.50171 16.5603 5.50171C16.7301 5.50171 16.8929 5.56914 17.0129 5.68916C17.1329 5.80918 17.2003 5.97197 17.2003 6.14171V8.02235C17.2003 8.19209 17.1329 8.35487 17.0129 8.4749C16.8929 8.59492 16.7301 8.66235 16.5603 8.66235Z" fill="#202020"/>
<path d="M8.89252 9.8176H5.98692C5.81719 9.8176 5.6544 9.75017 5.53438 9.63015C5.41435 9.51012 5.34692 9.34734 5.34692 9.1776C5.34692 9.00786 5.41435 8.84507 5.53438 8.72505C5.6544 8.60503 5.81719 8.5376 5.98692 8.5376H8.89252C9.06226 8.5376 9.22505 8.60503 9.34507 8.72505C9.4651 8.84507 9.53252 9.00786 9.53252 9.1776C9.53252 9.34734 9.4651 9.51012 9.34507 9.63015C9.22505 9.75017 9.06226 9.8176 8.89252 9.8176ZM13.2912 14.368H10.3856C10.2159 14.368 10.0531 14.3006 9.9331 14.1805C9.81307 14.0605 9.74564 13.8977 9.74564 13.728C9.74564 13.5583 9.81307 13.3955 9.9331 13.2754C10.0531 13.1554 10.2159 13.088 10.3856 13.088H13.2912C13.461 13.088 13.6238 13.1554 13.7438 13.2754C13.8638 13.3955 13.9312 13.5583 13.9312 13.728C13.9312 13.8977 13.8638 14.0605 13.7438 14.1805C13.6238 14.3006 13.461 14.368 13.2912 14.368ZM17.9943 10.6173H15.0887C14.9189 10.6173 14.7562 10.5498 14.6361 10.4298C14.5161 10.3098 14.4487 10.147 14.4487 9.97728C14.4487 9.80754 14.5161 9.64475 14.6361 9.52473C14.7562 9.40471 14.9189 9.33728 15.0887 9.33728H17.9943C18.164 9.33728 18.3268 9.40471 18.4468 9.52473C18.5669 9.64475 18.6343 9.80754 18.6343 9.97728C18.6343 10.147 18.5669 10.3098 18.4468 10.4298C18.3268 10.5498 18.164 10.6173 17.9943 10.6173Z" fill="#202020"/>
</svg>
