<svg width="24" height="24" viewBox="0 0 24 24" fill="none" xmlns="http://www.w3.org/2000/svg">
<path d="M9.19839 9.32443H7.02879C6.85906 9.32443 6.69627 9.25701 6.57625 9.13698C6.45622 9.01696 6.38879 8.85417 6.38879 8.68443C6.38879 8.5147 6.45622 8.35191 6.57625 8.23189C6.69627 8.11186 6.85906 8.04443 7.02879 8.04443H9.19839C9.36813 8.04443 9.53092 8.11186 9.65094 8.23189C9.77097 8.35191 9.83839 8.5147 9.83839 8.68443C9.83839 8.85417 9.77097 9.01696 9.65094 9.13698C9.53092 9.25701 9.36813 9.32443 9.19839 9.32443ZM18.3472 9.32443H12.832C12.6623 9.32443 12.4995 9.25701 12.3794 9.13698C12.2594 9.01696 12.192 8.85417 12.192 8.68443C12.192 8.5147 12.2594 8.35191 12.3794 8.23189C12.4995 8.11186 12.6623 8.04443 12.832 8.04443H18.3472C18.5169 8.04443 18.6797 8.11186 18.7997 8.23189C18.9198 8.35191 18.9872 8.5147 18.9872 8.68443C18.9872 8.85417 18.9198 9.01696 18.7997 9.13698C18.6797 9.25701 18.5169 9.32443 18.3472 9.32443Z" fill="#202020"/>
<path d="M11.6851 11.1411H10.345C9.87131 11.1405 9.41724 10.9521 9.08232 10.6171C8.7474 10.2822 8.55899 9.82815 8.55839 9.3545V8.01434C8.5589 7.54067 8.74729 7.08655 9.08223 6.75162C9.41716 6.41668 9.87128 6.22829 10.345 6.22778H11.6851C12.1588 6.22821 12.613 6.41656 12.948 6.7515C13.2831 7.08645 13.4715 7.54062 13.472 8.01434V9.3545C13.4715 9.82823 13.2831 10.2824 12.948 10.6173C12.613 10.9523 12.1588 11.1406 11.6851 11.1411ZM10.345 7.50778C10.2107 7.50795 10.0819 7.56138 9.98695 7.65634C9.89199 7.7513 9.83856 7.88005 9.83839 8.01434V9.3545C9.83856 9.4888 9.89199 9.61755 9.98695 9.71251C10.0819 9.80747 10.2107 9.86089 10.345 9.86106H11.6851C11.8195 9.86098 11.9483 9.80759 12.0433 9.71262C12.1384 9.61765 12.1918 9.48885 12.192 9.3545V8.01434C12.1918 7.88005 12.1384 7.7513 12.0434 7.65634C11.9485 7.56138 11.8197 7.50795 11.6854 7.50778H10.345ZM18.3472 15.9555H16.1776C16.0079 15.9555 15.8451 15.888 15.725 15.768C15.605 15.648 15.5376 15.4852 15.5376 15.3155C15.5376 15.1457 15.605 14.9829 15.725 14.8629C15.8451 14.7429 16.0079 14.6755 16.1776 14.6755H18.3472C18.5169 14.6755 18.6797 14.7429 18.7997 14.8629C18.9198 14.9829 18.9872 15.1457 18.9872 15.3155C18.9872 15.4852 18.9198 15.648 18.7997 15.768C18.6797 15.888 18.5169 15.9555 18.3472 15.9555ZM12.544 15.9555H7.02879C6.85906 15.9555 6.69627 15.888 6.57625 15.768C6.45622 15.648 6.38879 15.4852 6.38879 15.3155C6.38879 15.1457 6.45622 14.9829 6.57625 14.8629C6.69627 14.7429 6.85906 14.6755 7.02879 14.6755H12.544C12.7137 14.6755 12.8765 14.7429 12.9965 14.8629C13.1166 14.9829 13.184 15.1457 13.184 15.3155C13.184 15.4852 13.1166 15.648 12.9965 15.768C12.8765 15.888 12.7137 15.9555 12.544 15.9555Z" fill="#202020"/>
<path d="M15.0311 17.7722H13.6909C13.2172 17.7717 12.763 17.5834 12.428 17.2484C12.093 16.9135 11.9046 16.4593 11.9041 15.9856V14.6454C11.9046 14.1718 12.093 13.7177 12.4279 13.3827C12.7628 13.0478 13.2169 12.8594 13.6906 12.8589H15.0308C15.5044 12.8595 15.9585 13.0479 16.2934 13.3828C16.6283 13.7177 16.8167 14.1718 16.8173 14.6454V15.9856C16.8168 16.4592 16.6285 16.9133 16.2936 17.2482C15.9587 17.5831 15.5047 17.7716 15.0311 17.7722ZM13.6909 14.1389C13.5566 14.139 13.4278 14.1924 13.3327 14.2873C13.2377 14.3823 13.1842 14.5111 13.1841 14.6454V15.9856C13.1842 16.1199 13.2376 16.2486 13.3326 16.3436C13.4276 16.4386 13.5563 16.492 13.6906 16.4922H15.0308C15.1651 16.492 15.2938 16.4386 15.3888 16.3436C15.4837 16.2486 15.5372 16.1199 15.5373 15.9856V14.6454C15.5372 14.5112 15.4837 14.3824 15.3888 14.2874C15.2938 14.1925 15.1651 14.1391 15.0308 14.1389H13.6909Z" fill="#202020"/>
</svg>
