<svg width="24" height="24" viewBox="0 0 24 24" fill="none" xmlns="http://www.w3.org/2000/svg">
<path d="M4.5882 15.2355C4.44391 15.2353 4.30392 15.1864 4.19094 15.0966C4.07796 15.0069 3.99862 14.8816 3.9658 14.7411C3.82205 14.1238 3.74958 13.492 3.7498 12.8582C3.7442 11.0585 4.33247 9.30718 5.4234 7.8758C6.48938 6.47511 7.97241 5.44888 9.65891 4.94492C9.73951 4.92109 9.82402 4.91337 9.9076 4.9222C9.99119 4.93103 10.0722 4.95624 10.1461 4.99638C10.2199 5.03653 10.2851 5.09082 10.338 5.15617C10.3908 5.22152 10.4303 5.29664 10.4541 5.37724C10.4779 5.45784 10.4857 5.54234 10.4768 5.62592C10.468 5.70951 10.4428 5.79053 10.4026 5.86437C10.3625 5.93821 10.3082 6.00342 10.2429 6.05628C10.1775 6.10914 10.1024 6.14861 10.0218 6.17244C7.08259 7.0406 5.0298 9.79004 5.0298 12.8582C5.0296 13.394 5.09079 13.928 5.2122 14.4499C5.23415 14.5438 5.23457 14.6415 5.21343 14.7357C5.19229 14.8298 5.15014 14.918 5.09012 14.9935C5.03011 15.0691 4.95379 15.1301 4.86687 15.172C4.77995 15.2139 4.68469 15.2356 4.5882 15.2355ZM12 21.1084C10.9166 21.1114 9.84334 20.8996 8.8423 20.4851C7.84127 20.0707 6.93232 19.4619 6.16804 18.694C6.10546 18.6354 6.05531 18.5648 6.02056 18.4864C5.98581 18.408 5.96716 18.3234 5.96574 18.2377C5.96432 18.1519 5.98014 18.0667 6.01228 17.9872C6.04441 17.9077 6.09219 17.8355 6.15279 17.7748C6.21338 17.7141 6.28556 17.6662 6.36502 17.634C6.44448 17.6018 6.52962 17.5858 6.61536 17.5871C6.70111 17.5884 6.78572 17.6069 6.86417 17.6416C6.94262 17.6762 7.01331 17.7263 7.07204 17.7888C8.37941 19.0952 10.1522 19.829 12.0004 19.8286C13.8487 19.8283 15.6212 19.0938 16.928 17.7868C17.0481 17.6668 17.2109 17.5993 17.3807 17.5993C17.5504 17.5993 17.7133 17.6668 17.8333 17.7868C17.9534 17.9069 18.0208 18.0697 18.0208 18.2395C18.0208 18.4092 17.9534 18.5721 17.8333 18.6921C17.069 19.4605 16.1599 20.0697 15.1587 20.4845C14.1574 20.8992 13.0838 21.1113 12 21.1084ZM19.3895 15.328C19.2923 15.328 19.1964 15.306 19.109 15.2635C19.0217 15.221 18.9451 15.1591 18.8852 15.0827C18.8253 15.0062 18.7836 14.9171 18.7632 14.8221C18.7429 14.7271 18.7444 14.6287 18.7677 14.5344C18.9025 13.9859 18.9705 13.4233 18.9703 12.8585C18.9703 9.74172 16.8762 6.98044 13.8778 6.14396C13.7968 6.12137 13.7211 6.08306 13.655 6.03121C13.5888 5.97936 13.5335 5.91499 13.4923 5.84177C13.451 5.76855 13.4245 5.68792 13.4144 5.60449C13.4043 5.52105 13.4107 5.43643 13.4333 5.35548C13.4559 5.27452 13.4942 5.1988 13.5461 5.13265C13.5979 5.0665 13.6623 5.01121 13.7355 4.96994C13.8087 4.92866 13.8893 4.90221 13.9728 4.8921C14.0562 4.88199 14.1408 4.88841 14.2218 4.911C15.9368 5.39496 17.4507 6.41769 18.5399 7.82812C19.6543 9.26763 20.2563 11.038 20.2503 12.8585C20.2506 13.5266 20.1701 14.1922 20.0106 14.8409C19.9764 14.9798 19.8966 15.1033 19.7841 15.1916C19.6715 15.2799 19.5325 15.3279 19.3895 15.328Z" fill="#202020"/>
<path d="M12 7.96802C11.4981 7.96809 11.0075 7.81931 10.5901 7.54052C10.1728 7.26172 9.84747 6.86542 9.65536 6.40174C9.46324 5.93806 9.41294 5.42783 9.51082 4.93556C9.6087 4.44329 9.85036 3.9911 10.2052 3.63618C10.5601 3.28126 11.0123 3.03955 11.5045 2.94161C11.9968 2.84367 12.507 2.8939 12.9707 3.08596C13.4344 3.27801 13.8308 3.60326 14.1096 4.02058C14.3885 4.43789 14.5373 4.92852 14.5373 5.43042C14.5365 6.10315 14.269 6.7481 13.7933 7.22382C13.3177 7.69954 12.6727 7.96718 12 7.96802ZM12 4.17314C11.7513 4.17308 11.5081 4.24679 11.3012 4.38495C11.0944 4.52312 10.9331 4.71952 10.8379 4.94933C10.7427 5.17914 10.7177 5.43203 10.7663 5.67601C10.8148 5.91999 10.9345 6.1441 11.1104 6.32C11.2863 6.4959 11.5105 6.61568 11.7544 6.66419C11.9984 6.71271 12.2513 6.68778 12.4811 6.59255C12.7109 6.49733 12.9073 6.33609 13.0455 6.12923C13.1837 5.92237 13.2574 5.67918 13.2573 5.43042C13.2574 5.0968 13.125 4.77679 12.8892 4.54073C12.6535 4.30467 12.3336 4.17188 12 4.17154V4.17314ZM18.5069 19.0304C18.005 19.0305 17.5143 18.8817 17.097 18.6029C16.6797 18.3241 16.3544 17.9278 16.1622 17.4641C15.9701 17.0005 15.9198 16.4902 16.0177 15.998C16.1156 15.5057 16.3572 15.0535 16.7121 14.6986C17.067 14.3437 17.5191 14.1019 18.0114 14.004C18.5037 13.9061 19.0139 13.9563 19.4776 14.1484C19.9413 14.3404 20.3376 14.6657 20.6165 15.083C20.8953 15.5003 21.0442 15.9909 21.0442 16.4928C21.0433 17.1655 20.7758 17.8104 20.3001 18.2861C19.8245 18.7618 19.1796 19.0295 18.5069 19.0304ZM18.5069 15.2355C18.2581 15.2355 18.015 15.3092 17.8081 15.4474C17.6012 15.5855 17.44 15.7819 17.3448 16.0117C17.2495 16.2415 17.2246 16.4944 17.2731 16.7384C17.3216 16.9824 17.4414 17.2065 17.6173 17.3824C17.7932 17.5583 18.0173 17.6781 18.2613 17.7266C18.5053 17.7751 18.7582 17.7502 18.988 17.655C19.2178 17.5597 19.4142 17.3985 19.5524 17.1916C19.6905 16.9848 19.7642 16.7416 19.7642 16.4928C19.7638 16.1595 19.6312 15.84 19.3955 15.6043C19.1598 15.3686 18.8402 15.236 18.5069 15.2355ZM5.4189 19.0304C4.917 19.0305 4.42635 18.8817 4.009 18.6029C3.59165 18.3241 3.26635 17.9278 3.07424 17.4641C2.88212 17.0005 2.83183 16.4902 2.9297 15.998C3.02758 15.5057 3.26924 15.0535 3.62412 14.6986C3.97899 14.3437 4.43115 14.1019 4.9234 14.004C5.41566 13.9061 5.9259 13.9563 6.38961 14.1484C6.85331 14.3404 7.24965 14.6657 7.5285 15.083C7.80735 15.5003 7.95618 15.9909 7.95618 16.4928C7.95542 17.1655 7.68787 17.8105 7.21221 18.2862C6.73655 18.7619 6.09163 19.0296 5.4189 19.0304ZM5.4189 15.2355C5.17015 15.2355 4.92696 15.3092 4.7201 15.4474C4.51324 15.5855 4.352 15.7819 4.25677 16.0117C4.16155 16.2415 4.13662 16.4944 4.18513 16.7384C4.23365 16.9824 4.35343 17.2065 4.52933 17.3824C4.70522 17.5583 4.92934 17.6781 5.17332 17.7266C5.4173 17.7751 5.67018 17.7502 5.89999 17.655C6.1298 17.5597 6.32621 17.3985 6.46437 17.1916C6.60253 16.9848 6.67625 16.7416 6.67618 16.4928C6.67584 16.1595 6.54327 15.8399 6.30756 15.6042C6.07185 15.3685 5.75225 15.2359 5.4189 15.2355Z" fill="#202020"/>
</svg>
