<svg width="24" height="24" viewBox="0 0 24 24" fill="none" xmlns="http://www.w3.org/2000/svg">
<path d="M17.3705 15.1284H9.08795C8.89642 15.1283 8.70692 15.0891 8.53114 15.013C8.35537 14.9369 8.19705 14.8256 8.06596 14.686C7.93486 14.5463 7.83377 14.3813 7.76892 14.2011C7.70408 14.0209 7.67685 13.8293 7.68891 13.6381L8.00891 8.58211C8.03176 8.2266 8.1891 7.89312 8.44896 7.64942C8.70882 7.40573 9.0517 7.27011 9.40795 7.27011H17.6896C17.8811 7.27008 18.0706 7.30931 18.2464 7.38538C18.4222 7.46145 18.5805 7.57274 18.7117 7.71239C18.8428 7.85204 18.9438 8.01708 19.0087 8.19733C19.0735 8.37757 19.1007 8.56919 19.0886 8.76035L18.7686 13.8164C18.7458 14.1717 18.5886 14.5051 18.329 14.7488C18.0693 14.9925 17.7266 15.1282 17.3705 15.1284Z" stroke="#202020" stroke-width="1.28069" stroke-linecap="round" stroke-linejoin="round"/>
<path d="M19.0136 9.95364H13.3896" stroke="#202020" stroke-width="1.28069" stroke-linecap="round" stroke-linejoin="round"/>
<path d="M8.00955 8.58116L7.65755 7.465C7.55463 7.13916 7.35054 6.8546 7.07491 6.65263C6.79928 6.45066 6.46646 6.34178 6.12475 6.3418H4.90875" stroke="#202020" stroke-width="1.28069" stroke-linecap="round" stroke-linejoin="round"/>
<path d="M9.38006 17.6586C9.96645 17.6586 10.4418 17.1832 10.4418 16.5969C10.4418 16.0105 9.96645 15.5351 9.38006 15.5351C8.79366 15.5351 8.3183 16.0105 8.3183 16.5969C8.3183 17.1832 8.79366 17.6586 9.38006 17.6586Z" stroke="#202020" stroke-width="1.28069" stroke-linecap="round" stroke-linejoin="round"/>
<path d="M16.327 17.6586C16.9134 17.6586 17.3887 17.1832 17.3887 16.5969C17.3887 16.0105 16.9134 15.5351 16.327 15.5351C15.7406 15.5351 15.2652 16.0105 15.2652 16.5969C15.2652 17.1832 15.7406 17.6586 16.327 17.6586Z" stroke="#202020" stroke-width="1.28069" stroke-linecap="round" stroke-linejoin="round"/>
</svg>
