<svg width="24" height="24" viewBox="0 0 24 24" fill="none" xmlns="http://www.w3.org/2000/svg">
<path d="M9.77565 8.96353H16.1801C16.625 8.9635 17.0531 9.1331 17.3772 9.43777C17.7013 9.74244 17.897 10.1592 17.9245 10.6032L18.3184 16.976C18.3331 17.2142 18.299 17.4529 18.218 17.6773C18.137 17.9018 18.0109 18.1073 17.8475 18.2812C17.6841 18.4551 17.4868 18.5936 17.2678 18.6884C17.0488 18.7831 16.8127 18.832 16.5741 18.832H9.38173C9.14311 18.832 8.90702 18.7831 8.688 18.6884C8.46899 18.5936 8.27169 18.4551 8.10827 18.2812C7.94485 18.1073 7.81876 17.9018 7.73778 17.6773C7.65681 17.4529 7.62265 17.2142 7.63741 16.976L8.03197 10.6032C8.05942 10.1593 8.25505 9.74264 8.57903 9.43799C8.903 9.13334 9.33094 8.96366 9.77565 8.96353Z" stroke="#202020" stroke-width="1.28069" stroke-linecap="round" stroke-linejoin="round"/>
<path d="M10.4368 8.96355V7.41251C10.4368 6.17315 11.5504 5.16867 12.9244 5.16867H13.3251C14.6988 5.16867 15.8128 6.17315 15.8128 7.41251V8.96355" stroke="#202020" stroke-width="1.28069" stroke-linecap="round" stroke-linejoin="round"/>
<path d="M13.1248 15.2253H18.2099" stroke="#202020" stroke-width="1.28069" stroke-linecap="round" stroke-linejoin="round"/>
</svg>
