<svg width="24" height="24" viewBox="0 0 24 24" fill="none" xmlns="http://www.w3.org/2000/svg">
<path d="M6.96795 20.4557C6.06016 20.4547 5.18984 20.0937 4.54793 19.4518C3.90603 18.8099 3.54496 17.9395 3.54395 17.0317V6.96807C3.54395 6.05997 3.90469 5.18906 4.54681 4.54693C5.18894 3.90481 6.05984 3.54407 6.96795 3.54407H17.0319C17.9397 3.54508 18.8101 3.90615 19.452 4.54806C20.0939 5.18996 20.4549 6.06028 20.4559 6.96807V17.0321C20.4559 17.9402 20.0952 18.8111 19.4531 19.4532C18.811 20.0953 17.94 20.4561 17.0319 20.4561L6.96795 20.4557ZM17.0319 4.82439H6.96795C6.39932 4.82439 5.85399 5.05027 5.45191 5.45235C5.04983 5.85443 4.82395 6.39976 4.82395 6.96839V17.0324C4.82445 17.6009 5.0505 18.1459 5.45247 18.5479C5.85444 18.9498 6.39948 19.1759 6.96795 19.1764H17.0319C17.3135 19.1764 17.5923 19.1209 17.8524 19.0132C18.1125 18.9054 18.3489 18.7475 18.548 18.5484C18.7471 18.3493 18.905 18.113 19.0127 17.8529C19.1205 17.5927 19.1759 17.3139 19.1759 17.0324V6.96807C19.1753 6.39968 18.9492 5.85477 18.5472 5.45289C18.1453 5.05101 17.6003 4.82498 17.0319 4.82439Z" fill="#202020"/>
<path d="M11.9187 12.64H11.9117C11.8271 12.6391 11.7436 12.6214 11.666 12.588C11.5883 12.5546 11.518 12.5062 11.4592 12.4455L9.93183 10.8692C9.81512 10.747 9.75147 10.5836 9.75475 10.4147C9.75802 10.2458 9.82797 10.085 9.94933 9.96741C10.0707 9.84985 10.2336 9.78505 10.4026 9.78715C10.5715 9.78925 10.7328 9.85807 10.8512 9.97861L11.9286 11.0906L13.1587 9.87461C13.2801 9.75854 13.4422 9.69483 13.6101 9.69721C13.778 9.69959 13.9383 9.76787 14.0563 9.88732C14.1743 10.0068 14.2407 10.1678 14.241 10.3358C14.2414 10.5037 14.1757 10.665 14.0582 10.785L12.3683 12.4541C12.2488 12.5729 12.0872 12.6397 11.9187 12.64ZM4.18431 17.672C4.01457 17.672 3.85179 17.6046 3.73176 17.4846C3.61174 17.3646 3.54431 17.2018 3.54431 17.032C3.54431 16.8623 3.61174 16.6995 3.73176 16.5795C3.85179 16.4595 4.01457 16.392 4.18431 16.392H19.8157C19.9854 16.392 20.1482 16.4595 20.2682 16.5795C20.3882 16.6995 20.4557 16.8623 20.4557 17.032C20.4557 17.2018 20.3882 17.3646 20.2682 17.4846C20.1482 17.6046 19.9854 17.672 19.8157 17.672H4.18431Z" fill="#202020"/>
</svg>
