<svg width="24" height="24" viewBox="0 0 24 24" fill="none" xmlns="http://www.w3.org/2000/svg">
<path d="M6.96795 20.4557C6.06016 20.4547 5.18984 20.0937 4.54793 19.4518C3.90603 18.8099 3.54496 17.9395 3.54395 17.0317V6.96807C3.54496 6.06028 3.90603 5.18996 4.54793 4.54806C5.18984 3.90615 6.06016 3.54508 6.96795 3.54407H17.0319C17.9397 3.54508 18.8101 3.90615 19.452 4.54806C20.0939 5.18996 20.4549 6.06028 20.4559 6.96807V17.0321C20.4549 17.9399 20.0939 18.8102 19.452 19.4521C18.8101 20.094 17.9397 20.4551 17.0319 20.4561L6.96795 20.4557ZM17.0319 4.82439H6.96795C6.39948 4.8249 5.85444 5.05094 5.45247 5.45291C5.0505 5.85488 4.82445 6.39992 4.82395 6.96839V17.0324C4.82445 17.6009 5.0505 18.1459 5.45247 18.5479C5.85444 18.9498 6.39948 19.1759 6.96795 19.1764H17.0319C17.6004 19.1759 18.1455 18.9498 18.5474 18.5479C18.9494 18.1459 19.1754 17.6009 19.1759 17.0324V6.96807C19.1754 6.39965 18.9493 5.8547 18.5473 5.4528C18.1454 5.0509 17.6004 4.8249 17.0319 4.82439Z" fill="#202020"/>
<path d="M10.3916 14.3088C10.2647 14.3088 10.1407 14.2711 10.0353 14.2004C9.92992 14.1298 9.84791 14.0294 9.79969 13.9121C9.75148 13.7947 9.73923 13.6657 9.7645 13.5413C9.78977 13.417 9.85143 13.303 9.94163 13.2138L11.6315 11.5447C11.6917 11.4853 11.763 11.4384 11.8414 11.4067C11.9198 11.3751 12.0037 11.3592 12.0882 11.3601C12.1727 11.3611 12.2562 11.3787 12.3339 11.4121C12.4115 11.4455 12.4818 11.4939 12.5407 11.5546L14.0677 13.1309C14.1282 13.1908 14.1761 13.2622 14.2086 13.3409C14.2411 13.4196 14.2577 13.504 14.2572 13.5891C14.2567 13.6742 14.2392 13.7584 14.2058 13.8367C14.1724 13.915 14.1237 13.9858 14.0626 14.0451C14.0014 14.1043 13.9291 14.1508 13.8498 14.1817C13.7704 14.2127 13.6858 14.2275 13.6007 14.2253C13.5155 14.2231 13.4317 14.2039 13.3541 14.1689C13.2765 14.1339 13.2067 14.0838 13.1487 14.0215L12.0712 12.9095L10.8412 14.1255C10.7214 14.2435 10.5597 14.3095 10.3916 14.3088ZM4.18419 7.60803C4.01445 7.60803 3.85166 7.54061 3.73164 7.42058C3.61162 7.30056 3.54419 7.13777 3.54419 6.96803C3.54419 6.79829 3.61162 6.63551 3.73164 6.51549C3.85166 6.39546 4.01445 6.32803 4.18419 6.32803H19.8156C19.9853 6.32803 20.1481 6.39546 20.2681 6.51549C20.3881 6.63551 20.4556 6.79829 20.4556 6.96803C20.4556 7.13777 20.3881 7.30056 20.2681 7.42058C20.1481 7.54061 19.9853 7.60803 19.8156 7.60803H4.18419Z" fill="#202020"/>
</svg>
