<svg width="24" height="24" viewBox="0 0 24 24" fill="none" xmlns="http://www.w3.org/2000/svg">
<path d="M6.96801 20.4556C6.06022 20.4546 5.1899 20.0935 4.548 19.4516C3.90609 18.8097 3.54502 17.9394 3.54401 17.0316V6.96795C3.54502 6.06016 3.90609 5.18984 4.548 4.54793C5.1899 3.90603 6.06022 3.54496 6.96801 3.54395H17.032C17.9398 3.54496 18.8101 3.90603 19.452 4.54793C20.0939 5.18984 20.455 6.06016 20.456 6.96795V17.0319C20.455 17.9397 20.0939 18.8101 19.452 19.452C18.8101 20.0939 17.9398 20.4549 17.032 20.4559L6.96801 20.4556ZM17.032 4.82427H6.96801C6.39954 4.82477 5.8545 5.05082 5.45253 5.45279C5.05056 5.85476 4.82451 6.3998 4.82401 6.96827V17.0323C4.82451 17.6007 5.05056 18.1458 5.45253 18.5477C5.8545 18.9497 6.39954 19.1758 6.96801 19.1763H17.032C17.6005 19.1758 18.1455 18.9497 18.5475 18.5477C18.9494 18.1458 19.1755 17.6007 19.176 17.0323V6.96795C19.1754 6.39953 18.9493 5.85458 18.5474 5.45268C18.1454 5.05078 17.6004 4.82477 17.032 4.82427Z" fill="#202020"/>
<path d="M10.3917 14.3087C10.2648 14.3087 10.1408 14.2709 10.0354 14.2003C9.93004 14.1296 9.84803 14.0293 9.79981 13.9119C9.7516 13.7946 9.73935 13.6655 9.76462 13.5412C9.78989 13.4169 9.85155 13.3029 9.94175 13.2136L11.6317 11.5445C11.6918 11.4851 11.7632 11.4382 11.8415 11.4066C11.9199 11.3749 12.0038 11.3591 12.0883 11.36C12.1728 11.3609 12.2563 11.3786 12.334 11.4119C12.4117 11.4453 12.4819 11.4938 12.5408 11.5544L14.0678 13.1308C14.1283 13.1907 14.1762 13.2621 14.2087 13.3408C14.2413 13.4194 14.2578 13.5038 14.2573 13.5889C14.2568 13.6741 14.2394 13.7582 14.2059 13.8365C14.1725 13.9148 14.1238 13.9857 14.0627 14.0449C14.0015 14.1042 13.9292 14.1506 13.8499 14.1816C13.7706 14.2125 13.6859 14.2273 13.6008 14.2251C13.5157 14.2229 13.4319 14.2038 13.3542 14.1688C13.2766 14.1338 13.2068 14.0836 13.1488 14.0213L12.0714 12.9093L10.8413 14.1253C10.7215 14.2434 10.5599 14.3093 10.3917 14.3087ZM4.18431 7.60788C4.01457 7.60788 3.85179 7.54045 3.73176 7.42043C3.61174 7.30041 3.54431 7.13762 3.54431 6.96788C3.54431 6.79814 3.61174 6.63536 3.73176 6.51533C3.85179 6.39531 4.01457 6.32788 4.18431 6.32788H19.8157C19.9854 6.32788 20.1482 6.39531 20.2682 6.51533C20.3882 6.63536 20.4557 6.79814 20.4557 6.96788C20.4557 7.13762 20.3882 7.30041 20.2682 7.42043C20.1482 7.54045 19.9854 7.60788 19.8157 7.60788H4.18431Z" fill="#202020"/>
</svg>
