<svg width="24" height="24" viewBox="0 0 24 24" fill="none" xmlns="http://www.w3.org/2000/svg">
<path d="M18.2528 11.0129H6.98368C6.73602 11.0128 6.49119 10.9601 6.26544 10.8583C6.03969 10.7565 5.83817 10.6078 5.67424 10.4221L4.43776 9.0215C4.15641 8.70213 4.0012 8.29112 4.0012 7.8655C4.0012 7.43988 4.15641 7.02887 4.43776 6.7095L5.67424 5.30886C5.83817 5.12322 6.03969 4.97454 6.26544 4.8727C6.49119 4.77086 6.73602 4.71817 6.98368 4.71814H18.2528C18.7158 4.71856 19.1598 4.9026 19.4873 5.2299C19.8149 5.55719 19.9992 6.00103 20 6.46406V9.26502C19.9997 9.72839 19.8156 10.1727 19.488 10.5004C19.1604 10.8281 18.7162 11.0124 18.2528 11.0129ZM6.98368 5.99814C6.91749 5.99817 6.85206 6.01225 6.79171 6.03945C6.73136 6.06664 6.67747 6.10633 6.6336 6.1559L5.39712 7.55654C5.32195 7.64191 5.28048 7.75175 5.28048 7.8655C5.28048 7.97925 5.32195 8.08909 5.39712 8.17446L6.6336 9.57478C6.67742 9.62443 6.73129 9.66421 6.79164 9.69146C6.852 9.71871 6.91746 9.73283 6.98368 9.73286H18.2528C18.3766 9.73278 18.4954 9.68357 18.583 9.59604C18.6705 9.50851 18.7198 9.38981 18.72 9.26598V6.46406C18.7198 6.34029 18.6706 6.22163 18.5831 6.13411C18.4955 6.04659 18.3769 5.99735 18.2531 5.99718L6.98368 5.99814ZM17.0163 17.9588H5.7472C5.284 17.9584 4.83989 17.7742 4.51232 17.4467C4.18476 17.1192 4.00051 16.6751 4 16.2119V13.4109C4.00051 12.9477 4.18476 12.5037 4.51232 12.1762C4.83989 11.8487 5.284 11.6645 5.7472 11.6641H17.0163C17.2641 11.6643 17.509 11.7171 17.7347 11.8192C17.9605 11.9213 18.1619 12.0702 18.3258 12.2561L19.5622 13.6564C19.8436 13.9758 19.9988 14.3869 19.9988 14.8125C19.9988 15.2382 19.8436 15.6493 19.5622 15.9687L18.3258 17.3693C18.1617 17.5548 17.9601 17.7032 17.7344 17.8048C17.5086 17.9064 17.2639 17.9589 17.0163 17.9588ZM5.7472 12.9441C5.62337 12.9441 5.50464 12.9934 5.41705 13.0809C5.32946 13.1684 5.28017 13.2871 5.28 13.4109V16.2119C5.28017 16.3357 5.32941 16.4543 5.41693 16.5418C5.50445 16.6294 5.62311 16.6786 5.74688 16.6788H17.0163C17.0825 16.6787 17.148 16.6646 17.2084 16.6374C17.2687 16.6101 17.3226 16.5704 17.3664 16.5207L18.6029 15.1204C18.6781 15.035 18.7195 14.9252 18.7195 14.8114C18.7195 14.6977 18.6781 14.5878 18.6029 14.5025L17.3664 13.1018C17.3225 13.0523 17.2686 13.0126 17.2083 12.9854C17.1479 12.9582 17.0825 12.9441 17.0163 12.9441H5.7472Z" fill="#202020"/>
<path d="M12.0001 12.944C11.8304 12.944 11.6676 12.8766 11.5476 12.7565C11.4275 12.6365 11.3601 12.4737 11.3601 12.304V10.3728C11.3601 10.203 11.4275 10.0403 11.5476 9.92024C11.6676 9.80022 11.8304 9.73279 12.0001 9.73279C12.1698 9.73279 12.3326 9.80022 12.4527 9.92024C12.5727 10.0403 12.6401 10.203 12.6401 10.3728V12.304C12.6401 12.4737 12.5727 12.6365 12.4527 12.7565C12.3326 12.8766 12.1698 12.944 12.0001 12.944ZM12.0001 20.6691C11.8304 20.6691 11.6676 20.6017 11.5476 20.4817C11.4275 20.3616 11.3601 20.1988 11.3601 20.0291V17.3187C11.3601 17.149 11.4275 16.9862 11.5476 16.8662C11.6676 16.7461 11.8304 16.6787 12.0001 16.6787C12.1698 16.6787 12.3326 16.7461 12.4527 16.8662C12.5727 16.9862 12.6401 17.149 12.6401 17.3187V20.0291C12.6401 20.1988 12.5727 20.3616 12.4527 20.4817C12.3326 20.6017 12.1698 20.6691 12.0001 20.6691Z" fill="#202020"/>
<path d="M13.8929 20.6692H10.1659C10.0818 20.6692 9.99861 20.6526 9.92096 20.6204C9.84331 20.5883 9.77276 20.5411 9.71333 20.4817C9.6539 20.4223 9.60676 20.3517 9.5746 20.2741C9.54243 20.1964 9.52588 20.1132 9.52588 20.0292C9.52588 19.9451 9.54243 19.8619 9.5746 19.7842C9.60676 19.7066 9.6539 19.636 9.71333 19.5766C9.77276 19.5172 9.84331 19.47 9.92096 19.4379C9.99861 19.4057 10.0818 19.3892 10.1659 19.3892H13.8929C14.0627 19.3892 14.2254 19.4566 14.3455 19.5766C14.4655 19.6966 14.5329 19.8594 14.5329 20.0292C14.5329 20.1989 14.4655 20.3617 14.3455 20.4817C14.2254 20.6017 14.0627 20.6692 13.8929 20.6692Z" fill="#202020"/>
</svg>
