<svg width="24" height="24" viewBox="0 0 24 24" fill="none" xmlns="http://www.w3.org/2000/svg">
<path d="M18.2528 11.0127H6.98368C6.73602 11.0127 6.49119 10.96 6.26544 10.8582C6.03969 10.7563 5.83817 10.6077 5.67424 10.422L4.43776 9.02138C4.15641 8.70201 4.0012 8.291 4.0012 7.86538C4.0012 7.43976 4.15641 7.02875 4.43776 6.70938L5.67424 5.30874C5.83817 5.12309 6.03969 4.97442 6.26544 4.87258C6.49119 4.77074 6.73602 4.71805 6.98368 4.71802H18.2528C18.7158 4.71844 19.1598 4.90248 19.4873 5.22978C19.8149 5.55707 19.9992 6.0009 20 6.46394V9.2649C19.9997 9.72826 19.8156 10.1726 19.488 10.5003C19.1604 10.828 18.7162 11.0123 18.2528 11.0127ZM6.98368 5.99802C6.91749 5.99805 6.85206 6.01213 6.79171 6.03933C6.73136 6.06652 6.67747 6.10621 6.6336 6.15578L5.39712 7.55642C5.32195 7.64179 5.28048 7.75163 5.28048 7.86538C5.28048 7.97912 5.32195 8.08897 5.39712 8.17434L6.6336 9.57466C6.67742 9.62431 6.73129 9.66409 6.79164 9.69134C6.852 9.71859 6.91746 9.7327 6.98368 9.73274H18.2528C18.3766 9.73265 18.4954 9.68345 18.583 9.59592C18.6705 9.50839 18.7198 9.38969 18.72 9.26586V6.46394C18.7198 6.34017 18.6706 6.22151 18.5831 6.13399C18.4955 6.04647 18.3769 5.99723 18.2531 5.99706L6.98368 5.99802ZM17.0163 17.9587H5.7472C5.284 17.9582 4.83989 17.7741 4.51232 17.4466C4.18476 17.1191 4.00051 16.675 4 16.2118V13.4108C4.00051 12.9476 4.18476 12.5035 4.51232 12.176C4.83989 11.8485 5.284 11.6644 5.7472 11.6639H17.0163C17.2641 11.6641 17.509 11.717 17.7347 11.8191C17.9605 11.9211 18.1619 12.0701 18.3258 12.2559L19.5622 13.6563C19.8436 13.9757 19.9988 14.3867 19.9988 14.8124C19.9988 15.2381 19.8436 15.6492 19.5622 15.9686L18.3258 17.3692C18.1617 17.5546 17.9601 17.7031 17.7344 17.8047C17.5086 17.9063 17.2639 17.9588 17.0163 17.9587ZM5.7472 12.9439C5.62337 12.944 5.50464 12.9932 5.41705 13.0808C5.32946 13.1683 5.28017 13.287 5.28 13.4108V16.2118C5.28017 16.3356 5.32941 16.4542 5.41693 16.5417C5.50445 16.6292 5.62311 16.6785 5.74688 16.6787H17.0163C17.0825 16.6786 17.148 16.6645 17.2084 16.6373C17.2687 16.61 17.3226 16.5702 17.3664 16.5206L18.6029 15.1203C18.678 15.0349 18.7195 14.925 18.7195 14.8113C18.7195 14.6976 18.678 14.5877 18.6029 14.5023L17.3664 13.1017C17.3225 13.0521 17.2686 13.0124 17.2083 12.9852C17.1479 12.9581 17.0825 12.944 17.0163 12.9439H5.7472Z" fill="#202020"/>
<path d="M12 12.944C11.8302 12.944 11.6675 12.8766 11.5474 12.7565C11.4274 12.6365 11.36 12.4737 11.36 12.304V10.3728C11.36 10.203 11.4274 10.0403 11.5474 9.92024C11.6675 9.80022 11.8302 9.73279 12 9.73279C12.1697 9.73279 12.3325 9.80022 12.4525 9.92024C12.5726 10.0403 12.64 10.203 12.64 10.3728V12.304C12.64 12.4737 12.5726 12.6365 12.4525 12.7565C12.3325 12.8766 12.1697 12.944 12 12.944ZM12 20.6691C11.8302 20.6691 11.6675 20.6017 11.5474 20.4817C11.4274 20.3616 11.36 20.1988 11.36 20.0291V17.3187C11.36 17.149 11.4274 16.9862 11.5474 16.8662C11.6675 16.7461 11.8302 16.6787 12 16.6787C12.1697 16.6787 12.3325 16.7461 12.4525 16.8662C12.5726 16.9862 12.64 17.149 12.64 17.3187V20.0291C12.64 20.1988 12.5726 20.3616 12.4525 20.4817C12.3325 20.6017 12.1697 20.6691 12 20.6691Z" fill="#202020"/>
<path d="M13.8928 20.6692H10.1658C10.0817 20.6692 9.99849 20.6526 9.92084 20.6204C9.84319 20.5883 9.77264 20.5411 9.71321 20.4817C9.65378 20.4223 9.60664 20.3517 9.57447 20.2741C9.54231 20.1964 9.52576 20.1132 9.52576 20.0292C9.52576 19.9451 9.54231 19.8619 9.57447 19.7842C9.60664 19.7066 9.65378 19.636 9.71321 19.5766C9.77264 19.5172 9.84319 19.47 9.92084 19.4379C9.99849 19.4057 10.0817 19.3892 10.1658 19.3892H13.8928C14.0625 19.3892 14.2253 19.4566 14.3453 19.5766C14.4654 19.6966 14.5328 19.8594 14.5328 20.0292C14.5328 20.1989 14.4654 20.3617 14.3453 20.4817C14.2253 20.6017 14.0625 20.6692 13.8928 20.6692Z" fill="#202020"/>
</svg>
