<svg width="24" height="24" viewBox="0 0 24 24" fill="none" xmlns="http://www.w3.org/2000/svg">
<path d="M16.2211 20.5488H7.68283C7.02213 20.5478 6.38878 20.2849 5.92162 19.8177C5.45446 19.3504 5.1916 18.7171 5.19067 18.0563V5.99427C5.19169 5.33362 5.45458 4.70032 5.92173 4.23316C6.38888 3.76601 7.02218 3.50312 7.68283 3.50211H12.5964C13.0186 3.50211 13.4358 3.59236 13.8202 3.76682C14.2046 3.94128 14.5473 4.1959 14.8252 4.51363L18.0387 8.18659C18.5159 8.7318 18.7764 9.43322 18.7708 10.1578L18.7132 18.0589C18.7116 18.7192 18.4485 19.3519 17.9814 19.8186C17.5143 20.2852 16.8813 20.5478 16.2211 20.5488ZM7.68283 4.78211C7.36148 4.78253 7.05341 4.91037 6.82618 5.13761C6.59894 5.36484 6.4711 5.67291 6.47067 5.99427V18.0563C6.47101 18.3778 6.59882 18.6859 6.82606 18.9132C7.0533 19.1405 7.36142 19.2684 7.68283 19.2688H16.2211C16.5425 19.2684 16.8506 19.1405 17.0778 18.9132C17.3051 18.6859 17.4329 18.3778 17.4332 18.0563V18.0519L17.4908 10.1479C17.4943 9.73614 17.3462 9.33752 17.0748 9.02787L13.8617 5.35619C13.7039 5.17587 13.5094 5.03137 13.2911 4.93236C13.0729 4.83335 12.8361 4.78212 12.5964 4.78211H7.68283Z" fill="#202020"/>
<path d="M10.7655 17.2948C10.5993 17.2949 10.4396 17.2301 10.3204 17.1143L9.01061 15.8455C8.94985 15.7867 8.90135 15.7164 8.86792 15.6387C8.83449 15.561 8.81679 15.4775 8.81584 15.3929C8.81488 15.3084 8.8307 15.2244 8.86238 15.146C8.89405 15.0676 8.94095 14.9963 9.00037 14.9361L10.3872 13.5319C10.4464 13.4721 10.5167 13.4245 10.5941 13.3919C10.6716 13.3593 10.7548 13.3422 10.8389 13.3417C10.923 13.3413 11.0063 13.3573 11.0842 13.3891C11.162 13.4208 11.2329 13.4675 11.2927 13.5266C11.3525 13.5857 11.4001 13.656 11.4327 13.7335C11.4653 13.811 11.4824 13.8942 11.4829 13.9783C11.4833 14.0623 11.4673 14.1457 11.4355 14.2236C11.4038 14.3014 11.3571 14.3723 11.298 14.4321L10.3652 15.3764L11.2109 16.1956C11.3025 16.2843 11.3656 16.3983 11.3919 16.523C11.4183 16.6477 11.4068 16.7775 11.359 16.8957C11.3111 17.0138 11.2291 17.115 11.1233 17.1862C11.0176 17.2575 10.893 17.2955 10.7655 17.2954V17.2948ZM13.2346 17.3175C13.1071 17.3176 12.9825 17.2796 12.8768 17.2083C12.771 17.1371 12.689 17.0359 12.6411 16.9178C12.5933 16.7996 12.5818 16.6698 12.6082 16.5451C12.6345 16.4204 12.6976 16.3063 12.7892 16.2177L13.6349 15.3985L12.7021 14.4542C12.5828 14.3334 12.5164 14.1702 12.5175 14.0004C12.5185 13.8307 12.587 13.6683 12.7077 13.549C12.8285 13.4297 12.9917 13.3633 13.1614 13.3644C13.3312 13.3654 13.4936 13.4339 13.6128 13.5546L14.9997 14.9588C15.0591 15.019 15.106 15.0903 15.1377 15.1687C15.1694 15.2472 15.1852 15.3311 15.1843 15.4156C15.1833 15.5002 15.1656 15.5837 15.1322 15.6614C15.0987 15.7391 15.0502 15.8094 14.9895 15.8682L13.6797 17.137C13.5606 17.253 13.4009 17.3178 13.2346 17.3175Z" fill="#202020"/>
</svg>
