<svg width="24" height="24" viewBox="0 0 24 24" fill="none" xmlns="http://www.w3.org/2000/svg">
<path d="M15.7897 20.4557H8.21022C7.37884 20.4546 6.58182 20.1238 5.99395 19.536C5.40607 18.9481 5.07532 18.1511 5.07422 17.3197V6.68098C5.07532 5.8496 5.40607 5.05259 5.99395 4.46471C6.58182 3.87684 7.37884 3.54608 8.21022 3.54498H14.3094C14.5158 3.54529 14.7199 3.58829 14.9088 3.67128C15.0978 3.75427 15.2675 3.87546 15.4073 4.02722L18.5325 7.42402C18.7859 7.69914 18.9264 8.05959 18.9261 8.43362V17.3191C18.9251 18.1506 18.5944 18.9478 18.0064 19.5359C17.4185 20.1239 16.6213 20.4547 15.7897 20.4557ZM8.21022 4.82434C7.71818 4.82502 7.2465 5.02078 6.89858 5.3687C6.55066 5.71662 6.3549 6.18831 6.35422 6.68034V17.3191C6.3549 17.8111 6.55066 18.2828 6.89858 18.6307C7.2465 18.9786 7.71818 19.1744 8.21022 19.1751H15.7897C16.2818 19.1744 16.7535 18.9786 17.1014 18.6307C17.4493 18.2828 17.6451 17.8111 17.6457 17.3191V8.43458C17.6458 8.38145 17.6258 8.33027 17.5897 8.29122L14.464 4.89282C14.4441 4.87128 14.42 4.85408 14.3932 4.8423C14.3664 4.83051 14.3374 4.8244 14.3081 4.82434H8.21022Z" fill="#202020"/>
<path d="M13.728 17.4701H10.272C9.79433 17.4695 9.33634 17.2796 8.99854 16.9418C8.66073 16.6041 8.47069 16.1461 8.47009 15.6685V12.2125C8.47052 11.7347 8.66049 11.2765 8.99831 10.9387C9.33614 10.6008 9.79421 10.4107 10.272 10.4102H13.728C14.2058 10.4107 14.6638 10.6007 15.0016 10.9385C15.3394 11.2764 15.5294 11.7344 15.5299 12.2121V15.6681C15.5294 16.1459 15.3394 16.6039 15.0016 16.9417C14.6638 17.2795 14.2058 17.4695 13.728 17.4701ZM10.272 11.6902C10.1336 11.6904 10.001 11.7454 9.90315 11.8433C9.8053 11.9411 9.75026 12.0738 9.75009 12.2121V15.6681C9.75018 15.8065 9.80519 15.9392 9.90305 16.0371C10.0009 16.135 10.1336 16.19 10.272 16.1901H13.728C13.8664 16.19 13.999 16.135 14.0969 16.0372C14.1947 15.9394 14.2498 15.8068 14.2499 15.6685V12.2125C14.2498 12.074 14.1948 11.9413 14.097 11.8434C13.9991 11.7455 13.8664 11.6904 13.728 11.6902H10.272Z" fill="#202020"/>
<path d="M12 17.4307C11.8302 17.4307 11.6675 17.3633 11.5474 17.2432C11.4274 17.1232 11.36 16.9604 11.36 16.7907V11.0502C11.36 10.8805 11.4274 10.7177 11.5474 10.5977C11.6675 10.4776 11.8302 10.4102 12 10.4102C12.1697 10.4102 12.3325 10.4776 12.4525 10.5977C12.5726 10.7177 12.64 10.8805 12.64 11.0502V16.7907C12.64 16.9604 12.5726 17.1232 12.4525 17.2432C12.3325 17.3633 12.1697 17.4307 12 17.4307Z" fill="#202020"/>
<path d="M14.8704 14.56H9.12962C8.95989 14.56 8.7971 14.4926 8.67708 14.3726C8.55705 14.2526 8.48962 14.0898 8.48962 13.92C8.48962 13.7503 8.55705 13.5875 8.67708 13.4675C8.7971 13.3475 8.95989 13.28 9.12962 13.28H14.8704C15.0402 13.28 15.2029 13.3475 15.323 13.4675C15.443 13.5875 15.5104 13.7503 15.5104 13.92C15.5104 14.0898 15.443 14.2526 15.323 14.3726C15.2029 14.4926 15.0402 14.56 14.8704 14.56Z" fill="#202020"/>
</svg>
