<svg width="24" height="24" viewBox="0 0 24 24" fill="none" xmlns="http://www.w3.org/2000/svg">
<path d="M16.2211 20.5489H7.68289C7.02219 20.5479 6.38884 20.285 5.92168 19.8177C5.45452 19.3505 5.19167 18.7171 5.19073 18.0564V5.99436C5.19175 5.33371 5.45464 4.70041 5.92179 4.23326C6.38894 3.76611 7.02224 3.50321 7.68289 3.5022H12.5965C13.0186 3.5022 13.4359 3.59245 13.8203 3.76691C14.2047 3.94137 14.5474 4.19599 14.8253 4.51372L18.0387 8.18668C18.516 8.7319 18.7765 9.43331 18.7709 10.1579L18.7133 18.059C18.7117 18.7193 18.4485 19.352 17.9814 19.8187C17.5144 20.2853 16.8814 20.5479 16.2211 20.5489ZM7.68289 4.7822C7.36154 4.78262 7.05347 4.91047 6.82624 5.1377C6.599 5.36493 6.47116 5.673 6.47073 5.99436V18.0564C6.47107 18.3778 6.59888 18.686 6.82612 18.9133C7.05336 19.1406 7.36148 19.2685 7.68289 19.2689H16.2211C16.5425 19.2685 16.8507 19.1406 17.0779 18.9133C17.3051 18.686 17.433 18.3778 17.4333 18.0564V18.052L17.4909 10.148C17.4943 9.73623 17.3463 9.33761 17.0749 9.02796L13.8618 5.35628C13.704 5.17596 13.5094 5.03146 13.2912 4.93245C13.073 4.83344 12.8361 4.78221 12.5965 4.7822H7.68289Z" fill="#202020"/>
<path d="M10.7655 17.2949C10.5992 17.295 10.4395 17.2302 10.3203 17.1144L9.01058 15.8456C8.94982 15.7867 8.90132 15.7165 8.86789 15.6388C8.83446 15.5611 8.81676 15.4776 8.81581 15.393C8.81485 15.3084 8.83067 15.2245 8.86235 15.1461C8.89402 15.0677 8.94092 14.9963 9.00034 14.9361L10.3872 13.532C10.4463 13.4722 10.5166 13.4246 10.5941 13.392C10.6716 13.3593 10.7548 13.3423 10.8388 13.3418C10.9229 13.3413 11.0063 13.3574 11.0841 13.3891C11.162 13.4208 11.2329 13.4676 11.2927 13.5267C11.3525 13.5858 11.4 13.6561 11.4327 13.7336C11.4653 13.8111 11.4823 13.8942 11.4828 13.9783C11.4833 14.0624 11.4672 14.1457 11.4355 14.2236C11.4038 14.3015 11.357 14.3723 11.2979 14.4321L10.3651 15.3765L11.2109 16.1957C11.3025 16.2843 11.3655 16.3983 11.3919 16.5231C11.4183 16.6478 11.4068 16.7776 11.359 16.8957C11.3111 17.0139 11.229 17.1151 11.1233 17.1863C11.0176 17.2575 10.8929 17.2956 10.7655 17.2955V17.2949ZM13.2346 17.3176C13.1071 17.3176 12.9825 17.2796 12.8767 17.2084C12.771 17.1372 12.6889 17.036 12.6411 16.9178C12.5932 16.7997 12.5817 16.6699 12.6081 16.5451C12.6345 16.4204 12.6975 16.3064 12.7891 16.2177L13.6349 15.3985L12.7021 14.4542C12.5828 14.3334 12.5164 14.1702 12.5174 14.0005C12.5185 13.8307 12.5869 13.6684 12.7077 13.5491C12.8285 13.4298 12.9917 13.3634 13.1614 13.3644C13.3312 13.3655 13.4935 13.4339 13.6128 13.5547L14.9997 14.9589C15.0591 15.019 15.106 15.0904 15.1377 15.1688C15.1694 15.2472 15.1852 15.3311 15.1842 15.4157C15.1833 15.5003 15.1656 15.5838 15.1321 15.6615C15.0987 15.7392 15.0502 15.8095 14.9895 15.8683L13.6797 17.1371C13.5606 17.2531 13.4008 17.3179 13.2346 17.3176Z" fill="#202020"/>
</svg>
