<svg width="24" height="24" viewBox="0 0 24 24" fill="none" xmlns="http://www.w3.org/2000/svg">
<path d="M15.7897 20.4557H8.21022C7.37884 20.4546 6.58182 20.1239 5.99395 19.536C5.40607 18.9481 5.07532 18.1511 5.07422 17.3197V6.68098C5.07532 5.8496 5.40607 5.05259 5.99395 4.46471C6.58182 3.87684 7.37884 3.54608 8.21022 3.54498H14.3094C14.5158 3.54529 14.7199 3.58829 14.9088 3.67128C15.0978 3.75427 15.2675 3.87546 15.4073 4.02722L18.5325 7.42402C18.7859 7.69914 18.9264 8.05959 18.9261 8.43362V17.3191C18.9251 18.1506 18.5944 18.9478 18.0064 19.5359C17.4185 20.1239 16.6213 20.4547 15.7897 20.4557ZM8.21022 4.82434C7.71818 4.82502 7.2465 5.02078 6.89858 5.3687C6.55066 5.71662 6.3549 6.18831 6.35422 6.68034V17.3191C6.3549 17.8111 6.55066 18.2828 6.89858 18.6307C7.2465 18.9786 7.71818 19.1744 8.21022 19.1751H15.7897C16.2818 19.1744 16.7535 18.9786 17.1014 18.6307C17.4493 18.2828 17.6451 17.8111 17.6457 17.3191V8.43458C17.6458 8.38145 17.6258 8.33027 17.5897 8.29122L14.464 4.89282C14.4441 4.87128 14.42 4.85408 14.3932 4.8423C14.3664 4.83051 14.3374 4.8244 14.3081 4.82434H8.21022Z" fill="#202020"/>
<path d="M13.7281 17.4701H10.2721C9.79445 17.4696 9.33647 17.2796 8.99866 16.9419C8.66085 16.6042 8.47081 16.1462 8.47021 15.6685V12.2125C8.47064 11.7347 8.66061 11.2766 8.99843 10.9387C9.33626 10.6008 9.79434 10.4108 10.2721 10.4103H13.7281C14.2059 10.4108 14.6639 10.6008 15.0017 10.9386C15.3395 11.2764 15.5295 11.7345 15.5301 12.2122V15.6682C15.5295 16.1459 15.3395 16.604 15.0017 16.9418C14.6639 17.2796 14.2059 17.4696 13.7281 17.4701ZM10.2721 11.6903C10.1338 11.6904 10.0011 11.7455 9.90327 11.8433C9.80543 11.9412 9.75038 12.0738 9.75021 12.2122V15.6682C9.7503 15.8066 9.80531 15.9393 9.90317 16.0372C10.001 16.135 10.1337 16.19 10.2721 16.1901H13.7281C13.8665 16.19 13.9991 16.1351 14.097 16.0373C14.1948 15.9395 14.2499 15.8069 14.2501 15.6685V12.2125C14.25 12.0741 14.195 11.9414 14.0971 11.8434C13.9993 11.7455 13.8666 11.6904 13.7281 11.6903H10.2721Z" fill="#202020"/>
<path d="M12.0001 17.4308C11.8304 17.4308 11.6676 17.3633 11.5476 17.2433C11.4275 17.1233 11.3601 16.9605 11.3601 16.7908V11.0503C11.3601 10.8805 11.4275 10.7178 11.5476 10.5977C11.6676 10.4777 11.8304 10.4103 12.0001 10.4103C12.1698 10.4103 12.3326 10.4777 12.4527 10.5977C12.5727 10.7178 12.6401 10.8805 12.6401 11.0503V16.7908C12.6401 16.9605 12.5727 17.1233 12.4527 17.2433C12.3326 17.3633 12.1698 17.4308 12.0001 17.4308Z" fill="#202020"/>
<path d="M14.8703 14.56H9.1295C8.95976 14.56 8.79698 14.4926 8.67695 14.3726C8.55693 14.2526 8.4895 14.0898 8.4895 13.92C8.4895 13.7503 8.55693 13.5875 8.67695 13.4675C8.79698 13.3475 8.95976 13.28 9.1295 13.28H14.8703C15.04 13.28 15.2028 13.3475 15.3229 13.4675C15.4429 13.5875 15.5103 13.7503 15.5103 13.92C15.5103 14.0898 15.4429 14.2526 15.3229 14.3726C15.2028 14.4926 15.04 14.56 14.8703 14.56Z" fill="#202020"/>
</svg>
