<svg width="24" height="24" viewBox="0 0 24 24" fill="none" xmlns="http://www.w3.org/2000/svg">
<path d="M12 20.6807C9.99178 20.6806 8.04571 19.9842 6.49338 18.7101C4.94104 17.4361 3.87849 15.6632 3.48676 13.6935C3.09503 11.7239 3.39837 9.67934 4.34508 7.90827C5.2918 6.1372 6.82331 4.74917 8.67869 3.98069C10.5341 3.21222 12.5985 3.11083 14.5202 3.69382C16.442 4.27681 18.1021 5.50809 19.2178 7.17788C20.3335 8.84767 20.8357 10.8526 20.6389 12.8512C20.442 14.8498 19.5583 16.7182 18.1382 18.1383C17.334 18.9468 16.3774 19.5878 15.3238 20.0242C14.2701 20.4606 13.1404 20.6837 12 20.6807ZM12 4.59937C7.91937 4.59937 4.59937 7.91937 4.59937 12C4.59937 16.0806 7.91937 19.4007 12 19.4007C16.0806 19.4007 19.4006 16.0806 19.4006 12C19.4006 7.91937 16.0806 4.59937 12 4.59937Z" fill="#202020"/>
</svg>
