<svg width="24" height="24" viewBox="0 0 24 24" fill="none" xmlns="http://www.w3.org/2000/svg">
<path d="M14.9344 20.4557H9.06591C8.51056 20.455 7.97816 20.2341 7.58547 19.8414C7.19278 19.4487 6.97187 18.9163 6.97119 18.361V5.63903C6.97187 5.08369 7.19278 4.55128 7.58547 4.15859C7.97816 3.7659 8.51056 3.54499 9.06591 3.54431H14.9344C15.4897 3.54499 16.0221 3.76591 16.4147 4.15861C16.8074 4.55131 17.0282 5.08371 17.0288 5.63903V18.361C17.0282 18.9163 16.8074 19.4487 16.4147 19.8414C16.0221 20.2341 15.4897 20.455 14.9344 20.4557ZM9.06591 4.82431C8.84991 4.82457 8.64283 4.91048 8.4901 5.06322C8.33736 5.21595 8.25145 5.42303 8.25119 5.63903V18.361C8.25145 18.577 8.33736 18.784 8.4901 18.9368C8.64283 19.0895 8.84991 19.1754 9.06591 19.1757H14.9344C15.1503 19.1753 15.3573 19.0894 15.51 18.9367C15.6627 18.7839 15.7485 18.5769 15.7488 18.361V5.63903C15.7485 5.42309 15.6627 5.21606 15.51 5.06333C15.3573 4.91061 15.1503 4.82465 14.9344 4.82431H9.06591Z" fill="#202020"/>
<path d="M7.52962 17.2301H5.82402C5.30338 17.2301 4.80514 16.9689 4.45666 16.5139C4.1421 16.103 3.96802 15.5661 3.96802 15.0022V8.99774C3.96802 8.4339 4.14114 7.89694 4.45538 7.48606C4.80386 7.03102 5.3021 6.7699 5.82274 6.7699H7.43042C7.60016 6.7699 7.76294 6.83733 7.88297 6.95735C8.00299 7.07737 8.07042 7.24016 8.07042 7.4099C8.07042 7.57964 8.00299 7.74242 7.88297 7.86245C7.76294 7.98247 7.60016 8.0499 7.43042 8.0499H5.82402C5.66114 8.0499 5.5341 8.18398 5.47202 8.26398C5.32962 8.4499 5.24802 8.71742 5.24802 8.99774V15.0022C5.24802 15.5446 5.55138 15.9501 5.82402 15.9501H7.52962C7.69936 15.9501 7.86214 16.0175 7.98217 16.1375C8.10219 16.2575 8.16962 16.4203 8.16962 16.5901C8.16962 16.7598 8.10219 16.9226 7.98217 17.0426C7.86214 17.1626 7.69936 17.2301 7.52962 17.2301ZM18.24 17.2301H16.4275C16.2578 17.2301 16.095 17.1626 15.975 17.0426C15.855 16.9226 15.7875 16.7598 15.7875 16.5901C15.7875 16.4203 15.855 16.2575 15.975 16.1375C16.095 16.0175 16.2578 15.9501 16.4275 15.9501H18.24C18.5114 15.9501 18.816 15.5446 18.816 15.0022V8.99774C18.816 8.45534 18.5123 8.0499 18.24 8.0499H16.4275C16.2578 8.0499 16.095 7.98247 15.975 7.86245C15.855 7.74242 15.7875 7.57964 15.7875 7.4099C15.7875 7.24016 15.855 7.07737 15.975 6.95735C16.095 6.83733 16.2578 6.7699 16.4275 6.7699H18.24C18.761 6.7699 19.2592 7.03102 19.6074 7.48606C19.9219 7.89694 20.0951 8.4339 20.0951 8.99774V15.0022C20.0951 15.5661 19.9219 16.103 19.6074 16.5139C19.2592 16.9689 18.761 17.2301 18.24 17.2301Z" fill="#202020"/>
</svg>
