<svg width="24" height="24" viewBox="0 0 24 24" fill="none" xmlns="http://www.w3.org/2000/svg">
<path d="M18.1213 16.9968H5.39941C4.84409 16.9962 4.31168 16.7754 3.91898 16.3827C3.52629 15.9901 3.30537 15.4577 3.30469 14.9024V9.03392C3.30536 8.47858 3.52628 7.94617 3.91897 7.55348C4.31165 7.16079 4.84406 6.93988 5.39941 6.9392H18.1213C18.6767 6.93988 19.2091 7.16079 19.6018 7.55348C19.9945 7.94617 20.2154 8.47858 20.216 9.03392V14.9024C20.2154 15.4577 19.9944 15.9901 19.6017 16.3827C19.2091 16.7754 18.6766 16.9962 18.1213 16.9968ZM5.39941 8.2192C5.18341 8.21946 4.97633 8.30538 4.82359 8.45811C4.67086 8.61084 4.58494 8.81792 4.58469 9.03392V14.9024C4.58503 15.1183 4.67098 15.3253 4.82371 15.478C4.97643 15.6307 5.18346 15.7165 5.39941 15.7168H18.1213C18.3373 15.7165 18.5443 15.6307 18.697 15.478C18.8498 15.3253 18.9357 15.1183 18.936 14.9024V9.03392C18.9358 8.81792 18.8499 8.61084 18.6971 8.45811C18.5444 8.30538 18.3373 8.21946 18.1213 8.2192H5.39941ZM17.8592 5.3392H5.66149C5.49175 5.3392 5.32896 5.27178 5.20894 5.15175C5.08892 5.03173 5.02149 4.86894 5.02149 4.6992C5.02149 4.52947 5.08892 4.36668 5.20894 4.24666C5.32896 4.12663 5.49175 4.0592 5.66149 4.0592H17.8592C18.029 4.0592 18.1918 4.12663 18.3118 4.24666C18.4318 4.36668 18.4992 4.52947 18.4992 4.6992C18.4992 4.86894 18.4318 5.03173 18.3118 5.15175C18.1918 5.27178 18.029 5.3392 17.8592 5.3392ZM17.8592 19.8768H5.66149C5.49175 19.8768 5.32896 19.8094 5.20894 19.6894C5.08892 19.5693 5.02149 19.4065 5.02149 19.2368C5.02149 19.0671 5.08892 18.9043 5.20894 18.7843C5.32896 18.6642 5.49175 18.5968 5.66149 18.5968H17.8592C18.029 18.5968 18.1918 18.6642 18.3118 18.7843C18.4318 18.9043 18.4992 19.0671 18.4992 19.2368C18.4992 19.4065 18.4318 19.5693 18.3118 19.6894C18.1918 19.8094 18.029 19.8768 17.8592 19.8768Z" fill="#202020"/>
</svg>
