<svg width="24" height="24" viewBox="0 0 24 24" fill="none" xmlns="http://www.w3.org/2000/svg">
<path d="M18.3931 16.9968H5.67114C5.11582 16.9962 4.58341 16.7754 4.19071 16.3827C3.79801 15.9901 3.57709 15.4577 3.57642 14.9024V9.03393C3.57709 8.47858 3.798 7.94618 4.19069 7.55349C4.58338 7.1608 5.11579 6.93989 5.67114 6.93921H18.3931C18.9484 6.93989 19.4807 7.16081 19.8734 7.55351C20.266 7.9462 20.4869 8.47861 20.4875 9.03393V14.9024C20.4869 15.4577 20.266 15.9901 19.8734 16.3827C19.4807 16.7754 18.9483 16.9962 18.3931 16.9968ZM5.67114 8.21921C5.45514 8.21946 5.24806 8.30538 5.09532 8.45812C4.94259 8.61085 4.85667 8.81793 4.85642 9.03393V14.9024C4.85675 15.1184 4.94271 15.3253 5.09544 15.478C5.24816 15.6307 5.45519 15.7166 5.67114 15.7168H18.3931C18.609 15.7166 18.816 15.6307 18.9686 15.478C19.1213 15.3253 19.2072 15.1183 19.2075 14.9024V9.03393C19.2073 8.81796 19.1214 8.61088 18.9688 8.45813C18.8161 8.30539 18.609 8.21946 18.3931 8.21921H5.67114Z" fill="#202020"/>
<path d="M7.442 8.13785C7.27226 8.13785 7.10948 8.07042 6.98945 7.9504C6.86943 7.83037 6.802 7.66759 6.802 7.49785V5.79193C6.802 5.27097 7.06312 4.77273 7.51816 4.42425C7.92904 4.11001 8.466 3.93689 9.02984 3.93689H15.0343C15.5982 3.93689 16.1351 4.11001 16.546 4.42425C17.001 4.77273 17.2622 5.27097 17.2622 5.79193V7.39929C17.2622 7.56903 17.1947 7.73181 17.0747 7.85184C16.9547 7.97186 16.7919 8.03929 16.6222 8.03929C16.4524 8.03929 16.2896 7.97186 16.1696 7.85184C16.0496 7.73181 15.9822 7.56903 15.9822 7.39929V5.79193C15.9822 5.52025 15.5767 5.21593 15.0343 5.21593H9.02984C8.48744 5.21593 8.082 5.51929 8.082 5.79193V7.49785C8.082 7.66759 8.01457 7.83037 7.89455 7.9504C7.77453 8.07042 7.61174 8.13785 7.442 8.13785ZM15.0343 20.0639H9.02984C8.466 20.0639 7.92904 19.8908 7.51816 19.5766C7.06312 19.2281 6.802 18.7298 6.802 18.2089V16.3954C6.802 16.2257 6.86943 16.0629 6.98945 15.9429C7.10948 15.8229 7.27226 15.7554 7.442 15.7554C7.61174 15.7554 7.77453 15.8229 7.89455 15.9429C8.01457 16.0629 8.082 16.2257 8.082 16.3954V18.2079C8.082 18.4796 8.48744 18.7839 9.02984 18.7839H15.0343C15.5767 18.7839 15.9822 18.4806 15.9822 18.2079V16.3954C15.9822 16.2257 16.0496 16.0629 16.1696 15.9429C16.2896 15.8229 16.4524 15.7554 16.6222 15.7554C16.7919 15.7554 16.9547 15.8229 17.0747 15.9429C17.1947 16.0629 17.2622 16.2257 17.2622 16.3954V18.2079C17.2622 18.7289 17.001 19.2271 16.546 19.5756C16.1351 19.8898 15.5982 20.0639 15.0343 20.0639Z" fill="#202020"/>
</svg>
