<svg width="24" height="24" viewBox="0 0 24 24" fill="none" xmlns="http://www.w3.org/2000/svg">
<path d="M11.3575 18.8297C11.1878 18.8297 11.025 18.7623 10.905 18.6423C10.785 18.5223 10.7175 18.3595 10.7175 18.1897V4.18205C10.7175 4.01231 10.785 3.84953 10.905 3.7295C11.025 3.60948 11.1878 3.54205 11.3575 3.54205C11.5273 3.54205 11.6901 3.60948 11.8101 3.7295C11.9301 3.84953 11.9975 4.01231 11.9975 4.18205V18.1897C11.9975 18.3595 11.9301 18.5223 11.8101 18.6423C11.6901 18.7623 11.5273 18.8297 11.3575 18.8297Z" fill="#202020"/>
<path d="M16.5084 6.50531C16.3828 6.50535 16.26 6.46845 16.1553 6.3992C16.0505 6.32995 15.9684 6.23142 15.9193 6.11587L15.5353 5.21347C15.4332 4.97379 15.1365 4.80611 14.8137 4.80611H7.83479C7.51479 4.80611 7.22679 4.96611 7.11831 5.20131L6.69175 6.13155C6.65885 6.21099 6.61028 6.28298 6.54895 6.34323C6.48761 6.40348 6.41477 6.45076 6.33476 6.48224C6.25475 6.51371 6.16922 6.52875 6.08327 6.52644C5.99732 6.52413 5.91272 6.50453 5.83452 6.4688C5.75631 6.43308 5.68611 6.38196 5.6281 6.31851C5.57008 6.25505 5.52545 6.18055 5.49686 6.09947C5.46827 6.01838 5.45632 5.93236 5.46171 5.84656C5.4671 5.76075 5.48972 5.6769 5.52823 5.60003L5.95479 4.66947C6.27255 3.97603 7.01079 3.52771 7.83479 3.52771H14.8133C15.6604 3.52771 16.406 3.99331 16.7129 4.71363L17.0969 5.61571C17.1384 5.71306 17.1552 5.81918 17.1456 5.92459C17.1361 6.03 17.1006 6.1314 17.0422 6.2197C16.9839 6.30801 16.9045 6.38047 16.8113 6.43059C16.7181 6.48071 16.6139 6.50694 16.5081 6.50691L16.5084 6.50531ZM13.1199 18.8298H8.87255C8.70281 18.8298 8.54002 18.7624 8.42 18.6423C8.29998 18.5223 8.23255 18.3595 8.23255 18.1898C8.23255 18.0201 8.29998 17.8573 8.42 17.7372C8.54002 17.6172 8.70281 17.5498 8.87255 17.5498H13.1199C13.2896 17.5498 13.4524 17.6172 13.5725 17.7372C13.6925 17.8573 13.7599 18.0201 13.7599 18.1898C13.7599 18.3595 13.6925 18.5223 13.5725 18.6423C13.4524 18.7624 13.2896 18.8298 13.1199 18.8298ZM14.742 20.4739C14.5722 20.4739 14.4095 20.4065 14.2894 20.2865C14.1694 20.1665 14.102 20.0037 14.102 19.8339V11.2733C14.102 11.1036 14.1694 10.9408 14.2894 10.8208C14.4095 10.7007 14.5722 10.6333 14.742 10.6333C14.9117 10.6333 15.0745 10.7007 15.1945 10.8208C15.3146 10.9408 15.382 11.1036 15.382 11.2733V19.8339C15.382 20.0037 15.3146 20.1665 15.1945 20.2865C15.0745 20.4065 14.9117 20.4739 14.742 20.4739Z" fill="#202020"/>
<path d="M17.8902 12.9421C17.7646 12.9421 17.6418 12.9052 17.5371 12.8359C17.4323 12.7667 17.3502 12.6682 17.3011 12.5526L17.0662 12C17.0492 11.9606 16.9702 11.9024 16.854 11.9024H12.8451C12.6753 11.9024 12.5126 11.8349 12.3925 11.7149C12.2725 11.5949 12.2051 11.4321 12.2051 11.2624C12.2051 11.0926 12.2725 10.9298 12.3925 10.8098C12.5126 10.6898 12.6753 10.6224 12.8451 10.6224H16.854C17.4716 10.6224 18.0172 10.9661 18.2438 11.4982L18.4787 12.0499C18.5201 12.1472 18.5368 12.2533 18.5273 12.3586C18.5177 12.4639 18.4822 12.5653 18.4239 12.6535C18.3656 12.7418 18.2864 12.8142 18.1932 12.8643C18.1001 12.9145 17.996 12.9407 17.8902 12.9408V12.9421ZM16.2604 20.4739H13.2233C13.0536 20.4739 12.8908 20.4065 12.7708 20.2864C12.6507 20.1664 12.5833 20.0036 12.5833 19.8339C12.5833 19.6642 12.6507 19.5014 12.7708 19.3813C12.8908 19.2613 13.0536 19.1939 13.2233 19.1939H16.2604C16.4302 19.1939 16.593 19.2613 16.713 19.3813C16.833 19.5014 16.9004 19.6642 16.9004 19.8339C16.9004 20.0036 16.833 20.1664 16.713 20.2864C16.593 20.4065 16.4302 20.4739 16.2604 20.4739Z" fill="#202020"/>
</svg>
