<svg width="24" height="24" viewBox="0 0 24 24" fill="none" xmlns="http://www.w3.org/2000/svg">
<path d="M12.5405 20.4074H6.02885C5.3817 20.4066 4.76128 20.1492 4.30367 19.6916C3.84607 19.234 3.58865 18.6136 3.58789 17.9664V11.456C3.58865 10.8089 3.84607 10.1884 4.30367 9.73083C4.76128 9.27322 5.3817 9.01581 6.02885 9.01505H12.5405C13.1877 9.01572 13.8082 9.2731 14.2659 9.73072C14.7236 10.1883 14.981 10.8088 14.9818 11.456V17.9664C14.981 18.6136 14.7236 19.2341 14.2659 19.6917C13.8082 20.1493 13.1877 20.4067 12.5405 20.4074ZM6.02885 10.2954C5.72108 10.2956 5.42598 10.418 5.20832 10.6356C4.99066 10.8532 4.86823 11.1482 4.86789 11.456V17.9664C4.86814 18.2742 4.99054 18.5694 5.20821 18.787C5.42588 19.0047 5.72102 19.1271 6.02885 19.1274H12.5405C12.8484 19.1271 13.1436 19.0047 13.3613 18.7871C13.579 18.5694 13.7015 18.2743 13.7018 17.9664V11.456C13.7015 11.1481 13.579 10.853 13.3613 10.6353C13.1436 10.4177 12.8484 10.2953 12.5405 10.295L6.02885 10.2954Z" fill="#202020"/>
<path d="M17.9712 14.9863H14.3417C14.172 14.9863 14.0092 14.9188 13.8892 14.7988C13.7692 14.6788 13.7017 14.516 13.7017 14.3463C13.7017 14.1765 13.7692 14.0137 13.8892 13.8937C14.0092 13.7737 14.172 13.7063 14.3417 13.7063H17.9712C18.2792 13.706 18.5746 13.5834 18.7923 13.3655C19.01 13.1475 19.1322 12.8521 19.1321 12.544V6.03361C19.1319 5.72578 19.0095 5.43064 18.7918 5.21297C18.5741 4.9953 18.279 4.87291 17.9712 4.87265H11.4595C11.1516 4.87291 10.8565 4.99529 10.6387 5.21295C10.421 5.43061 10.2986 5.72575 10.2982 6.03361V9.47201C10.2982 9.64175 10.2308 9.80454 10.1108 9.92456C9.99074 10.0446 9.82795 10.112 9.65821 10.112C9.48847 10.112 9.32569 10.0446 9.20566 9.92456C9.08564 9.80454 9.01821 9.64175 9.01821 9.47201V6.03361C9.01897 5.38641 9.27643 4.76593 9.73411 4.30832C10.1918 3.85071 10.8123 3.59333 11.4595 3.59265H17.9712C18.6183 3.59341 19.2387 3.85083 19.6963 4.30843C20.154 4.76604 20.4114 5.38646 20.4121 6.03361V12.544C20.4117 13.1914 20.1544 13.8121 19.6968 14.27C19.2392 14.7279 18.6185 14.9855 17.9712 14.9863ZM6.28765 13.6893C6.16354 13.6893 6.04212 13.6531 5.93818 13.5853C5.83423 13.5175 5.75224 13.421 5.70218 13.3074C5.65213 13.1938 5.63618 13.0682 5.65627 12.9457C5.67636 12.8232 5.73162 12.7092 5.81533 12.6176C5.94973 12.4707 6.44893 11.9904 7.23421 11.9802C8.04669 11.9696 8.56381 12.4656 8.70301 12.6176C8.75974 12.6797 8.8037 12.7523 8.83237 12.8313C8.86103 12.9103 8.87386 12.9942 8.8701 13.0782C8.86634 13.1622 8.84607 13.2446 8.81046 13.3208C8.77484 13.397 8.72458 13.4654 8.66253 13.5221C8.60048 13.5788 8.52787 13.6228 8.44884 13.6514C8.3698 13.6801 8.2859 13.6929 8.20191 13.6892C8.11792 13.6854 8.03549 13.6652 7.95934 13.6295C7.88318 13.5939 7.81478 13.5437 7.75805 13.4816C7.73725 13.4586 7.54493 13.2576 7.25053 13.2605C7.06445 13.2664 6.8883 13.3458 6.76061 13.4813C6.70056 13.5469 6.62749 13.5993 6.54605 13.6351C6.46462 13.671 6.37661 13.6894 6.28765 13.6893Z" fill="#202020"/>
<path d="M10.2912 13.6899C10.1709 13.6899 10.0529 13.656 9.95099 13.592C9.84904 13.528 9.76721 13.4366 9.71488 13.3282C9.66256 13.2198 9.64186 13.0988 9.65516 12.9792C9.66847 12.8596 9.71524 12.7461 9.79011 12.6519C9.89187 12.5239 10.4461 11.8858 11.3658 11.936C12.1475 11.9786 12.6138 12.496 12.7373 12.6535C12.7893 12.7195 12.8278 12.7951 12.8506 12.876C12.8733 12.957 12.88 13.0416 12.87 13.125C12.8601 13.2085 12.8338 13.2892 12.7927 13.3625C12.7516 13.4358 12.6965 13.5003 12.6304 13.5523C12.5644 13.6043 12.4888 13.6428 12.4078 13.6656C12.3269 13.6884 12.2423 13.695 12.1589 13.6851C12.0754 13.6751 11.9947 13.6489 11.9214 13.6078C11.8481 13.5666 11.7836 13.5115 11.7315 13.4455C11.7139 13.4231 11.5533 13.2282 11.296 13.2141C10.9994 13.1981 10.801 13.4381 10.7927 13.4477C10.7328 13.5234 10.6566 13.5845 10.5698 13.6264C10.4829 13.6684 10.3877 13.6901 10.2912 13.6899ZM9.26115 18.3427H9.24995C8.57096 18.3368 7.92002 18.0711 7.43086 17.6002C6.94171 17.1292 6.6515 16.4888 6.61987 15.8106C6.61611 15.7242 6.62988 15.638 6.66036 15.5571C6.69083 15.4762 6.73738 15.4023 6.79719 15.3399C6.85699 15.2775 6.92883 15.2279 7.00835 15.194C7.08787 15.1601 7.17343 15.1427 7.25987 15.1427H11.264C11.3505 15.1427 11.436 15.1601 11.5156 15.194C11.5951 15.2279 11.6669 15.2775 11.7267 15.3399C11.7865 15.4023 11.8331 15.4762 11.8635 15.5571C11.894 15.638 11.9078 15.7242 11.904 15.8106C11.8723 16.4908 11.5805 17.1328 11.089 17.604C10.5974 18.0753 9.94368 18.3397 9.26275 18.3427H9.26115ZM8.11171 16.4227C8.23306 16.6185 8.40236 16.78 8.6036 16.892C8.80483 17.004 9.03132 17.0628 9.26163 17.0628C9.49194 17.0628 9.71843 17.004 9.91966 16.892C10.1209 16.78 10.2902 16.6185 10.4115 16.4227H8.11171ZM11.7421 8.25601C11.618 8.25598 11.4966 8.21986 11.3926 8.15206C11.2887 8.08426 11.2067 7.98769 11.1566 7.87413C11.1066 7.76056 11.0906 7.63489 11.1107 7.51242C11.1308 7.38995 11.1861 7.27596 11.2698 7.18433C11.4039 7.03713 11.9031 6.55681 12.6883 6.54689C13.5015 6.53601 14.0179 7.03201 14.1571 7.18401C14.2139 7.24606 14.2578 7.31868 14.2865 7.39771C14.3152 7.47674 14.328 7.56065 14.3242 7.64464C14.3205 7.72863 14.3002 7.81105 14.2646 7.88721C14.229 7.96337 14.1787 8.03176 14.1167 8.08849C14.0546 8.14523 13.982 8.18918 13.903 8.21785C13.8239 8.24652 13.74 8.25934 13.656 8.25558C13.5721 8.25182 13.4896 8.23155 13.4135 8.19594C13.3373 8.16033 13.2689 8.11006 13.2122 8.04801C13.1914 8.02497 12.9987 7.82401 12.7047 7.82689C12.5185 7.8329 12.3424 7.91241 12.2147 8.04801C12.1547 8.11361 12.0817 8.16599 12.0003 8.2018C11.919 8.23761 11.831 8.25608 11.7421 8.25601ZM15.744 8.25601C15.6237 8.25596 15.5059 8.222 15.404 8.15803C15.3021 8.09405 15.2203 8.00265 15.168 7.89431C15.1157 7.78597 15.0949 7.66508 15.1082 7.5455C15.1214 7.42593 15.1681 7.31251 15.2429 7.21826C15.3447 7.09026 15.8989 6.45025 16.8186 6.50209C17.6007 6.54497 18.0666 7.06209 18.1901 7.21953C18.2421 7.28557 18.2806 7.36121 18.3034 7.44212C18.3261 7.52304 18.3328 7.60764 18.3228 7.69111C18.3129 7.77458 18.2866 7.85528 18.2455 7.92859C18.2044 8.00191 18.1493 8.06641 18.0832 8.11841C18.0172 8.17042 17.9416 8.2089 17.8606 8.23168C17.7797 8.25445 17.6951 8.26106 17.6117 8.25114C17.5282 8.24121 17.4475 8.21495 17.3742 8.17384C17.3009 8.13272 17.2364 8.07757 17.1843 8.01153C17.1671 7.98945 17.0064 7.79426 16.7488 7.78017C16.4522 7.76417 16.2538 8.00417 16.2455 8.01377C16.1857 8.08948 16.1095 8.15062 16.0226 8.19258C15.9358 8.23454 15.8405 8.25623 15.744 8.25601ZM16.7171 12.9101H14.4179C14.2482 12.9101 14.0854 12.8427 13.9654 12.7226C13.8454 12.6026 13.7779 12.4398 13.7779 12.2701C13.7779 12.1004 13.8454 11.9376 13.9654 11.8175C14.0854 11.6975 14.2482 11.6301 14.4179 11.6301H15.8656C15.7428 11.4356 15.5731 11.2751 15.3721 11.1632C15.1711 11.0514 14.9452 10.9919 14.7152 10.9901H14.7095C14.5815 10.9907 14.4542 11.0096 14.3315 11.0461C14.2509 11.0705 14.1663 11.0788 14.0825 11.0704C13.9987 11.062 13.9174 11.0372 13.8432 10.9974C13.769 10.9575 13.7034 10.9034 13.6502 10.8382C13.5969 10.7729 13.5571 10.6978 13.5329 10.6171C13.5088 10.5364 13.5008 10.4517 13.5094 10.368C13.5181 10.2842 13.5431 10.2029 13.5832 10.1289C13.6233 10.0548 13.6776 9.9894 13.7431 9.93637C13.8085 9.88334 13.8837 9.84374 13.9645 9.81985C14.3498 9.70695 14.7557 9.68308 15.1515 9.75002C15.5473 9.81697 15.9228 9.973 16.2495 10.2063C16.5762 10.4396 16.8456 10.7441 17.0374 11.0968C17.2292 11.4495 17.3383 11.8412 17.3565 12.2423C17.3603 12.3286 17.3465 12.4148 17.316 12.4957C17.2855 12.5766 17.239 12.6505 17.1792 12.7129C17.1194 12.7753 17.0476 12.825 16.968 12.8589C16.8885 12.8927 16.8029 12.9102 16.7165 12.9101H16.7171Z" fill="#202020"/>
</svg>
