<svg width="24" height="24" viewBox="0 0 24 24" fill="none" xmlns="http://www.w3.org/2000/svg">
<path d="M11.9999 20.6807C9.99172 20.6806 8.04565 19.9842 6.49332 18.7101C4.94098 17.4361 3.87843 15.6632 3.4867 13.6935C3.09497 11.7239 3.39831 9.67934 4.34502 7.90827C5.29173 6.1372 6.82325 4.74917 8.67862 3.98069C10.534 3.21222 12.5984 3.11083 14.5202 3.69382C16.4419 4.27681 18.1021 5.50809 19.2178 7.17788C20.3334 8.84767 20.8356 10.8526 20.6388 12.8512C20.4419 14.8498 19.5582 16.7182 18.1382 18.1383C17.3339 18.9468 16.3773 19.5878 15.3237 20.0242C14.2701 20.4606 13.1404 20.6837 11.9999 20.6807ZM11.9999 4.59937C7.91931 4.59937 4.59931 7.91937 4.59931 12C4.59931 16.0806 7.91931 19.4007 11.9999 19.4007C16.0806 19.4007 19.4006 16.0806 19.4006 12C19.4006 7.91937 16.0806 4.59937 11.9999 4.59937Z" fill="#202020"/>
<path d="M12 17.0342C11.8629 17.0343 11.7294 16.9903 11.6192 16.9088C10.6584 16.1964 9.45487 15.8927 8.27106 16.064C8.134 16.0838 7.99421 16.0586 7.87268 15.9922C7.75115 15.9258 7.65444 15.8218 7.59707 15.6957C7.53969 15.5697 7.52474 15.4284 7.55447 15.2932C7.5842 15.1579 7.657 15.036 7.76194 14.9456C7.96418 14.7715 8.47458 14.1274 8.84994 11.9094C8.9841 11.098 9.07585 10.2802 9.12482 9.4592C9.13538 8.0512 10.4215 6.9104 12.001 6.9104C13.5805 6.9104 14.8666 8.05184 14.8771 9.45888C14.9265 10.2839 15.0188 11.1059 15.1539 11.9213C15.5283 14.1293 16.0375 14.7722 16.2391 14.9456C16.3392 15.0315 16.4103 15.1463 16.4426 15.2742C16.475 15.4021 16.467 15.5369 16.4198 15.6601C16.3727 15.7833 16.2885 15.8889 16.179 15.9625C16.0695 16.036 15.9399 16.074 15.808 16.071C14.5859 16.0459 13.3796 16.3501 12.3155 16.9517C12.2193 17.006 12.1106 17.0344 12 17.0342ZM9.39362 14.7568C9.74299 14.7853 10.0891 14.8455 10.4275 14.9366C10.9989 15.0901 11.5434 15.3299 12.0423 15.648C12.8607 15.238 13.7428 14.9698 14.6509 14.8547C14.336 14.184 14.0839 13.28 13.888 12.1229C13.7438 11.2571 13.6464 10.3841 13.5962 9.50784C13.5962 9.4976 13.5962 9.48736 13.5962 9.47744C13.5962 8.768 12.8803 8.192 12 8.192C11.1197 8.192 10.4039 8.768 10.4039 9.4784C10.4039 9.48832 10.4039 9.49856 10.4039 9.5088C10.3536 10.3848 10.2562 11.2574 10.112 12.1229C9.92546 13.2234 9.6877 14.0973 9.39362 14.7568Z" fill="#202020"/>
<path d="M14.521 12.1011C14.3753 12.1013 14.234 12.0518 14.1203 11.9608C14.0066 11.8698 13.9273 11.7427 13.8956 11.6006C13.8639 11.4585 13.8815 11.3098 13.9457 11.1791C14.0099 11.0483 14.1168 10.9434 14.2486 10.8816L15.6067 10.2442C15.7604 10.172 15.9364 10.1639 16.096 10.2215C16.2557 10.2792 16.3859 10.3979 16.4581 10.5515C16.5302 10.7052 16.5384 10.8812 16.4807 11.0409C16.4231 11.2005 16.3044 11.3308 16.1507 11.4029L14.793 12.0403C14.7079 12.0804 14.615 12.1012 14.521 12.1011ZM9.46751 12.1008C9.35346 12.1009 9.24149 12.0703 9.14335 12.0122L7.93375 11.2995C7.78803 11.2131 7.68252 11.0724 7.64037 10.9083C7.59821 10.7442 7.62285 10.5701 7.70888 10.4241C7.79491 10.2781 7.93531 10.1722 8.09929 10.1296C8.26328 10.087 8.43747 10.1112 8.58367 10.1968L9.79199 10.9095C9.91298 10.9808 10.0071 11.0899 10.06 11.22C10.1128 11.3501 10.1214 11.494 10.0844 11.6295C10.0474 11.7649 9.96686 11.8845 9.85521 11.9696C9.74356 12.0548 9.60699 12.1009 9.46655 12.1008H9.46751Z" fill="#202020"/>
</svg>
