<svg width="24" height="24" viewBox="0 0 24 24" fill="none" xmlns="http://www.w3.org/2000/svg">
<path d="M19.4173 7.71872H5.65471C5.48497 7.71872 5.32218 7.65129 5.20216 7.53127C5.08214 7.41125 5.01471 7.24846 5.01471 7.07872C5.01471 6.90898 5.08214 6.7462 5.20216 6.62617C5.32218 6.50615 5.48497 6.43872 5.65471 6.43872H19.4173C19.587 6.43872 19.7498 6.50615 19.8698 6.62617C19.9898 6.7462 20.0573 6.90898 20.0573 7.07872C20.0573 7.24846 19.9898 7.41125 19.8698 7.53127C19.7498 7.65129 19.587 7.71872 19.4173 7.71872ZM17.9376 11.1069H7.13599C6.96625 11.1069 6.80346 11.0395 6.68344 10.9194C6.56342 10.7994 6.49599 10.6366 6.49599 10.4669C6.49599 10.2971 6.56342 10.1344 6.68344 10.0143C6.80346 9.89431 6.96625 9.82688 7.13599 9.82688H17.9392C18.1089 9.82688 18.2717 9.89431 18.3917 10.0143C18.5118 10.1344 18.5792 10.2971 18.5792 10.4669C18.5792 10.6366 18.5118 10.7994 18.3917 10.9194C18.2717 11.0395 18.1089 11.1069 17.9392 11.1069H17.9376ZM16.4294 14.496H8.64287C8.47313 14.496 8.31034 14.4286 8.19032 14.3085C8.0703 14.1885 8.00287 14.0257 8.00287 13.856C8.00287 13.6863 8.0703 13.5235 8.19032 13.4035C8.31034 13.2834 8.47313 13.216 8.64287 13.216H16.4294C16.5992 13.216 16.762 13.2834 16.882 13.4035C17.002 13.5235 17.0694 13.6863 17.0694 13.856C17.0694 14.0257 17.002 14.1885 16.882 14.3085C16.762 14.4286 16.5992 14.496 16.4294 14.496ZM14.735 17.8832H10.336C10.1663 17.8832 10.0035 17.8158 9.88344 17.6957C9.76342 17.5757 9.69599 17.4129 9.69599 17.2432C9.69599 17.0735 9.76342 16.9107 9.88344 16.7907C10.0035 16.6706 10.1663 16.6032 10.336 16.6032H14.735C14.9048 16.6032 15.0676 16.6706 15.1876 16.7907C15.3076 16.9107 15.375 17.0735 15.375 17.2432C15.375 17.4129 15.3076 17.5757 15.1876 17.6957C15.0676 17.8158 14.9048 17.8832 14.735 17.8832Z" fill="#202020"/>
</svg>
