<svg width="24" height="24" viewBox="0 0 24 24" fill="none" xmlns="http://www.w3.org/2000/svg">
<path d="M12.75 6.77842V7.5C12.75 7.91423 12.4142 8.25 12 8.25C11.5858 8.25 11.25 7.91423 11.25 7.5V6.77842C10.0177 6.87217 8.84951 7.19494 7.78781 7.70434L8.14954 8.33085C8.35661 8.68957 8.23373 9.14824 7.875 9.35535C7.51627 9.56246 7.05757 9.43957 6.8505 9.08085L6.48945 8.4555C5.49686 9.13673 4.63669 9.9969 3.95546 10.9895L4.58074 11.3505C4.93946 11.5576 5.06239 12.0163 4.85528 12.375C4.64816 12.7337 4.18946 12.8566 3.83074 12.6495L3.20431 12.2879C2.69494 13.3496 2.37216 14.5177 2.27842 15.75H3C3.41421 15.75 3.75 16.0858 3.75 16.5C3.75 16.9142 3.41421 17.25 3 17.25H1.5C1.08579 17.25 0.75 16.9142 0.75 16.5C0.75 10.2868 5.78681 5.25 12 5.25C18.2132 5.25 23.25 10.2868 23.25 16.5C23.25 16.9142 22.9142 17.25 22.5 17.25H21C20.5858 17.25 20.25 16.9142 20.25 16.5C20.25 16.0858 20.5858 15.75 21 15.75H21.7216C21.6279 14.5177 21.3051 13.3496 20.7957 12.2879L20.1693 12.6495C19.8105 12.8566 19.3518 12.7337 19.1447 12.375C18.9376 12.0163 19.0605 11.5576 19.4193 11.3505L20.0445 10.9895C19.3633 9.99686 18.5031 9.13669 17.5105 8.45546L17.1495 9.08074C16.9424 9.43946 16.4837 9.56239 16.125 9.35527C15.7663 9.14816 15.6434 8.68946 15.8505 8.33074L16.2121 7.7043C15.1504 7.19494 13.9823 6.87214 12.75 6.77842Z" fill="#202020"/>
<path fill-rule="evenodd" clip-rule="evenodd" d="M13.8668 14.2795C14.3356 14.7537 14.625 15.4056 14.625 16.125C14.625 17.5747 13.4497 18.75 12 18.75C10.5503 18.75 9.375 17.5747 9.375 16.125C9.375 14.6752 10.5503 13.5 12 13.5C12.1881 13.5 12.3717 13.5198 12.5486 13.5574L14.7416 10.0984C14.9634 9.74857 15.4268 9.64477 15.7766 9.86659C16.1264 10.0884 16.2302 10.5517 16.0084 10.9016L13.8668 14.2795ZM10.875 16.125C10.875 15.5037 11.3787 15 12 15C12.6213 15 13.125 15.5037 13.125 16.125C13.125 16.7463 12.6213 17.25 12 17.25C11.3787 17.25 10.875 16.7463 10.875 16.125Z" fill="#202020"/>
</svg>
