<svg width="24" height="24" viewBox="0 0 24 24" fill="none" xmlns="http://www.w3.org/2000/svg">
<path d="M16.0216 19.6768C15.8822 19.6773 15.7466 19.6322 15.6351 19.5485C15.5237 19.4648 15.4427 19.347 15.4043 19.2131C15.3659 19.0791 15.3723 18.9363 15.4225 18.8063C15.4727 18.6763 15.564 18.5662 15.6824 18.4928C16.0164 18.2842 16.3322 18.048 16.6267 17.7866C19.5016 15.2355 19.7646 10.8215 17.2136 7.94658C14.6626 5.0717 10.2482 4.8093 7.3736 7.36002C4.49904 9.91074 4.23568 14.3255 6.78672 17.2C7.20581 17.6735 7.68721 18.088 8.21776 18.432C8.35662 18.5258 8.45317 18.6702 8.48669 18.8344C8.5202 18.9986 8.488 19.1693 8.39701 19.31C8.30601 19.4507 8.16347 19.5501 8.00001 19.5868C7.83654 19.6236 7.66518 19.5948 7.52272 19.5066C6.07114 18.5696 4.95024 17.2007 4.31808 15.5928C3.68591 13.9849 3.57437 12.2192 3.99918 10.5445C4.42399 8.86987 5.36372 7.37079 6.68587 6.25864C8.00802 5.1465 9.6459 4.4774 11.3686 4.34568C13.0912 4.21396 14.8118 4.62626 16.2877 5.52446C17.7635 6.42266 18.9203 7.76144 19.5947 9.35205C20.2692 10.9427 20.4274 12.7048 20.0471 14.3902C19.6667 16.0755 18.767 17.5989 17.4747 18.7456C17.1265 19.0546 16.753 19.3338 16.3582 19.5805C16.2573 19.6435 16.1406 19.6769 16.0216 19.6768Z" fill="#202020"/>
<path d="M13.408 18.1722C12.9397 18.1722 12.4819 18.0333 12.0925 17.7731C11.703 17.5129 11.3995 17.1431 11.2203 16.7104C11.0411 16.2777 10.9942 15.8016 11.0855 15.3422C11.1769 14.8829 11.4024 14.4609 11.7336 14.1298C12.0648 13.7986 12.4867 13.5731 12.9461 13.4817C13.4054 13.3903 13.8815 13.4372 14.3142 13.6164C14.7469 13.7957 15.1168 14.0992 15.377 14.4886C15.6372 14.878 15.776 15.3358 15.776 15.8042C15.776 16.4322 15.5266 17.0345 15.0825 17.4786C14.6384 17.9227 14.0361 18.1722 13.408 18.1722ZM13.408 14.72C13.1929 14.72 12.9825 14.7838 12.8036 14.9034C12.6247 15.0229 12.4852 15.1929 12.4029 15.3917C12.3205 15.5905 12.299 15.8092 12.3409 16.0203C12.3829 16.2313 12.4865 16.4252 12.6387 16.5774C12.7909 16.7295 12.9847 16.8331 13.1958 16.8751C13.4068 16.9171 13.6256 16.8956 13.8244 16.8132C14.0232 16.7309 14.1931 16.5914 14.3127 16.4125C14.4322 16.2336 14.496 16.0232 14.496 15.808C14.496 15.5195 14.3814 15.2427 14.1774 15.0387C13.9733 14.8347 13.6966 14.72 13.408 14.72ZM15.961 13.3146C15.6269 13.3147 15.3002 13.2156 15.0224 13.0301C14.7446 12.8445 14.528 12.5807 14.4001 12.272C14.2722 11.9633 14.2387 11.6237 14.3038 11.2959C14.369 10.9682 14.5298 10.6672 14.7661 10.4309C15.0023 10.1946 15.3033 10.0337 15.631 9.96852C15.9587 9.90331 16.2984 9.93675 16.6071 10.0646C16.9158 10.1924 17.1796 10.409 17.3652 10.6868C17.5509 10.9646 17.65 11.2912 17.65 11.6253C17.6495 12.0731 17.4714 12.5025 17.1547 12.8191C16.8381 13.1358 16.4088 13.314 15.961 13.3146ZM15.961 11.2164C15.88 11.2163 15.8009 11.2403 15.7335 11.2852C15.6661 11.3301 15.6136 11.3941 15.5826 11.4689C15.5516 11.5437 15.5435 11.626 15.5592 11.7054C15.575 11.7848 15.614 11.8578 15.6713 11.915C15.7285 11.9723 15.8015 12.0113 15.8809 12.0271C15.9603 12.0428 16.0427 12.0347 16.1175 12.0037C16.1923 11.9727 16.2562 11.9202 16.3011 11.8528C16.3461 11.7855 16.37 11.7063 16.37 11.6253C16.3698 11.5169 16.3266 11.413 16.25 11.3363C16.1733 11.2597 16.0694 11.2165 15.961 11.2164Z" fill="#202020"/>
</svg>
