<svg width="24" height="24" viewBox="0 0 24 24" fill="none" xmlns="http://www.w3.org/2000/svg">
<path d="M16.0218 19.6764C15.8825 19.6769 15.7468 19.6319 15.6354 19.5482C15.524 19.4645 15.4429 19.3467 15.4045 19.2127C15.3662 19.0787 15.3725 18.9359 15.4227 18.8059C15.4729 18.6759 15.5642 18.5659 15.6826 18.4924C16.0166 18.2838 16.3325 18.0476 16.627 17.7862C19.5018 15.2352 19.7649 10.8211 17.2138 7.94621C14.6628 5.07133 10.2484 4.80893 7.37385 7.35965C4.49929 9.91037 4.23593 14.3251 6.78697 17.1996C7.20605 17.6732 7.68746 18.0876 8.21801 18.4316C8.35686 18.5254 8.45342 18.6699 8.48693 18.834C8.52044 18.9982 8.48825 19.169 8.39725 19.3096C8.30625 19.4503 8.16372 19.5497 8.00025 19.5865C7.83678 19.6232 7.66542 19.5944 7.52297 19.5062C6.07138 18.5693 4.95048 17.2004 4.31832 15.5925C3.68616 13.9846 3.57462 12.2188 3.99943 10.5442C4.42424 8.8695 5.36396 7.37042 6.68611 6.25828C8.00826 5.14614 9.64614 4.47703 11.3688 4.34531C13.0915 4.21359 14.812 4.6259 16.2879 5.5241C17.7638 6.42229 18.9205 7.76108 19.595 9.35168C20.2695 10.9423 20.4277 12.7045 20.0473 14.3898C19.667 16.0751 18.7672 17.5985 17.475 18.7452C17.1267 19.0542 16.7533 19.3335 16.3585 19.5801C16.2575 19.6431 16.1409 19.6765 16.0218 19.6764Z" fill="#202020"/>
<path d="M13.408 18.1722C12.9397 18.1722 12.4819 18.0333 12.0925 17.7731C11.703 17.5129 11.3995 17.1431 11.2203 16.7104C11.0411 16.2777 10.9942 15.8016 11.0855 15.3422C11.1769 14.8829 11.4024 14.4609 11.7336 14.1298C12.0648 13.7986 12.4867 13.5731 12.9461 13.4817C13.4054 13.3903 13.8815 13.4372 14.3142 13.6164C14.7469 13.7957 15.1168 14.0992 15.377 14.4886C15.6372 14.878 15.776 15.3358 15.776 15.8042C15.776 16.4322 15.5266 17.0345 15.0825 17.4786C14.6384 17.9227 14.0361 18.1722 13.408 18.1722ZM13.408 14.72C13.1929 14.72 12.9825 14.7838 12.8036 14.9034C12.6247 15.0229 12.4852 15.1929 12.4029 15.3917C12.3205 15.5905 12.299 15.8092 12.3409 16.0203C12.3829 16.2313 12.4865 16.4252 12.6387 16.5774C12.7909 16.7295 12.9847 16.8331 13.1958 16.8751C13.4068 16.9171 13.6256 16.8956 13.8244 16.8132C14.0232 16.7309 14.1931 16.5914 14.3127 16.4125C14.4322 16.2336 14.496 16.0232 14.496 15.808C14.496 15.5195 14.3814 15.2427 14.1774 15.0387C13.9733 14.8347 13.6966 14.72 13.408 14.72ZM15.961 13.3146C15.6269 13.3147 15.3002 13.2156 15.0224 13.0301C14.7446 12.8445 14.528 12.5807 14.4001 12.272C14.2722 11.9633 14.2387 11.6237 14.3038 11.2959C14.369 10.9682 14.5298 10.6672 14.7661 10.4309C15.0023 10.1946 15.3033 10.0337 15.631 9.96852C15.9587 9.90331 16.2984 9.93675 16.6071 10.0646C16.9158 10.1924 17.1796 10.409 17.3652 10.6868C17.5509 10.9646 17.65 11.2912 17.65 11.6253C17.6495 12.0731 17.4714 12.5025 17.1547 12.8191C16.8381 13.1358 16.4088 13.314 15.961 13.3146ZM15.961 11.2164C15.88 11.2163 15.8009 11.2403 15.7335 11.2852C15.6661 11.3301 15.6136 11.3941 15.5826 11.4689C15.5516 11.5437 15.5435 11.626 15.5592 11.7054C15.575 11.7848 15.614 11.8578 15.6713 11.915C15.7285 11.9723 15.8015 12.0113 15.8809 12.0271C15.9603 12.0428 16.0427 12.0347 16.1175 12.0037C16.1923 11.9727 16.2562 11.9202 16.3011 11.8528C16.3461 11.7855 16.37 11.7063 16.37 11.6253C16.3698 11.5169 16.3267 11.413 16.25 11.3363C16.1733 11.2597 16.0694 11.2165 15.961 11.2164Z" fill="#202020"/>
</svg>
