<svg width="24" height="24" viewBox="0 0 24 24" fill="none" xmlns="http://www.w3.org/2000/svg">
<path d="M18.24 18.9808C17.984 18.9798 17.7349 18.8973 17.5289 18.7453L14.6192 16.6314L11.712 18.7453C11.5054 18.8953 11.2566 18.9762 11.0012 18.9761C10.7459 18.9761 10.4971 18.8953 10.2905 18.7452C10.0839 18.5951 9.93014 18.3834 9.85122 18.1406C9.7723 17.8977 9.77229 17.6361 9.85117 17.3933L10.9625 13.9728L8.05117 11.8586C7.84448 11.7085 7.69061 11.4968 7.61163 11.2539C7.53265 11.011 7.53261 10.7493 7.61153 10.5064C7.69045 10.2635 7.84426 10.0518 8.05092 9.90163C8.25758 9.7515 8.50646 9.67067 8.76189 9.67072H12.3587L13.4701 6.25024C13.5491 6.00742 13.7029 5.79583 13.9095 5.64578C14.1161 5.49573 14.3649 5.41492 14.6203 5.41492C14.8756 5.41492 15.1245 5.49573 15.3311 5.64578C15.5377 5.79583 15.6915 6.00742 15.7705 6.25024L16.8819 9.67072H20.48C20.7354 9.67061 20.9844 9.75139 21.1911 9.90149C21.3978 10.0516 21.5516 10.2633 21.6306 10.5062C21.7096 10.7492 21.7096 11.0109 21.6306 11.2538C21.5516 11.4968 21.3977 11.7085 21.191 11.8586L18.2813 13.9728L19.392 17.3933C19.4737 17.6359 19.4751 17.8985 19.396 18.142C19.3168 18.3855 19.1614 18.597 18.9526 18.7453C18.7462 18.8977 18.4965 18.9802 18.24 18.9808ZM8.97917 10.9507L11.7549 12.9667C11.9618 13.1165 12.1158 13.3282 12.1947 13.5712C12.2736 13.8142 12.2733 14.0759 12.1939 14.3187L11.1341 17.5827L13.9094 15.5667C14.1158 15.4161 14.3647 15.3349 14.6203 15.3349C14.8758 15.3349 15.1248 15.4161 15.3312 15.5667L18.1065 17.5827L17.0464 14.3187C16.9669 14.0759 16.9666 13.8141 17.0456 13.5711C17.1246 13.3281 17.2787 13.1165 17.4857 12.9667L20.2611 10.9507H16.832C16.5762 10.9516 16.3267 10.8711 16.1197 10.7209C15.9126 10.5707 15.7586 10.3586 15.68 10.1152L14.6198 6.8512L13.5597 10.1152C13.4812 10.3583 13.3275 10.5702 13.1208 10.7204C12.9141 10.8706 12.6651 10.9512 12.4096 10.9507H8.97917Z" fill="#202020"/>
<path d="M11.8919 8.70401H5.46373C5.29399 8.70401 5.13121 8.63658 5.01118 8.51656C4.89116 8.39654 4.82373 8.23375 4.82373 8.06401C4.82373 7.89427 4.89116 7.73149 5.01118 7.61146C5.13121 7.49144 5.29399 7.42401 5.46373 7.42401H11.8919C12.0616 7.42401 12.2244 7.49144 12.3444 7.61146C12.4645 7.73149 12.5319 7.89427 12.5319 8.06401C12.5319 8.23375 12.4645 8.39654 12.3444 8.51656C12.2244 8.63658 12.0616 8.70401 11.8919 8.70401ZM7.21605 12.8368H5.46373C5.29399 12.8368 5.13121 12.7694 5.01118 12.6494C4.89116 12.5293 4.82373 12.3665 4.82373 12.1968C4.82373 12.0271 4.89116 11.8643 5.01118 11.7443C5.13121 11.6242 5.29399 11.5568 5.46373 11.5568H7.21605C7.38579 11.5568 7.54858 11.6242 7.6686 11.7443C7.78862 11.8643 7.85605 12.0271 7.85605 12.1968C7.85605 12.3665 7.78862 12.5293 7.6686 12.6494C7.54858 12.7694 7.38579 12.8368 7.21605 12.8368ZM9.35429 16.9687H5.46373C5.29399 16.9687 5.13121 16.9012 5.01118 16.7812C4.89116 16.6612 4.82373 16.4984 4.82373 16.3287C4.82373 16.1589 4.89116 15.9961 5.01118 15.8761C5.13121 15.7561 5.29399 15.6887 5.46373 15.6887H9.35429C9.52403 15.6887 9.68682 15.7561 9.80684 15.8761C9.92686 15.9961 9.99429 16.1589 9.99429 16.3287C9.99429 16.4984 9.92686 16.6612 9.80684 16.7812C9.68682 16.9012 9.52403 16.9687 9.35429 16.9687Z" fill="#202020"/>
</svg>
