<svg width="24" height="24" viewBox="0 0 24 24" fill="none" xmlns="http://www.w3.org/2000/svg">
<path d="M7.6438 20.2285C7.36359 20.2279 7.09081 20.1383 6.86492 19.9725C6.63633 19.8099 6.4662 19.578 6.37974 19.3111C6.29328 19.0443 6.2951 18.7566 6.38492 18.4909L7.74108 14.3165C7.74403 14.3075 7.74405 14.2977 7.74111 14.2887C7.73818 14.2797 7.73245 14.2718 7.72476 14.2662L4.17276 11.6864C3.94639 11.5219 3.77789 11.29 3.69143 11.0239C3.60497 10.7577 3.60497 10.471 3.69144 10.2049C3.77792 9.93879 3.94642 9.70686 4.1728 9.54238C4.39918 9.3779 4.67181 9.2893 4.95164 9.28929H9.34044C9.35008 9.28928 9.35946 9.28616 9.36718 9.28039C9.37491 9.27463 9.38057 9.26653 9.38332 9.25729L10.7398 5.08289C10.8263 4.81682 10.9948 4.58497 11.2212 4.42055C11.4476 4.25613 11.7202 4.16757 12 4.16757C12.2797 4.16757 12.5523 4.25613 12.7787 4.42055C13.0051 4.58497 13.1736 4.81682 13.2601 5.08289L14.6166 9.25729C14.6194 9.26653 14.625 9.27463 14.6327 9.28039C14.6405 9.28616 14.6498 9.28928 14.6595 9.28929H19.0486C19.3284 9.2893 19.6011 9.3779 19.8274 9.54238C20.0538 9.70686 20.2223 9.93879 20.3088 10.2049C20.3953 10.471 20.3953 10.7577 20.3088 11.0239C20.2223 11.29 20.0539 11.5219 19.8275 11.6864L16.2755 14.2662C16.2678 14.2718 16.2621 14.2797 16.2591 14.2887C16.2562 14.2977 16.2562 14.3075 16.2592 14.3165L17.6153 18.4909C17.7018 18.757 17.7018 19.0437 17.6153 19.3098C17.5289 19.576 17.3604 19.8079 17.134 19.9724C16.9076 20.1369 16.635 20.2255 16.3552 20.2255C16.0753 20.2255 15.8027 20.1369 15.5763 19.9725L12.0243 17.3926C12.0166 17.387 12.0073 17.384 11.9977 17.384C11.9882 17.384 11.9789 17.387 11.9712 17.3926L8.41916 19.9725C8.19419 20.1375 7.92279 20.2271 7.6438 20.2285ZM12 16.1014C12.2799 16.1016 12.5526 16.1905 12.7788 16.3555L16.3308 18.9354C16.3468 18.9469 16.3574 18.9546 16.384 18.9354C16.4105 18.9162 16.4064 18.9034 16.4003 18.8848L15.0428 14.7104C14.9557 14.4445 14.9553 14.1578 15.0415 13.8916C15.1278 13.6254 15.2963 13.3934 15.5228 13.2291L19.0748 10.6493C19.0905 10.6374 19.1011 10.6301 19.0912 10.5987C19.0812 10.5674 19.0678 10.5667 19.0483 10.5667H14.6595C14.3795 10.5673 14.1066 10.4789 13.88 10.3144C13.6535 10.1498 13.4851 9.91763 13.399 9.65121L12.0428 5.47777C12.0368 5.45889 12.0326 5.44577 12 5.44577C11.9673 5.44577 11.9632 5.45793 11.9571 5.47777L10.6009 9.65217C10.5148 9.91859 10.3464 10.1508 10.1199 10.3153C9.89334 10.4799 9.62042 10.5682 9.34044 10.5677H4.95132C4.9318 10.5677 4.91932 10.5677 4.90844 10.5997C4.89756 10.6317 4.90844 10.6384 4.92476 10.6502L8.47676 13.2301C8.70328 13.3944 8.87181 13.6263 8.95807 13.8925C9.04433 14.1587 9.04387 14.4454 8.95676 14.7114L7.60092 18.8848C7.59484 18.9037 7.59068 18.9168 7.61724 18.9354C7.6438 18.9539 7.65436 18.9469 7.67004 18.9354L11.222 16.3555C11.448 16.1907 11.7203 16.1018 12 16.1014Z" fill="#202020"/>
<path d="M4.73116 20.2906C4.60601 20.2905 4.48361 20.2538 4.37911 20.1849C4.27462 20.1161 4.1926 20.0181 4.14323 19.9031C4.09385 19.7881 4.07927 19.6611 4.1013 19.5379C4.12333 19.4147 4.18099 19.3007 4.26716 19.2099L18.8048 3.90849C18.9217 3.78543 19.0827 3.71385 19.2524 3.7095C19.422 3.70515 19.5865 3.76838 19.7096 3.88529C19.8326 4.0022 19.9042 4.1632 19.9085 4.33289C19.9129 4.50257 19.8497 4.66703 19.7328 4.79009L5.19516 20.0915C5.13545 20.1546 5.06349 20.2047 4.9837 20.2389C4.90392 20.2732 4.81798 20.2907 4.73116 20.2906Z" fill="#202020"/>
</svg>
