<svg width="24" height="24" viewBox="0 0 24 24" fill="none" xmlns="http://www.w3.org/2000/svg">
<path d="M10.931 20.2092C10.9086 20.2093 10.8863 20.2081 10.8641 20.2057C9.14126 20.0238 7.51929 19.3045 6.22785 18.1498C4.93642 16.995 4.04096 15.4633 3.66826 13.7714C3.64874 13.6888 3.64587 13.6031 3.65981 13.5193C3.67376 13.4355 3.70424 13.3553 3.74948 13.2835C3.79472 13.2116 3.85381 13.1494 3.92331 13.1006C3.99282 13.0518 4.07134 13.0173 4.15431 12.9992C4.23728 12.981 4.32303 12.9795 4.40657 12.9949C4.49011 13.0102 4.56976 13.042 4.64089 13.0884C4.71202 13.1348 4.77319 13.1949 4.82085 13.2652C4.86852 13.3355 4.90171 13.4146 4.9185 13.4978C5.22976 14.9286 5.98505 16.2245 7.07657 17.2005C8.16809 18.1765 9.54003 18.7828 10.9966 18.9327C11.1594 18.9498 11.3094 19.0287 11.4158 19.153C11.5223 19.2774 11.577 19.4378 11.5688 19.6013C11.5606 19.7647 11.4901 19.9188 11.3718 20.0319C11.2534 20.145 11.0963 20.2084 10.9326 20.2092H10.931ZM12.8535 20.1679C12.6918 20.1681 12.5359 20.107 12.4174 19.9969C12.2989 19.8868 12.2264 19.7359 12.2146 19.5746C12.2028 19.4133 12.2526 19.2534 12.3538 19.1273C12.4551 19.0011 12.6004 18.918 12.7604 18.8946C15.5422 18.4818 17.8513 16.3666 18.5067 13.63C18.5462 13.4649 18.6497 13.3223 18.7944 13.2336C18.9391 13.1448 19.1131 13.1172 19.2782 13.1567C19.4432 13.1963 19.5858 13.2998 19.6746 13.4445C19.7634 13.5891 19.791 13.7632 19.7515 13.9282C19.3664 15.5261 18.5133 16.9727 17.3013 18.0829C16.0894 19.1931 14.5737 19.9164 12.9483 20.1602C12.9169 20.1652 12.8853 20.1677 12.8535 20.1679ZM19.338 12.6402C19.1683 12.6402 19.0055 12.5728 18.8855 12.4528C18.7654 12.3328 18.698 12.17 18.698 12.0002C18.698 8.15672 15.5713 5.03 11.7278 5.03C7.88426 5.03 4.75754 8.15672 4.75754 12.0002C4.75754 12.17 4.69011 12.3328 4.57009 12.4528C4.45006 12.5728 4.28728 12.6402 4.11754 12.6402C3.9478 12.6402 3.78501 12.5728 3.66499 12.4528C3.54497 12.3328 3.47754 12.17 3.47754 12.0002C3.47754 10.9168 3.69094 9.84397 4.10555 8.84301C4.52016 7.84204 5.12787 6.93254 5.89398 6.16644C6.66008 5.40033 7.56958 4.79263 8.57055 4.37801C9.57151 3.9634 10.6443 3.75 11.7278 3.75C12.8112 3.75 13.884 3.9634 14.885 4.37801C15.886 4.79263 16.7955 5.40033 17.5616 6.16644C18.3277 6.93254 18.9354 7.84204 19.35 8.84301C19.7646 9.84397 19.978 10.9168 19.978 12.0002C19.978 12.17 19.9106 12.3328 19.7906 12.4528C19.6705 12.5728 19.5078 12.6402 19.338 12.6402Z" fill="#202020"/>
</svg>
