<svg width="24" height="24" viewBox="0 0 24 24" fill="none" xmlns="http://www.w3.org/2000/svg">
<path d="M10.9312 20.209C10.9089 20.2091 10.8866 20.2079 10.8643 20.2054C9.1415 20.0235 7.51954 19.3043 6.2281 18.1495C4.93666 16.9948 4.0412 15.463 3.6685 13.7712C3.64898 13.6885 3.64611 13.6028 3.66006 13.519C3.674 13.4353 3.70448 13.3551 3.74972 13.2832C3.79496 13.2113 3.85405 13.1492 3.92356 13.1004C3.99306 13.0516 4.07159 13.0171 4.15455 12.9989C4.23752 12.9808 4.32328 12.9793 4.40681 12.9946C4.49035 13.0099 4.57001 13.0417 4.64113 13.0881C4.71226 13.1346 4.77344 13.1947 4.8211 13.265C4.86876 13.3353 4.90195 13.4143 4.91874 13.4976C5.23 14.9284 5.9853 16.2243 7.07681 17.2003C8.16833 18.1763 9.54028 18.7825 10.9968 18.9325C11.1596 18.9496 11.3096 19.0284 11.4161 19.1528C11.5225 19.2771 11.5773 19.4375 11.5691 19.601C11.5609 19.7645 11.4903 19.9186 11.372 20.0317C11.2537 20.1448 11.0965 20.2082 10.9328 20.209H10.9312ZM12.8538 20.1677C12.692 20.1678 12.5362 20.1067 12.4177 19.9966C12.2991 19.8866 12.2267 19.7357 12.2149 19.5744C12.2031 19.413 12.2528 19.2532 12.3541 19.1271C12.4553 19.0009 12.6006 18.9178 12.7607 18.8944C15.5424 18.4816 17.8515 16.3664 18.5069 13.6298C18.5465 13.4647 18.65 13.3221 18.7946 13.2333C18.9393 13.1446 19.1134 13.1169 19.2784 13.1565C19.4435 13.196 19.5861 13.2995 19.6748 13.4442C19.7636 13.5889 19.7913 13.7629 19.7517 13.928C19.3667 15.5259 18.5136 16.9725 17.3016 18.0827C16.0896 19.1929 14.5739 19.9162 12.9485 20.16C12.9172 20.1649 12.8855 20.1675 12.8538 20.1677ZM19.3383 12.64C19.1685 12.64 19.0057 12.5726 18.8857 12.4525C18.7657 12.3325 18.6983 12.1697 18.6983 12C18.6983 8.15648 15.5715 5.02976 11.728 5.02976C7.8845 5.02976 4.75778 8.15648 4.75778 12C4.75778 12.1697 4.69035 12.3325 4.57033 12.4525C4.45031 12.5726 4.28752 12.64 4.11778 12.64C3.94804 12.64 3.78526 12.5726 3.66523 12.4525C3.54521 12.3325 3.47778 12.1697 3.47778 12C3.47778 10.9166 3.69118 9.84373 4.1058 8.84277C4.52041 7.8418 5.12812 6.9323 5.89422 6.1662C6.66033 5.40009 7.56983 4.79238 8.57079 4.37777C9.57176 3.96315 10.6446 3.74976 11.728 3.74976C12.8115 3.74976 13.8843 3.96315 14.8853 4.37777C15.8862 4.79238 16.7957 5.40009 17.5618 6.1662C18.3279 6.9323 18.9356 7.8418 19.3503 8.84277C19.7649 9.84373 19.9783 10.9166 19.9783 12C19.9783 12.1697 19.9108 12.3325 19.7908 12.4525C19.6708 12.5726 19.508 12.64 19.3383 12.64Z" fill="#202020"/>
</svg>
