<svg width="24" height="24" viewBox="0 0 24 24" fill="none" xmlns="http://www.w3.org/2000/svg">
<path d="M11.7281 20.2503C10.0962 20.2503 8.50102 19.7665 7.14417 18.8599C5.78732 17.9534 4.72978 16.6648 4.10527 15.1572C3.48077 13.6496 3.31735 11.9907 3.63569 10.3902C3.95403 8.7897 4.73983 7.31956 5.89371 6.16568C7.04759 5.0118 8.51773 4.22601 10.1182 3.90767C11.7187 3.58933 13.3776 3.75274 14.8852 4.37725C16.3928 5.00175 17.6814 6.0593 18.588 7.41614C19.4945 8.77299 19.9784 10.3682 19.9783 12C19.9784 12.4655 19.9394 12.9302 19.8618 13.3891C19.8414 13.509 19.7873 13.6207 19.706 13.7111L14.2445 19.7623C14.1632 19.8524 14.0579 19.9176 13.9409 19.9501C13.2202 20.1498 12.4758 20.2508 11.7281 20.2503ZM11.7281 5.02947C7.88454 5.02947 4.75782 8.15619 4.75782 11.9997C4.75782 15.8432 7.88454 18.9703 11.7281 18.9703C12.2991 18.9707 12.868 18.9011 13.4221 18.7632L18.6279 12.9949C18.6748 12.6654 18.6983 12.3329 18.6983 12C18.6983 8.15651 15.5716 5.02979 11.7281 5.02979V5.02947Z" fill="#202020"/>
<path d="M13.6669 19.8851C13.5383 19.885 13.4128 19.8463 13.3066 19.774C13.2004 19.7016 13.1184 19.5989 13.0714 19.4793C12.8327 18.8736 12.7106 18.2282 12.7117 17.5772C12.7117 14.7132 15.0419 12.3833 17.9059 12.3833C18.3841 12.383 18.86 12.4486 19.3203 12.5782C19.4837 12.6243 19.622 12.7334 19.705 12.8816C19.7879 13.0297 19.8085 13.2047 19.7624 13.3681C19.7163 13.5315 19.6071 13.6698 19.459 13.7527C19.3109 13.8356 19.1358 13.8563 18.9725 13.8102C18.2707 13.6123 17.5275 13.6142 16.8267 13.8157C16.126 14.0171 15.4953 14.4102 15.0058 14.9507C14.5163 15.4911 14.1873 16.1574 14.0559 16.8747C13.9245 17.5919 13.9959 18.3316 14.2621 19.0105C14.3003 19.1075 14.3142 19.2124 14.3027 19.3161C14.2911 19.4197 14.2544 19.5189 14.1957 19.6051C14.137 19.6914 14.0582 19.7619 13.966 19.8107C13.8738 19.8595 13.7712 19.885 13.6669 19.8851Z" fill="#202020"/>
</svg>
