<svg width="24" height="24" viewBox="0 0 24 24" fill="none" xmlns="http://www.w3.org/2000/svg">
<path d="M7.31216 6.44157C7.17631 6.44192 7.04387 6.39902 6.93401 6.3191C6.82415 6.23917 6.74258 6.12636 6.7011 5.99699C6.65962 5.86763 6.66038 5.72842 6.70327 5.59951C6.74616 5.47061 6.82896 5.35869 6.93968 5.27997C8.3083 4.30545 9.94166 3.77169 11.6216 3.74996C13.3016 3.72823 14.9482 4.21957 16.3416 5.15837C16.4823 5.25342 16.5794 5.40047 16.6117 5.56715C16.6439 5.73383 16.6087 5.9065 16.5136 6.04717C16.4185 6.18784 16.2715 6.28499 16.1048 6.31725C15.9381 6.3495 15.7655 6.31422 15.6248 6.21917C14.4479 5.42628 13.057 5.01131 11.638 5.02966C10.219 5.04802 8.83941 5.49882 7.68336 6.32189C7.57524 6.39972 7.44538 6.44159 7.31216 6.44157ZM15.4968 19.2531C15.3555 19.2532 15.2181 19.2066 15.106 19.1205C14.994 19.0343 14.9136 18.9135 14.8774 18.7769C14.8413 18.6403 14.8513 18.4955 14.9061 18.3652C14.9608 18.2349 15.0571 18.1264 15.18 18.0566C16.4128 17.3535 17.4017 16.291 18.0147 15.0111C18.6277 13.7311 18.8356 12.2946 18.6107 10.8934C18.5835 10.7258 18.6239 10.5543 18.7231 10.4165C18.8224 10.2788 18.9723 10.1861 19.1398 10.1589C19.3074 10.1316 19.4789 10.172 19.6167 10.2713C19.7545 10.3705 19.8472 10.5204 19.8744 10.688C20.1409 12.3469 19.8948 14.0476 19.169 15.5629C18.4432 17.0782 17.2723 18.3359 15.8126 19.168C15.7165 19.2232 15.6077 19.2526 15.4968 19.2531ZM7.98192 19.2656C7.87188 19.2655 7.76373 19.237 7.668 19.1827C6.2055 18.3556 5.03025 17.1018 4.2993 15.589C3.56835 14.0761 3.31651 12.3762 3.57744 10.7165C3.60401 10.5488 3.69608 10.3986 3.83342 10.2988C3.97076 10.199 4.1421 10.1579 4.30976 10.1845C4.47742 10.211 4.62766 10.3031 4.72743 10.4404C4.8272 10.5778 4.86833 10.7491 4.84176 10.9168C4.62186 12.3188 4.83489 13.7545 5.45241 15.0323C6.06994 16.3101 7.06256 17.369 8.29776 18.0678C8.42115 18.1372 8.51803 18.2456 8.57324 18.376C8.62845 18.5064 8.63887 18.6514 8.60288 18.7883C8.56688 18.9252 8.4865 19.0463 8.37431 19.1327C8.26212 19.2191 8.12446 19.2658 7.98288 19.2656H7.98192Z" fill="#202020"/>
<path d="M11.7281 17.8582C8.49803 17.8582 5.86987 15.23 5.86987 12C5.86987 8.76988 8.49803 6.14172 11.7281 6.14172C14.9582 6.14172 17.5864 8.76988 17.5864 12C17.5864 15.23 14.9582 17.8582 11.7281 17.8582ZM11.7281 7.42172C9.20363 7.42172 7.14987 9.47548 7.14987 12C7.14987 14.5244 9.20363 16.5782 11.7281 16.5782C14.2526 16.5782 16.3064 14.5244 16.3064 12C16.3064 9.47548 14.2526 7.42172 11.7281 7.42172Z" fill="#202020"/>
</svg>
