<svg width="24" height="24" viewBox="0 0 24 24" fill="none" xmlns="http://www.w3.org/2000/svg">
<path d="M16.896 19.4307H7.6592C6.96571 19.43 6.30085 19.1542 5.81048 18.6638C5.32011 18.1734 5.04428 17.5086 5.04352 16.8151V7.57827C5.04428 6.88478 5.32011 6.21991 5.81048 5.72954C6.30085 5.23917 6.96571 4.96335 7.6592 4.96259H16.896C17.5895 4.96335 18.2544 5.23917 18.7447 5.72954C19.2351 6.21991 19.5109 6.88478 19.5117 7.57827V16.8151C19.5109 17.5086 19.2351 18.1734 18.7447 18.6638C18.2544 19.1542 17.5895 19.43 16.896 19.4307ZM7.6592 6.24259C7.30508 6.24301 6.96559 6.38387 6.7152 6.63426C6.4648 6.88466 6.32394 7.22415 6.32352 7.57827V16.8151C6.32394 17.1692 6.4648 17.5087 6.7152 17.7591C6.96559 18.0095 7.30508 18.1503 7.6592 18.1507H16.896C17.2501 18.1504 17.5897 18.0096 17.8401 17.7592C18.0905 17.5087 18.2313 17.1692 18.2317 16.8151V7.57827C18.2313 7.22415 18.0904 6.88466 17.84 6.63426C17.5896 6.38387 17.2501 6.24301 16.896 6.24259H7.6592Z" fill="#202020"/>
<path d="M15.1002 16.992H9.45505C8.93227 16.9914 8.43107 16.7835 8.06141 16.4138C7.69175 16.0441 7.48381 15.5429 7.48322 15.0201V9.37406C7.48381 8.85128 7.69175 8.35008 8.06141 7.98042C8.43107 7.61075 8.93227 7.40281 9.45505 7.40222H15.1002C15.623 7.40281 16.1242 7.61075 16.4938 7.98042C16.8635 8.35008 17.0714 8.85128 17.072 9.37406V15.0192C17.0717 15.5421 16.8638 16.0436 16.4942 16.4134C16.1245 16.7833 15.6231 16.9914 15.1002 16.992ZM9.45505 8.68222C9.27165 8.68248 9.09582 8.75545 8.96613 8.88514C8.83644 9.01483 8.76347 9.19065 8.76322 9.37406V15.0192C8.76322 15.2028 8.83607 15.3788 8.96579 15.5087C9.09551 15.6386 9.27148 15.7117 9.45505 15.712H15.1002C15.2836 15.7117 15.4594 15.6388 15.5891 15.5091C15.7188 15.3794 15.7918 15.2036 15.792 15.0201V9.37406C15.7918 9.19065 15.7188 9.01483 15.5891 8.88514C15.4594 8.75545 15.2836 8.68248 15.1002 8.68222H9.45505Z" fill="#202020"/>
<path d="M8.12322 14.6259C7.95348 14.6259 7.79069 14.5585 7.67067 14.4385C7.55064 14.3184 7.48322 14.1557 7.48322 13.9859C7.48322 13.8162 7.55064 13.6534 7.67067 13.5334C7.79069 13.4134 7.95348 13.3459 8.12322 13.3459C8.48018 13.3459 8.82252 13.2041 9.07492 12.9517C9.32733 12.6993 9.46914 12.357 9.46914 12C9.46914 11.643 9.32733 11.3007 9.07492 11.0483C8.82252 10.7959 8.48018 10.6541 8.12322 10.6541C7.95348 10.6541 7.79069 10.5867 7.67067 10.4666C7.55064 10.3466 7.48322 10.1838 7.48322 10.0141C7.48322 9.84435 7.55064 9.68156 7.67067 9.56154C7.79069 9.44151 7.95348 9.37408 8.12322 9.37408C8.81965 9.37408 9.48757 9.65074 9.98002 10.1432C10.4725 10.6357 10.7491 11.3036 10.7491 12C10.7491 12.6964 10.4725 13.3644 9.98002 13.8568C9.48757 14.3493 8.81965 14.6259 8.12322 14.6259ZM16.432 11.6413H14.176C14.0063 11.6413 13.8435 11.5739 13.7235 11.4538C13.6034 11.3338 13.536 11.171 13.536 11.0013C13.536 10.8315 13.6034 10.6688 13.7235 10.5487C13.8435 10.4287 14.0063 10.3613 14.176 10.3613H16.432C16.6018 10.3613 16.7645 10.4287 16.8846 10.5487C17.0046 10.6688 17.072 10.8315 17.072 11.0013C17.072 11.171 17.0046 11.3338 16.8846 11.4538C16.7645 11.5739 16.6018 11.6413 16.432 11.6413ZM16.432 13.8778H14.176C14.0063 13.8778 13.8435 13.8103 13.7235 13.6903C13.6034 13.5703 13.536 13.4075 13.536 13.2378C13.536 13.068 13.6034 12.9052 13.7235 12.7852C13.8435 12.6652 14.0063 12.5978 14.176 12.5978H16.432C16.6018 12.5978 16.7645 12.6652 16.8846 12.7852C17.0046 12.9052 17.072 13.068 17.072 13.2378C17.072 13.4075 17.0046 13.5703 16.8846 13.6903C16.7645 13.8103 16.6018 13.8778 16.432 13.8778Z" fill="#202020"/>
</svg>
