<svg width="24" height="24" viewBox="0 0 24 24" fill="none" xmlns="http://www.w3.org/2000/svg">
<path d="M16.896 19.9527H8.32705C7.54476 19.9521 6.79464 19.6412 6.24136 19.0882C5.68808 18.5352 5.37685 17.7852 5.37601 17.0029V8.43426C5.37685 7.65219 5.6879 6.9024 6.24091 6.3494C6.79391 5.79639 7.5437 5.48534 8.32577 5.4845H16.896C17.6781 5.48526 18.428 5.79627 18.9811 6.34928C19.5341 6.9023 19.8452 7.65214 19.8461 8.43426V17.0029C19.8452 17.785 19.5341 18.5349 18.9811 19.0879C18.428 19.6409 17.6781 19.9519 16.896 19.9527ZM8.32705 6.7645C7.88413 6.76467 7.45939 6.9406 7.14608 7.25367C6.83278 7.56674 6.65652 7.99134 6.65601 8.43426V17.0029C6.65652 17.4456 6.8326 17.87 7.14563 18.183C7.45866 18.4961 7.88307 18.6721 8.32577 18.6727H16.896C17.3388 18.6722 17.7633 18.4962 18.0764 18.1831C18.3895 17.8701 18.5656 17.4456 18.5661 17.0029V8.43426C18.5656 7.99151 18.3895 7.56705 18.0764 7.25401C17.7633 6.94097 17.3388 6.76492 16.896 6.7645H8.32705Z" fill="#202020"/>
<path d="M12.6112 13.9988C12.3158 13.9988 12.027 13.9113 11.7814 13.7472C11.5358 13.5832 11.3443 13.3499 11.2312 13.077C11.1181 12.8042 11.0885 12.5039 11.1461 12.2142C11.2037 11.9244 11.3459 11.6583 11.5548 11.4494C11.7636 11.2405 12.0297 11.0982 12.3194 11.0406C12.6091 10.9829 12.9094 11.0125 13.1823 11.1255C13.4552 11.2385 13.6885 11.43 13.8526 11.6756C14.0167 11.9212 14.1043 12.2099 14.1043 12.5053C14.1039 12.9012 13.9465 13.2808 13.6666 13.5608C13.3866 13.8407 13.0071 13.9982 12.6112 13.9988ZM12.6112 12.2922C12.569 12.2921 12.5277 12.3046 12.4925 12.328C12.4574 12.3515 12.43 12.3848 12.4138 12.4238C12.3976 12.4628 12.3933 12.5058 12.4015 12.5472C12.4098 12.5886 12.4301 12.6267 12.46 12.6566C12.4898 12.6864 12.5279 12.7068 12.5693 12.715C12.6108 12.7232 12.6537 12.719 12.6927 12.7028C12.7317 12.6866 12.7651 12.6592 12.7885 12.624C12.8119 12.5889 12.8244 12.5476 12.8243 12.5053C12.8242 12.4488 12.8018 12.3947 12.7618 12.3547C12.7219 12.3148 12.6677 12.2923 12.6112 12.2922ZM19.2054 10.336H6.01601C5.84627 10.336 5.68348 10.2686 5.56346 10.1486C5.44344 10.0286 5.37601 9.86577 5.37601 9.69603C5.37601 9.52629 5.44344 9.3635 5.56346 9.24348C5.68348 9.12346 5.84627 9.05603 6.01601 9.05603H19.2054C19.3752 9.05603 19.538 9.12346 19.658 9.24348C19.778 9.3635 19.8454 9.52629 19.8454 9.69603C19.8454 9.86577 19.778 10.0286 19.658 10.1486C19.538 10.2686 19.3752 10.336 19.2054 10.336Z" fill="#202020"/>
<path d="M12.6112 15.584C12.4415 15.584 12.2787 15.5166 12.1586 15.3966C12.0386 15.2766 11.9712 15.1138 11.9712 14.944V13.3588C11.9712 13.189 12.0386 13.0262 12.1586 12.9062C12.2787 12.7862 12.4415 12.7188 12.6112 12.7188C12.7809 12.7188 12.9437 12.7862 13.0637 12.9062C13.1838 13.0262 13.2512 13.189 13.2512 13.3588V14.944C13.2512 15.1138 13.1838 15.2766 13.0637 15.3966C12.9437 15.5166 12.7809 15.584 12.6112 15.584Z" fill="#202020"/>
</svg>
