<svg width="24" height="24" viewBox="0 0 24 24" fill="none" xmlns="http://www.w3.org/2000/svg">
<path d="M11.8115 20.6822H11.7958C11.7096 20.68 11.6247 20.6604 11.5461 20.6247C11.4676 20.5889 11.3971 20.5376 11.3389 20.4739L9.08609 18.008H6.96801C5.08001 18.008 3.54401 16.6496 3.54401 14.9798V6.3456C3.54401 4.67616 5.08001 3.31776 6.96801 3.31776H17.032C18.92 3.31776 20.456 4.67616 20.456 6.3456V14.9798C20.456 16.6496 18.92 18.008 17.032 18.008H14.7699L12.2624 20.4966C12.1425 20.6156 11.9804 20.6823 11.8115 20.6822ZM6.96801 4.59776C5.78593 4.59776 4.82401 5.38176 4.82401 6.3456V14.9798C4.82401 15.9437 5.78561 16.728 6.96801 16.728H9.36801C9.45688 16.728 9.54478 16.7466 9.6261 16.7824C9.70742 16.8183 9.78038 16.8707 9.84033 16.9363L11.8339 19.1181L14.055 16.9136C14.175 16.7947 14.337 16.728 14.5059 16.728H17.0317C18.2138 16.728 19.1757 15.9437 19.1757 14.9798V6.3456C19.1757 5.38176 18.2157 4.59776 17.0317 4.59776H6.96801Z" fill="#202020"/>
<path d="M11.9462 10.816C11.4109 10.816 10.8875 10.6572 10.4423 10.3598C9.99719 10.0623 9.65024 9.63956 9.44537 9.14492C9.24051 8.65029 9.18692 8.10601 9.29139 7.58091C9.39586 7.05582 9.6537 6.5735 10.0323 6.19495C10.4109 5.8164 10.8932 5.55862 11.4183 5.45421C11.9434 5.3498 12.4877 5.40345 12.9823 5.60838C13.4769 5.81331 13.8997 6.1603 14.1971 6.60549C14.4945 7.05068 14.6532 7.57405 14.6531 8.10944C14.6523 8.82706 14.3668 9.51504 13.8593 10.0224C13.3519 10.5298 12.6639 10.8152 11.9462 10.816ZM11.9462 6.68256C11.664 6.68256 11.3882 6.76624 11.1535 6.92303C10.9189 7.07982 10.736 7.30267 10.628 7.56339C10.52 7.82412 10.4917 8.11102 10.5468 8.38781C10.6018 8.6646 10.7377 8.91884 10.9373 9.11839C11.1368 9.31795 11.3911 9.45385 11.6679 9.5089C11.9447 9.56396 12.2316 9.5357 12.4923 9.4277C12.753 9.31971 12.9759 9.13682 13.1326 8.90217C13.2894 8.66752 13.3731 8.39165 13.3731 8.10944C13.3724 7.7313 13.2219 7.36886 12.9544 7.10157C12.6869 6.83428 12.3244 6.68394 11.9462 6.68352V6.68256ZM14.912 16.0842H9.088C8.80643 16.0839 8.52954 16.0121 8.2833 15.8756C8.03706 15.739 7.82954 15.5422 7.6802 15.3035C7.53087 15.0648 7.44461 14.792 7.42951 14.5109C7.41442 14.2297 7.47099 13.9493 7.59392 13.696C8.36 12.1114 10.0899 11.0874 12 11.0874C13.9101 11.0874 15.64 12.1114 16.4061 13.696C16.529 13.9493 16.5856 14.2297 16.5705 14.5109C16.5554 14.792 16.4691 15.0648 16.3198 15.3035C16.1705 15.5422 15.9629 15.739 15.7167 15.8756C15.4705 16.0121 15.1936 16.0839 14.912 16.0842ZM12 12.3661C10.5773 12.3661 9.30016 13.1062 8.74624 14.2518C8.71715 14.3108 8.7037 14.3763 8.70718 14.4419C8.71065 14.5076 8.73093 14.5713 8.76608 14.6269C8.79973 14.6814 8.84684 14.7263 8.90288 14.7574C8.95892 14.7884 9.02201 14.8045 9.08608 14.8042H14.912C14.9761 14.8045 15.0391 14.7884 15.0952 14.7574C15.1512 14.7263 15.1983 14.6814 15.232 14.6269C15.2671 14.5713 15.2874 14.5076 15.2909 14.4419C15.2944 14.3763 15.2809 14.3108 15.2518 14.2518C14.6998 13.1062 13.4227 12.3661 12 12.3661Z" fill="#202020"/>
</svg>
