<svg width="24" height="24" viewBox="0 0 24 24" fill="none" xmlns="http://www.w3.org/2000/svg">
<path d="M14.1687 20.8362C13.652 20.8371 13.1559 20.6342 12.7879 20.2717L6.69729 14.281C6.51103 14.0968 6.36315 13.8776 6.26219 13.6359C6.16123 13.3942 6.10921 13.1349 6.10913 12.873L6.11777 7.67106C6.11954 7.15017 6.32725 6.65112 6.69558 6.28279C7.06391 5.91446 7.56296 5.70675 8.08385 5.70498L13.1037 5.69666H13.1072C13.6241 5.69558 14.1204 5.89883 14.488 6.2621L20.6272 12.3018C20.9987 12.6683 21.2098 13.1671 21.2141 13.689C21.2185 14.2109 21.0157 14.7132 20.6503 15.0858L15.5728 20.2487C15.3896 20.4351 15.1711 20.5831 14.93 20.684C14.6889 20.7849 14.43 20.8366 14.1687 20.8362ZM7.39777 7.67426L7.38913 12.8759C7.38923 12.9675 7.40747 13.0581 7.44278 13.1427C7.47809 13.2272 7.52979 13.3039 7.59489 13.3683L13.6855 19.36C13.8159 19.4879 13.9918 19.5589 14.1745 19.5573C14.3572 19.5558 14.5319 19.4818 14.6602 19.3517L19.7376 14.1891C19.8656 14.0587 19.9367 13.8829 19.9352 13.7001C19.9337 13.5174 19.8598 13.3427 19.7296 13.2144L13.5904 7.1757C13.4617 7.04845 13.2879 6.97725 13.1069 6.97762L8.08673 6.98594C7.90441 6.98661 7.72976 7.05936 7.60087 7.18831C7.47199 7.31726 7.39932 7.49194 7.39873 7.67426H7.39777Z" fill="#202020"/>
<path d="M11.3946 12.9715C10.8474 12.9692 10.3235 12.7499 9.93787 12.3618C9.55221 11.9737 9.33627 11.4484 9.33744 10.9012C9.3386 10.3541 9.55678 9.82974 9.94408 9.44326C10.3314 9.05678 10.8562 8.83972 11.4034 8.83972C11.9505 8.83972 12.4753 9.05678 12.8626 9.44326C13.2499 9.82974 13.4681 10.3541 13.4693 10.9012C13.4704 11.4484 13.2545 11.9737 12.8688 12.3618C12.4832 12.7499 11.9593 12.9692 11.4122 12.9715H11.3946ZM11.3946 10.0797H11.3875C11.2011 10.0813 11.021 10.1474 10.8779 10.2669C10.7348 10.3863 10.6375 10.5517 10.6027 10.7348C10.5678 10.9179 10.5976 11.1075 10.6868 11.2711C10.776 11.4348 10.9192 11.5625 11.092 11.6324C11.2648 11.7023 11.4565 11.7101 11.6345 11.6546C11.8124 11.599 11.9656 11.4834 12.0679 11.3276C12.1701 11.1718 12.2152 10.9853 12.1955 10.7999C12.1757 10.6146 12.0922 10.4418 11.9594 10.3111C11.8092 10.1626 11.6064 10.0796 11.3952 10.08L11.3946 10.0797Z" fill="#202020"/>
</svg>
