<svg width="24" height="24" viewBox="0 0 24 24" fill="none" xmlns="http://www.w3.org/2000/svg">
<path d="M9.38304 14.688C9.2133 14.688 9.05052 14.6206 8.93049 14.5006C8.81047 14.3805 8.74304 14.2177 8.74304 14.048C8.74304 13.8783 8.81047 13.7155 8.93049 13.5955C9.05052 13.4754 9.2133 13.408 9.38304 13.408H19.751C19.9208 13.408 20.0836 13.4754 20.2036 13.5955C20.3236 13.7155 20.391 13.8783 20.391 14.048C20.391 14.2177 20.3236 14.3805 20.2036 14.5006C20.0836 14.6206 19.9208 14.688 19.751 14.688H9.38304ZM9.38304 18.4522C9.2133 18.4522 9.05052 18.3847 8.93049 18.2647C8.81047 18.1447 8.74304 17.9819 8.74304 17.8122C8.74304 17.6424 8.81047 17.4796 8.93049 17.3596C9.05052 17.2396 9.2133 17.1722 9.38304 17.1722H19.751C19.9208 17.1722 20.0836 17.2396 20.2036 17.3596C20.3236 17.4796 20.391 17.6424 20.391 17.8122C20.391 17.9819 20.3236 18.1447 20.2036 18.2647C20.0836 18.3847 19.9208 18.4522 19.751 18.4522H9.38304ZM9.38304 7.15552C9.2133 7.15552 9.05052 7.0881 8.93049 6.96807C8.81047 6.84805 8.74304 6.68526 8.74304 6.51552C8.74304 6.34579 8.81047 6.183 8.93049 6.06298C9.05052 5.94295 9.2133 5.87552 9.38304 5.87552H19.751C19.9208 5.87552 20.0836 5.94295 20.2036 6.06298C20.3236 6.183 20.391 6.34579 20.391 6.51552C20.391 6.68526 20.3236 6.84805 20.2036 6.96807C20.0836 7.0881 19.9208 7.15552 19.751 7.15552H9.38304ZM9.38304 10.921C9.2133 10.921 9.05052 10.8535 8.93049 10.7335C8.81047 10.6135 8.74304 10.4507 8.74304 10.281C8.74304 10.1112 8.81047 9.94844 8.93049 9.82842C9.05052 9.70839 9.2133 9.64096 9.38304 9.64096H19.751C19.9208 9.64096 20.0836 9.70839 20.2036 9.82842C20.3236 9.94844 20.391 10.1112 20.391 10.281C20.391 10.4507 20.3236 10.6135 20.2036 10.7335C20.0836 10.8535 19.9208 10.921 19.751 10.921H9.38304ZM5.30624 8.13984C5.15068 8.13962 5.00052 8.08274 4.88384 7.97984L3.82784 7.05184C3.76095 6.99751 3.70572 6.93022 3.66547 6.85402C3.62522 6.77781 3.60077 6.69427 3.59359 6.60838C3.58642 6.5225 3.59666 6.43606 3.62371 6.35423C3.65075 6.2724 3.69405 6.19688 3.75099 6.1322C3.80794 6.06751 3.87736 6.01499 3.9551 5.97779C4.03284 5.94059 4.11729 5.91947 4.20339 5.9157C4.28948 5.91193 4.37546 5.92559 4.45615 5.95586C4.53684 5.98613 4.61058 6.03238 4.67296 6.09184L5.2848 6.62944L7.22592 4.73888C7.34902 4.6298 7.50938 4.5723 7.67375 4.57831C7.83811 4.58431 7.99385 4.65336 8.10866 4.77114C8.22346 4.88891 8.28852 5.04636 8.29034 5.21082C8.29215 5.37528 8.23058 5.53413 8.1184 5.6544L5.75296 7.9584C5.6334 8.07481 5.47311 8.13991 5.30624 8.13984ZM5.30624 11.8282C5.15068 11.8279 5.00052 11.7711 4.88384 11.6682L3.82784 10.7402C3.76095 10.6858 3.70572 10.6185 3.66547 10.5423C3.62522 10.4661 3.60077 10.3826 3.59359 10.2967C3.58642 10.2108 3.59666 10.1244 3.62371 10.0426C3.65075 9.96072 3.69405 9.8852 3.75099 9.82052C3.80794 9.75583 3.87736 9.70331 3.9551 9.66611C4.03284 9.62891 4.11729 9.60779 4.20339 9.60402C4.28948 9.60025 4.37546 9.61391 4.45615 9.64418C4.53684 9.67445 4.61058 9.7207 4.67296 9.78016L5.2848 10.3178L7.22592 8.4272C7.28551 8.36576 7.35682 8.31689 7.43564 8.28349C7.51445 8.25009 7.59916 8.23284 7.68475 8.23276C7.77035 8.23267 7.85509 8.24976 7.93397 8.28301C8.01284 8.31626 8.08425 8.365 8.14395 8.42633C8.20366 8.48766 8.25046 8.56035 8.28157 8.64009C8.31269 8.71983 8.3275 8.805 8.32511 8.89057C8.32273 8.97613 8.30321 9.06035 8.2677 9.13823C8.2322 9.21612 8.18143 9.28609 8.1184 9.344L5.75296 11.648C5.6332 11.7639 5.47293 11.8286 5.30624 11.8282ZM5.30624 15.7082C5.15064 15.7081 5.00043 15.6512 4.88384 15.5482L3.82784 14.6202C3.76095 14.5658 3.70572 14.4985 3.66547 14.4223C3.62522 14.3461 3.60077 14.2626 3.59359 14.1767C3.58642 14.0908 3.59666 14.0044 3.62371 13.9226C3.65075 13.8407 3.69405 13.7652 3.75099 13.7005C3.80794 13.6358 3.87736 13.5833 3.9551 13.5461C4.03284 13.5089 4.11729 13.4878 4.20339 13.484C4.28948 13.4803 4.37546 13.4939 4.45615 13.5242C4.53684 13.5544 4.61058 13.6007 4.67296 13.6602L5.2848 14.1981L7.22592 12.3072C7.28489 12.2435 7.35619 12.1925 7.4355 12.1572C7.51482 12.1219 7.60047 12.1031 7.68727 12.102C7.77407 12.1009 7.86018 12.1174 7.94039 12.1506C8.02059 12.1838 8.0932 12.233 8.1538 12.2951C8.21441 12.3573 8.26174 12.4311 8.29291 12.5121C8.32408 12.5931 8.33845 12.6796 8.33514 12.7664C8.33183 12.8531 8.31091 12.9383 8.27365 13.0167C8.23639 13.0951 8.18357 13.1651 8.1184 13.2224L5.75296 15.5264C5.63361 15.6432 5.47321 15.7084 5.30624 15.7082ZM5.30624 19.4282C5.15064 19.4281 5.00043 19.3712 4.88384 19.2682L3.82784 18.3402C3.76095 18.2858 3.70572 18.2185 3.66547 18.1423C3.62522 18.0661 3.60077 17.9826 3.59359 17.8967C3.58642 17.8108 3.59666 17.7244 3.62371 17.6426C3.65075 17.5607 3.69405 17.4852 3.75099 17.4205C3.80794 17.3558 3.87736 17.3033 3.9551 17.2661C4.03284 17.2289 4.11729 17.2078 4.20339 17.204C4.28948 17.2003 4.37546 17.2139 4.45615 17.2442C4.53684 17.2744 4.61058 17.3207 4.67296 17.3802L5.2848 17.9181L7.22592 16.0272C7.28614 15.9686 7.35732 15.9224 7.4354 15.8912C7.51348 15.8601 7.59692 15.8446 7.68097 15.8457C7.76502 15.8469 7.84802 15.8645 7.92525 15.8977C8.00247 15.9309 8.0724 15.979 8.13104 16.0392C8.18969 16.0994 8.23589 16.1706 8.26703 16.2487C8.29816 16.3268 8.31361 16.4102 8.3125 16.4943C8.31138 16.5783 8.29373 16.6613 8.26053 16.7385C8.22734 16.8158 8.17926 16.8857 8.11904 16.9443L5.7536 19.2483C5.63363 19.3643 5.47311 19.4288 5.30624 19.4282Z" fill="#202020"/>
</svg>
