<svg width="24" height="24" viewBox="0 0 24 24" fill="none" xmlns="http://www.w3.org/2000/svg">
<path d="M11.9661 14.6881C11.2979 14.6881 10.6304 14.5211 10.1117 14.1873L4.67455 10.6881C4.09343 10.314 3.76063 9.7662 3.76191 9.18412C3.76319 8.60204 4.10143 8.0494 4.68991 7.67372L10.176 4.17644C11.2205 3.5102 12.8509 3.51084 13.888 4.17644L19.3254 7.67692C19.9094 8.0526 20.2422 8.60492 20.2381 9.18732C20.2339 9.76972 19.8957 10.3166 19.3101 10.6913L13.824 14.1892C13.3014 14.522 12.6333 14.6881 11.9661 14.6881ZM10.8045 13.1112C11.4217 13.5083 12.511 13.5076 13.1353 13.1096L18.6214 9.611C18.8313 9.47724 18.9571 9.31532 18.9581 9.17836C18.959 9.0414 18.8374 8.88492 18.6329 8.75308L13.1955 5.2542C12.5782 4.85676 11.4889 4.85772 10.8646 5.2558L5.37855 8.75468C5.16799 8.88876 5.04223 9.051 5.04191 9.1886C5.04159 9.3262 5.16319 9.48108 5.36703 9.61228L10.8045 13.1112Z" fill="#202020"/>
<path d="M12 20.3247C11.4902 20.3249 10.9828 20.2559 10.4915 20.1196L7.29985 19.2348C6.85125 19.1093 6.4559 18.8408 6.17391 18.47C5.89192 18.0993 5.73873 17.6466 5.73761 17.1807V11.0236C5.73761 10.8539 5.80504 10.6911 5.92506 10.5711C6.04508 10.4511 6.20787 10.3836 6.37761 10.3836C6.54735 10.3836 6.71013 10.4511 6.83016 10.5711C6.95018 10.6911 7.01761 10.8539 7.01761 11.0236V17.1807C7.01805 17.3669 7.07928 17.5478 7.19197 17.696C7.30466 17.8441 7.46266 17.9514 7.64193 18.0015L10.8336 18.886C11.5968 19.0979 12.4032 19.0979 13.1664 18.886L16.3581 18.0015C16.5374 17.9514 16.6954 17.8441 16.8081 17.696C16.9207 17.5478 16.982 17.3669 16.9824 17.1807V11.1228C16.9824 10.9531 17.0498 10.7903 17.1699 10.6703C17.2899 10.5503 17.4527 10.4828 17.6224 10.4828C17.7921 10.4828 17.9549 10.5503 18.075 10.6703C18.195 10.7903 18.2624 10.9531 18.2624 11.1228V17.1807C18.2613 17.6466 18.1081 18.0993 17.8261 18.47C17.5441 18.8408 17.1488 19.1093 16.7002 19.2348L13.5085 20.1196C13.0172 20.2559 12.5098 20.3249 12 20.3247ZM19.5981 12.5174C19.4284 12.5174 19.2656 12.45 19.1455 12.3299C19.0255 12.2099 18.9581 12.0471 18.9581 11.8774V9.18395C18.9581 9.01421 19.0255 8.85142 19.1455 8.7314C19.2656 8.61137 19.4284 8.54395 19.5981 8.54395C19.7678 8.54395 19.9306 8.61137 20.0506 8.7314C20.1707 8.85142 20.2381 9.01421 20.2381 9.18395V11.8787C20.2378 12.0482 20.1702 12.2106 20.0502 12.3304C19.9302 12.4501 19.7676 12.5174 19.5981 12.5174Z" fill="#202020"/>
</svg>
