<svg width="24" height="24" viewBox="0 0 24 24" fill="none" xmlns="http://www.w3.org/2000/svg">
<path d="M4.21642 14.56C4.04668 14.56 3.88389 14.4925 3.76387 14.3725C3.64384 14.2525 3.57642 14.0897 3.57642 13.92C3.57642 13.7502 3.64384 13.5875 3.76387 13.4674C3.88389 13.3474 4.04668 13.28 4.21642 13.28H19.7838C19.9535 13.28 20.1163 13.3474 20.2363 13.4674C20.3563 13.5875 20.4238 13.7502 20.4238 13.92C20.4238 14.0897 20.3563 14.2525 20.2363 14.3725C20.1163 14.4925 19.9535 14.56 19.7838 14.56H4.21642ZM4.21642 18.4C4.04668 18.4 3.88389 18.3325 3.76387 18.2125C3.64384 18.0925 3.57642 17.9297 3.57642 17.76C3.57642 17.5902 3.64384 17.4275 3.76387 17.3074C3.88389 17.1874 4.04668 17.12 4.21642 17.12H19.7838C19.9535 17.12 20.1163 17.1874 20.2363 17.3074C20.3563 17.4275 20.4238 17.5902 20.4238 17.76C20.4238 17.9297 20.3563 18.0925 20.2363 18.2125C20.1163 18.3325 19.9535 18.4 19.7838 18.4H4.21642ZM4.21642 6.87998C4.04668 6.87998 3.88389 6.81255 3.76387 6.69252C3.64384 6.5725 3.57642 6.40971 3.57642 6.23998C3.57642 6.07024 3.64384 5.90745 3.76387 5.78743C3.88389 5.6674 4.04668 5.59998 4.21642 5.59998H19.7838C19.9535 5.59998 20.1163 5.6674 20.2363 5.78743C20.3563 5.90745 20.4238 6.07024 20.4238 6.23998C20.4238 6.40971 20.3563 6.5725 20.2363 6.69252C20.1163 6.81255 19.9535 6.87998 19.7838 6.87998H4.21642ZM4.21642 10.72C4.04668 10.72 3.88389 10.6525 3.76387 10.5325C3.64384 10.4125 3.57642 10.2497 3.57642 10.08C3.57642 9.91024 3.64384 9.74745 3.76387 9.62743C3.88389 9.5074 4.04668 9.43998 4.21642 9.43998H19.7838C19.9535 9.43998 20.1163 9.5074 20.2363 9.62743C20.3563 9.74745 20.4238 9.91024 20.4238 10.08C20.4238 10.2497 20.3563 10.4125 20.2363 10.5325C20.1163 10.6525 19.9535 10.72 19.7838 10.72H4.21642Z" fill="#202020"/>
</svg>
