<svg width="24" height="24" viewBox="0 0 24 24" fill="none" xmlns="http://www.w3.org/2000/svg">
<path d="M12.088 12.64H6.17601C6.00627 12.64 5.84349 12.5726 5.72346 12.4525C5.60344 12.3325 5.53601 12.1697 5.53601 12V4.57311C5.53601 4.40337 5.60344 4.24058 5.72346 4.12056C5.84349 4.00053 6.00627 3.93311 6.17601 3.93311H12.088C14.488 3.93311 16.44 5.88511 16.44 8.28511C16.44 10.6851 14.4883 12.64 12.088 12.64ZM6.81601 11.36H12.088C12.9031 11.36 13.6849 11.0362 14.2613 10.4598C14.8376 9.88341 15.1615 9.10167 15.1615 8.28654C15.1615 7.47142 14.8376 6.68968 14.2613 6.11329C13.6849 5.53691 12.9031 5.21311 12.088 5.21311H6.81601V11.36Z" fill="#202020"/>
<path d="M14.112 20.0669H6.17601C6.00627 20.0669 5.84349 19.9994 5.72346 19.8794C5.60344 19.7594 5.53601 19.5966 5.53601 19.4269V12C5.53601 11.8302 5.60344 11.6675 5.72346 11.5474C5.84349 11.4274 6.00627 11.36 6.17601 11.36H14.112C16.512 11.36 18.464 13.312 18.464 15.712C18.464 18.112 16.512 20.0669 14.112 20.0669ZM6.81601 18.7869H14.112C14.9271 18.7869 15.7089 18.4631 16.2853 17.8867C16.8616 17.3103 17.1855 16.5286 17.1855 15.7134C17.1855 14.8983 16.8616 14.1166 16.2853 13.5402C15.7089 12.9638 14.9271 12.64 14.112 12.64H6.81601V18.7869Z" fill="#202020"/>
</svg>
