<svg width="24" height="24" viewBox="0 0 24 24" fill="none" xmlns="http://www.w3.org/2000/svg">
<path d="M12.0001 10.72C11.8304 10.72 11.6676 10.6525 11.5475 10.5325C11.4275 10.4125 11.3601 10.2497 11.3601 10.08C11.3601 9.91024 11.4275 9.74745 11.5475 9.62743C11.6676 9.5074 11.8304 9.43998 12.0001 9.43998H19.7835C19.9532 9.43998 20.116 9.5074 20.236 9.62743C20.356 9.74745 20.4235 9.91024 20.4235 10.08C20.4235 10.2497 20.356 10.4125 20.236 10.5325C20.116 10.6525 19.9532 10.72 19.7835 10.72H12.0001ZM12.0001 6.87998C11.8304 6.87998 11.6676 6.81255 11.5475 6.69252C11.4275 6.5725 11.3601 6.40971 11.3601 6.23998C11.3601 6.07024 11.4275 5.90745 11.5475 5.78743C11.6676 5.6674 11.8304 5.59998 12.0001 5.59998H19.7835C19.9532 5.59998 20.116 5.6674 20.236 5.78743C20.356 5.90745 20.4235 6.07024 20.4235 6.23998C20.4235 6.40971 20.356 6.5725 20.236 6.69252C20.116 6.81255 19.9532 6.87998 19.7835 6.87998H12.0001ZM4.21642 14.56C4.04668 14.56 3.88389 14.4925 3.76387 14.3725C3.64384 14.2525 3.57642 14.0897 3.57642 13.92C3.57642 13.7502 3.64384 13.5875 3.76387 13.4674C3.88389 13.3474 4.04668 13.28 4.21642 13.28H19.7838C19.9535 13.28 20.1163 13.3474 20.2363 13.4674C20.3563 13.5875 20.4238 13.7502 20.4238 13.92C20.4238 14.0897 20.3563 14.2525 20.2363 14.3725C20.1163 14.4925 19.9535 14.56 19.7838 14.56H4.21642ZM4.21642 18.4C4.04668 18.4 3.88389 18.3325 3.76387 18.2125C3.64384 18.0925 3.57642 17.9297 3.57642 17.76C3.57642 17.5902 3.64384 17.4275 3.76387 17.3074C3.88389 17.1874 4.04668 17.12 4.21642 17.12H19.7838C19.9535 17.12 20.1163 17.1874 20.2363 17.3074C20.3563 17.4275 20.4238 17.5902 20.4238 17.76C20.4238 17.9297 20.3563 18.0925 20.2363 18.2125C20.1163 18.3325 19.9535 18.4 19.7838 18.4H4.21642Z" fill="#202020"/>
</svg>
