<svg width="24" height="24" viewBox="0 0 24 24" fill="none" xmlns="http://www.w3.org/2000/svg">
<path d="M16 6C14.8954 6 14 6.89545 14 8C14 9.10455 14.8954 10 16 10C17.104 9.9986 17.9986 9.104 18 8C18 6.89545 17.1046 6 16 6ZM16 9C15.4477 9 15 8.55231 15 8C15 7.44769 15.4477 7 16 7C16.5521 7.00037 16.9996 7.44788 17 8C17 8.55231 16.5523 9 16 9ZM8 14C6.89545 14 6 14.8954 6 16C6 17.1046 6.89545 18 8 18C9.104 17.9986 9.9986 17.104 10 16C10 14.8954 9.10455 14 8 14ZM8 17C7.44769 17 7 16.5523 7 16C7 15.4477 7.44769 15 8 15C8.55212 15.0004 8.99963 15.4479 9 16C9 16.5523 8.55231 17 8 17ZM12 10C10.8954 10 10 10.8954 10 12C10 13.1046 10.8954 14 12 14C13.104 13.9986 13.9986 13.104 14 12C14 10.8954 13.1046 10 12 10ZM12 13C11.4477 13 11 12.5523 11 12C11 11.4477 11.4477 11 12 11C12.5521 11.0004 12.9996 11.4479 13 12C13 12.5523 12.5523 13 12 13ZM17 2H7C4.23993 2.00323 2.00323 4.23993 2 7V17C2.00323 19.7601 4.23993 21.9968 7 22H17C19.7601 21.9968 21.9968 19.7601 22 17V7C21.9968 4.23993 19.7601 2.00323 17 2ZM21 17C20.9978 19.2083 19.2083 20.9978 17 21H7C4.79175 20.9978 3.0022 19.2083 3 17V7C3.0022 4.79175 4.79175 3.0022 7 3H17C19.2083 3.0022 20.9978 4.79175 21 7V17Z" fill="#202020"/>
</svg>
