<svg width="24" height="24" viewBox="0 0 24 24" fill="none" xmlns="http://www.w3.org/2000/svg">
<path d="M16.6272 17.2029H3.48096C2.96986 17.2024 2.47985 16.9991 2.11845 16.6377C1.75705 16.2763 1.55379 15.7863 1.55328 15.2752V13.888C1.55328 13.7183 1.62071 13.5555 1.74073 13.4355C1.86075 13.3154 2.02354 13.248 2.19328 13.248C2.33479 13.2505 2.47537 13.2247 2.60683 13.1722C2.73828 13.1198 2.85797 13.0417 2.95891 12.9425C3.05985 12.8433 3.14003 12.7249 3.19475 12.5944C3.24948 12.4639 3.27767 12.3238 3.27767 12.1822C3.27767 12.0407 3.24948 11.9006 3.19475 11.7701C3.14003 11.6395 3.05985 11.5212 2.95891 11.422C2.85797 11.3228 2.73828 11.2447 2.60683 11.1922C2.47537 11.1398 2.33479 11.114 2.19328 11.1165C2.02354 11.1165 1.86075 11.0491 1.74073 10.929C1.62071 10.809 1.55328 10.6462 1.55328 10.4765V8.7248C1.55379 8.2137 1.75705 7.72368 2.11845 7.36228C2.47985 7.00088 2.96986 6.79763 3.48096 6.79712H16.6272C17.1382 6.79771 17.6282 7.00101 17.9895 7.3624C18.3508 7.72379 18.5541 8.21376 18.5546 8.7248V10.4848C18.5546 10.6429 18.496 10.7954 18.3903 10.9129C18.2845 11.0305 18.139 11.1047 17.9818 11.1213C17.72 11.149 17.4778 11.2726 17.3018 11.4682C17.1257 11.6639 17.0283 11.9178 17.0283 12.181C17.0283 12.4442 17.1257 12.698 17.3018 12.8937C17.4778 13.0893 17.72 13.2129 17.9818 13.2406C18.139 13.2572 18.2845 13.3315 18.3903 13.449C18.496 13.5665 18.5546 13.719 18.5546 13.8771V15.2755C18.554 15.7865 18.3507 16.2764 17.9894 16.6377C17.6281 16.999 17.1382 17.2023 16.6272 17.2029ZM2.83328 14.4378V15.2752C2.83345 15.4469 2.90174 15.6116 3.02317 15.733C3.1446 15.8544 3.30924 15.9227 3.48096 15.9229H16.6272C16.7989 15.9227 16.9635 15.8544 17.0849 15.733C17.2063 15.6115 17.2745 15.4469 17.2746 15.2752V14.3792C16.8267 14.2116 16.4407 13.9112 16.1682 13.5183C15.8957 13.1253 15.7497 12.6585 15.7497 12.1803C15.7497 11.7021 15.8957 11.2353 16.1682 10.8424C16.4407 10.4494 16.8267 10.1491 17.2746 9.98144V8.7248C17.2745 8.5531 17.2063 8.38846 17.0849 8.26703C16.9635 8.14559 16.7989 8.07729 16.6272 8.07712H3.48096C3.30924 8.07729 3.1446 8.14558 3.02317 8.26701C2.90174 8.38843 2.83345 8.55308 2.83328 8.7248V9.92352C3.32447 10.0629 3.75678 10.3587 4.06462 10.7661C4.37246 11.1734 4.53901 11.6701 4.53901 12.1806C4.53901 12.6912 4.37246 13.1879 4.06462 13.5952C3.75678 14.0026 3.32447 14.2984 2.83328 14.4378Z" fill="#202020"/>
<path d="M11.3952 14.8058C11.3044 14.8057 11.2146 14.7864 11.1318 14.749C11.0491 14.7115 10.9752 14.657 10.9152 14.5888L7.57152 10.7939C7.51357 10.7313 7.46873 10.6577 7.43965 10.5774C7.41057 10.4972 7.39782 10.412 7.40217 10.3267C7.40652 10.2415 7.42787 10.158 7.46496 10.0811C7.50206 10.0043 7.55415 9.93562 7.61818 9.87919C7.6822 9.82276 7.75687 9.77971 7.83778 9.75257C7.91869 9.72542 8.00421 9.71473 8.08931 9.72113C8.17441 9.72753 8.25738 9.75088 8.33332 9.78981C8.40926 9.82875 8.47665 9.88248 8.53152 9.94784L11.8749 13.7427C11.9563 13.8351 12.0093 13.949 12.0275 14.0707C12.0458 14.1925 12.0286 14.3169 11.9779 14.4291C11.9273 14.5413 11.8453 14.6366 11.7419 14.7034C11.6385 14.7702 11.518 14.8057 11.3949 14.8058H11.3952ZM11.8448 11.4173H10.784C10.6143 11.4173 10.4515 11.3499 10.3315 11.2298C10.2114 11.1098 10.144 10.947 10.144 10.7773C10.144 10.6075 10.2114 10.4448 10.3315 10.3247C10.4515 10.2047 10.6143 10.1373 10.784 10.1373H11.8458C12.0155 10.1373 12.1783 10.2047 12.2983 10.3247C12.4183 10.4448 12.4858 10.6075 12.4858 10.7773C12.4858 10.947 12.4183 11.1098 12.2983 11.2298C12.1783 11.3499 12.0155 11.4173 11.8458 11.4173H11.8448ZM8.608 14.4893H7.54528C7.37554 14.4893 7.21276 14.4219 7.09273 14.3018C6.97271 14.1818 6.90528 14.019 6.90528 13.8493C6.90528 13.6795 6.97271 13.5168 7.09273 13.3967C7.21276 13.2767 7.37554 13.2093 7.54528 13.2093H8.608C8.77774 13.2093 8.94053 13.2767 9.06055 13.3967C9.18057 13.5168 9.248 13.6795 9.248 13.8493C9.248 14.019 9.18057 14.1818 9.06055 14.3018C8.94053 14.4219 8.77774 14.4893 8.608 14.4893Z" fill="#202020"/>
</svg>
