<svg width="24" height="24" viewBox="0 0 24 24" fill="none" xmlns="http://www.w3.org/2000/svg">
<path d="M17.5376 17.6352C17.3709 17.6351 17.205 17.6136 17.0438 17.5712L13.5795 16.6947C13.415 16.6531 13.2737 16.5478 13.1867 16.402C13.0998 16.2562 13.0744 16.0818 13.116 15.9173C13.1576 15.7527 13.2629 15.6114 13.4087 15.5245C13.5545 15.4376 13.7289 15.4121 13.8934 15.4537L17.361 16.3309L17.3683 16.3328C17.4506 16.3546 17.5363 16.3599 17.6207 16.3485C17.705 16.3372 17.7863 16.3093 17.8598 16.2665C17.9334 16.2237 17.9978 16.1668 18.0493 16.0991C18.1009 16.0315 18.1386 15.9543 18.1603 15.872L18.3901 15.008C17.9999 14.7311 17.7037 14.3415 17.541 13.8916C17.3784 13.4416 17.3571 12.9527 17.48 12.4903C17.6029 12.0279 17.8641 11.6141 18.2287 11.3043C18.5933 10.9945 19.0438 10.8035 19.52 10.7568L19.8426 9.54079C19.8866 9.37478 19.8629 9.19809 19.7766 9.04957C19.6904 8.90105 19.5487 8.79286 19.3827 8.74879L16.4736 7.97791L14.4739 12.9981C14.4433 13.0768 14.3973 13.1486 14.3388 13.2095C14.2802 13.2704 14.2102 13.3191 14.1328 13.3527C14.0553 13.3864 13.972 13.4044 13.8875 13.4058C13.8031 13.4071 13.7192 13.3917 13.6407 13.3604C13.5623 13.3292 13.4908 13.2827 13.4303 13.2237C13.3699 13.1647 13.3218 13.0943 13.2887 13.0166C13.2556 12.9388 13.2382 12.8554 13.2376 12.7709C13.2369 12.6864 13.2529 12.6027 13.2848 12.5245L15.4947 6.97599C15.5526 6.83059 15.6618 6.71145 15.8016 6.64111C15.9414 6.57076 16.1022 6.55408 16.2534 6.59423L19.7094 7.51231C19.9541 7.57725 20.1835 7.68974 20.3847 7.84336C20.5859 7.99698 20.7548 8.18872 20.8819 8.40763C21.0089 8.62654 21.0916 8.86833 21.1252 9.1192C21.1588 9.37007 21.1427 9.62511 21.0778 9.86975L20.6269 11.5712C20.5863 11.724 20.4906 11.8564 20.3582 11.9429C20.2257 12.0293 20.066 12.0637 19.9098 12.0393C19.6502 12.0001 19.3853 12.0581 19.1659 12.2021C18.9464 12.3461 18.7878 12.566 18.7204 12.8197C18.653 13.0734 18.6816 13.343 18.8007 13.5769C18.9198 13.8108 19.121 13.9926 19.3658 14.0873C19.5135 14.1437 19.6351 14.2528 19.7072 14.3935C19.7793 14.5343 19.7968 14.6967 19.7562 14.8496L19.3974 16.2016C19.2884 16.6119 19.047 16.9747 18.7107 17.2339C18.3745 17.4931 17.9621 17.6342 17.5376 17.6352Z" fill="#202020"/>
<path d="M13.8307 16.7709H4.78432C4.27323 16.7704 3.78321 16.5671 3.42181 16.2057C3.06041 15.8443 2.85715 15.3543 2.85664 14.8432V13.4544C2.85664 13.2847 2.92407 13.1219 3.0441 13.0018C3.16412 12.8818 3.32691 12.8144 3.49664 12.8144C3.63816 12.8168 3.77874 12.7911 3.91019 12.7386C4.04164 12.6862 4.16133 12.6081 4.26227 12.5089C4.36322 12.4096 4.44339 12.2913 4.49812 12.1608C4.55285 12.0303 4.58103 11.8902 4.58103 11.7486C4.58103 11.6071 4.55285 11.467 4.49812 11.3365C4.44339 11.2059 4.36322 11.0876 4.26227 10.9884C4.16133 10.8892 4.04164 10.8111 3.91019 10.7586C3.77874 10.7062 3.63816 10.6804 3.49664 10.6829C3.4126 10.6829 3.32937 10.6663 3.25173 10.6342C3.17408 10.602 3.10352 10.5549 3.0441 10.4954C2.98467 10.436 2.93752 10.3654 2.90536 10.2878C2.8732 10.2101 2.85664 10.1269 2.85664 10.0429V8.29279C2.85715 7.7817 3.06041 7.29168 3.42181 6.93028C3.78321 6.56888 4.27323 6.36562 4.78432 6.36511H13.9626C14.0474 6.3651 14.1314 6.38196 14.2096 6.4147C14.2879 6.44744 14.3589 6.49542 14.4184 6.55583C14.478 6.61625 14.5249 6.6879 14.5565 6.76662C14.5881 6.84535 14.6038 6.92957 14.6026 7.01439L14.4707 16.1402C14.4683 16.3083 14.3998 16.4687 14.28 16.5867C14.1603 16.7047 13.9989 16.7709 13.8307 16.7709ZM4.13664 14.0058V14.8432C4.13681 15.0149 4.20511 15.1796 4.32653 15.301C4.44796 15.4224 4.6126 15.4907 4.78432 15.4909H13.2003L13.312 7.64511H4.78432C4.6126 7.64528 4.44796 7.71357 4.32653 7.835C4.20511 7.95643 4.13681 8.12107 4.13664 8.29279V9.49151C4.62783 9.6309 5.06015 9.92671 5.36798 10.3341C5.67582 10.7414 5.84237 11.238 5.84237 11.7486C5.84237 12.2592 5.67582 12.7559 5.36798 13.1632C5.06015 13.5706 4.62783 13.8664 4.13664 14.0058Z" fill="#202020"/>
</svg>
