<svg width="24" height="24" viewBox="0 0 24 24" fill="none" xmlns="http://www.w3.org/2000/svg">
<path d="M17.0319 20.4557H6.96795C6.06016 20.4547 5.18984 20.0936 4.54793 19.4517C3.90603 18.8098 3.54496 17.9395 3.54395 17.0317V6.96801C3.54496 6.06022 3.90603 5.1899 4.54793 4.548C5.18984 3.90609 6.06016 3.54502 6.96795 3.54401H17.0319C17.9397 3.54502 18.8101 3.90609 19.452 4.548C20.0939 5.1899 20.4549 6.06022 20.4559 6.96801V17.032C20.4559 17.9401 20.0952 18.811 19.4531 19.4531C18.811 20.0953 17.94 20.456 17.0319 20.456V20.4557ZM6.96795 4.82433C6.39948 4.82483 5.85444 5.05088 5.45247 5.45285C5.0505 5.85482 4.82445 6.39986 4.82395 6.96833V17.0323C4.82445 17.6008 5.0505 18.1458 5.45247 18.5478C5.85444 18.9498 6.39948 19.1758 6.96795 19.1763H17.0319C17.3135 19.1763 17.5923 19.1209 17.8524 19.0131C18.1125 18.9054 18.3489 18.7475 18.548 18.5484C18.7471 18.3493 18.905 18.1129 19.0127 17.8528C19.1205 17.5927 19.1759 17.3139 19.1759 17.0323V6.96801C19.1754 6.39954 18.9494 5.8545 18.5474 5.45253C18.1455 5.05056 17.6004 4.82451 17.0319 4.82401L6.96795 4.82433Z" fill="#202020"/>
<path d="M10.2948 15.3776C10.2813 15.3776 10.2676 15.3776 10.2541 15.3776C10.1685 15.3721 10.0849 15.3494 10.0082 15.3109C9.9315 15.2725 9.86333 15.219 9.80774 15.1536L7.18758 12.0816C7.07725 11.9525 7.02273 11.7848 7.03602 11.6155C7.04932 11.4462 7.12933 11.289 7.25846 11.1787C7.38758 11.0684 7.55525 11.0139 7.72458 11.0272C7.8939 11.0405 8.05101 11.1205 8.16134 11.2496L10.3533 13.8195L15.8954 8.78848C16.0211 8.67437 16.187 8.61487 16.3565 8.62306C16.5261 8.63125 16.6855 8.70647 16.7996 8.83216C16.9137 8.95785 16.9732 9.12372 16.965 9.29328C16.9568 9.46285 16.8816 9.62221 16.7559 9.73632L10.7249 15.2115C10.6071 15.3184 10.4538 15.3776 10.2948 15.3776Z" fill="#202020"/>
</svg>
