<svg width="24" height="24" viewBox="0 0 24 24" fill="none" xmlns="http://www.w3.org/2000/svg">
<path d="M12 20.4557C10.0436 20.4558 8.1476 19.7776 6.63517 18.5365C5.12273 17.2955 4.08742 15.5684 3.70562 13.6496C3.32383 11.7307 3.61919 9.7389 4.54137 8.01342C5.46354 6.28795 6.95548 4.93562 8.76297 4.18685C10.5705 3.43809 12.5817 3.33922 14.4539 3.90709C16.3261 4.47496 17.9435 5.67444 19.0304 7.30114C20.1174 8.92784 20.6067 10.8811 20.415 12.8281C20.2232 14.7752 19.3623 16.5955 17.9789 17.9789C17.1956 18.7666 16.2638 19.3911 15.2376 19.8162C14.2113 20.2414 13.1109 20.4587 12 20.4557ZM12 4.82431C8.04353 4.82431 4.82433 8.04351 4.82433 12C4.82433 15.9565 8.04353 19.1757 12 19.1757C15.9565 19.1757 19.1757 15.9565 19.1757 12C19.1757 8.04351 15.9565 4.82431 12 4.82431Z" fill="#202020"/>
<path d="M10.2947 15.3776C10.2813 15.3776 10.2675 15.3776 10.2541 15.3776C10.1685 15.3721 10.0848 15.3494 10.0081 15.3109C9.93143 15.2725 9.86327 15.219 9.80767 15.1536L7.18752 12.0816C7.07719 11.9525 7.02267 11.7848 7.03596 11.6155C7.04925 11.4462 7.12927 11.289 7.2584 11.1787C7.38752 11.0684 7.55519 11.0139 7.72451 11.0272C7.89384 11.0405 8.05094 11.1205 8.16127 11.2496L10.3533 13.8195L15.8954 8.78848C16.021 8.67437 16.1869 8.61487 16.3565 8.62306C16.526 8.63125 16.6854 8.70647 16.7995 8.83216C16.9136 8.95785 16.9731 9.12372 16.9649 9.29328C16.9567 9.46285 16.8815 9.62221 16.7558 9.73632L10.7248 15.2115C10.607 15.3184 10.4537 15.3776 10.2947 15.3776Z" fill="#202020"/>
</svg>
