<svg width="772" height="72" viewBox="0 0 772 72" fill="none" xmlns="http://www.w3.org/2000/svg">
<rect width="772" height="72" rx="5" fill="#4EB2EA"/>
<path d="M20.54 44V28.16H23.224L28.46 38.676L33.696 28.16H36.38V44H33.586V34.54L28.988 44H27.932L23.334 34.54V44H20.54ZM39.0277 30.47V27.83H42.0197V30.47H39.0277ZM39.0277 44V32.12H42.0197V44H39.0277ZM49.2995 44.33C47.8035 44.33 46.5935 43.9927 45.6695 43.318C44.7528 42.636 44.1955 41.6753 43.9975 40.436L47.0555 39.974C47.1802 40.5313 47.4552 40.9677 47.8805 41.283C48.3132 41.5983 48.8595 41.756 49.5195 41.756C50.0622 41.756 50.4802 41.6533 50.7735 41.448C51.0668 41.2353 51.2135 40.942 51.2135 40.568C51.2135 40.3333 51.1548 40.1463 51.0375 40.007C50.9202 39.8603 50.6562 39.7173 50.2455 39.578C49.8422 39.4387 49.2115 39.2553 48.3535 39.028C47.3855 38.7787 46.6118 38.5 46.0325 38.192C45.4532 37.884 45.0352 37.5173 44.7785 37.092C44.5218 36.6593 44.3935 36.1387 44.3935 35.53C44.3935 34.7673 44.5878 34.1073 44.9765 33.55C45.3652 32.9853 45.9115 32.5527 46.6155 32.252C47.3268 31.944 48.1628 31.79 49.1235 31.79C50.0548 31.79 50.8798 31.933 51.5985 32.219C52.3172 32.505 52.8965 32.912 53.3365 33.44C53.7838 33.968 54.0588 34.5913 54.1615 35.31L51.1035 35.86C51.0522 35.42 50.8615 35.0717 50.5315 34.815C50.2015 34.5583 49.7542 34.408 49.1895 34.364C48.6395 34.3273 48.1958 34.4007 47.8585 34.584C47.5285 34.7673 47.3635 35.0313 47.3635 35.376C47.3635 35.5813 47.4332 35.7537 47.5725 35.893C47.7192 36.0323 48.0162 36.1753 48.4635 36.322C48.9182 36.4687 49.6075 36.6593 50.5315 36.894C51.4335 37.1287 52.1558 37.4037 52.6985 37.719C53.2485 38.027 53.6482 38.401 53.8975 38.841C54.1468 39.2737 54.2715 39.798 54.2715 40.414C54.2715 41.6313 53.8315 42.5883 52.9515 43.285C52.0715 43.9817 50.8542 44.33 49.2995 44.33ZM61.2648 44.33C60.0328 44.33 58.9768 44.055 58.0968 43.505C57.2168 42.955 56.5421 42.207 56.0728 41.261C55.6034 40.315 55.3688 39.248 55.3688 38.06C55.3688 36.8573 55.6108 35.783 56.0948 34.837C56.5861 33.891 57.2754 33.1467 58.1628 32.604C59.0501 32.0613 60.0988 31.79 61.3088 31.79C62.7094 31.79 63.8828 32.1457 64.8288 32.857C65.7821 33.561 66.3908 34.5253 66.6548 35.75L63.6628 36.542C63.4868 35.926 63.1788 35.4457 62.7388 35.101C62.3061 34.7563 61.8148 34.584 61.2648 34.584C60.6341 34.584 60.1171 34.738 59.7138 35.046C59.3104 35.3467 59.0134 35.761 58.8228 36.289C58.6321 36.8097 58.5368 37.4 58.5368 38.06C58.5368 39.094 58.7641 39.9337 59.2188 40.579C59.6808 41.217 60.3628 41.536 61.2648 41.536C61.9394 41.536 62.4528 41.382 62.8048 41.074C63.1568 40.766 63.4208 40.326 63.5968 39.754L66.6548 40.392C66.3174 41.6533 65.6794 42.625 64.7408 43.307C63.8021 43.989 62.6434 44.33 61.2648 44.33ZM73.3947 44.33C72.1773 44.33 71.103 44.0697 70.1717 43.549C69.2477 43.021 68.5217 42.2987 67.9937 41.382C67.473 40.458 67.2127 39.402 67.2127 38.214C67.2127 36.916 67.4693 35.7867 67.9827 34.826C68.496 33.8653 69.2037 33.121 70.1057 32.593C71.0077 32.0577 72.0453 31.79 73.2187 31.79C74.4653 31.79 75.525 32.0833 76.3977 32.67C77.2703 33.2567 77.9157 34.0817 78.3337 35.145C78.7517 36.2083 78.8983 37.4587 78.7737 38.896H75.8147V37.796C75.8147 36.586 75.6203 35.717 75.2317 35.189C74.8503 34.6537 74.2233 34.386 73.3507 34.386C72.3313 34.386 71.5797 34.6977 71.0957 35.321C70.619 35.937 70.3807 36.85 70.3807 38.06C70.3807 39.1673 70.619 40.0253 71.0957 40.634C71.5797 41.2353 72.2873 41.536 73.2187 41.536C73.8053 41.536 74.3077 41.4077 74.7257 41.151C75.1437 40.8943 75.4627 40.524 75.6827 40.04L78.6747 40.898C78.2273 41.9833 77.5197 42.8267 76.5517 43.428C75.591 44.0293 74.5387 44.33 73.3947 44.33ZM69.4567 38.896V36.674H77.3327V38.896H69.4567ZM80.8174 44V27.83H83.8094V44H80.8174ZM86.6672 44V27.83H89.6592V44H86.6672ZM95.597 44.33C94.7463 44.33 94.024 44.1687 93.43 43.846C92.8433 43.516 92.396 43.0797 92.088 42.537C91.7873 41.987 91.637 41.382 91.637 40.722C91.637 40.172 91.7213 39.6697 91.89 39.215C92.0586 38.7603 92.33 38.3607 92.704 38.016C93.0853 37.664 93.595 37.3707 94.233 37.136C94.673 36.9747 95.1973 36.8317 95.806 36.707C96.4146 36.5823 97.104 36.465 97.874 36.355C98.644 36.2377 99.491 36.1093 100.415 35.97L99.337 36.564C99.337 35.86 99.1683 35.343 98.831 35.013C98.4936 34.683 97.929 34.518 97.137 34.518C96.697 34.518 96.2386 34.6243 95.762 34.837C95.2853 35.0497 94.9516 35.4273 94.761 35.97L92.055 35.112C92.3556 34.1293 92.9203 33.33 93.749 32.714C94.5776 32.098 95.707 31.79 97.137 31.79C98.1856 31.79 99.117 31.9513 99.931 32.274C100.745 32.5967 101.361 33.154 101.779 33.946C102.014 34.386 102.153 34.826 102.197 35.266C102.241 35.706 102.263 36.1973 102.263 36.74V44H99.645V41.558L100.019 42.064C99.4396 42.8633 98.8126 43.4427 98.138 43.802C97.4706 44.154 96.6236 44.33 95.597 44.33ZM96.235 41.976C96.785 41.976 97.247 41.8807 97.621 41.69C98.0023 41.492 98.303 41.2683 98.523 41.019C98.7503 40.7697 98.9043 40.5607 98.985 40.392C99.139 40.0693 99.227 39.6953 99.249 39.27C99.2783 38.8373 99.293 38.478 99.293 38.192L100.173 38.412C99.2856 38.5587 98.567 38.6833 98.017 38.786C97.467 38.8813 97.0233 38.9693 96.686 39.05C96.3486 39.1307 96.0516 39.2187 95.795 39.314C95.5016 39.4313 95.2633 39.5597 95.08 39.699C94.904 39.831 94.772 39.9777 94.684 40.139C94.6033 40.3003 94.563 40.48 94.563 40.678C94.563 40.9493 94.629 41.184 94.761 41.382C94.9003 41.5727 95.0946 41.7193 95.344 41.822C95.5933 41.9247 95.8903 41.976 96.235 41.976ZM112.559 44V38.39C112.559 38.1187 112.544 37.774 112.515 37.356C112.486 36.9307 112.394 36.5053 112.24 36.08C112.086 35.6547 111.833 35.299 111.481 35.013C111.136 34.727 110.645 34.584 110.007 34.584C109.75 34.584 109.475 34.6243 109.182 34.705C108.889 34.7857 108.614 34.9433 108.357 35.178C108.1 35.4053 107.888 35.7427 107.719 36.19C107.558 36.6373 107.477 37.2313 107.477 37.972L105.761 37.158C105.761 36.2193 105.952 35.3393 106.333 34.518C106.714 33.6967 107.286 33.033 108.049 32.527C108.819 32.021 109.787 31.768 110.953 31.768C111.884 31.768 112.643 31.9257 113.23 32.241C113.817 32.5563 114.271 32.956 114.594 33.44C114.924 33.924 115.159 34.43 115.298 34.958C115.437 35.4787 115.522 35.9553 115.551 36.388C115.58 36.8207 115.595 37.136 115.595 37.334V44H112.559ZM104.441 44V32.12H107.103V36.058H107.477V44H104.441ZM123.097 44.33C121.879 44.33 120.805 44.0697 119.874 43.549C118.95 43.021 118.224 42.2987 117.696 41.382C117.175 40.458 116.915 39.402 116.915 38.214C116.915 36.916 117.171 35.7867 117.685 34.826C118.198 33.8653 118.906 33.121 119.808 32.593C120.71 32.0577 121.747 31.79 122.921 31.79C124.167 31.79 125.227 32.0833 126.1 32.67C126.972 33.2567 127.618 34.0817 128.036 35.145C128.454 36.2083 128.6 37.4587 128.476 38.896H125.517V37.796C125.517 36.586 125.322 35.717 124.934 35.189C124.552 34.6537 123.925 34.386 123.053 34.386C122.033 34.386 121.282 34.6977 120.798 35.321C120.321 35.937 120.083 36.85 120.083 38.06C120.083 39.1673 120.321 40.0253 120.798 40.634C121.282 41.2353 121.989 41.536 122.921 41.536C123.507 41.536 124.01 41.4077 124.428 41.151C124.846 40.8943 125.165 40.524 125.385 40.04L128.377 40.898C127.929 41.9833 127.222 42.8267 126.254 43.428C125.293 44.0293 124.241 44.33 123.097 44.33ZM119.159 38.896V36.674H127.035V38.896H119.159ZM135.645 44.33C134.45 44.33 133.401 44.0623 132.499 43.527C131.597 42.9917 130.893 42.2547 130.387 41.316C129.889 40.37 129.639 39.2847 129.639 38.06C129.639 36.8207 129.896 35.7317 130.409 34.793C130.923 33.847 131.63 33.11 132.532 32.582C133.434 32.054 134.472 31.79 135.645 31.79C136.841 31.79 137.889 32.0577 138.791 32.593C139.701 33.1283 140.408 33.869 140.914 34.815C141.42 35.7537 141.673 36.8353 141.673 38.06C141.673 39.292 141.417 40.381 140.903 41.327C140.397 42.2657 139.69 43.0027 138.78 43.538C137.878 44.066 136.833 44.33 135.645 44.33ZM135.645 41.536C136.606 41.536 137.321 41.2133 137.79 40.568C138.267 39.9153 138.505 39.0793 138.505 38.06C138.505 37.004 138.263 36.1607 137.779 35.53C137.303 34.8993 136.591 34.584 135.645 34.584C134.993 34.584 134.457 34.7307 134.039 35.024C133.621 35.3173 133.31 35.7243 133.104 36.245C132.906 36.7657 132.807 37.3707 132.807 38.06C132.807 39.1233 133.046 39.9703 133.522 40.601C134.006 41.2243 134.714 41.536 135.645 41.536ZM147.854 44.352C146.923 44.352 146.164 44.1943 145.577 43.879C144.991 43.5637 144.532 43.164 144.202 42.68C143.88 42.196 143.649 41.6937 143.509 41.173C143.37 40.645 143.286 40.1647 143.256 39.732C143.227 39.2993 143.212 38.984 143.212 38.786V32.12H146.248V37.73C146.248 38.0013 146.263 38.3497 146.292 38.775C146.322 39.193 146.413 39.6147 146.567 40.04C146.721 40.4653 146.971 40.821 147.315 41.107C147.667 41.393 148.162 41.536 148.8 41.536C149.057 41.536 149.332 41.4957 149.625 41.415C149.919 41.3343 150.194 41.1803 150.45 40.953C150.707 40.7183 150.916 40.3773 151.077 39.93C151.246 39.4753 151.33 38.8813 151.33 38.148L153.046 38.962C153.046 39.9007 152.856 40.7807 152.474 41.602C152.093 42.4233 151.517 43.087 150.747 43.593C149.985 44.099 149.02 44.352 147.854 44.352ZM151.704 44V40.062H151.33V32.12H154.344V44H151.704ZM161.401 44.33C159.905 44.33 158.695 43.9927 157.771 43.318C156.854 42.636 156.297 41.6753 156.099 40.436L159.157 39.974C159.281 40.5313 159.556 40.9677 159.982 41.283C160.414 41.5983 160.961 41.756 161.621 41.756C162.163 41.756 162.581 41.6533 162.875 41.448C163.168 41.2353 163.315 40.942 163.315 40.568C163.315 40.3333 163.256 40.1463 163.139 40.007C163.021 39.8603 162.757 39.7173 162.347 39.578C161.943 39.4387 161.313 39.2553 160.455 39.028C159.487 38.7787 158.713 38.5 158.134 38.192C157.554 37.884 157.136 37.5173 156.88 37.092C156.623 36.6593 156.495 36.1387 156.495 35.53C156.495 34.7673 156.689 34.1073 157.078 33.55C157.466 32.9853 158.013 32.5527 158.717 32.252C159.428 31.944 160.264 31.79 161.225 31.79C162.156 31.79 162.981 31.933 163.7 32.219C164.418 32.505 164.998 32.912 165.438 33.44C165.885 33.968 166.16 34.5913 166.263 35.31L163.205 35.86C163.153 35.42 162.963 35.0717 162.633 34.815C162.303 34.5583 161.855 34.408 161.291 34.364C160.741 34.3273 160.297 34.4007 159.96 34.584C159.63 34.7673 159.465 35.0313 159.465 35.376C159.465 35.5813 159.534 35.7537 159.674 35.893C159.82 36.0323 160.117 36.1753 160.565 36.322C161.019 36.4687 161.709 36.6593 162.633 36.894C163.535 37.1287 164.257 37.4037 164.8 37.719C165.35 38.027 165.749 38.401 165.999 38.841C166.248 39.2737 166.373 39.798 166.373 40.414C166.373 41.6313 165.933 42.5883 165.053 43.285C164.173 43.9817 162.955 44.33 161.401 44.33ZM172.094 44V28.16H175.086V44H172.094ZM182.96 44.33C181.728 44.33 180.672 44.055 179.792 43.505C178.912 42.955 178.237 42.207 177.768 41.261C177.299 40.315 177.064 39.248 177.064 38.06C177.064 36.8573 177.306 35.783 177.79 34.837C178.281 33.891 178.971 33.1467 179.858 32.604C180.745 32.0613 181.794 31.79 183.004 31.79C184.405 31.79 185.578 32.1457 186.524 32.857C187.477 33.561 188.086 34.5253 188.35 35.75L185.358 36.542C185.182 35.926 184.874 35.4457 184.434 35.101C184.001 34.7563 183.51 34.584 182.96 34.584C182.329 34.584 181.812 34.738 181.409 35.046C181.006 35.3467 180.709 35.761 180.518 36.289C180.327 36.8097 180.232 37.4 180.232 38.06C180.232 39.094 180.459 39.9337 180.914 40.579C181.376 41.217 182.058 41.536 182.96 41.536C183.635 41.536 184.148 41.382 184.5 41.074C184.852 40.766 185.116 40.326 185.292 39.754L188.35 40.392C188.013 41.6533 187.375 42.625 186.436 43.307C185.497 43.989 184.339 44.33 182.96 44.33ZM194.914 44.33C193.719 44.33 192.67 44.0623 191.768 43.527C190.866 42.9917 190.162 42.2547 189.656 41.316C189.157 40.37 188.908 39.2847 188.908 38.06C188.908 36.8207 189.165 35.7317 189.678 34.793C190.191 33.847 190.899 33.11 191.801 32.582C192.703 32.054 193.741 31.79 194.914 31.79C196.109 31.79 197.158 32.0577 198.06 32.593C198.969 33.1283 199.677 33.869 200.183 34.815C200.689 35.7537 200.942 36.8353 200.942 38.06C200.942 39.292 200.685 40.381 200.172 41.327C199.666 42.2657 198.958 43.0027 198.049 43.538C197.147 44.066 196.102 44.33 194.914 44.33ZM194.914 41.536C195.875 41.536 196.59 41.2133 197.059 40.568C197.536 39.9153 197.774 39.0793 197.774 38.06C197.774 37.004 197.532 36.1607 197.048 35.53C196.571 34.8993 195.86 34.584 194.914 34.584C194.261 34.584 193.726 34.7307 193.308 35.024C192.89 35.3173 192.578 35.7243 192.373 36.245C192.175 36.7657 192.076 37.3707 192.076 38.06C192.076 39.1233 192.314 39.9703 192.791 40.601C193.275 41.2243 193.983 41.536 194.914 41.536ZM210.797 44V38.39C210.797 38.1187 210.782 37.774 210.753 37.356C210.724 36.9307 210.632 36.5053 210.478 36.08C210.324 35.6547 210.071 35.299 209.719 35.013C209.374 34.727 208.883 34.584 208.245 34.584C207.988 34.584 207.713 34.6243 207.42 34.705C207.127 34.7857 206.852 34.9433 206.595 35.178C206.338 35.4053 206.126 35.7427 205.957 36.19C205.796 36.6373 205.715 37.2313 205.715 37.972L203.999 37.158C203.999 36.2193 204.19 35.3393 204.571 34.518C204.952 33.6967 205.524 33.033 206.287 32.527C207.057 32.021 208.025 31.768 209.191 31.768C210.122 31.768 210.881 31.9257 211.468 32.241C212.055 32.5563 212.509 32.956 212.832 33.44C213.162 33.924 213.397 34.43 213.536 34.958C213.675 35.4787 213.76 35.9553 213.789 36.388C213.818 36.8207 213.833 37.136 213.833 37.334V44H210.797ZM202.679 44V32.12H205.341V36.058H205.715V44H202.679ZM219.771 44V28.16H226.459C226.613 28.16 226.819 28.1673 227.075 28.182C227.339 28.1893 227.574 28.2113 227.779 28.248C228.725 28.3947 229.499 28.7063 230.1 29.183C230.709 29.6597 231.156 30.261 231.442 30.987C231.728 31.7057 231.871 32.5087 231.871 33.396C231.871 34.2833 231.725 35.09 231.431 35.816C231.145 36.5347 230.698 37.1323 230.089 37.609C229.488 38.0857 228.718 38.3973 227.779 38.544C227.574 38.5733 227.339 38.5953 227.075 38.61C226.811 38.6247 226.606 38.632 226.459 38.632H222.763V44H219.771ZM222.763 35.838H226.327C226.481 35.838 226.65 35.8307 226.833 35.816C227.017 35.8013 227.185 35.772 227.339 35.728C227.743 35.618 228.054 35.4347 228.274 35.178C228.494 34.914 228.645 34.6243 228.725 34.309C228.813 33.9863 228.857 33.682 228.857 33.396C228.857 33.11 228.813 32.8093 228.725 32.494C228.645 32.1713 228.494 31.8817 228.274 31.625C228.054 31.361 227.743 31.174 227.339 31.064C227.185 31.02 227.017 30.9907 226.833 30.976C226.65 30.9613 226.481 30.954 226.327 30.954H222.763V35.838ZM236.505 44.33C235.655 44.33 234.932 44.1687 234.338 43.846C233.752 43.516 233.304 43.0797 232.996 42.537C232.696 41.987 232.545 41.382 232.545 40.722C232.545 40.172 232.63 39.6697 232.798 39.215C232.967 38.7603 233.238 38.3607 233.612 38.016C233.994 37.664 234.503 37.3707 235.141 37.136C235.581 36.9747 236.106 36.8317 236.714 36.707C237.323 36.5823 238.012 36.465 238.782 36.355C239.552 36.2377 240.399 36.1093 241.323 35.97L240.245 36.564C240.245 35.86 240.077 35.343 239.739 35.013C239.402 34.683 238.837 34.518 238.045 34.518C237.605 34.518 237.147 34.6243 236.67 34.837C236.194 35.0497 235.86 35.4273 235.669 35.97L232.963 35.112C233.264 34.1293 233.829 33.33 234.657 32.714C235.486 32.098 236.615 31.79 238.045 31.79C239.094 31.79 240.025 31.9513 240.839 32.274C241.653 32.5967 242.269 33.154 242.687 33.946C242.922 34.386 243.061 34.826 243.105 35.266C243.149 35.706 243.171 36.1973 243.171 36.74V44H240.553V41.558L240.927 42.064C240.348 42.8633 239.721 43.4427 239.046 43.802C238.379 44.154 237.532 44.33 236.505 44.33ZM237.143 41.976C237.693 41.976 238.155 41.8807 238.529 41.69C238.911 41.492 239.211 41.2683 239.431 41.019C239.659 40.7697 239.813 40.5607 239.893 40.392C240.047 40.0693 240.135 39.6953 240.157 39.27C240.187 38.8373 240.201 38.478 240.201 38.192L241.081 38.412C240.194 38.5587 239.475 38.6833 238.925 38.786C238.375 38.8813 237.932 38.9693 237.594 39.05C237.257 39.1307 236.96 39.2187 236.703 39.314C236.41 39.4313 236.172 39.5597 235.988 39.699C235.812 39.831 235.68 39.9777 235.592 40.139C235.512 40.3003 235.471 40.48 235.471 40.678C235.471 40.9493 235.537 41.184 235.669 41.382C235.809 41.5727 236.003 41.7193 236.252 41.822C236.502 41.9247 236.799 41.976 237.143 41.976ZM250.607 44.33C249.375 44.33 248.319 44.055 247.439 43.505C246.559 42.955 245.885 42.207 245.415 41.261C244.946 40.315 244.711 39.248 244.711 38.06C244.711 36.8573 244.953 35.783 245.437 34.837C245.929 33.891 246.618 33.1467 247.505 32.604C248.393 32.0613 249.441 31.79 250.651 31.79C252.052 31.79 253.225 32.1457 254.171 32.857C255.125 33.561 255.733 34.5253 255.997 35.75L253.005 36.542C252.829 35.926 252.521 35.4457 252.081 35.101C251.649 34.7563 251.157 34.584 250.607 34.584C249.977 34.584 249.46 34.738 249.056 35.046C248.653 35.3467 248.356 35.761 248.165 36.289C247.975 36.8097 247.879 37.4 247.879 38.06C247.879 39.094 248.107 39.9337 248.561 40.579C249.023 41.217 249.705 41.536 250.607 41.536C251.282 41.536 251.795 41.382 252.147 41.074C252.499 40.766 252.763 40.326 252.939 39.754L255.997 40.392C255.66 41.6533 255.022 42.625 254.083 43.307C253.145 43.989 251.986 44.33 250.607 44.33ZM257.516 44L257.538 28.16H260.574V37.84L264.6 32.12H268.296L264.006 38.06L268.582 44H264.688L260.574 38.28V44H257.516Z" fill="white"/>
</svg>
