<svg width="24" height="24" viewBox="0 0 24 24" fill="none" xmlns="http://www.w3.org/2000/svg">
<path d="M18.0131 18.0272H5.98682C5.20153 18.0263 4.44865 17.714 3.89336 17.1587C3.33808 16.6034 3.02575 15.8505 3.0249 15.0653V8.9347C3.02575 8.14941 3.33808 7.39652 3.89336 6.84124C4.44865 6.28596 5.20153 5.97363 5.98682 5.97278H18.0131C18.7984 5.97363 19.5512 6.28596 20.1065 6.84124C20.6618 7.39652 20.9741 8.14941 20.975 8.9347V15.0653C20.9741 15.8505 20.6618 16.6034 20.1065 17.1587C19.5512 17.714 18.7984 18.0263 18.0131 18.0272ZM5.98682 7.25278C5.54091 7.25329 5.1134 7.43065 4.79809 7.74596C4.48278 8.06127 4.30541 8.48878 4.3049 8.9347V15.0653C4.30541 15.5112 4.48278 15.9387 4.79809 16.254C5.1134 16.5693 5.54091 16.7467 5.98682 16.7472H18.0131C18.459 16.7467 18.8865 16.5693 19.2018 16.254C19.5171 15.9387 19.6945 15.5112 19.695 15.0653V8.9347C19.6945 8.48878 19.5171 8.06127 19.2018 7.74596C18.8865 7.43065 18.459 7.25329 18.0131 7.25278H5.98682Z" fill="#202020"/>
<path d="M17.2291 14.1119H13.9408C13.6028 14.1115 13.2788 13.9771 13.0398 13.7381C12.8008 13.4991 12.6663 13.175 12.6659 12.8371V11.1619C12.6666 10.824 12.8011 10.5003 13.0401 10.2615C13.2791 10.0227 13.603 9.88836 13.9408 9.88794H17.2291C17.5671 9.88836 17.8911 10.0228 18.1301 10.2618C18.3691 10.5008 18.5036 10.8248 18.504 11.1628V12.839C18.503 13.1766 18.3684 13.5002 18.1294 13.7387C17.8905 13.9773 17.5668 14.1115 17.2291 14.1119ZM13.9459 12.8319H17.224V11.1679H13.9459V12.8319Z" fill="#202020"/>
</svg>
