<svg width="24" height="24" viewBox="0 0 24 24" fill="none" xmlns="http://www.w3.org/2000/svg">
<path d="M14.9478 18.0272H9.0521C5.72794 18.0272 3.0249 15.3235 3.0249 12C3.0249 8.67646 5.72794 5.97278 9.0521 5.97278H14.9478C18.2719 5.97278 20.975 8.67646 20.975 12C20.975 15.3235 18.2719 18.0272 14.9478 18.0272ZM9.0521 7.25278C6.4345 7.25278 4.3049 9.38238 4.3049 12C4.3049 14.6176 6.4345 16.7472 9.0521 16.7472H14.9478C17.5654 16.7472 19.695 14.6176 19.695 12C19.695 9.38238 17.5654 7.25278 14.9478 7.25278H9.0521Z" fill="#202020"/>
<path d="M9.5706 14.4797H9.11812C8.4596 14.479 7.82826 14.217 7.36262 13.7514C6.89697 13.2857 6.63504 12.6544 6.63428 11.9959V11.8737C6.63512 11.2152 6.8971 10.5839 7.36273 10.1184C7.82837 9.65279 8.45965 9.3909 9.11812 9.39014H9.5706C10.2291 9.3909 10.8603 9.65279 11.326 10.1184C11.7916 10.5839 12.0536 11.2152 12.0544 11.8737V11.9959C12.0537 12.6544 11.7917 13.2857 11.3261 13.7514C10.8605 14.217 10.2291 14.479 9.5706 14.4797ZM9.11812 10.6717C8.799 10.6721 8.49304 10.799 8.26736 11.0246C8.04168 11.2502 7.9147 11.5561 7.91428 11.8753V11.9975C7.9147 12.3166 8.04167 12.6226 8.26734 12.8483C8.49301 13.0739 8.79897 13.2009 9.11812 13.2013H9.5706C9.88974 13.2009 10.1957 13.0739 10.4214 12.8483C10.647 12.6226 10.774 12.3166 10.7744 11.9975V11.8753C10.774 11.5561 10.647 11.2502 10.4214 11.0246C10.1957 10.799 9.88972 10.6721 9.5706 10.6717H9.11812Z" fill="#202020"/>
</svg>
