<svg width="24" height="24" viewBox="0 0 24 24" fill="none" xmlns="http://www.w3.org/2000/svg">
<path d="M16.0518 19.5584C15.9316 19.5583 15.8138 19.5243 15.712 19.4602L14.1181 18.4582L12.8672 19.3155C12.7636 19.3869 12.6413 19.4261 12.5155 19.4283C12.3897 19.4305 12.2661 19.3957 12.16 19.328L10.8442 18.4858L9.65024 19.3405C9.54052 19.419 9.40878 19.4609 9.27383 19.4601C9.13889 19.4593 9.00765 19.4159 8.89888 19.336L7.70752 18.4614L6.03616 19.4678C5.93905 19.5263 5.82813 19.558 5.71477 19.5596C5.60141 19.5611 5.48966 19.5326 5.39097 19.4768C5.29227 19.421 5.21017 19.34 5.15306 19.242C5.09594 19.1441 5.06587 19.0327 5.06592 18.9194V7.73344C5.06467 7.3064 5.15283 6.88383 5.32472 6.49292C5.49662 6.10201 5.74845 5.75141 6.064 5.46368C6.704 4.8736 7.57696 4.5488 8.52384 4.5488H13.2118C14.1645 4.5488 15.0435 4.87552 15.6867 5.46912C16.0044 5.75835 16.2579 6.11092 16.431 6.50411C16.604 6.89731 16.6928 7.3224 16.6915 7.752V18.92C16.6915 19.0897 16.6241 19.2525 16.5041 19.3725C16.384 19.4926 16.2213 19.56 16.0515 19.56L16.0518 19.5584ZM7.744 17.0525C7.88021 17.0524 8.01288 17.0959 8.12256 17.1766L9.28352 18.0285L10.4528 17.1917C10.5568 17.1172 10.6808 17.0757 10.8087 17.0724C10.9366 17.0691 11.0625 17.1042 11.1702 17.1731L12.4938 18.0202L13.7418 17.1648C13.8449 17.0939 13.9665 17.0547 14.0916 17.0522C14.2168 17.0497 14.3399 17.084 14.4458 17.1507L15.4154 17.7587V7.752C15.4154 6.65568 14.4698 5.8288 13.2157 5.8288H8.52416C7.28256 5.8288 6.34624 6.64768 6.34624 7.73344V17.7862L7.41312 17.1443C7.51294 17.084 7.62738 17.0523 7.744 17.0525Z" fill="#202020"/>
<path d="M12.7539 10.0752H9.00416C8.83442 10.0752 8.67163 10.0078 8.55161 9.88774C8.43159 9.76772 8.36416 9.60494 8.36416 9.4352C8.36416 9.26546 8.43159 9.10267 8.55161 8.98265C8.67163 8.86262 8.83442 8.7952 9.00416 8.7952H12.7539C12.9237 8.7952 13.0864 8.86262 13.2065 8.98265C13.3265 9.10267 13.3939 9.26546 13.3939 9.4352C13.3939 9.60494 13.3265 9.76772 13.2065 9.88774C13.0864 10.0078 12.9237 10.0752 12.7539 10.0752ZM12.7539 12.1309H9.00416C8.83442 12.1309 8.67163 12.0634 8.55161 11.9434C8.43159 11.8234 8.36416 11.6606 8.36416 11.4909C8.36416 11.3211 8.43159 11.1584 8.55161 11.0383C8.67163 10.9183 8.83442 10.8509 9.00416 10.8509H12.7539C12.9237 10.8509 13.0864 10.9183 13.2065 11.0383C13.3265 11.1584 13.3939 11.3211 13.3939 11.4909C13.3939 11.6606 13.3265 11.8234 13.2065 11.9434C13.0864 12.0634 12.9237 12.1309 12.7539 12.1309Z" fill="#202020"/>
</svg>
