<svg width="24" height="24" viewBox="0 0 24 24" fill="none" xmlns="http://www.w3.org/2000/svg">
<path d="M5.62292 13.5299C5.4058 13.53 5.19081 13.4872 4.9902 13.4042C4.7896 13.3211 4.60732 13.1994 4.45378 13.0458C4.30024 12.8923 4.17845 12.7101 4.09535 12.5095C4.01225 12.3089 3.96948 12.0939 3.96948 11.8768V8.21312C3.97008 7.77481 4.14448 7.35463 4.45444 7.04473C4.7644 6.73483 5.18461 6.56051 5.62292 6.56H9.2866C9.72494 6.56051 10.1452 6.73488 10.4551 7.04486C10.765 7.35484 10.9393 7.7751 10.9397 8.21344V11.8768C10.9393 12.3151 10.765 12.7353 10.4551 13.0453C10.1451 13.3552 9.72491 13.5295 9.2866 13.5299H5.62292ZM9.2866 7.84H5.62292C5.52391 7.84008 5.42897 7.87945 5.35895 7.94947C5.28894 8.01948 5.24957 8.11442 5.24948 8.21344V11.8768C5.24948 11.9258 5.25914 11.9744 5.27792 12.0197C5.29669 12.0649 5.3242 12.1061 5.35888 12.1407C5.39356 12.1754 5.43473 12.2029 5.48004 12.2216C5.52534 12.2403 5.5739 12.25 5.62292 12.2499H9.2866C9.38553 12.2498 9.48039 12.2105 9.55034 12.1405C9.6203 12.0706 9.65964 11.9757 9.65972 11.8768V8.21312C9.65964 8.11419 9.6203 8.01933 9.55034 7.94938C9.48039 7.87942 9.38553 7.84008 9.2866 7.84ZM19.1516 18.3302C18.2273 18.3302 17.3408 17.9631 16.6872 17.3095C16.0336 16.6559 15.6664 15.7694 15.6664 14.8451C15.6664 13.9208 16.0336 13.0344 16.6872 12.3808C17.3408 11.7272 18.2273 11.36 19.1516 11.36C20.0759 11.36 20.9623 11.7272 21.6159 12.3808C22.2695 13.0344 22.6367 13.9208 22.6367 14.8451C22.6367 15.7694 22.2695 16.6559 21.6159 17.3095C20.9623 17.9631 20.0759 18.3302 19.1516 18.3302ZM19.1516 12.64C18.7154 12.64 18.2891 12.7693 17.9265 13.0116C17.5638 13.2539 17.2812 13.5983 17.1143 14.0013C16.9474 14.4042 16.9037 14.8476 16.9888 15.2753C17.0739 15.7031 17.2839 16.096 17.5923 16.4044C17.9007 16.7128 18.2936 16.9228 18.7214 17.0079C19.1491 17.093 19.5925 17.0493 19.9954 16.8824C20.3984 16.7155 20.7428 16.4328 20.9851 16.0702C21.2274 15.7076 21.3567 15.2812 21.3567 14.8451C21.3559 14.2605 21.1234 13.7001 20.71 13.2867C20.2966 12.8733 19.7362 12.6408 19.1516 12.64ZM20.726 9.25152C20.6783 9.25152 20.6307 9.24615 20.5842 9.23552L18.5042 8.76448C18.4204 8.74774 18.3409 8.7144 18.2702 8.66643C18.1995 8.61847 18.1392 8.55684 18.0927 8.48518C18.0462 8.41352 18.0146 8.33328 17.9996 8.24919C17.9846 8.16511 17.9866 8.07887 18.0054 7.99556C18.0243 7.91226 18.0596 7.83357 18.1094 7.76414C18.1591 7.69471 18.2223 7.63594 18.2951 7.59129C18.3679 7.54664 18.4489 7.51702 18.5334 7.50417C18.6178 7.49132 18.704 7.49551 18.7868 7.51648L20.8668 7.98752C21.0204 8.02216 21.1558 8.11222 21.2472 8.24048C21.3386 8.36873 21.3795 8.52617 21.362 8.68267C21.3446 8.83918 21.2701 8.98377 21.1527 9.08877C21.0354 9.19378 20.8834 9.25184 20.726 9.25184V9.25152ZM8.39988 16.3933C8.37378 16.3933 8.34771 16.3917 8.3218 16.3885L6.17332 16.128C6.00481 16.1075 5.85135 16.0209 5.74669 15.8873C5.64203 15.7536 5.59475 15.5839 5.61524 15.4154C5.63574 15.2468 5.72233 15.0934 5.85598 14.9887C5.98963 14.8841 6.15937 14.8368 6.32788 14.8573L8.47636 15.119C8.63795 15.1389 8.78588 15.2197 8.89003 15.3448C8.99419 15.4699 9.04674 15.63 9.037 15.7926C9.02725 15.9551 8.95594 16.1078 8.83757 16.2195C8.7192 16.3313 8.56269 16.3938 8.39988 16.3942V16.3933Z" fill="#202020"/>
<path d="M20.681 9.2035C20.5616 9.20359 20.4445 9.17028 20.3431 9.10734C20.2416 9.0444 20.1598 8.95434 20.1069 8.84734C19.2744 7.16585 17.8302 5.86648 16.0704 5.21557C14.3107 4.56466 12.3686 4.61152 10.6422 5.34654C10.486 5.41299 10.3098 5.41467 10.1524 5.35121C9.99495 5.28775 9.86917 5.16434 9.80272 5.00814C9.73627 4.85194 9.73459 4.67573 9.79805 4.51829C9.86151 4.36085 9.98492 4.23507 10.1411 4.16862C12.1682 3.30567 14.4485 3.25075 16.5148 4.01513C18.581 4.7795 20.2767 6.30526 21.2541 8.27966C21.3023 8.3772 21.3249 8.48543 21.3197 8.59413C21.3145 8.70283 21.2817 8.80841 21.2243 8.90089C21.1669 8.99336 21.0869 9.06968 20.9919 9.12263C20.8968 9.17558 20.7898 9.20341 20.681 9.2035ZM13.5213 20.7379C11.8979 20.737 10.3077 20.2786 8.93298 19.4151C7.55829 18.5517 6.45481 17.3183 5.74912 15.8563C5.68286 15.7046 5.67797 15.5331 5.73547 15.3779C5.79298 15.2226 5.9084 15.0957 6.05751 15.0237C6.20661 14.9518 6.37779 14.9404 6.5351 14.992C6.6924 15.0436 6.8236 15.1542 6.90112 15.3005C7.69361 16.9435 9.0689 18.2331 10.7595 18.9183C12.4501 19.6036 14.3351 19.6356 16.048 19.008C16.2074 18.9496 16.3834 18.9569 16.5374 19.0283C16.6914 19.0997 16.8107 19.2294 16.8691 19.3888C16.9275 19.5482 16.9202 19.7242 16.8488 19.8782C16.7774 20.0322 16.6477 20.1515 16.4883 20.2099C15.538 20.5588 14.5336 20.7375 13.5213 20.7379ZM20.1494 15.9926C20.0396 15.9927 19.9317 15.9646 19.8359 15.9109C19.7401 15.8572 19.6598 15.7798 19.6026 15.6861L19.1248 14.9037L18.6048 15.7017C18.5597 15.7738 18.5007 15.8362 18.4312 15.8852C18.3617 15.9342 18.2832 15.9689 18.2001 15.9872C18.1171 16.0055 18.0313 16.0071 17.9476 15.9919C17.864 15.9766 17.7842 15.9449 17.7129 15.8985C17.6417 15.8521 17.5804 15.7919 17.5327 15.7216C17.4849 15.6512 17.4517 15.572 17.4349 15.4887C17.4181 15.4053 17.4181 15.3195 17.4348 15.2361C17.4516 15.1528 17.4848 15.0736 17.5325 15.0032L18.6061 13.3552C18.6642 13.2659 18.7437 13.1925 18.8373 13.1417C18.931 13.0909 19.0359 13.0643 19.1424 13.0643H19.1517C19.2598 13.0658 19.3657 13.0947 19.4596 13.1483C19.5535 13.2018 19.6323 13.2783 19.6886 13.3705L20.695 15.0185C20.7543 15.1155 20.7867 15.2265 20.7888 15.3402C20.791 15.4538 20.7628 15.566 20.7073 15.6651C20.6517 15.7643 20.5708 15.8469 20.4727 15.9044C20.3747 15.9619 20.2631 15.9922 20.1494 15.9923V15.9926ZM8.7312 9.85118H6.20128C6.03154 9.85118 5.86875 9.78375 5.74873 9.66373C5.62871 9.5437 5.56128 9.38092 5.56128 9.21118C5.56128 9.04144 5.62871 8.87865 5.74873 8.75863C5.86875 8.63861 6.03154 8.57118 6.20128 8.57118H8.7312C8.90094 8.57118 9.06372 8.63861 9.18375 8.75863C9.30377 8.87865 9.3712 9.04144 9.3712 9.21118C9.3712 9.38092 9.30377 9.5437 9.18375 9.66373C9.06372 9.78375 8.90094 9.85118 8.7312 9.85118Z" fill="#202020"/>
<path d="M6.32489 11.808C6.16069 11.808 6.00276 11.7449 5.88377 11.6318C5.76478 11.5186 5.69384 11.364 5.68562 11.2C5.6774 11.036 5.73253 10.8751 5.8396 10.7507C5.94668 10.6262 6.09751 10.5476 6.2609 10.5312C6.87593 10.4697 7.45418 9.46047 7.6369 8.98111C7.69775 8.82236 7.81917 8.69429 7.97445 8.62506C8.12973 8.55584 8.30615 8.55114 8.4649 8.61199C8.62364 8.67284 8.75172 8.79426 8.82094 8.94954C8.89016 9.10482 8.89487 9.28124 8.83402 9.43999C8.7473 9.66591 7.94346 11.6502 6.38922 11.8054C6.36783 11.8074 6.34636 11.8082 6.32489 11.808Z" fill="#202020"/>
<path d="M8.56699 12.08C8.43234 12.0803 8.30106 12.038 8.19195 11.9591L7.00571 11.104C6.868 11.0047 6.77539 10.8548 6.74823 10.6872C6.72108 10.5196 6.76161 10.3481 6.86091 10.2104C6.9602 10.0727 7.11013 9.9801 7.27772 9.95294C7.4453 9.92579 7.61681 9.96631 7.75451 10.0656L8.94171 10.9219C9.05149 11.0011 9.13333 11.1131 9.17547 11.2417C9.21761 11.3704 9.21788 11.5091 9.17624 11.6379C9.1346 11.7667 9.05319 11.8789 8.94372 11.9586C8.83425 12.0382 8.70235 12.081 8.56699 12.081V12.08ZM7.46619 9.85121C7.29645 9.85121 7.13366 9.78378 7.01364 9.66376C6.89361 9.54374 6.82619 9.38095 6.82619 9.21121V8.55809C6.82619 8.38835 6.89361 8.22557 7.01364 8.10554C7.13366 7.98552 7.29645 7.91809 7.46619 7.91809C7.63592 7.91809 7.79871 7.98552 7.91873 8.10554C8.03876 8.22557 8.10619 8.38835 8.10619 8.55809V9.21121C8.10619 9.38095 8.03876 9.54374 7.91873 9.66376C7.79871 9.78378 7.63592 9.85121 7.46619 9.85121Z" fill="#202020"/>
</svg>
