<svg width="24" height="24" viewBox="0 0 24 24" fill="none" xmlns="http://www.w3.org/2000/svg">
<path d="M10.5 15.75H10.5675C10.6661 15.7415 10.7621 15.7136 10.8499 15.6678C10.9377 15.6221 11.0156 15.5594 11.079 15.4834C11.1425 15.4074 11.1903 15.3196 11.2196 15.225C11.2489 15.1305 11.2593 15.0311 11.25 14.9325L10.8525 10.4325C10.8353 10.2347 10.7404 10.0518 10.5886 9.92382C10.4367 9.79588 10.2404 9.73337 10.0425 9.75C9.84469 9.76717 9.66176 9.86208 9.53382 10.0139C9.40588 10.1658 9.34337 10.3621 9.36 10.56L9.75 15.06C9.76511 15.2483 9.85075 15.424 9.9898 15.5519C10.1288 15.6799 10.3111 15.7506 10.5 15.75ZM13.4325 15.75H13.5C13.6877 15.7508 13.869 15.6811 14.0078 15.5547C14.1467 15.4283 14.2331 15.2545 14.25 15.0675L14.64 10.5675C14.6569 10.3686 14.5941 10.1711 14.4654 10.0185C14.3367 9.86589 14.1527 9.77065 13.9537 9.75375C13.7548 9.73684 13.5574 9.79964 13.4047 9.92834C13.2521 10.057 13.1569 10.2411 13.14 10.44L12.7425 14.94C12.7343 15.0386 12.7457 15.1378 12.776 15.2319C12.8062 15.326 12.8549 15.4133 12.919 15.4885C12.9831 15.5638 13.0615 15.6257 13.1496 15.6706C13.2378 15.7154 13.3339 15.7424 13.4325 15.75Z" fill="#202020"/>
<path d="M3.75 6H4.5675L5.73 17.625C5.82328 18.5532 6.25918 19.4133 6.95259 20.0374C7.646 20.6615 8.54712 21.0047 9.48 21H14.55C15.4829 21.0047 16.384 20.6615 17.0774 20.0374C17.7708 19.4133 18.2067 18.5532 18.3 17.625L19.4325 6H20.25C20.4489 6 20.6397 5.92098 20.7803 5.78033C20.921 5.63968 21 5.44891 21 5.25C21 5.05109 20.921 4.86032 20.7803 4.71967C20.6397 4.57902 20.4489 4.5 20.25 4.5H15V3.75C15 3.15326 14.7629 2.58097 14.341 2.15901C13.919 1.73705 13.3467 1.5 12.75 1.5H11.25C10.6533 1.5 10.081 1.73705 9.65901 2.15901C9.23705 2.58097 9 3.15326 9 3.75V4.5H3.75C3.55109 4.5 3.36032 4.57902 3.21967 4.71967C3.07902 4.86032 3 5.05109 3 5.25C3 5.44891 3.07902 5.63968 3.21967 5.78033C3.36032 5.92098 3.55109 6 3.75 6ZM10.5 3.75C10.5 3.55109 10.579 3.36032 10.7197 3.21967C10.8603 3.07902 11.0511 3 11.25 3H12.75C12.9489 3 13.1397 3.07902 13.2803 3.21967C13.421 3.36032 13.5 3.55109 13.5 3.75V4.5H10.5V3.75ZM9.75 6H17.925L16.7775 17.475C16.7215 18.0319 16.46 18.548 16.0439 18.9224C15.6279 19.2969 15.0872 19.5028 14.5275 19.5H9.465C8.90527 19.5028 8.3646 19.2969 7.94855 18.9224C7.53251 18.548 7.27097 18.0319 7.215 17.475L6.075 6H9.75Z" fill="#202020"/>
</svg>
