<svg width="24" height="24" viewBox="0 0 24 24" fill="none" xmlns="http://www.w3.org/2000/svg">
<path d="M15.1779 12.2332H8.82207C8.60858 12.2333 8.39885 12.1772 8.21394 12.0705C8.02904 11.9638 7.87548 11.8103 7.76871 11.6254C7.66195 11.4405 7.60573 11.2308 7.60571 11.0173C7.6057 10.8038 7.66188 10.5941 7.76863 10.4092L10.9465 4.90524C11.0532 4.72022 11.2068 4.56656 11.3917 4.45972C11.5766 4.35288 11.7864 4.29663 12 4.29663C12.2136 4.29663 12.4234 4.35288 12.6083 4.45972C12.7932 4.56656 12.9467 4.72022 13.0534 4.90524L16.2313 10.4092C16.3381 10.5941 16.3943 10.8038 16.3943 11.0173C16.3942 11.2308 16.338 11.4405 16.2313 11.6254C16.1245 11.8103 15.9709 11.9638 15.786 12.0705C15.6011 12.1772 15.3914 12.2333 15.1779 12.2332ZM8.93215 10.9532H15.0678L12 5.63964L8.93215 10.9532Z" fill="#202020"/>
<path d="M15.1779 16.96H8.82207C8.60858 16.96 8.39885 16.9039 8.21394 16.7972C8.02904 16.6905 7.87548 16.537 7.76871 16.3521C7.66195 16.1672 7.60573 15.9575 7.60571 15.744C7.6057 15.5306 7.66188 15.3208 7.76863 15.136L9.99807 11.2739C10.0835 11.1281 10.2232 11.022 10.3866 10.9788C10.55 10.9356 10.7238 10.9588 10.8702 11.0433C11.0165 11.1278 11.1235 11.2668 11.1678 11.4299C11.2121 11.593 11.1901 11.767 11.1065 11.9139L8.93215 15.68H15.0678L12.8934 11.9132C12.8099 11.7663 12.7879 11.5923 12.8321 11.4292C12.8764 11.2661 12.9834 11.1272 13.1298 11.0427C13.2761 10.9582 13.45 10.935 13.6134 10.9782C13.7768 11.0214 13.9164 11.1274 14.0019 11.2732L16.2313 15.136C16.3381 15.3208 16.3943 15.5306 16.3943 15.744C16.3942 15.9575 16.338 16.1672 16.2313 16.3521C16.1245 16.537 15.9709 16.6905 15.786 16.7972C15.6011 16.9039 15.3914 16.96 15.1779 16.96Z" fill="#202020"/>
<path d="M12.0004 20.28C11.8306 20.28 11.6678 20.2126 11.5478 20.0926C11.4278 19.9725 11.3604 19.8097 11.3604 19.64V16.3197C11.3604 16.1499 11.4278 15.9872 11.5478 15.8671C11.6678 15.7471 11.8306 15.6797 12.0004 15.6797C12.1701 15.6797 12.3329 15.7471 12.4529 15.8671C12.5729 15.9872 12.6404 16.1499 12.6404 16.3197V19.64C12.6404 19.8097 12.5729 19.9725 12.4529 20.0926C12.3329 20.2126 12.1701 20.28 12.0004 20.28Z" fill="#202020"/>
</svg>
