<svg width="24" height="24" viewBox="0 0 24 24" fill="none" xmlns="http://www.w3.org/2000/svg">
<path d="M15.1779 12.2332H8.82207C8.60858 12.2333 8.39885 12.1772 8.21394 12.0705C8.02904 11.9638 7.87548 11.8103 7.76871 11.6254C7.66195 11.4405 7.60573 11.2308 7.60571 11.0173C7.6057 10.8038 7.66188 10.5941 7.76863 10.4092L10.9465 4.90524C11.0532 4.72022 11.2068 4.56656 11.3917 4.45972C11.5766 4.35288 11.7864 4.29663 12 4.29663C12.2136 4.29663 12.4234 4.35288 12.6083 4.45972C12.7932 4.56656 12.9467 4.72022 13.0534 4.90524L16.2313 10.4092C16.3381 10.5941 16.3943 10.8038 16.3943 11.0173C16.3942 11.2308 16.338 11.4405 16.2313 11.6254C16.1245 11.8103 15.9709 11.9638 15.786 12.0705C15.6011 12.1772 15.3914 12.2333 15.1779 12.2332ZM8.93215 10.9532H15.0678L12 5.63964L8.93215 10.9532Z" fill="#202020"/>
<path d="M15.1779 16.9601H8.82207C8.60858 16.9601 8.39885 16.904 8.21394 16.7973C8.02904 16.6906 7.87548 16.5371 7.76871 16.3522C7.66195 16.1674 7.60573 15.9576 7.60571 15.7442C7.6057 15.5307 7.66188 15.321 7.76863 15.1361L9.99807 11.274C10.0835 11.1282 10.2232 11.0221 10.3866 10.9789C10.55 10.9357 10.7238 10.9589 10.8702 11.0434C11.0165 11.1279 11.1235 11.2669 11.1678 11.43C11.2121 11.5931 11.1901 11.7671 11.1065 11.914L8.93215 15.6801H15.0678L12.8934 11.9134C12.8099 11.7664 12.7879 11.5924 12.8321 11.4293C12.8764 11.2662 12.9834 11.1273 13.1298 11.0428C13.2761 10.9583 13.45 10.9351 13.6134 10.9783C13.7768 11.0215 13.9164 11.1276 14.0019 11.2734L16.2313 15.1361C16.3381 15.321 16.3943 15.5307 16.3943 15.7442C16.3942 15.9576 16.338 16.1674 16.2313 16.3522C16.1245 16.5371 15.9709 16.6906 15.786 16.7973C15.6011 16.904 15.3914 16.9601 15.1779 16.9601Z" fill="#202020"/>
<path d="M12.0001 20.2804C11.8304 20.2804 11.6676 20.2129 11.5476 20.0929C11.4275 19.9729 11.3601 19.8101 11.3601 19.6404V16.3201C11.3601 16.1503 11.4275 15.9875 11.5476 15.8675C11.6676 15.7475 11.8304 15.6801 12.0001 15.6801C12.1698 15.6801 12.3326 15.7475 12.4527 15.8675C12.5727 15.9875 12.6401 16.1503 12.6401 16.3201V19.6404C12.6401 19.8101 12.5727 19.9729 12.4527 20.0929C12.3326 20.2129 12.1698 20.2804 12.0001 20.2804Z" fill="#202020"/>
</svg>
