<svg width="24" height="24" viewBox="0 0 24 24" fill="none" xmlns="http://www.w3.org/2000/svg">
<path d="M16.2841 18.6742H7.71583C6.9337 18.6733 6.18388 18.3622 5.63083 17.8091C5.07779 17.2561 4.76668 16.5063 4.76575 15.7241V7.15583C4.76668 6.37371 5.07779 5.62388 5.63083 5.07084C6.18388 4.51779 6.9337 4.20668 7.71583 4.20575H16.2841C17.0663 4.20668 17.8161 4.51779 18.3691 5.07084C18.9222 5.62388 19.2333 6.37371 19.2342 7.15583V15.7241C19.2333 16.5063 18.9222 17.2561 18.3691 17.8091C17.8161 18.3622 17.0663 18.6733 16.2841 18.6742ZM7.71583 5.48575C7.27305 5.48626 6.84855 5.66238 6.53546 5.97547C6.22237 6.28856 6.04626 6.71305 6.04575 7.15583V15.7241C6.04626 16.1669 6.22237 16.5914 6.53546 16.9045C6.84855 17.2176 7.27305 17.3937 7.71583 17.3942H16.2841C16.7269 17.3937 17.1514 17.2176 17.4645 16.9045C17.7776 16.5914 17.9537 16.1669 17.9542 15.7241V7.15583C17.9537 6.71305 17.7776 6.28856 17.4645 5.97547C17.1514 5.66238 16.7269 5.48626 16.2841 5.48575H7.71583Z" fill="#202020"/>
<path d="M15.2285 13.7533C15.1446 13.7536 15.0616 13.7375 14.984 13.7057C14.9064 13.6739 14.8358 13.6271 14.7763 13.568L12.9843 11.7799L12.2637 12.4199C12.1449 12.5252 11.9912 12.5827 11.8324 12.581C11.6736 12.5794 11.5211 12.5187 11.4045 12.4109L9.60001 10.737C9.53694 10.6803 9.48576 10.6116 9.44946 10.535C9.41316 10.4583 9.39246 10.3752 9.38856 10.2905C9.38465 10.2058 9.39763 10.1211 9.42673 10.0414C9.45583 9.96177 9.50048 9.88869 9.55807 9.82643C9.61567 9.76417 9.68506 9.71398 9.76222 9.67877C9.83938 9.64357 9.92277 9.62405 10.0075 9.62136C10.0923 9.61866 10.1768 9.63284 10.256 9.66307C10.3353 9.69331 10.4077 9.73899 10.4691 9.79747L11.8506 11.0752L12.5866 10.4211C12.7085 10.3129 12.8672 10.2552 13.0302 10.26C13.1932 10.2647 13.3483 10.3315 13.4637 10.4467L15.68 12.6605C15.7696 12.75 15.8306 12.864 15.8554 12.9882C15.8801 13.1124 15.8675 13.2411 15.819 13.3581C15.7706 13.4751 15.6885 13.5751 15.5832 13.6455C15.4779 13.7158 15.3542 13.7533 15.2275 13.7533H15.2285Z" fill="#202020"/>
<path d="M9.47453 12.6544C9.31019 12.6546 9.15208 12.5916 9.03293 12.4784C8.91379 12.3652 8.84275 12.2105 8.83453 12.0464L8.71485 9.70014C8.71051 9.61344 8.72385 9.52676 8.75407 9.44538C8.78428 9.364 8.83073 9.28962 8.8906 9.22676C8.95047 9.1639 9.0225 9.11387 9.10231 9.07973C9.18212 9.04558 9.26804 9.02803 9.35485 9.02814H9.35901L11.727 9.04318C11.8967 9.04373 12.0593 9.11169 12.179 9.2321C12.2986 9.35251 12.3655 9.51552 12.3649 9.68526C12.3644 9.855 12.2964 10.0176 12.176 10.1372C12.0556 10.2568 11.8926 10.3237 11.7229 10.3232H11.7187L10.0275 10.3126L10.1126 11.9817C10.1169 12.0658 10.1046 12.1499 10.0764 12.2292C10.0481 12.3085 10.0045 12.3815 9.94803 12.4439C9.89155 12.5063 9.82332 12.557 9.74723 12.593C9.67114 12.629 9.58869 12.6496 9.50461 12.6537L9.47453 12.6544Z" fill="#202020"/>
</svg>
