<svg width="24" height="24" viewBox="0 0 24 24" fill="none" xmlns="http://www.w3.org/2000/svg">
<path d="M16.8557 18.6742H8.28799C7.50589 18.6733 6.7561 18.3622 6.20311 17.8091C5.65011 17.2561 5.33907 16.5062 5.33823 15.7241V7.15583C5.33907 6.37373 5.65011 5.62391 6.20311 5.07086C6.7561 4.5178 7.50589 4.20668 8.28799 4.20575H16.8557C17.6378 4.20668 18.3876 4.5178 18.9405 5.07086C19.4935 5.62391 19.8046 6.37373 19.8054 7.15583V15.7241C19.8046 16.5062 19.4935 17.2561 18.9405 17.8091C18.3876 18.3622 17.6378 18.6733 16.8557 18.6742ZM8.28799 5.48575C7.84524 5.48626 7.42078 5.66239 7.10774 5.97549C6.7947 6.28859 6.61865 6.71308 6.61823 7.15583V15.7241C6.61865 16.1669 6.7947 16.5914 7.10774 16.9045C7.42078 17.2176 7.84524 17.3937 8.28799 17.3942H16.8557C17.2984 17.3937 17.7229 17.2176 18.0359 16.9045C18.349 16.5914 18.525 16.1669 18.5254 15.7241V7.15583C18.525 6.71308 18.349 6.28859 18.0359 5.97549C17.7229 5.66239 17.2984 5.48626 16.8557 5.48575H8.28799Z" fill="#202020"/>
<path d="M14.864 13.7533C14.7801 13.7537 14.697 13.7375 14.6194 13.7057C14.5418 13.6739 14.4713 13.6271 14.4118 13.568L12.6198 11.7798L11.8992 12.4198C11.7804 12.5253 11.6266 12.5828 11.4677 12.5811C11.3089 12.5795 11.1563 12.5188 11.0397 12.4109L9.23264 10.7392C9.16957 10.6825 9.11839 10.6138 9.08209 10.5372C9.04579 10.4605 9.02509 10.3774 9.02119 10.2927C9.01728 10.208 9.03026 10.1233 9.05936 10.0436C9.08846 9.96397 9.13311 9.89088 9.1907 9.82863C9.24829 9.76637 9.31769 9.71618 9.39485 9.68097C9.47201 9.64577 9.5554 9.62625 9.64017 9.62355C9.72494 9.62086 9.8094 9.63504 9.88864 9.66527C9.96789 9.6955 10.0403 9.74119 10.1018 9.79966L11.4848 11.0752L12.224 10.4211C12.3459 10.3129 12.5045 10.2553 12.6675 10.2601C12.8304 10.2648 12.9854 10.3316 13.1008 10.4467L15.3178 12.6605C15.4073 12.7499 15.4684 12.864 15.4931 12.9881C15.5179 13.1123 15.5052 13.241 15.4568 13.358C15.4084 13.4749 15.3264 13.5749 15.2212 13.6453C15.1159 13.7157 14.9922 13.7532 14.8656 13.7533H14.864Z" fill="#202020"/>
<path d="M15.0294 13.8928H15.0256L12.6576 13.8778C12.5736 13.8775 12.4904 13.8607 12.4128 13.8282C12.3353 13.7958 12.2649 13.7485 12.2057 13.6888C12.1464 13.6292 12.0995 13.5585 12.0676 13.4807C12.0357 13.403 12.0194 13.3197 12.0197 13.2357C12.02 13.1516 12.0368 13.0685 12.0692 12.9909C12.1016 12.9134 12.149 12.843 12.2086 12.7837C12.2682 12.7245 12.3389 12.6776 12.4167 12.6457C12.4944 12.6138 12.5777 12.5975 12.6618 12.5978H12.6659L14.3571 12.6086L14.272 10.9392C14.2658 10.8542 14.2767 10.7688 14.304 10.688C14.3313 10.6072 14.3745 10.5328 14.431 10.4689C14.4874 10.405 14.5561 10.3531 14.6329 10.3162C14.7098 10.2792 14.7932 10.258 14.8783 10.2537C14.9635 10.2495 15.0486 10.2623 15.1287 10.2913C15.2089 10.3204 15.2824 10.3652 15.345 10.4231C15.4075 10.481 15.4579 10.5508 15.4931 10.6285C15.5284 10.7061 15.5477 10.79 15.5501 10.8752L15.6698 13.2214C15.6741 13.3081 15.6608 13.3948 15.6306 13.4762C15.6003 13.5576 15.5539 13.6319 15.494 13.6948C15.4341 13.7577 15.3621 13.8077 15.2823 13.8418C15.2025 13.876 15.1166 13.8935 15.0298 13.8934L15.0294 13.8928Z" fill="#202020"/>
</svg>
