<svg width="24" height="24" viewBox="0 0 24 24" fill="none" xmlns="http://www.w3.org/2000/svg">
<path d="M14.6473 18.5837H8.58299C8.41325 18.5837 8.25047 18.5163 8.13044 18.3963C8.01042 18.2762 7.94299 18.1134 7.94299 17.9437C7.94299 17.774 8.01042 17.6112 8.13044 17.4912C8.25047 17.3711 8.41325 17.3037 8.58299 17.3037H14.6473C14.8171 17.3037 14.9798 17.3711 15.0999 17.4912C15.2199 17.6112 15.2873 17.774 15.2873 17.9437C15.2873 18.1134 15.2199 18.2762 15.0999 18.3963C14.9798 18.5163 14.8171 18.5837 14.6473 18.5837Z" fill="#202020"/>
<path d="M20.064 18.5837H17.9063C17.7365 18.5837 17.5738 18.5162 17.4537 18.3962C17.3337 18.2762 17.2663 18.1134 17.2663 17.9437C17.2663 17.7739 17.3337 17.6111 17.4537 17.4911C17.5738 17.3711 17.7365 17.3037 17.9063 17.3037H20.064C20.1584 17.3036 20.2488 17.2661 20.3156 17.1993C20.3823 17.1326 20.4198 17.0422 20.4199 16.9478V13.4659C20.4207 13.0035 20.2741 12.5529 20.0013 12.1795L17.5431 8.79998C17.3978 8.60079 17.2075 8.43868 16.9878 8.32681C16.768 8.21494 16.525 8.15647 16.2784 8.15615H15.184V14.1222C15.184 14.292 15.1166 14.4548 14.9966 14.5748C14.8766 14.6948 14.7138 14.7622 14.544 14.7622H3.57956V17.0816C3.57956 17.1405 3.60296 17.197 3.64461 17.2386C3.68625 17.2803 3.74274 17.3037 3.80164 17.3037H5.17124C5.34098 17.3037 5.50377 17.3711 5.62379 17.4911C5.74381 17.6111 5.81124 17.7739 5.81124 17.9437C5.81124 18.1134 5.74381 18.2762 5.62379 18.3962C5.50377 18.5162 5.34098 18.5837 5.17124 18.5837H3.80164C3.40342 18.5832 3.02166 18.4247 2.74007 18.1432C2.45849 17.8616 2.30007 17.4798 2.29956 17.0816V14.1222C2.29956 13.9525 2.36699 13.7897 2.48701 13.6697C2.60704 13.5497 2.76982 13.4822 2.93956 13.4822H13.904V7.51646C13.904 7.34673 13.9715 7.18394 14.0915 7.06392C14.2115 6.94389 14.3743 6.87646 14.544 6.87646H16.2784C16.7268 6.87719 17.1687 6.98358 17.5683 7.18701C17.9679 7.39044 18.3139 7.68519 18.5783 8.04734L21.0368 11.4262C21.4695 12.0182 21.702 12.7327 21.7005 13.4659V16.9478C21.7 17.3816 21.5274 17.7975 21.2206 18.1042C20.9138 18.4109 20.4978 18.5833 20.064 18.5837Z" fill="#202020"/>
<path d="M6.83748 20.0246C6.4261 20.0246 6.02395 19.9026 5.68189 19.6741C5.33984 19.4455 5.07324 19.1207 4.91581 18.7406C4.75838 18.3605 4.71719 17.9423 4.79745 17.5388C4.8777 17.1354 5.0758 16.7647 5.3667 16.4738C5.65759 16.1829 6.02821 15.9848 6.43169 15.9046C6.83517 15.8243 7.25339 15.8655 7.63346 16.023C8.01353 16.1804 8.33838 16.447 8.56694 16.789C8.79549 17.1311 8.91748 17.5332 8.91748 17.9446C8.91655 18.496 8.69711 19.0245 8.30723 19.4144C7.91736 19.8043 7.38884 20.0237 6.83748 20.0246ZM6.83748 17.1427C6.67926 17.1427 6.52458 17.1896 6.39302 17.2775C6.26146 17.3654 6.15893 17.4904 6.09838 17.6366C6.03783 17.7827 6.02198 17.9436 6.05285 18.0988C6.08372 18.254 6.15991 18.3965 6.27179 18.5084C6.38368 18.6203 6.52622 18.6965 6.68141 18.7273C6.83659 18.7582 6.99745 18.7424 7.14363 18.6818C7.28981 18.6213 7.41475 18.5187 7.50266 18.3872C7.59056 18.2556 7.63748 18.1009 7.63748 17.9427C7.63706 17.7307 7.55264 17.5274 7.4027 17.3775C7.25276 17.2275 7.04952 17.1431 6.83748 17.1427ZM16.0884 20.0246C15.677 20.0246 15.2748 19.9026 14.9328 19.6741C14.5907 19.4455 14.3241 19.1207 14.1667 18.7406C14.0093 18.3605 13.9681 17.9423 14.0483 17.5388C14.1286 17.1354 14.3267 16.7647 14.6176 16.4738C14.9085 16.1829 15.2791 15.9848 15.6826 15.9046C16.0861 15.8243 16.5043 15.8655 16.8843 16.023C17.2644 16.1804 17.5893 16.447 17.8178 16.789C18.0464 17.1311 18.1684 17.5332 18.1684 17.9446C18.1674 18.496 17.948 19.0245 17.5581 19.4144C17.1682 19.8043 16.6397 20.0237 16.0884 20.0246ZM16.0884 17.1427C15.9301 17.1427 15.7755 17.1896 15.6439 17.2775C15.5123 17.3654 15.4098 17.4904 15.3493 17.6366C15.2887 17.7827 15.2729 17.9436 15.3037 18.0988C15.3346 18.254 15.4108 18.3965 15.5227 18.5084C15.6346 18.6203 15.7771 18.6965 15.9323 18.7273C16.0875 18.7582 16.2483 18.7424 16.3945 18.6818C16.5407 18.6213 16.6656 18.5187 16.7535 18.3872C16.8414 18.2556 16.8884 18.1009 16.8884 17.9427C16.8884 17.7305 16.8041 17.527 16.654 17.377C16.504 17.227 16.3005 17.1427 16.0884 17.1427ZM14.544 14.7622H2.93956C2.76982 14.7622 2.60704 14.6948 2.48701 14.5748C2.36699 14.4547 2.29956 14.292 2.29956 14.1222V5.6867C2.30007 5.23298 2.48054 4.79798 2.80137 4.47715C3.1222 4.15632 3.5572 3.97585 4.01092 3.97534H13.472C13.9257 3.97593 14.3606 4.15644 14.6814 4.47726C15.0021 4.79808 15.1826 5.23303 15.1831 5.6867V14.1222C15.1831 14.2918 15.1158 14.4544 14.996 14.5744C14.8762 14.6944 14.7136 14.762 14.544 14.7622ZM3.57956 13.4822H13.904V5.6867C13.904 5.63001 13.8928 5.57389 13.8711 5.52153C13.8493 5.46917 13.8175 5.42161 13.7774 5.38155C13.7373 5.3415 13.6897 5.30973 13.6373 5.28808C13.5849 5.26642 13.5287 5.2553 13.472 5.25534H4.01092C3.89657 5.25551 3.78695 5.30101 3.70609 5.38187C3.62523 5.46273 3.57973 5.57235 3.57956 5.6867V13.4822Z" fill="#202020"/>
<path d="M20.5194 12.4428H14.5441C14.3743 12.4428 14.2115 12.3754 14.0915 12.2554C13.9715 12.1354 13.9041 11.9726 13.9041 11.8028C13.9041 11.6331 13.9715 11.4703 14.0915 11.3503C14.2115 11.2303 14.3743 11.1628 14.5441 11.1628H20.5194C20.6892 11.1628 20.8519 11.2303 20.972 11.3503C21.092 11.4703 21.1594 11.6331 21.1594 11.8028C21.1594 11.9726 21.092 12.1354 20.972 12.2554C20.8519 12.3754 20.6892 12.4428 20.5194 12.4428Z" fill="#202020"/>
</svg>
