<svg width="24" height="24" viewBox="0 0 24 24" fill="none" xmlns="http://www.w3.org/2000/svg">
<path d="M17.032 20.4556H6.96801C6.06022 20.4546 5.1899 20.0935 4.548 19.4516C3.90609 18.8097 3.54502 17.9394 3.54401 17.0316V6.96795C3.54502 6.06016 3.90609 5.18984 4.548 4.54793C5.1899 3.90603 6.06022 3.54496 6.96801 3.54395H17.032C17.9398 3.54496 18.8101 3.90603 19.452 4.54793C20.0939 5.18984 20.455 6.06016 20.456 6.96795V17.0319C20.4549 17.9397 20.0938 18.8099 19.4519 19.4517C18.81 20.0936 17.9397 20.4546 17.032 20.4556ZM6.96801 4.82427C6.39954 4.82477 5.8545 5.05082 5.45253 5.45279C5.05056 5.85476 4.82451 6.3998 4.82401 6.96826V17.0323C4.82451 17.6007 5.05056 18.1458 5.45253 18.5477C5.8545 18.9497 6.39954 19.1758 6.96801 19.1763H17.032C17.6005 19.1758 18.1455 18.9497 18.5475 18.5477C18.9494 18.1458 19.1755 17.6007 19.176 17.0323V6.96795C19.1755 6.39948 18.9494 5.85444 18.5475 5.45247C18.1455 5.0505 17.6005 4.82445 17.032 4.82395L6.96801 4.82427Z" fill="#202020"/>
<path d="M13.2007 16.5865H10.816C10.4334 16.585 10.0641 16.4462 9.77525 16.1954C9.48637 15.9446 9.29713 15.5984 9.24194 15.2198L8.52482 10.1482C8.51164 10.0643 8.51527 9.9787 8.53549 9.89628C8.55572 9.81386 8.59213 9.73629 8.64261 9.66807C8.69309 9.59986 8.75663 9.54236 8.82954 9.49894C8.90245 9.45551 8.98327 9.42701 9.06729 9.41511C9.15131 9.4032 9.23686 9.40813 9.31897 9.4296C9.40107 9.45107 9.47808 9.48865 9.54552 9.54016C9.61297 9.59167 9.66949 9.65608 9.71181 9.72964C9.75413 9.8032 9.78139 9.88444 9.79202 9.96863L10.5101 15.04C10.5208 15.1138 10.5576 15.1812 10.6139 15.2301C10.6702 15.279 10.7421 15.306 10.8167 15.3062H13.2007C13.2752 15.3061 13.3472 15.2791 13.4035 15.2302C13.4598 15.1813 13.4966 15.1138 13.5072 15.04L14.208 9.97087C14.2184 9.88668 14.2454 9.8054 14.2875 9.73175C14.3296 9.6581 14.3859 9.59354 14.4531 9.54184C14.5204 9.49014 14.5972 9.45232 14.6792 9.43059C14.7612 9.40885 14.8467 9.40363 14.9307 9.41523C15.0148 9.42684 15.0956 9.45502 15.1687 9.49816C15.2417 9.5413 15.3055 9.59853 15.3562 9.66652C15.4069 9.7345 15.4436 9.8119 15.4641 9.8942C15.4847 9.9765 15.4887 10.0621 15.4759 10.1459L14.7757 15.2147C14.7219 15.5945 14.533 15.9422 14.2438 16.1941C13.9545 16.446 13.5842 16.5853 13.2007 16.5865ZM15.5363 9.32895H8.46434C8.2946 9.32895 8.13182 9.26152 8.01179 9.1415C7.89177 9.02148 7.82434 8.85869 7.82434 8.68895C7.82434 8.51921 7.89177 8.35643 8.01179 8.2364C8.13182 8.11638 8.2946 8.04895 8.46434 8.04895H15.5363C15.7061 8.04895 15.8689 8.11638 15.9889 8.2364C16.1089 8.35643 16.1763 8.51921 16.1763 8.68895C16.1763 8.85869 16.1089 9.02148 15.9889 9.1415C15.8689 9.26152 15.7061 9.32895 15.5363 9.32895Z" fill="#202020"/>
<path d="M10.6935 9.137C10.5978 9.13708 10.5034 9.11573 10.4171 9.07451C10.3308 9.03329 10.2548 8.97325 10.1948 8.89881C10.1347 8.82437 10.0921 8.73742 10.0701 8.64435C10.0481 8.55128 10.0472 8.45446 10.0675 8.361L10.3642 6.99716C10.3952 6.85435 10.4742 6.72647 10.588 6.63478C10.7019 6.54309 10.8436 6.49311 10.9898 6.49316H13.1872C13.3378 6.49315 13.4835 6.54621 13.5988 6.64301C13.7141 6.73982 13.7916 6.87417 13.8176 7.02244L14.0573 8.38596C14.0731 8.46922 14.0722 8.55478 14.0546 8.63768C14.037 8.72058 14.0032 8.79917 13.955 8.86889C13.9069 8.93861 13.8453 8.99806 13.774 9.04381C13.7027 9.08956 13.623 9.12069 13.5395 9.1354C13.4561 9.1501 13.3705 9.14808 13.2879 9.12947C13.2052 9.11085 13.1271 9.076 13.058 9.02694C12.9889 8.97788 12.9302 8.91559 12.8854 8.84368C12.8405 8.77177 12.8104 8.69168 12.7968 8.60804L12.6499 7.77348H11.5053L11.3181 8.63332C11.287 8.77592 11.2081 8.9036 11.0945 8.99521C10.9809 9.08682 10.8394 9.13685 10.6935 9.137Z" fill="#202020"/>
</svg>
