<svg width="24" height="24" viewBox="0 0 24 24" fill="none" xmlns="http://www.w3.org/2000/svg">
<path d="M18.1575 3.5925C18.0877 3.5222 18.0048 3.46641 17.9134 3.42833C17.822 3.39026 17.724 3.37065 17.625 3.37065C17.526 3.37065 17.4279 3.39026 17.3365 3.42833C17.2451 3.46641 17.1622 3.5222 17.0925 3.5925L15.5925 5.0925C13.5037 4.43928 11.2766 4.36639 9.14962 4.88163C7.02262 5.39687 5.07577 6.48083 3.51747 8.0175C3.37778 8.15802 3.29938 8.34811 3.29938 8.54625C3.29938 8.74439 3.37778 8.93448 3.51747 9.075C3.65799 9.21469 3.84808 9.29309 4.04622 9.29309C4.24436 9.29309 4.43445 9.21469 4.57497 9.075C5.8442 7.81873 7.41071 6.90409 9.12861 6.41626C10.8465 5.92843 12.6599 5.88328 14.4 6.285L13.1025 7.59C11.7412 7.41382 10.3577 7.55133 9.0578 7.99201C7.75787 8.43268 6.57595 9.16485 5.60247 10.1325C5.53218 10.2022 5.47638 10.2852 5.4383 10.3766C5.40023 10.468 5.38062 10.566 5.38062 10.665C5.38062 10.764 5.40023 10.862 5.4383 10.9534C5.47638 11.0448 5.53218 11.1278 5.60247 11.1975C5.67255 11.267 5.75566 11.322 5.84704 11.3593C5.93842 11.3967 6.03627 11.4156 6.13497 11.415C6.23368 11.4156 6.33152 11.3967 6.4229 11.3593C6.51428 11.322 6.59739 11.267 6.66747 11.1975C7.99934 9.86205 9.78548 9.07743 11.67 9L9.74997 10.9425C9.00689 11.2437 8.33125 11.6899 7.76247 12.255C7.65661 12.3626 7.58567 12.4996 7.55891 12.6481C7.53214 12.7966 7.55081 12.9498 7.61247 13.0875L3.59247 17.0925C3.52218 17.1622 3.46638 17.2452 3.4283 17.3366C3.39023 17.428 3.37062 17.526 3.37062 17.625C3.37062 17.724 3.39023 17.822 3.4283 17.9134C3.46638 18.0048 3.52218 18.0878 3.59247 18.1575C3.66219 18.2278 3.74515 18.2836 3.83654 18.3217C3.92793 18.3597 4.02596 18.3793 4.12497 18.3793C4.22398 18.3793 4.32201 18.3597 4.4134 18.3217C4.5048 18.2836 4.58775 18.2278 4.65747 18.1575L18.1575 4.6575C18.2278 4.58778 18.2836 4.50483 18.3216 4.41343C18.3597 4.32204 18.3793 4.22401 18.3793 4.125C18.3793 4.02599 18.3597 3.92796 18.3216 3.83657C18.2836 3.74517 18.2278 3.66222 18.1575 3.5925ZM18.75 6.5625C18.5849 6.45111 18.3823 6.40986 18.1868 6.44784C17.9913 6.48582 17.8189 6.5999 17.7075 6.765C17.5961 6.9301 17.5548 7.13268 17.5928 7.32819C17.6308 7.5237 17.7449 7.69611 17.91 7.8075C18.448 8.18287 18.9501 8.60717 19.41 9.075C19.5505 9.21469 19.7406 9.29309 19.9387 9.29309C20.1369 9.29309 20.327 9.21469 20.4675 9.075C20.6072 8.93448 20.6856 8.74439 20.6856 8.54625C20.6856 8.34811 20.6072 8.15802 20.4675 8.0175C19.9418 7.47976 19.3668 6.99261 18.75 6.5625ZM16.5 8.715C16.4148 8.6651 16.3207 8.6325 16.2229 8.61906C16.1251 8.60563 16.0256 8.61163 15.9302 8.63671C15.8347 8.66179 15.7452 8.70547 15.6666 8.76524C15.5881 8.825 15.5221 8.89968 15.4725 8.985C15.4229 9.0706 15.3907 9.16516 15.3778 9.26325C15.3649 9.36133 15.3716 9.461 15.3974 9.5565C15.4232 9.65201 15.4676 9.74147 15.5281 9.81973C15.5886 9.89799 15.664 9.9635 15.75 10.0125C16.3116 10.3392 16.8285 10.7376 17.2875 11.1975C17.3576 11.267 17.4407 11.322 17.532 11.3593C17.6234 11.3967 17.7213 11.4156 17.82 11.415C17.9187 11.4156 18.0165 11.3967 18.1079 11.3593C18.1993 11.322 18.2824 11.267 18.3525 11.1975C18.4228 11.1278 18.4786 11.0448 18.5166 10.9534C18.5547 10.862 18.5743 10.764 18.5743 10.665C18.5743 10.566 18.5547 10.468 18.5166 10.3766C18.4786 10.2852 18.4228 10.2022 18.3525 10.1325C17.7996 9.58106 17.1768 9.1045 16.5 8.715ZM14.1675 10.905C13.9815 10.8334 13.7747 10.8386 13.5925 10.9195C13.4104 11.0003 13.2678 11.1503 13.1962 11.3362C13.1246 11.5222 13.1298 11.729 13.2107 11.9112C13.2916 12.0933 13.4415 12.2359 13.6275 12.3075C14.2117 12.5295 14.7412 12.8749 15.18 13.32C15.2497 13.3903 15.3326 13.4461 15.424 13.4842C15.5154 13.5222 15.6135 13.5418 15.7125 13.5418C15.8115 13.5418 15.9095 13.5222 16.0009 13.4842C16.0923 13.4461 16.1752 13.3903 16.245 13.32C16.3153 13.2503 16.3711 13.1673 16.4091 13.0759C16.4472 12.9845 16.4668 12.8865 16.4668 12.7875C16.4668 12.6885 16.4472 12.5905 16.4091 12.4991C16.3711 12.4077 16.3153 12.3247 16.245 12.255C15.6539 11.6654 14.9464 11.2056 14.1675 10.905ZM9.87747 14.3775C9.45825 14.7972 9.17286 15.3317 9.05737 15.9136C8.94189 16.4954 9.00149 17.0985 9.22865 17.6465C9.45581 18.1944 9.84033 18.6628 10.3336 18.9923C10.8269 19.3218 11.4068 19.4976 12 19.4976C12.5932 19.4976 13.1731 19.3218 13.6663 18.9923C14.1596 18.6628 14.5441 18.1944 14.7713 17.6465C14.9985 17.0985 15.0581 16.4954 14.9426 15.9136C14.8271 15.3317 14.5417 14.7972 14.1225 14.3775C13.5505 13.8319 12.7904 13.5275 12 13.5275C11.2095 13.5275 10.4494 13.8319 9.87747 14.3775ZM13.0575 17.5575C12.7764 17.8369 12.3963 17.9937 12 17.9937C11.6037 17.9937 11.2235 17.8369 10.9425 17.5575C10.7318 17.3481 10.5881 17.0808 10.5295 16.7896C10.4708 16.4984 10.5 16.1963 10.6133 15.9217C10.7266 15.6471 10.9188 15.4123 11.1657 15.2471C11.4126 15.0819 11.7029 14.9937 12 14.9937C12.297 14.9937 12.5874 15.0819 12.8343 15.2471C13.0811 15.4123 13.2734 15.6471 13.3866 15.9217C13.4999 16.1963 13.5291 16.4984 13.4705 16.7896C13.4119 17.0808 13.2681 17.3481 13.0575 17.5575Z" fill="#202020"/>
</svg>
