<svg width="24" height="24" viewBox="0 0 24 24" fill="none" xmlns="http://www.w3.org/2000/svg">
<path d="M11.9107 11.6285C9.52385 11.6285 7.58177 9.68673 7.58177 7.29985C7.58177 4.91297 9.52385 2.97089 11.9107 2.97089C14.2976 2.97089 16.2394 4.91297 16.2394 7.29985C16.2394 9.68673 14.2976 11.6285 11.9107 11.6285ZM11.9107 4.25089C11.3077 4.25082 10.7182 4.42959 10.2167 4.76457C9.71529 5.09956 9.32444 5.57572 9.09363 6.13284C8.86281 6.68996 8.80238 7.30301 8.91999 7.89447C9.0376 8.48593 9.32796 9.02924 9.75435 9.45567C10.1807 9.88211 10.724 10.1725 11.3155 10.2902C11.9069 10.4079 12.52 10.3475 13.0771 10.1167C13.6343 9.88599 14.1105 9.4952 14.4455 8.99379C14.7805 8.49239 14.9594 7.90289 14.9594 7.29985C14.9585 6.49153 14.6371 5.71655 14.0655 5.14495C13.494 4.57336 12.719 4.25182 11.9107 4.25089ZM19.447 21.0291C19.2773 21.0291 19.1145 20.9617 18.9945 20.8417C18.8745 20.7217 18.807 20.5589 18.807 20.3891C18.8072 19.6985 18.6736 19.0145 18.4134 18.3747C18.3511 18.2176 18.3535 18.0423 18.42 17.8869C18.4865 17.7316 18.6117 17.6088 18.7683 17.5455C18.925 17.4821 19.1004 17.4832 19.2562 17.5487C19.412 17.6141 19.5356 17.7385 19.6 17.8947C19.9222 18.6874 20.0876 19.5351 20.087 20.3907C20.0866 20.5602 20.019 20.7226 19.899 20.8422C19.7791 20.9619 19.6165 21.0291 19.447 21.0291ZM4.56609 21.0291C4.39635 21.0291 4.23356 20.9617 4.11354 20.8417C3.99351 20.7217 3.92609 20.5589 3.92609 20.3891C3.92609 18.4317 4.77601 16.5955 6.31937 15.2192C7.84225 13.8611 9.86177 13.1133 12.0067 13.1133C13.4349 13.1133 14.8384 13.4531 16.0659 14.096C16.1414 14.1344 16.2086 14.1874 16.2635 14.2519C16.3183 14.3164 16.3599 14.3912 16.3856 14.4719C16.4114 14.5526 16.4209 14.6376 16.4135 14.722C16.4062 14.8064 16.3822 14.8885 16.3429 14.9635C16.3035 15.0386 16.2497 15.105 16.1845 15.1591C16.1193 15.2132 16.0441 15.2538 15.9631 15.2786C15.882 15.3033 15.7969 15.3118 15.7126 15.3034C15.6283 15.295 15.5466 15.27 15.472 15.2298C14.4272 14.6826 13.2288 14.3933 12.0067 14.3933C8.25665 14.3933 5.20609 17.0829 5.20609 20.3891C5.20609 20.5589 5.13866 20.7217 5.01863 20.8417C4.89861 20.9617 4.73583 21.0291 4.56609 21.0291Z" fill="#202020"/>
<path d="M18.8621 18.513C18.2029 18.513 17.5586 18.3175 17.0105 17.9513C16.4624 17.5851 16.0352 17.0645 15.783 16.4556C15.5307 15.8466 15.4647 15.1765 15.5933 14.53C15.7219 13.8835 16.0394 13.2896 16.5055 12.8235C16.9716 12.3574 17.5654 12.04 18.2119 11.9114C18.8584 11.7828 19.5285 11.8488 20.1375 12.101C20.7465 12.3533 21.267 12.7805 21.6332 13.3285C21.9994 13.8766 22.1949 14.521 22.1949 15.1802C22.1939 16.0638 21.8424 16.9109 21.2176 17.5357C20.5928 18.1605 19.7457 18.5119 18.8621 18.513ZM18.8621 13.1274C18.4561 13.1274 18.0592 13.2477 17.7216 13.4733C17.384 13.6989 17.1209 14.0195 16.9656 14.3946C16.8102 14.7697 16.7695 15.1824 16.8487 15.5806C16.928 15.9788 17.1235 16.3446 17.4105 16.6317C17.6976 16.9188 18.0634 17.1143 18.4616 17.1935C18.8598 17.2727 19.2726 17.2321 19.6477 17.0767C20.0228 16.9213 20.3434 16.6582 20.5689 16.3206C20.7945 15.983 20.9149 15.5862 20.9149 15.1802C20.9143 14.6359 20.6978 14.1141 20.313 13.7293C19.9281 13.3444 19.4064 13.1279 18.8621 13.1274Z" fill="#202020"/>
<path d="M18.0752 16.5814C17.9485 16.5816 17.8245 16.5441 17.7191 16.4737C17.6136 16.4034 17.5315 16.3033 17.483 16.1862C17.4346 16.069 17.422 15.9401 17.4468 15.8159C17.4717 15.6916 17.5329 15.5774 17.6227 15.488L19.1456 13.9654C19.2047 13.9043 19.2753 13.8556 19.3534 13.822C19.4314 13.7885 19.5154 13.7708 19.6004 13.7701C19.6854 13.7693 19.7697 13.7855 19.8483 13.8177C19.927 13.8499 19.9984 13.8974 20.0585 13.9575C20.1186 14.0176 20.1661 14.089 20.1983 14.1677C20.2305 14.2464 20.2467 14.3306 20.2459 14.4156C20.2452 14.5006 20.2275 14.5846 20.194 14.6627C20.1605 14.7407 20.1117 14.8114 20.0506 14.8704L18.528 16.3942C18.4685 16.4536 18.3979 16.5008 18.3202 16.5329C18.2425 16.565 18.1593 16.5815 18.0752 16.5814Z" fill="#202020"/>
<path d="M19.5981 16.5814C19.5141 16.5816 19.4308 16.5651 19.3532 16.533C19.2755 16.5009 19.205 16.4537 19.1456 16.3942L17.6227 14.8714C17.5633 14.8119 17.5162 14.7414 17.484 14.6637C17.4519 14.586 17.4353 14.5028 17.4354 14.4188C17.4354 14.3347 17.4519 14.2515 17.4841 14.1739C17.5163 14.0962 17.5635 14.0257 17.6229 13.9662C17.6823 13.9068 17.7529 13.8597 17.8306 13.8275C17.9082 13.7954 17.9914 13.7789 18.0755 13.7789C18.1595 13.7789 18.2428 13.7955 18.3204 13.8276C18.3981 13.8598 18.4686 13.907 18.528 13.9664L20.0506 15.488C20.1401 15.5775 20.201 15.6915 20.2257 15.8157C20.2504 15.9398 20.2377 16.0685 20.1893 16.1854C20.1408 16.3023 20.0588 16.4023 19.9536 16.4726C19.8484 16.5429 19.7247 16.5805 19.5981 16.5805V16.5814Z" fill="#202020"/>
</svg>
