<svg width="24" height="24" viewBox="0 0 24 24" fill="none" xmlns="http://www.w3.org/2000/svg">
<path d="M11.8115 20.6822H11.7958C11.7096 20.68 11.6247 20.6604 11.5461 20.6246C11.4676 20.5888 11.3971 20.5376 11.3389 20.4739L9.08609 18.008H6.96801C5.08001 18.008 3.54401 16.6496 3.54401 14.9798V6.34559C3.54401 4.67615 5.08001 3.31775 6.96801 3.31775H17.032C18.92 3.31775 20.456 4.67615 20.456 6.34559V14.9798C20.456 16.6496 18.92 18.008 17.032 18.008H14.7699L12.2624 20.4966C12.1425 20.6156 11.9804 20.6823 11.8115 20.6822ZM6.96801 4.59775C5.78593 4.59775 4.82401 5.38175 4.82401 6.34559V14.9798C4.82401 15.9437 5.78561 16.728 6.96801 16.728H9.36801C9.45688 16.728 9.54478 16.7465 9.6261 16.7824C9.70742 16.8183 9.78038 16.8707 9.84033 16.9363L11.8339 19.1181L14.055 16.9136C14.175 16.7947 14.337 16.7279 14.5059 16.728H17.0317C18.2138 16.728 19.1757 15.9437 19.1757 14.9798V6.34559C19.1757 5.38175 18.2157 4.59775 17.0317 4.59775H6.96801Z" fill="#202020"/>
<path d="M11.9462 11.0957C11.4109 11.0957 10.8875 10.9369 10.4423 10.6395C9.99719 10.342 9.65025 9.91924 9.44538 9.4246C9.24051 8.92996 9.18692 8.38568 9.2914 7.86059C9.39587 7.3355 9.6537 6.85318 10.0323 6.47463C10.4109 6.09608 10.8932 5.8383 11.4183 5.73389C11.9435 5.62948 12.4877 5.68313 12.9823 5.88806C13.477 6.09298 13.8997 6.43998 14.1971 6.88517C14.4945 7.33035 14.6532 7.85373 14.6531 8.38912C14.6523 9.10674 14.3668 9.79472 13.8593 10.3021C13.3519 10.8095 12.6639 11.0949 11.9462 11.0957ZM11.9462 6.96224C11.664 6.96224 11.3882 7.04592 11.1535 7.20271C10.9189 7.3595 10.736 7.58234 10.628 7.84307C10.52 8.1038 10.4917 8.3907 10.5468 8.66749C10.6018 8.94427 10.7377 9.19852 10.9373 9.39807C11.1368 9.59763 11.3911 9.73352 11.6679 9.78858C11.9447 9.84364 12.2316 9.81538 12.4923 9.70738C12.753 9.59938 12.9759 9.4165 13.1326 9.18185C13.2894 8.9472 13.3731 8.67133 13.3731 8.38912C13.3727 8.01081 13.2222 7.64813 12.9547 7.38063C12.6872 7.11313 12.3245 6.96266 11.9462 6.96224ZM16.169 16.3629C15.9992 16.3629 15.8364 16.2954 15.7164 16.1754C15.5964 16.0554 15.529 15.8926 15.529 15.7229C15.529 14.0269 13.9459 12.6448 12 12.6448C10.0541 12.6448 8.47104 14.0256 8.47104 15.7229C8.47104 15.8926 8.40361 16.0554 8.28359 16.1754C8.16356 16.2954 8.00078 16.3629 7.83104 16.3629C7.6613 16.3629 7.49852 16.2954 7.37849 16.1754C7.25847 16.0554 7.19104 15.8926 7.19104 15.7229C7.19104 13.3197 9.34848 11.3648 12 11.3648C14.6515 11.3648 16.809 13.3197 16.809 15.7229C16.809 15.8926 16.7415 16.0554 16.6215 16.1754C16.5015 16.2954 16.3387 16.3629 16.169 16.3629Z" fill="#202020"/>
</svg>
