<svg width="24" height="24" viewBox="0 0 24 24" fill="none" xmlns="http://www.w3.org/2000/svg">
<path d="M11.9462 11.0957C11.4109 11.0957 10.8875 10.9369 10.4423 10.6395C9.99719 10.342 9.65025 9.91924 9.44538 9.4246C9.24051 8.92996 9.18692 8.38568 9.2914 7.86059C9.39587 7.3355 9.6537 6.85318 10.0323 6.47463C10.4109 6.09608 10.8932 5.8383 11.4183 5.73389C11.9435 5.62948 12.4877 5.68313 12.9823 5.88806C13.477 6.09298 13.8997 6.43998 14.1971 6.88517C14.4945 7.33035 14.6532 7.85373 14.6531 8.38912C14.6523 9.10674 14.3668 9.79472 13.8593 10.3021C13.3519 10.8095 12.6639 11.0949 11.9462 11.0957ZM11.9462 6.96224C11.664 6.96224 11.3882 7.04592 11.1535 7.20271C10.9189 7.3595 10.736 7.58234 10.628 7.84307C10.52 8.1038 10.4917 8.3907 10.5468 8.66749C10.6018 8.94427 10.7377 9.19852 10.9373 9.39807C11.1368 9.59763 11.3911 9.73352 11.6679 9.78858C11.9447 9.84364 12.2316 9.81538 12.4923 9.70738C12.753 9.59938 12.9759 9.4165 13.1326 9.18185C13.2894 8.9472 13.3731 8.67133 13.3731 8.38912C13.3727 8.01081 13.2222 7.64813 12.9547 7.38063C12.6872 7.11313 12.3245 6.96266 11.9462 6.96224ZM16.169 16.3629C15.9992 16.3629 15.8364 16.2954 15.7164 16.1754C15.5964 16.0554 15.529 15.8926 15.529 15.7229C15.529 14.0269 13.9459 12.6448 12 12.6448C10.0541 12.6448 8.47104 14.0256 8.47104 15.7229C8.47104 15.8926 8.40361 16.0554 8.28359 16.1754C8.16356 16.2954 8.00078 16.3629 7.83104 16.3629C7.6613 16.3629 7.49852 16.2954 7.37849 16.1754C7.25847 16.0554 7.19104 15.8926 7.19104 15.7229C7.19104 13.3197 9.34848 11.3648 12 11.3648C14.6515 11.3648 16.809 13.3197 16.809 15.7229C16.809 15.8926 16.7415 16.0554 16.6215 16.1754C16.5015 16.2954 16.3387 16.3629 16.169 16.3629Z" fill="#202020"/>
<path d="M12 20.6227C11.4449 20.6232 10.8995 20.4775 10.4186 20.2003L5.68896 17.4698C5.20874 17.1915 4.80996 16.792 4.53245 16.3113C4.25494 15.8307 4.10841 15.2856 4.10752 14.7306V9.26943C4.10841 8.7144 4.25494 8.16932 4.53245 7.68864C4.80996 7.20797 5.20874 6.80853 5.68896 6.53023L10.4186 3.79967C10.8997 3.52291 11.445 3.37726 12 3.37726C12.555 3.37726 13.1003 3.52291 13.5814 3.79967L18.311 6.53023C18.7913 6.80853 19.19 7.20797 19.4676 7.68864C19.7451 8.16932 19.8916 8.7144 19.8925 9.26943V14.7306C19.8916 15.2856 19.7451 15.8307 19.4676 16.3113C19.19 16.792 18.7913 17.1915 18.311 17.4698L13.5814 20.2003C13.1005 20.4775 12.5551 20.6232 12 20.6227ZM12 4.65663C11.6696 4.65641 11.3449 4.74315 11.0586 4.90815L6.32896 7.63871C6.04287 7.80448 5.80534 8.04248 5.64012 8.32889C5.4749 8.61529 5.3878 8.94007 5.38752 9.27071V14.7306C5.3878 15.0612 5.4749 15.386 5.64012 15.6724C5.80534 15.9588 6.04287 16.1968 6.32896 16.3626L11.0586 19.0931C11.345 19.2579 11.6696 19.3446 12 19.3446C12.3304 19.3446 12.655 19.2579 12.9414 19.0931L17.671 16.3626C17.9571 16.1968 18.1947 15.9588 18.3599 15.6724C18.5251 15.386 18.6122 15.0612 18.6125 14.7306V9.26943C18.6122 8.93879 18.5251 8.61401 18.3599 8.3276C18.1947 8.0412 17.9571 7.8032 17.671 7.63743L12.9414 4.90687C12.655 4.74229 12.3303 4.65599 12 4.65663Z" fill="#202020"/>
</svg>
