<svg width="24" height="24" viewBox="0 0 24 24" fill="none" xmlns="http://www.w3.org/2000/svg">
<path d="M11.3942 11.6285C9.00737 11.6285 7.06529 9.68673 7.06529 7.29985C7.06529 4.91297 9.00737 2.97089 11.3942 2.97089C13.7811 2.97089 15.7229 4.91297 15.7229 7.29985C15.7229 9.68673 13.7811 11.6285 11.3942 11.6285ZM11.3942 4.25089C10.7912 4.25082 10.2017 4.42959 9.70025 4.76457C9.19881 5.09956 8.80796 5.57572 8.57715 6.13284C8.34633 6.68996 8.2859 7.30301 8.40351 7.89447C8.52112 8.48593 8.81148 9.02924 9.23787 9.45567C9.66426 9.88211 10.2075 10.1725 10.799 10.2902C11.3904 10.4079 12.0035 10.3475 12.5606 10.1167C13.1178 9.88599 13.594 9.4952 13.929 8.99379C14.2641 8.49239 14.4429 7.90289 14.4429 7.29985C14.442 6.49153 14.1206 5.71655 13.549 5.14495C12.9775 4.57336 12.2026 4.25182 11.3942 4.25089ZM18.9306 21.0291C18.7608 21.0291 18.598 20.9617 18.478 20.8417C18.358 20.7217 18.2906 20.5589 18.2906 20.3891C18.2908 19.6985 18.1571 19.0145 17.897 18.3747C17.8347 18.2176 17.837 18.0423 17.9035 17.8869C17.97 17.7316 18.0952 17.6088 18.2519 17.5455C18.4085 17.4821 18.5839 17.4832 18.7397 17.5487C18.8955 17.6141 19.0191 17.7385 19.0835 17.8947C19.4057 18.6874 19.5711 19.5351 19.5706 20.3907C19.5701 20.5602 19.5025 20.7226 19.3825 20.8422C19.2626 20.9619 19.1 21.0291 18.9306 21.0291ZM4.04961 21.0291C3.87987 21.0291 3.71708 20.9617 3.59706 20.8417C3.47704 20.7217 3.40961 20.5589 3.40961 20.3891C3.40961 18.4317 4.25953 16.5955 5.80289 15.2192C7.32577 13.8611 9.34529 13.1133 11.4902 13.1133C12.9184 13.1133 14.3219 13.4531 15.5494 14.096C15.625 14.1344 15.6921 14.1874 15.747 14.2519C15.8019 14.3164 15.8434 14.3912 15.8691 14.4719C15.8949 14.5526 15.9044 14.6376 15.897 14.722C15.8897 14.8064 15.8657 14.8885 15.8264 14.9635C15.7871 15.0386 15.7333 15.105 15.6681 15.1591C15.6029 15.2132 15.5276 15.2538 15.4466 15.2786C15.3656 15.3033 15.2804 15.3118 15.1962 15.3034C15.1119 15.295 15.0301 15.27 14.9555 15.2298C13.9107 14.6826 12.7123 14.3933 11.4902 14.3933C7.74049 14.3933 4.68961 17.0829 4.68961 20.3891C4.68961 20.5589 4.62218 20.7217 4.50216 20.8417C4.38213 20.9617 4.21935 21.0291 4.04961 21.0291Z" fill="#202020"/>
<path d="M18.3456 18.513C17.6864 18.513 17.0421 18.3175 16.494 17.9513C15.9459 17.5851 15.5187 17.0645 15.2665 16.4556C15.0142 15.8466 14.9482 15.1765 15.0768 14.53C15.2054 13.8835 15.5229 13.2896 15.989 12.8235C16.4551 12.3574 17.0489 12.04 17.6954 11.9114C18.3419 11.7828 19.012 11.8488 19.621 12.101C20.23 12.3533 20.7505 12.7805 21.1167 13.3285C21.4829 13.8766 21.6784 14.521 21.6784 15.1802C21.6774 16.0638 21.3259 16.9109 20.7011 17.5357C20.0763 18.1605 19.2292 18.5119 18.3456 18.513ZM18.3456 13.1274C17.9396 13.1274 17.5427 13.2477 17.2051 13.4733C16.8675 13.6989 16.6044 14.0195 16.4491 14.3946C16.2937 14.7697 16.253 15.1824 16.3322 15.5806C16.4115 15.9788 16.607 16.3446 16.8941 16.6317C17.1811 16.9188 17.5469 17.1143 17.9451 17.1935C18.3433 17.2727 18.7561 17.2321 19.1312 17.0767C19.5063 16.9213 19.8269 16.6582 20.0524 16.3206C20.278 15.983 20.3984 15.5862 20.3984 15.1802C20.3978 14.6359 20.1813 14.1141 19.7965 13.7293C19.4117 13.3444 18.8899 13.1279 18.3456 13.1274Z" fill="#202020"/>
<path d="M17.904 16.7181C17.745 16.7181 17.5917 16.6589 17.4739 16.552L16.6608 15.8141C16.5368 15.6996 16.4631 15.5407 16.4556 15.3721C16.4482 15.2035 16.5076 15.0388 16.6211 14.9138C16.7345 14.7888 16.8927 14.7137 17.0612 14.7048C17.2298 14.6959 17.395 14.7539 17.521 14.8662L17.9072 15.2166L19.0435 14.2006C19.1061 14.1444 19.1792 14.101 19.2586 14.073C19.338 14.045 19.4222 14.033 19.5063 14.0375C19.5903 14.0421 19.6727 14.0633 19.7486 14.0997C19.8244 14.1362 19.8924 14.1873 19.9485 14.25C20.0046 14.3128 20.0478 14.386 20.0756 14.4655C20.1033 14.545 20.1152 14.6292 20.1103 14.7132C20.1055 14.7973 20.0842 14.8796 20.0475 14.9553C20.0108 15.0311 19.9596 15.0989 19.8966 15.1549L18.3306 16.5552C18.2134 16.6603 18.0614 16.7183 17.904 16.7181Z" fill="#202020"/>
</svg>
