<svg width="24" height="24" viewBox="0 0 24 24" fill="none" xmlns="http://www.w3.org/2000/svg">
<path d="M11.904 11.6285C9.51712 11.6285 7.57536 9.68673 7.57536 7.29985C7.57536 4.91297 9.51712 2.97089 11.904 2.97089C14.2909 2.97089 16.2326 4.91297 16.2326 7.29985C16.2326 9.68673 14.2909 11.6285 11.904 11.6285ZM11.904 4.25089C11.301 4.25082 10.7114 4.42959 10.21 4.76457C9.70856 5.09956 9.31772 5.57572 9.0869 6.13284C8.85608 6.68996 8.79566 7.30301 8.91326 7.89447C9.03087 8.48593 9.32123 9.02924 9.74763 9.45567C10.174 9.88211 10.7173 10.1725 11.3087 10.2902C11.9002 10.4079 12.5132 10.3475 13.0704 10.1167C13.6275 9.88599 14.1037 9.4952 14.4388 8.99379C14.7738 8.49239 14.9526 7.90289 14.9526 7.29985C14.9518 6.49153 14.6303 5.71655 14.0588 5.14495C13.4873 4.57336 12.7123 4.25182 11.904 4.25089ZM19.4403 21.0291C19.2706 21.0291 19.1078 20.9617 18.9878 20.8417C18.8677 20.7217 18.8003 20.5589 18.8003 20.3891C18.8003 17.0829 15.7498 14.3933 12 14.3933C8.25024 14.3933 5.19968 17.0829 5.19968 20.3891C5.19968 20.5589 5.13225 20.7217 5.01223 20.8417C4.8922 20.9617 4.72942 21.0291 4.55968 21.0291C4.38994 21.0291 4.22715 20.9617 4.10713 20.8417C3.98711 20.7217 3.91968 20.5589 3.91968 20.3891C3.91968 18.4317 4.7696 16.5955 6.31296 15.2192C7.83552 13.8611 9.856 13.1133 12 13.1133C14.144 13.1133 16.1645 13.8611 17.687 15.2192C19.2304 16.5952 20.0803 18.4317 20.0803 20.3891C20.0803 20.5589 20.0129 20.7217 19.8929 20.8417C19.7728 20.9617 19.6101 21.0291 19.4403 21.0291Z" fill="#202020"/>
</svg>
