<svg width="24" height="24" viewBox="0 0 24 24" fill="none" xmlns="http://www.w3.org/2000/svg">
<path d="M11.904 11.6285C9.51712 11.6285 7.57536 9.68673 7.57536 7.29985C7.57536 4.91297 9.51712 2.97089 11.904 2.97089C14.2909 2.97089 16.2326 4.91297 16.2326 7.29985C16.2326 9.68673 14.2909 11.6285 11.904 11.6285ZM11.904 4.25089C11.301 4.25082 10.7114 4.42959 10.21 4.76457C9.70856 5.09956 9.31772 5.57572 9.0869 6.13284C8.85608 6.68996 8.79566 7.30301 8.91326 7.89447C9.03087 8.48593 9.32123 9.02924 9.74763 9.45567C10.174 9.88211 10.7173 10.1725 11.3087 10.2902C11.9002 10.4079 12.5132 10.3475 13.0704 10.1167C13.6275 9.88599 14.1037 9.4952 14.4388 8.99379C14.7738 8.49239 14.9526 7.90289 14.9526 7.29985C14.9518 6.49153 14.6303 5.71655 14.0588 5.14495C13.4873 4.57336 12.7123 4.25182 11.904 4.25089ZM19.4403 21.0291C19.2706 21.0291 19.1078 20.9617 18.9878 20.8417C18.8677 20.7217 18.8003 20.5589 18.8003 20.3891C18.8005 19.894 18.7318 19.4013 18.5962 18.9251C18.5495 18.7619 18.5696 18.5868 18.652 18.4383C18.7344 18.2899 18.8724 18.1803 19.0357 18.1336C19.1989 18.0869 19.374 18.107 19.5225 18.1894C19.6709 18.2719 19.7805 18.4099 19.8272 18.5731C19.9952 19.1634 20.0804 19.7741 20.0803 20.3878C20.0805 20.472 20.0641 20.5554 20.032 20.6332C19.9999 20.711 19.9528 20.7817 19.8933 20.8412C19.8339 20.9008 19.7633 20.948 19.6855 20.9803C19.6078 21.0125 19.5245 21.0291 19.4403 21.0291ZM4.55968 21.0291C4.38994 21.0291 4.22715 20.9617 4.10713 20.8417C3.98711 20.7217 3.91968 20.5589 3.91968 20.3891C3.91968 18.4317 4.7696 16.5955 6.31296 15.2192C7.83552 13.8611 9.856 13.1133 12 13.1133C13.4282 13.1133 14.832 13.4531 16.0592 14.096C16.1347 14.1344 16.2019 14.1874 16.2567 14.2519C16.3116 14.3164 16.3531 14.3912 16.3789 14.4719C16.4047 14.5526 16.4141 14.6376 16.4068 14.722C16.3995 14.8064 16.3754 14.8885 16.3361 14.9635C16.2968 15.0386 16.243 15.105 16.1778 15.1591C16.1126 15.2132 16.0373 15.2538 15.9563 15.2786C15.8753 15.3033 15.7902 15.3118 15.7059 15.3034C15.6216 15.295 15.5398 15.27 15.4653 15.2298C14.4205 14.6826 13.2221 14.3933 12 14.3933C8.25024 14.3933 5.19968 17.0829 5.19968 20.3891C5.19968 20.5589 5.13225 20.7217 5.01223 20.8417C4.8922 20.9617 4.72942 21.0291 4.55968 21.0291ZM16.1347 18.8445C16.0486 18.8446 15.9633 18.8272 15.884 18.7935C15.8047 18.7598 15.733 18.7105 15.6732 18.6484C15.6135 18.5863 15.5669 18.5129 15.5362 18.4323C15.5055 18.3518 15.4914 18.2659 15.4947 18.1798L15.5587 16.4982C15.5643 16.3517 15.6199 16.2115 15.7165 16.1011L18.1853 13.2816C18.4371 12.9917 18.8291 12.8016 19.2608 12.7632C19.728 12.7206 20.1699 12.857 20.5053 13.1472C21.1859 13.7366 21.3142 14.8432 20.7738 15.4659L20.7712 15.4691L18.272 18.3216C18.1766 18.4297 18.0475 18.5024 17.9056 18.528L16.2506 18.833C16.2124 18.8403 16.1736 18.8441 16.1347 18.8445ZM16.8301 16.7738L16.8048 17.4304L17.455 17.312L19.8051 14.6323C19.8538 14.5536 19.8419 14.2666 19.6685 14.1165C19.495 13.9664 19.207 14.0602 19.153 14.1229L19.1504 14.1254L16.8301 16.7738Z" fill="#202020"/>
</svg>
