<svg width="24" height="24" viewBox="0 0 24 24" fill="none" xmlns="http://www.w3.org/2000/svg">
<path d="M12.2989 13.1626C11.7635 13.1626 11.2402 13.0038 10.795 12.7064C10.3499 12.4089 10.0029 11.9862 9.79807 11.4916C9.59319 10.9969 9.53959 10.4527 9.64403 9.92759C9.74848 9.40251 10.0063 8.92019 10.3848 8.54162C10.7634 8.16306 11.2457 7.90525 11.7708 7.80081C12.2959 7.69636 12.8402 7.74997 13.3348 7.95484C13.8294 8.15972 14.2522 8.50667 14.5496 8.95181C14.847 9.39696 15.0058 9.92031 15.0058 10.4557C15.005 11.1734 14.7196 11.8614 14.2121 12.3689C13.7046 12.8764 13.0166 13.1618 12.2989 13.1626ZM12.2989 9.02912C12.0167 9.02912 11.7408 9.11281 11.5061 9.26961C11.2715 9.42641 11.0886 9.64928 10.9806 9.91003C10.8726 10.1708 10.8444 10.4577 10.8995 10.7345C10.9545 11.0113 11.0905 11.2655 11.2901 11.4651C11.4896 11.6646 11.7439 11.8005 12.0207 11.8555C12.2975 11.9105 12.5844 11.8822 12.8452 11.7742C13.1059 11.6661 13.3287 11.4832 13.4855 11.2485C13.6422 11.0138 13.7258 10.7379 13.7258 10.4557C13.7254 10.0774 13.5749 9.71475 13.3074 9.4473C13.0399 9.17985 12.6772 9.02945 12.2989 9.02912ZM15.2656 18.4294H9.44002C9.15833 18.4292 8.88132 18.3574 8.635 18.2207C8.38868 18.0841 8.18114 17.887 8.03186 17.6481C7.88259 17.4093 7.79647 17.1363 7.78161 16.855C7.76675 16.5737 7.82363 16.2933 7.9469 16.04C8.71298 14.4554 10.4429 13.4317 12.353 13.4317C14.2631 13.4317 15.9927 14.4557 16.7587 16.04C16.882 16.2933 16.9389 16.5737 16.924 16.855C16.9092 17.1363 16.8231 17.4093 16.6738 17.6481C16.5245 17.887 16.317 18.0841 16.0706 18.2207C15.8243 18.3574 15.5473 18.4292 15.2656 18.4294ZM12.352 14.7117C10.9293 14.7117 9.65186 15.4518 9.09826 16.5971C9.06907 16.6561 9.05554 16.7216 9.05896 16.7873C9.06237 16.8531 9.08263 16.9168 9.11778 16.9725C9.15156 17.0268 9.19871 17.0717 9.25473 17.1026C9.31075 17.1336 9.37377 17.1497 9.43778 17.1494H15.2656C15.3296 17.1497 15.3927 17.1336 15.4487 17.1026C15.5047 17.0717 15.5518 17.0268 15.5856 16.9725C15.6208 16.9168 15.641 16.8531 15.6444 16.7873C15.6479 16.7216 15.6343 16.6561 15.6051 16.5971C15.0528 15.4518 13.7754 14.7117 12.352 14.7117Z" fill="#202020"/>
<path d="M17.44 20.4557H7.37474C6.46693 20.4548 5.59656 20.0937 4.95464 19.4518C4.31272 18.8099 3.95168 17.9395 3.95074 17.0317V6.96801C3.95168 6.06019 4.31272 5.18982 4.95464 4.5479C5.59656 3.90598 6.46693 3.54494 7.37474 3.54401H17.44C18.3478 3.54494 19.2182 3.90598 19.8601 4.5479C20.5021 5.18982 20.8631 6.06019 20.864 6.96801V17.032C20.864 17.9401 20.5033 18.811 19.8612 19.4531C19.219 20.0953 18.3481 20.456 17.44 20.456V20.4557ZM7.37474 4.82433C6.80628 4.82483 6.26124 5.05088 5.85927 5.45285C5.4573 5.85482 5.23125 6.39986 5.23074 6.96833V17.0323C5.23125 17.6008 5.4573 18.1458 5.85927 18.5478C6.26124 18.9498 6.80628 19.1758 7.37474 19.1763H17.44C17.7216 19.1763 18.0004 19.1209 18.2605 19.0131C18.5206 18.9054 18.757 18.7475 18.9561 18.5484C19.1551 18.3493 19.3131 18.1129 19.4208 17.8528C19.5286 17.5927 19.584 17.3139 19.584 17.0323V6.96801C19.5835 6.39954 19.3575 5.8545 18.9555 5.45253C18.5535 5.05056 18.0085 4.82451 17.44 4.82401L7.37474 4.82433Z" fill="#202020"/>
</svg>
