<svg width="24" height="24" viewBox="0 0 24 24" fill="none" xmlns="http://www.w3.org/2000/svg">
<path d="M12 20.7734C11.6772 20.7751 11.3627 20.6713 11.1042 20.478C10.8457 20.2846 10.6573 20.0122 10.5677 19.7021L10.1466 18.272C10.1367 18.2388 10.119 18.2085 10.0948 18.1837C10.0707 18.159 10.0409 18.1404 10.008 18.1297C9.97506 18.119 9.94004 18.1165 9.90593 18.1223C9.87182 18.1281 9.83964 18.1422 9.81217 18.1632L8.63169 19.072C8.37624 19.2687 8.06398 19.3775 7.7416 19.382C7.41921 19.3865 7.10402 19.2866 6.84316 19.0971C6.58229 18.9076 6.38977 18.6388 6.29438 18.3308C6.19898 18.0228 6.20584 17.6922 6.31393 17.3885L6.81345 15.9846C6.82506 15.952 6.82854 15.9171 6.8236 15.8828C6.81865 15.8485 6.80543 15.8159 6.78507 15.7879C6.76471 15.7599 6.73783 15.7373 6.70675 15.722C6.67568 15.7067 6.64135 15.6992 6.60673 15.7002L5.11745 15.744C4.79516 15.753 4.47862 15.6574 4.21518 15.4715C3.95174 15.2856 3.75554 15.0194 3.65592 14.7128C3.5563 14.4062 3.55861 14.0755 3.66251 13.7703C3.76641 13.4651 3.96631 13.2017 4.23233 13.0195L5.46145 12.1773C5.49009 12.1577 5.51353 12.1315 5.52972 12.1008C5.54592 12.0701 5.55438 12.036 5.55438 12.0013C5.55438 11.9666 5.54592 11.9324 5.52972 11.9018C5.51353 11.8711 5.49009 11.8448 5.46145 11.8253L4.23233 10.983C3.96631 10.8009 3.76641 10.5375 3.66251 10.2323C3.55861 9.92705 3.5563 9.59641 3.65592 9.28977C3.75554 8.98313 3.95174 8.71697 4.21518 8.53109C4.47862 8.34522 4.79516 8.24961 5.11745 8.25857L6.60673 8.29985C6.64135 8.30081 6.67568 8.29332 6.70675 8.27803C6.73783 8.26274 6.76471 8.24011 6.78507 8.21209C6.80543 8.18407 6.81865 8.15152 6.8236 8.11724C6.82854 8.08296 6.82506 8.048 6.81345 8.01537L6.31393 6.61153C6.20584 6.30777 6.19898 5.97718 6.29438 5.6692C6.38977 5.36122 6.58229 5.09239 6.84316 4.90291C7.10402 4.71343 7.41921 4.61347 7.7416 4.618C8.06398 4.62252 8.37624 4.73128 8.63169 4.92801L9.81217 5.83681C9.83964 5.85784 9.87182 5.87189 9.90593 5.87772C9.94004 5.88356 9.97506 5.88102 10.008 5.87031C10.0409 5.8596 10.0707 5.84105 10.0948 5.81626C10.119 5.79147 10.1367 5.76118 10.1466 5.72801L10.5677 4.29889C10.6588 3.9896 10.8475 3.7181 11.1057 3.52499C11.3638 3.33187 11.6776 3.22751 12 3.22751C12.3224 3.22751 12.6362 3.33187 12.8944 3.52499C13.1525 3.7181 13.3413 3.9896 13.4323 4.29889L13.8534 5.72801C13.8633 5.76118 13.881 5.79147 13.9052 5.81626C13.9293 5.84105 13.9591 5.8596 13.992 5.87031C14.025 5.88102 14.06 5.88356 14.0941 5.87772C14.1282 5.87189 14.1604 5.85784 14.1878 5.83681L15.3683 4.92801C15.6238 4.73128 15.936 4.62252 16.2584 4.618C16.5808 4.61347 16.896 4.71343 17.1569 4.90291C17.4177 5.09239 17.6102 5.36122 17.7056 5.6692C17.801 5.97718 17.7942 6.30777 17.6861 6.61153L17.1866 8.01537C17.175 8.048 17.1715 8.08296 17.1764 8.11724C17.1814 8.15152 17.1946 8.18407 17.2149 8.21209C17.2353 8.24011 17.2622 8.26274 17.2933 8.27803C17.3243 8.29332 17.3587 8.30081 17.3933 8.29985L18.8826 8.25857C19.2049 8.24961 19.5214 8.34522 19.7848 8.53109C20.0483 8.71697 20.2445 8.98313 20.3441 9.28977C20.4437 9.59641 20.4414 9.92705 20.3375 10.2323C20.2336 10.5375 20.0337 10.8009 19.7677 10.983L18.5386 11.8253C18.5099 11.8448 18.4865 11.8711 18.4703 11.9018C18.4541 11.9324 18.4456 11.9666 18.4456 12.0013C18.4456 12.036 18.4541 12.0701 18.4703 12.1008C18.4865 12.1315 18.5099 12.1577 18.5386 12.1773L19.7677 13.0195C20.0337 13.2017 20.2336 13.4651 20.3375 13.7703C20.4414 14.0755 20.4437 14.4062 20.3441 14.7128C20.2445 15.0194 20.0483 15.2856 19.7848 15.4715C19.5214 15.6574 19.2049 15.753 18.8826 15.744L17.3933 15.7027C17.3587 15.7018 17.3243 15.7092 17.2933 15.7245C17.2622 15.7398 17.2353 15.7625 17.2149 15.7905C17.1946 15.8185 17.1814 15.8511 17.1764 15.8853C17.1715 15.9196 17.175 15.9546 17.1866 15.9872L17.6861 17.391C17.7933 17.6946 17.7994 18.0248 17.7037 18.3322C17.6079 18.6396 17.4154 18.9078 17.1547 19.0968C16.8941 19.2858 16.5794 19.3855 16.2574 19.3811C15.9355 19.3766 15.6236 19.2682 15.3683 19.072L14.1878 18.1632C14.1604 18.1422 14.1282 18.1281 14.0941 18.1223C14.06 18.1165 14.025 18.119 13.992 18.1297C13.9591 18.1404 13.9293 18.159 13.9052 18.1837C13.881 18.2085 13.8633 18.2388 13.8534 18.272L13.4323 19.7011C13.3429 20.0114 13.1546 20.284 12.8961 20.4776C12.6376 20.6711 12.3229 20.775 12 20.7734ZM9.94209 16.84C10.2645 16.8399 10.5783 16.9442 10.8365 17.1374C11.0947 17.3305 11.2834 17.602 11.3744 17.9114L11.7955 19.3405C11.8085 19.3847 11.8354 19.4234 11.8723 19.451C11.9092 19.4786 11.954 19.4935 12 19.4935C12.0461 19.4935 12.0909 19.4786 12.1277 19.451C12.1646 19.4234 12.1915 19.3847 12.2045 19.3405L12.6256 17.9114C12.6941 17.6786 12.8183 17.466 12.9875 17.292C13.1566 17.1181 13.3656 16.988 13.5964 16.913C13.8272 16.838 14.0728 16.8204 14.3119 16.8617C14.551 16.903 14.7764 17.002 14.9686 17.1501L16.1491 18.0586C16.1856 18.0867 16.2302 18.1022 16.2762 18.1029C16.3222 18.1035 16.3672 18.0893 16.4045 18.0622C16.4417 18.0352 16.4692 17.9968 16.4828 17.9528C16.4965 17.9088 16.4955 17.8616 16.48 17.8182L15.9805 16.416C15.8991 16.1874 15.8747 15.9424 15.9093 15.7023C15.9439 15.4621 16.0365 15.234 16.1791 15.0377C16.3217 14.8414 16.51 14.6828 16.7277 14.5757C16.9454 14.4685 17.1859 14.416 17.4285 14.4227L18.9181 14.464C18.9641 14.4653 19.0092 14.4516 19.0468 14.4251C19.0844 14.3986 19.1124 14.3606 19.1266 14.3169C19.1409 14.2731 19.1405 14.2259 19.1257 14.1824C19.1109 14.1388 19.0824 14.1012 19.0445 14.0752L17.8154 13.233C17.6151 13.0959 17.4512 12.9121 17.338 12.6974C17.2247 12.4827 17.1656 12.2437 17.1656 12.001C17.1656 11.7583 17.2247 11.5192 17.338 11.3045C17.4512 11.0899 17.6151 10.906 17.8154 10.769L19.0445 9.92673C19.0833 9.90104 19.1127 9.86334 19.1281 9.81939C19.1435 9.77544 19.1441 9.72765 19.1297 9.68334C19.1154 9.63903 19.0869 9.60064 19.0487 9.57403C19.0105 9.54742 18.9646 9.53407 18.9181 9.53601L17.4285 9.57729C17.1859 9.58401 16.9454 9.53151 16.7277 9.42436C16.51 9.3172 16.3217 9.1586 16.1791 8.96229C16.0365 8.76598 15.9439 8.53788 15.9093 8.29772C15.8747 8.05757 15.8991 7.81259 15.9805 7.58401L16.48 6.18177C16.4955 6.1384 16.4965 6.09119 16.4828 6.04722C16.4692 6.00324 16.4417 5.96485 16.4045 5.93779C16.3672 5.91074 16.3222 5.89647 16.2762 5.89713C16.2302 5.89779 16.1856 5.91334 16.1491 5.94145L14.9686 6.84993C14.7764 6.998 14.551 7.09698 14.3119 7.13829C14.0728 7.1796 13.8272 7.16201 13.5964 7.08703C13.3656 7.01205 13.1566 6.88194 12.9875 6.70797C12.8183 6.53401 12.6941 6.32143 12.6256 6.08865L12.2045 4.65953C12.1915 4.61535 12.1646 4.57656 12.1277 4.54897C12.0909 4.52138 12.0461 4.50647 12 4.50647C11.954 4.50647 11.9092 4.52138 11.8723 4.54897C11.8354 4.57656 11.8085 4.61535 11.7955 4.65953L11.3744 6.08865C11.3059 6.32143 11.1817 6.53401 11.0126 6.70797C10.8434 6.88194 10.6344 7.01205 10.4036 7.08703C10.1728 7.16201 9.92725 7.1796 9.68814 7.13829C9.44904 7.09698 9.2236 6.998 9.03137 6.84993L7.85089 5.94145C7.81443 5.91334 7.76985 5.89779 7.72381 5.89713C7.67778 5.89647 7.63277 5.91074 7.59552 5.93779C7.55827 5.96485 7.53078 6.00324 7.51717 6.04722C7.50356 6.09119 7.50455 6.1384 7.52001 6.18177L8.01953 7.58401C8.1009 7.81259 8.12534 8.05757 8.09073 8.29772C8.05611 8.53788 7.9635 8.76598 7.82089 8.96229C7.67829 9.1586 7.48999 9.3172 7.27229 9.42436C7.0546 9.53151 6.81407 9.58401 6.57153 9.57729L5.08193 9.53601C5.03594 9.53474 4.99078 9.54839 4.95319 9.57491C4.9156 9.60143 4.88761 9.63941 4.87338 9.68316C4.85916 9.7269 4.85947 9.77408 4.87428 9.81764C4.88909 9.86119 4.91759 9.89879 4.95553 9.92481L6.18465 10.767C6.38495 10.9041 6.54882 11.0879 6.66205 11.3026C6.77528 11.5173 6.83446 11.7563 6.83446 11.999C6.83446 12.2418 6.77528 12.4808 6.66205 12.6955C6.54882 12.9102 6.38495 13.094 6.18465 13.231L4.95553 14.0733C4.91668 14.099 4.88731 14.1367 4.87192 14.1806C4.85652 14.2246 4.85595 14.2724 4.87028 14.3167C4.88462 14.361 4.91307 14.3994 4.95129 14.426C4.98951 14.4526 5.0354 14.4659 5.08193 14.464L6.57153 14.4227C6.81407 14.416 7.0546 14.4685 7.27229 14.5757C7.48999 14.6828 7.67829 14.8414 7.82089 15.0377C7.9635 15.234 8.05611 15.4621 8.09073 15.7023C8.12534 15.9424 8.1009 16.1874 8.01953 16.416L7.52001 17.8182C7.50455 17.8616 7.50356 17.9088 7.51717 17.9528C7.53078 17.9968 7.55827 18.0352 7.59552 18.0622C7.63277 18.0893 7.67778 18.1035 7.72381 18.1029C7.76985 18.1022 7.81443 18.0867 7.85089 18.0586L9.03137 17.1501C9.29237 16.949 9.6126 16.84 9.94209 16.84Z" fill="#202020"/>
<path d="M10.6486 14.8093C10.6352 14.8093 10.6214 14.8093 10.608 14.8093C10.5224 14.8038 10.4387 14.7811 10.362 14.7426C10.2854 14.7041 10.2172 14.6506 10.1616 14.5853L8.08543 12.1504C7.9751 12.0213 7.92059 11.8536 7.93388 11.6843C7.94717 11.515 8.02719 11.3579 8.15631 11.2475C8.28544 11.1372 8.45311 11.0827 8.62243 11.096C8.79176 11.1093 8.94886 11.1893 9.05919 11.3184L10.7072 13.2506L14.9974 9.3568C15.1237 9.24704 15.2879 9.19109 15.455 9.20094C15.622 9.21079 15.7785 9.28565 15.891 9.40949C16.0035 9.53333 16.063 9.6963 16.0569 9.86349C16.0507 10.0307 15.9793 10.1888 15.8579 10.304L11.079 14.6432C10.9612 14.7501 10.8078 14.8094 10.6486 14.8093Z" fill="#202020"/>
</svg>
