<svg width="24" height="24" viewBox="0 0 24 24" fill="none" xmlns="http://www.w3.org/2000/svg">
<path d="M17.0319 20.7747H6.96795C6.06013 20.7738 5.18976 20.4128 4.54784 19.7708C3.90592 19.1289 3.54488 18.2585 3.54395 17.3507V7.28737C3.54488 6.37956 3.90592 5.50919 4.54784 4.86727C5.18976 4.22535 6.06013 3.8643 6.96795 3.86337H17.0319C17.9398 3.8643 18.8101 4.22535 19.452 4.86727C20.094 5.50919 20.455 6.37956 20.4559 7.28737V17.3514C20.4548 18.2591 20.0937 19.1293 19.4518 19.7711C18.8099 20.4128 17.9396 20.7738 17.0319 20.7747ZM6.96795 5.14369C6.39948 5.1442 5.85444 5.37025 5.45247 5.77222C5.0505 6.17419 4.82445 6.71922 4.82395 7.28769V17.3517C4.82445 17.9202 5.0505 18.4652 5.45247 18.8672C5.85444 19.2691 6.39948 19.4952 6.96795 19.4957H17.0319C17.6004 19.4952 18.1455 19.2691 18.5474 18.8672C18.9494 18.4652 19.1754 17.9202 19.1759 17.3517V7.28737C19.1754 6.7189 18.9494 6.17387 18.5474 5.7719C18.1455 5.36993 17.6004 5.14388 17.0319 5.14337L6.96795 5.14369Z" fill="#202020"/>
<path d="M8.57115 20.7747C8.40141 20.7747 8.23863 20.7073 8.1186 20.5873C7.99858 20.4672 7.93115 20.3045 7.93115 20.1347V4.50368C7.93115 4.33394 7.99858 4.17115 8.1186 4.05113C8.23863 3.93111 8.40141 3.86368 8.57115 3.86368C8.74089 3.86368 8.90368 3.93111 9.0237 4.05113C9.14372 4.17115 9.21115 4.33394 9.21115 4.50368V20.1347C9.21115 20.3045 9.14372 20.4672 9.0237 20.5873C8.90368 20.7073 8.74089 20.7747 8.57115 20.7747ZM15.2348 20.7747C15.0651 20.7747 14.9023 20.7073 14.7823 20.5873C14.6623 20.4672 14.5948 20.3045 14.5948 20.1347V4.50368C14.5948 4.33394 14.6623 4.17115 14.7823 4.05113C14.9023 3.93111 15.0651 3.86368 15.2348 3.86368C15.4046 3.86368 15.5674 3.93111 15.6874 4.05113C15.8074 4.17115 15.8748 4.33394 15.8748 4.50368V20.1347C15.8748 20.3045 15.8074 20.4672 15.6874 20.5873C15.5674 20.7073 15.4046 20.7747 15.2348 20.7747Z" fill="#202020"/>
<path d="M8.57131 8.43936H4.18443C4.01469 8.43936 3.85191 8.37193 3.73189 8.25191C3.61186 8.13189 3.54443 7.9691 3.54443 7.79936C3.54443 7.62962 3.61186 7.46684 3.73189 7.34681C3.85191 7.22679 4.01469 7.15936 4.18443 7.15936H8.57131C8.74105 7.15936 8.90384 7.22679 9.02386 7.34681C9.14388 7.46684 9.21131 7.62962 9.21131 7.79936C9.21131 7.9691 9.14388 8.13189 9.02386 8.25191C8.90384 8.37193 8.74105 8.43936 8.57131 8.43936ZM8.57131 11.3478H4.18443C4.01469 11.3478 3.85191 11.2804 3.73189 11.1604C3.61186 11.0404 3.54443 10.8776 3.54443 10.7078C3.54443 10.5381 3.61186 10.3753 3.73189 10.2553C3.85191 10.1353 4.01469 10.0678 4.18443 10.0678H8.57131C8.74105 10.0678 8.90384 10.1353 9.02386 10.2553C9.14388 10.3753 9.21131 10.5381 9.21131 10.7078C9.21131 10.8776 9.14388 11.0404 9.02386 11.1604C8.90384 11.2804 8.74105 11.3478 8.57131 11.3478ZM8.57131 14.2563H4.18443C4.01469 14.2563 3.85191 14.1889 3.73189 14.0689C3.61186 13.9488 3.54443 13.7861 3.54443 13.6163C3.54443 13.4466 3.61186 13.2838 3.73189 13.1638C3.85191 13.0438 4.01469 12.9763 4.18443 12.9763H8.57131C8.74105 12.9763 8.90384 13.0438 9.02386 13.1638C9.14388 13.2838 9.21131 13.4466 9.21131 13.6163C9.21131 13.7861 9.14388 13.9488 9.02386 14.0689C8.90384 14.1889 8.74105 14.2563 8.57131 14.2563ZM8.57131 17.1648H4.18443C4.01469 17.1648 3.85191 17.0974 3.73189 16.9774C3.61186 16.8573 3.54443 16.6945 3.54443 16.5248C3.54443 16.3551 3.61186 16.1923 3.73189 16.0723C3.85191 15.9522 4.01469 15.8848 4.18443 15.8848H8.57131C8.74105 15.8848 8.90384 15.9522 9.02386 16.0723C9.14388 16.1923 9.21131 16.3551 9.21131 16.5248C9.21131 16.6945 9.14388 16.8573 9.02386 16.9774C8.90384 17.0974 8.74105 17.1648 8.57131 17.1648ZM19.6878 8.43936H15.3009C15.1312 8.43936 14.9684 8.37193 14.8484 8.25191C14.7283 8.13189 14.6609 7.9691 14.6609 7.79936C14.6609 7.62962 14.7283 7.46684 14.8484 7.34681C14.9684 7.22679 15.1312 7.15936 15.3009 7.15936H19.6878C19.8575 7.15936 20.0203 7.22679 20.1403 7.34681C20.2604 7.46684 20.3278 7.62962 20.3278 7.79936C20.3278 7.9691 20.2604 8.13189 20.1403 8.25191C20.0203 8.37193 19.8575 8.43936 19.6878 8.43936ZM19.6878 11.3478H15.3009C15.1312 11.3478 14.9684 11.2804 14.8484 11.1604C14.7283 11.0404 14.6609 10.8776 14.6609 10.7078C14.6609 10.5381 14.7283 10.3753 14.8484 10.2553C14.9684 10.1353 15.1312 10.0678 15.3009 10.0678H19.6878C19.8575 10.0678 20.0203 10.1353 20.1403 10.2553C20.2604 10.3753 20.3278 10.5381 20.3278 10.7078C20.3278 10.8776 20.2604 11.0404 20.1403 11.1604C20.0203 11.2804 19.8575 11.3478 19.6878 11.3478ZM19.6878 14.2563H15.3009C15.1312 14.2563 14.9684 14.1889 14.8484 14.0689C14.7283 13.9488 14.6609 13.7861 14.6609 13.6163C14.6609 13.4466 14.7283 13.2838 14.8484 13.1638C14.9684 13.0438 15.1312 12.9763 15.3009 12.9763H19.6878C19.8575 12.9763 20.0203 13.0438 20.1403 13.1638C20.2604 13.2838 20.3278 13.4466 20.3278 13.6163C20.3278 13.7861 20.2604 13.9488 20.1403 14.0689C20.0203 14.1889 19.8575 14.2563 19.6878 14.2563ZM19.6878 17.1648H15.3009C15.1312 17.1648 14.9684 17.0974 14.8484 16.9774C14.7283 16.8573 14.6609 16.6945 14.6609 16.5248C14.6609 16.3551 14.7283 16.1923 14.8484 16.0723C14.9684 15.9522 15.1312 15.8848 15.3009 15.8848H19.6878C19.8575 15.8848 20.0203 15.9522 20.1403 16.0723C20.2604 16.1923 20.3278 16.3551 20.3278 16.5248C20.3278 16.6945 20.2604 16.8573 20.1403 16.9774C20.0203 17.0974 19.8575 17.1648 19.6878 17.1648ZM15.0804 12.96H8.57131C8.40158 12.96 8.23879 12.8926 8.11877 12.7726C7.99874 12.6525 7.93131 12.4897 7.93131 12.32C7.93131 12.1503 7.99874 11.9875 8.11877 11.8675C8.23879 11.7474 8.40158 11.68 8.57131 11.68H15.0804C15.2502 11.68 15.413 11.7474 15.533 11.8675C15.653 11.9875 15.7204 12.1503 15.7204 12.32C15.7204 12.4897 15.653 12.6525 15.533 12.7726C15.413 12.8926 15.2502 12.96 15.0804 12.96Z" fill="#202020"/>
</svg>
