<svg width="24" height="24" viewBox="0 0 24 24" fill="none" xmlns="http://www.w3.org/2000/svg">
<path d="M16.905 20.4557H6.84099C5.9332 20.4547 5.06289 20.0936 4.42098 19.4517C3.77908 18.8098 3.41801 17.9395 3.41699 17.0317V6.96801C3.41801 6.06022 3.77908 5.1899 4.42098 4.548C5.06289 3.90609 5.9332 3.54502 6.84099 3.54401H16.905C17.8128 3.54494 18.6832 3.90598 19.3251 4.5479C19.967 5.18982 20.3281 6.06019 20.329 6.96801V17.032C20.328 17.9398 19.9669 18.8101 19.325 19.4519C18.6831 20.0938 17.8128 20.4548 16.905 20.4557ZM6.84099 4.82433C6.27252 4.82483 5.72748 5.05088 5.32552 5.45285C4.92355 5.85482 4.6975 6.39986 4.69699 6.96833V17.0323C4.6975 17.6008 4.92355 18.1458 5.32552 18.5478C5.72748 18.9498 6.27252 19.1758 6.84099 19.1763H16.905C17.4735 19.1758 18.0185 18.9498 18.4205 18.5478C18.8224 18.1458 19.0485 17.6008 19.049 17.0323V6.96801C19.0485 6.39954 18.8224 5.8545 18.4205 5.45253C18.0185 5.05056 17.4735 4.82451 16.905 4.82401L6.84099 4.82433Z" fill="#202020"/>
<path d="M9.91065 15.8275C9.53044 15.8275 9.16579 15.6765 8.89694 15.4076C8.62809 15.1388 8.47705 14.7741 8.47705 14.3939V9.7088C8.47704 9.46204 8.54073 9.21946 8.66194 9.00452C8.78316 8.78958 8.9578 8.60957 9.16898 8.48191C9.38015 8.35425 9.6207 8.28325 9.86735 8.2758C10.114 8.26835 10.3584 8.32469 10.5769 8.43936L14.5804 10.5408C14.8022 10.6572 14.9897 10.8297 15.1241 11.0411C15.2585 11.2525 15.3351 11.4955 15.3463 11.7457C15.3576 11.996 15.303 12.2448 15.1881 12.4674C15.0732 12.69 14.902 12.8786 14.6914 13.0144L10.6879 15.5984C10.4563 15.748 10.1864 15.8275 9.91065 15.8275ZM9.91065 9.55552C9.88266 9.55588 9.8553 9.56397 9.83161 9.57888C9.80847 9.59192 9.78932 9.61103 9.77624 9.63415C9.76315 9.65727 9.75663 9.68353 9.75737 9.71008V14.3939C9.75757 14.4214 9.76515 14.4484 9.77932 14.4719C9.79349 14.4955 9.81373 14.5149 9.83793 14.5279C9.86212 14.541 9.88939 14.5474 9.91687 14.5463C9.94436 14.5452 9.97105 14.5368 9.99417 14.5219L13.9977 11.9379C14.0202 11.9234 14.0385 11.9032 14.0508 11.8793C14.0631 11.8555 14.069 11.8288 14.0678 11.802C14.0666 11.7752 14.0584 11.7492 14.044 11.7266C14.0296 11.7039 14.0096 11.6855 13.9859 11.673L9.98201 9.5728C9.95998 9.56089 9.93538 9.55452 9.91033 9.55424L9.91065 9.55552Z" fill="#202020"/>
</svg>
