<svg width="24" height="24" viewBox="0 0 24 24" fill="none" xmlns="http://www.w3.org/2000/svg">
<path d="M20.895 6.885C20.41 6.63201 19.865 6.51645 19.3191 6.55082C18.7731 6.58519 18.247 6.76818 17.7975 7.08L16.5 7.98C16.4316 7.03296 16.0066 6.1471 15.3106 5.50123C14.6146 4.85535 13.6995 4.49753 12.75 4.5H5.25C4.25544 4.5 3.30161 4.89509 2.59835 5.59835C1.89509 6.30161 1.5 7.25544 1.5 8.25V15.75C1.5 16.7446 1.89509 17.6984 2.59835 18.4016C3.30161 19.1049 4.25544 19.5 5.25 19.5H12.75C13.6995 19.5025 14.6146 19.1446 15.3106 18.4988C16.0066 17.8529 16.4316 16.967 16.5 16.02L17.805 16.92C18.2551 17.2282 18.7807 17.4079 19.3253 17.4396C19.8699 17.4714 20.4128 17.3541 20.8957 17.1003C21.3786 16.8465 21.7831 16.4659 22.0658 15.9993C22.3485 15.5328 22.4986 14.998 22.5 14.4525V9.5475C22.5012 8.99943 22.3522 8.46151 22.0693 7.99213C21.7863 7.52275 21.3802 7.13985 20.895 6.885ZM21 14.4525C21.0013 14.7272 20.9271 14.9969 20.7856 15.2323C20.6441 15.4677 20.4407 15.6598 20.1975 15.7875C19.9554 15.9133 19.6837 15.9706 19.4114 15.9535C19.1392 15.9363 18.8768 15.8452 18.6525 15.69L16.1775 13.98C16.0682 13.906 15.9412 13.8622 15.8096 13.853C15.6779 13.8438 15.5461 13.8695 15.4275 13.9275C15.3052 13.9908 15.2027 14.0866 15.1313 14.2044C15.0599 14.3221 15.0222 14.4573 15.0225 14.595V15.75C15.0225 16.3467 14.7854 16.919 14.3635 17.341C13.9415 17.7629 13.3692 18 12.7725 18H5.25C4.65326 18 4.08097 17.7629 3.65901 17.341C3.23705 16.919 3 16.3467 3 15.75V8.25C3 7.65326 3.23705 7.08096 3.65901 6.65901C4.08097 6.23705 4.65326 6 5.25 6H12.75C13.3467 6 13.919 6.23705 14.341 6.65901C14.7629 7.08096 15 7.65326 15 8.25V9.405C14.9997 9.54272 15.0374 9.67786 15.1088 9.7956C15.1802 9.91335 15.2827 10.0091 15.405 10.0725C15.5236 10.1305 15.6554 10.1562 15.7871 10.147C15.9187 10.1378 16.0457 10.094 16.155 10.02L18.63 8.31C18.8603 8.15631 19.1286 8.06936 19.4053 8.05877C19.6819 8.04818 19.9561 8.11436 20.1975 8.25C20.4351 8.37472 20.6349 8.56089 20.776 8.7891C20.9172 9.01732 20.9945 9.27922 21 9.5475V14.4525Z" fill="#202020"/>
</svg>
