<svg width="24" height="24" viewBox="0 0 24 24" fill="none" xmlns="http://www.w3.org/2000/svg">
<path d="M14.0121 19.0099H6.40827C5.67009 19.0093 4.96231 18.7158 4.44034 18.1939C3.91836 17.6719 3.62486 16.9641 3.62427 16.2259V7.77344C3.62486 7.03526 3.91836 6.32748 4.44034 5.80551C4.96231 5.28354 5.67009 4.99003 6.40827 4.98944H14.0121C14.7503 4.99012 15.458 5.28365 15.9799 5.8056C16.5019 6.32756 16.7954 7.03529 16.7961 7.77344V16.2266C16.7953 16.9646 16.5017 17.6722 15.9797 18.194C15.4578 18.7158 14.7502 19.0092 14.0121 19.0099ZM6.40827 6.27008C6.00938 6.27008 5.62683 6.42854 5.34478 6.71059C5.06272 6.99265 4.90427 7.3752 4.90427 7.77408V16.2266C4.90427 16.6254 5.06272 17.008 5.34478 17.2901C5.62683 17.5721 6.00938 17.7306 6.40827 17.7306H14.0121C14.411 17.7306 14.7935 17.5721 15.0756 17.2901C15.3577 17.008 15.5161 16.6254 15.5161 16.2266V7.77344C15.5161 7.37456 15.3577 6.99201 15.0756 6.70995C14.7935 6.4279 14.411 6.26944 14.0121 6.26944L6.40827 6.27008Z" fill="#202020"/>
<path d="M18.7839 15.9594C18.4882 15.9585 18.1986 15.8751 17.9478 15.7184L15.8188 14.4C15.7261 14.3427 15.6496 14.2626 15.5965 14.1674C15.5434 14.0722 15.5155 13.965 15.5154 13.856V9.95872C15.5154 9.85664 15.5398 9.75604 15.5865 9.6653C15.6333 9.57456 15.7011 9.49633 15.7842 9.43712L17.8617 7.95808C18.0995 7.78869 18.3794 7.68806 18.6707 7.66721C18.962 7.64637 19.2534 7.70612 19.5129 7.83992C19.7725 7.97371 19.9902 8.17639 20.1422 8.42572C20.2942 8.67506 20.3746 8.96143 20.3746 9.25344V14.3658C20.3768 14.6495 20.302 14.9285 20.1583 15.1732C20.0145 15.4178 19.8072 15.6189 19.5583 15.7552C19.3219 15.8883 19.0553 15.9586 18.7839 15.9594ZM16.7961 13.5002L18.6201 14.6298C18.6671 14.6589 18.7211 14.675 18.7764 14.6762C18.8317 14.6775 18.8863 14.664 18.9346 14.6371C18.983 14.6102 19.0232 14.5708 19.0513 14.5231C19.0793 14.4754 19.094 14.4211 19.094 14.3658V9.25344C19.094 9.19643 19.0783 9.14053 19.0486 9.09185C19.019 9.04317 18.9765 9.0036 18.9258 8.97749C18.8751 8.95138 18.8182 8.93972 18.7614 8.94381C18.7045 8.94789 18.6499 8.96755 18.6034 9.00064L16.7948 10.2886L16.7961 13.5002ZM12.8492 11.2547C12.4796 11.2547 12.1184 11.1451 11.8111 10.9398C11.5039 10.7345 11.2644 10.4427 11.1229 10.1013C10.9815 9.75986 10.9445 9.38417 11.0166 9.02172C11.0887 8.65927 11.2667 8.32634 11.528 8.06503C11.7893 7.80372 12.1222 7.62576 12.4847 7.55366C12.8471 7.48157 13.2228 7.51857 13.5642 7.65999C13.9057 7.80141 14.1975 8.0409 14.4028 8.34817C14.6081 8.65544 14.7177 9.01669 14.7177 9.38624C14.7172 9.88164 14.5201 10.3566 14.1698 10.7069C13.8195 11.0572 13.3446 11.2542 12.8492 11.2547ZM12.8492 8.79776C12.7328 8.79776 12.619 8.83228 12.5223 8.89694C12.4255 8.9616 12.3501 9.05351 12.3055 9.16104C12.261 9.26857 12.2493 9.3869 12.272 9.50105C12.2947 9.6152 12.3508 9.72006 12.4331 9.80236C12.5154 9.88466 12.6202 9.94071 12.7344 9.96341C12.8485 9.98612 12.9669 9.97447 13.0744 9.92993C13.1819 9.88539 13.2738 9.80996 13.3385 9.71318C13.4032 9.61641 13.4377 9.50263 13.4377 9.38624C13.4375 9.23022 13.3754 9.08064 13.2651 8.97031C13.1548 8.85999 13.0052 8.79793 12.8492 8.79776Z" fill="#202020"/>
</svg>
