<svg width="24" height="24" viewBox="0 0 24 24" fill="none" xmlns="http://www.w3.org/2000/svg">
<path d="M16.4399 20.4557H6.3759C5.46811 20.4547 4.5978 20.0936 3.95589 19.4517C3.31399 18.8098 2.95292 17.9395 2.9519 17.0317V6.96801C2.95292 6.06022 3.31399 5.1899 3.95589 4.548C4.5978 3.90609 5.46811 3.54502 6.3759 3.54401H16.4399C17.3477 3.54502 18.218 3.90609 18.8599 4.548C19.5018 5.1899 19.8629 6.06022 19.8639 6.96801V14.3162C19.8639 14.4859 19.7965 14.6487 19.6765 14.7687C19.5564 14.8887 19.3936 14.9562 19.2239 14.9562C19.0542 14.9562 18.8914 14.8887 18.7714 14.7687C18.6513 14.6487 18.5839 14.4859 18.5839 14.3162V6.96801C18.5834 6.39954 18.3573 5.8545 17.9554 5.45253C17.5534 5.05056 17.0084 4.82451 16.4399 4.82401H6.3759C5.80744 4.82451 5.2624 5.05056 4.86043 5.45253C4.45846 5.8545 4.23241 6.39954 4.2319 6.96801V17.032C4.23241 17.6005 4.45846 18.1455 4.86043 18.5475C5.2624 18.9494 5.80744 19.1755 6.3759 19.176H16.4399C16.6096 19.176 16.7724 19.2434 16.8925 19.3635C17.0125 19.4835 17.0799 19.6463 17.0799 19.816C17.0799 19.9857 17.0125 20.1485 16.8925 20.2686C16.7724 20.3886 16.6096 20.456 16.4399 20.456V20.4557Z" fill="#202020"/>
<path d="M19.3838 20.9367C18.7545 20.9367 18.1394 20.7502 17.6162 20.4006C17.0929 20.0511 16.6851 19.5542 16.4443 18.9729C16.2034 18.3916 16.1404 17.7519 16.2631 17.1347C16.3858 16.5176 16.6888 15.9507 17.1337 15.5057C17.5786 15.0607 18.1455 14.7577 18.7626 14.6349C19.3798 14.5121 20.0195 14.5751 20.6008 14.8159C21.1822 15.0567 21.6791 15.4645 22.0287 15.9877C22.3783 16.5109 22.5649 17.126 22.5649 17.7552C22.5639 18.5986 22.2285 19.4073 21.6321 20.0037C21.0358 20.6001 20.2272 20.9356 19.3838 20.9367ZM19.3838 15.8541C19.0077 15.854 18.64 15.9655 18.3272 16.1744C18.0145 16.3833 17.7707 16.6803 17.6268 17.0277C17.4828 17.3752 17.4452 17.7575 17.5185 18.1264C17.5919 18.4953 17.773 18.8341 18.0389 19.1001C18.3049 19.366 18.6437 19.5471 19.0126 19.6205C19.3814 19.6938 19.7638 19.6561 20.1112 19.5122C20.4587 19.3682 20.7556 19.1245 20.9646 18.8117C21.1735 18.499 21.2849 18.1313 21.2849 17.7552C21.2843 17.2512 21.0838 16.768 20.7274 16.4116C20.371 16.0552 19.8878 15.8547 19.3838 15.8541ZM19.2238 7.89377H3.59239C3.42265 7.89377 3.25987 7.82634 3.13984 7.70632C3.01982 7.58629 2.95239 7.42351 2.95239 7.25377C2.95239 7.08403 3.01982 6.92124 3.13984 6.80122C3.25987 6.6812 3.42265 6.61377 3.59239 6.61377H19.2238C19.3935 6.61377 19.5563 6.6812 19.6763 6.80122C19.7963 6.92124 19.8638 7.08403 19.8638 7.25377C19.8638 7.42351 19.7963 7.58629 19.6763 7.70632C19.5563 7.82634 19.3935 7.89377 19.2238 7.89377Z" fill="#202020"/>
<path d="M7.54088 7.89375C7.37114 7.89375 7.20835 7.82632 7.08833 7.7063C6.96831 7.58628 6.90088 7.42349 6.90088 7.25375V4.18431C6.90088 4.01457 6.96831 3.85179 7.08833 3.73176C7.20835 3.61174 7.37114 3.54431 7.54088 3.54431C7.71062 3.54431 7.8734 3.61174 7.99343 3.73176C8.11345 3.85179 8.18088 4.01457 8.18088 4.18431V7.25375C8.18088 7.42349 8.11345 7.58628 7.99343 7.7063C7.8734 7.82632 7.71062 7.89375 7.54088 7.89375ZM15.1982 7.89375C15.0284 7.89375 14.8656 7.82632 14.7456 7.7063C14.6256 7.58628 14.5582 7.42349 14.5582 7.25375V4.18431C14.5582 4.01457 14.6256 3.85179 14.7456 3.73176C14.8656 3.61174 15.0284 3.54431 15.1982 3.54431C15.3679 3.54431 15.5307 3.61174 15.6507 3.73176C15.7707 3.85179 15.8382 4.01457 15.8382 4.18431V7.25375C15.8382 7.42349 15.7707 7.58628 15.6507 7.7063C15.5307 7.82632 15.3679 7.89375 15.1982 7.89375ZM11.4081 7.89375C11.2383 7.89375 11.0756 7.82632 10.9555 7.7063C10.8355 7.58628 10.7681 7.42349 10.7681 7.25375V4.18431C10.7681 4.01457 10.8355 3.85179 10.9555 3.73176C11.0756 3.61174 11.2383 3.54431 11.4081 3.54431C11.5778 3.54431 11.7406 3.61174 11.8606 3.73176C11.9807 3.85179 12.0481 4.01457 12.0481 4.18431V7.25375C12.0481 7.42349 11.9807 7.58628 11.8606 7.7063C11.7406 7.82632 11.5778 7.89375 11.4081 7.89375ZM19.1591 19.0486C19.0044 19.0487 18.855 18.9925 18.7386 18.8906L18.0273 18.2694C17.8994 18.1578 17.8212 17.9999 17.8097 17.8306C17.7982 17.6612 17.8545 17.4942 17.9662 17.3664C18.0778 17.2385 18.2357 17.1603 18.405 17.1488C18.5744 17.1373 18.7413 17.1936 18.8692 17.3053L19.1009 17.5075L19.7761 16.7427C19.8884 16.6154 20.0466 16.5379 20.216 16.5273C20.3854 16.5167 20.5521 16.5738 20.6794 16.6861C20.8067 16.7984 20.8842 16.9566 20.8948 17.126C20.9055 17.2954 20.8484 17.4621 20.7361 17.5894L19.6404 18.8317C19.5802 18.9 19.5062 18.9547 19.4232 18.9921C19.3402 19.0295 19.2502 19.0488 19.1591 19.0486Z" fill="#202020"/>
</svg>
