<svg width="24" height="24" viewBox="0 0 24 24" fill="none" xmlns="http://www.w3.org/2000/svg">
<path d="M11.2977 17.64C10.9537 17.64 10.6238 17.5034 10.3806 17.2601C10.1374 17.0169 10.0007 16.687 10.0007 16.343V12.4646C10.0008 12.2414 10.0585 12.022 10.1682 11.8275C10.2778 11.6331 10.4358 11.4703 10.6269 11.3548C10.8179 11.2393 11.0355 11.1751 11.2587 11.1683C11.4818 11.1615 11.7029 11.2125 11.9006 11.3162L15.2148 13.056C15.4155 13.1613 15.5851 13.3174 15.7066 13.5087C15.8282 13.7 15.8975 13.9198 15.9077 14.1462C15.9178 14.3726 15.8685 14.5977 15.7645 14.7991C15.6606 15.0005 15.5057 15.1712 15.3153 15.2941L12.0001 17.433C11.7907 17.5679 11.5468 17.6398 11.2977 17.64ZM11.2977 12.4467C11.2945 12.447 11.2915 12.4482 11.2891 12.4502C11.2807 12.455 11.2807 12.4576 11.2807 12.4646V16.343C11.2802 16.3458 11.2802 16.3486 11.2807 16.3514C11.2852 16.3568 11.2917 16.3602 11.2987 16.361C11.3013 16.3602 11.3038 16.359 11.306 16.3574L14.6203 14.2182C14.6263 14.2144 14.6286 14.2131 14.6279 14.2032C14.6273 14.1933 14.6254 14.1923 14.619 14.1891L11.3057 12.4496C11.3032 12.4485 11.3004 12.4479 11.2977 12.448V12.4467Z" fill="#202020"/>
<path d="M17.4721 20.7747H7.40935C6.50151 20.7739 5.63109 20.4129 4.98915 19.7709C4.34721 19.129 3.9862 18.2586 3.98535 17.3507V7.28737C3.9862 6.37953 4.34721 5.50912 4.98915 4.86717C5.63109 4.22523 6.50151 3.86422 7.40935 3.86337H17.4721C18.3799 3.86422 19.2503 4.22523 19.8923 4.86717C20.5342 5.50912 20.8952 6.37953 20.8961 7.28737V17.3514C20.8951 18.2591 20.534 19.1294 19.892 19.7712C19.2501 20.413 18.3798 20.7739 17.4721 20.7747ZM7.40935 5.14369C6.84088 5.1442 6.29584 5.37025 5.89388 5.77222C5.49191 6.17419 5.26586 6.71922 5.26535 7.28769V17.3517C5.26586 17.9202 5.49191 18.4652 5.89388 18.8672C6.29584 19.2691 6.84088 19.4952 7.40935 19.4957H17.4721C18.0405 19.4952 18.5856 19.2691 18.9875 18.8672C19.3895 18.4652 19.6156 17.9202 19.6161 17.3517V7.28737C19.6156 6.7189 19.3895 6.17387 18.9875 5.7719C18.5856 5.36993 18.0405 5.14388 17.4721 5.14337L7.40935 5.14369Z" fill="#202020"/>
<path d="M20.2559 9.53055H4.62584C4.4561 9.53055 4.29331 9.46312 4.17329 9.3431C4.05327 9.22307 3.98584 9.06029 3.98584 8.89055C3.98584 8.72081 4.05327 8.55802 4.17329 8.438C4.29331 8.31798 4.4561 8.25055 4.62584 8.25055H20.2559C20.4257 8.25055 20.5884 8.31798 20.7085 8.438C20.8285 8.55802 20.8959 8.72081 20.8959 8.89055C20.8959 9.06029 20.8285 9.22307 20.7085 9.3431C20.5884 9.46312 20.4257 9.53055 20.2559 9.53055Z" fill="#202020"/>
<path d="M16.9601 9.53056C16.7904 9.53056 16.6276 9.46313 16.5076 9.34311C16.3875 9.22308 16.3201 9.0603 16.3201 8.89056V4.50368C16.3201 4.33394 16.3875 4.17115 16.5076 4.05113C16.6276 3.93111 16.7904 3.86368 16.9601 3.86368C17.1298 3.86368 17.2926 3.93111 17.4127 4.05113C17.5327 4.17115 17.6001 4.33394 17.6001 4.50368V8.89056C17.6001 9.0603 17.5327 9.22308 17.4127 9.34311C17.2926 9.46313 17.1298 9.53056 16.9601 9.53056ZM14.0529 9.53056C13.8832 9.53056 13.7204 9.46313 13.6004 9.34311C13.4803 9.22308 13.4129 9.0603 13.4129 8.89056V4.50368C13.4129 4.33394 13.4803 4.17115 13.6004 4.05113C13.7204 3.93111 13.8832 3.86368 14.0529 3.86368C14.2226 3.86368 14.3854 3.93111 14.5055 4.05113C14.6255 4.17115 14.6929 4.33394 14.6929 4.50368V8.89056C14.6929 9.0603 14.6255 9.22308 14.5055 9.34311C14.3854 9.46313 14.2226 9.53056 14.0529 9.53056ZM11.1444 9.53056C10.9747 9.53056 10.8119 9.46313 10.6919 9.34311C10.5719 9.22308 10.5044 9.0603 10.5044 8.89056V4.50368C10.5044 4.33394 10.5719 4.17115 10.6919 4.05113C10.8119 3.93111 10.9747 3.86368 11.1444 3.86368C11.3142 3.86368 11.477 3.93111 11.597 4.05113C11.717 4.17115 11.7844 4.33394 11.7844 4.50368V8.89056C11.7844 9.0603 11.717 9.22308 11.597 9.34311C11.477 9.46313 11.3142 9.53056 11.1444 9.53056ZM8.23595 9.53056C8.06621 9.53056 7.90342 9.46313 7.7834 9.34311C7.66338 9.22308 7.59595 9.0603 7.59595 8.89056V4.50368C7.59595 4.33394 7.66338 4.17115 7.7834 4.05113C7.90342 3.93111 8.06621 3.86368 8.23595 3.86368C8.40569 3.86368 8.56847 3.93111 8.6885 4.05113C8.80852 4.17115 8.87595 4.33394 8.87595 4.50368V8.89056C8.87595 9.0603 8.80852 9.22308 8.6885 9.34311C8.56847 9.46313 8.40569 9.53056 8.23595 9.53056Z" fill="#202020"/>
</svg>
