<svg width="24" height="24" viewBox="0 0 24 24" fill="none" xmlns="http://www.w3.org/2000/svg">
<path d="M13.7004 18.6343C13.4978 18.6343 13.2967 18.5998 13.1058 18.5322L9.32661 17.1959C8.7345 16.9862 8.11092 16.8791 7.48277 16.8794H6.28053C5.60665 16.8786 4.96058 16.6106 4.48408 16.1341C4.00757 15.6576 3.73953 15.0115 3.73877 14.3376V9.49825C3.73962 8.82443 4.00769 8.17844 4.48419 7.70201C4.96069 7.22557 5.6067 6.95757 6.28053 6.95681H8.15253C8.61951 6.95614 9.08071 6.85348 9.50389 6.65601L12.8341 5.09441C13.1047 4.96745 13.4028 4.91046 13.7011 4.92867C13.9994 4.94689 14.2883 5.03972 14.5414 5.19866C14.7945 5.35759 15.0036 5.57754 15.1496 5.83833C15.2956 6.09911 15.3737 6.39237 15.3768 6.69121L15.4856 16.8304C15.4883 17.0665 15.444 17.3007 15.3555 17.5196C15.2669 17.7384 15.1358 17.9375 14.9698 18.1053C14.8037 18.2731 14.606 18.4063 14.3881 18.4972C14.1702 18.588 13.9364 18.6347 13.7004 18.6346V18.6343ZM6.28053 8.23681C5.94605 8.23715 5.62536 8.37015 5.38882 8.60663C5.15227 8.84312 5.01919 9.16377 5.01877 9.49825V14.3376C5.01919 14.6721 5.15226 14.9928 5.3888 15.2293C5.62533 15.4659 5.94602 15.5989 6.28053 15.5994H7.48277C8.25678 15.5989 9.02517 15.7307 9.75477 15.9891L13.5336 17.3255C13.6101 17.3522 13.6918 17.3603 13.7719 17.3488C13.8521 17.3374 13.9283 17.3069 13.9942 17.2598C14.0601 17.2128 14.1137 17.1506 14.1505 17.0784C14.1873 17.0063 14.2062 16.9264 14.2056 16.8455L14.0968 6.70625C14.0959 6.62174 14.0737 6.53882 14.0324 6.46509C13.9911 6.39135 13.9319 6.32916 13.8604 6.28421C13.7888 6.23925 13.7071 6.21297 13.6227 6.20776C13.5384 6.20256 13.454 6.2186 13.3775 6.25441L10.0479 7.81441C9.4547 8.09178 8.808 8.23596 8.15317 8.23681H6.28053ZM20.9775 14.7143C20.8168 14.7145 20.6619 14.654 20.5439 14.545L16.1077 10.4573C16.0454 10.4005 15.9948 10.3319 15.959 10.2555C15.9233 10.1792 15.9029 10.0964 15.8992 10.0122C15.8955 9.92789 15.9085 9.84371 15.9375 9.76447C15.9664 9.68524 16.0107 9.6125 16.0679 9.55046C16.125 9.48841 16.1939 9.43827 16.2705 9.40293C16.3471 9.36759 16.4299 9.34774 16.5142 9.34453C16.5985 9.34131 16.6826 9.35479 16.7617 9.3842C16.8407 9.4136 16.9132 9.45834 16.9749 9.51585L21.4114 13.6035C21.5062 13.6908 21.5724 13.8047 21.6014 13.9302C21.6304 14.0558 21.6208 14.1871 21.5739 14.3071C21.527 14.4271 21.445 14.5302 21.3386 14.6028C21.2322 14.6755 21.1063 14.7143 20.9775 14.7143Z" fill="#202020"/>
<path d="M16.5588 14.7325C16.4304 14.7325 16.3049 14.694 16.1987 14.6218C16.0925 14.5496 16.0105 14.4472 15.9633 14.3278C15.9161 14.2084 15.9059 14.0775 15.934 13.9522C15.9621 13.8269 16.0273 13.713 16.121 13.6253L20.5236 9.50111C20.648 9.38848 20.8117 9.32925 20.9794 9.33618C21.1471 9.3431 21.3054 9.41563 21.4201 9.53813C21.5349 9.66063 21.5969 9.8233 21.5928 9.99109C21.5888 10.1589 21.519 10.3184 21.3985 10.4352L16.9962 14.56C16.8776 14.6709 16.7212 14.7326 16.5588 14.7325ZM7.39879 16.272C7.22905 16.272 7.06626 16.2046 6.94624 16.0845C6.82622 15.9645 6.75879 15.8017 6.75879 15.632V7.59679C6.75879 7.42705 6.82622 7.26426 6.94624 7.14424C7.06626 7.02422 7.22905 6.95679 7.39879 6.95679C7.56853 6.95679 7.73131 7.02422 7.85134 7.14424C7.97136 7.26426 8.03879 7.42705 8.03879 7.59679V15.632C8.03879 15.8017 7.97136 15.9645 7.85134 16.0845C7.73131 16.2046 7.56853 16.272 7.39879 16.272Z" fill="#202020"/>
</svg>
