<svg width="24" height="24" viewBox="0 0 24 24" fill="none" xmlns="http://www.w3.org/2000/svg">
<path d="M17.2399 18.6342C17.0374 18.6343 16.8363 18.5998 16.6454 18.5322L12.8662 17.1958C12.274 16.9861 11.6505 16.8791 11.0223 16.8794H9.82008C9.1462 16.8786 8.50013 16.6106 8.02363 16.1341C7.54712 15.6575 7.27908 15.0115 7.27832 14.3376V9.49824C7.27917 8.82441 7.54724 8.17843 8.02374 7.70199C8.50024 7.22555 9.14625 6.95756 9.82008 6.9568H11.6921C12.1591 6.95612 12.6203 6.85346 13.0434 6.656L16.3737 5.0944C16.6442 4.96743 16.9423 4.91044 17.2406 4.92866C17.5389 4.94687 17.8279 5.0397 18.081 5.19864C18.3341 5.35758 18.5432 5.57753 18.6891 5.83831C18.8351 6.09909 18.9133 6.39236 18.9164 6.6912L19.0252 16.8304C19.0278 17.0665 18.9836 17.3007 18.895 17.5195C18.8065 17.7384 18.6754 17.9375 18.5093 18.1053C18.3433 18.2731 18.1456 18.4063 17.9277 18.4971C17.7098 18.588 17.476 18.6347 17.2399 18.6346V18.6342ZM9.82008 8.2368C9.4856 8.23714 9.16491 8.37014 8.92837 8.60662C8.69183 8.8431 8.55874 9.16376 8.55832 9.49824V14.3376C8.55874 14.6721 8.69182 14.9928 8.92835 15.2293C9.16488 15.4659 9.48557 15.5989 9.82008 15.5994H11.0223C11.7963 15.5989 12.5647 15.7307 13.2943 15.9891L17.0719 17.3254C17.1483 17.3522 17.2301 17.3602 17.3102 17.3488C17.3904 17.3374 17.4666 17.3069 17.5325 17.2598C17.5984 17.2128 17.652 17.1505 17.6888 17.0784C17.7256 17.0063 17.7445 16.9264 17.7439 16.8454L17.6351 6.70624C17.6341 6.62172 17.612 6.5388 17.5707 6.46507C17.5294 6.39134 17.4702 6.32915 17.3986 6.28419C17.3271 6.23924 17.2454 6.21295 17.161 6.20775C17.0766 6.20254 16.9923 6.21858 16.9158 6.2544L13.5868 7.8144C12.9936 8.09173 12.3469 8.2359 11.6921 8.2368H9.82008Z" fill="#202020"/>
<path d="M11.0128 16.6576C10.8431 16.6576 10.6803 16.5902 10.5603 16.4701C10.4402 16.3501 10.3728 16.1873 10.3728 16.0176V7.9824C10.3728 7.81266 10.4402 7.64987 10.5603 7.52985C10.6803 7.40983 10.8431 7.3424 11.0128 7.3424C11.1825 7.3424 11.3453 7.40983 11.4654 7.52985C11.5854 7.64987 11.6528 7.81266 11.6528 7.9824V16.0176C11.6528 16.1873 11.5854 16.3501 11.4654 16.4701C11.3453 16.5902 11.1825 16.6576 11.0128 16.6576Z" fill="#202020"/>
</svg>
