<svg width="24" height="24" viewBox="0 0 24 24" fill="none" xmlns="http://www.w3.org/2000/svg">
<path d="M14.9209 18.6343C14.7184 18.6343 14.5173 18.5998 14.3264 18.5322L10.5475 17.1959C9.95546 16.9862 9.332 16.8792 8.70396 16.8794H7.50108C6.82731 16.8784 6.18141 16.6103 5.70504 16.1338C5.22867 15.6574 4.96072 15.0114 4.95996 14.3376V9.49825C4.96072 8.82446 5.22873 8.17847 5.70517 7.70202C6.18162 7.22558 6.8276 6.95757 7.5014 6.95681H9.3734C9.84028 6.95609 10.3014 6.85343 10.7244 6.65601L14.0547 5.09441C14.3252 4.96745 14.6233 4.91046 14.9216 4.92867C15.2199 4.94689 15.5089 5.03972 15.762 5.19866C16.0151 5.35759 16.2242 5.57754 16.3701 5.83833C16.5161 6.09911 16.5943 6.39237 16.5974 6.69121L16.7062 16.8304C16.7087 17.0665 16.6644 17.3007 16.5758 17.5195C16.4873 17.7383 16.3562 17.9373 16.1901 18.1051C16.0241 18.2729 15.8264 18.4061 15.6086 18.497C15.3907 18.5879 15.157 18.6346 14.9209 18.6346V18.6343ZM7.50108 8.23681C7.16669 8.23724 6.84611 8.37028 6.60969 8.60677C6.37327 8.84325 6.2403 9.16386 6.23996 9.49825V14.3376C6.2403 14.6721 6.3733 14.9928 6.60978 15.2293C6.84627 15.4659 7.16692 15.5989 7.5014 15.5994H8.70396C9.47743 15.5991 10.2453 15.7309 10.9744 15.9891L14.752 17.3255C14.8285 17.3526 14.9104 17.3608 14.9907 17.3496C15.0711 17.3383 15.1476 17.3078 15.2137 17.2607C15.2797 17.2136 15.3335 17.1513 15.3704 17.079C15.4073 17.0067 15.4262 16.9266 15.4256 16.8455L15.3164 6.70625C15.3155 6.62171 15.2934 6.53874 15.2521 6.46496C15.2109 6.39118 15.1517 6.32895 15.0801 6.28398C15.0085 6.23901 14.9268 6.21273 14.8424 6.20757C14.758 6.2024 14.6736 6.21851 14.5971 6.25441L11.2678 7.81441C10.6746 8.09178 10.0279 8.23596 9.37308 8.23681H7.50108ZM17.7811 15.5943C17.6624 15.594 17.5461 15.5606 17.4452 15.498C17.3443 15.4354 17.2628 15.346 17.2099 15.2398C17.1569 15.1335 17.1346 15.0146 17.1453 14.8964C17.156 14.7781 17.1994 14.6652 17.2707 14.5703C17.6572 14.0583 18.3014 12.9757 18.2713 11.4899C18.2432 10.1002 17.6313 9.08993 17.2707 8.60993C17.1684 8.47444 17.1242 8.30387 17.1477 8.13575C17.1711 7.96762 17.2605 7.81572 17.396 7.71345C17.5315 7.61119 17.702 7.56693 17.8701 7.59043C18.0383 7.61392 18.1902 7.70324 18.2924 7.83873C18.7475 8.44161 19.5158 9.71393 19.551 11.464C19.5888 13.3351 18.7788 14.696 18.2928 15.3408C18.2329 15.4198 18.1555 15.4838 18.0668 15.5278C17.978 15.5717 17.8802 15.5945 17.7811 15.5943ZM20.2771 16.656C20.1649 16.6559 20.0548 16.6263 19.9577 16.5703C19.8606 16.5142 19.7799 16.4336 19.7237 16.3365C19.6676 16.2395 19.6379 16.1294 19.6377 16.0172C19.6375 15.9051 19.6667 15.7949 19.7225 15.6976C20.126 14.9933 20.8 13.504 20.768 11.4499C20.7385 9.52993 20.1008 8.13793 19.7235 7.48001C19.6485 7.33369 19.6326 7.1641 19.6793 7.00642C19.7259 6.84874 19.8315 6.71507 19.9741 6.63312C20.1166 6.55118 20.2853 6.52726 20.445 6.56631C20.6047 6.60537 20.7433 6.70441 20.832 6.84289C21.2707 7.60801 22.0121 9.22145 22.046 11.4304C22.0832 13.792 21.3017 15.5162 20.832 16.3344C20.7759 16.4321 20.6951 16.5133 20.5977 16.5697C20.5003 16.6262 20.3897 16.656 20.2771 16.656Z" fill="#202020"/>
<path d="M8.69371 16.6576C8.52397 16.6576 8.36119 16.5902 8.24116 16.4702C8.12114 16.3501 8.05371 16.1873 8.05371 16.0176V7.98241C8.05371 7.81267 8.12114 7.64988 8.24116 7.52986C8.36119 7.40984 8.52397 7.34241 8.69371 7.34241C8.86345 7.34241 9.02624 7.40984 9.14626 7.52986C9.26628 7.64988 9.33371 7.81267 9.33371 7.98241V16.0176C9.33371 16.1873 9.26628 16.3501 9.14626 16.4702C9.02624 16.5902 8.86345 16.6576 8.69371 16.6576Z" fill="#202020"/>
</svg>
