<svg width="24" height="24" viewBox="0 0 24 24" fill="none" xmlns="http://www.w3.org/2000/svg">
<path d="M5.31208 20.8291C5.19445 20.829 5.07912 20.7965 4.97876 20.7351C4.8784 20.6738 4.79689 20.586 4.74319 20.4813C4.68949 20.3766 4.66567 20.2592 4.67435 20.1419C4.68303 20.0246 4.72388 19.9119 4.7924 19.8163L16.4481 3.56288C16.4971 3.49457 16.559 3.43658 16.6305 3.39222C16.7019 3.34786 16.7813 3.31801 16.8643 3.30435C16.9472 3.2907 17.032 3.29352 17.1139 3.31265C17.1958 3.33177 17.273 3.36684 17.3414 3.41584C17.4097 3.46484 17.4677 3.52681 17.512 3.59822C17.5564 3.66963 17.5862 3.74908 17.5999 3.83202C17.6135 3.91497 17.6107 3.9998 17.5916 4.08166C17.5725 4.16352 17.5374 4.24081 17.4884 4.30912L5.834 20.5622C5.77455 20.6451 5.69617 20.7125 5.60539 20.7589C5.5146 20.8054 5.41404 20.8294 5.31208 20.8291Z" fill="#202020"/>
<path d="M15.2293 18.6342C15.0268 18.6343 14.8257 18.5997 14.6348 18.5322L10.8559 17.1958C10.2638 16.9861 9.64021 16.8791 9.01207 16.8794H7.80951C7.13568 16.8785 6.4897 16.6104 6.01326 16.1339C5.53682 15.6574 5.26883 15.0114 5.26807 14.3376V9.49824C5.26883 8.82444 5.53683 8.17846 6.01328 7.70201C6.48973 7.22556 7.13571 6.95756 7.80951 6.9568H9.68183C10.1488 6.95612 10.61 6.85346 11.0332 6.656L14.3631 5.0944C14.6337 4.96743 14.9317 4.91044 15.23 4.92866C15.5283 4.94687 15.8173 5.0397 16.0704 5.19864C16.3235 5.35758 16.5326 5.57753 16.6786 5.83831C16.8245 6.09909 16.9027 6.39236 16.9058 6.6912L17.0149 16.8304C17.0176 17.0665 16.9733 17.3008 16.8847 17.5196C16.7962 17.7385 16.665 17.9376 16.4989 18.1054C16.3329 18.2732 16.1351 18.4064 15.9172 18.4972C15.6992 18.5881 15.4655 18.6347 15.2293 18.6346V18.6342ZM7.80951 8.2368C7.47508 8.23722 7.15447 8.37026 6.918 8.60673C6.68153 8.84321 6.54849 9.16381 6.54807 9.49824V14.3376C6.54841 14.6721 6.6814 14.9928 6.91789 15.2293C7.15437 15.4659 7.47503 15.5989 7.80951 15.5994H9.01207C9.78607 15.5989 10.5545 15.7307 11.2841 15.9891L15.0629 17.3254C15.1394 17.3522 15.2211 17.3602 15.3012 17.3488C15.3814 17.3374 15.4576 17.3069 15.5235 17.2598C15.5894 17.2128 15.643 17.1505 15.6798 17.0784C15.7166 17.0063 15.7355 16.9264 15.7349 16.8454L15.6261 6.70624C15.6252 6.62172 15.603 6.5388 15.5617 6.46507C15.5204 6.39134 15.4612 6.32915 15.3897 6.28419C15.3181 6.23924 15.2364 6.21295 15.152 6.20775C15.0677 6.20254 14.9833 6.21858 14.9068 6.2544L11.5765 7.8144C10.9833 8.09173 10.3367 8.2359 9.68183 8.2368H7.80951ZM18.0898 15.5942C17.971 15.5942 17.8545 15.5611 17.7534 15.4987C17.6523 15.4362 17.5705 15.3468 17.5174 15.2405C17.4642 15.1341 17.4417 15.0151 17.4524 14.8968C17.4631 14.7784 17.5065 14.6653 17.5778 14.5702C17.9644 14.0582 18.6085 12.9757 18.5785 11.4899C18.5503 10.1005 17.9385 9.08992 17.5781 8.60992C17.4759 8.47442 17.4316 8.30385 17.4551 8.13573C17.4786 7.96761 17.5679 7.81571 17.7034 7.71344C17.8389 7.61117 18.0095 7.56692 18.1776 7.59041C18.3457 7.61391 18.4976 7.70322 18.5999 7.83872C19.0546 8.4416 19.8229 9.71392 19.8581 11.464C19.8959 13.335 19.0863 14.696 18.5999 15.3408C18.5402 15.4196 18.4631 15.4834 18.3746 15.5274C18.2861 15.5714 18.1886 15.5942 18.0898 15.5942ZM20.5855 16.656C20.4735 16.6557 20.3634 16.626 20.2665 16.5699C20.1695 16.5138 20.0889 16.4331 20.0329 16.3361C19.9768 16.2391 19.9473 16.129 19.9471 16.017C19.9469 15.9049 19.9762 15.7948 20.0319 15.6976C20.4357 14.9936 21.1081 13.505 21.0767 11.4499C21.0473 9.52992 20.4095 8.13792 20.0319 7.48C19.9474 7.33275 19.9249 7.15797 19.9693 6.99411C20.0136 6.83025 20.1213 6.69072 20.2685 6.60624C20.4158 6.52175 20.5906 6.49922 20.7544 6.5436C20.9183 6.58797 21.0578 6.69563 21.1423 6.84288C21.581 7.608 22.3225 9.22144 22.3564 11.4304C22.3929 13.791 21.6114 15.5162 21.1423 16.3344C21.0861 16.4324 21.005 16.5137 20.9072 16.5702C20.8094 16.6267 20.6984 16.6563 20.5855 16.656Z" fill="#202020"/>
<path d="M9.0023 16.6576C8.83257 16.6576 8.66978 16.5902 8.54976 16.4701C8.42973 16.3501 8.3623 16.1873 8.3623 16.0176V7.9824C8.3623 7.81266 8.42973 7.64987 8.54976 7.52985C8.66978 7.40983 8.83257 7.3424 9.0023 7.3424C9.17204 7.3424 9.33483 7.40983 9.45485 7.52985C9.57488 7.64987 9.6423 7.81266 9.6423 7.9824V16.0176C9.6423 16.1873 9.57488 16.3501 9.45485 16.4701C9.33483 16.5902 9.17204 16.6576 9.0023 16.6576Z" fill="#202020"/>
</svg>
