<svg width="24" height="24" viewBox="0 0 24 24" fill="none" xmlns="http://www.w3.org/2000/svg">
<path d="M13.5895 18.6342C13.3869 18.6343 13.1857 18.5997 12.9946 18.5322L9.21609 17.1958C8.62398 16.9861 8.0004 16.8791 7.37225 16.8794H6.16969C5.49581 16.8786 4.84974 16.6106 4.37324 16.1341C3.89673 15.6575 3.62869 15.0115 3.62793 14.3376V9.49824C3.62878 8.82441 3.89685 8.17843 4.37335 7.70199C4.84985 7.22555 5.49586 6.95756 6.16969 6.9568H8.04169C8.50867 6.95612 8.96987 6.85346 9.39305 6.656L12.7233 5.0944C12.9938 4.96743 13.2919 4.91044 13.5902 4.92866C13.8885 4.94687 14.1775 5.0397 14.4306 5.19864C14.6837 5.35758 14.8928 5.57753 15.0388 5.83831C15.1847 6.09909 15.2629 6.39236 15.266 6.6912L15.3748 16.8304C15.3774 17.0665 15.3332 17.3007 15.2446 17.5195C15.1561 17.7384 15.025 17.9375 14.8589 18.1053C14.6929 18.2731 14.4952 18.4063 14.2773 18.4971C14.0594 18.588 13.8256 18.6347 13.5895 18.6346V18.6342ZM6.16969 8.2368C5.83521 8.23714 5.51452 8.37014 5.27798 8.60662C5.04143 8.8431 4.90835 9.16376 4.90793 9.49824V14.3376C4.90835 14.6721 5.04142 14.9928 5.27796 15.2293C5.51449 15.4659 5.83518 15.5989 6.16969 15.5994H7.37193C8.14594 15.5989 8.91433 15.7307 9.64393 15.9891L13.4228 17.3254C13.4992 17.3522 13.5809 17.3602 13.6611 17.3488C13.7412 17.3374 13.8175 17.3069 13.8834 17.2598C13.9492 17.2128 14.0028 17.1505 14.0396 17.0784C14.0764 17.0063 14.0954 16.9264 14.0948 16.8454L13.986 6.70624C13.985 6.62172 13.9629 6.5388 13.9216 6.46507C13.8802 6.39134 13.8211 6.32915 13.7495 6.28419C13.6779 6.23924 13.5962 6.21295 13.5119 6.20775C13.4275 6.20254 13.3432 6.21858 13.2667 6.2544L9.93641 7.8144C9.34321 8.09173 8.69651 8.2359 8.04169 8.2368H6.16969Z" fill="#202020"/>
<path d="M7.28771 16.272C7.11797 16.272 6.95518 16.2046 6.83516 16.0846C6.71513 15.9645 6.64771 15.8017 6.64771 15.632V7.5968C6.64771 7.42706 6.71513 7.26428 6.83516 7.14425C6.95518 7.02423 7.11797 6.9568 7.28771 6.9568C7.45744 6.9568 7.62023 7.02423 7.74025 7.14425C7.86028 7.26428 7.92771 7.42706 7.92771 7.5968V15.632C7.92771 15.8017 7.86028 15.9645 7.74025 16.0846C7.62023 16.2046 7.45744 16.272 7.28771 16.272ZM20.128 12.256H16.944C16.7743 12.256 16.6115 12.1886 16.4915 12.0686C16.3715 11.9485 16.304 11.7857 16.304 11.616C16.304 11.4463 16.3715 11.2835 16.4915 11.1635C16.6115 11.0434 16.7743 10.976 16.944 10.976H20.128C20.2978 10.976 20.4606 11.0434 20.5806 11.1635C20.7006 11.2835 20.768 11.4463 20.768 11.616C20.768 11.7857 20.7006 11.9485 20.5806 12.0686C20.4606 12.1886 20.2978 12.256 20.128 12.256Z" fill="#202020"/>
<path d="M18.5362 13.8467C18.3665 13.8467 18.2037 13.7793 18.0837 13.6593C17.9637 13.5392 17.8962 13.3765 17.8962 13.2067V10.0218C17.8962 9.85202 17.9637 9.68924 18.0837 9.56921C18.2037 9.44919 18.3665 9.38176 18.5362 9.38176C18.706 9.38176 18.8688 9.44919 18.9888 9.56921C19.1088 9.68924 19.1762 9.85202 19.1762 10.0218V13.2067C19.1762 13.3765 19.1088 13.5392 18.9888 13.6593C18.8688 13.7793 18.706 13.8467 18.5362 13.8467Z" fill="#202020"/>
</svg>
