<svg width="24" height="24" viewBox="0 0 24 24" fill="none" xmlns="http://www.w3.org/2000/svg">
<path d="M5.37598 21.0957C4.70803 21.0959 4.055 20.8981 3.4995 20.5272C2.94399 20.1563 2.51096 19.629 2.25517 19.0119C1.99938 18.3949 1.93232 17.7159 2.06247 17.0607C2.19263 16.4056 2.51415 15.8037 2.98638 15.3313C3.4586 14.8589 4.06032 14.5372 4.71542 14.4067C5.37052 14.2763 6.04958 14.3431 6.66671 14.5987C7.28385 14.8543 7.81133 15.2871 8.18245 15.8425C8.55358 16.3978 8.75166 17.0508 8.75166 17.7187C8.75065 18.6138 8.39471 19.472 7.76191 20.105C7.1291 20.7381 6.27107 21.0943 5.37598 21.0957ZM5.37598 15.6237C4.96122 15.6236 4.55575 15.7466 4.21085 15.977C3.86596 16.2073 3.59714 16.5348 3.43839 16.918C3.27963 17.3012 3.23808 17.7229 3.31898 18.1297C3.39988 18.5365 3.5996 18.9101 3.89289 19.2034C4.18617 19.4967 4.55985 19.6964 4.96665 19.7773C5.37345 19.8582 5.7951 19.8167 6.17828 19.6579C6.56147 19.4992 6.88896 19.2303 7.11936 18.8855C7.34975 18.5406 7.47269 18.1351 7.47262 17.7203C7.47237 17.1642 7.25144 16.6309 6.85835 16.2375C6.46525 15.8441 5.93212 15.6228 5.37598 15.6221V15.6237Z" fill="#202020"/>
<path d="M4.91007 19.0371C4.80917 19.0371 4.7097 19.0132 4.61977 18.9675C4.52985 18.9217 4.45202 18.8553 4.39263 18.7737L3.83551 18.0077C3.73909 17.8703 3.70049 17.7005 3.72805 17.5349C3.7556 17.3694 3.8471 17.2212 3.98283 17.1225C4.11856 17.0237 4.28765 16.9822 4.45367 17.007C4.61969 17.0317 4.76934 17.1207 4.87039 17.2547L5.01375 17.4515L6.03775 16.5472C6.16506 16.4348 6.33179 16.3776 6.50126 16.3882C6.67073 16.3987 6.82907 16.4762 6.94143 16.6035C7.0538 16.7308 7.11099 16.8975 7.10043 17.067C7.08987 17.2365 7.01242 17.3948 6.88511 17.5072L5.33375 18.8768C5.2168 18.9801 5.06612 19.0371 4.91007 19.0371ZM17.8816 18.368H9.79199C9.62226 18.368 9.45947 18.3006 9.33945 18.1805C9.21942 18.0605 9.15199 17.8977 9.15199 17.728C9.15199 17.5582 9.21942 17.3955 9.33945 17.2754C9.45947 17.1554 9.62226 17.088 9.79199 17.088H17.8816C18.2701 17.0875 18.6426 16.9329 18.9174 16.6582C19.1921 16.3834 19.3467 16.0109 19.3472 15.6224V8.8355C19.3467 8.44696 19.1921 8.07447 18.9174 7.79973C18.6426 7.52499 18.2701 7.37041 17.8816 7.3699H7.54783C7.15929 7.37041 6.7868 7.52499 6.51206 7.79973C6.23732 8.07447 6.08274 8.44696 6.08223 8.8355V13.3843C6.08223 13.554 6.01481 13.7168 5.89478 13.8369C5.77476 13.9569 5.61197 14.0243 5.44223 14.0243C5.2725 14.0243 5.10971 13.9569 4.98969 13.8369C4.86966 13.7168 4.80223 13.554 4.80223 13.3843V8.8355C4.80308 8.10759 5.09262 7.40972 5.60734 6.89501C6.12205 6.38029 6.81992 6.09075 7.54783 6.0899H17.8816C18.6095 6.09075 19.3074 6.38029 19.8221 6.89501C20.3368 7.40972 20.6263 8.10759 20.6272 8.8355V15.6217C20.6265 16.3498 20.337 17.0478 19.8223 17.5627C19.3076 18.0775 18.6096 18.3671 17.8816 18.368Z" fill="#202020"/>
<path d="M16.1354 7.36993C15.9656 7.36993 15.8028 7.3025 15.6828 7.18248C15.5628 7.06245 15.4954 6.89967 15.4954 6.72993V5.37409C15.4954 4.71809 14.8163 4.18433 13.9818 4.18433H11.9546C11.1197 4.18433 10.4406 4.71809 10.4406 5.37409V6.72993C10.4406 6.89967 10.3732 7.06245 10.2532 7.18248C10.1332 7.3025 9.97038 7.36993 9.80064 7.36993C9.63091 7.36993 9.46812 7.3025 9.3481 7.18248C9.22807 7.06245 9.16064 6.89967 9.16064 6.72993V5.37409C9.16064 4.01217 10.4141 2.90433 11.9546 2.90433H13.9818C15.5222 2.90433 16.7754 4.01217 16.7754 5.37409V6.72993C16.7754 6.89967 16.7079 7.06245 16.5879 7.18248C16.4679 7.3025 16.3051 7.36993 16.1354 7.36993ZM19.9872 14.4083H18.048C17.6675 14.4079 17.3027 14.2566 17.0336 13.9875C16.7646 13.7184 16.6132 13.3536 16.6128 12.9731V12.0922C16.613 11.7115 16.7642 11.3464 17.0333 11.0772C17.3024 10.8079 17.6673 10.6564 18.048 10.656H19.9872C20.1569 10.656 20.3197 10.7234 20.4398 10.8435C20.5598 10.9635 20.6272 11.1263 20.6272 11.296C20.6272 11.4657 20.5598 11.6285 20.4398 11.7486C20.3197 11.8686 20.1569 11.936 19.9872 11.936H18.048C18.0068 11.936 17.9674 11.9524 17.9383 11.9815C17.9092 12.0106 17.8928 12.05 17.8928 12.0912V12.9722C17.8928 13.0133 17.9092 13.0528 17.9383 13.0819C17.9674 13.111 18.0068 13.1274 18.048 13.1274H19.9872C20.1569 13.1274 20.3197 13.1948 20.4398 13.3148C20.5598 13.4348 20.6272 13.5976 20.6272 13.7674C20.6272 13.9371 20.5598 14.0999 20.4398 14.2199C20.3197 14.3399 20.1569 14.4074 19.9872 14.4074V14.4083Z" fill="#202020"/>
</svg>
