<svg width="24" height="24" viewBox="0 0 24 24" fill="none" xmlns="http://www.w3.org/2000/svg">
<path d="M17.6793 18.5533H8.52734C8.3576 18.5533 8.19481 18.4859 8.07479 18.3658C7.95476 18.2458 7.88734 18.083 7.88734 17.9133C7.88734 17.7435 7.95476 17.5808 8.07479 17.4607C8.19481 17.3407 8.3576 17.2733 8.52734 17.2733H17.6793C18.0678 17.2728 18.4402 17.1182 18.7149 16.8436C18.9896 16.5689 19.1441 16.1965 19.1446 15.808V9.02145C19.1442 8.63293 18.9897 8.26045 18.715 7.98569C18.4403 7.71094 18.0679 7.55636 17.6793 7.55585H7.34526C6.95674 7.55636 6.58429 7.71094 6.30959 7.98569C6.0349 8.26045 5.8804 8.63293 5.87998 9.02145V14.4403C5.87998 14.6101 5.81255 14.7729 5.69252 14.8929C5.5725 15.0129 5.40971 15.0803 5.23998 15.0803C5.07024 15.0803 4.90745 15.0129 4.78743 14.8929C4.6674 14.7729 4.59998 14.6101 4.59998 14.4403V9.02145C4.60082 8.29359 4.89032 7.59577 5.40497 7.08106C5.91961 6.56636 6.61739 6.27678 7.34526 6.27585H17.6793C18.4072 6.2767 19.1051 6.56625 19.6197 7.08097C20.1344 7.5957 20.4239 8.29356 20.4246 9.02145V15.808C20.4238 16.5358 20.1343 17.2336 19.6196 17.7483C19.1049 18.2629 18.4072 18.5524 17.6793 18.5533Z" fill="#202020"/>
<path d="M5.24803 21.28C4.58015 21.2799 3.92729 21.0818 3.37202 20.7107C2.81675 20.3396 2.38401 19.8121 2.12852 19.195C1.87304 18.5779 1.80629 17.899 1.93672 17.2439C2.06715 16.5889 2.38889 15.9873 2.86127 15.5152C3.33364 15.043 3.93542 14.7215 4.5905 14.5914C5.24558 14.4613 5.92453 14.5284 6.54149 14.7842C7.15845 15.0399 7.6857 15.4729 8.05656 16.0284C8.42743 16.5838 8.62524 17.2368 8.62499 17.9046C8.62363 18.7997 8.26736 19.6577 7.6343 20.2905C7.00125 20.9232 6.14309 21.2791 5.24803 21.28ZM5.24803 15.808C4.83335 15.808 4.42799 15.931 4.08319 16.1613C3.7384 16.3917 3.46967 16.7192 3.31098 17.1023C3.15229 17.4854 3.11077 17.907 3.19167 18.3137C3.27257 18.7204 3.47226 19.094 3.76548 19.3872C4.0587 19.6804 4.43228 19.8801 4.83899 19.961C5.2457 20.0419 5.66726 20.0004 6.05037 19.8417C6.43349 19.683 6.76094 19.4143 6.99132 19.0695C7.2217 18.7247 7.34467 18.3193 7.34467 17.9046C7.34399 17.3488 7.12288 16.8159 6.72983 16.4228C6.33678 16.0298 5.80388 15.8087 5.24803 15.808ZM15.9331 7.55584C15.7634 7.55584 15.6006 7.48841 15.4806 7.36839C15.3606 7.24837 15.2931 7.08558 15.2931 6.91584V5.56C15.2931 4.904 14.6141 4.37024 13.7792 4.37024H11.752C10.9175 4.37024 10.2384 4.904 10.2384 5.56V6.91584C10.2384 7.08558 10.171 7.24837 10.051 7.36839C9.93095 7.48841 9.76816 7.55584 9.59843 7.55584C9.42869 7.55584 9.2659 7.48841 9.14588 7.36839C9.02585 7.24837 8.95843 7.08558 8.95843 6.91584V5.56C8.95843 4.19808 10.2115 3.09024 11.752 3.09024H13.7792C15.32 3.09024 16.5731 4.19808 16.5731 5.56V6.91584C16.5731 6.99989 16.5566 7.08311 16.5244 7.16076C16.4923 7.23841 16.4451 7.30896 16.3857 7.36839C16.3263 7.42782 16.2557 7.47496 16.1781 7.50712C16.1004 7.53929 16.0172 7.55584 15.9331 7.55584ZM19.7847 14.5942H18.3127C17.8883 14.5942 17.4814 14.4257 17.1813 14.1256C16.8812 13.8256 16.7127 13.4186 16.7127 12.9942V12.4422C16.7127 12.0179 16.8812 11.6109 17.1813 11.3109C17.4814 11.0108 17.8883 10.8422 18.3127 10.8422H19.7847C19.9544 10.8422 20.1172 10.9097 20.2372 11.0297C20.3572 11.1497 20.4247 11.3125 20.4247 11.4822C20.4247 11.652 20.3572 11.8148 20.2372 11.9348C20.1172 12.0548 19.9544 12.1222 19.7847 12.1222H18.3127C18.2278 12.1222 18.1464 12.156 18.0864 12.216C18.0264 12.276 17.9927 12.3574 17.9927 12.4422V12.9949C17.9927 13.0798 18.0264 13.1611 18.0864 13.2212C18.1464 13.2812 18.2278 13.3149 18.3127 13.3149H19.7847C19.9544 13.3149 20.1172 13.3823 20.2372 13.5023C20.3572 13.6224 20.4247 13.7851 20.4247 13.9549C20.4247 14.1246 20.3572 14.2874 20.2372 14.4074C20.1172 14.5275 19.9544 14.5949 19.7847 14.5949V14.5942Z" fill="#202020"/>
<path d="M5.88514 19.3837C5.71751 19.3838 5.55657 19.3179 5.43714 19.2003L3.96514 17.7574C3.84675 17.638 3.78013 17.4768 3.77967 17.3086C3.7792 17.1405 3.84494 16.9789 3.96266 16.8588C4.08038 16.7387 4.24063 16.6698 4.40876 16.667C4.57689 16.6641 4.73939 16.7275 4.86114 16.8435L6.33314 18.2867C6.42389 18.3757 6.48609 18.4897 6.51181 18.6142C6.53752 18.7387 6.52559 18.868 6.47754 18.9856C6.42948 19.1033 6.34747 19.204 6.24197 19.2749C6.13646 19.3458 6.01224 19.3837 5.88514 19.3837Z" fill="#202020"/>
<path d="M4.41408 19.3837C4.28697 19.3837 4.16275 19.3458 4.05725 19.2749C3.95174 19.204 3.86973 19.1033 3.82168 18.9856C3.77362 18.868 3.76169 18.7387 3.78741 18.6142C3.81312 18.4897 3.87532 18.3757 3.96608 18.2867L5.43808 16.8435C5.55982 16.7275 5.72233 16.6641 5.89046 16.667C6.05859 16.6698 6.21884 16.7387 6.33656 16.8588C6.45428 16.9789 6.52001 17.1405 6.51955 17.3086C6.51908 17.4768 6.45246 17.638 6.33408 17.7574L4.86208 19.2003C4.74264 19.3179 4.5817 19.3838 4.41408 19.3837Z" fill="#202020"/>
</svg>
