<svg width="24" height="24" viewBox="0 0 24 24" fill="none" xmlns="http://www.w3.org/2000/svg">
<path d="M13.4342 13.2899H10.1817C10.012 13.2899 9.84922 13.2225 9.7292 13.1025C9.60918 12.9824 9.54175 12.8197 9.54175 12.6499C9.54175 12.4802 9.60918 12.3174 9.7292 12.1974C9.84922 12.0773 10.012 12.0099 10.1817 12.0099H13.4342C13.604 12.0099 13.7668 12.0773 13.8868 12.1974C14.0068 12.3174 14.0742 12.4802 14.0742 12.6499C14.0742 12.8197 14.0068 12.9824 13.8868 13.1025C13.7668 13.2225 13.604 13.2899 13.4342 13.2899Z" fill="#202020"/>
<path d="M11.808 14.9162C11.6383 14.9162 11.4755 14.8487 11.3554 14.7287C11.2354 14.6087 11.168 14.4459 11.168 14.2762V11.0234C11.168 10.8536 11.2354 10.6908 11.3554 10.5708C11.4755 10.4508 11.6383 10.3834 11.808 10.3834C11.9777 10.3834 12.1405 10.4508 12.2605 10.5708C12.3806 10.6908 12.448 10.8536 12.448 11.0234V14.2762C12.448 14.3602 12.4314 14.4434 12.3993 14.5211C12.3671 14.5987 12.32 14.6693 12.2605 14.7287C12.2011 14.7881 12.1306 14.8353 12.0529 14.8674C11.9753 14.8996 11.892 14.9162 11.808 14.9162ZM5.88159 8.7328C5.74874 8.73293 5.61913 8.69171 5.51076 8.61486C5.40238 8.53801 5.32061 8.42933 5.27679 8.30391C5.23296 8.17849 5.22926 8.04254 5.26619 7.91491C5.30311 7.78729 5.37885 7.67432 5.48287 7.59168L8.39103 5.28C9.41183 4.4688 10.6115 4.02528 11.8602 3.99744C12.0299 3.99367 12.1942 4.05747 12.3169 4.17482C12.4396 4.29218 12.5106 4.45346 12.5144 4.6232C12.5182 4.79294 12.4544 4.95723 12.337 5.07992C12.2197 5.20262 12.0584 5.27367 11.8886 5.27744C10.9219 5.29888 9.98783 5.6464 9.18719 6.28256L6.27935 8.5936C6.16636 8.68371 6.02612 8.73279 5.88159 8.7328Z" fill="#202020"/>
<path d="M17.2902 8.73601C17.1771 8.73593 17.0661 8.70589 16.9684 8.64894C16.8707 8.59199 16.7898 8.51016 16.734 8.41179C16.6782 8.31343 16.6495 8.20203 16.6507 8.08894C16.652 7.97586 16.6831 7.86512 16.7411 7.76801L17.4771 6.53409C17.5458 6.41799 17.5661 6.27956 17.5337 6.1486C17.5014 6.01765 17.4189 5.90465 17.304 5.83393L14.0329 3.83681C13.9171 3.76642 13.7782 3.74461 13.6463 3.77613C13.5145 3.80765 13.4004 3.88995 13.3289 4.00513L10.8291 8.05729C10.7364 8.19374 10.5947 8.28914 10.4334 8.32359C10.2721 8.35805 10.1037 8.3289 9.96335 8.24222C9.82302 8.15555 9.72157 8.01804 9.68017 7.85838C9.63876 7.69872 9.66059 7.52924 9.74111 7.38529L12.24 3.33313C12.4896 2.93032 12.8882 2.64244 13.349 2.53222C13.8099 2.42199 14.2957 2.49835 14.7005 2.74465L17.9709 4.74305C18.3723 4.99032 18.6606 5.38531 18.7738 5.84301C18.887 6.30071 18.8159 6.78455 18.576 7.19041L17.84 8.42465C17.7831 8.51968 17.7026 8.59832 17.6062 8.6529C17.5098 8.70747 17.401 8.73611 17.2902 8.73601Z" fill="#202020"/>
<path d="M12.8189 8.69408C12.7073 8.694 12.5976 8.66472 12.5008 8.60916C12.404 8.5536 12.3234 8.4737 12.267 8.37737C12.2107 8.28104 12.1804 8.17164 12.1794 8.06003C12.1784 7.94842 12.2065 7.83848 12.2611 7.74112L14.6448 3.488C14.6855 3.41402 14.7405 3.34882 14.8066 3.29618C14.8726 3.24354 14.9484 3.2045 15.0296 3.1813C15.1108 3.1581 15.1958 3.1512 15.2797 3.161C15.3636 3.17081 15.4447 3.19712 15.5184 3.23842C15.5921 3.27972 15.6569 3.3352 15.709 3.40165C15.7611 3.4681 15.7996 3.54421 15.8222 3.6256C15.8447 3.70698 15.851 3.79203 15.8405 3.87585C15.8301 3.95966 15.8031 4.04057 15.7613 4.11392L13.3779 8.36704C13.3222 8.46635 13.2411 8.54901 13.1428 8.6065C13.0446 8.66399 12.9327 8.69422 12.8189 8.69408Z" fill="#202020"/>
<path d="M17.1635 17.847H6.45249C5.77465 17.8462 5.12481 17.5765 4.6455 17.0972C4.16619 16.6179 3.89654 15.9681 3.89569 15.2902V10.0102C3.89654 9.33238 4.16619 8.68254 4.6455 8.20324C5.12481 7.72393 5.77465 7.45428 6.45249 7.45343H17.1635C17.8414 7.45428 18.4912 7.72393 18.9705 8.20324C19.4498 8.68254 19.7195 9.33238 19.7203 10.0102V15.2902C19.7195 15.9681 19.4498 16.6179 18.9705 17.0972C18.4912 17.5765 17.8414 17.8462 17.1635 17.847ZM6.45249 8.73279C6.11412 8.73363 5.78985 8.86843 5.55059 9.10769C5.31133 9.34695 5.17654 9.67122 5.17569 10.0096V15.2896C5.17654 15.628 5.31133 15.9522 5.55059 16.1915C5.78985 16.4308 6.11412 16.5655 6.45249 16.5664H17.1635C17.5019 16.5655 17.8262 16.4308 18.0654 16.1915C18.3047 15.9522 18.4395 15.628 18.4403 15.2896V10.0096C18.4395 9.67122 18.3047 9.34695 18.0654 9.10769C17.8262 8.86843 17.5019 8.73363 17.1635 8.73279H6.45249Z" fill="#202020"/>
</svg>
