<svg width="24" height="24" viewBox="0 0 24 24" fill="none" xmlns="http://www.w3.org/2000/svg">
<path d="M17.0365 19.7574H5.53601C4.96298 19.7568 4.41359 19.5289 4.0084 19.1237C3.60321 18.7186 3.37532 18.1692 3.37473 17.5961V9.64126C3.37532 9.06824 3.60321 8.51885 4.0084 8.11366C4.41359 7.70847 4.96298 7.48057 5.53601 7.47998H17.0365C17.6095 7.48066 18.1588 7.70858 18.564 8.11375C18.9692 8.51892 19.1971 9.06826 19.1978 9.64126V17.5961C19.1971 18.1691 18.9692 18.7185 18.564 19.1236C18.1588 19.5288 17.6095 19.7567 17.0365 19.7574ZM5.53601 8.75998C5.30235 8.76023 5.07834 8.85316 4.91313 9.01838C4.74791 9.1836 4.65498 9.40761 4.65473 9.64126V17.5961C4.65498 17.8298 4.74791 18.0538 4.91313 18.219C5.07834 18.3842 5.30235 18.4772 5.53601 18.4774H17.0365C17.2701 18.4772 17.4941 18.3842 17.6594 18.219C17.8246 18.0538 17.9175 17.8298 17.9178 17.5961V9.64126C17.9175 9.40761 17.8246 9.1836 17.6594 9.01838C17.4941 8.85316 17.2701 8.76023 17.0365 8.75998H5.53601Z" fill="#202020"/>
<path d="M5.344 8.76029C5.19274 8.76053 5.04629 8.70718 4.93062 8.60972C4.81495 8.51226 4.73754 8.37698 4.71211 8.22787C4.68669 8.07877 4.71489 7.92548 4.79172 7.79519C4.86856 7.6649 4.98905 7.56604 5.13184 7.51613L12.233 5.02013C12.4562 4.94161 12.6951 4.91776 12.9295 4.95059C13.1639 4.98342 13.387 5.07196 13.5802 5.2088C13.7733 5.34563 13.9308 5.52678 14.0395 5.73704C14.1482 5.94731 14.2049 6.18056 14.2048 6.41725V8.11933C14.2048 8.28907 14.1374 8.45186 14.0173 8.57188C13.8973 8.6919 13.7345 8.75933 13.5648 8.75933C13.3951 8.75933 13.2323 8.6919 13.1123 8.57188C12.9922 8.45186 12.9248 8.28907 12.9248 8.11933V6.41789C12.9248 6.38577 12.9171 6.35411 12.9024 6.32556C12.8877 6.29702 12.8663 6.27242 12.8401 6.25384C12.8139 6.23525 12.7836 6.22322 12.7518 6.21875C12.72 6.21427 12.6876 6.21749 12.6573 6.22813L5.55616 8.72413C5.48799 8.74807 5.41626 8.7603 5.344 8.76029ZM16.1642 11.0211H13.2502C13.0805 11.0211 12.9177 10.9537 12.7977 10.8336C12.6777 10.7136 12.6102 10.5508 12.6102 10.3811C12.6102 10.2114 12.6777 10.0486 12.7977 9.92854C12.9177 9.80852 13.0805 9.74109 13.2502 9.74109H16.1642C16.3339 9.74109 16.4967 9.80852 16.6167 9.92854C16.7367 10.0486 16.8042 10.2114 16.8042 10.3811C16.8042 10.5508 16.7367 10.7136 16.6167 10.8336C16.4967 10.9537 16.3339 11.0211 16.1642 11.0211ZM19.2272 15.5792H16.3923C16.0713 15.5788 15.7635 15.4511 15.5366 15.224C15.3097 14.9969 15.1822 14.689 15.1821 14.368V13.5219C15.1824 13.201 15.31 12.8934 15.5369 12.6665C15.7638 12.4396 16.0714 12.312 16.3923 12.3117H19.2272C19.5481 12.3119 19.8558 12.4395 20.0828 12.6664C20.3098 12.8933 20.4374 13.201 20.4378 13.5219V14.368C20.4377 14.6891 20.3101 14.997 20.0831 15.2241C19.8562 15.4512 19.5483 15.5789 19.2272 15.5792ZM16.4621 14.2992H19.1578V13.5917H16.4621V14.2992Z" fill="#202020"/>
</svg>
