<svg width="24" height="24" viewBox="0 0 24 24" fill="none" xmlns="http://www.w3.org/2000/svg">
<path d="M15.4905 18.0611H8.5094C7.82791 18.0602 7.17457 17.7891 6.69268 17.3072C6.21079 16.8253 5.93969 16.172 5.93884 15.4905V8.50939C5.93969 7.82789 6.21079 7.17455 6.69268 6.69266C7.17457 6.21077 7.82791 5.93967 8.5094 5.93883H15.4905C16.172 5.93967 16.8254 6.21077 17.3072 6.69266C17.7891 7.17455 18.0602 7.82789 18.0611 8.50939V15.4905C18.0602 16.172 17.7891 16.8253 17.3072 17.3072C16.8254 17.7891 16.172 18.0602 15.4905 18.0611ZM8.5094 7.21883C8.16723 7.21917 7.83917 7.35524 7.59721 7.5972C7.35526 7.83915 7.21918 8.16721 7.21884 8.50939V15.4905C7.21918 15.8327 7.35526 16.1607 7.59721 16.4027C7.83917 16.6447 8.16723 16.7807 8.5094 16.7811H15.4905C15.8327 16.7807 16.1608 16.6447 16.4027 16.4027C16.6447 16.1607 16.7807 15.8327 16.7811 15.4905V8.50939C16.7807 8.16721 16.6447 7.83915 16.4027 7.5972C16.1608 7.35524 15.8327 7.21917 15.4905 7.21883H8.5094ZM15.0652 5.07291H8.93468C8.76494 5.07291 8.60216 5.00548 8.48213 4.88546C8.36211 4.76543 8.29468 4.60265 8.29468 4.43291C8.29468 4.26317 8.36211 4.10038 8.48213 3.98036C8.60216 3.86034 8.76494 3.79291 8.93468 3.79291H15.0652C15.235 3.79291 15.3978 3.86034 15.5178 3.98036C15.6378 4.10038 15.7052 4.26317 15.7052 4.43291C15.7052 4.60265 15.6378 4.76543 15.5178 4.88546C15.3978 5.00548 15.235 5.07291 15.0652 5.07291ZM15.0652 20.207H8.93468C8.76494 20.207 8.60216 20.1396 8.48213 20.0195C8.36211 19.8995 8.29468 19.7367 8.29468 19.567C8.29468 19.3972 8.36211 19.2345 8.48213 19.1144C8.60216 18.9944 8.76494 18.927 8.93468 18.927H15.0652C15.235 18.927 15.3978 18.9944 15.5178 19.1144C15.6378 19.2345 15.7052 19.3972 15.7052 19.567C15.7052 19.7367 15.6378 19.8995 15.5178 20.0195C15.3978 20.1396 15.235 20.207 15.0652 20.207Z" fill="#202020"/>
<path d="M9.83617 13.8323C9.66643 13.8323 9.50364 13.7649 9.38362 13.6448C9.26359 13.5248 9.19617 13.362 9.19617 13.1923V11.6339C9.19617 11.4642 9.26359 11.3014 9.38362 11.1814C9.50364 11.0613 9.66643 10.9939 9.83617 10.9939C10.0059 10.9939 10.1687 11.0613 10.2887 11.1814C10.4087 11.3014 10.4762 11.4642 10.4762 11.6339V13.1923C10.4762 13.362 10.4087 13.5248 10.2887 13.6448C10.1687 13.7649 10.0059 13.8323 9.83617 13.8323ZM12 13.8323C11.8303 13.8323 11.6675 13.7649 11.5475 13.6448C11.4274 13.5248 11.36 13.362 11.36 13.1923V10.176C11.36 10.0062 11.4274 9.84345 11.5475 9.72343C11.6675 9.60341 11.8303 9.53598 12 9.53598C12.1697 9.53598 12.3325 9.60341 12.4526 9.72343C12.5726 9.84345 12.64 10.0062 12.64 10.176V13.1913C12.6401 13.2755 12.6237 13.3588 12.5916 13.4366C12.5595 13.5143 12.5123 13.585 12.4529 13.6445C12.3935 13.704 12.3229 13.7513 12.2451 13.7835C12.1674 13.8157 12.0841 13.8323 12 13.8323ZM14.1958 13.8323C14.0261 13.8323 13.8633 13.7649 13.7433 13.6448C13.6233 13.5248 13.5558 13.362 13.5558 13.1923V11.1597C13.5558 10.9899 13.6233 10.8271 13.7433 10.7071C13.8633 10.5871 14.0261 10.5197 14.1958 10.5197C14.3656 10.5197 14.5284 10.5871 14.6484 10.7071C14.7684 10.8271 14.8358 10.9899 14.8358 11.1597V13.1923C14.8358 13.362 14.7684 13.5248 14.6484 13.6448C14.5284 13.7649 14.3656 13.8323 14.1958 13.8323Z" fill="#202020"/>
</svg>
