<svg width="24" height="24" viewBox="0 0 24 24" fill="none" xmlns="http://www.w3.org/2000/svg">
<path d="M15.4905 18.0611H8.5094C7.82791 18.0603 7.17457 17.7892 6.69268 17.3073C6.21079 16.8254 5.93969 16.1721 5.93884 15.4906V8.50945C5.93969 7.82795 6.21079 7.17461 6.69268 6.69272C7.17457 6.21083 7.82791 5.93974 8.5094 5.93889H15.4905C16.172 5.93974 16.8254 6.21083 17.3072 6.69272C17.7891 7.17461 18.0602 7.82795 18.0611 8.50945V15.4906C18.0602 16.1721 17.7891 16.8254 17.3072 17.3073C16.8254 17.7892 16.172 18.0603 15.4905 18.0611ZM8.5094 7.21889C8.16723 7.21923 7.83917 7.35531 7.59721 7.59726C7.35526 7.83921 7.21918 8.16727 7.21884 8.50945V15.4906C7.21918 15.8327 7.35526 16.1608 7.59721 16.4028C7.83917 16.6447 8.16723 16.7808 8.5094 16.7811H15.4905C15.8327 16.7808 16.1608 16.6447 16.4027 16.4028C16.6447 16.1608 16.7807 15.8327 16.7811 15.4906V8.50945C16.7807 8.16727 16.6447 7.83921 16.4027 7.59726C16.1608 7.35531 15.8327 7.21923 15.4905 7.21889H8.5094ZM15.0652 5.07297H8.93468C8.76494 5.07297 8.60216 5.00554 8.48213 4.88552C8.36211 4.76549 8.29468 4.60271 8.29468 4.43297C8.29468 4.26323 8.36211 4.10044 8.48213 3.98042C8.60216 3.8604 8.76494 3.79297 8.93468 3.79297H15.0652C15.235 3.79297 15.3978 3.8604 15.5178 3.98042C15.6378 4.10044 15.7052 4.26323 15.7052 4.43297C15.7052 4.60271 15.6378 4.76549 15.5178 4.88552C15.3978 5.00554 15.235 5.07297 15.0652 5.07297ZM15.0652 20.207H8.93468C8.76494 20.207 8.60216 20.1396 8.48213 20.0196C8.36211 19.8996 8.29468 19.7368 8.29468 19.567C8.29468 19.3973 8.36211 19.2345 8.48213 19.1145C8.60216 18.9945 8.76494 18.927 8.93468 18.927H15.0652C15.235 18.927 15.3978 18.9945 15.5178 19.1145C15.6378 19.2345 15.7052 19.3973 15.7052 19.567C15.7052 19.7368 15.6378 19.8996 15.5178 20.0196C15.3978 20.1396 15.235 20.207 15.0652 20.207Z" fill="#202020"/>
<path d="M9.88385 13.9229C9.74423 13.9228 9.60846 13.8771 9.49724 13.7927C9.38602 13.7083 9.30545 13.5898 9.26782 13.4554C9.23019 13.3209 9.23757 13.1778 9.28882 13.0479C9.34007 12.9181 9.43238 12.8085 9.55169 12.736L11.36 11.6394V8.99199C11.36 8.82225 11.4274 8.65946 11.5475 8.53944C11.6675 8.41942 11.8303 8.35199 12 8.35199C12.1698 8.35199 12.3325 8.41942 12.4526 8.53944C12.5726 8.65946 12.64 8.82225 12.64 8.99199V12C12.64 12.11 12.6116 12.2181 12.5577 12.314C12.5037 12.4098 12.4259 12.4902 12.3319 12.5472L10.2151 13.8301C10.1153 13.8909 10.0007 13.923 9.88385 13.9229Z" fill="#202020"/>
</svg>
