<svg width="24" height="24" viewBox="0 0 24 24" fill="none" xmlns="http://www.w3.org/2000/svg">
<path d="M15.4906 18.0611H8.50953C7.82803 18.0603 7.17469 17.7892 6.6928 17.3073C6.21091 16.8254 5.93981 16.1721 5.93896 15.4906V8.50945C5.93981 7.82795 6.21091 7.17461 6.6928 6.69272C7.17469 6.21083 7.82803 5.93974 8.50953 5.93889H15.4906C16.1721 5.93974 16.8255 6.21083 17.3074 6.69272C17.7893 7.17461 18.0604 7.82795 18.0612 8.50945V15.4906C18.0604 16.1721 17.7893 16.8254 17.3074 17.3073C16.8255 17.7892 16.1721 18.0603 15.4906 18.0611ZM8.50953 7.21889C8.16735 7.21923 7.83929 7.35531 7.59734 7.59726C7.35538 7.83921 7.2193 8.16728 7.21896 8.50945V15.4906C7.2193 15.8327 7.35538 16.1608 7.59734 16.4028C7.83929 16.6447 8.16735 16.7808 8.50953 16.7811H15.4906C15.8328 16.7808 16.1609 16.6447 16.4028 16.4028C16.6448 16.1608 16.7809 15.8327 16.7812 15.4906V8.50945C16.7809 8.16728 16.6448 7.83921 16.4028 7.59726C16.1609 7.35531 15.8328 7.21923 15.4906 7.21889H8.50953ZM15.0654 5.07297H8.9348C8.76507 5.07297 8.60228 5.00554 8.48226 4.88552C8.36223 4.76549 8.2948 4.60271 8.2948 4.43297C8.2948 4.26323 8.36223 4.10044 8.48226 3.98042C8.60228 3.8604 8.76507 3.79297 8.9348 3.79297H15.0654C15.2351 3.79297 15.3979 3.8604 15.5179 3.98042C15.6379 4.10044 15.7054 4.26323 15.7054 4.43297C15.7054 4.60271 15.6379 4.76549 15.5179 4.88552C15.3979 5.00554 15.2351 5.07297 15.0654 5.07297ZM15.0654 20.207H8.9348C8.76507 20.207 8.60228 20.1396 8.48226 20.0196C8.36223 19.8996 8.2948 19.7368 8.2948 19.567C8.2948 19.3973 8.36223 19.2345 8.48226 19.1145C8.60228 18.9945 8.76507 18.927 8.9348 18.927H15.0654C15.2351 18.927 15.3979 18.9945 15.5179 19.1145C15.6379 19.2345 15.7054 19.3973 15.7054 19.567C15.7054 19.7368 15.6379 19.8996 15.5179 20.0196C15.3979 20.1396 15.2351 20.207 15.0654 20.207Z" fill="#202020"/>
<path d="M9.88385 13.9229C9.74423 13.9228 9.60846 13.8771 9.49724 13.7927C9.38602 13.7083 9.30545 13.5898 9.26782 13.4554C9.23019 13.3209 9.23757 13.1778 9.28882 13.0479C9.34007 12.9181 9.43238 12.8085 9.55169 12.736L11.36 11.6394V8.99199C11.36 8.82225 11.4274 8.65946 11.5475 8.53944C11.6675 8.41942 11.8303 8.35199 12 8.35199C12.1698 8.35199 12.3325 8.41942 12.4526 8.53944C12.5726 8.65946 12.64 8.82225 12.64 8.99199V12C12.64 12.11 12.6116 12.2181 12.5577 12.314C12.5037 12.4098 12.4259 12.4902 12.3319 12.5472L10.2151 13.8301C10.1153 13.8909 10.0007 13.923 9.88385 13.9229Z" fill="#202020"/>
</svg>
