<svg width="24" height="24" viewBox="0 0 24 24" fill="none" xmlns="http://www.w3.org/2000/svg">
<path d="M15.7897 20.4557H8.21022C7.37884 20.4546 6.58182 20.1238 5.99395 19.536C5.40607 18.9481 5.07532 18.1511 5.07422 17.3197V6.68098C5.07532 5.8496 5.40607 5.05259 5.99395 4.46471C6.58182 3.87684 7.37884 3.54608 8.21022 3.54498H15.7897C16.6211 3.54608 17.4181 3.87684 18.006 4.46471C18.5939 5.05259 18.9246 5.8496 18.9257 6.68098V17.3191C18.9248 18.1506 18.5941 18.9477 18.0062 19.5357C17.4183 20.1238 16.6212 20.4546 15.7897 20.4557ZM8.21022 4.82434C7.71818 4.82502 7.2465 5.02078 6.89858 5.3687C6.55066 5.71662 6.3549 6.18831 6.35422 6.68034V17.3191C6.3549 17.8111 6.55066 18.2828 6.89858 18.6307C7.2465 18.9786 7.71818 19.1744 8.21022 19.1751H15.7897C16.2818 19.1744 16.7535 18.9786 17.1014 18.6307C17.4493 18.2828 17.6451 17.8111 17.6457 17.3191V6.68098C17.6451 6.18895 17.4493 5.71726 17.1014 5.36934C16.7535 5.02142 16.2818 4.82566 15.7897 4.82498L8.21022 4.82434Z" fill="#202020"/>
<path d="M14.7718 10.7603C14.6709 10.7603 14.5715 10.7365 14.4816 10.6909C13.7609 10.3334 12.9673 10.1474 12.1628 10.1474C11.3584 10.1474 10.5648 10.3334 9.84411 10.6909C9.76251 10.7325 9.67291 10.7561 9.58139 10.7602C9.48987 10.7642 9.39855 10.7485 9.31361 10.7142C9.22866 10.6799 9.15208 10.6277 9.08902 10.5613C9.02597 10.4948 8.97792 10.4156 8.94811 10.329L8.16955 8.06849C8.11862 7.92065 8.12356 7.75928 8.18346 7.61484C8.24336 7.4704 8.35406 7.35289 8.49467 7.28449C9.64014 6.73746 10.8935 6.45355 12.1628 6.45355C13.4322 6.45355 14.6855 6.73746 15.831 7.28449C15.9716 7.35289 16.0823 7.4704 16.1422 7.61484C16.2021 7.75928 16.2071 7.92065 16.1561 8.06849L15.3769 10.329C15.3335 10.4549 15.2518 10.5641 15.1434 10.6415C15.0349 10.7188 14.905 10.7603 14.7718 10.7603ZM9.57243 8.21057L9.93371 9.25889C10.6362 9.00291 11.3777 8.8705 12.1254 8.86753H12.1632C12.9232 8.86624 13.6776 8.99883 14.3916 9.25921L14.752 8.21057C13.9347 7.89728 13.0672 7.73571 12.192 7.73377H12.16C11.2755 7.73217 10.3983 7.89381 9.57243 8.21057Z" fill="#202020"/>
</svg>
