<svg width="24" height="24" viewBox="0 0 24 24" fill="none" xmlns="http://www.w3.org/2000/svg">
<path d="M15.7897 20.4556H8.21022C7.37884 20.4545 6.58182 20.1238 5.99395 19.5359C5.40607 18.948 5.07532 18.151 5.07422 17.3196V6.68092C5.07532 5.84954 5.40607 5.05253 5.99395 4.46465C6.58182 3.87678 7.37884 3.54602 8.21022 3.54492H15.7897C16.6211 3.54602 17.4181 3.87678 18.006 4.46465C18.5939 5.05253 18.9246 5.84954 18.9257 6.68092V17.319C18.9248 18.1505 18.5941 18.9477 18.0062 19.5357C17.4183 20.1237 16.6212 20.4545 15.7897 20.4556ZM8.21022 4.82428C7.71819 4.82496 7.2465 5.02072 6.89858 5.36864C6.55066 5.71656 6.3549 6.18825 6.35422 6.68028V17.319C6.3549 17.811 6.55066 18.2827 6.89858 18.6306C7.2465 18.9786 7.71819 19.1743 8.21022 19.175H15.7897C16.2818 19.1743 16.7535 18.9786 17.1014 18.6306C17.4493 18.2827 17.6451 17.811 17.6457 17.319V6.68092C17.6451 6.18889 17.4493 5.7172 17.1014 5.36928C16.7535 5.02136 16.2818 4.8256 15.7897 4.82492L8.21022 4.82428Z" fill="#202020"/>
<path d="M14.7719 10.7603C14.6711 10.7602 14.5716 10.7365 14.4817 10.6908C13.761 10.3334 12.9674 10.1474 12.163 10.1474C11.3585 10.1474 10.5649 10.3334 9.84424 10.6908C9.76263 10.7325 9.67304 10.7561 9.58151 10.7601C9.48999 10.7641 9.39867 10.7484 9.31373 10.7141C9.22879 10.6798 9.1522 10.6277 9.08914 10.5612C9.02609 10.4948 8.97804 10.4155 8.94824 10.3289L8.16968 8.06843C8.11874 7.92059 8.12369 7.75922 8.18358 7.61478C8.24348 7.47034 8.35418 7.35283 8.4948 7.28443C9.64026 6.7374 10.8936 6.45349 12.163 6.45349C13.4323 6.45349 14.6856 6.7374 15.8311 7.28443C15.9717 7.35283 16.0824 7.47034 16.1423 7.61478C16.2022 7.75922 16.2072 7.92059 16.1562 8.06843L15.377 10.3289C15.3336 10.4548 15.252 10.5641 15.1435 10.6414C15.035 10.7187 14.9051 10.7603 14.7719 10.7603ZM9.57256 8.21051L9.93384 9.25883C10.6363 9.00285 11.3778 8.87044 12.1255 8.86747H12.1633C12.9233 8.86618 13.6777 8.99876 14.3918 9.25915L14.7521 8.21051C13.9348 7.89722 13.0673 7.73565 12.1921 7.73371H12.1601C11.2756 7.73211 10.3984 7.89375 9.57256 8.21051Z" fill="#202020"/>
</svg>
