<svg width="24" height="24" viewBox="0 0 24 24" fill="none" xmlns="http://www.w3.org/2000/svg">
<path d="M17.5039 18.08H6.49595C4.86843 18.08 3.54395 16.6032 3.54395 14.7878V9.21344C3.54427 7.39808 4.86875 5.92 6.49595 5.92H17.5039C19.1315 5.92 20.4559 7.3968 20.4559 9.21216V14.7866C20.4556 16.6019 19.1311 18.08 17.5039 18.08ZM6.49595 7.2C5.57403 7.2 4.82395 8.10272 4.82395 9.21216V14.7866C4.82427 15.896 5.57435 16.8 6.49595 16.8H17.5039C18.4259 16.8 19.1759 15.8973 19.1759 14.7878V9.21344C19.1756 8.104 18.4255 7.2 17.5039 7.2H6.49595Z" fill="#202020"/>
<path d="M10.1294 14.7802C9.95992 14.7802 9.79738 14.713 9.6774 14.5933C9.55742 14.4736 9.48981 14.3112 9.48938 14.1418L9.47754 9.80128C9.4771 9.68873 9.50634 9.57804 9.56233 9.48039C9.61832 9.38274 9.69907 9.30159 9.79644 9.24512C9.89381 9.18864 10.0043 9.15885 10.1169 9.15874C10.2295 9.15863 10.3401 9.1882 10.4375 9.24448L14.2023 11.4045C14.2998 11.4604 14.3808 11.541 14.4372 11.6381C14.4936 11.7353 14.5235 11.8456 14.5238 11.9579C14.524 12.0702 14.4948 12.1807 14.4389 12.2781C14.3829 12.3755 14.3024 12.4565 14.2052 12.513L10.451 14.6934C10.3533 14.7502 10.2424 14.7801 10.1294 14.7802ZM10.7607 10.9082L10.7665 13.0314L12.6027 11.9648L10.7607 10.9082Z" fill="#202020"/>
</svg>
