<svg width="25" height="24" viewBox="0 0 25 24" fill="none" xmlns="http://www.w3.org/2000/svg">
<path d="M10.4947 19.4864C10.0179 17.4161 9.5006 15.943 8.53018 14.8992C7.54417 13.8386 6.18896 13.3236 4.32483 12.8994C4.3239 12.8949 4.32285 12.8894 4.32275 12.8835C4.3227 12.8797 4.32311 12.8763 4.32344 12.8731C6.22658 12.3854 7.5826 11.8477 8.58542 10.7974C9.57403 9.76186 10.1328 8.31653 10.6971 6.26058C11.0601 8.32143 11.4999 9.80992 12.4662 10.8692C13.4443 11.9413 14.8537 12.46 16.8193 12.8911C16.8208 12.8977 16.8222 12.9056 16.8221 12.9146C16.8221 12.9238 16.8216 12.9322 16.82 12.9387C14.8159 13.3508 13.3741 13.8622 12.3654 14.9199C11.3622 15.9719 10.8954 17.4517 10.5182 19.4864C10.5147 19.4869 10.5107 19.4869 10.5065 19.4871C10.5024 19.4872 10.4981 19.4867 10.4947 19.4864Z" stroke="#33363F" stroke-width="1.5"/>
<path d="M17.4063 9.40271C17.163 8.55152 16.8642 7.87535 16.3774 7.35459C15.8787 6.821 15.2409 6.51288 14.4502 6.28081C15.2658 6.02417 15.9118 5.70346 16.4223 5.16491C16.911 4.64939 17.226 3.9865 17.4996 3.1444C17.6933 3.9787 17.9555 4.65478 18.4221 5.18148C18.9205 5.74406 19.5866 6.06289 20.4247 6.30153C19.5763 6.53027 18.898 6.83768 18.3848 7.38014C17.8914 7.90178 17.612 8.57447 17.4063 9.40271Z" stroke="#33363F" stroke-width="1.3"/>
</svg>
