<svg width="20" height="20" viewBox="0 0 20 20" fill="none" xmlns="http://www.w3.org/2000/svg">
<ellipse cx="10.0013" cy="6.66732" rx="3.33333" ry="3.33333" stroke="#33363F" stroke-width="2.5" stroke-linecap="round"/>
<path d="M9.89062 12.584C9.3625 12.9727 8.96676 13.5289 8.78223 14.1758C7.88176 14.3134 7.0364 14.6011 6.31445 15.0166C5.27413 15.6153 4.57463 16.4265 4.26562 17.291C4.12627 17.6811 3.69671 17.8845 3.30664 17.7451C2.91692 17.6056 2.71324 17.176 2.85254 16.7861C3.30335 15.5247 4.27857 14.457 5.56641 13.7158C6.82537 12.9914 8.342 12.6014 9.89062 12.584Z" fill="#33363F"/>
<path d="M11.6653 15C12.5 15 14.9974 13 15 11.5C14.9974 13 17 15 18.332 15C16.9525 15 15 17 14.9974 18.5C15 17.0135 12.5 15 11.6653 15Z" stroke="#33363F" stroke-width="2.5" stroke-linecap="round" stroke-linejoin="round"/>
</svg>
