<?xml version="1.0" encoding="utf-8"?><!-- Uploaded to: SVG Repo, www.svgrepo.com, Generator: SVG Repo Mixer Tools -->
<svg fill="#000000" width="800px" height="800px" viewBox="0 0 24 24" xmlns="http://www.w3.org/2000/svg"><path d="M12,1A11,11,0,1,0,23,12,11.013,11.013,0,0,0,12,1Zm0,20a9,9,0,1,1,9-9A9.01,9.01,0,0,1,12,21ZM8,9a1,1,0,0,0-1,1,1,1,0,0,1-2,0,3,3,0,0,1,6,0,1,1,0,0,1-2,0A1,1,0,0,0,8,9Zm9,0a1,1,0,0,0-1,1,1,1,0,0,1-2,0,3,3,0,0,1,6,0,1,1,0,0,1-2,0A1,1,0,0,0,17,9ZM16.775,16.368a1,1,0,0,1-1.55,1.264,4,4,0,0,0-6.45,0,1,1,0,1,1-1.55-1.264,6,6,0,0,1,9.55,0Z"/></svg>








