<svg width="13" height="13" viewBox="0 0 13 13" fill="none" xmlns="http://www.w3.org/2000/svg">
<path d="M3.25 8.12565V3.20898C3.25 2.97328 3.25 2.85543 3.32322 2.78221C3.39645 2.70898 3.5143 2.70898 3.75 2.70898H8.54289C9.05663 2.70898 9.31349 2.70898 9.37742 2.86331C9.44134 3.01764 9.25971 3.19927 8.89645 3.56254L7.32451 5.13448C7.19118 5.26781 7.12451 5.33448 7.12451 5.41732C7.12451 5.50016 7.19118 5.56683 7.32451 5.70016L8.89645 7.2721C9.25971 7.63536 9.44134 7.81699 9.37742 7.97132C9.31349 8.12565 9.05663 8.12565 8.54289 8.12565H3.25ZM3.25 8.12565V10.2923" stroke="#FF8D28" stroke-linecap="round"/>
</svg>
