<svg width="29" height="31" viewBox="0 0 29 31" fill="none" xmlns="http://www.w3.org/2000/svg">
<path d="M28.064 30.968C28.064 30.968 23.34 29.173 19.518 27.735H3.445C1.542 27.735 0 26.155 0 24.207V3.527C0 1.58 1.542 0 3.445 0H24.617C26.52 0 28.063 1.58 28.063 3.527V21.338L28.064 21.337V30.968ZM23.916 19.372C23.586 18.978 23.005 18.933 22.621 19.27C22.591 19.296 19.599 21.866 14.03 21.866C8.532 21.866 5.494 19.314 5.439 19.268C5.054 18.932 4.476 18.979 4.146 19.372C3.815 19.767 3.861 20.36 4.246 20.699C4.389 20.823 7.792 23.747 14.03 23.747C20.271 23.747 23.675 20.823 23.816 20.699C24.201 20.36 24.247 19.767 23.916 19.372Z" fill="white"/>
</svg>
