<svg width="24" height="24" viewBox="0 0 24 24" fill="none" xmlns="http://www.w3.org/2000/svg">
<path d="M12 6.5C12 6.26076 12 6.14115 12.0807 6.06687C12.1615 5.99259 12.2741 6.002 12.4994 6.02082C13.3679 6.09336 14.2123 6.35444 14.9728 6.78821C15.8784 7.30476 16.6337 8.04837 17.1645 8.94575C17.6952 9.84313 17.9829 10.8633 17.9993 11.9058C18.013 12.7811 17.835 13.6468 17.4802 14.4428C17.3881 14.6493 17.3421 14.7526 17.2381 14.7876C17.1342 14.8225 17.0293 14.7649 16.8197 14.6496L12.2591 12.1425C12.1328 12.073 12.0696 12.0383 12.0348 11.9794C12 11.9205 12 11.8485 12 11.7043L12 6.5Z" fill="#003A5A"/>
<circle cx="12" cy="12" r="9" stroke="#003A5A" stroke-width="2"/>
</svg>
