<svg width="13" height="13" viewBox="0 0 13 13" fill="none" xmlns="http://www.w3.org/2000/svg">
<path d="M10.832 5.41732L10.832 4.87565C10.832 4.37192 10.832 4.12005 10.7767 3.9134C10.6264 3.35263 10.1884 2.91461 9.62761 2.76435C9.42097 2.70898 9.1691 2.70898 8.66537 2.70898" stroke="#FF8D28" stroke-linejoin="round"/>
<path d="M10.832 7.58398L10.832 8.12565C10.832 8.62939 10.832 8.88125 10.7767 9.0879C10.6264 9.64867 10.1884 10.0867 9.62761 10.2369C9.42097 10.2923 9.1691 10.2923 8.66537 10.2923" stroke="#FF8D28" stroke-linejoin="round"/>
<path d="M5.41797 10.2923L4.8763 10.2923C3.8638 10.2923 3.35755 10.2923 2.98047 10.0746C2.73344 9.93199 2.5283 9.72685 2.38568 9.47982C2.16797 9.10274 2.16797 8.59648 2.16797 7.58398" stroke="#FF8D28" stroke-linejoin="round"/>
<path d="M5.41797 2.70898L4.8763 2.70898C3.8638 2.70898 3.35755 2.70898 2.98047 2.92669C2.73344 3.06932 2.5283 3.27445 2.38568 3.52148C2.16797 3.89857 2.16797 4.40482 2.16797 5.41732" stroke="#FF8D28" stroke-linejoin="round"/>
<path d="M5.41797 11.375L5.41797 1.625" stroke="#FF8D28" stroke-linecap="round" stroke-linejoin="round"/>
</svg>
